M48
; DRILL file {KiCad 8.0.3-8.0.3-0~ubuntu22.04.1} date 2024-07-03T00:47:10-0400
; FORMAT={-:-/ absolute / metric / decimal}
; #@! TF.CreationDate,2024-07-03T00:47:10-04:00
; #@! TF.GenerationSoftware,Kicad,Pcbnew,8.0.3-8.0.3-0~ubuntu22.04.1
; #@! TF.FileFunction,Plated,1,4,PTH
FMAT,2
METRIC
; #@! TA.AperFunction,Plated,PTH,ViaDrill
T1C0.300
; #@! TA.AperFunction,Plated,PTH,ComponentDrill
T2C0.300
; #@! TA.AperFunction,Plated,PTH,ComponentDrill
T3C0.500
; #@! TA.AperFunction,Plated,PTH,ComponentDrill
T4C0.760
; #@! TA.AperFunction,Plated,PTH,ComponentDrill
T5C1.000
; #@! TA.AperFunction,Plated,PTH,ComponentDrill
T6C1.200
; #@! TA.AperFunction,Plated,PTH,ComponentDrill
T7C1.600
; #@! TA.AperFunction,Plated,PTH,ComponentDrill
T8C1.700
; #@! TA.AperFunction,Plated,PTH,ComponentDrill
T9C1.900
; #@! TA.AperFunction,Plated,PTH,ComponentDrill
T10C3.200
%
G90
G05
T1
X43.66Y-61.77
X52.36Y-79.52
X52.41Y-71.02
X52.41Y-72.02
X52.41Y-73.02
X52.41Y-81.27
X53.66Y-67.52
X57.16Y-50.77
X57.16Y-79.52
X58.16Y-84.77
X58.91Y-66.27
X59.41Y-70.02
X60.66Y-65.52
X61.91Y-84.52
X62.16Y-51.52
X62.16Y-81.27
X62.66Y-73.77
X63.91Y-51.52
X63.91Y-73.77
X64.41Y-56.52
X64.41Y-57.77
X64.41Y-59.02
X64.66Y-66.02
X65.66Y-56.52
X65.66Y-57.77
X65.66Y-59.02
X65.91Y-51.27
X65.91Y-71.77
X66.91Y-56.52
X66.91Y-57.77
X66.91Y-59.02
X68.785Y-51.145
X69.644Y-44.036
X70.176Y-43.504
X71.111Y-52.721
X71.16Y-51.77
X71.16Y-64.52
X72.41Y-43.27
X74.41Y-68.02
X74.66Y-53.27
X74.66Y-63.02
X74.91Y-68.77
X75.034Y-64.27
X75.66Y-69.52
X75.786Y-64.27
X76.16Y-59.07
X76.386Y-57.344
X76.41Y-56.52
X76.41Y-58.27
X76.66Y-70.27
X80.16Y-57.02
X82.66Y-58.77
X84.16Y-58.77
X84.16Y-67.02
X87.41Y-62.02
X87.785Y-67.145
X90.41Y-70.77
X91.16Y-62.77
X92.91Y-69.52
X94.41Y-44.77
X94.41Y-59.17
X94.41Y-86.52
X94.66Y-54.27
X95.661Y-51.021
X95.91Y-69.52
X96.91Y-60.97
X97.41Y-45.52
X99.41Y-51.02
X99.41Y-58.52
X101.21Y-45.27
X102.26Y-57.37
X103.66Y-45.27
X104.41Y-51.27
X105.66Y-44.77
X105.91Y-66.52
X106.91Y-56.77
X109.41Y-78.77
X109.41Y-80.02
X109.41Y-81.27
X109.66Y-64.02
X109.91Y-60.97
X110.16Y-78.77
X110.16Y-80.02
X110.16Y-81.27
X110.66Y-56.02
X113.41Y-84.77
X113.91Y-78.52
X114.41Y-84.77
X114.66Y-58.52
X115.41Y-84.77
X116.66Y-59.77
X117.66Y-60.02
X118.41Y-82.27
X119.66Y-84.02
X120.91Y-77.77
X121.16Y-40.77
T2
X43.305Y-56.82
X43.305Y-58.12
X44.605Y-56.82
X44.605Y-58.12
X45.905Y-56.82
X45.905Y-58.12
X47.205Y-56.82
X47.205Y-58.12
X81.96Y-53.62
X81.96Y-54.92
X83.26Y-53.62
X83.26Y-54.92
X84.56Y-53.62
X84.56Y-54.92
X85.86Y-53.62
X85.86Y-54.92
X116.01Y-55.02
X116.01Y-56.32
X117.31Y-55.02
X117.31Y-56.32
X118.61Y-55.02
X118.61Y-56.32
X119.91Y-55.02
X119.91Y-56.32
T4
X66.29Y-76.27
X67.56Y-73.73
X68.83Y-76.27
X70.1Y-73.73
X71.37Y-76.27
X72.64Y-73.73
X73.91Y-76.27
X75.18Y-73.73
T5
X40.66Y-41.701
X51.66Y-41.701
X51.66Y-51.215
X51.66Y-53.755
X51.66Y-56.295
X78.16Y-41.701
X89.16Y-41.701
X89.91Y-86.845
X100.91Y-86.845
X115.66Y-41.701
X126.66Y-41.701
T6
X43.728Y-64.27
X48.728Y-64.27
X81.086Y-64.52
X86.086Y-64.52
X118.836Y-64.52
X123.836Y-64.52
T7
X44.46Y-75.06
X44.46Y-84.98
X47.86Y-75.06
X47.86Y-84.98
X81.96Y-75.06
X81.96Y-84.98
X85.36Y-75.06
X85.36Y-84.98
X105.21Y-75.06
X105.21Y-84.98
X108.61Y-75.06
X108.61Y-84.98
X122.71Y-74.81
X122.71Y-84.73
X126.11Y-74.81
X126.11Y-84.73
T8
X43.66Y-46.701
X48.66Y-46.701
X81.16Y-46.701
X86.16Y-46.701
X118.66Y-46.701
X123.66Y-46.701
T9
X92.91Y-76.845
X97.91Y-76.845
T10
X55.91Y-72.02
X115.91Y-72.52
X125.16Y-52.52
T3
X58.16Y-39.67G85X58.16Y-40.37
G05
X64.76Y-39.67G85X64.76Y-40.37
G05
M30
