%TF.GenerationSoftware,KiCad,Pcbnew,8.0.3-8.0.3-0~ubuntu22.04.1*%
%TF.CreationDate,2024-07-03T00:47:12-04:00*%
%TF.ProjectId,arm_drive_j3_4_5,61726d5f-6472-4697-9665-5f6a335f345f,rev?*%
%TF.SameCoordinates,Original*%
%TF.FileFunction,Drillmap*%
%TF.FilePolarity,Positive*%
%FSLAX45Y45*%
G04 Gerber Fmt 4.5, Leading zero omitted, Abs format (unit mm)*
G04 Created by KiCad (PCBNEW 8.0.3-8.0.3-0~ubuntu22.04.1) date 2024-07-03 00:47:12*
%MOMM*%
%LPD*%
G01*
G04 APERTURE LIST*
%ADD10C,0.050000*%
%ADD11C,0.200000*%
%ADD12C,0.100000*%
%ADD13C,0.120000*%
%ADD14C,0.160000*%
%ADD15C,0.170000*%
%ADD16C,0.190000*%
%ADD17C,0.320000*%
G04 APERTURE END LIST*
D10*
X12866000Y-4252000D02*
X12866000Y-8452000D01*
X3866000Y-4252000D02*
G75*
G02*
X4266000Y-3852000I400000J0D01*
G01*
X4266000Y-3852000D02*
X12466000Y-3852000D01*
X4266000Y-8852000D02*
G75*
G02*
X3866000Y-8452000I0J400000D01*
G01*
X12466000Y-8852000D02*
X4266000Y-8852000D01*
X3866000Y-8452000D02*
X3866000Y-4252000D01*
X12466000Y-3852000D02*
G75*
G02*
X12866000Y-4252000I0J-400000D01*
G01*
X12866000Y-8452000D02*
G75*
G02*
X12466000Y-8852000I-400000J0D01*
G01*
D11*
D12*
X4351000Y-6162000D02*
X4381000Y-6192000D01*
X4381000Y-6162000D02*
X4351000Y-6192000D01*
X5221000Y-7937000D02*
X5251000Y-7967000D01*
X5251000Y-7937000D02*
X5221000Y-7967000D01*
X5226000Y-7087000D02*
X5256000Y-7117000D01*
X5256000Y-7087000D02*
X5226000Y-7117000D01*
X5226000Y-7187000D02*
X5256000Y-7217000D01*
X5256000Y-7187000D02*
X5226000Y-7217000D01*
X5226000Y-7287000D02*
X5256000Y-7317000D01*
X5256000Y-7287000D02*
X5226000Y-7317000D01*
X5226000Y-8112000D02*
X5256000Y-8142000D01*
X5256000Y-8112000D02*
X5226000Y-8142000D01*
X5351000Y-6737000D02*
X5381000Y-6767000D01*
X5381000Y-6737000D02*
X5351000Y-6767000D01*
X5701000Y-5062000D02*
X5731000Y-5092000D01*
X5731000Y-5062000D02*
X5701000Y-5092000D01*
X5701000Y-7937000D02*
X5731000Y-7967000D01*
X5731000Y-7937000D02*
X5701000Y-7967000D01*
X5801000Y-8462000D02*
X5831000Y-8492000D01*
X5831000Y-8462000D02*
X5801000Y-8492000D01*
X5876000Y-6612000D02*
X5906000Y-6642000D01*
X5906000Y-6612000D02*
X5876000Y-6642000D01*
X5926000Y-6987000D02*
X5956000Y-7017000D01*
X5956000Y-6987000D02*
X5926000Y-7017000D01*
X6051000Y-6537000D02*
X6081000Y-6567000D01*
X6081000Y-6537000D02*
X6051000Y-6567000D01*
X6176000Y-8437000D02*
X6206000Y-8467000D01*
X6206000Y-8437000D02*
X6176000Y-8467000D01*
X6201000Y-5137000D02*
X6231000Y-5167000D01*
X6231000Y-5137000D02*
X6201000Y-5167000D01*
X6201000Y-8112000D02*
X6231000Y-8142000D01*
X6231000Y-8112000D02*
X6201000Y-8142000D01*
X6251000Y-7362000D02*
X6281000Y-7392000D01*
X6281000Y-7362000D02*
X6251000Y-7392000D01*
X6376000Y-5137000D02*
X6406000Y-5167000D01*
X6406000Y-5137000D02*
X6376000Y-5167000D01*
X6376000Y-7362000D02*
X6406000Y-7392000D01*
X6406000Y-7362000D02*
X6376000Y-7392000D01*
X6426000Y-5637000D02*
X6456000Y-5667000D01*
X6456000Y-5637000D02*
X6426000Y-5667000D01*
X6426000Y-5762000D02*
X6456000Y-5792000D01*
X6456000Y-5762000D02*
X6426000Y-5792000D01*
X6426000Y-5887000D02*
X6456000Y-5917000D01*
X6456000Y-5887000D02*
X6426000Y-5917000D01*
X6451000Y-6587000D02*
X6481000Y-6617000D01*
X6481000Y-6587000D02*
X6451000Y-6617000D01*
X6551000Y-5637000D02*
X6581000Y-5667000D01*
X6581000Y-5637000D02*
X6551000Y-5667000D01*
X6551000Y-5762000D02*
X6581000Y-5792000D01*
X6581000Y-5762000D02*
X6551000Y-5792000D01*
X6551000Y-5887000D02*
X6581000Y-5917000D01*
X6581000Y-5887000D02*
X6551000Y-5917000D01*
X6576000Y-5112000D02*
X6606000Y-5142000D01*
X6606000Y-5112000D02*
X6576000Y-5142000D01*
X6576000Y-7162000D02*
X6606000Y-7192000D01*
X6606000Y-7162000D02*
X6576000Y-7192000D01*
X6676000Y-5637000D02*
X6706000Y-5667000D01*
X6706000Y-5637000D02*
X6676000Y-5667000D01*
X6676000Y-5762000D02*
X6706000Y-5792000D01*
X6706000Y-5762000D02*
X6676000Y-5792000D01*
X6676000Y-5887000D02*
X6706000Y-5917000D01*
X6706000Y-5887000D02*
X6676000Y-5917000D01*
X6863500Y-5099500D02*
X6893500Y-5129500D01*
X6893500Y-5099500D02*
X6863500Y-5129500D01*
X6949399Y-4388601D02*
X6979399Y-4418601D01*
X6979399Y-4388601D02*
X6949399Y-4418601D01*
X7002601Y-4335399D02*
X7032601Y-4365399D01*
X7032601Y-4335399D02*
X7002601Y-4365399D01*
X7096073Y-5257074D02*
X7126073Y-5287074D01*
X7126073Y-5257074D02*
X7096073Y-5287074D01*
X7101000Y-5162000D02*
X7131000Y-5192000D01*
X7131000Y-5162000D02*
X7101000Y-5192000D01*
X7101000Y-6437000D02*
X7131000Y-6467000D01*
X7131000Y-6437000D02*
X7101000Y-6467000D01*
X7226000Y-4312000D02*
X7256000Y-4342000D01*
X7256000Y-4312000D02*
X7226000Y-4342000D01*
X7426000Y-6787000D02*
X7456000Y-6817000D01*
X7456000Y-6787000D02*
X7426000Y-6817000D01*
X7451000Y-5312000D02*
X7481000Y-5342000D01*
X7481000Y-5312000D02*
X7451000Y-5342000D01*
X7451000Y-6287000D02*
X7481000Y-6317000D01*
X7481000Y-6287000D02*
X7451000Y-6317000D01*
X7476000Y-6862000D02*
X7506000Y-6892000D01*
X7506000Y-6862000D02*
X7476000Y-6892000D01*
X7488380Y-6412000D02*
X7518380Y-6442000D01*
X7518380Y-6412000D02*
X7488380Y-6442000D01*
X7551000Y-6937000D02*
X7581000Y-6967000D01*
X7581000Y-6937000D02*
X7551000Y-6967000D01*
X7563620Y-6412000D02*
X7593620Y-6442000D01*
X7593620Y-6412000D02*
X7563620Y-6442000D01*
X7601000Y-5892000D02*
X7631000Y-5922000D01*
X7631000Y-5892000D02*
X7601000Y-5922000D01*
X7623574Y-5719427D02*
X7653574Y-5749427D01*
X7653574Y-5719427D02*
X7623574Y-5749427D01*
X7626000Y-5637000D02*
X7656000Y-5667000D01*
X7656000Y-5637000D02*
X7626000Y-5667000D01*
X7626000Y-5812000D02*
X7656000Y-5842000D01*
X7656000Y-5812000D02*
X7626000Y-5842000D01*
X7651000Y-7012000D02*
X7681000Y-7042000D01*
X7681000Y-7012000D02*
X7651000Y-7042000D01*
X8001000Y-5687000D02*
X8031000Y-5717000D01*
X8031000Y-5687000D02*
X8001000Y-5717000D01*
X8251000Y-5862000D02*
X8281000Y-5892000D01*
X8281000Y-5862000D02*
X8251000Y-5892000D01*
X8401000Y-5862000D02*
X8431000Y-5892000D01*
X8431000Y-5862000D02*
X8401000Y-5892000D01*
X8401000Y-6687000D02*
X8431000Y-6717000D01*
X8431000Y-6687000D02*
X8401000Y-6717000D01*
X8726000Y-6187000D02*
X8756000Y-6217000D01*
X8756000Y-6187000D02*
X8726000Y-6217000D01*
X8763500Y-6699500D02*
X8793500Y-6729500D01*
X8793500Y-6699500D02*
X8763500Y-6729500D01*
X9026000Y-7062000D02*
X9056000Y-7092000D01*
X9056000Y-7062000D02*
X9026000Y-7092000D01*
X9101000Y-6262000D02*
X9131000Y-6292000D01*
X9131000Y-6262000D02*
X9101000Y-6292000D01*
X9276000Y-6937000D02*
X9306000Y-6967000D01*
X9306000Y-6937000D02*
X9276000Y-6967000D01*
X9426000Y-4462000D02*
X9456000Y-4492000D01*
X9456000Y-4462000D02*
X9426000Y-4492000D01*
X9426000Y-5902000D02*
X9456000Y-5932000D01*
X9456000Y-5902000D02*
X9426000Y-5932000D01*
X9426000Y-8637000D02*
X9456000Y-8667000D01*
X9456000Y-8637000D02*
X9426000Y-8667000D01*
X9451000Y-5412000D02*
X9481000Y-5442000D01*
X9481000Y-5412000D02*
X9451000Y-5442000D01*
X9551127Y-5087127D02*
X9581127Y-5117127D01*
X9581127Y-5087127D02*
X9551127Y-5117127D01*
X9576000Y-6937000D02*
X9606000Y-6967000D01*
X9606000Y-6937000D02*
X9576000Y-6967000D01*
X9676000Y-6082000D02*
X9706000Y-6112000D01*
X9706000Y-6082000D02*
X9676000Y-6112000D01*
X9726000Y-4537000D02*
X9756000Y-4567000D01*
X9756000Y-4537000D02*
X9726000Y-4567000D01*
X9926000Y-5087000D02*
X9956000Y-5117000D01*
X9956000Y-5087000D02*
X9926000Y-5117000D01*
X9926000Y-5837000D02*
X9956000Y-5867000D01*
X9956000Y-5837000D02*
X9926000Y-5867000D01*
X10106000Y-4512000D02*
X10136000Y-4542000D01*
X10136000Y-4512000D02*
X10106000Y-4542000D01*
X10211000Y-5722000D02*
X10241000Y-5752000D01*
X10241000Y-5722000D02*
X10211000Y-5752000D01*
X10351000Y-4512000D02*
X10381000Y-4542000D01*
X10381000Y-4512000D02*
X10351000Y-4542000D01*
X10426000Y-5112000D02*
X10456000Y-5142000D01*
X10456000Y-5112000D02*
X10426000Y-5142000D01*
X10551000Y-4462000D02*
X10581000Y-4492000D01*
X10581000Y-4462000D02*
X10551000Y-4492000D01*
X10576000Y-6637000D02*
X10606000Y-6667000D01*
X10606000Y-6637000D02*
X10576000Y-6667000D01*
X10676000Y-5662000D02*
X10706000Y-5692000D01*
X10706000Y-5662000D02*
X10676000Y-5692000D01*
X10926000Y-7862000D02*
X10956000Y-7892000D01*
X10956000Y-7862000D02*
X10926000Y-7892000D01*
X10926000Y-7987000D02*
X10956000Y-8017000D01*
X10956000Y-7987000D02*
X10926000Y-8017000D01*
X10926000Y-8112000D02*
X10956000Y-8142000D01*
X10956000Y-8112000D02*
X10926000Y-8142000D01*
X10951000Y-6387000D02*
X10981000Y-6417000D01*
X10981000Y-6387000D02*
X10951000Y-6417000D01*
X10976000Y-6082000D02*
X11006000Y-6112000D01*
X11006000Y-6082000D02*
X10976000Y-6112000D01*
X11001000Y-7862000D02*
X11031000Y-7892000D01*
X11031000Y-7862000D02*
X11001000Y-7892000D01*
X11001000Y-7987000D02*
X11031000Y-8017000D01*
X11031000Y-7987000D02*
X11001000Y-8017000D01*
X11001000Y-8112000D02*
X11031000Y-8142000D01*
X11031000Y-8112000D02*
X11001000Y-8142000D01*
X11051000Y-5587000D02*
X11081000Y-5617000D01*
X11081000Y-5587000D02*
X11051000Y-5617000D01*
X11326000Y-8462000D02*
X11356000Y-8492000D01*
X11356000Y-8462000D02*
X11326000Y-8492000D01*
X11376000Y-7837000D02*
X11406000Y-7867000D01*
X11406000Y-7837000D02*
X11376000Y-7867000D01*
X11426000Y-8462000D02*
X11456000Y-8492000D01*
X11456000Y-8462000D02*
X11426000Y-8492000D01*
X11451000Y-5837000D02*
X11481000Y-5867000D01*
X11481000Y-5837000D02*
X11451000Y-5867000D01*
X11526000Y-8462000D02*
X11556000Y-8492000D01*
X11556000Y-8462000D02*
X11526000Y-8492000D01*
X11651000Y-5962000D02*
X11681000Y-5992000D01*
X11681000Y-5962000D02*
X11651000Y-5992000D01*
X11751000Y-5987000D02*
X11781000Y-6017000D01*
X11781000Y-5987000D02*
X11751000Y-6017000D01*
X11826000Y-8212000D02*
X11856000Y-8242000D01*
X11856000Y-8212000D02*
X11826000Y-8242000D01*
X11951000Y-8387000D02*
X11981000Y-8417000D01*
X11981000Y-8387000D02*
X11951000Y-8417000D01*
X12076000Y-7762000D02*
X12106000Y-7792000D01*
X12106000Y-7762000D02*
X12076000Y-7792000D01*
X12101000Y-4062000D02*
X12131000Y-4092000D01*
X12131000Y-4062000D02*
X12101000Y-4092000D01*
X4345500Y-5682000D02*
G75*
G02*
X4315500Y-5682000I-15000J0D01*
G01*
X4315500Y-5682000D02*
G75*
G02*
X4345500Y-5682000I15000J0D01*
G01*
X4345500Y-5812000D02*
G75*
G02*
X4315500Y-5812000I-15000J0D01*
G01*
X4315500Y-5812000D02*
G75*
G02*
X4345500Y-5812000I15000J0D01*
G01*
X4475500Y-5682000D02*
G75*
G02*
X4445500Y-5682000I-15000J0D01*
G01*
X4445500Y-5682000D02*
G75*
G02*
X4475500Y-5682000I15000J0D01*
G01*
X4475500Y-5812000D02*
G75*
G02*
X4445500Y-5812000I-15000J0D01*
G01*
X4445500Y-5812000D02*
G75*
G02*
X4475500Y-5812000I15000J0D01*
G01*
X4605500Y-5682000D02*
G75*
G02*
X4575500Y-5682000I-15000J0D01*
G01*
X4575500Y-5682000D02*
G75*
G02*
X4605500Y-5682000I15000J0D01*
G01*
X4605500Y-5812000D02*
G75*
G02*
X4575500Y-5812000I-15000J0D01*
G01*
X4575500Y-5812000D02*
G75*
G02*
X4605500Y-5812000I15000J0D01*
G01*
X4735500Y-5682000D02*
G75*
G02*
X4705500Y-5682000I-15000J0D01*
G01*
X4705500Y-5682000D02*
G75*
G02*
X4735500Y-5682000I15000J0D01*
G01*
X4735500Y-5812000D02*
G75*
G02*
X4705500Y-5812000I-15000J0D01*
G01*
X4705500Y-5812000D02*
G75*
G02*
X4735500Y-5812000I15000J0D01*
G01*
X8211000Y-5362000D02*
G75*
G02*
X8181000Y-5362000I-15000J0D01*
G01*
X8181000Y-5362000D02*
G75*
G02*
X8211000Y-5362000I15000J0D01*
G01*
X8211000Y-5492000D02*
G75*
G02*
X8181000Y-5492000I-15000J0D01*
G01*
X8181000Y-5492000D02*
G75*
G02*
X8211000Y-5492000I15000J0D01*
G01*
X8341000Y-5362000D02*
G75*
G02*
X8311000Y-5362000I-15000J0D01*
G01*
X8311000Y-5362000D02*
G75*
G02*
X8341000Y-5362000I15000J0D01*
G01*
X8341000Y-5492000D02*
G75*
G02*
X8311000Y-5492000I-15000J0D01*
G01*
X8311000Y-5492000D02*
G75*
G02*
X8341000Y-5492000I15000J0D01*
G01*
X8471000Y-5362000D02*
G75*
G02*
X8441000Y-5362000I-15000J0D01*
G01*
X8441000Y-5362000D02*
G75*
G02*
X8471000Y-5362000I15000J0D01*
G01*
X8471000Y-5492000D02*
G75*
G02*
X8441000Y-5492000I-15000J0D01*
G01*
X8441000Y-5492000D02*
G75*
G02*
X8471000Y-5492000I15000J0D01*
G01*
X8601000Y-5362000D02*
G75*
G02*
X8571000Y-5362000I-15000J0D01*
G01*
X8571000Y-5362000D02*
G75*
G02*
X8601000Y-5362000I15000J0D01*
G01*
X8601000Y-5492000D02*
G75*
G02*
X8571000Y-5492000I-15000J0D01*
G01*
X8571000Y-5492000D02*
G75*
G02*
X8601000Y-5492000I15000J0D01*
G01*
X11616000Y-5502000D02*
G75*
G02*
X11586000Y-5502000I-15000J0D01*
G01*
X11586000Y-5502000D02*
G75*
G02*
X11616000Y-5502000I15000J0D01*
G01*
X11616000Y-5632000D02*
G75*
G02*
X11586000Y-5632000I-15000J0D01*
G01*
X11586000Y-5632000D02*
G75*
G02*
X11616000Y-5632000I15000J0D01*
G01*
X11746000Y-5502000D02*
G75*
G02*
X11716000Y-5502000I-15000J0D01*
G01*
X11716000Y-5502000D02*
G75*
G02*
X11746000Y-5502000I15000J0D01*
G01*
X11746000Y-5632000D02*
G75*
G02*
X11716000Y-5632000I-15000J0D01*
G01*
X11716000Y-5632000D02*
G75*
G02*
X11746000Y-5632000I15000J0D01*
G01*
X11876000Y-5502000D02*
G75*
G02*
X11846000Y-5502000I-15000J0D01*
G01*
X11846000Y-5502000D02*
G75*
G02*
X11876000Y-5502000I15000J0D01*
G01*
X11876000Y-5632000D02*
G75*
G02*
X11846000Y-5632000I-15000J0D01*
G01*
X11846000Y-5632000D02*
G75*
G02*
X11876000Y-5632000I15000J0D01*
G01*
X12006000Y-5502000D02*
G75*
G02*
X11976000Y-5502000I-15000J0D01*
G01*
X11976000Y-5502000D02*
G75*
G02*
X12006000Y-5502000I15000J0D01*
G01*
X12006000Y-5632000D02*
G75*
G02*
X11976000Y-5632000I-15000J0D01*
G01*
X11976000Y-5632000D02*
G75*
G02*
X12006000Y-5632000I15000J0D01*
G01*
X5816000Y-3977000D02*
X5816000Y-4027000D01*
X5791000Y-4002000D02*
X5841000Y-4002000D01*
X5791000Y-3967000D02*
X5791000Y-4037000D01*
X5841000Y-4037000D02*
G75*
G02*
X5791000Y-4037000I-25000J0D01*
G01*
X5841000Y-4037000D02*
X5841000Y-3967000D01*
X5841000Y-3967000D02*
G75*
G03*
X5791000Y-3967000I-25000J0D01*
G01*
X6476000Y-3977000D02*
X6476000Y-4027000D01*
X6451000Y-4002000D02*
X6501000Y-4002000D01*
X6451000Y-3967000D02*
X6451000Y-4037000D01*
X6501000Y-4037000D02*
G75*
G02*
X6451000Y-4037000I-25000J0D01*
G01*
X6501000Y-4037000D02*
X6501000Y-3967000D01*
X6501000Y-3967000D02*
G75*
G03*
X6451000Y-3967000I-25000J0D01*
G01*
X6655870Y-7653870D02*
X6655870Y-7600130D01*
X6602130Y-7600130D01*
X6602130Y-7653870D01*
X6655870Y-7653870D01*
X6782870Y-7399870D02*
X6782870Y-7346130D01*
X6729130Y-7346130D01*
X6729130Y-7399870D01*
X6782870Y-7399870D01*
X6909870Y-7653870D02*
X6909870Y-7600130D01*
X6856130Y-7600130D01*
X6856130Y-7653870D01*
X6909870Y-7653870D01*
X7036870Y-7399870D02*
X7036870Y-7346130D01*
X6983130Y-7346130D01*
X6983130Y-7399870D01*
X7036870Y-7399870D01*
X7163870Y-7653870D02*
X7163870Y-7600130D01*
X7110130Y-7600130D01*
X7110130Y-7653870D01*
X7163870Y-7653870D01*
X7290870Y-7399870D02*
X7290870Y-7346130D01*
X7237130Y-7346130D01*
X7237130Y-7399870D01*
X7290870Y-7399870D01*
X7417870Y-7653870D02*
X7417870Y-7600130D01*
X7364130Y-7600130D01*
X7364130Y-7653870D01*
X7417870Y-7653870D01*
X7544870Y-7399870D02*
X7544870Y-7346130D01*
X7491130Y-7346130D01*
X7491130Y-7399870D01*
X7544870Y-7399870D01*
X4066000Y-4220075D02*
X4116000Y-4170075D01*
X4066000Y-4120075D01*
X4016000Y-4170075D01*
X4066000Y-4220075D01*
X5166000Y-4220075D02*
X5216000Y-4170075D01*
X5166000Y-4120075D01*
X5116000Y-4170075D01*
X5166000Y-4220075D01*
X5166000Y-5171500D02*
X5216000Y-5121500D01*
X5166000Y-5071500D01*
X5116000Y-5121500D01*
X5166000Y-5171500D01*
X5166000Y-5425500D02*
X5216000Y-5375500D01*
X5166000Y-5325500D01*
X5116000Y-5375500D01*
X5166000Y-5425500D01*
X5166000Y-5679500D02*
X5216000Y-5629500D01*
X5166000Y-5579500D01*
X5116000Y-5629500D01*
X5166000Y-5679500D01*
X7816000Y-4220075D02*
X7866000Y-4170075D01*
X7816000Y-4120075D01*
X7766000Y-4170075D01*
X7816000Y-4220075D01*
X8916000Y-4220075D02*
X8966000Y-4170075D01*
X8916000Y-4120075D01*
X8866000Y-4170075D01*
X8916000Y-4220075D01*
X8991000Y-8734500D02*
X9041000Y-8684500D01*
X8991000Y-8634500D01*
X8941000Y-8684500D01*
X8991000Y-8734500D01*
X10091000Y-8734500D02*
X10141000Y-8684500D01*
X10091000Y-8634500D01*
X10041000Y-8684500D01*
X10091000Y-8734500D01*
X11566000Y-4220075D02*
X11616000Y-4170075D01*
X11566000Y-4120075D01*
X11516000Y-4170075D01*
X11566000Y-4220075D01*
X12666000Y-4220075D02*
X12716000Y-4170075D01*
X12666000Y-4120075D01*
X12616000Y-4170075D01*
X12666000Y-4220075D01*
D13*
X4312784Y-6367000D02*
X4432784Y-6487000D01*
X4432784Y-6367000D02*
X4312784Y-6487000D01*
X4432784Y-6427000D02*
G75*
G02*
X4312784Y-6427000I-60000J0D01*
G01*
X4312784Y-6427000D02*
G75*
G02*
X4432784Y-6427000I60000J0D01*
G01*
X4812784Y-6367000D02*
X4932784Y-6487000D01*
X4932784Y-6367000D02*
X4812784Y-6487000D01*
X4932784Y-6427000D02*
G75*
G02*
X4812784Y-6427000I-60000J0D01*
G01*
X4812784Y-6427000D02*
G75*
G02*
X4932784Y-6427000I60000J0D01*
G01*
X8048604Y-6392000D02*
X8168604Y-6512000D01*
X8168604Y-6392000D02*
X8048604Y-6512000D01*
X8168604Y-6452000D02*
G75*
G02*
X8048604Y-6452000I-60000J0D01*
G01*
X8048604Y-6452000D02*
G75*
G02*
X8168604Y-6452000I60000J0D01*
G01*
X8548604Y-6392000D02*
X8668604Y-6512000D01*
X8668604Y-6392000D02*
X8548604Y-6512000D01*
X8668604Y-6452000D02*
G75*
G02*
X8548604Y-6452000I-60000J0D01*
G01*
X8548604Y-6452000D02*
G75*
G02*
X8668604Y-6452000I60000J0D01*
G01*
X11823604Y-6392000D02*
X11943604Y-6512000D01*
X11943604Y-6392000D02*
X11823604Y-6512000D01*
X11943604Y-6452000D02*
G75*
G02*
X11823604Y-6452000I-60000J0D01*
G01*
X11823604Y-6452000D02*
G75*
G02*
X11943604Y-6452000I60000J0D01*
G01*
X12323604Y-6392000D02*
X12443604Y-6512000D01*
X12443604Y-6392000D02*
X12323604Y-6512000D01*
X12443604Y-6452000D02*
G75*
G02*
X12323604Y-6452000I-60000J0D01*
G01*
X12323604Y-6452000D02*
G75*
G02*
X12443604Y-6452000I60000J0D01*
G01*
D14*
X4366000Y-7426000D02*
X4526000Y-7586000D01*
X4526000Y-7426000D02*
X4366000Y-7586000D01*
X4446000Y-7426000D02*
X4446000Y-7586000D01*
X4366000Y-7506000D02*
X4526000Y-7506000D01*
X4366000Y-8418000D02*
X4526000Y-8578000D01*
X4526000Y-8418000D02*
X4366000Y-8578000D01*
X4446000Y-8418000D02*
X4446000Y-8578000D01*
X4366000Y-8498000D02*
X4526000Y-8498000D01*
X4706000Y-7426000D02*
X4866000Y-7586000D01*
X4866000Y-7426000D02*
X4706000Y-7586000D01*
X4786000Y-7426000D02*
X4786000Y-7586000D01*
X4706000Y-7506000D02*
X4866000Y-7506000D01*
X4706000Y-8418000D02*
X4866000Y-8578000D01*
X4866000Y-8418000D02*
X4706000Y-8578000D01*
X4786000Y-8418000D02*
X4786000Y-8578000D01*
X4706000Y-8498000D02*
X4866000Y-8498000D01*
X8116000Y-7426000D02*
X8276000Y-7586000D01*
X8276000Y-7426000D02*
X8116000Y-7586000D01*
X8196000Y-7426000D02*
X8196000Y-7586000D01*
X8116000Y-7506000D02*
X8276000Y-7506000D01*
X8116000Y-8418000D02*
X8276000Y-8578000D01*
X8276000Y-8418000D02*
X8116000Y-8578000D01*
X8196000Y-8418000D02*
X8196000Y-8578000D01*
X8116000Y-8498000D02*
X8276000Y-8498000D01*
X8456000Y-7426000D02*
X8616000Y-7586000D01*
X8616000Y-7426000D02*
X8456000Y-7586000D01*
X8536000Y-7426000D02*
X8536000Y-7586000D01*
X8456000Y-7506000D02*
X8616000Y-7506000D01*
X8456000Y-8418000D02*
X8616000Y-8578000D01*
X8616000Y-8418000D02*
X8456000Y-8578000D01*
X8536000Y-8418000D02*
X8536000Y-8578000D01*
X8456000Y-8498000D02*
X8616000Y-8498000D01*
X10441000Y-7426000D02*
X10601000Y-7586000D01*
X10601000Y-7426000D02*
X10441000Y-7586000D01*
X10521000Y-7426000D02*
X10521000Y-7586000D01*
X10441000Y-7506000D02*
X10601000Y-7506000D01*
X10441000Y-8418000D02*
X10601000Y-8578000D01*
X10601000Y-8418000D02*
X10441000Y-8578000D01*
X10521000Y-8418000D02*
X10521000Y-8578000D01*
X10441000Y-8498000D02*
X10601000Y-8498000D01*
X10781000Y-7426000D02*
X10941000Y-7586000D01*
X10941000Y-7426000D02*
X10781000Y-7586000D01*
X10861000Y-7426000D02*
X10861000Y-7586000D01*
X10781000Y-7506000D02*
X10941000Y-7506000D01*
X10781000Y-8418000D02*
X10941000Y-8578000D01*
X10941000Y-8418000D02*
X10781000Y-8578000D01*
X10861000Y-8418000D02*
X10861000Y-8578000D01*
X10781000Y-8498000D02*
X10941000Y-8498000D01*
X12191000Y-7401000D02*
X12351000Y-7561000D01*
X12351000Y-7401000D02*
X12191000Y-7561000D01*
X12271000Y-7401000D02*
X12271000Y-7561000D01*
X12191000Y-7481000D02*
X12351000Y-7481000D01*
X12191000Y-8393000D02*
X12351000Y-8553000D01*
X12351000Y-8393000D02*
X12191000Y-8553000D01*
X12271000Y-8393000D02*
X12271000Y-8553000D01*
X12191000Y-8473000D02*
X12351000Y-8473000D01*
X12531000Y-7401000D02*
X12691000Y-7561000D01*
X12691000Y-7401000D02*
X12531000Y-7561000D01*
X12611000Y-7401000D02*
X12611000Y-7561000D01*
X12531000Y-7481000D02*
X12691000Y-7481000D01*
X12531000Y-8393000D02*
X12691000Y-8553000D01*
X12691000Y-8393000D02*
X12531000Y-8553000D01*
X12611000Y-8393000D02*
X12611000Y-8553000D01*
X12531000Y-8473000D02*
X12691000Y-8473000D01*
D15*
X4281000Y-4585075D02*
X4451000Y-4755075D01*
X4451000Y-4585075D02*
X4281000Y-4755075D01*
X4426105Y-4730180D02*
X4426105Y-4609970D01*
X4305895Y-4609970D01*
X4305895Y-4730180D01*
X4426105Y-4730180D01*
X4781000Y-4585075D02*
X4951000Y-4755075D01*
X4951000Y-4585075D02*
X4781000Y-4755075D01*
X4926105Y-4730180D02*
X4926105Y-4609970D01*
X4805895Y-4609970D01*
X4805895Y-4730180D01*
X4926105Y-4730180D01*
X8031000Y-4585075D02*
X8201000Y-4755075D01*
X8201000Y-4585075D02*
X8031000Y-4755075D01*
X8176105Y-4730180D02*
X8176105Y-4609970D01*
X8055895Y-4609970D01*
X8055895Y-4730180D01*
X8176105Y-4730180D01*
X8531000Y-4585075D02*
X8701000Y-4755075D01*
X8701000Y-4585075D02*
X8531000Y-4755075D01*
X8676105Y-4730180D02*
X8676105Y-4609970D01*
X8555895Y-4609970D01*
X8555895Y-4730180D01*
X8676105Y-4730180D01*
X11781000Y-4585075D02*
X11951000Y-4755075D01*
X11951000Y-4585075D02*
X11781000Y-4755075D01*
X11926105Y-4730180D02*
X11926105Y-4609970D01*
X11805895Y-4609970D01*
X11805895Y-4730180D01*
X11926105Y-4730180D01*
X12281000Y-4585075D02*
X12451000Y-4755075D01*
X12451000Y-4585075D02*
X12281000Y-4755075D01*
X12426105Y-4730180D02*
X12426105Y-4609970D01*
X12305895Y-4609970D01*
X12305895Y-4730180D01*
X12426105Y-4730180D01*
D16*
X9196000Y-7589500D02*
X9386000Y-7779500D01*
X9386000Y-7589500D02*
X9196000Y-7779500D01*
X9291000Y-7779500D02*
X9386000Y-7684500D01*
X9291000Y-7589500D01*
X9196000Y-7684500D01*
X9291000Y-7779500D01*
X9696000Y-7589500D02*
X9886000Y-7779500D01*
X9886000Y-7589500D02*
X9696000Y-7779500D01*
X9791000Y-7779500D02*
X9886000Y-7684500D01*
X9791000Y-7589500D01*
X9696000Y-7684500D01*
X9791000Y-7779500D01*
D17*
X5591000Y-7042000D02*
X5591000Y-7362000D01*
X5431000Y-7202000D02*
X5751000Y-7202000D01*
X5751000Y-7202000D02*
G75*
G02*
X5431000Y-7202000I-160000J0D01*
G01*
X5431000Y-7202000D02*
G75*
G02*
X5751000Y-7202000I160000J0D01*
G01*
X11591000Y-7092000D02*
X11591000Y-7412000D01*
X11431000Y-7252000D02*
X11751000Y-7252000D01*
X11751000Y-7252000D02*
G75*
G02*
X11431000Y-7252000I-160000J0D01*
G01*
X11431000Y-7252000D02*
G75*
G02*
X11751000Y-7252000I160000J0D01*
G01*
X12516000Y-5092000D02*
X12516000Y-5412000D01*
X12356000Y-5252000D02*
X12676000Y-5252000D01*
X12676000Y-5252000D02*
G75*
G02*
X12356000Y-5252000I-160000J0D01*
G01*
X12356000Y-5252000D02*
G75*
G02*
X12676000Y-5252000I160000J0D01*
G01*
D11*
X4124277Y-9165984D02*
X4124277Y-8965984D01*
X4124277Y-8965984D02*
X4171896Y-8965984D01*
X4171896Y-8965984D02*
X4200467Y-8975508D01*
X4200467Y-8975508D02*
X4219515Y-8994555D01*
X4219515Y-8994555D02*
X4229039Y-9013603D01*
X4229039Y-9013603D02*
X4238563Y-9051698D01*
X4238563Y-9051698D02*
X4238563Y-9080270D01*
X4238563Y-9080270D02*
X4229039Y-9118365D01*
X4229039Y-9118365D02*
X4219515Y-9137412D01*
X4219515Y-9137412D02*
X4200467Y-9156460D01*
X4200467Y-9156460D02*
X4171896Y-9165984D01*
X4171896Y-9165984D02*
X4124277Y-9165984D01*
X4324277Y-9165984D02*
X4324277Y-9032650D01*
X4324277Y-9070746D02*
X4333801Y-9051698D01*
X4333801Y-9051698D02*
X4343324Y-9042174D01*
X4343324Y-9042174D02*
X4362372Y-9032650D01*
X4362372Y-9032650D02*
X4381420Y-9032650D01*
X4448086Y-9165984D02*
X4448086Y-9032650D01*
X4448086Y-8965984D02*
X4438563Y-8975508D01*
X4438563Y-8975508D02*
X4448086Y-8985031D01*
X4448086Y-8985031D02*
X4457610Y-8975508D01*
X4457610Y-8975508D02*
X4448086Y-8965984D01*
X4448086Y-8965984D02*
X4448086Y-8985031D01*
X4571896Y-9165984D02*
X4552848Y-9156460D01*
X4552848Y-9156460D02*
X4543324Y-9137412D01*
X4543324Y-9137412D02*
X4543324Y-8965984D01*
X4676658Y-9165984D02*
X4657610Y-9156460D01*
X4657610Y-9156460D02*
X4648086Y-9137412D01*
X4648086Y-9137412D02*
X4648086Y-8965984D01*
X4905229Y-9165984D02*
X4905229Y-8965984D01*
X4905229Y-8965984D02*
X4971896Y-9108841D01*
X4971896Y-9108841D02*
X5038563Y-8965984D01*
X5038563Y-8965984D02*
X5038563Y-9165984D01*
X5219515Y-9165984D02*
X5219515Y-9061222D01*
X5219515Y-9061222D02*
X5209991Y-9042174D01*
X5209991Y-9042174D02*
X5190944Y-9032650D01*
X5190944Y-9032650D02*
X5152848Y-9032650D01*
X5152848Y-9032650D02*
X5133801Y-9042174D01*
X5219515Y-9156460D02*
X5200467Y-9165984D01*
X5200467Y-9165984D02*
X5152848Y-9165984D01*
X5152848Y-9165984D02*
X5133801Y-9156460D01*
X5133801Y-9156460D02*
X5124277Y-9137412D01*
X5124277Y-9137412D02*
X5124277Y-9118365D01*
X5124277Y-9118365D02*
X5133801Y-9099317D01*
X5133801Y-9099317D02*
X5152848Y-9089793D01*
X5152848Y-9089793D02*
X5200467Y-9089793D01*
X5200467Y-9089793D02*
X5219515Y-9080270D01*
X5314753Y-9032650D02*
X5314753Y-9232650D01*
X5314753Y-9042174D02*
X5333801Y-9032650D01*
X5333801Y-9032650D02*
X5371896Y-9032650D01*
X5371896Y-9032650D02*
X5390944Y-9042174D01*
X5390944Y-9042174D02*
X5400467Y-9051698D01*
X5400467Y-9051698D02*
X5409991Y-9070746D01*
X5409991Y-9070746D02*
X5409991Y-9127889D01*
X5409991Y-9127889D02*
X5400467Y-9146936D01*
X5400467Y-9146936D02*
X5390944Y-9156460D01*
X5390944Y-9156460D02*
X5371896Y-9165984D01*
X5371896Y-9165984D02*
X5333801Y-9165984D01*
X5333801Y-9165984D02*
X5314753Y-9156460D01*
X5495705Y-9146936D02*
X5505229Y-9156460D01*
X5505229Y-9156460D02*
X5495705Y-9165984D01*
X5495705Y-9165984D02*
X5486182Y-9156460D01*
X5486182Y-9156460D02*
X5495705Y-9146936D01*
X5495705Y-9146936D02*
X5495705Y-9165984D01*
X5495705Y-9042174D02*
X5505229Y-9051698D01*
X5505229Y-9051698D02*
X5495705Y-9061222D01*
X5495705Y-9061222D02*
X5486182Y-9051698D01*
X5486182Y-9051698D02*
X5495705Y-9042174D01*
X5495705Y-9042174D02*
X5495705Y-9061222D01*
D12*
X3833500Y-9479500D02*
X3863500Y-9509500D01*
X3863500Y-9479500D02*
X3833500Y-9509500D01*
D11*
X4162372Y-9385984D02*
X4181420Y-9385984D01*
X4181420Y-9385984D02*
X4200467Y-9395508D01*
X4200467Y-9395508D02*
X4209991Y-9405031D01*
X4209991Y-9405031D02*
X4219515Y-9424079D01*
X4219515Y-9424079D02*
X4229039Y-9462174D01*
X4229039Y-9462174D02*
X4229039Y-9509793D01*
X4229039Y-9509793D02*
X4219515Y-9547889D01*
X4219515Y-9547889D02*
X4209991Y-9566936D01*
X4209991Y-9566936D02*
X4200467Y-9576460D01*
X4200467Y-9576460D02*
X4181420Y-9585984D01*
X4181420Y-9585984D02*
X4162372Y-9585984D01*
X4162372Y-9585984D02*
X4143324Y-9576460D01*
X4143324Y-9576460D02*
X4133801Y-9566936D01*
X4133801Y-9566936D02*
X4124277Y-9547889D01*
X4124277Y-9547889D02*
X4114753Y-9509793D01*
X4114753Y-9509793D02*
X4114753Y-9462174D01*
X4114753Y-9462174D02*
X4124277Y-9424079D01*
X4124277Y-9424079D02*
X4133801Y-9405031D01*
X4133801Y-9405031D02*
X4143324Y-9395508D01*
X4143324Y-9395508D02*
X4162372Y-9385984D01*
X4314753Y-9566936D02*
X4324277Y-9576460D01*
X4324277Y-9576460D02*
X4314753Y-9585984D01*
X4314753Y-9585984D02*
X4305229Y-9576460D01*
X4305229Y-9576460D02*
X4314753Y-9566936D01*
X4314753Y-9566936D02*
X4314753Y-9585984D01*
X4390944Y-9385984D02*
X4514753Y-9385984D01*
X4514753Y-9385984D02*
X4448086Y-9462174D01*
X4448086Y-9462174D02*
X4476658Y-9462174D01*
X4476658Y-9462174D02*
X4495705Y-9471698D01*
X4495705Y-9471698D02*
X4505229Y-9481222D01*
X4505229Y-9481222D02*
X4514753Y-9500270D01*
X4514753Y-9500270D02*
X4514753Y-9547889D01*
X4514753Y-9547889D02*
X4505229Y-9566936D01*
X4505229Y-9566936D02*
X4495705Y-9576460D01*
X4495705Y-9576460D02*
X4476658Y-9585984D01*
X4476658Y-9585984D02*
X4419515Y-9585984D01*
X4419515Y-9585984D02*
X4400467Y-9576460D01*
X4400467Y-9576460D02*
X4390944Y-9566936D01*
X4638563Y-9385984D02*
X4657610Y-9385984D01*
X4657610Y-9385984D02*
X4676658Y-9395508D01*
X4676658Y-9395508D02*
X4686182Y-9405031D01*
X4686182Y-9405031D02*
X4695705Y-9424079D01*
X4695705Y-9424079D02*
X4705229Y-9462174D01*
X4705229Y-9462174D02*
X4705229Y-9509793D01*
X4705229Y-9509793D02*
X4695705Y-9547889D01*
X4695705Y-9547889D02*
X4686182Y-9566936D01*
X4686182Y-9566936D02*
X4676658Y-9576460D01*
X4676658Y-9576460D02*
X4657610Y-9585984D01*
X4657610Y-9585984D02*
X4638563Y-9585984D01*
X4638563Y-9585984D02*
X4619515Y-9576460D01*
X4619515Y-9576460D02*
X4609991Y-9566936D01*
X4609991Y-9566936D02*
X4600467Y-9547889D01*
X4600467Y-9547889D02*
X4590944Y-9509793D01*
X4590944Y-9509793D02*
X4590944Y-9462174D01*
X4590944Y-9462174D02*
X4600467Y-9424079D01*
X4600467Y-9424079D02*
X4609991Y-9405031D01*
X4609991Y-9405031D02*
X4619515Y-9395508D01*
X4619515Y-9395508D02*
X4638563Y-9385984D01*
X4829039Y-9385984D02*
X4848086Y-9385984D01*
X4848086Y-9385984D02*
X4867134Y-9395508D01*
X4867134Y-9395508D02*
X4876658Y-9405031D01*
X4876658Y-9405031D02*
X4886182Y-9424079D01*
X4886182Y-9424079D02*
X4895705Y-9462174D01*
X4895705Y-9462174D02*
X4895705Y-9509793D01*
X4895705Y-9509793D02*
X4886182Y-9547889D01*
X4886182Y-9547889D02*
X4876658Y-9566936D01*
X4876658Y-9566936D02*
X4867134Y-9576460D01*
X4867134Y-9576460D02*
X4848086Y-9585984D01*
X4848086Y-9585984D02*
X4829039Y-9585984D01*
X4829039Y-9585984D02*
X4809991Y-9576460D01*
X4809991Y-9576460D02*
X4800467Y-9566936D01*
X4800467Y-9566936D02*
X4790944Y-9547889D01*
X4790944Y-9547889D02*
X4781420Y-9509793D01*
X4781420Y-9509793D02*
X4781420Y-9462174D01*
X4781420Y-9462174D02*
X4790944Y-9424079D01*
X4790944Y-9424079D02*
X4800467Y-9405031D01*
X4800467Y-9405031D02*
X4809991Y-9395508D01*
X4809991Y-9395508D02*
X4829039Y-9385984D01*
X4981420Y-9585984D02*
X4981420Y-9452650D01*
X4981420Y-9471698D02*
X4990944Y-9462174D01*
X4990944Y-9462174D02*
X5009991Y-9452650D01*
X5009991Y-9452650D02*
X5038563Y-9452650D01*
X5038563Y-9452650D02*
X5057610Y-9462174D01*
X5057610Y-9462174D02*
X5067134Y-9481222D01*
X5067134Y-9481222D02*
X5067134Y-9585984D01*
X5067134Y-9481222D02*
X5076658Y-9462174D01*
X5076658Y-9462174D02*
X5095705Y-9452650D01*
X5095705Y-9452650D02*
X5124277Y-9452650D01*
X5124277Y-9452650D02*
X5143325Y-9462174D01*
X5143325Y-9462174D02*
X5152848Y-9481222D01*
X5152848Y-9481222D02*
X5152848Y-9585984D01*
X5248086Y-9585984D02*
X5248086Y-9452650D01*
X5248086Y-9471698D02*
X5257610Y-9462174D01*
X5257610Y-9462174D02*
X5276658Y-9452650D01*
X5276658Y-9452650D02*
X5305229Y-9452650D01*
X5305229Y-9452650D02*
X5324277Y-9462174D01*
X5324277Y-9462174D02*
X5333801Y-9481222D01*
X5333801Y-9481222D02*
X5333801Y-9585984D01*
X5333801Y-9481222D02*
X5343325Y-9462174D01*
X5343325Y-9462174D02*
X5362372Y-9452650D01*
X5362372Y-9452650D02*
X5390944Y-9452650D01*
X5390944Y-9452650D02*
X5409991Y-9462174D01*
X5409991Y-9462174D02*
X5419515Y-9481222D01*
X5419515Y-9481222D02*
X5419515Y-9585984D01*
X5809991Y-9376460D02*
X5638563Y-9633603D01*
X6067134Y-9385984D02*
X6086182Y-9385984D01*
X6086182Y-9385984D02*
X6105229Y-9395508D01*
X6105229Y-9395508D02*
X6114753Y-9405031D01*
X6114753Y-9405031D02*
X6124277Y-9424079D01*
X6124277Y-9424079D02*
X6133801Y-9462174D01*
X6133801Y-9462174D02*
X6133801Y-9509793D01*
X6133801Y-9509793D02*
X6124277Y-9547889D01*
X6124277Y-9547889D02*
X6114753Y-9566936D01*
X6114753Y-9566936D02*
X6105229Y-9576460D01*
X6105229Y-9576460D02*
X6086182Y-9585984D01*
X6086182Y-9585984D02*
X6067134Y-9585984D01*
X6067134Y-9585984D02*
X6048086Y-9576460D01*
X6048086Y-9576460D02*
X6038563Y-9566936D01*
X6038563Y-9566936D02*
X6029039Y-9547889D01*
X6029039Y-9547889D02*
X6019515Y-9509793D01*
X6019515Y-9509793D02*
X6019515Y-9462174D01*
X6019515Y-9462174D02*
X6029039Y-9424079D01*
X6029039Y-9424079D02*
X6038563Y-9405031D01*
X6038563Y-9405031D02*
X6048086Y-9395508D01*
X6048086Y-9395508D02*
X6067134Y-9385984D01*
X6219515Y-9566936D02*
X6229039Y-9576460D01*
X6229039Y-9576460D02*
X6219515Y-9585984D01*
X6219515Y-9585984D02*
X6209991Y-9576460D01*
X6209991Y-9576460D02*
X6219515Y-9566936D01*
X6219515Y-9566936D02*
X6219515Y-9585984D01*
X6352848Y-9385984D02*
X6371896Y-9385984D01*
X6371896Y-9385984D02*
X6390944Y-9395508D01*
X6390944Y-9395508D02*
X6400467Y-9405031D01*
X6400467Y-9405031D02*
X6409991Y-9424079D01*
X6409991Y-9424079D02*
X6419515Y-9462174D01*
X6419515Y-9462174D02*
X6419515Y-9509793D01*
X6419515Y-9509793D02*
X6409991Y-9547889D01*
X6409991Y-9547889D02*
X6400467Y-9566936D01*
X6400467Y-9566936D02*
X6390944Y-9576460D01*
X6390944Y-9576460D02*
X6371896Y-9585984D01*
X6371896Y-9585984D02*
X6352848Y-9585984D01*
X6352848Y-9585984D02*
X6333801Y-9576460D01*
X6333801Y-9576460D02*
X6324277Y-9566936D01*
X6324277Y-9566936D02*
X6314753Y-9547889D01*
X6314753Y-9547889D02*
X6305229Y-9509793D01*
X6305229Y-9509793D02*
X6305229Y-9462174D01*
X6305229Y-9462174D02*
X6314753Y-9424079D01*
X6314753Y-9424079D02*
X6324277Y-9405031D01*
X6324277Y-9405031D02*
X6333801Y-9395508D01*
X6333801Y-9395508D02*
X6352848Y-9385984D01*
X6609991Y-9585984D02*
X6495706Y-9585984D01*
X6552848Y-9585984D02*
X6552848Y-9385984D01*
X6552848Y-9385984D02*
X6533801Y-9414555D01*
X6533801Y-9414555D02*
X6514753Y-9433603D01*
X6514753Y-9433603D02*
X6495706Y-9443127D01*
X6800467Y-9585984D02*
X6686182Y-9585984D01*
X6743325Y-9585984D02*
X6743325Y-9385984D01*
X6743325Y-9385984D02*
X6724277Y-9414555D01*
X6724277Y-9414555D02*
X6705229Y-9433603D01*
X6705229Y-9433603D02*
X6686182Y-9443127D01*
X6914753Y-9471698D02*
X6895706Y-9462174D01*
X6895706Y-9462174D02*
X6886182Y-9452650D01*
X6886182Y-9452650D02*
X6876658Y-9433603D01*
X6876658Y-9433603D02*
X6876658Y-9424079D01*
X6876658Y-9424079D02*
X6886182Y-9405031D01*
X6886182Y-9405031D02*
X6895706Y-9395508D01*
X6895706Y-9395508D02*
X6914753Y-9385984D01*
X6914753Y-9385984D02*
X6952848Y-9385984D01*
X6952848Y-9385984D02*
X6971896Y-9395508D01*
X6971896Y-9395508D02*
X6981420Y-9405031D01*
X6981420Y-9405031D02*
X6990944Y-9424079D01*
X6990944Y-9424079D02*
X6990944Y-9433603D01*
X6990944Y-9433603D02*
X6981420Y-9452650D01*
X6981420Y-9452650D02*
X6971896Y-9462174D01*
X6971896Y-9462174D02*
X6952848Y-9471698D01*
X6952848Y-9471698D02*
X6914753Y-9471698D01*
X6914753Y-9471698D02*
X6895706Y-9481222D01*
X6895706Y-9481222D02*
X6886182Y-9490746D01*
X6886182Y-9490746D02*
X6876658Y-9509793D01*
X6876658Y-9509793D02*
X6876658Y-9547889D01*
X6876658Y-9547889D02*
X6886182Y-9566936D01*
X6886182Y-9566936D02*
X6895706Y-9576460D01*
X6895706Y-9576460D02*
X6914753Y-9585984D01*
X6914753Y-9585984D02*
X6952848Y-9585984D01*
X6952848Y-9585984D02*
X6971896Y-9576460D01*
X6971896Y-9576460D02*
X6981420Y-9566936D01*
X6981420Y-9566936D02*
X6990944Y-9547889D01*
X6990944Y-9547889D02*
X6990944Y-9509793D01*
X6990944Y-9509793D02*
X6981420Y-9490746D01*
X6981420Y-9490746D02*
X6971896Y-9481222D01*
X6971896Y-9481222D02*
X6952848Y-9471698D01*
X7067134Y-9385984D02*
X7067134Y-9424079D01*
X7143325Y-9385984D02*
X7143325Y-9424079D01*
X7438563Y-9662174D02*
X7429039Y-9652650D01*
X7429039Y-9652650D02*
X7409991Y-9624079D01*
X7409991Y-9624079D02*
X7400468Y-9605031D01*
X7400468Y-9605031D02*
X7390944Y-9576460D01*
X7390944Y-9576460D02*
X7381420Y-9528841D01*
X7381420Y-9528841D02*
X7381420Y-9490746D01*
X7381420Y-9490746D02*
X7390944Y-9443127D01*
X7390944Y-9443127D02*
X7400468Y-9414555D01*
X7400468Y-9414555D02*
X7409991Y-9395508D01*
X7409991Y-9395508D02*
X7429039Y-9366936D01*
X7429039Y-9366936D02*
X7438563Y-9357412D01*
X7524277Y-9585984D02*
X7562372Y-9585984D01*
X7562372Y-9585984D02*
X7581420Y-9576460D01*
X7581420Y-9576460D02*
X7590944Y-9566936D01*
X7590944Y-9566936D02*
X7609991Y-9538365D01*
X7609991Y-9538365D02*
X7619515Y-9500270D01*
X7619515Y-9500270D02*
X7619515Y-9424079D01*
X7619515Y-9424079D02*
X7609991Y-9405031D01*
X7609991Y-9405031D02*
X7600468Y-9395508D01*
X7600468Y-9395508D02*
X7581420Y-9385984D01*
X7581420Y-9385984D02*
X7543325Y-9385984D01*
X7543325Y-9385984D02*
X7524277Y-9395508D01*
X7524277Y-9395508D02*
X7514753Y-9405031D01*
X7514753Y-9405031D02*
X7505229Y-9424079D01*
X7505229Y-9424079D02*
X7505229Y-9471698D01*
X7505229Y-9471698D02*
X7514753Y-9490746D01*
X7514753Y-9490746D02*
X7524277Y-9500270D01*
X7524277Y-9500270D02*
X7543325Y-9509793D01*
X7543325Y-9509793D02*
X7581420Y-9509793D01*
X7581420Y-9509793D02*
X7600468Y-9500270D01*
X7600468Y-9500270D02*
X7609991Y-9490746D01*
X7609991Y-9490746D02*
X7619515Y-9471698D01*
X7790944Y-9385984D02*
X7752848Y-9385984D01*
X7752848Y-9385984D02*
X7733801Y-9395508D01*
X7733801Y-9395508D02*
X7724277Y-9405031D01*
X7724277Y-9405031D02*
X7705229Y-9433603D01*
X7705229Y-9433603D02*
X7695706Y-9471698D01*
X7695706Y-9471698D02*
X7695706Y-9547889D01*
X7695706Y-9547889D02*
X7705229Y-9566936D01*
X7705229Y-9566936D02*
X7714753Y-9576460D01*
X7714753Y-9576460D02*
X7733801Y-9585984D01*
X7733801Y-9585984D02*
X7771896Y-9585984D01*
X7771896Y-9585984D02*
X7790944Y-9576460D01*
X7790944Y-9576460D02*
X7800468Y-9566936D01*
X7800468Y-9566936D02*
X7809991Y-9547889D01*
X7809991Y-9547889D02*
X7809991Y-9500270D01*
X7809991Y-9500270D02*
X7800468Y-9481222D01*
X7800468Y-9481222D02*
X7790944Y-9471698D01*
X7790944Y-9471698D02*
X7771896Y-9462174D01*
X7771896Y-9462174D02*
X7733801Y-9462174D01*
X7733801Y-9462174D02*
X7714753Y-9471698D01*
X7714753Y-9471698D02*
X7705229Y-9481222D01*
X7705229Y-9481222D02*
X7695706Y-9500270D01*
X8048087Y-9585984D02*
X8048087Y-9385984D01*
X8133801Y-9585984D02*
X8133801Y-9481222D01*
X8133801Y-9481222D02*
X8124277Y-9462174D01*
X8124277Y-9462174D02*
X8105230Y-9452650D01*
X8105230Y-9452650D02*
X8076658Y-9452650D01*
X8076658Y-9452650D02*
X8057610Y-9462174D01*
X8057610Y-9462174D02*
X8048087Y-9471698D01*
X8257610Y-9585984D02*
X8238563Y-9576460D01*
X8238563Y-9576460D02*
X8229039Y-9566936D01*
X8229039Y-9566936D02*
X8219515Y-9547889D01*
X8219515Y-9547889D02*
X8219515Y-9490746D01*
X8219515Y-9490746D02*
X8229039Y-9471698D01*
X8229039Y-9471698D02*
X8238563Y-9462174D01*
X8238563Y-9462174D02*
X8257610Y-9452650D01*
X8257610Y-9452650D02*
X8286182Y-9452650D01*
X8286182Y-9452650D02*
X8305230Y-9462174D01*
X8305230Y-9462174D02*
X8314753Y-9471698D01*
X8314753Y-9471698D02*
X8324277Y-9490746D01*
X8324277Y-9490746D02*
X8324277Y-9547889D01*
X8324277Y-9547889D02*
X8314753Y-9566936D01*
X8314753Y-9566936D02*
X8305230Y-9576460D01*
X8305230Y-9576460D02*
X8286182Y-9585984D01*
X8286182Y-9585984D02*
X8257610Y-9585984D01*
X8438563Y-9585984D02*
X8419515Y-9576460D01*
X8419515Y-9576460D02*
X8409992Y-9557412D01*
X8409992Y-9557412D02*
X8409992Y-9385984D01*
X8590944Y-9576460D02*
X8571896Y-9585984D01*
X8571896Y-9585984D02*
X8533801Y-9585984D01*
X8533801Y-9585984D02*
X8514753Y-9576460D01*
X8514753Y-9576460D02*
X8505230Y-9557412D01*
X8505230Y-9557412D02*
X8505230Y-9481222D01*
X8505230Y-9481222D02*
X8514753Y-9462174D01*
X8514753Y-9462174D02*
X8533801Y-9452650D01*
X8533801Y-9452650D02*
X8571896Y-9452650D01*
X8571896Y-9452650D02*
X8590944Y-9462174D01*
X8590944Y-9462174D02*
X8600468Y-9481222D01*
X8600468Y-9481222D02*
X8600468Y-9500270D01*
X8600468Y-9500270D02*
X8505230Y-9519317D01*
X8676658Y-9576460D02*
X8695706Y-9585984D01*
X8695706Y-9585984D02*
X8733801Y-9585984D01*
X8733801Y-9585984D02*
X8752849Y-9576460D01*
X8752849Y-9576460D02*
X8762373Y-9557412D01*
X8762373Y-9557412D02*
X8762373Y-9547889D01*
X8762373Y-9547889D02*
X8752849Y-9528841D01*
X8752849Y-9528841D02*
X8733801Y-9519317D01*
X8733801Y-9519317D02*
X8705230Y-9519317D01*
X8705230Y-9519317D02*
X8686182Y-9509793D01*
X8686182Y-9509793D02*
X8676658Y-9490746D01*
X8676658Y-9490746D02*
X8676658Y-9481222D01*
X8676658Y-9481222D02*
X8686182Y-9462174D01*
X8686182Y-9462174D02*
X8705230Y-9452650D01*
X8705230Y-9452650D02*
X8733801Y-9452650D01*
X8733801Y-9452650D02*
X8752849Y-9462174D01*
X8829039Y-9662174D02*
X8838563Y-9652650D01*
X8838563Y-9652650D02*
X8857611Y-9624079D01*
X8857611Y-9624079D02*
X8867134Y-9605031D01*
X8867134Y-9605031D02*
X8876658Y-9576460D01*
X8876658Y-9576460D02*
X8886182Y-9528841D01*
X8886182Y-9528841D02*
X8886182Y-9490746D01*
X8886182Y-9490746D02*
X8876658Y-9443127D01*
X8876658Y-9443127D02*
X8867134Y-9414555D01*
X8867134Y-9414555D02*
X8857611Y-9395508D01*
X8857611Y-9395508D02*
X8838563Y-9366936D01*
X8838563Y-9366936D02*
X8829039Y-9357412D01*
D12*
X3863500Y-9758500D02*
G75*
G02*
X3833500Y-9758500I-15000J0D01*
G01*
X3833500Y-9758500D02*
G75*
G02*
X3863500Y-9758500I15000J0D01*
G01*
D11*
X4162372Y-9649984D02*
X4181420Y-9649984D01*
X4181420Y-9649984D02*
X4200467Y-9659508D01*
X4200467Y-9659508D02*
X4209991Y-9669031D01*
X4209991Y-9669031D02*
X4219515Y-9688079D01*
X4219515Y-9688079D02*
X4229039Y-9726174D01*
X4229039Y-9726174D02*
X4229039Y-9773793D01*
X4229039Y-9773793D02*
X4219515Y-9811889D01*
X4219515Y-9811889D02*
X4209991Y-9830936D01*
X4209991Y-9830936D02*
X4200467Y-9840460D01*
X4200467Y-9840460D02*
X4181420Y-9849984D01*
X4181420Y-9849984D02*
X4162372Y-9849984D01*
X4162372Y-9849984D02*
X4143324Y-9840460D01*
X4143324Y-9840460D02*
X4133801Y-9830936D01*
X4133801Y-9830936D02*
X4124277Y-9811889D01*
X4124277Y-9811889D02*
X4114753Y-9773793D01*
X4114753Y-9773793D02*
X4114753Y-9726174D01*
X4114753Y-9726174D02*
X4124277Y-9688079D01*
X4124277Y-9688079D02*
X4133801Y-9669031D01*
X4133801Y-9669031D02*
X4143324Y-9659508D01*
X4143324Y-9659508D02*
X4162372Y-9649984D01*
X4314753Y-9830936D02*
X4324277Y-9840460D01*
X4324277Y-9840460D02*
X4314753Y-9849984D01*
X4314753Y-9849984D02*
X4305229Y-9840460D01*
X4305229Y-9840460D02*
X4314753Y-9830936D01*
X4314753Y-9830936D02*
X4314753Y-9849984D01*
X4390944Y-9649984D02*
X4514753Y-9649984D01*
X4514753Y-9649984D02*
X4448086Y-9726174D01*
X4448086Y-9726174D02*
X4476658Y-9726174D01*
X4476658Y-9726174D02*
X4495705Y-9735698D01*
X4495705Y-9735698D02*
X4505229Y-9745222D01*
X4505229Y-9745222D02*
X4514753Y-9764270D01*
X4514753Y-9764270D02*
X4514753Y-9811889D01*
X4514753Y-9811889D02*
X4505229Y-9830936D01*
X4505229Y-9830936D02*
X4495705Y-9840460D01*
X4495705Y-9840460D02*
X4476658Y-9849984D01*
X4476658Y-9849984D02*
X4419515Y-9849984D01*
X4419515Y-9849984D02*
X4400467Y-9840460D01*
X4400467Y-9840460D02*
X4390944Y-9830936D01*
X4638563Y-9649984D02*
X4657610Y-9649984D01*
X4657610Y-9649984D02*
X4676658Y-9659508D01*
X4676658Y-9659508D02*
X4686182Y-9669031D01*
X4686182Y-9669031D02*
X4695705Y-9688079D01*
X4695705Y-9688079D02*
X4705229Y-9726174D01*
X4705229Y-9726174D02*
X4705229Y-9773793D01*
X4705229Y-9773793D02*
X4695705Y-9811889D01*
X4695705Y-9811889D02*
X4686182Y-9830936D01*
X4686182Y-9830936D02*
X4676658Y-9840460D01*
X4676658Y-9840460D02*
X4657610Y-9849984D01*
X4657610Y-9849984D02*
X4638563Y-9849984D01*
X4638563Y-9849984D02*
X4619515Y-9840460D01*
X4619515Y-9840460D02*
X4609991Y-9830936D01*
X4609991Y-9830936D02*
X4600467Y-9811889D01*
X4600467Y-9811889D02*
X4590944Y-9773793D01*
X4590944Y-9773793D02*
X4590944Y-9726174D01*
X4590944Y-9726174D02*
X4600467Y-9688079D01*
X4600467Y-9688079D02*
X4609991Y-9669031D01*
X4609991Y-9669031D02*
X4619515Y-9659508D01*
X4619515Y-9659508D02*
X4638563Y-9649984D01*
X4829039Y-9649984D02*
X4848086Y-9649984D01*
X4848086Y-9649984D02*
X4867134Y-9659508D01*
X4867134Y-9659508D02*
X4876658Y-9669031D01*
X4876658Y-9669031D02*
X4886182Y-9688079D01*
X4886182Y-9688079D02*
X4895705Y-9726174D01*
X4895705Y-9726174D02*
X4895705Y-9773793D01*
X4895705Y-9773793D02*
X4886182Y-9811889D01*
X4886182Y-9811889D02*
X4876658Y-9830936D01*
X4876658Y-9830936D02*
X4867134Y-9840460D01*
X4867134Y-9840460D02*
X4848086Y-9849984D01*
X4848086Y-9849984D02*
X4829039Y-9849984D01*
X4829039Y-9849984D02*
X4809991Y-9840460D01*
X4809991Y-9840460D02*
X4800467Y-9830936D01*
X4800467Y-9830936D02*
X4790944Y-9811889D01*
X4790944Y-9811889D02*
X4781420Y-9773793D01*
X4781420Y-9773793D02*
X4781420Y-9726174D01*
X4781420Y-9726174D02*
X4790944Y-9688079D01*
X4790944Y-9688079D02*
X4800467Y-9669031D01*
X4800467Y-9669031D02*
X4809991Y-9659508D01*
X4809991Y-9659508D02*
X4829039Y-9649984D01*
X4981420Y-9849984D02*
X4981420Y-9716650D01*
X4981420Y-9735698D02*
X4990944Y-9726174D01*
X4990944Y-9726174D02*
X5009991Y-9716650D01*
X5009991Y-9716650D02*
X5038563Y-9716650D01*
X5038563Y-9716650D02*
X5057610Y-9726174D01*
X5057610Y-9726174D02*
X5067134Y-9745222D01*
X5067134Y-9745222D02*
X5067134Y-9849984D01*
X5067134Y-9745222D02*
X5076658Y-9726174D01*
X5076658Y-9726174D02*
X5095705Y-9716650D01*
X5095705Y-9716650D02*
X5124277Y-9716650D01*
X5124277Y-9716650D02*
X5143325Y-9726174D01*
X5143325Y-9726174D02*
X5152848Y-9745222D01*
X5152848Y-9745222D02*
X5152848Y-9849984D01*
X5248086Y-9849984D02*
X5248086Y-9716650D01*
X5248086Y-9735698D02*
X5257610Y-9726174D01*
X5257610Y-9726174D02*
X5276658Y-9716650D01*
X5276658Y-9716650D02*
X5305229Y-9716650D01*
X5305229Y-9716650D02*
X5324277Y-9726174D01*
X5324277Y-9726174D02*
X5333801Y-9745222D01*
X5333801Y-9745222D02*
X5333801Y-9849984D01*
X5333801Y-9745222D02*
X5343325Y-9726174D01*
X5343325Y-9726174D02*
X5362372Y-9716650D01*
X5362372Y-9716650D02*
X5390944Y-9716650D01*
X5390944Y-9716650D02*
X5409991Y-9726174D01*
X5409991Y-9726174D02*
X5419515Y-9745222D01*
X5419515Y-9745222D02*
X5419515Y-9849984D01*
X5809991Y-9640460D02*
X5638563Y-9897603D01*
X6067134Y-9649984D02*
X6086182Y-9649984D01*
X6086182Y-9649984D02*
X6105229Y-9659508D01*
X6105229Y-9659508D02*
X6114753Y-9669031D01*
X6114753Y-9669031D02*
X6124277Y-9688079D01*
X6124277Y-9688079D02*
X6133801Y-9726174D01*
X6133801Y-9726174D02*
X6133801Y-9773793D01*
X6133801Y-9773793D02*
X6124277Y-9811889D01*
X6124277Y-9811889D02*
X6114753Y-9830936D01*
X6114753Y-9830936D02*
X6105229Y-9840460D01*
X6105229Y-9840460D02*
X6086182Y-9849984D01*
X6086182Y-9849984D02*
X6067134Y-9849984D01*
X6067134Y-9849984D02*
X6048086Y-9840460D01*
X6048086Y-9840460D02*
X6038563Y-9830936D01*
X6038563Y-9830936D02*
X6029039Y-9811889D01*
X6029039Y-9811889D02*
X6019515Y-9773793D01*
X6019515Y-9773793D02*
X6019515Y-9726174D01*
X6019515Y-9726174D02*
X6029039Y-9688079D01*
X6029039Y-9688079D02*
X6038563Y-9669031D01*
X6038563Y-9669031D02*
X6048086Y-9659508D01*
X6048086Y-9659508D02*
X6067134Y-9649984D01*
X6219515Y-9830936D02*
X6229039Y-9840460D01*
X6229039Y-9840460D02*
X6219515Y-9849984D01*
X6219515Y-9849984D02*
X6209991Y-9840460D01*
X6209991Y-9840460D02*
X6219515Y-9830936D01*
X6219515Y-9830936D02*
X6219515Y-9849984D01*
X6352848Y-9649984D02*
X6371896Y-9649984D01*
X6371896Y-9649984D02*
X6390944Y-9659508D01*
X6390944Y-9659508D02*
X6400467Y-9669031D01*
X6400467Y-9669031D02*
X6409991Y-9688079D01*
X6409991Y-9688079D02*
X6419515Y-9726174D01*
X6419515Y-9726174D02*
X6419515Y-9773793D01*
X6419515Y-9773793D02*
X6409991Y-9811889D01*
X6409991Y-9811889D02*
X6400467Y-9830936D01*
X6400467Y-9830936D02*
X6390944Y-9840460D01*
X6390944Y-9840460D02*
X6371896Y-9849984D01*
X6371896Y-9849984D02*
X6352848Y-9849984D01*
X6352848Y-9849984D02*
X6333801Y-9840460D01*
X6333801Y-9840460D02*
X6324277Y-9830936D01*
X6324277Y-9830936D02*
X6314753Y-9811889D01*
X6314753Y-9811889D02*
X6305229Y-9773793D01*
X6305229Y-9773793D02*
X6305229Y-9726174D01*
X6305229Y-9726174D02*
X6314753Y-9688079D01*
X6314753Y-9688079D02*
X6324277Y-9669031D01*
X6324277Y-9669031D02*
X6333801Y-9659508D01*
X6333801Y-9659508D02*
X6352848Y-9649984D01*
X6609991Y-9849984D02*
X6495706Y-9849984D01*
X6552848Y-9849984D02*
X6552848Y-9649984D01*
X6552848Y-9649984D02*
X6533801Y-9678555D01*
X6533801Y-9678555D02*
X6514753Y-9697603D01*
X6514753Y-9697603D02*
X6495706Y-9707127D01*
X6800467Y-9849984D02*
X6686182Y-9849984D01*
X6743325Y-9849984D02*
X6743325Y-9649984D01*
X6743325Y-9649984D02*
X6724277Y-9678555D01*
X6724277Y-9678555D02*
X6705229Y-9697603D01*
X6705229Y-9697603D02*
X6686182Y-9707127D01*
X6914753Y-9735698D02*
X6895706Y-9726174D01*
X6895706Y-9726174D02*
X6886182Y-9716650D01*
X6886182Y-9716650D02*
X6876658Y-9697603D01*
X6876658Y-9697603D02*
X6876658Y-9688079D01*
X6876658Y-9688079D02*
X6886182Y-9669031D01*
X6886182Y-9669031D02*
X6895706Y-9659508D01*
X6895706Y-9659508D02*
X6914753Y-9649984D01*
X6914753Y-9649984D02*
X6952848Y-9649984D01*
X6952848Y-9649984D02*
X6971896Y-9659508D01*
X6971896Y-9659508D02*
X6981420Y-9669031D01*
X6981420Y-9669031D02*
X6990944Y-9688079D01*
X6990944Y-9688079D02*
X6990944Y-9697603D01*
X6990944Y-9697603D02*
X6981420Y-9716650D01*
X6981420Y-9716650D02*
X6971896Y-9726174D01*
X6971896Y-9726174D02*
X6952848Y-9735698D01*
X6952848Y-9735698D02*
X6914753Y-9735698D01*
X6914753Y-9735698D02*
X6895706Y-9745222D01*
X6895706Y-9745222D02*
X6886182Y-9754746D01*
X6886182Y-9754746D02*
X6876658Y-9773793D01*
X6876658Y-9773793D02*
X6876658Y-9811889D01*
X6876658Y-9811889D02*
X6886182Y-9830936D01*
X6886182Y-9830936D02*
X6895706Y-9840460D01*
X6895706Y-9840460D02*
X6914753Y-9849984D01*
X6914753Y-9849984D02*
X6952848Y-9849984D01*
X6952848Y-9849984D02*
X6971896Y-9840460D01*
X6971896Y-9840460D02*
X6981420Y-9830936D01*
X6981420Y-9830936D02*
X6990944Y-9811889D01*
X6990944Y-9811889D02*
X6990944Y-9773793D01*
X6990944Y-9773793D02*
X6981420Y-9754746D01*
X6981420Y-9754746D02*
X6971896Y-9745222D01*
X6971896Y-9745222D02*
X6952848Y-9735698D01*
X7067134Y-9649984D02*
X7067134Y-9688079D01*
X7143325Y-9649984D02*
X7143325Y-9688079D01*
X7438563Y-9926174D02*
X7429039Y-9916650D01*
X7429039Y-9916650D02*
X7409991Y-9888079D01*
X7409991Y-9888079D02*
X7400468Y-9869031D01*
X7400468Y-9869031D02*
X7390944Y-9840460D01*
X7390944Y-9840460D02*
X7381420Y-9792841D01*
X7381420Y-9792841D02*
X7381420Y-9754746D01*
X7381420Y-9754746D02*
X7390944Y-9707127D01*
X7390944Y-9707127D02*
X7400468Y-9678555D01*
X7400468Y-9678555D02*
X7409991Y-9659508D01*
X7409991Y-9659508D02*
X7429039Y-9630936D01*
X7429039Y-9630936D02*
X7438563Y-9621412D01*
X7505229Y-9669031D02*
X7514753Y-9659508D01*
X7514753Y-9659508D02*
X7533801Y-9649984D01*
X7533801Y-9649984D02*
X7581420Y-9649984D01*
X7581420Y-9649984D02*
X7600468Y-9659508D01*
X7600468Y-9659508D02*
X7609991Y-9669031D01*
X7609991Y-9669031D02*
X7619515Y-9688079D01*
X7619515Y-9688079D02*
X7619515Y-9707127D01*
X7619515Y-9707127D02*
X7609991Y-9735698D01*
X7609991Y-9735698D02*
X7495706Y-9849984D01*
X7495706Y-9849984D02*
X7619515Y-9849984D01*
X7790944Y-9716650D02*
X7790944Y-9849984D01*
X7743325Y-9640460D02*
X7695706Y-9783317D01*
X7695706Y-9783317D02*
X7819515Y-9783317D01*
X8048087Y-9849984D02*
X8048087Y-9649984D01*
X8133801Y-9849984D02*
X8133801Y-9745222D01*
X8133801Y-9745222D02*
X8124277Y-9726174D01*
X8124277Y-9726174D02*
X8105230Y-9716650D01*
X8105230Y-9716650D02*
X8076658Y-9716650D01*
X8076658Y-9716650D02*
X8057610Y-9726174D01*
X8057610Y-9726174D02*
X8048087Y-9735698D01*
X8257610Y-9849984D02*
X8238563Y-9840460D01*
X8238563Y-9840460D02*
X8229039Y-9830936D01*
X8229039Y-9830936D02*
X8219515Y-9811889D01*
X8219515Y-9811889D02*
X8219515Y-9754746D01*
X8219515Y-9754746D02*
X8229039Y-9735698D01*
X8229039Y-9735698D02*
X8238563Y-9726174D01*
X8238563Y-9726174D02*
X8257610Y-9716650D01*
X8257610Y-9716650D02*
X8286182Y-9716650D01*
X8286182Y-9716650D02*
X8305230Y-9726174D01*
X8305230Y-9726174D02*
X8314753Y-9735698D01*
X8314753Y-9735698D02*
X8324277Y-9754746D01*
X8324277Y-9754746D02*
X8324277Y-9811889D01*
X8324277Y-9811889D02*
X8314753Y-9830936D01*
X8314753Y-9830936D02*
X8305230Y-9840460D01*
X8305230Y-9840460D02*
X8286182Y-9849984D01*
X8286182Y-9849984D02*
X8257610Y-9849984D01*
X8438563Y-9849984D02*
X8419515Y-9840460D01*
X8419515Y-9840460D02*
X8409992Y-9821412D01*
X8409992Y-9821412D02*
X8409992Y-9649984D01*
X8590944Y-9840460D02*
X8571896Y-9849984D01*
X8571896Y-9849984D02*
X8533801Y-9849984D01*
X8533801Y-9849984D02*
X8514753Y-9840460D01*
X8514753Y-9840460D02*
X8505230Y-9821412D01*
X8505230Y-9821412D02*
X8505230Y-9745222D01*
X8505230Y-9745222D02*
X8514753Y-9726174D01*
X8514753Y-9726174D02*
X8533801Y-9716650D01*
X8533801Y-9716650D02*
X8571896Y-9716650D01*
X8571896Y-9716650D02*
X8590944Y-9726174D01*
X8590944Y-9726174D02*
X8600468Y-9745222D01*
X8600468Y-9745222D02*
X8600468Y-9764270D01*
X8600468Y-9764270D02*
X8505230Y-9783317D01*
X8676658Y-9840460D02*
X8695706Y-9849984D01*
X8695706Y-9849984D02*
X8733801Y-9849984D01*
X8733801Y-9849984D02*
X8752849Y-9840460D01*
X8752849Y-9840460D02*
X8762373Y-9821412D01*
X8762373Y-9821412D02*
X8762373Y-9811889D01*
X8762373Y-9811889D02*
X8752849Y-9792841D01*
X8752849Y-9792841D02*
X8733801Y-9783317D01*
X8733801Y-9783317D02*
X8705230Y-9783317D01*
X8705230Y-9783317D02*
X8686182Y-9773793D01*
X8686182Y-9773793D02*
X8676658Y-9754746D01*
X8676658Y-9754746D02*
X8676658Y-9745222D01*
X8676658Y-9745222D02*
X8686182Y-9726174D01*
X8686182Y-9726174D02*
X8705230Y-9716650D01*
X8705230Y-9716650D02*
X8733801Y-9716650D01*
X8733801Y-9716650D02*
X8752849Y-9726174D01*
X8829039Y-9926174D02*
X8838563Y-9916650D01*
X8838563Y-9916650D02*
X8857611Y-9888079D01*
X8857611Y-9888079D02*
X8867134Y-9869031D01*
X8867134Y-9869031D02*
X8876658Y-9840460D01*
X8876658Y-9840460D02*
X8886182Y-9792841D01*
X8886182Y-9792841D02*
X8886182Y-9754746D01*
X8886182Y-9754746D02*
X8876658Y-9707127D01*
X8876658Y-9707127D02*
X8867134Y-9678555D01*
X8867134Y-9678555D02*
X8857611Y-9659508D01*
X8857611Y-9659508D02*
X8838563Y-9630936D01*
X8838563Y-9630936D02*
X8829039Y-9621412D01*
D12*
X3838500Y-9997500D02*
X3838500Y-10047500D01*
X3813500Y-10022500D02*
X3863500Y-10022500D01*
D11*
X4162372Y-9913984D02*
X4181420Y-9913984D01*
X4181420Y-9913984D02*
X4200467Y-9923508D01*
X4200467Y-9923508D02*
X4209991Y-9933031D01*
X4209991Y-9933031D02*
X4219515Y-9952079D01*
X4219515Y-9952079D02*
X4229039Y-9990174D01*
X4229039Y-9990174D02*
X4229039Y-10037793D01*
X4229039Y-10037793D02*
X4219515Y-10075889D01*
X4219515Y-10075889D02*
X4209991Y-10094936D01*
X4209991Y-10094936D02*
X4200467Y-10104460D01*
X4200467Y-10104460D02*
X4181420Y-10113984D01*
X4181420Y-10113984D02*
X4162372Y-10113984D01*
X4162372Y-10113984D02*
X4143324Y-10104460D01*
X4143324Y-10104460D02*
X4133801Y-10094936D01*
X4133801Y-10094936D02*
X4124277Y-10075889D01*
X4124277Y-10075889D02*
X4114753Y-10037793D01*
X4114753Y-10037793D02*
X4114753Y-9990174D01*
X4114753Y-9990174D02*
X4124277Y-9952079D01*
X4124277Y-9952079D02*
X4133801Y-9933031D01*
X4133801Y-9933031D02*
X4143324Y-9923508D01*
X4143324Y-9923508D02*
X4162372Y-9913984D01*
X4314753Y-10094936D02*
X4324277Y-10104460D01*
X4324277Y-10104460D02*
X4314753Y-10113984D01*
X4314753Y-10113984D02*
X4305229Y-10104460D01*
X4305229Y-10104460D02*
X4314753Y-10094936D01*
X4314753Y-10094936D02*
X4314753Y-10113984D01*
X4505229Y-9913984D02*
X4409991Y-9913984D01*
X4409991Y-9913984D02*
X4400467Y-10009222D01*
X4400467Y-10009222D02*
X4409991Y-9999698D01*
X4409991Y-9999698D02*
X4429039Y-9990174D01*
X4429039Y-9990174D02*
X4476658Y-9990174D01*
X4476658Y-9990174D02*
X4495705Y-9999698D01*
X4495705Y-9999698D02*
X4505229Y-10009222D01*
X4505229Y-10009222D02*
X4514753Y-10028270D01*
X4514753Y-10028270D02*
X4514753Y-10075889D01*
X4514753Y-10075889D02*
X4505229Y-10094936D01*
X4505229Y-10094936D02*
X4495705Y-10104460D01*
X4495705Y-10104460D02*
X4476658Y-10113984D01*
X4476658Y-10113984D02*
X4429039Y-10113984D01*
X4429039Y-10113984D02*
X4409991Y-10104460D01*
X4409991Y-10104460D02*
X4400467Y-10094936D01*
X4638563Y-9913984D02*
X4657610Y-9913984D01*
X4657610Y-9913984D02*
X4676658Y-9923508D01*
X4676658Y-9923508D02*
X4686182Y-9933031D01*
X4686182Y-9933031D02*
X4695705Y-9952079D01*
X4695705Y-9952079D02*
X4705229Y-9990174D01*
X4705229Y-9990174D02*
X4705229Y-10037793D01*
X4705229Y-10037793D02*
X4695705Y-10075889D01*
X4695705Y-10075889D02*
X4686182Y-10094936D01*
X4686182Y-10094936D02*
X4676658Y-10104460D01*
X4676658Y-10104460D02*
X4657610Y-10113984D01*
X4657610Y-10113984D02*
X4638563Y-10113984D01*
X4638563Y-10113984D02*
X4619515Y-10104460D01*
X4619515Y-10104460D02*
X4609991Y-10094936D01*
X4609991Y-10094936D02*
X4600467Y-10075889D01*
X4600467Y-10075889D02*
X4590944Y-10037793D01*
X4590944Y-10037793D02*
X4590944Y-9990174D01*
X4590944Y-9990174D02*
X4600467Y-9952079D01*
X4600467Y-9952079D02*
X4609991Y-9933031D01*
X4609991Y-9933031D02*
X4619515Y-9923508D01*
X4619515Y-9923508D02*
X4638563Y-9913984D01*
X4829039Y-9913984D02*
X4848086Y-9913984D01*
X4848086Y-9913984D02*
X4867134Y-9923508D01*
X4867134Y-9923508D02*
X4876658Y-9933031D01*
X4876658Y-9933031D02*
X4886182Y-9952079D01*
X4886182Y-9952079D02*
X4895705Y-9990174D01*
X4895705Y-9990174D02*
X4895705Y-10037793D01*
X4895705Y-10037793D02*
X4886182Y-10075889D01*
X4886182Y-10075889D02*
X4876658Y-10094936D01*
X4876658Y-10094936D02*
X4867134Y-10104460D01*
X4867134Y-10104460D02*
X4848086Y-10113984D01*
X4848086Y-10113984D02*
X4829039Y-10113984D01*
X4829039Y-10113984D02*
X4809991Y-10104460D01*
X4809991Y-10104460D02*
X4800467Y-10094936D01*
X4800467Y-10094936D02*
X4790944Y-10075889D01*
X4790944Y-10075889D02*
X4781420Y-10037793D01*
X4781420Y-10037793D02*
X4781420Y-9990174D01*
X4781420Y-9990174D02*
X4790944Y-9952079D01*
X4790944Y-9952079D02*
X4800467Y-9933031D01*
X4800467Y-9933031D02*
X4809991Y-9923508D01*
X4809991Y-9923508D02*
X4829039Y-9913984D01*
X4981420Y-10113984D02*
X4981420Y-9980650D01*
X4981420Y-9999698D02*
X4990944Y-9990174D01*
X4990944Y-9990174D02*
X5009991Y-9980650D01*
X5009991Y-9980650D02*
X5038563Y-9980650D01*
X5038563Y-9980650D02*
X5057610Y-9990174D01*
X5057610Y-9990174D02*
X5067134Y-10009222D01*
X5067134Y-10009222D02*
X5067134Y-10113984D01*
X5067134Y-10009222D02*
X5076658Y-9990174D01*
X5076658Y-9990174D02*
X5095705Y-9980650D01*
X5095705Y-9980650D02*
X5124277Y-9980650D01*
X5124277Y-9980650D02*
X5143325Y-9990174D01*
X5143325Y-9990174D02*
X5152848Y-10009222D01*
X5152848Y-10009222D02*
X5152848Y-10113984D01*
X5248086Y-10113984D02*
X5248086Y-9980650D01*
X5248086Y-9999698D02*
X5257610Y-9990174D01*
X5257610Y-9990174D02*
X5276658Y-9980650D01*
X5276658Y-9980650D02*
X5305229Y-9980650D01*
X5305229Y-9980650D02*
X5324277Y-9990174D01*
X5324277Y-9990174D02*
X5333801Y-10009222D01*
X5333801Y-10009222D02*
X5333801Y-10113984D01*
X5333801Y-10009222D02*
X5343325Y-9990174D01*
X5343325Y-9990174D02*
X5362372Y-9980650D01*
X5362372Y-9980650D02*
X5390944Y-9980650D01*
X5390944Y-9980650D02*
X5409991Y-9990174D01*
X5409991Y-9990174D02*
X5419515Y-10009222D01*
X5419515Y-10009222D02*
X5419515Y-10113984D01*
X5809991Y-9904460D02*
X5638563Y-10161603D01*
X6067134Y-9913984D02*
X6086182Y-9913984D01*
X6086182Y-9913984D02*
X6105229Y-9923508D01*
X6105229Y-9923508D02*
X6114753Y-9933031D01*
X6114753Y-9933031D02*
X6124277Y-9952079D01*
X6124277Y-9952079D02*
X6133801Y-9990174D01*
X6133801Y-9990174D02*
X6133801Y-10037793D01*
X6133801Y-10037793D02*
X6124277Y-10075889D01*
X6124277Y-10075889D02*
X6114753Y-10094936D01*
X6114753Y-10094936D02*
X6105229Y-10104460D01*
X6105229Y-10104460D02*
X6086182Y-10113984D01*
X6086182Y-10113984D02*
X6067134Y-10113984D01*
X6067134Y-10113984D02*
X6048086Y-10104460D01*
X6048086Y-10104460D02*
X6038563Y-10094936D01*
X6038563Y-10094936D02*
X6029039Y-10075889D01*
X6029039Y-10075889D02*
X6019515Y-10037793D01*
X6019515Y-10037793D02*
X6019515Y-9990174D01*
X6019515Y-9990174D02*
X6029039Y-9952079D01*
X6029039Y-9952079D02*
X6038563Y-9933031D01*
X6038563Y-9933031D02*
X6048086Y-9923508D01*
X6048086Y-9923508D02*
X6067134Y-9913984D01*
X6219515Y-10094936D02*
X6229039Y-10104460D01*
X6229039Y-10104460D02*
X6219515Y-10113984D01*
X6219515Y-10113984D02*
X6209991Y-10104460D01*
X6209991Y-10104460D02*
X6219515Y-10094936D01*
X6219515Y-10094936D02*
X6219515Y-10113984D01*
X6352848Y-9913984D02*
X6371896Y-9913984D01*
X6371896Y-9913984D02*
X6390944Y-9923508D01*
X6390944Y-9923508D02*
X6400467Y-9933031D01*
X6400467Y-9933031D02*
X6409991Y-9952079D01*
X6409991Y-9952079D02*
X6419515Y-9990174D01*
X6419515Y-9990174D02*
X6419515Y-10037793D01*
X6419515Y-10037793D02*
X6409991Y-10075889D01*
X6409991Y-10075889D02*
X6400467Y-10094936D01*
X6400467Y-10094936D02*
X6390944Y-10104460D01*
X6390944Y-10104460D02*
X6371896Y-10113984D01*
X6371896Y-10113984D02*
X6352848Y-10113984D01*
X6352848Y-10113984D02*
X6333801Y-10104460D01*
X6333801Y-10104460D02*
X6324277Y-10094936D01*
X6324277Y-10094936D02*
X6314753Y-10075889D01*
X6314753Y-10075889D02*
X6305229Y-10037793D01*
X6305229Y-10037793D02*
X6305229Y-9990174D01*
X6305229Y-9990174D02*
X6314753Y-9952079D01*
X6314753Y-9952079D02*
X6324277Y-9933031D01*
X6324277Y-9933031D02*
X6333801Y-9923508D01*
X6333801Y-9923508D02*
X6352848Y-9913984D01*
X6609991Y-10113984D02*
X6495706Y-10113984D01*
X6552848Y-10113984D02*
X6552848Y-9913984D01*
X6552848Y-9913984D02*
X6533801Y-9942555D01*
X6533801Y-9942555D02*
X6514753Y-9961603D01*
X6514753Y-9961603D02*
X6495706Y-9971127D01*
X6705229Y-10113984D02*
X6743325Y-10113984D01*
X6743325Y-10113984D02*
X6762372Y-10104460D01*
X6762372Y-10104460D02*
X6771896Y-10094936D01*
X6771896Y-10094936D02*
X6790944Y-10066365D01*
X6790944Y-10066365D02*
X6800467Y-10028270D01*
X6800467Y-10028270D02*
X6800467Y-9952079D01*
X6800467Y-9952079D02*
X6790944Y-9933031D01*
X6790944Y-9933031D02*
X6781420Y-9923508D01*
X6781420Y-9923508D02*
X6762372Y-9913984D01*
X6762372Y-9913984D02*
X6724277Y-9913984D01*
X6724277Y-9913984D02*
X6705229Y-9923508D01*
X6705229Y-9923508D02*
X6695706Y-9933031D01*
X6695706Y-9933031D02*
X6686182Y-9952079D01*
X6686182Y-9952079D02*
X6686182Y-9999698D01*
X6686182Y-9999698D02*
X6695706Y-10018746D01*
X6695706Y-10018746D02*
X6705229Y-10028270D01*
X6705229Y-10028270D02*
X6724277Y-10037793D01*
X6724277Y-10037793D02*
X6762372Y-10037793D01*
X6762372Y-10037793D02*
X6781420Y-10028270D01*
X6781420Y-10028270D02*
X6790944Y-10018746D01*
X6790944Y-10018746D02*
X6800467Y-9999698D01*
X6867134Y-9913984D02*
X7000467Y-9913984D01*
X7000467Y-9913984D02*
X6914753Y-10113984D01*
X7067134Y-9913984D02*
X7067134Y-9952079D01*
X7143325Y-9913984D02*
X7143325Y-9952079D01*
X7438563Y-10190174D02*
X7429039Y-10180650D01*
X7429039Y-10180650D02*
X7409991Y-10152079D01*
X7409991Y-10152079D02*
X7400468Y-10133031D01*
X7400468Y-10133031D02*
X7390944Y-10104460D01*
X7390944Y-10104460D02*
X7381420Y-10056841D01*
X7381420Y-10056841D02*
X7381420Y-10018746D01*
X7381420Y-10018746D02*
X7390944Y-9971127D01*
X7390944Y-9971127D02*
X7400468Y-9942555D01*
X7400468Y-9942555D02*
X7409991Y-9923508D01*
X7409991Y-9923508D02*
X7429039Y-9894936D01*
X7429039Y-9894936D02*
X7438563Y-9885412D01*
X7552848Y-9913984D02*
X7571896Y-9913984D01*
X7571896Y-9913984D02*
X7590944Y-9923508D01*
X7590944Y-9923508D02*
X7600468Y-9933031D01*
X7600468Y-9933031D02*
X7609991Y-9952079D01*
X7609991Y-9952079D02*
X7619515Y-9990174D01*
X7619515Y-9990174D02*
X7619515Y-10037793D01*
X7619515Y-10037793D02*
X7609991Y-10075889D01*
X7609991Y-10075889D02*
X7600468Y-10094936D01*
X7600468Y-10094936D02*
X7590944Y-10104460D01*
X7590944Y-10104460D02*
X7571896Y-10113984D01*
X7571896Y-10113984D02*
X7552848Y-10113984D01*
X7552848Y-10113984D02*
X7533801Y-10104460D01*
X7533801Y-10104460D02*
X7524277Y-10094936D01*
X7524277Y-10094936D02*
X7514753Y-10075889D01*
X7514753Y-10075889D02*
X7505229Y-10037793D01*
X7505229Y-10037793D02*
X7505229Y-9990174D01*
X7505229Y-9990174D02*
X7514753Y-9952079D01*
X7514753Y-9952079D02*
X7524277Y-9933031D01*
X7524277Y-9933031D02*
X7533801Y-9923508D01*
X7533801Y-9923508D02*
X7552848Y-9913984D01*
X7857610Y-10113984D02*
X7857610Y-9913984D01*
X7943325Y-10113984D02*
X7943325Y-10009222D01*
X7943325Y-10009222D02*
X7933801Y-9990174D01*
X7933801Y-9990174D02*
X7914753Y-9980650D01*
X7914753Y-9980650D02*
X7886182Y-9980650D01*
X7886182Y-9980650D02*
X7867134Y-9990174D01*
X7867134Y-9990174D02*
X7857610Y-9999698D01*
X8067134Y-10113984D02*
X8048087Y-10104460D01*
X8048087Y-10104460D02*
X8038563Y-10094936D01*
X8038563Y-10094936D02*
X8029039Y-10075889D01*
X8029039Y-10075889D02*
X8029039Y-10018746D01*
X8029039Y-10018746D02*
X8038563Y-9999698D01*
X8038563Y-9999698D02*
X8048087Y-9990174D01*
X8048087Y-9990174D02*
X8067134Y-9980650D01*
X8067134Y-9980650D02*
X8095706Y-9980650D01*
X8095706Y-9980650D02*
X8114753Y-9990174D01*
X8114753Y-9990174D02*
X8124277Y-9999698D01*
X8124277Y-9999698D02*
X8133801Y-10018746D01*
X8133801Y-10018746D02*
X8133801Y-10075889D01*
X8133801Y-10075889D02*
X8124277Y-10094936D01*
X8124277Y-10094936D02*
X8114753Y-10104460D01*
X8114753Y-10104460D02*
X8095706Y-10113984D01*
X8095706Y-10113984D02*
X8067134Y-10113984D01*
X8248087Y-10113984D02*
X8229039Y-10104460D01*
X8229039Y-10104460D02*
X8219515Y-10085412D01*
X8219515Y-10085412D02*
X8219515Y-9913984D01*
X8400468Y-10104460D02*
X8381420Y-10113984D01*
X8381420Y-10113984D02*
X8343325Y-10113984D01*
X8343325Y-10113984D02*
X8324277Y-10104460D01*
X8324277Y-10104460D02*
X8314753Y-10085412D01*
X8314753Y-10085412D02*
X8314753Y-10009222D01*
X8314753Y-10009222D02*
X8324277Y-9990174D01*
X8324277Y-9990174D02*
X8343325Y-9980650D01*
X8343325Y-9980650D02*
X8381420Y-9980650D01*
X8381420Y-9980650D02*
X8400468Y-9990174D01*
X8400468Y-9990174D02*
X8409992Y-10009222D01*
X8409992Y-10009222D02*
X8409992Y-10028270D01*
X8409992Y-10028270D02*
X8314753Y-10047317D01*
X8486182Y-10104460D02*
X8505230Y-10113984D01*
X8505230Y-10113984D02*
X8543325Y-10113984D01*
X8543325Y-10113984D02*
X8562373Y-10104460D01*
X8562373Y-10104460D02*
X8571896Y-10085412D01*
X8571896Y-10085412D02*
X8571896Y-10075889D01*
X8571896Y-10075889D02*
X8562373Y-10056841D01*
X8562373Y-10056841D02*
X8543325Y-10047317D01*
X8543325Y-10047317D02*
X8514753Y-10047317D01*
X8514753Y-10047317D02*
X8495706Y-10037793D01*
X8495706Y-10037793D02*
X8486182Y-10018746D01*
X8486182Y-10018746D02*
X8486182Y-10009222D01*
X8486182Y-10009222D02*
X8495706Y-9990174D01*
X8495706Y-9990174D02*
X8514753Y-9980650D01*
X8514753Y-9980650D02*
X8543325Y-9980650D01*
X8543325Y-9980650D02*
X8562373Y-9990174D01*
X8809992Y-10037793D02*
X8962373Y-10037793D01*
X8886182Y-10113984D02*
X8886182Y-9961603D01*
X9200468Y-9933031D02*
X9209992Y-9923508D01*
X9209992Y-9923508D02*
X9229039Y-9913984D01*
X9229039Y-9913984D02*
X9276658Y-9913984D01*
X9276658Y-9913984D02*
X9295706Y-9923508D01*
X9295706Y-9923508D02*
X9305230Y-9933031D01*
X9305230Y-9933031D02*
X9314754Y-9952079D01*
X9314754Y-9952079D02*
X9314754Y-9971127D01*
X9314754Y-9971127D02*
X9305230Y-9999698D01*
X9305230Y-9999698D02*
X9190944Y-10113984D01*
X9190944Y-10113984D02*
X9314754Y-10113984D01*
X9543325Y-10104460D02*
X9562373Y-10113984D01*
X9562373Y-10113984D02*
X9600468Y-10113984D01*
X9600468Y-10113984D02*
X9619516Y-10104460D01*
X9619516Y-10104460D02*
X9629039Y-10085412D01*
X9629039Y-10085412D02*
X9629039Y-10075889D01*
X9629039Y-10075889D02*
X9619516Y-10056841D01*
X9619516Y-10056841D02*
X9600468Y-10047317D01*
X9600468Y-10047317D02*
X9571896Y-10047317D01*
X9571896Y-10047317D02*
X9552849Y-10037793D01*
X9552849Y-10037793D02*
X9543325Y-10018746D01*
X9543325Y-10018746D02*
X9543325Y-10009222D01*
X9543325Y-10009222D02*
X9552849Y-9990174D01*
X9552849Y-9990174D02*
X9571896Y-9980650D01*
X9571896Y-9980650D02*
X9600468Y-9980650D01*
X9600468Y-9980650D02*
X9619516Y-9990174D01*
X9743325Y-10113984D02*
X9724277Y-10104460D01*
X9724277Y-10104460D02*
X9714754Y-10085412D01*
X9714754Y-10085412D02*
X9714754Y-9913984D01*
X9848087Y-10113984D02*
X9829039Y-10104460D01*
X9829039Y-10104460D02*
X9819516Y-10094936D01*
X9819516Y-10094936D02*
X9809992Y-10075889D01*
X9809992Y-10075889D02*
X9809992Y-10018746D01*
X9809992Y-10018746D02*
X9819516Y-9999698D01*
X9819516Y-9999698D02*
X9829039Y-9990174D01*
X9829039Y-9990174D02*
X9848087Y-9980650D01*
X9848087Y-9980650D02*
X9876658Y-9980650D01*
X9876658Y-9980650D02*
X9895706Y-9990174D01*
X9895706Y-9990174D02*
X9905230Y-9999698D01*
X9905230Y-9999698D02*
X9914754Y-10018746D01*
X9914754Y-10018746D02*
X9914754Y-10075889D01*
X9914754Y-10075889D02*
X9905230Y-10094936D01*
X9905230Y-10094936D02*
X9895706Y-10104460D01*
X9895706Y-10104460D02*
X9876658Y-10113984D01*
X9876658Y-10113984D02*
X9848087Y-10113984D01*
X9971897Y-9980650D02*
X10048087Y-9980650D01*
X10000468Y-9913984D02*
X10000468Y-10085412D01*
X10000468Y-10085412D02*
X10009992Y-10104460D01*
X10009992Y-10104460D02*
X10029039Y-10113984D01*
X10029039Y-10113984D02*
X10048087Y-10113984D01*
X10105230Y-10104460D02*
X10124277Y-10113984D01*
X10124277Y-10113984D02*
X10162373Y-10113984D01*
X10162373Y-10113984D02*
X10181420Y-10104460D01*
X10181420Y-10104460D02*
X10190944Y-10085412D01*
X10190944Y-10085412D02*
X10190944Y-10075889D01*
X10190944Y-10075889D02*
X10181420Y-10056841D01*
X10181420Y-10056841D02*
X10162373Y-10047317D01*
X10162373Y-10047317D02*
X10133801Y-10047317D01*
X10133801Y-10047317D02*
X10114754Y-10037793D01*
X10114754Y-10037793D02*
X10105230Y-10018746D01*
X10105230Y-10018746D02*
X10105230Y-10009222D01*
X10105230Y-10009222D02*
X10114754Y-9990174D01*
X10114754Y-9990174D02*
X10133801Y-9980650D01*
X10133801Y-9980650D02*
X10162373Y-9980650D01*
X10162373Y-9980650D02*
X10181420Y-9990174D01*
X10257611Y-10190174D02*
X10267135Y-10180650D01*
X10267135Y-10180650D02*
X10286182Y-10152079D01*
X10286182Y-10152079D02*
X10295706Y-10133031D01*
X10295706Y-10133031D02*
X10305230Y-10104460D01*
X10305230Y-10104460D02*
X10314754Y-10056841D01*
X10314754Y-10056841D02*
X10314754Y-10018746D01*
X10314754Y-10018746D02*
X10305230Y-9971127D01*
X10305230Y-9971127D02*
X10295706Y-9942555D01*
X10295706Y-9942555D02*
X10286182Y-9923508D01*
X10286182Y-9923508D02*
X10267135Y-9894936D01*
X10267135Y-9894936D02*
X10257611Y-9885412D01*
D12*
X3852370Y-10313370D02*
X3852370Y-10259630D01*
X3798630Y-10259630D01*
X3798630Y-10313370D01*
X3852370Y-10313370D01*
D11*
X4162372Y-10177984D02*
X4181420Y-10177984D01*
X4181420Y-10177984D02*
X4200467Y-10187508D01*
X4200467Y-10187508D02*
X4209991Y-10197031D01*
X4209991Y-10197031D02*
X4219515Y-10216079D01*
X4219515Y-10216079D02*
X4229039Y-10254174D01*
X4229039Y-10254174D02*
X4229039Y-10301793D01*
X4229039Y-10301793D02*
X4219515Y-10339889D01*
X4219515Y-10339889D02*
X4209991Y-10358936D01*
X4209991Y-10358936D02*
X4200467Y-10368460D01*
X4200467Y-10368460D02*
X4181420Y-10377984D01*
X4181420Y-10377984D02*
X4162372Y-10377984D01*
X4162372Y-10377984D02*
X4143324Y-10368460D01*
X4143324Y-10368460D02*
X4133801Y-10358936D01*
X4133801Y-10358936D02*
X4124277Y-10339889D01*
X4124277Y-10339889D02*
X4114753Y-10301793D01*
X4114753Y-10301793D02*
X4114753Y-10254174D01*
X4114753Y-10254174D02*
X4124277Y-10216079D01*
X4124277Y-10216079D02*
X4133801Y-10197031D01*
X4133801Y-10197031D02*
X4143324Y-10187508D01*
X4143324Y-10187508D02*
X4162372Y-10177984D01*
X4314753Y-10358936D02*
X4324277Y-10368460D01*
X4324277Y-10368460D02*
X4314753Y-10377984D01*
X4314753Y-10377984D02*
X4305229Y-10368460D01*
X4305229Y-10368460D02*
X4314753Y-10358936D01*
X4314753Y-10358936D02*
X4314753Y-10377984D01*
X4390944Y-10177984D02*
X4524277Y-10177984D01*
X4524277Y-10177984D02*
X4438563Y-10377984D01*
X4686182Y-10177984D02*
X4648086Y-10177984D01*
X4648086Y-10177984D02*
X4629039Y-10187508D01*
X4629039Y-10187508D02*
X4619515Y-10197031D01*
X4619515Y-10197031D02*
X4600467Y-10225603D01*
X4600467Y-10225603D02*
X4590944Y-10263698D01*
X4590944Y-10263698D02*
X4590944Y-10339889D01*
X4590944Y-10339889D02*
X4600467Y-10358936D01*
X4600467Y-10358936D02*
X4609991Y-10368460D01*
X4609991Y-10368460D02*
X4629039Y-10377984D01*
X4629039Y-10377984D02*
X4667134Y-10377984D01*
X4667134Y-10377984D02*
X4686182Y-10368460D01*
X4686182Y-10368460D02*
X4695705Y-10358936D01*
X4695705Y-10358936D02*
X4705229Y-10339889D01*
X4705229Y-10339889D02*
X4705229Y-10292270D01*
X4705229Y-10292270D02*
X4695705Y-10273222D01*
X4695705Y-10273222D02*
X4686182Y-10263698D01*
X4686182Y-10263698D02*
X4667134Y-10254174D01*
X4667134Y-10254174D02*
X4629039Y-10254174D01*
X4629039Y-10254174D02*
X4609991Y-10263698D01*
X4609991Y-10263698D02*
X4600467Y-10273222D01*
X4600467Y-10273222D02*
X4590944Y-10292270D01*
X4829039Y-10177984D02*
X4848086Y-10177984D01*
X4848086Y-10177984D02*
X4867134Y-10187508D01*
X4867134Y-10187508D02*
X4876658Y-10197031D01*
X4876658Y-10197031D02*
X4886182Y-10216079D01*
X4886182Y-10216079D02*
X4895705Y-10254174D01*
X4895705Y-10254174D02*
X4895705Y-10301793D01*
X4895705Y-10301793D02*
X4886182Y-10339889D01*
X4886182Y-10339889D02*
X4876658Y-10358936D01*
X4876658Y-10358936D02*
X4867134Y-10368460D01*
X4867134Y-10368460D02*
X4848086Y-10377984D01*
X4848086Y-10377984D02*
X4829039Y-10377984D01*
X4829039Y-10377984D02*
X4809991Y-10368460D01*
X4809991Y-10368460D02*
X4800467Y-10358936D01*
X4800467Y-10358936D02*
X4790944Y-10339889D01*
X4790944Y-10339889D02*
X4781420Y-10301793D01*
X4781420Y-10301793D02*
X4781420Y-10254174D01*
X4781420Y-10254174D02*
X4790944Y-10216079D01*
X4790944Y-10216079D02*
X4800467Y-10197031D01*
X4800467Y-10197031D02*
X4809991Y-10187508D01*
X4809991Y-10187508D02*
X4829039Y-10177984D01*
X4981420Y-10377984D02*
X4981420Y-10244650D01*
X4981420Y-10263698D02*
X4990944Y-10254174D01*
X4990944Y-10254174D02*
X5009991Y-10244650D01*
X5009991Y-10244650D02*
X5038563Y-10244650D01*
X5038563Y-10244650D02*
X5057610Y-10254174D01*
X5057610Y-10254174D02*
X5067134Y-10273222D01*
X5067134Y-10273222D02*
X5067134Y-10377984D01*
X5067134Y-10273222D02*
X5076658Y-10254174D01*
X5076658Y-10254174D02*
X5095705Y-10244650D01*
X5095705Y-10244650D02*
X5124277Y-10244650D01*
X5124277Y-10244650D02*
X5143325Y-10254174D01*
X5143325Y-10254174D02*
X5152848Y-10273222D01*
X5152848Y-10273222D02*
X5152848Y-10377984D01*
X5248086Y-10377984D02*
X5248086Y-10244650D01*
X5248086Y-10263698D02*
X5257610Y-10254174D01*
X5257610Y-10254174D02*
X5276658Y-10244650D01*
X5276658Y-10244650D02*
X5305229Y-10244650D01*
X5305229Y-10244650D02*
X5324277Y-10254174D01*
X5324277Y-10254174D02*
X5333801Y-10273222D01*
X5333801Y-10273222D02*
X5333801Y-10377984D01*
X5333801Y-10273222D02*
X5343325Y-10254174D01*
X5343325Y-10254174D02*
X5362372Y-10244650D01*
X5362372Y-10244650D02*
X5390944Y-10244650D01*
X5390944Y-10244650D02*
X5409991Y-10254174D01*
X5409991Y-10254174D02*
X5419515Y-10273222D01*
X5419515Y-10273222D02*
X5419515Y-10377984D01*
X5809991Y-10168460D02*
X5638563Y-10425603D01*
X6067134Y-10177984D02*
X6086182Y-10177984D01*
X6086182Y-10177984D02*
X6105229Y-10187508D01*
X6105229Y-10187508D02*
X6114753Y-10197031D01*
X6114753Y-10197031D02*
X6124277Y-10216079D01*
X6124277Y-10216079D02*
X6133801Y-10254174D01*
X6133801Y-10254174D02*
X6133801Y-10301793D01*
X6133801Y-10301793D02*
X6124277Y-10339889D01*
X6124277Y-10339889D02*
X6114753Y-10358936D01*
X6114753Y-10358936D02*
X6105229Y-10368460D01*
X6105229Y-10368460D02*
X6086182Y-10377984D01*
X6086182Y-10377984D02*
X6067134Y-10377984D01*
X6067134Y-10377984D02*
X6048086Y-10368460D01*
X6048086Y-10368460D02*
X6038563Y-10358936D01*
X6038563Y-10358936D02*
X6029039Y-10339889D01*
X6029039Y-10339889D02*
X6019515Y-10301793D01*
X6019515Y-10301793D02*
X6019515Y-10254174D01*
X6019515Y-10254174D02*
X6029039Y-10216079D01*
X6029039Y-10216079D02*
X6038563Y-10197031D01*
X6038563Y-10197031D02*
X6048086Y-10187508D01*
X6048086Y-10187508D02*
X6067134Y-10177984D01*
X6219515Y-10358936D02*
X6229039Y-10368460D01*
X6229039Y-10368460D02*
X6219515Y-10377984D01*
X6219515Y-10377984D02*
X6209991Y-10368460D01*
X6209991Y-10368460D02*
X6219515Y-10358936D01*
X6219515Y-10358936D02*
X6219515Y-10377984D01*
X6352848Y-10177984D02*
X6371896Y-10177984D01*
X6371896Y-10177984D02*
X6390944Y-10187508D01*
X6390944Y-10187508D02*
X6400467Y-10197031D01*
X6400467Y-10197031D02*
X6409991Y-10216079D01*
X6409991Y-10216079D02*
X6419515Y-10254174D01*
X6419515Y-10254174D02*
X6419515Y-10301793D01*
X6419515Y-10301793D02*
X6409991Y-10339889D01*
X6409991Y-10339889D02*
X6400467Y-10358936D01*
X6400467Y-10358936D02*
X6390944Y-10368460D01*
X6390944Y-10368460D02*
X6371896Y-10377984D01*
X6371896Y-10377984D02*
X6352848Y-10377984D01*
X6352848Y-10377984D02*
X6333801Y-10368460D01*
X6333801Y-10368460D02*
X6324277Y-10358936D01*
X6324277Y-10358936D02*
X6314753Y-10339889D01*
X6314753Y-10339889D02*
X6305229Y-10301793D01*
X6305229Y-10301793D02*
X6305229Y-10254174D01*
X6305229Y-10254174D02*
X6314753Y-10216079D01*
X6314753Y-10216079D02*
X6324277Y-10197031D01*
X6324277Y-10197031D02*
X6333801Y-10187508D01*
X6333801Y-10187508D02*
X6352848Y-10177984D01*
X6495706Y-10197031D02*
X6505229Y-10187508D01*
X6505229Y-10187508D02*
X6524277Y-10177984D01*
X6524277Y-10177984D02*
X6571896Y-10177984D01*
X6571896Y-10177984D02*
X6590944Y-10187508D01*
X6590944Y-10187508D02*
X6600467Y-10197031D01*
X6600467Y-10197031D02*
X6609991Y-10216079D01*
X6609991Y-10216079D02*
X6609991Y-10235127D01*
X6609991Y-10235127D02*
X6600467Y-10263698D01*
X6600467Y-10263698D02*
X6486182Y-10377984D01*
X6486182Y-10377984D02*
X6609991Y-10377984D01*
X6705229Y-10377984D02*
X6743325Y-10377984D01*
X6743325Y-10377984D02*
X6762372Y-10368460D01*
X6762372Y-10368460D02*
X6771896Y-10358936D01*
X6771896Y-10358936D02*
X6790944Y-10330365D01*
X6790944Y-10330365D02*
X6800467Y-10292270D01*
X6800467Y-10292270D02*
X6800467Y-10216079D01*
X6800467Y-10216079D02*
X6790944Y-10197031D01*
X6790944Y-10197031D02*
X6781420Y-10187508D01*
X6781420Y-10187508D02*
X6762372Y-10177984D01*
X6762372Y-10177984D02*
X6724277Y-10177984D01*
X6724277Y-10177984D02*
X6705229Y-10187508D01*
X6705229Y-10187508D02*
X6695706Y-10197031D01*
X6695706Y-10197031D02*
X6686182Y-10216079D01*
X6686182Y-10216079D02*
X6686182Y-10263698D01*
X6686182Y-10263698D02*
X6695706Y-10282746D01*
X6695706Y-10282746D02*
X6705229Y-10292270D01*
X6705229Y-10292270D02*
X6724277Y-10301793D01*
X6724277Y-10301793D02*
X6762372Y-10301793D01*
X6762372Y-10301793D02*
X6781420Y-10292270D01*
X6781420Y-10292270D02*
X6790944Y-10282746D01*
X6790944Y-10282746D02*
X6800467Y-10263698D01*
X6895706Y-10377984D02*
X6933801Y-10377984D01*
X6933801Y-10377984D02*
X6952848Y-10368460D01*
X6952848Y-10368460D02*
X6962372Y-10358936D01*
X6962372Y-10358936D02*
X6981420Y-10330365D01*
X6981420Y-10330365D02*
X6990944Y-10292270D01*
X6990944Y-10292270D02*
X6990944Y-10216079D01*
X6990944Y-10216079D02*
X6981420Y-10197031D01*
X6981420Y-10197031D02*
X6971896Y-10187508D01*
X6971896Y-10187508D02*
X6952848Y-10177984D01*
X6952848Y-10177984D02*
X6914753Y-10177984D01*
X6914753Y-10177984D02*
X6895706Y-10187508D01*
X6895706Y-10187508D02*
X6886182Y-10197031D01*
X6886182Y-10197031D02*
X6876658Y-10216079D01*
X6876658Y-10216079D02*
X6876658Y-10263698D01*
X6876658Y-10263698D02*
X6886182Y-10282746D01*
X6886182Y-10282746D02*
X6895706Y-10292270D01*
X6895706Y-10292270D02*
X6914753Y-10301793D01*
X6914753Y-10301793D02*
X6952848Y-10301793D01*
X6952848Y-10301793D02*
X6971896Y-10292270D01*
X6971896Y-10292270D02*
X6981420Y-10282746D01*
X6981420Y-10282746D02*
X6990944Y-10263698D01*
X7067134Y-10177984D02*
X7067134Y-10216079D01*
X7143325Y-10177984D02*
X7143325Y-10216079D01*
X7438563Y-10454174D02*
X7429039Y-10444650D01*
X7429039Y-10444650D02*
X7409991Y-10416079D01*
X7409991Y-10416079D02*
X7400468Y-10397031D01*
X7400468Y-10397031D02*
X7390944Y-10368460D01*
X7390944Y-10368460D02*
X7381420Y-10320841D01*
X7381420Y-10320841D02*
X7381420Y-10282746D01*
X7381420Y-10282746D02*
X7390944Y-10235127D01*
X7390944Y-10235127D02*
X7400468Y-10206555D01*
X7400468Y-10206555D02*
X7409991Y-10187508D01*
X7409991Y-10187508D02*
X7429039Y-10158936D01*
X7429039Y-10158936D02*
X7438563Y-10149412D01*
X7543325Y-10263698D02*
X7524277Y-10254174D01*
X7524277Y-10254174D02*
X7514753Y-10244650D01*
X7514753Y-10244650D02*
X7505229Y-10225603D01*
X7505229Y-10225603D02*
X7505229Y-10216079D01*
X7505229Y-10216079D02*
X7514753Y-10197031D01*
X7514753Y-10197031D02*
X7524277Y-10187508D01*
X7524277Y-10187508D02*
X7543325Y-10177984D01*
X7543325Y-10177984D02*
X7581420Y-10177984D01*
X7581420Y-10177984D02*
X7600468Y-10187508D01*
X7600468Y-10187508D02*
X7609991Y-10197031D01*
X7609991Y-10197031D02*
X7619515Y-10216079D01*
X7619515Y-10216079D02*
X7619515Y-10225603D01*
X7619515Y-10225603D02*
X7609991Y-10244650D01*
X7609991Y-10244650D02*
X7600468Y-10254174D01*
X7600468Y-10254174D02*
X7581420Y-10263698D01*
X7581420Y-10263698D02*
X7543325Y-10263698D01*
X7543325Y-10263698D02*
X7524277Y-10273222D01*
X7524277Y-10273222D02*
X7514753Y-10282746D01*
X7514753Y-10282746D02*
X7505229Y-10301793D01*
X7505229Y-10301793D02*
X7505229Y-10339889D01*
X7505229Y-10339889D02*
X7514753Y-10358936D01*
X7514753Y-10358936D02*
X7524277Y-10368460D01*
X7524277Y-10368460D02*
X7543325Y-10377984D01*
X7543325Y-10377984D02*
X7581420Y-10377984D01*
X7581420Y-10377984D02*
X7600468Y-10368460D01*
X7600468Y-10368460D02*
X7609991Y-10358936D01*
X7609991Y-10358936D02*
X7619515Y-10339889D01*
X7619515Y-10339889D02*
X7619515Y-10301793D01*
X7619515Y-10301793D02*
X7609991Y-10282746D01*
X7609991Y-10282746D02*
X7600468Y-10273222D01*
X7600468Y-10273222D02*
X7581420Y-10263698D01*
X7857610Y-10377984D02*
X7857610Y-10177984D01*
X7943325Y-10377984D02*
X7943325Y-10273222D01*
X7943325Y-10273222D02*
X7933801Y-10254174D01*
X7933801Y-10254174D02*
X7914753Y-10244650D01*
X7914753Y-10244650D02*
X7886182Y-10244650D01*
X7886182Y-10244650D02*
X7867134Y-10254174D01*
X7867134Y-10254174D02*
X7857610Y-10263698D01*
X8067134Y-10377984D02*
X8048087Y-10368460D01*
X8048087Y-10368460D02*
X8038563Y-10358936D01*
X8038563Y-10358936D02*
X8029039Y-10339889D01*
X8029039Y-10339889D02*
X8029039Y-10282746D01*
X8029039Y-10282746D02*
X8038563Y-10263698D01*
X8038563Y-10263698D02*
X8048087Y-10254174D01*
X8048087Y-10254174D02*
X8067134Y-10244650D01*
X8067134Y-10244650D02*
X8095706Y-10244650D01*
X8095706Y-10244650D02*
X8114753Y-10254174D01*
X8114753Y-10254174D02*
X8124277Y-10263698D01*
X8124277Y-10263698D02*
X8133801Y-10282746D01*
X8133801Y-10282746D02*
X8133801Y-10339889D01*
X8133801Y-10339889D02*
X8124277Y-10358936D01*
X8124277Y-10358936D02*
X8114753Y-10368460D01*
X8114753Y-10368460D02*
X8095706Y-10377984D01*
X8095706Y-10377984D02*
X8067134Y-10377984D01*
X8248087Y-10377984D02*
X8229039Y-10368460D01*
X8229039Y-10368460D02*
X8219515Y-10349412D01*
X8219515Y-10349412D02*
X8219515Y-10177984D01*
X8400468Y-10368460D02*
X8381420Y-10377984D01*
X8381420Y-10377984D02*
X8343325Y-10377984D01*
X8343325Y-10377984D02*
X8324277Y-10368460D01*
X8324277Y-10368460D02*
X8314753Y-10349412D01*
X8314753Y-10349412D02*
X8314753Y-10273222D01*
X8314753Y-10273222D02*
X8324277Y-10254174D01*
X8324277Y-10254174D02*
X8343325Y-10244650D01*
X8343325Y-10244650D02*
X8381420Y-10244650D01*
X8381420Y-10244650D02*
X8400468Y-10254174D01*
X8400468Y-10254174D02*
X8409992Y-10273222D01*
X8409992Y-10273222D02*
X8409992Y-10292270D01*
X8409992Y-10292270D02*
X8314753Y-10311317D01*
X8486182Y-10368460D02*
X8505230Y-10377984D01*
X8505230Y-10377984D02*
X8543325Y-10377984D01*
X8543325Y-10377984D02*
X8562373Y-10368460D01*
X8562373Y-10368460D02*
X8571896Y-10349412D01*
X8571896Y-10349412D02*
X8571896Y-10339889D01*
X8571896Y-10339889D02*
X8562373Y-10320841D01*
X8562373Y-10320841D02*
X8543325Y-10311317D01*
X8543325Y-10311317D02*
X8514753Y-10311317D01*
X8514753Y-10311317D02*
X8495706Y-10301793D01*
X8495706Y-10301793D02*
X8486182Y-10282746D01*
X8486182Y-10282746D02*
X8486182Y-10273222D01*
X8486182Y-10273222D02*
X8495706Y-10254174D01*
X8495706Y-10254174D02*
X8514753Y-10244650D01*
X8514753Y-10244650D02*
X8543325Y-10244650D01*
X8543325Y-10244650D02*
X8562373Y-10254174D01*
X8638563Y-10454174D02*
X8648087Y-10444650D01*
X8648087Y-10444650D02*
X8667134Y-10416079D01*
X8667134Y-10416079D02*
X8676658Y-10397031D01*
X8676658Y-10397031D02*
X8686182Y-10368460D01*
X8686182Y-10368460D02*
X8695706Y-10320841D01*
X8695706Y-10320841D02*
X8695706Y-10282746D01*
X8695706Y-10282746D02*
X8686182Y-10235127D01*
X8686182Y-10235127D02*
X8676658Y-10206555D01*
X8676658Y-10206555D02*
X8667134Y-10187508D01*
X8667134Y-10187508D02*
X8648087Y-10158936D01*
X8648087Y-10158936D02*
X8638563Y-10149412D01*
D12*
X3813500Y-10600500D02*
X3863500Y-10550500D01*
X3813500Y-10500500D01*
X3763500Y-10550500D01*
X3813500Y-10600500D01*
D11*
X4229039Y-10641984D02*
X4114753Y-10641984D01*
X4171896Y-10641984D02*
X4171896Y-10441984D01*
X4171896Y-10441984D02*
X4152848Y-10470555D01*
X4152848Y-10470555D02*
X4133801Y-10489603D01*
X4133801Y-10489603D02*
X4114753Y-10499127D01*
X4314753Y-10622936D02*
X4324277Y-10632460D01*
X4324277Y-10632460D02*
X4314753Y-10641984D01*
X4314753Y-10641984D02*
X4305229Y-10632460D01*
X4305229Y-10632460D02*
X4314753Y-10622936D01*
X4314753Y-10622936D02*
X4314753Y-10641984D01*
X4448086Y-10441984D02*
X4467134Y-10441984D01*
X4467134Y-10441984D02*
X4486182Y-10451508D01*
X4486182Y-10451508D02*
X4495705Y-10461031D01*
X4495705Y-10461031D02*
X4505229Y-10480079D01*
X4505229Y-10480079D02*
X4514753Y-10518174D01*
X4514753Y-10518174D02*
X4514753Y-10565793D01*
X4514753Y-10565793D02*
X4505229Y-10603889D01*
X4505229Y-10603889D02*
X4495705Y-10622936D01*
X4495705Y-10622936D02*
X4486182Y-10632460D01*
X4486182Y-10632460D02*
X4467134Y-10641984D01*
X4467134Y-10641984D02*
X4448086Y-10641984D01*
X4448086Y-10641984D02*
X4429039Y-10632460D01*
X4429039Y-10632460D02*
X4419515Y-10622936D01*
X4419515Y-10622936D02*
X4409991Y-10603889D01*
X4409991Y-10603889D02*
X4400467Y-10565793D01*
X4400467Y-10565793D02*
X4400467Y-10518174D01*
X4400467Y-10518174D02*
X4409991Y-10480079D01*
X4409991Y-10480079D02*
X4419515Y-10461031D01*
X4419515Y-10461031D02*
X4429039Y-10451508D01*
X4429039Y-10451508D02*
X4448086Y-10441984D01*
X4638563Y-10441984D02*
X4657610Y-10441984D01*
X4657610Y-10441984D02*
X4676658Y-10451508D01*
X4676658Y-10451508D02*
X4686182Y-10461031D01*
X4686182Y-10461031D02*
X4695705Y-10480079D01*
X4695705Y-10480079D02*
X4705229Y-10518174D01*
X4705229Y-10518174D02*
X4705229Y-10565793D01*
X4705229Y-10565793D02*
X4695705Y-10603889D01*
X4695705Y-10603889D02*
X4686182Y-10622936D01*
X4686182Y-10622936D02*
X4676658Y-10632460D01*
X4676658Y-10632460D02*
X4657610Y-10641984D01*
X4657610Y-10641984D02*
X4638563Y-10641984D01*
X4638563Y-10641984D02*
X4619515Y-10632460D01*
X4619515Y-10632460D02*
X4609991Y-10622936D01*
X4609991Y-10622936D02*
X4600467Y-10603889D01*
X4600467Y-10603889D02*
X4590944Y-10565793D01*
X4590944Y-10565793D02*
X4590944Y-10518174D01*
X4590944Y-10518174D02*
X4600467Y-10480079D01*
X4600467Y-10480079D02*
X4609991Y-10461031D01*
X4609991Y-10461031D02*
X4619515Y-10451508D01*
X4619515Y-10451508D02*
X4638563Y-10441984D01*
X4829039Y-10441984D02*
X4848086Y-10441984D01*
X4848086Y-10441984D02*
X4867134Y-10451508D01*
X4867134Y-10451508D02*
X4876658Y-10461031D01*
X4876658Y-10461031D02*
X4886182Y-10480079D01*
X4886182Y-10480079D02*
X4895705Y-10518174D01*
X4895705Y-10518174D02*
X4895705Y-10565793D01*
X4895705Y-10565793D02*
X4886182Y-10603889D01*
X4886182Y-10603889D02*
X4876658Y-10622936D01*
X4876658Y-10622936D02*
X4867134Y-10632460D01*
X4867134Y-10632460D02*
X4848086Y-10641984D01*
X4848086Y-10641984D02*
X4829039Y-10641984D01*
X4829039Y-10641984D02*
X4809991Y-10632460D01*
X4809991Y-10632460D02*
X4800467Y-10622936D01*
X4800467Y-10622936D02*
X4790944Y-10603889D01*
X4790944Y-10603889D02*
X4781420Y-10565793D01*
X4781420Y-10565793D02*
X4781420Y-10518174D01*
X4781420Y-10518174D02*
X4790944Y-10480079D01*
X4790944Y-10480079D02*
X4800467Y-10461031D01*
X4800467Y-10461031D02*
X4809991Y-10451508D01*
X4809991Y-10451508D02*
X4829039Y-10441984D01*
X4981420Y-10641984D02*
X4981420Y-10508650D01*
X4981420Y-10527698D02*
X4990944Y-10518174D01*
X4990944Y-10518174D02*
X5009991Y-10508650D01*
X5009991Y-10508650D02*
X5038563Y-10508650D01*
X5038563Y-10508650D02*
X5057610Y-10518174D01*
X5057610Y-10518174D02*
X5067134Y-10537222D01*
X5067134Y-10537222D02*
X5067134Y-10641984D01*
X5067134Y-10537222D02*
X5076658Y-10518174D01*
X5076658Y-10518174D02*
X5095705Y-10508650D01*
X5095705Y-10508650D02*
X5124277Y-10508650D01*
X5124277Y-10508650D02*
X5143325Y-10518174D01*
X5143325Y-10518174D02*
X5152848Y-10537222D01*
X5152848Y-10537222D02*
X5152848Y-10641984D01*
X5248086Y-10641984D02*
X5248086Y-10508650D01*
X5248086Y-10527698D02*
X5257610Y-10518174D01*
X5257610Y-10518174D02*
X5276658Y-10508650D01*
X5276658Y-10508650D02*
X5305229Y-10508650D01*
X5305229Y-10508650D02*
X5324277Y-10518174D01*
X5324277Y-10518174D02*
X5333801Y-10537222D01*
X5333801Y-10537222D02*
X5333801Y-10641984D01*
X5333801Y-10537222D02*
X5343325Y-10518174D01*
X5343325Y-10518174D02*
X5362372Y-10508650D01*
X5362372Y-10508650D02*
X5390944Y-10508650D01*
X5390944Y-10508650D02*
X5409991Y-10518174D01*
X5409991Y-10518174D02*
X5419515Y-10537222D01*
X5419515Y-10537222D02*
X5419515Y-10641984D01*
X5809991Y-10432460D02*
X5638563Y-10689603D01*
X6067134Y-10441984D02*
X6086182Y-10441984D01*
X6086182Y-10441984D02*
X6105229Y-10451508D01*
X6105229Y-10451508D02*
X6114753Y-10461031D01*
X6114753Y-10461031D02*
X6124277Y-10480079D01*
X6124277Y-10480079D02*
X6133801Y-10518174D01*
X6133801Y-10518174D02*
X6133801Y-10565793D01*
X6133801Y-10565793D02*
X6124277Y-10603889D01*
X6124277Y-10603889D02*
X6114753Y-10622936D01*
X6114753Y-10622936D02*
X6105229Y-10632460D01*
X6105229Y-10632460D02*
X6086182Y-10641984D01*
X6086182Y-10641984D02*
X6067134Y-10641984D01*
X6067134Y-10641984D02*
X6048086Y-10632460D01*
X6048086Y-10632460D02*
X6038563Y-10622936D01*
X6038563Y-10622936D02*
X6029039Y-10603889D01*
X6029039Y-10603889D02*
X6019515Y-10565793D01*
X6019515Y-10565793D02*
X6019515Y-10518174D01*
X6019515Y-10518174D02*
X6029039Y-10480079D01*
X6029039Y-10480079D02*
X6038563Y-10461031D01*
X6038563Y-10461031D02*
X6048086Y-10451508D01*
X6048086Y-10451508D02*
X6067134Y-10441984D01*
X6219515Y-10622936D02*
X6229039Y-10632460D01*
X6229039Y-10632460D02*
X6219515Y-10641984D01*
X6219515Y-10641984D02*
X6209991Y-10632460D01*
X6209991Y-10632460D02*
X6219515Y-10622936D01*
X6219515Y-10622936D02*
X6219515Y-10641984D01*
X6352848Y-10441984D02*
X6371896Y-10441984D01*
X6371896Y-10441984D02*
X6390944Y-10451508D01*
X6390944Y-10451508D02*
X6400467Y-10461031D01*
X6400467Y-10461031D02*
X6409991Y-10480079D01*
X6409991Y-10480079D02*
X6419515Y-10518174D01*
X6419515Y-10518174D02*
X6419515Y-10565793D01*
X6419515Y-10565793D02*
X6409991Y-10603889D01*
X6409991Y-10603889D02*
X6400467Y-10622936D01*
X6400467Y-10622936D02*
X6390944Y-10632460D01*
X6390944Y-10632460D02*
X6371896Y-10641984D01*
X6371896Y-10641984D02*
X6352848Y-10641984D01*
X6352848Y-10641984D02*
X6333801Y-10632460D01*
X6333801Y-10632460D02*
X6324277Y-10622936D01*
X6324277Y-10622936D02*
X6314753Y-10603889D01*
X6314753Y-10603889D02*
X6305229Y-10565793D01*
X6305229Y-10565793D02*
X6305229Y-10518174D01*
X6305229Y-10518174D02*
X6314753Y-10480079D01*
X6314753Y-10480079D02*
X6324277Y-10461031D01*
X6324277Y-10461031D02*
X6333801Y-10451508D01*
X6333801Y-10451508D02*
X6352848Y-10441984D01*
X6486182Y-10441984D02*
X6609991Y-10441984D01*
X6609991Y-10441984D02*
X6543325Y-10518174D01*
X6543325Y-10518174D02*
X6571896Y-10518174D01*
X6571896Y-10518174D02*
X6590944Y-10527698D01*
X6590944Y-10527698D02*
X6600467Y-10537222D01*
X6600467Y-10537222D02*
X6609991Y-10556270D01*
X6609991Y-10556270D02*
X6609991Y-10603889D01*
X6609991Y-10603889D02*
X6600467Y-10622936D01*
X6600467Y-10622936D02*
X6590944Y-10632460D01*
X6590944Y-10632460D02*
X6571896Y-10641984D01*
X6571896Y-10641984D02*
X6514753Y-10641984D01*
X6514753Y-10641984D02*
X6495706Y-10632460D01*
X6495706Y-10632460D02*
X6486182Y-10622936D01*
X6705229Y-10641984D02*
X6743325Y-10641984D01*
X6743325Y-10641984D02*
X6762372Y-10632460D01*
X6762372Y-10632460D02*
X6771896Y-10622936D01*
X6771896Y-10622936D02*
X6790944Y-10594365D01*
X6790944Y-10594365D02*
X6800467Y-10556270D01*
X6800467Y-10556270D02*
X6800467Y-10480079D01*
X6800467Y-10480079D02*
X6790944Y-10461031D01*
X6790944Y-10461031D02*
X6781420Y-10451508D01*
X6781420Y-10451508D02*
X6762372Y-10441984D01*
X6762372Y-10441984D02*
X6724277Y-10441984D01*
X6724277Y-10441984D02*
X6705229Y-10451508D01*
X6705229Y-10451508D02*
X6695706Y-10461031D01*
X6695706Y-10461031D02*
X6686182Y-10480079D01*
X6686182Y-10480079D02*
X6686182Y-10527698D01*
X6686182Y-10527698D02*
X6695706Y-10546746D01*
X6695706Y-10546746D02*
X6705229Y-10556270D01*
X6705229Y-10556270D02*
X6724277Y-10565793D01*
X6724277Y-10565793D02*
X6762372Y-10565793D01*
X6762372Y-10565793D02*
X6781420Y-10556270D01*
X6781420Y-10556270D02*
X6790944Y-10546746D01*
X6790944Y-10546746D02*
X6800467Y-10527698D01*
X6971896Y-10508650D02*
X6971896Y-10641984D01*
X6924277Y-10432460D02*
X6876658Y-10575317D01*
X6876658Y-10575317D02*
X7000467Y-10575317D01*
X7067134Y-10441984D02*
X7067134Y-10480079D01*
X7143325Y-10441984D02*
X7143325Y-10480079D01*
X7438563Y-10718174D02*
X7429039Y-10708650D01*
X7429039Y-10708650D02*
X7409991Y-10680079D01*
X7409991Y-10680079D02*
X7400468Y-10661031D01*
X7400468Y-10661031D02*
X7390944Y-10632460D01*
X7390944Y-10632460D02*
X7381420Y-10584841D01*
X7381420Y-10584841D02*
X7381420Y-10546746D01*
X7381420Y-10546746D02*
X7390944Y-10499127D01*
X7390944Y-10499127D02*
X7400468Y-10470555D01*
X7400468Y-10470555D02*
X7409991Y-10451508D01*
X7409991Y-10451508D02*
X7429039Y-10422936D01*
X7429039Y-10422936D02*
X7438563Y-10413412D01*
X7619515Y-10641984D02*
X7505229Y-10641984D01*
X7562372Y-10641984D02*
X7562372Y-10441984D01*
X7562372Y-10441984D02*
X7543325Y-10470555D01*
X7543325Y-10470555D02*
X7524277Y-10489603D01*
X7524277Y-10489603D02*
X7505229Y-10499127D01*
X7809991Y-10641984D02*
X7695706Y-10641984D01*
X7752848Y-10641984D02*
X7752848Y-10441984D01*
X7752848Y-10441984D02*
X7733801Y-10470555D01*
X7733801Y-10470555D02*
X7714753Y-10489603D01*
X7714753Y-10489603D02*
X7695706Y-10499127D01*
X8048087Y-10641984D02*
X8048087Y-10441984D01*
X8133801Y-10641984D02*
X8133801Y-10537222D01*
X8133801Y-10537222D02*
X8124277Y-10518174D01*
X8124277Y-10518174D02*
X8105230Y-10508650D01*
X8105230Y-10508650D02*
X8076658Y-10508650D01*
X8076658Y-10508650D02*
X8057610Y-10518174D01*
X8057610Y-10518174D02*
X8048087Y-10527698D01*
X8257610Y-10641984D02*
X8238563Y-10632460D01*
X8238563Y-10632460D02*
X8229039Y-10622936D01*
X8229039Y-10622936D02*
X8219515Y-10603889D01*
X8219515Y-10603889D02*
X8219515Y-10546746D01*
X8219515Y-10546746D02*
X8229039Y-10527698D01*
X8229039Y-10527698D02*
X8238563Y-10518174D01*
X8238563Y-10518174D02*
X8257610Y-10508650D01*
X8257610Y-10508650D02*
X8286182Y-10508650D01*
X8286182Y-10508650D02*
X8305230Y-10518174D01*
X8305230Y-10518174D02*
X8314753Y-10527698D01*
X8314753Y-10527698D02*
X8324277Y-10546746D01*
X8324277Y-10546746D02*
X8324277Y-10603889D01*
X8324277Y-10603889D02*
X8314753Y-10622936D01*
X8314753Y-10622936D02*
X8305230Y-10632460D01*
X8305230Y-10632460D02*
X8286182Y-10641984D01*
X8286182Y-10641984D02*
X8257610Y-10641984D01*
X8438563Y-10641984D02*
X8419515Y-10632460D01*
X8419515Y-10632460D02*
X8409992Y-10613412D01*
X8409992Y-10613412D02*
X8409992Y-10441984D01*
X8590944Y-10632460D02*
X8571896Y-10641984D01*
X8571896Y-10641984D02*
X8533801Y-10641984D01*
X8533801Y-10641984D02*
X8514753Y-10632460D01*
X8514753Y-10632460D02*
X8505230Y-10613412D01*
X8505230Y-10613412D02*
X8505230Y-10537222D01*
X8505230Y-10537222D02*
X8514753Y-10518174D01*
X8514753Y-10518174D02*
X8533801Y-10508650D01*
X8533801Y-10508650D02*
X8571896Y-10508650D01*
X8571896Y-10508650D02*
X8590944Y-10518174D01*
X8590944Y-10518174D02*
X8600468Y-10537222D01*
X8600468Y-10537222D02*
X8600468Y-10556270D01*
X8600468Y-10556270D02*
X8505230Y-10575317D01*
X8676658Y-10632460D02*
X8695706Y-10641984D01*
X8695706Y-10641984D02*
X8733801Y-10641984D01*
X8733801Y-10641984D02*
X8752849Y-10632460D01*
X8752849Y-10632460D02*
X8762373Y-10613412D01*
X8762373Y-10613412D02*
X8762373Y-10603889D01*
X8762373Y-10603889D02*
X8752849Y-10584841D01*
X8752849Y-10584841D02*
X8733801Y-10575317D01*
X8733801Y-10575317D02*
X8705230Y-10575317D01*
X8705230Y-10575317D02*
X8686182Y-10565793D01*
X8686182Y-10565793D02*
X8676658Y-10546746D01*
X8676658Y-10546746D02*
X8676658Y-10537222D01*
X8676658Y-10537222D02*
X8686182Y-10518174D01*
X8686182Y-10518174D02*
X8705230Y-10508650D01*
X8705230Y-10508650D02*
X8733801Y-10508650D01*
X8733801Y-10508650D02*
X8752849Y-10518174D01*
X8829039Y-10718174D02*
X8838563Y-10708650D01*
X8838563Y-10708650D02*
X8857611Y-10680079D01*
X8857611Y-10680079D02*
X8867134Y-10661031D01*
X8867134Y-10661031D02*
X8876658Y-10632460D01*
X8876658Y-10632460D02*
X8886182Y-10584841D01*
X8886182Y-10584841D02*
X8886182Y-10546746D01*
X8886182Y-10546746D02*
X8876658Y-10499127D01*
X8876658Y-10499127D02*
X8867134Y-10470555D01*
X8867134Y-10470555D02*
X8857611Y-10451508D01*
X8857611Y-10451508D02*
X8838563Y-10422936D01*
X8838563Y-10422936D02*
X8829039Y-10413412D01*
D13*
X3743500Y-10754500D02*
X3863500Y-10874500D01*
X3863500Y-10754500D02*
X3743500Y-10874500D01*
X3863500Y-10814500D02*
G75*
G02*
X3743500Y-10814500I-60000J0D01*
G01*
X3743500Y-10814500D02*
G75*
G02*
X3863500Y-10814500I60000J0D01*
G01*
D11*
X4229039Y-10905984D02*
X4114753Y-10905984D01*
X4171896Y-10905984D02*
X4171896Y-10705984D01*
X4171896Y-10705984D02*
X4152848Y-10734555D01*
X4152848Y-10734555D02*
X4133801Y-10753603D01*
X4133801Y-10753603D02*
X4114753Y-10763127D01*
X4314753Y-10886936D02*
X4324277Y-10896460D01*
X4324277Y-10896460D02*
X4314753Y-10905984D01*
X4314753Y-10905984D02*
X4305229Y-10896460D01*
X4305229Y-10896460D02*
X4314753Y-10886936D01*
X4314753Y-10886936D02*
X4314753Y-10905984D01*
X4400467Y-10725031D02*
X4409991Y-10715508D01*
X4409991Y-10715508D02*
X4429039Y-10705984D01*
X4429039Y-10705984D02*
X4476658Y-10705984D01*
X4476658Y-10705984D02*
X4495705Y-10715508D01*
X4495705Y-10715508D02*
X4505229Y-10725031D01*
X4505229Y-10725031D02*
X4514753Y-10744079D01*
X4514753Y-10744079D02*
X4514753Y-10763127D01*
X4514753Y-10763127D02*
X4505229Y-10791698D01*
X4505229Y-10791698D02*
X4390944Y-10905984D01*
X4390944Y-10905984D02*
X4514753Y-10905984D01*
X4638563Y-10705984D02*
X4657610Y-10705984D01*
X4657610Y-10705984D02*
X4676658Y-10715508D01*
X4676658Y-10715508D02*
X4686182Y-10725031D01*
X4686182Y-10725031D02*
X4695705Y-10744079D01*
X4695705Y-10744079D02*
X4705229Y-10782174D01*
X4705229Y-10782174D02*
X4705229Y-10829793D01*
X4705229Y-10829793D02*
X4695705Y-10867889D01*
X4695705Y-10867889D02*
X4686182Y-10886936D01*
X4686182Y-10886936D02*
X4676658Y-10896460D01*
X4676658Y-10896460D02*
X4657610Y-10905984D01*
X4657610Y-10905984D02*
X4638563Y-10905984D01*
X4638563Y-10905984D02*
X4619515Y-10896460D01*
X4619515Y-10896460D02*
X4609991Y-10886936D01*
X4609991Y-10886936D02*
X4600467Y-10867889D01*
X4600467Y-10867889D02*
X4590944Y-10829793D01*
X4590944Y-10829793D02*
X4590944Y-10782174D01*
X4590944Y-10782174D02*
X4600467Y-10744079D01*
X4600467Y-10744079D02*
X4609991Y-10725031D01*
X4609991Y-10725031D02*
X4619515Y-10715508D01*
X4619515Y-10715508D02*
X4638563Y-10705984D01*
X4829039Y-10705984D02*
X4848086Y-10705984D01*
X4848086Y-10705984D02*
X4867134Y-10715508D01*
X4867134Y-10715508D02*
X4876658Y-10725031D01*
X4876658Y-10725031D02*
X4886182Y-10744079D01*
X4886182Y-10744079D02*
X4895705Y-10782174D01*
X4895705Y-10782174D02*
X4895705Y-10829793D01*
X4895705Y-10829793D02*
X4886182Y-10867889D01*
X4886182Y-10867889D02*
X4876658Y-10886936D01*
X4876658Y-10886936D02*
X4867134Y-10896460D01*
X4867134Y-10896460D02*
X4848086Y-10905984D01*
X4848086Y-10905984D02*
X4829039Y-10905984D01*
X4829039Y-10905984D02*
X4809991Y-10896460D01*
X4809991Y-10896460D02*
X4800467Y-10886936D01*
X4800467Y-10886936D02*
X4790944Y-10867889D01*
X4790944Y-10867889D02*
X4781420Y-10829793D01*
X4781420Y-10829793D02*
X4781420Y-10782174D01*
X4781420Y-10782174D02*
X4790944Y-10744079D01*
X4790944Y-10744079D02*
X4800467Y-10725031D01*
X4800467Y-10725031D02*
X4809991Y-10715508D01*
X4809991Y-10715508D02*
X4829039Y-10705984D01*
X4981420Y-10905984D02*
X4981420Y-10772650D01*
X4981420Y-10791698D02*
X4990944Y-10782174D01*
X4990944Y-10782174D02*
X5009991Y-10772650D01*
X5009991Y-10772650D02*
X5038563Y-10772650D01*
X5038563Y-10772650D02*
X5057610Y-10782174D01*
X5057610Y-10782174D02*
X5067134Y-10801222D01*
X5067134Y-10801222D02*
X5067134Y-10905984D01*
X5067134Y-10801222D02*
X5076658Y-10782174D01*
X5076658Y-10782174D02*
X5095705Y-10772650D01*
X5095705Y-10772650D02*
X5124277Y-10772650D01*
X5124277Y-10772650D02*
X5143325Y-10782174D01*
X5143325Y-10782174D02*
X5152848Y-10801222D01*
X5152848Y-10801222D02*
X5152848Y-10905984D01*
X5248086Y-10905984D02*
X5248086Y-10772650D01*
X5248086Y-10791698D02*
X5257610Y-10782174D01*
X5257610Y-10782174D02*
X5276658Y-10772650D01*
X5276658Y-10772650D02*
X5305229Y-10772650D01*
X5305229Y-10772650D02*
X5324277Y-10782174D01*
X5324277Y-10782174D02*
X5333801Y-10801222D01*
X5333801Y-10801222D02*
X5333801Y-10905984D01*
X5333801Y-10801222D02*
X5343325Y-10782174D01*
X5343325Y-10782174D02*
X5362372Y-10772650D01*
X5362372Y-10772650D02*
X5390944Y-10772650D01*
X5390944Y-10772650D02*
X5409991Y-10782174D01*
X5409991Y-10782174D02*
X5419515Y-10801222D01*
X5419515Y-10801222D02*
X5419515Y-10905984D01*
X5809991Y-10696460D02*
X5638563Y-10953603D01*
X6067134Y-10705984D02*
X6086182Y-10705984D01*
X6086182Y-10705984D02*
X6105229Y-10715508D01*
X6105229Y-10715508D02*
X6114753Y-10725031D01*
X6114753Y-10725031D02*
X6124277Y-10744079D01*
X6124277Y-10744079D02*
X6133801Y-10782174D01*
X6133801Y-10782174D02*
X6133801Y-10829793D01*
X6133801Y-10829793D02*
X6124277Y-10867889D01*
X6124277Y-10867889D02*
X6114753Y-10886936D01*
X6114753Y-10886936D02*
X6105229Y-10896460D01*
X6105229Y-10896460D02*
X6086182Y-10905984D01*
X6086182Y-10905984D02*
X6067134Y-10905984D01*
X6067134Y-10905984D02*
X6048086Y-10896460D01*
X6048086Y-10896460D02*
X6038563Y-10886936D01*
X6038563Y-10886936D02*
X6029039Y-10867889D01*
X6029039Y-10867889D02*
X6019515Y-10829793D01*
X6019515Y-10829793D02*
X6019515Y-10782174D01*
X6019515Y-10782174D02*
X6029039Y-10744079D01*
X6029039Y-10744079D02*
X6038563Y-10725031D01*
X6038563Y-10725031D02*
X6048086Y-10715508D01*
X6048086Y-10715508D02*
X6067134Y-10705984D01*
X6219515Y-10886936D02*
X6229039Y-10896460D01*
X6229039Y-10896460D02*
X6219515Y-10905984D01*
X6219515Y-10905984D02*
X6209991Y-10896460D01*
X6209991Y-10896460D02*
X6219515Y-10886936D01*
X6219515Y-10886936D02*
X6219515Y-10905984D01*
X6352848Y-10705984D02*
X6371896Y-10705984D01*
X6371896Y-10705984D02*
X6390944Y-10715508D01*
X6390944Y-10715508D02*
X6400467Y-10725031D01*
X6400467Y-10725031D02*
X6409991Y-10744079D01*
X6409991Y-10744079D02*
X6419515Y-10782174D01*
X6419515Y-10782174D02*
X6419515Y-10829793D01*
X6419515Y-10829793D02*
X6409991Y-10867889D01*
X6409991Y-10867889D02*
X6400467Y-10886936D01*
X6400467Y-10886936D02*
X6390944Y-10896460D01*
X6390944Y-10896460D02*
X6371896Y-10905984D01*
X6371896Y-10905984D02*
X6352848Y-10905984D01*
X6352848Y-10905984D02*
X6333801Y-10896460D01*
X6333801Y-10896460D02*
X6324277Y-10886936D01*
X6324277Y-10886936D02*
X6314753Y-10867889D01*
X6314753Y-10867889D02*
X6305229Y-10829793D01*
X6305229Y-10829793D02*
X6305229Y-10782174D01*
X6305229Y-10782174D02*
X6314753Y-10744079D01*
X6314753Y-10744079D02*
X6324277Y-10725031D01*
X6324277Y-10725031D02*
X6333801Y-10715508D01*
X6333801Y-10715508D02*
X6352848Y-10705984D01*
X6590944Y-10772650D02*
X6590944Y-10905984D01*
X6543325Y-10696460D02*
X6495706Y-10839317D01*
X6495706Y-10839317D02*
X6619515Y-10839317D01*
X6676658Y-10705984D02*
X6809991Y-10705984D01*
X6809991Y-10705984D02*
X6724277Y-10905984D01*
X6876658Y-10725031D02*
X6886182Y-10715508D01*
X6886182Y-10715508D02*
X6905229Y-10705984D01*
X6905229Y-10705984D02*
X6952848Y-10705984D01*
X6952848Y-10705984D02*
X6971896Y-10715508D01*
X6971896Y-10715508D02*
X6981420Y-10725031D01*
X6981420Y-10725031D02*
X6990944Y-10744079D01*
X6990944Y-10744079D02*
X6990944Y-10763127D01*
X6990944Y-10763127D02*
X6981420Y-10791698D01*
X6981420Y-10791698D02*
X6867134Y-10905984D01*
X6867134Y-10905984D02*
X6990944Y-10905984D01*
X7067134Y-10705984D02*
X7067134Y-10744079D01*
X7143325Y-10705984D02*
X7143325Y-10744079D01*
X7438563Y-10982174D02*
X7429039Y-10972650D01*
X7429039Y-10972650D02*
X7409991Y-10944079D01*
X7409991Y-10944079D02*
X7400468Y-10925031D01*
X7400468Y-10925031D02*
X7390944Y-10896460D01*
X7390944Y-10896460D02*
X7381420Y-10848841D01*
X7381420Y-10848841D02*
X7381420Y-10810746D01*
X7381420Y-10810746D02*
X7390944Y-10763127D01*
X7390944Y-10763127D02*
X7400468Y-10734555D01*
X7400468Y-10734555D02*
X7409991Y-10715508D01*
X7409991Y-10715508D02*
X7429039Y-10686936D01*
X7429039Y-10686936D02*
X7438563Y-10677412D01*
X7600468Y-10705984D02*
X7562372Y-10705984D01*
X7562372Y-10705984D02*
X7543325Y-10715508D01*
X7543325Y-10715508D02*
X7533801Y-10725031D01*
X7533801Y-10725031D02*
X7514753Y-10753603D01*
X7514753Y-10753603D02*
X7505229Y-10791698D01*
X7505229Y-10791698D02*
X7505229Y-10867889D01*
X7505229Y-10867889D02*
X7514753Y-10886936D01*
X7514753Y-10886936D02*
X7524277Y-10896460D01*
X7524277Y-10896460D02*
X7543325Y-10905984D01*
X7543325Y-10905984D02*
X7581420Y-10905984D01*
X7581420Y-10905984D02*
X7600468Y-10896460D01*
X7600468Y-10896460D02*
X7609991Y-10886936D01*
X7609991Y-10886936D02*
X7619515Y-10867889D01*
X7619515Y-10867889D02*
X7619515Y-10820270D01*
X7619515Y-10820270D02*
X7609991Y-10801222D01*
X7609991Y-10801222D02*
X7600468Y-10791698D01*
X7600468Y-10791698D02*
X7581420Y-10782174D01*
X7581420Y-10782174D02*
X7543325Y-10782174D01*
X7543325Y-10782174D02*
X7524277Y-10791698D01*
X7524277Y-10791698D02*
X7514753Y-10801222D01*
X7514753Y-10801222D02*
X7505229Y-10820270D01*
X7857610Y-10905984D02*
X7857610Y-10705984D01*
X7943325Y-10905984D02*
X7943325Y-10801222D01*
X7943325Y-10801222D02*
X7933801Y-10782174D01*
X7933801Y-10782174D02*
X7914753Y-10772650D01*
X7914753Y-10772650D02*
X7886182Y-10772650D01*
X7886182Y-10772650D02*
X7867134Y-10782174D01*
X7867134Y-10782174D02*
X7857610Y-10791698D01*
X8067134Y-10905984D02*
X8048087Y-10896460D01*
X8048087Y-10896460D02*
X8038563Y-10886936D01*
X8038563Y-10886936D02*
X8029039Y-10867889D01*
X8029039Y-10867889D02*
X8029039Y-10810746D01*
X8029039Y-10810746D02*
X8038563Y-10791698D01*
X8038563Y-10791698D02*
X8048087Y-10782174D01*
X8048087Y-10782174D02*
X8067134Y-10772650D01*
X8067134Y-10772650D02*
X8095706Y-10772650D01*
X8095706Y-10772650D02*
X8114753Y-10782174D01*
X8114753Y-10782174D02*
X8124277Y-10791698D01*
X8124277Y-10791698D02*
X8133801Y-10810746D01*
X8133801Y-10810746D02*
X8133801Y-10867889D01*
X8133801Y-10867889D02*
X8124277Y-10886936D01*
X8124277Y-10886936D02*
X8114753Y-10896460D01*
X8114753Y-10896460D02*
X8095706Y-10905984D01*
X8095706Y-10905984D02*
X8067134Y-10905984D01*
X8248087Y-10905984D02*
X8229039Y-10896460D01*
X8229039Y-10896460D02*
X8219515Y-10877412D01*
X8219515Y-10877412D02*
X8219515Y-10705984D01*
X8400468Y-10896460D02*
X8381420Y-10905984D01*
X8381420Y-10905984D02*
X8343325Y-10905984D01*
X8343325Y-10905984D02*
X8324277Y-10896460D01*
X8324277Y-10896460D02*
X8314753Y-10877412D01*
X8314753Y-10877412D02*
X8314753Y-10801222D01*
X8314753Y-10801222D02*
X8324277Y-10782174D01*
X8324277Y-10782174D02*
X8343325Y-10772650D01*
X8343325Y-10772650D02*
X8381420Y-10772650D01*
X8381420Y-10772650D02*
X8400468Y-10782174D01*
X8400468Y-10782174D02*
X8409992Y-10801222D01*
X8409992Y-10801222D02*
X8409992Y-10820270D01*
X8409992Y-10820270D02*
X8314753Y-10839317D01*
X8486182Y-10896460D02*
X8505230Y-10905984D01*
X8505230Y-10905984D02*
X8543325Y-10905984D01*
X8543325Y-10905984D02*
X8562373Y-10896460D01*
X8562373Y-10896460D02*
X8571896Y-10877412D01*
X8571896Y-10877412D02*
X8571896Y-10867889D01*
X8571896Y-10867889D02*
X8562373Y-10848841D01*
X8562373Y-10848841D02*
X8543325Y-10839317D01*
X8543325Y-10839317D02*
X8514753Y-10839317D01*
X8514753Y-10839317D02*
X8495706Y-10829793D01*
X8495706Y-10829793D02*
X8486182Y-10810746D01*
X8486182Y-10810746D02*
X8486182Y-10801222D01*
X8486182Y-10801222D02*
X8495706Y-10782174D01*
X8495706Y-10782174D02*
X8514753Y-10772650D01*
X8514753Y-10772650D02*
X8543325Y-10772650D01*
X8543325Y-10772650D02*
X8562373Y-10782174D01*
X8638563Y-10982174D02*
X8648087Y-10972650D01*
X8648087Y-10972650D02*
X8667134Y-10944079D01*
X8667134Y-10944079D02*
X8676658Y-10925031D01*
X8676658Y-10925031D02*
X8686182Y-10896460D01*
X8686182Y-10896460D02*
X8695706Y-10848841D01*
X8695706Y-10848841D02*
X8695706Y-10810746D01*
X8695706Y-10810746D02*
X8686182Y-10763127D01*
X8686182Y-10763127D02*
X8676658Y-10734555D01*
X8676658Y-10734555D02*
X8667134Y-10715508D01*
X8667134Y-10715508D02*
X8648087Y-10686936D01*
X8648087Y-10686936D02*
X8638563Y-10677412D01*
D14*
X3703500Y-10998500D02*
X3863500Y-11158500D01*
X3863500Y-10998500D02*
X3703500Y-11158500D01*
X3783500Y-10998500D02*
X3783500Y-11158500D01*
X3703500Y-11078500D02*
X3863500Y-11078500D01*
D11*
X4229039Y-11169984D02*
X4114753Y-11169984D01*
X4171896Y-11169984D02*
X4171896Y-10969984D01*
X4171896Y-10969984D02*
X4152848Y-10998555D01*
X4152848Y-10998555D02*
X4133801Y-11017603D01*
X4133801Y-11017603D02*
X4114753Y-11027127D01*
X4314753Y-11150936D02*
X4324277Y-11160460D01*
X4324277Y-11160460D02*
X4314753Y-11169984D01*
X4314753Y-11169984D02*
X4305229Y-11160460D01*
X4305229Y-11160460D02*
X4314753Y-11150936D01*
X4314753Y-11150936D02*
X4314753Y-11169984D01*
X4495705Y-10969984D02*
X4457610Y-10969984D01*
X4457610Y-10969984D02*
X4438563Y-10979508D01*
X4438563Y-10979508D02*
X4429039Y-10989031D01*
X4429039Y-10989031D02*
X4409991Y-11017603D01*
X4409991Y-11017603D02*
X4400467Y-11055698D01*
X4400467Y-11055698D02*
X4400467Y-11131889D01*
X4400467Y-11131889D02*
X4409991Y-11150936D01*
X4409991Y-11150936D02*
X4419515Y-11160460D01*
X4419515Y-11160460D02*
X4438563Y-11169984D01*
X4438563Y-11169984D02*
X4476658Y-11169984D01*
X4476658Y-11169984D02*
X4495705Y-11160460D01*
X4495705Y-11160460D02*
X4505229Y-11150936D01*
X4505229Y-11150936D02*
X4514753Y-11131889D01*
X4514753Y-11131889D02*
X4514753Y-11084270D01*
X4514753Y-11084270D02*
X4505229Y-11065222D01*
X4505229Y-11065222D02*
X4495705Y-11055698D01*
X4495705Y-11055698D02*
X4476658Y-11046174D01*
X4476658Y-11046174D02*
X4438563Y-11046174D01*
X4438563Y-11046174D02*
X4419515Y-11055698D01*
X4419515Y-11055698D02*
X4409991Y-11065222D01*
X4409991Y-11065222D02*
X4400467Y-11084270D01*
X4638563Y-10969984D02*
X4657610Y-10969984D01*
X4657610Y-10969984D02*
X4676658Y-10979508D01*
X4676658Y-10979508D02*
X4686182Y-10989031D01*
X4686182Y-10989031D02*
X4695705Y-11008079D01*
X4695705Y-11008079D02*
X4705229Y-11046174D01*
X4705229Y-11046174D02*
X4705229Y-11093793D01*
X4705229Y-11093793D02*
X4695705Y-11131889D01*
X4695705Y-11131889D02*
X4686182Y-11150936D01*
X4686182Y-11150936D02*
X4676658Y-11160460D01*
X4676658Y-11160460D02*
X4657610Y-11169984D01*
X4657610Y-11169984D02*
X4638563Y-11169984D01*
X4638563Y-11169984D02*
X4619515Y-11160460D01*
X4619515Y-11160460D02*
X4609991Y-11150936D01*
X4609991Y-11150936D02*
X4600467Y-11131889D01*
X4600467Y-11131889D02*
X4590944Y-11093793D01*
X4590944Y-11093793D02*
X4590944Y-11046174D01*
X4590944Y-11046174D02*
X4600467Y-11008079D01*
X4600467Y-11008079D02*
X4609991Y-10989031D01*
X4609991Y-10989031D02*
X4619515Y-10979508D01*
X4619515Y-10979508D02*
X4638563Y-10969984D01*
X4829039Y-10969984D02*
X4848086Y-10969984D01*
X4848086Y-10969984D02*
X4867134Y-10979508D01*
X4867134Y-10979508D02*
X4876658Y-10989031D01*
X4876658Y-10989031D02*
X4886182Y-11008079D01*
X4886182Y-11008079D02*
X4895705Y-11046174D01*
X4895705Y-11046174D02*
X4895705Y-11093793D01*
X4895705Y-11093793D02*
X4886182Y-11131889D01*
X4886182Y-11131889D02*
X4876658Y-11150936D01*
X4876658Y-11150936D02*
X4867134Y-11160460D01*
X4867134Y-11160460D02*
X4848086Y-11169984D01*
X4848086Y-11169984D02*
X4829039Y-11169984D01*
X4829039Y-11169984D02*
X4809991Y-11160460D01*
X4809991Y-11160460D02*
X4800467Y-11150936D01*
X4800467Y-11150936D02*
X4790944Y-11131889D01*
X4790944Y-11131889D02*
X4781420Y-11093793D01*
X4781420Y-11093793D02*
X4781420Y-11046174D01*
X4781420Y-11046174D02*
X4790944Y-11008079D01*
X4790944Y-11008079D02*
X4800467Y-10989031D01*
X4800467Y-10989031D02*
X4809991Y-10979508D01*
X4809991Y-10979508D02*
X4829039Y-10969984D01*
X4981420Y-11169984D02*
X4981420Y-11036650D01*
X4981420Y-11055698D02*
X4990944Y-11046174D01*
X4990944Y-11046174D02*
X5009991Y-11036650D01*
X5009991Y-11036650D02*
X5038563Y-11036650D01*
X5038563Y-11036650D02*
X5057610Y-11046174D01*
X5057610Y-11046174D02*
X5067134Y-11065222D01*
X5067134Y-11065222D02*
X5067134Y-11169984D01*
X5067134Y-11065222D02*
X5076658Y-11046174D01*
X5076658Y-11046174D02*
X5095705Y-11036650D01*
X5095705Y-11036650D02*
X5124277Y-11036650D01*
X5124277Y-11036650D02*
X5143325Y-11046174D01*
X5143325Y-11046174D02*
X5152848Y-11065222D01*
X5152848Y-11065222D02*
X5152848Y-11169984D01*
X5248086Y-11169984D02*
X5248086Y-11036650D01*
X5248086Y-11055698D02*
X5257610Y-11046174D01*
X5257610Y-11046174D02*
X5276658Y-11036650D01*
X5276658Y-11036650D02*
X5305229Y-11036650D01*
X5305229Y-11036650D02*
X5324277Y-11046174D01*
X5324277Y-11046174D02*
X5333801Y-11065222D01*
X5333801Y-11065222D02*
X5333801Y-11169984D01*
X5333801Y-11065222D02*
X5343325Y-11046174D01*
X5343325Y-11046174D02*
X5362372Y-11036650D01*
X5362372Y-11036650D02*
X5390944Y-11036650D01*
X5390944Y-11036650D02*
X5409991Y-11046174D01*
X5409991Y-11046174D02*
X5419515Y-11065222D01*
X5419515Y-11065222D02*
X5419515Y-11169984D01*
X5809991Y-10960460D02*
X5638563Y-11217603D01*
X6067134Y-10969984D02*
X6086182Y-10969984D01*
X6086182Y-10969984D02*
X6105229Y-10979508D01*
X6105229Y-10979508D02*
X6114753Y-10989031D01*
X6114753Y-10989031D02*
X6124277Y-11008079D01*
X6124277Y-11008079D02*
X6133801Y-11046174D01*
X6133801Y-11046174D02*
X6133801Y-11093793D01*
X6133801Y-11093793D02*
X6124277Y-11131889D01*
X6124277Y-11131889D02*
X6114753Y-11150936D01*
X6114753Y-11150936D02*
X6105229Y-11160460D01*
X6105229Y-11160460D02*
X6086182Y-11169984D01*
X6086182Y-11169984D02*
X6067134Y-11169984D01*
X6067134Y-11169984D02*
X6048086Y-11160460D01*
X6048086Y-11160460D02*
X6038563Y-11150936D01*
X6038563Y-11150936D02*
X6029039Y-11131889D01*
X6029039Y-11131889D02*
X6019515Y-11093793D01*
X6019515Y-11093793D02*
X6019515Y-11046174D01*
X6019515Y-11046174D02*
X6029039Y-11008079D01*
X6029039Y-11008079D02*
X6038563Y-10989031D01*
X6038563Y-10989031D02*
X6048086Y-10979508D01*
X6048086Y-10979508D02*
X6067134Y-10969984D01*
X6219515Y-11150936D02*
X6229039Y-11160460D01*
X6229039Y-11160460D02*
X6219515Y-11169984D01*
X6219515Y-11169984D02*
X6209991Y-11160460D01*
X6209991Y-11160460D02*
X6219515Y-11150936D01*
X6219515Y-11150936D02*
X6219515Y-11169984D01*
X6352848Y-10969984D02*
X6371896Y-10969984D01*
X6371896Y-10969984D02*
X6390944Y-10979508D01*
X6390944Y-10979508D02*
X6400467Y-10989031D01*
X6400467Y-10989031D02*
X6409991Y-11008079D01*
X6409991Y-11008079D02*
X6419515Y-11046174D01*
X6419515Y-11046174D02*
X6419515Y-11093793D01*
X6419515Y-11093793D02*
X6409991Y-11131889D01*
X6409991Y-11131889D02*
X6400467Y-11150936D01*
X6400467Y-11150936D02*
X6390944Y-11160460D01*
X6390944Y-11160460D02*
X6371896Y-11169984D01*
X6371896Y-11169984D02*
X6352848Y-11169984D01*
X6352848Y-11169984D02*
X6333801Y-11160460D01*
X6333801Y-11160460D02*
X6324277Y-11150936D01*
X6324277Y-11150936D02*
X6314753Y-11131889D01*
X6314753Y-11131889D02*
X6305229Y-11093793D01*
X6305229Y-11093793D02*
X6305229Y-11046174D01*
X6305229Y-11046174D02*
X6314753Y-11008079D01*
X6314753Y-11008079D02*
X6324277Y-10989031D01*
X6324277Y-10989031D02*
X6333801Y-10979508D01*
X6333801Y-10979508D02*
X6352848Y-10969984D01*
X6590944Y-10969984D02*
X6552848Y-10969984D01*
X6552848Y-10969984D02*
X6533801Y-10979508D01*
X6533801Y-10979508D02*
X6524277Y-10989031D01*
X6524277Y-10989031D02*
X6505229Y-11017603D01*
X6505229Y-11017603D02*
X6495706Y-11055698D01*
X6495706Y-11055698D02*
X6495706Y-11131889D01*
X6495706Y-11131889D02*
X6505229Y-11150936D01*
X6505229Y-11150936D02*
X6514753Y-11160460D01*
X6514753Y-11160460D02*
X6533801Y-11169984D01*
X6533801Y-11169984D02*
X6571896Y-11169984D01*
X6571896Y-11169984D02*
X6590944Y-11160460D01*
X6590944Y-11160460D02*
X6600467Y-11150936D01*
X6600467Y-11150936D02*
X6609991Y-11131889D01*
X6609991Y-11131889D02*
X6609991Y-11084270D01*
X6609991Y-11084270D02*
X6600467Y-11065222D01*
X6600467Y-11065222D02*
X6590944Y-11055698D01*
X6590944Y-11055698D02*
X6571896Y-11046174D01*
X6571896Y-11046174D02*
X6533801Y-11046174D01*
X6533801Y-11046174D02*
X6514753Y-11055698D01*
X6514753Y-11055698D02*
X6505229Y-11065222D01*
X6505229Y-11065222D02*
X6495706Y-11084270D01*
X6676658Y-10969984D02*
X6800467Y-10969984D01*
X6800467Y-10969984D02*
X6733801Y-11046174D01*
X6733801Y-11046174D02*
X6762372Y-11046174D01*
X6762372Y-11046174D02*
X6781420Y-11055698D01*
X6781420Y-11055698D02*
X6790944Y-11065222D01*
X6790944Y-11065222D02*
X6800467Y-11084270D01*
X6800467Y-11084270D02*
X6800467Y-11131889D01*
X6800467Y-11131889D02*
X6790944Y-11150936D01*
X6790944Y-11150936D02*
X6781420Y-11160460D01*
X6781420Y-11160460D02*
X6762372Y-11169984D01*
X6762372Y-11169984D02*
X6705229Y-11169984D01*
X6705229Y-11169984D02*
X6686182Y-11160460D01*
X6686182Y-11160460D02*
X6676658Y-11150936D01*
X6924277Y-10969984D02*
X6943325Y-10969984D01*
X6943325Y-10969984D02*
X6962372Y-10979508D01*
X6962372Y-10979508D02*
X6971896Y-10989031D01*
X6971896Y-10989031D02*
X6981420Y-11008079D01*
X6981420Y-11008079D02*
X6990944Y-11046174D01*
X6990944Y-11046174D02*
X6990944Y-11093793D01*
X6990944Y-11093793D02*
X6981420Y-11131889D01*
X6981420Y-11131889D02*
X6971896Y-11150936D01*
X6971896Y-11150936D02*
X6962372Y-11160460D01*
X6962372Y-11160460D02*
X6943325Y-11169984D01*
X6943325Y-11169984D02*
X6924277Y-11169984D01*
X6924277Y-11169984D02*
X6905229Y-11160460D01*
X6905229Y-11160460D02*
X6895706Y-11150936D01*
X6895706Y-11150936D02*
X6886182Y-11131889D01*
X6886182Y-11131889D02*
X6876658Y-11093793D01*
X6876658Y-11093793D02*
X6876658Y-11046174D01*
X6876658Y-11046174D02*
X6886182Y-11008079D01*
X6886182Y-11008079D02*
X6895706Y-10989031D01*
X6895706Y-10989031D02*
X6905229Y-10979508D01*
X6905229Y-10979508D02*
X6924277Y-10969984D01*
X7067134Y-10969984D02*
X7067134Y-11008079D01*
X7143325Y-10969984D02*
X7143325Y-11008079D01*
X7438563Y-11246174D02*
X7429039Y-11236650D01*
X7429039Y-11236650D02*
X7409991Y-11208079D01*
X7409991Y-11208079D02*
X7400468Y-11189031D01*
X7400468Y-11189031D02*
X7390944Y-11160460D01*
X7390944Y-11160460D02*
X7381420Y-11112841D01*
X7381420Y-11112841D02*
X7381420Y-11074746D01*
X7381420Y-11074746D02*
X7390944Y-11027127D01*
X7390944Y-11027127D02*
X7400468Y-10998555D01*
X7400468Y-10998555D02*
X7409991Y-10979508D01*
X7409991Y-10979508D02*
X7429039Y-10950936D01*
X7429039Y-10950936D02*
X7438563Y-10941412D01*
X7619515Y-11169984D02*
X7505229Y-11169984D01*
X7562372Y-11169984D02*
X7562372Y-10969984D01*
X7562372Y-10969984D02*
X7543325Y-10998555D01*
X7543325Y-10998555D02*
X7524277Y-11017603D01*
X7524277Y-11017603D02*
X7505229Y-11027127D01*
X7790944Y-10969984D02*
X7752848Y-10969984D01*
X7752848Y-10969984D02*
X7733801Y-10979508D01*
X7733801Y-10979508D02*
X7724277Y-10989031D01*
X7724277Y-10989031D02*
X7705229Y-11017603D01*
X7705229Y-11017603D02*
X7695706Y-11055698D01*
X7695706Y-11055698D02*
X7695706Y-11131889D01*
X7695706Y-11131889D02*
X7705229Y-11150936D01*
X7705229Y-11150936D02*
X7714753Y-11160460D01*
X7714753Y-11160460D02*
X7733801Y-11169984D01*
X7733801Y-11169984D02*
X7771896Y-11169984D01*
X7771896Y-11169984D02*
X7790944Y-11160460D01*
X7790944Y-11160460D02*
X7800468Y-11150936D01*
X7800468Y-11150936D02*
X7809991Y-11131889D01*
X7809991Y-11131889D02*
X7809991Y-11084270D01*
X7809991Y-11084270D02*
X7800468Y-11065222D01*
X7800468Y-11065222D02*
X7790944Y-11055698D01*
X7790944Y-11055698D02*
X7771896Y-11046174D01*
X7771896Y-11046174D02*
X7733801Y-11046174D01*
X7733801Y-11046174D02*
X7714753Y-11055698D01*
X7714753Y-11055698D02*
X7705229Y-11065222D01*
X7705229Y-11065222D02*
X7695706Y-11084270D01*
X8048087Y-11169984D02*
X8048087Y-10969984D01*
X8133801Y-11169984D02*
X8133801Y-11065222D01*
X8133801Y-11065222D02*
X8124277Y-11046174D01*
X8124277Y-11046174D02*
X8105230Y-11036650D01*
X8105230Y-11036650D02*
X8076658Y-11036650D01*
X8076658Y-11036650D02*
X8057610Y-11046174D01*
X8057610Y-11046174D02*
X8048087Y-11055698D01*
X8257610Y-11169984D02*
X8238563Y-11160460D01*
X8238563Y-11160460D02*
X8229039Y-11150936D01*
X8229039Y-11150936D02*
X8219515Y-11131889D01*
X8219515Y-11131889D02*
X8219515Y-11074746D01*
X8219515Y-11074746D02*
X8229039Y-11055698D01*
X8229039Y-11055698D02*
X8238563Y-11046174D01*
X8238563Y-11046174D02*
X8257610Y-11036650D01*
X8257610Y-11036650D02*
X8286182Y-11036650D01*
X8286182Y-11036650D02*
X8305230Y-11046174D01*
X8305230Y-11046174D02*
X8314753Y-11055698D01*
X8314753Y-11055698D02*
X8324277Y-11074746D01*
X8324277Y-11074746D02*
X8324277Y-11131889D01*
X8324277Y-11131889D02*
X8314753Y-11150936D01*
X8314753Y-11150936D02*
X8305230Y-11160460D01*
X8305230Y-11160460D02*
X8286182Y-11169984D01*
X8286182Y-11169984D02*
X8257610Y-11169984D01*
X8438563Y-11169984D02*
X8419515Y-11160460D01*
X8419515Y-11160460D02*
X8409992Y-11141412D01*
X8409992Y-11141412D02*
X8409992Y-10969984D01*
X8590944Y-11160460D02*
X8571896Y-11169984D01*
X8571896Y-11169984D02*
X8533801Y-11169984D01*
X8533801Y-11169984D02*
X8514753Y-11160460D01*
X8514753Y-11160460D02*
X8505230Y-11141412D01*
X8505230Y-11141412D02*
X8505230Y-11065222D01*
X8505230Y-11065222D02*
X8514753Y-11046174D01*
X8514753Y-11046174D02*
X8533801Y-11036650D01*
X8533801Y-11036650D02*
X8571896Y-11036650D01*
X8571896Y-11036650D02*
X8590944Y-11046174D01*
X8590944Y-11046174D02*
X8600468Y-11065222D01*
X8600468Y-11065222D02*
X8600468Y-11084270D01*
X8600468Y-11084270D02*
X8505230Y-11103317D01*
X8676658Y-11160460D02*
X8695706Y-11169984D01*
X8695706Y-11169984D02*
X8733801Y-11169984D01*
X8733801Y-11169984D02*
X8752849Y-11160460D01*
X8752849Y-11160460D02*
X8762373Y-11141412D01*
X8762373Y-11141412D02*
X8762373Y-11131889D01*
X8762373Y-11131889D02*
X8752849Y-11112841D01*
X8752849Y-11112841D02*
X8733801Y-11103317D01*
X8733801Y-11103317D02*
X8705230Y-11103317D01*
X8705230Y-11103317D02*
X8686182Y-11093793D01*
X8686182Y-11093793D02*
X8676658Y-11074746D01*
X8676658Y-11074746D02*
X8676658Y-11065222D01*
X8676658Y-11065222D02*
X8686182Y-11046174D01*
X8686182Y-11046174D02*
X8705230Y-11036650D01*
X8705230Y-11036650D02*
X8733801Y-11036650D01*
X8733801Y-11036650D02*
X8752849Y-11046174D01*
X8829039Y-11246174D02*
X8838563Y-11236650D01*
X8838563Y-11236650D02*
X8857611Y-11208079D01*
X8857611Y-11208079D02*
X8867134Y-11189031D01*
X8867134Y-11189031D02*
X8876658Y-11160460D01*
X8876658Y-11160460D02*
X8886182Y-11112841D01*
X8886182Y-11112841D02*
X8886182Y-11074746D01*
X8886182Y-11074746D02*
X8876658Y-11027127D01*
X8876658Y-11027127D02*
X8867134Y-10998555D01*
X8867134Y-10998555D02*
X8857611Y-10979508D01*
X8857611Y-10979508D02*
X8838563Y-10950936D01*
X8838563Y-10950936D02*
X8829039Y-10941412D01*
D15*
X3693500Y-11273500D02*
X3863500Y-11443500D01*
X3863500Y-11273500D02*
X3693500Y-11443500D01*
X3838605Y-11418605D02*
X3838605Y-11298395D01*
X3718395Y-11298395D01*
X3718395Y-11418605D01*
X3838605Y-11418605D01*
D11*
X4229039Y-11449984D02*
X4114753Y-11449984D01*
X4171896Y-11449984D02*
X4171896Y-11249984D01*
X4171896Y-11249984D02*
X4152848Y-11278555D01*
X4152848Y-11278555D02*
X4133801Y-11297603D01*
X4133801Y-11297603D02*
X4114753Y-11307127D01*
X4314753Y-11430936D02*
X4324277Y-11440460D01*
X4324277Y-11440460D02*
X4314753Y-11449984D01*
X4314753Y-11449984D02*
X4305229Y-11440460D01*
X4305229Y-11440460D02*
X4314753Y-11430936D01*
X4314753Y-11430936D02*
X4314753Y-11449984D01*
X4390944Y-11249984D02*
X4524277Y-11249984D01*
X4524277Y-11249984D02*
X4438563Y-11449984D01*
X4638563Y-11249984D02*
X4657610Y-11249984D01*
X4657610Y-11249984D02*
X4676658Y-11259508D01*
X4676658Y-11259508D02*
X4686182Y-11269031D01*
X4686182Y-11269031D02*
X4695705Y-11288079D01*
X4695705Y-11288079D02*
X4705229Y-11326174D01*
X4705229Y-11326174D02*
X4705229Y-11373793D01*
X4705229Y-11373793D02*
X4695705Y-11411888D01*
X4695705Y-11411888D02*
X4686182Y-11430936D01*
X4686182Y-11430936D02*
X4676658Y-11440460D01*
X4676658Y-11440460D02*
X4657610Y-11449984D01*
X4657610Y-11449984D02*
X4638563Y-11449984D01*
X4638563Y-11449984D02*
X4619515Y-11440460D01*
X4619515Y-11440460D02*
X4609991Y-11430936D01*
X4609991Y-11430936D02*
X4600467Y-11411888D01*
X4600467Y-11411888D02*
X4590944Y-11373793D01*
X4590944Y-11373793D02*
X4590944Y-11326174D01*
X4590944Y-11326174D02*
X4600467Y-11288079D01*
X4600467Y-11288079D02*
X4609991Y-11269031D01*
X4609991Y-11269031D02*
X4619515Y-11259508D01*
X4619515Y-11259508D02*
X4638563Y-11249984D01*
X4829039Y-11249984D02*
X4848086Y-11249984D01*
X4848086Y-11249984D02*
X4867134Y-11259508D01*
X4867134Y-11259508D02*
X4876658Y-11269031D01*
X4876658Y-11269031D02*
X4886182Y-11288079D01*
X4886182Y-11288079D02*
X4895705Y-11326174D01*
X4895705Y-11326174D02*
X4895705Y-11373793D01*
X4895705Y-11373793D02*
X4886182Y-11411888D01*
X4886182Y-11411888D02*
X4876658Y-11430936D01*
X4876658Y-11430936D02*
X4867134Y-11440460D01*
X4867134Y-11440460D02*
X4848086Y-11449984D01*
X4848086Y-11449984D02*
X4829039Y-11449984D01*
X4829039Y-11449984D02*
X4809991Y-11440460D01*
X4809991Y-11440460D02*
X4800467Y-11430936D01*
X4800467Y-11430936D02*
X4790944Y-11411888D01*
X4790944Y-11411888D02*
X4781420Y-11373793D01*
X4781420Y-11373793D02*
X4781420Y-11326174D01*
X4781420Y-11326174D02*
X4790944Y-11288079D01*
X4790944Y-11288079D02*
X4800467Y-11269031D01*
X4800467Y-11269031D02*
X4809991Y-11259508D01*
X4809991Y-11259508D02*
X4829039Y-11249984D01*
X4981420Y-11449984D02*
X4981420Y-11316650D01*
X4981420Y-11335698D02*
X4990944Y-11326174D01*
X4990944Y-11326174D02*
X5009991Y-11316650D01*
X5009991Y-11316650D02*
X5038563Y-11316650D01*
X5038563Y-11316650D02*
X5057610Y-11326174D01*
X5057610Y-11326174D02*
X5067134Y-11345222D01*
X5067134Y-11345222D02*
X5067134Y-11449984D01*
X5067134Y-11345222D02*
X5076658Y-11326174D01*
X5076658Y-11326174D02*
X5095705Y-11316650D01*
X5095705Y-11316650D02*
X5124277Y-11316650D01*
X5124277Y-11316650D02*
X5143325Y-11326174D01*
X5143325Y-11326174D02*
X5152848Y-11345222D01*
X5152848Y-11345222D02*
X5152848Y-11449984D01*
X5248086Y-11449984D02*
X5248086Y-11316650D01*
X5248086Y-11335698D02*
X5257610Y-11326174D01*
X5257610Y-11326174D02*
X5276658Y-11316650D01*
X5276658Y-11316650D02*
X5305229Y-11316650D01*
X5305229Y-11316650D02*
X5324277Y-11326174D01*
X5324277Y-11326174D02*
X5333801Y-11345222D01*
X5333801Y-11345222D02*
X5333801Y-11449984D01*
X5333801Y-11345222D02*
X5343325Y-11326174D01*
X5343325Y-11326174D02*
X5362372Y-11316650D01*
X5362372Y-11316650D02*
X5390944Y-11316650D01*
X5390944Y-11316650D02*
X5409991Y-11326174D01*
X5409991Y-11326174D02*
X5419515Y-11345222D01*
X5419515Y-11345222D02*
X5419515Y-11449984D01*
X5809991Y-11240460D02*
X5638563Y-11497603D01*
X6067134Y-11249984D02*
X6086182Y-11249984D01*
X6086182Y-11249984D02*
X6105229Y-11259508D01*
X6105229Y-11259508D02*
X6114753Y-11269031D01*
X6114753Y-11269031D02*
X6124277Y-11288079D01*
X6124277Y-11288079D02*
X6133801Y-11326174D01*
X6133801Y-11326174D02*
X6133801Y-11373793D01*
X6133801Y-11373793D02*
X6124277Y-11411888D01*
X6124277Y-11411888D02*
X6114753Y-11430936D01*
X6114753Y-11430936D02*
X6105229Y-11440460D01*
X6105229Y-11440460D02*
X6086182Y-11449984D01*
X6086182Y-11449984D02*
X6067134Y-11449984D01*
X6067134Y-11449984D02*
X6048086Y-11440460D01*
X6048086Y-11440460D02*
X6038563Y-11430936D01*
X6038563Y-11430936D02*
X6029039Y-11411888D01*
X6029039Y-11411888D02*
X6019515Y-11373793D01*
X6019515Y-11373793D02*
X6019515Y-11326174D01*
X6019515Y-11326174D02*
X6029039Y-11288079D01*
X6029039Y-11288079D02*
X6038563Y-11269031D01*
X6038563Y-11269031D02*
X6048086Y-11259508D01*
X6048086Y-11259508D02*
X6067134Y-11249984D01*
X6219515Y-11430936D02*
X6229039Y-11440460D01*
X6229039Y-11440460D02*
X6219515Y-11449984D01*
X6219515Y-11449984D02*
X6209991Y-11440460D01*
X6209991Y-11440460D02*
X6219515Y-11430936D01*
X6219515Y-11430936D02*
X6219515Y-11449984D01*
X6352848Y-11249984D02*
X6371896Y-11249984D01*
X6371896Y-11249984D02*
X6390944Y-11259508D01*
X6390944Y-11259508D02*
X6400467Y-11269031D01*
X6400467Y-11269031D02*
X6409991Y-11288079D01*
X6409991Y-11288079D02*
X6419515Y-11326174D01*
X6419515Y-11326174D02*
X6419515Y-11373793D01*
X6419515Y-11373793D02*
X6409991Y-11411888D01*
X6409991Y-11411888D02*
X6400467Y-11430936D01*
X6400467Y-11430936D02*
X6390944Y-11440460D01*
X6390944Y-11440460D02*
X6371896Y-11449984D01*
X6371896Y-11449984D02*
X6352848Y-11449984D01*
X6352848Y-11449984D02*
X6333801Y-11440460D01*
X6333801Y-11440460D02*
X6324277Y-11430936D01*
X6324277Y-11430936D02*
X6314753Y-11411888D01*
X6314753Y-11411888D02*
X6305229Y-11373793D01*
X6305229Y-11373793D02*
X6305229Y-11326174D01*
X6305229Y-11326174D02*
X6314753Y-11288079D01*
X6314753Y-11288079D02*
X6324277Y-11269031D01*
X6324277Y-11269031D02*
X6333801Y-11259508D01*
X6333801Y-11259508D02*
X6352848Y-11249984D01*
X6590944Y-11249984D02*
X6552848Y-11249984D01*
X6552848Y-11249984D02*
X6533801Y-11259508D01*
X6533801Y-11259508D02*
X6524277Y-11269031D01*
X6524277Y-11269031D02*
X6505229Y-11297603D01*
X6505229Y-11297603D02*
X6495706Y-11335698D01*
X6495706Y-11335698D02*
X6495706Y-11411888D01*
X6495706Y-11411888D02*
X6505229Y-11430936D01*
X6505229Y-11430936D02*
X6514753Y-11440460D01*
X6514753Y-11440460D02*
X6533801Y-11449984D01*
X6533801Y-11449984D02*
X6571896Y-11449984D01*
X6571896Y-11449984D02*
X6590944Y-11440460D01*
X6590944Y-11440460D02*
X6600467Y-11430936D01*
X6600467Y-11430936D02*
X6609991Y-11411888D01*
X6609991Y-11411888D02*
X6609991Y-11364269D01*
X6609991Y-11364269D02*
X6600467Y-11345222D01*
X6600467Y-11345222D02*
X6590944Y-11335698D01*
X6590944Y-11335698D02*
X6571896Y-11326174D01*
X6571896Y-11326174D02*
X6533801Y-11326174D01*
X6533801Y-11326174D02*
X6514753Y-11335698D01*
X6514753Y-11335698D02*
X6505229Y-11345222D01*
X6505229Y-11345222D02*
X6495706Y-11364269D01*
X6781420Y-11249984D02*
X6743325Y-11249984D01*
X6743325Y-11249984D02*
X6724277Y-11259508D01*
X6724277Y-11259508D02*
X6714753Y-11269031D01*
X6714753Y-11269031D02*
X6695706Y-11297603D01*
X6695706Y-11297603D02*
X6686182Y-11335698D01*
X6686182Y-11335698D02*
X6686182Y-11411888D01*
X6686182Y-11411888D02*
X6695706Y-11430936D01*
X6695706Y-11430936D02*
X6705229Y-11440460D01*
X6705229Y-11440460D02*
X6724277Y-11449984D01*
X6724277Y-11449984D02*
X6762372Y-11449984D01*
X6762372Y-11449984D02*
X6781420Y-11440460D01*
X6781420Y-11440460D02*
X6790944Y-11430936D01*
X6790944Y-11430936D02*
X6800467Y-11411888D01*
X6800467Y-11411888D02*
X6800467Y-11364269D01*
X6800467Y-11364269D02*
X6790944Y-11345222D01*
X6790944Y-11345222D02*
X6781420Y-11335698D01*
X6781420Y-11335698D02*
X6762372Y-11326174D01*
X6762372Y-11326174D02*
X6724277Y-11326174D01*
X6724277Y-11326174D02*
X6705229Y-11335698D01*
X6705229Y-11335698D02*
X6695706Y-11345222D01*
X6695706Y-11345222D02*
X6686182Y-11364269D01*
X6895706Y-11449984D02*
X6933801Y-11449984D01*
X6933801Y-11449984D02*
X6952848Y-11440460D01*
X6952848Y-11440460D02*
X6962372Y-11430936D01*
X6962372Y-11430936D02*
X6981420Y-11402365D01*
X6981420Y-11402365D02*
X6990944Y-11364269D01*
X6990944Y-11364269D02*
X6990944Y-11288079D01*
X6990944Y-11288079D02*
X6981420Y-11269031D01*
X6981420Y-11269031D02*
X6971896Y-11259508D01*
X6971896Y-11259508D02*
X6952848Y-11249984D01*
X6952848Y-11249984D02*
X6914753Y-11249984D01*
X6914753Y-11249984D02*
X6895706Y-11259508D01*
X6895706Y-11259508D02*
X6886182Y-11269031D01*
X6886182Y-11269031D02*
X6876658Y-11288079D01*
X6876658Y-11288079D02*
X6876658Y-11335698D01*
X6876658Y-11335698D02*
X6886182Y-11354746D01*
X6886182Y-11354746D02*
X6895706Y-11364269D01*
X6895706Y-11364269D02*
X6914753Y-11373793D01*
X6914753Y-11373793D02*
X6952848Y-11373793D01*
X6952848Y-11373793D02*
X6971896Y-11364269D01*
X6971896Y-11364269D02*
X6981420Y-11354746D01*
X6981420Y-11354746D02*
X6990944Y-11335698D01*
X7067134Y-11249984D02*
X7067134Y-11288079D01*
X7143325Y-11249984D02*
X7143325Y-11288079D01*
X7438563Y-11526174D02*
X7429039Y-11516650D01*
X7429039Y-11516650D02*
X7409991Y-11488079D01*
X7409991Y-11488079D02*
X7400468Y-11469031D01*
X7400468Y-11469031D02*
X7390944Y-11440460D01*
X7390944Y-11440460D02*
X7381420Y-11392841D01*
X7381420Y-11392841D02*
X7381420Y-11354746D01*
X7381420Y-11354746D02*
X7390944Y-11307127D01*
X7390944Y-11307127D02*
X7400468Y-11278555D01*
X7400468Y-11278555D02*
X7409991Y-11259508D01*
X7409991Y-11259508D02*
X7429039Y-11230936D01*
X7429039Y-11230936D02*
X7438563Y-11221412D01*
X7600468Y-11249984D02*
X7562372Y-11249984D01*
X7562372Y-11249984D02*
X7543325Y-11259508D01*
X7543325Y-11259508D02*
X7533801Y-11269031D01*
X7533801Y-11269031D02*
X7514753Y-11297603D01*
X7514753Y-11297603D02*
X7505229Y-11335698D01*
X7505229Y-11335698D02*
X7505229Y-11411888D01*
X7505229Y-11411888D02*
X7514753Y-11430936D01*
X7514753Y-11430936D02*
X7524277Y-11440460D01*
X7524277Y-11440460D02*
X7543325Y-11449984D01*
X7543325Y-11449984D02*
X7581420Y-11449984D01*
X7581420Y-11449984D02*
X7600468Y-11440460D01*
X7600468Y-11440460D02*
X7609991Y-11430936D01*
X7609991Y-11430936D02*
X7619515Y-11411888D01*
X7619515Y-11411888D02*
X7619515Y-11364269D01*
X7619515Y-11364269D02*
X7609991Y-11345222D01*
X7609991Y-11345222D02*
X7600468Y-11335698D01*
X7600468Y-11335698D02*
X7581420Y-11326174D01*
X7581420Y-11326174D02*
X7543325Y-11326174D01*
X7543325Y-11326174D02*
X7524277Y-11335698D01*
X7524277Y-11335698D02*
X7514753Y-11345222D01*
X7514753Y-11345222D02*
X7505229Y-11364269D01*
X7857610Y-11449984D02*
X7857610Y-11249984D01*
X7943325Y-11449984D02*
X7943325Y-11345222D01*
X7943325Y-11345222D02*
X7933801Y-11326174D01*
X7933801Y-11326174D02*
X7914753Y-11316650D01*
X7914753Y-11316650D02*
X7886182Y-11316650D01*
X7886182Y-11316650D02*
X7867134Y-11326174D01*
X7867134Y-11326174D02*
X7857610Y-11335698D01*
X8067134Y-11449984D02*
X8048087Y-11440460D01*
X8048087Y-11440460D02*
X8038563Y-11430936D01*
X8038563Y-11430936D02*
X8029039Y-11411888D01*
X8029039Y-11411888D02*
X8029039Y-11354746D01*
X8029039Y-11354746D02*
X8038563Y-11335698D01*
X8038563Y-11335698D02*
X8048087Y-11326174D01*
X8048087Y-11326174D02*
X8067134Y-11316650D01*
X8067134Y-11316650D02*
X8095706Y-11316650D01*
X8095706Y-11316650D02*
X8114753Y-11326174D01*
X8114753Y-11326174D02*
X8124277Y-11335698D01*
X8124277Y-11335698D02*
X8133801Y-11354746D01*
X8133801Y-11354746D02*
X8133801Y-11411888D01*
X8133801Y-11411888D02*
X8124277Y-11430936D01*
X8124277Y-11430936D02*
X8114753Y-11440460D01*
X8114753Y-11440460D02*
X8095706Y-11449984D01*
X8095706Y-11449984D02*
X8067134Y-11449984D01*
X8248087Y-11449984D02*
X8229039Y-11440460D01*
X8229039Y-11440460D02*
X8219515Y-11421412D01*
X8219515Y-11421412D02*
X8219515Y-11249984D01*
X8400468Y-11440460D02*
X8381420Y-11449984D01*
X8381420Y-11449984D02*
X8343325Y-11449984D01*
X8343325Y-11449984D02*
X8324277Y-11440460D01*
X8324277Y-11440460D02*
X8314753Y-11421412D01*
X8314753Y-11421412D02*
X8314753Y-11345222D01*
X8314753Y-11345222D02*
X8324277Y-11326174D01*
X8324277Y-11326174D02*
X8343325Y-11316650D01*
X8343325Y-11316650D02*
X8381420Y-11316650D01*
X8381420Y-11316650D02*
X8400468Y-11326174D01*
X8400468Y-11326174D02*
X8409992Y-11345222D01*
X8409992Y-11345222D02*
X8409992Y-11364269D01*
X8409992Y-11364269D02*
X8314753Y-11383317D01*
X8486182Y-11440460D02*
X8505230Y-11449984D01*
X8505230Y-11449984D02*
X8543325Y-11449984D01*
X8543325Y-11449984D02*
X8562373Y-11440460D01*
X8562373Y-11440460D02*
X8571896Y-11421412D01*
X8571896Y-11421412D02*
X8571896Y-11411888D01*
X8571896Y-11411888D02*
X8562373Y-11392841D01*
X8562373Y-11392841D02*
X8543325Y-11383317D01*
X8543325Y-11383317D02*
X8514753Y-11383317D01*
X8514753Y-11383317D02*
X8495706Y-11373793D01*
X8495706Y-11373793D02*
X8486182Y-11354746D01*
X8486182Y-11354746D02*
X8486182Y-11345222D01*
X8486182Y-11345222D02*
X8495706Y-11326174D01*
X8495706Y-11326174D02*
X8514753Y-11316650D01*
X8514753Y-11316650D02*
X8543325Y-11316650D01*
X8543325Y-11316650D02*
X8562373Y-11326174D01*
X8638563Y-11526174D02*
X8648087Y-11516650D01*
X8648087Y-11516650D02*
X8667134Y-11488079D01*
X8667134Y-11488079D02*
X8676658Y-11469031D01*
X8676658Y-11469031D02*
X8686182Y-11440460D01*
X8686182Y-11440460D02*
X8695706Y-11392841D01*
X8695706Y-11392841D02*
X8695706Y-11354746D01*
X8695706Y-11354746D02*
X8686182Y-11307127D01*
X8686182Y-11307127D02*
X8676658Y-11278555D01*
X8676658Y-11278555D02*
X8667134Y-11259508D01*
X8667134Y-11259508D02*
X8648087Y-11230936D01*
X8648087Y-11230936D02*
X8638563Y-11221412D01*
D16*
X3673500Y-11553500D02*
X3863500Y-11743500D01*
X3863500Y-11553500D02*
X3673500Y-11743500D01*
X3768500Y-11743500D02*
X3863500Y-11648500D01*
X3768500Y-11553500D01*
X3673500Y-11648500D01*
X3768500Y-11743500D01*
D11*
X4229039Y-11739984D02*
X4114753Y-11739984D01*
X4171896Y-11739984D02*
X4171896Y-11539984D01*
X4171896Y-11539984D02*
X4152848Y-11568555D01*
X4152848Y-11568555D02*
X4133801Y-11587603D01*
X4133801Y-11587603D02*
X4114753Y-11597127D01*
X4314753Y-11720936D02*
X4324277Y-11730460D01*
X4324277Y-11730460D02*
X4314753Y-11739984D01*
X4314753Y-11739984D02*
X4305229Y-11730460D01*
X4305229Y-11730460D02*
X4314753Y-11720936D01*
X4314753Y-11720936D02*
X4314753Y-11739984D01*
X4419515Y-11739984D02*
X4457610Y-11739984D01*
X4457610Y-11739984D02*
X4476658Y-11730460D01*
X4476658Y-11730460D02*
X4486182Y-11720936D01*
X4486182Y-11720936D02*
X4505229Y-11692365D01*
X4505229Y-11692365D02*
X4514753Y-11654269D01*
X4514753Y-11654269D02*
X4514753Y-11578079D01*
X4514753Y-11578079D02*
X4505229Y-11559031D01*
X4505229Y-11559031D02*
X4495705Y-11549508D01*
X4495705Y-11549508D02*
X4476658Y-11539984D01*
X4476658Y-11539984D02*
X4438563Y-11539984D01*
X4438563Y-11539984D02*
X4419515Y-11549508D01*
X4419515Y-11549508D02*
X4409991Y-11559031D01*
X4409991Y-11559031D02*
X4400467Y-11578079D01*
X4400467Y-11578079D02*
X4400467Y-11625698D01*
X4400467Y-11625698D02*
X4409991Y-11644746D01*
X4409991Y-11644746D02*
X4419515Y-11654269D01*
X4419515Y-11654269D02*
X4438563Y-11663793D01*
X4438563Y-11663793D02*
X4476658Y-11663793D01*
X4476658Y-11663793D02*
X4495705Y-11654269D01*
X4495705Y-11654269D02*
X4505229Y-11644746D01*
X4505229Y-11644746D02*
X4514753Y-11625698D01*
X4638563Y-11539984D02*
X4657610Y-11539984D01*
X4657610Y-11539984D02*
X4676658Y-11549508D01*
X4676658Y-11549508D02*
X4686182Y-11559031D01*
X4686182Y-11559031D02*
X4695705Y-11578079D01*
X4695705Y-11578079D02*
X4705229Y-11616174D01*
X4705229Y-11616174D02*
X4705229Y-11663793D01*
X4705229Y-11663793D02*
X4695705Y-11701888D01*
X4695705Y-11701888D02*
X4686182Y-11720936D01*
X4686182Y-11720936D02*
X4676658Y-11730460D01*
X4676658Y-11730460D02*
X4657610Y-11739984D01*
X4657610Y-11739984D02*
X4638563Y-11739984D01*
X4638563Y-11739984D02*
X4619515Y-11730460D01*
X4619515Y-11730460D02*
X4609991Y-11720936D01*
X4609991Y-11720936D02*
X4600467Y-11701888D01*
X4600467Y-11701888D02*
X4590944Y-11663793D01*
X4590944Y-11663793D02*
X4590944Y-11616174D01*
X4590944Y-11616174D02*
X4600467Y-11578079D01*
X4600467Y-11578079D02*
X4609991Y-11559031D01*
X4609991Y-11559031D02*
X4619515Y-11549508D01*
X4619515Y-11549508D02*
X4638563Y-11539984D01*
X4829039Y-11539984D02*
X4848086Y-11539984D01*
X4848086Y-11539984D02*
X4867134Y-11549508D01*
X4867134Y-11549508D02*
X4876658Y-11559031D01*
X4876658Y-11559031D02*
X4886182Y-11578079D01*
X4886182Y-11578079D02*
X4895705Y-11616174D01*
X4895705Y-11616174D02*
X4895705Y-11663793D01*
X4895705Y-11663793D02*
X4886182Y-11701888D01*
X4886182Y-11701888D02*
X4876658Y-11720936D01*
X4876658Y-11720936D02*
X4867134Y-11730460D01*
X4867134Y-11730460D02*
X4848086Y-11739984D01*
X4848086Y-11739984D02*
X4829039Y-11739984D01*
X4829039Y-11739984D02*
X4809991Y-11730460D01*
X4809991Y-11730460D02*
X4800467Y-11720936D01*
X4800467Y-11720936D02*
X4790944Y-11701888D01*
X4790944Y-11701888D02*
X4781420Y-11663793D01*
X4781420Y-11663793D02*
X4781420Y-11616174D01*
X4781420Y-11616174D02*
X4790944Y-11578079D01*
X4790944Y-11578079D02*
X4800467Y-11559031D01*
X4800467Y-11559031D02*
X4809991Y-11549508D01*
X4809991Y-11549508D02*
X4829039Y-11539984D01*
X4981420Y-11739984D02*
X4981420Y-11606650D01*
X4981420Y-11625698D02*
X4990944Y-11616174D01*
X4990944Y-11616174D02*
X5009991Y-11606650D01*
X5009991Y-11606650D02*
X5038563Y-11606650D01*
X5038563Y-11606650D02*
X5057610Y-11616174D01*
X5057610Y-11616174D02*
X5067134Y-11635222D01*
X5067134Y-11635222D02*
X5067134Y-11739984D01*
X5067134Y-11635222D02*
X5076658Y-11616174D01*
X5076658Y-11616174D02*
X5095705Y-11606650D01*
X5095705Y-11606650D02*
X5124277Y-11606650D01*
X5124277Y-11606650D02*
X5143325Y-11616174D01*
X5143325Y-11616174D02*
X5152848Y-11635222D01*
X5152848Y-11635222D02*
X5152848Y-11739984D01*
X5248086Y-11739984D02*
X5248086Y-11606650D01*
X5248086Y-11625698D02*
X5257610Y-11616174D01*
X5257610Y-11616174D02*
X5276658Y-11606650D01*
X5276658Y-11606650D02*
X5305229Y-11606650D01*
X5305229Y-11606650D02*
X5324277Y-11616174D01*
X5324277Y-11616174D02*
X5333801Y-11635222D01*
X5333801Y-11635222D02*
X5333801Y-11739984D01*
X5333801Y-11635222D02*
X5343325Y-11616174D01*
X5343325Y-11616174D02*
X5362372Y-11606650D01*
X5362372Y-11606650D02*
X5390944Y-11606650D01*
X5390944Y-11606650D02*
X5409991Y-11616174D01*
X5409991Y-11616174D02*
X5419515Y-11635222D01*
X5419515Y-11635222D02*
X5419515Y-11739984D01*
X5809991Y-11530460D02*
X5638563Y-11787603D01*
X6067134Y-11539984D02*
X6086182Y-11539984D01*
X6086182Y-11539984D02*
X6105229Y-11549508D01*
X6105229Y-11549508D02*
X6114753Y-11559031D01*
X6114753Y-11559031D02*
X6124277Y-11578079D01*
X6124277Y-11578079D02*
X6133801Y-11616174D01*
X6133801Y-11616174D02*
X6133801Y-11663793D01*
X6133801Y-11663793D02*
X6124277Y-11701888D01*
X6124277Y-11701888D02*
X6114753Y-11720936D01*
X6114753Y-11720936D02*
X6105229Y-11730460D01*
X6105229Y-11730460D02*
X6086182Y-11739984D01*
X6086182Y-11739984D02*
X6067134Y-11739984D01*
X6067134Y-11739984D02*
X6048086Y-11730460D01*
X6048086Y-11730460D02*
X6038563Y-11720936D01*
X6038563Y-11720936D02*
X6029039Y-11701888D01*
X6029039Y-11701888D02*
X6019515Y-11663793D01*
X6019515Y-11663793D02*
X6019515Y-11616174D01*
X6019515Y-11616174D02*
X6029039Y-11578079D01*
X6029039Y-11578079D02*
X6038563Y-11559031D01*
X6038563Y-11559031D02*
X6048086Y-11549508D01*
X6048086Y-11549508D02*
X6067134Y-11539984D01*
X6219515Y-11720936D02*
X6229039Y-11730460D01*
X6229039Y-11730460D02*
X6219515Y-11739984D01*
X6219515Y-11739984D02*
X6209991Y-11730460D01*
X6209991Y-11730460D02*
X6219515Y-11720936D01*
X6219515Y-11720936D02*
X6219515Y-11739984D01*
X6352848Y-11539984D02*
X6371896Y-11539984D01*
X6371896Y-11539984D02*
X6390944Y-11549508D01*
X6390944Y-11549508D02*
X6400467Y-11559031D01*
X6400467Y-11559031D02*
X6409991Y-11578079D01*
X6409991Y-11578079D02*
X6419515Y-11616174D01*
X6419515Y-11616174D02*
X6419515Y-11663793D01*
X6419515Y-11663793D02*
X6409991Y-11701888D01*
X6409991Y-11701888D02*
X6400467Y-11720936D01*
X6400467Y-11720936D02*
X6390944Y-11730460D01*
X6390944Y-11730460D02*
X6371896Y-11739984D01*
X6371896Y-11739984D02*
X6352848Y-11739984D01*
X6352848Y-11739984D02*
X6333801Y-11730460D01*
X6333801Y-11730460D02*
X6324277Y-11720936D01*
X6324277Y-11720936D02*
X6314753Y-11701888D01*
X6314753Y-11701888D02*
X6305229Y-11663793D01*
X6305229Y-11663793D02*
X6305229Y-11616174D01*
X6305229Y-11616174D02*
X6314753Y-11578079D01*
X6314753Y-11578079D02*
X6324277Y-11559031D01*
X6324277Y-11559031D02*
X6333801Y-11549508D01*
X6333801Y-11549508D02*
X6352848Y-11539984D01*
X6486182Y-11539984D02*
X6619515Y-11539984D01*
X6619515Y-11539984D02*
X6533801Y-11739984D01*
X6781420Y-11606650D02*
X6781420Y-11739984D01*
X6733801Y-11530460D02*
X6686182Y-11673317D01*
X6686182Y-11673317D02*
X6809991Y-11673317D01*
X6914753Y-11625698D02*
X6895706Y-11616174D01*
X6895706Y-11616174D02*
X6886182Y-11606650D01*
X6886182Y-11606650D02*
X6876658Y-11587603D01*
X6876658Y-11587603D02*
X6876658Y-11578079D01*
X6876658Y-11578079D02*
X6886182Y-11559031D01*
X6886182Y-11559031D02*
X6895706Y-11549508D01*
X6895706Y-11549508D02*
X6914753Y-11539984D01*
X6914753Y-11539984D02*
X6952848Y-11539984D01*
X6952848Y-11539984D02*
X6971896Y-11549508D01*
X6971896Y-11549508D02*
X6981420Y-11559031D01*
X6981420Y-11559031D02*
X6990944Y-11578079D01*
X6990944Y-11578079D02*
X6990944Y-11587603D01*
X6990944Y-11587603D02*
X6981420Y-11606650D01*
X6981420Y-11606650D02*
X6971896Y-11616174D01*
X6971896Y-11616174D02*
X6952848Y-11625698D01*
X6952848Y-11625698D02*
X6914753Y-11625698D01*
X6914753Y-11625698D02*
X6895706Y-11635222D01*
X6895706Y-11635222D02*
X6886182Y-11644746D01*
X6886182Y-11644746D02*
X6876658Y-11663793D01*
X6876658Y-11663793D02*
X6876658Y-11701888D01*
X6876658Y-11701888D02*
X6886182Y-11720936D01*
X6886182Y-11720936D02*
X6895706Y-11730460D01*
X6895706Y-11730460D02*
X6914753Y-11739984D01*
X6914753Y-11739984D02*
X6952848Y-11739984D01*
X6952848Y-11739984D02*
X6971896Y-11730460D01*
X6971896Y-11730460D02*
X6981420Y-11720936D01*
X6981420Y-11720936D02*
X6990944Y-11701888D01*
X6990944Y-11701888D02*
X6990944Y-11663793D01*
X6990944Y-11663793D02*
X6981420Y-11644746D01*
X6981420Y-11644746D02*
X6971896Y-11635222D01*
X6971896Y-11635222D02*
X6952848Y-11625698D01*
X7067134Y-11539984D02*
X7067134Y-11578079D01*
X7143325Y-11539984D02*
X7143325Y-11578079D01*
X7438563Y-11816174D02*
X7429039Y-11806650D01*
X7429039Y-11806650D02*
X7409991Y-11778079D01*
X7409991Y-11778079D02*
X7400468Y-11759031D01*
X7400468Y-11759031D02*
X7390944Y-11730460D01*
X7390944Y-11730460D02*
X7381420Y-11682841D01*
X7381420Y-11682841D02*
X7381420Y-11644746D01*
X7381420Y-11644746D02*
X7390944Y-11597127D01*
X7390944Y-11597127D02*
X7400468Y-11568555D01*
X7400468Y-11568555D02*
X7409991Y-11549508D01*
X7409991Y-11549508D02*
X7429039Y-11520936D01*
X7429039Y-11520936D02*
X7438563Y-11511412D01*
X7505229Y-11559031D02*
X7514753Y-11549508D01*
X7514753Y-11549508D02*
X7533801Y-11539984D01*
X7533801Y-11539984D02*
X7581420Y-11539984D01*
X7581420Y-11539984D02*
X7600468Y-11549508D01*
X7600468Y-11549508D02*
X7609991Y-11559031D01*
X7609991Y-11559031D02*
X7619515Y-11578079D01*
X7619515Y-11578079D02*
X7619515Y-11597127D01*
X7619515Y-11597127D02*
X7609991Y-11625698D01*
X7609991Y-11625698D02*
X7495706Y-11739984D01*
X7495706Y-11739984D02*
X7619515Y-11739984D01*
X7857610Y-11739984D02*
X7857610Y-11539984D01*
X7943325Y-11739984D02*
X7943325Y-11635222D01*
X7943325Y-11635222D02*
X7933801Y-11616174D01*
X7933801Y-11616174D02*
X7914753Y-11606650D01*
X7914753Y-11606650D02*
X7886182Y-11606650D01*
X7886182Y-11606650D02*
X7867134Y-11616174D01*
X7867134Y-11616174D02*
X7857610Y-11625698D01*
X8067134Y-11739984D02*
X8048087Y-11730460D01*
X8048087Y-11730460D02*
X8038563Y-11720936D01*
X8038563Y-11720936D02*
X8029039Y-11701888D01*
X8029039Y-11701888D02*
X8029039Y-11644746D01*
X8029039Y-11644746D02*
X8038563Y-11625698D01*
X8038563Y-11625698D02*
X8048087Y-11616174D01*
X8048087Y-11616174D02*
X8067134Y-11606650D01*
X8067134Y-11606650D02*
X8095706Y-11606650D01*
X8095706Y-11606650D02*
X8114753Y-11616174D01*
X8114753Y-11616174D02*
X8124277Y-11625698D01*
X8124277Y-11625698D02*
X8133801Y-11644746D01*
X8133801Y-11644746D02*
X8133801Y-11701888D01*
X8133801Y-11701888D02*
X8124277Y-11720936D01*
X8124277Y-11720936D02*
X8114753Y-11730460D01*
X8114753Y-11730460D02*
X8095706Y-11739984D01*
X8095706Y-11739984D02*
X8067134Y-11739984D01*
X8248087Y-11739984D02*
X8229039Y-11730460D01*
X8229039Y-11730460D02*
X8219515Y-11711412D01*
X8219515Y-11711412D02*
X8219515Y-11539984D01*
X8400468Y-11730460D02*
X8381420Y-11739984D01*
X8381420Y-11739984D02*
X8343325Y-11739984D01*
X8343325Y-11739984D02*
X8324277Y-11730460D01*
X8324277Y-11730460D02*
X8314753Y-11711412D01*
X8314753Y-11711412D02*
X8314753Y-11635222D01*
X8314753Y-11635222D02*
X8324277Y-11616174D01*
X8324277Y-11616174D02*
X8343325Y-11606650D01*
X8343325Y-11606650D02*
X8381420Y-11606650D01*
X8381420Y-11606650D02*
X8400468Y-11616174D01*
X8400468Y-11616174D02*
X8409992Y-11635222D01*
X8409992Y-11635222D02*
X8409992Y-11654269D01*
X8409992Y-11654269D02*
X8314753Y-11673317D01*
X8486182Y-11730460D02*
X8505230Y-11739984D01*
X8505230Y-11739984D02*
X8543325Y-11739984D01*
X8543325Y-11739984D02*
X8562373Y-11730460D01*
X8562373Y-11730460D02*
X8571896Y-11711412D01*
X8571896Y-11711412D02*
X8571896Y-11701888D01*
X8571896Y-11701888D02*
X8562373Y-11682841D01*
X8562373Y-11682841D02*
X8543325Y-11673317D01*
X8543325Y-11673317D02*
X8514753Y-11673317D01*
X8514753Y-11673317D02*
X8495706Y-11663793D01*
X8495706Y-11663793D02*
X8486182Y-11644746D01*
X8486182Y-11644746D02*
X8486182Y-11635222D01*
X8486182Y-11635222D02*
X8495706Y-11616174D01*
X8495706Y-11616174D02*
X8514753Y-11606650D01*
X8514753Y-11606650D02*
X8543325Y-11606650D01*
X8543325Y-11606650D02*
X8562373Y-11616174D01*
X8638563Y-11816174D02*
X8648087Y-11806650D01*
X8648087Y-11806650D02*
X8667134Y-11778079D01*
X8667134Y-11778079D02*
X8676658Y-11759031D01*
X8676658Y-11759031D02*
X8686182Y-11730460D01*
X8686182Y-11730460D02*
X8695706Y-11682841D01*
X8695706Y-11682841D02*
X8695706Y-11644746D01*
X8695706Y-11644746D02*
X8686182Y-11597127D01*
X8686182Y-11597127D02*
X8676658Y-11568555D01*
X8676658Y-11568555D02*
X8667134Y-11549508D01*
X8667134Y-11549508D02*
X8648087Y-11520936D01*
X8648087Y-11520936D02*
X8638563Y-11511412D01*
X3763500Y-11858500D02*
X3763500Y-12058500D01*
X3663500Y-11958500D02*
X3863500Y-11958500D01*
X3863500Y-11958500D02*
G75*
G02*
X3663500Y-11958500I-100000J0D01*
G01*
X3663500Y-11958500D02*
G75*
G02*
X3863500Y-11958500I100000J0D01*
G01*
X4105229Y-11849984D02*
X4229039Y-11849984D01*
X4229039Y-11849984D02*
X4162372Y-11926174D01*
X4162372Y-11926174D02*
X4190943Y-11926174D01*
X4190943Y-11926174D02*
X4209991Y-11935698D01*
X4209991Y-11935698D02*
X4219515Y-11945222D01*
X4219515Y-11945222D02*
X4229039Y-11964269D01*
X4229039Y-11964269D02*
X4229039Y-12011888D01*
X4229039Y-12011888D02*
X4219515Y-12030936D01*
X4219515Y-12030936D02*
X4209991Y-12040460D01*
X4209991Y-12040460D02*
X4190943Y-12049984D01*
X4190943Y-12049984D02*
X4133801Y-12049984D01*
X4133801Y-12049984D02*
X4114753Y-12040460D01*
X4114753Y-12040460D02*
X4105229Y-12030936D01*
X4314753Y-12030936D02*
X4324277Y-12040460D01*
X4324277Y-12040460D02*
X4314753Y-12049984D01*
X4314753Y-12049984D02*
X4305229Y-12040460D01*
X4305229Y-12040460D02*
X4314753Y-12030936D01*
X4314753Y-12030936D02*
X4314753Y-12049984D01*
X4400467Y-11869031D02*
X4409991Y-11859508D01*
X4409991Y-11859508D02*
X4429039Y-11849984D01*
X4429039Y-11849984D02*
X4476658Y-11849984D01*
X4476658Y-11849984D02*
X4495705Y-11859508D01*
X4495705Y-11859508D02*
X4505229Y-11869031D01*
X4505229Y-11869031D02*
X4514753Y-11888079D01*
X4514753Y-11888079D02*
X4514753Y-11907127D01*
X4514753Y-11907127D02*
X4505229Y-11935698D01*
X4505229Y-11935698D02*
X4390944Y-12049984D01*
X4390944Y-12049984D02*
X4514753Y-12049984D01*
X4638563Y-11849984D02*
X4657610Y-11849984D01*
X4657610Y-11849984D02*
X4676658Y-11859508D01*
X4676658Y-11859508D02*
X4686182Y-11869031D01*
X4686182Y-11869031D02*
X4695705Y-11888079D01*
X4695705Y-11888079D02*
X4705229Y-11926174D01*
X4705229Y-11926174D02*
X4705229Y-11973793D01*
X4705229Y-11973793D02*
X4695705Y-12011888D01*
X4695705Y-12011888D02*
X4686182Y-12030936D01*
X4686182Y-12030936D02*
X4676658Y-12040460D01*
X4676658Y-12040460D02*
X4657610Y-12049984D01*
X4657610Y-12049984D02*
X4638563Y-12049984D01*
X4638563Y-12049984D02*
X4619515Y-12040460D01*
X4619515Y-12040460D02*
X4609991Y-12030936D01*
X4609991Y-12030936D02*
X4600467Y-12011888D01*
X4600467Y-12011888D02*
X4590944Y-11973793D01*
X4590944Y-11973793D02*
X4590944Y-11926174D01*
X4590944Y-11926174D02*
X4600467Y-11888079D01*
X4600467Y-11888079D02*
X4609991Y-11869031D01*
X4609991Y-11869031D02*
X4619515Y-11859508D01*
X4619515Y-11859508D02*
X4638563Y-11849984D01*
X4829039Y-11849984D02*
X4848086Y-11849984D01*
X4848086Y-11849984D02*
X4867134Y-11859508D01*
X4867134Y-11859508D02*
X4876658Y-11869031D01*
X4876658Y-11869031D02*
X4886182Y-11888079D01*
X4886182Y-11888079D02*
X4895705Y-11926174D01*
X4895705Y-11926174D02*
X4895705Y-11973793D01*
X4895705Y-11973793D02*
X4886182Y-12011888D01*
X4886182Y-12011888D02*
X4876658Y-12030936D01*
X4876658Y-12030936D02*
X4867134Y-12040460D01*
X4867134Y-12040460D02*
X4848086Y-12049984D01*
X4848086Y-12049984D02*
X4829039Y-12049984D01*
X4829039Y-12049984D02*
X4809991Y-12040460D01*
X4809991Y-12040460D02*
X4800467Y-12030936D01*
X4800467Y-12030936D02*
X4790944Y-12011888D01*
X4790944Y-12011888D02*
X4781420Y-11973793D01*
X4781420Y-11973793D02*
X4781420Y-11926174D01*
X4781420Y-11926174D02*
X4790944Y-11888079D01*
X4790944Y-11888079D02*
X4800467Y-11869031D01*
X4800467Y-11869031D02*
X4809991Y-11859508D01*
X4809991Y-11859508D02*
X4829039Y-11849984D01*
X4981420Y-12049984D02*
X4981420Y-11916650D01*
X4981420Y-11935698D02*
X4990944Y-11926174D01*
X4990944Y-11926174D02*
X5009991Y-11916650D01*
X5009991Y-11916650D02*
X5038563Y-11916650D01*
X5038563Y-11916650D02*
X5057610Y-11926174D01*
X5057610Y-11926174D02*
X5067134Y-11945222D01*
X5067134Y-11945222D02*
X5067134Y-12049984D01*
X5067134Y-11945222D02*
X5076658Y-11926174D01*
X5076658Y-11926174D02*
X5095705Y-11916650D01*
X5095705Y-11916650D02*
X5124277Y-11916650D01*
X5124277Y-11916650D02*
X5143325Y-11926174D01*
X5143325Y-11926174D02*
X5152848Y-11945222D01*
X5152848Y-11945222D02*
X5152848Y-12049984D01*
X5248086Y-12049984D02*
X5248086Y-11916650D01*
X5248086Y-11935698D02*
X5257610Y-11926174D01*
X5257610Y-11926174D02*
X5276658Y-11916650D01*
X5276658Y-11916650D02*
X5305229Y-11916650D01*
X5305229Y-11916650D02*
X5324277Y-11926174D01*
X5324277Y-11926174D02*
X5333801Y-11945222D01*
X5333801Y-11945222D02*
X5333801Y-12049984D01*
X5333801Y-11945222D02*
X5343325Y-11926174D01*
X5343325Y-11926174D02*
X5362372Y-11916650D01*
X5362372Y-11916650D02*
X5390944Y-11916650D01*
X5390944Y-11916650D02*
X5409991Y-11926174D01*
X5409991Y-11926174D02*
X5419515Y-11945222D01*
X5419515Y-11945222D02*
X5419515Y-12049984D01*
X5809991Y-11840460D02*
X5638563Y-12097603D01*
X6067134Y-11849984D02*
X6086182Y-11849984D01*
X6086182Y-11849984D02*
X6105229Y-11859508D01*
X6105229Y-11859508D02*
X6114753Y-11869031D01*
X6114753Y-11869031D02*
X6124277Y-11888079D01*
X6124277Y-11888079D02*
X6133801Y-11926174D01*
X6133801Y-11926174D02*
X6133801Y-11973793D01*
X6133801Y-11973793D02*
X6124277Y-12011888D01*
X6124277Y-12011888D02*
X6114753Y-12030936D01*
X6114753Y-12030936D02*
X6105229Y-12040460D01*
X6105229Y-12040460D02*
X6086182Y-12049984D01*
X6086182Y-12049984D02*
X6067134Y-12049984D01*
X6067134Y-12049984D02*
X6048086Y-12040460D01*
X6048086Y-12040460D02*
X6038563Y-12030936D01*
X6038563Y-12030936D02*
X6029039Y-12011888D01*
X6029039Y-12011888D02*
X6019515Y-11973793D01*
X6019515Y-11973793D02*
X6019515Y-11926174D01*
X6019515Y-11926174D02*
X6029039Y-11888079D01*
X6029039Y-11888079D02*
X6038563Y-11869031D01*
X6038563Y-11869031D02*
X6048086Y-11859508D01*
X6048086Y-11859508D02*
X6067134Y-11849984D01*
X6219515Y-12030936D02*
X6229039Y-12040460D01*
X6229039Y-12040460D02*
X6219515Y-12049984D01*
X6219515Y-12049984D02*
X6209991Y-12040460D01*
X6209991Y-12040460D02*
X6219515Y-12030936D01*
X6219515Y-12030936D02*
X6219515Y-12049984D01*
X6419515Y-12049984D02*
X6305229Y-12049984D01*
X6362372Y-12049984D02*
X6362372Y-11849984D01*
X6362372Y-11849984D02*
X6343325Y-11878555D01*
X6343325Y-11878555D02*
X6324277Y-11897603D01*
X6324277Y-11897603D02*
X6305229Y-11907127D01*
X6495706Y-11869031D02*
X6505229Y-11859508D01*
X6505229Y-11859508D02*
X6524277Y-11849984D01*
X6524277Y-11849984D02*
X6571896Y-11849984D01*
X6571896Y-11849984D02*
X6590944Y-11859508D01*
X6590944Y-11859508D02*
X6600467Y-11869031D01*
X6600467Y-11869031D02*
X6609991Y-11888079D01*
X6609991Y-11888079D02*
X6609991Y-11907127D01*
X6609991Y-11907127D02*
X6600467Y-11935698D01*
X6600467Y-11935698D02*
X6486182Y-12049984D01*
X6486182Y-12049984D02*
X6609991Y-12049984D01*
X6781420Y-11849984D02*
X6743325Y-11849984D01*
X6743325Y-11849984D02*
X6724277Y-11859508D01*
X6724277Y-11859508D02*
X6714753Y-11869031D01*
X6714753Y-11869031D02*
X6695706Y-11897603D01*
X6695706Y-11897603D02*
X6686182Y-11935698D01*
X6686182Y-11935698D02*
X6686182Y-12011888D01*
X6686182Y-12011888D02*
X6695706Y-12030936D01*
X6695706Y-12030936D02*
X6705229Y-12040460D01*
X6705229Y-12040460D02*
X6724277Y-12049984D01*
X6724277Y-12049984D02*
X6762372Y-12049984D01*
X6762372Y-12049984D02*
X6781420Y-12040460D01*
X6781420Y-12040460D02*
X6790944Y-12030936D01*
X6790944Y-12030936D02*
X6800467Y-12011888D01*
X6800467Y-12011888D02*
X6800467Y-11964269D01*
X6800467Y-11964269D02*
X6790944Y-11945222D01*
X6790944Y-11945222D02*
X6781420Y-11935698D01*
X6781420Y-11935698D02*
X6762372Y-11926174D01*
X6762372Y-11926174D02*
X6724277Y-11926174D01*
X6724277Y-11926174D02*
X6705229Y-11935698D01*
X6705229Y-11935698D02*
X6695706Y-11945222D01*
X6695706Y-11945222D02*
X6686182Y-11964269D01*
X6924277Y-11849984D02*
X6943325Y-11849984D01*
X6943325Y-11849984D02*
X6962372Y-11859508D01*
X6962372Y-11859508D02*
X6971896Y-11869031D01*
X6971896Y-11869031D02*
X6981420Y-11888079D01*
X6981420Y-11888079D02*
X6990944Y-11926174D01*
X6990944Y-11926174D02*
X6990944Y-11973793D01*
X6990944Y-11973793D02*
X6981420Y-12011888D01*
X6981420Y-12011888D02*
X6971896Y-12030936D01*
X6971896Y-12030936D02*
X6962372Y-12040460D01*
X6962372Y-12040460D02*
X6943325Y-12049984D01*
X6943325Y-12049984D02*
X6924277Y-12049984D01*
X6924277Y-12049984D02*
X6905229Y-12040460D01*
X6905229Y-12040460D02*
X6895706Y-12030936D01*
X6895706Y-12030936D02*
X6886182Y-12011888D01*
X6886182Y-12011888D02*
X6876658Y-11973793D01*
X6876658Y-11973793D02*
X6876658Y-11926174D01*
X6876658Y-11926174D02*
X6886182Y-11888079D01*
X6886182Y-11888079D02*
X6895706Y-11869031D01*
X6895706Y-11869031D02*
X6905229Y-11859508D01*
X6905229Y-11859508D02*
X6924277Y-11849984D01*
X7067134Y-11849984D02*
X7067134Y-11888079D01*
X7143325Y-11849984D02*
X7143325Y-11888079D01*
X7438563Y-12126174D02*
X7429039Y-12116650D01*
X7429039Y-12116650D02*
X7409991Y-12088079D01*
X7409991Y-12088079D02*
X7400468Y-12069031D01*
X7400468Y-12069031D02*
X7390944Y-12040460D01*
X7390944Y-12040460D02*
X7381420Y-11992841D01*
X7381420Y-11992841D02*
X7381420Y-11954746D01*
X7381420Y-11954746D02*
X7390944Y-11907127D01*
X7390944Y-11907127D02*
X7400468Y-11878555D01*
X7400468Y-11878555D02*
X7409991Y-11859508D01*
X7409991Y-11859508D02*
X7429039Y-11830936D01*
X7429039Y-11830936D02*
X7438563Y-11821412D01*
X7495706Y-11849984D02*
X7619515Y-11849984D01*
X7619515Y-11849984D02*
X7552848Y-11926174D01*
X7552848Y-11926174D02*
X7581420Y-11926174D01*
X7581420Y-11926174D02*
X7600468Y-11935698D01*
X7600468Y-11935698D02*
X7609991Y-11945222D01*
X7609991Y-11945222D02*
X7619515Y-11964269D01*
X7619515Y-11964269D02*
X7619515Y-12011888D01*
X7619515Y-12011888D02*
X7609991Y-12030936D01*
X7609991Y-12030936D02*
X7600468Y-12040460D01*
X7600468Y-12040460D02*
X7581420Y-12049984D01*
X7581420Y-12049984D02*
X7524277Y-12049984D01*
X7524277Y-12049984D02*
X7505229Y-12040460D01*
X7505229Y-12040460D02*
X7495706Y-12030936D01*
X7857610Y-12049984D02*
X7857610Y-11849984D01*
X7943325Y-12049984D02*
X7943325Y-11945222D01*
X7943325Y-11945222D02*
X7933801Y-11926174D01*
X7933801Y-11926174D02*
X7914753Y-11916650D01*
X7914753Y-11916650D02*
X7886182Y-11916650D01*
X7886182Y-11916650D02*
X7867134Y-11926174D01*
X7867134Y-11926174D02*
X7857610Y-11935698D01*
X8067134Y-12049984D02*
X8048087Y-12040460D01*
X8048087Y-12040460D02*
X8038563Y-12030936D01*
X8038563Y-12030936D02*
X8029039Y-12011888D01*
X8029039Y-12011888D02*
X8029039Y-11954746D01*
X8029039Y-11954746D02*
X8038563Y-11935698D01*
X8038563Y-11935698D02*
X8048087Y-11926174D01*
X8048087Y-11926174D02*
X8067134Y-11916650D01*
X8067134Y-11916650D02*
X8095706Y-11916650D01*
X8095706Y-11916650D02*
X8114753Y-11926174D01*
X8114753Y-11926174D02*
X8124277Y-11935698D01*
X8124277Y-11935698D02*
X8133801Y-11954746D01*
X8133801Y-11954746D02*
X8133801Y-12011888D01*
X8133801Y-12011888D02*
X8124277Y-12030936D01*
X8124277Y-12030936D02*
X8114753Y-12040460D01*
X8114753Y-12040460D02*
X8095706Y-12049984D01*
X8095706Y-12049984D02*
X8067134Y-12049984D01*
X8248087Y-12049984D02*
X8229039Y-12040460D01*
X8229039Y-12040460D02*
X8219515Y-12021412D01*
X8219515Y-12021412D02*
X8219515Y-11849984D01*
X8400468Y-12040460D02*
X8381420Y-12049984D01*
X8381420Y-12049984D02*
X8343325Y-12049984D01*
X8343325Y-12049984D02*
X8324277Y-12040460D01*
X8324277Y-12040460D02*
X8314753Y-12021412D01*
X8314753Y-12021412D02*
X8314753Y-11945222D01*
X8314753Y-11945222D02*
X8324277Y-11926174D01*
X8324277Y-11926174D02*
X8343325Y-11916650D01*
X8343325Y-11916650D02*
X8381420Y-11916650D01*
X8381420Y-11916650D02*
X8400468Y-11926174D01*
X8400468Y-11926174D02*
X8409992Y-11945222D01*
X8409992Y-11945222D02*
X8409992Y-11964269D01*
X8409992Y-11964269D02*
X8314753Y-11983317D01*
X8486182Y-12040460D02*
X8505230Y-12049984D01*
X8505230Y-12049984D02*
X8543325Y-12049984D01*
X8543325Y-12049984D02*
X8562373Y-12040460D01*
X8562373Y-12040460D02*
X8571896Y-12021412D01*
X8571896Y-12021412D02*
X8571896Y-12011888D01*
X8571896Y-12011888D02*
X8562373Y-11992841D01*
X8562373Y-11992841D02*
X8543325Y-11983317D01*
X8543325Y-11983317D02*
X8514753Y-11983317D01*
X8514753Y-11983317D02*
X8495706Y-11973793D01*
X8495706Y-11973793D02*
X8486182Y-11954746D01*
X8486182Y-11954746D02*
X8486182Y-11945222D01*
X8486182Y-11945222D02*
X8495706Y-11926174D01*
X8495706Y-11926174D02*
X8514753Y-11916650D01*
X8514753Y-11916650D02*
X8543325Y-11916650D01*
X8543325Y-11916650D02*
X8562373Y-11926174D01*
X8638563Y-12126174D02*
X8648087Y-12116650D01*
X8648087Y-12116650D02*
X8667134Y-12088079D01*
X8667134Y-12088079D02*
X8676658Y-12069031D01*
X8676658Y-12069031D02*
X8686182Y-12040460D01*
X8686182Y-12040460D02*
X8695706Y-11992841D01*
X8695706Y-11992841D02*
X8695706Y-11954746D01*
X8695706Y-11954746D02*
X8686182Y-11907127D01*
X8686182Y-11907127D02*
X8676658Y-11878555D01*
X8676658Y-11878555D02*
X8667134Y-11859508D01*
X8667134Y-11859508D02*
X8648087Y-11830936D01*
X8648087Y-11830936D02*
X8638563Y-11821412D01*
M02*
