%TF.GenerationSoftware,KiCad,Pcbnew,8.0.3-8.0.3-0~ubuntu22.04.1*%
%TF.CreationDate,2024-07-03T00:47:08-04:00*%
%TF.ProjectId,arm_drive_j3_4_5,61726d5f-6472-4697-9665-5f6a335f345f,rev?*%
%TF.SameCoordinates,Original*%
%TF.FileFunction,Copper,L4,Bot*%
%TF.FilePolarity,Positive*%
%FSLAX46Y46*%
G04 Gerber Fmt 4.6, Leading zero omitted, Abs format (unit mm)*
G04 Created by KiCad (PCBNEW 8.0.3-8.0.3-0~ubuntu22.04.1) date 2024-07-03 00:47:08*
%MOMM*%
%LPD*%
G01*
G04 APERTURE LIST*
G04 Aperture macros list*
%AMRoundRect*
0 Rectangle with rounded corners*
0 $1 Rounding radius*
0 $2 $3 $4 $5 $6 $7 $8 $9 X,Y pos of 4 corners*
0 Add a 4 corners polygon primitive as box body*
4,1,4,$2,$3,$4,$5,$6,$7,$8,$9,$2,$3,0*
0 Add four circle primitives for the rounded corners*
1,1,$1+$1,$2,$3*
1,1,$1+$1,$4,$5*
1,1,$1+$1,$6,$7*
1,1,$1+$1,$8,$9*
0 Add four rect primitives between the rounded corners*
20,1,$1+$1,$2,$3,$4,$5,0*
20,1,$1+$1,$4,$5,$6,$7,0*
20,1,$1+$1,$6,$7,$8,$9,0*
20,1,$1+$1,$8,$9,$2,$3,0*%
G04 Aperture macros list end*
%TA.AperFunction,ComponentPad*%
%ADD10C,1.508000*%
%TD*%
%TA.AperFunction,ComponentPad*%
%ADD11R,2.550000X2.550000*%
%TD*%
%TA.AperFunction,ComponentPad*%
%ADD12C,2.550000*%
%TD*%
%TA.AperFunction,ComponentPad*%
%ADD13C,2.400000*%
%TD*%
%TA.AperFunction,ComponentPad*%
%ADD14R,2.400000X2.400000*%
%TD*%
%TA.AperFunction,ComponentPad*%
%ADD15R,1.700000X1.700000*%
%TD*%
%TA.AperFunction,ComponentPad*%
%ADD16O,1.700000X1.700000*%
%TD*%
%TA.AperFunction,ComponentPad*%
%ADD17C,3.600000*%
%TD*%
%TA.AperFunction,ConnectorPad*%
%ADD18C,5.600000*%
%TD*%
%TA.AperFunction,ComponentPad*%
%ADD19C,1.400000*%
%TD*%
%TA.AperFunction,ComponentPad*%
%ADD20R,3.500000X3.500000*%
%TD*%
%TA.AperFunction,ComponentPad*%
%ADD21C,3.500000*%
%TD*%
%TA.AperFunction,ComponentPad*%
%ADD22R,1.268000X1.268000*%
%TD*%
%TA.AperFunction,ComponentPad*%
%ADD23C,1.268000*%
%TD*%
%TA.AperFunction,SMDPad,CuDef*%
%ADD24RoundRect,0.250000X-0.450000X0.350000X-0.450000X-0.350000X0.450000X-0.350000X0.450000X0.350000X0*%
%TD*%
%TA.AperFunction,SMDPad,CuDef*%
%ADD25RoundRect,0.375000X0.625000X0.375000X-0.625000X0.375000X-0.625000X-0.375000X0.625000X-0.375000X0*%
%TD*%
%TA.AperFunction,SMDPad,CuDef*%
%ADD26RoundRect,0.500000X0.500000X1.400000X-0.500000X1.400000X-0.500000X-1.400000X0.500000X-1.400000X0*%
%TD*%
%TA.AperFunction,SMDPad,CuDef*%
%ADD27RoundRect,0.250000X-0.475000X0.337500X-0.475000X-0.337500X0.475000X-0.337500X0.475000X0.337500X0*%
%TD*%
%TA.AperFunction,SMDPad,CuDef*%
%ADD28RoundRect,0.250000X0.337500X0.475000X-0.337500X0.475000X-0.337500X-0.475000X0.337500X-0.475000X0*%
%TD*%
%TA.AperFunction,SMDPad,CuDef*%
%ADD29RoundRect,0.250000X0.350000X0.450000X-0.350000X0.450000X-0.350000X-0.450000X0.350000X-0.450000X0*%
%TD*%
%TA.AperFunction,SMDPad,CuDef*%
%ADD30RoundRect,0.250000X0.475000X-0.337500X0.475000X0.337500X-0.475000X0.337500X-0.475000X-0.337500X0*%
%TD*%
%TA.AperFunction,SMDPad,CuDef*%
%ADD31R,0.600000X1.550000*%
%TD*%
%TA.AperFunction,ComponentPad*%
%ADD32C,0.600000*%
%TD*%
%TA.AperFunction,SMDPad,CuDef*%
%ADD33R,6.450000X2.950000*%
%TD*%
%TA.AperFunction,SMDPad,CuDef*%
%ADD34RoundRect,0.250000X-0.350000X-0.450000X0.350000X-0.450000X0.350000X0.450000X-0.350000X0.450000X0*%
%TD*%
%TA.AperFunction,SMDPad,CuDef*%
%ADD35R,1.295400X4.495800*%
%TD*%
%TA.AperFunction,SMDPad,CuDef*%
%ADD36R,1.803400X3.911600*%
%TD*%
%TA.AperFunction,SMDPad,CuDef*%
%ADD37RoundRect,0.250000X0.450000X-0.350000X0.450000X0.350000X-0.450000X0.350000X-0.450000X-0.350000X0*%
%TD*%
%TA.AperFunction,SMDPad,CuDef*%
%ADD38RoundRect,0.250000X-0.337500X-0.475000X0.337500X-0.475000X0.337500X0.475000X-0.337500X0.475000X0*%
%TD*%
%TA.AperFunction,SMDPad,CuDef*%
%ADD39RoundRect,0.041300X-0.253700X0.833700X-0.253700X-0.833700X0.253700X-0.833700X0.253700X0.833700X0*%
%TD*%
%TA.AperFunction,SMDPad,CuDef*%
%ADD40RoundRect,0.375000X-0.625000X-0.375000X0.625000X-0.375000X0.625000X0.375000X-0.625000X0.375000X0*%
%TD*%
%TA.AperFunction,SMDPad,CuDef*%
%ADD41RoundRect,0.500000X-0.500000X-1.400000X0.500000X-1.400000X0.500000X1.400000X-0.500000X1.400000X0*%
%TD*%
%TA.AperFunction,SMDPad,CuDef*%
%ADD42R,1.500000X0.900000*%
%TD*%
%TA.AperFunction,SMDPad,CuDef*%
%ADD43R,0.900000X1.500000*%
%TD*%
%TA.AperFunction,SMDPad,CuDef*%
%ADD44R,3.900000X3.900000*%
%TD*%
%TA.AperFunction,SMDPad,CuDef*%
%ADD45RoundRect,0.100000X-0.100000X-0.575000X0.100000X-0.575000X0.100000X0.575000X-0.100000X0.575000X0*%
%TD*%
%TA.AperFunction,ComponentPad*%
%ADD46O,0.900000X1.600000*%
%TD*%
%TA.AperFunction,SMDPad,CuDef*%
%ADD47RoundRect,0.250000X-0.550000X-0.450000X0.550000X-0.450000X0.550000X0.450000X-0.550000X0.450000X0*%
%TD*%
%TA.AperFunction,SMDPad,CuDef*%
%ADD48RoundRect,0.250000X-0.700000X-0.700000X0.700000X-0.700000X0.700000X0.700000X-0.700000X0.700000X0*%
%TD*%
%TA.AperFunction,SMDPad,CuDef*%
%ADD49RoundRect,0.150000X-0.825000X-0.150000X0.825000X-0.150000X0.825000X0.150000X-0.825000X0.150000X0*%
%TD*%
%TA.AperFunction,ViaPad*%
%ADD50C,0.600000*%
%TD*%
%TA.AperFunction,Conductor*%
%ADD51C,0.200000*%
%TD*%
%TA.AperFunction,Conductor*%
%ADD52C,1.000000*%
%TD*%
%TA.AperFunction,Conductor*%
%ADD53C,0.500000*%
%TD*%
%TA.AperFunction,Conductor*%
%ADD54C,2.400000*%
%TD*%
%TA.AperFunction,Conductor*%
%ADD55C,0.155814*%
%TD*%
G04 APERTURE END LIST*
D10*
%TO.P,J7,*%
%TO.N,*%
X40660000Y-41700750D03*
X51660000Y-41700750D03*
D11*
%TO.P,J7,1,+*%
%TO.N,Diff_A-*%
X48660000Y-46700750D03*
D12*
%TO.P,J7,2,-*%
%TO.N,Diff_A+*%
X43660000Y-46700750D03*
%TD*%
D13*
%TO.P,F4,1*%
%TO.N,+24V*%
X108610000Y-75060000D03*
X105210000Y-75060000D03*
%TO.P,F4,2*%
%TO.N,Net-(J6-+)*%
X108610000Y-84980000D03*
X105210000Y-84980000D03*
%TD*%
D10*
%TO.P,J3,*%
%TO.N,*%
X115660000Y-41700750D03*
X126660000Y-41700750D03*
D11*
%TO.P,J3,1,+*%
%TO.N,Diff_B-*%
X123660000Y-46700750D03*
D12*
%TO.P,J3,2,-*%
%TO.N,Diff_B+*%
X118660000Y-46700750D03*
%TD*%
D13*
%TO.P,F3,1*%
%TO.N,Net-(U7-V_{M})*%
X85360000Y-75060000D03*
X81960000Y-75060000D03*
%TO.P,F3,2*%
%TO.N,+24V*%
X85360000Y-84980000D03*
X81960000Y-84980000D03*
%TD*%
D14*
%TO.P,C7,1*%
%TO.N,Net-(U4-V_{M})*%
X43727841Y-64270000D03*
D13*
%TO.P,C7,2*%
%TO.N,GND*%
X48727841Y-64270000D03*
%TD*%
D15*
%TO.P,JP1,1,A*%
%TO.N,Net-(JP1-A)*%
X51660000Y-56295000D03*
D16*
%TO.P,JP1,2,C*%
%TO.N,+5V*%
X51660000Y-53755000D03*
%TO.P,JP1,3,B*%
%TO.N,+5V_USB*%
X51660000Y-51215000D03*
%TD*%
D17*
%TO.P,H4,1,1*%
%TO.N,GND*%
X115910000Y-72520000D03*
D18*
X115910000Y-72520000D03*
%TD*%
D10*
%TO.P,J4,*%
%TO.N,*%
X78160000Y-41700750D03*
X89160000Y-41700750D03*
D11*
%TO.P,J4,1,+*%
%TO.N,Grip-*%
X86160000Y-46700750D03*
D12*
%TO.P,J4,2,-*%
%TO.N,Grip+*%
X81160000Y-46700750D03*
%TD*%
D19*
%TO.P,J6,*%
%TO.N,*%
X100910000Y-86845000D03*
X89910000Y-86845000D03*
D20*
%TO.P,J6,1,-*%
%TO.N,GND*%
X92910000Y-76845000D03*
D21*
%TO.P,J6,2,+*%
%TO.N,Net-(J6-+)*%
X97910000Y-76845000D03*
%TD*%
D22*
%TO.P,J2,1*%
%TO.N,CANH*%
X66290000Y-76270000D03*
D23*
%TO.P,J2,2*%
%TO.N,CANL*%
X67560000Y-73730000D03*
%TO.P,J2,3*%
%TO.N,unconnected-(J2-Pad3)*%
X68830000Y-76270000D03*
%TO.P,J2,4*%
%TO.N,unconnected-(J2-Pad4)*%
X70100000Y-73730000D03*
%TO.P,J2,5*%
%TO.N,unconnected-(J2-Pad5)*%
X71370000Y-76270000D03*
%TO.P,J2,6*%
%TO.N,unconnected-(J2-Pad6)*%
X72640000Y-73730000D03*
%TO.P,J2,7*%
%TO.N,+5V_USB*%
X73910000Y-76270000D03*
%TO.P,J2,8*%
%TO.N,GND*%
X75180000Y-73730000D03*
%TD*%
D13*
%TO.P,F2,1*%
%TO.N,Net-(U5-V_{M})*%
X126110000Y-74810000D03*
X122710000Y-74810000D03*
%TO.P,F2,2*%
%TO.N,+24V*%
X126110000Y-84730000D03*
X122710000Y-84730000D03*
%TD*%
D14*
%TO.P,C11,1*%
%TO.N,Net-(U7-V_{M})*%
X81086041Y-64520000D03*
D13*
%TO.P,C11,2*%
%TO.N,GND*%
X86086041Y-64520000D03*
%TD*%
D14*
%TO.P,C9,1*%
%TO.N,Net-(U5-V_{M})*%
X118836041Y-64520000D03*
D13*
%TO.P,C9,2*%
%TO.N,GND*%
X123836041Y-64520000D03*
%TD*%
D17*
%TO.P,H2,1,1*%
%TO.N,GND*%
X125160000Y-52520000D03*
D18*
X125160000Y-52520000D03*
%TD*%
D17*
%TO.P,H3,1,1*%
%TO.N,GND*%
X55910000Y-72020000D03*
D18*
X55910000Y-72020000D03*
%TD*%
D13*
%TO.P,F1,1*%
%TO.N,Net-(U4-V_{M})*%
X47860000Y-75060000D03*
X44460000Y-75060000D03*
%TO.P,F1,2*%
%TO.N,+24V*%
X47860000Y-84980000D03*
X44460000Y-84980000D03*
%TD*%
D24*
%TO.P,R11,1*%
%TO.N,+3.3V*%
X122660000Y-79020000D03*
%TO.P,R11,2*%
%TO.N,PB_Grip_REV*%
X122660000Y-81020000D03*
%TD*%
D25*
%TO.P,U3,1,GND*%
%TO.N,GND*%
X116060000Y-77720000D03*
%TO.P,U3,2,OUTPUT*%
%TO.N,+3.3V*%
X116060000Y-80020000D03*
D26*
X109760000Y-80020000D03*
D25*
%TO.P,U3,3,INPUT*%
%TO.N,+5V*%
X116060000Y-82320000D03*
%TD*%
D27*
%TO.P,C8,1*%
%TO.N,Net-(U5-V_{M})*%
X113660000Y-53732500D03*
%TO.P,C8,2*%
%TO.N,GND*%
X113660000Y-55807500D03*
%TD*%
D28*
%TO.P,C1,1*%
%TO.N,GND*%
X60947500Y-79520000D03*
%TO.P,C1,2*%
%TO.N,EN_PB*%
X58872500Y-79520000D03*
%TD*%
%TO.P,C3,1*%
%TO.N,+3.3V*%
X93237500Y-61020000D03*
%TO.P,C3,2*%
%TO.N,GND*%
X91162500Y-61020000D03*
%TD*%
D29*
%TO.P,R7,1*%
%TO.N,+3.3V*%
X106910000Y-55270000D03*
%TO.P,R7,2*%
%TO.N,PB_Diff_Down*%
X104910000Y-55270000D03*
%TD*%
D30*
%TO.P,C13,1*%
%TO.N,+24V*%
X98410000Y-62807500D03*
%TO.P,C13,2*%
%TO.N,GND*%
X98410000Y-60732500D03*
%TD*%
D31*
%TO.P,U7,1,IPROPI*%
%TO.N,GND*%
X85815000Y-56970000D03*
%TO.P,U7,2,IN2*%
%TO.N,Grip_IN_2*%
X84545000Y-56970000D03*
%TO.P,U7,3,IN1*%
%TO.N,Grip_IN_1*%
X83275000Y-56970000D03*
%TO.P,U7,4,V_{ref}*%
%TO.N,+3.3V*%
X82005000Y-56970000D03*
%TO.P,U7,5,V_{M}*%
%TO.N,Net-(U7-V_{M})*%
X82005000Y-51570000D03*
%TO.P,U7,6,OUT1*%
%TO.N,Grip+*%
X83275000Y-51570000D03*
%TO.P,U7,7,GND*%
%TO.N,GND*%
X84545000Y-51570000D03*
%TO.P,U7,8,OUT2*%
%TO.N,Grip-*%
X85815000Y-51570000D03*
D32*
%TO.P,U7,9,GND*%
%TO.N,GND*%
X81960000Y-54920000D03*
X83260000Y-54920000D03*
X84560000Y-54920000D03*
X85860000Y-54920000D03*
D33*
X84660000Y-54270000D03*
D32*
X81960000Y-53620000D03*
X83260000Y-53620000D03*
X84560000Y-53620000D03*
X85860000Y-53620000D03*
%TD*%
D34*
%TO.P,R4,1*%
%TO.N,CANL*%
X97410000Y-72520000D03*
%TO.P,R4,2*%
%TO.N,Net-(C20-Pad2)*%
X99410000Y-72520000D03*
%TD*%
D30*
%TO.P,C17,1*%
%TO.N,+3.3V*%
X78160000Y-49557500D03*
%TO.P,C17,2*%
%TO.N,GND*%
X78160000Y-47482500D03*
%TD*%
D35*
%TO.P,J9,1*%
%TO.N,CS_SWT_B_GRIP*%
X96210001Y-48070000D03*
%TO.P,J9,2*%
%TO.N,GND*%
X98710001Y-48070000D03*
%TO.P,J9,3*%
%TO.N,CS_SWT_A_GRIP*%
X101210001Y-48070000D03*
%TO.P,J9,4*%
%TO.N,GND*%
X103710001Y-48070000D03*
%TO.P,J9,5*%
%TO.N,unconnected-(J9-Pad5)*%
X106210001Y-48070000D03*
%TO.P,J9,6*%
%TO.N,unconnected-(J9-Pad6)*%
X108710001Y-48070000D03*
D36*
%TO.P,J9,7*%
%TO.N,unconnected-(J9-Pad7)*%
X93010002Y-41270000D03*
%TO.P,J9,8*%
%TO.N,unconnected-(J9-Pad7)_0*%
X111910000Y-41270000D03*
%TD*%
D37*
%TO.P,R10,1*%
%TO.N,+3.3V*%
X125660000Y-81020000D03*
%TO.P,R10,2*%
%TO.N,PB_Grip_FWD*%
X125660000Y-79020000D03*
%TD*%
D28*
%TO.P,C4,1*%
%TO.N,+3.3V*%
X93237500Y-64520000D03*
%TO.P,C4,2*%
%TO.N,GND*%
X91162500Y-64520000D03*
%TD*%
D29*
%TO.P,R13,1*%
%TO.N,+3.3V*%
X60910000Y-83020000D03*
%TO.P,R13,2*%
%TO.N,EN_PB*%
X58910000Y-83020000D03*
%TD*%
D27*
%TO.P,C10,1*%
%TO.N,Net-(U7-V_{M})*%
X79160000Y-52232500D03*
%TO.P,C10,2*%
%TO.N,GND*%
X79160000Y-54307500D03*
%TD*%
%TO.P,C6,1*%
%TO.N,Net-(U4-V_{M})*%
X41410000Y-55482500D03*
%TO.P,C6,2*%
%TO.N,GND*%
X41410000Y-57557500D03*
%TD*%
D38*
%TO.P,C2,1*%
%TO.N,GND*%
X51372500Y-79520000D03*
%TO.P,C2,2*%
%TO.N,GPIO_0*%
X53447500Y-79520000D03*
%TD*%
D39*
%TO.P,U2,1,TXD*%
%TO.N,RXC*%
X90255000Y-67435000D03*
%TO.P,U2,2,GND*%
%TO.N,GND*%
X91525000Y-67435000D03*
%TO.P,U2,3,VCC*%
%TO.N,+3.3V*%
X92795000Y-67435000D03*
%TO.P,U2,4,RXD*%
%TO.N,TXC*%
X94065000Y-67435000D03*
%TO.P,U2,5,VREF*%
%TO.N,unconnected-(U2-VREF-Pad5)*%
X94065000Y-72605000D03*
%TO.P,U2,6,CANL*%
%TO.N,CANL*%
X92795000Y-72605000D03*
%TO.P,U2,7,CANH*%
%TO.N,CANH*%
X91525000Y-72605000D03*
%TO.P,U2,8,S*%
%TO.N,GND*%
X90255000Y-72605000D03*
%TD*%
D24*
%TO.P,R5,1*%
%TO.N,+3.3V*%
X122660000Y-41020000D03*
%TO.P,R5,2*%
%TO.N,CS_SWT_B_GRIP*%
X122660000Y-43020000D03*
%TD*%
D40*
%TO.P,U8,1,INPUT*%
%TO.N,+24V*%
X101510000Y-63320000D03*
%TO.P,U8,2,GND*%
%TO.N,GND*%
X101510000Y-61020000D03*
D41*
X107810000Y-61020000D03*
D40*
%TO.P,U8,3,OUTPUT*%
%TO.N,Net-(JP1-A)*%
X101510000Y-58720000D03*
%TD*%
D38*
%TO.P,C20,1*%
%TO.N,GND*%
X97372500Y-69020000D03*
%TO.P,C20,2*%
%TO.N,Net-(C20-Pad2)*%
X99447500Y-69020000D03*
%TD*%
D30*
%TO.P,C5,1*%
%TO.N,+5V*%
X106160000Y-81057500D03*
%TO.P,C5,2*%
%TO.N,GND*%
X106160000Y-78982500D03*
%TD*%
D34*
%TO.P,R1,1*%
%TO.N,+3.3V*%
X97910000Y-55270000D03*
%TO.P,R1,2*%
%TO.N,PB_Diff_Up*%
X99910000Y-55270000D03*
%TD*%
D24*
%TO.P,R8,1*%
%TO.N,+3.3V*%
X103910000Y-66520000D03*
%TO.P,R8,2*%
%TO.N,PB_Diff_Right*%
X103910000Y-68520000D03*
%TD*%
D30*
%TO.P,C18,1*%
%TO.N,+3.3V*%
X75660000Y-49595000D03*
%TO.P,C18,2*%
%TO.N,GND*%
X75660000Y-47520000D03*
%TD*%
D42*
%TO.P,U6,1,GND*%
%TO.N,GND*%
X72910000Y-50010000D03*
%TO.P,U6,2,3V3*%
%TO.N,+3.3V*%
X72910000Y-51280000D03*
%TO.P,U6,3,EN*%
%TO.N,EN_PB*%
X72910000Y-52550000D03*
%TO.P,U6,4,IO4*%
%TO.N,Grip_IN_1*%
X72910000Y-53820000D03*
%TO.P,U6,5,IO5*%
%TO.N,Grip_IN_2*%
X72910000Y-55090000D03*
%TO.P,U6,6,IO6*%
%TO.N,Diff_B_IN_1*%
X72910000Y-56360000D03*
%TO.P,U6,7,IO7*%
%TO.N,Diff_B_IN_2*%
X72910000Y-57630000D03*
%TO.P,U6,8,IO15*%
%TO.N,CS_ENC_DIFF_A*%
X72910000Y-58900000D03*
%TO.P,U6,9,IO16*%
%TO.N,MISO*%
X72910000Y-60170000D03*
%TO.P,U6,10,IO17*%
%TO.N,MOSI*%
X72910000Y-61440000D03*
%TO.P,U6,11,IO18*%
%TO.N,SCK*%
X72910000Y-62710000D03*
%TO.P,U6,12,IO8*%
%TO.N,CS_SWT_B_GRIP*%
X72910000Y-63980000D03*
%TO.P,U6,13,IO19*%
%TO.N,USB_N*%
X72910000Y-65250000D03*
%TO.P,U6,14,IO20*%
%TO.N,USB_P*%
X72910000Y-66520000D03*
D43*
%TO.P,U6,15,IO3*%
%TO.N,CS_ENC_DIFF_B*%
X71145000Y-67770000D03*
%TO.P,U6,16,IO46*%
%TO.N,unconnected-(U6-IO46-Pad16)*%
X69875000Y-67770000D03*
%TO.P,U6,17,IO9*%
%TO.N,PB_Diff_Down*%
X68605000Y-67770000D03*
%TO.P,U6,18,IO10*%
%TO.N,PB_Diff_Up*%
X67335000Y-67770000D03*
%TO.P,U6,19,IO11*%
%TO.N,PB_Diff_Left*%
X66065000Y-67770000D03*
%TO.P,U6,20,IO12*%
%TO.N,PB_Diff_Right*%
X64795000Y-67770000D03*
%TO.P,U6,21,IO13*%
%TO.N,PB_Grip_REV*%
X63525000Y-67770000D03*
%TO.P,U6,22,IO14*%
%TO.N,PB_Grip_FWD*%
X62255000Y-67770000D03*
%TO.P,U6,23,IO21*%
%TO.N,CS_SWT_A_GRIP*%
X60985000Y-67770000D03*
%TO.P,U6,24,IO47*%
%TO.N,RXC*%
X59715000Y-67770000D03*
%TO.P,U6,25,IO48*%
%TO.N,TXC*%
X58445000Y-67770000D03*
%TO.P,U6,26,IO45*%
%TO.N,unconnected-(U6-IO45-Pad26)*%
X57175000Y-67770000D03*
D42*
%TO.P,U6,27,IO0*%
%TO.N,GPIO_0*%
X55410000Y-66520000D03*
%TO.P,U6,28,IO35*%
%TO.N,unconnected-(U6-IO35-Pad28)*%
X55410000Y-65250000D03*
%TO.P,U6,29,IO36*%
%TO.N,unconnected-(U6-IO36-Pad29)*%
X55410000Y-63980000D03*
%TO.P,U6,30,IO37*%
%TO.N,unconnected-(U6-IO37-Pad30)*%
X55410000Y-62710000D03*
%TO.P,U6,31,IO38*%
%TO.N,Diff_A_IN_1*%
X55410000Y-61440000D03*
%TO.P,U6,32,IO39*%
%TO.N,Diff_A_IN_2*%
X55410000Y-60170000D03*
%TO.P,U6,33,IO40*%
%TO.N,unconnected-(U6-IO40-Pad33)*%
X55410000Y-58900000D03*
%TO.P,U6,34,IO41*%
%TO.N,unconnected-(U6-IO41-Pad34)*%
X55410000Y-57630000D03*
%TO.P,U6,35,IO42*%
%TO.N,unconnected-(U6-IO42-Pad35)*%
X55410000Y-56360000D03*
%TO.P,U6,36,RXD0*%
%TO.N,unconnected-(U6-RXD0-Pad36)*%
X55410000Y-55090000D03*
%TO.P,U6,37,TXD0*%
%TO.N,unconnected-(U6-TXD0-Pad37)*%
X55410000Y-53820000D03*
%TO.P,U6,38,IO2*%
%TO.N,unconnected-(U6-IO2-Pad38)*%
X55410000Y-52550000D03*
%TO.P,U6,39,IO1*%
%TO.N,unconnected-(U6-IO1-Pad39)*%
X55410000Y-51280000D03*
%TO.P,U6,40,GND*%
%TO.N,GND*%
X55410000Y-50010000D03*
D44*
%TO.P,U6,41,GND*%
X65660000Y-57730000D03*
%TD*%
D24*
%TO.P,R9,1*%
%TO.N,+3.3V*%
X107910000Y-66520000D03*
%TO.P,R9,2*%
%TO.N,PB_Diff_Left*%
X107910000Y-68520000D03*
%TD*%
D45*
%TO.P,J1,1,VBUS*%
%TO.N,+5V_USB*%
X60160000Y-42695000D03*
%TO.P,J1,2,D-*%
%TO.N,USB_N*%
X60810000Y-42695000D03*
%TO.P,J1,3,D+*%
%TO.N,USB_P*%
X61460000Y-42695000D03*
%TO.P,J1,4,ID*%
%TO.N,unconnected-(J1-ID-Pad4)*%
X62110000Y-42695000D03*
%TO.P,J1,5,GND*%
%TO.N,GND*%
X62760000Y-42695000D03*
D46*
%TO.P,J1,6,Shield*%
X58160000Y-40020000D03*
D47*
X58260000Y-42470000D03*
D48*
X60260000Y-40020000D03*
X62660000Y-40020000D03*
D47*
X64660000Y-42470000D03*
D46*
X64760000Y-40020000D03*
%TD*%
D29*
%TO.P,R3,1*%
%TO.N,Net-(C20-Pad2)*%
X99410000Y-66020000D03*
%TO.P,R3,2*%
%TO.N,CANH*%
X97410000Y-66020000D03*
%TD*%
D49*
%TO.P,U1,1*%
%TO.N,+5V_USB*%
X67435000Y-45175000D03*
%TO.P,U1,2*%
%TO.N,USB_N*%
X67435000Y-43905000D03*
%TO.P,U1,3*%
%TO.N,USB_P*%
X67435000Y-42635000D03*
%TO.P,U1,4*%
%TO.N,unconnected-(U1-Pad4)*%
X67435000Y-41365000D03*
%TO.P,U1,5*%
%TO.N,GND*%
X72385000Y-41365000D03*
%TO.P,U1,6*%
X72385000Y-42635000D03*
%TO.P,U1,7*%
X72385000Y-43905000D03*
%TO.P,U1,8*%
X72385000Y-45175000D03*
%TD*%
D31*
%TO.P,U4,1,IPROPI*%
%TO.N,GND*%
X47160000Y-60170000D03*
%TO.P,U4,2,IN2*%
%TO.N,Diff_A_IN_2*%
X45890000Y-60170000D03*
%TO.P,U4,3,IN1*%
%TO.N,Diff_A_IN_1*%
X44620000Y-60170000D03*
%TO.P,U4,4,V_{ref}*%
%TO.N,+3.3V*%
X43350000Y-60170000D03*
%TO.P,U4,5,V_{M}*%
%TO.N,Net-(U4-V_{M})*%
X43350000Y-54770000D03*
%TO.P,U4,6,OUT1*%
%TO.N,Diff_A+*%
X44620000Y-54770000D03*
%TO.P,U4,7,GND*%
%TO.N,GND*%
X45890000Y-54770000D03*
%TO.P,U4,8,OUT2*%
%TO.N,Diff_A-*%
X47160000Y-54770000D03*
D32*
%TO.P,U4,9,GND*%
%TO.N,GND*%
X43305000Y-58120000D03*
X44605000Y-58120000D03*
X45905000Y-58120000D03*
X47205000Y-58120000D03*
D33*
X46030000Y-57470000D03*
D32*
X43305000Y-56820000D03*
X44605000Y-56820000D03*
X45905000Y-56820000D03*
X47205000Y-56820000D03*
%TD*%
D24*
%TO.P,R6,1*%
%TO.N,+3.3V*%
X119410000Y-41020000D03*
%TO.P,R6,2*%
%TO.N,CS_SWT_A_GRIP*%
X119410000Y-43020000D03*
%TD*%
D27*
%TO.P,C12,1*%
%TO.N,+3.3V*%
X119910000Y-78982500D03*
%TO.P,C12,2*%
%TO.N,GND*%
X119910000Y-81057500D03*
%TD*%
D31*
%TO.P,U5,1,IPROPI*%
%TO.N,GND*%
X119865000Y-58370000D03*
%TO.P,U5,2,IN2*%
%TO.N,Diff_B_IN_2*%
X118595000Y-58370000D03*
%TO.P,U5,3,IN1*%
%TO.N,Diff_B_IN_1*%
X117325000Y-58370000D03*
%TO.P,U5,4,V_{ref}*%
%TO.N,+3.3V*%
X116055000Y-58370000D03*
%TO.P,U5,5,V_{M}*%
%TO.N,Net-(U5-V_{M})*%
X116055000Y-52970000D03*
%TO.P,U5,6,OUT1*%
%TO.N,Diff_B+*%
X117325000Y-52970000D03*
%TO.P,U5,7,GND*%
%TO.N,GND*%
X118595000Y-52970000D03*
%TO.P,U5,8,OUT2*%
%TO.N,Diff_B-*%
X119865000Y-52970000D03*
D32*
%TO.P,U5,9,GND*%
%TO.N,GND*%
X116010000Y-56320000D03*
X117310000Y-56320000D03*
X118610000Y-56320000D03*
X119910000Y-56320000D03*
D33*
X118735000Y-55670000D03*
D32*
X116010000Y-55020000D03*
X117310000Y-55020000D03*
X118610000Y-55020000D03*
X119910000Y-55020000D03*
%TD*%
D28*
%TO.P,C19,1*%
%TO.N,EN_PB*%
X53447500Y-83020000D03*
%TO.P,C19,2*%
%TO.N,GND*%
X51372500Y-83020000D03*
%TD*%
D50*
%TO.N,EN_PB*%
X59410000Y-70020000D03*
X58160000Y-84770000D03*
X74660000Y-53270000D03*
%TO.N,GND*%
X62160000Y-81270000D03*
X65660000Y-57770000D03*
X109660000Y-64020000D03*
X52360000Y-79520000D03*
X118410000Y-82270000D03*
X65910000Y-51270000D03*
X97410000Y-45520000D03*
X65660000Y-59020000D03*
X96910000Y-60970000D03*
X66910000Y-59020000D03*
X52410000Y-81270000D03*
X90410000Y-70770000D03*
X66910000Y-56520000D03*
X64410000Y-59020000D03*
X103660000Y-45270000D03*
X64410000Y-57770000D03*
X65660000Y-56520000D03*
X66910000Y-57770000D03*
X72410000Y-43270000D03*
X113910000Y-78520000D03*
X102260000Y-57370000D03*
X64410000Y-56520000D03*
X57160000Y-50770000D03*
X91160000Y-62770000D03*
X95910000Y-69520000D03*
%TO.N,GPIO_0*%
X57160000Y-79520000D03*
X53660000Y-67520000D03*
%TO.N,+5V*%
X115410000Y-84770000D03*
X52410000Y-73020000D03*
X113410000Y-84770000D03*
X52410000Y-71020000D03*
X52410000Y-72020000D03*
X114410000Y-84770000D03*
%TO.N,+3.3V*%
X110160000Y-78770000D03*
X71160000Y-51770000D03*
X65910000Y-71770000D03*
X61910000Y-84520000D03*
X84160000Y-67020000D03*
X121160000Y-40770000D03*
X114660000Y-58520000D03*
X109410000Y-80020000D03*
X105910000Y-66520000D03*
X109410000Y-78770000D03*
X110160000Y-80020000D03*
X106910000Y-56770000D03*
X109410000Y-81270000D03*
X43660000Y-61770000D03*
X110160000Y-81270000D03*
X80160000Y-57020000D03*
%TO.N,TXC*%
X58910000Y-66270000D03*
X92910000Y-69520000D03*
%TO.N,USB_P*%
X75786200Y-64270000D03*
X70176014Y-43503986D03*
%TO.N,USB_N*%
X69643986Y-44036014D03*
X75033800Y-64270000D03*
%TO.N,CS_ENC_DIFF_A*%
X71110735Y-52720735D03*
%TO.N,SCK*%
X105660000Y-44770000D03*
X62160000Y-51520000D03*
X99410000Y-51020000D03*
%TO.N,MISO*%
X94410000Y-44770000D03*
X104410000Y-51270000D03*
X68785000Y-51145000D03*
%TO.N,MOSI*%
X63910000Y-51520000D03*
%TO.N,CS_ENC_DIFF_B*%
X71160000Y-64520000D03*
%TO.N,PB_Diff_Up*%
X94410000Y-59170000D03*
X74910000Y-68770000D03*
%TO.N,PB_Diff_Down*%
X74410000Y-68020000D03*
X94660000Y-54270000D03*
%TO.N,PB_Diff_Right*%
X109910000Y-60970000D03*
X76660000Y-70270000D03*
%TO.N,PB_Diff_Left*%
X75660000Y-69520000D03*
X110660000Y-56020000D03*
%TO.N,PB_Grip_FWD*%
X62660000Y-73770000D03*
X120910000Y-77770000D03*
X94410000Y-86520000D03*
%TO.N,PB_Grip_REV*%
X119660000Y-84020000D03*
X63910000Y-73770000D03*
%TO.N,RXC*%
X87785000Y-67145000D03*
X60660000Y-65520000D03*
%TO.N,Diff_B_IN_1*%
X116660000Y-59770000D03*
X76410000Y-58270000D03*
%TO.N,Diff_B_IN_2*%
X76160000Y-59070003D03*
X117660000Y-60020000D03*
%TO.N,Grip_IN_2*%
X76385737Y-57344266D03*
X84160000Y-58770000D03*
%TO.N,Grip_IN_1*%
X82660000Y-58770000D03*
X76410000Y-56520000D03*
%TO.N,Net-(JP1-A)*%
X99410000Y-58520000D03*
%TO.N,CS_SWT_B_GRIP*%
X74660000Y-63020000D03*
X87410000Y-62020000D03*
%TO.N,CS_SWT_A_GRIP*%
X64660000Y-66020000D03*
X101210001Y-45270000D03*
X95661265Y-51021265D03*
%TD*%
D51*
%TO.N,EN_PB*%
X53447500Y-83020000D02*
X56410000Y-83020000D01*
X58872500Y-82982500D02*
X58910000Y-83020000D01*
X58872500Y-79520000D02*
X58872500Y-82982500D01*
X58910000Y-83020000D02*
X58910000Y-84020000D01*
X74660000Y-53270000D02*
X73940000Y-52550000D01*
X58872500Y-79520000D02*
X59160000Y-79232500D01*
X58910000Y-84020000D02*
X58160000Y-84770000D01*
X73940000Y-52550000D02*
X72910000Y-52550000D01*
X59160000Y-70270000D02*
X59410000Y-70020000D01*
X59160000Y-79232500D02*
X59160000Y-70270000D01*
X56410000Y-83020000D02*
X58160000Y-84770000D01*
D52*
%TO.N,GND*%
X119865000Y-56800000D02*
X119865000Y-58370000D01*
D51*
X98710001Y-48070000D02*
X97410000Y-46769999D01*
D52*
X46030000Y-57470000D02*
X47160000Y-58600000D01*
D51*
X91162500Y-61020000D02*
X91162500Y-62767500D01*
D52*
X45890000Y-54770000D02*
X45890000Y-57330000D01*
D51*
X62110000Y-40120000D02*
X62210000Y-40020000D01*
X73132500Y-50010000D02*
X75660000Y-47482500D01*
X62160000Y-80732500D02*
X62160000Y-81270000D01*
X58260000Y-42470000D02*
X58260000Y-40120000D01*
D53*
X107472500Y-77670000D02*
X116010000Y-77670000D01*
X97147500Y-60732500D02*
X96910000Y-60970000D01*
D51*
X62760000Y-42695000D02*
X64435000Y-42695000D01*
X103710001Y-45320001D02*
X103660000Y-45270000D01*
X60260000Y-40020000D02*
X58160000Y-40020000D01*
D52*
X123836041Y-62341041D02*
X119865000Y-58370000D01*
D51*
X64660000Y-42020000D02*
X64760000Y-41920000D01*
X91160000Y-62770000D02*
X91162500Y-62772500D01*
D53*
X106160000Y-78982500D02*
X107472500Y-77670000D01*
D51*
X58260000Y-40120000D02*
X58160000Y-40020000D01*
X72910000Y-50010000D02*
X73132500Y-50010000D01*
D52*
X118735000Y-55670000D02*
X119865000Y-56800000D01*
X44947500Y-57557500D02*
X45435000Y-57070000D01*
D51*
X91162500Y-62772500D02*
X91162500Y-64520000D01*
X60947500Y-79520000D02*
X62160000Y-80732500D01*
D52*
X123836041Y-64520000D02*
X123836041Y-62341041D01*
D53*
X98697500Y-61020000D02*
X98410000Y-60732500D01*
D51*
X60110000Y-40020000D02*
X62210000Y-40020000D01*
X55410000Y-50010000D02*
X56400000Y-50010000D01*
X119622500Y-81057500D02*
X118410000Y-82270000D01*
X90255000Y-72605000D02*
X90255000Y-70925000D01*
X56400000Y-50010000D02*
X57160000Y-50770000D01*
X114710000Y-77720000D02*
X116060000Y-77720000D01*
X72385000Y-43295000D02*
X72385000Y-43905000D01*
D52*
X84545000Y-53605000D02*
X84560000Y-53620000D01*
D51*
X97372500Y-69020000D02*
X96410000Y-69020000D01*
D52*
X41497500Y-57470000D02*
X41410000Y-57557500D01*
D51*
X113910000Y-78520000D02*
X114710000Y-77720000D01*
X72385000Y-42635000D02*
X72385000Y-43245000D01*
X78160000Y-47482500D02*
X75697500Y-47482500D01*
X96410000Y-69020000D02*
X95910000Y-69520000D01*
X119910000Y-81057500D02*
X119622500Y-81057500D01*
X72410000Y-43270000D02*
X72385000Y-43295000D01*
D53*
X116010000Y-77670000D02*
X116060000Y-77720000D01*
D52*
X79160000Y-54307500D02*
X84647500Y-54307500D01*
X113660000Y-55807500D02*
X118597500Y-55807500D01*
D51*
X51372500Y-82307500D02*
X52410000Y-81270000D01*
D52*
X85815000Y-55400000D02*
X84685000Y-54270000D01*
D51*
X51372500Y-83020000D02*
X51372500Y-82307500D01*
X91162500Y-62767500D02*
X91160000Y-62770000D01*
X75697500Y-47482500D02*
X75660000Y-47520000D01*
D52*
X85815000Y-64248959D02*
X86086041Y-64520000D01*
D51*
X98710001Y-48070000D02*
X98710001Y-49065600D01*
X62660000Y-40020000D02*
X64760000Y-40020000D01*
X64760000Y-41920000D02*
X64760000Y-40020000D01*
D52*
X84647500Y-54307500D02*
X84685000Y-54270000D01*
X118595000Y-55530000D02*
X118735000Y-55670000D01*
D51*
X72385000Y-43905000D02*
X72385000Y-45175000D01*
D52*
X85815000Y-56970000D02*
X85815000Y-64248959D01*
X45890000Y-57330000D02*
X46030000Y-57470000D01*
X47160000Y-58600000D02*
X47160000Y-60170000D01*
D51*
X103710001Y-48070000D02*
X103710001Y-45320001D01*
D52*
X46030000Y-57470000D02*
X41497500Y-57470000D01*
D51*
X72385000Y-41365000D02*
X72385000Y-42635000D01*
X91162500Y-67072500D02*
X91525000Y-67435000D01*
X90255000Y-70925000D02*
X90410000Y-70770000D01*
D52*
X118595000Y-52970000D02*
X118595000Y-55530000D01*
X84545000Y-51570000D02*
X84545000Y-53605000D01*
D51*
X91162500Y-64520000D02*
X91162500Y-67072500D01*
X64660000Y-42470000D02*
X64660000Y-42020000D01*
D53*
X101510000Y-61020000D02*
X107810000Y-61020000D01*
D51*
X72385000Y-43245000D02*
X72410000Y-43270000D01*
D53*
X101510000Y-61020000D02*
X98697500Y-61020000D01*
X98410000Y-60732500D02*
X97147500Y-60732500D01*
D51*
X64435000Y-42695000D02*
X64660000Y-42470000D01*
X97410000Y-46769999D02*
X97410000Y-45520000D01*
D52*
X85815000Y-56970000D02*
X85815000Y-55400000D01*
D51*
X98710001Y-48070000D02*
X98710001Y-46469800D01*
X74692500Y-47482500D02*
X72385000Y-45175000D01*
X52360000Y-79520000D02*
X51372500Y-79520000D01*
X75660000Y-47482500D02*
X74692500Y-47482500D01*
%TO.N,GPIO_0*%
X53660000Y-67520000D02*
X53660000Y-67270000D01*
X53447500Y-79520000D02*
X57160000Y-79520000D01*
X54410000Y-66520000D02*
X55410000Y-66520000D01*
X53660000Y-67270000D02*
X54410000Y-66520000D01*
D53*
%TO.N,+5V*%
X114410000Y-84770000D02*
X113410000Y-84770000D01*
X115410000Y-84770000D02*
X114410000Y-84770000D01*
X106160000Y-81057500D02*
X107020953Y-81057500D01*
X116060000Y-82320000D02*
X116060000Y-84120000D01*
X110733453Y-84770000D02*
X113410000Y-84770000D01*
X107020953Y-81057500D02*
X110733453Y-84770000D01*
X116060000Y-84120000D02*
X115410000Y-84770000D01*
D52*
%TO.N,+24V*%
X47870000Y-84980000D02*
X49660000Y-86770000D01*
D53*
X101510000Y-63320000D02*
X101510000Y-71360000D01*
D52*
X80170000Y-86770000D02*
X81960000Y-84980000D01*
D53*
X100997500Y-62807500D02*
X101510000Y-63320000D01*
D52*
X47860000Y-84980000D02*
X47870000Y-84980000D01*
D53*
X98410000Y-62807500D02*
X100997500Y-62807500D01*
X101510000Y-71360000D02*
X105210000Y-75060000D01*
D54*
X85360000Y-84980000D02*
X81960000Y-84980000D01*
D52*
X49660000Y-86770000D02*
X80170000Y-86770000D01*
D54*
X87820000Y-82520000D02*
X85360000Y-84980000D01*
D52*
X44460000Y-84980000D02*
X47860000Y-84980000D01*
D54*
X105210000Y-75060000D02*
X97750000Y-82520000D01*
X97750000Y-82520000D02*
X87820000Y-82520000D01*
D51*
%TO.N,+3.3V*%
X85910000Y-69720000D02*
X91384999Y-69720000D01*
X124660000Y-81020000D02*
X122660000Y-79020000D01*
X73937500Y-51280000D02*
X75660000Y-49557500D01*
X115905000Y-58520000D02*
X116055000Y-58370000D01*
X119910000Y-78982500D02*
X122622500Y-78982500D01*
X120910000Y-41020000D02*
X121160000Y-40770000D01*
X91384999Y-69720000D02*
X92795000Y-68309999D01*
X114660000Y-58520000D02*
X115905000Y-58520000D01*
X93237500Y-61020000D02*
X93237500Y-64520000D01*
X43350000Y-61460000D02*
X43660000Y-61770000D01*
X119410000Y-41020000D02*
X120910000Y-41020000D01*
X78122500Y-49595000D02*
X78160000Y-49557500D01*
X117097500Y-78982500D02*
X116060000Y-80020000D01*
X125660000Y-81020000D02*
X124660000Y-81020000D01*
X121410000Y-41020000D02*
X121160000Y-40770000D01*
X106910000Y-55270000D02*
X106910000Y-56770000D01*
X107910000Y-66520000D02*
X105910000Y-66520000D01*
X97310000Y-55270000D02*
X93237500Y-59342500D01*
X60910000Y-83520000D02*
X61910000Y-84520000D01*
X119910000Y-78982500D02*
X117097500Y-78982500D01*
X122622500Y-78982500D02*
X122660000Y-79020000D01*
X84160000Y-67020000D02*
X84160000Y-67970000D01*
X92910000Y-67320000D02*
X92795000Y-67435000D01*
X75660000Y-49595000D02*
X78122500Y-49595000D01*
X92910000Y-64847500D02*
X92910000Y-67320000D01*
X92795000Y-68309999D02*
X92795000Y-67435000D01*
X82005000Y-56970000D02*
X80210000Y-56970000D01*
X97910000Y-55270000D02*
X97310000Y-55270000D01*
X72910000Y-51280000D02*
X73937500Y-51280000D01*
X122660000Y-41020000D02*
X121410000Y-41020000D01*
X84160000Y-67970000D02*
X85910000Y-69720000D01*
X72910000Y-51280000D02*
X71650000Y-51280000D01*
X93237500Y-64520000D02*
X92910000Y-64847500D01*
X80210000Y-56970000D02*
X80160000Y-57020000D01*
X103910000Y-66520000D02*
X105910000Y-66520000D01*
X93237500Y-59342500D02*
X93237500Y-61020000D01*
X71650000Y-51280000D02*
X71160000Y-51770000D01*
X60910000Y-83020000D02*
X60910000Y-83520000D01*
X43350000Y-60170000D02*
X43350000Y-61460000D01*
D53*
X110160000Y-80020000D02*
X116060000Y-80020000D01*
D51*
%TO.N,TXC*%
X94065000Y-68365000D02*
X92910000Y-69520000D01*
X58445000Y-66735000D02*
X58445000Y-67770000D01*
X58910000Y-66270000D02*
X58445000Y-66735000D01*
X94065000Y-67435000D02*
X94065000Y-68365000D01*
D52*
%TO.N,Net-(U4-V_{M})*%
X39985000Y-56819570D02*
X41322070Y-55482500D01*
X44460000Y-65002159D02*
X43727841Y-64270000D01*
X41322070Y-55482500D02*
X41410000Y-55482500D01*
X47860000Y-75060000D02*
X44460000Y-75060000D01*
X44460000Y-75060000D02*
X44460000Y-65002159D01*
X43727841Y-64270000D02*
X43727841Y-63837841D01*
X43727841Y-63837841D02*
X39985000Y-60095000D01*
X42122500Y-54770000D02*
X43350000Y-54770000D01*
X39985000Y-60095000D02*
X39985000Y-56819570D01*
X41410000Y-55482500D02*
X42122500Y-54770000D01*
%TO.N,Net-(U5-V_{M})*%
X118836041Y-64520000D02*
X119910000Y-65593959D01*
X112235000Y-57918959D02*
X118836041Y-64520000D01*
X119910000Y-65593959D02*
X119910000Y-73520000D01*
X126110000Y-74810000D02*
X122710000Y-74810000D01*
X113660000Y-53732500D02*
X113572070Y-53732500D01*
X116055000Y-52970000D02*
X114422500Y-52970000D01*
X119910000Y-73520000D02*
X121200000Y-74810000D01*
X114422500Y-52970000D02*
X113660000Y-53732500D01*
X121200000Y-74810000D02*
X122710000Y-74810000D01*
X112235000Y-55069570D02*
X112235000Y-57918959D01*
X113572070Y-53732500D02*
X112235000Y-55069570D01*
%TO.N,Net-(U7-V_{M})*%
X81086041Y-64520000D02*
X81086041Y-74186041D01*
X81086041Y-74186041D02*
X81960000Y-75060000D01*
X77735000Y-52932500D02*
X77735000Y-61168959D01*
X78435000Y-52232500D02*
X77735000Y-52932500D01*
X81960000Y-75060000D02*
X85360000Y-75060000D01*
X79822500Y-51570000D02*
X82005000Y-51570000D01*
X79160000Y-52232500D02*
X78435000Y-52232500D01*
X77735000Y-61168959D02*
X81086041Y-64520000D01*
X79160000Y-52232500D02*
X79822500Y-51570000D01*
D51*
%TO.N,Net-(C20-Pad2)*%
X99410000Y-66020000D02*
X99410000Y-68982500D01*
X99410000Y-66020000D02*
X99410000Y-72520000D01*
X99410000Y-68982500D02*
X99447500Y-69020000D01*
D55*
%TO.N,USB_P*%
X68110000Y-42635000D02*
X68590893Y-43115893D01*
X64846165Y-44615893D02*
X61973835Y-44615893D01*
X75786200Y-64270000D02*
X74017093Y-66039107D01*
X61660000Y-44270000D02*
X61460000Y-44070000D01*
X68590893Y-43115893D02*
X69473834Y-43115893D01*
X74017093Y-66039107D02*
X73690893Y-66039107D01*
X69861927Y-43503986D02*
X70176014Y-43503986D01*
X73690893Y-66039107D02*
X73210000Y-66520000D01*
X66346166Y-43115892D02*
X64846165Y-44615893D01*
X66954108Y-43115892D02*
X66346166Y-43115892D01*
X61973835Y-44615893D02*
X61660000Y-44302058D01*
X67435000Y-42635000D02*
X66954108Y-43115892D01*
X61460000Y-44070000D02*
X61460000Y-42695000D01*
X67435000Y-42635000D02*
X68110000Y-42635000D01*
X69473834Y-43115893D02*
X69861927Y-43503986D01*
X73210000Y-66520000D02*
X72910000Y-66520000D01*
X61660000Y-44302058D02*
X61660000Y-44270000D01*
%TO.N,USB_N*%
X73889426Y-65730893D02*
X73690893Y-65730893D01*
X67435000Y-43905000D02*
X66954108Y-43424108D01*
X73690893Y-65730893D02*
X73210000Y-65250000D01*
X67435000Y-43905000D02*
X68110000Y-43905000D01*
X68110000Y-43905000D02*
X68590893Y-43424107D01*
X69346166Y-43424107D02*
X69643986Y-43721927D01*
X75033800Y-64270000D02*
X75033800Y-64586519D01*
X64973835Y-44924107D02*
X61846165Y-44924107D01*
X66473834Y-43424108D02*
X64973835Y-44924107D01*
X60810000Y-43887942D02*
X60810000Y-42695000D01*
X61846165Y-44924107D02*
X60810000Y-43887942D01*
X66954108Y-43424108D02*
X66473834Y-43424108D01*
X69643986Y-43721927D02*
X69643986Y-44036014D01*
X73210000Y-65250000D02*
X72910000Y-65250000D01*
X68590893Y-43424107D02*
X69346166Y-43424107D01*
X75033800Y-64586519D02*
X73889426Y-65730893D01*
D51*
%TO.N,CANH*%
X91525000Y-71905000D02*
X91525000Y-72605000D01*
X87234999Y-77770000D02*
X67790000Y-77770000D01*
X67790000Y-77770000D02*
X66290000Y-76270000D01*
X97410000Y-66020000D02*
X91525000Y-71905000D01*
X91525000Y-73479999D02*
X87234999Y-77770000D01*
X91525000Y-72605000D02*
X91525000Y-73479999D01*
%TO.N,CANL*%
X93095001Y-73780000D02*
X96150000Y-73780000D01*
X64910000Y-77270000D02*
X65810000Y-78170000D01*
X92795000Y-73479999D02*
X93095001Y-73780000D01*
X64910000Y-75483389D02*
X64910000Y-77270000D01*
X96150000Y-73780000D02*
X97410000Y-72520000D01*
X67560000Y-73730000D02*
X66663389Y-73730000D01*
X65810000Y-78170000D02*
X87485000Y-78170000D01*
X91875000Y-73780000D02*
X92494999Y-73780000D01*
X66663389Y-73730000D02*
X64910000Y-75483389D01*
X92795000Y-73479999D02*
X92795000Y-72605000D01*
X92494999Y-73780000D02*
X92795000Y-73479999D01*
X87485000Y-78170000D02*
X91875000Y-73780000D01*
D52*
%TO.N,Diff_B+*%
X117325000Y-48035750D02*
X117325000Y-52970000D01*
X118660000Y-46700750D02*
X117325000Y-48035750D01*
%TO.N,Diff_B-*%
X119865000Y-52970000D02*
X119865000Y-50495750D01*
X119865000Y-50495750D02*
X123660000Y-46700750D01*
%TO.N,Grip+*%
X81160000Y-46700750D02*
X83275000Y-48815750D01*
X83275000Y-48815750D02*
X83275000Y-51570000D01*
%TO.N,Grip-*%
X85815000Y-47045750D02*
X86160000Y-46700750D01*
X85815000Y-51570000D02*
X85815000Y-47045750D01*
D51*
%TO.N,CS_ENC_DIFF_A*%
X71660000Y-53270000D02*
X71660000Y-58020000D01*
X71660000Y-58020000D02*
X72540000Y-58900000D01*
X71110735Y-52720735D02*
X71660000Y-53270000D01*
X72540000Y-58900000D02*
X72910000Y-58900000D01*
%TO.N,SCK*%
X70360000Y-54285686D02*
X70360000Y-60720000D01*
X70360000Y-60720000D02*
X72350000Y-62710000D01*
X104910000Y-45520000D02*
X105660000Y-44770000D01*
X104658529Y-51870000D02*
X105010000Y-51518529D01*
X68594314Y-52520000D02*
X70360000Y-54285686D01*
X99410000Y-51020000D02*
X100260000Y-51870000D01*
X62160000Y-51520000D02*
X63160000Y-52520000D01*
X100260000Y-51870000D02*
X104658529Y-51870000D01*
X72350000Y-62710000D02*
X72910000Y-62710000D01*
X63160000Y-52520000D02*
X68594314Y-52520000D01*
X105010000Y-51518529D02*
X105010000Y-51021471D01*
X104910000Y-50921471D02*
X104910000Y-45520000D01*
X105010000Y-51021471D02*
X104910000Y-50921471D01*
%TO.N,MISO*%
X68785000Y-51620000D02*
X68825686Y-51620000D01*
X99910000Y-45774399D02*
X99910000Y-50265599D01*
X94410000Y-44770000D02*
X98905601Y-44770000D01*
X99910000Y-50265599D02*
X100914401Y-51270000D01*
X68785000Y-51145000D02*
X68785000Y-51620000D01*
X98905601Y-44770000D02*
X99910000Y-45774399D01*
X68825686Y-51620000D02*
X71160000Y-53954314D01*
X71160000Y-58950000D02*
X72380000Y-60170000D01*
X100914401Y-51270000D02*
X104410000Y-51270000D01*
X72380000Y-60170000D02*
X72910000Y-60170000D01*
X71160000Y-53954314D02*
X71160000Y-58950000D01*
%TO.N,MOSI*%
X70760000Y-59870000D02*
X72330000Y-61440000D01*
X63910000Y-51520000D02*
X64410000Y-52020000D01*
X72330000Y-61440000D02*
X72910000Y-61440000D01*
X70760000Y-54120000D02*
X70760000Y-59870000D01*
X64410000Y-52020000D02*
X68660000Y-52020000D01*
X68660000Y-52020000D02*
X70760000Y-54120000D01*
D52*
%TO.N,Diff_A-*%
X48660000Y-53270000D02*
X47160000Y-54770000D01*
X48660000Y-46700750D02*
X48660000Y-53270000D01*
%TO.N,Diff_A+*%
X44620000Y-47660750D02*
X43660000Y-46700750D01*
X44620000Y-54770000D02*
X44620000Y-47660750D01*
D51*
%TO.N,CS_ENC_DIFF_B*%
X71145000Y-65035000D02*
X71145000Y-67770000D01*
X71160000Y-65020000D02*
X71145000Y-65035000D01*
X71160000Y-64520000D02*
X71160000Y-65020000D01*
%TO.N,PB_Diff_Up*%
X67335000Y-68720000D02*
X68035000Y-69420000D01*
X74260000Y-69420000D02*
X74910000Y-68770000D01*
X67335000Y-67770000D02*
X67335000Y-68720000D01*
X99910000Y-55270000D02*
X96010000Y-59170000D01*
X68035000Y-69420000D02*
X74260000Y-69420000D01*
X96010000Y-59170000D02*
X94410000Y-59170000D01*
%TO.N,PB_Diff_Down*%
X74410000Y-68020000D02*
X73410000Y-69020000D01*
X68905000Y-69020000D02*
X68605000Y-68720000D01*
X73410000Y-69020000D02*
X68905000Y-69020000D01*
X103910000Y-54270000D02*
X94660000Y-54270000D01*
X68605000Y-68720000D02*
X68605000Y-67770000D01*
X104910000Y-55270000D02*
X103910000Y-54270000D01*
%TO.N,PB_Diff_Right*%
X109910000Y-60970000D02*
X109910000Y-61958642D01*
X102910000Y-64770000D02*
X102410000Y-65270000D01*
X107098642Y-64770000D02*
X102910000Y-64770000D01*
X102410000Y-65270000D02*
X102410000Y-67020000D01*
X66345000Y-70270000D02*
X76660000Y-70270000D01*
X102410000Y-67020000D02*
X103910000Y-68520000D01*
X109910000Y-61958642D02*
X107098642Y-64770000D01*
X64795000Y-67770000D02*
X64795000Y-68720000D01*
X64795000Y-68720000D02*
X66345000Y-70270000D01*
%TO.N,PB_Diff_Left*%
X107910000Y-68520000D02*
X110660000Y-65770000D01*
X67585000Y-69820000D02*
X66065000Y-68300000D01*
X110660000Y-65770000D02*
X110660000Y-56020000D01*
X66065000Y-68300000D02*
X66065000Y-67770000D01*
X75360000Y-69820000D02*
X67585000Y-69820000D01*
X75660000Y-69520000D02*
X75360000Y-69820000D01*
%TO.N,PB_Grip_FWD*%
X95735000Y-87845000D02*
X94410000Y-86520000D01*
X125116321Y-87845000D02*
X95735000Y-87845000D01*
X125660000Y-79020000D02*
X124410000Y-77770000D01*
X127610000Y-85351321D02*
X125116321Y-87845000D01*
X62255000Y-73365000D02*
X62660000Y-73770000D01*
X124410000Y-77770000D02*
X120910000Y-77770000D01*
X62255000Y-67770000D02*
X62255000Y-73365000D01*
X127610000Y-80970000D02*
X127610000Y-85351321D01*
X125660000Y-79020000D02*
X127610000Y-80970000D01*
%TO.N,PB_Grip_REV*%
X122660000Y-81020000D02*
X119660000Y-84020000D01*
X63525000Y-73385000D02*
X63910000Y-73770000D01*
X63525000Y-67770000D02*
X63525000Y-73385000D01*
%TO.N,RXC*%
X60660000Y-65520000D02*
X59715000Y-66465000D01*
X87785000Y-67145000D02*
X88075000Y-67435000D01*
X88075000Y-67435000D02*
X90255000Y-67435000D01*
X59715000Y-66465000D02*
X59715000Y-67770000D01*
%TO.N,Diff_A_IN_2*%
X45890000Y-60170000D02*
X45890000Y-60645000D01*
X54880000Y-60170000D02*
X55410000Y-60170000D01*
X53780000Y-61270000D02*
X54880000Y-60170000D01*
X45890000Y-60645000D02*
X46515000Y-61270000D01*
X46515000Y-61270000D02*
X53780000Y-61270000D01*
%TO.N,Diff_A_IN_1*%
X55410000Y-61440000D02*
X54490000Y-61440000D01*
X53910000Y-62020000D02*
X45410000Y-62020000D01*
X54490000Y-61440000D02*
X53910000Y-62020000D01*
X45410000Y-62020000D02*
X44620000Y-61230000D01*
X44620000Y-61230000D02*
X44620000Y-60170000D01*
%TO.N,Diff_B_IN_1*%
X117325000Y-59105000D02*
X116660000Y-59770000D01*
X73750000Y-56360000D02*
X75660000Y-58270000D01*
X117325000Y-58370000D02*
X117325000Y-59105000D01*
X75660000Y-58270000D02*
X76410000Y-58270000D01*
X72910000Y-56360000D02*
X73750000Y-56360000D01*
%TO.N,Diff_B_IN_2*%
X75534317Y-59070003D02*
X74094314Y-57630000D01*
X76160000Y-59070003D02*
X75534317Y-59070003D01*
X118595000Y-58370000D02*
X118595000Y-59085000D01*
X74094314Y-57630000D02*
X72910000Y-57630000D01*
X118595000Y-59085000D02*
X117660000Y-60020000D01*
%TO.N,Grip_IN_2*%
X74131471Y-55090000D02*
X76385737Y-57344266D01*
X84545000Y-56970000D02*
X84545000Y-58385000D01*
X72910000Y-55090000D02*
X74131471Y-55090000D01*
X84545000Y-58385000D02*
X84160000Y-58770000D01*
%TO.N,Grip_IN_1*%
X83275000Y-56970000D02*
X83275000Y-58155000D01*
X83275000Y-58155000D02*
X82660000Y-58770000D01*
X72910000Y-53820000D02*
X73710000Y-53820000D01*
X73710000Y-53820000D02*
X76410000Y-56520000D01*
D53*
%TO.N,+5V_USB*%
X56355000Y-46520000D02*
X51660000Y-51215000D01*
X60160000Y-43984516D02*
X61650484Y-45475000D01*
X61650484Y-45475000D02*
X67135000Y-45475000D01*
X57624516Y-46520000D02*
X56355000Y-46520000D01*
X60160000Y-43984516D02*
X57624516Y-46520000D01*
X67135000Y-45475000D02*
X67435000Y-45175000D01*
X60160000Y-42695000D02*
X60160000Y-43984516D01*
%TO.N,Net-(JP1-A)*%
X101510000Y-58720000D02*
X99610000Y-58720000D01*
X99610000Y-58720000D02*
X99410000Y-58520000D01*
D51*
%TO.N,unconnected-(J9-Pad5)*%
X106210001Y-48070000D02*
X106210001Y-50318528D01*
%TO.N,CS_SWT_B_GRIP*%
X96210001Y-49670200D02*
X96210001Y-48070000D01*
X74660000Y-63020000D02*
X73700000Y-63980000D01*
X108008529Y-52270000D02*
X98809801Y-52270000D01*
X98809801Y-52270000D02*
X96210001Y-49670200D01*
X122660000Y-43020000D02*
X120554250Y-45125750D01*
X73700000Y-63980000D02*
X72910000Y-63980000D01*
X115152779Y-45125750D02*
X108008529Y-52270000D01*
X96210001Y-49219999D02*
X89410000Y-56020000D01*
X120554250Y-45125750D02*
X115152779Y-45125750D01*
X89410000Y-56020000D02*
X89410000Y-60020000D01*
X89410000Y-60020000D02*
X87410000Y-62020000D01*
X96210001Y-48070000D02*
X96210001Y-49219999D01*
%TO.N,CS_SWT_A_GRIP*%
X64660000Y-66020000D02*
X61785000Y-66020000D01*
X118904200Y-43525800D02*
X102954201Y-43525800D01*
X101210001Y-45270000D02*
X101210001Y-48070000D01*
X61785000Y-66020000D02*
X60985000Y-66820000D01*
X102954201Y-43525800D02*
X101210001Y-45270000D01*
X60985000Y-66820000D02*
X60985000Y-67770000D01*
X119410000Y-43020000D02*
X118904200Y-43525800D01*
%TD*%
M02*
