%TF.GenerationSoftware,KiCad,Pcbnew,8.0.3-8.0.3-0~ubuntu22.04.1*%
%TF.CreationDate,2024-07-03T00:47:08-04:00*%
%TF.ProjectId,arm_drive_j3_4_5,61726d5f-6472-4697-9665-5f6a335f345f,rev?*%
%TF.SameCoordinates,Original*%
%TF.FileFunction,Legend,Bot*%
%TF.FilePolarity,Positive*%
%FSLAX46Y46*%
G04 Gerber Fmt 4.6, Leading zero omitted, Abs format (unit mm)*
G04 Created by KiCad (PCBNEW 8.0.3-8.0.3-0~ubuntu22.04.1) date 2024-07-03 00:47:08*
%MOMM*%
%LPD*%
G01*
G04 APERTURE LIST*
G04 Aperture macros list*
%AMRoundRect*
0 Rectangle with rounded corners*
0 $1 Rounding radius*
0 $2 $3 $4 $5 $6 $7 $8 $9 X,Y pos of 4 corners*
0 Add a 4 corners polygon primitive as box body*
4,1,4,$2,$3,$4,$5,$6,$7,$8,$9,$2,$3,0*
0 Add four circle primitives for the rounded corners*
1,1,$1+$1,$2,$3*
1,1,$1+$1,$4,$5*
1,1,$1+$1,$6,$7*
1,1,$1+$1,$8,$9*
0 Add four rect primitives between the rounded corners*
20,1,$1+$1,$2,$3,$4,$5,0*
20,1,$1+$1,$4,$5,$6,$7,0*
20,1,$1+$1,$6,$7,$8,$9,0*
20,1,$1+$1,$8,$9,$2,$3,0*%
G04 Aperture macros list end*
%ADD10C,0.100000*%
%ADD11C,0.150000*%
%ADD12C,0.508000*%
%ADD13C,0.120000*%
%ADD14C,0.152400*%
%ADD15C,0.127000*%
%ADD16C,0.200000*%
%ADD17C,1.712000*%
%ADD18RoundRect,0.102000X-1.275000X-1.275000X1.275000X-1.275000X1.275000X1.275000X-1.275000X1.275000X0*%
%ADD19C,2.754000*%
%ADD20C,2.604000*%
%ADD21R,2.400000X2.400000*%
%ADD22C,2.400000*%
%ADD23R,1.700000X1.700000*%
%ADD24O,1.700000X1.700000*%
%ADD25C,3.600000*%
%ADD26C,5.600000*%
%ADD27C,1.400000*%
%ADD28R,3.500000X3.500000*%
%ADD29C,3.500000*%
%ADD30C,3.350000*%
%ADD31RoundRect,0.102000X-0.634000X-0.634000X0.634000X-0.634000X0.634000X0.634000X-0.634000X0.634000X0*%
%ADD32C,1.472000*%
%ADD33RoundRect,0.250000X-0.450000X0.350000X-0.450000X-0.350000X0.450000X-0.350000X0.450000X0.350000X0*%
%ADD34RoundRect,0.375000X0.625000X0.375000X-0.625000X0.375000X-0.625000X-0.375000X0.625000X-0.375000X0*%
%ADD35RoundRect,0.500000X0.500000X1.400000X-0.500000X1.400000X-0.500000X-1.400000X0.500000X-1.400000X0*%
%ADD36RoundRect,0.250000X-0.475000X0.337500X-0.475000X-0.337500X0.475000X-0.337500X0.475000X0.337500X0*%
%ADD37RoundRect,0.250000X0.337500X0.475000X-0.337500X0.475000X-0.337500X-0.475000X0.337500X-0.475000X0*%
%ADD38RoundRect,0.250000X0.350000X0.450000X-0.350000X0.450000X-0.350000X-0.450000X0.350000X-0.450000X0*%
%ADD39RoundRect,0.250000X0.475000X-0.337500X0.475000X0.337500X-0.475000X0.337500X-0.475000X-0.337500X0*%
%ADD40R,3.100000X2.600000*%
%ADD41R,0.600000X1.550000*%
%ADD42R,6.450000X2.950000*%
%ADD43RoundRect,0.250000X-0.350000X-0.450000X0.350000X-0.450000X0.350000X0.450000X-0.350000X0.450000X0*%
%ADD44R,1.295400X4.495800*%
%ADD45R,1.803400X3.911600*%
%ADD46RoundRect,0.250000X0.450000X-0.350000X0.450000X0.350000X-0.450000X0.350000X-0.450000X-0.350000X0*%
%ADD47RoundRect,0.250000X-0.337500X-0.475000X0.337500X-0.475000X0.337500X0.475000X-0.337500X0.475000X0*%
%ADD48RoundRect,0.055580X-0.341420X0.921420X-0.341420X-0.921420X0.341420X-0.921420X0.341420X0.921420X0*%
%ADD49RoundRect,0.375000X-0.625000X-0.375000X0.625000X-0.375000X0.625000X0.375000X-0.625000X0.375000X0*%
%ADD50RoundRect,0.500000X-0.500000X-1.400000X0.500000X-1.400000X0.500000X1.400000X-0.500000X1.400000X0*%
%ADD51R,1.500000X0.900000*%
%ADD52R,0.900000X1.500000*%
%ADD53R,3.900000X3.900000*%
%ADD54RoundRect,0.100000X-0.100000X-0.575000X0.100000X-0.575000X0.100000X0.575000X-0.100000X0.575000X0*%
%ADD55O,0.900000X1.600000*%
%ADD56RoundRect,0.250000X-0.550000X-0.450000X0.550000X-0.450000X0.550000X0.450000X-0.550000X0.450000X0*%
%ADD57RoundRect,0.250000X-0.700000X-0.700000X0.700000X-0.700000X0.700000X0.700000X-0.700000X0.700000X0*%
%ADD58RoundRect,0.150000X-0.825000X-0.150000X0.825000X-0.150000X0.825000X0.150000X-0.825000X0.150000X0*%
G04 APERTURE END LIST*
D10*
X99910000Y-50020000D02*
X99910000Y-52770000D01*
X95160000Y-50020000D02*
X95160000Y-52770000D01*
X104910000Y-52770000D02*
X104910000Y-50020000D01*
D11*
X104148094Y-52512200D02*
X104005237Y-52559819D01*
X104005237Y-52559819D02*
X103767142Y-52559819D01*
X103767142Y-52559819D02*
X103671904Y-52512200D01*
X103671904Y-52512200D02*
X103624285Y-52464580D01*
X103624285Y-52464580D02*
X103576666Y-52369342D01*
X103576666Y-52369342D02*
X103576666Y-52274104D01*
X103576666Y-52274104D02*
X103624285Y-52178866D01*
X103624285Y-52178866D02*
X103671904Y-52131247D01*
X103671904Y-52131247D02*
X103767142Y-52083628D01*
X103767142Y-52083628D02*
X103957618Y-52036009D01*
X103957618Y-52036009D02*
X104052856Y-51988390D01*
X104052856Y-51988390D02*
X104100475Y-51940771D01*
X104100475Y-51940771D02*
X104148094Y-51845533D01*
X104148094Y-51845533D02*
X104148094Y-51750295D01*
X104148094Y-51750295D02*
X104100475Y-51655057D01*
X104100475Y-51655057D02*
X104052856Y-51607438D01*
X104052856Y-51607438D02*
X103957618Y-51559819D01*
X103957618Y-51559819D02*
X103719523Y-51559819D01*
X103719523Y-51559819D02*
X103576666Y-51607438D01*
X103243332Y-51559819D02*
X103005237Y-52559819D01*
X103005237Y-52559819D02*
X102814761Y-51845533D01*
X102814761Y-51845533D02*
X102624285Y-52559819D01*
X102624285Y-52559819D02*
X102386190Y-51559819D01*
X102148094Y-51559819D02*
X101576666Y-51559819D01*
X101862380Y-52559819D02*
X101862380Y-51559819D01*
X100909999Y-52036009D02*
X100767142Y-52083628D01*
X100767142Y-52083628D02*
X100719523Y-52131247D01*
X100719523Y-52131247D02*
X100671904Y-52226485D01*
X100671904Y-52226485D02*
X100671904Y-52369342D01*
X100671904Y-52369342D02*
X100719523Y-52464580D01*
X100719523Y-52464580D02*
X100767142Y-52512200D01*
X100767142Y-52512200D02*
X100862380Y-52559819D01*
X100862380Y-52559819D02*
X101243332Y-52559819D01*
X101243332Y-52559819D02*
X101243332Y-51559819D01*
X101243332Y-51559819D02*
X100909999Y-51559819D01*
X100909999Y-51559819D02*
X100814761Y-51607438D01*
X100814761Y-51607438D02*
X100767142Y-51655057D01*
X100767142Y-51655057D02*
X100719523Y-51750295D01*
X100719523Y-51750295D02*
X100719523Y-51845533D01*
X100719523Y-51845533D02*
X100767142Y-51940771D01*
X100767142Y-51940771D02*
X100814761Y-51988390D01*
X100814761Y-51988390D02*
X100909999Y-52036009D01*
X100909999Y-52036009D02*
X101243332Y-52036009D01*
X99326666Y-52512200D02*
X99183809Y-52559819D01*
X99183809Y-52559819D02*
X98945714Y-52559819D01*
X98945714Y-52559819D02*
X98850476Y-52512200D01*
X98850476Y-52512200D02*
X98802857Y-52464580D01*
X98802857Y-52464580D02*
X98755238Y-52369342D01*
X98755238Y-52369342D02*
X98755238Y-52274104D01*
X98755238Y-52274104D02*
X98802857Y-52178866D01*
X98802857Y-52178866D02*
X98850476Y-52131247D01*
X98850476Y-52131247D02*
X98945714Y-52083628D01*
X98945714Y-52083628D02*
X99136190Y-52036009D01*
X99136190Y-52036009D02*
X99231428Y-51988390D01*
X99231428Y-51988390D02*
X99279047Y-51940771D01*
X99279047Y-51940771D02*
X99326666Y-51845533D01*
X99326666Y-51845533D02*
X99326666Y-51750295D01*
X99326666Y-51750295D02*
X99279047Y-51655057D01*
X99279047Y-51655057D02*
X99231428Y-51607438D01*
X99231428Y-51607438D02*
X99136190Y-51559819D01*
X99136190Y-51559819D02*
X98898095Y-51559819D01*
X98898095Y-51559819D02*
X98755238Y-51607438D01*
X98421904Y-51559819D02*
X98183809Y-52559819D01*
X98183809Y-52559819D02*
X97993333Y-51845533D01*
X97993333Y-51845533D02*
X97802857Y-52559819D01*
X97802857Y-52559819D02*
X97564762Y-51559819D01*
X97326666Y-51559819D02*
X96755238Y-51559819D01*
X97040952Y-52559819D02*
X97040952Y-51559819D01*
X96469523Y-52274104D02*
X95993333Y-52274104D01*
X96564761Y-52559819D02*
X96231428Y-51559819D01*
X96231428Y-51559819D02*
X95898095Y-52559819D01*
X123302857Y-77974819D02*
X123636190Y-77498628D01*
X123874285Y-77974819D02*
X123874285Y-76974819D01*
X123874285Y-76974819D02*
X123493333Y-76974819D01*
X123493333Y-76974819D02*
X123398095Y-77022438D01*
X123398095Y-77022438D02*
X123350476Y-77070057D01*
X123350476Y-77070057D02*
X123302857Y-77165295D01*
X123302857Y-77165295D02*
X123302857Y-77308152D01*
X123302857Y-77308152D02*
X123350476Y-77403390D01*
X123350476Y-77403390D02*
X123398095Y-77451009D01*
X123398095Y-77451009D02*
X123493333Y-77498628D01*
X123493333Y-77498628D02*
X123874285Y-77498628D01*
X122350476Y-77974819D02*
X122921904Y-77974819D01*
X122636190Y-77974819D02*
X122636190Y-76974819D01*
X122636190Y-76974819D02*
X122731428Y-77117676D01*
X122731428Y-77117676D02*
X122826666Y-77212914D01*
X122826666Y-77212914D02*
X122921904Y-77260533D01*
X121398095Y-77974819D02*
X121969523Y-77974819D01*
X121683809Y-77974819D02*
X121683809Y-76974819D01*
X121683809Y-76974819D02*
X121779047Y-77117676D01*
X121779047Y-77117676D02*
X121874285Y-77212914D01*
X121874285Y-77212914D02*
X121969523Y-77260533D01*
X113671904Y-74974819D02*
X113671904Y-75784342D01*
X113671904Y-75784342D02*
X113624285Y-75879580D01*
X113624285Y-75879580D02*
X113576666Y-75927200D01*
X113576666Y-75927200D02*
X113481428Y-75974819D01*
X113481428Y-75974819D02*
X113290952Y-75974819D01*
X113290952Y-75974819D02*
X113195714Y-75927200D01*
X113195714Y-75927200D02*
X113148095Y-75879580D01*
X113148095Y-75879580D02*
X113100476Y-75784342D01*
X113100476Y-75784342D02*
X113100476Y-74974819D01*
X112719523Y-74974819D02*
X112100476Y-74974819D01*
X112100476Y-74974819D02*
X112433809Y-75355771D01*
X112433809Y-75355771D02*
X112290952Y-75355771D01*
X112290952Y-75355771D02*
X112195714Y-75403390D01*
X112195714Y-75403390D02*
X112148095Y-75451009D01*
X112148095Y-75451009D02*
X112100476Y-75546247D01*
X112100476Y-75546247D02*
X112100476Y-75784342D01*
X112100476Y-75784342D02*
X112148095Y-75879580D01*
X112148095Y-75879580D02*
X112195714Y-75927200D01*
X112195714Y-75927200D02*
X112290952Y-75974819D01*
X112290952Y-75974819D02*
X112576666Y-75974819D01*
X112576666Y-75974819D02*
X112671904Y-75927200D01*
X112671904Y-75927200D02*
X112719523Y-75879580D01*
X112339580Y-54603333D02*
X112387200Y-54555714D01*
X112387200Y-54555714D02*
X112434819Y-54412857D01*
X112434819Y-54412857D02*
X112434819Y-54317619D01*
X112434819Y-54317619D02*
X112387200Y-54174762D01*
X112387200Y-54174762D02*
X112291961Y-54079524D01*
X112291961Y-54079524D02*
X112196723Y-54031905D01*
X112196723Y-54031905D02*
X112006247Y-53984286D01*
X112006247Y-53984286D02*
X111863390Y-53984286D01*
X111863390Y-53984286D02*
X111672914Y-54031905D01*
X111672914Y-54031905D02*
X111577676Y-54079524D01*
X111577676Y-54079524D02*
X111482438Y-54174762D01*
X111482438Y-54174762D02*
X111434819Y-54317619D01*
X111434819Y-54317619D02*
X111434819Y-54412857D01*
X111434819Y-54412857D02*
X111482438Y-54555714D01*
X111482438Y-54555714D02*
X111530057Y-54603333D01*
X111863390Y-55174762D02*
X111815771Y-55079524D01*
X111815771Y-55079524D02*
X111768152Y-55031905D01*
X111768152Y-55031905D02*
X111672914Y-54984286D01*
X111672914Y-54984286D02*
X111625295Y-54984286D01*
X111625295Y-54984286D02*
X111530057Y-55031905D01*
X111530057Y-55031905D02*
X111482438Y-55079524D01*
X111482438Y-55079524D02*
X111434819Y-55174762D01*
X111434819Y-55174762D02*
X111434819Y-55365238D01*
X111434819Y-55365238D02*
X111482438Y-55460476D01*
X111482438Y-55460476D02*
X111530057Y-55508095D01*
X111530057Y-55508095D02*
X111625295Y-55555714D01*
X111625295Y-55555714D02*
X111672914Y-55555714D01*
X111672914Y-55555714D02*
X111768152Y-55508095D01*
X111768152Y-55508095D02*
X111815771Y-55460476D01*
X111815771Y-55460476D02*
X111863390Y-55365238D01*
X111863390Y-55365238D02*
X111863390Y-55174762D01*
X111863390Y-55174762D02*
X111911009Y-55079524D01*
X111911009Y-55079524D02*
X111958628Y-55031905D01*
X111958628Y-55031905D02*
X112053866Y-54984286D01*
X112053866Y-54984286D02*
X112244342Y-54984286D01*
X112244342Y-54984286D02*
X112339580Y-55031905D01*
X112339580Y-55031905D02*
X112387200Y-55079524D01*
X112387200Y-55079524D02*
X112434819Y-55174762D01*
X112434819Y-55174762D02*
X112434819Y-55365238D01*
X112434819Y-55365238D02*
X112387200Y-55460476D01*
X112387200Y-55460476D02*
X112339580Y-55508095D01*
X112339580Y-55508095D02*
X112244342Y-55555714D01*
X112244342Y-55555714D02*
X112053866Y-55555714D01*
X112053866Y-55555714D02*
X111958628Y-55508095D01*
X111958628Y-55508095D02*
X111911009Y-55460476D01*
X111911009Y-55460476D02*
X111863390Y-55365238D01*
X60076666Y-78199580D02*
X60124285Y-78247200D01*
X60124285Y-78247200D02*
X60267142Y-78294819D01*
X60267142Y-78294819D02*
X60362380Y-78294819D01*
X60362380Y-78294819D02*
X60505237Y-78247200D01*
X60505237Y-78247200D02*
X60600475Y-78151961D01*
X60600475Y-78151961D02*
X60648094Y-78056723D01*
X60648094Y-78056723D02*
X60695713Y-77866247D01*
X60695713Y-77866247D02*
X60695713Y-77723390D01*
X60695713Y-77723390D02*
X60648094Y-77532914D01*
X60648094Y-77532914D02*
X60600475Y-77437676D01*
X60600475Y-77437676D02*
X60505237Y-77342438D01*
X60505237Y-77342438D02*
X60362380Y-77294819D01*
X60362380Y-77294819D02*
X60267142Y-77294819D01*
X60267142Y-77294819D02*
X60124285Y-77342438D01*
X60124285Y-77342438D02*
X60076666Y-77390057D01*
X59124285Y-78294819D02*
X59695713Y-78294819D01*
X59409999Y-78294819D02*
X59409999Y-77294819D01*
X59409999Y-77294819D02*
X59505237Y-77437676D01*
X59505237Y-77437676D02*
X59600475Y-77532914D01*
X59600475Y-77532914D02*
X59695713Y-77580533D01*
X92366666Y-59699580D02*
X92414285Y-59747200D01*
X92414285Y-59747200D02*
X92557142Y-59794819D01*
X92557142Y-59794819D02*
X92652380Y-59794819D01*
X92652380Y-59794819D02*
X92795237Y-59747200D01*
X92795237Y-59747200D02*
X92890475Y-59651961D01*
X92890475Y-59651961D02*
X92938094Y-59556723D01*
X92938094Y-59556723D02*
X92985713Y-59366247D01*
X92985713Y-59366247D02*
X92985713Y-59223390D01*
X92985713Y-59223390D02*
X92938094Y-59032914D01*
X92938094Y-59032914D02*
X92890475Y-58937676D01*
X92890475Y-58937676D02*
X92795237Y-58842438D01*
X92795237Y-58842438D02*
X92652380Y-58794819D01*
X92652380Y-58794819D02*
X92557142Y-58794819D01*
X92557142Y-58794819D02*
X92414285Y-58842438D01*
X92414285Y-58842438D02*
X92366666Y-58890057D01*
X92033332Y-58794819D02*
X91414285Y-58794819D01*
X91414285Y-58794819D02*
X91747618Y-59175771D01*
X91747618Y-59175771D02*
X91604761Y-59175771D01*
X91604761Y-59175771D02*
X91509523Y-59223390D01*
X91509523Y-59223390D02*
X91461904Y-59271009D01*
X91461904Y-59271009D02*
X91414285Y-59366247D01*
X91414285Y-59366247D02*
X91414285Y-59604342D01*
X91414285Y-59604342D02*
X91461904Y-59699580D01*
X91461904Y-59699580D02*
X91509523Y-59747200D01*
X91509523Y-59747200D02*
X91604761Y-59794819D01*
X91604761Y-59794819D02*
X91890475Y-59794819D01*
X91890475Y-59794819D02*
X91985713Y-59747200D01*
X91985713Y-59747200D02*
X92033332Y-59699580D01*
X106076666Y-54074819D02*
X106409999Y-53598628D01*
X106648094Y-54074819D02*
X106648094Y-53074819D01*
X106648094Y-53074819D02*
X106267142Y-53074819D01*
X106267142Y-53074819D02*
X106171904Y-53122438D01*
X106171904Y-53122438D02*
X106124285Y-53170057D01*
X106124285Y-53170057D02*
X106076666Y-53265295D01*
X106076666Y-53265295D02*
X106076666Y-53408152D01*
X106076666Y-53408152D02*
X106124285Y-53503390D01*
X106124285Y-53503390D02*
X106171904Y-53551009D01*
X106171904Y-53551009D02*
X106267142Y-53598628D01*
X106267142Y-53598628D02*
X106648094Y-53598628D01*
X105743332Y-53074819D02*
X105076666Y-53074819D01*
X105076666Y-53074819D02*
X105505237Y-54074819D01*
X98552857Y-59629580D02*
X98600476Y-59677200D01*
X98600476Y-59677200D02*
X98743333Y-59724819D01*
X98743333Y-59724819D02*
X98838571Y-59724819D01*
X98838571Y-59724819D02*
X98981428Y-59677200D01*
X98981428Y-59677200D02*
X99076666Y-59581961D01*
X99076666Y-59581961D02*
X99124285Y-59486723D01*
X99124285Y-59486723D02*
X99171904Y-59296247D01*
X99171904Y-59296247D02*
X99171904Y-59153390D01*
X99171904Y-59153390D02*
X99124285Y-58962914D01*
X99124285Y-58962914D02*
X99076666Y-58867676D01*
X99076666Y-58867676D02*
X98981428Y-58772438D01*
X98981428Y-58772438D02*
X98838571Y-58724819D01*
X98838571Y-58724819D02*
X98743333Y-58724819D01*
X98743333Y-58724819D02*
X98600476Y-58772438D01*
X98600476Y-58772438D02*
X98552857Y-58820057D01*
X97600476Y-59724819D02*
X98171904Y-59724819D01*
X97886190Y-59724819D02*
X97886190Y-58724819D01*
X97886190Y-58724819D02*
X97981428Y-58867676D01*
X97981428Y-58867676D02*
X98076666Y-58962914D01*
X98076666Y-58962914D02*
X98171904Y-59010533D01*
X97267142Y-58724819D02*
X96648095Y-58724819D01*
X96648095Y-58724819D02*
X96981428Y-59105771D01*
X96981428Y-59105771D02*
X96838571Y-59105771D01*
X96838571Y-59105771D02*
X96743333Y-59153390D01*
X96743333Y-59153390D02*
X96695714Y-59201009D01*
X96695714Y-59201009D02*
X96648095Y-59296247D01*
X96648095Y-59296247D02*
X96648095Y-59534342D01*
X96648095Y-59534342D02*
X96695714Y-59629580D01*
X96695714Y-59629580D02*
X96743333Y-59677200D01*
X96743333Y-59677200D02*
X96838571Y-59724819D01*
X96838571Y-59724819D02*
X97124285Y-59724819D01*
X97124285Y-59724819D02*
X97219523Y-59677200D01*
X97219523Y-59677200D02*
X97267142Y-59629580D01*
X88364819Y-53508095D02*
X89174342Y-53508095D01*
X89174342Y-53508095D02*
X89269580Y-53555714D01*
X89269580Y-53555714D02*
X89317200Y-53603333D01*
X89317200Y-53603333D02*
X89364819Y-53698571D01*
X89364819Y-53698571D02*
X89364819Y-53889047D01*
X89364819Y-53889047D02*
X89317200Y-53984285D01*
X89317200Y-53984285D02*
X89269580Y-54031904D01*
X89269580Y-54031904D02*
X89174342Y-54079523D01*
X89174342Y-54079523D02*
X88364819Y-54079523D01*
X88364819Y-54460476D02*
X88364819Y-55127142D01*
X88364819Y-55127142D02*
X89364819Y-54698571D01*
X98576666Y-74624819D02*
X98909999Y-74148628D01*
X99148094Y-74624819D02*
X99148094Y-73624819D01*
X99148094Y-73624819D02*
X98767142Y-73624819D01*
X98767142Y-73624819D02*
X98671904Y-73672438D01*
X98671904Y-73672438D02*
X98624285Y-73720057D01*
X98624285Y-73720057D02*
X98576666Y-73815295D01*
X98576666Y-73815295D02*
X98576666Y-73958152D01*
X98576666Y-73958152D02*
X98624285Y-74053390D01*
X98624285Y-74053390D02*
X98671904Y-74101009D01*
X98671904Y-74101009D02*
X98767142Y-74148628D01*
X98767142Y-74148628D02*
X99148094Y-74148628D01*
X97719523Y-73958152D02*
X97719523Y-74624819D01*
X97957618Y-73577200D02*
X98195713Y-74291485D01*
X98195713Y-74291485D02*
X97576666Y-74291485D01*
X79052857Y-46129580D02*
X79100476Y-46177200D01*
X79100476Y-46177200D02*
X79243333Y-46224819D01*
X79243333Y-46224819D02*
X79338571Y-46224819D01*
X79338571Y-46224819D02*
X79481428Y-46177200D01*
X79481428Y-46177200D02*
X79576666Y-46081961D01*
X79576666Y-46081961D02*
X79624285Y-45986723D01*
X79624285Y-45986723D02*
X79671904Y-45796247D01*
X79671904Y-45796247D02*
X79671904Y-45653390D01*
X79671904Y-45653390D02*
X79624285Y-45462914D01*
X79624285Y-45462914D02*
X79576666Y-45367676D01*
X79576666Y-45367676D02*
X79481428Y-45272438D01*
X79481428Y-45272438D02*
X79338571Y-45224819D01*
X79338571Y-45224819D02*
X79243333Y-45224819D01*
X79243333Y-45224819D02*
X79100476Y-45272438D01*
X79100476Y-45272438D02*
X79052857Y-45320057D01*
X78100476Y-46224819D02*
X78671904Y-46224819D01*
X78386190Y-46224819D02*
X78386190Y-45224819D01*
X78386190Y-45224819D02*
X78481428Y-45367676D01*
X78481428Y-45367676D02*
X78576666Y-45462914D01*
X78576666Y-45462914D02*
X78671904Y-45510533D01*
X77767142Y-45224819D02*
X77100476Y-45224819D01*
X77100476Y-45224819D02*
X77529047Y-46224819D01*
X102126667Y-48615180D02*
X102126667Y-47900895D01*
X102126667Y-47900895D02*
X102079048Y-47758038D01*
X102079048Y-47758038D02*
X101983810Y-47662800D01*
X101983810Y-47662800D02*
X101840953Y-47615180D01*
X101840953Y-47615180D02*
X101745715Y-47615180D01*
X102650477Y-47615180D02*
X102840953Y-47615180D01*
X102840953Y-47615180D02*
X102936191Y-47662800D01*
X102936191Y-47662800D02*
X102983810Y-47710419D01*
X102983810Y-47710419D02*
X103079048Y-47853276D01*
X103079048Y-47853276D02*
X103126667Y-48043752D01*
X103126667Y-48043752D02*
X103126667Y-48424704D01*
X103126667Y-48424704D02*
X103079048Y-48519942D01*
X103079048Y-48519942D02*
X103031429Y-48567561D01*
X103031429Y-48567561D02*
X102936191Y-48615180D01*
X102936191Y-48615180D02*
X102745715Y-48615180D01*
X102745715Y-48615180D02*
X102650477Y-48567561D01*
X102650477Y-48567561D02*
X102602858Y-48519942D01*
X102602858Y-48519942D02*
X102555239Y-48424704D01*
X102555239Y-48424704D02*
X102555239Y-48186609D01*
X102555239Y-48186609D02*
X102602858Y-48091371D01*
X102602858Y-48091371D02*
X102650477Y-48043752D01*
X102650477Y-48043752D02*
X102745715Y-47996133D01*
X102745715Y-47996133D02*
X102936191Y-47996133D01*
X102936191Y-47996133D02*
X103031429Y-48043752D01*
X103031429Y-48043752D02*
X103079048Y-48091371D01*
X103079048Y-48091371D02*
X103126667Y-48186609D01*
X127764819Y-79377142D02*
X127288628Y-79043809D01*
X127764819Y-78805714D02*
X126764819Y-78805714D01*
X126764819Y-78805714D02*
X126764819Y-79186666D01*
X126764819Y-79186666D02*
X126812438Y-79281904D01*
X126812438Y-79281904D02*
X126860057Y-79329523D01*
X126860057Y-79329523D02*
X126955295Y-79377142D01*
X126955295Y-79377142D02*
X127098152Y-79377142D01*
X127098152Y-79377142D02*
X127193390Y-79329523D01*
X127193390Y-79329523D02*
X127241009Y-79281904D01*
X127241009Y-79281904D02*
X127288628Y-79186666D01*
X127288628Y-79186666D02*
X127288628Y-78805714D01*
X127764819Y-80329523D02*
X127764819Y-79758095D01*
X127764819Y-80043809D02*
X126764819Y-80043809D01*
X126764819Y-80043809D02*
X126907676Y-79948571D01*
X126907676Y-79948571D02*
X127002914Y-79853333D01*
X127002914Y-79853333D02*
X127050533Y-79758095D01*
X126764819Y-80948571D02*
X126764819Y-81043809D01*
X126764819Y-81043809D02*
X126812438Y-81139047D01*
X126812438Y-81139047D02*
X126860057Y-81186666D01*
X126860057Y-81186666D02*
X126955295Y-81234285D01*
X126955295Y-81234285D02*
X127145771Y-81281904D01*
X127145771Y-81281904D02*
X127383866Y-81281904D01*
X127383866Y-81281904D02*
X127574342Y-81234285D01*
X127574342Y-81234285D02*
X127669580Y-81186666D01*
X127669580Y-81186666D02*
X127717200Y-81139047D01*
X127717200Y-81139047D02*
X127764819Y-81043809D01*
X127764819Y-81043809D02*
X127764819Y-80948571D01*
X127764819Y-80948571D02*
X127717200Y-80853333D01*
X127717200Y-80853333D02*
X127669580Y-80805714D01*
X127669580Y-80805714D02*
X127574342Y-80758095D01*
X127574342Y-80758095D02*
X127383866Y-80710476D01*
X127383866Y-80710476D02*
X127145771Y-80710476D01*
X127145771Y-80710476D02*
X126955295Y-80758095D01*
X126955295Y-80758095D02*
X126860057Y-80805714D01*
X126860057Y-80805714D02*
X126812438Y-80853333D01*
X126812438Y-80853333D02*
X126764819Y-80948571D01*
X92366666Y-63199580D02*
X92414285Y-63247200D01*
X92414285Y-63247200D02*
X92557142Y-63294819D01*
X92557142Y-63294819D02*
X92652380Y-63294819D01*
X92652380Y-63294819D02*
X92795237Y-63247200D01*
X92795237Y-63247200D02*
X92890475Y-63151961D01*
X92890475Y-63151961D02*
X92938094Y-63056723D01*
X92938094Y-63056723D02*
X92985713Y-62866247D01*
X92985713Y-62866247D02*
X92985713Y-62723390D01*
X92985713Y-62723390D02*
X92938094Y-62532914D01*
X92938094Y-62532914D02*
X92890475Y-62437676D01*
X92890475Y-62437676D02*
X92795237Y-62342438D01*
X92795237Y-62342438D02*
X92652380Y-62294819D01*
X92652380Y-62294819D02*
X92557142Y-62294819D01*
X92557142Y-62294819D02*
X92414285Y-62342438D01*
X92414285Y-62342438D02*
X92366666Y-62390057D01*
X91509523Y-62628152D02*
X91509523Y-63294819D01*
X91747618Y-62247200D02*
X91985713Y-62961485D01*
X91985713Y-62961485D02*
X91366666Y-62961485D01*
X60552857Y-81824819D02*
X60886190Y-81348628D01*
X61124285Y-81824819D02*
X61124285Y-80824819D01*
X61124285Y-80824819D02*
X60743333Y-80824819D01*
X60743333Y-80824819D02*
X60648095Y-80872438D01*
X60648095Y-80872438D02*
X60600476Y-80920057D01*
X60600476Y-80920057D02*
X60552857Y-81015295D01*
X60552857Y-81015295D02*
X60552857Y-81158152D01*
X60552857Y-81158152D02*
X60600476Y-81253390D01*
X60600476Y-81253390D02*
X60648095Y-81301009D01*
X60648095Y-81301009D02*
X60743333Y-81348628D01*
X60743333Y-81348628D02*
X61124285Y-81348628D01*
X59600476Y-81824819D02*
X60171904Y-81824819D01*
X59886190Y-81824819D02*
X59886190Y-80824819D01*
X59886190Y-80824819D02*
X59981428Y-80967676D01*
X59981428Y-80967676D02*
X60076666Y-81062914D01*
X60076666Y-81062914D02*
X60171904Y-81110533D01*
X59267142Y-80824819D02*
X58648095Y-80824819D01*
X58648095Y-80824819D02*
X58981428Y-81205771D01*
X58981428Y-81205771D02*
X58838571Y-81205771D01*
X58838571Y-81205771D02*
X58743333Y-81253390D01*
X58743333Y-81253390D02*
X58695714Y-81301009D01*
X58695714Y-81301009D02*
X58648095Y-81396247D01*
X58648095Y-81396247D02*
X58648095Y-81634342D01*
X58648095Y-81634342D02*
X58695714Y-81729580D01*
X58695714Y-81729580D02*
X58743333Y-81777200D01*
X58743333Y-81777200D02*
X58838571Y-81824819D01*
X58838571Y-81824819D02*
X59124285Y-81824819D01*
X59124285Y-81824819D02*
X59219523Y-81777200D01*
X59219523Y-81777200D02*
X59267142Y-81729580D01*
X77839580Y-52627142D02*
X77887200Y-52579523D01*
X77887200Y-52579523D02*
X77934819Y-52436666D01*
X77934819Y-52436666D02*
X77934819Y-52341428D01*
X77934819Y-52341428D02*
X77887200Y-52198571D01*
X77887200Y-52198571D02*
X77791961Y-52103333D01*
X77791961Y-52103333D02*
X77696723Y-52055714D01*
X77696723Y-52055714D02*
X77506247Y-52008095D01*
X77506247Y-52008095D02*
X77363390Y-52008095D01*
X77363390Y-52008095D02*
X77172914Y-52055714D01*
X77172914Y-52055714D02*
X77077676Y-52103333D01*
X77077676Y-52103333D02*
X76982438Y-52198571D01*
X76982438Y-52198571D02*
X76934819Y-52341428D01*
X76934819Y-52341428D02*
X76934819Y-52436666D01*
X76934819Y-52436666D02*
X76982438Y-52579523D01*
X76982438Y-52579523D02*
X77030057Y-52627142D01*
X77934819Y-53579523D02*
X77934819Y-53008095D01*
X77934819Y-53293809D02*
X76934819Y-53293809D01*
X76934819Y-53293809D02*
X77077676Y-53198571D01*
X77077676Y-53198571D02*
X77172914Y-53103333D01*
X77172914Y-53103333D02*
X77220533Y-53008095D01*
X76934819Y-54198571D02*
X76934819Y-54293809D01*
X76934819Y-54293809D02*
X76982438Y-54389047D01*
X76982438Y-54389047D02*
X77030057Y-54436666D01*
X77030057Y-54436666D02*
X77125295Y-54484285D01*
X77125295Y-54484285D02*
X77315771Y-54531904D01*
X77315771Y-54531904D02*
X77553866Y-54531904D01*
X77553866Y-54531904D02*
X77744342Y-54484285D01*
X77744342Y-54484285D02*
X77839580Y-54436666D01*
X77839580Y-54436666D02*
X77887200Y-54389047D01*
X77887200Y-54389047D02*
X77934819Y-54293809D01*
X77934819Y-54293809D02*
X77934819Y-54198571D01*
X77934819Y-54198571D02*
X77887200Y-54103333D01*
X77887200Y-54103333D02*
X77839580Y-54055714D01*
X77839580Y-54055714D02*
X77744342Y-54008095D01*
X77744342Y-54008095D02*
X77553866Y-53960476D01*
X77553866Y-53960476D02*
X77315771Y-53960476D01*
X77315771Y-53960476D02*
X77125295Y-54008095D01*
X77125295Y-54008095D02*
X77030057Y-54055714D01*
X77030057Y-54055714D02*
X76982438Y-54103333D01*
X76982438Y-54103333D02*
X76934819Y-54198571D01*
X40019580Y-56353333D02*
X40067200Y-56305714D01*
X40067200Y-56305714D02*
X40114819Y-56162857D01*
X40114819Y-56162857D02*
X40114819Y-56067619D01*
X40114819Y-56067619D02*
X40067200Y-55924762D01*
X40067200Y-55924762D02*
X39971961Y-55829524D01*
X39971961Y-55829524D02*
X39876723Y-55781905D01*
X39876723Y-55781905D02*
X39686247Y-55734286D01*
X39686247Y-55734286D02*
X39543390Y-55734286D01*
X39543390Y-55734286D02*
X39352914Y-55781905D01*
X39352914Y-55781905D02*
X39257676Y-55829524D01*
X39257676Y-55829524D02*
X39162438Y-55924762D01*
X39162438Y-55924762D02*
X39114819Y-56067619D01*
X39114819Y-56067619D02*
X39114819Y-56162857D01*
X39114819Y-56162857D02*
X39162438Y-56305714D01*
X39162438Y-56305714D02*
X39210057Y-56353333D01*
X39114819Y-57210476D02*
X39114819Y-57020000D01*
X39114819Y-57020000D02*
X39162438Y-56924762D01*
X39162438Y-56924762D02*
X39210057Y-56877143D01*
X39210057Y-56877143D02*
X39352914Y-56781905D01*
X39352914Y-56781905D02*
X39543390Y-56734286D01*
X39543390Y-56734286D02*
X39924342Y-56734286D01*
X39924342Y-56734286D02*
X40019580Y-56781905D01*
X40019580Y-56781905D02*
X40067200Y-56829524D01*
X40067200Y-56829524D02*
X40114819Y-56924762D01*
X40114819Y-56924762D02*
X40114819Y-57115238D01*
X40114819Y-57115238D02*
X40067200Y-57210476D01*
X40067200Y-57210476D02*
X40019580Y-57258095D01*
X40019580Y-57258095D02*
X39924342Y-57305714D01*
X39924342Y-57305714D02*
X39686247Y-57305714D01*
X39686247Y-57305714D02*
X39591009Y-57258095D01*
X39591009Y-57258095D02*
X39543390Y-57210476D01*
X39543390Y-57210476D02*
X39495771Y-57115238D01*
X39495771Y-57115238D02*
X39495771Y-56924762D01*
X39495771Y-56924762D02*
X39543390Y-56829524D01*
X39543390Y-56829524D02*
X39591009Y-56781905D01*
X39591009Y-56781905D02*
X39686247Y-56734286D01*
X52576666Y-78129580D02*
X52624285Y-78177200D01*
X52624285Y-78177200D02*
X52767142Y-78224819D01*
X52767142Y-78224819D02*
X52862380Y-78224819D01*
X52862380Y-78224819D02*
X53005237Y-78177200D01*
X53005237Y-78177200D02*
X53100475Y-78081961D01*
X53100475Y-78081961D02*
X53148094Y-77986723D01*
X53148094Y-77986723D02*
X53195713Y-77796247D01*
X53195713Y-77796247D02*
X53195713Y-77653390D01*
X53195713Y-77653390D02*
X53148094Y-77462914D01*
X53148094Y-77462914D02*
X53100475Y-77367676D01*
X53100475Y-77367676D02*
X53005237Y-77272438D01*
X53005237Y-77272438D02*
X52862380Y-77224819D01*
X52862380Y-77224819D02*
X52767142Y-77224819D01*
X52767142Y-77224819D02*
X52624285Y-77272438D01*
X52624285Y-77272438D02*
X52576666Y-77320057D01*
X52195713Y-77320057D02*
X52148094Y-77272438D01*
X52148094Y-77272438D02*
X52052856Y-77224819D01*
X52052856Y-77224819D02*
X51814761Y-77224819D01*
X51814761Y-77224819D02*
X51719523Y-77272438D01*
X51719523Y-77272438D02*
X51671904Y-77320057D01*
X51671904Y-77320057D02*
X51624285Y-77415295D01*
X51624285Y-77415295D02*
X51624285Y-77510533D01*
X51624285Y-77510533D02*
X51671904Y-77653390D01*
X51671904Y-77653390D02*
X52243332Y-78224819D01*
X52243332Y-78224819D02*
X51624285Y-78224819D01*
X87979819Y-69258095D02*
X88789342Y-69258095D01*
X88789342Y-69258095D02*
X88884580Y-69305714D01*
X88884580Y-69305714D02*
X88932200Y-69353333D01*
X88932200Y-69353333D02*
X88979819Y-69448571D01*
X88979819Y-69448571D02*
X88979819Y-69639047D01*
X88979819Y-69639047D02*
X88932200Y-69734285D01*
X88932200Y-69734285D02*
X88884580Y-69781904D01*
X88884580Y-69781904D02*
X88789342Y-69829523D01*
X88789342Y-69829523D02*
X87979819Y-69829523D01*
X88075057Y-70258095D02*
X88027438Y-70305714D01*
X88027438Y-70305714D02*
X87979819Y-70400952D01*
X87979819Y-70400952D02*
X87979819Y-70639047D01*
X87979819Y-70639047D02*
X88027438Y-70734285D01*
X88027438Y-70734285D02*
X88075057Y-70781904D01*
X88075057Y-70781904D02*
X88170295Y-70829523D01*
X88170295Y-70829523D02*
X88265533Y-70829523D01*
X88265533Y-70829523D02*
X88408390Y-70781904D01*
X88408390Y-70781904D02*
X88979819Y-70210476D01*
X88979819Y-70210476D02*
X88979819Y-70829523D01*
X121464819Y-41853333D02*
X120988628Y-41520000D01*
X121464819Y-41281905D02*
X120464819Y-41281905D01*
X120464819Y-41281905D02*
X120464819Y-41662857D01*
X120464819Y-41662857D02*
X120512438Y-41758095D01*
X120512438Y-41758095D02*
X120560057Y-41805714D01*
X120560057Y-41805714D02*
X120655295Y-41853333D01*
X120655295Y-41853333D02*
X120798152Y-41853333D01*
X120798152Y-41853333D02*
X120893390Y-41805714D01*
X120893390Y-41805714D02*
X120941009Y-41758095D01*
X120941009Y-41758095D02*
X120988628Y-41662857D01*
X120988628Y-41662857D02*
X120988628Y-41281905D01*
X120464819Y-42758095D02*
X120464819Y-42281905D01*
X120464819Y-42281905D02*
X120941009Y-42234286D01*
X120941009Y-42234286D02*
X120893390Y-42281905D01*
X120893390Y-42281905D02*
X120845771Y-42377143D01*
X120845771Y-42377143D02*
X120845771Y-42615238D01*
X120845771Y-42615238D02*
X120893390Y-42710476D01*
X120893390Y-42710476D02*
X120941009Y-42758095D01*
X120941009Y-42758095D02*
X121036247Y-42805714D01*
X121036247Y-42805714D02*
X121274342Y-42805714D01*
X121274342Y-42805714D02*
X121369580Y-42758095D01*
X121369580Y-42758095D02*
X121417200Y-42710476D01*
X121417200Y-42710476D02*
X121464819Y-42615238D01*
X121464819Y-42615238D02*
X121464819Y-42377143D01*
X121464819Y-42377143D02*
X121417200Y-42281905D01*
X121417200Y-42281905D02*
X121369580Y-42234286D01*
X108671904Y-57474819D02*
X108671904Y-58284342D01*
X108671904Y-58284342D02*
X108624285Y-58379580D01*
X108624285Y-58379580D02*
X108576666Y-58427200D01*
X108576666Y-58427200D02*
X108481428Y-58474819D01*
X108481428Y-58474819D02*
X108290952Y-58474819D01*
X108290952Y-58474819D02*
X108195714Y-58427200D01*
X108195714Y-58427200D02*
X108148095Y-58379580D01*
X108148095Y-58379580D02*
X108100476Y-58284342D01*
X108100476Y-58284342D02*
X108100476Y-57474819D01*
X107481428Y-57903390D02*
X107576666Y-57855771D01*
X107576666Y-57855771D02*
X107624285Y-57808152D01*
X107624285Y-57808152D02*
X107671904Y-57712914D01*
X107671904Y-57712914D02*
X107671904Y-57665295D01*
X107671904Y-57665295D02*
X107624285Y-57570057D01*
X107624285Y-57570057D02*
X107576666Y-57522438D01*
X107576666Y-57522438D02*
X107481428Y-57474819D01*
X107481428Y-57474819D02*
X107290952Y-57474819D01*
X107290952Y-57474819D02*
X107195714Y-57522438D01*
X107195714Y-57522438D02*
X107148095Y-57570057D01*
X107148095Y-57570057D02*
X107100476Y-57665295D01*
X107100476Y-57665295D02*
X107100476Y-57712914D01*
X107100476Y-57712914D02*
X107148095Y-57808152D01*
X107148095Y-57808152D02*
X107195714Y-57855771D01*
X107195714Y-57855771D02*
X107290952Y-57903390D01*
X107290952Y-57903390D02*
X107481428Y-57903390D01*
X107481428Y-57903390D02*
X107576666Y-57951009D01*
X107576666Y-57951009D02*
X107624285Y-57998628D01*
X107624285Y-57998628D02*
X107671904Y-58093866D01*
X107671904Y-58093866D02*
X107671904Y-58284342D01*
X107671904Y-58284342D02*
X107624285Y-58379580D01*
X107624285Y-58379580D02*
X107576666Y-58427200D01*
X107576666Y-58427200D02*
X107481428Y-58474819D01*
X107481428Y-58474819D02*
X107290952Y-58474819D01*
X107290952Y-58474819D02*
X107195714Y-58427200D01*
X107195714Y-58427200D02*
X107148095Y-58379580D01*
X107148095Y-58379580D02*
X107100476Y-58284342D01*
X107100476Y-58284342D02*
X107100476Y-58093866D01*
X107100476Y-58093866D02*
X107148095Y-57998628D01*
X107148095Y-57998628D02*
X107195714Y-57951009D01*
X107195714Y-57951009D02*
X107290952Y-57903390D01*
X99052857Y-71059580D02*
X99100476Y-71107200D01*
X99100476Y-71107200D02*
X99243333Y-71154819D01*
X99243333Y-71154819D02*
X99338571Y-71154819D01*
X99338571Y-71154819D02*
X99481428Y-71107200D01*
X99481428Y-71107200D02*
X99576666Y-71011961D01*
X99576666Y-71011961D02*
X99624285Y-70916723D01*
X99624285Y-70916723D02*
X99671904Y-70726247D01*
X99671904Y-70726247D02*
X99671904Y-70583390D01*
X99671904Y-70583390D02*
X99624285Y-70392914D01*
X99624285Y-70392914D02*
X99576666Y-70297676D01*
X99576666Y-70297676D02*
X99481428Y-70202438D01*
X99481428Y-70202438D02*
X99338571Y-70154819D01*
X99338571Y-70154819D02*
X99243333Y-70154819D01*
X99243333Y-70154819D02*
X99100476Y-70202438D01*
X99100476Y-70202438D02*
X99052857Y-70250057D01*
X98671904Y-70250057D02*
X98624285Y-70202438D01*
X98624285Y-70202438D02*
X98529047Y-70154819D01*
X98529047Y-70154819D02*
X98290952Y-70154819D01*
X98290952Y-70154819D02*
X98195714Y-70202438D01*
X98195714Y-70202438D02*
X98148095Y-70250057D01*
X98148095Y-70250057D02*
X98100476Y-70345295D01*
X98100476Y-70345295D02*
X98100476Y-70440533D01*
X98100476Y-70440533D02*
X98148095Y-70583390D01*
X98148095Y-70583390D02*
X98719523Y-71154819D01*
X98719523Y-71154819D02*
X98100476Y-71154819D01*
X97481428Y-70154819D02*
X97386190Y-70154819D01*
X97386190Y-70154819D02*
X97290952Y-70202438D01*
X97290952Y-70202438D02*
X97243333Y-70250057D01*
X97243333Y-70250057D02*
X97195714Y-70345295D01*
X97195714Y-70345295D02*
X97148095Y-70535771D01*
X97148095Y-70535771D02*
X97148095Y-70773866D01*
X97148095Y-70773866D02*
X97195714Y-70964342D01*
X97195714Y-70964342D02*
X97243333Y-71059580D01*
X97243333Y-71059580D02*
X97290952Y-71107200D01*
X97290952Y-71107200D02*
X97386190Y-71154819D01*
X97386190Y-71154819D02*
X97481428Y-71154819D01*
X97481428Y-71154819D02*
X97576666Y-71107200D01*
X97576666Y-71107200D02*
X97624285Y-71059580D01*
X97624285Y-71059580D02*
X97671904Y-70964342D01*
X97671904Y-70964342D02*
X97719523Y-70773866D01*
X97719523Y-70773866D02*
X97719523Y-70535771D01*
X97719523Y-70535771D02*
X97671904Y-70345295D01*
X97671904Y-70345295D02*
X97624285Y-70250057D01*
X97624285Y-70250057D02*
X97576666Y-70202438D01*
X97576666Y-70202438D02*
X97481428Y-70154819D01*
X104769580Y-79853333D02*
X104817200Y-79805714D01*
X104817200Y-79805714D02*
X104864819Y-79662857D01*
X104864819Y-79662857D02*
X104864819Y-79567619D01*
X104864819Y-79567619D02*
X104817200Y-79424762D01*
X104817200Y-79424762D02*
X104721961Y-79329524D01*
X104721961Y-79329524D02*
X104626723Y-79281905D01*
X104626723Y-79281905D02*
X104436247Y-79234286D01*
X104436247Y-79234286D02*
X104293390Y-79234286D01*
X104293390Y-79234286D02*
X104102914Y-79281905D01*
X104102914Y-79281905D02*
X104007676Y-79329524D01*
X104007676Y-79329524D02*
X103912438Y-79424762D01*
X103912438Y-79424762D02*
X103864819Y-79567619D01*
X103864819Y-79567619D02*
X103864819Y-79662857D01*
X103864819Y-79662857D02*
X103912438Y-79805714D01*
X103912438Y-79805714D02*
X103960057Y-79853333D01*
X103864819Y-80758095D02*
X103864819Y-80281905D01*
X103864819Y-80281905D02*
X104341009Y-80234286D01*
X104341009Y-80234286D02*
X104293390Y-80281905D01*
X104293390Y-80281905D02*
X104245771Y-80377143D01*
X104245771Y-80377143D02*
X104245771Y-80615238D01*
X104245771Y-80615238D02*
X104293390Y-80710476D01*
X104293390Y-80710476D02*
X104341009Y-80758095D01*
X104341009Y-80758095D02*
X104436247Y-80805714D01*
X104436247Y-80805714D02*
X104674342Y-80805714D01*
X104674342Y-80805714D02*
X104769580Y-80758095D01*
X104769580Y-80758095D02*
X104817200Y-80710476D01*
X104817200Y-80710476D02*
X104864819Y-80615238D01*
X104864819Y-80615238D02*
X104864819Y-80377143D01*
X104864819Y-80377143D02*
X104817200Y-80281905D01*
X104817200Y-80281905D02*
X104769580Y-80234286D01*
X99076666Y-53974819D02*
X99409999Y-53498628D01*
X99648094Y-53974819D02*
X99648094Y-52974819D01*
X99648094Y-52974819D02*
X99267142Y-52974819D01*
X99267142Y-52974819D02*
X99171904Y-53022438D01*
X99171904Y-53022438D02*
X99124285Y-53070057D01*
X99124285Y-53070057D02*
X99076666Y-53165295D01*
X99076666Y-53165295D02*
X99076666Y-53308152D01*
X99076666Y-53308152D02*
X99124285Y-53403390D01*
X99124285Y-53403390D02*
X99171904Y-53451009D01*
X99171904Y-53451009D02*
X99267142Y-53498628D01*
X99267142Y-53498628D02*
X99648094Y-53498628D01*
X98124285Y-53974819D02*
X98695713Y-53974819D01*
X98409999Y-53974819D02*
X98409999Y-52974819D01*
X98409999Y-52974819D02*
X98505237Y-53117676D01*
X98505237Y-53117676D02*
X98600475Y-53212914D01*
X98600475Y-53212914D02*
X98695713Y-53260533D01*
X102714819Y-67353333D02*
X102238628Y-67020000D01*
X102714819Y-66781905D02*
X101714819Y-66781905D01*
X101714819Y-66781905D02*
X101714819Y-67162857D01*
X101714819Y-67162857D02*
X101762438Y-67258095D01*
X101762438Y-67258095D02*
X101810057Y-67305714D01*
X101810057Y-67305714D02*
X101905295Y-67353333D01*
X101905295Y-67353333D02*
X102048152Y-67353333D01*
X102048152Y-67353333D02*
X102143390Y-67305714D01*
X102143390Y-67305714D02*
X102191009Y-67258095D01*
X102191009Y-67258095D02*
X102238628Y-67162857D01*
X102238628Y-67162857D02*
X102238628Y-66781905D01*
X102143390Y-67924762D02*
X102095771Y-67829524D01*
X102095771Y-67829524D02*
X102048152Y-67781905D01*
X102048152Y-67781905D02*
X101952914Y-67734286D01*
X101952914Y-67734286D02*
X101905295Y-67734286D01*
X101905295Y-67734286D02*
X101810057Y-67781905D01*
X101810057Y-67781905D02*
X101762438Y-67829524D01*
X101762438Y-67829524D02*
X101714819Y-67924762D01*
X101714819Y-67924762D02*
X101714819Y-68115238D01*
X101714819Y-68115238D02*
X101762438Y-68210476D01*
X101762438Y-68210476D02*
X101810057Y-68258095D01*
X101810057Y-68258095D02*
X101905295Y-68305714D01*
X101905295Y-68305714D02*
X101952914Y-68305714D01*
X101952914Y-68305714D02*
X102048152Y-68258095D01*
X102048152Y-68258095D02*
X102095771Y-68210476D01*
X102095771Y-68210476D02*
X102143390Y-68115238D01*
X102143390Y-68115238D02*
X102143390Y-67924762D01*
X102143390Y-67924762D02*
X102191009Y-67829524D01*
X102191009Y-67829524D02*
X102238628Y-67781905D01*
X102238628Y-67781905D02*
X102333866Y-67734286D01*
X102333866Y-67734286D02*
X102524342Y-67734286D01*
X102524342Y-67734286D02*
X102619580Y-67781905D01*
X102619580Y-67781905D02*
X102667200Y-67829524D01*
X102667200Y-67829524D02*
X102714819Y-67924762D01*
X102714819Y-67924762D02*
X102714819Y-68115238D01*
X102714819Y-68115238D02*
X102667200Y-68210476D01*
X102667200Y-68210476D02*
X102619580Y-68258095D01*
X102619580Y-68258095D02*
X102524342Y-68305714D01*
X102524342Y-68305714D02*
X102333866Y-68305714D01*
X102333866Y-68305714D02*
X102238628Y-68258095D01*
X102238628Y-68258095D02*
X102191009Y-68210476D01*
X102191009Y-68210476D02*
X102143390Y-68115238D01*
X76052857Y-46129580D02*
X76100476Y-46177200D01*
X76100476Y-46177200D02*
X76243333Y-46224819D01*
X76243333Y-46224819D02*
X76338571Y-46224819D01*
X76338571Y-46224819D02*
X76481428Y-46177200D01*
X76481428Y-46177200D02*
X76576666Y-46081961D01*
X76576666Y-46081961D02*
X76624285Y-45986723D01*
X76624285Y-45986723D02*
X76671904Y-45796247D01*
X76671904Y-45796247D02*
X76671904Y-45653390D01*
X76671904Y-45653390D02*
X76624285Y-45462914D01*
X76624285Y-45462914D02*
X76576666Y-45367676D01*
X76576666Y-45367676D02*
X76481428Y-45272438D01*
X76481428Y-45272438D02*
X76338571Y-45224819D01*
X76338571Y-45224819D02*
X76243333Y-45224819D01*
X76243333Y-45224819D02*
X76100476Y-45272438D01*
X76100476Y-45272438D02*
X76052857Y-45320057D01*
X75100476Y-46224819D02*
X75671904Y-46224819D01*
X75386190Y-46224819D02*
X75386190Y-45224819D01*
X75386190Y-45224819D02*
X75481428Y-45367676D01*
X75481428Y-45367676D02*
X75576666Y-45462914D01*
X75576666Y-45462914D02*
X75671904Y-45510533D01*
X74529047Y-45653390D02*
X74624285Y-45605771D01*
X74624285Y-45605771D02*
X74671904Y-45558152D01*
X74671904Y-45558152D02*
X74719523Y-45462914D01*
X74719523Y-45462914D02*
X74719523Y-45415295D01*
X74719523Y-45415295D02*
X74671904Y-45320057D01*
X74671904Y-45320057D02*
X74624285Y-45272438D01*
X74624285Y-45272438D02*
X74529047Y-45224819D01*
X74529047Y-45224819D02*
X74338571Y-45224819D01*
X74338571Y-45224819D02*
X74243333Y-45272438D01*
X74243333Y-45272438D02*
X74195714Y-45320057D01*
X74195714Y-45320057D02*
X74148095Y-45415295D01*
X74148095Y-45415295D02*
X74148095Y-45462914D01*
X74148095Y-45462914D02*
X74195714Y-45558152D01*
X74195714Y-45558152D02*
X74243333Y-45605771D01*
X74243333Y-45605771D02*
X74338571Y-45653390D01*
X74338571Y-45653390D02*
X74529047Y-45653390D01*
X74529047Y-45653390D02*
X74624285Y-45701009D01*
X74624285Y-45701009D02*
X74671904Y-45748628D01*
X74671904Y-45748628D02*
X74719523Y-45843866D01*
X74719523Y-45843866D02*
X74719523Y-46034342D01*
X74719523Y-46034342D02*
X74671904Y-46129580D01*
X74671904Y-46129580D02*
X74624285Y-46177200D01*
X74624285Y-46177200D02*
X74529047Y-46224819D01*
X74529047Y-46224819D02*
X74338571Y-46224819D01*
X74338571Y-46224819D02*
X74243333Y-46177200D01*
X74243333Y-46177200D02*
X74195714Y-46129580D01*
X74195714Y-46129580D02*
X74148095Y-46034342D01*
X74148095Y-46034342D02*
X74148095Y-45843866D01*
X74148095Y-45843866D02*
X74195714Y-45748628D01*
X74195714Y-45748628D02*
X74243333Y-45701009D01*
X74243333Y-45701009D02*
X74338571Y-45653390D01*
X75205180Y-67431904D02*
X74395657Y-67431904D01*
X74395657Y-67431904D02*
X74300419Y-67384285D01*
X74300419Y-67384285D02*
X74252800Y-67336666D01*
X74252800Y-67336666D02*
X74205180Y-67241428D01*
X74205180Y-67241428D02*
X74205180Y-67050952D01*
X74205180Y-67050952D02*
X74252800Y-66955714D01*
X74252800Y-66955714D02*
X74300419Y-66908095D01*
X74300419Y-66908095D02*
X74395657Y-66860476D01*
X74395657Y-66860476D02*
X75205180Y-66860476D01*
X75205180Y-65955714D02*
X75205180Y-66146190D01*
X75205180Y-66146190D02*
X75157561Y-66241428D01*
X75157561Y-66241428D02*
X75109942Y-66289047D01*
X75109942Y-66289047D02*
X74967085Y-66384285D01*
X74967085Y-66384285D02*
X74776609Y-66431904D01*
X74776609Y-66431904D02*
X74395657Y-66431904D01*
X74395657Y-66431904D02*
X74300419Y-66384285D01*
X74300419Y-66384285D02*
X74252800Y-66336666D01*
X74252800Y-66336666D02*
X74205180Y-66241428D01*
X74205180Y-66241428D02*
X74205180Y-66050952D01*
X74205180Y-66050952D02*
X74252800Y-65955714D01*
X74252800Y-65955714D02*
X74300419Y-65908095D01*
X74300419Y-65908095D02*
X74395657Y-65860476D01*
X74395657Y-65860476D02*
X74633752Y-65860476D01*
X74633752Y-65860476D02*
X74728990Y-65908095D01*
X74728990Y-65908095D02*
X74776609Y-65955714D01*
X74776609Y-65955714D02*
X74824228Y-66050952D01*
X74824228Y-66050952D02*
X74824228Y-66241428D01*
X74824228Y-66241428D02*
X74776609Y-66336666D01*
X74776609Y-66336666D02*
X74728990Y-66384285D01*
X74728990Y-66384285D02*
X74633752Y-66431904D01*
X106714819Y-67353333D02*
X106238628Y-67020000D01*
X106714819Y-66781905D02*
X105714819Y-66781905D01*
X105714819Y-66781905D02*
X105714819Y-67162857D01*
X105714819Y-67162857D02*
X105762438Y-67258095D01*
X105762438Y-67258095D02*
X105810057Y-67305714D01*
X105810057Y-67305714D02*
X105905295Y-67353333D01*
X105905295Y-67353333D02*
X106048152Y-67353333D01*
X106048152Y-67353333D02*
X106143390Y-67305714D01*
X106143390Y-67305714D02*
X106191009Y-67258095D01*
X106191009Y-67258095D02*
X106238628Y-67162857D01*
X106238628Y-67162857D02*
X106238628Y-66781905D01*
X106714819Y-67829524D02*
X106714819Y-68020000D01*
X106714819Y-68020000D02*
X106667200Y-68115238D01*
X106667200Y-68115238D02*
X106619580Y-68162857D01*
X106619580Y-68162857D02*
X106476723Y-68258095D01*
X106476723Y-68258095D02*
X106286247Y-68305714D01*
X106286247Y-68305714D02*
X105905295Y-68305714D01*
X105905295Y-68305714D02*
X105810057Y-68258095D01*
X105810057Y-68258095D02*
X105762438Y-68210476D01*
X105762438Y-68210476D02*
X105714819Y-68115238D01*
X105714819Y-68115238D02*
X105714819Y-67924762D01*
X105714819Y-67924762D02*
X105762438Y-67829524D01*
X105762438Y-67829524D02*
X105810057Y-67781905D01*
X105810057Y-67781905D02*
X105905295Y-67734286D01*
X105905295Y-67734286D02*
X106143390Y-67734286D01*
X106143390Y-67734286D02*
X106238628Y-67781905D01*
X106238628Y-67781905D02*
X106286247Y-67829524D01*
X106286247Y-67829524D02*
X106333866Y-67924762D01*
X106333866Y-67924762D02*
X106333866Y-68115238D01*
X106333866Y-68115238D02*
X106286247Y-68210476D01*
X106286247Y-68210476D02*
X106238628Y-68258095D01*
X106238628Y-68258095D02*
X106143390Y-68305714D01*
X61793333Y-43974819D02*
X61793333Y-44689104D01*
X61793333Y-44689104D02*
X61840952Y-44831961D01*
X61840952Y-44831961D02*
X61936190Y-44927200D01*
X61936190Y-44927200D02*
X62079047Y-44974819D01*
X62079047Y-44974819D02*
X62174285Y-44974819D01*
X60793333Y-44974819D02*
X61364761Y-44974819D01*
X61079047Y-44974819D02*
X61079047Y-43974819D01*
X61079047Y-43974819D02*
X61174285Y-44117676D01*
X61174285Y-44117676D02*
X61269523Y-44212914D01*
X61269523Y-44212914D02*
X61364761Y-44260533D01*
X98576666Y-64974819D02*
X98909999Y-64498628D01*
X99148094Y-64974819D02*
X99148094Y-63974819D01*
X99148094Y-63974819D02*
X98767142Y-63974819D01*
X98767142Y-63974819D02*
X98671904Y-64022438D01*
X98671904Y-64022438D02*
X98624285Y-64070057D01*
X98624285Y-64070057D02*
X98576666Y-64165295D01*
X98576666Y-64165295D02*
X98576666Y-64308152D01*
X98576666Y-64308152D02*
X98624285Y-64403390D01*
X98624285Y-64403390D02*
X98671904Y-64451009D01*
X98671904Y-64451009D02*
X98767142Y-64498628D01*
X98767142Y-64498628D02*
X99148094Y-64498628D01*
X98243332Y-63974819D02*
X97624285Y-63974819D01*
X97624285Y-63974819D02*
X97957618Y-64355771D01*
X97957618Y-64355771D02*
X97814761Y-64355771D01*
X97814761Y-64355771D02*
X97719523Y-64403390D01*
X97719523Y-64403390D02*
X97671904Y-64451009D01*
X97671904Y-64451009D02*
X97624285Y-64546247D01*
X97624285Y-64546247D02*
X97624285Y-64784342D01*
X97624285Y-64784342D02*
X97671904Y-64879580D01*
X97671904Y-64879580D02*
X97719523Y-64927200D01*
X97719523Y-64927200D02*
X97814761Y-64974819D01*
X97814761Y-64974819D02*
X98100475Y-64974819D01*
X98100475Y-64974819D02*
X98195713Y-64927200D01*
X98195713Y-64927200D02*
X98243332Y-64879580D01*
X70671904Y-46124819D02*
X70671904Y-46934342D01*
X70671904Y-46934342D02*
X70624285Y-47029580D01*
X70624285Y-47029580D02*
X70576666Y-47077200D01*
X70576666Y-47077200D02*
X70481428Y-47124819D01*
X70481428Y-47124819D02*
X70290952Y-47124819D01*
X70290952Y-47124819D02*
X70195714Y-47077200D01*
X70195714Y-47077200D02*
X70148095Y-47029580D01*
X70148095Y-47029580D02*
X70100476Y-46934342D01*
X70100476Y-46934342D02*
X70100476Y-46124819D01*
X69100476Y-47124819D02*
X69671904Y-47124819D01*
X69386190Y-47124819D02*
X69386190Y-46124819D01*
X69386190Y-46124819D02*
X69481428Y-46267676D01*
X69481428Y-46267676D02*
X69576666Y-46362914D01*
X69576666Y-46362914D02*
X69671904Y-46410533D01*
X49609819Y-56708095D02*
X50419342Y-56708095D01*
X50419342Y-56708095D02*
X50514580Y-56755714D01*
X50514580Y-56755714D02*
X50562200Y-56803333D01*
X50562200Y-56803333D02*
X50609819Y-56898571D01*
X50609819Y-56898571D02*
X50609819Y-57089047D01*
X50609819Y-57089047D02*
X50562200Y-57184285D01*
X50562200Y-57184285D02*
X50514580Y-57231904D01*
X50514580Y-57231904D02*
X50419342Y-57279523D01*
X50419342Y-57279523D02*
X49609819Y-57279523D01*
X49943152Y-58184285D02*
X50609819Y-58184285D01*
X49562200Y-57946190D02*
X50276485Y-57708095D01*
X50276485Y-57708095D02*
X50276485Y-58327142D01*
X118214819Y-41853333D02*
X117738628Y-41520000D01*
X118214819Y-41281905D02*
X117214819Y-41281905D01*
X117214819Y-41281905D02*
X117214819Y-41662857D01*
X117214819Y-41662857D02*
X117262438Y-41758095D01*
X117262438Y-41758095D02*
X117310057Y-41805714D01*
X117310057Y-41805714D02*
X117405295Y-41853333D01*
X117405295Y-41853333D02*
X117548152Y-41853333D01*
X117548152Y-41853333D02*
X117643390Y-41805714D01*
X117643390Y-41805714D02*
X117691009Y-41758095D01*
X117691009Y-41758095D02*
X117738628Y-41662857D01*
X117738628Y-41662857D02*
X117738628Y-41281905D01*
X117214819Y-42710476D02*
X117214819Y-42520000D01*
X117214819Y-42520000D02*
X117262438Y-42424762D01*
X117262438Y-42424762D02*
X117310057Y-42377143D01*
X117310057Y-42377143D02*
X117452914Y-42281905D01*
X117452914Y-42281905D02*
X117643390Y-42234286D01*
X117643390Y-42234286D02*
X118024342Y-42234286D01*
X118024342Y-42234286D02*
X118119580Y-42281905D01*
X118119580Y-42281905D02*
X118167200Y-42329524D01*
X118167200Y-42329524D02*
X118214819Y-42424762D01*
X118214819Y-42424762D02*
X118214819Y-42615238D01*
X118214819Y-42615238D02*
X118167200Y-42710476D01*
X118167200Y-42710476D02*
X118119580Y-42758095D01*
X118119580Y-42758095D02*
X118024342Y-42805714D01*
X118024342Y-42805714D02*
X117786247Y-42805714D01*
X117786247Y-42805714D02*
X117691009Y-42758095D01*
X117691009Y-42758095D02*
X117643390Y-42710476D01*
X117643390Y-42710476D02*
X117595771Y-42615238D01*
X117595771Y-42615238D02*
X117595771Y-42424762D01*
X117595771Y-42424762D02*
X117643390Y-42329524D01*
X117643390Y-42329524D02*
X117691009Y-42281905D01*
X117691009Y-42281905D02*
X117786247Y-42234286D01*
X118589580Y-79377142D02*
X118637200Y-79329523D01*
X118637200Y-79329523D02*
X118684819Y-79186666D01*
X118684819Y-79186666D02*
X118684819Y-79091428D01*
X118684819Y-79091428D02*
X118637200Y-78948571D01*
X118637200Y-78948571D02*
X118541961Y-78853333D01*
X118541961Y-78853333D02*
X118446723Y-78805714D01*
X118446723Y-78805714D02*
X118256247Y-78758095D01*
X118256247Y-78758095D02*
X118113390Y-78758095D01*
X118113390Y-78758095D02*
X117922914Y-78805714D01*
X117922914Y-78805714D02*
X117827676Y-78853333D01*
X117827676Y-78853333D02*
X117732438Y-78948571D01*
X117732438Y-78948571D02*
X117684819Y-79091428D01*
X117684819Y-79091428D02*
X117684819Y-79186666D01*
X117684819Y-79186666D02*
X117732438Y-79329523D01*
X117732438Y-79329523D02*
X117780057Y-79377142D01*
X118684819Y-80329523D02*
X118684819Y-79758095D01*
X118684819Y-80043809D02*
X117684819Y-80043809D01*
X117684819Y-80043809D02*
X117827676Y-79948571D01*
X117827676Y-79948571D02*
X117922914Y-79853333D01*
X117922914Y-79853333D02*
X117970533Y-79758095D01*
X117780057Y-80710476D02*
X117732438Y-80758095D01*
X117732438Y-80758095D02*
X117684819Y-80853333D01*
X117684819Y-80853333D02*
X117684819Y-81091428D01*
X117684819Y-81091428D02*
X117732438Y-81186666D01*
X117732438Y-81186666D02*
X117780057Y-81234285D01*
X117780057Y-81234285D02*
X117875295Y-81281904D01*
X117875295Y-81281904D02*
X117970533Y-81281904D01*
X117970533Y-81281904D02*
X118113390Y-81234285D01*
X118113390Y-81234285D02*
X118684819Y-80662857D01*
X118684819Y-80662857D02*
X118684819Y-81281904D01*
X122264819Y-54908095D02*
X123074342Y-54908095D01*
X123074342Y-54908095D02*
X123169580Y-54955714D01*
X123169580Y-54955714D02*
X123217200Y-55003333D01*
X123217200Y-55003333D02*
X123264819Y-55098571D01*
X123264819Y-55098571D02*
X123264819Y-55289047D01*
X123264819Y-55289047D02*
X123217200Y-55384285D01*
X123217200Y-55384285D02*
X123169580Y-55431904D01*
X123169580Y-55431904D02*
X123074342Y-55479523D01*
X123074342Y-55479523D02*
X122264819Y-55479523D01*
X122264819Y-56431904D02*
X122264819Y-55955714D01*
X122264819Y-55955714D02*
X122741009Y-55908095D01*
X122741009Y-55908095D02*
X122693390Y-55955714D01*
X122693390Y-55955714D02*
X122645771Y-56050952D01*
X122645771Y-56050952D02*
X122645771Y-56289047D01*
X122645771Y-56289047D02*
X122693390Y-56384285D01*
X122693390Y-56384285D02*
X122741009Y-56431904D01*
X122741009Y-56431904D02*
X122836247Y-56479523D01*
X122836247Y-56479523D02*
X123074342Y-56479523D01*
X123074342Y-56479523D02*
X123169580Y-56431904D01*
X123169580Y-56431904D02*
X123217200Y-56384285D01*
X123217200Y-56384285D02*
X123264819Y-56289047D01*
X123264819Y-56289047D02*
X123264819Y-56050952D01*
X123264819Y-56050952D02*
X123217200Y-55955714D01*
X123217200Y-55955714D02*
X123169580Y-55908095D01*
X53052857Y-81699580D02*
X53100476Y-81747200D01*
X53100476Y-81747200D02*
X53243333Y-81794819D01*
X53243333Y-81794819D02*
X53338571Y-81794819D01*
X53338571Y-81794819D02*
X53481428Y-81747200D01*
X53481428Y-81747200D02*
X53576666Y-81651961D01*
X53576666Y-81651961D02*
X53624285Y-81556723D01*
X53624285Y-81556723D02*
X53671904Y-81366247D01*
X53671904Y-81366247D02*
X53671904Y-81223390D01*
X53671904Y-81223390D02*
X53624285Y-81032914D01*
X53624285Y-81032914D02*
X53576666Y-80937676D01*
X53576666Y-80937676D02*
X53481428Y-80842438D01*
X53481428Y-80842438D02*
X53338571Y-80794819D01*
X53338571Y-80794819D02*
X53243333Y-80794819D01*
X53243333Y-80794819D02*
X53100476Y-80842438D01*
X53100476Y-80842438D02*
X53052857Y-80890057D01*
X52100476Y-81794819D02*
X52671904Y-81794819D01*
X52386190Y-81794819D02*
X52386190Y-80794819D01*
X52386190Y-80794819D02*
X52481428Y-80937676D01*
X52481428Y-80937676D02*
X52576666Y-81032914D01*
X52576666Y-81032914D02*
X52671904Y-81080533D01*
X51624285Y-81794819D02*
X51433809Y-81794819D01*
X51433809Y-81794819D02*
X51338571Y-81747200D01*
X51338571Y-81747200D02*
X51290952Y-81699580D01*
X51290952Y-81699580D02*
X51195714Y-81556723D01*
X51195714Y-81556723D02*
X51148095Y-81366247D01*
X51148095Y-81366247D02*
X51148095Y-80985295D01*
X51148095Y-80985295D02*
X51195714Y-80890057D01*
X51195714Y-80890057D02*
X51243333Y-80842438D01*
X51243333Y-80842438D02*
X51338571Y-80794819D01*
X51338571Y-80794819D02*
X51529047Y-80794819D01*
X51529047Y-80794819D02*
X51624285Y-80842438D01*
X51624285Y-80842438D02*
X51671904Y-80890057D01*
X51671904Y-80890057D02*
X51719523Y-80985295D01*
X51719523Y-80985295D02*
X51719523Y-81223390D01*
X51719523Y-81223390D02*
X51671904Y-81318628D01*
X51671904Y-81318628D02*
X51624285Y-81366247D01*
X51624285Y-81366247D02*
X51529047Y-81413866D01*
X51529047Y-81413866D02*
X51338571Y-81413866D01*
X51338571Y-81413866D02*
X51243333Y-81366247D01*
X51243333Y-81366247D02*
X51195714Y-81318628D01*
X51195714Y-81318628D02*
X51148095Y-81223390D01*
D12*
%TO.C,J8*%
X114690900Y-48073801D02*
G75*
G02*
X113928900Y-48073801I-381000J0D01*
G01*
X113928900Y-48073801D02*
G75*
G02*
X114690900Y-48073801I381000J0D01*
G01*
%TO.C,J5*%
X76940900Y-48323801D02*
G75*
G02*
X76178900Y-48323801I-381000J0D01*
G01*
X76178900Y-48323801D02*
G75*
G02*
X76940900Y-48323801I381000J0D01*
G01*
D13*
%TO.C,R11*%
X121925000Y-80247064D02*
X121925000Y-79792936D01*
X123395000Y-80247064D02*
X123395000Y-79792936D01*
%TO.C,U3*%
X111000000Y-76610000D02*
X114760000Y-76610000D01*
X111000000Y-77870000D02*
X111000000Y-76610000D01*
X111000000Y-82170000D02*
X111000000Y-83430000D01*
X111000000Y-83430000D02*
X114760000Y-83430000D01*
X116040000Y-76710000D02*
X115800000Y-76380000D01*
X116280000Y-76380000D01*
X116040000Y-76710000D01*
G36*
X116040000Y-76710000D02*
G01*
X115800000Y-76380000D01*
X116280000Y-76380000D01*
X116040000Y-76710000D01*
G37*
%TO.C,C8*%
X112925000Y-55031252D02*
X112925000Y-54508748D01*
X114395000Y-55031252D02*
X114395000Y-54508748D01*
%TO.C,C1*%
X59648748Y-78785000D02*
X60171252Y-78785000D01*
X59648748Y-80255000D02*
X60171252Y-80255000D01*
%TO.C,C3*%
X91938748Y-60285000D02*
X92461252Y-60285000D01*
X91938748Y-61755000D02*
X92461252Y-61755000D01*
%TO.C,R7*%
X105682936Y-54535000D02*
X106137064Y-54535000D01*
X105682936Y-56005000D02*
X106137064Y-56005000D01*
%TO.C,C13*%
X97675000Y-61508748D02*
X97675000Y-62031252D01*
X99145000Y-61508748D02*
X99145000Y-62031252D01*
D11*
%TO.C,U7*%
X81335000Y-52195000D02*
X81335000Y-56345000D01*
X86485000Y-52195000D02*
X86485000Y-56345000D01*
D13*
X86715000Y-57185000D02*
X86385000Y-56945000D01*
X86715000Y-56705000D01*
X86715000Y-57185000D01*
G36*
X86715000Y-57185000D02*
G01*
X86385000Y-56945000D01*
X86715000Y-56705000D01*
X86715000Y-57185000D01*
G37*
%TO.C,R4*%
X98637064Y-71785000D02*
X98182936Y-71785000D01*
X98637064Y-73255000D02*
X98182936Y-73255000D01*
%TO.C,C17*%
X77425000Y-48258748D02*
X77425000Y-48781252D01*
X78895000Y-48258748D02*
X78895000Y-48781252D01*
D14*
%TO.C,J9*%
X92338101Y-43558540D02*
X92338101Y-49646999D01*
X92338101Y-49646999D02*
X95229561Y-49646999D01*
X97190441Y-49646999D02*
X97729561Y-49646999D01*
X99690441Y-49646999D02*
X100229561Y-49646999D01*
X102190441Y-49646999D02*
X102729561Y-49646999D01*
X104690441Y-49646999D02*
X105229561Y-49646999D01*
X107190441Y-49646999D02*
X107729561Y-49646999D01*
X109690441Y-49646999D02*
X112581901Y-49646999D01*
X110675560Y-39385399D02*
X94244442Y-39385399D01*
X112581901Y-49646999D02*
X112581901Y-43558540D01*
D12*
X90941101Y-48070000D02*
G75*
G02*
X90179101Y-48070000I-381000J0D01*
G01*
X90179101Y-48070000D02*
G75*
G02*
X90941101Y-48070000I381000J0D01*
G01*
D13*
%TO.C,R10*%
X124925000Y-79792936D02*
X124925000Y-80247064D01*
X126395000Y-79792936D02*
X126395000Y-80247064D01*
%TO.C,C4*%
X91938748Y-63785000D02*
X92461252Y-63785000D01*
X91938748Y-65255000D02*
X92461252Y-65255000D01*
%TO.C,R13*%
X59682936Y-82285000D02*
X60137064Y-82285000D01*
X59682936Y-83755000D02*
X60137064Y-83755000D01*
%TO.C,C10*%
X78425000Y-53531252D02*
X78425000Y-53008748D01*
X79895000Y-53531252D02*
X79895000Y-53008748D01*
%TO.C,C6*%
X40675000Y-56781252D02*
X40675000Y-56258748D01*
X42145000Y-56781252D02*
X42145000Y-56258748D01*
%TO.C,C2*%
X52671252Y-78785000D02*
X52148748Y-78785000D01*
X52671252Y-80255000D02*
X52148748Y-80255000D01*
D15*
%TO.C,U2*%
X89640000Y-71970000D02*
X89640000Y-68070000D01*
X94680000Y-71970000D02*
X94680000Y-68070000D01*
D16*
X90060000Y-65920000D02*
G75*
G02*
X89860000Y-65920000I-100000J0D01*
G01*
X89860000Y-65920000D02*
G75*
G02*
X90060000Y-65920000I100000J0D01*
G01*
D13*
%TO.C,R5*%
X121925000Y-42247064D02*
X121925000Y-41792936D01*
X123395000Y-42247064D02*
X123395000Y-41792936D01*
%TO.C,U8*%
X106570000Y-57610000D02*
X102810000Y-57610000D01*
X106570000Y-58870000D02*
X106570000Y-57610000D01*
X106570000Y-63170000D02*
X106570000Y-64430000D01*
X106570000Y-64430000D02*
X102810000Y-64430000D01*
X101770000Y-64660000D02*
X101290000Y-64660000D01*
X101530000Y-64330000D01*
X101770000Y-64660000D01*
G36*
X101770000Y-64660000D02*
G01*
X101290000Y-64660000D01*
X101530000Y-64330000D01*
X101770000Y-64660000D01*
G37*
%TO.C,C20*%
X98671252Y-68285000D02*
X98148748Y-68285000D01*
X98671252Y-69755000D02*
X98148748Y-69755000D01*
%TO.C,C5*%
X105425000Y-79758748D02*
X105425000Y-80281252D01*
X106895000Y-79758748D02*
X106895000Y-80281252D01*
%TO.C,R1*%
X99137064Y-54535000D02*
X98682936Y-54535000D01*
X99137064Y-56005000D02*
X98682936Y-56005000D01*
%TO.C,R8*%
X103175000Y-67747064D02*
X103175000Y-67292936D01*
X104645000Y-67747064D02*
X104645000Y-67292936D01*
%TO.C,C18*%
X74925000Y-48296248D02*
X74925000Y-48818752D01*
X76395000Y-48296248D02*
X76395000Y-48818752D01*
%TO.C,U6*%
X54960000Y-67220000D02*
X54960000Y-68220000D01*
X56460000Y-68220000D02*
X54960000Y-68220000D01*
X71860000Y-68220000D02*
X73360000Y-68220000D01*
X73360000Y-68220000D02*
X73360000Y-67220000D01*
X73860000Y-49245000D02*
X73360000Y-49245000D01*
X73360000Y-48745000D01*
X73860000Y-49245000D01*
G36*
X73860000Y-49245000D02*
G01*
X73360000Y-49245000D01*
X73360000Y-48745000D01*
X73860000Y-49245000D01*
G37*
%TO.C,R9*%
X107175000Y-67747064D02*
X107175000Y-67292936D01*
X108645000Y-67747064D02*
X108645000Y-67292936D01*
%TO.C,J1*%
X57200000Y-39070000D02*
X57200000Y-43430000D01*
X59700000Y-43430000D02*
X57200000Y-43430000D01*
X59700000Y-43630000D02*
X59700000Y-43430000D01*
X59700000Y-43630000D02*
X60360000Y-43630000D01*
X65720000Y-39070000D02*
X65720000Y-43430000D01*
X65720000Y-43430000D02*
X63220000Y-43430000D01*
%TO.C,R3*%
X98182936Y-65285000D02*
X98637064Y-65285000D01*
X98182936Y-66755000D02*
X98637064Y-66755000D01*
%TO.C,U1*%
X67960000Y-40710000D02*
X69910000Y-40710000D01*
X67960000Y-45830000D02*
X69910000Y-45830000D01*
X71860000Y-40710000D02*
X69910000Y-40710000D01*
X71860000Y-45830000D02*
X69910000Y-45830000D01*
X67450000Y-46065000D02*
X66970000Y-46065000D01*
X67210000Y-45735000D01*
X67450000Y-46065000D01*
G36*
X67450000Y-46065000D02*
G01*
X66970000Y-46065000D01*
X67210000Y-45735000D01*
X67450000Y-46065000D01*
G37*
D11*
%TO.C,U4*%
X42680000Y-55395000D02*
X42680000Y-59545000D01*
X47830000Y-55395000D02*
X47830000Y-59545000D01*
D13*
X48060000Y-60385000D02*
X47730000Y-60145000D01*
X48060000Y-59905000D01*
X48060000Y-60385000D01*
G36*
X48060000Y-60385000D02*
G01*
X47730000Y-60145000D01*
X48060000Y-59905000D01*
X48060000Y-60385000D01*
G37*
%TO.C,R6*%
X118675000Y-42247064D02*
X118675000Y-41792936D01*
X120145000Y-42247064D02*
X120145000Y-41792936D01*
%TO.C,C12*%
X119175000Y-80281252D02*
X119175000Y-79758748D01*
X120645000Y-80281252D02*
X120645000Y-79758748D01*
D11*
%TO.C,U5*%
X115385000Y-53595000D02*
X115385000Y-57745000D01*
X120535000Y-53595000D02*
X120535000Y-57745000D01*
D13*
X120765000Y-58585000D02*
X120435000Y-58345000D01*
X120765000Y-58105000D01*
X120765000Y-58585000D01*
G36*
X120765000Y-58585000D02*
G01*
X120435000Y-58345000D01*
X120765000Y-58105000D01*
X120765000Y-58585000D01*
G37*
%TO.C,C19*%
X52148748Y-82285000D02*
X52671252Y-82285000D01*
X52148748Y-83755000D02*
X52671252Y-83755000D01*
%TD*%
%LPC*%
D17*
%TO.C,J7*%
X40660000Y-41700750D03*
X51660000Y-41700750D03*
D18*
X48660000Y-46700750D03*
D19*
X43660000Y-46700750D03*
%TD*%
D20*
%TO.C,F4*%
X108610000Y-75060000D03*
X105210000Y-75060000D03*
X108610000Y-84980000D03*
X105210000Y-84980000D03*
%TD*%
D17*
%TO.C,J3*%
X115660000Y-41700750D03*
X126660000Y-41700750D03*
D18*
X123660000Y-46700750D03*
D19*
X118660000Y-46700750D03*
%TD*%
D20*
%TO.C,F3*%
X85360000Y-75060000D03*
X81960000Y-75060000D03*
X85360000Y-84980000D03*
X81960000Y-84980000D03*
%TD*%
D21*
%TO.C,C7*%
X43727841Y-64270000D03*
D22*
X48727841Y-64270000D03*
%TD*%
D23*
%TO.C,JP1*%
X51660000Y-56295000D03*
D24*
X51660000Y-53755000D03*
X51660000Y-51215000D03*
%TD*%
D25*
%TO.C,H4*%
X115910000Y-72520000D03*
D26*
X115910000Y-72520000D03*
%TD*%
D17*
%TO.C,J4*%
X78160000Y-41700750D03*
X89160000Y-41700750D03*
D18*
X86160000Y-46700750D03*
D19*
X81160000Y-46700750D03*
%TD*%
D27*
%TO.C,J6*%
X100910000Y-86845000D03*
X89910000Y-86845000D03*
D28*
X92910000Y-76845000D03*
D29*
X97910000Y-76845000D03*
%TD*%
D30*
%TO.C,J2*%
X65019000Y-82620000D03*
X76451000Y-82620000D03*
D31*
X66290000Y-76270000D03*
D32*
X67560000Y-73730000D03*
X68830000Y-76270000D03*
X70100000Y-73730000D03*
X71370000Y-76270000D03*
X72640000Y-73730000D03*
X73910000Y-76270000D03*
X75180000Y-73730000D03*
%TD*%
D20*
%TO.C,F2*%
X126110000Y-74810000D03*
X122710000Y-74810000D03*
X126110000Y-84730000D03*
X122710000Y-84730000D03*
%TD*%
D21*
%TO.C,C11*%
X81086041Y-64520000D03*
D22*
X86086041Y-64520000D03*
%TD*%
D21*
%TO.C,C9*%
X118836041Y-64520000D03*
D22*
X123836041Y-64520000D03*
%TD*%
D25*
%TO.C,H2*%
X125160000Y-52520000D03*
D26*
X125160000Y-52520000D03*
%TD*%
D25*
%TO.C,H3*%
X55910000Y-72020000D03*
D26*
X55910000Y-72020000D03*
%TD*%
D20*
%TO.C,F1*%
X47860000Y-75060000D03*
X44460000Y-75060000D03*
X47860000Y-84980000D03*
X44460000Y-84980000D03*
%TD*%
D33*
%TO.C,R11*%
X122660000Y-79020000D03*
X122660000Y-81020000D03*
%TD*%
D34*
%TO.C,U3*%
X116060000Y-77720000D03*
X116060000Y-80020000D03*
D35*
X109760000Y-80020000D03*
D34*
X116060000Y-82320000D03*
%TD*%
D36*
%TO.C,C8*%
X113660000Y-53732500D03*
X113660000Y-55807500D03*
%TD*%
D37*
%TO.C,C1*%
X60947500Y-79520000D03*
X58872500Y-79520000D03*
%TD*%
%TO.C,C3*%
X93237500Y-61020000D03*
X91162500Y-61020000D03*
%TD*%
D38*
%TO.C,R7*%
X106910000Y-55270000D03*
X104910000Y-55270000D03*
%TD*%
D39*
%TO.C,C13*%
X98410000Y-62807500D03*
X98410000Y-60732500D03*
%TD*%
D40*
%TO.C,U7*%
X83910000Y-54270000D03*
D41*
X85815000Y-56970000D03*
X84545000Y-56970000D03*
X83275000Y-56970000D03*
X82005000Y-56970000D03*
X82005000Y-51570000D03*
X83275000Y-51570000D03*
X84545000Y-51570000D03*
X85815000Y-51570000D03*
D42*
X84660000Y-54270000D03*
%TD*%
D43*
%TO.C,R4*%
X97410000Y-72520000D03*
X99410000Y-72520000D03*
%TD*%
D39*
%TO.C,C17*%
X78160000Y-49557500D03*
X78160000Y-47482500D03*
%TD*%
D44*
%TO.C,J9*%
X96210001Y-48070000D03*
X98710001Y-48070000D03*
X101210001Y-48070000D03*
X103710001Y-48070000D03*
X106210001Y-48070000D03*
X108710001Y-48070000D03*
D45*
X93010002Y-41270000D03*
X111910000Y-41270000D03*
%TD*%
D46*
%TO.C,R10*%
X125660000Y-81020000D03*
X125660000Y-79020000D03*
%TD*%
D37*
%TO.C,C4*%
X93237500Y-64520000D03*
X91162500Y-64520000D03*
%TD*%
D38*
%TO.C,R13*%
X60910000Y-83020000D03*
X58910000Y-83020000D03*
%TD*%
D36*
%TO.C,C10*%
X79160000Y-52232500D03*
X79160000Y-54307500D03*
%TD*%
%TO.C,C6*%
X41410000Y-55482500D03*
X41410000Y-57557500D03*
%TD*%
D47*
%TO.C,C2*%
X51372500Y-79520000D03*
X53447500Y-79520000D03*
%TD*%
D48*
%TO.C,U2*%
X90255000Y-67435000D03*
X91525000Y-67435000D03*
X92795000Y-67435000D03*
X94065000Y-67435000D03*
X94065000Y-72605000D03*
X92795000Y-72605000D03*
X91525000Y-72605000D03*
X90255000Y-72605000D03*
%TD*%
D33*
%TO.C,R5*%
X122660000Y-41020000D03*
X122660000Y-43020000D03*
%TD*%
D49*
%TO.C,U8*%
X101510000Y-63320000D03*
X101510000Y-61020000D03*
D50*
X107810000Y-61020000D03*
D49*
X101510000Y-58720000D03*
%TD*%
D47*
%TO.C,C20*%
X97372500Y-69020000D03*
X99447500Y-69020000D03*
%TD*%
D39*
%TO.C,C5*%
X106160000Y-81057500D03*
X106160000Y-78982500D03*
%TD*%
D43*
%TO.C,R1*%
X97910000Y-55270000D03*
X99910000Y-55270000D03*
%TD*%
D33*
%TO.C,R8*%
X103910000Y-66520000D03*
X103910000Y-68520000D03*
%TD*%
D39*
%TO.C,C18*%
X75660000Y-49595000D03*
X75660000Y-47520000D03*
%TD*%
D51*
%TO.C,U6*%
X72910000Y-50010000D03*
X72910000Y-51280000D03*
X72910000Y-52550000D03*
X72910000Y-53820000D03*
X72910000Y-55090000D03*
X72910000Y-56360000D03*
X72910000Y-57630000D03*
X72910000Y-58900000D03*
X72910000Y-60170000D03*
X72910000Y-61440000D03*
X72910000Y-62710000D03*
X72910000Y-63980000D03*
X72910000Y-65250000D03*
X72910000Y-66520000D03*
D52*
X71145000Y-67770000D03*
X69875000Y-67770000D03*
X68605000Y-67770000D03*
X67335000Y-67770000D03*
X66065000Y-67770000D03*
X64795000Y-67770000D03*
X63525000Y-67770000D03*
X62255000Y-67770000D03*
X60985000Y-67770000D03*
X59715000Y-67770000D03*
X58445000Y-67770000D03*
X57175000Y-67770000D03*
D51*
X55410000Y-66520000D03*
X55410000Y-65250000D03*
X55410000Y-63980000D03*
X55410000Y-62710000D03*
X55410000Y-61440000D03*
X55410000Y-60170000D03*
X55410000Y-58900000D03*
X55410000Y-57630000D03*
X55410000Y-56360000D03*
X55410000Y-55090000D03*
X55410000Y-53820000D03*
X55410000Y-52550000D03*
X55410000Y-51280000D03*
X55410000Y-50010000D03*
D53*
X65660000Y-57730000D03*
%TD*%
D33*
%TO.C,R9*%
X107910000Y-66520000D03*
X107910000Y-68520000D03*
%TD*%
D54*
%TO.C,J1*%
X60160000Y-42695000D03*
X60810000Y-42695000D03*
X61460000Y-42695000D03*
X62110000Y-42695000D03*
X62760000Y-42695000D03*
D55*
X58160000Y-40020000D03*
D56*
X58260000Y-42470000D03*
D57*
X60260000Y-40020000D03*
X62660000Y-40020000D03*
D56*
X64660000Y-42470000D03*
D55*
X64760000Y-40020000D03*
%TD*%
D38*
%TO.C,R3*%
X99410000Y-66020000D03*
X97410000Y-66020000D03*
%TD*%
D58*
%TO.C,U1*%
X67435000Y-45175000D03*
X67435000Y-43905000D03*
X67435000Y-42635000D03*
X67435000Y-41365000D03*
X72385000Y-41365000D03*
X72385000Y-42635000D03*
X72385000Y-43905000D03*
X72385000Y-45175000D03*
%TD*%
D40*
%TO.C,U4*%
X45255000Y-57470000D03*
D41*
X47160000Y-60170000D03*
X45890000Y-60170000D03*
X44620000Y-60170000D03*
X43350000Y-60170000D03*
X43350000Y-54770000D03*
X44620000Y-54770000D03*
X45890000Y-54770000D03*
X47160000Y-54770000D03*
D42*
X46030000Y-57470000D03*
%TD*%
D33*
%TO.C,R6*%
X119410000Y-41020000D03*
X119410000Y-43020000D03*
%TD*%
D36*
%TO.C,C12*%
X119910000Y-78982500D03*
X119910000Y-81057500D03*
%TD*%
D40*
%TO.C,U5*%
X117960000Y-55670000D03*
D41*
X119865000Y-58370000D03*
X118595000Y-58370000D03*
X117325000Y-58370000D03*
X116055000Y-58370000D03*
X116055000Y-52970000D03*
X117325000Y-52970000D03*
X118595000Y-52970000D03*
X119865000Y-52970000D03*
D42*
X118735000Y-55670000D03*
%TD*%
D37*
%TO.C,C19*%
X53447500Y-83020000D03*
X51372500Y-83020000D03*
%TD*%
%LPD*%
M02*
