%TF.GenerationSoftware,KiCad,Pcbnew,8.0.3-8.0.3-0~ubuntu22.04.1*%
%TF.CreationDate,2024-07-03T00:47:08-04:00*%
%TF.ProjectId,arm_drive_j3_4_5,61726d5f-6472-4697-9665-5f6a335f345f,rev?*%
%TF.SameCoordinates,Original*%
%TF.FileFunction,Paste,Bot*%
%TF.FilePolarity,Positive*%
%FSLAX46Y46*%
G04 Gerber Fmt 4.6, Leading zero omitted, Abs format (unit mm)*
G04 Created by KiCad (PCBNEW 8.0.3-8.0.3-0~ubuntu22.04.1) date 2024-07-03 00:47:08*
%MOMM*%
%LPD*%
G01*
G04 APERTURE LIST*
G04 Aperture macros list*
%AMRoundRect*
0 Rectangle with rounded corners*
0 $1 Rounding radius*
0 $2 $3 $4 $5 $6 $7 $8 $9 X,Y pos of 4 corners*
0 Add a 4 corners polygon primitive as box body*
4,1,4,$2,$3,$4,$5,$6,$7,$8,$9,$2,$3,0*
0 Add four circle primitives for the rounded corners*
1,1,$1+$1,$2,$3*
1,1,$1+$1,$4,$5*
1,1,$1+$1,$6,$7*
1,1,$1+$1,$8,$9*
0 Add four rect primitives between the rounded corners*
20,1,$1+$1,$2,$3,$4,$5,0*
20,1,$1+$1,$4,$5,$6,$7,0*
20,1,$1+$1,$6,$7,$8,$9,0*
20,1,$1+$1,$8,$9,$2,$3,0*%
G04 Aperture macros list end*
%ADD10RoundRect,0.250000X-0.450000X0.350000X-0.450000X-0.350000X0.450000X-0.350000X0.450000X0.350000X0*%
%ADD11RoundRect,0.375000X0.625000X0.375000X-0.625000X0.375000X-0.625000X-0.375000X0.625000X-0.375000X0*%
%ADD12RoundRect,0.500000X0.500000X1.400000X-0.500000X1.400000X-0.500000X-1.400000X0.500000X-1.400000X0*%
%ADD13RoundRect,0.250000X-0.475000X0.337500X-0.475000X-0.337500X0.475000X-0.337500X0.475000X0.337500X0*%
%ADD14RoundRect,0.250000X0.337500X0.475000X-0.337500X0.475000X-0.337500X-0.475000X0.337500X-0.475000X0*%
%ADD15RoundRect,0.250000X0.350000X0.450000X-0.350000X0.450000X-0.350000X-0.450000X0.350000X-0.450000X0*%
%ADD16RoundRect,0.250000X0.475000X-0.337500X0.475000X0.337500X-0.475000X0.337500X-0.475000X-0.337500X0*%
%ADD17R,3.100000X2.600000*%
%ADD18R,0.600000X1.550000*%
%ADD19R,6.450000X2.950000*%
%ADD20RoundRect,0.250000X-0.350000X-0.450000X0.350000X-0.450000X0.350000X0.450000X-0.350000X0.450000X0*%
%ADD21R,1.295400X4.495800*%
%ADD22R,1.803400X3.911600*%
%ADD23RoundRect,0.250000X0.450000X-0.350000X0.450000X0.350000X-0.450000X0.350000X-0.450000X-0.350000X0*%
%ADD24RoundRect,0.250000X-0.337500X-0.475000X0.337500X-0.475000X0.337500X0.475000X-0.337500X0.475000X0*%
%ADD25RoundRect,0.041300X-0.253700X0.833700X-0.253700X-0.833700X0.253700X-0.833700X0.253700X0.833700X0*%
%ADD26RoundRect,0.375000X-0.625000X-0.375000X0.625000X-0.375000X0.625000X0.375000X-0.625000X0.375000X0*%
%ADD27RoundRect,0.500000X-0.500000X-1.400000X0.500000X-1.400000X0.500000X1.400000X-0.500000X1.400000X0*%
%ADD28R,0.900000X0.900000*%
%ADD29R,1.500000X0.900000*%
%ADD30R,0.900000X1.500000*%
%ADD31RoundRect,0.100000X-0.100000X-0.575000X0.100000X-0.575000X0.100000X0.575000X-0.100000X0.575000X0*%
%ADD32O,0.900000X1.600000*%
%ADD33RoundRect,0.250000X-0.550000X-0.450000X0.550000X-0.450000X0.550000X0.450000X-0.550000X0.450000X0*%
%ADD34RoundRect,0.250000X-0.700000X-0.700000X0.700000X-0.700000X0.700000X0.700000X-0.700000X0.700000X0*%
%ADD35RoundRect,0.150000X-0.825000X-0.150000X0.825000X-0.150000X0.825000X0.150000X-0.825000X0.150000X0*%
G04 APERTURE END LIST*
D10*
%TO.C,R11*%
X122660000Y-79020000D03*
X122660000Y-81020000D03*
%TD*%
D11*
%TO.C,U3*%
X116060000Y-77720000D03*
X116060000Y-80020000D03*
D12*
X109760000Y-80020000D03*
D11*
X116060000Y-82320000D03*
%TD*%
D13*
%TO.C,C8*%
X113660000Y-53732500D03*
X113660000Y-55807500D03*
%TD*%
D14*
%TO.C,C1*%
X60947500Y-79520000D03*
X58872500Y-79520000D03*
%TD*%
%TO.C,C3*%
X93237500Y-61020000D03*
X91162500Y-61020000D03*
%TD*%
D15*
%TO.C,R7*%
X106910000Y-55270000D03*
X104910000Y-55270000D03*
%TD*%
D16*
%TO.C,C13*%
X98410000Y-62807500D03*
X98410000Y-60732500D03*
%TD*%
D17*
%TO.C,U7*%
X83910000Y-54270000D03*
D18*
X85815000Y-56970000D03*
X84545000Y-56970000D03*
X83275000Y-56970000D03*
X82005000Y-56970000D03*
X82005000Y-51570000D03*
X83275000Y-51570000D03*
X84545000Y-51570000D03*
X85815000Y-51570000D03*
D19*
X84660000Y-54270000D03*
%TD*%
D20*
%TO.C,R4*%
X97410000Y-72520000D03*
X99410000Y-72520000D03*
%TD*%
D16*
%TO.C,C17*%
X78160000Y-49557500D03*
X78160000Y-47482500D03*
%TD*%
D21*
%TO.C,J9*%
X96210001Y-48070000D03*
X98710001Y-48070000D03*
X101210001Y-48070000D03*
X103710001Y-48070000D03*
X106210001Y-48070000D03*
X108710001Y-48070000D03*
D22*
X93010002Y-41270000D03*
X111910000Y-41270000D03*
%TD*%
D23*
%TO.C,R10*%
X125660000Y-81020000D03*
X125660000Y-79020000D03*
%TD*%
D14*
%TO.C,C4*%
X93237500Y-64520000D03*
X91162500Y-64520000D03*
%TD*%
D15*
%TO.C,R13*%
X60910000Y-83020000D03*
X58910000Y-83020000D03*
%TD*%
D13*
%TO.C,C10*%
X79160000Y-52232500D03*
X79160000Y-54307500D03*
%TD*%
%TO.C,C6*%
X41410000Y-55482500D03*
X41410000Y-57557500D03*
%TD*%
D24*
%TO.C,C2*%
X51372500Y-79520000D03*
X53447500Y-79520000D03*
%TD*%
D25*
%TO.C,U2*%
X90255000Y-67435000D03*
X91525000Y-67435000D03*
X92795000Y-67435000D03*
X94065000Y-67435000D03*
X94065000Y-72605000D03*
X92795000Y-72605000D03*
X91525000Y-72605000D03*
X90255000Y-72605000D03*
%TD*%
D10*
%TO.C,R5*%
X122660000Y-41020000D03*
X122660000Y-43020000D03*
%TD*%
D26*
%TO.C,U8*%
X101510000Y-63320000D03*
X101510000Y-61020000D03*
D27*
X107810000Y-61020000D03*
D26*
X101510000Y-58720000D03*
%TD*%
D24*
%TO.C,C20*%
X97372500Y-69020000D03*
X99447500Y-69020000D03*
%TD*%
D16*
%TO.C,C5*%
X106160000Y-81057500D03*
X106160000Y-78982500D03*
%TD*%
D20*
%TO.C,R1*%
X97910000Y-55270000D03*
X99910000Y-55270000D03*
%TD*%
D10*
%TO.C,R8*%
X103910000Y-66520000D03*
X103910000Y-68520000D03*
%TD*%
D16*
%TO.C,C18*%
X75660000Y-49595000D03*
X75660000Y-47520000D03*
%TD*%
D28*
%TO.C,U6*%
X67060000Y-59130000D03*
X67060000Y-57730000D03*
X67060000Y-56330000D03*
X65660000Y-59130000D03*
X65660000Y-57730000D03*
X65660000Y-56330000D03*
X64260000Y-59130000D03*
X64260000Y-57730000D03*
X64260000Y-56330000D03*
D29*
X72910000Y-50010000D03*
X72910000Y-51280000D03*
X72910000Y-52550000D03*
X72910000Y-53820000D03*
X72910000Y-55090000D03*
X72910000Y-56360000D03*
X72910000Y-57630000D03*
X72910000Y-58900000D03*
X72910000Y-60170000D03*
X72910000Y-61440000D03*
X72910000Y-62710000D03*
X72910000Y-63980000D03*
X72910000Y-65250000D03*
X72910000Y-66520000D03*
D30*
X71145000Y-67770000D03*
X69875000Y-67770000D03*
X68605000Y-67770000D03*
X67335000Y-67770000D03*
X66065000Y-67770000D03*
X64795000Y-67770000D03*
X63525000Y-67770000D03*
X62255000Y-67770000D03*
X60985000Y-67770000D03*
X59715000Y-67770000D03*
X58445000Y-67770000D03*
X57175000Y-67770000D03*
D29*
X55410000Y-66520000D03*
X55410000Y-65250000D03*
X55410000Y-63980000D03*
X55410000Y-62710000D03*
X55410000Y-61440000D03*
X55410000Y-60170000D03*
X55410000Y-58900000D03*
X55410000Y-57630000D03*
X55410000Y-56360000D03*
X55410000Y-55090000D03*
X55410000Y-53820000D03*
X55410000Y-52550000D03*
X55410000Y-51280000D03*
X55410000Y-50010000D03*
%TD*%
D10*
%TO.C,R9*%
X107910000Y-66520000D03*
X107910000Y-68520000D03*
%TD*%
D31*
%TO.C,J1*%
X60160000Y-42695000D03*
X60810000Y-42695000D03*
X61460000Y-42695000D03*
X62110000Y-42695000D03*
X62760000Y-42695000D03*
D32*
X58160000Y-40020000D03*
D33*
X58260000Y-42470000D03*
D34*
X60260000Y-40020000D03*
X62660000Y-40020000D03*
D33*
X64660000Y-42470000D03*
D32*
X64760000Y-40020000D03*
%TD*%
D15*
%TO.C,R3*%
X99410000Y-66020000D03*
X97410000Y-66020000D03*
%TD*%
D35*
%TO.C,U1*%
X67435000Y-45175000D03*
X67435000Y-43905000D03*
X67435000Y-42635000D03*
X67435000Y-41365000D03*
X72385000Y-41365000D03*
X72385000Y-42635000D03*
X72385000Y-43905000D03*
X72385000Y-45175000D03*
%TD*%
D17*
%TO.C,U4*%
X45255000Y-57470000D03*
D18*
X47160000Y-60170000D03*
X45890000Y-60170000D03*
X44620000Y-60170000D03*
X43350000Y-60170000D03*
X43350000Y-54770000D03*
X44620000Y-54770000D03*
X45890000Y-54770000D03*
X47160000Y-54770000D03*
D19*
X46030000Y-57470000D03*
%TD*%
D10*
%TO.C,R6*%
X119410000Y-41020000D03*
X119410000Y-43020000D03*
%TD*%
D13*
%TO.C,C12*%
X119910000Y-78982500D03*
X119910000Y-81057500D03*
%TD*%
D17*
%TO.C,U5*%
X117960000Y-55670000D03*
D18*
X119865000Y-58370000D03*
X118595000Y-58370000D03*
X117325000Y-58370000D03*
X116055000Y-58370000D03*
X116055000Y-52970000D03*
X117325000Y-52970000D03*
X118595000Y-52970000D03*
X119865000Y-52970000D03*
D19*
X118735000Y-55670000D03*
%TD*%
D14*
%TO.C,C19*%
X53447500Y-83020000D03*
X51372500Y-83020000D03*
%TD*%
M02*
