%TF.GenerationSoftware,KiCad,Pcbnew,8.0.1-rc1*%
%TF.CreationDate,2024-04-06T08:29:02-04:00*%
%TF.ProjectId,ESP32_CHUNGUS_RAPIDUS,45535033-325f-4434-9855-4e4755535f52,rev?*%
%TF.SameCoordinates,Original*%
%TF.FileFunction,Drillmap*%
%TF.FilePolarity,Positive*%
%FSLAX45Y45*%
G04 Gerber Fmt 4.5, Leading zero omitted, Abs format (unit mm)*
G04 Created by KiCad (PCBNEW 8.0.1-rc1) date 2024-04-06 08:29:02*
%MOMM*%
%LPD*%
G01*
G04 APERTURE LIST*
%ADD10C,0.100000*%
%ADD11C,0.200000*%
%ADD12C,0.120000*%
%ADD13C,0.210000*%
%ADD14C,0.430000*%
G04 APERTURE END LIST*
D10*
X4010000Y-10270000D02*
G75*
G02*
X3510000Y-9770000I0J500000D01*
G01*
X3510000Y-2270000D02*
X3510000Y-9770000D01*
X8010000Y-1770000D02*
X12010000Y-1770000D01*
X12510000Y-9770000D02*
G75*
G02*
X12010000Y-10270000I-500000J0D01*
G01*
X12010000Y-1770000D02*
G75*
G02*
X12510000Y-2270000I0J-500000D01*
G01*
X12510000Y-2270000D02*
X12510000Y-9770000D01*
X8010000Y-1770000D02*
X4010000Y-1770000D01*
X12010000Y-10270000D02*
X4010000Y-10270000D01*
X3510000Y-2270000D02*
G75*
G02*
X4010000Y-1770000I500000J0D01*
G01*
D11*
D10*
X4908860Y-6158850D02*
X4948860Y-6198850D01*
X4948860Y-6158850D02*
X4908860Y-6198850D01*
X4932000Y-2935900D02*
X4972000Y-2975900D01*
X4972000Y-2935900D02*
X4932000Y-2975900D01*
X5386670Y-8997770D02*
X5426670Y-9037770D01*
X5426670Y-8997770D02*
X5386670Y-9037770D01*
X5671460Y-8893790D02*
X5711460Y-8933790D01*
X5711460Y-8893790D02*
X5671460Y-8933790D01*
X5700080Y-6398740D02*
X5740080Y-6438740D01*
X5740080Y-6398740D02*
X5700080Y-6438740D01*
X5998090Y-8817220D02*
X6038090Y-8857220D01*
X6038090Y-8817220D02*
X5998090Y-8857220D01*
X6029170Y-7046520D02*
X6069170Y-7086520D01*
X6069170Y-7046520D02*
X6029170Y-7086520D01*
X6171400Y-8771350D02*
X6211400Y-8811350D01*
X6211400Y-8771350D02*
X6171400Y-8811350D01*
X6257970Y-8495330D02*
X6297970Y-8535330D01*
X6297970Y-8495330D02*
X6257970Y-8535330D01*
X6324990Y-7505410D02*
X6364990Y-7545410D01*
X6364990Y-7505410D02*
X6324990Y-7545410D01*
X6330660Y-4919930D02*
X6370660Y-4959930D01*
X6370660Y-4919930D02*
X6330660Y-4959930D01*
X6340130Y-9247060D02*
X6380130Y-9287060D01*
X6380130Y-9247060D02*
X6340130Y-9287060D01*
X6340130Y-10060860D02*
X6380130Y-10100860D01*
X6380130Y-10060860D02*
X6340130Y-10100860D01*
X6457580Y-5346310D02*
X6497580Y-5386310D01*
X6497580Y-5346310D02*
X6457580Y-5386310D01*
X6472780Y-5510950D02*
X6512780Y-5550950D01*
X6512780Y-5510950D02*
X6472780Y-5550950D01*
X6475000Y-3375900D02*
X6515000Y-3415900D01*
X6515000Y-3375900D02*
X6475000Y-3415900D01*
X6539170Y-7401580D02*
X6579170Y-7441580D01*
X6579170Y-7401580D02*
X6539170Y-7441580D01*
X7068170Y-9385200D02*
X7108170Y-9425200D01*
X7108170Y-9385200D02*
X7068170Y-9425200D01*
X7078720Y-6429840D02*
X7118720Y-6469840D01*
X7118720Y-6429840D02*
X7078720Y-6469840D01*
X7183560Y-9793660D02*
X7223560Y-9833660D01*
X7223560Y-9793660D02*
X7183560Y-9833660D01*
X7221770Y-5988320D02*
X7261770Y-6028320D01*
X7261770Y-5988320D02*
X7221770Y-6028320D01*
X7280000Y-4150000D02*
X7320000Y-4190000D01*
X7320000Y-4150000D02*
X7280000Y-4190000D01*
X7280000Y-4690000D02*
X7320000Y-4730000D01*
X7320000Y-4690000D02*
X7280000Y-4730000D01*
X7309260Y-5780480D02*
X7349260Y-5820480D01*
X7349260Y-5780480D02*
X7309260Y-5820480D01*
X7357090Y-7313200D02*
X7397090Y-7353200D01*
X7397090Y-7313200D02*
X7357090Y-7353200D01*
X7465410Y-6120350D02*
X7505410Y-6160350D01*
X7505410Y-6120350D02*
X7465410Y-6160350D01*
X7471180Y-3801150D02*
X7511180Y-3841150D01*
X7511180Y-3801150D02*
X7471180Y-3841150D01*
X7476010Y-4041620D02*
X7516010Y-4081620D01*
X7516010Y-4041620D02*
X7476010Y-4081620D01*
X7541570Y-3265030D02*
X7581570Y-3305030D01*
X7581570Y-3265030D02*
X7541570Y-3305030D01*
X7543000Y-7427900D02*
X7583000Y-7467900D01*
X7583000Y-7427900D02*
X7543000Y-7467900D01*
X7562890Y-6151900D02*
X7602890Y-6191900D01*
X7602890Y-6151900D02*
X7562890Y-6191900D01*
X7576000Y-9121900D02*
X7616000Y-9161900D01*
X7616000Y-9121900D02*
X7576000Y-9161900D01*
X7639000Y-8802900D02*
X7679000Y-8842900D01*
X7679000Y-8802900D02*
X7639000Y-8842900D01*
X7685000Y-9011900D02*
X7725000Y-9051900D01*
X7725000Y-9011900D02*
X7685000Y-9051900D01*
X7759750Y-4960370D02*
X7799750Y-5000370D01*
X7799750Y-4960370D02*
X7759750Y-5000370D01*
X7760070Y-4149210D02*
X7800070Y-4189210D01*
X7800070Y-4149210D02*
X7760070Y-4189210D01*
X7803550Y-4686560D02*
X7843550Y-4726560D01*
X7843550Y-4686560D02*
X7803550Y-4726560D01*
X7820680Y-4350810D02*
X7860680Y-4390810D01*
X7860680Y-4350810D02*
X7820680Y-4390810D01*
X7831440Y-5888860D02*
X7871440Y-5928860D01*
X7871440Y-5888860D02*
X7831440Y-5928860D01*
X7834080Y-7769330D02*
X7874080Y-7809330D01*
X7874080Y-7769330D02*
X7834080Y-7809330D01*
X7839460Y-8471540D02*
X7879460Y-8511540D01*
X7879460Y-8471540D02*
X7839460Y-8511540D01*
X7851560Y-6421390D02*
X7891560Y-6461390D01*
X7891560Y-6421390D02*
X7851560Y-6461390D01*
X7852400Y-6185960D02*
X7892400Y-6225960D01*
X7892400Y-6185960D02*
X7852400Y-6225960D01*
X7855950Y-5134660D02*
X7895950Y-5174660D01*
X7895950Y-5134660D02*
X7855950Y-5174660D01*
X7863560Y-4097120D02*
X7903560Y-4137120D01*
X7903560Y-4097120D02*
X7863560Y-4137120D01*
X7866420Y-6840480D02*
X7906420Y-6880480D01*
X7906420Y-6840480D02*
X7866420Y-6880480D01*
X7868690Y-7658670D02*
X7908690Y-7698670D01*
X7908690Y-7658670D02*
X7868690Y-7698670D01*
X7905540Y-7932390D02*
X7945540Y-7972390D01*
X7945540Y-7932390D02*
X7905540Y-7972390D01*
X7913000Y-9423000D02*
X7953000Y-9463000D01*
X7953000Y-9423000D02*
X7913000Y-9463000D01*
X7915580Y-8291070D02*
X7955580Y-8331070D01*
X7955580Y-8291070D02*
X7915580Y-8331070D01*
X7926000Y-5415000D02*
X7966000Y-5455000D01*
X7966000Y-5415000D02*
X7926000Y-5455000D01*
X7947440Y-3447430D02*
X7987440Y-3487430D01*
X7987440Y-3447430D02*
X7947440Y-3487430D01*
X7956000Y-1971900D02*
X7996000Y-2011900D01*
X7996000Y-1971900D02*
X7956000Y-2011900D01*
X7978850Y-6809410D02*
X8018850Y-6849410D01*
X8018850Y-6809410D02*
X7978850Y-6849410D01*
X8020030Y-8184800D02*
X8060030Y-8224800D01*
X8060030Y-8184800D02*
X8020030Y-8224800D01*
X8028000Y-5135900D02*
X8068000Y-5175900D01*
X8068000Y-5135900D02*
X8028000Y-5175900D01*
X8054720Y-8979800D02*
X8094720Y-9019800D01*
X8094720Y-8979800D02*
X8054720Y-9019800D01*
X8055500Y-6568690D02*
X8095500Y-6608690D01*
X8095500Y-6568690D02*
X8055500Y-6608690D01*
X8077550Y-7867530D02*
X8117550Y-7907530D01*
X8117550Y-7867530D02*
X8077550Y-7907530D01*
X8080000Y-7460000D02*
X8120000Y-7500000D01*
X8120000Y-7460000D02*
X8080000Y-7500000D01*
X8100170Y-5277560D02*
X8140170Y-5317560D01*
X8140170Y-5277560D02*
X8100170Y-5317560D01*
X8103840Y-4476900D02*
X8143840Y-4516900D01*
X8143840Y-4476900D02*
X8103840Y-4516900D01*
X8113810Y-6890270D02*
X8153810Y-6930270D01*
X8153810Y-6890270D02*
X8113810Y-6930270D01*
X8129900Y-8143590D02*
X8169900Y-8183590D01*
X8169900Y-8143590D02*
X8129900Y-8183590D01*
X8152170Y-6430390D02*
X8192170Y-6470390D01*
X8192170Y-6430390D02*
X8152170Y-6470390D01*
X8152240Y-4302000D02*
X8192240Y-4342000D01*
X8192240Y-4302000D02*
X8152240Y-4342000D01*
X8153920Y-6225870D02*
X8193920Y-6265870D01*
X8193920Y-6225870D02*
X8153920Y-6265870D01*
X8231080Y-4174900D02*
X8271080Y-4214900D01*
X8271080Y-4174900D02*
X8231080Y-4214900D01*
X8280000Y-7450000D02*
X8320000Y-7490000D01*
X8320000Y-7450000D02*
X8280000Y-7490000D01*
X8400000Y-8694900D02*
X8440000Y-8734900D01*
X8440000Y-8694900D02*
X8400000Y-8734900D01*
X8412350Y-8163830D02*
X8452350Y-8203830D01*
X8452350Y-8163830D02*
X8412350Y-8203830D01*
X8433030Y-6567460D02*
X8473030Y-6607460D01*
X8473030Y-6567460D02*
X8433030Y-6607460D01*
X8443830Y-6183490D02*
X8483830Y-6223490D01*
X8483830Y-6183490D02*
X8443830Y-6223490D01*
X8472000Y-8866000D02*
X8512000Y-8906000D01*
X8512000Y-8866000D02*
X8472000Y-8906000D01*
X8480140Y-6453490D02*
X8520140Y-6493490D01*
X8520140Y-6453490D02*
X8480140Y-6493490D01*
X8483910Y-6347260D02*
X8523910Y-6387260D01*
X8523910Y-6347260D02*
X8483910Y-6387260D01*
X8489230Y-8305300D02*
X8529230Y-8345300D01*
X8529230Y-8305300D02*
X8489230Y-8345300D01*
X8504970Y-4630480D02*
X8544970Y-4670480D01*
X8544970Y-4630480D02*
X8504970Y-4670480D01*
X8506430Y-4327780D02*
X8546430Y-4367780D01*
X8546430Y-4327780D02*
X8506430Y-4367780D01*
X8508810Y-7569320D02*
X8548810Y-7609320D01*
X8548810Y-7569320D02*
X8508810Y-7609320D01*
X8509710Y-3967710D02*
X8549710Y-4007710D01*
X8549710Y-3967710D02*
X8509710Y-4007710D01*
X8514830Y-8420010D02*
X8554830Y-8460010D01*
X8554830Y-8420010D02*
X8514830Y-8460010D01*
X8521000Y-4080100D02*
X8561000Y-4120100D01*
X8561000Y-4080100D02*
X8521000Y-4120100D01*
X8587350Y-5125670D02*
X8627350Y-5165670D01*
X8627350Y-5125670D02*
X8587350Y-5165670D01*
X8610660Y-9219340D02*
X8650660Y-9259340D01*
X8650660Y-9219340D02*
X8610660Y-9259340D01*
X8656570Y-3995180D02*
X8696570Y-4035180D01*
X8696570Y-3995180D02*
X8656570Y-4035180D01*
X8678000Y-7943000D02*
X8718000Y-7983000D01*
X8718000Y-7943000D02*
X8678000Y-7983000D01*
X8696000Y-8893000D02*
X8736000Y-8933000D01*
X8736000Y-8893000D02*
X8696000Y-8933000D01*
X8724270Y-3920450D02*
X8764270Y-3960450D01*
X8764270Y-3920450D02*
X8724270Y-3960450D01*
X8770270Y-9218160D02*
X8810270Y-9258160D01*
X8810270Y-9218160D02*
X8770270Y-9258160D01*
X8780350Y-8329650D02*
X8820350Y-8369650D01*
X8820350Y-8329650D02*
X8780350Y-8369650D01*
X8847310Y-8851270D02*
X8887310Y-8891270D01*
X8887310Y-8851270D02*
X8847310Y-8891270D01*
X8889350Y-6903810D02*
X8929350Y-6943810D01*
X8929350Y-6903810D02*
X8889350Y-6943810D01*
X8889350Y-7128070D02*
X8929350Y-7168070D01*
X8929350Y-7128070D02*
X8889350Y-7168070D01*
X8891250Y-1890220D02*
X8931250Y-1930220D01*
X8931250Y-1890220D02*
X8891250Y-1930220D01*
X9043420Y-7083570D02*
X9083420Y-7123570D01*
X9083420Y-7083570D02*
X9043420Y-7123570D01*
X9078780Y-9355130D02*
X9118780Y-9395130D01*
X9118780Y-9355130D02*
X9078780Y-9395130D01*
X9343000Y-2694000D02*
X9383000Y-2734000D01*
X9383000Y-2694000D02*
X9343000Y-2734000D01*
X9432180Y-9605310D02*
X9472180Y-9645310D01*
X9472180Y-9605310D02*
X9432180Y-9645310D01*
X9475500Y-9711120D02*
X9515500Y-9751120D01*
X9515500Y-9711120D02*
X9475500Y-9751120D01*
X9580000Y-2880000D02*
X9620000Y-2920000D01*
X9620000Y-2880000D02*
X9580000Y-2920000D01*
X9580000Y-3070000D02*
X9620000Y-3110000D01*
X9620000Y-3070000D02*
X9580000Y-3110000D01*
X9827980Y-6401000D02*
X9867980Y-6441000D01*
X9867980Y-6401000D02*
X9827980Y-6441000D01*
X9900000Y-3230000D02*
X9940000Y-3270000D01*
X9940000Y-3230000D02*
X9900000Y-3270000D01*
X10120000Y-1860000D02*
X10160000Y-1900000D01*
X10160000Y-1860000D02*
X10120000Y-1900000D01*
X10203980Y-9644830D02*
X10243980Y-9684830D01*
X10243980Y-9644830D02*
X10203980Y-9684830D01*
X10460000Y-2220000D02*
X10500000Y-2260000D01*
X10500000Y-2220000D02*
X10460000Y-2260000D01*
X10470000Y-2030000D02*
X10510000Y-2070000D01*
X10510000Y-2030000D02*
X10470000Y-2070000D01*
X10470170Y-9658400D02*
X10510170Y-9698400D01*
X10510170Y-9658400D02*
X10470170Y-9698400D01*
X10544230Y-7900000D02*
X10584230Y-7940000D01*
X10584230Y-7900000D02*
X10544230Y-7940000D01*
X10725190Y-5644880D02*
X10765190Y-5684880D01*
X10765190Y-5644880D02*
X10725190Y-5684880D01*
X10738150Y-5845220D02*
X10778150Y-5885220D01*
X10778150Y-5845220D02*
X10738150Y-5885220D01*
X10845260Y-9657900D02*
X10885260Y-9697900D01*
X10885260Y-9657900D02*
X10845260Y-9697900D01*
X10845260Y-9808840D02*
X10885260Y-9848840D01*
X10885260Y-9808840D02*
X10845260Y-9848840D01*
X10888450Y-10069900D02*
X10928450Y-10109900D01*
X10928450Y-10069900D02*
X10888450Y-10109900D01*
X10986740Y-6147000D02*
X11026740Y-6187000D01*
X11026740Y-6147000D02*
X10986740Y-6187000D01*
X11398000Y-10069900D02*
X11438000Y-10109900D01*
X11438000Y-10069900D02*
X11398000Y-10109900D01*
X11564000Y-3655000D02*
X11604000Y-3695000D01*
X11604000Y-3655000D02*
X11564000Y-3695000D01*
X11941800Y-6669630D02*
X11981800Y-6709630D01*
X11981800Y-6669630D02*
X11941800Y-6709630D01*
X12215120Y-7305880D02*
X12255120Y-7345880D01*
X12255120Y-7305880D02*
X12215120Y-7345880D01*
X12407270Y-7775900D02*
X12447270Y-7815900D01*
X12447270Y-7775900D02*
X12407270Y-7815900D01*
X6789000Y-4011000D02*
G75*
G02*
X6689000Y-4011000I-50000J0D01*
G01*
X6689000Y-4011000D02*
G75*
G02*
X6789000Y-4011000I50000J0D01*
G01*
X6789000Y-4265000D02*
G75*
G02*
X6689000Y-4265000I-50000J0D01*
G01*
X6689000Y-4265000D02*
G75*
G02*
X6789000Y-4265000I50000J0D01*
G01*
X6789000Y-4519000D02*
G75*
G02*
X6689000Y-4519000I-50000J0D01*
G01*
X6689000Y-4519000D02*
G75*
G02*
X6789000Y-4519000I50000J0D01*
G01*
X6789000Y-4773000D02*
G75*
G02*
X6689000Y-4773000I-50000J0D01*
G01*
X6689000Y-4773000D02*
G75*
G02*
X6789000Y-4773000I50000J0D01*
G01*
X6789000Y-5027000D02*
G75*
G02*
X6689000Y-5027000I-50000J0D01*
G01*
X6689000Y-5027000D02*
G75*
G02*
X6789000Y-5027000I50000J0D01*
G01*
X6789000Y-5281000D02*
G75*
G02*
X6689000Y-5281000I-50000J0D01*
G01*
X6689000Y-5281000D02*
G75*
G02*
X6789000Y-5281000I50000J0D01*
G01*
X6789000Y-5535000D02*
G75*
G02*
X6689000Y-5535000I-50000J0D01*
G01*
X6689000Y-5535000D02*
G75*
G02*
X6789000Y-5535000I50000J0D01*
G01*
X6789000Y-5789000D02*
G75*
G02*
X6689000Y-5789000I-50000J0D01*
G01*
X6689000Y-5789000D02*
G75*
G02*
X6789000Y-5789000I50000J0D01*
G01*
X6789000Y-6043000D02*
G75*
G02*
X6689000Y-6043000I-50000J0D01*
G01*
X6689000Y-6043000D02*
G75*
G02*
X6789000Y-6043000I50000J0D01*
G01*
X6789000Y-6297000D02*
G75*
G02*
X6689000Y-6297000I-50000J0D01*
G01*
X6689000Y-6297000D02*
G75*
G02*
X6789000Y-6297000I50000J0D01*
G01*
X6789000Y-6551000D02*
G75*
G02*
X6689000Y-6551000I-50000J0D01*
G01*
X6689000Y-6551000D02*
G75*
G02*
X6789000Y-6551000I50000J0D01*
G01*
X6789000Y-6805000D02*
G75*
G02*
X6689000Y-6805000I-50000J0D01*
G01*
X6689000Y-6805000D02*
G75*
G02*
X6789000Y-6805000I50000J0D01*
G01*
X6789000Y-7059000D02*
G75*
G02*
X6689000Y-7059000I-50000J0D01*
G01*
X6689000Y-7059000D02*
G75*
G02*
X6789000Y-7059000I50000J0D01*
G01*
X6789000Y-7313000D02*
G75*
G02*
X6689000Y-7313000I-50000J0D01*
G01*
X6689000Y-7313000D02*
G75*
G02*
X6789000Y-7313000I50000J0D01*
G01*
X6789000Y-7567000D02*
G75*
G02*
X6689000Y-7567000I-50000J0D01*
G01*
X6689000Y-7567000D02*
G75*
G02*
X6789000Y-7567000I50000J0D01*
G01*
X6789000Y-7821000D02*
G75*
G02*
X6689000Y-7821000I-50000J0D01*
G01*
X6689000Y-7821000D02*
G75*
G02*
X6789000Y-7821000I50000J0D01*
G01*
X6789000Y-8075000D02*
G75*
G02*
X6689000Y-8075000I-50000J0D01*
G01*
X6689000Y-8075000D02*
G75*
G02*
X6789000Y-8075000I50000J0D01*
G01*
X6789000Y-8329000D02*
G75*
G02*
X6689000Y-8329000I-50000J0D01*
G01*
X6689000Y-8329000D02*
G75*
G02*
X6789000Y-8329000I50000J0D01*
G01*
X6789000Y-8583000D02*
G75*
G02*
X6689000Y-8583000I-50000J0D01*
G01*
X6689000Y-8583000D02*
G75*
G02*
X6789000Y-8583000I50000J0D01*
G01*
X9335000Y-4008000D02*
G75*
G02*
X9235000Y-4008000I-50000J0D01*
G01*
X9235000Y-4008000D02*
G75*
G02*
X9335000Y-4008000I50000J0D01*
G01*
X9335000Y-4262000D02*
G75*
G02*
X9235000Y-4262000I-50000J0D01*
G01*
X9235000Y-4262000D02*
G75*
G02*
X9335000Y-4262000I50000J0D01*
G01*
X9335000Y-4516000D02*
G75*
G02*
X9235000Y-4516000I-50000J0D01*
G01*
X9235000Y-4516000D02*
G75*
G02*
X9335000Y-4516000I50000J0D01*
G01*
X9335000Y-4770000D02*
G75*
G02*
X9235000Y-4770000I-50000J0D01*
G01*
X9235000Y-4770000D02*
G75*
G02*
X9335000Y-4770000I50000J0D01*
G01*
X9335000Y-5024000D02*
G75*
G02*
X9235000Y-5024000I-50000J0D01*
G01*
X9235000Y-5024000D02*
G75*
G02*
X9335000Y-5024000I50000J0D01*
G01*
X9335000Y-5278000D02*
G75*
G02*
X9235000Y-5278000I-50000J0D01*
G01*
X9235000Y-5278000D02*
G75*
G02*
X9335000Y-5278000I50000J0D01*
G01*
X9335000Y-5532000D02*
G75*
G02*
X9235000Y-5532000I-50000J0D01*
G01*
X9235000Y-5532000D02*
G75*
G02*
X9335000Y-5532000I50000J0D01*
G01*
X9335000Y-5786000D02*
G75*
G02*
X9235000Y-5786000I-50000J0D01*
G01*
X9235000Y-5786000D02*
G75*
G02*
X9335000Y-5786000I50000J0D01*
G01*
X9335000Y-6040000D02*
G75*
G02*
X9235000Y-6040000I-50000J0D01*
G01*
X9235000Y-6040000D02*
G75*
G02*
X9335000Y-6040000I50000J0D01*
G01*
X9335000Y-6294000D02*
G75*
G02*
X9235000Y-6294000I-50000J0D01*
G01*
X9235000Y-6294000D02*
G75*
G02*
X9335000Y-6294000I50000J0D01*
G01*
X9335000Y-6548000D02*
G75*
G02*
X9235000Y-6548000I-50000J0D01*
G01*
X9235000Y-6548000D02*
G75*
G02*
X9335000Y-6548000I50000J0D01*
G01*
X9335000Y-6802000D02*
G75*
G02*
X9235000Y-6802000I-50000J0D01*
G01*
X9235000Y-6802000D02*
G75*
G02*
X9335000Y-6802000I50000J0D01*
G01*
X9335000Y-7056000D02*
G75*
G02*
X9235000Y-7056000I-50000J0D01*
G01*
X9235000Y-7056000D02*
G75*
G02*
X9335000Y-7056000I50000J0D01*
G01*
X9335000Y-7310000D02*
G75*
G02*
X9235000Y-7310000I-50000J0D01*
G01*
X9235000Y-7310000D02*
G75*
G02*
X9335000Y-7310000I50000J0D01*
G01*
X9335000Y-7564000D02*
G75*
G02*
X9235000Y-7564000I-50000J0D01*
G01*
X9235000Y-7564000D02*
G75*
G02*
X9335000Y-7564000I50000J0D01*
G01*
X9335000Y-7818000D02*
G75*
G02*
X9235000Y-7818000I-50000J0D01*
G01*
X9235000Y-7818000D02*
G75*
G02*
X9335000Y-7818000I50000J0D01*
G01*
X9335000Y-8072000D02*
G75*
G02*
X9235000Y-8072000I-50000J0D01*
G01*
X9235000Y-8072000D02*
G75*
G02*
X9335000Y-8072000I50000J0D01*
G01*
X9335000Y-8326000D02*
G75*
G02*
X9235000Y-8326000I-50000J0D01*
G01*
X9235000Y-8326000D02*
G75*
G02*
X9335000Y-8326000I50000J0D01*
G01*
X9335000Y-8580000D02*
G75*
G02*
X9235000Y-8580000I-50000J0D01*
G01*
X9235000Y-8580000D02*
G75*
G02*
X9335000Y-8580000I50000J0D01*
G01*
X10640000Y-2890000D02*
G75*
G02*
X10540000Y-2890000I-50000J0D01*
G01*
X10540000Y-2890000D02*
G75*
G02*
X10640000Y-2890000I50000J0D01*
G01*
X10540000Y-2790000D02*
X10540000Y-2990000D01*
X10640000Y-2990000D02*
G75*
G02*
X10540000Y-2990000I-50000J0D01*
G01*
X10640000Y-2990000D02*
X10640000Y-2790000D01*
X10640000Y-2790000D02*
G75*
G03*
X10540000Y-2790000I-50000J0D01*
G01*
X11110000Y-2590000D02*
G75*
G02*
X11010000Y-2590000I-50000J0D01*
G01*
X11010000Y-2590000D02*
G75*
G02*
X11110000Y-2590000I50000J0D01*
G01*
X11160000Y-2540000D02*
X10960000Y-2540000D01*
X10960000Y-2640000D02*
G75*
G02*
X10960000Y-2540000I0J50000D01*
G01*
X10960000Y-2640000D02*
X11160000Y-2640000D01*
X11160000Y-2640000D02*
G75*
G03*
X11160000Y-2540000I0J50000D01*
G01*
X11110000Y-3190000D02*
G75*
G02*
X11010000Y-3190000I-50000J0D01*
G01*
X11010000Y-3190000D02*
G75*
G02*
X11110000Y-3190000I50000J0D01*
G01*
X11160000Y-3140000D02*
X10960000Y-3140000D01*
X10960000Y-3240000D02*
G75*
G02*
X10960000Y-3140000I0J50000D01*
G01*
X10960000Y-3240000D02*
X11160000Y-3240000D01*
X11160000Y-3240000D02*
G75*
G03*
X11160000Y-3140000I0J50000D01*
G01*
D12*
X3830000Y-3330000D02*
X3830000Y-3450000D01*
X3770000Y-3390000D02*
X3890000Y-3390000D01*
X3830000Y-3830000D02*
X3830000Y-3950000D01*
X3770000Y-3890000D02*
X3890000Y-3890000D01*
X4214000Y-6665000D02*
X4214000Y-6785000D01*
X4154000Y-6725000D02*
X4274000Y-6725000D01*
X4214000Y-6915000D02*
X4214000Y-7035000D01*
X4154000Y-6975000D02*
X4274000Y-6975000D01*
X4214000Y-7165000D02*
X4214000Y-7285000D01*
X4154000Y-7225000D02*
X4274000Y-7225000D01*
X4214000Y-7415000D02*
X4214000Y-7535000D01*
X4154000Y-7475000D02*
X4274000Y-7475000D01*
X4225000Y-8356000D02*
X4225000Y-8476000D01*
X4165000Y-8416000D02*
X4285000Y-8416000D01*
X4225000Y-8606000D02*
X4225000Y-8726000D01*
X4165000Y-8666000D02*
X4285000Y-8666000D01*
X4230000Y-4970000D02*
X4230000Y-5090000D01*
X4170000Y-5030000D02*
X4290000Y-5030000D01*
X4230000Y-5220000D02*
X4230000Y-5340000D01*
X4170000Y-5280000D02*
X4290000Y-5280000D01*
X4230000Y-5470000D02*
X4230000Y-5590000D01*
X4170000Y-5530000D02*
X4290000Y-5530000D01*
X4230000Y-5720000D02*
X4230000Y-5840000D01*
X4170000Y-5780000D02*
X4290000Y-5780000D01*
X4230000Y-5970000D02*
X4230000Y-6090000D01*
X4170000Y-6030000D02*
X4290000Y-6030000D01*
X4464000Y-6665000D02*
X4464000Y-6785000D01*
X4404000Y-6725000D02*
X4524000Y-6725000D01*
X4464000Y-6915000D02*
X4464000Y-7035000D01*
X4404000Y-6975000D02*
X4524000Y-6975000D01*
X4464000Y-7165000D02*
X4464000Y-7285000D01*
X4404000Y-7225000D02*
X4524000Y-7225000D01*
X4464000Y-7415000D02*
X4464000Y-7535000D01*
X4404000Y-7475000D02*
X4524000Y-7475000D01*
X4475000Y-8356000D02*
X4475000Y-8476000D01*
X4415000Y-8416000D02*
X4535000Y-8416000D01*
X4475000Y-8606000D02*
X4475000Y-8726000D01*
X4415000Y-8666000D02*
X4535000Y-8666000D01*
X4480000Y-4970000D02*
X4480000Y-5090000D01*
X4420000Y-5030000D02*
X4540000Y-5030000D01*
X4480000Y-5220000D02*
X4480000Y-5340000D01*
X4420000Y-5280000D02*
X4540000Y-5280000D01*
X4480000Y-5470000D02*
X4480000Y-5590000D01*
X4420000Y-5530000D02*
X4540000Y-5530000D01*
X4480000Y-5720000D02*
X4480000Y-5840000D01*
X4420000Y-5780000D02*
X4540000Y-5780000D01*
X4480000Y-5970000D02*
X4480000Y-6090000D01*
X4420000Y-6030000D02*
X4540000Y-6030000D01*
X4705000Y-2244000D02*
X4705000Y-2364000D01*
X4645000Y-2304000D02*
X4765000Y-2304000D01*
X4705000Y-2494000D02*
X4705000Y-2614000D01*
X4645000Y-2554000D02*
X4765000Y-2554000D01*
X4725000Y-8356000D02*
X4725000Y-8476000D01*
X4665000Y-8416000D02*
X4785000Y-8416000D01*
X4725000Y-8606000D02*
X4725000Y-8726000D01*
X4665000Y-8666000D02*
X4785000Y-8666000D01*
X4955000Y-2244000D02*
X4955000Y-2364000D01*
X4895000Y-2304000D02*
X5015000Y-2304000D01*
X4955000Y-2494000D02*
X4955000Y-2614000D01*
X4895000Y-2554000D02*
X5015000Y-2554000D01*
X4975000Y-8356000D02*
X4975000Y-8476000D01*
X4915000Y-8416000D02*
X5035000Y-8416000D01*
X4975000Y-8606000D02*
X4975000Y-8726000D01*
X4915000Y-8666000D02*
X5035000Y-8666000D01*
X5205000Y-2244000D02*
X5205000Y-2364000D01*
X5145000Y-2304000D02*
X5265000Y-2304000D01*
X5205000Y-2494000D02*
X5205000Y-2614000D01*
X5145000Y-2554000D02*
X5265000Y-2554000D01*
X5225000Y-8356000D02*
X5225000Y-8476000D01*
X5165000Y-8416000D02*
X5285000Y-8416000D01*
X5225000Y-8606000D02*
X5225000Y-8726000D01*
X5165000Y-8666000D02*
X5285000Y-8666000D01*
X5455000Y-2244000D02*
X5455000Y-2364000D01*
X5395000Y-2304000D02*
X5515000Y-2304000D01*
X5455000Y-2494000D02*
X5455000Y-2614000D01*
X5395000Y-2554000D02*
X5515000Y-2554000D01*
X5475000Y-8356000D02*
X5475000Y-8476000D01*
X5415000Y-8416000D02*
X5535000Y-8416000D01*
X5475000Y-8606000D02*
X5475000Y-8726000D01*
X5415000Y-8666000D02*
X5535000Y-8666000D01*
X5725000Y-8356000D02*
X5725000Y-8476000D01*
X5665000Y-8416000D02*
X5785000Y-8416000D01*
X5725000Y-8606000D02*
X5725000Y-8726000D01*
X5665000Y-8666000D02*
X5785000Y-8666000D01*
X5902000Y-2243000D02*
X5902000Y-2363000D01*
X5842000Y-2303000D02*
X5962000Y-2303000D01*
X5902000Y-2493000D02*
X5902000Y-2613000D01*
X5842000Y-2553000D02*
X5962000Y-2553000D01*
X5975000Y-8356000D02*
X5975000Y-8476000D01*
X5915000Y-8416000D02*
X6035000Y-8416000D01*
X5975000Y-8606000D02*
X5975000Y-8726000D01*
X5915000Y-8666000D02*
X6035000Y-8666000D01*
X6152000Y-2243000D02*
X6152000Y-2363000D01*
X6092000Y-2303000D02*
X6212000Y-2303000D01*
X6152000Y-2493000D02*
X6152000Y-2613000D01*
X6092000Y-2553000D02*
X6212000Y-2553000D01*
X6402000Y-2243000D02*
X6402000Y-2363000D01*
X6342000Y-2303000D02*
X6462000Y-2303000D01*
X6402000Y-2493000D02*
X6402000Y-2613000D01*
X6342000Y-2553000D02*
X6462000Y-2553000D01*
X6652000Y-2243000D02*
X6652000Y-2363000D01*
X6592000Y-2303000D02*
X6712000Y-2303000D01*
X6652000Y-2493000D02*
X6652000Y-2613000D01*
X6592000Y-2553000D02*
X6712000Y-2553000D01*
X7970000Y-9810000D02*
X7970000Y-9930000D01*
X7910000Y-9870000D02*
X8030000Y-9870000D01*
X8560000Y-9820000D02*
X8560000Y-9940000D01*
X8500000Y-9880000D02*
X8620000Y-9880000D01*
X9940000Y-3498000D02*
X9940000Y-3618000D01*
X9880000Y-3558000D02*
X10000000Y-3558000D01*
X10041000Y-4129000D02*
X10041000Y-4249000D01*
X9981000Y-4189000D02*
X10101000Y-4189000D01*
X10043000Y-4606000D02*
X10043000Y-4726000D01*
X9983000Y-4666000D02*
X10103000Y-4666000D01*
X10065000Y-8356000D02*
X10065000Y-8476000D01*
X10005000Y-8416000D02*
X10125000Y-8416000D01*
X10065000Y-8606000D02*
X10065000Y-8726000D01*
X10005000Y-8666000D02*
X10125000Y-8666000D01*
X10315000Y-8356000D02*
X10315000Y-8476000D01*
X10255000Y-8416000D02*
X10375000Y-8416000D01*
X10315000Y-8606000D02*
X10315000Y-8726000D01*
X10255000Y-8666000D02*
X10375000Y-8666000D01*
X10565000Y-8356000D02*
X10565000Y-8476000D01*
X10505000Y-8416000D02*
X10625000Y-8416000D01*
X10565000Y-8606000D02*
X10565000Y-8726000D01*
X10505000Y-8666000D02*
X10625000Y-8666000D01*
X10815000Y-8356000D02*
X10815000Y-8476000D01*
X10755000Y-8416000D02*
X10875000Y-8416000D01*
X10815000Y-8606000D02*
X10815000Y-8726000D01*
X10755000Y-8666000D02*
X10875000Y-8666000D01*
X11065000Y-8356000D02*
X11065000Y-8476000D01*
X11005000Y-8416000D02*
X11125000Y-8416000D01*
X11065000Y-8606000D02*
X11065000Y-8726000D01*
X11005000Y-8666000D02*
X11125000Y-8666000D01*
X11315000Y-8356000D02*
X11315000Y-8476000D01*
X11255000Y-8416000D02*
X11375000Y-8416000D01*
X11315000Y-8606000D02*
X11315000Y-8726000D01*
X11255000Y-8666000D02*
X11375000Y-8666000D01*
X11565000Y-8356000D02*
X11565000Y-8476000D01*
X11505000Y-8416000D02*
X11625000Y-8416000D01*
X11565000Y-8606000D02*
X11565000Y-8726000D01*
X11505000Y-8666000D02*
X11625000Y-8666000D01*
X11566000Y-6665000D02*
X11566000Y-6785000D01*
X11506000Y-6725000D02*
X11626000Y-6725000D01*
X11566000Y-6915000D02*
X11566000Y-7035000D01*
X11506000Y-6975000D02*
X11626000Y-6975000D01*
X11566000Y-7165000D02*
X11566000Y-7285000D01*
X11506000Y-7225000D02*
X11626000Y-7225000D01*
X11566000Y-7415000D02*
X11566000Y-7535000D01*
X11506000Y-7475000D02*
X11626000Y-7475000D01*
X11570000Y-4970000D02*
X11570000Y-5090000D01*
X11510000Y-5030000D02*
X11630000Y-5030000D01*
X11570000Y-5220000D02*
X11570000Y-5340000D01*
X11510000Y-5280000D02*
X11630000Y-5280000D01*
X11570000Y-5470000D02*
X11570000Y-5590000D01*
X11510000Y-5530000D02*
X11630000Y-5530000D01*
X11570000Y-5720000D02*
X11570000Y-5840000D01*
X11510000Y-5780000D02*
X11630000Y-5780000D01*
X11570000Y-5970000D02*
X11570000Y-6090000D01*
X11510000Y-6030000D02*
X11630000Y-6030000D01*
X11815000Y-8356000D02*
X11815000Y-8476000D01*
X11755000Y-8416000D02*
X11875000Y-8416000D01*
X11815000Y-8606000D02*
X11815000Y-8726000D01*
X11755000Y-8666000D02*
X11875000Y-8666000D01*
X11816000Y-6665000D02*
X11816000Y-6785000D01*
X11756000Y-6725000D02*
X11876000Y-6725000D01*
X11816000Y-6915000D02*
X11816000Y-7035000D01*
X11756000Y-6975000D02*
X11876000Y-6975000D01*
X11816000Y-7165000D02*
X11816000Y-7285000D01*
X11756000Y-7225000D02*
X11876000Y-7225000D01*
X11816000Y-7415000D02*
X11816000Y-7535000D01*
X11756000Y-7475000D02*
X11876000Y-7475000D01*
X11820000Y-4970000D02*
X11820000Y-5090000D01*
X11760000Y-5030000D02*
X11880000Y-5030000D01*
X11820000Y-5220000D02*
X11820000Y-5340000D01*
X11760000Y-5280000D02*
X11880000Y-5280000D01*
X11820000Y-5470000D02*
X11820000Y-5590000D01*
X11760000Y-5530000D02*
X11880000Y-5530000D01*
X11820000Y-5720000D02*
X11820000Y-5840000D01*
X11760000Y-5780000D02*
X11880000Y-5780000D01*
X11820000Y-5970000D02*
X11820000Y-6090000D01*
X11760000Y-6030000D02*
X11880000Y-6030000D01*
D13*
X12284247Y-3094247D02*
X12284247Y-2945753D01*
X12135753Y-2945753D01*
X12135753Y-3094247D01*
X12284247Y-3094247D01*
X12284247Y-3874247D02*
X12284247Y-3725753D01*
X12135753Y-3725753D01*
X12135753Y-3874247D01*
X12284247Y-3874247D01*
D14*
X4010000Y-2485000D02*
X4225000Y-2270000D01*
X4010000Y-2055000D01*
X3795000Y-2270000D01*
X4010000Y-2485000D01*
X4010000Y-9985000D02*
X4225000Y-9770000D01*
X4010000Y-9555000D01*
X3795000Y-9770000D01*
X4010000Y-9985000D01*
X12010000Y-2485000D02*
X12225000Y-2270000D01*
X12010000Y-2055000D01*
X11795000Y-2270000D01*
X12010000Y-2485000D01*
X12010000Y-9985000D02*
X12225000Y-9770000D01*
X12010000Y-9555000D01*
X11795000Y-9770000D01*
X12010000Y-9985000D01*
D11*
X3765777Y-10586484D02*
X3765777Y-10386484D01*
X3765777Y-10386484D02*
X3813396Y-10386484D01*
X3813396Y-10386484D02*
X3841967Y-10396008D01*
X3841967Y-10396008D02*
X3861015Y-10415055D01*
X3861015Y-10415055D02*
X3870539Y-10434103D01*
X3870539Y-10434103D02*
X3880062Y-10472198D01*
X3880062Y-10472198D02*
X3880062Y-10500770D01*
X3880062Y-10500770D02*
X3870539Y-10538865D01*
X3870539Y-10538865D02*
X3861015Y-10557912D01*
X3861015Y-10557912D02*
X3841967Y-10576960D01*
X3841967Y-10576960D02*
X3813396Y-10586484D01*
X3813396Y-10586484D02*
X3765777Y-10586484D01*
X3965777Y-10586484D02*
X3965777Y-10453150D01*
X3965777Y-10491246D02*
X3975301Y-10472198D01*
X3975301Y-10472198D02*
X3984824Y-10462674D01*
X3984824Y-10462674D02*
X4003872Y-10453150D01*
X4003872Y-10453150D02*
X4022920Y-10453150D01*
X4089586Y-10586484D02*
X4089586Y-10453150D01*
X4089586Y-10386484D02*
X4080062Y-10396008D01*
X4080062Y-10396008D02*
X4089586Y-10405531D01*
X4089586Y-10405531D02*
X4099110Y-10396008D01*
X4099110Y-10396008D02*
X4089586Y-10386484D01*
X4089586Y-10386484D02*
X4089586Y-10405531D01*
X4213396Y-10586484D02*
X4194348Y-10576960D01*
X4194348Y-10576960D02*
X4184824Y-10557912D01*
X4184824Y-10557912D02*
X4184824Y-10386484D01*
X4318158Y-10586484D02*
X4299110Y-10576960D01*
X4299110Y-10576960D02*
X4289586Y-10557912D01*
X4289586Y-10557912D02*
X4289586Y-10386484D01*
X4546729Y-10586484D02*
X4546729Y-10386484D01*
X4546729Y-10386484D02*
X4613396Y-10529341D01*
X4613396Y-10529341D02*
X4680063Y-10386484D01*
X4680063Y-10386484D02*
X4680063Y-10586484D01*
X4861015Y-10586484D02*
X4861015Y-10481722D01*
X4861015Y-10481722D02*
X4851491Y-10462674D01*
X4851491Y-10462674D02*
X4832444Y-10453150D01*
X4832444Y-10453150D02*
X4794348Y-10453150D01*
X4794348Y-10453150D02*
X4775301Y-10462674D01*
X4861015Y-10576960D02*
X4841967Y-10586484D01*
X4841967Y-10586484D02*
X4794348Y-10586484D01*
X4794348Y-10586484D02*
X4775301Y-10576960D01*
X4775301Y-10576960D02*
X4765777Y-10557912D01*
X4765777Y-10557912D02*
X4765777Y-10538865D01*
X4765777Y-10538865D02*
X4775301Y-10519817D01*
X4775301Y-10519817D02*
X4794348Y-10510293D01*
X4794348Y-10510293D02*
X4841967Y-10510293D01*
X4841967Y-10510293D02*
X4861015Y-10500770D01*
X4956253Y-10453150D02*
X4956253Y-10653150D01*
X4956253Y-10462674D02*
X4975301Y-10453150D01*
X4975301Y-10453150D02*
X5013396Y-10453150D01*
X5013396Y-10453150D02*
X5032444Y-10462674D01*
X5032444Y-10462674D02*
X5041967Y-10472198D01*
X5041967Y-10472198D02*
X5051491Y-10491246D01*
X5051491Y-10491246D02*
X5051491Y-10548389D01*
X5051491Y-10548389D02*
X5041967Y-10567436D01*
X5041967Y-10567436D02*
X5032444Y-10576960D01*
X5032444Y-10576960D02*
X5013396Y-10586484D01*
X5013396Y-10586484D02*
X4975301Y-10586484D01*
X4975301Y-10586484D02*
X4956253Y-10576960D01*
X5137205Y-10567436D02*
X5146729Y-10576960D01*
X5146729Y-10576960D02*
X5137205Y-10586484D01*
X5137205Y-10586484D02*
X5127682Y-10576960D01*
X5127682Y-10576960D02*
X5137205Y-10567436D01*
X5137205Y-10567436D02*
X5137205Y-10586484D01*
X5137205Y-10462674D02*
X5146729Y-10472198D01*
X5146729Y-10472198D02*
X5137205Y-10481722D01*
X5137205Y-10481722D02*
X5127682Y-10472198D01*
X5127682Y-10472198D02*
X5137205Y-10462674D01*
X5137205Y-10462674D02*
X5137205Y-10481722D01*
D10*
X3465000Y-10895000D02*
X3505000Y-10935000D01*
X3505000Y-10895000D02*
X3465000Y-10935000D01*
D11*
X3803872Y-10806484D02*
X3822920Y-10806484D01*
X3822920Y-10806484D02*
X3841967Y-10816008D01*
X3841967Y-10816008D02*
X3851491Y-10825531D01*
X3851491Y-10825531D02*
X3861015Y-10844579D01*
X3861015Y-10844579D02*
X3870539Y-10882674D01*
X3870539Y-10882674D02*
X3870539Y-10930293D01*
X3870539Y-10930293D02*
X3861015Y-10968389D01*
X3861015Y-10968389D02*
X3851491Y-10987436D01*
X3851491Y-10987436D02*
X3841967Y-10996960D01*
X3841967Y-10996960D02*
X3822920Y-11006484D01*
X3822920Y-11006484D02*
X3803872Y-11006484D01*
X3803872Y-11006484D02*
X3784824Y-10996960D01*
X3784824Y-10996960D02*
X3775301Y-10987436D01*
X3775301Y-10987436D02*
X3765777Y-10968389D01*
X3765777Y-10968389D02*
X3756253Y-10930293D01*
X3756253Y-10930293D02*
X3756253Y-10882674D01*
X3756253Y-10882674D02*
X3765777Y-10844579D01*
X3765777Y-10844579D02*
X3775301Y-10825531D01*
X3775301Y-10825531D02*
X3784824Y-10816008D01*
X3784824Y-10816008D02*
X3803872Y-10806484D01*
X3956253Y-10987436D02*
X3965777Y-10996960D01*
X3965777Y-10996960D02*
X3956253Y-11006484D01*
X3956253Y-11006484D02*
X3946729Y-10996960D01*
X3946729Y-10996960D02*
X3956253Y-10987436D01*
X3956253Y-10987436D02*
X3956253Y-11006484D01*
X4137205Y-10873150D02*
X4137205Y-11006484D01*
X4089586Y-10796960D02*
X4041967Y-10939817D01*
X4041967Y-10939817D02*
X4165777Y-10939817D01*
X4280063Y-10806484D02*
X4299110Y-10806484D01*
X4299110Y-10806484D02*
X4318158Y-10816008D01*
X4318158Y-10816008D02*
X4327682Y-10825531D01*
X4327682Y-10825531D02*
X4337205Y-10844579D01*
X4337205Y-10844579D02*
X4346729Y-10882674D01*
X4346729Y-10882674D02*
X4346729Y-10930293D01*
X4346729Y-10930293D02*
X4337205Y-10968389D01*
X4337205Y-10968389D02*
X4327682Y-10987436D01*
X4327682Y-10987436D02*
X4318158Y-10996960D01*
X4318158Y-10996960D02*
X4299110Y-11006484D01*
X4299110Y-11006484D02*
X4280063Y-11006484D01*
X4280063Y-11006484D02*
X4261015Y-10996960D01*
X4261015Y-10996960D02*
X4251491Y-10987436D01*
X4251491Y-10987436D02*
X4241967Y-10968389D01*
X4241967Y-10968389D02*
X4232444Y-10930293D01*
X4232444Y-10930293D02*
X4232444Y-10882674D01*
X4232444Y-10882674D02*
X4241967Y-10844579D01*
X4241967Y-10844579D02*
X4251491Y-10825531D01*
X4251491Y-10825531D02*
X4261015Y-10816008D01*
X4261015Y-10816008D02*
X4280063Y-10806484D01*
X4470539Y-10806484D02*
X4489586Y-10806484D01*
X4489586Y-10806484D02*
X4508634Y-10816008D01*
X4508634Y-10816008D02*
X4518158Y-10825531D01*
X4518158Y-10825531D02*
X4527682Y-10844579D01*
X4527682Y-10844579D02*
X4537205Y-10882674D01*
X4537205Y-10882674D02*
X4537205Y-10930293D01*
X4537205Y-10930293D02*
X4527682Y-10968389D01*
X4527682Y-10968389D02*
X4518158Y-10987436D01*
X4518158Y-10987436D02*
X4508634Y-10996960D01*
X4508634Y-10996960D02*
X4489586Y-11006484D01*
X4489586Y-11006484D02*
X4470539Y-11006484D01*
X4470539Y-11006484D02*
X4451491Y-10996960D01*
X4451491Y-10996960D02*
X4441967Y-10987436D01*
X4441967Y-10987436D02*
X4432444Y-10968389D01*
X4432444Y-10968389D02*
X4422920Y-10930293D01*
X4422920Y-10930293D02*
X4422920Y-10882674D01*
X4422920Y-10882674D02*
X4432444Y-10844579D01*
X4432444Y-10844579D02*
X4441967Y-10825531D01*
X4441967Y-10825531D02*
X4451491Y-10816008D01*
X4451491Y-10816008D02*
X4470539Y-10806484D01*
X4622920Y-11006484D02*
X4622920Y-10873150D01*
X4622920Y-10892198D02*
X4632444Y-10882674D01*
X4632444Y-10882674D02*
X4651491Y-10873150D01*
X4651491Y-10873150D02*
X4680063Y-10873150D01*
X4680063Y-10873150D02*
X4699110Y-10882674D01*
X4699110Y-10882674D02*
X4708634Y-10901722D01*
X4708634Y-10901722D02*
X4708634Y-11006484D01*
X4708634Y-10901722D02*
X4718158Y-10882674D01*
X4718158Y-10882674D02*
X4737205Y-10873150D01*
X4737205Y-10873150D02*
X4765777Y-10873150D01*
X4765777Y-10873150D02*
X4784825Y-10882674D01*
X4784825Y-10882674D02*
X4794348Y-10901722D01*
X4794348Y-10901722D02*
X4794348Y-11006484D01*
X4889586Y-11006484D02*
X4889586Y-10873150D01*
X4889586Y-10892198D02*
X4899110Y-10882674D01*
X4899110Y-10882674D02*
X4918158Y-10873150D01*
X4918158Y-10873150D02*
X4946729Y-10873150D01*
X4946729Y-10873150D02*
X4965777Y-10882674D01*
X4965777Y-10882674D02*
X4975301Y-10901722D01*
X4975301Y-10901722D02*
X4975301Y-11006484D01*
X4975301Y-10901722D02*
X4984825Y-10882674D01*
X4984825Y-10882674D02*
X5003872Y-10873150D01*
X5003872Y-10873150D02*
X5032444Y-10873150D01*
X5032444Y-10873150D02*
X5051491Y-10882674D01*
X5051491Y-10882674D02*
X5061015Y-10901722D01*
X5061015Y-10901722D02*
X5061015Y-11006484D01*
X5451491Y-10796960D02*
X5280063Y-11054103D01*
X5708634Y-10806484D02*
X5727682Y-10806484D01*
X5727682Y-10806484D02*
X5746729Y-10816008D01*
X5746729Y-10816008D02*
X5756253Y-10825531D01*
X5756253Y-10825531D02*
X5765777Y-10844579D01*
X5765777Y-10844579D02*
X5775301Y-10882674D01*
X5775301Y-10882674D02*
X5775301Y-10930293D01*
X5775301Y-10930293D02*
X5765777Y-10968389D01*
X5765777Y-10968389D02*
X5756253Y-10987436D01*
X5756253Y-10987436D02*
X5746729Y-10996960D01*
X5746729Y-10996960D02*
X5727682Y-11006484D01*
X5727682Y-11006484D02*
X5708634Y-11006484D01*
X5708634Y-11006484D02*
X5689586Y-10996960D01*
X5689586Y-10996960D02*
X5680063Y-10987436D01*
X5680063Y-10987436D02*
X5670539Y-10968389D01*
X5670539Y-10968389D02*
X5661015Y-10930293D01*
X5661015Y-10930293D02*
X5661015Y-10882674D01*
X5661015Y-10882674D02*
X5670539Y-10844579D01*
X5670539Y-10844579D02*
X5680063Y-10825531D01*
X5680063Y-10825531D02*
X5689586Y-10816008D01*
X5689586Y-10816008D02*
X5708634Y-10806484D01*
X5861015Y-10987436D02*
X5870539Y-10996960D01*
X5870539Y-10996960D02*
X5861015Y-11006484D01*
X5861015Y-11006484D02*
X5851491Y-10996960D01*
X5851491Y-10996960D02*
X5861015Y-10987436D01*
X5861015Y-10987436D02*
X5861015Y-11006484D01*
X5994348Y-10806484D02*
X6013396Y-10806484D01*
X6013396Y-10806484D02*
X6032444Y-10816008D01*
X6032444Y-10816008D02*
X6041967Y-10825531D01*
X6041967Y-10825531D02*
X6051491Y-10844579D01*
X6051491Y-10844579D02*
X6061015Y-10882674D01*
X6061015Y-10882674D02*
X6061015Y-10930293D01*
X6061015Y-10930293D02*
X6051491Y-10968389D01*
X6051491Y-10968389D02*
X6041967Y-10987436D01*
X6041967Y-10987436D02*
X6032444Y-10996960D01*
X6032444Y-10996960D02*
X6013396Y-11006484D01*
X6013396Y-11006484D02*
X5994348Y-11006484D01*
X5994348Y-11006484D02*
X5975301Y-10996960D01*
X5975301Y-10996960D02*
X5965777Y-10987436D01*
X5965777Y-10987436D02*
X5956253Y-10968389D01*
X5956253Y-10968389D02*
X5946729Y-10930293D01*
X5946729Y-10930293D02*
X5946729Y-10882674D01*
X5946729Y-10882674D02*
X5956253Y-10844579D01*
X5956253Y-10844579D02*
X5965777Y-10825531D01*
X5965777Y-10825531D02*
X5975301Y-10816008D01*
X5975301Y-10816008D02*
X5994348Y-10806484D01*
X6251491Y-11006484D02*
X6137206Y-11006484D01*
X6194348Y-11006484D02*
X6194348Y-10806484D01*
X6194348Y-10806484D02*
X6175301Y-10835055D01*
X6175301Y-10835055D02*
X6156253Y-10854103D01*
X6156253Y-10854103D02*
X6137206Y-10863627D01*
X6432444Y-10806484D02*
X6337206Y-10806484D01*
X6337206Y-10806484D02*
X6327682Y-10901722D01*
X6327682Y-10901722D02*
X6337206Y-10892198D01*
X6337206Y-10892198D02*
X6356253Y-10882674D01*
X6356253Y-10882674D02*
X6403872Y-10882674D01*
X6403872Y-10882674D02*
X6422920Y-10892198D01*
X6422920Y-10892198D02*
X6432444Y-10901722D01*
X6432444Y-10901722D02*
X6441967Y-10920770D01*
X6441967Y-10920770D02*
X6441967Y-10968389D01*
X6441967Y-10968389D02*
X6432444Y-10987436D01*
X6432444Y-10987436D02*
X6422920Y-10996960D01*
X6422920Y-10996960D02*
X6403872Y-11006484D01*
X6403872Y-11006484D02*
X6356253Y-11006484D01*
X6356253Y-11006484D02*
X6337206Y-10996960D01*
X6337206Y-10996960D02*
X6327682Y-10987436D01*
X6508634Y-10806484D02*
X6641967Y-10806484D01*
X6641967Y-10806484D02*
X6556253Y-11006484D01*
X6708634Y-10806484D02*
X6708634Y-10844579D01*
X6784825Y-10806484D02*
X6784825Y-10844579D01*
X7080063Y-11082674D02*
X7070539Y-11073150D01*
X7070539Y-11073150D02*
X7051491Y-11044579D01*
X7051491Y-11044579D02*
X7041968Y-11025531D01*
X7041968Y-11025531D02*
X7032444Y-10996960D01*
X7032444Y-10996960D02*
X7022920Y-10949341D01*
X7022920Y-10949341D02*
X7022920Y-10911246D01*
X7022920Y-10911246D02*
X7032444Y-10863627D01*
X7032444Y-10863627D02*
X7041968Y-10835055D01*
X7041968Y-10835055D02*
X7051491Y-10816008D01*
X7051491Y-10816008D02*
X7070539Y-10787436D01*
X7070539Y-10787436D02*
X7080063Y-10777912D01*
X7261015Y-11006484D02*
X7146729Y-11006484D01*
X7203872Y-11006484D02*
X7203872Y-10806484D01*
X7203872Y-10806484D02*
X7184825Y-10835055D01*
X7184825Y-10835055D02*
X7165777Y-10854103D01*
X7165777Y-10854103D02*
X7146729Y-10863627D01*
X7337206Y-10825531D02*
X7346729Y-10816008D01*
X7346729Y-10816008D02*
X7365777Y-10806484D01*
X7365777Y-10806484D02*
X7413396Y-10806484D01*
X7413396Y-10806484D02*
X7432444Y-10816008D01*
X7432444Y-10816008D02*
X7441968Y-10825531D01*
X7441968Y-10825531D02*
X7451491Y-10844579D01*
X7451491Y-10844579D02*
X7451491Y-10863627D01*
X7451491Y-10863627D02*
X7441968Y-10892198D01*
X7441968Y-10892198D02*
X7327682Y-11006484D01*
X7327682Y-11006484D02*
X7451491Y-11006484D01*
X7641968Y-11006484D02*
X7527682Y-11006484D01*
X7584825Y-11006484D02*
X7584825Y-10806484D01*
X7584825Y-10806484D02*
X7565777Y-10835055D01*
X7565777Y-10835055D02*
X7546729Y-10854103D01*
X7546729Y-10854103D02*
X7527682Y-10863627D01*
X7880063Y-11006484D02*
X7880063Y-10806484D01*
X7965777Y-11006484D02*
X7965777Y-10901722D01*
X7965777Y-10901722D02*
X7956253Y-10882674D01*
X7956253Y-10882674D02*
X7937206Y-10873150D01*
X7937206Y-10873150D02*
X7908634Y-10873150D01*
X7908634Y-10873150D02*
X7889587Y-10882674D01*
X7889587Y-10882674D02*
X7880063Y-10892198D01*
X8089587Y-11006484D02*
X8070539Y-10996960D01*
X8070539Y-10996960D02*
X8061015Y-10987436D01*
X8061015Y-10987436D02*
X8051491Y-10968389D01*
X8051491Y-10968389D02*
X8051491Y-10911246D01*
X8051491Y-10911246D02*
X8061015Y-10892198D01*
X8061015Y-10892198D02*
X8070539Y-10882674D01*
X8070539Y-10882674D02*
X8089587Y-10873150D01*
X8089587Y-10873150D02*
X8118158Y-10873150D01*
X8118158Y-10873150D02*
X8137206Y-10882674D01*
X8137206Y-10882674D02*
X8146730Y-10892198D01*
X8146730Y-10892198D02*
X8156253Y-10911246D01*
X8156253Y-10911246D02*
X8156253Y-10968389D01*
X8156253Y-10968389D02*
X8146730Y-10987436D01*
X8146730Y-10987436D02*
X8137206Y-10996960D01*
X8137206Y-10996960D02*
X8118158Y-11006484D01*
X8118158Y-11006484D02*
X8089587Y-11006484D01*
X8270539Y-11006484D02*
X8251491Y-10996960D01*
X8251491Y-10996960D02*
X8241968Y-10977912D01*
X8241968Y-10977912D02*
X8241968Y-10806484D01*
X8422920Y-10996960D02*
X8403873Y-11006484D01*
X8403873Y-11006484D02*
X8365777Y-11006484D01*
X8365777Y-11006484D02*
X8346730Y-10996960D01*
X8346730Y-10996960D02*
X8337206Y-10977912D01*
X8337206Y-10977912D02*
X8337206Y-10901722D01*
X8337206Y-10901722D02*
X8346730Y-10882674D01*
X8346730Y-10882674D02*
X8365777Y-10873150D01*
X8365777Y-10873150D02*
X8403873Y-10873150D01*
X8403873Y-10873150D02*
X8422920Y-10882674D01*
X8422920Y-10882674D02*
X8432444Y-10901722D01*
X8432444Y-10901722D02*
X8432444Y-10920770D01*
X8432444Y-10920770D02*
X8337206Y-10939817D01*
X8508634Y-10996960D02*
X8527682Y-11006484D01*
X8527682Y-11006484D02*
X8565777Y-11006484D01*
X8565777Y-11006484D02*
X8584825Y-10996960D01*
X8584825Y-10996960D02*
X8594349Y-10977912D01*
X8594349Y-10977912D02*
X8594349Y-10968389D01*
X8594349Y-10968389D02*
X8584825Y-10949341D01*
X8584825Y-10949341D02*
X8565777Y-10939817D01*
X8565777Y-10939817D02*
X8537206Y-10939817D01*
X8537206Y-10939817D02*
X8518158Y-10930293D01*
X8518158Y-10930293D02*
X8508634Y-10911246D01*
X8508634Y-10911246D02*
X8508634Y-10901722D01*
X8508634Y-10901722D02*
X8518158Y-10882674D01*
X8518158Y-10882674D02*
X8537206Y-10873150D01*
X8537206Y-10873150D02*
X8565777Y-10873150D01*
X8565777Y-10873150D02*
X8584825Y-10882674D01*
X8661015Y-11082674D02*
X8670539Y-11073150D01*
X8670539Y-11073150D02*
X8689587Y-11044579D01*
X8689587Y-11044579D02*
X8699111Y-11025531D01*
X8699111Y-11025531D02*
X8708634Y-10996960D01*
X8708634Y-10996960D02*
X8718158Y-10949341D01*
X8718158Y-10949341D02*
X8718158Y-10911246D01*
X8718158Y-10911246D02*
X8708634Y-10863627D01*
X8708634Y-10863627D02*
X8699111Y-10835055D01*
X8699111Y-10835055D02*
X8689587Y-10816008D01*
X8689587Y-10816008D02*
X8670539Y-10787436D01*
X8670539Y-10787436D02*
X8661015Y-10777912D01*
D10*
X3505000Y-11179000D02*
G75*
G02*
X3405000Y-11179000I-50000J0D01*
G01*
X3405000Y-11179000D02*
G75*
G02*
X3505000Y-11179000I50000J0D01*
G01*
D11*
X3870539Y-11270484D02*
X3756253Y-11270484D01*
X3813396Y-11270484D02*
X3813396Y-11070484D01*
X3813396Y-11070484D02*
X3794348Y-11099055D01*
X3794348Y-11099055D02*
X3775301Y-11118103D01*
X3775301Y-11118103D02*
X3756253Y-11127627D01*
X3956253Y-11251436D02*
X3965777Y-11260960D01*
X3965777Y-11260960D02*
X3956253Y-11270484D01*
X3956253Y-11270484D02*
X3946729Y-11260960D01*
X3946729Y-11260960D02*
X3956253Y-11251436D01*
X3956253Y-11251436D02*
X3956253Y-11270484D01*
X4089586Y-11070484D02*
X4108634Y-11070484D01*
X4108634Y-11070484D02*
X4127682Y-11080008D01*
X4127682Y-11080008D02*
X4137205Y-11089531D01*
X4137205Y-11089531D02*
X4146729Y-11108579D01*
X4146729Y-11108579D02*
X4156253Y-11146674D01*
X4156253Y-11146674D02*
X4156253Y-11194293D01*
X4156253Y-11194293D02*
X4146729Y-11232388D01*
X4146729Y-11232388D02*
X4137205Y-11251436D01*
X4137205Y-11251436D02*
X4127682Y-11260960D01*
X4127682Y-11260960D02*
X4108634Y-11270484D01*
X4108634Y-11270484D02*
X4089586Y-11270484D01*
X4089586Y-11270484D02*
X4070539Y-11260960D01*
X4070539Y-11260960D02*
X4061015Y-11251436D01*
X4061015Y-11251436D02*
X4051491Y-11232388D01*
X4051491Y-11232388D02*
X4041967Y-11194293D01*
X4041967Y-11194293D02*
X4041967Y-11146674D01*
X4041967Y-11146674D02*
X4051491Y-11108579D01*
X4051491Y-11108579D02*
X4061015Y-11089531D01*
X4061015Y-11089531D02*
X4070539Y-11080008D01*
X4070539Y-11080008D02*
X4089586Y-11070484D01*
X4280063Y-11070484D02*
X4299110Y-11070484D01*
X4299110Y-11070484D02*
X4318158Y-11080008D01*
X4318158Y-11080008D02*
X4327682Y-11089531D01*
X4327682Y-11089531D02*
X4337205Y-11108579D01*
X4337205Y-11108579D02*
X4346729Y-11146674D01*
X4346729Y-11146674D02*
X4346729Y-11194293D01*
X4346729Y-11194293D02*
X4337205Y-11232388D01*
X4337205Y-11232388D02*
X4327682Y-11251436D01*
X4327682Y-11251436D02*
X4318158Y-11260960D01*
X4318158Y-11260960D02*
X4299110Y-11270484D01*
X4299110Y-11270484D02*
X4280063Y-11270484D01*
X4280063Y-11270484D02*
X4261015Y-11260960D01*
X4261015Y-11260960D02*
X4251491Y-11251436D01*
X4251491Y-11251436D02*
X4241967Y-11232388D01*
X4241967Y-11232388D02*
X4232444Y-11194293D01*
X4232444Y-11194293D02*
X4232444Y-11146674D01*
X4232444Y-11146674D02*
X4241967Y-11108579D01*
X4241967Y-11108579D02*
X4251491Y-11089531D01*
X4251491Y-11089531D02*
X4261015Y-11080008D01*
X4261015Y-11080008D02*
X4280063Y-11070484D01*
X4470539Y-11070484D02*
X4489586Y-11070484D01*
X4489586Y-11070484D02*
X4508634Y-11080008D01*
X4508634Y-11080008D02*
X4518158Y-11089531D01*
X4518158Y-11089531D02*
X4527682Y-11108579D01*
X4527682Y-11108579D02*
X4537205Y-11146674D01*
X4537205Y-11146674D02*
X4537205Y-11194293D01*
X4537205Y-11194293D02*
X4527682Y-11232388D01*
X4527682Y-11232388D02*
X4518158Y-11251436D01*
X4518158Y-11251436D02*
X4508634Y-11260960D01*
X4508634Y-11260960D02*
X4489586Y-11270484D01*
X4489586Y-11270484D02*
X4470539Y-11270484D01*
X4470539Y-11270484D02*
X4451491Y-11260960D01*
X4451491Y-11260960D02*
X4441967Y-11251436D01*
X4441967Y-11251436D02*
X4432444Y-11232388D01*
X4432444Y-11232388D02*
X4422920Y-11194293D01*
X4422920Y-11194293D02*
X4422920Y-11146674D01*
X4422920Y-11146674D02*
X4432444Y-11108579D01*
X4432444Y-11108579D02*
X4441967Y-11089531D01*
X4441967Y-11089531D02*
X4451491Y-11080008D01*
X4451491Y-11080008D02*
X4470539Y-11070484D01*
X4622920Y-11270484D02*
X4622920Y-11137150D01*
X4622920Y-11156198D02*
X4632444Y-11146674D01*
X4632444Y-11146674D02*
X4651491Y-11137150D01*
X4651491Y-11137150D02*
X4680063Y-11137150D01*
X4680063Y-11137150D02*
X4699110Y-11146674D01*
X4699110Y-11146674D02*
X4708634Y-11165722D01*
X4708634Y-11165722D02*
X4708634Y-11270484D01*
X4708634Y-11165722D02*
X4718158Y-11146674D01*
X4718158Y-11146674D02*
X4737205Y-11137150D01*
X4737205Y-11137150D02*
X4765777Y-11137150D01*
X4765777Y-11137150D02*
X4784825Y-11146674D01*
X4784825Y-11146674D02*
X4794348Y-11165722D01*
X4794348Y-11165722D02*
X4794348Y-11270484D01*
X4889586Y-11270484D02*
X4889586Y-11137150D01*
X4889586Y-11156198D02*
X4899110Y-11146674D01*
X4899110Y-11146674D02*
X4918158Y-11137150D01*
X4918158Y-11137150D02*
X4946729Y-11137150D01*
X4946729Y-11137150D02*
X4965777Y-11146674D01*
X4965777Y-11146674D02*
X4975301Y-11165722D01*
X4975301Y-11165722D02*
X4975301Y-11270484D01*
X4975301Y-11165722D02*
X4984825Y-11146674D01*
X4984825Y-11146674D02*
X5003872Y-11137150D01*
X5003872Y-11137150D02*
X5032444Y-11137150D01*
X5032444Y-11137150D02*
X5051491Y-11146674D01*
X5051491Y-11146674D02*
X5061015Y-11165722D01*
X5061015Y-11165722D02*
X5061015Y-11270484D01*
X5451491Y-11060960D02*
X5280063Y-11318103D01*
X5708634Y-11070484D02*
X5727682Y-11070484D01*
X5727682Y-11070484D02*
X5746729Y-11080008D01*
X5746729Y-11080008D02*
X5756253Y-11089531D01*
X5756253Y-11089531D02*
X5765777Y-11108579D01*
X5765777Y-11108579D02*
X5775301Y-11146674D01*
X5775301Y-11146674D02*
X5775301Y-11194293D01*
X5775301Y-11194293D02*
X5765777Y-11232388D01*
X5765777Y-11232388D02*
X5756253Y-11251436D01*
X5756253Y-11251436D02*
X5746729Y-11260960D01*
X5746729Y-11260960D02*
X5727682Y-11270484D01*
X5727682Y-11270484D02*
X5708634Y-11270484D01*
X5708634Y-11270484D02*
X5689586Y-11260960D01*
X5689586Y-11260960D02*
X5680063Y-11251436D01*
X5680063Y-11251436D02*
X5670539Y-11232388D01*
X5670539Y-11232388D02*
X5661015Y-11194293D01*
X5661015Y-11194293D02*
X5661015Y-11146674D01*
X5661015Y-11146674D02*
X5670539Y-11108579D01*
X5670539Y-11108579D02*
X5680063Y-11089531D01*
X5680063Y-11089531D02*
X5689586Y-11080008D01*
X5689586Y-11080008D02*
X5708634Y-11070484D01*
X5861015Y-11251436D02*
X5870539Y-11260960D01*
X5870539Y-11260960D02*
X5861015Y-11270484D01*
X5861015Y-11270484D02*
X5851491Y-11260960D01*
X5851491Y-11260960D02*
X5861015Y-11251436D01*
X5861015Y-11251436D02*
X5861015Y-11270484D01*
X5994348Y-11070484D02*
X6013396Y-11070484D01*
X6013396Y-11070484D02*
X6032444Y-11080008D01*
X6032444Y-11080008D02*
X6041967Y-11089531D01*
X6041967Y-11089531D02*
X6051491Y-11108579D01*
X6051491Y-11108579D02*
X6061015Y-11146674D01*
X6061015Y-11146674D02*
X6061015Y-11194293D01*
X6061015Y-11194293D02*
X6051491Y-11232388D01*
X6051491Y-11232388D02*
X6041967Y-11251436D01*
X6041967Y-11251436D02*
X6032444Y-11260960D01*
X6032444Y-11260960D02*
X6013396Y-11270484D01*
X6013396Y-11270484D02*
X5994348Y-11270484D01*
X5994348Y-11270484D02*
X5975301Y-11260960D01*
X5975301Y-11260960D02*
X5965777Y-11251436D01*
X5965777Y-11251436D02*
X5956253Y-11232388D01*
X5956253Y-11232388D02*
X5946729Y-11194293D01*
X5946729Y-11194293D02*
X5946729Y-11146674D01*
X5946729Y-11146674D02*
X5956253Y-11108579D01*
X5956253Y-11108579D02*
X5965777Y-11089531D01*
X5965777Y-11089531D02*
X5975301Y-11080008D01*
X5975301Y-11080008D02*
X5994348Y-11070484D01*
X6127682Y-11070484D02*
X6251491Y-11070484D01*
X6251491Y-11070484D02*
X6184825Y-11146674D01*
X6184825Y-11146674D02*
X6213396Y-11146674D01*
X6213396Y-11146674D02*
X6232444Y-11156198D01*
X6232444Y-11156198D02*
X6241967Y-11165722D01*
X6241967Y-11165722D02*
X6251491Y-11184770D01*
X6251491Y-11184770D02*
X6251491Y-11232388D01*
X6251491Y-11232388D02*
X6241967Y-11251436D01*
X6241967Y-11251436D02*
X6232444Y-11260960D01*
X6232444Y-11260960D02*
X6213396Y-11270484D01*
X6213396Y-11270484D02*
X6156253Y-11270484D01*
X6156253Y-11270484D02*
X6137206Y-11260960D01*
X6137206Y-11260960D02*
X6127682Y-11251436D01*
X6346729Y-11270484D02*
X6384825Y-11270484D01*
X6384825Y-11270484D02*
X6403872Y-11260960D01*
X6403872Y-11260960D02*
X6413396Y-11251436D01*
X6413396Y-11251436D02*
X6432444Y-11222865D01*
X6432444Y-11222865D02*
X6441967Y-11184770D01*
X6441967Y-11184770D02*
X6441967Y-11108579D01*
X6441967Y-11108579D02*
X6432444Y-11089531D01*
X6432444Y-11089531D02*
X6422920Y-11080008D01*
X6422920Y-11080008D02*
X6403872Y-11070484D01*
X6403872Y-11070484D02*
X6365777Y-11070484D01*
X6365777Y-11070484D02*
X6346729Y-11080008D01*
X6346729Y-11080008D02*
X6337206Y-11089531D01*
X6337206Y-11089531D02*
X6327682Y-11108579D01*
X6327682Y-11108579D02*
X6327682Y-11156198D01*
X6327682Y-11156198D02*
X6337206Y-11175246D01*
X6337206Y-11175246D02*
X6346729Y-11184770D01*
X6346729Y-11184770D02*
X6365777Y-11194293D01*
X6365777Y-11194293D02*
X6403872Y-11194293D01*
X6403872Y-11194293D02*
X6422920Y-11184770D01*
X6422920Y-11184770D02*
X6432444Y-11175246D01*
X6432444Y-11175246D02*
X6441967Y-11156198D01*
X6613396Y-11137150D02*
X6613396Y-11270484D01*
X6565777Y-11060960D02*
X6518158Y-11203817D01*
X6518158Y-11203817D02*
X6641967Y-11203817D01*
X6708634Y-11070484D02*
X6708634Y-11108579D01*
X6784825Y-11070484D02*
X6784825Y-11108579D01*
X7080063Y-11346674D02*
X7070539Y-11337150D01*
X7070539Y-11337150D02*
X7051491Y-11308579D01*
X7051491Y-11308579D02*
X7041968Y-11289531D01*
X7041968Y-11289531D02*
X7032444Y-11260960D01*
X7032444Y-11260960D02*
X7022920Y-11213341D01*
X7022920Y-11213341D02*
X7022920Y-11175246D01*
X7022920Y-11175246D02*
X7032444Y-11127627D01*
X7032444Y-11127627D02*
X7041968Y-11099055D01*
X7041968Y-11099055D02*
X7051491Y-11080008D01*
X7051491Y-11080008D02*
X7070539Y-11051436D01*
X7070539Y-11051436D02*
X7080063Y-11041912D01*
X7137206Y-11070484D02*
X7261015Y-11070484D01*
X7261015Y-11070484D02*
X7194348Y-11146674D01*
X7194348Y-11146674D02*
X7222920Y-11146674D01*
X7222920Y-11146674D02*
X7241968Y-11156198D01*
X7241968Y-11156198D02*
X7251491Y-11165722D01*
X7251491Y-11165722D02*
X7261015Y-11184770D01*
X7261015Y-11184770D02*
X7261015Y-11232388D01*
X7261015Y-11232388D02*
X7251491Y-11251436D01*
X7251491Y-11251436D02*
X7241968Y-11260960D01*
X7241968Y-11260960D02*
X7222920Y-11270484D01*
X7222920Y-11270484D02*
X7165777Y-11270484D01*
X7165777Y-11270484D02*
X7146729Y-11260960D01*
X7146729Y-11260960D02*
X7137206Y-11251436D01*
X7375301Y-11156198D02*
X7356253Y-11146674D01*
X7356253Y-11146674D02*
X7346729Y-11137150D01*
X7346729Y-11137150D02*
X7337206Y-11118103D01*
X7337206Y-11118103D02*
X7337206Y-11108579D01*
X7337206Y-11108579D02*
X7346729Y-11089531D01*
X7346729Y-11089531D02*
X7356253Y-11080008D01*
X7356253Y-11080008D02*
X7375301Y-11070484D01*
X7375301Y-11070484D02*
X7413396Y-11070484D01*
X7413396Y-11070484D02*
X7432444Y-11080008D01*
X7432444Y-11080008D02*
X7441968Y-11089531D01*
X7441968Y-11089531D02*
X7451491Y-11108579D01*
X7451491Y-11108579D02*
X7451491Y-11118103D01*
X7451491Y-11118103D02*
X7441968Y-11137150D01*
X7441968Y-11137150D02*
X7432444Y-11146674D01*
X7432444Y-11146674D02*
X7413396Y-11156198D01*
X7413396Y-11156198D02*
X7375301Y-11156198D01*
X7375301Y-11156198D02*
X7356253Y-11165722D01*
X7356253Y-11165722D02*
X7346729Y-11175246D01*
X7346729Y-11175246D02*
X7337206Y-11194293D01*
X7337206Y-11194293D02*
X7337206Y-11232388D01*
X7337206Y-11232388D02*
X7346729Y-11251436D01*
X7346729Y-11251436D02*
X7356253Y-11260960D01*
X7356253Y-11260960D02*
X7375301Y-11270484D01*
X7375301Y-11270484D02*
X7413396Y-11270484D01*
X7413396Y-11270484D02*
X7432444Y-11260960D01*
X7432444Y-11260960D02*
X7441968Y-11251436D01*
X7441968Y-11251436D02*
X7451491Y-11232388D01*
X7451491Y-11232388D02*
X7451491Y-11194293D01*
X7451491Y-11194293D02*
X7441968Y-11175246D01*
X7441968Y-11175246D02*
X7432444Y-11165722D01*
X7432444Y-11165722D02*
X7413396Y-11156198D01*
X7689587Y-11270484D02*
X7689587Y-11070484D01*
X7775301Y-11270484D02*
X7775301Y-11165722D01*
X7775301Y-11165722D02*
X7765777Y-11146674D01*
X7765777Y-11146674D02*
X7746730Y-11137150D01*
X7746730Y-11137150D02*
X7718158Y-11137150D01*
X7718158Y-11137150D02*
X7699110Y-11146674D01*
X7699110Y-11146674D02*
X7689587Y-11156198D01*
X7899110Y-11270484D02*
X7880063Y-11260960D01*
X7880063Y-11260960D02*
X7870539Y-11251436D01*
X7870539Y-11251436D02*
X7861015Y-11232388D01*
X7861015Y-11232388D02*
X7861015Y-11175246D01*
X7861015Y-11175246D02*
X7870539Y-11156198D01*
X7870539Y-11156198D02*
X7880063Y-11146674D01*
X7880063Y-11146674D02*
X7899110Y-11137150D01*
X7899110Y-11137150D02*
X7927682Y-11137150D01*
X7927682Y-11137150D02*
X7946730Y-11146674D01*
X7946730Y-11146674D02*
X7956253Y-11156198D01*
X7956253Y-11156198D02*
X7965777Y-11175246D01*
X7965777Y-11175246D02*
X7965777Y-11232388D01*
X7965777Y-11232388D02*
X7956253Y-11251436D01*
X7956253Y-11251436D02*
X7946730Y-11260960D01*
X7946730Y-11260960D02*
X7927682Y-11270484D01*
X7927682Y-11270484D02*
X7899110Y-11270484D01*
X8080063Y-11270484D02*
X8061015Y-11260960D01*
X8061015Y-11260960D02*
X8051491Y-11241912D01*
X8051491Y-11241912D02*
X8051491Y-11070484D01*
X8232444Y-11260960D02*
X8213396Y-11270484D01*
X8213396Y-11270484D02*
X8175301Y-11270484D01*
X8175301Y-11270484D02*
X8156253Y-11260960D01*
X8156253Y-11260960D02*
X8146730Y-11241912D01*
X8146730Y-11241912D02*
X8146730Y-11165722D01*
X8146730Y-11165722D02*
X8156253Y-11146674D01*
X8156253Y-11146674D02*
X8175301Y-11137150D01*
X8175301Y-11137150D02*
X8213396Y-11137150D01*
X8213396Y-11137150D02*
X8232444Y-11146674D01*
X8232444Y-11146674D02*
X8241968Y-11165722D01*
X8241968Y-11165722D02*
X8241968Y-11184770D01*
X8241968Y-11184770D02*
X8146730Y-11203817D01*
X8318158Y-11260960D02*
X8337206Y-11270484D01*
X8337206Y-11270484D02*
X8375301Y-11270484D01*
X8375301Y-11270484D02*
X8394349Y-11260960D01*
X8394349Y-11260960D02*
X8403873Y-11241912D01*
X8403873Y-11241912D02*
X8403873Y-11232388D01*
X8403873Y-11232388D02*
X8394349Y-11213341D01*
X8394349Y-11213341D02*
X8375301Y-11203817D01*
X8375301Y-11203817D02*
X8346730Y-11203817D01*
X8346730Y-11203817D02*
X8327682Y-11194293D01*
X8327682Y-11194293D02*
X8318158Y-11175246D01*
X8318158Y-11175246D02*
X8318158Y-11165722D01*
X8318158Y-11165722D02*
X8327682Y-11146674D01*
X8327682Y-11146674D02*
X8346730Y-11137150D01*
X8346730Y-11137150D02*
X8375301Y-11137150D01*
X8375301Y-11137150D02*
X8394349Y-11146674D01*
X8641968Y-11194293D02*
X8794349Y-11194293D01*
X8718158Y-11270484D02*
X8718158Y-11118103D01*
X9022920Y-11070484D02*
X9146730Y-11070484D01*
X9146730Y-11070484D02*
X9080063Y-11146674D01*
X9080063Y-11146674D02*
X9108635Y-11146674D01*
X9108635Y-11146674D02*
X9127682Y-11156198D01*
X9127682Y-11156198D02*
X9137206Y-11165722D01*
X9137206Y-11165722D02*
X9146730Y-11184770D01*
X9146730Y-11184770D02*
X9146730Y-11232388D01*
X9146730Y-11232388D02*
X9137206Y-11251436D01*
X9137206Y-11251436D02*
X9127682Y-11260960D01*
X9127682Y-11260960D02*
X9108635Y-11270484D01*
X9108635Y-11270484D02*
X9051492Y-11270484D01*
X9051492Y-11270484D02*
X9032444Y-11260960D01*
X9032444Y-11260960D02*
X9022920Y-11251436D01*
X9375301Y-11260960D02*
X9394349Y-11270484D01*
X9394349Y-11270484D02*
X9432444Y-11270484D01*
X9432444Y-11270484D02*
X9451492Y-11260960D01*
X9451492Y-11260960D02*
X9461016Y-11241912D01*
X9461016Y-11241912D02*
X9461016Y-11232388D01*
X9461016Y-11232388D02*
X9451492Y-11213341D01*
X9451492Y-11213341D02*
X9432444Y-11203817D01*
X9432444Y-11203817D02*
X9403873Y-11203817D01*
X9403873Y-11203817D02*
X9384825Y-11194293D01*
X9384825Y-11194293D02*
X9375301Y-11175246D01*
X9375301Y-11175246D02*
X9375301Y-11165722D01*
X9375301Y-11165722D02*
X9384825Y-11146674D01*
X9384825Y-11146674D02*
X9403873Y-11137150D01*
X9403873Y-11137150D02*
X9432444Y-11137150D01*
X9432444Y-11137150D02*
X9451492Y-11146674D01*
X9575301Y-11270484D02*
X9556254Y-11260960D01*
X9556254Y-11260960D02*
X9546730Y-11241912D01*
X9546730Y-11241912D02*
X9546730Y-11070484D01*
X9680063Y-11270484D02*
X9661016Y-11260960D01*
X9661016Y-11260960D02*
X9651492Y-11251436D01*
X9651492Y-11251436D02*
X9641968Y-11232388D01*
X9641968Y-11232388D02*
X9641968Y-11175246D01*
X9641968Y-11175246D02*
X9651492Y-11156198D01*
X9651492Y-11156198D02*
X9661016Y-11146674D01*
X9661016Y-11146674D02*
X9680063Y-11137150D01*
X9680063Y-11137150D02*
X9708635Y-11137150D01*
X9708635Y-11137150D02*
X9727682Y-11146674D01*
X9727682Y-11146674D02*
X9737206Y-11156198D01*
X9737206Y-11156198D02*
X9746730Y-11175246D01*
X9746730Y-11175246D02*
X9746730Y-11232388D01*
X9746730Y-11232388D02*
X9737206Y-11251436D01*
X9737206Y-11251436D02*
X9727682Y-11260960D01*
X9727682Y-11260960D02*
X9708635Y-11270484D01*
X9708635Y-11270484D02*
X9680063Y-11270484D01*
X9803873Y-11137150D02*
X9880063Y-11137150D01*
X9832444Y-11070484D02*
X9832444Y-11241912D01*
X9832444Y-11241912D02*
X9841968Y-11260960D01*
X9841968Y-11260960D02*
X9861016Y-11270484D01*
X9861016Y-11270484D02*
X9880063Y-11270484D01*
X9937206Y-11260960D02*
X9956254Y-11270484D01*
X9956254Y-11270484D02*
X9994349Y-11270484D01*
X9994349Y-11270484D02*
X10013397Y-11260960D01*
X10013397Y-11260960D02*
X10022920Y-11241912D01*
X10022920Y-11241912D02*
X10022920Y-11232388D01*
X10022920Y-11232388D02*
X10013397Y-11213341D01*
X10013397Y-11213341D02*
X9994349Y-11203817D01*
X9994349Y-11203817D02*
X9965777Y-11203817D01*
X9965777Y-11203817D02*
X9946730Y-11194293D01*
X9946730Y-11194293D02*
X9937206Y-11175246D01*
X9937206Y-11175246D02*
X9937206Y-11165722D01*
X9937206Y-11165722D02*
X9946730Y-11146674D01*
X9946730Y-11146674D02*
X9965777Y-11137150D01*
X9965777Y-11137150D02*
X9994349Y-11137150D01*
X9994349Y-11137150D02*
X10013397Y-11146674D01*
X10089587Y-11346674D02*
X10099111Y-11337150D01*
X10099111Y-11337150D02*
X10118158Y-11308579D01*
X10118158Y-11308579D02*
X10127682Y-11289531D01*
X10127682Y-11289531D02*
X10137206Y-11260960D01*
X10137206Y-11260960D02*
X10146730Y-11213341D01*
X10146730Y-11213341D02*
X10146730Y-11175246D01*
X10146730Y-11175246D02*
X10137206Y-11127627D01*
X10137206Y-11127627D02*
X10127682Y-11099055D01*
X10127682Y-11099055D02*
X10118158Y-11080008D01*
X10118158Y-11080008D02*
X10099111Y-11051436D01*
X10099111Y-11051436D02*
X10089587Y-11041912D01*
D12*
X3445000Y-11383000D02*
X3445000Y-11503000D01*
X3385000Y-11443000D02*
X3505000Y-11443000D01*
D11*
X3870539Y-11534484D02*
X3756253Y-11534484D01*
X3813396Y-11534484D02*
X3813396Y-11334484D01*
X3813396Y-11334484D02*
X3794348Y-11363055D01*
X3794348Y-11363055D02*
X3775301Y-11382103D01*
X3775301Y-11382103D02*
X3756253Y-11391627D01*
X3956253Y-11515436D02*
X3965777Y-11524960D01*
X3965777Y-11524960D02*
X3956253Y-11534484D01*
X3956253Y-11534484D02*
X3946729Y-11524960D01*
X3946729Y-11524960D02*
X3956253Y-11515436D01*
X3956253Y-11515436D02*
X3956253Y-11534484D01*
X4041967Y-11353531D02*
X4051491Y-11344008D01*
X4051491Y-11344008D02*
X4070539Y-11334484D01*
X4070539Y-11334484D02*
X4118158Y-11334484D01*
X4118158Y-11334484D02*
X4137205Y-11344008D01*
X4137205Y-11344008D02*
X4146729Y-11353531D01*
X4146729Y-11353531D02*
X4156253Y-11372579D01*
X4156253Y-11372579D02*
X4156253Y-11391627D01*
X4156253Y-11391627D02*
X4146729Y-11420198D01*
X4146729Y-11420198D02*
X4032443Y-11534484D01*
X4032443Y-11534484D02*
X4156253Y-11534484D01*
X4280063Y-11334484D02*
X4299110Y-11334484D01*
X4299110Y-11334484D02*
X4318158Y-11344008D01*
X4318158Y-11344008D02*
X4327682Y-11353531D01*
X4327682Y-11353531D02*
X4337205Y-11372579D01*
X4337205Y-11372579D02*
X4346729Y-11410674D01*
X4346729Y-11410674D02*
X4346729Y-11458293D01*
X4346729Y-11458293D02*
X4337205Y-11496388D01*
X4337205Y-11496388D02*
X4327682Y-11515436D01*
X4327682Y-11515436D02*
X4318158Y-11524960D01*
X4318158Y-11524960D02*
X4299110Y-11534484D01*
X4299110Y-11534484D02*
X4280063Y-11534484D01*
X4280063Y-11534484D02*
X4261015Y-11524960D01*
X4261015Y-11524960D02*
X4251491Y-11515436D01*
X4251491Y-11515436D02*
X4241967Y-11496388D01*
X4241967Y-11496388D02*
X4232444Y-11458293D01*
X4232444Y-11458293D02*
X4232444Y-11410674D01*
X4232444Y-11410674D02*
X4241967Y-11372579D01*
X4241967Y-11372579D02*
X4251491Y-11353531D01*
X4251491Y-11353531D02*
X4261015Y-11344008D01*
X4261015Y-11344008D02*
X4280063Y-11334484D01*
X4470539Y-11334484D02*
X4489586Y-11334484D01*
X4489586Y-11334484D02*
X4508634Y-11344008D01*
X4508634Y-11344008D02*
X4518158Y-11353531D01*
X4518158Y-11353531D02*
X4527682Y-11372579D01*
X4527682Y-11372579D02*
X4537205Y-11410674D01*
X4537205Y-11410674D02*
X4537205Y-11458293D01*
X4537205Y-11458293D02*
X4527682Y-11496388D01*
X4527682Y-11496388D02*
X4518158Y-11515436D01*
X4518158Y-11515436D02*
X4508634Y-11524960D01*
X4508634Y-11524960D02*
X4489586Y-11534484D01*
X4489586Y-11534484D02*
X4470539Y-11534484D01*
X4470539Y-11534484D02*
X4451491Y-11524960D01*
X4451491Y-11524960D02*
X4441967Y-11515436D01*
X4441967Y-11515436D02*
X4432444Y-11496388D01*
X4432444Y-11496388D02*
X4422920Y-11458293D01*
X4422920Y-11458293D02*
X4422920Y-11410674D01*
X4422920Y-11410674D02*
X4432444Y-11372579D01*
X4432444Y-11372579D02*
X4441967Y-11353531D01*
X4441967Y-11353531D02*
X4451491Y-11344008D01*
X4451491Y-11344008D02*
X4470539Y-11334484D01*
X4622920Y-11534484D02*
X4622920Y-11401150D01*
X4622920Y-11420198D02*
X4632444Y-11410674D01*
X4632444Y-11410674D02*
X4651491Y-11401150D01*
X4651491Y-11401150D02*
X4680063Y-11401150D01*
X4680063Y-11401150D02*
X4699110Y-11410674D01*
X4699110Y-11410674D02*
X4708634Y-11429722D01*
X4708634Y-11429722D02*
X4708634Y-11534484D01*
X4708634Y-11429722D02*
X4718158Y-11410674D01*
X4718158Y-11410674D02*
X4737205Y-11401150D01*
X4737205Y-11401150D02*
X4765777Y-11401150D01*
X4765777Y-11401150D02*
X4784825Y-11410674D01*
X4784825Y-11410674D02*
X4794348Y-11429722D01*
X4794348Y-11429722D02*
X4794348Y-11534484D01*
X4889586Y-11534484D02*
X4889586Y-11401150D01*
X4889586Y-11420198D02*
X4899110Y-11410674D01*
X4899110Y-11410674D02*
X4918158Y-11401150D01*
X4918158Y-11401150D02*
X4946729Y-11401150D01*
X4946729Y-11401150D02*
X4965777Y-11410674D01*
X4965777Y-11410674D02*
X4975301Y-11429722D01*
X4975301Y-11429722D02*
X4975301Y-11534484D01*
X4975301Y-11429722D02*
X4984825Y-11410674D01*
X4984825Y-11410674D02*
X5003872Y-11401150D01*
X5003872Y-11401150D02*
X5032444Y-11401150D01*
X5032444Y-11401150D02*
X5051491Y-11410674D01*
X5051491Y-11410674D02*
X5061015Y-11429722D01*
X5061015Y-11429722D02*
X5061015Y-11534484D01*
X5451491Y-11324960D02*
X5280063Y-11582103D01*
X5708634Y-11334484D02*
X5727682Y-11334484D01*
X5727682Y-11334484D02*
X5746729Y-11344008D01*
X5746729Y-11344008D02*
X5756253Y-11353531D01*
X5756253Y-11353531D02*
X5765777Y-11372579D01*
X5765777Y-11372579D02*
X5775301Y-11410674D01*
X5775301Y-11410674D02*
X5775301Y-11458293D01*
X5775301Y-11458293D02*
X5765777Y-11496388D01*
X5765777Y-11496388D02*
X5756253Y-11515436D01*
X5756253Y-11515436D02*
X5746729Y-11524960D01*
X5746729Y-11524960D02*
X5727682Y-11534484D01*
X5727682Y-11534484D02*
X5708634Y-11534484D01*
X5708634Y-11534484D02*
X5689586Y-11524960D01*
X5689586Y-11524960D02*
X5680063Y-11515436D01*
X5680063Y-11515436D02*
X5670539Y-11496388D01*
X5670539Y-11496388D02*
X5661015Y-11458293D01*
X5661015Y-11458293D02*
X5661015Y-11410674D01*
X5661015Y-11410674D02*
X5670539Y-11372579D01*
X5670539Y-11372579D02*
X5680063Y-11353531D01*
X5680063Y-11353531D02*
X5689586Y-11344008D01*
X5689586Y-11344008D02*
X5708634Y-11334484D01*
X5861015Y-11515436D02*
X5870539Y-11524960D01*
X5870539Y-11524960D02*
X5861015Y-11534484D01*
X5861015Y-11534484D02*
X5851491Y-11524960D01*
X5851491Y-11524960D02*
X5861015Y-11515436D01*
X5861015Y-11515436D02*
X5861015Y-11534484D01*
X5994348Y-11334484D02*
X6013396Y-11334484D01*
X6013396Y-11334484D02*
X6032444Y-11344008D01*
X6032444Y-11344008D02*
X6041967Y-11353531D01*
X6041967Y-11353531D02*
X6051491Y-11372579D01*
X6051491Y-11372579D02*
X6061015Y-11410674D01*
X6061015Y-11410674D02*
X6061015Y-11458293D01*
X6061015Y-11458293D02*
X6051491Y-11496388D01*
X6051491Y-11496388D02*
X6041967Y-11515436D01*
X6041967Y-11515436D02*
X6032444Y-11524960D01*
X6032444Y-11524960D02*
X6013396Y-11534484D01*
X6013396Y-11534484D02*
X5994348Y-11534484D01*
X5994348Y-11534484D02*
X5975301Y-11524960D01*
X5975301Y-11524960D02*
X5965777Y-11515436D01*
X5965777Y-11515436D02*
X5956253Y-11496388D01*
X5956253Y-11496388D02*
X5946729Y-11458293D01*
X5946729Y-11458293D02*
X5946729Y-11410674D01*
X5946729Y-11410674D02*
X5956253Y-11372579D01*
X5956253Y-11372579D02*
X5965777Y-11353531D01*
X5965777Y-11353531D02*
X5975301Y-11344008D01*
X5975301Y-11344008D02*
X5994348Y-11334484D01*
X6232444Y-11401150D02*
X6232444Y-11534484D01*
X6184825Y-11324960D02*
X6137206Y-11467817D01*
X6137206Y-11467817D02*
X6261015Y-11467817D01*
X6318158Y-11334484D02*
X6451491Y-11334484D01*
X6451491Y-11334484D02*
X6365777Y-11534484D01*
X6518158Y-11353531D02*
X6527682Y-11344008D01*
X6527682Y-11344008D02*
X6546729Y-11334484D01*
X6546729Y-11334484D02*
X6594348Y-11334484D01*
X6594348Y-11334484D02*
X6613396Y-11344008D01*
X6613396Y-11344008D02*
X6622920Y-11353531D01*
X6622920Y-11353531D02*
X6632444Y-11372579D01*
X6632444Y-11372579D02*
X6632444Y-11391627D01*
X6632444Y-11391627D02*
X6622920Y-11420198D01*
X6622920Y-11420198D02*
X6508634Y-11534484D01*
X6508634Y-11534484D02*
X6632444Y-11534484D01*
X6708634Y-11334484D02*
X6708634Y-11372579D01*
X6784825Y-11334484D02*
X6784825Y-11372579D01*
X7080063Y-11610674D02*
X7070539Y-11601150D01*
X7070539Y-11601150D02*
X7051491Y-11572579D01*
X7051491Y-11572579D02*
X7041968Y-11553531D01*
X7041968Y-11553531D02*
X7032444Y-11524960D01*
X7032444Y-11524960D02*
X7022920Y-11477341D01*
X7022920Y-11477341D02*
X7022920Y-11439246D01*
X7022920Y-11439246D02*
X7032444Y-11391627D01*
X7032444Y-11391627D02*
X7041968Y-11363055D01*
X7041968Y-11363055D02*
X7051491Y-11344008D01*
X7051491Y-11344008D02*
X7070539Y-11315436D01*
X7070539Y-11315436D02*
X7080063Y-11305912D01*
X7165777Y-11534484D02*
X7203872Y-11534484D01*
X7203872Y-11534484D02*
X7222920Y-11524960D01*
X7222920Y-11524960D02*
X7232444Y-11515436D01*
X7232444Y-11515436D02*
X7251491Y-11486865D01*
X7251491Y-11486865D02*
X7261015Y-11448769D01*
X7261015Y-11448769D02*
X7261015Y-11372579D01*
X7261015Y-11372579D02*
X7251491Y-11353531D01*
X7251491Y-11353531D02*
X7241968Y-11344008D01*
X7241968Y-11344008D02*
X7222920Y-11334484D01*
X7222920Y-11334484D02*
X7184825Y-11334484D01*
X7184825Y-11334484D02*
X7165777Y-11344008D01*
X7165777Y-11344008D02*
X7156253Y-11353531D01*
X7156253Y-11353531D02*
X7146729Y-11372579D01*
X7146729Y-11372579D02*
X7146729Y-11420198D01*
X7146729Y-11420198D02*
X7156253Y-11439246D01*
X7156253Y-11439246D02*
X7165777Y-11448769D01*
X7165777Y-11448769D02*
X7184825Y-11458293D01*
X7184825Y-11458293D02*
X7222920Y-11458293D01*
X7222920Y-11458293D02*
X7241968Y-11448769D01*
X7241968Y-11448769D02*
X7251491Y-11439246D01*
X7251491Y-11439246D02*
X7261015Y-11420198D01*
X7451491Y-11534484D02*
X7337206Y-11534484D01*
X7394348Y-11534484D02*
X7394348Y-11334484D01*
X7394348Y-11334484D02*
X7375301Y-11363055D01*
X7375301Y-11363055D02*
X7356253Y-11382103D01*
X7356253Y-11382103D02*
X7337206Y-11391627D01*
X7689587Y-11534484D02*
X7689587Y-11334484D01*
X7775301Y-11534484D02*
X7775301Y-11429722D01*
X7775301Y-11429722D02*
X7765777Y-11410674D01*
X7765777Y-11410674D02*
X7746730Y-11401150D01*
X7746730Y-11401150D02*
X7718158Y-11401150D01*
X7718158Y-11401150D02*
X7699110Y-11410674D01*
X7699110Y-11410674D02*
X7689587Y-11420198D01*
X7899110Y-11534484D02*
X7880063Y-11524960D01*
X7880063Y-11524960D02*
X7870539Y-11515436D01*
X7870539Y-11515436D02*
X7861015Y-11496388D01*
X7861015Y-11496388D02*
X7861015Y-11439246D01*
X7861015Y-11439246D02*
X7870539Y-11420198D01*
X7870539Y-11420198D02*
X7880063Y-11410674D01*
X7880063Y-11410674D02*
X7899110Y-11401150D01*
X7899110Y-11401150D02*
X7927682Y-11401150D01*
X7927682Y-11401150D02*
X7946730Y-11410674D01*
X7946730Y-11410674D02*
X7956253Y-11420198D01*
X7956253Y-11420198D02*
X7965777Y-11439246D01*
X7965777Y-11439246D02*
X7965777Y-11496388D01*
X7965777Y-11496388D02*
X7956253Y-11515436D01*
X7956253Y-11515436D02*
X7946730Y-11524960D01*
X7946730Y-11524960D02*
X7927682Y-11534484D01*
X7927682Y-11534484D02*
X7899110Y-11534484D01*
X8080063Y-11534484D02*
X8061015Y-11524960D01*
X8061015Y-11524960D02*
X8051491Y-11505912D01*
X8051491Y-11505912D02*
X8051491Y-11334484D01*
X8232444Y-11524960D02*
X8213396Y-11534484D01*
X8213396Y-11534484D02*
X8175301Y-11534484D01*
X8175301Y-11534484D02*
X8156253Y-11524960D01*
X8156253Y-11524960D02*
X8146730Y-11505912D01*
X8146730Y-11505912D02*
X8146730Y-11429722D01*
X8146730Y-11429722D02*
X8156253Y-11410674D01*
X8156253Y-11410674D02*
X8175301Y-11401150D01*
X8175301Y-11401150D02*
X8213396Y-11401150D01*
X8213396Y-11401150D02*
X8232444Y-11410674D01*
X8232444Y-11410674D02*
X8241968Y-11429722D01*
X8241968Y-11429722D02*
X8241968Y-11448769D01*
X8241968Y-11448769D02*
X8146730Y-11467817D01*
X8318158Y-11524960D02*
X8337206Y-11534484D01*
X8337206Y-11534484D02*
X8375301Y-11534484D01*
X8375301Y-11534484D02*
X8394349Y-11524960D01*
X8394349Y-11524960D02*
X8403873Y-11505912D01*
X8403873Y-11505912D02*
X8403873Y-11496388D01*
X8403873Y-11496388D02*
X8394349Y-11477341D01*
X8394349Y-11477341D02*
X8375301Y-11467817D01*
X8375301Y-11467817D02*
X8346730Y-11467817D01*
X8346730Y-11467817D02*
X8327682Y-11458293D01*
X8327682Y-11458293D02*
X8318158Y-11439246D01*
X8318158Y-11439246D02*
X8318158Y-11429722D01*
X8318158Y-11429722D02*
X8327682Y-11410674D01*
X8327682Y-11410674D02*
X8346730Y-11401150D01*
X8346730Y-11401150D02*
X8375301Y-11401150D01*
X8375301Y-11401150D02*
X8394349Y-11410674D01*
X8470539Y-11610674D02*
X8480063Y-11601150D01*
X8480063Y-11601150D02*
X8499111Y-11572579D01*
X8499111Y-11572579D02*
X8508634Y-11553531D01*
X8508634Y-11553531D02*
X8518158Y-11524960D01*
X8518158Y-11524960D02*
X8527682Y-11477341D01*
X8527682Y-11477341D02*
X8527682Y-11439246D01*
X8527682Y-11439246D02*
X8518158Y-11391627D01*
X8518158Y-11391627D02*
X8508634Y-11363055D01*
X8508634Y-11363055D02*
X8499111Y-11344008D01*
X8499111Y-11344008D02*
X8480063Y-11315436D01*
X8480063Y-11315436D02*
X8470539Y-11305912D01*
X3475711Y-11777711D02*
X3475711Y-11636289D01*
X3334289Y-11636289D01*
X3334289Y-11777711D01*
X3475711Y-11777711D01*
X3756253Y-11617531D02*
X3765777Y-11608008D01*
X3765777Y-11608008D02*
X3784824Y-11598484D01*
X3784824Y-11598484D02*
X3832443Y-11598484D01*
X3832443Y-11598484D02*
X3851491Y-11608008D01*
X3851491Y-11608008D02*
X3861015Y-11617531D01*
X3861015Y-11617531D02*
X3870539Y-11636579D01*
X3870539Y-11636579D02*
X3870539Y-11655627D01*
X3870539Y-11655627D02*
X3861015Y-11684198D01*
X3861015Y-11684198D02*
X3746729Y-11798484D01*
X3746729Y-11798484D02*
X3870539Y-11798484D01*
X3956253Y-11779436D02*
X3965777Y-11788960D01*
X3965777Y-11788960D02*
X3956253Y-11798484D01*
X3956253Y-11798484D02*
X3946729Y-11788960D01*
X3946729Y-11788960D02*
X3956253Y-11779436D01*
X3956253Y-11779436D02*
X3956253Y-11798484D01*
X4156253Y-11798484D02*
X4041967Y-11798484D01*
X4099110Y-11798484D02*
X4099110Y-11598484D01*
X4099110Y-11598484D02*
X4080062Y-11627055D01*
X4080062Y-11627055D02*
X4061015Y-11646103D01*
X4061015Y-11646103D02*
X4041967Y-11655627D01*
X4280063Y-11598484D02*
X4299110Y-11598484D01*
X4299110Y-11598484D02*
X4318158Y-11608008D01*
X4318158Y-11608008D02*
X4327682Y-11617531D01*
X4327682Y-11617531D02*
X4337205Y-11636579D01*
X4337205Y-11636579D02*
X4346729Y-11674674D01*
X4346729Y-11674674D02*
X4346729Y-11722293D01*
X4346729Y-11722293D02*
X4337205Y-11760388D01*
X4337205Y-11760388D02*
X4327682Y-11779436D01*
X4327682Y-11779436D02*
X4318158Y-11788960D01*
X4318158Y-11788960D02*
X4299110Y-11798484D01*
X4299110Y-11798484D02*
X4280063Y-11798484D01*
X4280063Y-11798484D02*
X4261015Y-11788960D01*
X4261015Y-11788960D02*
X4251491Y-11779436D01*
X4251491Y-11779436D02*
X4241967Y-11760388D01*
X4241967Y-11760388D02*
X4232444Y-11722293D01*
X4232444Y-11722293D02*
X4232444Y-11674674D01*
X4232444Y-11674674D02*
X4241967Y-11636579D01*
X4241967Y-11636579D02*
X4251491Y-11617531D01*
X4251491Y-11617531D02*
X4261015Y-11608008D01*
X4261015Y-11608008D02*
X4280063Y-11598484D01*
X4470539Y-11598484D02*
X4489586Y-11598484D01*
X4489586Y-11598484D02*
X4508634Y-11608008D01*
X4508634Y-11608008D02*
X4518158Y-11617531D01*
X4518158Y-11617531D02*
X4527682Y-11636579D01*
X4527682Y-11636579D02*
X4537205Y-11674674D01*
X4537205Y-11674674D02*
X4537205Y-11722293D01*
X4537205Y-11722293D02*
X4527682Y-11760388D01*
X4527682Y-11760388D02*
X4518158Y-11779436D01*
X4518158Y-11779436D02*
X4508634Y-11788960D01*
X4508634Y-11788960D02*
X4489586Y-11798484D01*
X4489586Y-11798484D02*
X4470539Y-11798484D01*
X4470539Y-11798484D02*
X4451491Y-11788960D01*
X4451491Y-11788960D02*
X4441967Y-11779436D01*
X4441967Y-11779436D02*
X4432444Y-11760388D01*
X4432444Y-11760388D02*
X4422920Y-11722293D01*
X4422920Y-11722293D02*
X4422920Y-11674674D01*
X4422920Y-11674674D02*
X4432444Y-11636579D01*
X4432444Y-11636579D02*
X4441967Y-11617531D01*
X4441967Y-11617531D02*
X4451491Y-11608008D01*
X4451491Y-11608008D02*
X4470539Y-11598484D01*
X4622920Y-11798484D02*
X4622920Y-11665150D01*
X4622920Y-11684198D02*
X4632444Y-11674674D01*
X4632444Y-11674674D02*
X4651491Y-11665150D01*
X4651491Y-11665150D02*
X4680063Y-11665150D01*
X4680063Y-11665150D02*
X4699110Y-11674674D01*
X4699110Y-11674674D02*
X4708634Y-11693722D01*
X4708634Y-11693722D02*
X4708634Y-11798484D01*
X4708634Y-11693722D02*
X4718158Y-11674674D01*
X4718158Y-11674674D02*
X4737205Y-11665150D01*
X4737205Y-11665150D02*
X4765777Y-11665150D01*
X4765777Y-11665150D02*
X4784825Y-11674674D01*
X4784825Y-11674674D02*
X4794348Y-11693722D01*
X4794348Y-11693722D02*
X4794348Y-11798484D01*
X4889586Y-11798484D02*
X4889586Y-11665150D01*
X4889586Y-11684198D02*
X4899110Y-11674674D01*
X4899110Y-11674674D02*
X4918158Y-11665150D01*
X4918158Y-11665150D02*
X4946729Y-11665150D01*
X4946729Y-11665150D02*
X4965777Y-11674674D01*
X4965777Y-11674674D02*
X4975301Y-11693722D01*
X4975301Y-11693722D02*
X4975301Y-11798484D01*
X4975301Y-11693722D02*
X4984825Y-11674674D01*
X4984825Y-11674674D02*
X5003872Y-11665150D01*
X5003872Y-11665150D02*
X5032444Y-11665150D01*
X5032444Y-11665150D02*
X5051491Y-11674674D01*
X5051491Y-11674674D02*
X5061015Y-11693722D01*
X5061015Y-11693722D02*
X5061015Y-11798484D01*
X5451491Y-11588960D02*
X5280063Y-11846103D01*
X5708634Y-11598484D02*
X5727682Y-11598484D01*
X5727682Y-11598484D02*
X5746729Y-11608008D01*
X5746729Y-11608008D02*
X5756253Y-11617531D01*
X5756253Y-11617531D02*
X5765777Y-11636579D01*
X5765777Y-11636579D02*
X5775301Y-11674674D01*
X5775301Y-11674674D02*
X5775301Y-11722293D01*
X5775301Y-11722293D02*
X5765777Y-11760388D01*
X5765777Y-11760388D02*
X5756253Y-11779436D01*
X5756253Y-11779436D02*
X5746729Y-11788960D01*
X5746729Y-11788960D02*
X5727682Y-11798484D01*
X5727682Y-11798484D02*
X5708634Y-11798484D01*
X5708634Y-11798484D02*
X5689586Y-11788960D01*
X5689586Y-11788960D02*
X5680063Y-11779436D01*
X5680063Y-11779436D02*
X5670539Y-11760388D01*
X5670539Y-11760388D02*
X5661015Y-11722293D01*
X5661015Y-11722293D02*
X5661015Y-11674674D01*
X5661015Y-11674674D02*
X5670539Y-11636579D01*
X5670539Y-11636579D02*
X5680063Y-11617531D01*
X5680063Y-11617531D02*
X5689586Y-11608008D01*
X5689586Y-11608008D02*
X5708634Y-11598484D01*
X5861015Y-11779436D02*
X5870539Y-11788960D01*
X5870539Y-11788960D02*
X5861015Y-11798484D01*
X5861015Y-11798484D02*
X5851491Y-11788960D01*
X5851491Y-11788960D02*
X5861015Y-11779436D01*
X5861015Y-11779436D02*
X5861015Y-11798484D01*
X5994348Y-11598484D02*
X6013396Y-11598484D01*
X6013396Y-11598484D02*
X6032444Y-11608008D01*
X6032444Y-11608008D02*
X6041967Y-11617531D01*
X6041967Y-11617531D02*
X6051491Y-11636579D01*
X6051491Y-11636579D02*
X6061015Y-11674674D01*
X6061015Y-11674674D02*
X6061015Y-11722293D01*
X6061015Y-11722293D02*
X6051491Y-11760388D01*
X6051491Y-11760388D02*
X6041967Y-11779436D01*
X6041967Y-11779436D02*
X6032444Y-11788960D01*
X6032444Y-11788960D02*
X6013396Y-11798484D01*
X6013396Y-11798484D02*
X5994348Y-11798484D01*
X5994348Y-11798484D02*
X5975301Y-11788960D01*
X5975301Y-11788960D02*
X5965777Y-11779436D01*
X5965777Y-11779436D02*
X5956253Y-11760388D01*
X5956253Y-11760388D02*
X5946729Y-11722293D01*
X5946729Y-11722293D02*
X5946729Y-11674674D01*
X5946729Y-11674674D02*
X5956253Y-11636579D01*
X5956253Y-11636579D02*
X5965777Y-11617531D01*
X5965777Y-11617531D02*
X5975301Y-11608008D01*
X5975301Y-11608008D02*
X5994348Y-11598484D01*
X6175301Y-11684198D02*
X6156253Y-11674674D01*
X6156253Y-11674674D02*
X6146729Y-11665150D01*
X6146729Y-11665150D02*
X6137206Y-11646103D01*
X6137206Y-11646103D02*
X6137206Y-11636579D01*
X6137206Y-11636579D02*
X6146729Y-11617531D01*
X6146729Y-11617531D02*
X6156253Y-11608008D01*
X6156253Y-11608008D02*
X6175301Y-11598484D01*
X6175301Y-11598484D02*
X6213396Y-11598484D01*
X6213396Y-11598484D02*
X6232444Y-11608008D01*
X6232444Y-11608008D02*
X6241967Y-11617531D01*
X6241967Y-11617531D02*
X6251491Y-11636579D01*
X6251491Y-11636579D02*
X6251491Y-11646103D01*
X6251491Y-11646103D02*
X6241967Y-11665150D01*
X6241967Y-11665150D02*
X6232444Y-11674674D01*
X6232444Y-11674674D02*
X6213396Y-11684198D01*
X6213396Y-11684198D02*
X6175301Y-11684198D01*
X6175301Y-11684198D02*
X6156253Y-11693722D01*
X6156253Y-11693722D02*
X6146729Y-11703246D01*
X6146729Y-11703246D02*
X6137206Y-11722293D01*
X6137206Y-11722293D02*
X6137206Y-11760388D01*
X6137206Y-11760388D02*
X6146729Y-11779436D01*
X6146729Y-11779436D02*
X6156253Y-11788960D01*
X6156253Y-11788960D02*
X6175301Y-11798484D01*
X6175301Y-11798484D02*
X6213396Y-11798484D01*
X6213396Y-11798484D02*
X6232444Y-11788960D01*
X6232444Y-11788960D02*
X6241967Y-11779436D01*
X6241967Y-11779436D02*
X6251491Y-11760388D01*
X6251491Y-11760388D02*
X6251491Y-11722293D01*
X6251491Y-11722293D02*
X6241967Y-11703246D01*
X6241967Y-11703246D02*
X6232444Y-11693722D01*
X6232444Y-11693722D02*
X6213396Y-11684198D01*
X6327682Y-11617531D02*
X6337206Y-11608008D01*
X6337206Y-11608008D02*
X6356253Y-11598484D01*
X6356253Y-11598484D02*
X6403872Y-11598484D01*
X6403872Y-11598484D02*
X6422920Y-11608008D01*
X6422920Y-11608008D02*
X6432444Y-11617531D01*
X6432444Y-11617531D02*
X6441967Y-11636579D01*
X6441967Y-11636579D02*
X6441967Y-11655627D01*
X6441967Y-11655627D02*
X6432444Y-11684198D01*
X6432444Y-11684198D02*
X6318158Y-11798484D01*
X6318158Y-11798484D02*
X6441967Y-11798484D01*
X6508634Y-11598484D02*
X6641967Y-11598484D01*
X6641967Y-11598484D02*
X6556253Y-11798484D01*
X6708634Y-11598484D02*
X6708634Y-11636579D01*
X6784825Y-11598484D02*
X6784825Y-11636579D01*
X7080063Y-11874674D02*
X7070539Y-11865150D01*
X7070539Y-11865150D02*
X7051491Y-11836579D01*
X7051491Y-11836579D02*
X7041968Y-11817531D01*
X7041968Y-11817531D02*
X7032444Y-11788960D01*
X7032444Y-11788960D02*
X7022920Y-11741341D01*
X7022920Y-11741341D02*
X7022920Y-11703246D01*
X7022920Y-11703246D02*
X7032444Y-11655627D01*
X7032444Y-11655627D02*
X7041968Y-11627055D01*
X7041968Y-11627055D02*
X7051491Y-11608008D01*
X7051491Y-11608008D02*
X7070539Y-11579436D01*
X7070539Y-11579436D02*
X7080063Y-11569912D01*
X7146729Y-11617531D02*
X7156253Y-11608008D01*
X7156253Y-11608008D02*
X7175301Y-11598484D01*
X7175301Y-11598484D02*
X7222920Y-11598484D01*
X7222920Y-11598484D02*
X7241968Y-11608008D01*
X7241968Y-11608008D02*
X7251491Y-11617531D01*
X7251491Y-11617531D02*
X7261015Y-11636579D01*
X7261015Y-11636579D02*
X7261015Y-11655627D01*
X7261015Y-11655627D02*
X7251491Y-11684198D01*
X7251491Y-11684198D02*
X7137206Y-11798484D01*
X7137206Y-11798484D02*
X7261015Y-11798484D01*
X7499110Y-11798484D02*
X7499110Y-11598484D01*
X7584825Y-11798484D02*
X7584825Y-11693722D01*
X7584825Y-11693722D02*
X7575301Y-11674674D01*
X7575301Y-11674674D02*
X7556253Y-11665150D01*
X7556253Y-11665150D02*
X7527682Y-11665150D01*
X7527682Y-11665150D02*
X7508634Y-11674674D01*
X7508634Y-11674674D02*
X7499110Y-11684198D01*
X7708634Y-11798484D02*
X7689587Y-11788960D01*
X7689587Y-11788960D02*
X7680063Y-11779436D01*
X7680063Y-11779436D02*
X7670539Y-11760388D01*
X7670539Y-11760388D02*
X7670539Y-11703246D01*
X7670539Y-11703246D02*
X7680063Y-11684198D01*
X7680063Y-11684198D02*
X7689587Y-11674674D01*
X7689587Y-11674674D02*
X7708634Y-11665150D01*
X7708634Y-11665150D02*
X7737206Y-11665150D01*
X7737206Y-11665150D02*
X7756253Y-11674674D01*
X7756253Y-11674674D02*
X7765777Y-11684198D01*
X7765777Y-11684198D02*
X7775301Y-11703246D01*
X7775301Y-11703246D02*
X7775301Y-11760388D01*
X7775301Y-11760388D02*
X7765777Y-11779436D01*
X7765777Y-11779436D02*
X7756253Y-11788960D01*
X7756253Y-11788960D02*
X7737206Y-11798484D01*
X7737206Y-11798484D02*
X7708634Y-11798484D01*
X7889587Y-11798484D02*
X7870539Y-11788960D01*
X7870539Y-11788960D02*
X7861015Y-11769912D01*
X7861015Y-11769912D02*
X7861015Y-11598484D01*
X8041968Y-11788960D02*
X8022920Y-11798484D01*
X8022920Y-11798484D02*
X7984825Y-11798484D01*
X7984825Y-11798484D02*
X7965777Y-11788960D01*
X7965777Y-11788960D02*
X7956253Y-11769912D01*
X7956253Y-11769912D02*
X7956253Y-11693722D01*
X7956253Y-11693722D02*
X7965777Y-11674674D01*
X7965777Y-11674674D02*
X7984825Y-11665150D01*
X7984825Y-11665150D02*
X8022920Y-11665150D01*
X8022920Y-11665150D02*
X8041968Y-11674674D01*
X8041968Y-11674674D02*
X8051491Y-11693722D01*
X8051491Y-11693722D02*
X8051491Y-11712769D01*
X8051491Y-11712769D02*
X7956253Y-11731817D01*
X8127682Y-11788960D02*
X8146730Y-11798484D01*
X8146730Y-11798484D02*
X8184825Y-11798484D01*
X8184825Y-11798484D02*
X8203872Y-11788960D01*
X8203872Y-11788960D02*
X8213396Y-11769912D01*
X8213396Y-11769912D02*
X8213396Y-11760388D01*
X8213396Y-11760388D02*
X8203872Y-11741341D01*
X8203872Y-11741341D02*
X8184825Y-11731817D01*
X8184825Y-11731817D02*
X8156253Y-11731817D01*
X8156253Y-11731817D02*
X8137206Y-11722293D01*
X8137206Y-11722293D02*
X8127682Y-11703246D01*
X8127682Y-11703246D02*
X8127682Y-11693722D01*
X8127682Y-11693722D02*
X8137206Y-11674674D01*
X8137206Y-11674674D02*
X8156253Y-11665150D01*
X8156253Y-11665150D02*
X8184825Y-11665150D01*
X8184825Y-11665150D02*
X8203872Y-11674674D01*
X8280063Y-11874674D02*
X8289587Y-11865150D01*
X8289587Y-11865150D02*
X8308634Y-11836579D01*
X8308634Y-11836579D02*
X8318158Y-11817531D01*
X8318158Y-11817531D02*
X8327682Y-11788960D01*
X8327682Y-11788960D02*
X8337206Y-11741341D01*
X8337206Y-11741341D02*
X8337206Y-11703246D01*
X8337206Y-11703246D02*
X8327682Y-11655627D01*
X8327682Y-11655627D02*
X8318158Y-11627055D01*
X8318158Y-11627055D02*
X8308634Y-11608008D01*
X8308634Y-11608008D02*
X8289587Y-11579436D01*
X8289587Y-11579436D02*
X8280063Y-11569912D01*
X3405000Y-12127000D02*
X3505000Y-12027000D01*
X3405000Y-11927000D01*
X3305000Y-12027000D01*
X3405000Y-12127000D01*
X3851491Y-11985150D02*
X3851491Y-12118484D01*
X3803872Y-11908960D02*
X3756253Y-12051817D01*
X3756253Y-12051817D02*
X3880062Y-12051817D01*
X3956253Y-12099436D02*
X3965777Y-12108960D01*
X3965777Y-12108960D02*
X3956253Y-12118484D01*
X3956253Y-12118484D02*
X3946729Y-12108960D01*
X3946729Y-12108960D02*
X3956253Y-12099436D01*
X3956253Y-12099436D02*
X3956253Y-12118484D01*
X4032443Y-11918484D02*
X4156253Y-11918484D01*
X4156253Y-11918484D02*
X4089586Y-11994674D01*
X4089586Y-11994674D02*
X4118158Y-11994674D01*
X4118158Y-11994674D02*
X4137205Y-12004198D01*
X4137205Y-12004198D02*
X4146729Y-12013722D01*
X4146729Y-12013722D02*
X4156253Y-12032769D01*
X4156253Y-12032769D02*
X4156253Y-12080388D01*
X4156253Y-12080388D02*
X4146729Y-12099436D01*
X4146729Y-12099436D02*
X4137205Y-12108960D01*
X4137205Y-12108960D02*
X4118158Y-12118484D01*
X4118158Y-12118484D02*
X4061015Y-12118484D01*
X4061015Y-12118484D02*
X4041967Y-12108960D01*
X4041967Y-12108960D02*
X4032443Y-12099436D01*
X4280063Y-11918484D02*
X4299110Y-11918484D01*
X4299110Y-11918484D02*
X4318158Y-11928008D01*
X4318158Y-11928008D02*
X4327682Y-11937531D01*
X4327682Y-11937531D02*
X4337205Y-11956579D01*
X4337205Y-11956579D02*
X4346729Y-11994674D01*
X4346729Y-11994674D02*
X4346729Y-12042293D01*
X4346729Y-12042293D02*
X4337205Y-12080388D01*
X4337205Y-12080388D02*
X4327682Y-12099436D01*
X4327682Y-12099436D02*
X4318158Y-12108960D01*
X4318158Y-12108960D02*
X4299110Y-12118484D01*
X4299110Y-12118484D02*
X4280063Y-12118484D01*
X4280063Y-12118484D02*
X4261015Y-12108960D01*
X4261015Y-12108960D02*
X4251491Y-12099436D01*
X4251491Y-12099436D02*
X4241967Y-12080388D01*
X4241967Y-12080388D02*
X4232444Y-12042293D01*
X4232444Y-12042293D02*
X4232444Y-11994674D01*
X4232444Y-11994674D02*
X4241967Y-11956579D01*
X4241967Y-11956579D02*
X4251491Y-11937531D01*
X4251491Y-11937531D02*
X4261015Y-11928008D01*
X4261015Y-11928008D02*
X4280063Y-11918484D01*
X4470539Y-11918484D02*
X4489586Y-11918484D01*
X4489586Y-11918484D02*
X4508634Y-11928008D01*
X4508634Y-11928008D02*
X4518158Y-11937531D01*
X4518158Y-11937531D02*
X4527682Y-11956579D01*
X4527682Y-11956579D02*
X4537205Y-11994674D01*
X4537205Y-11994674D02*
X4537205Y-12042293D01*
X4537205Y-12042293D02*
X4527682Y-12080388D01*
X4527682Y-12080388D02*
X4518158Y-12099436D01*
X4518158Y-12099436D02*
X4508634Y-12108960D01*
X4508634Y-12108960D02*
X4489586Y-12118484D01*
X4489586Y-12118484D02*
X4470539Y-12118484D01*
X4470539Y-12118484D02*
X4451491Y-12108960D01*
X4451491Y-12108960D02*
X4441967Y-12099436D01*
X4441967Y-12099436D02*
X4432444Y-12080388D01*
X4432444Y-12080388D02*
X4422920Y-12042293D01*
X4422920Y-12042293D02*
X4422920Y-11994674D01*
X4422920Y-11994674D02*
X4432444Y-11956579D01*
X4432444Y-11956579D02*
X4441967Y-11937531D01*
X4441967Y-11937531D02*
X4451491Y-11928008D01*
X4451491Y-11928008D02*
X4470539Y-11918484D01*
X4622920Y-12118484D02*
X4622920Y-11985150D01*
X4622920Y-12004198D02*
X4632444Y-11994674D01*
X4632444Y-11994674D02*
X4651491Y-11985150D01*
X4651491Y-11985150D02*
X4680063Y-11985150D01*
X4680063Y-11985150D02*
X4699110Y-11994674D01*
X4699110Y-11994674D02*
X4708634Y-12013722D01*
X4708634Y-12013722D02*
X4708634Y-12118484D01*
X4708634Y-12013722D02*
X4718158Y-11994674D01*
X4718158Y-11994674D02*
X4737205Y-11985150D01*
X4737205Y-11985150D02*
X4765777Y-11985150D01*
X4765777Y-11985150D02*
X4784825Y-11994674D01*
X4784825Y-11994674D02*
X4794348Y-12013722D01*
X4794348Y-12013722D02*
X4794348Y-12118484D01*
X4889586Y-12118484D02*
X4889586Y-11985150D01*
X4889586Y-12004198D02*
X4899110Y-11994674D01*
X4899110Y-11994674D02*
X4918158Y-11985150D01*
X4918158Y-11985150D02*
X4946729Y-11985150D01*
X4946729Y-11985150D02*
X4965777Y-11994674D01*
X4965777Y-11994674D02*
X4975301Y-12013722D01*
X4975301Y-12013722D02*
X4975301Y-12118484D01*
X4975301Y-12013722D02*
X4984825Y-11994674D01*
X4984825Y-11994674D02*
X5003872Y-11985150D01*
X5003872Y-11985150D02*
X5032444Y-11985150D01*
X5032444Y-11985150D02*
X5051491Y-11994674D01*
X5051491Y-11994674D02*
X5061015Y-12013722D01*
X5061015Y-12013722D02*
X5061015Y-12118484D01*
X5451491Y-11908960D02*
X5280063Y-12166103D01*
X5708634Y-11918484D02*
X5727682Y-11918484D01*
X5727682Y-11918484D02*
X5746729Y-11928008D01*
X5746729Y-11928008D02*
X5756253Y-11937531D01*
X5756253Y-11937531D02*
X5765777Y-11956579D01*
X5765777Y-11956579D02*
X5775301Y-11994674D01*
X5775301Y-11994674D02*
X5775301Y-12042293D01*
X5775301Y-12042293D02*
X5765777Y-12080388D01*
X5765777Y-12080388D02*
X5756253Y-12099436D01*
X5756253Y-12099436D02*
X5746729Y-12108960D01*
X5746729Y-12108960D02*
X5727682Y-12118484D01*
X5727682Y-12118484D02*
X5708634Y-12118484D01*
X5708634Y-12118484D02*
X5689586Y-12108960D01*
X5689586Y-12108960D02*
X5680063Y-12099436D01*
X5680063Y-12099436D02*
X5670539Y-12080388D01*
X5670539Y-12080388D02*
X5661015Y-12042293D01*
X5661015Y-12042293D02*
X5661015Y-11994674D01*
X5661015Y-11994674D02*
X5670539Y-11956579D01*
X5670539Y-11956579D02*
X5680063Y-11937531D01*
X5680063Y-11937531D02*
X5689586Y-11928008D01*
X5689586Y-11928008D02*
X5708634Y-11918484D01*
X5861015Y-12099436D02*
X5870539Y-12108960D01*
X5870539Y-12108960D02*
X5861015Y-12118484D01*
X5861015Y-12118484D02*
X5851491Y-12108960D01*
X5851491Y-12108960D02*
X5861015Y-12099436D01*
X5861015Y-12099436D02*
X5861015Y-12118484D01*
X6061015Y-12118484D02*
X5946729Y-12118484D01*
X6003872Y-12118484D02*
X6003872Y-11918484D01*
X6003872Y-11918484D02*
X5984825Y-11947055D01*
X5984825Y-11947055D02*
X5965777Y-11966103D01*
X5965777Y-11966103D02*
X5946729Y-11975627D01*
X6232444Y-11918484D02*
X6194348Y-11918484D01*
X6194348Y-11918484D02*
X6175301Y-11928008D01*
X6175301Y-11928008D02*
X6165777Y-11937531D01*
X6165777Y-11937531D02*
X6146729Y-11966103D01*
X6146729Y-11966103D02*
X6137206Y-12004198D01*
X6137206Y-12004198D02*
X6137206Y-12080388D01*
X6137206Y-12080388D02*
X6146729Y-12099436D01*
X6146729Y-12099436D02*
X6156253Y-12108960D01*
X6156253Y-12108960D02*
X6175301Y-12118484D01*
X6175301Y-12118484D02*
X6213396Y-12118484D01*
X6213396Y-12118484D02*
X6232444Y-12108960D01*
X6232444Y-12108960D02*
X6241967Y-12099436D01*
X6241967Y-12099436D02*
X6251491Y-12080388D01*
X6251491Y-12080388D02*
X6251491Y-12032769D01*
X6251491Y-12032769D02*
X6241967Y-12013722D01*
X6241967Y-12013722D02*
X6232444Y-12004198D01*
X6232444Y-12004198D02*
X6213396Y-11994674D01*
X6213396Y-11994674D02*
X6175301Y-11994674D01*
X6175301Y-11994674D02*
X6156253Y-12004198D01*
X6156253Y-12004198D02*
X6146729Y-12013722D01*
X6146729Y-12013722D02*
X6137206Y-12032769D01*
X6346729Y-12118484D02*
X6384825Y-12118484D01*
X6384825Y-12118484D02*
X6403872Y-12108960D01*
X6403872Y-12108960D02*
X6413396Y-12099436D01*
X6413396Y-12099436D02*
X6432444Y-12070865D01*
X6432444Y-12070865D02*
X6441967Y-12032769D01*
X6441967Y-12032769D02*
X6441967Y-11956579D01*
X6441967Y-11956579D02*
X6432444Y-11937531D01*
X6432444Y-11937531D02*
X6422920Y-11928008D01*
X6422920Y-11928008D02*
X6403872Y-11918484D01*
X6403872Y-11918484D02*
X6365777Y-11918484D01*
X6365777Y-11918484D02*
X6346729Y-11928008D01*
X6346729Y-11928008D02*
X6337206Y-11937531D01*
X6337206Y-11937531D02*
X6327682Y-11956579D01*
X6327682Y-11956579D02*
X6327682Y-12004198D01*
X6327682Y-12004198D02*
X6337206Y-12023246D01*
X6337206Y-12023246D02*
X6346729Y-12032769D01*
X6346729Y-12032769D02*
X6365777Y-12042293D01*
X6365777Y-12042293D02*
X6403872Y-12042293D01*
X6403872Y-12042293D02*
X6422920Y-12032769D01*
X6422920Y-12032769D02*
X6432444Y-12023246D01*
X6432444Y-12023246D02*
X6441967Y-12004198D01*
X6508634Y-11918484D02*
X6632444Y-11918484D01*
X6632444Y-11918484D02*
X6565777Y-11994674D01*
X6565777Y-11994674D02*
X6594348Y-11994674D01*
X6594348Y-11994674D02*
X6613396Y-12004198D01*
X6613396Y-12004198D02*
X6622920Y-12013722D01*
X6622920Y-12013722D02*
X6632444Y-12032769D01*
X6632444Y-12032769D02*
X6632444Y-12080388D01*
X6632444Y-12080388D02*
X6622920Y-12099436D01*
X6622920Y-12099436D02*
X6613396Y-12108960D01*
X6613396Y-12108960D02*
X6594348Y-12118484D01*
X6594348Y-12118484D02*
X6537206Y-12118484D01*
X6537206Y-12118484D02*
X6518158Y-12108960D01*
X6518158Y-12108960D02*
X6508634Y-12099436D01*
X6708634Y-11918484D02*
X6708634Y-11956579D01*
X6784825Y-11918484D02*
X6784825Y-11956579D01*
X7080063Y-12194674D02*
X7070539Y-12185150D01*
X7070539Y-12185150D02*
X7051491Y-12156579D01*
X7051491Y-12156579D02*
X7041968Y-12137531D01*
X7041968Y-12137531D02*
X7032444Y-12108960D01*
X7032444Y-12108960D02*
X7022920Y-12061341D01*
X7022920Y-12061341D02*
X7022920Y-12023246D01*
X7022920Y-12023246D02*
X7032444Y-11975627D01*
X7032444Y-11975627D02*
X7041968Y-11947055D01*
X7041968Y-11947055D02*
X7051491Y-11928008D01*
X7051491Y-11928008D02*
X7070539Y-11899436D01*
X7070539Y-11899436D02*
X7080063Y-11889912D01*
X7241968Y-11985150D02*
X7241968Y-12118484D01*
X7194348Y-11908960D02*
X7146729Y-12051817D01*
X7146729Y-12051817D02*
X7270539Y-12051817D01*
X7499110Y-12118484D02*
X7499110Y-11918484D01*
X7584825Y-12118484D02*
X7584825Y-12013722D01*
X7584825Y-12013722D02*
X7575301Y-11994674D01*
X7575301Y-11994674D02*
X7556253Y-11985150D01*
X7556253Y-11985150D02*
X7527682Y-11985150D01*
X7527682Y-11985150D02*
X7508634Y-11994674D01*
X7508634Y-11994674D02*
X7499110Y-12004198D01*
X7708634Y-12118484D02*
X7689587Y-12108960D01*
X7689587Y-12108960D02*
X7680063Y-12099436D01*
X7680063Y-12099436D02*
X7670539Y-12080388D01*
X7670539Y-12080388D02*
X7670539Y-12023246D01*
X7670539Y-12023246D02*
X7680063Y-12004198D01*
X7680063Y-12004198D02*
X7689587Y-11994674D01*
X7689587Y-11994674D02*
X7708634Y-11985150D01*
X7708634Y-11985150D02*
X7737206Y-11985150D01*
X7737206Y-11985150D02*
X7756253Y-11994674D01*
X7756253Y-11994674D02*
X7765777Y-12004198D01*
X7765777Y-12004198D02*
X7775301Y-12023246D01*
X7775301Y-12023246D02*
X7775301Y-12080388D01*
X7775301Y-12080388D02*
X7765777Y-12099436D01*
X7765777Y-12099436D02*
X7756253Y-12108960D01*
X7756253Y-12108960D02*
X7737206Y-12118484D01*
X7737206Y-12118484D02*
X7708634Y-12118484D01*
X7889587Y-12118484D02*
X7870539Y-12108960D01*
X7870539Y-12108960D02*
X7861015Y-12089912D01*
X7861015Y-12089912D02*
X7861015Y-11918484D01*
X8041968Y-12108960D02*
X8022920Y-12118484D01*
X8022920Y-12118484D02*
X7984825Y-12118484D01*
X7984825Y-12118484D02*
X7965777Y-12108960D01*
X7965777Y-12108960D02*
X7956253Y-12089912D01*
X7956253Y-12089912D02*
X7956253Y-12013722D01*
X7956253Y-12013722D02*
X7965777Y-11994674D01*
X7965777Y-11994674D02*
X7984825Y-11985150D01*
X7984825Y-11985150D02*
X8022920Y-11985150D01*
X8022920Y-11985150D02*
X8041968Y-11994674D01*
X8041968Y-11994674D02*
X8051491Y-12013722D01*
X8051491Y-12013722D02*
X8051491Y-12032769D01*
X8051491Y-12032769D02*
X7956253Y-12051817D01*
X8127682Y-12108960D02*
X8146730Y-12118484D01*
X8146730Y-12118484D02*
X8184825Y-12118484D01*
X8184825Y-12118484D02*
X8203872Y-12108960D01*
X8203872Y-12108960D02*
X8213396Y-12089912D01*
X8213396Y-12089912D02*
X8213396Y-12080388D01*
X8213396Y-12080388D02*
X8203872Y-12061341D01*
X8203872Y-12061341D02*
X8184825Y-12051817D01*
X8184825Y-12051817D02*
X8156253Y-12051817D01*
X8156253Y-12051817D02*
X8137206Y-12042293D01*
X8137206Y-12042293D02*
X8127682Y-12023246D01*
X8127682Y-12023246D02*
X8127682Y-12013722D01*
X8127682Y-12013722D02*
X8137206Y-11994674D01*
X8137206Y-11994674D02*
X8156253Y-11985150D01*
X8156253Y-11985150D02*
X8184825Y-11985150D01*
X8184825Y-11985150D02*
X8203872Y-11994674D01*
X8280063Y-12194674D02*
X8289587Y-12185150D01*
X8289587Y-12185150D02*
X8308634Y-12156579D01*
X8308634Y-12156579D02*
X8318158Y-12137531D01*
X8318158Y-12137531D02*
X8327682Y-12108960D01*
X8327682Y-12108960D02*
X8337206Y-12061341D01*
X8337206Y-12061341D02*
X8337206Y-12023246D01*
X8337206Y-12023246D02*
X8327682Y-11975627D01*
X8327682Y-11975627D02*
X8318158Y-11947055D01*
X8318158Y-11947055D02*
X8308634Y-11928008D01*
X8308634Y-11928008D02*
X8289587Y-11899436D01*
X8289587Y-11899436D02*
X8280063Y-11889912D01*
M02*
