%TF.GenerationSoftware,KiCad,Pcbnew,8.0.1-rc1*%
%TF.CreationDate,2024-04-06T08:28:56-04:00*%
%TF.ProjectId,ESP32_CHUNGUS_RAPIDUS,45535033-325f-4434-9855-4e4755535f52,rev?*%
%TF.SameCoordinates,Original*%
%TF.FileFunction,Paste,Top*%
%TF.FilePolarity,Positive*%
%FSLAX46Y46*%
G04 Gerber Fmt 4.6, Leading zero omitted, Abs format (unit mm)*
G04 Created by KiCad (PCBNEW 8.0.1-rc1) date 2024-04-06 08:28:56*
%MOMM*%
%LPD*%
G01*
G04 APERTURE LIST*
G04 Aperture macros list*
%AMRoundRect*
0 Rectangle with rounded corners*
0 $1 Rounding radius*
0 $2 $3 $4 $5 $6 $7 $8 $9 X,Y pos of 4 corners*
0 Add a 4 corners polygon primitive as box body*
4,1,4,$2,$3,$4,$5,$6,$7,$8,$9,$2,$3,0*
0 Add four circle primitives for the rounded corners*
1,1,$1+$1,$2,$3*
1,1,$1+$1,$4,$5*
1,1,$1+$1,$6,$7*
1,1,$1+$1,$8,$9*
0 Add four rect primitives between the rounded corners*
20,1,$1+$1,$2,$3,$4,$5,0*
20,1,$1+$1,$4,$5,$6,$7,0*
20,1,$1+$1,$6,$7,$8,$9,0*
20,1,$1+$1,$8,$9,$2,$3,0*%
G04 Aperture macros list end*
%ADD10RoundRect,0.250000X-0.450000X0.262500X-0.450000X-0.262500X0.450000X-0.262500X0.450000X0.262500X0*%
%ADD11RoundRect,0.250000X0.450000X-0.262500X0.450000X0.262500X-0.450000X0.262500X-0.450000X-0.262500X0*%
%ADD12RoundRect,0.250000X-0.325000X-0.650000X0.325000X-0.650000X0.325000X0.650000X-0.325000X0.650000X0*%
%ADD13RoundRect,0.250000X-0.475000X0.250000X-0.475000X-0.250000X0.475000X-0.250000X0.475000X0.250000X0*%
%ADD14RoundRect,0.100000X-0.225000X-0.100000X0.225000X-0.100000X0.225000X0.100000X-0.225000X0.100000X0*%
%ADD15R,1.500000X1.000000*%
%ADD16RoundRect,0.250000X0.250000X0.475000X-0.250000X0.475000X-0.250000X-0.475000X0.250000X-0.475000X0*%
%ADD17RoundRect,0.150000X0.587500X0.150000X-0.587500X0.150000X-0.587500X-0.150000X0.587500X-0.150000X0*%
%ADD18RoundRect,0.150000X0.150000X-0.512500X0.150000X0.512500X-0.150000X0.512500X-0.150000X-0.512500X0*%
%ADD19RoundRect,0.100000X0.100000X-0.225000X0.100000X0.225000X-0.100000X0.225000X-0.100000X-0.225000X0*%
%ADD20RoundRect,0.250000X0.475000X-0.250000X0.475000X0.250000X-0.475000X0.250000X-0.475000X-0.250000X0*%
%ADD21RoundRect,0.250000X-0.250000X-0.475000X0.250000X-0.475000X0.250000X0.475000X-0.250000X0.475000X0*%
%ADD22RoundRect,0.150000X-0.150000X0.512500X-0.150000X-0.512500X0.150000X-0.512500X0.150000X0.512500X0*%
%ADD23RoundRect,0.250000X-0.650000X0.325000X-0.650000X-0.325000X0.650000X-0.325000X0.650000X0.325000X0*%
%ADD24RoundRect,0.250000X0.262500X0.450000X-0.262500X0.450000X-0.262500X-0.450000X0.262500X-0.450000X0*%
%ADD25RoundRect,0.250000X-0.450000X0.350000X-0.450000X-0.350000X0.450000X-0.350000X0.450000X0.350000X0*%
%ADD26RoundRect,0.250000X-1.450000X0.400000X-1.450000X-0.400000X1.450000X-0.400000X1.450000X0.400000X0*%
%ADD27RoundRect,0.250000X-0.262500X-0.450000X0.262500X-0.450000X0.262500X0.450000X-0.262500X0.450000X0*%
%ADD28R,1.300000X1.550000*%
%ADD29RoundRect,0.250000X0.650000X-0.325000X0.650000X0.325000X-0.650000X0.325000X-0.650000X-0.325000X0*%
G04 APERTURE END LIST*
D10*
%TO.C,A0*%
X96430000Y-95786500D03*
X96430000Y-97611500D03*
%TD*%
D11*
%TO.C,R515*%
X75400000Y-59951500D03*
X75400000Y-58126500D03*
%TD*%
D10*
%TO.C,A4*%
X110650000Y-95846500D03*
X110650000Y-97671500D03*
%TD*%
D12*
%TO.C,C205*%
X52925000Y-76100000D03*
X55875000Y-76100000D03*
%TD*%
D13*
%TO.C,C401*%
X75400000Y-19110000D03*
X75400000Y-21010000D03*
%TD*%
%TO.C,C203*%
X97450000Y-27112500D03*
X97450000Y-29012500D03*
%TD*%
D12*
%TO.C,C208*%
X56625000Y-80500000D03*
X59575000Y-80500000D03*
%TD*%
D10*
%TO.C,A5*%
X114180000Y-95866500D03*
X114180000Y-97691500D03*
%TD*%
D14*
%TO.C,D402*%
X88850000Y-91550000D03*
X88850000Y-92200000D03*
X88850000Y-92850000D03*
X90750000Y-92850000D03*
X90750000Y-92200000D03*
X90750000Y-91550000D03*
%TD*%
D15*
%TO.C,D401*%
X82550000Y-22200000D03*
X82550000Y-19000000D03*
X77650000Y-19000000D03*
X77650000Y-22200000D03*
%TD*%
D16*
%TO.C,C201*%
X99100000Y-30862500D03*
X97200000Y-30862500D03*
%TD*%
D17*
%TO.C,Q201*%
X115537500Y-35675000D03*
X115537500Y-33775000D03*
X113662500Y-34725000D03*
%TD*%
D18*
%TO.C,U202*%
X99300000Y-28900000D03*
X100250000Y-28900000D03*
X101200000Y-28900000D03*
X101200000Y-26625000D03*
X99300000Y-26625000D03*
%TD*%
D19*
%TO.C,D404*%
X53687500Y-79887500D03*
X54337500Y-79887500D03*
X54987500Y-79887500D03*
X54987500Y-77987500D03*
X54337500Y-77987500D03*
X53687500Y-77987500D03*
%TD*%
D16*
%TO.C,C402*%
X73900000Y-96620000D03*
X72000000Y-96620000D03*
%TD*%
D10*
%TO.C,A2*%
X103510000Y-95876500D03*
X103510000Y-97701500D03*
%TD*%
D20*
%TO.C,C210*%
X75200000Y-77750000D03*
X75200000Y-75850000D03*
%TD*%
D21*
%TO.C,C202*%
X101400000Y-20462500D03*
X103300000Y-20462500D03*
%TD*%
D20*
%TO.C,C207*%
X81000000Y-77750000D03*
X81000000Y-75850000D03*
%TD*%
D22*
%TO.C,U201*%
X101200000Y-22425000D03*
X100250000Y-22425000D03*
X99300000Y-22425000D03*
X99300000Y-24700000D03*
X101200000Y-24700000D03*
%TD*%
D23*
%TO.C,C224*%
X92600000Y-90825000D03*
X92600000Y-93775000D03*
%TD*%
D10*
%TO.C,R411*%
X86600000Y-75287500D03*
X86600000Y-77112500D03*
%TD*%
D24*
%TO.C,R414*%
X73862500Y-92620000D03*
X72037500Y-92620000D03*
%TD*%
D10*
%TO.C,A3*%
X107090000Y-95866500D03*
X107090000Y-97691500D03*
%TD*%
D25*
%TO.C,FB201*%
X117600000Y-33600000D03*
X117600000Y-35600000D03*
%TD*%
D26*
%TO.C,F201*%
X110600000Y-34975000D03*
X110600000Y-39425000D03*
%TD*%
D27*
%TO.C,R516*%
X79047500Y-67249000D03*
X80872500Y-67249000D03*
%TD*%
D28*
%TO.C,SW401*%
X65400000Y-100700000D03*
X65400000Y-92740000D03*
X69900000Y-100700000D03*
X69900000Y-92740000D03*
%TD*%
D11*
%TO.C,R514*%
X77360000Y-59971500D03*
X77360000Y-58146500D03*
%TD*%
D20*
%TO.C,C204*%
X103050000Y-24212500D03*
X103050000Y-22312500D03*
%TD*%
D10*
%TO.C,A1*%
X99980000Y-95836500D03*
X99980000Y-97661500D03*
%TD*%
D27*
%TO.C,R415*%
X72037500Y-94620000D03*
X73862500Y-94620000D03*
%TD*%
D29*
%TO.C,C216*%
X87000000Y-93675000D03*
X87000000Y-90725000D03*
%TD*%
M02*
