%TF.GenerationSoftware,KiCad,Pcbnew,8.0.1-rc1*%
%TF.CreationDate,2024-04-06T08:28:56-04:00*%
%TF.ProjectId,ESP32_CHUNGUS_RAPIDUS,45535033-325f-4434-9855-4e4755535f52,rev?*%
%TF.SameCoordinates,Original*%
%TF.FileFunction,Paste,Bot*%
%TF.FilePolarity,Positive*%
%FSLAX46Y46*%
G04 Gerber Fmt 4.6, Leading zero omitted, Abs format (unit mm)*
G04 Created by KiCad (PCBNEW 8.0.1-rc1) date 2024-04-06 08:28:56*
%MOMM*%
%LPD*%
G01*
G04 APERTURE LIST*
G04 Aperture macros list*
%AMRoundRect*
0 Rectangle with rounded corners*
0 $1 Rounding radius*
0 $2 $3 $4 $5 $6 $7 $8 $9 X,Y pos of 4 corners*
0 Add a 4 corners polygon primitive as box body*
4,1,4,$2,$3,$4,$5,$6,$7,$8,$9,$2,$3,0*
0 Add four circle primitives for the rounded corners*
1,1,$1+$1,$2,$3*
1,1,$1+$1,$4,$5*
1,1,$1+$1,$6,$7*
1,1,$1+$1,$8,$9*
0 Add four rect primitives between the rounded corners*
20,1,$1+$1,$2,$3,$4,$5,0*
20,1,$1+$1,$4,$5,$6,$7,0*
20,1,$1+$1,$6,$7,$8,$9,0*
20,1,$1+$1,$8,$9,$2,$3,0*%
G04 Aperture macros list end*
%ADD10C,0.200000*%
%ADD11RoundRect,0.100000X0.637500X0.100000X-0.637500X0.100000X-0.637500X-0.100000X0.637500X-0.100000X0*%
%ADD12RoundRect,0.250000X-0.475000X0.250000X-0.475000X-0.250000X0.475000X-0.250000X0.475000X0.250000X0*%
%ADD13RoundRect,0.250000X-0.450000X0.262500X-0.450000X-0.262500X0.450000X-0.262500X0.450000X0.262500X0*%
%ADD14RoundRect,0.250000X0.450000X-0.262500X0.450000X0.262500X-0.450000X0.262500X-0.450000X-0.262500X0*%
%ADD15RoundRect,0.250000X0.475000X-0.250000X0.475000X0.250000X-0.475000X0.250000X-0.475000X-0.250000X0*%
%ADD16RoundRect,0.075000X0.662500X0.075000X-0.662500X0.075000X-0.662500X-0.075000X0.662500X-0.075000X0*%
%ADD17RoundRect,0.250000X0.325000X0.650000X-0.325000X0.650000X-0.325000X-0.650000X0.325000X-0.650000X0*%
%ADD18RoundRect,0.250000X-0.325000X-0.650000X0.325000X-0.650000X0.325000X0.650000X-0.325000X0.650000X0*%
%ADD19RoundRect,0.250000X0.262500X0.450000X-0.262500X0.450000X-0.262500X-0.450000X0.262500X-0.450000X0*%
%ADD20RoundRect,0.250000X-0.650000X0.325000X-0.650000X-0.325000X0.650000X-0.325000X0.650000X0.325000X0*%
%ADD21RoundRect,0.250000X0.650000X-0.325000X0.650000X0.325000X-0.650000X0.325000X-0.650000X-0.325000X0*%
%ADD22RoundRect,0.250000X-0.250000X-0.475000X0.250000X-0.475000X0.250000X0.475000X-0.250000X0.475000X0*%
%ADD23RoundRect,0.100000X-0.225000X-0.100000X0.225000X-0.100000X0.225000X0.100000X-0.225000X0.100000X0*%
%ADD24RoundRect,0.100000X-0.100000X0.225000X-0.100000X-0.225000X0.100000X-0.225000X0.100000X0.225000X0*%
G04 APERTURE END LIST*
D10*
X92680326Y-21589875D02*
X92680326Y-20789875D01*
X92680326Y-20789875D02*
X92108898Y-21589875D01*
X92108898Y-21589875D02*
X92108898Y-20789875D01*
X91489850Y-21589875D02*
X91585088Y-21551780D01*
X91585088Y-21551780D02*
X91632707Y-21513684D01*
X91632707Y-21513684D02*
X91680326Y-21437494D01*
X91680326Y-21437494D02*
X91680326Y-21208922D01*
X91680326Y-21208922D02*
X91632707Y-21132732D01*
X91632707Y-21132732D02*
X91585088Y-21094637D01*
X91585088Y-21094637D02*
X91489850Y-21056541D01*
X91489850Y-21056541D02*
X91346993Y-21056541D01*
X91346993Y-21056541D02*
X91251755Y-21094637D01*
X91251755Y-21094637D02*
X91204136Y-21132732D01*
X91204136Y-21132732D02*
X91156517Y-21208922D01*
X91156517Y-21208922D02*
X91156517Y-21437494D01*
X91156517Y-21437494D02*
X91204136Y-21513684D01*
X91204136Y-21513684D02*
X91251755Y-21551780D01*
X91251755Y-21551780D02*
X91346993Y-21589875D01*
X91346993Y-21589875D02*
X91489850Y-21589875D01*
X90727945Y-21589875D02*
X90727945Y-21056541D01*
X90727945Y-21132732D02*
X90680326Y-21094637D01*
X90680326Y-21094637D02*
X90585088Y-21056541D01*
X90585088Y-21056541D02*
X90442231Y-21056541D01*
X90442231Y-21056541D02*
X90346993Y-21094637D01*
X90346993Y-21094637D02*
X90299374Y-21170827D01*
X90299374Y-21170827D02*
X90299374Y-21589875D01*
X90299374Y-21170827D02*
X90251755Y-21094637D01*
X90251755Y-21094637D02*
X90156517Y-21056541D01*
X90156517Y-21056541D02*
X90013660Y-21056541D01*
X90013660Y-21056541D02*
X89918421Y-21094637D01*
X89918421Y-21094637D02*
X89870802Y-21170827D01*
X89870802Y-21170827D02*
X89870802Y-21589875D01*
X89394612Y-21513684D02*
X89346993Y-21551780D01*
X89346993Y-21551780D02*
X89394612Y-21589875D01*
X89394612Y-21589875D02*
X89442231Y-21551780D01*
X89442231Y-21551780D02*
X89394612Y-21513684D01*
X89394612Y-21513684D02*
X89394612Y-21589875D01*
X89394612Y-21094637D02*
X89346993Y-21132732D01*
X89346993Y-21132732D02*
X89394612Y-21170827D01*
X89394612Y-21170827D02*
X89442231Y-21132732D01*
X89442231Y-21132732D02*
X89394612Y-21094637D01*
X89394612Y-21094637D02*
X89394612Y-21170827D01*
X88156517Y-21170827D02*
X87823184Y-21170827D01*
X87680327Y-21589875D02*
X88156517Y-21589875D01*
X88156517Y-21589875D02*
X88156517Y-20789875D01*
X88156517Y-20789875D02*
X87680327Y-20789875D01*
X87299374Y-21551780D02*
X87156517Y-21589875D01*
X87156517Y-21589875D02*
X86918422Y-21589875D01*
X86918422Y-21589875D02*
X86823184Y-21551780D01*
X86823184Y-21551780D02*
X86775565Y-21513684D01*
X86775565Y-21513684D02*
X86727946Y-21437494D01*
X86727946Y-21437494D02*
X86727946Y-21361303D01*
X86727946Y-21361303D02*
X86775565Y-21285113D01*
X86775565Y-21285113D02*
X86823184Y-21247018D01*
X86823184Y-21247018D02*
X86918422Y-21208922D01*
X86918422Y-21208922D02*
X87108898Y-21170827D01*
X87108898Y-21170827D02*
X87204136Y-21132732D01*
X87204136Y-21132732D02*
X87251755Y-21094637D01*
X87251755Y-21094637D02*
X87299374Y-21018446D01*
X87299374Y-21018446D02*
X87299374Y-20942256D01*
X87299374Y-20942256D02*
X87251755Y-20866065D01*
X87251755Y-20866065D02*
X87204136Y-20827970D01*
X87204136Y-20827970D02*
X87108898Y-20789875D01*
X87108898Y-20789875D02*
X86870803Y-20789875D01*
X86870803Y-20789875D02*
X86727946Y-20827970D01*
X86299374Y-21589875D02*
X86299374Y-20789875D01*
X86299374Y-20789875D02*
X85918422Y-20789875D01*
X85918422Y-20789875D02*
X85823184Y-20827970D01*
X85823184Y-20827970D02*
X85775565Y-20866065D01*
X85775565Y-20866065D02*
X85727946Y-20942256D01*
X85727946Y-20942256D02*
X85727946Y-21056541D01*
X85727946Y-21056541D02*
X85775565Y-21132732D01*
X85775565Y-21132732D02*
X85823184Y-21170827D01*
X85823184Y-21170827D02*
X85918422Y-21208922D01*
X85918422Y-21208922D02*
X86299374Y-21208922D01*
X85394612Y-20789875D02*
X84775565Y-20789875D01*
X84775565Y-20789875D02*
X85108898Y-21094637D01*
X85108898Y-21094637D02*
X84966041Y-21094637D01*
X84966041Y-21094637D02*
X84870803Y-21132732D01*
X84870803Y-21132732D02*
X84823184Y-21170827D01*
X84823184Y-21170827D02*
X84775565Y-21247018D01*
X84775565Y-21247018D02*
X84775565Y-21437494D01*
X84775565Y-21437494D02*
X84823184Y-21513684D01*
X84823184Y-21513684D02*
X84870803Y-21551780D01*
X84870803Y-21551780D02*
X84966041Y-21589875D01*
X84966041Y-21589875D02*
X85251755Y-21589875D01*
X85251755Y-21589875D02*
X85346993Y-21551780D01*
X85346993Y-21551780D02*
X85394612Y-21513684D01*
X84394612Y-20866065D02*
X84346993Y-20827970D01*
X84346993Y-20827970D02*
X84251755Y-20789875D01*
X84251755Y-20789875D02*
X84013660Y-20789875D01*
X84013660Y-20789875D02*
X83918422Y-20827970D01*
X83918422Y-20827970D02*
X83870803Y-20866065D01*
X83870803Y-20866065D02*
X83823184Y-20942256D01*
X83823184Y-20942256D02*
X83823184Y-21018446D01*
X83823184Y-21018446D02*
X83870803Y-21132732D01*
X83870803Y-21132732D02*
X84442231Y-21589875D01*
X84442231Y-21589875D02*
X83823184Y-21589875D01*
X83632708Y-21666065D02*
X82870803Y-21666065D01*
X82061279Y-21513684D02*
X82108898Y-21551780D01*
X82108898Y-21551780D02*
X82251755Y-21589875D01*
X82251755Y-21589875D02*
X82346993Y-21589875D01*
X82346993Y-21589875D02*
X82489850Y-21551780D01*
X82489850Y-21551780D02*
X82585088Y-21475589D01*
X82585088Y-21475589D02*
X82632707Y-21399399D01*
X82632707Y-21399399D02*
X82680326Y-21247018D01*
X82680326Y-21247018D02*
X82680326Y-21132732D01*
X82680326Y-21132732D02*
X82632707Y-20980351D01*
X82632707Y-20980351D02*
X82585088Y-20904160D01*
X82585088Y-20904160D02*
X82489850Y-20827970D01*
X82489850Y-20827970D02*
X82346993Y-20789875D01*
X82346993Y-20789875D02*
X82251755Y-20789875D01*
X82251755Y-20789875D02*
X82108898Y-20827970D01*
X82108898Y-20827970D02*
X82061279Y-20866065D01*
X81632707Y-21589875D02*
X81632707Y-20789875D01*
X81632707Y-21170827D02*
X81061279Y-21170827D01*
X81061279Y-21589875D02*
X81061279Y-20789875D01*
X80585088Y-20789875D02*
X80585088Y-21437494D01*
X80585088Y-21437494D02*
X80537469Y-21513684D01*
X80537469Y-21513684D02*
X80489850Y-21551780D01*
X80489850Y-21551780D02*
X80394612Y-21589875D01*
X80394612Y-21589875D02*
X80204136Y-21589875D01*
X80204136Y-21589875D02*
X80108898Y-21551780D01*
X80108898Y-21551780D02*
X80061279Y-21513684D01*
X80061279Y-21513684D02*
X80013660Y-21437494D01*
X80013660Y-21437494D02*
X80013660Y-20789875D01*
X79537469Y-21589875D02*
X79537469Y-20789875D01*
X79537469Y-20789875D02*
X78966041Y-21589875D01*
X78966041Y-21589875D02*
X78966041Y-20789875D01*
X77966041Y-20827970D02*
X78061279Y-20789875D01*
X78061279Y-20789875D02*
X78204136Y-20789875D01*
X78204136Y-20789875D02*
X78346993Y-20827970D01*
X78346993Y-20827970D02*
X78442231Y-20904160D01*
X78442231Y-20904160D02*
X78489850Y-20980351D01*
X78489850Y-20980351D02*
X78537469Y-21132732D01*
X78537469Y-21132732D02*
X78537469Y-21247018D01*
X78537469Y-21247018D02*
X78489850Y-21399399D01*
X78489850Y-21399399D02*
X78442231Y-21475589D01*
X78442231Y-21475589D02*
X78346993Y-21551780D01*
X78346993Y-21551780D02*
X78204136Y-21589875D01*
X78204136Y-21589875D02*
X78108898Y-21589875D01*
X78108898Y-21589875D02*
X77966041Y-21551780D01*
X77966041Y-21551780D02*
X77918422Y-21513684D01*
X77918422Y-21513684D02*
X77918422Y-21247018D01*
X77918422Y-21247018D02*
X78108898Y-21247018D01*
X77489850Y-20789875D02*
X77489850Y-21437494D01*
X77489850Y-21437494D02*
X77442231Y-21513684D01*
X77442231Y-21513684D02*
X77394612Y-21551780D01*
X77394612Y-21551780D02*
X77299374Y-21589875D01*
X77299374Y-21589875D02*
X77108898Y-21589875D01*
X77108898Y-21589875D02*
X77013660Y-21551780D01*
X77013660Y-21551780D02*
X76966041Y-21513684D01*
X76966041Y-21513684D02*
X76918422Y-21437494D01*
X76918422Y-21437494D02*
X76918422Y-20789875D01*
X76489850Y-21551780D02*
X76346993Y-21589875D01*
X76346993Y-21589875D02*
X76108898Y-21589875D01*
X76108898Y-21589875D02*
X76013660Y-21551780D01*
X76013660Y-21551780D02*
X75966041Y-21513684D01*
X75966041Y-21513684D02*
X75918422Y-21437494D01*
X75918422Y-21437494D02*
X75918422Y-21361303D01*
X75918422Y-21361303D02*
X75966041Y-21285113D01*
X75966041Y-21285113D02*
X76013660Y-21247018D01*
X76013660Y-21247018D02*
X76108898Y-21208922D01*
X76108898Y-21208922D02*
X76299374Y-21170827D01*
X76299374Y-21170827D02*
X76394612Y-21132732D01*
X76394612Y-21132732D02*
X76442231Y-21094637D01*
X76442231Y-21094637D02*
X76489850Y-21018446D01*
X76489850Y-21018446D02*
X76489850Y-20942256D01*
X76489850Y-20942256D02*
X76442231Y-20866065D01*
X76442231Y-20866065D02*
X76394612Y-20827970D01*
X76394612Y-20827970D02*
X76299374Y-20789875D01*
X76299374Y-20789875D02*
X76061279Y-20789875D01*
X76061279Y-20789875D02*
X75918422Y-20827970D01*
X75727946Y-21666065D02*
X74966041Y-21666065D01*
X74156517Y-21589875D02*
X74489850Y-21208922D01*
X74727945Y-21589875D02*
X74727945Y-20789875D01*
X74727945Y-20789875D02*
X74346993Y-20789875D01*
X74346993Y-20789875D02*
X74251755Y-20827970D01*
X74251755Y-20827970D02*
X74204136Y-20866065D01*
X74204136Y-20866065D02*
X74156517Y-20942256D01*
X74156517Y-20942256D02*
X74156517Y-21056541D01*
X74156517Y-21056541D02*
X74204136Y-21132732D01*
X74204136Y-21132732D02*
X74251755Y-21170827D01*
X74251755Y-21170827D02*
X74346993Y-21208922D01*
X74346993Y-21208922D02*
X74727945Y-21208922D01*
X73775564Y-21361303D02*
X73299374Y-21361303D01*
X73870802Y-21589875D02*
X73537469Y-20789875D01*
X73537469Y-20789875D02*
X73204136Y-21589875D01*
X72870802Y-21589875D02*
X72870802Y-20789875D01*
X72870802Y-20789875D02*
X72489850Y-20789875D01*
X72489850Y-20789875D02*
X72394612Y-20827970D01*
X72394612Y-20827970D02*
X72346993Y-20866065D01*
X72346993Y-20866065D02*
X72299374Y-20942256D01*
X72299374Y-20942256D02*
X72299374Y-21056541D01*
X72299374Y-21056541D02*
X72346993Y-21132732D01*
X72346993Y-21132732D02*
X72394612Y-21170827D01*
X72394612Y-21170827D02*
X72489850Y-21208922D01*
X72489850Y-21208922D02*
X72870802Y-21208922D01*
X71870802Y-21589875D02*
X71870802Y-20789875D01*
X71394612Y-21589875D02*
X71394612Y-20789875D01*
X71394612Y-20789875D02*
X71156517Y-20789875D01*
X71156517Y-20789875D02*
X71013660Y-20827970D01*
X71013660Y-20827970D02*
X70918422Y-20904160D01*
X70918422Y-20904160D02*
X70870803Y-20980351D01*
X70870803Y-20980351D02*
X70823184Y-21132732D01*
X70823184Y-21132732D02*
X70823184Y-21247018D01*
X70823184Y-21247018D02*
X70870803Y-21399399D01*
X70870803Y-21399399D02*
X70918422Y-21475589D01*
X70918422Y-21475589D02*
X71013660Y-21551780D01*
X71013660Y-21551780D02*
X71156517Y-21589875D01*
X71156517Y-21589875D02*
X71394612Y-21589875D01*
X70394612Y-20789875D02*
X70394612Y-21437494D01*
X70394612Y-21437494D02*
X70346993Y-21513684D01*
X70346993Y-21513684D02*
X70299374Y-21551780D01*
X70299374Y-21551780D02*
X70204136Y-21589875D01*
X70204136Y-21589875D02*
X70013660Y-21589875D01*
X70013660Y-21589875D02*
X69918422Y-21551780D01*
X69918422Y-21551780D02*
X69870803Y-21513684D01*
X69870803Y-21513684D02*
X69823184Y-21437494D01*
X69823184Y-21437494D02*
X69823184Y-20789875D01*
X69394612Y-21551780D02*
X69251755Y-21589875D01*
X69251755Y-21589875D02*
X69013660Y-21589875D01*
X69013660Y-21589875D02*
X68918422Y-21551780D01*
X68918422Y-21551780D02*
X68870803Y-21513684D01*
X68870803Y-21513684D02*
X68823184Y-21437494D01*
X68823184Y-21437494D02*
X68823184Y-21361303D01*
X68823184Y-21361303D02*
X68870803Y-21285113D01*
X68870803Y-21285113D02*
X68918422Y-21247018D01*
X68918422Y-21247018D02*
X69013660Y-21208922D01*
X69013660Y-21208922D02*
X69204136Y-21170827D01*
X69204136Y-21170827D02*
X69299374Y-21132732D01*
X69299374Y-21132732D02*
X69346993Y-21094637D01*
X69346993Y-21094637D02*
X69394612Y-21018446D01*
X69394612Y-21018446D02*
X69394612Y-20942256D01*
X69394612Y-20942256D02*
X69346993Y-20866065D01*
X69346993Y-20866065D02*
X69299374Y-20827970D01*
X69299374Y-20827970D02*
X69204136Y-20789875D01*
X69204136Y-20789875D02*
X68966041Y-20789875D01*
X68966041Y-20789875D02*
X68823184Y-20827970D01*
X92108898Y-22801639D02*
X92156517Y-22839735D01*
X92156517Y-22839735D02*
X92299374Y-22877830D01*
X92299374Y-22877830D02*
X92394612Y-22877830D01*
X92394612Y-22877830D02*
X92537469Y-22839735D01*
X92537469Y-22839735D02*
X92632707Y-22763544D01*
X92632707Y-22763544D02*
X92680326Y-22687354D01*
X92680326Y-22687354D02*
X92727945Y-22534973D01*
X92727945Y-22534973D02*
X92727945Y-22420687D01*
X92727945Y-22420687D02*
X92680326Y-22268306D01*
X92680326Y-22268306D02*
X92632707Y-22192115D01*
X92632707Y-22192115D02*
X92537469Y-22115925D01*
X92537469Y-22115925D02*
X92394612Y-22077830D01*
X92394612Y-22077830D02*
X92299374Y-22077830D01*
X92299374Y-22077830D02*
X92156517Y-22115925D01*
X92156517Y-22115925D02*
X92108898Y-22154020D01*
X91680326Y-22877830D02*
X91680326Y-22344496D01*
X91680326Y-22496877D02*
X91632707Y-22420687D01*
X91632707Y-22420687D02*
X91585088Y-22382592D01*
X91585088Y-22382592D02*
X91489850Y-22344496D01*
X91489850Y-22344496D02*
X91394612Y-22344496D01*
X90680326Y-22839735D02*
X90775564Y-22877830D01*
X90775564Y-22877830D02*
X90966040Y-22877830D01*
X90966040Y-22877830D02*
X91061278Y-22839735D01*
X91061278Y-22839735D02*
X91108897Y-22763544D01*
X91108897Y-22763544D02*
X91108897Y-22458782D01*
X91108897Y-22458782D02*
X91061278Y-22382592D01*
X91061278Y-22382592D02*
X90966040Y-22344496D01*
X90966040Y-22344496D02*
X90775564Y-22344496D01*
X90775564Y-22344496D02*
X90680326Y-22382592D01*
X90680326Y-22382592D02*
X90632707Y-22458782D01*
X90632707Y-22458782D02*
X90632707Y-22534973D01*
X90632707Y-22534973D02*
X91108897Y-22611163D01*
X90775564Y-22039735D02*
X90918421Y-22154020D01*
X89823183Y-22839735D02*
X89918421Y-22877830D01*
X89918421Y-22877830D02*
X90108897Y-22877830D01*
X90108897Y-22877830D02*
X90204135Y-22839735D01*
X90204135Y-22839735D02*
X90251754Y-22763544D01*
X90251754Y-22763544D02*
X90251754Y-22458782D01*
X90251754Y-22458782D02*
X90204135Y-22382592D01*
X90204135Y-22382592D02*
X90108897Y-22344496D01*
X90108897Y-22344496D02*
X89918421Y-22344496D01*
X89918421Y-22344496D02*
X89823183Y-22382592D01*
X89823183Y-22382592D02*
X89775564Y-22458782D01*
X89775564Y-22458782D02*
X89775564Y-22534973D01*
X89775564Y-22534973D02*
X90251754Y-22611163D01*
X89346992Y-22877830D02*
X89346992Y-22344496D01*
X89346992Y-22496877D02*
X89299373Y-22420687D01*
X89299373Y-22420687D02*
X89251754Y-22382592D01*
X89251754Y-22382592D02*
X89156516Y-22344496D01*
X89156516Y-22344496D02*
X89061278Y-22344496D01*
X87966039Y-22344496D02*
X87966039Y-23144496D01*
X87966039Y-22382592D02*
X87870801Y-22344496D01*
X87870801Y-22344496D02*
X87680325Y-22344496D01*
X87680325Y-22344496D02*
X87585087Y-22382592D01*
X87585087Y-22382592D02*
X87537468Y-22420687D01*
X87537468Y-22420687D02*
X87489849Y-22496877D01*
X87489849Y-22496877D02*
X87489849Y-22725449D01*
X87489849Y-22725449D02*
X87537468Y-22801639D01*
X87537468Y-22801639D02*
X87585087Y-22839735D01*
X87585087Y-22839735D02*
X87680325Y-22877830D01*
X87680325Y-22877830D02*
X87870801Y-22877830D01*
X87870801Y-22877830D02*
X87966039Y-22839735D01*
X86632706Y-22877830D02*
X86632706Y-22458782D01*
X86632706Y-22458782D02*
X86680325Y-22382592D01*
X86680325Y-22382592D02*
X86775563Y-22344496D01*
X86775563Y-22344496D02*
X86966039Y-22344496D01*
X86966039Y-22344496D02*
X87061277Y-22382592D01*
X86632706Y-22839735D02*
X86727944Y-22877830D01*
X86727944Y-22877830D02*
X86966039Y-22877830D01*
X86966039Y-22877830D02*
X87061277Y-22839735D01*
X87061277Y-22839735D02*
X87108896Y-22763544D01*
X87108896Y-22763544D02*
X87108896Y-22687354D01*
X87108896Y-22687354D02*
X87061277Y-22611163D01*
X87061277Y-22611163D02*
X86966039Y-22573068D01*
X86966039Y-22573068D02*
X86727944Y-22573068D01*
X86727944Y-22573068D02*
X86632706Y-22534973D01*
X86156515Y-22877830D02*
X86156515Y-22344496D01*
X86156515Y-22496877D02*
X86108896Y-22420687D01*
X86108896Y-22420687D02*
X86061277Y-22382592D01*
X86061277Y-22382592D02*
X85966039Y-22344496D01*
X85966039Y-22344496D02*
X85870801Y-22344496D01*
X85537467Y-22801639D02*
X85489848Y-22839735D01*
X85489848Y-22839735D02*
X85537467Y-22877830D01*
X85537467Y-22877830D02*
X85585086Y-22839735D01*
X85585086Y-22839735D02*
X85537467Y-22801639D01*
X85537467Y-22801639D02*
X85537467Y-22877830D01*
X85537467Y-22382592D02*
X85489848Y-22420687D01*
X85489848Y-22420687D02*
X85537467Y-22458782D01*
X85537467Y-22458782D02*
X85585086Y-22420687D01*
X85585086Y-22420687D02*
X85537467Y-22382592D01*
X85537467Y-22382592D02*
X85537467Y-22458782D01*
X84013658Y-22077830D02*
X84013658Y-22649258D01*
X84013658Y-22649258D02*
X84061277Y-22763544D01*
X84061277Y-22763544D02*
X84156515Y-22839735D01*
X84156515Y-22839735D02*
X84299372Y-22877830D01*
X84299372Y-22877830D02*
X84394610Y-22877830D01*
X83108896Y-22877830D02*
X83108896Y-22458782D01*
X83108896Y-22458782D02*
X83156515Y-22382592D01*
X83156515Y-22382592D02*
X83251753Y-22344496D01*
X83251753Y-22344496D02*
X83442229Y-22344496D01*
X83442229Y-22344496D02*
X83537467Y-22382592D01*
X83108896Y-22839735D02*
X83204134Y-22877830D01*
X83204134Y-22877830D02*
X83442229Y-22877830D01*
X83442229Y-22877830D02*
X83537467Y-22839735D01*
X83537467Y-22839735D02*
X83585086Y-22763544D01*
X83585086Y-22763544D02*
X83585086Y-22687354D01*
X83585086Y-22687354D02*
X83537467Y-22611163D01*
X83537467Y-22611163D02*
X83442229Y-22573068D01*
X83442229Y-22573068D02*
X83204134Y-22573068D01*
X83204134Y-22573068D02*
X83108896Y-22534973D01*
X82204134Y-22839735D02*
X82299372Y-22877830D01*
X82299372Y-22877830D02*
X82489848Y-22877830D01*
X82489848Y-22877830D02*
X82585086Y-22839735D01*
X82585086Y-22839735D02*
X82632705Y-22801639D01*
X82632705Y-22801639D02*
X82680324Y-22725449D01*
X82680324Y-22725449D02*
X82680324Y-22496877D01*
X82680324Y-22496877D02*
X82632705Y-22420687D01*
X82632705Y-22420687D02*
X82585086Y-22382592D01*
X82585086Y-22382592D02*
X82489848Y-22344496D01*
X82489848Y-22344496D02*
X82299372Y-22344496D01*
X82299372Y-22344496D02*
X82204134Y-22382592D01*
X81632705Y-22877830D02*
X81727943Y-22839735D01*
X81727943Y-22839735D02*
X81775562Y-22801639D01*
X81775562Y-22801639D02*
X81823181Y-22725449D01*
X81823181Y-22725449D02*
X81823181Y-22496877D01*
X81823181Y-22496877D02*
X81775562Y-22420687D01*
X81775562Y-22420687D02*
X81727943Y-22382592D01*
X81727943Y-22382592D02*
X81632705Y-22344496D01*
X81632705Y-22344496D02*
X81489848Y-22344496D01*
X81489848Y-22344496D02*
X81394610Y-22382592D01*
X81394610Y-22382592D02*
X81346991Y-22420687D01*
X81346991Y-22420687D02*
X81299372Y-22496877D01*
X81299372Y-22496877D02*
X81299372Y-22725449D01*
X81299372Y-22725449D02*
X81346991Y-22801639D01*
X81346991Y-22801639D02*
X81394610Y-22839735D01*
X81394610Y-22839735D02*
X81489848Y-22877830D01*
X81489848Y-22877830D02*
X81632705Y-22877830D01*
X80870800Y-22877830D02*
X80870800Y-22077830D01*
X80870800Y-22382592D02*
X80775562Y-22344496D01*
X80775562Y-22344496D02*
X80585086Y-22344496D01*
X80585086Y-22344496D02*
X80489848Y-22382592D01*
X80489848Y-22382592D02*
X80442229Y-22420687D01*
X80442229Y-22420687D02*
X80394610Y-22496877D01*
X80394610Y-22496877D02*
X80394610Y-22725449D01*
X80394610Y-22725449D02*
X80442229Y-22801639D01*
X80442229Y-22801639D02*
X80489848Y-22839735D01*
X80489848Y-22839735D02*
X80585086Y-22877830D01*
X80585086Y-22877830D02*
X80775562Y-22877830D01*
X80775562Y-22877830D02*
X80870800Y-22839735D01*
X79346990Y-22077830D02*
X78775562Y-22077830D01*
X79061276Y-22877830D02*
X79061276Y-22077830D01*
X78013657Y-22344496D02*
X78013657Y-22877830D01*
X78442228Y-22344496D02*
X78442228Y-22763544D01*
X78442228Y-22763544D02*
X78394609Y-22839735D01*
X78394609Y-22839735D02*
X78299371Y-22877830D01*
X78299371Y-22877830D02*
X78156514Y-22877830D01*
X78156514Y-22877830D02*
X78061276Y-22839735D01*
X78061276Y-22839735D02*
X78013657Y-22801639D01*
X77537466Y-22877830D02*
X77537466Y-22344496D01*
X77537466Y-22496877D02*
X77489847Y-22420687D01*
X77489847Y-22420687D02*
X77442228Y-22382592D01*
X77442228Y-22382592D02*
X77346990Y-22344496D01*
X77346990Y-22344496D02*
X77251752Y-22344496D01*
X76489847Y-22839735D02*
X76585085Y-22877830D01*
X76585085Y-22877830D02*
X76775561Y-22877830D01*
X76775561Y-22877830D02*
X76870799Y-22839735D01*
X76870799Y-22839735D02*
X76918418Y-22801639D01*
X76918418Y-22801639D02*
X76966037Y-22725449D01*
X76966037Y-22725449D02*
X76966037Y-22496877D01*
X76966037Y-22496877D02*
X76918418Y-22420687D01*
X76918418Y-22420687D02*
X76870799Y-22382592D01*
X76870799Y-22382592D02*
X76775561Y-22344496D01*
X76775561Y-22344496D02*
X76585085Y-22344496D01*
X76585085Y-22344496D02*
X76489847Y-22382592D01*
X75918418Y-22877830D02*
X76013656Y-22839735D01*
X76013656Y-22839735D02*
X76061275Y-22801639D01*
X76061275Y-22801639D02*
X76108894Y-22725449D01*
X76108894Y-22725449D02*
X76108894Y-22496877D01*
X76108894Y-22496877D02*
X76061275Y-22420687D01*
X76061275Y-22420687D02*
X76013656Y-22382592D01*
X76013656Y-22382592D02*
X75918418Y-22344496D01*
X75918418Y-22344496D02*
X75775561Y-22344496D01*
X75775561Y-22344496D02*
X75680323Y-22382592D01*
X75680323Y-22382592D02*
X75632704Y-22420687D01*
X75632704Y-22420687D02*
X75585085Y-22496877D01*
X75585085Y-22496877D02*
X75585085Y-22725449D01*
X75585085Y-22725449D02*
X75632704Y-22801639D01*
X75632704Y-22801639D02*
X75680323Y-22839735D01*
X75680323Y-22839735D02*
X75775561Y-22877830D01*
X75775561Y-22877830D02*
X75918418Y-22877830D01*
X75299370Y-22344496D02*
X74918418Y-22344496D01*
X75156513Y-22077830D02*
X75156513Y-22763544D01*
X75156513Y-22763544D02*
X75108894Y-22839735D01*
X75108894Y-22839735D02*
X75013656Y-22877830D01*
X75013656Y-22877830D02*
X74918418Y-22877830D01*
X74727941Y-22344496D02*
X74346989Y-22344496D01*
X74585084Y-22077830D02*
X74585084Y-22763544D01*
X74585084Y-22763544D02*
X74537465Y-22839735D01*
X74537465Y-22839735D02*
X74442227Y-22877830D01*
X74442227Y-22877830D02*
X74346989Y-22877830D01*
X73632703Y-22839735D02*
X73727941Y-22877830D01*
X73727941Y-22877830D02*
X73918417Y-22877830D01*
X73918417Y-22877830D02*
X74013655Y-22839735D01*
X74013655Y-22839735D02*
X74061274Y-22763544D01*
X74061274Y-22763544D02*
X74061274Y-22458782D01*
X74061274Y-22458782D02*
X74013655Y-22382592D01*
X74013655Y-22382592D02*
X73918417Y-22344496D01*
X73918417Y-22344496D02*
X73727941Y-22344496D01*
X73727941Y-22344496D02*
X73632703Y-22382592D01*
X73632703Y-22382592D02*
X73585084Y-22458782D01*
X73585084Y-22458782D02*
X73585084Y-22534973D01*
X73585084Y-22534973D02*
X74061274Y-22611163D01*
X92108898Y-24089594D02*
X92156517Y-24127690D01*
X92156517Y-24127690D02*
X92299374Y-24165785D01*
X92299374Y-24165785D02*
X92394612Y-24165785D01*
X92394612Y-24165785D02*
X92537469Y-24127690D01*
X92537469Y-24127690D02*
X92632707Y-24051499D01*
X92632707Y-24051499D02*
X92680326Y-23975309D01*
X92680326Y-23975309D02*
X92727945Y-23822928D01*
X92727945Y-23822928D02*
X92727945Y-23708642D01*
X92727945Y-23708642D02*
X92680326Y-23556261D01*
X92680326Y-23556261D02*
X92632707Y-23480070D01*
X92632707Y-23480070D02*
X92537469Y-23403880D01*
X92537469Y-23403880D02*
X92394612Y-23365785D01*
X92394612Y-23365785D02*
X92299374Y-23365785D01*
X92299374Y-23365785D02*
X92156517Y-23403880D01*
X92156517Y-23403880D02*
X92108898Y-23441975D01*
X91680326Y-24165785D02*
X91680326Y-23632451D01*
X91680326Y-23784832D02*
X91632707Y-23708642D01*
X91632707Y-23708642D02*
X91585088Y-23670547D01*
X91585088Y-23670547D02*
X91489850Y-23632451D01*
X91489850Y-23632451D02*
X91394612Y-23632451D01*
X90680326Y-24127690D02*
X90775564Y-24165785D01*
X90775564Y-24165785D02*
X90966040Y-24165785D01*
X90966040Y-24165785D02*
X91061278Y-24127690D01*
X91061278Y-24127690D02*
X91108897Y-24051499D01*
X91108897Y-24051499D02*
X91108897Y-23746737D01*
X91108897Y-23746737D02*
X91061278Y-23670547D01*
X91061278Y-23670547D02*
X90966040Y-23632451D01*
X90966040Y-23632451D02*
X90775564Y-23632451D01*
X90775564Y-23632451D02*
X90680326Y-23670547D01*
X90680326Y-23670547D02*
X90632707Y-23746737D01*
X90632707Y-23746737D02*
X90632707Y-23822928D01*
X90632707Y-23822928D02*
X91108897Y-23899118D01*
X90775564Y-23327690D02*
X90918421Y-23441975D01*
X89823183Y-24127690D02*
X89918421Y-24165785D01*
X89918421Y-24165785D02*
X90108897Y-24165785D01*
X90108897Y-24165785D02*
X90204135Y-24127690D01*
X90204135Y-24127690D02*
X90251754Y-24051499D01*
X90251754Y-24051499D02*
X90251754Y-23746737D01*
X90251754Y-23746737D02*
X90204135Y-23670547D01*
X90204135Y-23670547D02*
X90108897Y-23632451D01*
X90108897Y-23632451D02*
X89918421Y-23632451D01*
X89918421Y-23632451D02*
X89823183Y-23670547D01*
X89823183Y-23670547D02*
X89775564Y-23746737D01*
X89775564Y-23746737D02*
X89775564Y-23822928D01*
X89775564Y-23822928D02*
X90251754Y-23899118D01*
X89346992Y-24165785D02*
X89346992Y-23632451D01*
X89346992Y-23784832D02*
X89299373Y-23708642D01*
X89299373Y-23708642D02*
X89251754Y-23670547D01*
X89251754Y-23670547D02*
X89156516Y-23632451D01*
X89156516Y-23632451D02*
X89061278Y-23632451D01*
X87966039Y-23632451D02*
X87966039Y-24432451D01*
X87966039Y-23670547D02*
X87870801Y-23632451D01*
X87870801Y-23632451D02*
X87680325Y-23632451D01*
X87680325Y-23632451D02*
X87585087Y-23670547D01*
X87585087Y-23670547D02*
X87537468Y-23708642D01*
X87537468Y-23708642D02*
X87489849Y-23784832D01*
X87489849Y-23784832D02*
X87489849Y-24013404D01*
X87489849Y-24013404D02*
X87537468Y-24089594D01*
X87537468Y-24089594D02*
X87585087Y-24127690D01*
X87585087Y-24127690D02*
X87680325Y-24165785D01*
X87680325Y-24165785D02*
X87870801Y-24165785D01*
X87870801Y-24165785D02*
X87966039Y-24127690D01*
X86918420Y-24165785D02*
X87013658Y-24127690D01*
X87013658Y-24127690D02*
X87061277Y-24089594D01*
X87061277Y-24089594D02*
X87108896Y-24013404D01*
X87108896Y-24013404D02*
X87108896Y-23784832D01*
X87108896Y-23784832D02*
X87061277Y-23708642D01*
X87061277Y-23708642D02*
X87013658Y-23670547D01*
X87013658Y-23670547D02*
X86918420Y-23632451D01*
X86918420Y-23632451D02*
X86775563Y-23632451D01*
X86775563Y-23632451D02*
X86680325Y-23670547D01*
X86680325Y-23670547D02*
X86632706Y-23708642D01*
X86632706Y-23708642D02*
X86585087Y-23784832D01*
X86585087Y-23784832D02*
X86585087Y-24013404D01*
X86585087Y-24013404D02*
X86632706Y-24089594D01*
X86632706Y-24089594D02*
X86680325Y-24127690D01*
X86680325Y-24127690D02*
X86775563Y-24165785D01*
X86775563Y-24165785D02*
X86918420Y-24165785D01*
X85727944Y-23632451D02*
X85727944Y-24165785D01*
X86156515Y-23632451D02*
X86156515Y-24051499D01*
X86156515Y-24051499D02*
X86108896Y-24127690D01*
X86108896Y-24127690D02*
X86013658Y-24165785D01*
X86013658Y-24165785D02*
X85870801Y-24165785D01*
X85870801Y-24165785D02*
X85775563Y-24127690D01*
X85775563Y-24127690D02*
X85727944Y-24089594D01*
X85251753Y-24165785D02*
X85251753Y-23632451D01*
X85251753Y-23784832D02*
X85204134Y-23708642D01*
X85204134Y-23708642D02*
X85156515Y-23670547D01*
X85156515Y-23670547D02*
X85061277Y-23632451D01*
X85061277Y-23632451D02*
X84966039Y-23632451D01*
X84632705Y-24089594D02*
X84585086Y-24127690D01*
X84585086Y-24127690D02*
X84632705Y-24165785D01*
X84632705Y-24165785D02*
X84680324Y-24127690D01*
X84680324Y-24127690D02*
X84632705Y-24089594D01*
X84632705Y-24089594D02*
X84632705Y-24165785D01*
X84632705Y-23670547D02*
X84585086Y-23708642D01*
X84585086Y-23708642D02*
X84632705Y-23746737D01*
X84632705Y-23746737D02*
X84680324Y-23708642D01*
X84680324Y-23708642D02*
X84632705Y-23670547D01*
X84632705Y-23670547D02*
X84632705Y-23746737D01*
X83061277Y-23746737D02*
X82918420Y-23784832D01*
X82918420Y-23784832D02*
X82870801Y-23822928D01*
X82870801Y-23822928D02*
X82823182Y-23899118D01*
X82823182Y-23899118D02*
X82823182Y-24013404D01*
X82823182Y-24013404D02*
X82870801Y-24089594D01*
X82870801Y-24089594D02*
X82918420Y-24127690D01*
X82918420Y-24127690D02*
X83013658Y-24165785D01*
X83013658Y-24165785D02*
X83394610Y-24165785D01*
X83394610Y-24165785D02*
X83394610Y-23365785D01*
X83394610Y-23365785D02*
X83061277Y-23365785D01*
X83061277Y-23365785D02*
X82966039Y-23403880D01*
X82966039Y-23403880D02*
X82918420Y-23441975D01*
X82918420Y-23441975D02*
X82870801Y-23518166D01*
X82870801Y-23518166D02*
X82870801Y-23594356D01*
X82870801Y-23594356D02*
X82918420Y-23670547D01*
X82918420Y-23670547D02*
X82966039Y-23708642D01*
X82966039Y-23708642D02*
X83061277Y-23746737D01*
X83061277Y-23746737D02*
X83394610Y-23746737D01*
X82394610Y-24165785D02*
X82394610Y-23632451D01*
X82394610Y-23365785D02*
X82442229Y-23403880D01*
X82442229Y-23403880D02*
X82394610Y-23441975D01*
X82394610Y-23441975D02*
X82346991Y-23403880D01*
X82346991Y-23403880D02*
X82394610Y-23365785D01*
X82394610Y-23365785D02*
X82394610Y-23441975D01*
X81775563Y-24165785D02*
X81870801Y-24127690D01*
X81870801Y-24127690D02*
X81918420Y-24089594D01*
X81918420Y-24089594D02*
X81966039Y-24013404D01*
X81966039Y-24013404D02*
X81966039Y-23784832D01*
X81966039Y-23784832D02*
X81918420Y-23708642D01*
X81918420Y-23708642D02*
X81870801Y-23670547D01*
X81870801Y-23670547D02*
X81775563Y-23632451D01*
X81775563Y-23632451D02*
X81632706Y-23632451D01*
X81632706Y-23632451D02*
X81537468Y-23670547D01*
X81537468Y-23670547D02*
X81489849Y-23708642D01*
X81489849Y-23708642D02*
X81442230Y-23784832D01*
X81442230Y-23784832D02*
X81442230Y-24013404D01*
X81442230Y-24013404D02*
X81489849Y-24089594D01*
X81489849Y-24089594D02*
X81537468Y-24127690D01*
X81537468Y-24127690D02*
X81632706Y-24165785D01*
X81632706Y-24165785D02*
X81775563Y-24165785D01*
X80585087Y-23632451D02*
X80585087Y-24280070D01*
X80585087Y-24280070D02*
X80632706Y-24356261D01*
X80632706Y-24356261D02*
X80680325Y-24394356D01*
X80680325Y-24394356D02*
X80775563Y-24432451D01*
X80775563Y-24432451D02*
X80918420Y-24432451D01*
X80918420Y-24432451D02*
X81013658Y-24394356D01*
X80585087Y-24127690D02*
X80680325Y-24165785D01*
X80680325Y-24165785D02*
X80870801Y-24165785D01*
X80870801Y-24165785D02*
X80966039Y-24127690D01*
X80966039Y-24127690D02*
X81013658Y-24089594D01*
X81013658Y-24089594D02*
X81061277Y-24013404D01*
X81061277Y-24013404D02*
X81061277Y-23784832D01*
X81061277Y-23784832D02*
X81013658Y-23708642D01*
X81013658Y-23708642D02*
X80966039Y-23670547D01*
X80966039Y-23670547D02*
X80870801Y-23632451D01*
X80870801Y-23632451D02*
X80680325Y-23632451D01*
X80680325Y-23632451D02*
X80585087Y-23670547D01*
X79727944Y-24127690D02*
X79823182Y-24165785D01*
X79823182Y-24165785D02*
X80013658Y-24165785D01*
X80013658Y-24165785D02*
X80108896Y-24127690D01*
X80108896Y-24127690D02*
X80156515Y-24051499D01*
X80156515Y-24051499D02*
X80156515Y-23746737D01*
X80156515Y-23746737D02*
X80108896Y-23670547D01*
X80108896Y-23670547D02*
X80013658Y-23632451D01*
X80013658Y-23632451D02*
X79823182Y-23632451D01*
X79823182Y-23632451D02*
X79727944Y-23670547D01*
X79727944Y-23670547D02*
X79680325Y-23746737D01*
X79680325Y-23746737D02*
X79680325Y-23822928D01*
X79680325Y-23822928D02*
X80156515Y-23899118D01*
X79823182Y-23327690D02*
X79966039Y-23441975D01*
X79251753Y-23632451D02*
X79251753Y-24165785D01*
X79251753Y-23708642D02*
X79204134Y-23670547D01*
X79204134Y-23670547D02*
X79108896Y-23632451D01*
X79108896Y-23632451D02*
X78966039Y-23632451D01*
X78966039Y-23632451D02*
X78870801Y-23670547D01*
X78870801Y-23670547D02*
X78823182Y-23746737D01*
X78823182Y-23746737D02*
X78823182Y-24165785D01*
X78346991Y-24165785D02*
X78346991Y-23632451D01*
X78346991Y-23365785D02*
X78394610Y-23403880D01*
X78394610Y-23403880D02*
X78346991Y-23441975D01*
X78346991Y-23441975D02*
X78299372Y-23403880D01*
X78299372Y-23403880D02*
X78346991Y-23365785D01*
X78346991Y-23365785D02*
X78346991Y-23441975D01*
X77442230Y-23632451D02*
X77442230Y-24165785D01*
X77870801Y-23632451D02*
X77870801Y-24051499D01*
X77870801Y-24051499D02*
X77823182Y-24127690D01*
X77823182Y-24127690D02*
X77727944Y-24165785D01*
X77727944Y-24165785D02*
X77585087Y-24165785D01*
X77585087Y-24165785D02*
X77489849Y-24127690D01*
X77489849Y-24127690D02*
X77442230Y-24089594D01*
X77013658Y-24127690D02*
X76918420Y-24165785D01*
X76918420Y-24165785D02*
X76727944Y-24165785D01*
X76727944Y-24165785D02*
X76632706Y-24127690D01*
X76632706Y-24127690D02*
X76585087Y-24051499D01*
X76585087Y-24051499D02*
X76585087Y-24013404D01*
X76585087Y-24013404D02*
X76632706Y-23937213D01*
X76632706Y-23937213D02*
X76727944Y-23899118D01*
X76727944Y-23899118D02*
X76870801Y-23899118D01*
X76870801Y-23899118D02*
X76966039Y-23861023D01*
X76966039Y-23861023D02*
X77013658Y-23784832D01*
X77013658Y-23784832D02*
X77013658Y-23746737D01*
X77013658Y-23746737D02*
X76966039Y-23670547D01*
X76966039Y-23670547D02*
X76870801Y-23632451D01*
X76870801Y-23632451D02*
X76727944Y-23632451D01*
X76727944Y-23632451D02*
X76632706Y-23670547D01*
X92680326Y-24653740D02*
X92680326Y-25301359D01*
X92680326Y-25301359D02*
X92632707Y-25377549D01*
X92632707Y-25377549D02*
X92585088Y-25415645D01*
X92585088Y-25415645D02*
X92489850Y-25453740D01*
X92489850Y-25453740D02*
X92299374Y-25453740D01*
X92299374Y-25453740D02*
X92204136Y-25415645D01*
X92204136Y-25415645D02*
X92156517Y-25377549D01*
X92156517Y-25377549D02*
X92108898Y-25301359D01*
X92108898Y-25301359D02*
X92108898Y-24653740D01*
X91775564Y-24920406D02*
X91394612Y-24920406D01*
X91632707Y-24653740D02*
X91632707Y-25339454D01*
X91632707Y-25339454D02*
X91585088Y-25415645D01*
X91585088Y-25415645D02*
X91489850Y-25453740D01*
X91489850Y-25453740D02*
X91394612Y-25453740D01*
X91061278Y-25453740D02*
X91061278Y-24920406D01*
X91061278Y-24653740D02*
X91108897Y-24691835D01*
X91108897Y-24691835D02*
X91061278Y-24729930D01*
X91061278Y-24729930D02*
X91013659Y-24691835D01*
X91013659Y-24691835D02*
X91061278Y-24653740D01*
X91061278Y-24653740D02*
X91061278Y-24729930D01*
X90442231Y-25453740D02*
X90537469Y-25415645D01*
X90537469Y-25415645D02*
X90585088Y-25339454D01*
X90585088Y-25339454D02*
X90585088Y-24653740D01*
X90061278Y-25453740D02*
X90061278Y-24920406D01*
X90061278Y-24653740D02*
X90108897Y-24691835D01*
X90108897Y-24691835D02*
X90061278Y-24729930D01*
X90061278Y-24729930D02*
X90013659Y-24691835D01*
X90013659Y-24691835D02*
X90061278Y-24653740D01*
X90061278Y-24653740D02*
X90061278Y-24729930D01*
X89632707Y-25415645D02*
X89537469Y-25453740D01*
X89537469Y-25453740D02*
X89346993Y-25453740D01*
X89346993Y-25453740D02*
X89251755Y-25415645D01*
X89251755Y-25415645D02*
X89204136Y-25339454D01*
X89204136Y-25339454D02*
X89204136Y-25301359D01*
X89204136Y-25301359D02*
X89251755Y-25225168D01*
X89251755Y-25225168D02*
X89346993Y-25187073D01*
X89346993Y-25187073D02*
X89489850Y-25187073D01*
X89489850Y-25187073D02*
X89585088Y-25148978D01*
X89585088Y-25148978D02*
X89632707Y-25072787D01*
X89632707Y-25072787D02*
X89632707Y-25034692D01*
X89632707Y-25034692D02*
X89585088Y-24958502D01*
X89585088Y-24958502D02*
X89489850Y-24920406D01*
X89489850Y-24920406D02*
X89346993Y-24920406D01*
X89346993Y-24920406D02*
X89251755Y-24958502D01*
X88346993Y-25453740D02*
X88346993Y-25034692D01*
X88346993Y-25034692D02*
X88394612Y-24958502D01*
X88394612Y-24958502D02*
X88489850Y-24920406D01*
X88489850Y-24920406D02*
X88680326Y-24920406D01*
X88680326Y-24920406D02*
X88775564Y-24958502D01*
X88346993Y-25415645D02*
X88442231Y-25453740D01*
X88442231Y-25453740D02*
X88680326Y-25453740D01*
X88680326Y-25453740D02*
X88775564Y-25415645D01*
X88775564Y-25415645D02*
X88823183Y-25339454D01*
X88823183Y-25339454D02*
X88823183Y-25263264D01*
X88823183Y-25263264D02*
X88775564Y-25187073D01*
X88775564Y-25187073D02*
X88680326Y-25148978D01*
X88680326Y-25148978D02*
X88442231Y-25148978D01*
X88442231Y-25148978D02*
X88346993Y-25110883D01*
X88013659Y-24920406D02*
X87632707Y-24920406D01*
X87870802Y-24653740D02*
X87870802Y-25339454D01*
X87870802Y-25339454D02*
X87823183Y-25415645D01*
X87823183Y-25415645D02*
X87727945Y-25453740D01*
X87727945Y-25453740D02*
X87632707Y-25453740D01*
X87299373Y-25453740D02*
X87299373Y-24920406D01*
X87299373Y-24653740D02*
X87346992Y-24691835D01*
X87346992Y-24691835D02*
X87299373Y-24729930D01*
X87299373Y-24729930D02*
X87251754Y-24691835D01*
X87251754Y-24691835D02*
X87299373Y-24653740D01*
X87299373Y-24653740D02*
X87299373Y-24729930D01*
X86680326Y-25453740D02*
X86775564Y-25415645D01*
X86775564Y-25415645D02*
X86823183Y-25377549D01*
X86823183Y-25377549D02*
X86870802Y-25301359D01*
X86870802Y-25301359D02*
X86870802Y-25072787D01*
X86870802Y-25072787D02*
X86823183Y-24996597D01*
X86823183Y-24996597D02*
X86775564Y-24958502D01*
X86775564Y-24958502D02*
X86680326Y-24920406D01*
X86680326Y-24920406D02*
X86537469Y-24920406D01*
X86537469Y-24920406D02*
X86442231Y-24958502D01*
X86442231Y-24958502D02*
X86394612Y-24996597D01*
X86394612Y-24996597D02*
X86346993Y-25072787D01*
X86346993Y-25072787D02*
X86346993Y-25301359D01*
X86346993Y-25301359D02*
X86394612Y-25377549D01*
X86394612Y-25377549D02*
X86442231Y-25415645D01*
X86442231Y-25415645D02*
X86537469Y-25453740D01*
X86537469Y-25453740D02*
X86680326Y-25453740D01*
X85918421Y-24920406D02*
X85918421Y-25453740D01*
X85918421Y-24996597D02*
X85870802Y-24958502D01*
X85870802Y-24958502D02*
X85775564Y-24920406D01*
X85775564Y-24920406D02*
X85632707Y-24920406D01*
X85632707Y-24920406D02*
X85537469Y-24958502D01*
X85537469Y-24958502D02*
X85489850Y-25034692D01*
X85489850Y-25034692D02*
X85489850Y-25453740D01*
X85013659Y-25377549D02*
X84966040Y-25415645D01*
X84966040Y-25415645D02*
X85013659Y-25453740D01*
X85013659Y-25453740D02*
X85061278Y-25415645D01*
X85061278Y-25415645D02*
X85013659Y-25377549D01*
X85013659Y-25377549D02*
X85013659Y-25453740D01*
X85013659Y-24958502D02*
X84966040Y-24996597D01*
X84966040Y-24996597D02*
X85013659Y-25034692D01*
X85013659Y-25034692D02*
X85061278Y-24996597D01*
X85061278Y-24996597D02*
X85013659Y-24958502D01*
X85013659Y-24958502D02*
X85013659Y-25034692D01*
X83775564Y-25453740D02*
X83775564Y-24653740D01*
X83775564Y-24653740D02*
X83394612Y-24653740D01*
X83394612Y-24653740D02*
X83299374Y-24691835D01*
X83299374Y-24691835D02*
X83251755Y-24729930D01*
X83251755Y-24729930D02*
X83204136Y-24806121D01*
X83204136Y-24806121D02*
X83204136Y-24920406D01*
X83204136Y-24920406D02*
X83251755Y-24996597D01*
X83251755Y-24996597D02*
X83299374Y-25034692D01*
X83299374Y-25034692D02*
X83394612Y-25072787D01*
X83394612Y-25072787D02*
X83775564Y-25072787D01*
X82204136Y-25377549D02*
X82251755Y-25415645D01*
X82251755Y-25415645D02*
X82394612Y-25453740D01*
X82394612Y-25453740D02*
X82489850Y-25453740D01*
X82489850Y-25453740D02*
X82632707Y-25415645D01*
X82632707Y-25415645D02*
X82727945Y-25339454D01*
X82727945Y-25339454D02*
X82775564Y-25263264D01*
X82775564Y-25263264D02*
X82823183Y-25110883D01*
X82823183Y-25110883D02*
X82823183Y-24996597D01*
X82823183Y-24996597D02*
X82775564Y-24844216D01*
X82775564Y-24844216D02*
X82727945Y-24768025D01*
X82727945Y-24768025D02*
X82632707Y-24691835D01*
X82632707Y-24691835D02*
X82489850Y-24653740D01*
X82489850Y-24653740D02*
X82394612Y-24653740D01*
X82394612Y-24653740D02*
X82251755Y-24691835D01*
X82251755Y-24691835D02*
X82204136Y-24729930D01*
X81442231Y-25034692D02*
X81299374Y-25072787D01*
X81299374Y-25072787D02*
X81251755Y-25110883D01*
X81251755Y-25110883D02*
X81204136Y-25187073D01*
X81204136Y-25187073D02*
X81204136Y-25301359D01*
X81204136Y-25301359D02*
X81251755Y-25377549D01*
X81251755Y-25377549D02*
X81299374Y-25415645D01*
X81299374Y-25415645D02*
X81394612Y-25453740D01*
X81394612Y-25453740D02*
X81775564Y-25453740D01*
X81775564Y-25453740D02*
X81775564Y-24653740D01*
X81775564Y-24653740D02*
X81442231Y-24653740D01*
X81442231Y-24653740D02*
X81346993Y-24691835D01*
X81346993Y-24691835D02*
X81299374Y-24729930D01*
X81299374Y-24729930D02*
X81251755Y-24806121D01*
X81251755Y-24806121D02*
X81251755Y-24882311D01*
X81251755Y-24882311D02*
X81299374Y-24958502D01*
X81299374Y-24958502D02*
X81346993Y-24996597D01*
X81346993Y-24996597D02*
X81442231Y-25034692D01*
X81442231Y-25034692D02*
X81775564Y-25034692D01*
X79585088Y-25453740D02*
X79585088Y-24653740D01*
X79585088Y-25415645D02*
X79680326Y-25453740D01*
X79680326Y-25453740D02*
X79870802Y-25453740D01*
X79870802Y-25453740D02*
X79966040Y-25415645D01*
X79966040Y-25415645D02*
X80013659Y-25377549D01*
X80013659Y-25377549D02*
X80061278Y-25301359D01*
X80061278Y-25301359D02*
X80061278Y-25072787D01*
X80061278Y-25072787D02*
X80013659Y-24996597D01*
X80013659Y-24996597D02*
X79966040Y-24958502D01*
X79966040Y-24958502D02*
X79870802Y-24920406D01*
X79870802Y-24920406D02*
X79680326Y-24920406D01*
X79680326Y-24920406D02*
X79585088Y-24958502D01*
X78727945Y-25415645D02*
X78823183Y-25453740D01*
X78823183Y-25453740D02*
X79013659Y-25453740D01*
X79013659Y-25453740D02*
X79108897Y-25415645D01*
X79108897Y-25415645D02*
X79156516Y-25339454D01*
X79156516Y-25339454D02*
X79156516Y-25034692D01*
X79156516Y-25034692D02*
X79108897Y-24958502D01*
X79108897Y-24958502D02*
X79013659Y-24920406D01*
X79013659Y-24920406D02*
X78823183Y-24920406D01*
X78823183Y-24920406D02*
X78727945Y-24958502D01*
X78727945Y-24958502D02*
X78680326Y-25034692D01*
X78680326Y-25034692D02*
X78680326Y-25110883D01*
X78680326Y-25110883D02*
X79156516Y-25187073D01*
X77061278Y-25415645D02*
X77156516Y-25453740D01*
X77156516Y-25453740D02*
X77346992Y-25453740D01*
X77346992Y-25453740D02*
X77442230Y-25415645D01*
X77442230Y-25415645D02*
X77489849Y-25377549D01*
X77489849Y-25377549D02*
X77537468Y-25301359D01*
X77537468Y-25301359D02*
X77537468Y-25072787D01*
X77537468Y-25072787D02*
X77489849Y-24996597D01*
X77489849Y-24996597D02*
X77442230Y-24958502D01*
X77442230Y-24958502D02*
X77346992Y-24920406D01*
X77346992Y-24920406D02*
X77156516Y-24920406D01*
X77156516Y-24920406D02*
X77061278Y-24958502D01*
X76489849Y-25453740D02*
X76585087Y-25415645D01*
X76585087Y-25415645D02*
X76632706Y-25377549D01*
X76632706Y-25377549D02*
X76680325Y-25301359D01*
X76680325Y-25301359D02*
X76680325Y-25072787D01*
X76680325Y-25072787D02*
X76632706Y-24996597D01*
X76632706Y-24996597D02*
X76585087Y-24958502D01*
X76585087Y-24958502D02*
X76489849Y-24920406D01*
X76489849Y-24920406D02*
X76346992Y-24920406D01*
X76346992Y-24920406D02*
X76251754Y-24958502D01*
X76251754Y-24958502D02*
X76204135Y-24996597D01*
X76204135Y-24996597D02*
X76156516Y-25072787D01*
X76156516Y-25072787D02*
X76156516Y-25301359D01*
X76156516Y-25301359D02*
X76204135Y-25377549D01*
X76204135Y-25377549D02*
X76251754Y-25415645D01*
X76251754Y-25415645D02*
X76346992Y-25453740D01*
X76346992Y-25453740D02*
X76489849Y-25453740D01*
X75727944Y-24920406D02*
X75727944Y-25453740D01*
X75727944Y-24996597D02*
X75680325Y-24958502D01*
X75680325Y-24958502D02*
X75585087Y-24920406D01*
X75585087Y-24920406D02*
X75442230Y-24920406D01*
X75442230Y-24920406D02*
X75346992Y-24958502D01*
X75346992Y-24958502D02*
X75299373Y-25034692D01*
X75299373Y-25034692D02*
X75299373Y-25453740D01*
X74966039Y-24920406D02*
X74585087Y-24920406D01*
X74823182Y-24653740D02*
X74823182Y-25339454D01*
X74823182Y-25339454D02*
X74775563Y-25415645D01*
X74775563Y-25415645D02*
X74680325Y-25453740D01*
X74680325Y-25453740D02*
X74585087Y-25453740D01*
X74251753Y-25453740D02*
X74251753Y-24920406D01*
X74251753Y-25072787D02*
X74204134Y-24996597D01*
X74204134Y-24996597D02*
X74156515Y-24958502D01*
X74156515Y-24958502D02*
X74061277Y-24920406D01*
X74061277Y-24920406D02*
X73966039Y-24920406D01*
X73489848Y-25453740D02*
X73585086Y-25415645D01*
X73585086Y-25415645D02*
X73632705Y-25377549D01*
X73632705Y-25377549D02*
X73680324Y-25301359D01*
X73680324Y-25301359D02*
X73680324Y-25072787D01*
X73680324Y-25072787D02*
X73632705Y-24996597D01*
X73632705Y-24996597D02*
X73585086Y-24958502D01*
X73585086Y-24958502D02*
X73489848Y-24920406D01*
X73489848Y-24920406D02*
X73346991Y-24920406D01*
X73346991Y-24920406D02*
X73251753Y-24958502D01*
X73251753Y-24958502D02*
X73204134Y-24996597D01*
X73204134Y-24996597D02*
X73156515Y-25072787D01*
X73156515Y-25072787D02*
X73156515Y-25301359D01*
X73156515Y-25301359D02*
X73204134Y-25377549D01*
X73204134Y-25377549D02*
X73251753Y-25415645D01*
X73251753Y-25415645D02*
X73346991Y-25453740D01*
X73346991Y-25453740D02*
X73489848Y-25453740D01*
X73585086Y-24729930D02*
X73394610Y-24615645D01*
X73394610Y-24615645D02*
X73204134Y-24729930D01*
X72585086Y-25453740D02*
X72680324Y-25415645D01*
X72680324Y-25415645D02*
X72727943Y-25339454D01*
X72727943Y-25339454D02*
X72727943Y-24653740D01*
X71823181Y-25415645D02*
X71918419Y-25453740D01*
X71918419Y-25453740D02*
X72108895Y-25453740D01*
X72108895Y-25453740D02*
X72204133Y-25415645D01*
X72204133Y-25415645D02*
X72251752Y-25339454D01*
X72251752Y-25339454D02*
X72251752Y-25034692D01*
X72251752Y-25034692D02*
X72204133Y-24958502D01*
X72204133Y-24958502D02*
X72108895Y-24920406D01*
X72108895Y-24920406D02*
X71918419Y-24920406D01*
X71918419Y-24920406D02*
X71823181Y-24958502D01*
X71823181Y-24958502D02*
X71775562Y-25034692D01*
X71775562Y-25034692D02*
X71775562Y-25110883D01*
X71775562Y-25110883D02*
X72251752Y-25187073D01*
X70585085Y-24920406D02*
X70585085Y-25720406D01*
X70585085Y-24958502D02*
X70489847Y-24920406D01*
X70489847Y-24920406D02*
X70299371Y-24920406D01*
X70299371Y-24920406D02*
X70204133Y-24958502D01*
X70204133Y-24958502D02*
X70156514Y-24996597D01*
X70156514Y-24996597D02*
X70108895Y-25072787D01*
X70108895Y-25072787D02*
X70108895Y-25301359D01*
X70108895Y-25301359D02*
X70156514Y-25377549D01*
X70156514Y-25377549D02*
X70204133Y-25415645D01*
X70204133Y-25415645D02*
X70299371Y-25453740D01*
X70299371Y-25453740D02*
X70489847Y-25453740D01*
X70489847Y-25453740D02*
X70585085Y-25415645D01*
X69537466Y-25453740D02*
X69632704Y-25415645D01*
X69632704Y-25415645D02*
X69680323Y-25377549D01*
X69680323Y-25377549D02*
X69727942Y-25301359D01*
X69727942Y-25301359D02*
X69727942Y-25072787D01*
X69727942Y-25072787D02*
X69680323Y-24996597D01*
X69680323Y-24996597D02*
X69632704Y-24958502D01*
X69632704Y-24958502D02*
X69537466Y-24920406D01*
X69537466Y-24920406D02*
X69394609Y-24920406D01*
X69394609Y-24920406D02*
X69299371Y-24958502D01*
X69299371Y-24958502D02*
X69251752Y-24996597D01*
X69251752Y-24996597D02*
X69204133Y-25072787D01*
X69204133Y-25072787D02*
X69204133Y-25301359D01*
X69204133Y-25301359D02*
X69251752Y-25377549D01*
X69251752Y-25377549D02*
X69299371Y-25415645D01*
X69299371Y-25415645D02*
X69394609Y-25453740D01*
X69394609Y-25453740D02*
X69537466Y-25453740D01*
X68346990Y-24920406D02*
X68346990Y-25453740D01*
X68775561Y-24920406D02*
X68775561Y-25339454D01*
X68775561Y-25339454D02*
X68727942Y-25415645D01*
X68727942Y-25415645D02*
X68632704Y-25453740D01*
X68632704Y-25453740D02*
X68489847Y-25453740D01*
X68489847Y-25453740D02*
X68394609Y-25415645D01*
X68394609Y-25415645D02*
X68346990Y-25377549D01*
X67870799Y-25453740D02*
X67870799Y-24920406D01*
X67870799Y-25072787D02*
X67823180Y-24996597D01*
X67823180Y-24996597D02*
X67775561Y-24958502D01*
X67775561Y-24958502D02*
X67680323Y-24920406D01*
X67680323Y-24920406D02*
X67585085Y-24920406D01*
X92251755Y-26208361D02*
X92251755Y-26741695D01*
X92680326Y-26208361D02*
X92680326Y-26627409D01*
X92680326Y-26627409D02*
X92632707Y-26703600D01*
X92632707Y-26703600D02*
X92537469Y-26741695D01*
X92537469Y-26741695D02*
X92394612Y-26741695D01*
X92394612Y-26741695D02*
X92299374Y-26703600D01*
X92299374Y-26703600D02*
X92251755Y-26665504D01*
X91775564Y-26208361D02*
X91775564Y-26741695D01*
X91775564Y-26284552D02*
X91727945Y-26246457D01*
X91727945Y-26246457D02*
X91632707Y-26208361D01*
X91632707Y-26208361D02*
X91489850Y-26208361D01*
X91489850Y-26208361D02*
X91394612Y-26246457D01*
X91394612Y-26246457D02*
X91346993Y-26322647D01*
X91346993Y-26322647D02*
X91346993Y-26741695D01*
X89727945Y-26703600D02*
X89823183Y-26741695D01*
X89823183Y-26741695D02*
X90013659Y-26741695D01*
X90013659Y-26741695D02*
X90108897Y-26703600D01*
X90108897Y-26703600D02*
X90156516Y-26627409D01*
X90156516Y-26627409D02*
X90156516Y-26322647D01*
X90156516Y-26322647D02*
X90108897Y-26246457D01*
X90108897Y-26246457D02*
X90013659Y-26208361D01*
X90013659Y-26208361D02*
X89823183Y-26208361D01*
X89823183Y-26208361D02*
X89727945Y-26246457D01*
X89727945Y-26246457D02*
X89680326Y-26322647D01*
X89680326Y-26322647D02*
X89680326Y-26398838D01*
X89680326Y-26398838D02*
X90156516Y-26475028D01*
X89346992Y-26741695D02*
X88823183Y-26208361D01*
X89346992Y-26208361D02*
X88823183Y-26741695D01*
X88299373Y-26741695D02*
X88394611Y-26703600D01*
X88394611Y-26703600D02*
X88442230Y-26665504D01*
X88442230Y-26665504D02*
X88489849Y-26589314D01*
X88489849Y-26589314D02*
X88489849Y-26360742D01*
X88489849Y-26360742D02*
X88442230Y-26284552D01*
X88442230Y-26284552D02*
X88394611Y-26246457D01*
X88394611Y-26246457D02*
X88299373Y-26208361D01*
X88299373Y-26208361D02*
X88156516Y-26208361D01*
X88156516Y-26208361D02*
X88061278Y-26246457D01*
X88061278Y-26246457D02*
X88013659Y-26284552D01*
X88013659Y-26284552D02*
X87966040Y-26360742D01*
X87966040Y-26360742D02*
X87966040Y-26589314D01*
X87966040Y-26589314D02*
X88013659Y-26665504D01*
X88013659Y-26665504D02*
X88061278Y-26703600D01*
X88061278Y-26703600D02*
X88156516Y-26741695D01*
X88156516Y-26741695D02*
X88299373Y-26741695D01*
X87585087Y-26703600D02*
X87489849Y-26741695D01*
X87489849Y-26741695D02*
X87299373Y-26741695D01*
X87299373Y-26741695D02*
X87204135Y-26703600D01*
X87204135Y-26703600D02*
X87156516Y-26627409D01*
X87156516Y-26627409D02*
X87156516Y-26589314D01*
X87156516Y-26589314D02*
X87204135Y-26513123D01*
X87204135Y-26513123D02*
X87299373Y-26475028D01*
X87299373Y-26475028D02*
X87442230Y-26475028D01*
X87442230Y-26475028D02*
X87537468Y-26436933D01*
X87537468Y-26436933D02*
X87585087Y-26360742D01*
X87585087Y-26360742D02*
X87585087Y-26322647D01*
X87585087Y-26322647D02*
X87537468Y-26246457D01*
X87537468Y-26246457D02*
X87442230Y-26208361D01*
X87442230Y-26208361D02*
X87299373Y-26208361D01*
X87299373Y-26208361D02*
X87204135Y-26246457D01*
X86299373Y-26208361D02*
X86299373Y-27008361D01*
X86299373Y-26703600D02*
X86394611Y-26741695D01*
X86394611Y-26741695D02*
X86585087Y-26741695D01*
X86585087Y-26741695D02*
X86680325Y-26703600D01*
X86680325Y-26703600D02*
X86727944Y-26665504D01*
X86727944Y-26665504D02*
X86775563Y-26589314D01*
X86775563Y-26589314D02*
X86775563Y-26360742D01*
X86775563Y-26360742D02*
X86727944Y-26284552D01*
X86727944Y-26284552D02*
X86680325Y-26246457D01*
X86680325Y-26246457D02*
X86585087Y-26208361D01*
X86585087Y-26208361D02*
X86394611Y-26208361D01*
X86394611Y-26208361D02*
X86299373Y-26246457D01*
X85394611Y-26208361D02*
X85394611Y-26741695D01*
X85823182Y-26208361D02*
X85823182Y-26627409D01*
X85823182Y-26627409D02*
X85775563Y-26703600D01*
X85775563Y-26703600D02*
X85680325Y-26741695D01*
X85680325Y-26741695D02*
X85537468Y-26741695D01*
X85537468Y-26741695D02*
X85442230Y-26703600D01*
X85442230Y-26703600D02*
X85394611Y-26665504D01*
X84537468Y-26703600D02*
X84632706Y-26741695D01*
X84632706Y-26741695D02*
X84823182Y-26741695D01*
X84823182Y-26741695D02*
X84918420Y-26703600D01*
X84918420Y-26703600D02*
X84966039Y-26627409D01*
X84966039Y-26627409D02*
X84966039Y-26322647D01*
X84966039Y-26322647D02*
X84918420Y-26246457D01*
X84918420Y-26246457D02*
X84823182Y-26208361D01*
X84823182Y-26208361D02*
X84632706Y-26208361D01*
X84632706Y-26208361D02*
X84537468Y-26246457D01*
X84537468Y-26246457D02*
X84489849Y-26322647D01*
X84489849Y-26322647D02*
X84489849Y-26398838D01*
X84489849Y-26398838D02*
X84966039Y-26475028D01*
X83918420Y-26741695D02*
X84013658Y-26703600D01*
X84013658Y-26703600D02*
X84061277Y-26627409D01*
X84061277Y-26627409D02*
X84061277Y-25941695D01*
X83156515Y-26703600D02*
X83251753Y-26741695D01*
X83251753Y-26741695D02*
X83442229Y-26741695D01*
X83442229Y-26741695D02*
X83537467Y-26703600D01*
X83537467Y-26703600D02*
X83585086Y-26627409D01*
X83585086Y-26627409D02*
X83585086Y-26322647D01*
X83585086Y-26322647D02*
X83537467Y-26246457D01*
X83537467Y-26246457D02*
X83442229Y-26208361D01*
X83442229Y-26208361D02*
X83251753Y-26208361D01*
X83251753Y-26208361D02*
X83156515Y-26246457D01*
X83156515Y-26246457D02*
X83108896Y-26322647D01*
X83108896Y-26322647D02*
X83108896Y-26398838D01*
X83108896Y-26398838D02*
X83585086Y-26475028D01*
X82823181Y-26208361D02*
X82442229Y-26208361D01*
X82680324Y-25941695D02*
X82680324Y-26627409D01*
X82680324Y-26627409D02*
X82632705Y-26703600D01*
X82632705Y-26703600D02*
X82537467Y-26741695D01*
X82537467Y-26741695D02*
X82442229Y-26741695D01*
X82251752Y-26208361D02*
X81870800Y-26208361D01*
X82108895Y-25941695D02*
X82108895Y-26627409D01*
X82108895Y-26627409D02*
X82061276Y-26703600D01*
X82061276Y-26703600D02*
X81966038Y-26741695D01*
X81966038Y-26741695D02*
X81870800Y-26741695D01*
X81156514Y-26703600D02*
X81251752Y-26741695D01*
X81251752Y-26741695D02*
X81442228Y-26741695D01*
X81442228Y-26741695D02*
X81537466Y-26703600D01*
X81537466Y-26703600D02*
X81585085Y-26627409D01*
X81585085Y-26627409D02*
X81585085Y-26322647D01*
X81585085Y-26322647D02*
X81537466Y-26246457D01*
X81537466Y-26246457D02*
X81442228Y-26208361D01*
X81442228Y-26208361D02*
X81251752Y-26208361D01*
X81251752Y-26208361D02*
X81156514Y-26246457D01*
X81156514Y-26246457D02*
X81108895Y-26322647D01*
X81108895Y-26322647D02*
X81108895Y-26398838D01*
X81108895Y-26398838D02*
X81585085Y-26475028D01*
X79918418Y-26741695D02*
X79918418Y-26208361D01*
X79918418Y-26360742D02*
X79870799Y-26284552D01*
X79870799Y-26284552D02*
X79823180Y-26246457D01*
X79823180Y-26246457D02*
X79727942Y-26208361D01*
X79727942Y-26208361D02*
X79632704Y-26208361D01*
X79156513Y-26741695D02*
X79251751Y-26703600D01*
X79251751Y-26703600D02*
X79299370Y-26665504D01*
X79299370Y-26665504D02*
X79346989Y-26589314D01*
X79346989Y-26589314D02*
X79346989Y-26360742D01*
X79346989Y-26360742D02*
X79299370Y-26284552D01*
X79299370Y-26284552D02*
X79251751Y-26246457D01*
X79251751Y-26246457D02*
X79156513Y-26208361D01*
X79156513Y-26208361D02*
X79013656Y-26208361D01*
X79013656Y-26208361D02*
X78918418Y-26246457D01*
X78918418Y-26246457D02*
X78870799Y-26284552D01*
X78870799Y-26284552D02*
X78823180Y-26360742D01*
X78823180Y-26360742D02*
X78823180Y-26589314D01*
X78823180Y-26589314D02*
X78870799Y-26665504D01*
X78870799Y-26665504D02*
X78918418Y-26703600D01*
X78918418Y-26703600D02*
X79013656Y-26741695D01*
X79013656Y-26741695D02*
X79156513Y-26741695D01*
X78394608Y-26741695D02*
X78394608Y-25941695D01*
X78394608Y-26246457D02*
X78299370Y-26208361D01*
X78299370Y-26208361D02*
X78108894Y-26208361D01*
X78108894Y-26208361D02*
X78013656Y-26246457D01*
X78013656Y-26246457D02*
X77966037Y-26284552D01*
X77966037Y-26284552D02*
X77918418Y-26360742D01*
X77918418Y-26360742D02*
X77918418Y-26589314D01*
X77918418Y-26589314D02*
X77966037Y-26665504D01*
X77966037Y-26665504D02*
X78013656Y-26703600D01*
X78013656Y-26703600D02*
X78108894Y-26741695D01*
X78108894Y-26741695D02*
X78299370Y-26741695D01*
X78299370Y-26741695D02*
X78394608Y-26703600D01*
X77346989Y-26741695D02*
X77442227Y-26703600D01*
X77442227Y-26703600D02*
X77489846Y-26665504D01*
X77489846Y-26665504D02*
X77537465Y-26589314D01*
X77537465Y-26589314D02*
X77537465Y-26360742D01*
X77537465Y-26360742D02*
X77489846Y-26284552D01*
X77489846Y-26284552D02*
X77442227Y-26246457D01*
X77442227Y-26246457D02*
X77346989Y-26208361D01*
X77346989Y-26208361D02*
X77204132Y-26208361D01*
X77204132Y-26208361D02*
X77108894Y-26246457D01*
X77108894Y-26246457D02*
X77061275Y-26284552D01*
X77061275Y-26284552D02*
X77013656Y-26360742D01*
X77013656Y-26360742D02*
X77013656Y-26589314D01*
X77013656Y-26589314D02*
X77061275Y-26665504D01*
X77061275Y-26665504D02*
X77108894Y-26703600D01*
X77108894Y-26703600D02*
X77204132Y-26741695D01*
X77204132Y-26741695D02*
X77346989Y-26741695D01*
X76727941Y-26208361D02*
X76346989Y-26208361D01*
X76585084Y-25941695D02*
X76585084Y-26627409D01*
X76585084Y-26627409D02*
X76537465Y-26703600D01*
X76537465Y-26703600D02*
X76442227Y-26741695D01*
X76442227Y-26741695D02*
X76346989Y-26741695D01*
X76013655Y-26741695D02*
X76013655Y-26208361D01*
X76013655Y-25941695D02*
X76061274Y-25979790D01*
X76061274Y-25979790D02*
X76013655Y-26017885D01*
X76013655Y-26017885D02*
X75966036Y-25979790D01*
X75966036Y-25979790D02*
X76013655Y-25941695D01*
X76013655Y-25941695D02*
X76013655Y-26017885D01*
X75585084Y-26703600D02*
X75489846Y-26741695D01*
X75489846Y-26741695D02*
X75299370Y-26741695D01*
X75299370Y-26741695D02*
X75204132Y-26703600D01*
X75204132Y-26703600D02*
X75156513Y-26627409D01*
X75156513Y-26627409D02*
X75156513Y-26589314D01*
X75156513Y-26589314D02*
X75204132Y-26513123D01*
X75204132Y-26513123D02*
X75299370Y-26475028D01*
X75299370Y-26475028D02*
X75442227Y-26475028D01*
X75442227Y-26475028D02*
X75537465Y-26436933D01*
X75537465Y-26436933D02*
X75585084Y-26360742D01*
X75585084Y-26360742D02*
X75585084Y-26322647D01*
X75585084Y-26322647D02*
X75537465Y-26246457D01*
X75537465Y-26246457D02*
X75442227Y-26208361D01*
X75442227Y-26208361D02*
X75299370Y-26208361D01*
X75299370Y-26208361D02*
X75204132Y-26246457D01*
X74346989Y-26703600D02*
X74442227Y-26741695D01*
X74442227Y-26741695D02*
X74632703Y-26741695D01*
X74632703Y-26741695D02*
X74727941Y-26703600D01*
X74727941Y-26703600D02*
X74775560Y-26627409D01*
X74775560Y-26627409D02*
X74775560Y-26322647D01*
X74775560Y-26322647D02*
X74727941Y-26246457D01*
X74727941Y-26246457D02*
X74632703Y-26208361D01*
X74632703Y-26208361D02*
X74442227Y-26208361D01*
X74442227Y-26208361D02*
X74346989Y-26246457D01*
X74346989Y-26246457D02*
X74299370Y-26322647D01*
X74299370Y-26322647D02*
X74299370Y-26398838D01*
X74299370Y-26398838D02*
X74775560Y-26475028D01*
X74442227Y-25903600D02*
X74585084Y-26017885D01*
D11*
%TO.C,U502*%
X83100000Y-59709000D03*
X83100000Y-60359000D03*
X83100000Y-61009000D03*
X83100000Y-61659000D03*
X83100000Y-62309000D03*
X83100000Y-62959000D03*
X83100000Y-63609000D03*
X83100000Y-64259000D03*
X83100000Y-64909000D03*
X83100000Y-65559000D03*
X83100000Y-66209000D03*
X83100000Y-66859000D03*
X83100000Y-67509000D03*
X83100000Y-68159000D03*
X77375000Y-68159000D03*
X77375000Y-67509000D03*
X77375000Y-66859000D03*
X77375000Y-66209000D03*
X77375000Y-65559000D03*
X77375000Y-64909000D03*
X77375000Y-64259000D03*
X77375000Y-63609000D03*
X77375000Y-62959000D03*
X77375000Y-62309000D03*
X77375000Y-61659000D03*
X77375000Y-61009000D03*
X77375000Y-60359000D03*
X77375000Y-59709000D03*
%TD*%
D12*
%TO.C,C218*%
X74300000Y-45250000D03*
X74300000Y-47150000D03*
%TD*%
D13*
%TO.C,R502*%
X85820000Y-53086500D03*
X85820000Y-54911500D03*
%TD*%
D14*
%TO.C,R413*%
X86600000Y-77112500D03*
X86600000Y-75287500D03*
%TD*%
%TO.C,R501*%
X83910000Y-37421500D03*
X83910000Y-35596500D03*
%TD*%
D13*
%TO.C,R409*%
X83000000Y-75887500D03*
X83000000Y-77712500D03*
%TD*%
D15*
%TO.C,C221*%
X74300000Y-43650000D03*
X74300000Y-41750000D03*
%TD*%
D16*
%TO.C,U501*%
X83865000Y-38949000D03*
X83865000Y-39449000D03*
X83865000Y-39949000D03*
X83865000Y-40449000D03*
X83865000Y-40949000D03*
X83865000Y-41449000D03*
X83865000Y-41949000D03*
X83865000Y-42449000D03*
X83865000Y-42949000D03*
X83865000Y-43449000D03*
X83865000Y-43949000D03*
X83865000Y-44449000D03*
X83865000Y-44949000D03*
X83865000Y-45449000D03*
X83865000Y-45949000D03*
X83865000Y-46449000D03*
X83865000Y-46949000D03*
X83865000Y-47449000D03*
X83865000Y-47949000D03*
X83865000Y-48449000D03*
X83865000Y-48949000D03*
X83865000Y-49449000D03*
X83865000Y-49949000D03*
X83865000Y-50449000D03*
X83865000Y-50949000D03*
X83865000Y-51449000D03*
X83865000Y-51949000D03*
X83865000Y-52449000D03*
X76440000Y-52449000D03*
X76440000Y-51949000D03*
X76440000Y-51449000D03*
X76440000Y-50949000D03*
X76440000Y-50449000D03*
X76440000Y-49949000D03*
X76440000Y-49449000D03*
X76440000Y-48949000D03*
X76440000Y-48449000D03*
X76440000Y-47949000D03*
X76440000Y-47449000D03*
X76440000Y-46949000D03*
X76440000Y-46449000D03*
X76440000Y-45949000D03*
X76440000Y-45449000D03*
X76440000Y-44949000D03*
X76440000Y-44449000D03*
X76440000Y-43949000D03*
X76440000Y-43449000D03*
X76440000Y-42949000D03*
X76440000Y-42449000D03*
X76440000Y-41949000D03*
X76440000Y-41449000D03*
X76440000Y-40949000D03*
X76440000Y-40449000D03*
X76440000Y-39949000D03*
X76440000Y-39449000D03*
X76440000Y-38949000D03*
%TD*%
D14*
%TO.C,R410*%
X81000000Y-77712500D03*
X81000000Y-75887500D03*
%TD*%
D17*
%TO.C,C219*%
X88775000Y-81300000D03*
X85825000Y-81300000D03*
%TD*%
D18*
%TO.C,C211*%
X86025000Y-87100000D03*
X88975000Y-87100000D03*
%TD*%
D19*
%TO.C,R506*%
X78102500Y-53909000D03*
X76277500Y-53909000D03*
%TD*%
D20*
%TO.C,C222*%
X79200000Y-90125000D03*
X79200000Y-93075000D03*
%TD*%
D14*
%TO.C,R507*%
X81910000Y-37421500D03*
X81910000Y-35596500D03*
%TD*%
%TO.C,R408*%
X77200000Y-77712500D03*
X77200000Y-75887500D03*
%TD*%
D21*
%TO.C,C213*%
X84800000Y-93075000D03*
X84800000Y-90125000D03*
%TD*%
D13*
%TO.C,R504*%
X87790000Y-53076500D03*
X87790000Y-54901500D03*
%TD*%
D22*
%TO.C,C215*%
X82150000Y-54000000D03*
X84050000Y-54000000D03*
%TD*%
D14*
%TO.C,R503*%
X85890000Y-37421500D03*
X85890000Y-35596500D03*
%TD*%
D11*
%TO.C,U402*%
X82975000Y-79125000D03*
X82975000Y-79775000D03*
X82975000Y-80425000D03*
X82975000Y-81075000D03*
X82975000Y-81725000D03*
X82975000Y-82375000D03*
X82975000Y-83025000D03*
X82975000Y-83675000D03*
X82975000Y-84325000D03*
X82975000Y-84975000D03*
X82975000Y-85625000D03*
X82975000Y-86275000D03*
X77250000Y-86275000D03*
X77250000Y-85625000D03*
X77250000Y-84975000D03*
X77250000Y-84325000D03*
X77250000Y-83675000D03*
X77250000Y-83025000D03*
X77250000Y-82375000D03*
X77250000Y-81725000D03*
X77250000Y-81075000D03*
X77250000Y-80425000D03*
X77250000Y-79775000D03*
X77250000Y-79125000D03*
%TD*%
D23*
%TO.C,D408*%
X81012500Y-93162500D03*
X81012500Y-92512500D03*
X81012500Y-91862500D03*
X82912500Y-91862500D03*
X82912500Y-92512500D03*
X82912500Y-93162500D03*
%TD*%
D13*
%TO.C,R505*%
X90100000Y-60606500D03*
X90100000Y-62431500D03*
%TD*%
D24*
%TO.C,D406*%
X85900000Y-83300000D03*
X86550000Y-83300000D03*
X87200000Y-83300000D03*
X87200000Y-85200000D03*
X86550000Y-85200000D03*
X85900000Y-85200000D03*
%TD*%
D14*
%TO.C,R412*%
X75200000Y-77712500D03*
X75200000Y-75887500D03*
%TD*%
M02*
