M48
METRIC,TZ
T1C0.300
T2C0.600
T3C1.000
T4C3.200
%
G90
G05
T1
X79010Y-126560
X79230Y-55100
X79230Y-57640
X79230Y-60180
X79230Y-62720
X79230Y-65260
X79230Y-67800
X79230Y-70340
X79230Y-72880
X79230Y-75420
X79230Y-77960
X79230Y-80500
X79230Y-83040
X79230Y-85580
X79230Y-88120
X79230Y-90660
X79230Y-93200
X79230Y-95740
X79230Y-98280
X79230Y-100820
X79230Y-103360
X79230Y-105900
X79230Y-108440
X79230Y-110980
X79230Y-113520
X79230Y-116060
X81279Y-131180
X81770Y-50020
X81770Y-52560
X81770Y-55100
X81770Y-57640
X81770Y-60180
X81770Y-62720
X81770Y-65260
X81770Y-67800
X81770Y-70340
X81770Y-72880
X81770Y-75420
X81770Y-77960
X81770Y-80500
X81770Y-83040
X81770Y-85580
X81770Y-88120
X81770Y-90660
X81770Y-93200
X81770Y-110980
X81770Y-113520
X81770Y-116060
X82570Y-125260
X82820Y-131780
X83393Y-100172
X84011Y-74018
X84310Y-44940
X84310Y-57640
X84310Y-60180
X84310Y-116060
X84345Y-131180
X84371Y-118840
X84735Y-64280
X85277Y-111018
X85311Y-97168
X85341Y-122419
X85534Y-102212
X86850Y-44940
X86850Y-47480
X86850Y-50020
X86850Y-57640
X86850Y-62720
X87069Y-84353
X87532Y-102807
X87800Y-69258
X88255Y-122090
X88346Y-84552
X88410Y-131270
X88603Y-93918
X88806Y-77753
X89105Y-122090
X89257Y-103562
X89310Y-102468
X89390Y-42400
X89390Y-44940
X89390Y-47480
X89390Y-52560
X89390Y-83040
X89504Y-123077
X89770Y-66520
X89909Y-99452
X91056Y-81827
X91174Y-76079
X91368Y-114953
X91454Y-118326
X91801Y-78976
X91813Y-103397
X91907Y-72701
X91930Y-42400
X91930Y-47480
X91930Y-70340
X91930Y-85580
X91930Y-90660
X91930Y-95740
X91930Y-98280
X91930Y-133840
X92040Y-135660
X92522Y-103813
X92545Y-113519
X92580Y-123170
X93303Y-108416
X93809Y-121760
X93839Y-82938
X93852Y-118472
X93990Y-127810
X94470Y-42400
X94470Y-52560
X94515Y-120115
X94609Y-123046
X94787Y-85753
X94905Y-112912
X94905Y-113712
X95233Y-119136
X95733Y-122773
X96370Y-120570
X96410Y-119140
X96547Y-114640
X96562Y-122969
X97010Y-39860
X97010Y-42400
X97010Y-75420
X97560Y-125610
X97978Y-122103
X98180Y-113513
X98839Y-113967
X98984Y-114754
X99074Y-121501
X99270Y-133113
X99550Y-42400
X99550Y-47480
X99550Y-52560
X99550Y-57640
X99550Y-70340
X99550Y-126220
X100065Y-111938
X100120Y-113140
X100520Y-122672
X100902Y-126680
X100987Y-121834
X101270Y-110490
X101425Y-122830
X101490Y-118970
X102090Y-42400
X102090Y-70340
X102090Y-72880
X102728Y-121525
X102913Y-123017
X102939Y-126031
X103030Y-127380
X103071Y-109271
X103491Y-81657
X103541Y-75975
X103581Y-69667
X104361Y-115232
X104385Y-122185
X104616Y-102968
X104630Y-42400
X104630Y-44940
X104630Y-52560
X104630Y-85580
X104933Y-111644
X105550Y-123010
X105683Y-115104
X105890Y-117990
X106099Y-133327
X106118Y-100172
X106500Y-126215
X106500Y-126965
X107170Y-44940
X107170Y-50020
X107170Y-52560
X107170Y-55100
X107170Y-57640
X107380Y-84580
X107980Y-79550
X109067Y-84366
X109110Y-123940
X109154Y-91877
X109307Y-99447
X109660Y-120590
X109685Y-127685
X109710Y-44940
X109907Y-131578
X110215Y-127155
X111520Y-132350
X112250Y-50020
X112250Y-52560
X112250Y-55100
X112250Y-57640
X112250Y-60180
X112250Y-62720
X112250Y-65260
X112250Y-67800
X112250Y-70340
X112250Y-90660
X112250Y-93200
X112250Y-95740
X112250Y-113520
X112250Y-116060
X112928Y-131613
X114790Y-55100
X114790Y-57640
X114790Y-60180
X114790Y-62720
X114790Y-65260
X114790Y-67800
X114790Y-70340
X114790Y-72880
X114790Y-75420
X114790Y-77960
X114790Y-80500
X114790Y-83040
X114790Y-85580
X114790Y-88120
X114790Y-90660
X114790Y-93200
X114790Y-95740
X114790Y-98280
X114790Y-100820
X114790Y-103360
X114790Y-105900
X114790Y-108440
X114790Y-110980
X114790Y-113520
X114790Y-116060
T3
X84020Y-48310
X84020Y-50850
X84020Y-53390
X84020Y-55930
X90795Y-50245
X90795Y-55605
X91100Y-60250
X91100Y-62790
X91100Y-65330
X91100Y-67870
X92045Y-44630
X93335Y-50245
X93335Y-55605
X94585Y-44630
X94720Y-60250
X94720Y-62790
X94720Y-65330
X94720Y-67870
X95875Y-50245
X95875Y-55605
X97125Y-44630
X98415Y-50245
X98415Y-55605
X99370Y-60250
X99370Y-62790
X99370Y-65330
X99370Y-67870
X99665Y-44630
X100955Y-50245
X100955Y-55605
X102205Y-44630
X102970Y-60240
X102970Y-62780
X102970Y-65320
X102970Y-67860
X103495Y-50245
X103495Y-55605
X110220Y-48360
X110220Y-50900
X110220Y-53440
X110220Y-55980
T4
X97110Y-79580
T2
G00X78410Y-129350
M15
G01X78410Y-130450
M16
G05
G00X78410Y-133700
M15
G01X78410Y-134500
M16
G05
G00X87050Y-129350
M15
G01X87050Y-130450
M16
G05
G00X87050Y-133700
M15
G01X87050Y-134500
M16
G05
G00X107130Y-129395
M15
G01X107130Y-130495
M16
G05
G00X107130Y-133745
M15
G01X107130Y-134545
M16
G05
G00X115770Y-129395
M15
G01X115770Y-130495
M16
G05
G00X115770Y-133745
M15
G01X115770Y-134545
M16
G05
M30
