%TF.GenerationSoftware,KiCad,Pcbnew,8.0.1-rc1*%
%TF.CreationDate,2024-09-19T09:15:59-04:00*%
%TF.ProjectId,MOBO_V2,4d4f424f-5f56-4322-9e6b-696361645f70,rev?*%
%TF.SameCoordinates,Original*%
%TF.FileFunction,Soldermask,Bot*%
%TF.FilePolarity,Negative*%
%FSLAX46Y46*%
G04 Gerber Fmt 4.6, Leading zero omitted, Abs format (unit mm)*
G04 Created by KiCad (PCBNEW 8.0.1-rc1) date 2024-09-19 09:15:59*
%MOMM*%
%LPD*%
G01*
G04 APERTURE LIST*
G04 Aperture macros list*
%AMRoundRect*
0 Rectangle with rounded corners*
0 $1 Rounding radius*
0 $2 $3 $4 $5 $6 $7 $8 $9 X,Y pos of 4 corners*
0 Add a 4 corners polygon primitive as box body*
4,1,4,$2,$3,$4,$5,$6,$7,$8,$9,$2,$3,0*
0 Add four circle primitives for the rounded corners*
1,1,$1+$1,$2,$3*
1,1,$1+$1,$4,$5*
1,1,$1+$1,$6,$7*
1,1,$1+$1,$8,$9*
0 Add four rect primitives between the rounded corners*
20,1,$1+$1,$2,$3,$4,$5,0*
20,1,$1+$1,$4,$5,$6,$7,0*
20,1,$1+$1,$6,$7,$8,$9,0*
20,1,$1+$1,$8,$9,$2,$3,0*%
G04 Aperture macros list end*
%ADD10C,0.650000*%
%ADD11O,1.000000X2.100000*%
%ADD12O,1.000000X1.800000*%
%ADD13R,1.700000X1.700000*%
%ADD14O,1.700000X1.700000*%
%ADD15C,1.150000*%
%ADD16C,1.650000*%
%ADD17C,5.600000*%
%ADD18RoundRect,0.250000X0.250000X0.475000X-0.250000X0.475000X-0.250000X-0.475000X0.250000X-0.475000X0*%
%ADD19RoundRect,0.250000X-0.475000X0.250000X-0.475000X-0.250000X0.475000X-0.250000X0.475000X0.250000X0*%
%ADD20R,2.510000X1.000000*%
%ADD21RoundRect,0.237500X-0.237500X0.250000X-0.237500X-0.250000X0.237500X-0.250000X0.237500X0.250000X0*%
%ADD22RoundRect,0.250000X0.475000X-0.337500X0.475000X0.337500X-0.475000X0.337500X-0.475000X-0.337500X0*%
%ADD23RoundRect,0.085000X0.265000X0.085000X-0.265000X0.085000X-0.265000X-0.085000X0.265000X-0.085000X0*%
%ADD24RoundRect,0.225000X-0.250000X0.225000X-0.250000X-0.225000X0.250000X-0.225000X0.250000X0.225000X0*%
%ADD25RoundRect,0.250000X-0.475000X0.337500X-0.475000X-0.337500X0.475000X-0.337500X0.475000X0.337500X0*%
%ADD26RoundRect,0.250000X-0.450000X0.350000X-0.450000X-0.350000X0.450000X-0.350000X0.450000X0.350000X0*%
%ADD27RoundRect,0.237500X0.237500X-0.300000X0.237500X0.300000X-0.237500X0.300000X-0.237500X-0.300000X0*%
%ADD28RoundRect,0.237500X-0.237500X0.300000X-0.237500X-0.300000X0.237500X-0.300000X0.237500X0.300000X0*%
%ADD29RoundRect,0.225000X0.225000X0.250000X-0.225000X0.250000X-0.225000X-0.250000X0.225000X-0.250000X0*%
%ADD30RoundRect,0.237500X-0.250000X-0.237500X0.250000X-0.237500X0.250000X0.237500X-0.250000X0.237500X0*%
%ADD31RoundRect,0.375000X0.375000X-0.625000X0.375000X0.625000X-0.375000X0.625000X-0.375000X-0.625000X0*%
%ADD32RoundRect,0.500000X1.400000X-0.500000X1.400000X0.500000X-1.400000X0.500000X-1.400000X-0.500000X0*%
%ADD33RoundRect,0.237500X0.237500X-0.250000X0.237500X0.250000X-0.237500X0.250000X-0.237500X-0.250000X0*%
G04 APERTURE END LIST*
D10*
%TO.C,J302*%
X79840000Y-130420000D03*
X85620000Y-130420000D03*
D11*
X78410000Y-129900000D03*
D12*
X78410000Y-134100000D03*
D11*
X87050000Y-129900000D03*
D12*
X87050000Y-134100000D03*
%TD*%
D13*
%TO.C,J309*%
X94720000Y-67870000D03*
D14*
X94720000Y-65330000D03*
X94720000Y-62790000D03*
X94720000Y-60250000D03*
%TD*%
D15*
%TO.C,U1*%
X107100000Y-119037500D03*
D16*
X87100000Y-119037500D03*
%TD*%
D13*
%TO.C,J307*%
X102970000Y-67860000D03*
D14*
X102970000Y-65320000D03*
X102970000Y-62780000D03*
X102970000Y-60240000D03*
%TD*%
D13*
%TO.C,CAN BUS*%
X110220000Y-55980000D03*
D14*
X110220000Y-53440000D03*
X110220000Y-50900000D03*
X110220000Y-48360000D03*
%TD*%
D17*
%TO.C,REF\u002A\u002A*%
X97110000Y-79580000D03*
%TD*%
D13*
%TO.C,SPI*%
X90795000Y-50245000D03*
D14*
X93335000Y-50245000D03*
X95875000Y-50245000D03*
X98415000Y-50245000D03*
X100955000Y-50245000D03*
X103495000Y-50245000D03*
%TD*%
D10*
%TO.C,J301*%
X108560000Y-130465000D03*
X114340000Y-130465000D03*
D11*
X107130000Y-129945000D03*
D12*
X107130000Y-134145000D03*
D11*
X115770000Y-129945000D03*
D12*
X115770000Y-134145000D03*
%TD*%
D13*
%TO.C,UART*%
X84020000Y-55930000D03*
D14*
X84020000Y-53390000D03*
X84020000Y-50850000D03*
X84020000Y-48310000D03*
%TD*%
D13*
%TO.C,SPI*%
X90795000Y-55605000D03*
D14*
X93335000Y-55605000D03*
X95875000Y-55605000D03*
X98415000Y-55605000D03*
X100955000Y-55605000D03*
X103495000Y-55605000D03*
%TD*%
D13*
%TO.C,J308*%
X99370000Y-67870000D03*
D14*
X99370000Y-65330000D03*
X99370000Y-62790000D03*
X99370000Y-60250000D03*
%TD*%
D13*
%TO.C,J310*%
X91100000Y-67870000D03*
D14*
X91100000Y-65330000D03*
X91100000Y-62790000D03*
X91100000Y-60250000D03*
%TD*%
D13*
%TO.C,I2S*%
X92045000Y-44630000D03*
D14*
X94585000Y-44630000D03*
X97125000Y-44630000D03*
X99665000Y-44630000D03*
X102205000Y-44630000D03*
%TD*%
D18*
%TO.C,C5*%
X94165000Y-128720000D03*
X92265000Y-128720000D03*
%TD*%
D19*
%TO.C,C1*%
X104510000Y-129120000D03*
X104510000Y-131020000D03*
%TD*%
D20*
%TO.C,J2*%
X110195000Y-60270000D03*
X106885000Y-62810000D03*
X110195000Y-65350000D03*
X106885000Y-67890000D03*
X110195000Y-70430000D03*
X106885000Y-72970000D03*
X110195000Y-75510000D03*
X106885000Y-78050000D03*
X110195000Y-80590000D03*
X106885000Y-83130000D03*
X110195000Y-85670000D03*
X106885000Y-88210000D03*
X110195000Y-90750000D03*
X106885000Y-93290000D03*
X110195000Y-95830000D03*
X106885000Y-98370000D03*
X110195000Y-100910000D03*
X106885000Y-103450000D03*
X110195000Y-105990000D03*
X106885000Y-108530000D03*
X110195000Y-111070000D03*
X106885000Y-113610000D03*
X110195000Y-116150000D03*
%TD*%
D21*
%TO.C,R2*%
X93740000Y-130455000D03*
X93740000Y-132280000D03*
%TD*%
%TO.C,R1*%
X101270000Y-129157500D03*
X101270000Y-130982500D03*
%TD*%
D22*
%TO.C,C7*%
X87210000Y-126987500D03*
X87210000Y-124912500D03*
%TD*%
D23*
%TO.C,U2*%
X98140000Y-132247500D03*
X98140000Y-132747500D03*
X98140000Y-133247500D03*
X96640000Y-133247500D03*
X96640000Y-132747500D03*
X96640000Y-132247500D03*
%TD*%
D24*
%TO.C,C2*%
X102750000Y-129305000D03*
X102750000Y-130855000D03*
%TD*%
D25*
%TO.C,C8*%
X87210000Y-121152500D03*
X87210000Y-123227500D03*
%TD*%
D26*
%TO.C,R302*%
X108610000Y-132050000D03*
X108610000Y-134050000D03*
%TD*%
D27*
%TO.C,C3*%
X96640000Y-136392500D03*
X96640000Y-134667500D03*
%TD*%
D28*
%TO.C,C4*%
X95250000Y-130515000D03*
X95250000Y-132240000D03*
%TD*%
D26*
%TO.C,R303*%
X85570000Y-132050000D03*
X85570000Y-134050000D03*
%TD*%
D29*
%TO.C,C6*%
X93990000Y-126960000D03*
X92440000Y-126960000D03*
%TD*%
D30*
%TO.C,R3*%
X101267500Y-132500000D03*
X103092500Y-132500000D03*
%TD*%
D31*
%TO.C,U3*%
X84870000Y-126590000D03*
X82570000Y-126590000D03*
D32*
X82570000Y-120290000D03*
D31*
X80270000Y-126590000D03*
%TD*%
D26*
%TO.C,R301*%
X114270000Y-132050000D03*
X114270000Y-134050000D03*
%TD*%
%TO.C,R304*%
X79850000Y-132070000D03*
X79850000Y-134070000D03*
%TD*%
D33*
%TO.C,R4*%
X92250000Y-132270000D03*
X92250000Y-130445000D03*
%TD*%
D20*
%TO.C,J1*%
X87335000Y-60270000D03*
X84025000Y-62810000D03*
X87335000Y-65350000D03*
X84025000Y-67890000D03*
X87335000Y-70430000D03*
X84025000Y-72970000D03*
X87335000Y-75510000D03*
X84025000Y-78050000D03*
X87335000Y-80590000D03*
X84025000Y-83130000D03*
X87335000Y-85670000D03*
X84025000Y-88210000D03*
X87335000Y-90750000D03*
X84025000Y-93290000D03*
X87335000Y-95830000D03*
X84025000Y-98370000D03*
X87335000Y-100910000D03*
X84025000Y-103450000D03*
X87335000Y-105990000D03*
X84025000Y-108530000D03*
X87335000Y-111070000D03*
X84025000Y-113610000D03*
X87335000Y-116150000D03*
%TD*%
M02*
