%TF.GenerationSoftware,KiCad,Pcbnew,8.0.1-8.0.1-1~ubuntu22.04.1*%
%TF.CreationDate,2024-03-27T01:09:36-04:00*%
%TF.ProjectId,gripper_2024,67726970-7065-4725-9f32-3032342e6b69,rev?*%
%TF.SameCoordinates,Original*%
%TF.FileFunction,Copper,L3,Inr*%
%TF.FilePolarity,Positive*%
%FSLAX46Y46*%
G04 Gerber Fmt 4.6, Leading zero omitted, Abs format (unit mm)*
G04 Created by KiCad (PCBNEW 8.0.1-8.0.1-1~ubuntu22.04.1) date 2024-03-27 01:09:36*
%MOMM*%
%LPD*%
G01*
G04 APERTURE LIST*
G04 Aperture macros list*
%AMRoundRect*
0 Rectangle with rounded corners*
0 $1 Rounding radius*
0 $2 $3 $4 $5 $6 $7 $8 $9 X,Y pos of 4 corners*
0 Add a 4 corners polygon primitive as box body*
4,1,4,$2,$3,$4,$5,$6,$7,$8,$9,$2,$3,0*
0 Add four circle primitives for the rounded corners*
1,1,$1+$1,$2,$3*
1,1,$1+$1,$4,$5*
1,1,$1+$1,$6,$7*
1,1,$1+$1,$8,$9*
0 Add four rect primitives between the rounded corners*
20,1,$1+$1,$2,$3,$4,$5,0*
20,1,$1+$1,$4,$5,$6,$7,0*
20,1,$1+$1,$6,$7,$8,$9,0*
20,1,$1+$1,$8,$9,$2,$3,0*%
G04 Aperture macros list end*
%TA.AperFunction,ComponentPad*%
%ADD10C,2.000000*%
%TD*%
%TA.AperFunction,ComponentPad*%
%ADD11R,2.000000X2.000000*%
%TD*%
%TA.AperFunction,ComponentPad*%
%ADD12R,5.000000X3.000000*%
%TD*%
%TA.AperFunction,ComponentPad*%
%ADD13O,4.500000X2.750000*%
%TD*%
%TA.AperFunction,ComponentPad*%
%ADD14RoundRect,0.250000X0.725000X-0.600000X0.725000X0.600000X-0.725000X0.600000X-0.725000X-0.600000X0*%
%TD*%
%TA.AperFunction,ComponentPad*%
%ADD15O,1.950000X1.700000*%
%TD*%
%TA.AperFunction,ComponentPad*%
%ADD16C,1.268000*%
%TD*%
%TA.AperFunction,ComponentPad*%
%ADD17R,1.268000X1.268000*%
%TD*%
%TA.AperFunction,ComponentPad*%
%ADD18C,1.508000*%
%TD*%
%TA.AperFunction,ComponentPad*%
%ADD19C,2.550000*%
%TD*%
%TA.AperFunction,ComponentPad*%
%ADD20R,2.550000X2.550000*%
%TD*%
%TA.AperFunction,ComponentPad*%
%ADD21C,3.600000*%
%TD*%
%TA.AperFunction,ComponentPad*%
%ADD22R,1.600000X1.600000*%
%TD*%
%TA.AperFunction,ComponentPad*%
%ADD23C,1.600000*%
%TD*%
%TA.AperFunction,ViaPad*%
%ADD24C,0.600000*%
%TD*%
G04 APERTURE END LIST*
D10*
%TO.N,+5V*%
%TO.C,U3*%
X45200000Y-26985000D03*
%TO.N,MA_S2*%
X45200000Y-32065000D03*
%TO.N,LED_R*%
X45200000Y-34605000D03*
%TO.N,Net-(U3-D14)*%
X45200000Y-37145000D03*
%TO.N,MOSI*%
X45200000Y-39685000D03*
%TO.N,PB_POIGNET_REV*%
X45200000Y-42225000D03*
%TO.N,PB_POIGNET_FWD*%
X45200000Y-44765000D03*
%TO.N,SCK*%
X45200000Y-47305000D03*
%TO.N,MISO*%
X45200000Y-49845000D03*
%TO.N,PB_ROT_FWD*%
X45200000Y-52385000D03*
%TO.N,PB_ROT_REV*%
X45200000Y-54925000D03*
%TO.N,unconnected-(U3-VN-Pad18)*%
X45200000Y-57465000D03*
%TO.N,unconnected-(U3-VP-Pad17)*%
X45200000Y-60005000D03*
%TO.N,unconnected-(U3-EN-Pad16)*%
X45200000Y-62545000D03*
%TO.N,TXC*%
X19800000Y-62545000D03*
%TO.N,RXC*%
X19800000Y-60005000D03*
%TO.N,unconnected-(U3-TX0-Pad13)*%
X19800000Y-57465000D03*
%TO.N,unconnected-(U3-RX0-Pad12)*%
X19800000Y-54925000D03*
%TO.N,SERVO_PWM*%
X19800000Y-52385000D03*
%TO.N,MB_S2*%
X19800000Y-49845000D03*
%TO.N,MB_S1*%
X19800000Y-47305000D03*
%TO.N,LED_B*%
X19800000Y-44765000D03*
%TO.N,CS_Poignet*%
X19800000Y-42225000D03*
%TO.N,CS_Rotation*%
X19800000Y-39685000D03*
%TO.N,MA_S1*%
X19800000Y-37145000D03*
%TO.N,Net-(U3-D2)*%
X19800000Y-34605000D03*
%TO.N,LED_G*%
X19800000Y-32065000D03*
%TO.N,GND*%
X45200000Y-29525000D03*
X19800000Y-29525000D03*
D11*
%TO.N,+3.3V*%
X19800000Y-26985000D03*
%TD*%
D12*
%TO.N,Net-(U7-V_{IN})*%
%TO.C,U7*%
X23000000Y-72000000D03*
D13*
%TO.N,GND*%
X23000000Y-77000000D03*
%TO.N,+7.4V*%
X23000000Y-82000000D03*
%TD*%
D14*
%TO.N,+5V*%
%TO.C,U5*%
X64475000Y-91900000D03*
D15*
%TO.N,SCK*%
X64475000Y-89400000D03*
%TO.N,MOSI*%
X64475000Y-86900000D03*
%TO.N,GND*%
X64475000Y-84400000D03*
%TO.N,MISO*%
X64475000Y-81900000D03*
%TO.N,CS_Rotation*%
X64475000Y-79400000D03*
%TD*%
D14*
%TO.N,+5V*%
%TO.C,U4*%
X72475000Y-91900000D03*
D15*
%TO.N,SCK*%
X72475000Y-89400000D03*
%TO.N,MOSI*%
X72475000Y-86900000D03*
%TO.N,GND*%
X72475000Y-84400000D03*
%TO.N,MISO*%
X72475000Y-81900000D03*
%TO.N,CS_Poignet*%
X72475000Y-79400000D03*
%TD*%
D16*
%TO.N,+5V*%
%TO.C,J6*%
X37012500Y-97150000D03*
%TO.N,unconnected-(J6-Pad5)*%
X34472500Y-97150000D03*
%TO.N,unconnected-(J6-Pad3)*%
X31932500Y-97150000D03*
D17*
%TO.N,CANH*%
X29392500Y-97150000D03*
D16*
%TO.N,GND*%
X38282500Y-94610000D03*
%TO.N,unconnected-(J6-Pad6)*%
X35742500Y-94610000D03*
%TO.N,unconnected-(J6-Pad4)*%
X33202500Y-94610000D03*
%TO.N,CANL*%
X30662500Y-94610000D03*
%TD*%
%TO.N,CANL*%
%TO.C,J5*%
X35675000Y-31890000D03*
%TO.N,unconnected-(J5-Pad4)*%
X33135000Y-31890000D03*
%TO.N,unconnected-(J5-Pad6)*%
X30595000Y-31890000D03*
%TO.N,GND*%
X28055000Y-31890000D03*
D17*
%TO.N,CANH*%
X36945000Y-29350000D03*
D16*
%TO.N,unconnected-(J5-Pad3)*%
X34405000Y-29350000D03*
%TO.N,unconnected-(J5-Pad5)*%
X31865000Y-29350000D03*
%TO.N,+5V*%
X29325000Y-29350000D03*
%TD*%
D14*
%TO.N,GND*%
%TO.C,J4*%
X21475000Y-94500000D03*
D15*
%TO.N,SERVO_POW*%
X21475000Y-92000000D03*
%TO.N,SERVO_PWM*%
X21475000Y-89500000D03*
%TD*%
D18*
%TO.N,*%
%TO.C,J3*%
X72500000Y-102500000D03*
X61500000Y-102500000D03*
D19*
%TO.N,MB-*%
X69500000Y-97500000D03*
D20*
%TO.N,MB+*%
X64500000Y-97500000D03*
%TD*%
%TO.N,MA+*%
%TO.C,J2*%
X48000000Y-97500000D03*
D19*
%TO.N,MA-*%
X53000000Y-97500000D03*
D18*
%TO.N,*%
X45000000Y-102500000D03*
X56000000Y-102500000D03*
%TD*%
%TO.N,*%
%TO.C,J1*%
X49000000Y-18205750D03*
X60000000Y-18205750D03*
D19*
%TO.N,GND*%
X57000000Y-28205750D03*
D20*
%TO.N,+24V*%
X52000000Y-28205750D03*
%TD*%
D21*
%TO.N,GND*%
%TO.C,H3*%
X73000000Y-19500000D03*
%TD*%
%TO.N,GND*%
%TO.C,H2*%
X20500000Y-19500000D03*
%TD*%
%TO.N,GND*%
%TO.C,H1*%
X20500000Y-102500000D03*
%TD*%
D22*
%TO.N,+7.4V*%
%TO.C,C8*%
X36400000Y-83055112D03*
D23*
%TO.N,GND*%
X36400000Y-81055112D03*
%TD*%
%TO.N,GND*%
%TO.C,C6*%
X30700000Y-81055112D03*
D22*
%TO.N,+7.4V*%
X30700000Y-83055112D03*
%TD*%
D11*
%TO.N,+24V*%
%TO.C,C2*%
X61632323Y-36500000D03*
D10*
%TO.N,GND*%
X66632323Y-36500000D03*
%TD*%
D11*
%TO.N,+24V*%
%TO.C,C1*%
X55367677Y-36500000D03*
D10*
%TO.N,GND*%
X50367677Y-36500000D03*
%TD*%
D24*
%TO.N,Net-(U1-INA)*%
X38500000Y-43700000D03*
X42700000Y-81500000D03*
%TO.N,GND*%
X51400000Y-66900000D03*
X41300000Y-67100000D03*
%TO.N,+3.3V*%
X41200000Y-70300000D03*
%TO.N,+5V*%
X22000000Y-60000000D03*
%TO.N,GND*%
X27200000Y-63100000D03*
%TO.N,PB_POIGNET_REV*%
X65300000Y-49400000D03*
%TO.N,PB_POIGNET_FWD*%
X66600000Y-50000000D03*
%TO.N,CS_Poignet*%
X43200000Y-47800000D03*
%TO.N,CS_Rotation*%
X42300000Y-45900000D03*
%TO.N,PB_ROT_REV*%
X62925735Y-57574265D03*
%TO.N,PB_ROT_FWD*%
X66150000Y-59950000D03*
%TO.N,SCK*%
X74500000Y-85000000D03*
%TO.N,Net-(U2-INB)*%
X57405000Y-82400000D03*
%TO.N,Net-(U2-INA)*%
X53600000Y-81700000D03*
X40400000Y-48200000D03*
%TO.N,Net-(U2-INB)*%
X41200003Y-48200000D03*
%TO.N,Net-(U1-INB)*%
X46500000Y-79600000D03*
X42200000Y-40600000D03*
%TO.N,LED_G*%
X70500000Y-48700000D03*
%TO.N,LED_R*%
X67300000Y-42300000D03*
%TO.N,SCL*%
X39200000Y-87800000D03*
X37300000Y-89600000D03*
%TO.N,GND*%
X33900000Y-64900000D03*
%TO.N,+3.3V*%
X62700000Y-61600000D03*
X51400000Y-73300000D03*
%TO.N,GND*%
X50100000Y-83600000D03*
X50100000Y-78700000D03*
X50100000Y-77750000D03*
X50095000Y-80545000D03*
X50100000Y-81600000D03*
X50100000Y-82600000D03*
X50100000Y-79500000D03*
%TO.N,+3.3V*%
X31700000Y-89900000D03*
%TO.N,GND*%
X34000000Y-86750000D03*
X49050000Y-80545000D03*
X49055000Y-81600000D03*
X49055000Y-82600000D03*
X49055000Y-79500000D03*
X40150000Y-80495000D03*
X40155000Y-81550000D03*
X40155000Y-82550000D03*
X40155000Y-79450000D03*
X51050000Y-81600000D03*
X51045000Y-80545000D03*
X51050000Y-79500000D03*
X51050000Y-82600000D03*
X59950000Y-82550000D03*
X59950000Y-81550000D03*
X59945000Y-80495000D03*
X59950000Y-79450000D03*
%TD*%
%TA.AperFunction,Conductor*%
%TO.N,+3.3V*%
G36*
X75942539Y-16520185D02*
G01*
X75988294Y-16572989D01*
X75999500Y-16624500D01*
X75999500Y-105375500D01*
X75979815Y-105442539D01*
X75927011Y-105488294D01*
X75875500Y-105499500D01*
X40381243Y-105499500D01*
X40314204Y-105479815D01*
X40268449Y-105427011D01*
X40258505Y-105357853D01*
X40287530Y-105294297D01*
X40333790Y-105260939D01*
X40406947Y-105230636D01*
X40406947Y-105230635D01*
X40406954Y-105230633D01*
X40625541Y-105104433D01*
X40625545Y-105104431D01*
X40663342Y-105075427D01*
X40825794Y-104950773D01*
X40825798Y-104950768D01*
X40825803Y-104950765D01*
X41004265Y-104772303D01*
X41004268Y-104772298D01*
X41004273Y-104772294D01*
X41157930Y-104572046D01*
X41284133Y-104353454D01*
X41380726Y-104120260D01*
X41446054Y-103876452D01*
X41479000Y-103626204D01*
X41479000Y-103373796D01*
X41446054Y-103123548D01*
X41380726Y-102879740D01*
X41314007Y-102718668D01*
X41284136Y-102646552D01*
X41284127Y-102646535D01*
X41199527Y-102500002D01*
X43740708Y-102500002D01*
X43753528Y-102646546D01*
X43759839Y-102718674D01*
X43816653Y-102930703D01*
X43816654Y-102930706D01*
X43816655Y-102930708D01*
X43909419Y-103129642D01*
X43909423Y-103129650D01*
X44035322Y-103309452D01*
X44035327Y-103309458D01*
X44190541Y-103464672D01*
X44190547Y-103464677D01*
X44370349Y-103590576D01*
X44370351Y-103590577D01*
X44370354Y-103590579D01*
X44569297Y-103683347D01*
X44781326Y-103740161D01*
X44937521Y-103753826D01*
X44999998Y-103759292D01*
X45000000Y-103759292D01*
X45000002Y-103759292D01*
X45054668Y-103754509D01*
X45218674Y-103740161D01*
X45430703Y-103683347D01*
X45629646Y-103590579D01*
X45809457Y-103464674D01*
X45964674Y-103309457D01*
X46090579Y-103129646D01*
X46183347Y-102930703D01*
X46240161Y-102718674D01*
X46259292Y-102500002D01*
X54740708Y-102500002D01*
X54753528Y-102646546D01*
X54759839Y-102718674D01*
X54816653Y-102930703D01*
X54816654Y-102930706D01*
X54816655Y-102930708D01*
X54909419Y-103129642D01*
X54909423Y-103129650D01*
X55035322Y-103309452D01*
X55035327Y-103309458D01*
X55190541Y-103464672D01*
X55190547Y-103464677D01*
X55370349Y-103590576D01*
X55370351Y-103590577D01*
X55370354Y-103590579D01*
X55569297Y-103683347D01*
X55781326Y-103740161D01*
X55937521Y-103753826D01*
X55999998Y-103759292D01*
X56000000Y-103759292D01*
X56000002Y-103759292D01*
X56054668Y-103754509D01*
X56218674Y-103740161D01*
X56430703Y-103683347D01*
X56629646Y-103590579D01*
X56809457Y-103464674D01*
X56964674Y-103309457D01*
X57090579Y-103129646D01*
X57183347Y-102930703D01*
X57240161Y-102718674D01*
X57259292Y-102500002D01*
X60240708Y-102500002D01*
X60253528Y-102646546D01*
X60259839Y-102718674D01*
X60316653Y-102930703D01*
X60316654Y-102930706D01*
X60316655Y-102930708D01*
X60409419Y-103129642D01*
X60409423Y-103129650D01*
X60535322Y-103309452D01*
X60535327Y-103309458D01*
X60690541Y-103464672D01*
X60690547Y-103464677D01*
X60870349Y-103590576D01*
X60870351Y-103590577D01*
X60870354Y-103590579D01*
X61069297Y-103683347D01*
X61281326Y-103740161D01*
X61437521Y-103753826D01*
X61499998Y-103759292D01*
X61500000Y-103759292D01*
X61500002Y-103759292D01*
X61554668Y-103754509D01*
X61718674Y-103740161D01*
X61930703Y-103683347D01*
X62129646Y-103590579D01*
X62309457Y-103464674D01*
X62464674Y-103309457D01*
X62590579Y-103129646D01*
X62683347Y-102930703D01*
X62740161Y-102718674D01*
X62759292Y-102500002D01*
X71240708Y-102500002D01*
X71253528Y-102646546D01*
X71259839Y-102718674D01*
X71316653Y-102930703D01*
X71316654Y-102930706D01*
X71316655Y-102930708D01*
X71409419Y-103129642D01*
X71409423Y-103129650D01*
X71535322Y-103309452D01*
X71535327Y-103309458D01*
X71690541Y-103464672D01*
X71690547Y-103464677D01*
X71870349Y-103590576D01*
X71870351Y-103590577D01*
X71870354Y-103590579D01*
X72069297Y-103683347D01*
X72281326Y-103740161D01*
X72437521Y-103753826D01*
X72499998Y-103759292D01*
X72500000Y-103759292D01*
X72500002Y-103759292D01*
X72554668Y-103754509D01*
X72718674Y-103740161D01*
X72930703Y-103683347D01*
X73129646Y-103590579D01*
X73309457Y-103464674D01*
X73464674Y-103309457D01*
X73590579Y-103129646D01*
X73683347Y-102930703D01*
X73740161Y-102718674D01*
X73759292Y-102500000D01*
X73740161Y-102281326D01*
X73683347Y-102069297D01*
X73590579Y-101870354D01*
X73590577Y-101870351D01*
X73590576Y-101870349D01*
X73464677Y-101690547D01*
X73464672Y-101690541D01*
X73309458Y-101535327D01*
X73309452Y-101535322D01*
X73129650Y-101409423D01*
X73129642Y-101409419D01*
X72930708Y-101316655D01*
X72930706Y-101316654D01*
X72930703Y-101316653D01*
X72779885Y-101276240D01*
X72718675Y-101259839D01*
X72718668Y-101259838D01*
X72500002Y-101240708D01*
X72499998Y-101240708D01*
X72281331Y-101259838D01*
X72281324Y-101259839D01*
X72158902Y-101292642D01*
X72069297Y-101316653D01*
X72069295Y-101316653D01*
X72069291Y-101316655D01*
X71870357Y-101409419D01*
X71870349Y-101409423D01*
X71690547Y-101535322D01*
X71690541Y-101535327D01*
X71535327Y-101690541D01*
X71535322Y-101690547D01*
X71409423Y-101870349D01*
X71409419Y-101870357D01*
X71316655Y-102069291D01*
X71259839Y-102281324D01*
X71259838Y-102281331D01*
X71240708Y-102499997D01*
X71240708Y-102500002D01*
X62759292Y-102500002D01*
X62759292Y-102500000D01*
X62740161Y-102281326D01*
X62683347Y-102069297D01*
X62590579Y-101870354D01*
X62590577Y-101870351D01*
X62590576Y-101870349D01*
X62464677Y-101690547D01*
X62464672Y-101690541D01*
X62309458Y-101535327D01*
X62309452Y-101535322D01*
X62129650Y-101409423D01*
X62129642Y-101409419D01*
X61930708Y-101316655D01*
X61930706Y-101316654D01*
X61930703Y-101316653D01*
X61779885Y-101276240D01*
X61718675Y-101259839D01*
X61718668Y-101259838D01*
X61500002Y-101240708D01*
X61499998Y-101240708D01*
X61281331Y-101259838D01*
X61281324Y-101259839D01*
X61158902Y-101292642D01*
X61069297Y-101316653D01*
X61069295Y-101316653D01*
X61069291Y-101316655D01*
X60870357Y-101409419D01*
X60870349Y-101409423D01*
X60690547Y-101535322D01*
X60690541Y-101535327D01*
X60535327Y-101690541D01*
X60535322Y-101690547D01*
X60409423Y-101870349D01*
X60409419Y-101870357D01*
X60316655Y-102069291D01*
X60259839Y-102281324D01*
X60259838Y-102281331D01*
X60240708Y-102499997D01*
X60240708Y-102500002D01*
X57259292Y-102500002D01*
X57259292Y-102500000D01*
X57240161Y-102281326D01*
X57183347Y-102069297D01*
X57090579Y-101870354D01*
X57090577Y-101870351D01*
X57090576Y-101870349D01*
X56964677Y-101690547D01*
X56964672Y-101690541D01*
X56809458Y-101535327D01*
X56809452Y-101535322D01*
X56629650Y-101409423D01*
X56629642Y-101409419D01*
X56430708Y-101316655D01*
X56430706Y-101316654D01*
X56430703Y-101316653D01*
X56279885Y-101276240D01*
X56218675Y-101259839D01*
X56218668Y-101259838D01*
X56000002Y-101240708D01*
X55999998Y-101240708D01*
X55781331Y-101259838D01*
X55781324Y-101259839D01*
X55658902Y-101292642D01*
X55569297Y-101316653D01*
X55569295Y-101316653D01*
X55569291Y-101316655D01*
X55370357Y-101409419D01*
X55370349Y-101409423D01*
X55190547Y-101535322D01*
X55190541Y-101535327D01*
X55035327Y-101690541D01*
X55035322Y-101690547D01*
X54909423Y-101870349D01*
X54909419Y-101870357D01*
X54816655Y-102069291D01*
X54759839Y-102281324D01*
X54759838Y-102281331D01*
X54740708Y-102499997D01*
X54740708Y-102500002D01*
X46259292Y-102500002D01*
X46259292Y-102500000D01*
X46240161Y-102281326D01*
X46183347Y-102069297D01*
X46090579Y-101870354D01*
X46090577Y-101870351D01*
X46090576Y-101870349D01*
X45964677Y-101690547D01*
X45964672Y-101690541D01*
X45809458Y-101535327D01*
X45809452Y-101535322D01*
X45629650Y-101409423D01*
X45629642Y-101409419D01*
X45430708Y-101316655D01*
X45430706Y-101316654D01*
X45430703Y-101316653D01*
X45279885Y-101276240D01*
X45218675Y-101259839D01*
X45218668Y-101259838D01*
X45000002Y-101240708D01*
X44999998Y-101240708D01*
X44781331Y-101259838D01*
X44781324Y-101259839D01*
X44658902Y-101292642D01*
X44569297Y-101316653D01*
X44569295Y-101316653D01*
X44569291Y-101316655D01*
X44370357Y-101409419D01*
X44370349Y-101409423D01*
X44190547Y-101535322D01*
X44190541Y-101535327D01*
X44035327Y-101690541D01*
X44035322Y-101690547D01*
X43909423Y-101870349D01*
X43909419Y-101870357D01*
X43816655Y-102069291D01*
X43759839Y-102281324D01*
X43759838Y-102281331D01*
X43740708Y-102499997D01*
X43740708Y-102500002D01*
X41199527Y-102500002D01*
X41157933Y-102427958D01*
X41157931Y-102427954D01*
X41004272Y-102227705D01*
X41004265Y-102227697D01*
X40825803Y-102049235D01*
X40825794Y-102049227D01*
X40625545Y-101895568D01*
X40625541Y-101895566D01*
X40406964Y-101769372D01*
X40406947Y-101769363D01*
X40173758Y-101672773D01*
X40019190Y-101631357D01*
X39929952Y-101607446D01*
X39898671Y-101603327D01*
X39679711Y-101574500D01*
X39679704Y-101574500D01*
X39427296Y-101574500D01*
X39427288Y-101574500D01*
X39177048Y-101607446D01*
X38933241Y-101672773D01*
X38700052Y-101769363D01*
X38700035Y-101769372D01*
X38481458Y-101895566D01*
X38481454Y-101895568D01*
X38281205Y-102049227D01*
X38102727Y-102227705D01*
X37949068Y-102427954D01*
X37949066Y-102427958D01*
X37822872Y-102646535D01*
X37822863Y-102646552D01*
X37726273Y-102879741D01*
X37660946Y-103123548D01*
X37628000Y-103373788D01*
X37628000Y-103626211D01*
X37645521Y-103759292D01*
X37660946Y-103876452D01*
X37668183Y-103903461D01*
X37726273Y-104120258D01*
X37822863Y-104353447D01*
X37822872Y-104353464D01*
X37949066Y-104572041D01*
X37949068Y-104572045D01*
X38102727Y-104772294D01*
X38102735Y-104772303D01*
X38281197Y-104950765D01*
X38281205Y-104950772D01*
X38481454Y-105104431D01*
X38481458Y-105104433D01*
X38700035Y-105230627D01*
X38700052Y-105230636D01*
X38773210Y-105260939D01*
X38827613Y-105304780D01*
X38849678Y-105371074D01*
X38832399Y-105438774D01*
X38781261Y-105486384D01*
X38725757Y-105499500D01*
X28949243Y-105499500D01*
X28882204Y-105479815D01*
X28836449Y-105427011D01*
X28826505Y-105357853D01*
X28855530Y-105294297D01*
X28901790Y-105260939D01*
X28974947Y-105230636D01*
X28974947Y-105230635D01*
X28974954Y-105230633D01*
X29193541Y-105104433D01*
X29193545Y-105104431D01*
X29231342Y-105075427D01*
X29393794Y-104950773D01*
X29393798Y-104950768D01*
X29393803Y-104950765D01*
X29572265Y-104772303D01*
X29572268Y-104772298D01*
X29572273Y-104772294D01*
X29725930Y-104572046D01*
X29852133Y-104353454D01*
X29948726Y-104120260D01*
X30014054Y-103876452D01*
X30047000Y-103626204D01*
X30047000Y-103373796D01*
X30014054Y-103123548D01*
X29948726Y-102879740D01*
X29882007Y-102718668D01*
X29852136Y-102646552D01*
X29852127Y-102646535D01*
X29725933Y-102427958D01*
X29725931Y-102427954D01*
X29572272Y-102227705D01*
X29572265Y-102227697D01*
X29393803Y-102049235D01*
X29393794Y-102049227D01*
X29193545Y-101895568D01*
X29193541Y-101895566D01*
X28974964Y-101769372D01*
X28974947Y-101769363D01*
X28741758Y-101672773D01*
X28587190Y-101631357D01*
X28497952Y-101607446D01*
X28466671Y-101603327D01*
X28247711Y-101574500D01*
X28247704Y-101574500D01*
X27995296Y-101574500D01*
X27995288Y-101574500D01*
X27745048Y-101607446D01*
X27501241Y-101672773D01*
X27268052Y-101769363D01*
X27268035Y-101769372D01*
X27049458Y-101895566D01*
X27049454Y-101895568D01*
X26849205Y-102049227D01*
X26670727Y-102227705D01*
X26517068Y-102427954D01*
X26517066Y-102427958D01*
X26390872Y-102646535D01*
X26390863Y-102646552D01*
X26294273Y-102879741D01*
X26228946Y-103123548D01*
X26196000Y-103373788D01*
X26196000Y-103626211D01*
X26213521Y-103759292D01*
X26228946Y-103876452D01*
X26236183Y-103903461D01*
X26294273Y-104120258D01*
X26390863Y-104353447D01*
X26390872Y-104353464D01*
X26517066Y-104572041D01*
X26517068Y-104572045D01*
X26670727Y-104772294D01*
X26670735Y-104772303D01*
X26849197Y-104950765D01*
X26849205Y-104950772D01*
X27049454Y-105104431D01*
X27049458Y-105104433D01*
X27268035Y-105230627D01*
X27268052Y-105230636D01*
X27341210Y-105260939D01*
X27395613Y-105304780D01*
X27417678Y-105371074D01*
X27400399Y-105438774D01*
X27349261Y-105486384D01*
X27293757Y-105499500D01*
X17624500Y-105499500D01*
X17557461Y-105479815D01*
X17511706Y-105427011D01*
X17500500Y-105375500D01*
X17500500Y-102500000D01*
X18194564Y-102500000D01*
X18208896Y-102718675D01*
X18214287Y-102800918D01*
X18214288Y-102800930D01*
X18273118Y-103096683D01*
X18273122Y-103096698D01*
X18370053Y-103382247D01*
X18370062Y-103382268D01*
X18503431Y-103652713D01*
X18503435Y-103652720D01*
X18670973Y-103903459D01*
X18869810Y-104130189D01*
X19096540Y-104329026D01*
X19347279Y-104496564D01*
X19347286Y-104496568D01*
X19617731Y-104629937D01*
X19617736Y-104629939D01*
X19617748Y-104629945D01*
X19903309Y-104726880D01*
X20103251Y-104766651D01*
X20199069Y-104785711D01*
X20199070Y-104785711D01*
X20199080Y-104785713D01*
X20500000Y-104805436D01*
X20800920Y-104785713D01*
X21096691Y-104726880D01*
X21382252Y-104629945D01*
X21652718Y-104496566D01*
X21903461Y-104329025D01*
X22130189Y-104130189D01*
X22329025Y-103903461D01*
X22496566Y-103652718D01*
X22629945Y-103382252D01*
X22726880Y-103096691D01*
X22785713Y-102800920D01*
X22805436Y-102500000D01*
X22785713Y-102199080D01*
X22726880Y-101903309D01*
X22629945Y-101617748D01*
X22608617Y-101574500D01*
X22496568Y-101347286D01*
X22496564Y-101347279D01*
X22329026Y-101096540D01*
X22130189Y-100869810D01*
X21903459Y-100670973D01*
X21652720Y-100503435D01*
X21652713Y-100503431D01*
X21382268Y-100370062D01*
X21382247Y-100370053D01*
X21096698Y-100273122D01*
X21096692Y-100273120D01*
X21096691Y-100273120D01*
X21096689Y-100273119D01*
X21096683Y-100273118D01*
X20800930Y-100214288D01*
X20800921Y-100214287D01*
X20800920Y-100214287D01*
X20500000Y-100194564D01*
X20199080Y-100214287D01*
X20199079Y-100214287D01*
X20199069Y-100214288D01*
X19903316Y-100273118D01*
X19903301Y-100273122D01*
X19617752Y-100370053D01*
X19617731Y-100370062D01*
X19347286Y-100503431D01*
X19347279Y-100503435D01*
X19096540Y-100670973D01*
X18869810Y-100869810D01*
X18670973Y-101096540D01*
X18503435Y-101347279D01*
X18503431Y-101347286D01*
X18370062Y-101617731D01*
X18370053Y-101617752D01*
X18273122Y-101903301D01*
X18273118Y-101903316D01*
X18214288Y-102199069D01*
X18214287Y-102199079D01*
X18214287Y-102199080D01*
X18194564Y-102500000D01*
X17500500Y-102500000D01*
X17500500Y-98822870D01*
X46224500Y-98822870D01*
X46224501Y-98822876D01*
X46230908Y-98882483D01*
X46281202Y-99017328D01*
X46281206Y-99017335D01*
X46367452Y-99132544D01*
X46367455Y-99132547D01*
X46482664Y-99218793D01*
X46482671Y-99218797D01*
X46617517Y-99269091D01*
X46617516Y-99269091D01*
X46624444Y-99269835D01*
X46677127Y-99275500D01*
X49322872Y-99275499D01*
X49382483Y-99269091D01*
X49517331Y-99218796D01*
X49632546Y-99132546D01*
X49718796Y-99017331D01*
X49769091Y-98882483D01*
X49775500Y-98822873D01*
X49775500Y-97500004D01*
X51219521Y-97500004D01*
X51239405Y-97765357D01*
X51239405Y-97765359D01*
X51274149Y-97917582D01*
X51298623Y-98024805D01*
X51395844Y-98272521D01*
X51528899Y-98502980D01*
X51662906Y-98671018D01*
X51694820Y-98711037D01*
X51809332Y-98817288D01*
X51889890Y-98892035D01*
X52109761Y-99041940D01*
X52349514Y-99157399D01*
X52349515Y-99157399D01*
X52349518Y-99157401D01*
X52603806Y-99235839D01*
X52603807Y-99235839D01*
X52603810Y-99235840D01*
X52866937Y-99275499D01*
X52866942Y-99275499D01*
X52866945Y-99275500D01*
X52866946Y-99275500D01*
X53133054Y-99275500D01*
X53133055Y-99275500D01*
X53133062Y-99275499D01*
X53396189Y-99235840D01*
X53396190Y-99235839D01*
X53396194Y-99235839D01*
X53650482Y-99157401D01*
X53890240Y-99041940D01*
X54110110Y-98892035D01*
X54184652Y-98822870D01*
X62724500Y-98822870D01*
X62724501Y-98822876D01*
X62730908Y-98882483D01*
X62781202Y-99017328D01*
X62781206Y-99017335D01*
X62867452Y-99132544D01*
X62867455Y-99132547D01*
X62982664Y-99218793D01*
X62982671Y-99218797D01*
X63117517Y-99269091D01*
X63117516Y-99269091D01*
X63124444Y-99269835D01*
X63177127Y-99275500D01*
X65822872Y-99275499D01*
X65882483Y-99269091D01*
X66017331Y-99218796D01*
X66132546Y-99132546D01*
X66218796Y-99017331D01*
X66269091Y-98882483D01*
X66275500Y-98822873D01*
X66275500Y-97500004D01*
X67719521Y-97500004D01*
X67739405Y-97765357D01*
X67739405Y-97765359D01*
X67774149Y-97917582D01*
X67798623Y-98024805D01*
X67895844Y-98272521D01*
X68028899Y-98502980D01*
X68162906Y-98671018D01*
X68194820Y-98711037D01*
X68309332Y-98817288D01*
X68389890Y-98892035D01*
X68609761Y-99041940D01*
X68849514Y-99157399D01*
X68849515Y-99157399D01*
X68849518Y-99157401D01*
X69103806Y-99235839D01*
X69103807Y-99235839D01*
X69103810Y-99235840D01*
X69366937Y-99275499D01*
X69366942Y-99275499D01*
X69366945Y-99275500D01*
X69366946Y-99275500D01*
X69633054Y-99275500D01*
X69633055Y-99275500D01*
X69633062Y-99275499D01*
X69896189Y-99235840D01*
X69896190Y-99235839D01*
X69896194Y-99235839D01*
X70150482Y-99157401D01*
X70390240Y-99041940D01*
X70610110Y-98892035D01*
X70805183Y-98711033D01*
X70971101Y-98502980D01*
X71104156Y-98272521D01*
X71201377Y-98024805D01*
X71260593Y-97765367D01*
X71261760Y-97749796D01*
X71280479Y-97500004D01*
X71280479Y-97499995D01*
X71260594Y-97234642D01*
X71260594Y-97234640D01*
X71260593Y-97234636D01*
X71260593Y-97234633D01*
X71201377Y-96975195D01*
X71104156Y-96727479D01*
X70971101Y-96497020D01*
X70805183Y-96288967D01*
X70805182Y-96288966D01*
X70805179Y-96288962D01*
X70610110Y-96107965D01*
X70531156Y-96054135D01*
X70390240Y-95958060D01*
X70390236Y-95958058D01*
X70390233Y-95958056D01*
X70390232Y-95958055D01*
X70150484Y-95842600D01*
X70150486Y-95842600D01*
X69896195Y-95764161D01*
X69896189Y-95764159D01*
X69633062Y-95724500D01*
X69633055Y-95724500D01*
X69366945Y-95724500D01*
X69366937Y-95724500D01*
X69103810Y-95764159D01*
X69103804Y-95764161D01*
X68849514Y-95842600D01*
X68609769Y-95958055D01*
X68609760Y-95958060D01*
X68389892Y-96107963D01*
X68194820Y-96288962D01*
X68028899Y-96497020D01*
X67895844Y-96727478D01*
X67798625Y-96975189D01*
X67798620Y-96975206D01*
X67739405Y-97234640D01*
X67739405Y-97234642D01*
X67719521Y-97499995D01*
X67719521Y-97500004D01*
X66275500Y-97500004D01*
X66275499Y-96177128D01*
X66269091Y-96117517D01*
X66265528Y-96107965D01*
X66218797Y-95982671D01*
X66218793Y-95982664D01*
X66132547Y-95867455D01*
X66132544Y-95867452D01*
X66017335Y-95781206D01*
X66017328Y-95781202D01*
X65882482Y-95730908D01*
X65882483Y-95730908D01*
X65822883Y-95724501D01*
X65822881Y-95724500D01*
X65822873Y-95724500D01*
X65822864Y-95724500D01*
X63177129Y-95724500D01*
X63177123Y-95724501D01*
X63117516Y-95730908D01*
X62982671Y-95781202D01*
X62982664Y-95781206D01*
X62867455Y-95867452D01*
X62867452Y-95867455D01*
X62781206Y-95982664D01*
X62781202Y-95982671D01*
X62730908Y-96117517D01*
X62724501Y-96177116D01*
X62724501Y-96177123D01*
X62724500Y-96177135D01*
X62724500Y-98822870D01*
X54184652Y-98822870D01*
X54305183Y-98711033D01*
X54471101Y-98502980D01*
X54604156Y-98272521D01*
X54701377Y-98024805D01*
X54760593Y-97765367D01*
X54761760Y-97749796D01*
X54780479Y-97500004D01*
X54780479Y-97499995D01*
X54760594Y-97234642D01*
X54760594Y-97234640D01*
X54760593Y-97234636D01*
X54760593Y-97234633D01*
X54701377Y-96975195D01*
X54604156Y-96727479D01*
X54471101Y-96497020D01*
X54305183Y-96288967D01*
X54305182Y-96288966D01*
X54305179Y-96288962D01*
X54110110Y-96107965D01*
X54031156Y-96054135D01*
X53890240Y-95958060D01*
X53890236Y-95958058D01*
X53890233Y-95958056D01*
X53890232Y-95958055D01*
X53650484Y-95842600D01*
X53650486Y-95842600D01*
X53396195Y-95764161D01*
X53396189Y-95764159D01*
X53133062Y-95724500D01*
X53133055Y-95724500D01*
X52866945Y-95724500D01*
X52866937Y-95724500D01*
X52603810Y-95764159D01*
X52603804Y-95764161D01*
X52349514Y-95842600D01*
X52109769Y-95958055D01*
X52109760Y-95958060D01*
X51889892Y-96107963D01*
X51694820Y-96288962D01*
X51528899Y-96497020D01*
X51395844Y-96727478D01*
X51298625Y-96975189D01*
X51298620Y-96975206D01*
X51239405Y-97234640D01*
X51239405Y-97234642D01*
X51219521Y-97499995D01*
X51219521Y-97500004D01*
X49775500Y-97500004D01*
X49775499Y-96177128D01*
X49769091Y-96117517D01*
X49765528Y-96107965D01*
X49718797Y-95982671D01*
X49718793Y-95982664D01*
X49632547Y-95867455D01*
X49632544Y-95867452D01*
X49517335Y-95781206D01*
X49517328Y-95781202D01*
X49382482Y-95730908D01*
X49382483Y-95730908D01*
X49322883Y-95724501D01*
X49322881Y-95724500D01*
X49322873Y-95724500D01*
X49322864Y-95724500D01*
X46677129Y-95724500D01*
X46677123Y-95724501D01*
X46617516Y-95730908D01*
X46482671Y-95781202D01*
X46482664Y-95781206D01*
X46367455Y-95867452D01*
X46367452Y-95867455D01*
X46281206Y-95982664D01*
X46281202Y-95982671D01*
X46230908Y-96117517D01*
X46224501Y-96177116D01*
X46224501Y-96177123D01*
X46224500Y-96177135D01*
X46224500Y-98822870D01*
X17500500Y-98822870D01*
X17500500Y-97831870D01*
X28258000Y-97831870D01*
X28258001Y-97831876D01*
X28264408Y-97891483D01*
X28314702Y-98026328D01*
X28314706Y-98026335D01*
X28400952Y-98141544D01*
X28400955Y-98141547D01*
X28516164Y-98227793D01*
X28516171Y-98227797D01*
X28651017Y-98278091D01*
X28651016Y-98278091D01*
X28657944Y-98278835D01*
X28710627Y-98284500D01*
X30074372Y-98284499D01*
X30133983Y-98278091D01*
X30268831Y-98227796D01*
X30384046Y-98141546D01*
X30470296Y-98026331D01*
X30520591Y-97891483D01*
X30527000Y-97831873D01*
X30526999Y-97150000D01*
X30793140Y-97150000D01*
X30812539Y-97359352D01*
X30870079Y-97561587D01*
X30963793Y-97749790D01*
X30963798Y-97749798D01*
X31090504Y-97917584D01*
X31245881Y-98059228D01*
X31245883Y-98059230D01*
X31321175Y-98105848D01*
X31424644Y-98169913D01*
X31620699Y-98245866D01*
X31827373Y-98284500D01*
X31827375Y-98284500D01*
X32037625Y-98284500D01*
X32037627Y-98284500D01*
X32244301Y-98245866D01*
X32440356Y-98169913D01*
X32619118Y-98059229D01*
X32774497Y-97917582D01*
X32901203Y-97749796D01*
X32994922Y-97561584D01*
X33052460Y-97359357D01*
X33071860Y-97150000D01*
X33333140Y-97150000D01*
X33352539Y-97359352D01*
X33410079Y-97561587D01*
X33503793Y-97749790D01*
X33503798Y-97749798D01*
X33630504Y-97917584D01*
X33785881Y-98059228D01*
X33785883Y-98059230D01*
X33861175Y-98105848D01*
X33964644Y-98169913D01*
X34160699Y-98245866D01*
X34367373Y-98284500D01*
X34367375Y-98284500D01*
X34577625Y-98284500D01*
X34577627Y-98284500D01*
X34784301Y-98245866D01*
X34980356Y-98169913D01*
X35159118Y-98059229D01*
X35314497Y-97917582D01*
X35441203Y-97749796D01*
X35534922Y-97561584D01*
X35592460Y-97359357D01*
X35611860Y-97150000D01*
X35873140Y-97150000D01*
X35892539Y-97359352D01*
X35950079Y-97561587D01*
X36043793Y-97749790D01*
X36043798Y-97749798D01*
X36170504Y-97917584D01*
X36325881Y-98059228D01*
X36325883Y-98059230D01*
X36401175Y-98105848D01*
X36504644Y-98169913D01*
X36700699Y-98245866D01*
X36907373Y-98284500D01*
X36907375Y-98284500D01*
X37117625Y-98284500D01*
X37117627Y-98284500D01*
X37324301Y-98245866D01*
X37520356Y-98169913D01*
X37699118Y-98059229D01*
X37854497Y-97917582D01*
X37981203Y-97749796D01*
X38074922Y-97561584D01*
X38132460Y-97359357D01*
X38151860Y-97150000D01*
X38132460Y-96940643D01*
X38074922Y-96738416D01*
X38069476Y-96727479D01*
X37981206Y-96550209D01*
X37981201Y-96550201D01*
X37854495Y-96382415D01*
X37699118Y-96240771D01*
X37699116Y-96240769D01*
X37520359Y-96130089D01*
X37520356Y-96130087D01*
X37463248Y-96107963D01*
X37324301Y-96054134D01*
X37117627Y-96015500D01*
X36907373Y-96015500D01*
X36700699Y-96054134D01*
X36700696Y-96054134D01*
X36700696Y-96054135D01*
X36504643Y-96130087D01*
X36504640Y-96130089D01*
X36325883Y-96240769D01*
X36325881Y-96240771D01*
X36170504Y-96382415D01*
X36043798Y-96550201D01*
X36043793Y-96550209D01*
X35950079Y-96738412D01*
X35950078Y-96738416D01*
X35899035Y-96917817D01*
X35892539Y-96940647D01*
X35873140Y-97149999D01*
X35873140Y-97150000D01*
X35611860Y-97150000D01*
X35592460Y-96940643D01*
X35534922Y-96738416D01*
X35529476Y-96727479D01*
X35441206Y-96550209D01*
X35441201Y-96550201D01*
X35314495Y-96382415D01*
X35159118Y-96240771D01*
X35159116Y-96240769D01*
X34980359Y-96130089D01*
X34980356Y-96130087D01*
X34923248Y-96107963D01*
X34784301Y-96054134D01*
X34577627Y-96015500D01*
X34367373Y-96015500D01*
X34160699Y-96054134D01*
X34160696Y-96054134D01*
X34160696Y-96054135D01*
X33964643Y-96130087D01*
X33964640Y-96130089D01*
X33785883Y-96240769D01*
X33785881Y-96240771D01*
X33630504Y-96382415D01*
X33503798Y-96550201D01*
X33503793Y-96550209D01*
X33410079Y-96738412D01*
X33410078Y-96738416D01*
X33359035Y-96917817D01*
X33352539Y-96940647D01*
X33333140Y-97149999D01*
X33333140Y-97150000D01*
X33071860Y-97150000D01*
X33052460Y-96940643D01*
X32994922Y-96738416D01*
X32989476Y-96727479D01*
X32901206Y-96550209D01*
X32901201Y-96550201D01*
X32774495Y-96382415D01*
X32619118Y-96240771D01*
X32619116Y-96240769D01*
X32440359Y-96130089D01*
X32440356Y-96130087D01*
X32383248Y-96107963D01*
X32244301Y-96054134D01*
X32037627Y-96015500D01*
X31827373Y-96015500D01*
X31620699Y-96054134D01*
X31620696Y-96054134D01*
X31620696Y-96054135D01*
X31424643Y-96130087D01*
X31424640Y-96130089D01*
X31245883Y-96240769D01*
X31245881Y-96240771D01*
X31090504Y-96382415D01*
X30963798Y-96550201D01*
X30963793Y-96550209D01*
X30870079Y-96738412D01*
X30870078Y-96738416D01*
X30819035Y-96917817D01*
X30812539Y-96940647D01*
X30793140Y-97149999D01*
X30793140Y-97150000D01*
X30526999Y-97150000D01*
X30526999Y-96468128D01*
X30520591Y-96408517D01*
X30498050Y-96348082D01*
X30470297Y-96273671D01*
X30470293Y-96273664D01*
X30384047Y-96158455D01*
X30384044Y-96158452D01*
X30268835Y-96072206D01*
X30268828Y-96072202D01*
X30133982Y-96021908D01*
X30133983Y-96021908D01*
X30074383Y-96015501D01*
X30074381Y-96015500D01*
X30074373Y-96015500D01*
X30074364Y-96015500D01*
X28710629Y-96015500D01*
X28710623Y-96015501D01*
X28651016Y-96021908D01*
X28516171Y-96072202D01*
X28516164Y-96072206D01*
X28400955Y-96158452D01*
X28400952Y-96158455D01*
X28314706Y-96273664D01*
X28314702Y-96273671D01*
X28264408Y-96408517D01*
X28258001Y-96468116D01*
X28258001Y-96468123D01*
X28258000Y-96468135D01*
X28258000Y-97831870D01*
X17500500Y-97831870D01*
X17500500Y-95150001D01*
X19999500Y-95150001D01*
X19999501Y-95150018D01*
X20010000Y-95252796D01*
X20010001Y-95252799D01*
X20019739Y-95282185D01*
X20065186Y-95419334D01*
X20157288Y-95568656D01*
X20281344Y-95692712D01*
X20430666Y-95784814D01*
X20597203Y-95839999D01*
X20699991Y-95850500D01*
X22250008Y-95850499D01*
X22352797Y-95839999D01*
X22479031Y-95798168D01*
X22548855Y-95795767D01*
X22608897Y-95831498D01*
X22640091Y-95894018D01*
X22639650Y-95940065D01*
X22624500Y-96016234D01*
X22624500Y-96183771D01*
X22657182Y-96348074D01*
X22657184Y-96348082D01*
X22721295Y-96502860D01*
X22814373Y-96642162D01*
X22932837Y-96760626D01*
X23025494Y-96822537D01*
X23072137Y-96853703D01*
X23226918Y-96917816D01*
X23391228Y-96950499D01*
X23391232Y-96950500D01*
X23391233Y-96950500D01*
X23558768Y-96950500D01*
X23558769Y-96950499D01*
X23723082Y-96917816D01*
X23877863Y-96853703D01*
X24017162Y-96760626D01*
X24135626Y-96642162D01*
X24228703Y-96502863D01*
X24292816Y-96348082D01*
X24325500Y-96183767D01*
X24325500Y-96016233D01*
X24292816Y-95851918D01*
X24228703Y-95697137D01*
X24183783Y-95629910D01*
X24135626Y-95557837D01*
X24017162Y-95439373D01*
X23877860Y-95346295D01*
X23723082Y-95282184D01*
X23723074Y-95282182D01*
X23558771Y-95249500D01*
X23558767Y-95249500D01*
X23391233Y-95249500D01*
X23391228Y-95249500D01*
X23226925Y-95282182D01*
X23226913Y-95282185D01*
X23116109Y-95328082D01*
X23046640Y-95335551D01*
X22984161Y-95304276D01*
X22948509Y-95244187D01*
X22945299Y-95200918D01*
X22950499Y-95150016D01*
X22950500Y-95150009D01*
X22950500Y-94610000D01*
X29523140Y-94610000D01*
X29542539Y-94819352D01*
X29600079Y-95021587D01*
X29693793Y-95209790D01*
X29693798Y-95209798D01*
X29820504Y-95377584D01*
X29975881Y-95519228D01*
X29975883Y-95519230D01*
X30038236Y-95557837D01*
X30154644Y-95629913D01*
X30350699Y-95705866D01*
X30557373Y-95744500D01*
X30557375Y-95744500D01*
X30767625Y-95744500D01*
X30767627Y-95744500D01*
X30974301Y-95705866D01*
X31170356Y-95629913D01*
X31349118Y-95519229D01*
X31504497Y-95377582D01*
X31631203Y-95209796D01*
X31724922Y-95021584D01*
X31782460Y-94819357D01*
X31801860Y-94610000D01*
X32063140Y-94610000D01*
X32082539Y-94819352D01*
X32140079Y-95021587D01*
X32233793Y-95209790D01*
X32233798Y-95209798D01*
X32360504Y-95377584D01*
X32515881Y-95519228D01*
X32515883Y-95519230D01*
X32578236Y-95557837D01*
X32694644Y-95629913D01*
X32890699Y-95705866D01*
X33097373Y-95744500D01*
X33097375Y-95744500D01*
X33307625Y-95744500D01*
X33307627Y-95744500D01*
X33514301Y-95705866D01*
X33710356Y-95629913D01*
X33889118Y-95519229D01*
X34044497Y-95377582D01*
X34171203Y-95209796D01*
X34264922Y-95021584D01*
X34322460Y-94819357D01*
X34341860Y-94610000D01*
X34603140Y-94610000D01*
X34622539Y-94819352D01*
X34680079Y-95021587D01*
X34773793Y-95209790D01*
X34773798Y-95209798D01*
X34900504Y-95377584D01*
X35055881Y-95519228D01*
X35055883Y-95519230D01*
X35118236Y-95557837D01*
X35234644Y-95629913D01*
X35430699Y-95705866D01*
X35637373Y-95744500D01*
X35637375Y-95744500D01*
X35847625Y-95744500D01*
X35847627Y-95744500D01*
X36054301Y-95705866D01*
X36250356Y-95629913D01*
X36429118Y-95519229D01*
X36584497Y-95377582D01*
X36711203Y-95209796D01*
X36804922Y-95021584D01*
X36862460Y-94819357D01*
X36881860Y-94610000D01*
X37143140Y-94610000D01*
X37162539Y-94819352D01*
X37220079Y-95021587D01*
X37313793Y-95209790D01*
X37313798Y-95209798D01*
X37440504Y-95377584D01*
X37595881Y-95519228D01*
X37595883Y-95519230D01*
X37658236Y-95557837D01*
X37774644Y-95629913D01*
X37970699Y-95705866D01*
X38177373Y-95744500D01*
X38177375Y-95744500D01*
X38387625Y-95744500D01*
X38387627Y-95744500D01*
X38594301Y-95705866D01*
X38790356Y-95629913D01*
X38969118Y-95519229D01*
X39124497Y-95377582D01*
X39251203Y-95209796D01*
X39344922Y-95021584D01*
X39402460Y-94819357D01*
X39421860Y-94610000D01*
X39402460Y-94400643D01*
X39344922Y-94198416D01*
X39326105Y-94160626D01*
X39251206Y-94010209D01*
X39251201Y-94010201D01*
X39124495Y-93842415D01*
X38969118Y-93700771D01*
X38969116Y-93700769D01*
X38790359Y-93590089D01*
X38790356Y-93590087D01*
X38766030Y-93580663D01*
X38594301Y-93514134D01*
X38387627Y-93475500D01*
X38177373Y-93475500D01*
X37970699Y-93514134D01*
X37970696Y-93514134D01*
X37970696Y-93514135D01*
X37774643Y-93590087D01*
X37774640Y-93590089D01*
X37595883Y-93700769D01*
X37595881Y-93700771D01*
X37440504Y-93842415D01*
X37313798Y-94010201D01*
X37313793Y-94010209D01*
X37220079Y-94198412D01*
X37162539Y-94400647D01*
X37143140Y-94609999D01*
X37143140Y-94610000D01*
X36881860Y-94610000D01*
X36862460Y-94400643D01*
X36804922Y-94198416D01*
X36786105Y-94160626D01*
X36711206Y-94010209D01*
X36711201Y-94010201D01*
X36584495Y-93842415D01*
X36429118Y-93700771D01*
X36429116Y-93700769D01*
X36250359Y-93590089D01*
X36250356Y-93590087D01*
X36226030Y-93580663D01*
X36054301Y-93514134D01*
X35847627Y-93475500D01*
X35637373Y-93475500D01*
X35430699Y-93514134D01*
X35430696Y-93514134D01*
X35430696Y-93514135D01*
X35234643Y-93590087D01*
X35234640Y-93590089D01*
X35055883Y-93700769D01*
X35055881Y-93700771D01*
X34900504Y-93842415D01*
X34773798Y-94010201D01*
X34773793Y-94010209D01*
X34680079Y-94198412D01*
X34622539Y-94400647D01*
X34603140Y-94609999D01*
X34603140Y-94610000D01*
X34341860Y-94610000D01*
X34322460Y-94400643D01*
X34264922Y-94198416D01*
X34246105Y-94160626D01*
X34171206Y-94010209D01*
X34171201Y-94010201D01*
X34044495Y-93842415D01*
X33889118Y-93700771D01*
X33889116Y-93700769D01*
X33710359Y-93590089D01*
X33710356Y-93590087D01*
X33686030Y-93580663D01*
X33514301Y-93514134D01*
X33307627Y-93475500D01*
X33097373Y-93475500D01*
X32890699Y-93514134D01*
X32890696Y-93514134D01*
X32890696Y-93514135D01*
X32694643Y-93590087D01*
X32694640Y-93590089D01*
X32515883Y-93700769D01*
X32515881Y-93700771D01*
X32360504Y-93842415D01*
X32233798Y-94010201D01*
X32233793Y-94010209D01*
X32140079Y-94198412D01*
X32082539Y-94400647D01*
X32063140Y-94609999D01*
X32063140Y-94610000D01*
X31801860Y-94610000D01*
X31782460Y-94400643D01*
X31724922Y-94198416D01*
X31706105Y-94160626D01*
X31631206Y-94010209D01*
X31631201Y-94010201D01*
X31504495Y-93842415D01*
X31349118Y-93700771D01*
X31349116Y-93700769D01*
X31170359Y-93590089D01*
X31170356Y-93590087D01*
X31146030Y-93580663D01*
X30974301Y-93514134D01*
X30767627Y-93475500D01*
X30557373Y-93475500D01*
X30350699Y-93514134D01*
X30350696Y-93514134D01*
X30350696Y-93514135D01*
X30154643Y-93590087D01*
X30154640Y-93590089D01*
X29975883Y-93700769D01*
X29975881Y-93700771D01*
X29820504Y-93842415D01*
X29693798Y-94010201D01*
X29693793Y-94010209D01*
X29600079Y-94198412D01*
X29542539Y-94400647D01*
X29523140Y-94609999D01*
X29523140Y-94610000D01*
X22950500Y-94610000D01*
X22950499Y-93849992D01*
X22939999Y-93747203D01*
X22884814Y-93580666D01*
X22792712Y-93431344D01*
X22668656Y-93307288D01*
X22519334Y-93215186D01*
X22519333Y-93215185D01*
X22513878Y-93211821D01*
X22467154Y-93159873D01*
X22455931Y-93090910D01*
X22483775Y-93026828D01*
X22491272Y-93018623D01*
X22630104Y-92879792D01*
X22755051Y-92707816D01*
X22835462Y-92550001D01*
X62999500Y-92550001D01*
X62999501Y-92550018D01*
X63010000Y-92652796D01*
X63010001Y-92652799D01*
X63034948Y-92728082D01*
X63065186Y-92819334D01*
X63157288Y-92968656D01*
X63281344Y-93092712D01*
X63430666Y-93184814D01*
X63597203Y-93239999D01*
X63699991Y-93250500D01*
X65250008Y-93250499D01*
X65352797Y-93239999D01*
X65479031Y-93198168D01*
X65548855Y-93195767D01*
X65608897Y-93231498D01*
X65640091Y-93294018D01*
X65639650Y-93340065D01*
X65624500Y-93416234D01*
X65624500Y-93583771D01*
X65657182Y-93748074D01*
X65657184Y-93748082D01*
X65721295Y-93902860D01*
X65814373Y-94042162D01*
X65932837Y-94160626D01*
X65989394Y-94198416D01*
X66072137Y-94253703D01*
X66226918Y-94317816D01*
X66391228Y-94350499D01*
X66391232Y-94350500D01*
X66391233Y-94350500D01*
X66558768Y-94350500D01*
X66558769Y-94350499D01*
X66723082Y-94317816D01*
X66877863Y-94253703D01*
X67017162Y-94160626D01*
X67135626Y-94042162D01*
X67228703Y-93902863D01*
X67292816Y-93748082D01*
X67325500Y-93583767D01*
X67325500Y-93416233D01*
X67292816Y-93251918D01*
X67228703Y-93097137D01*
X67176226Y-93018600D01*
X67135626Y-92957837D01*
X67017162Y-92839373D01*
X66877860Y-92746295D01*
X66723082Y-92682184D01*
X66723074Y-92682182D01*
X66558771Y-92649500D01*
X66558767Y-92649500D01*
X66391233Y-92649500D01*
X66391228Y-92649500D01*
X66226925Y-92682182D01*
X66226913Y-92682185D01*
X66116109Y-92728082D01*
X66046640Y-92735551D01*
X65984161Y-92704276D01*
X65948509Y-92644187D01*
X65945299Y-92600918D01*
X65950499Y-92550016D01*
X65950500Y-92550009D01*
X65950500Y-92550001D01*
X70999500Y-92550001D01*
X70999501Y-92550018D01*
X71010000Y-92652796D01*
X71010001Y-92652799D01*
X71034948Y-92728082D01*
X71065186Y-92819334D01*
X71157288Y-92968656D01*
X71281344Y-93092712D01*
X71430666Y-93184814D01*
X71597203Y-93239999D01*
X71699991Y-93250500D01*
X73250008Y-93250499D01*
X73352797Y-93239999D01*
X73479031Y-93198168D01*
X73548855Y-93195767D01*
X73608897Y-93231498D01*
X73640091Y-93294018D01*
X73639650Y-93340065D01*
X73624500Y-93416234D01*
X73624500Y-93583771D01*
X73657182Y-93748074D01*
X73657184Y-93748082D01*
X73721295Y-93902860D01*
X73814373Y-94042162D01*
X73932837Y-94160626D01*
X73989394Y-94198416D01*
X74072137Y-94253703D01*
X74226918Y-94317816D01*
X74391228Y-94350499D01*
X74391232Y-94350500D01*
X74391233Y-94350500D01*
X74558768Y-94350500D01*
X74558769Y-94350499D01*
X74723082Y-94317816D01*
X74877863Y-94253703D01*
X75017162Y-94160626D01*
X75135626Y-94042162D01*
X75228703Y-93902863D01*
X75292816Y-93748082D01*
X75325500Y-93583767D01*
X75325500Y-93416233D01*
X75292816Y-93251918D01*
X75228703Y-93097137D01*
X75176226Y-93018600D01*
X75135626Y-92957837D01*
X75017162Y-92839373D01*
X74877860Y-92746295D01*
X74723082Y-92682184D01*
X74723074Y-92682182D01*
X74558771Y-92649500D01*
X74558767Y-92649500D01*
X74391233Y-92649500D01*
X74391228Y-92649500D01*
X74226925Y-92682182D01*
X74226913Y-92682185D01*
X74116109Y-92728082D01*
X74046640Y-92735551D01*
X73984161Y-92704276D01*
X73948509Y-92644187D01*
X73945299Y-92600918D01*
X73950499Y-92550016D01*
X73950500Y-92550009D01*
X73950499Y-91249992D01*
X73939999Y-91147203D01*
X73884814Y-90980666D01*
X73792712Y-90831344D01*
X73668656Y-90707288D01*
X73519334Y-90615186D01*
X73519333Y-90615185D01*
X73513878Y-90611821D01*
X73467154Y-90559873D01*
X73455931Y-90490910D01*
X73483775Y-90426828D01*
X73491272Y-90418623D01*
X73630104Y-90279792D01*
X73666414Y-90229816D01*
X73755048Y-90107820D01*
X73755047Y-90107820D01*
X73755051Y-90107816D01*
X73851557Y-89918412D01*
X73917246Y-89716243D01*
X73950500Y-89506287D01*
X73950500Y-89293713D01*
X73917246Y-89083757D01*
X73851557Y-88881588D01*
X73755051Y-88692184D01*
X73755049Y-88692181D01*
X73755048Y-88692179D01*
X73630109Y-88520213D01*
X73479792Y-88369896D01*
X73445455Y-88344949D01*
X73315204Y-88250316D01*
X73272540Y-88194989D01*
X73266561Y-88125376D01*
X73299166Y-88063580D01*
X73315199Y-88049686D01*
X73479792Y-87930104D01*
X73630104Y-87779792D01*
X73630106Y-87779788D01*
X73630109Y-87779786D01*
X73755048Y-87607820D01*
X73755047Y-87607820D01*
X73755051Y-87607816D01*
X73851557Y-87418412D01*
X73917246Y-87216243D01*
X73950500Y-87006287D01*
X73950500Y-86793713D01*
X73917246Y-86583757D01*
X73851557Y-86381588D01*
X73755051Y-86192184D01*
X73755049Y-86192181D01*
X73755048Y-86192179D01*
X73630109Y-86020213D01*
X73479792Y-85869896D01*
X73391247Y-85805565D01*
X73315204Y-85750316D01*
X73272540Y-85694989D01*
X73266561Y-85625376D01*
X73299166Y-85563580D01*
X73315199Y-85549686D01*
X73479792Y-85430104D01*
X73581749Y-85328146D01*
X73643068Y-85294664D01*
X73712760Y-85299648D01*
X73768694Y-85341519D01*
X73774420Y-85349857D01*
X73870182Y-85502260D01*
X73870184Y-85502262D01*
X73997738Y-85629816D01*
X74150478Y-85725789D01*
X74220578Y-85750318D01*
X74320745Y-85785368D01*
X74320750Y-85785369D01*
X74499996Y-85805565D01*
X74500000Y-85805565D01*
X74500004Y-85805565D01*
X74679249Y-85785369D01*
X74679252Y-85785368D01*
X74679255Y-85785368D01*
X74849522Y-85725789D01*
X75002262Y-85629816D01*
X75129816Y-85502262D01*
X75225789Y-85349522D01*
X75285368Y-85179255D01*
X75305565Y-85000000D01*
X75296372Y-84918412D01*
X75285369Y-84820750D01*
X75285368Y-84820745D01*
X75225788Y-84650476D01*
X75186582Y-84588080D01*
X75129816Y-84497738D01*
X75002262Y-84370184D01*
X74931608Y-84325789D01*
X74849523Y-84274211D01*
X74679254Y-84214631D01*
X74679249Y-84214630D01*
X74500004Y-84194435D01*
X74499996Y-84194435D01*
X74320750Y-84214630D01*
X74320745Y-84214631D01*
X74150477Y-84274211D01*
X74124848Y-84290315D01*
X74057611Y-84309314D01*
X73990776Y-84288945D01*
X73945563Y-84235677D01*
X73936404Y-84204717D01*
X73917247Y-84083761D01*
X73917246Y-84083760D01*
X73917246Y-84083757D01*
X73851557Y-83881588D01*
X73755051Y-83692184D01*
X73755049Y-83692181D01*
X73755048Y-83692179D01*
X73630109Y-83520213D01*
X73479792Y-83369896D01*
X73419082Y-83325788D01*
X73315204Y-83250316D01*
X73272540Y-83194989D01*
X73266561Y-83125376D01*
X73299166Y-83063580D01*
X73315199Y-83049686D01*
X73479792Y-82930104D01*
X73630104Y-82779792D01*
X73630106Y-82779788D01*
X73630109Y-82779786D01*
X73755048Y-82607820D01*
X73755047Y-82607820D01*
X73755051Y-82607816D01*
X73851557Y-82418412D01*
X73917246Y-82216243D01*
X73950500Y-82006287D01*
X73950500Y-81793713D01*
X73917246Y-81583757D01*
X73851557Y-81381588D01*
X73755051Y-81192184D01*
X73755049Y-81192181D01*
X73755048Y-81192179D01*
X73630109Y-81020213D01*
X73479792Y-80869896D01*
X73444867Y-80844522D01*
X73315204Y-80750316D01*
X73272540Y-80694989D01*
X73266561Y-80625376D01*
X73299166Y-80563580D01*
X73315199Y-80549686D01*
X73479792Y-80430104D01*
X73630104Y-80279792D01*
X73630106Y-80279788D01*
X73630109Y-80279786D01*
X73755048Y-80107820D01*
X73755047Y-80107820D01*
X73755051Y-80107816D01*
X73851557Y-79918412D01*
X73917246Y-79716243D01*
X73950500Y-79506287D01*
X73950500Y-79293713D01*
X73917246Y-79083757D01*
X73851557Y-78881588D01*
X73755051Y-78692184D01*
X73755049Y-78692181D01*
X73755048Y-78692179D01*
X73630109Y-78520213D01*
X73479786Y-78369890D01*
X73307820Y-78244951D01*
X73118414Y-78148444D01*
X73118413Y-78148443D01*
X73118412Y-78148443D01*
X72916243Y-78082754D01*
X72916241Y-78082753D01*
X72916240Y-78082753D01*
X72754957Y-78057208D01*
X72706287Y-78049500D01*
X72243713Y-78049500D01*
X72195042Y-78057208D01*
X72033760Y-78082753D01*
X71831585Y-78148444D01*
X71642179Y-78244951D01*
X71470213Y-78369890D01*
X71319890Y-78520213D01*
X71194951Y-78692179D01*
X71098444Y-78881585D01*
X71032753Y-79083760D01*
X70999500Y-79293713D01*
X70999500Y-79506286D01*
X71026895Y-79679255D01*
X71032754Y-79716243D01*
X71076059Y-79849522D01*
X71098444Y-79918414D01*
X71194951Y-80107820D01*
X71319890Y-80279786D01*
X71470209Y-80430105D01*
X71470214Y-80430109D01*
X71634793Y-80549682D01*
X71677459Y-80605011D01*
X71683438Y-80674625D01*
X71650833Y-80736420D01*
X71634793Y-80750318D01*
X71470214Y-80869890D01*
X71470209Y-80869894D01*
X71319890Y-81020213D01*
X71194951Y-81192179D01*
X71098444Y-81381585D01*
X71032753Y-81583760D01*
X70999500Y-81793713D01*
X70999500Y-82006286D01*
X71030539Y-82202262D01*
X71032754Y-82216243D01*
X71092459Y-82399996D01*
X71098444Y-82418414D01*
X71194951Y-82607820D01*
X71319890Y-82779786D01*
X71470209Y-82930105D01*
X71470214Y-82930109D01*
X71634793Y-83049682D01*
X71677459Y-83105011D01*
X71683438Y-83174625D01*
X71650833Y-83236420D01*
X71634793Y-83250318D01*
X71470214Y-83369890D01*
X71470209Y-83369894D01*
X71319890Y-83520213D01*
X71194951Y-83692179D01*
X71098444Y-83881585D01*
X71032753Y-84083760D01*
X70999500Y-84293713D01*
X70999500Y-84506286D01*
X71032753Y-84716239D01*
X71098444Y-84918414D01*
X71194951Y-85107820D01*
X71319890Y-85279786D01*
X71470209Y-85430105D01*
X71470214Y-85430109D01*
X71634793Y-85549682D01*
X71677459Y-85605011D01*
X71683438Y-85674625D01*
X71650833Y-85736420D01*
X71634793Y-85750318D01*
X71470214Y-85869890D01*
X71470209Y-85869894D01*
X71319890Y-86020213D01*
X71194951Y-86192179D01*
X71098444Y-86381585D01*
X71032753Y-86583760D01*
X71006423Y-86750003D01*
X70999500Y-86793713D01*
X70999500Y-87006287D01*
X71032754Y-87216243D01*
X71085902Y-87379816D01*
X71098444Y-87418414D01*
X71194951Y-87607820D01*
X71319890Y-87779786D01*
X71470209Y-87930105D01*
X71470214Y-87930109D01*
X71634793Y-88049682D01*
X71677459Y-88105011D01*
X71683438Y-88174625D01*
X71650833Y-88236420D01*
X71634793Y-88250318D01*
X71470214Y-88369890D01*
X71470209Y-88369894D01*
X71319890Y-88520213D01*
X71194951Y-88692179D01*
X71098444Y-88881585D01*
X71032753Y-89083760D01*
X70999500Y-89293713D01*
X70999500Y-89506286D01*
X71032753Y-89716239D01*
X71098444Y-89918414D01*
X71194951Y-90107820D01*
X71319890Y-90279786D01*
X71458705Y-90418601D01*
X71492190Y-90479924D01*
X71487206Y-90549616D01*
X71445334Y-90605549D01*
X71436121Y-90611821D01*
X71281342Y-90707289D01*
X71157289Y-90831342D01*
X71065187Y-90980663D01*
X71065186Y-90980666D01*
X71010001Y-91147203D01*
X71010001Y-91147204D01*
X71010000Y-91147204D01*
X70999500Y-91249983D01*
X70999500Y-92550001D01*
X65950500Y-92550001D01*
X65950499Y-91249992D01*
X65939999Y-91147203D01*
X65884814Y-90980666D01*
X65792712Y-90831344D01*
X65668656Y-90707288D01*
X65519334Y-90615186D01*
X65519333Y-90615185D01*
X65513878Y-90611821D01*
X65467154Y-90559873D01*
X65455931Y-90490910D01*
X65483775Y-90426828D01*
X65491272Y-90418623D01*
X65630104Y-90279792D01*
X65666414Y-90229816D01*
X65755048Y-90107820D01*
X65755047Y-90107820D01*
X65755051Y-90107816D01*
X65851557Y-89918412D01*
X65917246Y-89716243D01*
X65950500Y-89506287D01*
X65950500Y-89293713D01*
X65917246Y-89083757D01*
X65851557Y-88881588D01*
X65755051Y-88692184D01*
X65755049Y-88692181D01*
X65755048Y-88692179D01*
X65630109Y-88520213D01*
X65479792Y-88369896D01*
X65445455Y-88344949D01*
X65315204Y-88250316D01*
X65272540Y-88194989D01*
X65266561Y-88125376D01*
X65299166Y-88063580D01*
X65315199Y-88049686D01*
X65479792Y-87930104D01*
X65630104Y-87779792D01*
X65630106Y-87779788D01*
X65630109Y-87779786D01*
X65755048Y-87607820D01*
X65755047Y-87607820D01*
X65755051Y-87607816D01*
X65851557Y-87418412D01*
X65917246Y-87216243D01*
X65950500Y-87006287D01*
X65950500Y-86793713D01*
X65917246Y-86583757D01*
X65851557Y-86381588D01*
X65755051Y-86192184D01*
X65755049Y-86192181D01*
X65755048Y-86192179D01*
X65630109Y-86020213D01*
X65479792Y-85869896D01*
X65391247Y-85805565D01*
X65315204Y-85750316D01*
X65272540Y-85694989D01*
X65266561Y-85625376D01*
X65299166Y-85563580D01*
X65315199Y-85549686D01*
X65479792Y-85430104D01*
X65630104Y-85279792D01*
X65630106Y-85279788D01*
X65630109Y-85279786D01*
X65755048Y-85107820D01*
X65755047Y-85107820D01*
X65755051Y-85107816D01*
X65851557Y-84918412D01*
X65917246Y-84716243D01*
X65950500Y-84506287D01*
X65950500Y-84293713D01*
X65917246Y-84083757D01*
X65851557Y-83881588D01*
X65755051Y-83692184D01*
X65755049Y-83692181D01*
X65755048Y-83692179D01*
X65630109Y-83520213D01*
X65479792Y-83369896D01*
X65419082Y-83325788D01*
X65315204Y-83250316D01*
X65272540Y-83194989D01*
X65266561Y-83125376D01*
X65299166Y-83063580D01*
X65315199Y-83049686D01*
X65479792Y-82930104D01*
X65630104Y-82779792D01*
X65630106Y-82779788D01*
X65630109Y-82779786D01*
X65755048Y-82607820D01*
X65755047Y-82607820D01*
X65755051Y-82607816D01*
X65851557Y-82418412D01*
X65917246Y-82216243D01*
X65950500Y-82006287D01*
X65950500Y-81793713D01*
X65917246Y-81583757D01*
X65851557Y-81381588D01*
X65755051Y-81192184D01*
X65755049Y-81192181D01*
X65755048Y-81192179D01*
X65630109Y-81020213D01*
X65479792Y-80869896D01*
X65444867Y-80844522D01*
X65315204Y-80750316D01*
X65272540Y-80694989D01*
X65266561Y-80625376D01*
X65299166Y-80563580D01*
X65315199Y-80549686D01*
X65479792Y-80430104D01*
X65630104Y-80279792D01*
X65630106Y-80279788D01*
X65630109Y-80279786D01*
X65755048Y-80107820D01*
X65755047Y-80107820D01*
X65755051Y-80107816D01*
X65851557Y-79918412D01*
X65917246Y-79716243D01*
X65950500Y-79506287D01*
X65950500Y-79293713D01*
X65917246Y-79083757D01*
X65851557Y-78881588D01*
X65755051Y-78692184D01*
X65755049Y-78692181D01*
X65755048Y-78692179D01*
X65630109Y-78520213D01*
X65479786Y-78369890D01*
X65307820Y-78244951D01*
X65118414Y-78148444D01*
X65118413Y-78148443D01*
X65118412Y-78148443D01*
X64916243Y-78082754D01*
X64916241Y-78082753D01*
X64916240Y-78082753D01*
X64754957Y-78057208D01*
X64706287Y-78049500D01*
X64243713Y-78049500D01*
X64195042Y-78057208D01*
X64033760Y-78082753D01*
X63831585Y-78148444D01*
X63642179Y-78244951D01*
X63470213Y-78369890D01*
X63319890Y-78520213D01*
X63194951Y-78692179D01*
X63098444Y-78881585D01*
X63032753Y-79083760D01*
X62999500Y-79293713D01*
X62999500Y-79506286D01*
X63026895Y-79679255D01*
X63032754Y-79716243D01*
X63076059Y-79849522D01*
X63098444Y-79918414D01*
X63194951Y-80107820D01*
X63319890Y-80279786D01*
X63470209Y-80430105D01*
X63470214Y-80430109D01*
X63634793Y-80549682D01*
X63677459Y-80605011D01*
X63683438Y-80674625D01*
X63650833Y-80736420D01*
X63634793Y-80750318D01*
X63470214Y-80869890D01*
X63470209Y-80869894D01*
X63319890Y-81020213D01*
X63194951Y-81192179D01*
X63098444Y-81381585D01*
X63032753Y-81583760D01*
X62999500Y-81793713D01*
X62999500Y-82006286D01*
X63030539Y-82202262D01*
X63032754Y-82216243D01*
X63092459Y-82399996D01*
X63098444Y-82418414D01*
X63194951Y-82607820D01*
X63319890Y-82779786D01*
X63470209Y-82930105D01*
X63470214Y-82930109D01*
X63634793Y-83049682D01*
X63677459Y-83105011D01*
X63683438Y-83174625D01*
X63650833Y-83236420D01*
X63634793Y-83250318D01*
X63470214Y-83369890D01*
X63470209Y-83369894D01*
X63319890Y-83520213D01*
X63194951Y-83692179D01*
X63098444Y-83881585D01*
X63032753Y-84083760D01*
X62999500Y-84293713D01*
X62999500Y-84506286D01*
X63032753Y-84716239D01*
X63098444Y-84918414D01*
X63194951Y-85107820D01*
X63319890Y-85279786D01*
X63470209Y-85430105D01*
X63470214Y-85430109D01*
X63634793Y-85549682D01*
X63677459Y-85605011D01*
X63683438Y-85674625D01*
X63650833Y-85736420D01*
X63634793Y-85750318D01*
X63470214Y-85869890D01*
X63470209Y-85869894D01*
X63319890Y-86020213D01*
X63194951Y-86192179D01*
X63098444Y-86381585D01*
X63032753Y-86583760D01*
X63006423Y-86750003D01*
X62999500Y-86793713D01*
X62999500Y-87006287D01*
X63032754Y-87216243D01*
X63085902Y-87379816D01*
X63098444Y-87418414D01*
X63194951Y-87607820D01*
X63319890Y-87779786D01*
X63470209Y-87930105D01*
X63470214Y-87930109D01*
X63634793Y-88049682D01*
X63677459Y-88105011D01*
X63683438Y-88174625D01*
X63650833Y-88236420D01*
X63634793Y-88250318D01*
X63470214Y-88369890D01*
X63470209Y-88369894D01*
X63319890Y-88520213D01*
X63194951Y-88692179D01*
X63098444Y-88881585D01*
X63032753Y-89083760D01*
X62999500Y-89293713D01*
X62999500Y-89506286D01*
X63032753Y-89716239D01*
X63098444Y-89918414D01*
X63194951Y-90107820D01*
X63319890Y-90279786D01*
X63458705Y-90418601D01*
X63492190Y-90479924D01*
X63487206Y-90549616D01*
X63445334Y-90605549D01*
X63436121Y-90611821D01*
X63281342Y-90707289D01*
X63157289Y-90831342D01*
X63065187Y-90980663D01*
X63065186Y-90980666D01*
X63010001Y-91147203D01*
X63010001Y-91147204D01*
X63010000Y-91147204D01*
X62999500Y-91249983D01*
X62999500Y-92550001D01*
X22835462Y-92550001D01*
X22851557Y-92518412D01*
X22917246Y-92316243D01*
X22950500Y-92106287D01*
X22950500Y-91893713D01*
X22917246Y-91683757D01*
X22851557Y-91481588D01*
X22755051Y-91292184D01*
X22755049Y-91292181D01*
X22755048Y-91292179D01*
X22630109Y-91120213D01*
X22479792Y-90969896D01*
X22479784Y-90969890D01*
X22315204Y-90850316D01*
X22272540Y-90794989D01*
X22266561Y-90725376D01*
X22299166Y-90663580D01*
X22315199Y-90649686D01*
X22479792Y-90530104D01*
X22630104Y-90379792D01*
X22630106Y-90379788D01*
X22630109Y-90379786D01*
X22755048Y-90207820D01*
X22755047Y-90207820D01*
X22755051Y-90207816D01*
X22851557Y-90018412D01*
X22917246Y-89816243D01*
X22950500Y-89606287D01*
X22950500Y-89600003D01*
X36494435Y-89600003D01*
X36514630Y-89779249D01*
X36514631Y-89779254D01*
X36574211Y-89949523D01*
X36670184Y-90102262D01*
X36797738Y-90229816D01*
X36950478Y-90325789D01*
X37104793Y-90379786D01*
X37120745Y-90385368D01*
X37120750Y-90385369D01*
X37299996Y-90405565D01*
X37300000Y-90405565D01*
X37300004Y-90405565D01*
X37479249Y-90385369D01*
X37479252Y-90385368D01*
X37479255Y-90385368D01*
X37649522Y-90325789D01*
X37802262Y-90229816D01*
X37929816Y-90102262D01*
X38025789Y-89949522D01*
X38085368Y-89779255D01*
X38105565Y-89600000D01*
X38095006Y-89506287D01*
X38085369Y-89420750D01*
X38085368Y-89420745D01*
X38075909Y-89393713D01*
X38025789Y-89250478D01*
X37929816Y-89097738D01*
X37802262Y-88970184D01*
X37649523Y-88874211D01*
X37479254Y-88814631D01*
X37479249Y-88814630D01*
X37300004Y-88794435D01*
X37299996Y-88794435D01*
X37120750Y-88814630D01*
X37120745Y-88814631D01*
X36950476Y-88874211D01*
X36797737Y-88970184D01*
X36670184Y-89097737D01*
X36574211Y-89250476D01*
X36514631Y-89420745D01*
X36514630Y-89420750D01*
X36494435Y-89599996D01*
X36494435Y-89600003D01*
X22950500Y-89600003D01*
X22950500Y-89393713D01*
X22917246Y-89183757D01*
X22851557Y-88981588D01*
X22755051Y-88792184D01*
X22755049Y-88792181D01*
X22755048Y-88792179D01*
X22630109Y-88620213D01*
X22479786Y-88469890D01*
X22307820Y-88344951D01*
X22118414Y-88248444D01*
X22118413Y-88248443D01*
X22118412Y-88248443D01*
X21916243Y-88182754D01*
X21916241Y-88182753D01*
X21916240Y-88182753D01*
X21754957Y-88157208D01*
X21706287Y-88149500D01*
X21243713Y-88149500D01*
X21195042Y-88157208D01*
X21033760Y-88182753D01*
X20831585Y-88248444D01*
X20642179Y-88344951D01*
X20470213Y-88469890D01*
X20319890Y-88620213D01*
X20194951Y-88792179D01*
X20098444Y-88981585D01*
X20032753Y-89183760D01*
X19999500Y-89393713D01*
X19999500Y-89606286D01*
X20026895Y-89779255D01*
X20032754Y-89816243D01*
X20076059Y-89949522D01*
X20098444Y-90018414D01*
X20194951Y-90207820D01*
X20319890Y-90379786D01*
X20470209Y-90530105D01*
X20470214Y-90530109D01*
X20634793Y-90649682D01*
X20677459Y-90705011D01*
X20683438Y-90774625D01*
X20650833Y-90836420D01*
X20634793Y-90850318D01*
X20470214Y-90969890D01*
X20470209Y-90969894D01*
X20319890Y-91120213D01*
X20194951Y-91292179D01*
X20098444Y-91481585D01*
X20032753Y-91683760D01*
X19999500Y-91893713D01*
X19999500Y-92106286D01*
X20032753Y-92316239D01*
X20098444Y-92518414D01*
X20194951Y-92707820D01*
X20319890Y-92879786D01*
X20458705Y-93018601D01*
X20492190Y-93079924D01*
X20487206Y-93149616D01*
X20445334Y-93205549D01*
X20436121Y-93211821D01*
X20281342Y-93307289D01*
X20157289Y-93431342D01*
X20065187Y-93580663D01*
X20065185Y-93580668D01*
X20037349Y-93664670D01*
X20010001Y-93747203D01*
X20010001Y-93747204D01*
X20010000Y-93747204D01*
X19999500Y-93849983D01*
X19999500Y-95150001D01*
X17500500Y-95150001D01*
X17500500Y-87800003D01*
X38394435Y-87800003D01*
X38414630Y-87979249D01*
X38414631Y-87979254D01*
X38474211Y-88149523D01*
X38534172Y-88244949D01*
X38570184Y-88302262D01*
X38697738Y-88429816D01*
X38850478Y-88525789D01*
X39020745Y-88585368D01*
X39020750Y-88585369D01*
X39199996Y-88605565D01*
X39200000Y-88605565D01*
X39200004Y-88605565D01*
X39379249Y-88585369D01*
X39379252Y-88585368D01*
X39379255Y-88585368D01*
X39549522Y-88525789D01*
X39702262Y-88429816D01*
X39829816Y-88302262D01*
X39925789Y-88149522D01*
X39985368Y-87979255D01*
X39985369Y-87979249D01*
X40005565Y-87800003D01*
X40005565Y-87799996D01*
X39985369Y-87620750D01*
X39985368Y-87620745D01*
X39980844Y-87607816D01*
X39925789Y-87450478D01*
X39829816Y-87297738D01*
X39702262Y-87170184D01*
X39549523Y-87074211D01*
X39379254Y-87014631D01*
X39379249Y-87014630D01*
X39200004Y-86994435D01*
X39199996Y-86994435D01*
X39020750Y-87014630D01*
X39020745Y-87014631D01*
X38850476Y-87074211D01*
X38697737Y-87170184D01*
X38570184Y-87297737D01*
X38474211Y-87450476D01*
X38414631Y-87620745D01*
X38414630Y-87620750D01*
X38394435Y-87799996D01*
X38394435Y-87800003D01*
X17500500Y-87800003D01*
X17500500Y-86750003D01*
X33194435Y-86750003D01*
X33214630Y-86929249D01*
X33214631Y-86929254D01*
X33274211Y-87099523D01*
X33318611Y-87170184D01*
X33370184Y-87252262D01*
X33497738Y-87379816D01*
X33559163Y-87418412D01*
X33610192Y-87450476D01*
X33650478Y-87475789D01*
X33820745Y-87535368D01*
X33820750Y-87535369D01*
X33999996Y-87555565D01*
X34000000Y-87555565D01*
X34000004Y-87555565D01*
X34179249Y-87535369D01*
X34179252Y-87535368D01*
X34179255Y-87535368D01*
X34349522Y-87475789D01*
X34502262Y-87379816D01*
X34629816Y-87252262D01*
X34725789Y-87099522D01*
X34785368Y-86929255D01*
X34805565Y-86750000D01*
X34786834Y-86583760D01*
X34785369Y-86570750D01*
X34785368Y-86570745D01*
X34725788Y-86400476D01*
X34629815Y-86247737D01*
X34502262Y-86120184D01*
X34349523Y-86024211D01*
X34179254Y-85964631D01*
X34179249Y-85964630D01*
X34000004Y-85944435D01*
X33999996Y-85944435D01*
X33820750Y-85964630D01*
X33820745Y-85964631D01*
X33650476Y-86024211D01*
X33497737Y-86120184D01*
X33370184Y-86247737D01*
X33274211Y-86400476D01*
X33214631Y-86570745D01*
X33214630Y-86570750D01*
X33194435Y-86749996D01*
X33194435Y-86750003D01*
X17500500Y-86750003D01*
X17500500Y-82122934D01*
X20249500Y-82122934D01*
X20266293Y-82250479D01*
X20281591Y-82366677D01*
X20338551Y-82579255D01*
X20345222Y-82604152D01*
X20345225Y-82604162D01*
X20417974Y-82779792D01*
X20439306Y-82831292D01*
X20562233Y-83044208D01*
X20562235Y-83044211D01*
X20562236Y-83044212D01*
X20711897Y-83239254D01*
X20711903Y-83239261D01*
X20885738Y-83413096D01*
X20885744Y-83413101D01*
X21080792Y-83562767D01*
X21293708Y-83685694D01*
X21520847Y-83779778D01*
X21758323Y-83843409D01*
X22002073Y-83875500D01*
X22002080Y-83875500D01*
X23997920Y-83875500D01*
X23997927Y-83875500D01*
X24241677Y-83843409D01*
X24479153Y-83779778D01*
X24706292Y-83685694D01*
X24919208Y-83562767D01*
X25114256Y-83413101D01*
X25288101Y-83239256D01*
X25437767Y-83044208D01*
X25560694Y-82831292D01*
X25654778Y-82604153D01*
X25718409Y-82366677D01*
X25750500Y-82122927D01*
X25750500Y-81877073D01*
X25718409Y-81633323D01*
X25654778Y-81395847D01*
X25648870Y-81381585D01*
X25594563Y-81250475D01*
X25560694Y-81168708D01*
X25495110Y-81055113D01*
X29394532Y-81055113D01*
X29414364Y-81281798D01*
X29414366Y-81281809D01*
X29473258Y-81501600D01*
X29473260Y-81501604D01*
X29473261Y-81501608D01*
X29495825Y-81549996D01*
X29569431Y-81707845D01*
X29569433Y-81707849D01*
X29578409Y-81720667D01*
X29600737Y-81786873D01*
X29583727Y-81854640D01*
X29551150Y-81891054D01*
X29542462Y-81897558D01*
X29542451Y-81897569D01*
X29456206Y-82012776D01*
X29456202Y-82012783D01*
X29405908Y-82147629D01*
X29400227Y-82200475D01*
X29399501Y-82207235D01*
X29399500Y-82207247D01*
X29399500Y-83902982D01*
X29399501Y-83902988D01*
X29405908Y-83962595D01*
X29456202Y-84097440D01*
X29456206Y-84097447D01*
X29542452Y-84212656D01*
X29542455Y-84212659D01*
X29657664Y-84298905D01*
X29657671Y-84298909D01*
X29792517Y-84349203D01*
X29792516Y-84349203D01*
X29799444Y-84349947D01*
X29852127Y-84355612D01*
X31547872Y-84355611D01*
X31607483Y-84349203D01*
X31742331Y-84298908D01*
X31857546Y-84212658D01*
X31943796Y-84097443D01*
X31994091Y-83962595D01*
X32000500Y-83902985D01*
X32000499Y-82207240D01*
X31994091Y-82147629D01*
X31987447Y-82129816D01*
X31943797Y-82012783D01*
X31943793Y-82012776D01*
X31857548Y-81897569D01*
X31857546Y-81897566D01*
X31857544Y-81897564D01*
X31857542Y-81897562D01*
X31848852Y-81891057D01*
X31806981Y-81835122D01*
X31801998Y-81765430D01*
X31821593Y-81720663D01*
X31830568Y-81707846D01*
X31926739Y-81501608D01*
X31985635Y-81281804D01*
X32004149Y-81070184D01*
X32005468Y-81055113D01*
X35094532Y-81055113D01*
X35114364Y-81281798D01*
X35114366Y-81281809D01*
X35173258Y-81501600D01*
X35173260Y-81501604D01*
X35173261Y-81501608D01*
X35195825Y-81549996D01*
X35269431Y-81707845D01*
X35269433Y-81707849D01*
X35278409Y-81720667D01*
X35300737Y-81786873D01*
X35283727Y-81854640D01*
X35251150Y-81891054D01*
X35242462Y-81897558D01*
X35242451Y-81897569D01*
X35156206Y-82012776D01*
X35156202Y-82012783D01*
X35105908Y-82147629D01*
X35100227Y-82200475D01*
X35099501Y-82207235D01*
X35099500Y-82207247D01*
X35099500Y-83902982D01*
X35099501Y-83902988D01*
X35105908Y-83962595D01*
X35156202Y-84097440D01*
X35156206Y-84097447D01*
X35242452Y-84212656D01*
X35242455Y-84212659D01*
X35357664Y-84298905D01*
X35357671Y-84298909D01*
X35492517Y-84349203D01*
X35492516Y-84349203D01*
X35499444Y-84349947D01*
X35552127Y-84355612D01*
X37247872Y-84355611D01*
X37307483Y-84349203D01*
X37442331Y-84298908D01*
X37557546Y-84212658D01*
X37643796Y-84097443D01*
X37694091Y-83962595D01*
X37700500Y-83902985D01*
X37700499Y-82207240D01*
X37694091Y-82147629D01*
X37687447Y-82129816D01*
X37643797Y-82012783D01*
X37643793Y-82012776D01*
X37557548Y-81897569D01*
X37557546Y-81897566D01*
X37557544Y-81897564D01*
X37557542Y-81897562D01*
X37548852Y-81891057D01*
X37506981Y-81835122D01*
X37501998Y-81765430D01*
X37521593Y-81720663D01*
X37530568Y-81707846D01*
X37626739Y-81501608D01*
X37685635Y-81281804D01*
X37704149Y-81070184D01*
X37705468Y-81055113D01*
X37705468Y-81055110D01*
X37696495Y-80952548D01*
X37685635Y-80828420D01*
X37626739Y-80608616D01*
X37573760Y-80495003D01*
X39344435Y-80495003D01*
X39364630Y-80674249D01*
X39364631Y-80674254D01*
X39394896Y-80760745D01*
X39424211Y-80844522D01*
X39492088Y-80952548D01*
X39497089Y-80960506D01*
X39516089Y-81027742D01*
X39497089Y-81092450D01*
X39429211Y-81200476D01*
X39369631Y-81370745D01*
X39369630Y-81370750D01*
X39349435Y-81549996D01*
X39349435Y-81550003D01*
X39369630Y-81729249D01*
X39369633Y-81729262D01*
X39429209Y-81899520D01*
X39482309Y-81984029D01*
X39501309Y-82051266D01*
X39482309Y-82115971D01*
X39429209Y-82200479D01*
X39369633Y-82370737D01*
X39369630Y-82370750D01*
X39349435Y-82549996D01*
X39349435Y-82550003D01*
X39369630Y-82729249D01*
X39369631Y-82729254D01*
X39429211Y-82899523D01*
X39511080Y-83029815D01*
X39525184Y-83052262D01*
X39652738Y-83179816D01*
X39805478Y-83275789D01*
X39948367Y-83325788D01*
X39975745Y-83335368D01*
X39975750Y-83335369D01*
X40154996Y-83355565D01*
X40155000Y-83355565D01*
X40155004Y-83355565D01*
X40334249Y-83335369D01*
X40334252Y-83335368D01*
X40334255Y-83335368D01*
X40504522Y-83275789D01*
X40657262Y-83179816D01*
X40784816Y-83052262D01*
X40880789Y-82899522D01*
X40940368Y-82729255D01*
X40940369Y-82729249D01*
X40960565Y-82550003D01*
X40960565Y-82549996D01*
X40940369Y-82370750D01*
X40940368Y-82370745D01*
X40880788Y-82200475D01*
X40827691Y-82115973D01*
X40808690Y-82048736D01*
X40827691Y-81984027D01*
X40880788Y-81899524D01*
X40880789Y-81899522D01*
X40940368Y-81729255D01*
X40942780Y-81707848D01*
X40960565Y-81550003D01*
X40960565Y-81549996D01*
X40954932Y-81500003D01*
X41894435Y-81500003D01*
X41914630Y-81679249D01*
X41914631Y-81679254D01*
X41974211Y-81849523D01*
X42005628Y-81899522D01*
X42070184Y-82002262D01*
X42197738Y-82129816D01*
X42288080Y-82186582D01*
X42342450Y-82220745D01*
X42350478Y-82225789D01*
X42421038Y-82250479D01*
X42520745Y-82285368D01*
X42520750Y-82285369D01*
X42699996Y-82305565D01*
X42700000Y-82305565D01*
X42700004Y-82305565D01*
X42879249Y-82285369D01*
X42879252Y-82285368D01*
X42879255Y-82285368D01*
X43049522Y-82225789D01*
X43202262Y-82129816D01*
X43329816Y-82002262D01*
X43425789Y-81849522D01*
X43485368Y-81679255D01*
X43485369Y-81679249D01*
X43505565Y-81500003D01*
X43505565Y-81499996D01*
X43485369Y-81320750D01*
X43485368Y-81320745D01*
X43471740Y-81281798D01*
X43425789Y-81150478D01*
X43329816Y-80997738D01*
X43202262Y-80870184D01*
X43201794Y-80869890D01*
X43049523Y-80774211D01*
X42879254Y-80714631D01*
X42879249Y-80714630D01*
X42700004Y-80694435D01*
X42699996Y-80694435D01*
X42520750Y-80714630D01*
X42520745Y-80714631D01*
X42350476Y-80774211D01*
X42197737Y-80870184D01*
X42070184Y-80997737D01*
X41974211Y-81150476D01*
X41914631Y-81320745D01*
X41914630Y-81320750D01*
X41894435Y-81499996D01*
X41894435Y-81500003D01*
X40954932Y-81500003D01*
X40940369Y-81370750D01*
X40940368Y-81370745D01*
X40880788Y-81200475D01*
X40807911Y-81084494D01*
X40788910Y-81017257D01*
X40807910Y-80952550D01*
X40857514Y-80873606D01*
X40875788Y-80844524D01*
X40875789Y-80844522D01*
X40935368Y-80674255D01*
X40938101Y-80650000D01*
X40949931Y-80545003D01*
X48244435Y-80545003D01*
X48264630Y-80724249D01*
X48264631Y-80724254D01*
X48306715Y-80844522D01*
X48324211Y-80894522D01*
X48392088Y-81002548D01*
X48397089Y-81010506D01*
X48416089Y-81077742D01*
X48397089Y-81142450D01*
X48329211Y-81250476D01*
X48269631Y-81420745D01*
X48269630Y-81420750D01*
X48249435Y-81599996D01*
X48249435Y-81600003D01*
X48269630Y-81779249D01*
X48269633Y-81779262D01*
X48329209Y-81949520D01*
X48382309Y-82034029D01*
X48401309Y-82101266D01*
X48382309Y-82165971D01*
X48329209Y-82250479D01*
X48269633Y-82420737D01*
X48269630Y-82420750D01*
X48249435Y-82599996D01*
X48249435Y-82600003D01*
X48269630Y-82779249D01*
X48269631Y-82779254D01*
X48329211Y-82949523D01*
X48392145Y-83049681D01*
X48425184Y-83102262D01*
X48552738Y-83229816D01*
X48705478Y-83325789D01*
X48831523Y-83369894D01*
X48875745Y-83385368D01*
X48875750Y-83385369D01*
X49054996Y-83405565D01*
X49055000Y-83405565D01*
X49055003Y-83405565D01*
X49165188Y-83393150D01*
X49234010Y-83405204D01*
X49285390Y-83452553D01*
X49303014Y-83520164D01*
X49302293Y-83530252D01*
X49298630Y-83562767D01*
X49294436Y-83599997D01*
X49294435Y-83600003D01*
X49314630Y-83779249D01*
X49314631Y-83779254D01*
X49374211Y-83949523D01*
X49458558Y-84083760D01*
X49470184Y-84102262D01*
X49597738Y-84229816D01*
X49607066Y-84235677D01*
X49694021Y-84290315D01*
X49750478Y-84325789D01*
X49877352Y-84370184D01*
X49920745Y-84385368D01*
X49920750Y-84385369D01*
X50099996Y-84405565D01*
X50100000Y-84405565D01*
X50100004Y-84405565D01*
X50279249Y-84385369D01*
X50279252Y-84385368D01*
X50279255Y-84385368D01*
X50449522Y-84325789D01*
X50602262Y-84229816D01*
X50729816Y-84102262D01*
X50825789Y-83949522D01*
X50885368Y-83779255D01*
X50885369Y-83779249D01*
X50905565Y-83600003D01*
X50905565Y-83599997D01*
X50898928Y-83541095D01*
X50910982Y-83472273D01*
X50958331Y-83420894D01*
X51025941Y-83403269D01*
X51036024Y-83403990D01*
X51050000Y-83405565D01*
X51050000Y-83405564D01*
X51050001Y-83405565D01*
X51050004Y-83405565D01*
X51229249Y-83385369D01*
X51229252Y-83385368D01*
X51229255Y-83385368D01*
X51399522Y-83325789D01*
X51552262Y-83229816D01*
X51679816Y-83102262D01*
X51775789Y-82949522D01*
X51835368Y-82779255D01*
X51841002Y-82729254D01*
X51855565Y-82600003D01*
X51855565Y-82599996D01*
X51835369Y-82420750D01*
X51835368Y-82420745D01*
X51775788Y-82250475D01*
X51722691Y-82165973D01*
X51703690Y-82098736D01*
X51722691Y-82034027D01*
X51775788Y-81949524D01*
X51775789Y-81949522D01*
X51835368Y-81779255D01*
X51841002Y-81729254D01*
X51844298Y-81700003D01*
X52794435Y-81700003D01*
X52814630Y-81879249D01*
X52814631Y-81879254D01*
X52874211Y-82049523D01*
X52915965Y-82115973D01*
X52970184Y-82202262D01*
X53097738Y-82329816D01*
X53156388Y-82366668D01*
X53242450Y-82420745D01*
X53250478Y-82425789D01*
X53420745Y-82485368D01*
X53420750Y-82485369D01*
X53599996Y-82505565D01*
X53600000Y-82505565D01*
X53600004Y-82505565D01*
X53779249Y-82485369D01*
X53779252Y-82485368D01*
X53779255Y-82485368D01*
X53949522Y-82425789D01*
X53990560Y-82400003D01*
X56599435Y-82400003D01*
X56619630Y-82579249D01*
X56619631Y-82579254D01*
X56679211Y-82749523D01*
X56730592Y-82831294D01*
X56775184Y-82902262D01*
X56902738Y-83029816D01*
X56956473Y-83063580D01*
X57054820Y-83125376D01*
X57055478Y-83125789D01*
X57209878Y-83179816D01*
X57225745Y-83185368D01*
X57225750Y-83185369D01*
X57404996Y-83205565D01*
X57405000Y-83205565D01*
X57405004Y-83205565D01*
X57584249Y-83185369D01*
X57584252Y-83185368D01*
X57584255Y-83185368D01*
X57754522Y-83125789D01*
X57907262Y-83029816D01*
X58034816Y-82902262D01*
X58130789Y-82749522D01*
X58190368Y-82579255D01*
X58193664Y-82550003D01*
X58210565Y-82400003D01*
X58210565Y-82399996D01*
X58190369Y-82220750D01*
X58190368Y-82220745D01*
X58185638Y-82207228D01*
X58130789Y-82050478D01*
X58130188Y-82049522D01*
X58035937Y-81899522D01*
X58034816Y-81897738D01*
X57907262Y-81770184D01*
X57899696Y-81765430D01*
X57754523Y-81674211D01*
X57584254Y-81614631D01*
X57584249Y-81614630D01*
X57405004Y-81594435D01*
X57404996Y-81594435D01*
X57225750Y-81614630D01*
X57225745Y-81614631D01*
X57055476Y-81674211D01*
X56902737Y-81770184D01*
X56775184Y-81897737D01*
X56679211Y-82050476D01*
X56619631Y-82220745D01*
X56619630Y-82220750D01*
X56599435Y-82399996D01*
X56599435Y-82400003D01*
X53990560Y-82400003D01*
X54102262Y-82329816D01*
X54229816Y-82202262D01*
X54325789Y-82049522D01*
X54385368Y-81879255D01*
X54385615Y-81877065D01*
X54405565Y-81700003D01*
X54405565Y-81699996D01*
X54385369Y-81520750D01*
X54385368Y-81520745D01*
X54332882Y-81370750D01*
X54325789Y-81350478D01*
X54307106Y-81320745D01*
X54262955Y-81250478D01*
X54229816Y-81197738D01*
X54102262Y-81070184D01*
X54078272Y-81055110D01*
X53949523Y-80974211D01*
X53779254Y-80914631D01*
X53779249Y-80914630D01*
X53600004Y-80894435D01*
X53599996Y-80894435D01*
X53420750Y-80914630D01*
X53420745Y-80914631D01*
X53250476Y-80974211D01*
X53097737Y-81070184D01*
X52970184Y-81197737D01*
X52874211Y-81350476D01*
X52814631Y-81520745D01*
X52814630Y-81520750D01*
X52794435Y-81699996D01*
X52794435Y-81700003D01*
X51844298Y-81700003D01*
X51855565Y-81600003D01*
X51855565Y-81599996D01*
X51835369Y-81420750D01*
X51835368Y-81420745D01*
X51775788Y-81250475D01*
X51712955Y-81150478D01*
X51702910Y-81134492D01*
X51683910Y-81067257D01*
X51702910Y-81002550D01*
X51770789Y-80894522D01*
X51830368Y-80724255D01*
X51830369Y-80724249D01*
X51850565Y-80545003D01*
X51850565Y-80544996D01*
X51844932Y-80495003D01*
X59139435Y-80495003D01*
X59159630Y-80674249D01*
X59159631Y-80674254D01*
X59189896Y-80760745D01*
X59219211Y-80844522D01*
X59287088Y-80952548D01*
X59292089Y-80960506D01*
X59311089Y-81027742D01*
X59292089Y-81092450D01*
X59224211Y-81200476D01*
X59164631Y-81370745D01*
X59164630Y-81370750D01*
X59144435Y-81549996D01*
X59144435Y-81550003D01*
X59164630Y-81729249D01*
X59164633Y-81729262D01*
X59224209Y-81899520D01*
X59277309Y-81984029D01*
X59296309Y-82051266D01*
X59277309Y-82115971D01*
X59224209Y-82200479D01*
X59164633Y-82370737D01*
X59164630Y-82370750D01*
X59144435Y-82549996D01*
X59144435Y-82550003D01*
X59164630Y-82729249D01*
X59164631Y-82729254D01*
X59224211Y-82899523D01*
X59306080Y-83029815D01*
X59320184Y-83052262D01*
X59447738Y-83179816D01*
X59600478Y-83275789D01*
X59743367Y-83325788D01*
X59770745Y-83335368D01*
X59770750Y-83335369D01*
X59949996Y-83355565D01*
X59950000Y-83355565D01*
X59950004Y-83355565D01*
X60129249Y-83335369D01*
X60129252Y-83335368D01*
X60129255Y-83335368D01*
X60299522Y-83275789D01*
X60452262Y-83179816D01*
X60579816Y-83052262D01*
X60675789Y-82899522D01*
X60735368Y-82729255D01*
X60735369Y-82729249D01*
X60755565Y-82550003D01*
X60755565Y-82549996D01*
X60735369Y-82370750D01*
X60735368Y-82370745D01*
X60675788Y-82200475D01*
X60622691Y-82115973D01*
X60603690Y-82048736D01*
X60622691Y-81984027D01*
X60675788Y-81899524D01*
X60675789Y-81899522D01*
X60735368Y-81729255D01*
X60737780Y-81707848D01*
X60755565Y-81550003D01*
X60755565Y-81549996D01*
X60735369Y-81370750D01*
X60735368Y-81370745D01*
X60675788Y-81200475D01*
X60602911Y-81084494D01*
X60583910Y-81017257D01*
X60602910Y-80952550D01*
X60652514Y-80873606D01*
X60670788Y-80844524D01*
X60670789Y-80844522D01*
X60730368Y-80674255D01*
X60733101Y-80650000D01*
X60750565Y-80495003D01*
X60750565Y-80494996D01*
X60730369Y-80315750D01*
X60730368Y-80315745D01*
X60729863Y-80314303D01*
X60670789Y-80145478D01*
X60606051Y-80042449D01*
X60587052Y-79975214D01*
X60606052Y-79910507D01*
X60675789Y-79799522D01*
X60735368Y-79629255D01*
X60738664Y-79600003D01*
X60755565Y-79450003D01*
X60755565Y-79449996D01*
X60735369Y-79270750D01*
X60735368Y-79270745D01*
X60675788Y-79100476D01*
X60611232Y-78997737D01*
X60579816Y-78947738D01*
X60452262Y-78820184D01*
X60443426Y-78814632D01*
X60299523Y-78724211D01*
X60129254Y-78664631D01*
X60129249Y-78664630D01*
X59950004Y-78644435D01*
X59949996Y-78644435D01*
X59770750Y-78664630D01*
X59770745Y-78664631D01*
X59600476Y-78724211D01*
X59447737Y-78820184D01*
X59320184Y-78947737D01*
X59224211Y-79100476D01*
X59164631Y-79270745D01*
X59164630Y-79270750D01*
X59144435Y-79449996D01*
X59144435Y-79450003D01*
X59164630Y-79629249D01*
X59164631Y-79629254D01*
X59224211Y-79799523D01*
X59288947Y-79902549D01*
X59307947Y-79969786D01*
X59288947Y-80034493D01*
X59219211Y-80145476D01*
X59159631Y-80315745D01*
X59159630Y-80315750D01*
X59139435Y-80494996D01*
X59139435Y-80495003D01*
X51844932Y-80495003D01*
X51830369Y-80365750D01*
X51830368Y-80365745D01*
X51812369Y-80314306D01*
X51770789Y-80195478D01*
X51706051Y-80092449D01*
X51687052Y-80025214D01*
X51706052Y-79960507D01*
X51775789Y-79849522D01*
X51835368Y-79679255D01*
X51841002Y-79629254D01*
X51855565Y-79500003D01*
X51855565Y-79499996D01*
X51835369Y-79320750D01*
X51835368Y-79320745D01*
X51817872Y-79270745D01*
X51775789Y-79150478D01*
X51679816Y-78997738D01*
X51552262Y-78870184D01*
X51463852Y-78814632D01*
X51399523Y-78774211D01*
X51229254Y-78714631D01*
X51229249Y-78714630D01*
X51050004Y-78694435D01*
X51050001Y-78694435D01*
X51050000Y-78694435D01*
X51045622Y-78694928D01*
X51029973Y-78696691D01*
X50961151Y-78684634D01*
X50909773Y-78637283D01*
X50892873Y-78587353D01*
X50885369Y-78520749D01*
X50885368Y-78520745D01*
X50847700Y-78413096D01*
X50825789Y-78350478D01*
X50788397Y-78290969D01*
X50769397Y-78223737D01*
X50788397Y-78159030D01*
X50825789Y-78099522D01*
X50885368Y-77929255D01*
X50885369Y-77929249D01*
X50905565Y-77750003D01*
X50905565Y-77749996D01*
X50885369Y-77570750D01*
X50885368Y-77570745D01*
X50825788Y-77400476D01*
X50729815Y-77247737D01*
X50602262Y-77120184D01*
X50449523Y-77024211D01*
X50279254Y-76964631D01*
X50279249Y-76964630D01*
X50100004Y-76944435D01*
X50099996Y-76944435D01*
X49920750Y-76964630D01*
X49920745Y-76964631D01*
X49750476Y-77024211D01*
X49597737Y-77120184D01*
X49470184Y-77247737D01*
X49374211Y-77400476D01*
X49314631Y-77570745D01*
X49314630Y-77570750D01*
X49294435Y-77749996D01*
X49294435Y-77750003D01*
X49314630Y-77929249D01*
X49314631Y-77929254D01*
X49374212Y-78099525D01*
X49411600Y-78159029D01*
X49430600Y-78226266D01*
X49411600Y-78290971D01*
X49374212Y-78350474D01*
X49314631Y-78520745D01*
X49314630Y-78520749D01*
X49305935Y-78597924D01*
X49278868Y-78662338D01*
X49221273Y-78701893D01*
X49168832Y-78707260D01*
X49055004Y-78694435D01*
X49054996Y-78694435D01*
X48875750Y-78714630D01*
X48875745Y-78714631D01*
X48705476Y-78774211D01*
X48552737Y-78870184D01*
X48425184Y-78997737D01*
X48329211Y-79150476D01*
X48269631Y-79320745D01*
X48269630Y-79320750D01*
X48249435Y-79499996D01*
X48249435Y-79500003D01*
X48269630Y-79679249D01*
X48269631Y-79679254D01*
X48329211Y-79849523D01*
X48393947Y-79952549D01*
X48412947Y-80019786D01*
X48393947Y-80084493D01*
X48324211Y-80195476D01*
X48264631Y-80365745D01*
X48264630Y-80365750D01*
X48244435Y-80544996D01*
X48244435Y-80545003D01*
X40949931Y-80545003D01*
X40955565Y-80495003D01*
X40955565Y-80494996D01*
X40935369Y-80315750D01*
X40935368Y-80315745D01*
X40934863Y-80314303D01*
X40875789Y-80145478D01*
X40811051Y-80042449D01*
X40792052Y-79975214D01*
X40811052Y-79910507D01*
X40880789Y-79799522D01*
X40940368Y-79629255D01*
X40943664Y-79600003D01*
X45694435Y-79600003D01*
X45714630Y-79779249D01*
X45714631Y-79779254D01*
X45774211Y-79949523D01*
X45840528Y-80055065D01*
X45870184Y-80102262D01*
X45997738Y-80229816D01*
X46077265Y-80279786D01*
X46132204Y-80314307D01*
X46150478Y-80325789D01*
X46264666Y-80365745D01*
X46320745Y-80385368D01*
X46320750Y-80385369D01*
X46499996Y-80405565D01*
X46500000Y-80405565D01*
X46500004Y-80405565D01*
X46679249Y-80385369D01*
X46679252Y-80385368D01*
X46679255Y-80385368D01*
X46849522Y-80325789D01*
X47002262Y-80229816D01*
X47129816Y-80102262D01*
X47225789Y-79949522D01*
X47285368Y-79779255D01*
X47286470Y-79769476D01*
X47305565Y-79600003D01*
X47305565Y-79599996D01*
X47285369Y-79420750D01*
X47285368Y-79420745D01*
X47250376Y-79320745D01*
X47225789Y-79250478D01*
X47129816Y-79097738D01*
X47002262Y-78970184D01*
X46849523Y-78874211D01*
X46679254Y-78814631D01*
X46679249Y-78814630D01*
X46500004Y-78794435D01*
X46499996Y-78794435D01*
X46320750Y-78814630D01*
X46320745Y-78814631D01*
X46150476Y-78874211D01*
X45997737Y-78970184D01*
X45870184Y-79097737D01*
X45774211Y-79250476D01*
X45714631Y-79420745D01*
X45714630Y-79420750D01*
X45694435Y-79599996D01*
X45694435Y-79600003D01*
X40943664Y-79600003D01*
X40960565Y-79450003D01*
X40960565Y-79449996D01*
X40940369Y-79270750D01*
X40940368Y-79270745D01*
X40880788Y-79100476D01*
X40816232Y-78997737D01*
X40784816Y-78947738D01*
X40657262Y-78820184D01*
X40648426Y-78814632D01*
X40504523Y-78724211D01*
X40334254Y-78664631D01*
X40334249Y-78664630D01*
X40155004Y-78644435D01*
X40154996Y-78644435D01*
X39975750Y-78664630D01*
X39975745Y-78664631D01*
X39805476Y-78724211D01*
X39652737Y-78820184D01*
X39525184Y-78947737D01*
X39429211Y-79100476D01*
X39369631Y-79270745D01*
X39369630Y-79270750D01*
X39349435Y-79449996D01*
X39349435Y-79450003D01*
X39369630Y-79629249D01*
X39369631Y-79629254D01*
X39429211Y-79799523D01*
X39493947Y-79902549D01*
X39512947Y-79969786D01*
X39493947Y-80034493D01*
X39424211Y-80145476D01*
X39364631Y-80315745D01*
X39364630Y-80315750D01*
X39344435Y-80494996D01*
X39344435Y-80495003D01*
X37573760Y-80495003D01*
X37530568Y-80402378D01*
X37400047Y-80215973D01*
X37400045Y-80215970D01*
X37239141Y-80055066D01*
X37052734Y-79924544D01*
X37052732Y-79924543D01*
X36846497Y-79828373D01*
X36846488Y-79828370D01*
X36626697Y-79769478D01*
X36626693Y-79769477D01*
X36626692Y-79769477D01*
X36626691Y-79769476D01*
X36626686Y-79769476D01*
X36400002Y-79749644D01*
X36399998Y-79749644D01*
X36173313Y-79769476D01*
X36173302Y-79769478D01*
X35953511Y-79828370D01*
X35953502Y-79828373D01*
X35747267Y-79924543D01*
X35747265Y-79924544D01*
X35560858Y-80055066D01*
X35399954Y-80215970D01*
X35269432Y-80402377D01*
X35269431Y-80402379D01*
X35173261Y-80608614D01*
X35173258Y-80608623D01*
X35114366Y-80828414D01*
X35114364Y-80828425D01*
X35094532Y-81055110D01*
X35094532Y-81055113D01*
X32005468Y-81055113D01*
X32005468Y-81055110D01*
X31996495Y-80952548D01*
X31985635Y-80828420D01*
X31926739Y-80608616D01*
X31830568Y-80402378D01*
X31700047Y-80215973D01*
X31700045Y-80215970D01*
X31539141Y-80055066D01*
X31352734Y-79924544D01*
X31352732Y-79924543D01*
X31146497Y-79828373D01*
X31146488Y-79828370D01*
X30926697Y-79769478D01*
X30926693Y-79769477D01*
X30926692Y-79769477D01*
X30926691Y-79769476D01*
X30926686Y-79769476D01*
X30700002Y-79749644D01*
X30699998Y-79749644D01*
X30473313Y-79769476D01*
X30473302Y-79769478D01*
X30253511Y-79828370D01*
X30253502Y-79828373D01*
X30047267Y-79924543D01*
X30047265Y-79924544D01*
X29860858Y-80055066D01*
X29699954Y-80215970D01*
X29569432Y-80402377D01*
X29569431Y-80402379D01*
X29473261Y-80608614D01*
X29473258Y-80608623D01*
X29414366Y-80828414D01*
X29414364Y-80828425D01*
X29394532Y-81055110D01*
X29394532Y-81055113D01*
X25495110Y-81055113D01*
X25437767Y-80955792D01*
X25376030Y-80875335D01*
X25288102Y-80760745D01*
X25288096Y-80760738D01*
X25114261Y-80586903D01*
X25114254Y-80586897D01*
X24919212Y-80437236D01*
X24919211Y-80437235D01*
X24919208Y-80437233D01*
X24726181Y-80325789D01*
X24706294Y-80314307D01*
X24706285Y-80314303D01*
X24479162Y-80220225D01*
X24479155Y-80220223D01*
X24479153Y-80220222D01*
X24241677Y-80156591D01*
X24200939Y-80151227D01*
X23997934Y-80124500D01*
X23997927Y-80124500D01*
X22002073Y-80124500D01*
X22002065Y-80124500D01*
X21770059Y-80155045D01*
X21758323Y-80156591D01*
X21613194Y-80195478D01*
X21520847Y-80220222D01*
X21520837Y-80220225D01*
X21293714Y-80314303D01*
X21293705Y-80314307D01*
X21080787Y-80437236D01*
X20885745Y-80586897D01*
X20885738Y-80586903D01*
X20711903Y-80760738D01*
X20711897Y-80760745D01*
X20562236Y-80955787D01*
X20439307Y-81168705D01*
X20439303Y-81168714D01*
X20345225Y-81395837D01*
X20345222Y-81395847D01*
X20286600Y-81614631D01*
X20281592Y-81633320D01*
X20281590Y-81633331D01*
X20249500Y-81877065D01*
X20249500Y-82122934D01*
X17500500Y-82122934D01*
X17500500Y-77122934D01*
X20249500Y-77122934D01*
X20265932Y-77247737D01*
X20281591Y-77366677D01*
X20336272Y-77570750D01*
X20345222Y-77604152D01*
X20345225Y-77604162D01*
X20405635Y-77750003D01*
X20439306Y-77831292D01*
X20562233Y-78044208D01*
X20562235Y-78044211D01*
X20562236Y-78044212D01*
X20711897Y-78239254D01*
X20711903Y-78239261D01*
X20885738Y-78413096D01*
X20885744Y-78413101D01*
X21080792Y-78562767D01*
X21293708Y-78685694D01*
X21520847Y-78779778D01*
X21758323Y-78843409D01*
X22002073Y-78875500D01*
X22002080Y-78875500D01*
X23997920Y-78875500D01*
X23997927Y-78875500D01*
X24241677Y-78843409D01*
X24479153Y-78779778D01*
X24706292Y-78685694D01*
X24919208Y-78562767D01*
X25114256Y-78413101D01*
X25288101Y-78239256D01*
X25437767Y-78044208D01*
X25560694Y-77831292D01*
X25654778Y-77604153D01*
X25718409Y-77366677D01*
X25750500Y-77122927D01*
X25750500Y-76877073D01*
X25718409Y-76633323D01*
X25654778Y-76395847D01*
X25560694Y-76168708D01*
X25437767Y-75955792D01*
X25288101Y-75760744D01*
X25288096Y-75760738D01*
X25114261Y-75586903D01*
X25114254Y-75586897D01*
X24919212Y-75437236D01*
X24919211Y-75437235D01*
X24919208Y-75437233D01*
X24706292Y-75314306D01*
X24706285Y-75314303D01*
X24479162Y-75220225D01*
X24479155Y-75220223D01*
X24479153Y-75220222D01*
X24241677Y-75156591D01*
X24200939Y-75151227D01*
X23997934Y-75124500D01*
X23997927Y-75124500D01*
X22002073Y-75124500D01*
X22002065Y-75124500D01*
X21770059Y-75155045D01*
X21758323Y-75156591D01*
X21520847Y-75220222D01*
X21520837Y-75220225D01*
X21293714Y-75314303D01*
X21293705Y-75314307D01*
X21080787Y-75437236D01*
X20885745Y-75586897D01*
X20885738Y-75586903D01*
X20711903Y-75760738D01*
X20711897Y-75760745D01*
X20562236Y-75955787D01*
X20439307Y-76168705D01*
X20439303Y-76168714D01*
X20345225Y-76395837D01*
X20345222Y-76395847D01*
X20281592Y-76633320D01*
X20281590Y-76633331D01*
X20249500Y-76877065D01*
X20249500Y-77122934D01*
X17500500Y-77122934D01*
X17500500Y-73547870D01*
X19999500Y-73547870D01*
X19999501Y-73547876D01*
X20005908Y-73607483D01*
X20056202Y-73742328D01*
X20056206Y-73742335D01*
X20142452Y-73857544D01*
X20142455Y-73857547D01*
X20257664Y-73943793D01*
X20257671Y-73943797D01*
X20392517Y-73994091D01*
X20392516Y-73994091D01*
X20399444Y-73994835D01*
X20452127Y-74000500D01*
X25547872Y-74000499D01*
X25607483Y-73994091D01*
X25742331Y-73943796D01*
X25857546Y-73857546D01*
X25943796Y-73742331D01*
X25994091Y-73607483D01*
X26000500Y-73547873D01*
X26000499Y-70452128D01*
X25994091Y-70392517D01*
X25943796Y-70257669D01*
X25943795Y-70257668D01*
X25943793Y-70257664D01*
X25857547Y-70142455D01*
X25857544Y-70142452D01*
X25742335Y-70056206D01*
X25742328Y-70056202D01*
X25607482Y-70005908D01*
X25607483Y-70005908D01*
X25547883Y-69999501D01*
X25547881Y-69999500D01*
X25547873Y-69999500D01*
X25547864Y-69999500D01*
X20452129Y-69999500D01*
X20452123Y-69999501D01*
X20392516Y-70005908D01*
X20257671Y-70056202D01*
X20257664Y-70056206D01*
X20142455Y-70142452D01*
X20142452Y-70142455D01*
X20056206Y-70257664D01*
X20056202Y-70257671D01*
X20005908Y-70392517D01*
X19999501Y-70452116D01*
X19999501Y-70452123D01*
X19999500Y-70452135D01*
X19999500Y-73547870D01*
X17500500Y-73547870D01*
X17500500Y-67100003D01*
X40494435Y-67100003D01*
X40514630Y-67279249D01*
X40514631Y-67279254D01*
X40574211Y-67449523D01*
X40624662Y-67529815D01*
X40670184Y-67602262D01*
X40797738Y-67729816D01*
X40950478Y-67825789D01*
X41120745Y-67885368D01*
X41120750Y-67885369D01*
X41299996Y-67905565D01*
X41300000Y-67905565D01*
X41300004Y-67905565D01*
X41479249Y-67885369D01*
X41479252Y-67885368D01*
X41479255Y-67885368D01*
X41649522Y-67825789D01*
X41802262Y-67729816D01*
X41929816Y-67602262D01*
X42025789Y-67449522D01*
X42085368Y-67279255D01*
X42105565Y-67100000D01*
X42085368Y-66920745D01*
X42078110Y-66900003D01*
X50594435Y-66900003D01*
X50614630Y-67079249D01*
X50614631Y-67079254D01*
X50674211Y-67249523D01*
X50770184Y-67402262D01*
X50897738Y-67529816D01*
X51050478Y-67625789D01*
X51220745Y-67685368D01*
X51220750Y-67685369D01*
X51399996Y-67705565D01*
X51400000Y-67705565D01*
X51400004Y-67705565D01*
X51579249Y-67685369D01*
X51579252Y-67685368D01*
X51579255Y-67685368D01*
X51749522Y-67625789D01*
X51902262Y-67529816D01*
X52029816Y-67402262D01*
X52125789Y-67249522D01*
X52185368Y-67079255D01*
X52205565Y-66900000D01*
X52188718Y-66750478D01*
X52185369Y-66720750D01*
X52185368Y-66720745D01*
X52142326Y-66597738D01*
X52125789Y-66550478D01*
X52029816Y-66397738D01*
X51902262Y-66270184D01*
X51749523Y-66174211D01*
X51579254Y-66114631D01*
X51579249Y-66114630D01*
X51400004Y-66094435D01*
X51399996Y-66094435D01*
X51220750Y-66114630D01*
X51220745Y-66114631D01*
X51050476Y-66174211D01*
X50897737Y-66270184D01*
X50770184Y-66397737D01*
X50674211Y-66550476D01*
X50614631Y-66720745D01*
X50614630Y-66720750D01*
X50594435Y-66899996D01*
X50594435Y-66900003D01*
X42078110Y-66900003D01*
X42025789Y-66750478D01*
X42007106Y-66720745D01*
X41929815Y-66597737D01*
X41802262Y-66470184D01*
X41649523Y-66374211D01*
X41479254Y-66314631D01*
X41479249Y-66314630D01*
X41300004Y-66294435D01*
X41299996Y-66294435D01*
X41120750Y-66314630D01*
X41120745Y-66314631D01*
X40950476Y-66374211D01*
X40797737Y-66470184D01*
X40670184Y-66597737D01*
X40574211Y-66750476D01*
X40514631Y-66920745D01*
X40514630Y-66920750D01*
X40494435Y-67099996D01*
X40494435Y-67100003D01*
X17500500Y-67100003D01*
X17500500Y-64900003D01*
X33094435Y-64900003D01*
X33114630Y-65079249D01*
X33114631Y-65079254D01*
X33174211Y-65249523D01*
X33270184Y-65402262D01*
X33397738Y-65529816D01*
X33550478Y-65625789D01*
X33720745Y-65685368D01*
X33720750Y-65685369D01*
X33899996Y-65705565D01*
X33900000Y-65705565D01*
X33900004Y-65705565D01*
X34079249Y-65685369D01*
X34079252Y-65685368D01*
X34079255Y-65685368D01*
X34249522Y-65625789D01*
X34402262Y-65529816D01*
X34529816Y-65402262D01*
X34625789Y-65249522D01*
X34685368Y-65079255D01*
X34705565Y-64900000D01*
X34685368Y-64720745D01*
X34625789Y-64550478D01*
X34529816Y-64397738D01*
X34402262Y-64270184D01*
X34249523Y-64174211D01*
X34079254Y-64114631D01*
X34079249Y-64114630D01*
X33900004Y-64094435D01*
X33899996Y-64094435D01*
X33720750Y-64114630D01*
X33720745Y-64114631D01*
X33550476Y-64174211D01*
X33397737Y-64270184D01*
X33270184Y-64397737D01*
X33174211Y-64550476D01*
X33114631Y-64720745D01*
X33114630Y-64720750D01*
X33094435Y-64899996D01*
X33094435Y-64900003D01*
X17500500Y-64900003D01*
X17500500Y-62545005D01*
X18294357Y-62545005D01*
X18314890Y-62792812D01*
X18314892Y-62792824D01*
X18375936Y-63033881D01*
X18475826Y-63261606D01*
X18611833Y-63469782D01*
X18611836Y-63469785D01*
X18780256Y-63652738D01*
X18976491Y-63805474D01*
X19195190Y-63923828D01*
X19430386Y-64004571D01*
X19675665Y-64045500D01*
X19924335Y-64045500D01*
X20169614Y-64004571D01*
X20404810Y-63923828D01*
X20623509Y-63805474D01*
X20819744Y-63652738D01*
X20988164Y-63469785D01*
X21124173Y-63261607D01*
X21195059Y-63100003D01*
X26394435Y-63100003D01*
X26414630Y-63279249D01*
X26414631Y-63279254D01*
X26474211Y-63449523D01*
X26486941Y-63469782D01*
X26570184Y-63602262D01*
X26697738Y-63729816D01*
X26850478Y-63825789D01*
X27020745Y-63885368D01*
X27020750Y-63885369D01*
X27199996Y-63905565D01*
X27200000Y-63905565D01*
X27200004Y-63905565D01*
X27379249Y-63885369D01*
X27379252Y-63885368D01*
X27379255Y-63885368D01*
X27549522Y-63825789D01*
X27702262Y-63729816D01*
X27829816Y-63602262D01*
X27925789Y-63449522D01*
X27985368Y-63279255D01*
X27985369Y-63279249D01*
X28005565Y-63100003D01*
X28005565Y-63099996D01*
X27985369Y-62920750D01*
X27985368Y-62920745D01*
X27925789Y-62750478D01*
X27829816Y-62597738D01*
X27702262Y-62470184D01*
X27549523Y-62374211D01*
X27379254Y-62314631D01*
X27379249Y-62314630D01*
X27200004Y-62294435D01*
X27199996Y-62294435D01*
X27020750Y-62314630D01*
X27020745Y-62314631D01*
X26850476Y-62374211D01*
X26697737Y-62470184D01*
X26570184Y-62597737D01*
X26474211Y-62750476D01*
X26414631Y-62920745D01*
X26414630Y-62920750D01*
X26394435Y-63099996D01*
X26394435Y-63100003D01*
X21195059Y-63100003D01*
X21224063Y-63033881D01*
X21285108Y-62792821D01*
X21305643Y-62545000D01*
X21286554Y-62314632D01*
X21285109Y-62297187D01*
X21285107Y-62297175D01*
X21224063Y-62056118D01*
X21124173Y-61828393D01*
X20988166Y-61620217D01*
X20966557Y-61596744D01*
X20819744Y-61437262D01*
X20736991Y-61372852D01*
X20696179Y-61316143D01*
X20692504Y-61246370D01*
X20727136Y-61185687D01*
X20736985Y-61177151D01*
X20819744Y-61112738D01*
X20988164Y-60929785D01*
X21124173Y-60721607D01*
X21193156Y-60564342D01*
X21238112Y-60510856D01*
X21304848Y-60490166D01*
X21372176Y-60508841D01*
X21394393Y-60526471D01*
X21497738Y-60629816D01*
X21570902Y-60675788D01*
X21643820Y-60721606D01*
X21650478Y-60725789D01*
X21735573Y-60755565D01*
X21820745Y-60785368D01*
X21820750Y-60785369D01*
X21999996Y-60805565D01*
X22000000Y-60805565D01*
X22000004Y-60805565D01*
X22179249Y-60785369D01*
X22179252Y-60785368D01*
X22179255Y-60785368D01*
X22349522Y-60725789D01*
X22502262Y-60629816D01*
X22629816Y-60502262D01*
X22725789Y-60349522D01*
X22785368Y-60179255D01*
X22791002Y-60129254D01*
X22805565Y-60000003D01*
X22805565Y-59999996D01*
X22785369Y-59820750D01*
X22785368Y-59820745D01*
X22725788Y-59650476D01*
X22686582Y-59588080D01*
X22629816Y-59497738D01*
X22502262Y-59370184D01*
X22372093Y-59288393D01*
X22349523Y-59274211D01*
X22179254Y-59214631D01*
X22179249Y-59214630D01*
X22000004Y-59194435D01*
X21999996Y-59194435D01*
X21820750Y-59214630D01*
X21820745Y-59214631D01*
X21650476Y-59274211D01*
X21497739Y-59370183D01*
X21391344Y-59476578D01*
X21330021Y-59510062D01*
X21260329Y-59505078D01*
X21204396Y-59463206D01*
X21190107Y-59438706D01*
X21124173Y-59288393D01*
X20988166Y-59080217D01*
X20966557Y-59056744D01*
X20819744Y-58897262D01*
X20736991Y-58832852D01*
X20696179Y-58776143D01*
X20692504Y-58706370D01*
X20727136Y-58645687D01*
X20736985Y-58637151D01*
X20819744Y-58572738D01*
X20988164Y-58389785D01*
X21124173Y-58181607D01*
X21224063Y-57953881D01*
X21285108Y-57712821D01*
X21296589Y-57574265D01*
X21305643Y-57465005D01*
X21305643Y-57464994D01*
X21285109Y-57217187D01*
X21285107Y-57217175D01*
X21224063Y-56976118D01*
X21124173Y-56748393D01*
X20988166Y-56540217D01*
X20966557Y-56516744D01*
X20819744Y-56357262D01*
X20736991Y-56292852D01*
X20696179Y-56236143D01*
X20692504Y-56166370D01*
X20727136Y-56105687D01*
X20736985Y-56097151D01*
X20819744Y-56032738D01*
X20988164Y-55849785D01*
X21124173Y-55641607D01*
X21224063Y-55413881D01*
X21285108Y-55172821D01*
X21305643Y-54925000D01*
X21285108Y-54677179D01*
X21224063Y-54436119D01*
X21124173Y-54208393D01*
X20988166Y-54000217D01*
X20966557Y-53976744D01*
X20819744Y-53817262D01*
X20736991Y-53752852D01*
X20696179Y-53696143D01*
X20692504Y-53626370D01*
X20727136Y-53565687D01*
X20736985Y-53557151D01*
X20819744Y-53492738D01*
X20988164Y-53309785D01*
X21124173Y-53101607D01*
X21224063Y-52873881D01*
X21285108Y-52632821D01*
X21305643Y-52385000D01*
X21285108Y-52137179D01*
X21224063Y-51896119D01*
X21124173Y-51668393D01*
X20988166Y-51460217D01*
X20966557Y-51436744D01*
X20819744Y-51277262D01*
X20736991Y-51212852D01*
X20696179Y-51156143D01*
X20692504Y-51086370D01*
X20727136Y-51025687D01*
X20736985Y-51017151D01*
X20819744Y-50952738D01*
X20988164Y-50769785D01*
X21124173Y-50561607D01*
X21224063Y-50333881D01*
X21285108Y-50092821D01*
X21292799Y-50000003D01*
X21305643Y-49845005D01*
X21305643Y-49844994D01*
X21285109Y-49597187D01*
X21285107Y-49597175D01*
X21224063Y-49356118D01*
X21124173Y-49128393D01*
X20988166Y-48920217D01*
X20950452Y-48879249D01*
X20819744Y-48737262D01*
X20736991Y-48672852D01*
X20696179Y-48616143D01*
X20692504Y-48546370D01*
X20727136Y-48485687D01*
X20736985Y-48477151D01*
X20819744Y-48412738D01*
X20988164Y-48229785D01*
X21007621Y-48200003D01*
X39594435Y-48200003D01*
X39614630Y-48379249D01*
X39614631Y-48379254D01*
X39674211Y-48549523D01*
X39746339Y-48664313D01*
X39770184Y-48702262D01*
X39897738Y-48829816D01*
X39976410Y-48879249D01*
X40046817Y-48923489D01*
X40050478Y-48925789D01*
X40220739Y-48985366D01*
X40220745Y-48985368D01*
X40220750Y-48985369D01*
X40399996Y-49005565D01*
X40400000Y-49005565D01*
X40400004Y-49005565D01*
X40579249Y-48985369D01*
X40579251Y-48985368D01*
X40579255Y-48985368D01*
X40579258Y-48985366D01*
X40579262Y-48985366D01*
X40756095Y-48923489D01*
X40756846Y-48925637D01*
X40815128Y-48916035D01*
X40843592Y-48924391D01*
X40843908Y-48923489D01*
X41020748Y-48985368D01*
X41020753Y-48985369D01*
X41199999Y-49005565D01*
X41200003Y-49005565D01*
X41200007Y-49005565D01*
X41379252Y-48985369D01*
X41379255Y-48985368D01*
X41379258Y-48985368D01*
X41549525Y-48925789D01*
X41702265Y-48829816D01*
X41829819Y-48702262D01*
X41925792Y-48549522D01*
X41985371Y-48379255D01*
X41985372Y-48379249D01*
X42005568Y-48200003D01*
X42005568Y-48199996D01*
X41985372Y-48020750D01*
X41985371Y-48020745D01*
X41925791Y-47850476D01*
X41894076Y-47800003D01*
X42394435Y-47800003D01*
X42414630Y-47979249D01*
X42414631Y-47979254D01*
X42474211Y-48149523D01*
X42544288Y-48261049D01*
X42570184Y-48302262D01*
X42697738Y-48429816D01*
X42773063Y-48477146D01*
X42842450Y-48520745D01*
X42850478Y-48525789D01*
X42991115Y-48575000D01*
X43020745Y-48585368D01*
X43020750Y-48585369D01*
X43199996Y-48605565D01*
X43200000Y-48605565D01*
X43200004Y-48605565D01*
X43379249Y-48585369D01*
X43379252Y-48585368D01*
X43379255Y-48585368D01*
X43549522Y-48525789D01*
X43702262Y-48429816D01*
X43829816Y-48302262D01*
X43844395Y-48279058D01*
X43896727Y-48232770D01*
X43965781Y-48222120D01*
X44029630Y-48250495D01*
X44040605Y-48261036D01*
X44180256Y-48412738D01*
X44263008Y-48477147D01*
X44303821Y-48533857D01*
X44307496Y-48603630D01*
X44272864Y-48664313D01*
X44263014Y-48672848D01*
X44225224Y-48702262D01*
X44180257Y-48737261D01*
X44011833Y-48920217D01*
X43875826Y-49128393D01*
X43775936Y-49356118D01*
X43714892Y-49597175D01*
X43714890Y-49597187D01*
X43694357Y-49844994D01*
X43694357Y-49845005D01*
X43714890Y-50092812D01*
X43714892Y-50092824D01*
X43775936Y-50333881D01*
X43875826Y-50561606D01*
X44011833Y-50769782D01*
X44011836Y-50769785D01*
X44180256Y-50952738D01*
X44263008Y-51017147D01*
X44303821Y-51073857D01*
X44307496Y-51143630D01*
X44272864Y-51204313D01*
X44263014Y-51212848D01*
X44204400Y-51258469D01*
X44180257Y-51277261D01*
X44011833Y-51460217D01*
X43875826Y-51668393D01*
X43775936Y-51896118D01*
X43714892Y-52137175D01*
X43714890Y-52137187D01*
X43694357Y-52384994D01*
X43694357Y-52385005D01*
X43714890Y-52632812D01*
X43714892Y-52632824D01*
X43775936Y-52873881D01*
X43875826Y-53101606D01*
X44011833Y-53309782D01*
X44011836Y-53309785D01*
X44180256Y-53492738D01*
X44263008Y-53557147D01*
X44303821Y-53613857D01*
X44307496Y-53683630D01*
X44272864Y-53744313D01*
X44263014Y-53752848D01*
X44204400Y-53798469D01*
X44180257Y-53817261D01*
X44011833Y-54000217D01*
X43875826Y-54208393D01*
X43775936Y-54436118D01*
X43714892Y-54677175D01*
X43714890Y-54677187D01*
X43694357Y-54924994D01*
X43694357Y-54925005D01*
X43714890Y-55172812D01*
X43714892Y-55172824D01*
X43775936Y-55413881D01*
X43875826Y-55641606D01*
X44011833Y-55849782D01*
X44011836Y-55849785D01*
X44180256Y-56032738D01*
X44263008Y-56097147D01*
X44303821Y-56153857D01*
X44307496Y-56223630D01*
X44272864Y-56284313D01*
X44263014Y-56292848D01*
X44204400Y-56338469D01*
X44180257Y-56357261D01*
X44011833Y-56540217D01*
X43875826Y-56748393D01*
X43775936Y-56976118D01*
X43714892Y-57217175D01*
X43714890Y-57217187D01*
X43694357Y-57464994D01*
X43694357Y-57465005D01*
X43714890Y-57712812D01*
X43714892Y-57712824D01*
X43775936Y-57953881D01*
X43875826Y-58181606D01*
X44011833Y-58389782D01*
X44011836Y-58389785D01*
X44180256Y-58572738D01*
X44263008Y-58637147D01*
X44303821Y-58693857D01*
X44307496Y-58763630D01*
X44272864Y-58824313D01*
X44263014Y-58832848D01*
X44204400Y-58878469D01*
X44180257Y-58897261D01*
X44011833Y-59080217D01*
X43875826Y-59288393D01*
X43775936Y-59516118D01*
X43714892Y-59757175D01*
X43714890Y-59757187D01*
X43694357Y-60004994D01*
X43694357Y-60005005D01*
X43714890Y-60252812D01*
X43714892Y-60252824D01*
X43775936Y-60493881D01*
X43875826Y-60721606D01*
X44011833Y-60929782D01*
X44011836Y-60929785D01*
X44180256Y-61112738D01*
X44263008Y-61177147D01*
X44303821Y-61233857D01*
X44307496Y-61303630D01*
X44272864Y-61364313D01*
X44263014Y-61372848D01*
X44204400Y-61418469D01*
X44180257Y-61437261D01*
X44011833Y-61620217D01*
X43875826Y-61828393D01*
X43775936Y-62056118D01*
X43714892Y-62297175D01*
X43714890Y-62297187D01*
X43694357Y-62544994D01*
X43694357Y-62545005D01*
X43714890Y-62792812D01*
X43714892Y-62792824D01*
X43775936Y-63033881D01*
X43875826Y-63261606D01*
X44011833Y-63469782D01*
X44011836Y-63469785D01*
X44180256Y-63652738D01*
X44376491Y-63805474D01*
X44595190Y-63923828D01*
X44830386Y-64004571D01*
X45075665Y-64045500D01*
X45324335Y-64045500D01*
X45569614Y-64004571D01*
X45804810Y-63923828D01*
X46023509Y-63805474D01*
X46219744Y-63652738D01*
X46388164Y-63469785D01*
X46524173Y-63261607D01*
X46624063Y-63033881D01*
X46685108Y-62792821D01*
X46705643Y-62545000D01*
X46686554Y-62314632D01*
X46685109Y-62297187D01*
X46685107Y-62297175D01*
X46624063Y-62056118D01*
X46524173Y-61828393D01*
X46388166Y-61620217D01*
X46366557Y-61596744D01*
X46219744Y-61437262D01*
X46136991Y-61372852D01*
X46096179Y-61316143D01*
X46092504Y-61246370D01*
X46127136Y-61185687D01*
X46136985Y-61177151D01*
X46219744Y-61112738D01*
X46388164Y-60929785D01*
X46524173Y-60721607D01*
X46624063Y-60493881D01*
X46685108Y-60252821D01*
X46691204Y-60179254D01*
X46705643Y-60005005D01*
X46705643Y-60004994D01*
X46701086Y-59950003D01*
X65344435Y-59950003D01*
X65364630Y-60129249D01*
X65364631Y-60129254D01*
X65424211Y-60299523D01*
X65520184Y-60452262D01*
X65647738Y-60579816D01*
X65800478Y-60675789D01*
X65943367Y-60725788D01*
X65970745Y-60735368D01*
X65970750Y-60735369D01*
X66149996Y-60755565D01*
X66150000Y-60755565D01*
X66150004Y-60755565D01*
X66329249Y-60735369D01*
X66329252Y-60735368D01*
X66329255Y-60735368D01*
X66499522Y-60675789D01*
X66652262Y-60579816D01*
X66779816Y-60452262D01*
X66875789Y-60299522D01*
X66935368Y-60129255D01*
X66935369Y-60129249D01*
X66955565Y-59950003D01*
X66955565Y-59949996D01*
X66935369Y-59770750D01*
X66935368Y-59770745D01*
X66875788Y-59600476D01*
X66779815Y-59447737D01*
X66652262Y-59320184D01*
X66499523Y-59224211D01*
X66329254Y-59164631D01*
X66329249Y-59164630D01*
X66150004Y-59144435D01*
X66149996Y-59144435D01*
X65970750Y-59164630D01*
X65970745Y-59164631D01*
X65800476Y-59224211D01*
X65647737Y-59320184D01*
X65520184Y-59447737D01*
X65424211Y-59600476D01*
X65364631Y-59770745D01*
X65364630Y-59770750D01*
X65344435Y-59949996D01*
X65344435Y-59950003D01*
X46701086Y-59950003D01*
X46685109Y-59757187D01*
X46685107Y-59757175D01*
X46624063Y-59516118D01*
X46524173Y-59288393D01*
X46388166Y-59080217D01*
X46366557Y-59056744D01*
X46219744Y-58897262D01*
X46136991Y-58832852D01*
X46096179Y-58776143D01*
X46092504Y-58706370D01*
X46127136Y-58645687D01*
X46136985Y-58637151D01*
X46219744Y-58572738D01*
X46388164Y-58389785D01*
X46524173Y-58181607D01*
X46624063Y-57953881D01*
X46685108Y-57712821D01*
X46696589Y-57574268D01*
X62120170Y-57574268D01*
X62140365Y-57753514D01*
X62140366Y-57753519D01*
X62199946Y-57923788D01*
X62218855Y-57953881D01*
X62295919Y-58076527D01*
X62423473Y-58204081D01*
X62576213Y-58300054D01*
X62746480Y-58359633D01*
X62746485Y-58359634D01*
X62925731Y-58379830D01*
X62925735Y-58379830D01*
X62925739Y-58379830D01*
X63104984Y-58359634D01*
X63104987Y-58359633D01*
X63104990Y-58359633D01*
X63275257Y-58300054D01*
X63427997Y-58204081D01*
X63555551Y-58076527D01*
X63651524Y-57923787D01*
X63711103Y-57753520D01*
X63711104Y-57753514D01*
X63731300Y-57574268D01*
X63731300Y-57574261D01*
X63711104Y-57395015D01*
X63711103Y-57395010D01*
X63651523Y-57224741D01*
X63555550Y-57072002D01*
X63427997Y-56944449D01*
X63275258Y-56848476D01*
X63104989Y-56788896D01*
X63104984Y-56788895D01*
X62925739Y-56768700D01*
X62925731Y-56768700D01*
X62746485Y-56788895D01*
X62746480Y-56788896D01*
X62576211Y-56848476D01*
X62423472Y-56944449D01*
X62295919Y-57072002D01*
X62199946Y-57224741D01*
X62140366Y-57395010D01*
X62140365Y-57395015D01*
X62120170Y-57574261D01*
X62120170Y-57574268D01*
X46696589Y-57574268D01*
X46696589Y-57574265D01*
X46705643Y-57465005D01*
X46705643Y-57464994D01*
X46685109Y-57217187D01*
X46685107Y-57217175D01*
X46624063Y-56976118D01*
X46524173Y-56748393D01*
X46388166Y-56540217D01*
X46366557Y-56516744D01*
X46219744Y-56357262D01*
X46136991Y-56292852D01*
X46096179Y-56236143D01*
X46092504Y-56166370D01*
X46127136Y-56105687D01*
X46136985Y-56097151D01*
X46219744Y-56032738D01*
X46388164Y-55849785D01*
X46524173Y-55641607D01*
X46624063Y-55413881D01*
X46685108Y-55172821D01*
X46705643Y-54925000D01*
X46685108Y-54677179D01*
X46624063Y-54436119D01*
X46524173Y-54208393D01*
X46388166Y-54000217D01*
X46366557Y-53976744D01*
X46219744Y-53817262D01*
X46136991Y-53752852D01*
X46096179Y-53696143D01*
X46092504Y-53626370D01*
X46127136Y-53565687D01*
X46136985Y-53557151D01*
X46219744Y-53492738D01*
X46388164Y-53309785D01*
X46524173Y-53101607D01*
X46624063Y-52873881D01*
X46685108Y-52632821D01*
X46705643Y-52385000D01*
X46685108Y-52137179D01*
X46624063Y-51896119D01*
X46524173Y-51668393D01*
X46388166Y-51460217D01*
X46366557Y-51436744D01*
X46219744Y-51277262D01*
X46136991Y-51212852D01*
X46096179Y-51156143D01*
X46092504Y-51086370D01*
X46127136Y-51025687D01*
X46136985Y-51017151D01*
X46219744Y-50952738D01*
X46388164Y-50769785D01*
X46524173Y-50561607D01*
X46624063Y-50333881D01*
X46685108Y-50092821D01*
X46692799Y-50000003D01*
X46705643Y-49845005D01*
X46705643Y-49844994D01*
X46685109Y-49597187D01*
X46685107Y-49597175D01*
X46635176Y-49400003D01*
X64494435Y-49400003D01*
X64514630Y-49579249D01*
X64514631Y-49579254D01*
X64574211Y-49749523D01*
X64634200Y-49844994D01*
X64670184Y-49902262D01*
X64797738Y-50029816D01*
X64888080Y-50086582D01*
X64950229Y-50125633D01*
X64950478Y-50125789D01*
X65103258Y-50179249D01*
X65120745Y-50185368D01*
X65120750Y-50185369D01*
X65299996Y-50205565D01*
X65300000Y-50205565D01*
X65300004Y-50205565D01*
X65479249Y-50185369D01*
X65479252Y-50185368D01*
X65479255Y-50185368D01*
X65649522Y-50125789D01*
X65649534Y-50125781D01*
X65649780Y-50125664D01*
X65649967Y-50125633D01*
X65656095Y-50123489D01*
X65656470Y-50124561D01*
X65718719Y-50114303D01*
X65782858Y-50142016D01*
X65820639Y-50196422D01*
X65874211Y-50349523D01*
X65970184Y-50502262D01*
X66097738Y-50629816D01*
X66250478Y-50725789D01*
X66420745Y-50785368D01*
X66420750Y-50785369D01*
X66599996Y-50805565D01*
X66600000Y-50805565D01*
X66600004Y-50805565D01*
X66779249Y-50785369D01*
X66779252Y-50785368D01*
X66779255Y-50785368D01*
X66949522Y-50725789D01*
X67102262Y-50629816D01*
X67229816Y-50502262D01*
X67325789Y-50349522D01*
X67385368Y-50179255D01*
X67391392Y-50125789D01*
X67405565Y-50000003D01*
X67405565Y-49999996D01*
X67385369Y-49820750D01*
X67385368Y-49820745D01*
X67325788Y-49650476D01*
X67229815Y-49497737D01*
X67102262Y-49370184D01*
X66949523Y-49274211D01*
X66779254Y-49214631D01*
X66779249Y-49214630D01*
X66600004Y-49194435D01*
X66599996Y-49194435D01*
X66420750Y-49214630D01*
X66420737Y-49214633D01*
X66250477Y-49274210D01*
X66250192Y-49274348D01*
X66249989Y-49274381D01*
X66243906Y-49276510D01*
X66243532Y-49275443D01*
X66181250Y-49285693D01*
X66117118Y-49257964D01*
X66079360Y-49203576D01*
X66078900Y-49202262D01*
X66025789Y-49050478D01*
X65929816Y-48897738D01*
X65802262Y-48770184D01*
X65749867Y-48737262D01*
X65690570Y-48700003D01*
X69694435Y-48700003D01*
X69714630Y-48879249D01*
X69714631Y-48879254D01*
X69774211Y-49049523D01*
X69823769Y-49128393D01*
X69870184Y-49202262D01*
X69997738Y-49329816D01*
X70150478Y-49425789D01*
X70320745Y-49485368D01*
X70320750Y-49485369D01*
X70499996Y-49505565D01*
X70500000Y-49505565D01*
X70500004Y-49505565D01*
X70679249Y-49485369D01*
X70679252Y-49485368D01*
X70679255Y-49485368D01*
X70849522Y-49425789D01*
X71002262Y-49329816D01*
X71129816Y-49202262D01*
X71225789Y-49049522D01*
X71285368Y-48879255D01*
X71285369Y-48879249D01*
X71305565Y-48700003D01*
X71305565Y-48699996D01*
X71285369Y-48520750D01*
X71285368Y-48520745D01*
X71270112Y-48477146D01*
X71225789Y-48350478D01*
X71129816Y-48197738D01*
X71002262Y-48070184D01*
X70849523Y-47974211D01*
X70679254Y-47914631D01*
X70679249Y-47914630D01*
X70500004Y-47894435D01*
X70499996Y-47894435D01*
X70320750Y-47914630D01*
X70320745Y-47914631D01*
X70150476Y-47974211D01*
X69997737Y-48070184D01*
X69870184Y-48197737D01*
X69774211Y-48350476D01*
X69714631Y-48520745D01*
X69714630Y-48520750D01*
X69694435Y-48699996D01*
X69694435Y-48700003D01*
X65690570Y-48700003D01*
X65649523Y-48674211D01*
X65479254Y-48614631D01*
X65479249Y-48614630D01*
X65300004Y-48594435D01*
X65299996Y-48594435D01*
X65120750Y-48614630D01*
X65120745Y-48614631D01*
X64950476Y-48674211D01*
X64797737Y-48770184D01*
X64670184Y-48897737D01*
X64574211Y-49050476D01*
X64514631Y-49220745D01*
X64514630Y-49220750D01*
X64494435Y-49399996D01*
X64494435Y-49400003D01*
X46635176Y-49400003D01*
X46624063Y-49356118D01*
X46524173Y-49128393D01*
X46388166Y-48920217D01*
X46350452Y-48879249D01*
X46219744Y-48737262D01*
X46136991Y-48672852D01*
X46096179Y-48616143D01*
X46092504Y-48546370D01*
X46127136Y-48485687D01*
X46136985Y-48477151D01*
X46219744Y-48412738D01*
X46388164Y-48229785D01*
X46524173Y-48021607D01*
X46624063Y-47793881D01*
X46685108Y-47552821D01*
X46690814Y-47483958D01*
X46705643Y-47305005D01*
X46705643Y-47304994D01*
X46685109Y-47057187D01*
X46685107Y-47057175D01*
X46624063Y-46816118D01*
X46524173Y-46588393D01*
X46388166Y-46380217D01*
X46366557Y-46356744D01*
X46219744Y-46197262D01*
X46136991Y-46132852D01*
X46096179Y-46076143D01*
X46092504Y-46006370D01*
X46127136Y-45945687D01*
X46136985Y-45937151D01*
X46219744Y-45872738D01*
X46388164Y-45689785D01*
X46524173Y-45481607D01*
X46624063Y-45253881D01*
X46685108Y-45012821D01*
X46705643Y-44765000D01*
X46685108Y-44517179D01*
X46624063Y-44276119D01*
X46591666Y-44202262D01*
X46524173Y-44048393D01*
X46388166Y-43840217D01*
X46366557Y-43816744D01*
X46219744Y-43657262D01*
X46136991Y-43592852D01*
X46096179Y-43536143D01*
X46092504Y-43466370D01*
X46127136Y-43405687D01*
X46136985Y-43397151D01*
X46219744Y-43332738D01*
X46388164Y-43149785D01*
X46524173Y-42941607D01*
X46624063Y-42713881D01*
X46685108Y-42472821D01*
X46699428Y-42300003D01*
X66494435Y-42300003D01*
X66514630Y-42479249D01*
X66514631Y-42479254D01*
X66574211Y-42649523D01*
X66614650Y-42713881D01*
X66670184Y-42802262D01*
X66797738Y-42929816D01*
X66950478Y-43025789D01*
X67077352Y-43070184D01*
X67120745Y-43085368D01*
X67120750Y-43085369D01*
X67299996Y-43105565D01*
X67300000Y-43105565D01*
X67300004Y-43105565D01*
X67479249Y-43085369D01*
X67479252Y-43085368D01*
X67479255Y-43085368D01*
X67649522Y-43025789D01*
X67802262Y-42929816D01*
X67929816Y-42802262D01*
X68025789Y-42649522D01*
X68085368Y-42479255D01*
X68105565Y-42300000D01*
X68097115Y-42225005D01*
X68085369Y-42120750D01*
X68085368Y-42120745D01*
X68035132Y-41977179D01*
X68025789Y-41950478D01*
X67929816Y-41797738D01*
X67802262Y-41670184D01*
X67649523Y-41574211D01*
X67479254Y-41514631D01*
X67479249Y-41514630D01*
X67300004Y-41494435D01*
X67299996Y-41494435D01*
X67120750Y-41514630D01*
X67120745Y-41514631D01*
X66950476Y-41574211D01*
X66797737Y-41670184D01*
X66670184Y-41797737D01*
X66574211Y-41950476D01*
X66514631Y-42120745D01*
X66514630Y-42120750D01*
X66494435Y-42299996D01*
X66494435Y-42300003D01*
X46699428Y-42300003D01*
X46705643Y-42225005D01*
X46705643Y-42224994D01*
X46685109Y-41977187D01*
X46685107Y-41977175D01*
X46624063Y-41736118D01*
X46524173Y-41508393D01*
X46388166Y-41300217D01*
X46323356Y-41229815D01*
X46219744Y-41117262D01*
X46136991Y-41052852D01*
X46096179Y-40996143D01*
X46092504Y-40926370D01*
X46127136Y-40865687D01*
X46136985Y-40857151D01*
X46219744Y-40792738D01*
X46388164Y-40609785D01*
X46524173Y-40401607D01*
X46624063Y-40173881D01*
X46685108Y-39932821D01*
X46689965Y-39874211D01*
X46705643Y-39685005D01*
X46705643Y-39684994D01*
X46685109Y-39437187D01*
X46685107Y-39437175D01*
X46624063Y-39196118D01*
X46524173Y-38968393D01*
X46388166Y-38760217D01*
X46366557Y-38736744D01*
X46219744Y-38577262D01*
X46136991Y-38512852D01*
X46096179Y-38456143D01*
X46092504Y-38386370D01*
X46127136Y-38325687D01*
X46136985Y-38317151D01*
X46219744Y-38252738D01*
X46388164Y-38069785D01*
X46524173Y-37861607D01*
X46624063Y-37633881D01*
X46685108Y-37392821D01*
X46685109Y-37392812D01*
X46705643Y-37145005D01*
X46705643Y-37144994D01*
X46685109Y-36897187D01*
X46685107Y-36897175D01*
X46624063Y-36656118D01*
X46555585Y-36500005D01*
X48862034Y-36500005D01*
X48882567Y-36747812D01*
X48882569Y-36747824D01*
X48943613Y-36988881D01*
X49043503Y-37216606D01*
X49179510Y-37424782D01*
X49179513Y-37424785D01*
X49347933Y-37607738D01*
X49544168Y-37760474D01*
X49544170Y-37760475D01*
X49731043Y-37861606D01*
X49762867Y-37878828D01*
X49998063Y-37959571D01*
X50243342Y-38000500D01*
X50492012Y-38000500D01*
X50737291Y-37959571D01*
X50972487Y-37878828D01*
X51191186Y-37760474D01*
X51387421Y-37607738D01*
X51442533Y-37547870D01*
X53867177Y-37547870D01*
X53867178Y-37547876D01*
X53873585Y-37607483D01*
X53923879Y-37742328D01*
X53923883Y-37742335D01*
X54010129Y-37857544D01*
X54010132Y-37857547D01*
X54125341Y-37943793D01*
X54125348Y-37943797D01*
X54260194Y-37994091D01*
X54260193Y-37994091D01*
X54267121Y-37994835D01*
X54319804Y-38000500D01*
X56415549Y-38000499D01*
X56475160Y-37994091D01*
X56610008Y-37943796D01*
X56725223Y-37857546D01*
X56811473Y-37742331D01*
X56861768Y-37607483D01*
X56868177Y-37547873D01*
X56868177Y-37547870D01*
X60131823Y-37547870D01*
X60131824Y-37547876D01*
X60138231Y-37607483D01*
X60188525Y-37742328D01*
X60188529Y-37742335D01*
X60274775Y-37857544D01*
X60274778Y-37857547D01*
X60389987Y-37943793D01*
X60389994Y-37943797D01*
X60524840Y-37994091D01*
X60524839Y-37994091D01*
X60531767Y-37994835D01*
X60584450Y-38000500D01*
X62680195Y-38000499D01*
X62739806Y-37994091D01*
X62874654Y-37943796D01*
X62989869Y-37857546D01*
X63076119Y-37742331D01*
X63126414Y-37607483D01*
X63132823Y-37547873D01*
X63132823Y-36500005D01*
X65126680Y-36500005D01*
X65147213Y-36747812D01*
X65147215Y-36747824D01*
X65208259Y-36988881D01*
X65308149Y-37216606D01*
X65444156Y-37424782D01*
X65444159Y-37424785D01*
X65612579Y-37607738D01*
X65808814Y-37760474D01*
X65808816Y-37760475D01*
X65995689Y-37861606D01*
X66027513Y-37878828D01*
X66262709Y-37959571D01*
X66507988Y-38000500D01*
X66756658Y-38000500D01*
X67001937Y-37959571D01*
X67237133Y-37878828D01*
X67455832Y-37760474D01*
X67652067Y-37607738D01*
X67820487Y-37424785D01*
X67956496Y-37216607D01*
X68056386Y-36988881D01*
X68117431Y-36747821D01*
X68137966Y-36500000D01*
X68132032Y-36428393D01*
X68117432Y-36252187D01*
X68117430Y-36252175D01*
X68056386Y-36011118D01*
X67956496Y-35783393D01*
X67820489Y-35575217D01*
X67778663Y-35529782D01*
X67652067Y-35392262D01*
X67455832Y-35239526D01*
X67455830Y-35239525D01*
X67455829Y-35239524D01*
X67237134Y-35121172D01*
X67237125Y-35121169D01*
X67001939Y-35040429D01*
X66756658Y-34999500D01*
X66507988Y-34999500D01*
X66262706Y-35040429D01*
X66027520Y-35121169D01*
X66027511Y-35121172D01*
X65808816Y-35239524D01*
X65612580Y-35392261D01*
X65444156Y-35575217D01*
X65308149Y-35783393D01*
X65208259Y-36011118D01*
X65147215Y-36252175D01*
X65147213Y-36252187D01*
X65126680Y-36499994D01*
X65126680Y-36500005D01*
X63132823Y-36500005D01*
X63132822Y-35452128D01*
X63126414Y-35392517D01*
X63099966Y-35321607D01*
X63076120Y-35257671D01*
X63076116Y-35257664D01*
X62989870Y-35142455D01*
X62989867Y-35142452D01*
X62874658Y-35056206D01*
X62874651Y-35056202D01*
X62739805Y-35005908D01*
X62739806Y-35005908D01*
X62680206Y-34999501D01*
X62680204Y-34999500D01*
X62680196Y-34999500D01*
X62680187Y-34999500D01*
X60584452Y-34999500D01*
X60584446Y-34999501D01*
X60524839Y-35005908D01*
X60389994Y-35056202D01*
X60389987Y-35056206D01*
X60274778Y-35142452D01*
X60274775Y-35142455D01*
X60188529Y-35257664D01*
X60188525Y-35257671D01*
X60138231Y-35392517D01*
X60131824Y-35452116D01*
X60131824Y-35452123D01*
X60131823Y-35452135D01*
X60131823Y-37547870D01*
X56868177Y-37547870D01*
X56868176Y-35452128D01*
X56861768Y-35392517D01*
X56835320Y-35321607D01*
X56811474Y-35257671D01*
X56811470Y-35257664D01*
X56725224Y-35142455D01*
X56725221Y-35142452D01*
X56610012Y-35056206D01*
X56610005Y-35056202D01*
X56475159Y-35005908D01*
X56475160Y-35005908D01*
X56415560Y-34999501D01*
X56415558Y-34999500D01*
X56415550Y-34999500D01*
X56415541Y-34999500D01*
X54319806Y-34999500D01*
X54319800Y-34999501D01*
X54260193Y-35005908D01*
X54125348Y-35056202D01*
X54125341Y-35056206D01*
X54010132Y-35142452D01*
X54010129Y-35142455D01*
X53923883Y-35257664D01*
X53923879Y-35257671D01*
X53873585Y-35392517D01*
X53867178Y-35452116D01*
X53867178Y-35452123D01*
X53867177Y-35452135D01*
X53867177Y-37547870D01*
X51442533Y-37547870D01*
X51555841Y-37424785D01*
X51691850Y-37216607D01*
X51791740Y-36988881D01*
X51852785Y-36747821D01*
X51873320Y-36500000D01*
X51867386Y-36428393D01*
X51852786Y-36252187D01*
X51852784Y-36252175D01*
X51791740Y-36011118D01*
X51691850Y-35783393D01*
X51555843Y-35575217D01*
X51514017Y-35529782D01*
X51387421Y-35392262D01*
X51191186Y-35239526D01*
X51191184Y-35239525D01*
X51191183Y-35239524D01*
X50972488Y-35121172D01*
X50972479Y-35121169D01*
X50737293Y-35040429D01*
X50492012Y-34999500D01*
X50243342Y-34999500D01*
X49998060Y-35040429D01*
X49762874Y-35121169D01*
X49762865Y-35121172D01*
X49544170Y-35239524D01*
X49347934Y-35392261D01*
X49179510Y-35575217D01*
X49043503Y-35783393D01*
X48943613Y-36011118D01*
X48882569Y-36252175D01*
X48882567Y-36252187D01*
X48862034Y-36499994D01*
X48862034Y-36500005D01*
X46555585Y-36500005D01*
X46524173Y-36428393D01*
X46388166Y-36220217D01*
X46366557Y-36196744D01*
X46219744Y-36037262D01*
X46136991Y-35972852D01*
X46096179Y-35916143D01*
X46092504Y-35846370D01*
X46127136Y-35785687D01*
X46136985Y-35777151D01*
X46219744Y-35712738D01*
X46388164Y-35529785D01*
X46524173Y-35321607D01*
X46624063Y-35093881D01*
X46685108Y-34852821D01*
X46705643Y-34605000D01*
X46685108Y-34357179D01*
X46624063Y-34116119D01*
X46524173Y-33888393D01*
X46388166Y-33680217D01*
X46366557Y-33656744D01*
X46219744Y-33497262D01*
X46136991Y-33432852D01*
X46096179Y-33376143D01*
X46092504Y-33306370D01*
X46127136Y-33245687D01*
X46136985Y-33237151D01*
X46219744Y-33172738D01*
X46388164Y-32989785D01*
X46524173Y-32781607D01*
X46624063Y-32553881D01*
X46685108Y-32312821D01*
X46705643Y-32065000D01*
X46685108Y-31817179D01*
X46624063Y-31576119D01*
X46581206Y-31478416D01*
X46524173Y-31348393D01*
X46388166Y-31140217D01*
X46366557Y-31116744D01*
X46219744Y-30957262D01*
X46136991Y-30892852D01*
X46096179Y-30836143D01*
X46092504Y-30766370D01*
X46127136Y-30705687D01*
X46136985Y-30697151D01*
X46219744Y-30632738D01*
X46388164Y-30449785D01*
X46524173Y-30241607D01*
X46624063Y-30013881D01*
X46685108Y-29772821D01*
X46687190Y-29747693D01*
X46705343Y-29528620D01*
X50224500Y-29528620D01*
X50224501Y-29528626D01*
X50230908Y-29588233D01*
X50281202Y-29723078D01*
X50281206Y-29723085D01*
X50367452Y-29838294D01*
X50367455Y-29838297D01*
X50482664Y-29924543D01*
X50482671Y-29924547D01*
X50617517Y-29974841D01*
X50617516Y-29974841D01*
X50624444Y-29975585D01*
X50677127Y-29981250D01*
X53322872Y-29981249D01*
X53382483Y-29974841D01*
X53517331Y-29924546D01*
X53632546Y-29838296D01*
X53718796Y-29723081D01*
X53769091Y-29588233D01*
X53775500Y-29528623D01*
X53775500Y-28205754D01*
X55219521Y-28205754D01*
X55239405Y-28471107D01*
X55239405Y-28471109D01*
X55268873Y-28600217D01*
X55298623Y-28730555D01*
X55395844Y-28978271D01*
X55528899Y-29208730D01*
X55641558Y-29349999D01*
X55694820Y-29416787D01*
X55809332Y-29523038D01*
X55889890Y-29597785D01*
X56109761Y-29747690D01*
X56349514Y-29863149D01*
X56349515Y-29863149D01*
X56349518Y-29863151D01*
X56603806Y-29941589D01*
X56603807Y-29941589D01*
X56603810Y-29941590D01*
X56866937Y-29981249D01*
X56866942Y-29981249D01*
X56866945Y-29981250D01*
X56866946Y-29981250D01*
X57133054Y-29981250D01*
X57133055Y-29981250D01*
X57133062Y-29981249D01*
X57396189Y-29941590D01*
X57396190Y-29941589D01*
X57396194Y-29941589D01*
X57650482Y-29863151D01*
X57839936Y-29771914D01*
X57890232Y-29747694D01*
X57890232Y-29747693D01*
X57890240Y-29747690D01*
X58110110Y-29597785D01*
X58305183Y-29416783D01*
X58471101Y-29208730D01*
X58604156Y-28978271D01*
X58701377Y-28730555D01*
X58760593Y-28471117D01*
X58769036Y-28358452D01*
X58780479Y-28205754D01*
X58780479Y-28205745D01*
X58760594Y-27940392D01*
X58760594Y-27940390D01*
X58760593Y-27940386D01*
X58760593Y-27940383D01*
X58701377Y-27680945D01*
X58604156Y-27433229D01*
X58471101Y-27202770D01*
X58305183Y-26994717D01*
X58305182Y-26994716D01*
X58305179Y-26994712D01*
X58110110Y-26813715D01*
X57997852Y-26737179D01*
X57890240Y-26663810D01*
X57890236Y-26663808D01*
X57890233Y-26663806D01*
X57890232Y-26663805D01*
X57650484Y-26548350D01*
X57650486Y-26548350D01*
X57396195Y-26469911D01*
X57396189Y-26469909D01*
X57133062Y-26430250D01*
X57133055Y-26430250D01*
X56866945Y-26430250D01*
X56866937Y-26430250D01*
X56603810Y-26469909D01*
X56603804Y-26469911D01*
X56349514Y-26548350D01*
X56109769Y-26663805D01*
X56109760Y-26663810D01*
X55889892Y-26813713D01*
X55694820Y-26994712D01*
X55528899Y-27202770D01*
X55395844Y-27433228D01*
X55298625Y-27680939D01*
X55298620Y-27680956D01*
X55239405Y-27940390D01*
X55239405Y-27940392D01*
X55219521Y-28205745D01*
X55219521Y-28205754D01*
X53775500Y-28205754D01*
X53775499Y-26882878D01*
X53769091Y-26823267D01*
X53765528Y-26813715D01*
X53718797Y-26688421D01*
X53718793Y-26688414D01*
X53632547Y-26573205D01*
X53632544Y-26573202D01*
X53517335Y-26486956D01*
X53517328Y-26486952D01*
X53382482Y-26436658D01*
X53382483Y-26436658D01*
X53322883Y-26430251D01*
X53322881Y-26430250D01*
X53322873Y-26430250D01*
X53322864Y-26430250D01*
X50677129Y-26430250D01*
X50677123Y-26430251D01*
X50617516Y-26436658D01*
X50482671Y-26486952D01*
X50482664Y-26486956D01*
X50367455Y-26573202D01*
X50367452Y-26573205D01*
X50281206Y-26688414D01*
X50281202Y-26688421D01*
X50230908Y-26823267D01*
X50224501Y-26882866D01*
X50224501Y-26882873D01*
X50224500Y-26882885D01*
X50224500Y-29528620D01*
X46705343Y-29528620D01*
X46705643Y-29525005D01*
X46705643Y-29524994D01*
X46685109Y-29277187D01*
X46685107Y-29277175D01*
X46624063Y-29036118D01*
X46524173Y-28808393D01*
X46388166Y-28600217D01*
X46366557Y-28576744D01*
X46219744Y-28417262D01*
X46136991Y-28352852D01*
X46096179Y-28296143D01*
X46092504Y-28226370D01*
X46127136Y-28165687D01*
X46136985Y-28157151D01*
X46219744Y-28092738D01*
X46388164Y-27909785D01*
X46524173Y-27701607D01*
X46624063Y-27473881D01*
X46685108Y-27232821D01*
X46704838Y-26994717D01*
X46705643Y-26985005D01*
X46705643Y-26984994D01*
X46685109Y-26737187D01*
X46685107Y-26737175D01*
X46624063Y-26496118D01*
X46524173Y-26268393D01*
X46388166Y-26060217D01*
X46366557Y-26036744D01*
X46219744Y-25877262D01*
X46023509Y-25724526D01*
X46023507Y-25724525D01*
X46023506Y-25724524D01*
X45804811Y-25606172D01*
X45804802Y-25606169D01*
X45569616Y-25525429D01*
X45324335Y-25484500D01*
X45075665Y-25484500D01*
X44830383Y-25525429D01*
X44595197Y-25606169D01*
X44595188Y-25606172D01*
X44376493Y-25724524D01*
X44180257Y-25877261D01*
X44011833Y-26060217D01*
X43875826Y-26268393D01*
X43775936Y-26496118D01*
X43714892Y-26737175D01*
X43714890Y-26737187D01*
X43694357Y-26984994D01*
X43694357Y-26985005D01*
X43714890Y-27232812D01*
X43714892Y-27232824D01*
X43775936Y-27473881D01*
X43875826Y-27701606D01*
X44011833Y-27909782D01*
X44011836Y-27909785D01*
X44180256Y-28092738D01*
X44263008Y-28157147D01*
X44303821Y-28213857D01*
X44307496Y-28283630D01*
X44272864Y-28344313D01*
X44263014Y-28352848D01*
X44204400Y-28398469D01*
X44180257Y-28417261D01*
X44011833Y-28600217D01*
X43875826Y-28808393D01*
X43775936Y-29036118D01*
X43714892Y-29277175D01*
X43714890Y-29277187D01*
X43694357Y-29524994D01*
X43694357Y-29525005D01*
X43714890Y-29772812D01*
X43714892Y-29772824D01*
X43775936Y-30013881D01*
X43875826Y-30241606D01*
X44011833Y-30449782D01*
X44011836Y-30449785D01*
X44180256Y-30632738D01*
X44263008Y-30697147D01*
X44303821Y-30753857D01*
X44307496Y-30823630D01*
X44272864Y-30884313D01*
X44263014Y-30892848D01*
X44204400Y-30938469D01*
X44180257Y-30957261D01*
X44011833Y-31140217D01*
X43875826Y-31348393D01*
X43775936Y-31576118D01*
X43714892Y-31817175D01*
X43714890Y-31817187D01*
X43694357Y-32064994D01*
X43694357Y-32065005D01*
X43714890Y-32312812D01*
X43714892Y-32312824D01*
X43775936Y-32553881D01*
X43875826Y-32781606D01*
X44011833Y-32989782D01*
X44011836Y-32989785D01*
X44180256Y-33172738D01*
X44263008Y-33237147D01*
X44303821Y-33293857D01*
X44307496Y-33363630D01*
X44272864Y-33424313D01*
X44263014Y-33432848D01*
X44204400Y-33478469D01*
X44180257Y-33497261D01*
X44011833Y-33680217D01*
X43875826Y-33888393D01*
X43775936Y-34116118D01*
X43714892Y-34357175D01*
X43714890Y-34357187D01*
X43694357Y-34604994D01*
X43694357Y-34605005D01*
X43714890Y-34852812D01*
X43714892Y-34852824D01*
X43775936Y-35093881D01*
X43875826Y-35321606D01*
X44011833Y-35529782D01*
X44011836Y-35529785D01*
X44180256Y-35712738D01*
X44263008Y-35777147D01*
X44303821Y-35833857D01*
X44307496Y-35903630D01*
X44272864Y-35964313D01*
X44263014Y-35972848D01*
X44204400Y-36018469D01*
X44180257Y-36037261D01*
X44011833Y-36220217D01*
X43875826Y-36428393D01*
X43775936Y-36656118D01*
X43714892Y-36897175D01*
X43714890Y-36897187D01*
X43694357Y-37144994D01*
X43694357Y-37145005D01*
X43714890Y-37392812D01*
X43714892Y-37392824D01*
X43775936Y-37633881D01*
X43875826Y-37861606D01*
X44011833Y-38069782D01*
X44011836Y-38069785D01*
X44180256Y-38252738D01*
X44263008Y-38317147D01*
X44303821Y-38373857D01*
X44307496Y-38443630D01*
X44272864Y-38504313D01*
X44263014Y-38512848D01*
X44204400Y-38558469D01*
X44180257Y-38577261D01*
X44011833Y-38760217D01*
X43875826Y-38968393D01*
X43775936Y-39196118D01*
X43714892Y-39437175D01*
X43714890Y-39437187D01*
X43694357Y-39684994D01*
X43694357Y-39685005D01*
X43714890Y-39932812D01*
X43714892Y-39932824D01*
X43775936Y-40173881D01*
X43875826Y-40401606D01*
X44011833Y-40609782D01*
X44011836Y-40609785D01*
X44180256Y-40792738D01*
X44263008Y-40857147D01*
X44303821Y-40913857D01*
X44307496Y-40983630D01*
X44272864Y-41044313D01*
X44263014Y-41052848D01*
X44204400Y-41098469D01*
X44180257Y-41117261D01*
X44011833Y-41300217D01*
X43875826Y-41508393D01*
X43775936Y-41736118D01*
X43714892Y-41977175D01*
X43714890Y-41977187D01*
X43694357Y-42224994D01*
X43694357Y-42225005D01*
X43714890Y-42472812D01*
X43714892Y-42472824D01*
X43775936Y-42713881D01*
X43875826Y-42941606D01*
X44011833Y-43149782D01*
X44011836Y-43149785D01*
X44180256Y-43332738D01*
X44263008Y-43397147D01*
X44303821Y-43453857D01*
X44307496Y-43523630D01*
X44272864Y-43584313D01*
X44263014Y-43592848D01*
X44204400Y-43638469D01*
X44180257Y-43657261D01*
X44011833Y-43840217D01*
X43875826Y-44048393D01*
X43775936Y-44276118D01*
X43714892Y-44517175D01*
X43714890Y-44517187D01*
X43694357Y-44764994D01*
X43694357Y-44765005D01*
X43714890Y-45012812D01*
X43714892Y-45012824D01*
X43775936Y-45253881D01*
X43875826Y-45481606D01*
X44011833Y-45689782D01*
X44011836Y-45689785D01*
X44180256Y-45872738D01*
X44263008Y-45937147D01*
X44303821Y-45993857D01*
X44307496Y-46063630D01*
X44272864Y-46124313D01*
X44263014Y-46132848D01*
X44204400Y-46178469D01*
X44180257Y-46197261D01*
X44011833Y-46380217D01*
X43875826Y-46588393D01*
X43775937Y-46816117D01*
X43730315Y-46996274D01*
X43694775Y-47056429D01*
X43632354Y-47087821D01*
X43562871Y-47080483D01*
X43555947Y-47076914D01*
X43555795Y-47077231D01*
X43549529Y-47074213D01*
X43379254Y-47014631D01*
X43379249Y-47014630D01*
X43200004Y-46994435D01*
X43199996Y-46994435D01*
X43020750Y-47014630D01*
X43020745Y-47014631D01*
X42850476Y-47074211D01*
X42697737Y-47170184D01*
X42570184Y-47297737D01*
X42474211Y-47450476D01*
X42414631Y-47620745D01*
X42414630Y-47620750D01*
X42394435Y-47799996D01*
X42394435Y-47800003D01*
X41894076Y-47800003D01*
X41829818Y-47697737D01*
X41702265Y-47570184D01*
X41549526Y-47474211D01*
X41379257Y-47414631D01*
X41379252Y-47414630D01*
X41200007Y-47394435D01*
X41199999Y-47394435D01*
X41020753Y-47414630D01*
X41020740Y-47414633D01*
X40843909Y-47476510D01*
X40843160Y-47474369D01*
X40784824Y-47483958D01*
X40756408Y-47475611D01*
X40756094Y-47476510D01*
X40579262Y-47414633D01*
X40579249Y-47414630D01*
X40400004Y-47394435D01*
X40399996Y-47394435D01*
X40220750Y-47414630D01*
X40220745Y-47414631D01*
X40050476Y-47474211D01*
X39897737Y-47570184D01*
X39770184Y-47697737D01*
X39674211Y-47850476D01*
X39614631Y-48020745D01*
X39614630Y-48020750D01*
X39594435Y-48199996D01*
X39594435Y-48200003D01*
X21007621Y-48200003D01*
X21124173Y-48021607D01*
X21224063Y-47793881D01*
X21285108Y-47552821D01*
X21290814Y-47483958D01*
X21305643Y-47305005D01*
X21305643Y-47304994D01*
X21285109Y-47057187D01*
X21285107Y-47057175D01*
X21224063Y-46816118D01*
X21124173Y-46588393D01*
X20988166Y-46380217D01*
X20966557Y-46356744D01*
X20819744Y-46197262D01*
X20736991Y-46132852D01*
X20696179Y-46076143D01*
X20692504Y-46006370D01*
X20727136Y-45945687D01*
X20736985Y-45937151D01*
X20784713Y-45900003D01*
X41494435Y-45900003D01*
X41514630Y-46079249D01*
X41514631Y-46079254D01*
X41574211Y-46249523D01*
X41656331Y-46380215D01*
X41670184Y-46402262D01*
X41797738Y-46529816D01*
X41950478Y-46625789D01*
X42120745Y-46685368D01*
X42120750Y-46685369D01*
X42299996Y-46705565D01*
X42300000Y-46705565D01*
X42300004Y-46705565D01*
X42479249Y-46685369D01*
X42479252Y-46685368D01*
X42479255Y-46685368D01*
X42649522Y-46625789D01*
X42802262Y-46529816D01*
X42929816Y-46402262D01*
X43025789Y-46249522D01*
X43085368Y-46079255D01*
X43085719Y-46076143D01*
X43105565Y-45900003D01*
X43105565Y-45899996D01*
X43085369Y-45720750D01*
X43085368Y-45720745D01*
X43025788Y-45550476D01*
X42929815Y-45397737D01*
X42802262Y-45270184D01*
X42649523Y-45174211D01*
X42479254Y-45114631D01*
X42479249Y-45114630D01*
X42300004Y-45094435D01*
X42299996Y-45094435D01*
X42120750Y-45114630D01*
X42120745Y-45114631D01*
X41950476Y-45174211D01*
X41797737Y-45270184D01*
X41670184Y-45397737D01*
X41574211Y-45550476D01*
X41514631Y-45720745D01*
X41514630Y-45720750D01*
X41494435Y-45899996D01*
X41494435Y-45900003D01*
X20784713Y-45900003D01*
X20819744Y-45872738D01*
X20988164Y-45689785D01*
X21124173Y-45481607D01*
X21224063Y-45253881D01*
X21285108Y-45012821D01*
X21305643Y-44765000D01*
X21285108Y-44517179D01*
X21224063Y-44276119D01*
X21191666Y-44202262D01*
X21124173Y-44048393D01*
X20988166Y-43840217D01*
X20966557Y-43816744D01*
X20859090Y-43700003D01*
X37694435Y-43700003D01*
X37714630Y-43879249D01*
X37714631Y-43879254D01*
X37774211Y-44049523D01*
X37870184Y-44202262D01*
X37997738Y-44329816D01*
X38150478Y-44425789D01*
X38320745Y-44485368D01*
X38320750Y-44485369D01*
X38499996Y-44505565D01*
X38500000Y-44505565D01*
X38500004Y-44505565D01*
X38679249Y-44485369D01*
X38679252Y-44485368D01*
X38679255Y-44485368D01*
X38849522Y-44425789D01*
X39002262Y-44329816D01*
X39129816Y-44202262D01*
X39225789Y-44049522D01*
X39285368Y-43879255D01*
X39285369Y-43879249D01*
X39305565Y-43700003D01*
X39305565Y-43699996D01*
X39285369Y-43520750D01*
X39285368Y-43520745D01*
X39225788Y-43350476D01*
X39129815Y-43197737D01*
X39002262Y-43070184D01*
X38849523Y-42974211D01*
X38679254Y-42914631D01*
X38679249Y-42914630D01*
X38500004Y-42894435D01*
X38499996Y-42894435D01*
X38320750Y-42914630D01*
X38320745Y-42914631D01*
X38150476Y-42974211D01*
X37997737Y-43070184D01*
X37870184Y-43197737D01*
X37774211Y-43350476D01*
X37714631Y-43520745D01*
X37714630Y-43520750D01*
X37694435Y-43699996D01*
X37694435Y-43700003D01*
X20859090Y-43700003D01*
X20819744Y-43657262D01*
X20736991Y-43592852D01*
X20696179Y-43536143D01*
X20692504Y-43466370D01*
X20727136Y-43405687D01*
X20736985Y-43397151D01*
X20819744Y-43332738D01*
X20988164Y-43149785D01*
X21124173Y-42941607D01*
X21224063Y-42713881D01*
X21285108Y-42472821D01*
X21299428Y-42300003D01*
X21305643Y-42225005D01*
X21305643Y-42224994D01*
X21285109Y-41977187D01*
X21285107Y-41977175D01*
X21224063Y-41736118D01*
X21124173Y-41508393D01*
X20988166Y-41300217D01*
X20923356Y-41229815D01*
X20819744Y-41117262D01*
X20736991Y-41052852D01*
X20696179Y-40996143D01*
X20692504Y-40926370D01*
X20727136Y-40865687D01*
X20736985Y-40857151D01*
X20819744Y-40792738D01*
X20988164Y-40609785D01*
X20994555Y-40600003D01*
X41394435Y-40600003D01*
X41414630Y-40779249D01*
X41414631Y-40779254D01*
X41474211Y-40949523D01*
X41495642Y-40983630D01*
X41570184Y-41102262D01*
X41697738Y-41229816D01*
X41850478Y-41325789D01*
X42020745Y-41385368D01*
X42020750Y-41385369D01*
X42199996Y-41405565D01*
X42200000Y-41405565D01*
X42200004Y-41405565D01*
X42379249Y-41385369D01*
X42379252Y-41385368D01*
X42379255Y-41385368D01*
X42549522Y-41325789D01*
X42702262Y-41229816D01*
X42829816Y-41102262D01*
X42925789Y-40949522D01*
X42985368Y-40779255D01*
X43005565Y-40600000D01*
X42985368Y-40420745D01*
X42925789Y-40250478D01*
X42829816Y-40097738D01*
X42702262Y-39970184D01*
X42642804Y-39932824D01*
X42549523Y-39874211D01*
X42379254Y-39814631D01*
X42379249Y-39814630D01*
X42200004Y-39794435D01*
X42199996Y-39794435D01*
X42020750Y-39814630D01*
X42020745Y-39814631D01*
X41850476Y-39874211D01*
X41697737Y-39970184D01*
X41570184Y-40097737D01*
X41474211Y-40250476D01*
X41414631Y-40420745D01*
X41414630Y-40420750D01*
X41394435Y-40599996D01*
X41394435Y-40600003D01*
X20994555Y-40600003D01*
X21124173Y-40401607D01*
X21224063Y-40173881D01*
X21285108Y-39932821D01*
X21289965Y-39874211D01*
X21305643Y-39685005D01*
X21305643Y-39684994D01*
X21285109Y-39437187D01*
X21285107Y-39437175D01*
X21224063Y-39196118D01*
X21124173Y-38968393D01*
X20988166Y-38760217D01*
X20966557Y-38736744D01*
X20819744Y-38577262D01*
X20736991Y-38512852D01*
X20696179Y-38456143D01*
X20692504Y-38386370D01*
X20727136Y-38325687D01*
X20736985Y-38317151D01*
X20819744Y-38252738D01*
X20988164Y-38069785D01*
X21124173Y-37861607D01*
X21224063Y-37633881D01*
X21285108Y-37392821D01*
X21285109Y-37392812D01*
X21305643Y-37145005D01*
X21305643Y-37144994D01*
X21285109Y-36897187D01*
X21285107Y-36897175D01*
X21224063Y-36656118D01*
X21124173Y-36428393D01*
X20988166Y-36220217D01*
X20966557Y-36196744D01*
X20819744Y-36037262D01*
X20736991Y-35972852D01*
X20696179Y-35916143D01*
X20692504Y-35846370D01*
X20727136Y-35785687D01*
X20736985Y-35777151D01*
X20819744Y-35712738D01*
X20988164Y-35529785D01*
X21124173Y-35321607D01*
X21224063Y-35093881D01*
X21285108Y-34852821D01*
X21305643Y-34605000D01*
X21285108Y-34357179D01*
X21224063Y-34116119D01*
X21124173Y-33888393D01*
X20988166Y-33680217D01*
X20966557Y-33656744D01*
X20819744Y-33497262D01*
X20736991Y-33432852D01*
X20696179Y-33376143D01*
X20692504Y-33306370D01*
X20727136Y-33245687D01*
X20736985Y-33237151D01*
X20819744Y-33172738D01*
X20988164Y-32989785D01*
X21124173Y-32781607D01*
X21224063Y-32553881D01*
X21285108Y-32312821D01*
X21305643Y-32065000D01*
X21291142Y-31890000D01*
X26915640Y-31890000D01*
X26935039Y-32099352D01*
X26992579Y-32301587D01*
X27086293Y-32489790D01*
X27086298Y-32489798D01*
X27213004Y-32657584D01*
X27368381Y-32799228D01*
X27368383Y-32799230D01*
X27443675Y-32845848D01*
X27547144Y-32909913D01*
X27743199Y-32985866D01*
X27949873Y-33024500D01*
X27949875Y-33024500D01*
X28160125Y-33024500D01*
X28160127Y-33024500D01*
X28366801Y-32985866D01*
X28562856Y-32909913D01*
X28741618Y-32799229D01*
X28896997Y-32657582D01*
X29023703Y-32489796D01*
X29117422Y-32301584D01*
X29174960Y-32099357D01*
X29194360Y-31890000D01*
X29455640Y-31890000D01*
X29475039Y-32099352D01*
X29532579Y-32301587D01*
X29626293Y-32489790D01*
X29626298Y-32489798D01*
X29753004Y-32657584D01*
X29908381Y-32799228D01*
X29908383Y-32799230D01*
X29983675Y-32845848D01*
X30087144Y-32909913D01*
X30283199Y-32985866D01*
X30489873Y-33024500D01*
X30489875Y-33024500D01*
X30700125Y-33024500D01*
X30700127Y-33024500D01*
X30906801Y-32985866D01*
X31102856Y-32909913D01*
X31281618Y-32799229D01*
X31436997Y-32657582D01*
X31563703Y-32489796D01*
X31657422Y-32301584D01*
X31714960Y-32099357D01*
X31734360Y-31890000D01*
X31995640Y-31890000D01*
X32015039Y-32099352D01*
X32072579Y-32301587D01*
X32166293Y-32489790D01*
X32166298Y-32489798D01*
X32293004Y-32657584D01*
X32448381Y-32799228D01*
X32448383Y-32799230D01*
X32523675Y-32845848D01*
X32627144Y-32909913D01*
X32823199Y-32985866D01*
X33029873Y-33024500D01*
X33029875Y-33024500D01*
X33240125Y-33024500D01*
X33240127Y-33024500D01*
X33446801Y-32985866D01*
X33642856Y-32909913D01*
X33821618Y-32799229D01*
X33976997Y-32657582D01*
X34103703Y-32489796D01*
X34197422Y-32301584D01*
X34254960Y-32099357D01*
X34274360Y-31890000D01*
X34535640Y-31890000D01*
X34555039Y-32099352D01*
X34612579Y-32301587D01*
X34706293Y-32489790D01*
X34706298Y-32489798D01*
X34833004Y-32657584D01*
X34988381Y-32799228D01*
X34988383Y-32799230D01*
X35063675Y-32845848D01*
X35167144Y-32909913D01*
X35363199Y-32985866D01*
X35569873Y-33024500D01*
X35569875Y-33024500D01*
X35780125Y-33024500D01*
X35780127Y-33024500D01*
X35986801Y-32985866D01*
X36182856Y-32909913D01*
X36361618Y-32799229D01*
X36516997Y-32657582D01*
X36643703Y-32489796D01*
X36737422Y-32301584D01*
X36794960Y-32099357D01*
X36814360Y-31890000D01*
X36794960Y-31680643D01*
X36737422Y-31478416D01*
X36672678Y-31348393D01*
X36643706Y-31290209D01*
X36643701Y-31290201D01*
X36516995Y-31122415D01*
X36361618Y-30980771D01*
X36361616Y-30980769D01*
X36182859Y-30870089D01*
X36182856Y-30870087D01*
X36062938Y-30823630D01*
X35986801Y-30794134D01*
X35780127Y-30755500D01*
X35569873Y-30755500D01*
X35363199Y-30794134D01*
X35363196Y-30794134D01*
X35363196Y-30794135D01*
X35167143Y-30870087D01*
X35167140Y-30870089D01*
X34988383Y-30980769D01*
X34988381Y-30980771D01*
X34833004Y-31122415D01*
X34706298Y-31290201D01*
X34706293Y-31290209D01*
X34612579Y-31478412D01*
X34555039Y-31680647D01*
X34535640Y-31889999D01*
X34535640Y-31890000D01*
X34274360Y-31890000D01*
X34254960Y-31680643D01*
X34197422Y-31478416D01*
X34132678Y-31348393D01*
X34103706Y-31290209D01*
X34103701Y-31290201D01*
X33976995Y-31122415D01*
X33821618Y-30980771D01*
X33821616Y-30980769D01*
X33642859Y-30870089D01*
X33642856Y-30870087D01*
X33522938Y-30823630D01*
X33446801Y-30794134D01*
X33240127Y-30755500D01*
X33029873Y-30755500D01*
X32823199Y-30794134D01*
X32823196Y-30794134D01*
X32823196Y-30794135D01*
X32627143Y-30870087D01*
X32627140Y-30870089D01*
X32448383Y-30980769D01*
X32448381Y-30980771D01*
X32293004Y-31122415D01*
X32166298Y-31290201D01*
X32166293Y-31290209D01*
X32072579Y-31478412D01*
X32015039Y-31680647D01*
X31995640Y-31889999D01*
X31995640Y-31890000D01*
X31734360Y-31890000D01*
X31714960Y-31680643D01*
X31657422Y-31478416D01*
X31592678Y-31348393D01*
X31563706Y-31290209D01*
X31563701Y-31290201D01*
X31436995Y-31122415D01*
X31281618Y-30980771D01*
X31281616Y-30980769D01*
X31102859Y-30870089D01*
X31102856Y-30870087D01*
X30982938Y-30823630D01*
X30906801Y-30794134D01*
X30700127Y-30755500D01*
X30489873Y-30755500D01*
X30283199Y-30794134D01*
X30283196Y-30794134D01*
X30283196Y-30794135D01*
X30087143Y-30870087D01*
X30087140Y-30870089D01*
X29908383Y-30980769D01*
X29908381Y-30980771D01*
X29753004Y-31122415D01*
X29626298Y-31290201D01*
X29626293Y-31290209D01*
X29532579Y-31478412D01*
X29475039Y-31680647D01*
X29455640Y-31889999D01*
X29455640Y-31890000D01*
X29194360Y-31890000D01*
X29174960Y-31680643D01*
X29117422Y-31478416D01*
X29052678Y-31348393D01*
X29023706Y-31290209D01*
X29023701Y-31290201D01*
X28896995Y-31122415D01*
X28741618Y-30980771D01*
X28741616Y-30980769D01*
X28562859Y-30870089D01*
X28562856Y-30870087D01*
X28442938Y-30823630D01*
X28366801Y-30794134D01*
X28160127Y-30755500D01*
X27949873Y-30755500D01*
X27743199Y-30794134D01*
X27743196Y-30794134D01*
X27743196Y-30794135D01*
X27547143Y-30870087D01*
X27547140Y-30870089D01*
X27368383Y-30980769D01*
X27368381Y-30980771D01*
X27213004Y-31122415D01*
X27086298Y-31290201D01*
X27086293Y-31290209D01*
X26992579Y-31478412D01*
X26935039Y-31680647D01*
X26915640Y-31889999D01*
X26915640Y-31890000D01*
X21291142Y-31890000D01*
X21285108Y-31817179D01*
X21224063Y-31576119D01*
X21181206Y-31478416D01*
X21124173Y-31348393D01*
X20988166Y-31140217D01*
X20966557Y-31116744D01*
X20819744Y-30957262D01*
X20736991Y-30892852D01*
X20696179Y-30836143D01*
X20692504Y-30766370D01*
X20727136Y-30705687D01*
X20736985Y-30697151D01*
X20819744Y-30632738D01*
X20988164Y-30449785D01*
X21124173Y-30241607D01*
X21224063Y-30013881D01*
X21285108Y-29772821D01*
X21287190Y-29747693D01*
X21305643Y-29525005D01*
X21305643Y-29524994D01*
X21291142Y-29350000D01*
X28185640Y-29350000D01*
X28205039Y-29559352D01*
X28205039Y-29559354D01*
X28205040Y-29559357D01*
X28215974Y-29597785D01*
X28262579Y-29761587D01*
X28356293Y-29949790D01*
X28356298Y-29949798D01*
X28483004Y-30117584D01*
X28638381Y-30259228D01*
X28638383Y-30259230D01*
X28713675Y-30305848D01*
X28817144Y-30369913D01*
X29013199Y-30445866D01*
X29219873Y-30484500D01*
X29219875Y-30484500D01*
X29430125Y-30484500D01*
X29430127Y-30484500D01*
X29636801Y-30445866D01*
X29832856Y-30369913D01*
X30011618Y-30259229D01*
X30166997Y-30117582D01*
X30293703Y-29949796D01*
X30387422Y-29761584D01*
X30444960Y-29559357D01*
X30464360Y-29350000D01*
X30725640Y-29350000D01*
X30745039Y-29559352D01*
X30745039Y-29559354D01*
X30745040Y-29559357D01*
X30755974Y-29597785D01*
X30802579Y-29761587D01*
X30896293Y-29949790D01*
X30896298Y-29949798D01*
X31023004Y-30117584D01*
X31178381Y-30259228D01*
X31178383Y-30259230D01*
X31253675Y-30305848D01*
X31357144Y-30369913D01*
X31553199Y-30445866D01*
X31759873Y-30484500D01*
X31759875Y-30484500D01*
X31970125Y-30484500D01*
X31970127Y-30484500D01*
X32176801Y-30445866D01*
X32372856Y-30369913D01*
X32551618Y-30259229D01*
X32706997Y-30117582D01*
X32833703Y-29949796D01*
X32927422Y-29761584D01*
X32984960Y-29559357D01*
X33004360Y-29350000D01*
X33265640Y-29350000D01*
X33285039Y-29559352D01*
X33285039Y-29559354D01*
X33285040Y-29559357D01*
X33295974Y-29597785D01*
X33342579Y-29761587D01*
X33436293Y-29949790D01*
X33436298Y-29949798D01*
X33563004Y-30117584D01*
X33718381Y-30259228D01*
X33718383Y-30259230D01*
X33793675Y-30305848D01*
X33897144Y-30369913D01*
X34093199Y-30445866D01*
X34299873Y-30484500D01*
X34299875Y-30484500D01*
X34510125Y-30484500D01*
X34510127Y-30484500D01*
X34716801Y-30445866D01*
X34912856Y-30369913D01*
X35091618Y-30259229D01*
X35246997Y-30117582D01*
X35311724Y-30031870D01*
X35810500Y-30031870D01*
X35810501Y-30031876D01*
X35816908Y-30091483D01*
X35867202Y-30226328D01*
X35867206Y-30226335D01*
X35953452Y-30341544D01*
X35953455Y-30341547D01*
X36068664Y-30427793D01*
X36068671Y-30427797D01*
X36203517Y-30478091D01*
X36203516Y-30478091D01*
X36210444Y-30478835D01*
X36263127Y-30484500D01*
X37626872Y-30484499D01*
X37686483Y-30478091D01*
X37821331Y-30427796D01*
X37936546Y-30341546D01*
X38022796Y-30226331D01*
X38073091Y-30091483D01*
X38079500Y-30031873D01*
X38079499Y-28668128D01*
X38073091Y-28608517D01*
X38069995Y-28600217D01*
X38022797Y-28473671D01*
X38022793Y-28473664D01*
X37936547Y-28358455D01*
X37936544Y-28358452D01*
X37821335Y-28272206D01*
X37821328Y-28272202D01*
X37686482Y-28221908D01*
X37686483Y-28221908D01*
X37626883Y-28215501D01*
X37626881Y-28215500D01*
X37626873Y-28215500D01*
X37626864Y-28215500D01*
X36263129Y-28215500D01*
X36263123Y-28215501D01*
X36203516Y-28221908D01*
X36068671Y-28272202D01*
X36068664Y-28272206D01*
X35953455Y-28358452D01*
X35953452Y-28358455D01*
X35867206Y-28473664D01*
X35867202Y-28473671D01*
X35816908Y-28608517D01*
X35810501Y-28668116D01*
X35810501Y-28668123D01*
X35810500Y-28668135D01*
X35810500Y-30031870D01*
X35311724Y-30031870D01*
X35373703Y-29949796D01*
X35467422Y-29761584D01*
X35524960Y-29559357D01*
X35544360Y-29350000D01*
X35524960Y-29140643D01*
X35467422Y-28938416D01*
X35402678Y-28808393D01*
X35373706Y-28750209D01*
X35373701Y-28750201D01*
X35246995Y-28582415D01*
X35091618Y-28440771D01*
X35091616Y-28440769D01*
X34912859Y-28330089D01*
X34912856Y-28330087D01*
X34792938Y-28283630D01*
X34716801Y-28254134D01*
X34510127Y-28215500D01*
X34299873Y-28215500D01*
X34093199Y-28254134D01*
X34093196Y-28254134D01*
X34093196Y-28254135D01*
X33897143Y-28330087D01*
X33897140Y-28330089D01*
X33718383Y-28440769D01*
X33718381Y-28440771D01*
X33563004Y-28582415D01*
X33436298Y-28750201D01*
X33436293Y-28750209D01*
X33342579Y-28938412D01*
X33285039Y-29140647D01*
X33265640Y-29349999D01*
X33265640Y-29350000D01*
X33004360Y-29350000D01*
X32984960Y-29140643D01*
X32927422Y-28938416D01*
X32862678Y-28808393D01*
X32833706Y-28750209D01*
X32833701Y-28750201D01*
X32706995Y-28582415D01*
X32551618Y-28440771D01*
X32551616Y-28440769D01*
X32372859Y-28330089D01*
X32372856Y-28330087D01*
X32252938Y-28283630D01*
X32176801Y-28254134D01*
X31970127Y-28215500D01*
X31759873Y-28215500D01*
X31553199Y-28254134D01*
X31553196Y-28254134D01*
X31553196Y-28254135D01*
X31357143Y-28330087D01*
X31357140Y-28330089D01*
X31178383Y-28440769D01*
X31178381Y-28440771D01*
X31023004Y-28582415D01*
X30896298Y-28750201D01*
X30896293Y-28750209D01*
X30802579Y-28938412D01*
X30745039Y-29140647D01*
X30725640Y-29349999D01*
X30725640Y-29350000D01*
X30464360Y-29350000D01*
X30444960Y-29140643D01*
X30387422Y-28938416D01*
X30322678Y-28808393D01*
X30293706Y-28750209D01*
X30293701Y-28750201D01*
X30166995Y-28582415D01*
X30011618Y-28440771D01*
X30011616Y-28440769D01*
X29832859Y-28330089D01*
X29832856Y-28330087D01*
X29712938Y-28283630D01*
X29636801Y-28254134D01*
X29430127Y-28215500D01*
X29219873Y-28215500D01*
X29013199Y-28254134D01*
X29013196Y-28254134D01*
X29013196Y-28254135D01*
X28817143Y-28330087D01*
X28817140Y-28330089D01*
X28638383Y-28440769D01*
X28638381Y-28440771D01*
X28483004Y-28582415D01*
X28356298Y-28750201D01*
X28356293Y-28750209D01*
X28262579Y-28938412D01*
X28205039Y-29140647D01*
X28185640Y-29349999D01*
X28185640Y-29350000D01*
X21291142Y-29350000D01*
X21285109Y-29277187D01*
X21285107Y-29277175D01*
X21224063Y-29036118D01*
X21124173Y-28808393D01*
X20988166Y-28600217D01*
X20966557Y-28576744D01*
X20819744Y-28417262D01*
X20623509Y-28264526D01*
X20623507Y-28264525D01*
X20623506Y-28264524D01*
X20404811Y-28146172D01*
X20404802Y-28146169D01*
X20169616Y-28065429D01*
X19924335Y-28024500D01*
X19675665Y-28024500D01*
X19430383Y-28065429D01*
X19195197Y-28146169D01*
X19195188Y-28146172D01*
X18976493Y-28264524D01*
X18780257Y-28417261D01*
X18611833Y-28600217D01*
X18475826Y-28808393D01*
X18375936Y-29036118D01*
X18314892Y-29277175D01*
X18314890Y-29277187D01*
X18294357Y-29524994D01*
X18294357Y-29525005D01*
X18314890Y-29772812D01*
X18314892Y-29772824D01*
X18375936Y-30013881D01*
X18475826Y-30241606D01*
X18611833Y-30449782D01*
X18611836Y-30449785D01*
X18780256Y-30632738D01*
X18863008Y-30697147D01*
X18903821Y-30753857D01*
X18907496Y-30823630D01*
X18872864Y-30884313D01*
X18863014Y-30892848D01*
X18804400Y-30938469D01*
X18780257Y-30957261D01*
X18611833Y-31140217D01*
X18475826Y-31348393D01*
X18375936Y-31576118D01*
X18314892Y-31817175D01*
X18314890Y-31817187D01*
X18294357Y-32064994D01*
X18294357Y-32065005D01*
X18314890Y-32312812D01*
X18314892Y-32312824D01*
X18375936Y-32553881D01*
X18475826Y-32781606D01*
X18611833Y-32989782D01*
X18611836Y-32989785D01*
X18780256Y-33172738D01*
X18863008Y-33237147D01*
X18903821Y-33293857D01*
X18907496Y-33363630D01*
X18872864Y-33424313D01*
X18863014Y-33432848D01*
X18804400Y-33478469D01*
X18780257Y-33497261D01*
X18611833Y-33680217D01*
X18475826Y-33888393D01*
X18375936Y-34116118D01*
X18314892Y-34357175D01*
X18314890Y-34357187D01*
X18294357Y-34604994D01*
X18294357Y-34605005D01*
X18314890Y-34852812D01*
X18314892Y-34852824D01*
X18375936Y-35093881D01*
X18475826Y-35321606D01*
X18611833Y-35529782D01*
X18611836Y-35529785D01*
X18780256Y-35712738D01*
X18863008Y-35777147D01*
X18903821Y-35833857D01*
X18907496Y-35903630D01*
X18872864Y-35964313D01*
X18863014Y-35972848D01*
X18804400Y-36018469D01*
X18780257Y-36037261D01*
X18611833Y-36220217D01*
X18475826Y-36428393D01*
X18375936Y-36656118D01*
X18314892Y-36897175D01*
X18314890Y-36897187D01*
X18294357Y-37144994D01*
X18294357Y-37145005D01*
X18314890Y-37392812D01*
X18314892Y-37392824D01*
X18375936Y-37633881D01*
X18475826Y-37861606D01*
X18611833Y-38069782D01*
X18611836Y-38069785D01*
X18780256Y-38252738D01*
X18863008Y-38317147D01*
X18903821Y-38373857D01*
X18907496Y-38443630D01*
X18872864Y-38504313D01*
X18863014Y-38512848D01*
X18804400Y-38558469D01*
X18780257Y-38577261D01*
X18611833Y-38760217D01*
X18475826Y-38968393D01*
X18375936Y-39196118D01*
X18314892Y-39437175D01*
X18314890Y-39437187D01*
X18294357Y-39684994D01*
X18294357Y-39685005D01*
X18314890Y-39932812D01*
X18314892Y-39932824D01*
X18375936Y-40173881D01*
X18475826Y-40401606D01*
X18611833Y-40609782D01*
X18611836Y-40609785D01*
X18780256Y-40792738D01*
X18863008Y-40857147D01*
X18903821Y-40913857D01*
X18907496Y-40983630D01*
X18872864Y-41044313D01*
X18863014Y-41052848D01*
X18804400Y-41098469D01*
X18780257Y-41117261D01*
X18611833Y-41300217D01*
X18475826Y-41508393D01*
X18375936Y-41736118D01*
X18314892Y-41977175D01*
X18314890Y-41977187D01*
X18294357Y-42224994D01*
X18294357Y-42225005D01*
X18314890Y-42472812D01*
X18314892Y-42472824D01*
X18375936Y-42713881D01*
X18475826Y-42941606D01*
X18611833Y-43149782D01*
X18611836Y-43149785D01*
X18780256Y-43332738D01*
X18863008Y-43397147D01*
X18903821Y-43453857D01*
X18907496Y-43523630D01*
X18872864Y-43584313D01*
X18863014Y-43592848D01*
X18804400Y-43638469D01*
X18780257Y-43657261D01*
X18611833Y-43840217D01*
X18475826Y-44048393D01*
X18375936Y-44276118D01*
X18314892Y-44517175D01*
X18314890Y-44517187D01*
X18294357Y-44764994D01*
X18294357Y-44765005D01*
X18314890Y-45012812D01*
X18314892Y-45012824D01*
X18375936Y-45253881D01*
X18475826Y-45481606D01*
X18611833Y-45689782D01*
X18611836Y-45689785D01*
X18780256Y-45872738D01*
X18863008Y-45937147D01*
X18903821Y-45993857D01*
X18907496Y-46063630D01*
X18872864Y-46124313D01*
X18863014Y-46132848D01*
X18804400Y-46178469D01*
X18780257Y-46197261D01*
X18611833Y-46380217D01*
X18475826Y-46588393D01*
X18375936Y-46816118D01*
X18314892Y-47057175D01*
X18314890Y-47057187D01*
X18294357Y-47304994D01*
X18294357Y-47305005D01*
X18314890Y-47552812D01*
X18314892Y-47552824D01*
X18375936Y-47793881D01*
X18475826Y-48021606D01*
X18611833Y-48229782D01*
X18644245Y-48264991D01*
X18780256Y-48412738D01*
X18863008Y-48477147D01*
X18903821Y-48533857D01*
X18907496Y-48603630D01*
X18872864Y-48664313D01*
X18863014Y-48672848D01*
X18825224Y-48702262D01*
X18780257Y-48737261D01*
X18611833Y-48920217D01*
X18475826Y-49128393D01*
X18375936Y-49356118D01*
X18314892Y-49597175D01*
X18314890Y-49597187D01*
X18294357Y-49844994D01*
X18294357Y-49845005D01*
X18314890Y-50092812D01*
X18314892Y-50092824D01*
X18375936Y-50333881D01*
X18475826Y-50561606D01*
X18611833Y-50769782D01*
X18611836Y-50769785D01*
X18780256Y-50952738D01*
X18863008Y-51017147D01*
X18903821Y-51073857D01*
X18907496Y-51143630D01*
X18872864Y-51204313D01*
X18863014Y-51212848D01*
X18804400Y-51258469D01*
X18780257Y-51277261D01*
X18611833Y-51460217D01*
X18475826Y-51668393D01*
X18375936Y-51896118D01*
X18314892Y-52137175D01*
X18314890Y-52137187D01*
X18294357Y-52384994D01*
X18294357Y-52385005D01*
X18314890Y-52632812D01*
X18314892Y-52632824D01*
X18375936Y-52873881D01*
X18475826Y-53101606D01*
X18611833Y-53309782D01*
X18611836Y-53309785D01*
X18780256Y-53492738D01*
X18863008Y-53557147D01*
X18903821Y-53613857D01*
X18907496Y-53683630D01*
X18872864Y-53744313D01*
X18863014Y-53752848D01*
X18804400Y-53798469D01*
X18780257Y-53817261D01*
X18611833Y-54000217D01*
X18475826Y-54208393D01*
X18375936Y-54436118D01*
X18314892Y-54677175D01*
X18314890Y-54677187D01*
X18294357Y-54924994D01*
X18294357Y-54925005D01*
X18314890Y-55172812D01*
X18314892Y-55172824D01*
X18375936Y-55413881D01*
X18475826Y-55641606D01*
X18611833Y-55849782D01*
X18611836Y-55849785D01*
X18780256Y-56032738D01*
X18863008Y-56097147D01*
X18903821Y-56153857D01*
X18907496Y-56223630D01*
X18872864Y-56284313D01*
X18863014Y-56292848D01*
X18804400Y-56338469D01*
X18780257Y-56357261D01*
X18611833Y-56540217D01*
X18475826Y-56748393D01*
X18375936Y-56976118D01*
X18314892Y-57217175D01*
X18314890Y-57217187D01*
X18294357Y-57464994D01*
X18294357Y-57465005D01*
X18314890Y-57712812D01*
X18314892Y-57712824D01*
X18375936Y-57953881D01*
X18475826Y-58181606D01*
X18611833Y-58389782D01*
X18611836Y-58389785D01*
X18780256Y-58572738D01*
X18863008Y-58637147D01*
X18903821Y-58693857D01*
X18907496Y-58763630D01*
X18872864Y-58824313D01*
X18863014Y-58832848D01*
X18804400Y-58878469D01*
X18780257Y-58897261D01*
X18611833Y-59080217D01*
X18475826Y-59288393D01*
X18375936Y-59516118D01*
X18314892Y-59757175D01*
X18314890Y-59757187D01*
X18294357Y-60004994D01*
X18294357Y-60005005D01*
X18314890Y-60252812D01*
X18314892Y-60252824D01*
X18375936Y-60493881D01*
X18475826Y-60721606D01*
X18611833Y-60929782D01*
X18611836Y-60929785D01*
X18780256Y-61112738D01*
X18863008Y-61177147D01*
X18903821Y-61233857D01*
X18907496Y-61303630D01*
X18872864Y-61364313D01*
X18863014Y-61372848D01*
X18804400Y-61418469D01*
X18780257Y-61437261D01*
X18611833Y-61620217D01*
X18475826Y-61828393D01*
X18375936Y-62056118D01*
X18314892Y-62297175D01*
X18314890Y-62297187D01*
X18294357Y-62544994D01*
X18294357Y-62545005D01*
X17500500Y-62545005D01*
X17500500Y-23126211D01*
X24858500Y-23126211D01*
X24891446Y-23376451D01*
X24956773Y-23620258D01*
X25053363Y-23853447D01*
X25053372Y-23853464D01*
X25179566Y-24072041D01*
X25179568Y-24072045D01*
X25333227Y-24272294D01*
X25333235Y-24272303D01*
X25511697Y-24450765D01*
X25511705Y-24450772D01*
X25711954Y-24604431D01*
X25711958Y-24604433D01*
X25930535Y-24730627D01*
X25930552Y-24730636D01*
X26059758Y-24784154D01*
X26163740Y-24827226D01*
X26407548Y-24892554D01*
X26657796Y-24925500D01*
X26657803Y-24925500D01*
X26910197Y-24925500D01*
X26910204Y-24925500D01*
X27160452Y-24892554D01*
X27404260Y-24827226D01*
X27637454Y-24730633D01*
X27856041Y-24604433D01*
X27856045Y-24604431D01*
X27893842Y-24575427D01*
X28056294Y-24450773D01*
X28056298Y-24450768D01*
X28056303Y-24450765D01*
X28234765Y-24272303D01*
X28234768Y-24272298D01*
X28234773Y-24272294D01*
X28388430Y-24072046D01*
X28514633Y-23853454D01*
X28611226Y-23620260D01*
X28676554Y-23376452D01*
X28709499Y-23126211D01*
X36290500Y-23126211D01*
X36323446Y-23376451D01*
X36388773Y-23620258D01*
X36485363Y-23853447D01*
X36485372Y-23853464D01*
X36611566Y-24072041D01*
X36611568Y-24072045D01*
X36765227Y-24272294D01*
X36765235Y-24272303D01*
X36943697Y-24450765D01*
X36943705Y-24450772D01*
X37143954Y-24604431D01*
X37143958Y-24604433D01*
X37362535Y-24730627D01*
X37362552Y-24730636D01*
X37491758Y-24784154D01*
X37595740Y-24827226D01*
X37839548Y-24892554D01*
X38089796Y-24925500D01*
X38089803Y-24925500D01*
X38342197Y-24925500D01*
X38342204Y-24925500D01*
X38592452Y-24892554D01*
X38836260Y-24827226D01*
X39069454Y-24730633D01*
X39288041Y-24604433D01*
X39288045Y-24604431D01*
X39325842Y-24575427D01*
X39488294Y-24450773D01*
X39488298Y-24450768D01*
X39488303Y-24450765D01*
X39666765Y-24272303D01*
X39666768Y-24272298D01*
X39666773Y-24272294D01*
X39820430Y-24072046D01*
X39946633Y-23853454D01*
X40043226Y-23620260D01*
X40108554Y-23376452D01*
X40141500Y-23126204D01*
X40141500Y-22873796D01*
X40108554Y-22623548D01*
X40043226Y-22379740D01*
X40000154Y-22275758D01*
X39946636Y-22146552D01*
X39946627Y-22146535D01*
X39820433Y-21927958D01*
X39820431Y-21927954D01*
X39666772Y-21727705D01*
X39666765Y-21727697D01*
X39488303Y-21549235D01*
X39488294Y-21549227D01*
X39288045Y-21395568D01*
X39288041Y-21395566D01*
X39069464Y-21269372D01*
X39069447Y-21269363D01*
X38836258Y-21172773D01*
X38677330Y-21130189D01*
X38592452Y-21107446D01*
X38561171Y-21103327D01*
X38342211Y-21074500D01*
X38342204Y-21074500D01*
X38089796Y-21074500D01*
X38089788Y-21074500D01*
X37839548Y-21107446D01*
X37595741Y-21172773D01*
X37362552Y-21269363D01*
X37362535Y-21269372D01*
X37143958Y-21395566D01*
X37143954Y-21395568D01*
X36943705Y-21549227D01*
X36765227Y-21727705D01*
X36611568Y-21927954D01*
X36611566Y-21927958D01*
X36485372Y-22146535D01*
X36485363Y-22146552D01*
X36388773Y-22379741D01*
X36323446Y-22623548D01*
X36290500Y-22873788D01*
X36290500Y-23126211D01*
X28709499Y-23126211D01*
X28709500Y-23126204D01*
X28709500Y-22873796D01*
X28676554Y-22623548D01*
X28611226Y-22379740D01*
X28568154Y-22275758D01*
X28514636Y-22146552D01*
X28514627Y-22146535D01*
X28388433Y-21927958D01*
X28388431Y-21927954D01*
X28234772Y-21727705D01*
X28234765Y-21727697D01*
X28056303Y-21549235D01*
X28056294Y-21549227D01*
X27856045Y-21395568D01*
X27856041Y-21395566D01*
X27637464Y-21269372D01*
X27637447Y-21269363D01*
X27404258Y-21172773D01*
X27245330Y-21130189D01*
X27160452Y-21107446D01*
X27129171Y-21103327D01*
X26910211Y-21074500D01*
X26910204Y-21074500D01*
X26657796Y-21074500D01*
X26657788Y-21074500D01*
X26407548Y-21107446D01*
X26163741Y-21172773D01*
X25930552Y-21269363D01*
X25930535Y-21269372D01*
X25711958Y-21395566D01*
X25711954Y-21395568D01*
X25511705Y-21549227D01*
X25333227Y-21727705D01*
X25179568Y-21927954D01*
X25179566Y-21927958D01*
X25053372Y-22146535D01*
X25053363Y-22146552D01*
X24956773Y-22379741D01*
X24891446Y-22623548D01*
X24858500Y-22873788D01*
X24858500Y-23126211D01*
X17500500Y-23126211D01*
X17500500Y-19500000D01*
X18194564Y-19500000D01*
X18214287Y-19800918D01*
X18214288Y-19800930D01*
X18273118Y-20096683D01*
X18273122Y-20096698D01*
X18370053Y-20382247D01*
X18370062Y-20382268D01*
X18503431Y-20652713D01*
X18503435Y-20652720D01*
X18670973Y-20903459D01*
X18869810Y-21130189D01*
X19096540Y-21329026D01*
X19347279Y-21496564D01*
X19347286Y-21496568D01*
X19617731Y-21629937D01*
X19617736Y-21629939D01*
X19617748Y-21629945D01*
X19903309Y-21726880D01*
X20103251Y-21766651D01*
X20199069Y-21785711D01*
X20199070Y-21785711D01*
X20199080Y-21785713D01*
X20500000Y-21805436D01*
X20800920Y-21785713D01*
X21096691Y-21726880D01*
X21382252Y-21629945D01*
X21652718Y-21496566D01*
X21903461Y-21329025D01*
X22130189Y-21130189D01*
X22329025Y-20903461D01*
X22496566Y-20652718D01*
X22629945Y-20382252D01*
X22726880Y-20096691D01*
X22785713Y-19800920D01*
X22805436Y-19500000D01*
X70694564Y-19500000D01*
X70714287Y-19800918D01*
X70714288Y-19800930D01*
X70773118Y-20096683D01*
X70773122Y-20096698D01*
X70870053Y-20382247D01*
X70870062Y-20382268D01*
X71003431Y-20652713D01*
X71003435Y-20652720D01*
X71170973Y-20903459D01*
X71369810Y-21130189D01*
X71596540Y-21329026D01*
X71847279Y-21496564D01*
X71847286Y-21496568D01*
X72117731Y-21629937D01*
X72117736Y-21629939D01*
X72117748Y-21629945D01*
X72403309Y-21726880D01*
X72603251Y-21766651D01*
X72699069Y-21785711D01*
X72699070Y-21785711D01*
X72699080Y-21785713D01*
X73000000Y-21805436D01*
X73300920Y-21785713D01*
X73596691Y-21726880D01*
X73882252Y-21629945D01*
X74152718Y-21496566D01*
X74403461Y-21329025D01*
X74630189Y-21130189D01*
X74829025Y-20903461D01*
X74996566Y-20652718D01*
X75129945Y-20382252D01*
X75226880Y-20096691D01*
X75285713Y-19800920D01*
X75305436Y-19500000D01*
X75285713Y-19199080D01*
X75226880Y-18903309D01*
X75129945Y-18617748D01*
X74996566Y-18347282D01*
X74901999Y-18205752D01*
X74829026Y-18096540D01*
X74630189Y-17869810D01*
X74403459Y-17670973D01*
X74152720Y-17503435D01*
X74152713Y-17503431D01*
X73882268Y-17370062D01*
X73882247Y-17370053D01*
X73596698Y-17273122D01*
X73596692Y-17273120D01*
X73596691Y-17273120D01*
X73596689Y-17273119D01*
X73596683Y-17273118D01*
X73300930Y-17214288D01*
X73300921Y-17214287D01*
X73300920Y-17214287D01*
X73000000Y-17194564D01*
X72699080Y-17214287D01*
X72699079Y-17214287D01*
X72699069Y-17214288D01*
X72403316Y-17273118D01*
X72403301Y-17273122D01*
X72117752Y-17370053D01*
X72117731Y-17370062D01*
X71847286Y-17503431D01*
X71847279Y-17503435D01*
X71596540Y-17670973D01*
X71369810Y-17869810D01*
X71170973Y-18096540D01*
X71003435Y-18347279D01*
X71003431Y-18347286D01*
X70870062Y-18617731D01*
X70870053Y-18617752D01*
X70773122Y-18903301D01*
X70773118Y-18903316D01*
X70714288Y-19199069D01*
X70714287Y-19199081D01*
X70694564Y-19500000D01*
X22805436Y-19500000D01*
X22785713Y-19199080D01*
X22726880Y-18903309D01*
X22629945Y-18617748D01*
X22496566Y-18347282D01*
X22401999Y-18205752D01*
X47740708Y-18205752D01*
X47753089Y-18347279D01*
X47759839Y-18424424D01*
X47816653Y-18636453D01*
X47816654Y-18636456D01*
X47816655Y-18636458D01*
X47909419Y-18835392D01*
X47909423Y-18835400D01*
X48035322Y-19015202D01*
X48035327Y-19015208D01*
X48190541Y-19170422D01*
X48190547Y-19170427D01*
X48370349Y-19296326D01*
X48370351Y-19296327D01*
X48370354Y-19296329D01*
X48569297Y-19389097D01*
X48781326Y-19445911D01*
X48937521Y-19459576D01*
X48999998Y-19465042D01*
X49000000Y-19465042D01*
X49000002Y-19465042D01*
X49054668Y-19460259D01*
X49218674Y-19445911D01*
X49430703Y-19389097D01*
X49629646Y-19296329D01*
X49809457Y-19170424D01*
X49964674Y-19015207D01*
X50090579Y-18835396D01*
X50183347Y-18636453D01*
X50240161Y-18424424D01*
X50259292Y-18205752D01*
X58740708Y-18205752D01*
X58753089Y-18347279D01*
X58759839Y-18424424D01*
X58816653Y-18636453D01*
X58816654Y-18636456D01*
X58816655Y-18636458D01*
X58909419Y-18835392D01*
X58909423Y-18835400D01*
X59035322Y-19015202D01*
X59035327Y-19015208D01*
X59190541Y-19170422D01*
X59190547Y-19170427D01*
X59370349Y-19296326D01*
X59370351Y-19296327D01*
X59370354Y-19296329D01*
X59569297Y-19389097D01*
X59781326Y-19445911D01*
X59937521Y-19459576D01*
X59999998Y-19465042D01*
X60000000Y-19465042D01*
X60000002Y-19465042D01*
X60054668Y-19460259D01*
X60218674Y-19445911D01*
X60430703Y-19389097D01*
X60629646Y-19296329D01*
X60809457Y-19170424D01*
X60964674Y-19015207D01*
X61090579Y-18835396D01*
X61183347Y-18636453D01*
X61240161Y-18424424D01*
X61259292Y-18205750D01*
X61240161Y-17987076D01*
X61183347Y-17775047D01*
X61090579Y-17576104D01*
X61090577Y-17576101D01*
X61090576Y-17576099D01*
X60964677Y-17396297D01*
X60964672Y-17396291D01*
X60809458Y-17241077D01*
X60809452Y-17241072D01*
X60629650Y-17115173D01*
X60629642Y-17115169D01*
X60430708Y-17022405D01*
X60430706Y-17022404D01*
X60430703Y-17022403D01*
X60279885Y-16981990D01*
X60218675Y-16965589D01*
X60218668Y-16965588D01*
X60000002Y-16946458D01*
X59999998Y-16946458D01*
X59781331Y-16965588D01*
X59781324Y-16965589D01*
X59658902Y-16998392D01*
X59569297Y-17022403D01*
X59569295Y-17022403D01*
X59569291Y-17022405D01*
X59370357Y-17115169D01*
X59370349Y-17115173D01*
X59190547Y-17241072D01*
X59190541Y-17241077D01*
X59035327Y-17396291D01*
X59035322Y-17396297D01*
X58909423Y-17576099D01*
X58909419Y-17576107D01*
X58816655Y-17775041D01*
X58759839Y-17987074D01*
X58759838Y-17987081D01*
X58740708Y-18205747D01*
X58740708Y-18205752D01*
X50259292Y-18205752D01*
X50259292Y-18205750D01*
X50240161Y-17987076D01*
X50183347Y-17775047D01*
X50090579Y-17576104D01*
X50090577Y-17576101D01*
X50090576Y-17576099D01*
X49964677Y-17396297D01*
X49964672Y-17396291D01*
X49809458Y-17241077D01*
X49809452Y-17241072D01*
X49629650Y-17115173D01*
X49629642Y-17115169D01*
X49430708Y-17022405D01*
X49430706Y-17022404D01*
X49430703Y-17022403D01*
X49279885Y-16981990D01*
X49218675Y-16965589D01*
X49218668Y-16965588D01*
X49000002Y-16946458D01*
X48999998Y-16946458D01*
X48781331Y-16965588D01*
X48781324Y-16965589D01*
X48658902Y-16998392D01*
X48569297Y-17022403D01*
X48569295Y-17022403D01*
X48569291Y-17022405D01*
X48370357Y-17115169D01*
X48370349Y-17115173D01*
X48190547Y-17241072D01*
X48190541Y-17241077D01*
X48035327Y-17396291D01*
X48035322Y-17396297D01*
X47909423Y-17576099D01*
X47909419Y-17576107D01*
X47816655Y-17775041D01*
X47759839Y-17987074D01*
X47759838Y-17987081D01*
X47740708Y-18205747D01*
X47740708Y-18205752D01*
X22401999Y-18205752D01*
X22329026Y-18096540D01*
X22130189Y-17869810D01*
X21903459Y-17670973D01*
X21652720Y-17503435D01*
X21652713Y-17503431D01*
X21382268Y-17370062D01*
X21382247Y-17370053D01*
X21096698Y-17273122D01*
X21096692Y-17273120D01*
X21096691Y-17273120D01*
X21096689Y-17273119D01*
X21096683Y-17273118D01*
X20800930Y-17214288D01*
X20800921Y-17214287D01*
X20800920Y-17214287D01*
X20500000Y-17194564D01*
X20199080Y-17214287D01*
X20199079Y-17214287D01*
X20199069Y-17214288D01*
X19903316Y-17273118D01*
X19903301Y-17273122D01*
X19617752Y-17370053D01*
X19617731Y-17370062D01*
X19347286Y-17503431D01*
X19347279Y-17503435D01*
X19096540Y-17670973D01*
X18869810Y-17869810D01*
X18670973Y-18096540D01*
X18503435Y-18347279D01*
X18503431Y-18347286D01*
X18370062Y-18617731D01*
X18370053Y-18617752D01*
X18273122Y-18903301D01*
X18273118Y-18903316D01*
X18214288Y-19199069D01*
X18214287Y-19199081D01*
X18194564Y-19500000D01*
X17500500Y-19500000D01*
X17500500Y-16624500D01*
X17520185Y-16557461D01*
X17572989Y-16511706D01*
X17624500Y-16500500D01*
X75875500Y-16500500D01*
X75942539Y-16520185D01*
G37*
%TD.AperFunction*%
%TD*%
M02*
