%TF.GenerationSoftware,KiCad,Pcbnew,8.0.1-8.0.1-1~ubuntu22.04.1*%
%TF.CreationDate,2024-03-27T01:09:52-04:00*%
%TF.ProjectId,gripper_2024,67726970-7065-4725-9f32-3032342e6b69,rev?*%
%TF.SameCoordinates,Original*%
%TF.FileFunction,Soldermask,Bot*%
%TF.FilePolarity,Negative*%
%FSLAX46Y46*%
G04 Gerber Fmt 4.6, Leading zero omitted, Abs format (unit mm)*
G04 Created by KiCad (PCBNEW 8.0.1-8.0.1-1~ubuntu22.04.1) date 2024-03-27 01:09:52*
%MOMM*%
%LPD*%
G01*
G04 APERTURE LIST*
G04 Aperture macros list*
%AMRoundRect*
0 Rectangle with rounded corners*
0 $1 Rounding radius*
0 $2 $3 $4 $5 $6 $7 $8 $9 X,Y pos of 4 corners*
0 Add a 4 corners polygon primitive as box body*
4,1,4,$2,$3,$4,$5,$6,$7,$8,$9,$2,$3,0*
0 Add four circle primitives for the rounded corners*
1,1,$1+$1,$2,$3*
1,1,$1+$1,$4,$5*
1,1,$1+$1,$6,$7*
1,1,$1+$1,$8,$9*
0 Add four rect primitives between the rounded corners*
20,1,$1+$1,$2,$3,$4,$5,0*
20,1,$1+$1,$4,$5,$6,$7,0*
20,1,$1+$1,$6,$7,$8,$9,0*
20,1,$1+$1,$8,$9,$2,$3,0*%
G04 Aperture macros list end*
%ADD10RoundRect,0.250000X-0.475000X0.337500X-0.475000X-0.337500X0.475000X-0.337500X0.475000X0.337500X0*%
%ADD11RoundRect,0.150000X0.825000X0.150000X-0.825000X0.150000X-0.825000X-0.150000X0.825000X-0.150000X0*%
%ADD12RoundRect,0.250000X0.450000X-0.350000X0.450000X0.350000X-0.450000X0.350000X-0.450000X-0.350000X0*%
%ADD13RoundRect,0.250000X0.625000X-0.400000X0.625000X0.400000X-0.625000X0.400000X-0.625000X-0.400000X0*%
%ADD14C,2.204000*%
%ADD15RoundRect,0.102000X-1.000000X-1.000000X1.000000X-1.000000X1.000000X1.000000X-1.000000X1.000000X0*%
%ADD16RoundRect,0.102000X-2.500000X1.500000X-2.500000X-1.500000X2.500000X-1.500000X2.500000X1.500000X0*%
%ADD17O,4.704000X2.954000*%
%ADD18RoundRect,0.055580X-0.921420X-0.341420X0.921420X-0.341420X0.921420X0.341420X-0.921420X0.341420X0*%
%ADD19C,1.200000*%
%ADD20RoundRect,0.250000X0.725000X-0.600000X0.725000X0.600000X-0.725000X0.600000X-0.725000X-0.600000X0*%
%ADD21O,1.950000X1.700000*%
%ADD22C,1.472000*%
%ADD23RoundRect,0.102000X-0.634000X-0.634000X0.634000X-0.634000X0.634000X0.634000X-0.634000X0.634000X0*%
%ADD24C,3.350000*%
%ADD25RoundRect,0.102000X0.634000X0.634000X-0.634000X0.634000X-0.634000X-0.634000X0.634000X-0.634000X0*%
%ADD26C,1.712000*%
%ADD27C,2.754000*%
%ADD28RoundRect,0.102000X1.275000X1.275000X-1.275000X1.275000X-1.275000X-1.275000X1.275000X-1.275000X0*%
%ADD29RoundRect,0.102000X-1.275000X-1.275000X1.275000X-1.275000X1.275000X1.275000X-1.275000X1.275000X0*%
%ADD30C,5.600000*%
%ADD31C,3.600000*%
%ADD32R,1.600000X1.600000*%
%ADD33C,1.600000*%
%ADD34R,2.000000X2.000000*%
%ADD35C,2.000000*%
%ADD36C,0.600000*%
G04 APERTURE END LIST*
D10*
%TO.C,C11*%
X27900000Y-81162500D03*
X27900000Y-83237500D03*
%TD*%
D11*
%TO.C,U8*%
X35175000Y-86095000D03*
X35175000Y-87365000D03*
X35175000Y-88635000D03*
X35175000Y-89905000D03*
X30225000Y-89905000D03*
X30225000Y-88635000D03*
X30225000Y-87365000D03*
X30225000Y-86095000D03*
%TD*%
D12*
%TO.C,R21*%
X41700000Y-39200000D03*
X41700000Y-37200000D03*
%TD*%
%TO.C,R10*%
X23200000Y-36700000D03*
X23200000Y-34700000D03*
%TD*%
D13*
%TO.C,R7*%
X27150000Y-89200000D03*
X27150000Y-86100000D03*
%TD*%
D14*
%TO.C,U3*%
X45200000Y-26985000D03*
X45200000Y-32065000D03*
X45200000Y-34605000D03*
X45200000Y-37145000D03*
X45200000Y-39685000D03*
X45200000Y-42225000D03*
X45200000Y-44765000D03*
X45200000Y-47305000D03*
X45200000Y-49845000D03*
X45200000Y-52385000D03*
X45200000Y-54925000D03*
X45200000Y-57465000D03*
X45200000Y-60005000D03*
X45200000Y-62545000D03*
X19800000Y-62545000D03*
X19800000Y-60005000D03*
X19800000Y-57465000D03*
X19800000Y-54925000D03*
X19800000Y-52385000D03*
X19800000Y-49845000D03*
X19800000Y-47305000D03*
X19800000Y-44765000D03*
X19800000Y-42225000D03*
X19800000Y-39685000D03*
X19800000Y-37145000D03*
X19800000Y-34605000D03*
X19800000Y-32065000D03*
X45200000Y-29525000D03*
X19800000Y-29525000D03*
D15*
X19800000Y-26985000D03*
%TD*%
D16*
%TO.C,U7*%
X23000000Y-72000000D03*
D17*
X23000000Y-77000000D03*
X23000000Y-82000000D03*
%TD*%
D18*
%TO.C,U6*%
X28715000Y-63905000D03*
X28715000Y-62635000D03*
X28715000Y-61365000D03*
X28715000Y-60095000D03*
X33885000Y-60095000D03*
X33885000Y-61365000D03*
X33885000Y-62635000D03*
X33885000Y-63905000D03*
%TD*%
D19*
%TO.C,U5*%
X66475000Y-93500000D03*
D20*
X64475000Y-91900000D03*
D21*
X64475000Y-89400000D03*
X64475000Y-86900000D03*
X64475000Y-84400000D03*
X64475000Y-81900000D03*
X64475000Y-79400000D03*
%TD*%
D19*
%TO.C,U4*%
X74475000Y-93500000D03*
D20*
X72475000Y-91900000D03*
D21*
X72475000Y-89400000D03*
X72475000Y-86900000D03*
X72475000Y-84400000D03*
X72475000Y-81900000D03*
X72475000Y-79400000D03*
%TD*%
D22*
%TO.C,J6*%
X37012500Y-97150000D03*
X34472500Y-97150000D03*
X31932500Y-97150000D03*
D23*
X29392500Y-97150000D03*
D22*
X38282500Y-94610000D03*
X35742500Y-94610000D03*
X33202500Y-94610000D03*
X30662500Y-94610000D03*
D24*
X39553500Y-103500000D03*
X28121500Y-103500000D03*
%TD*%
%TO.C,J5*%
X38216000Y-23000000D03*
X26784000Y-23000000D03*
D22*
X35675000Y-31890000D03*
X33135000Y-31890000D03*
X30595000Y-31890000D03*
X28055000Y-31890000D03*
D25*
X36945000Y-29350000D03*
D22*
X34405000Y-29350000D03*
X31865000Y-29350000D03*
X29325000Y-29350000D03*
%TD*%
D19*
%TO.C,J4*%
X23475000Y-96100000D03*
D20*
X21475000Y-94500000D03*
D21*
X21475000Y-92000000D03*
X21475000Y-89500000D03*
%TD*%
D26*
%TO.C,J3*%
X72500000Y-102500000D03*
X61500000Y-102500000D03*
D27*
X69500000Y-97500000D03*
D28*
X64500000Y-97500000D03*
%TD*%
%TO.C,J2*%
X48000000Y-97500000D03*
D27*
X53000000Y-97500000D03*
D26*
X45000000Y-102500000D03*
X56000000Y-102500000D03*
%TD*%
%TO.C,J1*%
X49000000Y-18205750D03*
X60000000Y-18205750D03*
D27*
X57000000Y-28205750D03*
D29*
X52000000Y-28205750D03*
%TD*%
D30*
%TO.C,H3*%
X73000000Y-19500000D03*
D31*
X73000000Y-19500000D03*
%TD*%
%TO.C,H2*%
X20500000Y-19500000D03*
D30*
X20500000Y-19500000D03*
%TD*%
D31*
%TO.C,H1*%
X20500000Y-102500000D03*
D30*
X20500000Y-102500000D03*
%TD*%
D32*
%TO.C,C8*%
X36400000Y-83055112D03*
D33*
X36400000Y-81055112D03*
%TD*%
D10*
%TO.C,C7*%
X23000000Y-61062500D03*
X23000000Y-63137500D03*
%TD*%
D33*
%TO.C,C6*%
X30700000Y-81055112D03*
D32*
X30700000Y-83055112D03*
%TD*%
D10*
%TO.C,C3*%
X25800000Y-61062500D03*
X25800000Y-63137500D03*
%TD*%
D34*
%TO.C,C2*%
X61632323Y-36500000D03*
D35*
X66632323Y-36500000D03*
%TD*%
D34*
%TO.C,C1*%
X55367677Y-36500000D03*
D35*
X50367677Y-36500000D03*
%TD*%
D36*
X38500000Y-43700000D03*
X42700000Y-81500000D03*
X51400000Y-66900000D03*
X41300000Y-67100000D03*
X41200000Y-70300000D03*
X22000000Y-60000000D03*
X27200000Y-63100000D03*
X65300000Y-49400000D03*
X66600000Y-50000000D03*
X43200000Y-47800000D03*
X42300000Y-45900000D03*
X62925735Y-57574265D03*
X66150000Y-59950000D03*
X74500000Y-85000000D03*
X57405000Y-82400000D03*
X53600000Y-81700000D03*
X40400000Y-48200000D03*
X41200003Y-48200000D03*
X46500000Y-79600000D03*
X42200000Y-40600000D03*
X70500000Y-48700000D03*
X67300000Y-42300000D03*
X39200000Y-87800000D03*
X37300000Y-89600000D03*
X33900000Y-64900000D03*
X62700000Y-61600000D03*
X51400000Y-73300000D03*
X50100000Y-83600000D03*
X50100000Y-78700000D03*
X50100000Y-77750000D03*
X50095000Y-80545000D03*
X50100000Y-81600000D03*
X50100000Y-82600000D03*
X50100000Y-79500000D03*
X31700000Y-89900000D03*
X34000000Y-86750000D03*
X49050000Y-80545000D03*
X49055000Y-81600000D03*
X49055000Y-82600000D03*
X49055000Y-79500000D03*
X40150000Y-80495000D03*
X40155000Y-81550000D03*
X40155000Y-82550000D03*
X40155000Y-79450000D03*
X51050000Y-81600000D03*
X51045000Y-80545000D03*
X51050000Y-79500000D03*
X51050000Y-82600000D03*
X59950000Y-82550000D03*
X59950000Y-81550000D03*
X59945000Y-80495000D03*
X59950000Y-79450000D03*
M02*
