%TF.GenerationSoftware,KiCad,Pcbnew,8.0.1-8.0.1-1~ubuntu22.04.1*%
%TF.CreationDate,2024-04-01T00:33:59-04:00*%
%TF.ProjectId,gripper_2024,67726970-7065-4725-9f32-3032342e6b69,rev?*%
%TF.SameCoordinates,Original*%
%TF.FileFunction,Legend,Top*%
%TF.FilePolarity,Positive*%
%FSLAX46Y46*%
G04 Gerber Fmt 4.6, Leading zero omitted, Abs format (unit mm)*
G04 Created by KiCad (PCBNEW 8.0.1-8.0.1-1~ubuntu22.04.1) date 2024-04-01 00:33:59*
%MOMM*%
%LPD*%
G01*
G04 APERTURE LIST*
G04 Aperture macros list*
%AMRoundRect*
0 Rectangle with rounded corners*
0 $1 Rounding radius*
0 $2 $3 $4 $5 $6 $7 $8 $9 X,Y pos of 4 corners*
0 Add a 4 corners polygon primitive as box body*
4,1,4,$2,$3,$4,$5,$6,$7,$8,$9,$2,$3,0*
0 Add four circle primitives for the rounded corners*
1,1,$1+$1,$2,$3*
1,1,$1+$1,$4,$5*
1,1,$1+$1,$6,$7*
1,1,$1+$1,$8,$9*
0 Add four rect primitives between the rounded corners*
20,1,$1+$1,$2,$3,$4,$5,0*
20,1,$1+$1,$4,$5,$6,$7,0*
20,1,$1+$1,$6,$7,$8,$9,0*
20,1,$1+$1,$8,$9,$2,$3,0*%
G04 Aperture macros list end*
%ADD10C,0.100000*%
%ADD11C,0.187500*%
%ADD12C,0.500000*%
%ADD13C,0.300000*%
%ADD14C,0.250000*%
%ADD15C,0.150000*%
%ADD16C,0.120000*%
%ADD17C,0.152400*%
%ADD18C,0.000000*%
%ADD19C,0.127000*%
%ADD20C,0.200000*%
%ADD21RoundRect,0.250000X-0.350000X-0.450000X0.350000X-0.450000X0.350000X0.450000X-0.350000X0.450000X0*%
%ADD22RoundRect,0.250000X-0.475000X0.337500X-0.475000X-0.337500X0.475000X-0.337500X0.475000X0.337500X0*%
%ADD23R,0.558800X1.460500*%
%ADD24RoundRect,0.250000X0.350000X0.450000X-0.350000X0.450000X-0.350000X-0.450000X0.350000X-0.450000X0*%
%ADD25R,1.511300X0.609600*%
%ADD26RoundRect,0.250000X0.725000X-0.600000X0.725000X0.600000X-0.725000X0.600000X-0.725000X-0.600000X0*%
%ADD27O,1.950000X1.700000*%
%ADD28RoundRect,0.102000X-2.500000X1.500000X-2.500000X-1.500000X2.500000X-1.500000X2.500000X1.500000X0*%
%ADD29O,4.704000X2.954000*%
%ADD30RoundRect,0.250000X0.450000X-0.350000X0.450000X0.350000X-0.450000X0.350000X-0.450000X-0.350000X0*%
%ADD31RoundRect,0.102000X-1.000000X-1.000000X1.000000X-1.000000X1.000000X1.000000X-1.000000X1.000000X0*%
%ADD32C,2.204000*%
%ADD33C,1.712000*%
%ADD34C,2.754000*%
%ADD35RoundRect,0.102000X1.275000X1.275000X-1.275000X1.275000X-1.275000X-1.275000X1.275000X-1.275000X0*%
%ADD36C,3.600000*%
%ADD37C,5.600000*%
%ADD38RoundRect,0.250000X0.325000X0.450000X-0.325000X0.450000X-0.325000X-0.450000X0.325000X-0.450000X0*%
%ADD39C,3.350000*%
%ADD40RoundRect,0.102000X-0.634000X-0.634000X0.634000X-0.634000X0.634000X0.634000X-0.634000X0.634000X0*%
%ADD41C,1.472000*%
%ADD42RoundRect,0.250000X-0.450000X0.325000X-0.450000X-0.325000X0.450000X-0.325000X0.450000X0.325000X0*%
%ADD43RoundRect,0.250000X-0.325000X-0.450000X0.325000X-0.450000X0.325000X0.450000X-0.325000X0.450000X0*%
%ADD44R,2.000000X2.000000*%
%ADD45C,2.000000*%
%ADD46R,1.600000X1.600000*%
%ADD47C,1.600000*%
%ADD48RoundRect,0.250000X-0.450000X0.350000X-0.450000X-0.350000X0.450000X-0.350000X0.450000X0.350000X0*%
%ADD49RoundRect,0.102000X-3.300000X2.000000X-3.300000X-2.000000X3.300000X-2.000000X3.300000X2.000000X0*%
%ADD50RoundRect,0.250000X0.475000X-0.337500X0.475000X0.337500X-0.475000X0.337500X-0.475000X-0.337500X0*%
%ADD51R,1.955800X1.549400*%
%ADD52RoundRect,0.102000X-1.275000X-1.275000X1.275000X-1.275000X1.275000X1.275000X-1.275000X1.275000X0*%
%ADD53RoundRect,0.102000X0.634000X0.634000X-0.634000X0.634000X-0.634000X-0.634000X0.634000X-0.634000X0*%
%ADD54RoundRect,0.250000X0.400000X1.450000X-0.400000X1.450000X-0.400000X-1.450000X0.400000X-1.450000X0*%
%ADD55C,0.600000*%
G04 APERTURE END LIST*
D10*
X56345847Y-50424999D02*
X56345847Y-50674999D01*
X56764895Y-50674999D02*
X55964895Y-50674999D01*
X55964895Y-50674999D02*
X55964895Y-50317856D01*
X56764895Y-50032142D02*
X55964895Y-50032142D01*
X55964895Y-50032142D02*
X56536323Y-49782142D01*
X56536323Y-49782142D02*
X55964895Y-49532142D01*
X55964895Y-49532142D02*
X56764895Y-49532142D01*
X56764895Y-48817856D02*
X56764895Y-49174999D01*
X56764895Y-49174999D02*
X55964895Y-49174999D01*
D11*
X75857630Y-71161904D02*
X75905250Y-71209523D01*
X75905250Y-71209523D02*
X75952869Y-71352380D01*
X75952869Y-71352380D02*
X75952869Y-71447618D01*
X75952869Y-71447618D02*
X75905250Y-71590475D01*
X75905250Y-71590475D02*
X75810011Y-71685713D01*
X75810011Y-71685713D02*
X75714773Y-71733332D01*
X75714773Y-71733332D02*
X75524297Y-71780951D01*
X75524297Y-71780951D02*
X75381440Y-71780951D01*
X75381440Y-71780951D02*
X75190964Y-71733332D01*
X75190964Y-71733332D02*
X75095726Y-71685713D01*
X75095726Y-71685713D02*
X75000488Y-71590475D01*
X75000488Y-71590475D02*
X74952869Y-71447618D01*
X74952869Y-71447618D02*
X74952869Y-71352380D01*
X74952869Y-71352380D02*
X75000488Y-71209523D01*
X75000488Y-71209523D02*
X75048107Y-71161904D01*
X75857630Y-70161904D02*
X75905250Y-70209523D01*
X75905250Y-70209523D02*
X75952869Y-70352380D01*
X75952869Y-70352380D02*
X75952869Y-70447618D01*
X75952869Y-70447618D02*
X75905250Y-70590475D01*
X75905250Y-70590475D02*
X75810011Y-70685713D01*
X75810011Y-70685713D02*
X75714773Y-70733332D01*
X75714773Y-70733332D02*
X75524297Y-70780951D01*
X75524297Y-70780951D02*
X75381440Y-70780951D01*
X75381440Y-70780951D02*
X75190964Y-70733332D01*
X75190964Y-70733332D02*
X75095726Y-70685713D01*
X75095726Y-70685713D02*
X75000488Y-70590475D01*
X75000488Y-70590475D02*
X74952869Y-70447618D01*
X74952869Y-70447618D02*
X74952869Y-70352380D01*
X74952869Y-70352380D02*
X75000488Y-70209523D01*
X75000488Y-70209523D02*
X75048107Y-70161904D01*
X74952869Y-69828570D02*
X75952869Y-69590475D01*
X75952869Y-69590475D02*
X75238583Y-69399999D01*
X75238583Y-69399999D02*
X75952869Y-69209523D01*
X75952869Y-69209523D02*
X74952869Y-68971428D01*
X75857630Y-65761904D02*
X75905250Y-65809523D01*
X75905250Y-65809523D02*
X75952869Y-65952380D01*
X75952869Y-65952380D02*
X75952869Y-66047618D01*
X75952869Y-66047618D02*
X75905250Y-66190475D01*
X75905250Y-66190475D02*
X75810011Y-66285713D01*
X75810011Y-66285713D02*
X75714773Y-66333332D01*
X75714773Y-66333332D02*
X75524297Y-66380951D01*
X75524297Y-66380951D02*
X75381440Y-66380951D01*
X75381440Y-66380951D02*
X75190964Y-66333332D01*
X75190964Y-66333332D02*
X75095726Y-66285713D01*
X75095726Y-66285713D02*
X75000488Y-66190475D01*
X75000488Y-66190475D02*
X74952869Y-66047618D01*
X74952869Y-66047618D02*
X74952869Y-65952380D01*
X74952869Y-65952380D02*
X75000488Y-65809523D01*
X75000488Y-65809523D02*
X75048107Y-65761904D01*
X74952869Y-65428570D02*
X75952869Y-65190475D01*
X75952869Y-65190475D02*
X75238583Y-64999999D01*
X75238583Y-64999999D02*
X75952869Y-64809523D01*
X75952869Y-64809523D02*
X74952869Y-64571428D01*
X75852869Y-60957142D02*
X74852869Y-60957142D01*
X74852869Y-60957142D02*
X74852869Y-60719047D01*
X74852869Y-60719047D02*
X74900488Y-60576190D01*
X74900488Y-60576190D02*
X74995726Y-60480952D01*
X74995726Y-60480952D02*
X75090964Y-60433333D01*
X75090964Y-60433333D02*
X75281440Y-60385714D01*
X75281440Y-60385714D02*
X75424297Y-60385714D01*
X75424297Y-60385714D02*
X75614773Y-60433333D01*
X75614773Y-60433333D02*
X75710011Y-60480952D01*
X75710011Y-60480952D02*
X75805250Y-60576190D01*
X75805250Y-60576190D02*
X75852869Y-60719047D01*
X75852869Y-60719047D02*
X75852869Y-60957142D01*
X74852869Y-60052380D02*
X75852869Y-59814285D01*
X75852869Y-59814285D02*
X75138583Y-59623809D01*
X75138583Y-59623809D02*
X75852869Y-59433333D01*
X75852869Y-59433333D02*
X74852869Y-59195238D01*
X75852869Y-58814285D02*
X74852869Y-58814285D01*
X74852869Y-58814285D02*
X75852869Y-58242857D01*
X75852869Y-58242857D02*
X74852869Y-58242857D01*
D12*
X32538142Y-41042857D02*
X31681000Y-38757142D01*
X31681000Y-38757142D02*
X30823857Y-41042857D01*
X31681000Y-42471428D02*
X31681000Y-44757143D01*
X33538142Y-46185714D02*
X31109571Y-46185714D01*
X31109571Y-46185714D02*
X30823857Y-46328571D01*
X30823857Y-46328571D02*
X30681000Y-46471429D01*
X30681000Y-46471429D02*
X30538142Y-46757143D01*
X30538142Y-46757143D02*
X30538142Y-47328571D01*
X30538142Y-47328571D02*
X30681000Y-47614286D01*
X30681000Y-47614286D02*
X30823857Y-47757143D01*
X30823857Y-47757143D02*
X31109571Y-47900000D01*
X31109571Y-47900000D02*
X33538142Y-47900000D01*
X30681000Y-49185714D02*
X30538142Y-49614286D01*
X30538142Y-49614286D02*
X30538142Y-50328571D01*
X30538142Y-50328571D02*
X30681000Y-50614286D01*
X30681000Y-50614286D02*
X30823857Y-50757143D01*
X30823857Y-50757143D02*
X31109571Y-50900000D01*
X31109571Y-50900000D02*
X31395285Y-50900000D01*
X31395285Y-50900000D02*
X31681000Y-50757143D01*
X31681000Y-50757143D02*
X31823857Y-50614286D01*
X31823857Y-50614286D02*
X31966714Y-50328571D01*
X31966714Y-50328571D02*
X32109571Y-49757143D01*
X32109571Y-49757143D02*
X32252428Y-49471428D01*
X32252428Y-49471428D02*
X32395285Y-49328571D01*
X32395285Y-49328571D02*
X32681000Y-49185714D01*
X32681000Y-49185714D02*
X32966714Y-49185714D01*
X32966714Y-49185714D02*
X33252428Y-49328571D01*
X33252428Y-49328571D02*
X33395285Y-49471428D01*
X33395285Y-49471428D02*
X33538142Y-49757143D01*
X33538142Y-49757143D02*
X33538142Y-50471428D01*
X33538142Y-50471428D02*
X33395285Y-50900000D01*
X32109571Y-53185714D02*
X31966714Y-53614286D01*
X31966714Y-53614286D02*
X31823857Y-53757143D01*
X31823857Y-53757143D02*
X31538142Y-53900000D01*
X31538142Y-53900000D02*
X31109571Y-53900000D01*
X31109571Y-53900000D02*
X30823857Y-53757143D01*
X30823857Y-53757143D02*
X30681000Y-53614286D01*
X30681000Y-53614286D02*
X30538142Y-53328571D01*
X30538142Y-53328571D02*
X30538142Y-52185714D01*
X30538142Y-52185714D02*
X33538142Y-52185714D01*
X33538142Y-52185714D02*
X33538142Y-53185714D01*
X33538142Y-53185714D02*
X33395285Y-53471429D01*
X33395285Y-53471429D02*
X33252428Y-53614286D01*
X33252428Y-53614286D02*
X32966714Y-53757143D01*
X32966714Y-53757143D02*
X32681000Y-53757143D01*
X32681000Y-53757143D02*
X32395285Y-53614286D01*
X32395285Y-53614286D02*
X32252428Y-53471429D01*
X32252428Y-53471429D02*
X32109571Y-53185714D01*
X32109571Y-53185714D02*
X32109571Y-52185714D01*
D13*
X36378571Y-35699171D02*
X37092857Y-35699171D01*
X37092857Y-35699171D02*
X37164285Y-34984885D01*
X37164285Y-34984885D02*
X37092857Y-35056314D01*
X37092857Y-35056314D02*
X36950000Y-35127742D01*
X36950000Y-35127742D02*
X36592857Y-35127742D01*
X36592857Y-35127742D02*
X36450000Y-35056314D01*
X36450000Y-35056314D02*
X36378571Y-34984885D01*
X36378571Y-34984885D02*
X36307142Y-34842028D01*
X36307142Y-34842028D02*
X36307142Y-34484885D01*
X36307142Y-34484885D02*
X36378571Y-34342028D01*
X36378571Y-34342028D02*
X36450000Y-34270600D01*
X36450000Y-34270600D02*
X36592857Y-34199171D01*
X36592857Y-34199171D02*
X36950000Y-34199171D01*
X36950000Y-34199171D02*
X37092857Y-34270600D01*
X37092857Y-34270600D02*
X37164285Y-34342028D01*
X35878571Y-35699171D02*
X35378571Y-34199171D01*
X35378571Y-34199171D02*
X34878571Y-35699171D01*
X32950000Y-35699171D02*
X32664286Y-35699171D01*
X32664286Y-35699171D02*
X32521429Y-35627742D01*
X32521429Y-35627742D02*
X32378572Y-35484885D01*
X32378572Y-35484885D02*
X32307143Y-35199171D01*
X32307143Y-35199171D02*
X32307143Y-34699171D01*
X32307143Y-34699171D02*
X32378572Y-34413457D01*
X32378572Y-34413457D02*
X32521429Y-34270600D01*
X32521429Y-34270600D02*
X32664286Y-34199171D01*
X32664286Y-34199171D02*
X32950000Y-34199171D01*
X32950000Y-34199171D02*
X33092858Y-34270600D01*
X33092858Y-34270600D02*
X33235715Y-34413457D01*
X33235715Y-34413457D02*
X33307143Y-34699171D01*
X33307143Y-34699171D02*
X33307143Y-35199171D01*
X33307143Y-35199171D02*
X33235715Y-35484885D01*
X33235715Y-35484885D02*
X33092858Y-35627742D01*
X33092858Y-35627742D02*
X32950000Y-35699171D01*
X31664286Y-34199171D02*
X31664286Y-35699171D01*
X31664286Y-35699171D02*
X30807143Y-34199171D01*
X30807143Y-34199171D02*
X30807143Y-35699171D01*
X29378571Y-34199171D02*
X30092857Y-34199171D01*
X30092857Y-34199171D02*
X30092857Y-35699171D01*
X28592856Y-34913457D02*
X28592856Y-34199171D01*
X29092856Y-35699171D02*
X28592856Y-34913457D01*
X28592856Y-34913457D02*
X28092856Y-35699171D01*
X59642855Y-25878814D02*
X59571427Y-25950242D01*
X59571427Y-25950242D02*
X59428570Y-26021671D01*
X59428570Y-26021671D02*
X59071427Y-26021671D01*
X59071427Y-26021671D02*
X58928570Y-25950242D01*
X58928570Y-25950242D02*
X58857141Y-25878814D01*
X58857141Y-25878814D02*
X58785712Y-25735957D01*
X58785712Y-25735957D02*
X58785712Y-25593100D01*
X58785712Y-25593100D02*
X58857141Y-25378814D01*
X58857141Y-25378814D02*
X59714284Y-24521671D01*
X59714284Y-24521671D02*
X58785712Y-24521671D01*
X57499999Y-25521671D02*
X57499999Y-24521671D01*
X57857141Y-26093100D02*
X58214284Y-25021671D01*
X58214284Y-25021671D02*
X57285713Y-25021671D01*
X56928570Y-26021671D02*
X56428570Y-24521671D01*
X56428570Y-24521671D02*
X55928570Y-26021671D01*
X53214285Y-26093100D02*
X54499999Y-24164528D01*
X50928571Y-26021671D02*
X51214285Y-26021671D01*
X51214285Y-26021671D02*
X51357142Y-25950242D01*
X51357142Y-25950242D02*
X51428571Y-25878814D01*
X51428571Y-25878814D02*
X51571428Y-25664528D01*
X51571428Y-25664528D02*
X51642856Y-25378814D01*
X51642856Y-25378814D02*
X51642856Y-24807385D01*
X51642856Y-24807385D02*
X51571428Y-24664528D01*
X51571428Y-24664528D02*
X51499999Y-24593100D01*
X51499999Y-24593100D02*
X51357142Y-24521671D01*
X51357142Y-24521671D02*
X51071428Y-24521671D01*
X51071428Y-24521671D02*
X50928571Y-24593100D01*
X50928571Y-24593100D02*
X50857142Y-24664528D01*
X50857142Y-24664528D02*
X50785713Y-24807385D01*
X50785713Y-24807385D02*
X50785713Y-25164528D01*
X50785713Y-25164528D02*
X50857142Y-25307385D01*
X50857142Y-25307385D02*
X50928571Y-25378814D01*
X50928571Y-25378814D02*
X51071428Y-25450242D01*
X51071428Y-25450242D02*
X51357142Y-25450242D01*
X51357142Y-25450242D02*
X51499999Y-25378814D01*
X51499999Y-25378814D02*
X51571428Y-25307385D01*
X51571428Y-25307385D02*
X51642856Y-25164528D01*
X50214285Y-24593100D02*
X50000000Y-24521671D01*
X50000000Y-24521671D02*
X49642857Y-24521671D01*
X49642857Y-24521671D02*
X49500000Y-24593100D01*
X49500000Y-24593100D02*
X49428571Y-24664528D01*
X49428571Y-24664528D02*
X49357142Y-24807385D01*
X49357142Y-24807385D02*
X49357142Y-24950242D01*
X49357142Y-24950242D02*
X49428571Y-25093100D01*
X49428571Y-25093100D02*
X49500000Y-25164528D01*
X49500000Y-25164528D02*
X49642857Y-25235957D01*
X49642857Y-25235957D02*
X49928571Y-25307385D01*
X49928571Y-25307385D02*
X50071428Y-25378814D01*
X50071428Y-25378814D02*
X50142857Y-25450242D01*
X50142857Y-25450242D02*
X50214285Y-25593100D01*
X50214285Y-25593100D02*
X50214285Y-25735957D01*
X50214285Y-25735957D02*
X50142857Y-25878814D01*
X50142857Y-25878814D02*
X50071428Y-25950242D01*
X50071428Y-25950242D02*
X49928571Y-26021671D01*
X49928571Y-26021671D02*
X49571428Y-26021671D01*
X49571428Y-26021671D02*
X49357142Y-25950242D01*
X49557142Y-100678328D02*
X49557142Y-99178328D01*
X49557142Y-99178328D02*
X50057142Y-100249757D01*
X50057142Y-100249757D02*
X50557142Y-99178328D01*
X50557142Y-99178328D02*
X50557142Y-100678328D01*
X51200000Y-100249757D02*
X51914286Y-100249757D01*
X51057143Y-100678328D02*
X51557143Y-99178328D01*
X51557143Y-99178328D02*
X52057143Y-100678328D01*
X17906900Y-95071428D02*
X17906900Y-93928571D01*
X65949999Y-100678328D02*
X65949999Y-99178328D01*
X65949999Y-99178328D02*
X66449999Y-100249757D01*
X66449999Y-100249757D02*
X66949999Y-99178328D01*
X66949999Y-99178328D02*
X66949999Y-100678328D01*
X68164285Y-99892614D02*
X68378571Y-99964042D01*
X68378571Y-99964042D02*
X68450000Y-100035471D01*
X68450000Y-100035471D02*
X68521428Y-100178328D01*
X68521428Y-100178328D02*
X68521428Y-100392614D01*
X68521428Y-100392614D02*
X68450000Y-100535471D01*
X68450000Y-100535471D02*
X68378571Y-100606900D01*
X68378571Y-100606900D02*
X68235714Y-100678328D01*
X68235714Y-100678328D02*
X67664285Y-100678328D01*
X67664285Y-100678328D02*
X67664285Y-99178328D01*
X67664285Y-99178328D02*
X68164285Y-99178328D01*
X68164285Y-99178328D02*
X68307143Y-99249757D01*
X68307143Y-99249757D02*
X68378571Y-99321185D01*
X68378571Y-99321185D02*
X68450000Y-99464042D01*
X68450000Y-99464042D02*
X68450000Y-99606900D01*
X68450000Y-99606900D02*
X68378571Y-99749757D01*
X68378571Y-99749757D02*
X68307143Y-99821185D01*
X68307143Y-99821185D02*
X68164285Y-99892614D01*
X68164285Y-99892614D02*
X67664285Y-99892614D01*
D11*
X60729059Y-94719047D02*
X60729059Y-94385714D01*
X61252869Y-94242857D02*
X61252869Y-94719047D01*
X61252869Y-94719047D02*
X60252869Y-94719047D01*
X60252869Y-94719047D02*
X60252869Y-94242857D01*
X61252869Y-93814285D02*
X60252869Y-93814285D01*
X60252869Y-93814285D02*
X61252869Y-93242857D01*
X61252869Y-93242857D02*
X60252869Y-93242857D01*
X61157630Y-92195238D02*
X61205250Y-92242857D01*
X61205250Y-92242857D02*
X61252869Y-92385714D01*
X61252869Y-92385714D02*
X61252869Y-92480952D01*
X61252869Y-92480952D02*
X61205250Y-92623809D01*
X61205250Y-92623809D02*
X61110011Y-92719047D01*
X61110011Y-92719047D02*
X61014773Y-92766666D01*
X61014773Y-92766666D02*
X60824297Y-92814285D01*
X60824297Y-92814285D02*
X60681440Y-92814285D01*
X60681440Y-92814285D02*
X60490964Y-92766666D01*
X60490964Y-92766666D02*
X60395726Y-92719047D01*
X60395726Y-92719047D02*
X60300488Y-92623809D01*
X60300488Y-92623809D02*
X60252869Y-92480952D01*
X60252869Y-92480952D02*
X60252869Y-92385714D01*
X60252869Y-92385714D02*
X60300488Y-92242857D01*
X60300488Y-92242857D02*
X60348107Y-92195238D01*
X61348107Y-92004762D02*
X61348107Y-91242857D01*
X61252869Y-91004761D02*
X60252869Y-91004761D01*
X60252869Y-91004761D02*
X60967154Y-90671428D01*
X60967154Y-90671428D02*
X60252869Y-90338095D01*
X60252869Y-90338095D02*
X61252869Y-90338095D01*
X60967154Y-89909523D02*
X60967154Y-89433333D01*
X61252869Y-90004761D02*
X60252869Y-89671428D01*
X60252869Y-89671428D02*
X61252869Y-89338095D01*
X74952869Y-55585713D02*
X75762392Y-55585713D01*
X75762392Y-55585713D02*
X75857630Y-55538094D01*
X75857630Y-55538094D02*
X75905250Y-55490475D01*
X75905250Y-55490475D02*
X75952869Y-55395237D01*
X75952869Y-55395237D02*
X75952869Y-55204761D01*
X75952869Y-55204761D02*
X75905250Y-55109523D01*
X75905250Y-55109523D02*
X75857630Y-55061904D01*
X75857630Y-55061904D02*
X75762392Y-55014285D01*
X75762392Y-55014285D02*
X74952869Y-55014285D01*
X75952869Y-54538094D02*
X74952869Y-54538094D01*
X74952869Y-54538094D02*
X74952869Y-54157142D01*
X74952869Y-54157142D02*
X75000488Y-54061904D01*
X75000488Y-54061904D02*
X75048107Y-54014285D01*
X75048107Y-54014285D02*
X75143345Y-53966666D01*
X75143345Y-53966666D02*
X75286202Y-53966666D01*
X75286202Y-53966666D02*
X75381440Y-54014285D01*
X75381440Y-54014285D02*
X75429059Y-54061904D01*
X75429059Y-54061904D02*
X75476678Y-54157142D01*
X75476678Y-54157142D02*
X75476678Y-54538094D01*
X68829059Y-94690475D02*
X68829059Y-94357142D01*
X69352869Y-94214285D02*
X69352869Y-94690475D01*
X69352869Y-94690475D02*
X68352869Y-94690475D01*
X68352869Y-94690475D02*
X68352869Y-94214285D01*
X69352869Y-93785713D02*
X68352869Y-93785713D01*
X68352869Y-93785713D02*
X69352869Y-93214285D01*
X69352869Y-93214285D02*
X68352869Y-93214285D01*
X69257630Y-92166666D02*
X69305250Y-92214285D01*
X69305250Y-92214285D02*
X69352869Y-92357142D01*
X69352869Y-92357142D02*
X69352869Y-92452380D01*
X69352869Y-92452380D02*
X69305250Y-92595237D01*
X69305250Y-92595237D02*
X69210011Y-92690475D01*
X69210011Y-92690475D02*
X69114773Y-92738094D01*
X69114773Y-92738094D02*
X68924297Y-92785713D01*
X68924297Y-92785713D02*
X68781440Y-92785713D01*
X68781440Y-92785713D02*
X68590964Y-92738094D01*
X68590964Y-92738094D02*
X68495726Y-92690475D01*
X68495726Y-92690475D02*
X68400488Y-92595237D01*
X68400488Y-92595237D02*
X68352869Y-92452380D01*
X68352869Y-92452380D02*
X68352869Y-92357142D01*
X68352869Y-92357142D02*
X68400488Y-92214285D01*
X68400488Y-92214285D02*
X68448107Y-92166666D01*
X69448107Y-91976190D02*
X69448107Y-91214285D01*
X69352869Y-90976189D02*
X68352869Y-90976189D01*
X68352869Y-90976189D02*
X69067154Y-90642856D01*
X69067154Y-90642856D02*
X68352869Y-90309523D01*
X68352869Y-90309523D02*
X69352869Y-90309523D01*
X68829059Y-89499999D02*
X68876678Y-89357142D01*
X68876678Y-89357142D02*
X68924297Y-89309523D01*
X68924297Y-89309523D02*
X69019535Y-89261904D01*
X69019535Y-89261904D02*
X69162392Y-89261904D01*
X69162392Y-89261904D02*
X69257630Y-89309523D01*
X69257630Y-89309523D02*
X69305250Y-89357142D01*
X69305250Y-89357142D02*
X69352869Y-89452380D01*
X69352869Y-89452380D02*
X69352869Y-89833332D01*
X69352869Y-89833332D02*
X68352869Y-89833332D01*
X68352869Y-89833332D02*
X68352869Y-89499999D01*
X68352869Y-89499999D02*
X68400488Y-89404761D01*
X68400488Y-89404761D02*
X68448107Y-89357142D01*
X68448107Y-89357142D02*
X68543345Y-89309523D01*
X68543345Y-89309523D02*
X68638583Y-89309523D01*
X68638583Y-89309523D02*
X68733821Y-89357142D01*
X68733821Y-89357142D02*
X68781440Y-89404761D01*
X68781440Y-89404761D02*
X68829059Y-89499999D01*
X68829059Y-89499999D02*
X68829059Y-89833332D01*
D13*
X50414285Y-57192614D02*
X49914285Y-57192614D01*
X49914285Y-57978328D02*
X49914285Y-56478328D01*
X49914285Y-56478328D02*
X50628571Y-56478328D01*
X51199999Y-57978328D02*
X51199999Y-56478328D01*
X51199999Y-56478328D02*
X51699999Y-57549757D01*
X51699999Y-57549757D02*
X52199999Y-56478328D01*
X52199999Y-56478328D02*
X52199999Y-57978328D01*
X52842857Y-57549757D02*
X53557143Y-57549757D01*
X52700000Y-57978328D02*
X53200000Y-56478328D01*
X53200000Y-56478328D02*
X53700000Y-57978328D01*
D14*
X18450380Y-90423810D02*
X18450380Y-91090476D01*
X18450380Y-91090476D02*
X17450380Y-90661905D01*
X17545619Y-91471429D02*
X17498000Y-91519048D01*
X17498000Y-91519048D02*
X17450380Y-91471429D01*
X17450380Y-91471429D02*
X17498000Y-91423810D01*
X17498000Y-91423810D02*
X17545619Y-91471429D01*
X17545619Y-91471429D02*
X17450380Y-91471429D01*
X18117047Y-92376190D02*
X17450380Y-92376190D01*
X18498000Y-92138095D02*
X17783714Y-91900000D01*
X17783714Y-91900000D02*
X17783714Y-92519047D01*
X18450380Y-92757143D02*
X17450380Y-93090476D01*
X17450380Y-93090476D02*
X18450380Y-93423809D01*
D13*
X29921428Y-91300828D02*
X29207142Y-91300828D01*
X29207142Y-91300828D02*
X29135714Y-92015114D01*
X29135714Y-92015114D02*
X29207142Y-91943685D01*
X29207142Y-91943685D02*
X29350000Y-91872257D01*
X29350000Y-91872257D02*
X29707142Y-91872257D01*
X29707142Y-91872257D02*
X29850000Y-91943685D01*
X29850000Y-91943685D02*
X29921428Y-92015114D01*
X29921428Y-92015114D02*
X29992857Y-92157971D01*
X29992857Y-92157971D02*
X29992857Y-92515114D01*
X29992857Y-92515114D02*
X29921428Y-92657971D01*
X29921428Y-92657971D02*
X29850000Y-92729400D01*
X29850000Y-92729400D02*
X29707142Y-92800828D01*
X29707142Y-92800828D02*
X29350000Y-92800828D01*
X29350000Y-92800828D02*
X29207142Y-92729400D01*
X29207142Y-92729400D02*
X29135714Y-92657971D01*
X30421428Y-91300828D02*
X30921428Y-92800828D01*
X30921428Y-92800828D02*
X31421428Y-91300828D01*
X33349999Y-91300828D02*
X33635713Y-91300828D01*
X33635713Y-91300828D02*
X33778570Y-91372257D01*
X33778570Y-91372257D02*
X33921427Y-91515114D01*
X33921427Y-91515114D02*
X33992856Y-91800828D01*
X33992856Y-91800828D02*
X33992856Y-92300828D01*
X33992856Y-92300828D02*
X33921427Y-92586542D01*
X33921427Y-92586542D02*
X33778570Y-92729400D01*
X33778570Y-92729400D02*
X33635713Y-92800828D01*
X33635713Y-92800828D02*
X33349999Y-92800828D01*
X33349999Y-92800828D02*
X33207142Y-92729400D01*
X33207142Y-92729400D02*
X33064284Y-92586542D01*
X33064284Y-92586542D02*
X32992856Y-92300828D01*
X32992856Y-92300828D02*
X32992856Y-91800828D01*
X32992856Y-91800828D02*
X33064284Y-91515114D01*
X33064284Y-91515114D02*
X33207142Y-91372257D01*
X33207142Y-91372257D02*
X33349999Y-91300828D01*
X34635713Y-92800828D02*
X34635713Y-91300828D01*
X34635713Y-91300828D02*
X35492856Y-92800828D01*
X35492856Y-92800828D02*
X35492856Y-91300828D01*
X36921428Y-92800828D02*
X36207142Y-92800828D01*
X36207142Y-92800828D02*
X36207142Y-91300828D01*
X37707143Y-92086542D02*
X37707143Y-92800828D01*
X37207143Y-91300828D02*
X37707143Y-92086542D01*
X37707143Y-92086542D02*
X38207143Y-91300828D01*
X42835714Y-86092614D02*
X43050000Y-86164042D01*
X43050000Y-86164042D02*
X43121429Y-86235471D01*
X43121429Y-86235471D02*
X43192857Y-86378328D01*
X43192857Y-86378328D02*
X43192857Y-86592614D01*
X43192857Y-86592614D02*
X43121429Y-86735471D01*
X43121429Y-86735471D02*
X43050000Y-86806900D01*
X43050000Y-86806900D02*
X42907143Y-86878328D01*
X42907143Y-86878328D02*
X42335714Y-86878328D01*
X42335714Y-86878328D02*
X42335714Y-85378328D01*
X42335714Y-85378328D02*
X42835714Y-85378328D01*
X42835714Y-85378328D02*
X42978572Y-85449757D01*
X42978572Y-85449757D02*
X43050000Y-85521185D01*
X43050000Y-85521185D02*
X43121429Y-85664042D01*
X43121429Y-85664042D02*
X43121429Y-85806900D01*
X43121429Y-85806900D02*
X43050000Y-85949757D01*
X43050000Y-85949757D02*
X42978572Y-86021185D01*
X42978572Y-86021185D02*
X42835714Y-86092614D01*
X42835714Y-86092614D02*
X42335714Y-86092614D01*
X43478572Y-87021185D02*
X44621429Y-87021185D01*
X44978571Y-86878328D02*
X44978571Y-85378328D01*
X44978571Y-85378328D02*
X45478571Y-86449757D01*
X45478571Y-86449757D02*
X45978571Y-85378328D01*
X45978571Y-85378328D02*
X45978571Y-86878328D01*
X46621429Y-86449757D02*
X47335715Y-86449757D01*
X46478572Y-86878328D02*
X46978572Y-85378328D01*
X46978572Y-85378328D02*
X47478572Y-86878328D01*
X53628571Y-86092614D02*
X53842857Y-86164042D01*
X53842857Y-86164042D02*
X53914286Y-86235471D01*
X53914286Y-86235471D02*
X53985714Y-86378328D01*
X53985714Y-86378328D02*
X53985714Y-86592614D01*
X53985714Y-86592614D02*
X53914286Y-86735471D01*
X53914286Y-86735471D02*
X53842857Y-86806900D01*
X53842857Y-86806900D02*
X53700000Y-86878328D01*
X53700000Y-86878328D02*
X53128571Y-86878328D01*
X53128571Y-86878328D02*
X53128571Y-85378328D01*
X53128571Y-85378328D02*
X53628571Y-85378328D01*
X53628571Y-85378328D02*
X53771429Y-85449757D01*
X53771429Y-85449757D02*
X53842857Y-85521185D01*
X53842857Y-85521185D02*
X53914286Y-85664042D01*
X53914286Y-85664042D02*
X53914286Y-85806900D01*
X53914286Y-85806900D02*
X53842857Y-85949757D01*
X53842857Y-85949757D02*
X53771429Y-86021185D01*
X53771429Y-86021185D02*
X53628571Y-86092614D01*
X53628571Y-86092614D02*
X53128571Y-86092614D01*
X54271429Y-87021185D02*
X55414286Y-87021185D01*
X55771428Y-86878328D02*
X55771428Y-85378328D01*
X55771428Y-85378328D02*
X56271428Y-86449757D01*
X56271428Y-86449757D02*
X56771428Y-85378328D01*
X56771428Y-85378328D02*
X56771428Y-86878328D01*
X57985714Y-86092614D02*
X58200000Y-86164042D01*
X58200000Y-86164042D02*
X58271429Y-86235471D01*
X58271429Y-86235471D02*
X58342857Y-86378328D01*
X58342857Y-86378328D02*
X58342857Y-86592614D01*
X58342857Y-86592614D02*
X58271429Y-86735471D01*
X58271429Y-86735471D02*
X58200000Y-86806900D01*
X58200000Y-86806900D02*
X58057143Y-86878328D01*
X58057143Y-86878328D02*
X57485714Y-86878328D01*
X57485714Y-86878328D02*
X57485714Y-85378328D01*
X57485714Y-85378328D02*
X57985714Y-85378328D01*
X57985714Y-85378328D02*
X58128572Y-85449757D01*
X58128572Y-85449757D02*
X58200000Y-85521185D01*
X58200000Y-85521185D02*
X58271429Y-85664042D01*
X58271429Y-85664042D02*
X58271429Y-85806900D01*
X58271429Y-85806900D02*
X58200000Y-85949757D01*
X58200000Y-85949757D02*
X58128572Y-86021185D01*
X58128572Y-86021185D02*
X57985714Y-86092614D01*
X57985714Y-86092614D02*
X57485714Y-86092614D01*
D10*
X50045847Y-85324999D02*
X50045847Y-85574999D01*
X50464895Y-85574999D02*
X49664895Y-85574999D01*
X49664895Y-85574999D02*
X49664895Y-85217856D01*
X50464895Y-84932142D02*
X49664895Y-84932142D01*
X49664895Y-84932142D02*
X50236323Y-84682142D01*
X50236323Y-84682142D02*
X49664895Y-84432142D01*
X49664895Y-84432142D02*
X50464895Y-84432142D01*
X50464895Y-83717856D02*
X50464895Y-84074999D01*
X50464895Y-84074999D02*
X49664895Y-84074999D01*
D13*
X58907142Y-57092614D02*
X58407142Y-57092614D01*
X58407142Y-57878328D02*
X58407142Y-56378328D01*
X58407142Y-56378328D02*
X59121428Y-56378328D01*
X59692856Y-57878328D02*
X59692856Y-56378328D01*
X59692856Y-56378328D02*
X60192856Y-57449757D01*
X60192856Y-57449757D02*
X60692856Y-56378328D01*
X60692856Y-56378328D02*
X60692856Y-57878328D01*
X61907142Y-57092614D02*
X62121428Y-57164042D01*
X62121428Y-57164042D02*
X62192857Y-57235471D01*
X62192857Y-57235471D02*
X62264285Y-57378328D01*
X62264285Y-57378328D02*
X62264285Y-57592614D01*
X62264285Y-57592614D02*
X62192857Y-57735471D01*
X62192857Y-57735471D02*
X62121428Y-57806900D01*
X62121428Y-57806900D02*
X61978571Y-57878328D01*
X61978571Y-57878328D02*
X61407142Y-57878328D01*
X61407142Y-57878328D02*
X61407142Y-56378328D01*
X61407142Y-56378328D02*
X61907142Y-56378328D01*
X61907142Y-56378328D02*
X62050000Y-56449757D01*
X62050000Y-56449757D02*
X62121428Y-56521185D01*
X62121428Y-56521185D02*
X62192857Y-56664042D01*
X62192857Y-56664042D02*
X62192857Y-56806900D01*
X62192857Y-56806900D02*
X62121428Y-56949757D01*
X62121428Y-56949757D02*
X62050000Y-57021185D01*
X62050000Y-57021185D02*
X61907142Y-57092614D01*
X61907142Y-57092614D02*
X61407142Y-57092614D01*
X18006900Y-89692856D02*
X17935471Y-89621428D01*
X17935471Y-89621428D02*
X17864042Y-89478571D01*
X17864042Y-89478571D02*
X18006900Y-89192856D01*
X18006900Y-89192856D02*
X17935471Y-89049999D01*
X17935471Y-89049999D02*
X17864042Y-88978571D01*
D15*
X24333333Y-36004819D02*
X24000000Y-35528628D01*
X23761905Y-36004819D02*
X23761905Y-35004819D01*
X23761905Y-35004819D02*
X24142857Y-35004819D01*
X24142857Y-35004819D02*
X24238095Y-35052438D01*
X24238095Y-35052438D02*
X24285714Y-35100057D01*
X24285714Y-35100057D02*
X24333333Y-35195295D01*
X24333333Y-35195295D02*
X24333333Y-35338152D01*
X24333333Y-35338152D02*
X24285714Y-35433390D01*
X24285714Y-35433390D02*
X24238095Y-35481009D01*
X24238095Y-35481009D02*
X24142857Y-35528628D01*
X24142857Y-35528628D02*
X23761905Y-35528628D01*
X25285714Y-36004819D02*
X24714286Y-36004819D01*
X25000000Y-36004819D02*
X25000000Y-35004819D01*
X25000000Y-35004819D02*
X24904762Y-35147676D01*
X24904762Y-35147676D02*
X24809524Y-35242914D01*
X24809524Y-35242914D02*
X24714286Y-35290533D01*
X41557142Y-25759580D02*
X41509523Y-25807200D01*
X41509523Y-25807200D02*
X41366666Y-25854819D01*
X41366666Y-25854819D02*
X41271428Y-25854819D01*
X41271428Y-25854819D02*
X41128571Y-25807200D01*
X41128571Y-25807200D02*
X41033333Y-25711961D01*
X41033333Y-25711961D02*
X40985714Y-25616723D01*
X40985714Y-25616723D02*
X40938095Y-25426247D01*
X40938095Y-25426247D02*
X40938095Y-25283390D01*
X40938095Y-25283390D02*
X40985714Y-25092914D01*
X40985714Y-25092914D02*
X41033333Y-24997676D01*
X41033333Y-24997676D02*
X41128571Y-24902438D01*
X41128571Y-24902438D02*
X41271428Y-24854819D01*
X41271428Y-24854819D02*
X41366666Y-24854819D01*
X41366666Y-24854819D02*
X41509523Y-24902438D01*
X41509523Y-24902438D02*
X41557142Y-24950057D01*
X42509523Y-25854819D02*
X41938095Y-25854819D01*
X42223809Y-25854819D02*
X42223809Y-24854819D01*
X42223809Y-24854819D02*
X42128571Y-24997676D01*
X42128571Y-24997676D02*
X42033333Y-25092914D01*
X42033333Y-25092914D02*
X41938095Y-25140533D01*
X42890476Y-24950057D02*
X42938095Y-24902438D01*
X42938095Y-24902438D02*
X43033333Y-24854819D01*
X43033333Y-24854819D02*
X43271428Y-24854819D01*
X43271428Y-24854819D02*
X43366666Y-24902438D01*
X43366666Y-24902438D02*
X43414285Y-24950057D01*
X43414285Y-24950057D02*
X43461904Y-25045295D01*
X43461904Y-25045295D02*
X43461904Y-25140533D01*
X43461904Y-25140533D02*
X43414285Y-25283390D01*
X43414285Y-25283390D02*
X42842857Y-25854819D01*
X42842857Y-25854819D02*
X43461904Y-25854819D01*
X50638095Y-84954819D02*
X50638095Y-85764342D01*
X50638095Y-85764342D02*
X50685714Y-85859580D01*
X50685714Y-85859580D02*
X50733333Y-85907200D01*
X50733333Y-85907200D02*
X50828571Y-85954819D01*
X50828571Y-85954819D02*
X51019047Y-85954819D01*
X51019047Y-85954819D02*
X51114285Y-85907200D01*
X51114285Y-85907200D02*
X51161904Y-85859580D01*
X51161904Y-85859580D02*
X51209523Y-85764342D01*
X51209523Y-85764342D02*
X51209523Y-84954819D01*
X51638095Y-85050057D02*
X51685714Y-85002438D01*
X51685714Y-85002438D02*
X51780952Y-84954819D01*
X51780952Y-84954819D02*
X52019047Y-84954819D01*
X52019047Y-84954819D02*
X52114285Y-85002438D01*
X52114285Y-85002438D02*
X52161904Y-85050057D01*
X52161904Y-85050057D02*
X52209523Y-85145295D01*
X52209523Y-85145295D02*
X52209523Y-85240533D01*
X52209523Y-85240533D02*
X52161904Y-85383390D01*
X52161904Y-85383390D02*
X51590476Y-85954819D01*
X51590476Y-85954819D02*
X52209523Y-85954819D01*
X63057142Y-63454819D02*
X62723809Y-62978628D01*
X62485714Y-63454819D02*
X62485714Y-62454819D01*
X62485714Y-62454819D02*
X62866666Y-62454819D01*
X62866666Y-62454819D02*
X62961904Y-62502438D01*
X62961904Y-62502438D02*
X63009523Y-62550057D01*
X63009523Y-62550057D02*
X63057142Y-62645295D01*
X63057142Y-62645295D02*
X63057142Y-62788152D01*
X63057142Y-62788152D02*
X63009523Y-62883390D01*
X63009523Y-62883390D02*
X62961904Y-62931009D01*
X62961904Y-62931009D02*
X62866666Y-62978628D01*
X62866666Y-62978628D02*
X62485714Y-62978628D01*
X64009523Y-63454819D02*
X63438095Y-63454819D01*
X63723809Y-63454819D02*
X63723809Y-62454819D01*
X63723809Y-62454819D02*
X63628571Y-62597676D01*
X63628571Y-62597676D02*
X63533333Y-62692914D01*
X63533333Y-62692914D02*
X63438095Y-62740533D01*
X64342857Y-62454819D02*
X65009523Y-62454819D01*
X65009523Y-62454819D02*
X64580952Y-63454819D01*
X69666667Y-56907200D02*
X69809524Y-56954819D01*
X69809524Y-56954819D02*
X70047619Y-56954819D01*
X70047619Y-56954819D02*
X70142857Y-56907200D01*
X70142857Y-56907200D02*
X70190476Y-56859580D01*
X70190476Y-56859580D02*
X70238095Y-56764342D01*
X70238095Y-56764342D02*
X70238095Y-56669104D01*
X70238095Y-56669104D02*
X70190476Y-56573866D01*
X70190476Y-56573866D02*
X70142857Y-56526247D01*
X70142857Y-56526247D02*
X70047619Y-56478628D01*
X70047619Y-56478628D02*
X69857143Y-56431009D01*
X69857143Y-56431009D02*
X69761905Y-56383390D01*
X69761905Y-56383390D02*
X69714286Y-56335771D01*
X69714286Y-56335771D02*
X69666667Y-56240533D01*
X69666667Y-56240533D02*
X69666667Y-56145295D01*
X69666667Y-56145295D02*
X69714286Y-56050057D01*
X69714286Y-56050057D02*
X69761905Y-56002438D01*
X69761905Y-56002438D02*
X69857143Y-55954819D01*
X69857143Y-55954819D02*
X70095238Y-55954819D01*
X70095238Y-55954819D02*
X70238095Y-56002438D01*
X70571429Y-55954819D02*
X70809524Y-56954819D01*
X70809524Y-56954819D02*
X71000000Y-56240533D01*
X71000000Y-56240533D02*
X71190476Y-56954819D01*
X71190476Y-56954819D02*
X71428572Y-55954819D01*
X72238095Y-56288152D02*
X72238095Y-56954819D01*
X72000000Y-55907200D02*
X71761905Y-56621485D01*
X71761905Y-56621485D02*
X72380952Y-56621485D01*
X69666667Y-62276000D02*
X69809524Y-62323619D01*
X69809524Y-62323619D02*
X70047619Y-62323619D01*
X70047619Y-62323619D02*
X70142857Y-62276000D01*
X70142857Y-62276000D02*
X70190476Y-62228380D01*
X70190476Y-62228380D02*
X70238095Y-62133142D01*
X70238095Y-62133142D02*
X70238095Y-62037904D01*
X70238095Y-62037904D02*
X70190476Y-61942666D01*
X70190476Y-61942666D02*
X70142857Y-61895047D01*
X70142857Y-61895047D02*
X70047619Y-61847428D01*
X70047619Y-61847428D02*
X69857143Y-61799809D01*
X69857143Y-61799809D02*
X69761905Y-61752190D01*
X69761905Y-61752190D02*
X69714286Y-61704571D01*
X69714286Y-61704571D02*
X69666667Y-61609333D01*
X69666667Y-61609333D02*
X69666667Y-61514095D01*
X69666667Y-61514095D02*
X69714286Y-61418857D01*
X69714286Y-61418857D02*
X69761905Y-61371238D01*
X69761905Y-61371238D02*
X69857143Y-61323619D01*
X69857143Y-61323619D02*
X70095238Y-61323619D01*
X70095238Y-61323619D02*
X70238095Y-61371238D01*
X70571429Y-61323619D02*
X70809524Y-62323619D01*
X70809524Y-62323619D02*
X71000000Y-61609333D01*
X71000000Y-61609333D02*
X71190476Y-62323619D01*
X71190476Y-62323619D02*
X71428572Y-61323619D01*
X71714286Y-61323619D02*
X72333333Y-61323619D01*
X72333333Y-61323619D02*
X72000000Y-61704571D01*
X72000000Y-61704571D02*
X72142857Y-61704571D01*
X72142857Y-61704571D02*
X72238095Y-61752190D01*
X72238095Y-61752190D02*
X72285714Y-61799809D01*
X72285714Y-61799809D02*
X72333333Y-61895047D01*
X72333333Y-61895047D02*
X72333333Y-62133142D01*
X72333333Y-62133142D02*
X72285714Y-62228380D01*
X72285714Y-62228380D02*
X72238095Y-62276000D01*
X72238095Y-62276000D02*
X72142857Y-62323619D01*
X72142857Y-62323619D02*
X71857143Y-62323619D01*
X71857143Y-62323619D02*
X71761905Y-62276000D01*
X71761905Y-62276000D02*
X71714286Y-62228380D01*
X68379819Y-86411904D02*
X69189342Y-86411904D01*
X69189342Y-86411904D02*
X69284580Y-86364285D01*
X69284580Y-86364285D02*
X69332200Y-86316666D01*
X69332200Y-86316666D02*
X69379819Y-86221428D01*
X69379819Y-86221428D02*
X69379819Y-86030952D01*
X69379819Y-86030952D02*
X69332200Y-85935714D01*
X69332200Y-85935714D02*
X69284580Y-85888095D01*
X69284580Y-85888095D02*
X69189342Y-85840476D01*
X69189342Y-85840476D02*
X68379819Y-85840476D01*
X68713152Y-84935714D02*
X69379819Y-84935714D01*
X68332200Y-85173809D02*
X69046485Y-85411904D01*
X69046485Y-85411904D02*
X69046485Y-84792857D01*
X41233333Y-67154819D02*
X40900000Y-66678628D01*
X40661905Y-67154819D02*
X40661905Y-66154819D01*
X40661905Y-66154819D02*
X41042857Y-66154819D01*
X41042857Y-66154819D02*
X41138095Y-66202438D01*
X41138095Y-66202438D02*
X41185714Y-66250057D01*
X41185714Y-66250057D02*
X41233333Y-66345295D01*
X41233333Y-66345295D02*
X41233333Y-66488152D01*
X41233333Y-66488152D02*
X41185714Y-66583390D01*
X41185714Y-66583390D02*
X41138095Y-66631009D01*
X41138095Y-66631009D02*
X41042857Y-66678628D01*
X41042857Y-66678628D02*
X40661905Y-66678628D01*
X41804762Y-66583390D02*
X41709524Y-66535771D01*
X41709524Y-66535771D02*
X41661905Y-66488152D01*
X41661905Y-66488152D02*
X41614286Y-66392914D01*
X41614286Y-66392914D02*
X41614286Y-66345295D01*
X41614286Y-66345295D02*
X41661905Y-66250057D01*
X41661905Y-66250057D02*
X41709524Y-66202438D01*
X41709524Y-66202438D02*
X41804762Y-66154819D01*
X41804762Y-66154819D02*
X41995238Y-66154819D01*
X41995238Y-66154819D02*
X42090476Y-66202438D01*
X42090476Y-66202438D02*
X42138095Y-66250057D01*
X42138095Y-66250057D02*
X42185714Y-66345295D01*
X42185714Y-66345295D02*
X42185714Y-66392914D01*
X42185714Y-66392914D02*
X42138095Y-66488152D01*
X42138095Y-66488152D02*
X42090476Y-66535771D01*
X42090476Y-66535771D02*
X41995238Y-66583390D01*
X41995238Y-66583390D02*
X41804762Y-66583390D01*
X41804762Y-66583390D02*
X41709524Y-66631009D01*
X41709524Y-66631009D02*
X41661905Y-66678628D01*
X41661905Y-66678628D02*
X41614286Y-66773866D01*
X41614286Y-66773866D02*
X41614286Y-66964342D01*
X41614286Y-66964342D02*
X41661905Y-67059580D01*
X41661905Y-67059580D02*
X41709524Y-67107200D01*
X41709524Y-67107200D02*
X41804762Y-67154819D01*
X41804762Y-67154819D02*
X41995238Y-67154819D01*
X41995238Y-67154819D02*
X42090476Y-67107200D01*
X42090476Y-67107200D02*
X42138095Y-67059580D01*
X42138095Y-67059580D02*
X42185714Y-66964342D01*
X42185714Y-66964342D02*
X42185714Y-66773866D01*
X42185714Y-66773866D02*
X42138095Y-66678628D01*
X42138095Y-66678628D02*
X42090476Y-66631009D01*
X42090476Y-66631009D02*
X41995238Y-66583390D01*
D11*
X18838095Y-68152869D02*
X18838095Y-68962392D01*
X18838095Y-68962392D02*
X18885714Y-69057630D01*
X18885714Y-69057630D02*
X18933333Y-69105250D01*
X18933333Y-69105250D02*
X19028571Y-69152869D01*
X19028571Y-69152869D02*
X19219047Y-69152869D01*
X19219047Y-69152869D02*
X19314285Y-69105250D01*
X19314285Y-69105250D02*
X19361904Y-69057630D01*
X19361904Y-69057630D02*
X19409523Y-68962392D01*
X19409523Y-68962392D02*
X19409523Y-68152869D01*
X19790476Y-68152869D02*
X20457142Y-68152869D01*
X20457142Y-68152869D02*
X20028571Y-69152869D01*
D10*
X20079961Y-76227693D02*
X20127580Y-76132455D01*
X20127580Y-76132455D02*
X20127580Y-75989598D01*
X20127580Y-75989598D02*
X20079961Y-75846741D01*
X20079961Y-75846741D02*
X19984723Y-75751503D01*
X19984723Y-75751503D02*
X19889485Y-75703884D01*
X19889485Y-75703884D02*
X19699009Y-75656265D01*
X19699009Y-75656265D02*
X19556152Y-75656265D01*
X19556152Y-75656265D02*
X19365676Y-75703884D01*
X19365676Y-75703884D02*
X19270438Y-75751503D01*
X19270438Y-75751503D02*
X19175200Y-75846741D01*
X19175200Y-75846741D02*
X19127580Y-75989598D01*
X19127580Y-75989598D02*
X19127580Y-76084836D01*
X19127580Y-76084836D02*
X19175200Y-76227693D01*
X19175200Y-76227693D02*
X19222819Y-76275312D01*
X19222819Y-76275312D02*
X19556152Y-76275312D01*
X19556152Y-76275312D02*
X19556152Y-76084836D01*
X19127580Y-76703884D02*
X20127580Y-76703884D01*
X20127580Y-76703884D02*
X19127580Y-77275312D01*
X19127580Y-77275312D02*
X20127580Y-77275312D01*
X19127580Y-77751503D02*
X20127580Y-77751503D01*
X20127580Y-77751503D02*
X20127580Y-77989598D01*
X20127580Y-77989598D02*
X20079961Y-78132455D01*
X20079961Y-78132455D02*
X19984723Y-78227693D01*
X19984723Y-78227693D02*
X19889485Y-78275312D01*
X19889485Y-78275312D02*
X19699009Y-78322931D01*
X19699009Y-78322931D02*
X19556152Y-78322931D01*
X19556152Y-78322931D02*
X19365676Y-78275312D01*
X19365676Y-78275312D02*
X19270438Y-78227693D01*
X19270438Y-78227693D02*
X19175200Y-78132455D01*
X19175200Y-78132455D02*
X19127580Y-77989598D01*
X19127580Y-77989598D02*
X19127580Y-77751503D01*
X19127580Y-71476191D02*
X20127580Y-71476191D01*
X19127580Y-71952381D02*
X20127580Y-71952381D01*
X20127580Y-71952381D02*
X19127580Y-72523809D01*
X19127580Y-72523809D02*
X20127580Y-72523809D01*
X20227580Y-81000000D02*
X20227580Y-81190476D01*
X20227580Y-81190476D02*
X20179961Y-81285714D01*
X20179961Y-81285714D02*
X20084723Y-81380952D01*
X20084723Y-81380952D02*
X19894247Y-81428571D01*
X19894247Y-81428571D02*
X19560914Y-81428571D01*
X19560914Y-81428571D02*
X19370438Y-81380952D01*
X19370438Y-81380952D02*
X19275200Y-81285714D01*
X19275200Y-81285714D02*
X19227580Y-81190476D01*
X19227580Y-81190476D02*
X19227580Y-81000000D01*
X19227580Y-81000000D02*
X19275200Y-80904762D01*
X19275200Y-80904762D02*
X19370438Y-80809524D01*
X19370438Y-80809524D02*
X19560914Y-80761905D01*
X19560914Y-80761905D02*
X19894247Y-80761905D01*
X19894247Y-80761905D02*
X20084723Y-80809524D01*
X20084723Y-80809524D02*
X20179961Y-80904762D01*
X20179961Y-80904762D02*
X20227580Y-81000000D01*
X20227580Y-81857143D02*
X19418057Y-81857143D01*
X19418057Y-81857143D02*
X19322819Y-81904762D01*
X19322819Y-81904762D02*
X19275200Y-81952381D01*
X19275200Y-81952381D02*
X19227580Y-82047619D01*
X19227580Y-82047619D02*
X19227580Y-82238095D01*
X19227580Y-82238095D02*
X19275200Y-82333333D01*
X19275200Y-82333333D02*
X19322819Y-82380952D01*
X19322819Y-82380952D02*
X19418057Y-82428571D01*
X19418057Y-82428571D02*
X20227580Y-82428571D01*
X20227580Y-82761905D02*
X20227580Y-83333333D01*
X19227580Y-83047619D02*
X20227580Y-83047619D01*
D15*
X25904819Y-47566666D02*
X25428628Y-47899999D01*
X25904819Y-48138094D02*
X24904819Y-48138094D01*
X24904819Y-48138094D02*
X24904819Y-47757142D01*
X24904819Y-47757142D02*
X24952438Y-47661904D01*
X24952438Y-47661904D02*
X25000057Y-47614285D01*
X25000057Y-47614285D02*
X25095295Y-47566666D01*
X25095295Y-47566666D02*
X25238152Y-47566666D01*
X25238152Y-47566666D02*
X25333390Y-47614285D01*
X25333390Y-47614285D02*
X25381009Y-47661904D01*
X25381009Y-47661904D02*
X25428628Y-47757142D01*
X25428628Y-47757142D02*
X25428628Y-48138094D01*
X25238152Y-46709523D02*
X25904819Y-46709523D01*
X24857200Y-46947618D02*
X25571485Y-47185713D01*
X25571485Y-47185713D02*
X25571485Y-46566666D01*
X67304819Y-45142857D02*
X66828628Y-45476190D01*
X67304819Y-45714285D02*
X66304819Y-45714285D01*
X66304819Y-45714285D02*
X66304819Y-45333333D01*
X66304819Y-45333333D02*
X66352438Y-45238095D01*
X66352438Y-45238095D02*
X66400057Y-45190476D01*
X66400057Y-45190476D02*
X66495295Y-45142857D01*
X66495295Y-45142857D02*
X66638152Y-45142857D01*
X66638152Y-45142857D02*
X66733390Y-45190476D01*
X66733390Y-45190476D02*
X66781009Y-45238095D01*
X66781009Y-45238095D02*
X66828628Y-45333333D01*
X66828628Y-45333333D02*
X66828628Y-45714285D01*
X67304819Y-44190476D02*
X67304819Y-44761904D01*
X67304819Y-44476190D02*
X66304819Y-44476190D01*
X66304819Y-44476190D02*
X66447676Y-44571428D01*
X66447676Y-44571428D02*
X66542914Y-44666666D01*
X66542914Y-44666666D02*
X66590533Y-44761904D01*
X67304819Y-43714285D02*
X67304819Y-43523809D01*
X67304819Y-43523809D02*
X67257200Y-43428571D01*
X67257200Y-43428571D02*
X67209580Y-43380952D01*
X67209580Y-43380952D02*
X67066723Y-43285714D01*
X67066723Y-43285714D02*
X66876247Y-43238095D01*
X66876247Y-43238095D02*
X66495295Y-43238095D01*
X66495295Y-43238095D02*
X66400057Y-43285714D01*
X66400057Y-43285714D02*
X66352438Y-43333333D01*
X66352438Y-43333333D02*
X66304819Y-43428571D01*
X66304819Y-43428571D02*
X66304819Y-43619047D01*
X66304819Y-43619047D02*
X66352438Y-43714285D01*
X66352438Y-43714285D02*
X66400057Y-43761904D01*
X66400057Y-43761904D02*
X66495295Y-43809523D01*
X66495295Y-43809523D02*
X66733390Y-43809523D01*
X66733390Y-43809523D02*
X66828628Y-43761904D01*
X66828628Y-43761904D02*
X66876247Y-43714285D01*
X66876247Y-43714285D02*
X66923866Y-43619047D01*
X66923866Y-43619047D02*
X66923866Y-43428571D01*
X66923866Y-43428571D02*
X66876247Y-43333333D01*
X66876247Y-43333333D02*
X66828628Y-43285714D01*
X66828628Y-43285714D02*
X66733390Y-43238095D01*
X18738095Y-23454819D02*
X18738095Y-24264342D01*
X18738095Y-24264342D02*
X18785714Y-24359580D01*
X18785714Y-24359580D02*
X18833333Y-24407200D01*
X18833333Y-24407200D02*
X18928571Y-24454819D01*
X18928571Y-24454819D02*
X19119047Y-24454819D01*
X19119047Y-24454819D02*
X19214285Y-24407200D01*
X19214285Y-24407200D02*
X19261904Y-24359580D01*
X19261904Y-24359580D02*
X19309523Y-24264342D01*
X19309523Y-24264342D02*
X19309523Y-23454819D01*
X19690476Y-23454819D02*
X20309523Y-23454819D01*
X20309523Y-23454819D02*
X19976190Y-23835771D01*
X19976190Y-23835771D02*
X20119047Y-23835771D01*
X20119047Y-23835771D02*
X20214285Y-23883390D01*
X20214285Y-23883390D02*
X20261904Y-23931009D01*
X20261904Y-23931009D02*
X20309523Y-24026247D01*
X20309523Y-24026247D02*
X20309523Y-24264342D01*
X20309523Y-24264342D02*
X20261904Y-24359580D01*
X20261904Y-24359580D02*
X20214285Y-24407200D01*
X20214285Y-24407200D02*
X20119047Y-24454819D01*
X20119047Y-24454819D02*
X19833333Y-24454819D01*
X19833333Y-24454819D02*
X19738095Y-24407200D01*
X19738095Y-24407200D02*
X19690476Y-24359580D01*
X44504166Y-99454819D02*
X44504166Y-100169104D01*
X44504166Y-100169104D02*
X44456547Y-100311961D01*
X44456547Y-100311961D02*
X44361309Y-100407200D01*
X44361309Y-100407200D02*
X44218452Y-100454819D01*
X44218452Y-100454819D02*
X44123214Y-100454819D01*
X44932738Y-99550057D02*
X44980357Y-99502438D01*
X44980357Y-99502438D02*
X45075595Y-99454819D01*
X45075595Y-99454819D02*
X45313690Y-99454819D01*
X45313690Y-99454819D02*
X45408928Y-99502438D01*
X45408928Y-99502438D02*
X45456547Y-99550057D01*
X45456547Y-99550057D02*
X45504166Y-99645295D01*
X45504166Y-99645295D02*
X45504166Y-99740533D01*
X45504166Y-99740533D02*
X45456547Y-99883390D01*
X45456547Y-99883390D02*
X44885119Y-100454819D01*
X44885119Y-100454819D02*
X45504166Y-100454819D01*
X19738095Y-99154819D02*
X19738095Y-98154819D01*
X19738095Y-98631009D02*
X20309523Y-98631009D01*
X20309523Y-99154819D02*
X20309523Y-98154819D01*
X21309523Y-99154819D02*
X20738095Y-99154819D01*
X21023809Y-99154819D02*
X21023809Y-98154819D01*
X21023809Y-98154819D02*
X20928571Y-98297676D01*
X20928571Y-98297676D02*
X20833333Y-98392914D01*
X20833333Y-98392914D02*
X20738095Y-98440533D01*
X47096905Y-73754819D02*
X47096905Y-72754819D01*
X47096905Y-72754819D02*
X47335000Y-72754819D01*
X47335000Y-72754819D02*
X47477857Y-72802438D01*
X47477857Y-72802438D02*
X47573095Y-72897676D01*
X47573095Y-72897676D02*
X47620714Y-72992914D01*
X47620714Y-72992914D02*
X47668333Y-73183390D01*
X47668333Y-73183390D02*
X47668333Y-73326247D01*
X47668333Y-73326247D02*
X47620714Y-73516723D01*
X47620714Y-73516723D02*
X47573095Y-73611961D01*
X47573095Y-73611961D02*
X47477857Y-73707200D01*
X47477857Y-73707200D02*
X47335000Y-73754819D01*
X47335000Y-73754819D02*
X47096905Y-73754819D01*
X48049286Y-72850057D02*
X48096905Y-72802438D01*
X48096905Y-72802438D02*
X48192143Y-72754819D01*
X48192143Y-72754819D02*
X48430238Y-72754819D01*
X48430238Y-72754819D02*
X48525476Y-72802438D01*
X48525476Y-72802438D02*
X48573095Y-72850057D01*
X48573095Y-72850057D02*
X48620714Y-72945295D01*
X48620714Y-72945295D02*
X48620714Y-73040533D01*
X48620714Y-73040533D02*
X48573095Y-73183390D01*
X48573095Y-73183390D02*
X48001667Y-73754819D01*
X48001667Y-73754819D02*
X48620714Y-73754819D01*
X26666666Y-91954819D02*
X26666666Y-92669104D01*
X26666666Y-92669104D02*
X26619047Y-92811961D01*
X26619047Y-92811961D02*
X26523809Y-92907200D01*
X26523809Y-92907200D02*
X26380952Y-92954819D01*
X26380952Y-92954819D02*
X26285714Y-92954819D01*
X27571428Y-91954819D02*
X27380952Y-91954819D01*
X27380952Y-91954819D02*
X27285714Y-92002438D01*
X27285714Y-92002438D02*
X27238095Y-92050057D01*
X27238095Y-92050057D02*
X27142857Y-92192914D01*
X27142857Y-92192914D02*
X27095238Y-92383390D01*
X27095238Y-92383390D02*
X27095238Y-92764342D01*
X27095238Y-92764342D02*
X27142857Y-92859580D01*
X27142857Y-92859580D02*
X27190476Y-92907200D01*
X27190476Y-92907200D02*
X27285714Y-92954819D01*
X27285714Y-92954819D02*
X27476190Y-92954819D01*
X27476190Y-92954819D02*
X27571428Y-92907200D01*
X27571428Y-92907200D02*
X27619047Y-92859580D01*
X27619047Y-92859580D02*
X27666666Y-92764342D01*
X27666666Y-92764342D02*
X27666666Y-92526247D01*
X27666666Y-92526247D02*
X27619047Y-92431009D01*
X27619047Y-92431009D02*
X27571428Y-92383390D01*
X27571428Y-92383390D02*
X27476190Y-92335771D01*
X27476190Y-92335771D02*
X27285714Y-92335771D01*
X27285714Y-92335771D02*
X27190476Y-92383390D01*
X27190476Y-92383390D02*
X27142857Y-92431009D01*
X27142857Y-92431009D02*
X27095238Y-92526247D01*
X29261905Y-85954819D02*
X29261905Y-84954819D01*
X29261905Y-84954819D02*
X29500000Y-84954819D01*
X29500000Y-84954819D02*
X29642857Y-85002438D01*
X29642857Y-85002438D02*
X29738095Y-85097676D01*
X29738095Y-85097676D02*
X29785714Y-85192914D01*
X29785714Y-85192914D02*
X29833333Y-85383390D01*
X29833333Y-85383390D02*
X29833333Y-85526247D01*
X29833333Y-85526247D02*
X29785714Y-85716723D01*
X29785714Y-85716723D02*
X29738095Y-85811961D01*
X29738095Y-85811961D02*
X29642857Y-85907200D01*
X29642857Y-85907200D02*
X29500000Y-85954819D01*
X29500000Y-85954819D02*
X29261905Y-85954819D01*
X30785714Y-85954819D02*
X30214286Y-85954819D01*
X30500000Y-85954819D02*
X30500000Y-84954819D01*
X30500000Y-84954819D02*
X30404762Y-85097676D01*
X30404762Y-85097676D02*
X30309524Y-85192914D01*
X30309524Y-85192914D02*
X30214286Y-85240533D01*
X52233333Y-70554819D02*
X51900000Y-70078628D01*
X51661905Y-70554819D02*
X51661905Y-69554819D01*
X51661905Y-69554819D02*
X52042857Y-69554819D01*
X52042857Y-69554819D02*
X52138095Y-69602438D01*
X52138095Y-69602438D02*
X52185714Y-69650057D01*
X52185714Y-69650057D02*
X52233333Y-69745295D01*
X52233333Y-69745295D02*
X52233333Y-69888152D01*
X52233333Y-69888152D02*
X52185714Y-69983390D01*
X52185714Y-69983390D02*
X52138095Y-70031009D01*
X52138095Y-70031009D02*
X52042857Y-70078628D01*
X52042857Y-70078628D02*
X51661905Y-70078628D01*
X53090476Y-69554819D02*
X52900000Y-69554819D01*
X52900000Y-69554819D02*
X52804762Y-69602438D01*
X52804762Y-69602438D02*
X52757143Y-69650057D01*
X52757143Y-69650057D02*
X52661905Y-69792914D01*
X52661905Y-69792914D02*
X52614286Y-69983390D01*
X52614286Y-69983390D02*
X52614286Y-70364342D01*
X52614286Y-70364342D02*
X52661905Y-70459580D01*
X52661905Y-70459580D02*
X52709524Y-70507200D01*
X52709524Y-70507200D02*
X52804762Y-70554819D01*
X52804762Y-70554819D02*
X52995238Y-70554819D01*
X52995238Y-70554819D02*
X53090476Y-70507200D01*
X53090476Y-70507200D02*
X53138095Y-70459580D01*
X53138095Y-70459580D02*
X53185714Y-70364342D01*
X53185714Y-70364342D02*
X53185714Y-70126247D01*
X53185714Y-70126247D02*
X53138095Y-70031009D01*
X53138095Y-70031009D02*
X53090476Y-69983390D01*
X53090476Y-69983390D02*
X52995238Y-69935771D01*
X52995238Y-69935771D02*
X52804762Y-69935771D01*
X52804762Y-69935771D02*
X52709524Y-69983390D01*
X52709524Y-69983390D02*
X52661905Y-70031009D01*
X52661905Y-70031009D02*
X52614286Y-70126247D01*
X63057142Y-58054819D02*
X62723809Y-57578628D01*
X62485714Y-58054819D02*
X62485714Y-57054819D01*
X62485714Y-57054819D02*
X62866666Y-57054819D01*
X62866666Y-57054819D02*
X62961904Y-57102438D01*
X62961904Y-57102438D02*
X63009523Y-57150057D01*
X63009523Y-57150057D02*
X63057142Y-57245295D01*
X63057142Y-57245295D02*
X63057142Y-57388152D01*
X63057142Y-57388152D02*
X63009523Y-57483390D01*
X63009523Y-57483390D02*
X62961904Y-57531009D01*
X62961904Y-57531009D02*
X62866666Y-57578628D01*
X62866666Y-57578628D02*
X62485714Y-57578628D01*
X64009523Y-58054819D02*
X63438095Y-58054819D01*
X63723809Y-58054819D02*
X63723809Y-57054819D01*
X63723809Y-57054819D02*
X63628571Y-57197676D01*
X63628571Y-57197676D02*
X63533333Y-57292914D01*
X63533333Y-57292914D02*
X63438095Y-57340533D01*
X64580952Y-57483390D02*
X64485714Y-57435771D01*
X64485714Y-57435771D02*
X64438095Y-57388152D01*
X64438095Y-57388152D02*
X64390476Y-57292914D01*
X64390476Y-57292914D02*
X64390476Y-57245295D01*
X64390476Y-57245295D02*
X64438095Y-57150057D01*
X64438095Y-57150057D02*
X64485714Y-57102438D01*
X64485714Y-57102438D02*
X64580952Y-57054819D01*
X64580952Y-57054819D02*
X64771428Y-57054819D01*
X64771428Y-57054819D02*
X64866666Y-57102438D01*
X64866666Y-57102438D02*
X64914285Y-57150057D01*
X64914285Y-57150057D02*
X64961904Y-57245295D01*
X64961904Y-57245295D02*
X64961904Y-57292914D01*
X64961904Y-57292914D02*
X64914285Y-57388152D01*
X64914285Y-57388152D02*
X64866666Y-57435771D01*
X64866666Y-57435771D02*
X64771428Y-57483390D01*
X64771428Y-57483390D02*
X64580952Y-57483390D01*
X64580952Y-57483390D02*
X64485714Y-57531009D01*
X64485714Y-57531009D02*
X64438095Y-57578628D01*
X64438095Y-57578628D02*
X64390476Y-57673866D01*
X64390476Y-57673866D02*
X64390476Y-57864342D01*
X64390476Y-57864342D02*
X64438095Y-57959580D01*
X64438095Y-57959580D02*
X64485714Y-58007200D01*
X64485714Y-58007200D02*
X64580952Y-58054819D01*
X64580952Y-58054819D02*
X64771428Y-58054819D01*
X64771428Y-58054819D02*
X64866666Y-58007200D01*
X64866666Y-58007200D02*
X64914285Y-57959580D01*
X64914285Y-57959580D02*
X64961904Y-57864342D01*
X64961904Y-57864342D02*
X64961904Y-57673866D01*
X64961904Y-57673866D02*
X64914285Y-57578628D01*
X64914285Y-57578628D02*
X64866666Y-57531009D01*
X64866666Y-57531009D02*
X64771428Y-57483390D01*
X68238095Y-17454819D02*
X68238095Y-16454819D01*
X68238095Y-16931009D02*
X68809523Y-16931009D01*
X68809523Y-17454819D02*
X68809523Y-16454819D01*
X69190476Y-16454819D02*
X69809523Y-16454819D01*
X69809523Y-16454819D02*
X69476190Y-16835771D01*
X69476190Y-16835771D02*
X69619047Y-16835771D01*
X69619047Y-16835771D02*
X69714285Y-16883390D01*
X69714285Y-16883390D02*
X69761904Y-16931009D01*
X69761904Y-16931009D02*
X69809523Y-17026247D01*
X69809523Y-17026247D02*
X69809523Y-17264342D01*
X69809523Y-17264342D02*
X69761904Y-17359580D01*
X69761904Y-17359580D02*
X69714285Y-17407200D01*
X69714285Y-17407200D02*
X69619047Y-17454819D01*
X69619047Y-17454819D02*
X69333333Y-17454819D01*
X69333333Y-17454819D02*
X69238095Y-17407200D01*
X69238095Y-17407200D02*
X69190476Y-17359580D01*
X29557142Y-74959580D02*
X29509523Y-75007200D01*
X29509523Y-75007200D02*
X29366666Y-75054819D01*
X29366666Y-75054819D02*
X29271428Y-75054819D01*
X29271428Y-75054819D02*
X29128571Y-75007200D01*
X29128571Y-75007200D02*
X29033333Y-74911961D01*
X29033333Y-74911961D02*
X28985714Y-74816723D01*
X28985714Y-74816723D02*
X28938095Y-74626247D01*
X28938095Y-74626247D02*
X28938095Y-74483390D01*
X28938095Y-74483390D02*
X28985714Y-74292914D01*
X28985714Y-74292914D02*
X29033333Y-74197676D01*
X29033333Y-74197676D02*
X29128571Y-74102438D01*
X29128571Y-74102438D02*
X29271428Y-74054819D01*
X29271428Y-74054819D02*
X29366666Y-74054819D01*
X29366666Y-74054819D02*
X29509523Y-74102438D01*
X29509523Y-74102438D02*
X29557142Y-74150057D01*
X30509523Y-75054819D02*
X29938095Y-75054819D01*
X30223809Y-75054819D02*
X30223809Y-74054819D01*
X30223809Y-74054819D02*
X30128571Y-74197676D01*
X30128571Y-74197676D02*
X30033333Y-74292914D01*
X30033333Y-74292914D02*
X29938095Y-74340533D01*
X31128571Y-74054819D02*
X31223809Y-74054819D01*
X31223809Y-74054819D02*
X31319047Y-74102438D01*
X31319047Y-74102438D02*
X31366666Y-74150057D01*
X31366666Y-74150057D02*
X31414285Y-74245295D01*
X31414285Y-74245295D02*
X31461904Y-74435771D01*
X31461904Y-74435771D02*
X31461904Y-74673866D01*
X31461904Y-74673866D02*
X31414285Y-74864342D01*
X31414285Y-74864342D02*
X31366666Y-74959580D01*
X31366666Y-74959580D02*
X31319047Y-75007200D01*
X31319047Y-75007200D02*
X31223809Y-75054819D01*
X31223809Y-75054819D02*
X31128571Y-75054819D01*
X31128571Y-75054819D02*
X31033333Y-75007200D01*
X31033333Y-75007200D02*
X30985714Y-74959580D01*
X30985714Y-74959580D02*
X30938095Y-74864342D01*
X30938095Y-74864342D02*
X30890476Y-74673866D01*
X30890476Y-74673866D02*
X30890476Y-74435771D01*
X30890476Y-74435771D02*
X30938095Y-74245295D01*
X30938095Y-74245295D02*
X30985714Y-74150057D01*
X30985714Y-74150057D02*
X31033333Y-74102438D01*
X31033333Y-74102438D02*
X31128571Y-74054819D01*
X51661905Y-73804819D02*
X51661905Y-72804819D01*
X51661905Y-72804819D02*
X51900000Y-72804819D01*
X51900000Y-72804819D02*
X52042857Y-72852438D01*
X52042857Y-72852438D02*
X52138095Y-72947676D01*
X52138095Y-72947676D02*
X52185714Y-73042914D01*
X52185714Y-73042914D02*
X52233333Y-73233390D01*
X52233333Y-73233390D02*
X52233333Y-73376247D01*
X52233333Y-73376247D02*
X52185714Y-73566723D01*
X52185714Y-73566723D02*
X52138095Y-73661961D01*
X52138095Y-73661961D02*
X52042857Y-73757200D01*
X52042857Y-73757200D02*
X51900000Y-73804819D01*
X51900000Y-73804819D02*
X51661905Y-73804819D01*
X53138095Y-72804819D02*
X52661905Y-72804819D01*
X52661905Y-72804819D02*
X52614286Y-73281009D01*
X52614286Y-73281009D02*
X52661905Y-73233390D01*
X52661905Y-73233390D02*
X52757143Y-73185771D01*
X52757143Y-73185771D02*
X52995238Y-73185771D01*
X52995238Y-73185771D02*
X53090476Y-73233390D01*
X53090476Y-73233390D02*
X53138095Y-73281009D01*
X53138095Y-73281009D02*
X53185714Y-73376247D01*
X53185714Y-73376247D02*
X53185714Y-73614342D01*
X53185714Y-73614342D02*
X53138095Y-73709580D01*
X53138095Y-73709580D02*
X53090476Y-73757200D01*
X53090476Y-73757200D02*
X52995238Y-73804819D01*
X52995238Y-73804819D02*
X52757143Y-73804819D01*
X52757143Y-73804819D02*
X52661905Y-73757200D01*
X52661905Y-73757200D02*
X52614286Y-73709580D01*
X47733333Y-70454819D02*
X47400000Y-69978628D01*
X47161905Y-70454819D02*
X47161905Y-69454819D01*
X47161905Y-69454819D02*
X47542857Y-69454819D01*
X47542857Y-69454819D02*
X47638095Y-69502438D01*
X47638095Y-69502438D02*
X47685714Y-69550057D01*
X47685714Y-69550057D02*
X47733333Y-69645295D01*
X47733333Y-69645295D02*
X47733333Y-69788152D01*
X47733333Y-69788152D02*
X47685714Y-69883390D01*
X47685714Y-69883390D02*
X47638095Y-69931009D01*
X47638095Y-69931009D02*
X47542857Y-69978628D01*
X47542857Y-69978628D02*
X47161905Y-69978628D01*
X48209524Y-70454819D02*
X48400000Y-70454819D01*
X48400000Y-70454819D02*
X48495238Y-70407200D01*
X48495238Y-70407200D02*
X48542857Y-70359580D01*
X48542857Y-70359580D02*
X48638095Y-70216723D01*
X48638095Y-70216723D02*
X48685714Y-70026247D01*
X48685714Y-70026247D02*
X48685714Y-69645295D01*
X48685714Y-69645295D02*
X48638095Y-69550057D01*
X48638095Y-69550057D02*
X48590476Y-69502438D01*
X48590476Y-69502438D02*
X48495238Y-69454819D01*
X48495238Y-69454819D02*
X48304762Y-69454819D01*
X48304762Y-69454819D02*
X48209524Y-69502438D01*
X48209524Y-69502438D02*
X48161905Y-69550057D01*
X48161905Y-69550057D02*
X48114286Y-69645295D01*
X48114286Y-69645295D02*
X48114286Y-69883390D01*
X48114286Y-69883390D02*
X48161905Y-69978628D01*
X48161905Y-69978628D02*
X48209524Y-70026247D01*
X48209524Y-70026247D02*
X48304762Y-70073866D01*
X48304762Y-70073866D02*
X48495238Y-70073866D01*
X48495238Y-70073866D02*
X48590476Y-70026247D01*
X48590476Y-70026247D02*
X48638095Y-69978628D01*
X48638095Y-69978628D02*
X48685714Y-69883390D01*
X48333333Y-31859580D02*
X48285714Y-31907200D01*
X48285714Y-31907200D02*
X48142857Y-31954819D01*
X48142857Y-31954819D02*
X48047619Y-31954819D01*
X48047619Y-31954819D02*
X47904762Y-31907200D01*
X47904762Y-31907200D02*
X47809524Y-31811961D01*
X47809524Y-31811961D02*
X47761905Y-31716723D01*
X47761905Y-31716723D02*
X47714286Y-31526247D01*
X47714286Y-31526247D02*
X47714286Y-31383390D01*
X47714286Y-31383390D02*
X47761905Y-31192914D01*
X47761905Y-31192914D02*
X47809524Y-31097676D01*
X47809524Y-31097676D02*
X47904762Y-31002438D01*
X47904762Y-31002438D02*
X48047619Y-30954819D01*
X48047619Y-30954819D02*
X48142857Y-30954819D01*
X48142857Y-30954819D02*
X48285714Y-31002438D01*
X48285714Y-31002438D02*
X48333333Y-31050057D01*
X49285714Y-31954819D02*
X48714286Y-31954819D01*
X49000000Y-31954819D02*
X49000000Y-30954819D01*
X49000000Y-30954819D02*
X48904762Y-31097676D01*
X48904762Y-31097676D02*
X48809524Y-31192914D01*
X48809524Y-31192914D02*
X48714286Y-31240533D01*
X27333333Y-74959580D02*
X27285714Y-75007200D01*
X27285714Y-75007200D02*
X27142857Y-75054819D01*
X27142857Y-75054819D02*
X27047619Y-75054819D01*
X27047619Y-75054819D02*
X26904762Y-75007200D01*
X26904762Y-75007200D02*
X26809524Y-74911961D01*
X26809524Y-74911961D02*
X26761905Y-74816723D01*
X26761905Y-74816723D02*
X26714286Y-74626247D01*
X26714286Y-74626247D02*
X26714286Y-74483390D01*
X26714286Y-74483390D02*
X26761905Y-74292914D01*
X26761905Y-74292914D02*
X26809524Y-74197676D01*
X26809524Y-74197676D02*
X26904762Y-74102438D01*
X26904762Y-74102438D02*
X27047619Y-74054819D01*
X27047619Y-74054819D02*
X27142857Y-74054819D01*
X27142857Y-74054819D02*
X27285714Y-74102438D01*
X27285714Y-74102438D02*
X27333333Y-74150057D01*
X27809524Y-75054819D02*
X28000000Y-75054819D01*
X28000000Y-75054819D02*
X28095238Y-75007200D01*
X28095238Y-75007200D02*
X28142857Y-74959580D01*
X28142857Y-74959580D02*
X28238095Y-74816723D01*
X28238095Y-74816723D02*
X28285714Y-74626247D01*
X28285714Y-74626247D02*
X28285714Y-74245295D01*
X28285714Y-74245295D02*
X28238095Y-74150057D01*
X28238095Y-74150057D02*
X28190476Y-74102438D01*
X28190476Y-74102438D02*
X28095238Y-74054819D01*
X28095238Y-74054819D02*
X27904762Y-74054819D01*
X27904762Y-74054819D02*
X27809524Y-74102438D01*
X27809524Y-74102438D02*
X27761905Y-74150057D01*
X27761905Y-74150057D02*
X27714286Y-74245295D01*
X27714286Y-74245295D02*
X27714286Y-74483390D01*
X27714286Y-74483390D02*
X27761905Y-74578628D01*
X27761905Y-74578628D02*
X27809524Y-74626247D01*
X27809524Y-74626247D02*
X27904762Y-74673866D01*
X27904762Y-74673866D02*
X28095238Y-74673866D01*
X28095238Y-74673866D02*
X28190476Y-74626247D01*
X28190476Y-74626247D02*
X28238095Y-74578628D01*
X28238095Y-74578628D02*
X28285714Y-74483390D01*
X69666667Y-67644800D02*
X69809524Y-67692419D01*
X69809524Y-67692419D02*
X70047619Y-67692419D01*
X70047619Y-67692419D02*
X70142857Y-67644800D01*
X70142857Y-67644800D02*
X70190476Y-67597180D01*
X70190476Y-67597180D02*
X70238095Y-67501942D01*
X70238095Y-67501942D02*
X70238095Y-67406704D01*
X70238095Y-67406704D02*
X70190476Y-67311466D01*
X70190476Y-67311466D02*
X70142857Y-67263847D01*
X70142857Y-67263847D02*
X70047619Y-67216228D01*
X70047619Y-67216228D02*
X69857143Y-67168609D01*
X69857143Y-67168609D02*
X69761905Y-67120990D01*
X69761905Y-67120990D02*
X69714286Y-67073371D01*
X69714286Y-67073371D02*
X69666667Y-66978133D01*
X69666667Y-66978133D02*
X69666667Y-66882895D01*
X69666667Y-66882895D02*
X69714286Y-66787657D01*
X69714286Y-66787657D02*
X69761905Y-66740038D01*
X69761905Y-66740038D02*
X69857143Y-66692419D01*
X69857143Y-66692419D02*
X70095238Y-66692419D01*
X70095238Y-66692419D02*
X70238095Y-66740038D01*
X70571429Y-66692419D02*
X70809524Y-67692419D01*
X70809524Y-67692419D02*
X71000000Y-66978133D01*
X71000000Y-66978133D02*
X71190476Y-67692419D01*
X71190476Y-67692419D02*
X71428572Y-66692419D01*
X71761905Y-66787657D02*
X71809524Y-66740038D01*
X71809524Y-66740038D02*
X71904762Y-66692419D01*
X71904762Y-66692419D02*
X72142857Y-66692419D01*
X72142857Y-66692419D02*
X72238095Y-66740038D01*
X72238095Y-66740038D02*
X72285714Y-66787657D01*
X72285714Y-66787657D02*
X72333333Y-66882895D01*
X72333333Y-66882895D02*
X72333333Y-66978133D01*
X72333333Y-66978133D02*
X72285714Y-67120990D01*
X72285714Y-67120990D02*
X71714286Y-67692419D01*
X71714286Y-67692419D02*
X72333333Y-67692419D01*
X58157142Y-70454819D02*
X57823809Y-69978628D01*
X57585714Y-70454819D02*
X57585714Y-69454819D01*
X57585714Y-69454819D02*
X57966666Y-69454819D01*
X57966666Y-69454819D02*
X58061904Y-69502438D01*
X58061904Y-69502438D02*
X58109523Y-69550057D01*
X58109523Y-69550057D02*
X58157142Y-69645295D01*
X58157142Y-69645295D02*
X58157142Y-69788152D01*
X58157142Y-69788152D02*
X58109523Y-69883390D01*
X58109523Y-69883390D02*
X58061904Y-69931009D01*
X58061904Y-69931009D02*
X57966666Y-69978628D01*
X57966666Y-69978628D02*
X57585714Y-69978628D01*
X58538095Y-69550057D02*
X58585714Y-69502438D01*
X58585714Y-69502438D02*
X58680952Y-69454819D01*
X58680952Y-69454819D02*
X58919047Y-69454819D01*
X58919047Y-69454819D02*
X59014285Y-69502438D01*
X59014285Y-69502438D02*
X59061904Y-69550057D01*
X59061904Y-69550057D02*
X59109523Y-69645295D01*
X59109523Y-69645295D02*
X59109523Y-69740533D01*
X59109523Y-69740533D02*
X59061904Y-69883390D01*
X59061904Y-69883390D02*
X58490476Y-70454819D01*
X58490476Y-70454819D02*
X59109523Y-70454819D01*
X59966666Y-69788152D02*
X59966666Y-70454819D01*
X59728571Y-69407200D02*
X59490476Y-70121485D01*
X59490476Y-70121485D02*
X60109523Y-70121485D01*
X61004166Y-99454819D02*
X61004166Y-100169104D01*
X61004166Y-100169104D02*
X60956547Y-100311961D01*
X60956547Y-100311961D02*
X60861309Y-100407200D01*
X60861309Y-100407200D02*
X60718452Y-100454819D01*
X60718452Y-100454819D02*
X60623214Y-100454819D01*
X61385119Y-99454819D02*
X62004166Y-99454819D01*
X62004166Y-99454819D02*
X61670833Y-99835771D01*
X61670833Y-99835771D02*
X61813690Y-99835771D01*
X61813690Y-99835771D02*
X61908928Y-99883390D01*
X61908928Y-99883390D02*
X61956547Y-99931009D01*
X61956547Y-99931009D02*
X62004166Y-100026247D01*
X62004166Y-100026247D02*
X62004166Y-100264342D01*
X62004166Y-100264342D02*
X61956547Y-100359580D01*
X61956547Y-100359580D02*
X61908928Y-100407200D01*
X61908928Y-100407200D02*
X61813690Y-100454819D01*
X61813690Y-100454819D02*
X61527976Y-100454819D01*
X61527976Y-100454819D02*
X61432738Y-100407200D01*
X61432738Y-100407200D02*
X61385119Y-100359580D01*
X22704819Y-47566666D02*
X22228628Y-47899999D01*
X22704819Y-48138094D02*
X21704819Y-48138094D01*
X21704819Y-48138094D02*
X21704819Y-47757142D01*
X21704819Y-47757142D02*
X21752438Y-47661904D01*
X21752438Y-47661904D02*
X21800057Y-47614285D01*
X21800057Y-47614285D02*
X21895295Y-47566666D01*
X21895295Y-47566666D02*
X22038152Y-47566666D01*
X22038152Y-47566666D02*
X22133390Y-47614285D01*
X22133390Y-47614285D02*
X22181009Y-47661904D01*
X22181009Y-47661904D02*
X22228628Y-47757142D01*
X22228628Y-47757142D02*
X22228628Y-48138094D01*
X21704819Y-47233332D02*
X21704819Y-46614285D01*
X21704819Y-46614285D02*
X22085771Y-46947618D01*
X22085771Y-46947618D02*
X22085771Y-46804761D01*
X22085771Y-46804761D02*
X22133390Y-46709523D01*
X22133390Y-46709523D02*
X22181009Y-46661904D01*
X22181009Y-46661904D02*
X22276247Y-46614285D01*
X22276247Y-46614285D02*
X22514342Y-46614285D01*
X22514342Y-46614285D02*
X22609580Y-46661904D01*
X22609580Y-46661904D02*
X22657200Y-46709523D01*
X22657200Y-46709523D02*
X22704819Y-46804761D01*
X22704819Y-46804761D02*
X22704819Y-47090475D01*
X22704819Y-47090475D02*
X22657200Y-47185713D01*
X22657200Y-47185713D02*
X22609580Y-47233332D01*
X60379819Y-86411904D02*
X61189342Y-86411904D01*
X61189342Y-86411904D02*
X61284580Y-86364285D01*
X61284580Y-86364285D02*
X61332200Y-86316666D01*
X61332200Y-86316666D02*
X61379819Y-86221428D01*
X61379819Y-86221428D02*
X61379819Y-86030952D01*
X61379819Y-86030952D02*
X61332200Y-85935714D01*
X61332200Y-85935714D02*
X61284580Y-85888095D01*
X61284580Y-85888095D02*
X61189342Y-85840476D01*
X61189342Y-85840476D02*
X60379819Y-85840476D01*
X60379819Y-84888095D02*
X60379819Y-85364285D01*
X60379819Y-85364285D02*
X60856009Y-85411904D01*
X60856009Y-85411904D02*
X60808390Y-85364285D01*
X60808390Y-85364285D02*
X60760771Y-85269047D01*
X60760771Y-85269047D02*
X60760771Y-85030952D01*
X60760771Y-85030952D02*
X60808390Y-84935714D01*
X60808390Y-84935714D02*
X60856009Y-84888095D01*
X60856009Y-84888095D02*
X60951247Y-84840476D01*
X60951247Y-84840476D02*
X61189342Y-84840476D01*
X61189342Y-84840476D02*
X61284580Y-84888095D01*
X61284580Y-84888095D02*
X61332200Y-84935714D01*
X61332200Y-84935714D02*
X61379819Y-85030952D01*
X61379819Y-85030952D02*
X61379819Y-85269047D01*
X61379819Y-85269047D02*
X61332200Y-85364285D01*
X61332200Y-85364285D02*
X61284580Y-85411904D01*
X33009580Y-82221778D02*
X33057200Y-82269397D01*
X33057200Y-82269397D02*
X33104819Y-82412254D01*
X33104819Y-82412254D02*
X33104819Y-82507492D01*
X33104819Y-82507492D02*
X33057200Y-82650349D01*
X33057200Y-82650349D02*
X32961961Y-82745587D01*
X32961961Y-82745587D02*
X32866723Y-82793206D01*
X32866723Y-82793206D02*
X32676247Y-82840825D01*
X32676247Y-82840825D02*
X32533390Y-82840825D01*
X32533390Y-82840825D02*
X32342914Y-82793206D01*
X32342914Y-82793206D02*
X32247676Y-82745587D01*
X32247676Y-82745587D02*
X32152438Y-82650349D01*
X32152438Y-82650349D02*
X32104819Y-82507492D01*
X32104819Y-82507492D02*
X32104819Y-82412254D01*
X32104819Y-82412254D02*
X32152438Y-82269397D01*
X32152438Y-82269397D02*
X32200057Y-82221778D01*
X32533390Y-81650349D02*
X32485771Y-81745587D01*
X32485771Y-81745587D02*
X32438152Y-81793206D01*
X32438152Y-81793206D02*
X32342914Y-81840825D01*
X32342914Y-81840825D02*
X32295295Y-81840825D01*
X32295295Y-81840825D02*
X32200057Y-81793206D01*
X32200057Y-81793206D02*
X32152438Y-81745587D01*
X32152438Y-81745587D02*
X32104819Y-81650349D01*
X32104819Y-81650349D02*
X32104819Y-81459873D01*
X32104819Y-81459873D02*
X32152438Y-81364635D01*
X32152438Y-81364635D02*
X32200057Y-81317016D01*
X32200057Y-81317016D02*
X32295295Y-81269397D01*
X32295295Y-81269397D02*
X32342914Y-81269397D01*
X32342914Y-81269397D02*
X32438152Y-81317016D01*
X32438152Y-81317016D02*
X32485771Y-81364635D01*
X32485771Y-81364635D02*
X32533390Y-81459873D01*
X32533390Y-81459873D02*
X32533390Y-81650349D01*
X32533390Y-81650349D02*
X32581009Y-81745587D01*
X32581009Y-81745587D02*
X32628628Y-81793206D01*
X32628628Y-81793206D02*
X32723866Y-81840825D01*
X32723866Y-81840825D02*
X32914342Y-81840825D01*
X32914342Y-81840825D02*
X33009580Y-81793206D01*
X33009580Y-81793206D02*
X33057200Y-81745587D01*
X33057200Y-81745587D02*
X33104819Y-81650349D01*
X33104819Y-81650349D02*
X33104819Y-81459873D01*
X33104819Y-81459873D02*
X33057200Y-81364635D01*
X33057200Y-81364635D02*
X33009580Y-81317016D01*
X33009580Y-81317016D02*
X32914342Y-81269397D01*
X32914342Y-81269397D02*
X32723866Y-81269397D01*
X32723866Y-81269397D02*
X32628628Y-81317016D01*
X32628628Y-81317016D02*
X32581009Y-81364635D01*
X32581009Y-81364635D02*
X32533390Y-81459873D01*
X26357142Y-85954819D02*
X26023809Y-85478628D01*
X25785714Y-85954819D02*
X25785714Y-84954819D01*
X25785714Y-84954819D02*
X26166666Y-84954819D01*
X26166666Y-84954819D02*
X26261904Y-85002438D01*
X26261904Y-85002438D02*
X26309523Y-85050057D01*
X26309523Y-85050057D02*
X26357142Y-85145295D01*
X26357142Y-85145295D02*
X26357142Y-85288152D01*
X26357142Y-85288152D02*
X26309523Y-85383390D01*
X26309523Y-85383390D02*
X26261904Y-85431009D01*
X26261904Y-85431009D02*
X26166666Y-85478628D01*
X26166666Y-85478628D02*
X25785714Y-85478628D01*
X26738095Y-85050057D02*
X26785714Y-85002438D01*
X26785714Y-85002438D02*
X26880952Y-84954819D01*
X26880952Y-84954819D02*
X27119047Y-84954819D01*
X27119047Y-84954819D02*
X27214285Y-85002438D01*
X27214285Y-85002438D02*
X27261904Y-85050057D01*
X27261904Y-85050057D02*
X27309523Y-85145295D01*
X27309523Y-85145295D02*
X27309523Y-85240533D01*
X27309523Y-85240533D02*
X27261904Y-85383390D01*
X27261904Y-85383390D02*
X26690476Y-85954819D01*
X26690476Y-85954819D02*
X27309523Y-85954819D01*
X27928571Y-84954819D02*
X28023809Y-84954819D01*
X28023809Y-84954819D02*
X28119047Y-85002438D01*
X28119047Y-85002438D02*
X28166666Y-85050057D01*
X28166666Y-85050057D02*
X28214285Y-85145295D01*
X28214285Y-85145295D02*
X28261904Y-85335771D01*
X28261904Y-85335771D02*
X28261904Y-85573866D01*
X28261904Y-85573866D02*
X28214285Y-85764342D01*
X28214285Y-85764342D02*
X28166666Y-85859580D01*
X28166666Y-85859580D02*
X28119047Y-85907200D01*
X28119047Y-85907200D02*
X28023809Y-85954819D01*
X28023809Y-85954819D02*
X27928571Y-85954819D01*
X27928571Y-85954819D02*
X27833333Y-85907200D01*
X27833333Y-85907200D02*
X27785714Y-85859580D01*
X27785714Y-85859580D02*
X27738095Y-85764342D01*
X27738095Y-85764342D02*
X27690476Y-85573866D01*
X27690476Y-85573866D02*
X27690476Y-85335771D01*
X27690476Y-85335771D02*
X27738095Y-85145295D01*
X27738095Y-85145295D02*
X27785714Y-85050057D01*
X27785714Y-85050057D02*
X27833333Y-85002438D01*
X27833333Y-85002438D02*
X27928571Y-84954819D01*
D10*
X57666666Y-42433609D02*
X57333333Y-42433609D01*
X57333333Y-42957419D02*
X57333333Y-41957419D01*
X57333333Y-41957419D02*
X57809523Y-41957419D01*
X58142857Y-42052657D02*
X58190476Y-42005038D01*
X58190476Y-42005038D02*
X58285714Y-41957419D01*
X58285714Y-41957419D02*
X58523809Y-41957419D01*
X58523809Y-41957419D02*
X58619047Y-42005038D01*
X58619047Y-42005038D02*
X58666666Y-42052657D01*
X58666666Y-42052657D02*
X58714285Y-42147895D01*
X58714285Y-42147895D02*
X58714285Y-42243133D01*
X58714285Y-42243133D02*
X58666666Y-42385990D01*
X58666666Y-42385990D02*
X58095238Y-42957419D01*
X58095238Y-42957419D02*
X58714285Y-42957419D01*
D15*
X41557142Y-35159580D02*
X41509523Y-35207200D01*
X41509523Y-35207200D02*
X41366666Y-35254819D01*
X41366666Y-35254819D02*
X41271428Y-35254819D01*
X41271428Y-35254819D02*
X41128571Y-35207200D01*
X41128571Y-35207200D02*
X41033333Y-35111961D01*
X41033333Y-35111961D02*
X40985714Y-35016723D01*
X40985714Y-35016723D02*
X40938095Y-34826247D01*
X40938095Y-34826247D02*
X40938095Y-34683390D01*
X40938095Y-34683390D02*
X40985714Y-34492914D01*
X40985714Y-34492914D02*
X41033333Y-34397676D01*
X41033333Y-34397676D02*
X41128571Y-34302438D01*
X41128571Y-34302438D02*
X41271428Y-34254819D01*
X41271428Y-34254819D02*
X41366666Y-34254819D01*
X41366666Y-34254819D02*
X41509523Y-34302438D01*
X41509523Y-34302438D02*
X41557142Y-34350057D01*
X42509523Y-35254819D02*
X41938095Y-35254819D01*
X42223809Y-35254819D02*
X42223809Y-34254819D01*
X42223809Y-34254819D02*
X42128571Y-34397676D01*
X42128571Y-34397676D02*
X42033333Y-34492914D01*
X42033333Y-34492914D02*
X41938095Y-34540533D01*
X42842857Y-34254819D02*
X43461904Y-34254819D01*
X43461904Y-34254819D02*
X43128571Y-34635771D01*
X43128571Y-34635771D02*
X43271428Y-34635771D01*
X43271428Y-34635771D02*
X43366666Y-34683390D01*
X43366666Y-34683390D02*
X43414285Y-34731009D01*
X43414285Y-34731009D02*
X43461904Y-34826247D01*
X43461904Y-34826247D02*
X43461904Y-35064342D01*
X43461904Y-35064342D02*
X43414285Y-35159580D01*
X43414285Y-35159580D02*
X43366666Y-35207200D01*
X43366666Y-35207200D02*
X43271428Y-35254819D01*
X43271428Y-35254819D02*
X42985714Y-35254819D01*
X42985714Y-35254819D02*
X42890476Y-35207200D01*
X42890476Y-35207200D02*
X42842857Y-35159580D01*
D10*
X48666666Y-42433609D02*
X48333333Y-42433609D01*
X48333333Y-42957419D02*
X48333333Y-41957419D01*
X48333333Y-41957419D02*
X48809523Y-41957419D01*
X49714285Y-42957419D02*
X49142857Y-42957419D01*
X49428571Y-42957419D02*
X49428571Y-41957419D01*
X49428571Y-41957419D02*
X49333333Y-42100276D01*
X49333333Y-42100276D02*
X49238095Y-42195514D01*
X49238095Y-42195514D02*
X49142857Y-42243133D01*
D15*
X40696905Y-73804819D02*
X40696905Y-72804819D01*
X40696905Y-72804819D02*
X40935000Y-72804819D01*
X40935000Y-72804819D02*
X41077857Y-72852438D01*
X41077857Y-72852438D02*
X41173095Y-72947676D01*
X41173095Y-72947676D02*
X41220714Y-73042914D01*
X41220714Y-73042914D02*
X41268333Y-73233390D01*
X41268333Y-73233390D02*
X41268333Y-73376247D01*
X41268333Y-73376247D02*
X41220714Y-73566723D01*
X41220714Y-73566723D02*
X41173095Y-73661961D01*
X41173095Y-73661961D02*
X41077857Y-73757200D01*
X41077857Y-73757200D02*
X40935000Y-73804819D01*
X40935000Y-73804819D02*
X40696905Y-73804819D01*
X41601667Y-72804819D02*
X42220714Y-72804819D01*
X42220714Y-72804819D02*
X41887381Y-73185771D01*
X41887381Y-73185771D02*
X42030238Y-73185771D01*
X42030238Y-73185771D02*
X42125476Y-73233390D01*
X42125476Y-73233390D02*
X42173095Y-73281009D01*
X42173095Y-73281009D02*
X42220714Y-73376247D01*
X42220714Y-73376247D02*
X42220714Y-73614342D01*
X42220714Y-73614342D02*
X42173095Y-73709580D01*
X42173095Y-73709580D02*
X42125476Y-73757200D01*
X42125476Y-73757200D02*
X42030238Y-73804819D01*
X42030238Y-73804819D02*
X41744524Y-73804819D01*
X41744524Y-73804819D02*
X41649286Y-73757200D01*
X41649286Y-73757200D02*
X41601667Y-73709580D01*
X57961905Y-73854819D02*
X57961905Y-72854819D01*
X57961905Y-72854819D02*
X58200000Y-72854819D01*
X58200000Y-72854819D02*
X58342857Y-72902438D01*
X58342857Y-72902438D02*
X58438095Y-72997676D01*
X58438095Y-72997676D02*
X58485714Y-73092914D01*
X58485714Y-73092914D02*
X58533333Y-73283390D01*
X58533333Y-73283390D02*
X58533333Y-73426247D01*
X58533333Y-73426247D02*
X58485714Y-73616723D01*
X58485714Y-73616723D02*
X58438095Y-73711961D01*
X58438095Y-73711961D02*
X58342857Y-73807200D01*
X58342857Y-73807200D02*
X58200000Y-73854819D01*
X58200000Y-73854819D02*
X57961905Y-73854819D01*
X59390476Y-73188152D02*
X59390476Y-73854819D01*
X59152381Y-72807200D02*
X58914286Y-73521485D01*
X58914286Y-73521485D02*
X59533333Y-73521485D01*
X71261905Y-46154819D02*
X71261905Y-45154819D01*
X71261905Y-45154819D02*
X71500000Y-45154819D01*
X71500000Y-45154819D02*
X71642857Y-45202438D01*
X71642857Y-45202438D02*
X71738095Y-45297676D01*
X71738095Y-45297676D02*
X71785714Y-45392914D01*
X71785714Y-45392914D02*
X71833333Y-45583390D01*
X71833333Y-45583390D02*
X71833333Y-45726247D01*
X71833333Y-45726247D02*
X71785714Y-45916723D01*
X71785714Y-45916723D02*
X71738095Y-46011961D01*
X71738095Y-46011961D02*
X71642857Y-46107200D01*
X71642857Y-46107200D02*
X71500000Y-46154819D01*
X71500000Y-46154819D02*
X71261905Y-46154819D01*
X72690476Y-45154819D02*
X72500000Y-45154819D01*
X72500000Y-45154819D02*
X72404762Y-45202438D01*
X72404762Y-45202438D02*
X72357143Y-45250057D01*
X72357143Y-45250057D02*
X72261905Y-45392914D01*
X72261905Y-45392914D02*
X72214286Y-45583390D01*
X72214286Y-45583390D02*
X72214286Y-45964342D01*
X72214286Y-45964342D02*
X72261905Y-46059580D01*
X72261905Y-46059580D02*
X72309524Y-46107200D01*
X72309524Y-46107200D02*
X72404762Y-46154819D01*
X72404762Y-46154819D02*
X72595238Y-46154819D01*
X72595238Y-46154819D02*
X72690476Y-46107200D01*
X72690476Y-46107200D02*
X72738095Y-46059580D01*
X72738095Y-46059580D02*
X72785714Y-45964342D01*
X72785714Y-45964342D02*
X72785714Y-45726247D01*
X72785714Y-45726247D02*
X72738095Y-45631009D01*
X72738095Y-45631009D02*
X72690476Y-45583390D01*
X72690476Y-45583390D02*
X72595238Y-45535771D01*
X72595238Y-45535771D02*
X72404762Y-45535771D01*
X72404762Y-45535771D02*
X72309524Y-45583390D01*
X72309524Y-45583390D02*
X72261905Y-45631009D01*
X72261905Y-45631009D02*
X72214286Y-45726247D01*
X19066666Y-85454819D02*
X19066666Y-86169104D01*
X19066666Y-86169104D02*
X19019047Y-86311961D01*
X19019047Y-86311961D02*
X18923809Y-86407200D01*
X18923809Y-86407200D02*
X18780952Y-86454819D01*
X18780952Y-86454819D02*
X18685714Y-86454819D01*
X19971428Y-85788152D02*
X19971428Y-86454819D01*
X19733333Y-85407200D02*
X19495238Y-86121485D01*
X19495238Y-86121485D02*
X20114285Y-86121485D01*
X69666667Y-73013600D02*
X69809524Y-73061219D01*
X69809524Y-73061219D02*
X70047619Y-73061219D01*
X70047619Y-73061219D02*
X70142857Y-73013600D01*
X70142857Y-73013600D02*
X70190476Y-72965980D01*
X70190476Y-72965980D02*
X70238095Y-72870742D01*
X70238095Y-72870742D02*
X70238095Y-72775504D01*
X70238095Y-72775504D02*
X70190476Y-72680266D01*
X70190476Y-72680266D02*
X70142857Y-72632647D01*
X70142857Y-72632647D02*
X70047619Y-72585028D01*
X70047619Y-72585028D02*
X69857143Y-72537409D01*
X69857143Y-72537409D02*
X69761905Y-72489790D01*
X69761905Y-72489790D02*
X69714286Y-72442171D01*
X69714286Y-72442171D02*
X69666667Y-72346933D01*
X69666667Y-72346933D02*
X69666667Y-72251695D01*
X69666667Y-72251695D02*
X69714286Y-72156457D01*
X69714286Y-72156457D02*
X69761905Y-72108838D01*
X69761905Y-72108838D02*
X69857143Y-72061219D01*
X69857143Y-72061219D02*
X70095238Y-72061219D01*
X70095238Y-72061219D02*
X70238095Y-72108838D01*
X70571429Y-72061219D02*
X70809524Y-73061219D01*
X70809524Y-73061219D02*
X71000000Y-72346933D01*
X71000000Y-72346933D02*
X71190476Y-73061219D01*
X71190476Y-73061219D02*
X71428572Y-72061219D01*
X72333333Y-73061219D02*
X71761905Y-73061219D01*
X72047619Y-73061219D02*
X72047619Y-72061219D01*
X72047619Y-72061219D02*
X71952381Y-72204076D01*
X71952381Y-72204076D02*
X71857143Y-72299314D01*
X71857143Y-72299314D02*
X71761905Y-72346933D01*
X50991666Y-31948069D02*
X50991666Y-32662354D01*
X50991666Y-32662354D02*
X50944047Y-32805211D01*
X50944047Y-32805211D02*
X50848809Y-32900450D01*
X50848809Y-32900450D02*
X50705952Y-32948069D01*
X50705952Y-32948069D02*
X50610714Y-32948069D01*
X51991666Y-32948069D02*
X51420238Y-32948069D01*
X51705952Y-32948069D02*
X51705952Y-31948069D01*
X51705952Y-31948069D02*
X51610714Y-32090926D01*
X51610714Y-32090926D02*
X51515476Y-32186164D01*
X51515476Y-32186164D02*
X51420238Y-32233783D01*
X59333333Y-31859580D02*
X59285714Y-31907200D01*
X59285714Y-31907200D02*
X59142857Y-31954819D01*
X59142857Y-31954819D02*
X59047619Y-31954819D01*
X59047619Y-31954819D02*
X58904762Y-31907200D01*
X58904762Y-31907200D02*
X58809524Y-31811961D01*
X58809524Y-31811961D02*
X58761905Y-31716723D01*
X58761905Y-31716723D02*
X58714286Y-31526247D01*
X58714286Y-31526247D02*
X58714286Y-31383390D01*
X58714286Y-31383390D02*
X58761905Y-31192914D01*
X58761905Y-31192914D02*
X58809524Y-31097676D01*
X58809524Y-31097676D02*
X58904762Y-31002438D01*
X58904762Y-31002438D02*
X59047619Y-30954819D01*
X59047619Y-30954819D02*
X59142857Y-30954819D01*
X59142857Y-30954819D02*
X59285714Y-31002438D01*
X59285714Y-31002438D02*
X59333333Y-31050057D01*
X59714286Y-31050057D02*
X59761905Y-31002438D01*
X59761905Y-31002438D02*
X59857143Y-30954819D01*
X59857143Y-30954819D02*
X60095238Y-30954819D01*
X60095238Y-30954819D02*
X60190476Y-31002438D01*
X60190476Y-31002438D02*
X60238095Y-31050057D01*
X60238095Y-31050057D02*
X60285714Y-31145295D01*
X60285714Y-31145295D02*
X60285714Y-31240533D01*
X60285714Y-31240533D02*
X60238095Y-31383390D01*
X60238095Y-31383390D02*
X59666667Y-31954819D01*
X59666667Y-31954819D02*
X60285714Y-31954819D01*
X33859580Y-79966666D02*
X33907200Y-80014285D01*
X33907200Y-80014285D02*
X33954819Y-80157142D01*
X33954819Y-80157142D02*
X33954819Y-80252380D01*
X33954819Y-80252380D02*
X33907200Y-80395237D01*
X33907200Y-80395237D02*
X33811961Y-80490475D01*
X33811961Y-80490475D02*
X33716723Y-80538094D01*
X33716723Y-80538094D02*
X33526247Y-80585713D01*
X33526247Y-80585713D02*
X33383390Y-80585713D01*
X33383390Y-80585713D02*
X33192914Y-80538094D01*
X33192914Y-80538094D02*
X33097676Y-80490475D01*
X33097676Y-80490475D02*
X33002438Y-80395237D01*
X33002438Y-80395237D02*
X32954819Y-80252380D01*
X32954819Y-80252380D02*
X32954819Y-80157142D01*
X32954819Y-80157142D02*
X33002438Y-80014285D01*
X33002438Y-80014285D02*
X33050057Y-79966666D01*
X32954819Y-79109523D02*
X32954819Y-79299999D01*
X32954819Y-79299999D02*
X33002438Y-79395237D01*
X33002438Y-79395237D02*
X33050057Y-79442856D01*
X33050057Y-79442856D02*
X33192914Y-79538094D01*
X33192914Y-79538094D02*
X33383390Y-79585713D01*
X33383390Y-79585713D02*
X33764342Y-79585713D01*
X33764342Y-79585713D02*
X33859580Y-79538094D01*
X33859580Y-79538094D02*
X33907200Y-79490475D01*
X33907200Y-79490475D02*
X33954819Y-79395237D01*
X33954819Y-79395237D02*
X33954819Y-79204761D01*
X33954819Y-79204761D02*
X33907200Y-79109523D01*
X33907200Y-79109523D02*
X33859580Y-79061904D01*
X33859580Y-79061904D02*
X33764342Y-79014285D01*
X33764342Y-79014285D02*
X33526247Y-79014285D01*
X33526247Y-79014285D02*
X33431009Y-79061904D01*
X33431009Y-79061904D02*
X33383390Y-79109523D01*
X33383390Y-79109523D02*
X33335771Y-79204761D01*
X33335771Y-79204761D02*
X33335771Y-79395237D01*
X33335771Y-79395237D02*
X33383390Y-79490475D01*
X33383390Y-79490475D02*
X33431009Y-79538094D01*
X33431009Y-79538094D02*
X33526247Y-79585713D01*
X22738095Y-17454819D02*
X22738095Y-16454819D01*
X22738095Y-16931009D02*
X23309523Y-16931009D01*
X23309523Y-17454819D02*
X23309523Y-16454819D01*
X23738095Y-16550057D02*
X23785714Y-16502438D01*
X23785714Y-16502438D02*
X23880952Y-16454819D01*
X23880952Y-16454819D02*
X24119047Y-16454819D01*
X24119047Y-16454819D02*
X24214285Y-16502438D01*
X24214285Y-16502438D02*
X24261904Y-16550057D01*
X24261904Y-16550057D02*
X24309523Y-16645295D01*
X24309523Y-16645295D02*
X24309523Y-16740533D01*
X24309523Y-16740533D02*
X24261904Y-16883390D01*
X24261904Y-16883390D02*
X23690476Y-17454819D01*
X23690476Y-17454819D02*
X24309523Y-17454819D01*
X63057142Y-73504819D02*
X62723809Y-73028628D01*
X62485714Y-73504819D02*
X62485714Y-72504819D01*
X62485714Y-72504819D02*
X62866666Y-72504819D01*
X62866666Y-72504819D02*
X62961904Y-72552438D01*
X62961904Y-72552438D02*
X63009523Y-72600057D01*
X63009523Y-72600057D02*
X63057142Y-72695295D01*
X63057142Y-72695295D02*
X63057142Y-72838152D01*
X63057142Y-72838152D02*
X63009523Y-72933390D01*
X63009523Y-72933390D02*
X62961904Y-72981009D01*
X62961904Y-72981009D02*
X62866666Y-73028628D01*
X62866666Y-73028628D02*
X62485714Y-73028628D01*
X64009523Y-73504819D02*
X63438095Y-73504819D01*
X63723809Y-73504819D02*
X63723809Y-72504819D01*
X63723809Y-72504819D02*
X63628571Y-72647676D01*
X63628571Y-72647676D02*
X63533333Y-72742914D01*
X63533333Y-72742914D02*
X63438095Y-72790533D01*
X64914285Y-72504819D02*
X64438095Y-72504819D01*
X64438095Y-72504819D02*
X64390476Y-72981009D01*
X64390476Y-72981009D02*
X64438095Y-72933390D01*
X64438095Y-72933390D02*
X64533333Y-72885771D01*
X64533333Y-72885771D02*
X64771428Y-72885771D01*
X64771428Y-72885771D02*
X64866666Y-72933390D01*
X64866666Y-72933390D02*
X64914285Y-72981009D01*
X64914285Y-72981009D02*
X64961904Y-73076247D01*
X64961904Y-73076247D02*
X64961904Y-73314342D01*
X64961904Y-73314342D02*
X64914285Y-73409580D01*
X64914285Y-73409580D02*
X64866666Y-73457200D01*
X64866666Y-73457200D02*
X64771428Y-73504819D01*
X64771428Y-73504819D02*
X64533333Y-73504819D01*
X64533333Y-73504819D02*
X64438095Y-73457200D01*
X64438095Y-73457200D02*
X64390476Y-73409580D01*
X39738095Y-84954819D02*
X39738095Y-85764342D01*
X39738095Y-85764342D02*
X39785714Y-85859580D01*
X39785714Y-85859580D02*
X39833333Y-85907200D01*
X39833333Y-85907200D02*
X39928571Y-85954819D01*
X39928571Y-85954819D02*
X40119047Y-85954819D01*
X40119047Y-85954819D02*
X40214285Y-85907200D01*
X40214285Y-85907200D02*
X40261904Y-85859580D01*
X40261904Y-85859580D02*
X40309523Y-85764342D01*
X40309523Y-85764342D02*
X40309523Y-84954819D01*
X41309523Y-85954819D02*
X40738095Y-85954819D01*
X41023809Y-85954819D02*
X41023809Y-84954819D01*
X41023809Y-84954819D02*
X40928571Y-85097676D01*
X40928571Y-85097676D02*
X40833333Y-85192914D01*
X40833333Y-85192914D02*
X40738095Y-85240533D01*
X51757142Y-67054819D02*
X51423809Y-66578628D01*
X51185714Y-67054819D02*
X51185714Y-66054819D01*
X51185714Y-66054819D02*
X51566666Y-66054819D01*
X51566666Y-66054819D02*
X51661904Y-66102438D01*
X51661904Y-66102438D02*
X51709523Y-66150057D01*
X51709523Y-66150057D02*
X51757142Y-66245295D01*
X51757142Y-66245295D02*
X51757142Y-66388152D01*
X51757142Y-66388152D02*
X51709523Y-66483390D01*
X51709523Y-66483390D02*
X51661904Y-66531009D01*
X51661904Y-66531009D02*
X51566666Y-66578628D01*
X51566666Y-66578628D02*
X51185714Y-66578628D01*
X52138095Y-66150057D02*
X52185714Y-66102438D01*
X52185714Y-66102438D02*
X52280952Y-66054819D01*
X52280952Y-66054819D02*
X52519047Y-66054819D01*
X52519047Y-66054819D02*
X52614285Y-66102438D01*
X52614285Y-66102438D02*
X52661904Y-66150057D01*
X52661904Y-66150057D02*
X52709523Y-66245295D01*
X52709523Y-66245295D02*
X52709523Y-66340533D01*
X52709523Y-66340533D02*
X52661904Y-66483390D01*
X52661904Y-66483390D02*
X52090476Y-67054819D01*
X52090476Y-67054819D02*
X52709523Y-67054819D01*
X53042857Y-66054819D02*
X53661904Y-66054819D01*
X53661904Y-66054819D02*
X53328571Y-66435771D01*
X53328571Y-66435771D02*
X53471428Y-66435771D01*
X53471428Y-66435771D02*
X53566666Y-66483390D01*
X53566666Y-66483390D02*
X53614285Y-66531009D01*
X53614285Y-66531009D02*
X53661904Y-66626247D01*
X53661904Y-66626247D02*
X53661904Y-66864342D01*
X53661904Y-66864342D02*
X53614285Y-66959580D01*
X53614285Y-66959580D02*
X53566666Y-67007200D01*
X53566666Y-67007200D02*
X53471428Y-67054819D01*
X53471428Y-67054819D02*
X53185714Y-67054819D01*
X53185714Y-67054819D02*
X53090476Y-67007200D01*
X53090476Y-67007200D02*
X53042857Y-66959580D01*
X40966666Y-16254819D02*
X40966666Y-16969104D01*
X40966666Y-16969104D02*
X40919047Y-17111961D01*
X40919047Y-17111961D02*
X40823809Y-17207200D01*
X40823809Y-17207200D02*
X40680952Y-17254819D01*
X40680952Y-17254819D02*
X40585714Y-17254819D01*
X41919047Y-16254819D02*
X41442857Y-16254819D01*
X41442857Y-16254819D02*
X41395238Y-16731009D01*
X41395238Y-16731009D02*
X41442857Y-16683390D01*
X41442857Y-16683390D02*
X41538095Y-16635771D01*
X41538095Y-16635771D02*
X41776190Y-16635771D01*
X41776190Y-16635771D02*
X41871428Y-16683390D01*
X41871428Y-16683390D02*
X41919047Y-16731009D01*
X41919047Y-16731009D02*
X41966666Y-16826247D01*
X41966666Y-16826247D02*
X41966666Y-17064342D01*
X41966666Y-17064342D02*
X41919047Y-17159580D01*
X41919047Y-17159580D02*
X41871428Y-17207200D01*
X41871428Y-17207200D02*
X41776190Y-17254819D01*
X41776190Y-17254819D02*
X41538095Y-17254819D01*
X41538095Y-17254819D02*
X41442857Y-17207200D01*
X41442857Y-17207200D02*
X41395238Y-17159580D01*
X63057142Y-68754819D02*
X62723809Y-68278628D01*
X62485714Y-68754819D02*
X62485714Y-67754819D01*
X62485714Y-67754819D02*
X62866666Y-67754819D01*
X62866666Y-67754819D02*
X62961904Y-67802438D01*
X62961904Y-67802438D02*
X63009523Y-67850057D01*
X63009523Y-67850057D02*
X63057142Y-67945295D01*
X63057142Y-67945295D02*
X63057142Y-68088152D01*
X63057142Y-68088152D02*
X63009523Y-68183390D01*
X63009523Y-68183390D02*
X62961904Y-68231009D01*
X62961904Y-68231009D02*
X62866666Y-68278628D01*
X62866666Y-68278628D02*
X62485714Y-68278628D01*
X64009523Y-68754819D02*
X63438095Y-68754819D01*
X63723809Y-68754819D02*
X63723809Y-67754819D01*
X63723809Y-67754819D02*
X63628571Y-67897676D01*
X63628571Y-67897676D02*
X63533333Y-67992914D01*
X63533333Y-67992914D02*
X63438095Y-68040533D01*
X64866666Y-67754819D02*
X64676190Y-67754819D01*
X64676190Y-67754819D02*
X64580952Y-67802438D01*
X64580952Y-67802438D02*
X64533333Y-67850057D01*
X64533333Y-67850057D02*
X64438095Y-67992914D01*
X64438095Y-67992914D02*
X64390476Y-68183390D01*
X64390476Y-68183390D02*
X64390476Y-68564342D01*
X64390476Y-68564342D02*
X64438095Y-68659580D01*
X64438095Y-68659580D02*
X64485714Y-68707200D01*
X64485714Y-68707200D02*
X64580952Y-68754819D01*
X64580952Y-68754819D02*
X64771428Y-68754819D01*
X64771428Y-68754819D02*
X64866666Y-68707200D01*
X64866666Y-68707200D02*
X64914285Y-68659580D01*
X64914285Y-68659580D02*
X64961904Y-68564342D01*
X64961904Y-68564342D02*
X64961904Y-68326247D01*
X64961904Y-68326247D02*
X64914285Y-68231009D01*
X64914285Y-68231009D02*
X64866666Y-68183390D01*
X64866666Y-68183390D02*
X64771428Y-68135771D01*
X64771428Y-68135771D02*
X64580952Y-68135771D01*
X64580952Y-68135771D02*
X64485714Y-68183390D01*
X64485714Y-68183390D02*
X64438095Y-68231009D01*
X64438095Y-68231009D02*
X64390476Y-68326247D01*
X42654819Y-40866666D02*
X42178628Y-41199999D01*
X42654819Y-41438094D02*
X41654819Y-41438094D01*
X41654819Y-41438094D02*
X41654819Y-41057142D01*
X41654819Y-41057142D02*
X41702438Y-40961904D01*
X41702438Y-40961904D02*
X41750057Y-40914285D01*
X41750057Y-40914285D02*
X41845295Y-40866666D01*
X41845295Y-40866666D02*
X41988152Y-40866666D01*
X41988152Y-40866666D02*
X42083390Y-40914285D01*
X42083390Y-40914285D02*
X42131009Y-40961904D01*
X42131009Y-40961904D02*
X42178628Y-41057142D01*
X42178628Y-41057142D02*
X42178628Y-41438094D01*
X41750057Y-40485713D02*
X41702438Y-40438094D01*
X41702438Y-40438094D02*
X41654819Y-40342856D01*
X41654819Y-40342856D02*
X41654819Y-40104761D01*
X41654819Y-40104761D02*
X41702438Y-40009523D01*
X41702438Y-40009523D02*
X41750057Y-39961904D01*
X41750057Y-39961904D02*
X41845295Y-39914285D01*
X41845295Y-39914285D02*
X41940533Y-39914285D01*
X41940533Y-39914285D02*
X42083390Y-39961904D01*
X42083390Y-39961904D02*
X42654819Y-40533332D01*
X42654819Y-40533332D02*
X42654819Y-39914285D01*
X41233333Y-70504819D02*
X40900000Y-70028628D01*
X40661905Y-70504819D02*
X40661905Y-69504819D01*
X40661905Y-69504819D02*
X41042857Y-69504819D01*
X41042857Y-69504819D02*
X41138095Y-69552438D01*
X41138095Y-69552438D02*
X41185714Y-69600057D01*
X41185714Y-69600057D02*
X41233333Y-69695295D01*
X41233333Y-69695295D02*
X41233333Y-69838152D01*
X41233333Y-69838152D02*
X41185714Y-69933390D01*
X41185714Y-69933390D02*
X41138095Y-69981009D01*
X41138095Y-69981009D02*
X41042857Y-70028628D01*
X41042857Y-70028628D02*
X40661905Y-70028628D01*
X42138095Y-69504819D02*
X41661905Y-69504819D01*
X41661905Y-69504819D02*
X41614286Y-69981009D01*
X41614286Y-69981009D02*
X41661905Y-69933390D01*
X41661905Y-69933390D02*
X41757143Y-69885771D01*
X41757143Y-69885771D02*
X41995238Y-69885771D01*
X41995238Y-69885771D02*
X42090476Y-69933390D01*
X42090476Y-69933390D02*
X42138095Y-69981009D01*
X42138095Y-69981009D02*
X42185714Y-70076247D01*
X42185714Y-70076247D02*
X42185714Y-70314342D01*
X42185714Y-70314342D02*
X42138095Y-70409580D01*
X42138095Y-70409580D02*
X42090476Y-70457200D01*
X42090476Y-70457200D02*
X41995238Y-70504819D01*
X41995238Y-70504819D02*
X41757143Y-70504819D01*
X41757143Y-70504819D02*
X41661905Y-70457200D01*
X41661905Y-70457200D02*
X41614286Y-70409580D01*
X29366666Y-69431009D02*
X29033333Y-69431009D01*
X29033333Y-69954819D02*
X29033333Y-68954819D01*
X29033333Y-68954819D02*
X29509523Y-68954819D01*
X29795238Y-68954819D02*
X30414285Y-68954819D01*
X30414285Y-68954819D02*
X30080952Y-69335771D01*
X30080952Y-69335771D02*
X30223809Y-69335771D01*
X30223809Y-69335771D02*
X30319047Y-69383390D01*
X30319047Y-69383390D02*
X30366666Y-69431009D01*
X30366666Y-69431009D02*
X30414285Y-69526247D01*
X30414285Y-69526247D02*
X30414285Y-69764342D01*
X30414285Y-69764342D02*
X30366666Y-69859580D01*
X30366666Y-69859580D02*
X30319047Y-69907200D01*
X30319047Y-69907200D02*
X30223809Y-69954819D01*
X30223809Y-69954819D02*
X29938095Y-69954819D01*
X29938095Y-69954819D02*
X29842857Y-69907200D01*
X29842857Y-69907200D02*
X29795238Y-69859580D01*
D16*
%TO.C,R1*%
X24272936Y-36465000D02*
X24727064Y-36465000D01*
X24272936Y-37935000D02*
X24727064Y-37935000D01*
%TO.C,C12*%
X41465000Y-27738748D02*
X41465000Y-28261252D01*
X42935000Y-27738748D02*
X42935000Y-28261252D01*
D17*
%TO.C,U2*%
X50369200Y-78879100D02*
X50369200Y-83120900D01*
X60630800Y-83120900D02*
X60630800Y-78879100D01*
D18*
G36*
X58865500Y-77291600D02*
G01*
X58484500Y-77291600D01*
X58484500Y-77037600D01*
X58865500Y-77037600D01*
X58865500Y-77291600D01*
G37*
D16*
%TO.C,R17*%
X63927064Y-63865000D02*
X63472936Y-63865000D01*
X63927064Y-65335000D02*
X63472936Y-65335000D01*
D17*
%TO.C,SW4*%
X67825000Y-54518800D02*
X67825000Y-55862460D01*
X67825000Y-57137540D02*
X67825000Y-58481200D01*
X67825000Y-58481200D02*
X74175000Y-58481200D01*
X74175000Y-54518800D02*
X67825000Y-54518800D01*
X74175000Y-55862460D02*
X74175000Y-54518800D01*
X74175000Y-58481200D02*
X74175000Y-57137540D01*
%TO.C,SW3*%
X67825000Y-59887600D02*
X67825000Y-61231260D01*
X67825000Y-62506340D02*
X67825000Y-63850000D01*
X67825000Y-63850000D02*
X74175000Y-63850000D01*
X74175000Y-59887600D02*
X67825000Y-59887600D01*
X74175000Y-61231260D02*
X74175000Y-59887600D01*
X74175000Y-63850000D02*
X74175000Y-62506340D01*
D16*
%TO.C,U4*%
X69725000Y-93500000D02*
X69725000Y-94750000D01*
X69725000Y-94750000D02*
X70975000Y-94750000D01*
X70015000Y-76840000D02*
X70015000Y-94460000D01*
X70015000Y-94460000D02*
X75985000Y-94460000D01*
X70025000Y-76850000D02*
X70025000Y-78650000D01*
X70025000Y-78650000D02*
X70775000Y-78650000D01*
X70025000Y-80150000D02*
X70025000Y-91150000D01*
X70025000Y-91150000D02*
X70775000Y-91150000D01*
X70025000Y-92650000D02*
X70025000Y-94450000D01*
X70025000Y-94450000D02*
X70775000Y-94450000D01*
X70775000Y-76850000D02*
X70025000Y-76850000D01*
X70775000Y-78650000D02*
X70775000Y-76850000D01*
X70775000Y-80150000D02*
X70025000Y-80150000D01*
X70775000Y-91150000D02*
X70775000Y-80150000D01*
X70775000Y-92650000D02*
X70025000Y-92650000D01*
X70775000Y-94450000D02*
X70775000Y-92650000D01*
X72275000Y-76850000D02*
X72275000Y-77600000D01*
X72275000Y-77600000D02*
X75225000Y-77600000D01*
X72275000Y-93700000D02*
X75225000Y-93700000D01*
X72275000Y-94450000D02*
X72275000Y-93700000D01*
X75225000Y-77600000D02*
X75225000Y-85650000D01*
X75225000Y-93700000D02*
X75225000Y-85650000D01*
X75985000Y-76840000D02*
X70015000Y-76840000D01*
X75985000Y-94460000D02*
X75985000Y-76840000D01*
%TO.C,R8*%
X41627064Y-70965000D02*
X41172936Y-70965000D01*
X41627064Y-72435000D02*
X41172936Y-72435000D01*
%TO.C,U7*%
D10*
X25800000Y-69300000D02*
X18550000Y-69300000D01*
X18550000Y-84800000D01*
X25800000Y-84800000D01*
X25800000Y-69300000D01*
D16*
%TO.C,R4*%
X26365000Y-47627064D02*
X26365000Y-47172936D01*
X27835000Y-47627064D02*
X27835000Y-47172936D01*
%TO.C,R19*%
X67765000Y-44727064D02*
X67765000Y-44272936D01*
X69235000Y-44727064D02*
X69235000Y-44272936D01*
D19*
%TO.C,U3*%
X18220000Y-17025000D02*
X29289000Y-17025000D01*
X18220000Y-17025000D02*
X46730000Y-17025000D01*
X18220000Y-67975000D02*
X18220000Y-17025000D01*
X18220000Y-67975000D02*
X18220000Y-17025000D01*
X18220000Y-67975000D02*
X23590000Y-67975000D01*
X29289000Y-17025000D02*
X36000000Y-17025000D01*
X36000000Y-17025000D02*
X46730000Y-17025000D01*
X41280000Y-67975000D02*
X46730000Y-67975000D01*
X46730000Y-17025000D02*
X46730000Y-67975000D01*
X46730000Y-17025000D02*
X46730000Y-67975000D01*
X46730000Y-67975000D02*
X18220000Y-67975000D01*
D20*
X17750000Y-26985000D02*
G75*
G02*
X17550000Y-26985000I-100000J0D01*
G01*
X17550000Y-26985000D02*
G75*
G02*
X17750000Y-26985000I100000J0D01*
G01*
D19*
%TO.C,J2*%
X43850000Y-101250000D02*
X43850000Y-103750000D01*
X43850000Y-101250000D02*
X57150000Y-101250000D01*
X43850000Y-103750000D02*
X45550000Y-103750000D01*
X45550000Y-103750000D02*
X45550000Y-105400000D01*
X45550000Y-105400000D02*
X46230000Y-105400000D01*
X46230000Y-105400000D02*
X46230000Y-111400000D01*
X48000000Y-95750000D02*
X48000000Y-94750000D01*
X48500000Y-95250000D02*
X47500000Y-95250000D01*
X53500000Y-95250000D02*
X52500000Y-95250000D01*
X54770000Y-105400000D02*
X54770000Y-111400000D01*
X54770000Y-111400000D02*
X46230000Y-111400000D01*
X55450000Y-103750000D02*
X55450000Y-105400000D01*
X55450000Y-105400000D02*
X54770000Y-105400000D01*
X57150000Y-101250000D02*
X57150000Y-103750000D01*
X57150000Y-103750000D02*
X55450000Y-103750000D01*
D16*
%TO.C,D2*%
X46835000Y-75960000D02*
X49695000Y-75960000D01*
X49695000Y-74040000D02*
X46835000Y-74040000D01*
X49695000Y-75960000D02*
X49695000Y-74040000D01*
D19*
%TO.C,J6*%
X26217500Y-93380000D02*
X26217500Y-101505000D01*
X26217500Y-111380000D02*
X26217500Y-105495000D01*
X26217500Y-111380000D02*
X41457500Y-111380000D01*
X41457500Y-93380000D02*
X26217500Y-93380000D01*
X41457500Y-101505000D02*
X41457500Y-93380000D01*
X41457500Y-111380000D02*
X41457500Y-105495000D01*
D20*
X25567500Y-97150000D02*
G75*
G02*
X25367500Y-97150000I-100000J0D01*
G01*
X25367500Y-97150000D02*
G75*
G02*
X25567500Y-97150000I100000J0D01*
G01*
D16*
%TO.C,D1*%
X29040000Y-86140000D02*
X29040000Y-89000000D01*
X30960000Y-86140000D02*
X29040000Y-86140000D01*
X30960000Y-89000000D02*
X30960000Y-86140000D01*
%TO.C,R6*%
X52627064Y-70965000D02*
X52172936Y-70965000D01*
X52627064Y-72435000D02*
X52172936Y-72435000D01*
%TO.C,R18*%
X63927064Y-58565000D02*
X63472936Y-58565000D01*
X63927064Y-60035000D02*
X63472936Y-60035000D01*
%TO.C,C10*%
X29465000Y-76838748D02*
X29465000Y-77361252D01*
X30935000Y-76838748D02*
X30935000Y-77361252D01*
%TO.C,D5*%
X50540000Y-74040000D02*
X50540000Y-75960000D01*
X50540000Y-75960000D02*
X53400000Y-75960000D01*
X53400000Y-74040000D02*
X50540000Y-74040000D01*
%TO.C,R9*%
X48127064Y-70965000D02*
X47672936Y-70965000D01*
X48127064Y-72435000D02*
X47672936Y-72435000D01*
%TO.C,C1*%
X47786677Y-37099000D02*
X47786677Y-35901000D01*
X47826677Y-37362000D02*
X47826677Y-35638000D01*
X47866677Y-37562000D02*
X47866677Y-35438000D01*
X47906677Y-37730000D02*
X47906677Y-35270000D01*
X47946677Y-37878000D02*
X47946677Y-35122000D01*
X47986677Y-38010000D02*
X47986677Y-34990000D01*
X48026677Y-38130000D02*
X48026677Y-34870000D01*
X48066677Y-38242000D02*
X48066677Y-34758000D01*
X48106677Y-38346000D02*
X48106677Y-34654000D01*
X48146677Y-38444000D02*
X48146677Y-34556000D01*
X48186677Y-38537000D02*
X48186677Y-34463000D01*
X48226677Y-38625000D02*
X48226677Y-34375000D01*
X48266677Y-38709000D02*
X48266677Y-34291000D01*
X48306677Y-38789000D02*
X48306677Y-34211000D01*
X48346677Y-38865000D02*
X48346677Y-34135000D01*
X48386677Y-38939000D02*
X48386677Y-34061000D01*
X48426677Y-39010000D02*
X48426677Y-33990000D01*
X48466677Y-39079000D02*
X48466677Y-33921000D01*
X48506677Y-39145000D02*
X48506677Y-33855000D01*
X48546677Y-39209000D02*
X48546677Y-33791000D01*
X48586677Y-39270000D02*
X48586677Y-33730000D01*
X48626677Y-39330000D02*
X48626677Y-33670000D01*
X48666677Y-39389000D02*
X48666677Y-33611000D01*
X48706677Y-39445000D02*
X48706677Y-33555000D01*
X48746677Y-39500000D02*
X48746677Y-33500000D01*
X48786677Y-39554000D02*
X48786677Y-33446000D01*
X48826677Y-39606000D02*
X48826677Y-33394000D01*
X48866677Y-39656000D02*
X48866677Y-33344000D01*
X48906677Y-39706000D02*
X48906677Y-33294000D01*
X48946677Y-39754000D02*
X48946677Y-33246000D01*
X48986677Y-39801000D02*
X48986677Y-33199000D01*
X49026677Y-39847000D02*
X49026677Y-33153000D01*
X49066677Y-39892000D02*
X49066677Y-33108000D01*
X49106677Y-39936000D02*
X49106677Y-33064000D01*
X49146677Y-35259000D02*
X49146677Y-33022000D01*
X49146677Y-39978000D02*
X49146677Y-37741000D01*
X49186677Y-35259000D02*
X49186677Y-32980000D01*
X49186677Y-40020000D02*
X49186677Y-37741000D01*
X49226677Y-35259000D02*
X49226677Y-32939000D01*
X49226677Y-40061000D02*
X49226677Y-37741000D01*
X49266677Y-35259000D02*
X49266677Y-32899000D01*
X49266677Y-40101000D02*
X49266677Y-37741000D01*
X49306677Y-35259000D02*
X49306677Y-32860000D01*
X49306677Y-40140000D02*
X49306677Y-37741000D01*
X49346677Y-35259000D02*
X49346677Y-32821000D01*
X49346677Y-40179000D02*
X49346677Y-37741000D01*
X49386677Y-35259000D02*
X49386677Y-32784000D01*
X49386677Y-40216000D02*
X49386677Y-37741000D01*
X49426677Y-35259000D02*
X49426677Y-32747000D01*
X49426677Y-40253000D02*
X49426677Y-37741000D01*
X49466677Y-35259000D02*
X49466677Y-32711000D01*
X49466677Y-40289000D02*
X49466677Y-37741000D01*
X49506677Y-35259000D02*
X49506677Y-32676000D01*
X49506677Y-40324000D02*
X49506677Y-37741000D01*
X49546677Y-35259000D02*
X49546677Y-32642000D01*
X49546677Y-40358000D02*
X49546677Y-37741000D01*
X49586677Y-35259000D02*
X49586677Y-32608000D01*
X49586677Y-40392000D02*
X49586677Y-37741000D01*
X49626677Y-35259000D02*
X49626677Y-32575000D01*
X49626677Y-40425000D02*
X49626677Y-37741000D01*
X49666677Y-35259000D02*
X49666677Y-32543000D01*
X49666677Y-40457000D02*
X49666677Y-37741000D01*
X49706677Y-35259000D02*
X49706677Y-32511000D01*
X49706677Y-40489000D02*
X49706677Y-37741000D01*
X49746677Y-35259000D02*
X49746677Y-32480000D01*
X49746677Y-40520000D02*
X49746677Y-37741000D01*
X49786677Y-35259000D02*
X49786677Y-32450000D01*
X49786677Y-40550000D02*
X49786677Y-37741000D01*
X49826677Y-35259000D02*
X49826677Y-32420000D01*
X49826677Y-40580000D02*
X49826677Y-37741000D01*
X49866677Y-35259000D02*
X49866677Y-32390000D01*
X49866677Y-40610000D02*
X49866677Y-37741000D01*
X49906677Y-35259000D02*
X49906677Y-32362000D01*
X49906677Y-40638000D02*
X49906677Y-37741000D01*
X49946677Y-35259000D02*
X49946677Y-32334000D01*
X49946677Y-40666000D02*
X49946677Y-37741000D01*
X49986677Y-35259000D02*
X49986677Y-32306000D01*
X49986677Y-40694000D02*
X49986677Y-37741000D01*
X50026677Y-35259000D02*
X50026677Y-32279000D01*
X50026677Y-40721000D02*
X50026677Y-37741000D01*
X50066677Y-35259000D02*
X50066677Y-32253000D01*
X50066677Y-40747000D02*
X50066677Y-37741000D01*
X50106677Y-35259000D02*
X50106677Y-32227000D01*
X50106677Y-40773000D02*
X50106677Y-37741000D01*
X50146677Y-35259000D02*
X50146677Y-32202000D01*
X50146677Y-40798000D02*
X50146677Y-37741000D01*
X50186677Y-35259000D02*
X50186677Y-32177000D01*
X50186677Y-40823000D02*
X50186677Y-37741000D01*
X50226677Y-35259000D02*
X50226677Y-32153000D01*
X50226677Y-40847000D02*
X50226677Y-37741000D01*
X50266677Y-35259000D02*
X50266677Y-32129000D01*
X50266677Y-40871000D02*
X50266677Y-37741000D01*
X50306677Y-35259000D02*
X50306677Y-32105000D01*
X50306677Y-40895000D02*
X50306677Y-37741000D01*
X50346677Y-35259000D02*
X50346677Y-32083000D01*
X50346677Y-40917000D02*
X50346677Y-37741000D01*
X50386677Y-35259000D02*
X50386677Y-32060000D01*
X50386677Y-40940000D02*
X50386677Y-37741000D01*
X50426677Y-35259000D02*
X50426677Y-32038000D01*
X50426677Y-40962000D02*
X50426677Y-37741000D01*
X50466677Y-35259000D02*
X50466677Y-32017000D01*
X50466677Y-40983000D02*
X50466677Y-37741000D01*
X50506677Y-35259000D02*
X50506677Y-31996000D01*
X50506677Y-41004000D02*
X50506677Y-37741000D01*
X50546677Y-35259000D02*
X50546677Y-31975000D01*
X50546677Y-41025000D02*
X50546677Y-37741000D01*
X50586677Y-35259000D02*
X50586677Y-31955000D01*
X50586677Y-41045000D02*
X50586677Y-37741000D01*
X50626677Y-35259000D02*
X50626677Y-31936000D01*
X50626677Y-41064000D02*
X50626677Y-37741000D01*
X50666677Y-35259000D02*
X50666677Y-31916000D01*
X50666677Y-41084000D02*
X50666677Y-37741000D01*
X50706677Y-35259000D02*
X50706677Y-31897000D01*
X50706677Y-41103000D02*
X50706677Y-37741000D01*
X50746677Y-35259000D02*
X50746677Y-31879000D01*
X50746677Y-41121000D02*
X50746677Y-37741000D01*
X50786677Y-35259000D02*
X50786677Y-31861000D01*
X50786677Y-41139000D02*
X50786677Y-37741000D01*
X50826677Y-35259000D02*
X50826677Y-31843000D01*
X50826677Y-41157000D02*
X50826677Y-37741000D01*
X50866677Y-35259000D02*
X50866677Y-31826000D01*
X50866677Y-41174000D02*
X50866677Y-37741000D01*
X50906677Y-35259000D02*
X50906677Y-31810000D01*
X50906677Y-41190000D02*
X50906677Y-37741000D01*
X50946677Y-35259000D02*
X50946677Y-31793000D01*
X50946677Y-41207000D02*
X50946677Y-37741000D01*
X50986677Y-35259000D02*
X50986677Y-31777000D01*
X50986677Y-41223000D02*
X50986677Y-37741000D01*
X51026677Y-35259000D02*
X51026677Y-31762000D01*
X51026677Y-41238000D02*
X51026677Y-37741000D01*
X51066677Y-35259000D02*
X51066677Y-31746000D01*
X51066677Y-41254000D02*
X51066677Y-37741000D01*
X51106677Y-35259000D02*
X51106677Y-31732000D01*
X51106677Y-41268000D02*
X51106677Y-37741000D01*
X51146677Y-35259000D02*
X51146677Y-31717000D01*
X51146677Y-41283000D02*
X51146677Y-37741000D01*
X51186677Y-35259000D02*
X51186677Y-31703000D01*
X51186677Y-41297000D02*
X51186677Y-37741000D01*
X51226677Y-35259000D02*
X51226677Y-31689000D01*
X51226677Y-41311000D02*
X51226677Y-37741000D01*
X51266677Y-35259000D02*
X51266677Y-31676000D01*
X51266677Y-41324000D02*
X51266677Y-37741000D01*
X51306677Y-35259000D02*
X51306677Y-31663000D01*
X51306677Y-41337000D02*
X51306677Y-37741000D01*
X51346677Y-35259000D02*
X51346677Y-31650000D01*
X51346677Y-41350000D02*
X51346677Y-37741000D01*
X51386677Y-35259000D02*
X51386677Y-31638000D01*
X51386677Y-41362000D02*
X51386677Y-37741000D01*
X51426677Y-35259000D02*
X51426677Y-31626000D01*
X51426677Y-41374000D02*
X51426677Y-37741000D01*
X51466677Y-35259000D02*
X51466677Y-31615000D01*
X51466677Y-41385000D02*
X51466677Y-37741000D01*
X51506677Y-35259000D02*
X51506677Y-31603000D01*
X51506677Y-41397000D02*
X51506677Y-37741000D01*
X51546677Y-35259000D02*
X51546677Y-31593000D01*
X51546677Y-41407000D02*
X51546677Y-37741000D01*
X51586677Y-35259000D02*
X51586677Y-31582000D01*
X51586677Y-41418000D02*
X51586677Y-37741000D01*
X51626677Y-41428000D02*
X51626677Y-31572000D01*
X51666677Y-41438000D02*
X51666677Y-31562000D01*
X51706677Y-41447000D02*
X51706677Y-31553000D01*
X51746677Y-41456000D02*
X51746677Y-31544000D01*
X51786677Y-41465000D02*
X51786677Y-31535000D01*
X51826677Y-41474000D02*
X51826677Y-31526000D01*
X51866677Y-41482000D02*
X51866677Y-31518000D01*
X51906677Y-41490000D02*
X51906677Y-31510000D01*
X51946677Y-41497000D02*
X51946677Y-31503000D01*
X51986677Y-41504000D02*
X51986677Y-31496000D01*
X52026677Y-41511000D02*
X52026677Y-31489000D01*
X52066677Y-41518000D02*
X52066677Y-31482000D01*
X52106677Y-41524000D02*
X52106677Y-31476000D01*
X52146677Y-41530000D02*
X52146677Y-31470000D01*
X52187677Y-41535000D02*
X52187677Y-31465000D01*
X52227677Y-41540000D02*
X52227677Y-31460000D01*
X52267677Y-41545000D02*
X52267677Y-31455000D01*
X52307677Y-41550000D02*
X52307677Y-31450000D01*
X52347677Y-41554000D02*
X52347677Y-31446000D01*
X52387677Y-41558000D02*
X52387677Y-31442000D01*
X52427677Y-41562000D02*
X52427677Y-31438000D01*
X52467677Y-41565000D02*
X52467677Y-31435000D01*
X52507677Y-41568000D02*
X52507677Y-31432000D01*
X52547677Y-41570000D02*
X52547677Y-31430000D01*
X52587677Y-41573000D02*
X52587677Y-31427000D01*
X52627677Y-41575000D02*
X52627677Y-31425000D01*
X52667677Y-41577000D02*
X52667677Y-31423000D01*
X52707677Y-41578000D02*
X52707677Y-31422000D01*
X52747677Y-41579000D02*
X52747677Y-31421000D01*
X52787677Y-41580000D02*
X52787677Y-31420000D01*
X52827677Y-41580000D02*
X52827677Y-31420000D01*
X52867677Y-41580000D02*
X52867677Y-31420000D01*
X57847323Y-39875000D02*
X57847323Y-38875000D01*
X58347323Y-39375000D02*
X57347323Y-39375000D01*
X57987677Y-36500000D02*
G75*
G02*
X47747677Y-36500000I-5120000J0D01*
G01*
X47747677Y-36500000D02*
G75*
G02*
X57987677Y-36500000I5120000J0D01*
G01*
%TO.C,C9*%
X26765000Y-76838748D02*
X26765000Y-77361252D01*
X28235000Y-76838748D02*
X28235000Y-77361252D01*
D17*
%TO.C,SW2*%
X67825000Y-65256400D02*
X67825000Y-66600060D01*
X67825000Y-67875140D02*
X67825000Y-69218800D01*
X67825000Y-69218800D02*
X74175000Y-69218800D01*
X74175000Y-65256400D02*
X67825000Y-65256400D01*
X74175000Y-66600060D02*
X74175000Y-65256400D01*
X74175000Y-69218800D02*
X74175000Y-67875140D01*
D16*
%TO.C,R24*%
X59027064Y-70965000D02*
X58572936Y-70965000D01*
X59027064Y-72435000D02*
X58572936Y-72435000D01*
D19*
%TO.C,J3*%
X60350000Y-101250000D02*
X60350000Y-103750000D01*
X60350000Y-101250000D02*
X73650000Y-101250000D01*
X60350000Y-103750000D02*
X62050000Y-103750000D01*
X62050000Y-103750000D02*
X62050000Y-105400000D01*
X62050000Y-105400000D02*
X62730000Y-105400000D01*
X62730000Y-105400000D02*
X62730000Y-111400000D01*
X64500000Y-95750000D02*
X64500000Y-94750000D01*
X65000000Y-95250000D02*
X64000000Y-95250000D01*
X70000000Y-95250000D02*
X69000000Y-95250000D01*
X71270000Y-105400000D02*
X71270000Y-111400000D01*
X71270000Y-111400000D02*
X62730000Y-111400000D01*
X71950000Y-103750000D02*
X71950000Y-105400000D01*
X71950000Y-105400000D02*
X71270000Y-105400000D01*
X73650000Y-101250000D02*
X73650000Y-103750000D01*
X73650000Y-103750000D02*
X71950000Y-103750000D01*
D16*
%TO.C,R3*%
X23165000Y-47627064D02*
X23165000Y-47172936D01*
X24635000Y-47627064D02*
X24635000Y-47172936D01*
%TO.C,U5*%
X61725000Y-93500000D02*
X61725000Y-94750000D01*
X61725000Y-94750000D02*
X62975000Y-94750000D01*
X62015000Y-76840000D02*
X62015000Y-94460000D01*
X62015000Y-94460000D02*
X67985000Y-94460000D01*
X62025000Y-76850000D02*
X62025000Y-78650000D01*
X62025000Y-78650000D02*
X62775000Y-78650000D01*
X62025000Y-80150000D02*
X62025000Y-91150000D01*
X62025000Y-91150000D02*
X62775000Y-91150000D01*
X62025000Y-92650000D02*
X62025000Y-94450000D01*
X62025000Y-94450000D02*
X62775000Y-94450000D01*
X62775000Y-76850000D02*
X62025000Y-76850000D01*
X62775000Y-78650000D02*
X62775000Y-76850000D01*
X62775000Y-80150000D02*
X62025000Y-80150000D01*
X62775000Y-91150000D02*
X62775000Y-80150000D01*
X62775000Y-92650000D02*
X62025000Y-92650000D01*
X62775000Y-94450000D02*
X62775000Y-92650000D01*
X64275000Y-76850000D02*
X64275000Y-77600000D01*
X64275000Y-77600000D02*
X67225000Y-77600000D01*
X64275000Y-93700000D02*
X67225000Y-93700000D01*
X64275000Y-94450000D02*
X64275000Y-93700000D01*
X67225000Y-77600000D02*
X67225000Y-85650000D01*
X67225000Y-93700000D02*
X67225000Y-85650000D01*
X67985000Y-76840000D02*
X62015000Y-76840000D01*
X67985000Y-94460000D02*
X67985000Y-76840000D01*
%TO.C,C8*%
X33820000Y-82015112D02*
X35360000Y-82015112D01*
X33820000Y-82055112D02*
X35360000Y-82055112D01*
X33821000Y-81975112D02*
X35360000Y-81975112D01*
X33822000Y-81935112D02*
X35360000Y-81935112D01*
X33824000Y-81895112D02*
X35360000Y-81895112D01*
X33827000Y-81855112D02*
X35360000Y-81855112D01*
X33831000Y-81815112D02*
X35360000Y-81815112D01*
X33835000Y-81775112D02*
X35360000Y-81775112D01*
X33839000Y-81735112D02*
X35360000Y-81735112D01*
X33844000Y-81695112D02*
X35360000Y-81695112D01*
X33850000Y-81655112D02*
X35360000Y-81655112D01*
X33857000Y-81615112D02*
X35360000Y-81615112D01*
X33864000Y-81575112D02*
X35360000Y-81575112D01*
X33872000Y-81535112D02*
X35360000Y-81535112D01*
X33880000Y-81495112D02*
X35360000Y-81495112D01*
X33889000Y-81455112D02*
X35360000Y-81455112D01*
X33899000Y-81415112D02*
X35360000Y-81415112D01*
X33909000Y-81375112D02*
X35360000Y-81375112D01*
X33920000Y-81334112D02*
X35360000Y-81334112D01*
X33932000Y-81294112D02*
X35360000Y-81294112D01*
X33945000Y-81254112D02*
X35360000Y-81254112D01*
X33958000Y-81214112D02*
X35360000Y-81214112D01*
X33972000Y-81174112D02*
X35360000Y-81174112D01*
X33986000Y-81134112D02*
X35360000Y-81134112D01*
X34002000Y-81094112D02*
X35360000Y-81094112D01*
X34018000Y-81054112D02*
X35360000Y-81054112D01*
X34035000Y-81014112D02*
X35360000Y-81014112D01*
X34052000Y-80974112D02*
X35360000Y-80974112D01*
X34071000Y-80934112D02*
X35360000Y-80934112D01*
X34090000Y-80894112D02*
X35360000Y-80894112D01*
X34110000Y-80854112D02*
X35360000Y-80854112D01*
X34132000Y-80814112D02*
X35360000Y-80814112D01*
X34153000Y-80774112D02*
X35360000Y-80774112D01*
X34176000Y-80734112D02*
X35360000Y-80734112D01*
X34200000Y-80694112D02*
X35360000Y-80694112D01*
X34225000Y-80654112D02*
X35360000Y-80654112D01*
X34251000Y-80614112D02*
X35360000Y-80614112D01*
X34278000Y-80574112D02*
X35360000Y-80574112D01*
X34305000Y-80534112D02*
X35360000Y-80534112D01*
X34335000Y-80494112D02*
X35360000Y-80494112D01*
X34365000Y-80454112D02*
X35360000Y-80454112D01*
X34396000Y-80414112D02*
X35360000Y-80414112D01*
X34429000Y-80374112D02*
X35360000Y-80374112D01*
X34463000Y-80334112D02*
X35360000Y-80334112D01*
X34499000Y-80294112D02*
X35360000Y-80294112D01*
X34536000Y-80254112D02*
X35360000Y-80254112D01*
X34574000Y-80214112D02*
X35360000Y-80214112D01*
X34615000Y-80174112D02*
X35360000Y-80174112D01*
X34657000Y-80134112D02*
X35360000Y-80134112D01*
X34675000Y-84609887D02*
X35175000Y-84609887D01*
X34701000Y-80094112D02*
X35360000Y-80094112D01*
X34747000Y-80054112D02*
X35360000Y-80054112D01*
X34795000Y-80014112D02*
X38005000Y-80014112D01*
X34846000Y-79974112D02*
X37954000Y-79974112D01*
X34900000Y-79934112D02*
X37900000Y-79934112D01*
X34925000Y-84859887D02*
X34925000Y-84359887D01*
X34957000Y-79894112D02*
X37843000Y-79894112D01*
X35017000Y-79854112D02*
X37783000Y-79854112D01*
X35081000Y-79814112D02*
X37719000Y-79814112D01*
X35149000Y-79774112D02*
X37651000Y-79774112D01*
X35222000Y-79734112D02*
X37578000Y-79734112D01*
X35302000Y-79694112D02*
X37498000Y-79694112D01*
X35389000Y-79654112D02*
X37411000Y-79654112D01*
X35485000Y-79614112D02*
X37315000Y-79614112D01*
X35595000Y-79574112D02*
X37205000Y-79574112D01*
X35723000Y-79534112D02*
X37077000Y-79534112D01*
X35882000Y-79494112D02*
X36918000Y-79494112D01*
X36116000Y-79454112D02*
X36684000Y-79454112D01*
X37440000Y-80054112D02*
X38053000Y-80054112D01*
X37440000Y-80094112D02*
X38099000Y-80094112D01*
X37440000Y-80134112D02*
X38143000Y-80134112D01*
X37440000Y-80174112D02*
X38185000Y-80174112D01*
X37440000Y-80214112D02*
X38226000Y-80214112D01*
X37440000Y-80254112D02*
X38264000Y-80254112D01*
X37440000Y-80294112D02*
X38301000Y-80294112D01*
X37440000Y-80334112D02*
X38337000Y-80334112D01*
X37440000Y-80374112D02*
X38371000Y-80374112D01*
X37440000Y-80414112D02*
X38404000Y-80414112D01*
X37440000Y-80454112D02*
X38435000Y-80454112D01*
X37440000Y-80494112D02*
X38465000Y-80494112D01*
X37440000Y-80534112D02*
X38495000Y-80534112D01*
X37440000Y-80574112D02*
X38522000Y-80574112D01*
X37440000Y-80614112D02*
X38549000Y-80614112D01*
X37440000Y-80654112D02*
X38575000Y-80654112D01*
X37440000Y-80694112D02*
X38600000Y-80694112D01*
X37440000Y-80734112D02*
X38624000Y-80734112D01*
X37440000Y-80774112D02*
X38647000Y-80774112D01*
X37440000Y-80814112D02*
X38668000Y-80814112D01*
X37440000Y-80854112D02*
X38690000Y-80854112D01*
X37440000Y-80894112D02*
X38710000Y-80894112D01*
X37440000Y-80934112D02*
X38729000Y-80934112D01*
X37440000Y-80974112D02*
X38748000Y-80974112D01*
X37440000Y-81014112D02*
X38765000Y-81014112D01*
X37440000Y-81054112D02*
X38782000Y-81054112D01*
X37440000Y-81094112D02*
X38798000Y-81094112D01*
X37440000Y-81134112D02*
X38814000Y-81134112D01*
X37440000Y-81174112D02*
X38828000Y-81174112D01*
X37440000Y-81214112D02*
X38842000Y-81214112D01*
X37440000Y-81254112D02*
X38855000Y-81254112D01*
X37440000Y-81294112D02*
X38868000Y-81294112D01*
X37440000Y-81334112D02*
X38880000Y-81334112D01*
X37440000Y-81375112D02*
X38891000Y-81375112D01*
X37440000Y-81415112D02*
X38901000Y-81415112D01*
X37440000Y-81455112D02*
X38911000Y-81455112D01*
X37440000Y-81495112D02*
X38920000Y-81495112D01*
X37440000Y-81535112D02*
X38928000Y-81535112D01*
X37440000Y-81575112D02*
X38936000Y-81575112D01*
X37440000Y-81615112D02*
X38943000Y-81615112D01*
X37440000Y-81655112D02*
X38950000Y-81655112D01*
X37440000Y-81695112D02*
X38956000Y-81695112D01*
X37440000Y-81735112D02*
X38961000Y-81735112D01*
X37440000Y-81775112D02*
X38965000Y-81775112D01*
X37440000Y-81815112D02*
X38969000Y-81815112D01*
X37440000Y-81855112D02*
X38973000Y-81855112D01*
X37440000Y-81895112D02*
X38976000Y-81895112D01*
X37440000Y-81935112D02*
X38978000Y-81935112D01*
X37440000Y-81975112D02*
X38979000Y-81975112D01*
X37440000Y-82015112D02*
X38980000Y-82015112D01*
X37440000Y-82055112D02*
X38980000Y-82055112D01*
X39020000Y-82055112D02*
G75*
G02*
X33780000Y-82055112I-2620000J0D01*
G01*
X33780000Y-82055112D02*
G75*
G02*
X39020000Y-82055112I2620000J0D01*
G01*
%TO.C,R20*%
X26265000Y-87772936D02*
X26265000Y-88227064D01*
X27735000Y-87772936D02*
X27735000Y-88227064D01*
%TO.C,F2*%
D10*
X64800000Y-43050000D02*
X57000000Y-43050000D01*
X57000000Y-55950000D01*
X64800000Y-55950000D01*
X64800000Y-43050000D01*
D16*
%TO.C,C13*%
X41465000Y-32461252D02*
X41465000Y-31938748D01*
X42935000Y-32461252D02*
X42935000Y-31938748D01*
%TO.C,F1*%
D10*
X55800000Y-43050000D02*
X48000000Y-43050000D01*
X48000000Y-55950000D01*
X55800000Y-55950000D01*
X55800000Y-43050000D01*
D16*
%TO.C,D3*%
X39575000Y-74040000D02*
X39575000Y-75960000D01*
X39575000Y-75960000D02*
X42435000Y-75960000D01*
X42435000Y-74040000D02*
X39575000Y-74040000D01*
%TO.C,D4*%
X57700000Y-75960000D02*
X60560000Y-75960000D01*
X60560000Y-74040000D02*
X57700000Y-74040000D01*
X60560000Y-75960000D02*
X60560000Y-74040000D01*
D17*
%TO.C,D6*%
X69847905Y-53175000D02*
X72152100Y-53175000D01*
X72152095Y-46825000D02*
X69847900Y-46825000D01*
D16*
%TO.C,J4*%
X18725000Y-96100000D02*
X18725000Y-97350000D01*
X18725000Y-97350000D02*
X19975000Y-97350000D01*
X19015000Y-86940000D02*
X19015000Y-97060000D01*
X19015000Y-97060000D02*
X24985000Y-97060000D01*
X19025000Y-86950000D02*
X19025000Y-88750000D01*
X19025000Y-88750000D02*
X19775000Y-88750000D01*
X19025000Y-90250000D02*
X19025000Y-93750000D01*
X19025000Y-93750000D02*
X19775000Y-93750000D01*
X19025000Y-95250000D02*
X19025000Y-97050000D01*
X19025000Y-97050000D02*
X19775000Y-97050000D01*
X19775000Y-86950000D02*
X19025000Y-86950000D01*
X19775000Y-88750000D02*
X19775000Y-86950000D01*
X19775000Y-90250000D02*
X19025000Y-90250000D01*
X19775000Y-93750000D02*
X19775000Y-90250000D01*
X19775000Y-95250000D02*
X19025000Y-95250000D01*
X19775000Y-97050000D02*
X19775000Y-95250000D01*
X21275000Y-86950000D02*
X21275000Y-87700000D01*
X21275000Y-87700000D02*
X24225000Y-87700000D01*
X21275000Y-96300000D02*
X24225000Y-96300000D01*
X21275000Y-97050000D02*
X21275000Y-96300000D01*
X24225000Y-87700000D02*
X24225000Y-92000000D01*
X24225000Y-96300000D02*
X24225000Y-92000000D01*
X24985000Y-86940000D02*
X19015000Y-86940000D01*
X24985000Y-97060000D02*
X24985000Y-86940000D01*
D17*
%TO.C,SW1*%
X67825000Y-70625200D02*
X67825000Y-71968860D01*
X67825000Y-73243940D02*
X67825000Y-74587600D01*
X67825000Y-74587600D02*
X74175000Y-74587600D01*
X74175000Y-70625200D02*
X67825000Y-70625200D01*
X74175000Y-71968860D02*
X74175000Y-70625200D01*
X74175000Y-74587600D02*
X74175000Y-73243940D01*
D19*
%TO.C,J1*%
X47850000Y-16955750D02*
X49550000Y-16955750D01*
X47850000Y-19455750D02*
X47850000Y-16955750D01*
X49550000Y-15255750D02*
X59450000Y-15255750D01*
X49550000Y-16955750D02*
X49550000Y-15255750D01*
X49550000Y-19455750D02*
X47850000Y-19455750D01*
X49550000Y-24255750D02*
X49550000Y-19455750D01*
X51500000Y-30455750D02*
X52500000Y-30455750D01*
X52000000Y-30955750D02*
X52000000Y-29955750D01*
X56500000Y-30455750D02*
X57500000Y-30455750D01*
X59450000Y-15255750D02*
X59450000Y-16955750D01*
X59450000Y-16955750D02*
X61150000Y-16955750D01*
X59450000Y-19455750D02*
X59450000Y-24255750D01*
X59450000Y-24255750D02*
X49550000Y-24255750D01*
X61150000Y-16955750D02*
X61150000Y-19455750D01*
X61150000Y-19455750D02*
X59450000Y-19455750D01*
D16*
%TO.C,C2*%
X58652677Y-33625000D02*
X59652677Y-33625000D01*
X59152677Y-33125000D02*
X59152677Y-34125000D01*
X64132323Y-31420000D02*
X64132323Y-41580000D01*
X64172323Y-31420000D02*
X64172323Y-41580000D01*
X64212323Y-31420000D02*
X64212323Y-41580000D01*
X64252323Y-31421000D02*
X64252323Y-41579000D01*
X64292323Y-31422000D02*
X64292323Y-41578000D01*
X64332323Y-31423000D02*
X64332323Y-41577000D01*
X64372323Y-31425000D02*
X64372323Y-41575000D01*
X64412323Y-31427000D02*
X64412323Y-41573000D01*
X64452323Y-31430000D02*
X64452323Y-41570000D01*
X64492323Y-31432000D02*
X64492323Y-41568000D01*
X64532323Y-31435000D02*
X64532323Y-41565000D01*
X64572323Y-31438000D02*
X64572323Y-41562000D01*
X64612323Y-31442000D02*
X64612323Y-41558000D01*
X64652323Y-31446000D02*
X64652323Y-41554000D01*
X64692323Y-31450000D02*
X64692323Y-41550000D01*
X64732323Y-31455000D02*
X64732323Y-41545000D01*
X64772323Y-31460000D02*
X64772323Y-41540000D01*
X64812323Y-31465000D02*
X64812323Y-41535000D01*
X64853323Y-31470000D02*
X64853323Y-41530000D01*
X64893323Y-31476000D02*
X64893323Y-41524000D01*
X64933323Y-31482000D02*
X64933323Y-41518000D01*
X64973323Y-31489000D02*
X64973323Y-41511000D01*
X65013323Y-31496000D02*
X65013323Y-41504000D01*
X65053323Y-31503000D02*
X65053323Y-41497000D01*
X65093323Y-31510000D02*
X65093323Y-41490000D01*
X65133323Y-31518000D02*
X65133323Y-41482000D01*
X65173323Y-31526000D02*
X65173323Y-41474000D01*
X65213323Y-31535000D02*
X65213323Y-41465000D01*
X65253323Y-31544000D02*
X65253323Y-41456000D01*
X65293323Y-31553000D02*
X65293323Y-41447000D01*
X65333323Y-31562000D02*
X65333323Y-41438000D01*
X65373323Y-31572000D02*
X65373323Y-41428000D01*
X65413323Y-31582000D02*
X65413323Y-35259000D01*
X65413323Y-37741000D02*
X65413323Y-41418000D01*
X65453323Y-31593000D02*
X65453323Y-35259000D01*
X65453323Y-37741000D02*
X65453323Y-41407000D01*
X65493323Y-31603000D02*
X65493323Y-35259000D01*
X65493323Y-37741000D02*
X65493323Y-41397000D01*
X65533323Y-31615000D02*
X65533323Y-35259000D01*
X65533323Y-37741000D02*
X65533323Y-41385000D01*
X65573323Y-31626000D02*
X65573323Y-35259000D01*
X65573323Y-37741000D02*
X65573323Y-41374000D01*
X65613323Y-31638000D02*
X65613323Y-35259000D01*
X65613323Y-37741000D02*
X65613323Y-41362000D01*
X65653323Y-31650000D02*
X65653323Y-35259000D01*
X65653323Y-37741000D02*
X65653323Y-41350000D01*
X65693323Y-31663000D02*
X65693323Y-35259000D01*
X65693323Y-37741000D02*
X65693323Y-41337000D01*
X65733323Y-31676000D02*
X65733323Y-35259000D01*
X65733323Y-37741000D02*
X65733323Y-41324000D01*
X65773323Y-31689000D02*
X65773323Y-35259000D01*
X65773323Y-37741000D02*
X65773323Y-41311000D01*
X65813323Y-31703000D02*
X65813323Y-35259000D01*
X65813323Y-37741000D02*
X65813323Y-41297000D01*
X65853323Y-31717000D02*
X65853323Y-35259000D01*
X65853323Y-37741000D02*
X65853323Y-41283000D01*
X65893323Y-31732000D02*
X65893323Y-35259000D01*
X65893323Y-37741000D02*
X65893323Y-41268000D01*
X65933323Y-31746000D02*
X65933323Y-35259000D01*
X65933323Y-37741000D02*
X65933323Y-41254000D01*
X65973323Y-31762000D02*
X65973323Y-35259000D01*
X65973323Y-37741000D02*
X65973323Y-41238000D01*
X66013323Y-31777000D02*
X66013323Y-35259000D01*
X66013323Y-37741000D02*
X66013323Y-41223000D01*
X66053323Y-31793000D02*
X66053323Y-35259000D01*
X66053323Y-37741000D02*
X66053323Y-41207000D01*
X66093323Y-31810000D02*
X66093323Y-35259000D01*
X66093323Y-37741000D02*
X66093323Y-41190000D01*
X66133323Y-31826000D02*
X66133323Y-35259000D01*
X66133323Y-37741000D02*
X66133323Y-41174000D01*
X66173323Y-31843000D02*
X66173323Y-35259000D01*
X66173323Y-37741000D02*
X66173323Y-41157000D01*
X66213323Y-31861000D02*
X66213323Y-35259000D01*
X66213323Y-37741000D02*
X66213323Y-41139000D01*
X66253323Y-31879000D02*
X66253323Y-35259000D01*
X66253323Y-37741000D02*
X66253323Y-41121000D01*
X66293323Y-31897000D02*
X66293323Y-35259000D01*
X66293323Y-37741000D02*
X66293323Y-41103000D01*
X66333323Y-31916000D02*
X66333323Y-35259000D01*
X66333323Y-37741000D02*
X66333323Y-41084000D01*
X66373323Y-31936000D02*
X66373323Y-35259000D01*
X66373323Y-37741000D02*
X66373323Y-41064000D01*
X66413323Y-31955000D02*
X66413323Y-35259000D01*
X66413323Y-37741000D02*
X66413323Y-41045000D01*
X66453323Y-31975000D02*
X66453323Y-35259000D01*
X66453323Y-37741000D02*
X66453323Y-41025000D01*
X66493323Y-31996000D02*
X66493323Y-35259000D01*
X66493323Y-37741000D02*
X66493323Y-41004000D01*
X66533323Y-32017000D02*
X66533323Y-35259000D01*
X66533323Y-37741000D02*
X66533323Y-40983000D01*
X66573323Y-32038000D02*
X66573323Y-35259000D01*
X66573323Y-37741000D02*
X66573323Y-40962000D01*
X66613323Y-32060000D02*
X66613323Y-35259000D01*
X66613323Y-37741000D02*
X66613323Y-40940000D01*
X66653323Y-32083000D02*
X66653323Y-35259000D01*
X66653323Y-37741000D02*
X66653323Y-40917000D01*
X66693323Y-32105000D02*
X66693323Y-35259000D01*
X66693323Y-37741000D02*
X66693323Y-40895000D01*
X66733323Y-32129000D02*
X66733323Y-35259000D01*
X66733323Y-37741000D02*
X66733323Y-40871000D01*
X66773323Y-32153000D02*
X66773323Y-35259000D01*
X66773323Y-37741000D02*
X66773323Y-40847000D01*
X66813323Y-32177000D02*
X66813323Y-35259000D01*
X66813323Y-37741000D02*
X66813323Y-40823000D01*
X66853323Y-32202000D02*
X66853323Y-35259000D01*
X66853323Y-37741000D02*
X66853323Y-40798000D01*
X66893323Y-32227000D02*
X66893323Y-35259000D01*
X66893323Y-37741000D02*
X66893323Y-40773000D01*
X66933323Y-32253000D02*
X66933323Y-35259000D01*
X66933323Y-37741000D02*
X66933323Y-40747000D01*
X66973323Y-32279000D02*
X66973323Y-35259000D01*
X66973323Y-37741000D02*
X66973323Y-40721000D01*
X67013323Y-32306000D02*
X67013323Y-35259000D01*
X67013323Y-37741000D02*
X67013323Y-40694000D01*
X67053323Y-32334000D02*
X67053323Y-35259000D01*
X67053323Y-37741000D02*
X67053323Y-40666000D01*
X67093323Y-32362000D02*
X67093323Y-35259000D01*
X67093323Y-37741000D02*
X67093323Y-40638000D01*
X67133323Y-32390000D02*
X67133323Y-35259000D01*
X67133323Y-37741000D02*
X67133323Y-40610000D01*
X67173323Y-32420000D02*
X67173323Y-35259000D01*
X67173323Y-37741000D02*
X67173323Y-40580000D01*
X67213323Y-32450000D02*
X67213323Y-35259000D01*
X67213323Y-37741000D02*
X67213323Y-40550000D01*
X67253323Y-32480000D02*
X67253323Y-35259000D01*
X67253323Y-37741000D02*
X67253323Y-40520000D01*
X67293323Y-32511000D02*
X67293323Y-35259000D01*
X67293323Y-37741000D02*
X67293323Y-40489000D01*
X67333323Y-32543000D02*
X67333323Y-35259000D01*
X67333323Y-37741000D02*
X67333323Y-40457000D01*
X67373323Y-32575000D02*
X67373323Y-35259000D01*
X67373323Y-37741000D02*
X67373323Y-40425000D01*
X67413323Y-32608000D02*
X67413323Y-35259000D01*
X67413323Y-37741000D02*
X67413323Y-40392000D01*
X67453323Y-32642000D02*
X67453323Y-35259000D01*
X67453323Y-37741000D02*
X67453323Y-40358000D01*
X67493323Y-32676000D02*
X67493323Y-35259000D01*
X67493323Y-37741000D02*
X67493323Y-40324000D01*
X67533323Y-32711000D02*
X67533323Y-35259000D01*
X67533323Y-37741000D02*
X67533323Y-40289000D01*
X67573323Y-32747000D02*
X67573323Y-35259000D01*
X67573323Y-37741000D02*
X67573323Y-40253000D01*
X67613323Y-32784000D02*
X67613323Y-35259000D01*
X67613323Y-37741000D02*
X67613323Y-40216000D01*
X67653323Y-32821000D02*
X67653323Y-35259000D01*
X67653323Y-37741000D02*
X67653323Y-40179000D01*
X67693323Y-32860000D02*
X67693323Y-35259000D01*
X67693323Y-37741000D02*
X67693323Y-40140000D01*
X67733323Y-32899000D02*
X67733323Y-35259000D01*
X67733323Y-37741000D02*
X67733323Y-40101000D01*
X67773323Y-32939000D02*
X67773323Y-35259000D01*
X67773323Y-37741000D02*
X67773323Y-40061000D01*
X67813323Y-32980000D02*
X67813323Y-35259000D01*
X67813323Y-37741000D02*
X67813323Y-40020000D01*
X67853323Y-33022000D02*
X67853323Y-35259000D01*
X67853323Y-37741000D02*
X67853323Y-39978000D01*
X67893323Y-33064000D02*
X67893323Y-39936000D01*
X67933323Y-33108000D02*
X67933323Y-39892000D01*
X67973323Y-33153000D02*
X67973323Y-39847000D01*
X68013323Y-33199000D02*
X68013323Y-39801000D01*
X68053323Y-33246000D02*
X68053323Y-39754000D01*
X68093323Y-33294000D02*
X68093323Y-39706000D01*
X68133323Y-33344000D02*
X68133323Y-39656000D01*
X68173323Y-33394000D02*
X68173323Y-39606000D01*
X68213323Y-33446000D02*
X68213323Y-39554000D01*
X68253323Y-33500000D02*
X68253323Y-39500000D01*
X68293323Y-33555000D02*
X68293323Y-39445000D01*
X68333323Y-33611000D02*
X68333323Y-39389000D01*
X68373323Y-33670000D02*
X68373323Y-39330000D01*
X68413323Y-33730000D02*
X68413323Y-39270000D01*
X68453323Y-33791000D02*
X68453323Y-39209000D01*
X68493323Y-33855000D02*
X68493323Y-39145000D01*
X68533323Y-33921000D02*
X68533323Y-39079000D01*
X68573323Y-33990000D02*
X68573323Y-39010000D01*
X68613323Y-34061000D02*
X68613323Y-38939000D01*
X68653323Y-34135000D02*
X68653323Y-38865000D01*
X68693323Y-34211000D02*
X68693323Y-38789000D01*
X68733323Y-34291000D02*
X68733323Y-38709000D01*
X68773323Y-34375000D02*
X68773323Y-38625000D01*
X68813323Y-34463000D02*
X68813323Y-38537000D01*
X68853323Y-34556000D02*
X68853323Y-38444000D01*
X68893323Y-34654000D02*
X68893323Y-38346000D01*
X68933323Y-34758000D02*
X68933323Y-38242000D01*
X68973323Y-34870000D02*
X68973323Y-38130000D01*
X69013323Y-34990000D02*
X69013323Y-38010000D01*
X69053323Y-35122000D02*
X69053323Y-37878000D01*
X69093323Y-35270000D02*
X69093323Y-37730000D01*
X69133323Y-35438000D02*
X69133323Y-37562000D01*
X69173323Y-35638000D02*
X69173323Y-37362000D01*
X69213323Y-35901000D02*
X69213323Y-37099000D01*
X69252323Y-36500000D02*
G75*
G02*
X59012323Y-36500000I-5120000J0D01*
G01*
X59012323Y-36500000D02*
G75*
G02*
X69252323Y-36500000I5120000J0D01*
G01*
%TO.C,C6*%
X28120000Y-82015112D02*
X29660000Y-82015112D01*
X28120000Y-82055112D02*
X29660000Y-82055112D01*
X28121000Y-81975112D02*
X29660000Y-81975112D01*
X28122000Y-81935112D02*
X29660000Y-81935112D01*
X28124000Y-81895112D02*
X29660000Y-81895112D01*
X28127000Y-81855112D02*
X29660000Y-81855112D01*
X28131000Y-81815112D02*
X29660000Y-81815112D01*
X28135000Y-81775112D02*
X29660000Y-81775112D01*
X28139000Y-81735112D02*
X29660000Y-81735112D01*
X28144000Y-81695112D02*
X29660000Y-81695112D01*
X28150000Y-81655112D02*
X29660000Y-81655112D01*
X28157000Y-81615112D02*
X29660000Y-81615112D01*
X28164000Y-81575112D02*
X29660000Y-81575112D01*
X28172000Y-81535112D02*
X29660000Y-81535112D01*
X28180000Y-81495112D02*
X29660000Y-81495112D01*
X28189000Y-81455112D02*
X29660000Y-81455112D01*
X28199000Y-81415112D02*
X29660000Y-81415112D01*
X28209000Y-81375112D02*
X29660000Y-81375112D01*
X28220000Y-81334112D02*
X29660000Y-81334112D01*
X28232000Y-81294112D02*
X29660000Y-81294112D01*
X28245000Y-81254112D02*
X29660000Y-81254112D01*
X28258000Y-81214112D02*
X29660000Y-81214112D01*
X28272000Y-81174112D02*
X29660000Y-81174112D01*
X28286000Y-81134112D02*
X29660000Y-81134112D01*
X28302000Y-81094112D02*
X29660000Y-81094112D01*
X28318000Y-81054112D02*
X29660000Y-81054112D01*
X28335000Y-81014112D02*
X29660000Y-81014112D01*
X28352000Y-80974112D02*
X29660000Y-80974112D01*
X28371000Y-80934112D02*
X29660000Y-80934112D01*
X28390000Y-80894112D02*
X29660000Y-80894112D01*
X28410000Y-80854112D02*
X29660000Y-80854112D01*
X28432000Y-80814112D02*
X29660000Y-80814112D01*
X28453000Y-80774112D02*
X29660000Y-80774112D01*
X28476000Y-80734112D02*
X29660000Y-80734112D01*
X28500000Y-80694112D02*
X29660000Y-80694112D01*
X28525000Y-80654112D02*
X29660000Y-80654112D01*
X28551000Y-80614112D02*
X29660000Y-80614112D01*
X28578000Y-80574112D02*
X29660000Y-80574112D01*
X28605000Y-80534112D02*
X29660000Y-80534112D01*
X28635000Y-80494112D02*
X29660000Y-80494112D01*
X28665000Y-80454112D02*
X29660000Y-80454112D01*
X28696000Y-80414112D02*
X29660000Y-80414112D01*
X28729000Y-80374112D02*
X29660000Y-80374112D01*
X28763000Y-80334112D02*
X29660000Y-80334112D01*
X28799000Y-80294112D02*
X29660000Y-80294112D01*
X28836000Y-80254112D02*
X29660000Y-80254112D01*
X28874000Y-80214112D02*
X29660000Y-80214112D01*
X28915000Y-80174112D02*
X29660000Y-80174112D01*
X28957000Y-80134112D02*
X29660000Y-80134112D01*
X28975000Y-84609887D02*
X29475000Y-84609887D01*
X29001000Y-80094112D02*
X29660000Y-80094112D01*
X29047000Y-80054112D02*
X29660000Y-80054112D01*
X29095000Y-80014112D02*
X32305000Y-80014112D01*
X29146000Y-79974112D02*
X32254000Y-79974112D01*
X29200000Y-79934112D02*
X32200000Y-79934112D01*
X29225000Y-84859887D02*
X29225000Y-84359887D01*
X29257000Y-79894112D02*
X32143000Y-79894112D01*
X29317000Y-79854112D02*
X32083000Y-79854112D01*
X29381000Y-79814112D02*
X32019000Y-79814112D01*
X29449000Y-79774112D02*
X31951000Y-79774112D01*
X29522000Y-79734112D02*
X31878000Y-79734112D01*
X29602000Y-79694112D02*
X31798000Y-79694112D01*
X29689000Y-79654112D02*
X31711000Y-79654112D01*
X29785000Y-79614112D02*
X31615000Y-79614112D01*
X29895000Y-79574112D02*
X31505000Y-79574112D01*
X30023000Y-79534112D02*
X31377000Y-79534112D01*
X30182000Y-79494112D02*
X31218000Y-79494112D01*
X30416000Y-79454112D02*
X30984000Y-79454112D01*
X31740000Y-80054112D02*
X32353000Y-80054112D01*
X31740000Y-80094112D02*
X32399000Y-80094112D01*
X31740000Y-80134112D02*
X32443000Y-80134112D01*
X31740000Y-80174112D02*
X32485000Y-80174112D01*
X31740000Y-80214112D02*
X32526000Y-80214112D01*
X31740000Y-80254112D02*
X32564000Y-80254112D01*
X31740000Y-80294112D02*
X32601000Y-80294112D01*
X31740000Y-80334112D02*
X32637000Y-80334112D01*
X31740000Y-80374112D02*
X32671000Y-80374112D01*
X31740000Y-80414112D02*
X32704000Y-80414112D01*
X31740000Y-80454112D02*
X32735000Y-80454112D01*
X31740000Y-80494112D02*
X32765000Y-80494112D01*
X31740000Y-80534112D02*
X32795000Y-80534112D01*
X31740000Y-80574112D02*
X32822000Y-80574112D01*
X31740000Y-80614112D02*
X32849000Y-80614112D01*
X31740000Y-80654112D02*
X32875000Y-80654112D01*
X31740000Y-80694112D02*
X32900000Y-80694112D01*
X31740000Y-80734112D02*
X32924000Y-80734112D01*
X31740000Y-80774112D02*
X32947000Y-80774112D01*
X31740000Y-80814112D02*
X32968000Y-80814112D01*
X31740000Y-80854112D02*
X32990000Y-80854112D01*
X31740000Y-80894112D02*
X33010000Y-80894112D01*
X31740000Y-80934112D02*
X33029000Y-80934112D01*
X31740000Y-80974112D02*
X33048000Y-80974112D01*
X31740000Y-81014112D02*
X33065000Y-81014112D01*
X31740000Y-81054112D02*
X33082000Y-81054112D01*
X31740000Y-81094112D02*
X33098000Y-81094112D01*
X31740000Y-81134112D02*
X33114000Y-81134112D01*
X31740000Y-81174112D02*
X33128000Y-81174112D01*
X31740000Y-81214112D02*
X33142000Y-81214112D01*
X31740000Y-81254112D02*
X33155000Y-81254112D01*
X31740000Y-81294112D02*
X33168000Y-81294112D01*
X31740000Y-81334112D02*
X33180000Y-81334112D01*
X31740000Y-81375112D02*
X33191000Y-81375112D01*
X31740000Y-81415112D02*
X33201000Y-81415112D01*
X31740000Y-81455112D02*
X33211000Y-81455112D01*
X31740000Y-81495112D02*
X33220000Y-81495112D01*
X31740000Y-81535112D02*
X33228000Y-81535112D01*
X31740000Y-81575112D02*
X33236000Y-81575112D01*
X31740000Y-81615112D02*
X33243000Y-81615112D01*
X31740000Y-81655112D02*
X33250000Y-81655112D01*
X31740000Y-81695112D02*
X33256000Y-81695112D01*
X31740000Y-81735112D02*
X33261000Y-81735112D01*
X31740000Y-81775112D02*
X33265000Y-81775112D01*
X31740000Y-81815112D02*
X33269000Y-81815112D01*
X31740000Y-81855112D02*
X33273000Y-81855112D01*
X31740000Y-81895112D02*
X33276000Y-81895112D01*
X31740000Y-81935112D02*
X33278000Y-81935112D01*
X31740000Y-81975112D02*
X33279000Y-81975112D01*
X31740000Y-82015112D02*
X33280000Y-82015112D01*
X31740000Y-82055112D02*
X33280000Y-82055112D01*
X33320000Y-82055112D02*
G75*
G02*
X28080000Y-82055112I-2620000J0D01*
G01*
X28080000Y-82055112D02*
G75*
G02*
X33320000Y-82055112I2620000J0D01*
G01*
%TO.C,R15*%
X63472936Y-73965000D02*
X63927064Y-73965000D01*
X63472936Y-75435000D02*
X63927064Y-75435000D01*
D17*
%TO.C,U1*%
X39469200Y-78879100D02*
X39469200Y-83120900D01*
X49730800Y-83120900D02*
X49730800Y-78879100D01*
D18*
G36*
X47965500Y-77291600D02*
G01*
X47584500Y-77291600D01*
X47584500Y-77037600D01*
X47965500Y-77037600D01*
X47965500Y-77291600D01*
G37*
D16*
%TO.C,R23*%
X52627064Y-67565000D02*
X52172936Y-67565000D01*
X52627064Y-69035000D02*
X52172936Y-69035000D01*
D19*
%TO.C,J5*%
X24880000Y-15120000D02*
X24880000Y-21005000D01*
X24880000Y-24995000D02*
X24880000Y-33120000D01*
X24880000Y-33120000D02*
X40120000Y-33120000D01*
X40120000Y-15120000D02*
X24880000Y-15120000D01*
X40120000Y-15120000D02*
X40120000Y-21005000D01*
X40120000Y-33120000D02*
X40120000Y-24995000D01*
D20*
X40970000Y-29350000D02*
G75*
G02*
X40770000Y-29350000I-100000J0D01*
G01*
X40770000Y-29350000D02*
G75*
G02*
X40970000Y-29350000I100000J0D01*
G01*
D16*
%TO.C,R16*%
X63927064Y-69165000D02*
X63472936Y-69165000D01*
X63927064Y-70635000D02*
X63472936Y-70635000D01*
%TO.C,R2*%
X41465000Y-37372936D02*
X41465000Y-37827064D01*
X42935000Y-37372936D02*
X42935000Y-37827064D01*
%TO.C,R5*%
X41627064Y-67665000D02*
X41172936Y-67665000D01*
X41627064Y-69135000D02*
X41172936Y-69135000D01*
%TO.C,F3*%
X31061252Y-70340000D02*
X28288748Y-70340000D01*
X31061252Y-73760000D02*
X28288748Y-73760000D01*
%TD*%
%LPC*%
D21*
%TO.C,R1*%
X23500000Y-37200000D03*
X25500000Y-37200000D03*
%TD*%
D22*
%TO.C,C12*%
X42200000Y-26962500D03*
X42200000Y-29037500D03*
%TD*%
D23*
%TO.C,U2*%
X51055000Y-83724150D03*
X52325000Y-83724150D03*
X53595000Y-83724150D03*
X54865000Y-83724150D03*
X56135000Y-83724150D03*
X57405000Y-83724150D03*
X58675000Y-83724150D03*
X59945000Y-83724150D03*
X59945000Y-78275850D03*
X58675000Y-78275850D03*
X57405000Y-78275850D03*
X56135000Y-78275850D03*
X54865000Y-78275850D03*
X53595000Y-78275850D03*
X52325000Y-78275850D03*
X51055000Y-78275850D03*
%TD*%
D24*
%TO.C,R17*%
X64700000Y-64600000D03*
X62700000Y-64600000D03*
%TD*%
D25*
%TO.C,SW4*%
X74803650Y-56500000D03*
X67196350Y-56500000D03*
%TD*%
%TO.C,SW3*%
X74803650Y-61868800D03*
X67196350Y-61868800D03*
%TD*%
D26*
%TO.C,U4*%
X72475000Y-91900000D03*
D27*
X72475000Y-89400000D03*
X72475000Y-86900000D03*
X72475000Y-84400000D03*
X72475000Y-81900000D03*
X72475000Y-79400000D03*
%TD*%
D24*
%TO.C,R8*%
X42400000Y-71700000D03*
X40400000Y-71700000D03*
%TD*%
D28*
%TO.C,U7*%
X23000000Y-72000000D03*
D29*
X23000000Y-77000000D03*
X23000000Y-82000000D03*
%TD*%
D30*
%TO.C,R4*%
X27100000Y-48400000D03*
X27100000Y-46400000D03*
%TD*%
%TO.C,R19*%
X68500000Y-45500000D03*
X68500000Y-43500000D03*
%TD*%
D31*
%TO.C,U3*%
X19800000Y-26985000D03*
D32*
X19800000Y-29525000D03*
X45200000Y-29525000D03*
X19800000Y-32065000D03*
X19800000Y-34605000D03*
X19800000Y-37145000D03*
X19800000Y-39685000D03*
X19800000Y-42225000D03*
X19800000Y-44765000D03*
X19800000Y-47305000D03*
X19800000Y-49845000D03*
X19800000Y-52385000D03*
X19800000Y-54925000D03*
X19800000Y-57465000D03*
X19800000Y-60005000D03*
X19800000Y-62545000D03*
X45200000Y-62545000D03*
X45200000Y-60005000D03*
X45200000Y-57465000D03*
X45200000Y-54925000D03*
X45200000Y-52385000D03*
X45200000Y-49845000D03*
X45200000Y-47305000D03*
X45200000Y-44765000D03*
X45200000Y-42225000D03*
X45200000Y-39685000D03*
X45200000Y-37145000D03*
X45200000Y-34605000D03*
X45200000Y-32065000D03*
X45200000Y-26985000D03*
%TD*%
D33*
%TO.C,J2*%
X56000000Y-102500000D03*
X45000000Y-102500000D03*
D34*
X53000000Y-97500000D03*
D35*
X48000000Y-97500000D03*
%TD*%
D36*
%TO.C,H1*%
X20500000Y-102500000D03*
D37*
X20500000Y-102500000D03*
%TD*%
D38*
%TO.C,D2*%
X48860000Y-75000000D03*
X46810000Y-75000000D03*
%TD*%
D39*
%TO.C,J6*%
X28121500Y-103500000D03*
X39553500Y-103500000D03*
D40*
X29392500Y-97150000D03*
D41*
X30662500Y-94610000D03*
X31932500Y-97150000D03*
X33202500Y-94610000D03*
X34472500Y-97150000D03*
X35742500Y-94610000D03*
X37012500Y-97150000D03*
X38282500Y-94610000D03*
%TD*%
D42*
%TO.C,D1*%
X30000000Y-86975000D03*
X30000000Y-89025000D03*
%TD*%
D24*
%TO.C,R6*%
X53400000Y-71700000D03*
X51400000Y-71700000D03*
%TD*%
%TO.C,R18*%
X64700000Y-59300000D03*
X62700000Y-59300000D03*
%TD*%
D36*
%TO.C,H3*%
X73000000Y-19500000D03*
D37*
X73000000Y-19500000D03*
%TD*%
D22*
%TO.C,C10*%
X30200000Y-76062500D03*
X30200000Y-78137500D03*
%TD*%
D43*
%TO.C,D5*%
X51375000Y-75000000D03*
X53425000Y-75000000D03*
%TD*%
D24*
%TO.C,R9*%
X48900000Y-71700000D03*
X46900000Y-71700000D03*
%TD*%
D44*
%TO.C,C1*%
X55367677Y-36500000D03*
D45*
X50367677Y-36500000D03*
%TD*%
D22*
%TO.C,C9*%
X27500000Y-76062500D03*
X27500000Y-78137500D03*
%TD*%
D25*
%TO.C,SW2*%
X74803650Y-67237600D03*
X67196350Y-67237600D03*
%TD*%
D24*
%TO.C,R24*%
X59800000Y-71700000D03*
X57800000Y-71700000D03*
%TD*%
D33*
%TO.C,J3*%
X72500000Y-102500000D03*
X61500000Y-102500000D03*
D34*
X69500000Y-97500000D03*
D35*
X64500000Y-97500000D03*
%TD*%
D30*
%TO.C,R3*%
X23900000Y-48400000D03*
X23900000Y-46400000D03*
%TD*%
D26*
%TO.C,U5*%
X64475000Y-91900000D03*
D27*
X64475000Y-89400000D03*
X64475000Y-86900000D03*
X64475000Y-84400000D03*
X64475000Y-81900000D03*
X64475000Y-79400000D03*
%TD*%
D46*
%TO.C,C8*%
X36400000Y-83055112D03*
D47*
X36400000Y-81055112D03*
%TD*%
D48*
%TO.C,R20*%
X27000000Y-87000000D03*
X27000000Y-89000000D03*
%TD*%
D49*
%TO.C,F2*%
X61000000Y-45600000D03*
X61000000Y-53400000D03*
%TD*%
D50*
%TO.C,C13*%
X42200000Y-33237500D03*
X42200000Y-31162500D03*
%TD*%
D49*
%TO.C,F1*%
X52000000Y-45600000D03*
X52000000Y-53400000D03*
%TD*%
D43*
%TO.C,D3*%
X40410000Y-75000000D03*
X42460000Y-75000000D03*
%TD*%
D38*
%TO.C,D4*%
X59725000Y-75000000D03*
X57675000Y-75000000D03*
%TD*%
D51*
%TO.C,D6*%
X68726700Y-47900002D03*
X68726700Y-50000000D03*
X68726700Y-52100001D03*
X73273300Y-52099998D03*
X73273300Y-50000000D03*
X73273300Y-47899999D03*
%TD*%
D26*
%TO.C,J4*%
X21475000Y-94500000D03*
D27*
X21475000Y-92000000D03*
X21475000Y-89500000D03*
%TD*%
D25*
%TO.C,SW1*%
X74803650Y-72606400D03*
X67196350Y-72606400D03*
%TD*%
D33*
%TO.C,J1*%
X49000000Y-18205750D03*
X60000000Y-18205750D03*
D34*
X57000000Y-28205750D03*
D52*
X52000000Y-28205750D03*
%TD*%
D44*
%TO.C,C2*%
X61632323Y-36500000D03*
D45*
X66632323Y-36500000D03*
%TD*%
D46*
%TO.C,C6*%
X30700000Y-83055112D03*
D47*
X30700000Y-81055112D03*
%TD*%
D36*
%TO.C,H2*%
X20500000Y-19500000D03*
D37*
X20500000Y-19500000D03*
%TD*%
D21*
%TO.C,R15*%
X62700000Y-74700000D03*
X64700000Y-74700000D03*
%TD*%
D23*
%TO.C,U1*%
X40155000Y-83724150D03*
X41425000Y-83724150D03*
X42695000Y-83724150D03*
X43965000Y-83724150D03*
X45235000Y-83724150D03*
X46505000Y-83724150D03*
X47775000Y-83724150D03*
X49045000Y-83724150D03*
X49045000Y-78275850D03*
X47775000Y-78275850D03*
X46505000Y-78275850D03*
X45235000Y-78275850D03*
X43965000Y-78275850D03*
X42695000Y-78275850D03*
X41425000Y-78275850D03*
X40155000Y-78275850D03*
%TD*%
D24*
%TO.C,R23*%
X53400000Y-68300000D03*
X51400000Y-68300000D03*
%TD*%
D39*
%TO.C,J5*%
X38216000Y-23000000D03*
X26784000Y-23000000D03*
D53*
X36945000Y-29350000D03*
D41*
X35675000Y-31890000D03*
X34405000Y-29350000D03*
X33135000Y-31890000D03*
X31865000Y-29350000D03*
X30595000Y-31890000D03*
X29325000Y-29350000D03*
X28055000Y-31890000D03*
%TD*%
D24*
%TO.C,R16*%
X64700000Y-69900000D03*
X62700000Y-69900000D03*
%TD*%
D48*
%TO.C,R2*%
X42200000Y-36600000D03*
X42200000Y-38600000D03*
%TD*%
D24*
%TO.C,R5*%
X42400000Y-68400000D03*
X40400000Y-68400000D03*
%TD*%
D54*
%TO.C,F3*%
X31900000Y-72050000D03*
X27450000Y-72050000D03*
%TD*%
D55*
X59958696Y-79755533D03*
X59958696Y-80802250D03*
X59944646Y-82038640D03*
X50500000Y-79953283D03*
X50500000Y-81000000D03*
X50485950Y-82236390D03*
X49500000Y-79953283D03*
X49500000Y-81000000D03*
X49485950Y-82236390D03*
X40138748Y-82344185D03*
X40152798Y-81107795D03*
X40152798Y-80061078D03*
X34000000Y-86750000D03*
X33900000Y-64900000D03*
X27200000Y-63100000D03*
X41300000Y-67100000D03*
X51400000Y-66900000D03*
X22000000Y-60000000D03*
X70500000Y-48700000D03*
X42700000Y-81500000D03*
X38500000Y-43700000D03*
X42200000Y-40600000D03*
X46500000Y-79600000D03*
X53600000Y-81700000D03*
X40400000Y-48200000D03*
X57405000Y-82400000D03*
X41200003Y-48200000D03*
X66600000Y-50000000D03*
X65300000Y-49400000D03*
X66150000Y-59950000D03*
X62925735Y-57574265D03*
X67300000Y-42300000D03*
X74500000Y-85000000D03*
X42300000Y-45900000D03*
X43200000Y-47800000D03*
X62700000Y-61600000D03*
X31700000Y-89900000D03*
X51400000Y-73300000D03*
X41200000Y-70300000D03*
X37300000Y-89600000D03*
X39200000Y-87800000D03*
%LPD*%
M02*
