%TF.GenerationSoftware,KiCad,Pcbnew,8.0.1-8.0.1-1~ubuntu22.04.1*%
%TF.CreationDate,2024-03-27T01:11:39-04:00*%
%TF.ProjectId,gripper_2024,67726970-7065-4725-9f32-3032342e6b69,rev?*%
%TF.SameCoordinates,Original*%
%TF.FileFunction,Drillmap*%
%TF.FilePolarity,Positive*%
%FSLAX45Y45*%
G04 Gerber Fmt 4.5, Leading zero omitted, Abs format (unit mm)*
G04 Created by KiCad (PCBNEW 8.0.1-8.0.1-1~ubuntu22.04.1) date 2024-03-27 01:11:39*
%MOMM*%
%LPD*%
G01*
G04 APERTURE LIST*
%ADD10C,0.200000*%
%ADD11C,0.120000*%
%ADD12C,0.335000*%
G04 APERTURE END LIST*
D10*
X1700000Y-1600000D02*
X7650000Y-1600000D01*
X7650000Y-10600000D01*
X1700000Y-10600000D01*
X1700000Y-1600000D01*
D11*
X2287500Y-9550000D02*
X2407500Y-9670000D01*
X2407500Y-9550000D02*
X2287500Y-9670000D01*
X6587500Y-9290000D02*
X6707500Y-9410000D01*
X6707500Y-9290000D02*
X6587500Y-9410000D01*
X7387500Y-9290000D02*
X7507500Y-9410000D01*
X7507500Y-9290000D02*
X7387500Y-9410000D01*
D12*
X2845900Y-2300000D02*
G75*
G02*
X2510900Y-2300000I-167500J0D01*
G01*
X2510900Y-2300000D02*
G75*
G02*
X2845900Y-2300000I167500J0D01*
G01*
X2979650Y-10350000D02*
G75*
G02*
X2644650Y-10350000I-167500J0D01*
G01*
X2644650Y-10350000D02*
G75*
G02*
X2979650Y-10350000I167500J0D01*
G01*
X3989100Y-2300000D02*
G75*
G02*
X3654100Y-2300000I-167500J0D01*
G01*
X3654100Y-2300000D02*
G75*
G02*
X3989100Y-2300000I167500J0D01*
G01*
X4122850Y-10350000D02*
G75*
G02*
X3787850Y-10350000I-167500J0D01*
G01*
X3787850Y-10350000D02*
G75*
G02*
X4122850Y-10350000I167500J0D01*
G01*
D10*
X1950777Y-10921484D02*
X1950777Y-10721484D01*
X1950777Y-10721484D02*
X1998396Y-10721484D01*
X1998396Y-10721484D02*
X2026967Y-10731008D01*
X2026967Y-10731008D02*
X2046015Y-10750055D01*
X2046015Y-10750055D02*
X2055539Y-10769103D01*
X2055539Y-10769103D02*
X2065062Y-10807198D01*
X2065062Y-10807198D02*
X2065062Y-10835770D01*
X2065062Y-10835770D02*
X2055539Y-10873865D01*
X2055539Y-10873865D02*
X2046015Y-10892912D01*
X2046015Y-10892912D02*
X2026967Y-10911960D01*
X2026967Y-10911960D02*
X1998396Y-10921484D01*
X1998396Y-10921484D02*
X1950777Y-10921484D01*
X2150777Y-10921484D02*
X2150777Y-10788150D01*
X2150777Y-10826246D02*
X2160301Y-10807198D01*
X2160301Y-10807198D02*
X2169824Y-10797674D01*
X2169824Y-10797674D02*
X2188872Y-10788150D01*
X2188872Y-10788150D02*
X2207920Y-10788150D01*
X2274586Y-10921484D02*
X2274586Y-10788150D01*
X2274586Y-10721484D02*
X2265063Y-10731008D01*
X2265063Y-10731008D02*
X2274586Y-10740531D01*
X2274586Y-10740531D02*
X2284110Y-10731008D01*
X2284110Y-10731008D02*
X2274586Y-10721484D01*
X2274586Y-10721484D02*
X2274586Y-10740531D01*
X2398396Y-10921484D02*
X2379348Y-10911960D01*
X2379348Y-10911960D02*
X2369824Y-10892912D01*
X2369824Y-10892912D02*
X2369824Y-10721484D01*
X2503158Y-10921484D02*
X2484110Y-10911960D01*
X2484110Y-10911960D02*
X2474586Y-10892912D01*
X2474586Y-10892912D02*
X2474586Y-10721484D01*
X2731729Y-10921484D02*
X2731729Y-10721484D01*
X2731729Y-10721484D02*
X2798396Y-10864341D01*
X2798396Y-10864341D02*
X2865062Y-10721484D01*
X2865062Y-10721484D02*
X2865062Y-10921484D01*
X3046015Y-10921484D02*
X3046015Y-10816722D01*
X3046015Y-10816722D02*
X3036491Y-10797674D01*
X3036491Y-10797674D02*
X3017443Y-10788150D01*
X3017443Y-10788150D02*
X2979348Y-10788150D01*
X2979348Y-10788150D02*
X2960301Y-10797674D01*
X3046015Y-10911960D02*
X3026967Y-10921484D01*
X3026967Y-10921484D02*
X2979348Y-10921484D01*
X2979348Y-10921484D02*
X2960301Y-10911960D01*
X2960301Y-10911960D02*
X2950777Y-10892912D01*
X2950777Y-10892912D02*
X2950777Y-10873865D01*
X2950777Y-10873865D02*
X2960301Y-10854817D01*
X2960301Y-10854817D02*
X2979348Y-10845293D01*
X2979348Y-10845293D02*
X3026967Y-10845293D01*
X3026967Y-10845293D02*
X3046015Y-10835770D01*
X3141253Y-10788150D02*
X3141253Y-10988150D01*
X3141253Y-10797674D02*
X3160301Y-10788150D01*
X3160301Y-10788150D02*
X3198396Y-10788150D01*
X3198396Y-10788150D02*
X3217443Y-10797674D01*
X3217443Y-10797674D02*
X3226967Y-10807198D01*
X3226967Y-10807198D02*
X3236491Y-10826246D01*
X3236491Y-10826246D02*
X3236491Y-10883389D01*
X3236491Y-10883389D02*
X3226967Y-10902436D01*
X3226967Y-10902436D02*
X3217443Y-10911960D01*
X3217443Y-10911960D02*
X3198396Y-10921484D01*
X3198396Y-10921484D02*
X3160301Y-10921484D01*
X3160301Y-10921484D02*
X3141253Y-10911960D01*
X3322205Y-10902436D02*
X3331729Y-10911960D01*
X3331729Y-10911960D02*
X3322205Y-10921484D01*
X3322205Y-10921484D02*
X3312682Y-10911960D01*
X3312682Y-10911960D02*
X3322205Y-10902436D01*
X3322205Y-10902436D02*
X3322205Y-10921484D01*
X3322205Y-10797674D02*
X3331729Y-10807198D01*
X3331729Y-10807198D02*
X3322205Y-10816722D01*
X3322205Y-10816722D02*
X3312682Y-10807198D01*
X3312682Y-10807198D02*
X3322205Y-10797674D01*
X3322205Y-10797674D02*
X3322205Y-10816722D01*
D11*
X1570000Y-11190000D02*
X1690000Y-11310000D01*
X1690000Y-11190000D02*
X1570000Y-11310000D01*
D10*
X2055539Y-11341484D02*
X1941253Y-11341484D01*
X1998396Y-11341484D02*
X1998396Y-11141484D01*
X1998396Y-11141484D02*
X1979348Y-11170055D01*
X1979348Y-11170055D02*
X1960301Y-11189103D01*
X1960301Y-11189103D02*
X1941253Y-11198627D01*
X2141253Y-11322436D02*
X2150777Y-11331960D01*
X2150777Y-11331960D02*
X2141253Y-11341484D01*
X2141253Y-11341484D02*
X2131729Y-11331960D01*
X2131729Y-11331960D02*
X2141253Y-11322436D01*
X2141253Y-11322436D02*
X2141253Y-11341484D01*
X2226967Y-11160531D02*
X2236491Y-11151008D01*
X2236491Y-11151008D02*
X2255539Y-11141484D01*
X2255539Y-11141484D02*
X2303158Y-11141484D01*
X2303158Y-11141484D02*
X2322205Y-11151008D01*
X2322205Y-11151008D02*
X2331729Y-11160531D01*
X2331729Y-11160531D02*
X2341253Y-11179579D01*
X2341253Y-11179579D02*
X2341253Y-11198627D01*
X2341253Y-11198627D02*
X2331729Y-11227198D01*
X2331729Y-11227198D02*
X2217444Y-11341484D01*
X2217444Y-11341484D02*
X2341253Y-11341484D01*
X2465063Y-11141484D02*
X2484110Y-11141484D01*
X2484110Y-11141484D02*
X2503158Y-11151008D01*
X2503158Y-11151008D02*
X2512682Y-11160531D01*
X2512682Y-11160531D02*
X2522205Y-11179579D01*
X2522205Y-11179579D02*
X2531729Y-11217674D01*
X2531729Y-11217674D02*
X2531729Y-11265293D01*
X2531729Y-11265293D02*
X2522205Y-11303388D01*
X2522205Y-11303388D02*
X2512682Y-11322436D01*
X2512682Y-11322436D02*
X2503158Y-11331960D01*
X2503158Y-11331960D02*
X2484110Y-11341484D01*
X2484110Y-11341484D02*
X2465063Y-11341484D01*
X2465063Y-11341484D02*
X2446015Y-11331960D01*
X2446015Y-11331960D02*
X2436491Y-11322436D01*
X2436491Y-11322436D02*
X2426967Y-11303388D01*
X2426967Y-11303388D02*
X2417444Y-11265293D01*
X2417444Y-11265293D02*
X2417444Y-11217674D01*
X2417444Y-11217674D02*
X2426967Y-11179579D01*
X2426967Y-11179579D02*
X2436491Y-11160531D01*
X2436491Y-11160531D02*
X2446015Y-11151008D01*
X2446015Y-11151008D02*
X2465063Y-11141484D01*
X2655539Y-11141484D02*
X2674586Y-11141484D01*
X2674586Y-11141484D02*
X2693634Y-11151008D01*
X2693634Y-11151008D02*
X2703158Y-11160531D01*
X2703158Y-11160531D02*
X2712682Y-11179579D01*
X2712682Y-11179579D02*
X2722205Y-11217674D01*
X2722205Y-11217674D02*
X2722205Y-11265293D01*
X2722205Y-11265293D02*
X2712682Y-11303388D01*
X2712682Y-11303388D02*
X2703158Y-11322436D01*
X2703158Y-11322436D02*
X2693634Y-11331960D01*
X2693634Y-11331960D02*
X2674586Y-11341484D01*
X2674586Y-11341484D02*
X2655539Y-11341484D01*
X2655539Y-11341484D02*
X2636491Y-11331960D01*
X2636491Y-11331960D02*
X2626967Y-11322436D01*
X2626967Y-11322436D02*
X2617444Y-11303388D01*
X2617444Y-11303388D02*
X2607920Y-11265293D01*
X2607920Y-11265293D02*
X2607920Y-11217674D01*
X2607920Y-11217674D02*
X2617444Y-11179579D01*
X2617444Y-11179579D02*
X2626967Y-11160531D01*
X2626967Y-11160531D02*
X2636491Y-11151008D01*
X2636491Y-11151008D02*
X2655539Y-11141484D01*
X2807920Y-11341484D02*
X2807920Y-11208150D01*
X2807920Y-11227198D02*
X2817443Y-11217674D01*
X2817443Y-11217674D02*
X2836491Y-11208150D01*
X2836491Y-11208150D02*
X2865063Y-11208150D01*
X2865063Y-11208150D02*
X2884110Y-11217674D01*
X2884110Y-11217674D02*
X2893634Y-11236722D01*
X2893634Y-11236722D02*
X2893634Y-11341484D01*
X2893634Y-11236722D02*
X2903158Y-11217674D01*
X2903158Y-11217674D02*
X2922205Y-11208150D01*
X2922205Y-11208150D02*
X2950777Y-11208150D01*
X2950777Y-11208150D02*
X2969824Y-11217674D01*
X2969824Y-11217674D02*
X2979348Y-11236722D01*
X2979348Y-11236722D02*
X2979348Y-11341484D01*
X3074586Y-11341484D02*
X3074586Y-11208150D01*
X3074586Y-11227198D02*
X3084110Y-11217674D01*
X3084110Y-11217674D02*
X3103158Y-11208150D01*
X3103158Y-11208150D02*
X3131729Y-11208150D01*
X3131729Y-11208150D02*
X3150777Y-11217674D01*
X3150777Y-11217674D02*
X3160301Y-11236722D01*
X3160301Y-11236722D02*
X3160301Y-11341484D01*
X3160301Y-11236722D02*
X3169824Y-11217674D01*
X3169824Y-11217674D02*
X3188872Y-11208150D01*
X3188872Y-11208150D02*
X3217443Y-11208150D01*
X3217443Y-11208150D02*
X3236491Y-11217674D01*
X3236491Y-11217674D02*
X3246015Y-11236722D01*
X3246015Y-11236722D02*
X3246015Y-11341484D01*
X3636491Y-11131960D02*
X3465063Y-11389103D01*
X3893634Y-11141484D02*
X3912682Y-11141484D01*
X3912682Y-11141484D02*
X3931729Y-11151008D01*
X3931729Y-11151008D02*
X3941253Y-11160531D01*
X3941253Y-11160531D02*
X3950777Y-11179579D01*
X3950777Y-11179579D02*
X3960301Y-11217674D01*
X3960301Y-11217674D02*
X3960301Y-11265293D01*
X3960301Y-11265293D02*
X3950777Y-11303388D01*
X3950777Y-11303388D02*
X3941253Y-11322436D01*
X3941253Y-11322436D02*
X3931729Y-11331960D01*
X3931729Y-11331960D02*
X3912682Y-11341484D01*
X3912682Y-11341484D02*
X3893634Y-11341484D01*
X3893634Y-11341484D02*
X3874586Y-11331960D01*
X3874586Y-11331960D02*
X3865063Y-11322436D01*
X3865063Y-11322436D02*
X3855539Y-11303388D01*
X3855539Y-11303388D02*
X3846015Y-11265293D01*
X3846015Y-11265293D02*
X3846015Y-11217674D01*
X3846015Y-11217674D02*
X3855539Y-11179579D01*
X3855539Y-11179579D02*
X3865063Y-11160531D01*
X3865063Y-11160531D02*
X3874586Y-11151008D01*
X3874586Y-11151008D02*
X3893634Y-11141484D01*
X4046015Y-11322436D02*
X4055539Y-11331960D01*
X4055539Y-11331960D02*
X4046015Y-11341484D01*
X4046015Y-11341484D02*
X4036491Y-11331960D01*
X4036491Y-11331960D02*
X4046015Y-11322436D01*
X4046015Y-11322436D02*
X4046015Y-11341484D01*
X4179348Y-11141484D02*
X4198396Y-11141484D01*
X4198396Y-11141484D02*
X4217444Y-11151008D01*
X4217444Y-11151008D02*
X4226968Y-11160531D01*
X4226968Y-11160531D02*
X4236491Y-11179579D01*
X4236491Y-11179579D02*
X4246015Y-11217674D01*
X4246015Y-11217674D02*
X4246015Y-11265293D01*
X4246015Y-11265293D02*
X4236491Y-11303388D01*
X4236491Y-11303388D02*
X4226968Y-11322436D01*
X4226968Y-11322436D02*
X4217444Y-11331960D01*
X4217444Y-11331960D02*
X4198396Y-11341484D01*
X4198396Y-11341484D02*
X4179348Y-11341484D01*
X4179348Y-11341484D02*
X4160301Y-11331960D01*
X4160301Y-11331960D02*
X4150777Y-11322436D01*
X4150777Y-11322436D02*
X4141253Y-11303388D01*
X4141253Y-11303388D02*
X4131729Y-11265293D01*
X4131729Y-11265293D02*
X4131729Y-11217674D01*
X4131729Y-11217674D02*
X4141253Y-11179579D01*
X4141253Y-11179579D02*
X4150777Y-11160531D01*
X4150777Y-11160531D02*
X4160301Y-11151008D01*
X4160301Y-11151008D02*
X4179348Y-11141484D01*
X4417444Y-11208150D02*
X4417444Y-11341484D01*
X4369825Y-11131960D02*
X4322206Y-11274817D01*
X4322206Y-11274817D02*
X4446015Y-11274817D01*
X4503158Y-11141484D02*
X4636491Y-11141484D01*
X4636491Y-11141484D02*
X4550777Y-11341484D01*
X4703158Y-11160531D02*
X4712682Y-11151008D01*
X4712682Y-11151008D02*
X4731729Y-11141484D01*
X4731729Y-11141484D02*
X4779349Y-11141484D01*
X4779349Y-11141484D02*
X4798396Y-11151008D01*
X4798396Y-11151008D02*
X4807920Y-11160531D01*
X4807920Y-11160531D02*
X4817444Y-11179579D01*
X4817444Y-11179579D02*
X4817444Y-11198627D01*
X4817444Y-11198627D02*
X4807920Y-11227198D01*
X4807920Y-11227198D02*
X4693634Y-11341484D01*
X4693634Y-11341484D02*
X4817444Y-11341484D01*
X4893634Y-11141484D02*
X4893634Y-11179579D01*
X4969825Y-11141484D02*
X4969825Y-11179579D01*
X5265063Y-11417674D02*
X5255539Y-11408150D01*
X5255539Y-11408150D02*
X5236491Y-11379579D01*
X5236491Y-11379579D02*
X5226968Y-11360531D01*
X5226968Y-11360531D02*
X5217444Y-11331960D01*
X5217444Y-11331960D02*
X5207920Y-11284341D01*
X5207920Y-11284341D02*
X5207920Y-11246246D01*
X5207920Y-11246246D02*
X5217444Y-11198627D01*
X5217444Y-11198627D02*
X5226968Y-11170055D01*
X5226968Y-11170055D02*
X5236491Y-11151008D01*
X5236491Y-11151008D02*
X5255539Y-11122436D01*
X5255539Y-11122436D02*
X5265063Y-11112912D01*
X5322206Y-11141484D02*
X5446015Y-11141484D01*
X5446015Y-11141484D02*
X5379349Y-11217674D01*
X5379349Y-11217674D02*
X5407920Y-11217674D01*
X5407920Y-11217674D02*
X5426968Y-11227198D01*
X5426968Y-11227198D02*
X5436491Y-11236722D01*
X5436491Y-11236722D02*
X5446015Y-11255769D01*
X5446015Y-11255769D02*
X5446015Y-11303388D01*
X5446015Y-11303388D02*
X5436491Y-11322436D01*
X5436491Y-11322436D02*
X5426968Y-11331960D01*
X5426968Y-11331960D02*
X5407920Y-11341484D01*
X5407920Y-11341484D02*
X5350777Y-11341484D01*
X5350777Y-11341484D02*
X5331730Y-11331960D01*
X5331730Y-11331960D02*
X5322206Y-11322436D01*
X5684110Y-11341484D02*
X5684110Y-11141484D01*
X5769825Y-11341484D02*
X5769825Y-11236722D01*
X5769825Y-11236722D02*
X5760301Y-11217674D01*
X5760301Y-11217674D02*
X5741253Y-11208150D01*
X5741253Y-11208150D02*
X5712682Y-11208150D01*
X5712682Y-11208150D02*
X5693634Y-11217674D01*
X5693634Y-11217674D02*
X5684110Y-11227198D01*
X5893634Y-11341484D02*
X5874587Y-11331960D01*
X5874587Y-11331960D02*
X5865063Y-11322436D01*
X5865063Y-11322436D02*
X5855539Y-11303388D01*
X5855539Y-11303388D02*
X5855539Y-11246246D01*
X5855539Y-11246246D02*
X5865063Y-11227198D01*
X5865063Y-11227198D02*
X5874587Y-11217674D01*
X5874587Y-11217674D02*
X5893634Y-11208150D01*
X5893634Y-11208150D02*
X5922206Y-11208150D01*
X5922206Y-11208150D02*
X5941253Y-11217674D01*
X5941253Y-11217674D02*
X5950777Y-11227198D01*
X5950777Y-11227198D02*
X5960301Y-11246246D01*
X5960301Y-11246246D02*
X5960301Y-11303388D01*
X5960301Y-11303388D02*
X5950777Y-11322436D01*
X5950777Y-11322436D02*
X5941253Y-11331960D01*
X5941253Y-11331960D02*
X5922206Y-11341484D01*
X5922206Y-11341484D02*
X5893634Y-11341484D01*
X6074587Y-11341484D02*
X6055539Y-11331960D01*
X6055539Y-11331960D02*
X6046015Y-11312912D01*
X6046015Y-11312912D02*
X6046015Y-11141484D01*
X6226968Y-11331960D02*
X6207920Y-11341484D01*
X6207920Y-11341484D02*
X6169825Y-11341484D01*
X6169825Y-11341484D02*
X6150777Y-11331960D01*
X6150777Y-11331960D02*
X6141253Y-11312912D01*
X6141253Y-11312912D02*
X6141253Y-11236722D01*
X6141253Y-11236722D02*
X6150777Y-11217674D01*
X6150777Y-11217674D02*
X6169825Y-11208150D01*
X6169825Y-11208150D02*
X6207920Y-11208150D01*
X6207920Y-11208150D02*
X6226968Y-11217674D01*
X6226968Y-11217674D02*
X6236491Y-11236722D01*
X6236491Y-11236722D02*
X6236491Y-11255769D01*
X6236491Y-11255769D02*
X6141253Y-11274817D01*
X6312682Y-11331960D02*
X6331730Y-11341484D01*
X6331730Y-11341484D02*
X6369825Y-11341484D01*
X6369825Y-11341484D02*
X6388872Y-11331960D01*
X6388872Y-11331960D02*
X6398396Y-11312912D01*
X6398396Y-11312912D02*
X6398396Y-11303388D01*
X6398396Y-11303388D02*
X6388872Y-11284341D01*
X6388872Y-11284341D02*
X6369825Y-11274817D01*
X6369825Y-11274817D02*
X6341253Y-11274817D01*
X6341253Y-11274817D02*
X6322206Y-11265293D01*
X6322206Y-11265293D02*
X6312682Y-11246246D01*
X6312682Y-11246246D02*
X6312682Y-11236722D01*
X6312682Y-11236722D02*
X6322206Y-11217674D01*
X6322206Y-11217674D02*
X6341253Y-11208150D01*
X6341253Y-11208150D02*
X6369825Y-11208150D01*
X6369825Y-11208150D02*
X6388872Y-11217674D01*
X6465063Y-11417674D02*
X6474587Y-11408150D01*
X6474587Y-11408150D02*
X6493634Y-11379579D01*
X6493634Y-11379579D02*
X6503158Y-11360531D01*
X6503158Y-11360531D02*
X6512682Y-11331960D01*
X6512682Y-11331960D02*
X6522206Y-11284341D01*
X6522206Y-11284341D02*
X6522206Y-11246246D01*
X6522206Y-11246246D02*
X6512682Y-11198627D01*
X6512682Y-11198627D02*
X6503158Y-11170055D01*
X6503158Y-11170055D02*
X6493634Y-11151008D01*
X6493634Y-11151008D02*
X6474587Y-11122436D01*
X6474587Y-11122436D02*
X6465063Y-11112912D01*
X6826968Y-11417674D02*
X6817444Y-11408150D01*
X6817444Y-11408150D02*
X6798396Y-11379579D01*
X6798396Y-11379579D02*
X6788872Y-11360531D01*
X6788872Y-11360531D02*
X6779349Y-11331960D01*
X6779349Y-11331960D02*
X6769825Y-11284341D01*
X6769825Y-11284341D02*
X6769825Y-11246246D01*
X6769825Y-11246246D02*
X6779349Y-11198627D01*
X6779349Y-11198627D02*
X6788872Y-11170055D01*
X6788872Y-11170055D02*
X6798396Y-11151008D01*
X6798396Y-11151008D02*
X6817444Y-11122436D01*
X6817444Y-11122436D02*
X6826968Y-11112912D01*
X6903158Y-11208150D02*
X6903158Y-11341484D01*
X6903158Y-11227198D02*
X6912682Y-11217674D01*
X6912682Y-11217674D02*
X6931730Y-11208150D01*
X6931730Y-11208150D02*
X6960301Y-11208150D01*
X6960301Y-11208150D02*
X6979349Y-11217674D01*
X6979349Y-11217674D02*
X6988872Y-11236722D01*
X6988872Y-11236722D02*
X6988872Y-11341484D01*
X7112682Y-11341484D02*
X7093634Y-11331960D01*
X7093634Y-11331960D02*
X7084111Y-11322436D01*
X7084111Y-11322436D02*
X7074587Y-11303388D01*
X7074587Y-11303388D02*
X7074587Y-11246246D01*
X7074587Y-11246246D02*
X7084111Y-11227198D01*
X7084111Y-11227198D02*
X7093634Y-11217674D01*
X7093634Y-11217674D02*
X7112682Y-11208150D01*
X7112682Y-11208150D02*
X7141253Y-11208150D01*
X7141253Y-11208150D02*
X7160301Y-11217674D01*
X7160301Y-11217674D02*
X7169825Y-11227198D01*
X7169825Y-11227198D02*
X7179349Y-11246246D01*
X7179349Y-11246246D02*
X7179349Y-11303388D01*
X7179349Y-11303388D02*
X7169825Y-11322436D01*
X7169825Y-11322436D02*
X7160301Y-11331960D01*
X7160301Y-11331960D02*
X7141253Y-11341484D01*
X7141253Y-11341484D02*
X7112682Y-11341484D01*
X7236492Y-11208150D02*
X7312682Y-11208150D01*
X7265063Y-11141484D02*
X7265063Y-11312912D01*
X7265063Y-11312912D02*
X7274587Y-11331960D01*
X7274587Y-11331960D02*
X7293634Y-11341484D01*
X7293634Y-11341484D02*
X7312682Y-11341484D01*
X7531730Y-11208150D02*
X7531730Y-11408150D01*
X7531730Y-11217674D02*
X7550777Y-11208150D01*
X7550777Y-11208150D02*
X7588873Y-11208150D01*
X7588873Y-11208150D02*
X7607920Y-11217674D01*
X7607920Y-11217674D02*
X7617444Y-11227198D01*
X7617444Y-11227198D02*
X7626968Y-11246246D01*
X7626968Y-11246246D02*
X7626968Y-11303388D01*
X7626968Y-11303388D02*
X7617444Y-11322436D01*
X7617444Y-11322436D02*
X7607920Y-11331960D01*
X7607920Y-11331960D02*
X7588873Y-11341484D01*
X7588873Y-11341484D02*
X7550777Y-11341484D01*
X7550777Y-11341484D02*
X7531730Y-11331960D01*
X7741253Y-11341484D02*
X7722206Y-11331960D01*
X7722206Y-11331960D02*
X7712682Y-11312912D01*
X7712682Y-11312912D02*
X7712682Y-11141484D01*
X7903158Y-11341484D02*
X7903158Y-11236722D01*
X7903158Y-11236722D02*
X7893634Y-11217674D01*
X7893634Y-11217674D02*
X7874587Y-11208150D01*
X7874587Y-11208150D02*
X7836492Y-11208150D01*
X7836492Y-11208150D02*
X7817444Y-11217674D01*
X7903158Y-11331960D02*
X7884111Y-11341484D01*
X7884111Y-11341484D02*
X7836492Y-11341484D01*
X7836492Y-11341484D02*
X7817444Y-11331960D01*
X7817444Y-11331960D02*
X7807920Y-11312912D01*
X7807920Y-11312912D02*
X7807920Y-11293865D01*
X7807920Y-11293865D02*
X7817444Y-11274817D01*
X7817444Y-11274817D02*
X7836492Y-11265293D01*
X7836492Y-11265293D02*
X7884111Y-11265293D01*
X7884111Y-11265293D02*
X7903158Y-11255769D01*
X7969825Y-11208150D02*
X8046015Y-11208150D01*
X7998396Y-11141484D02*
X7998396Y-11312912D01*
X7998396Y-11312912D02*
X8007920Y-11331960D01*
X8007920Y-11331960D02*
X8026968Y-11341484D01*
X8026968Y-11341484D02*
X8046015Y-11341484D01*
X8188873Y-11331960D02*
X8169825Y-11341484D01*
X8169825Y-11341484D02*
X8131730Y-11341484D01*
X8131730Y-11341484D02*
X8112682Y-11331960D01*
X8112682Y-11331960D02*
X8103158Y-11312912D01*
X8103158Y-11312912D02*
X8103158Y-11236722D01*
X8103158Y-11236722D02*
X8112682Y-11217674D01*
X8112682Y-11217674D02*
X8131730Y-11208150D01*
X8131730Y-11208150D02*
X8169825Y-11208150D01*
X8169825Y-11208150D02*
X8188873Y-11217674D01*
X8188873Y-11217674D02*
X8198396Y-11236722D01*
X8198396Y-11236722D02*
X8198396Y-11255769D01*
X8198396Y-11255769D02*
X8103158Y-11274817D01*
X8369825Y-11341484D02*
X8369825Y-11141484D01*
X8369825Y-11331960D02*
X8350777Y-11341484D01*
X8350777Y-11341484D02*
X8312682Y-11341484D01*
X8312682Y-11341484D02*
X8293634Y-11331960D01*
X8293634Y-11331960D02*
X8284111Y-11322436D01*
X8284111Y-11322436D02*
X8274587Y-11303388D01*
X8274587Y-11303388D02*
X8274587Y-11246246D01*
X8274587Y-11246246D02*
X8284111Y-11227198D01*
X8284111Y-11227198D02*
X8293634Y-11217674D01*
X8293634Y-11217674D02*
X8312682Y-11208150D01*
X8312682Y-11208150D02*
X8350777Y-11208150D01*
X8350777Y-11208150D02*
X8369825Y-11217674D01*
X8446016Y-11417674D02*
X8455539Y-11408150D01*
X8455539Y-11408150D02*
X8474587Y-11379579D01*
X8474587Y-11379579D02*
X8484111Y-11360531D01*
X8484111Y-11360531D02*
X8493635Y-11331960D01*
X8493635Y-11331960D02*
X8503158Y-11284341D01*
X8503158Y-11284341D02*
X8503158Y-11246246D01*
X8503158Y-11246246D02*
X8493635Y-11198627D01*
X8493635Y-11198627D02*
X8484111Y-11170055D01*
X8484111Y-11170055D02*
X8474587Y-11151008D01*
X8474587Y-11151008D02*
X8455539Y-11122436D01*
X8455539Y-11122436D02*
X8446016Y-11112912D01*
X1690000Y-11514000D02*
G75*
G02*
X1490000Y-11514000I-100000J0D01*
G01*
X1490000Y-11514000D02*
G75*
G02*
X1690000Y-11514000I100000J0D01*
G01*
X1931729Y-11405484D02*
X2055539Y-11405484D01*
X2055539Y-11405484D02*
X1988872Y-11481674D01*
X1988872Y-11481674D02*
X2017443Y-11481674D01*
X2017443Y-11481674D02*
X2036491Y-11491198D01*
X2036491Y-11491198D02*
X2046015Y-11500722D01*
X2046015Y-11500722D02*
X2055539Y-11519769D01*
X2055539Y-11519769D02*
X2055539Y-11567388D01*
X2055539Y-11567388D02*
X2046015Y-11586436D01*
X2046015Y-11586436D02*
X2036491Y-11595960D01*
X2036491Y-11595960D02*
X2017443Y-11605484D01*
X2017443Y-11605484D02*
X1960301Y-11605484D01*
X1960301Y-11605484D02*
X1941253Y-11595960D01*
X1941253Y-11595960D02*
X1931729Y-11586436D01*
X2141253Y-11586436D02*
X2150777Y-11595960D01*
X2150777Y-11595960D02*
X2141253Y-11605484D01*
X2141253Y-11605484D02*
X2131729Y-11595960D01*
X2131729Y-11595960D02*
X2141253Y-11586436D01*
X2141253Y-11586436D02*
X2141253Y-11605484D01*
X2217444Y-11405484D02*
X2341253Y-11405484D01*
X2341253Y-11405484D02*
X2274586Y-11481674D01*
X2274586Y-11481674D02*
X2303158Y-11481674D01*
X2303158Y-11481674D02*
X2322205Y-11491198D01*
X2322205Y-11491198D02*
X2331729Y-11500722D01*
X2331729Y-11500722D02*
X2341253Y-11519769D01*
X2341253Y-11519769D02*
X2341253Y-11567388D01*
X2341253Y-11567388D02*
X2331729Y-11586436D01*
X2331729Y-11586436D02*
X2322205Y-11595960D01*
X2322205Y-11595960D02*
X2303158Y-11605484D01*
X2303158Y-11605484D02*
X2246015Y-11605484D01*
X2246015Y-11605484D02*
X2226967Y-11595960D01*
X2226967Y-11595960D02*
X2217444Y-11586436D01*
X2522205Y-11405484D02*
X2426967Y-11405484D01*
X2426967Y-11405484D02*
X2417444Y-11500722D01*
X2417444Y-11500722D02*
X2426967Y-11491198D01*
X2426967Y-11491198D02*
X2446015Y-11481674D01*
X2446015Y-11481674D02*
X2493634Y-11481674D01*
X2493634Y-11481674D02*
X2512682Y-11491198D01*
X2512682Y-11491198D02*
X2522205Y-11500722D01*
X2522205Y-11500722D02*
X2531729Y-11519769D01*
X2531729Y-11519769D02*
X2531729Y-11567388D01*
X2531729Y-11567388D02*
X2522205Y-11586436D01*
X2522205Y-11586436D02*
X2512682Y-11595960D01*
X2512682Y-11595960D02*
X2493634Y-11605484D01*
X2493634Y-11605484D02*
X2446015Y-11605484D01*
X2446015Y-11605484D02*
X2426967Y-11595960D01*
X2426967Y-11595960D02*
X2417444Y-11586436D01*
X2655539Y-11405484D02*
X2674586Y-11405484D01*
X2674586Y-11405484D02*
X2693634Y-11415008D01*
X2693634Y-11415008D02*
X2703158Y-11424531D01*
X2703158Y-11424531D02*
X2712682Y-11443579D01*
X2712682Y-11443579D02*
X2722205Y-11481674D01*
X2722205Y-11481674D02*
X2722205Y-11529293D01*
X2722205Y-11529293D02*
X2712682Y-11567388D01*
X2712682Y-11567388D02*
X2703158Y-11586436D01*
X2703158Y-11586436D02*
X2693634Y-11595960D01*
X2693634Y-11595960D02*
X2674586Y-11605484D01*
X2674586Y-11605484D02*
X2655539Y-11605484D01*
X2655539Y-11605484D02*
X2636491Y-11595960D01*
X2636491Y-11595960D02*
X2626967Y-11586436D01*
X2626967Y-11586436D02*
X2617444Y-11567388D01*
X2617444Y-11567388D02*
X2607920Y-11529293D01*
X2607920Y-11529293D02*
X2607920Y-11481674D01*
X2607920Y-11481674D02*
X2617444Y-11443579D01*
X2617444Y-11443579D02*
X2626967Y-11424531D01*
X2626967Y-11424531D02*
X2636491Y-11415008D01*
X2636491Y-11415008D02*
X2655539Y-11405484D01*
X2807920Y-11605484D02*
X2807920Y-11472150D01*
X2807920Y-11491198D02*
X2817443Y-11481674D01*
X2817443Y-11481674D02*
X2836491Y-11472150D01*
X2836491Y-11472150D02*
X2865063Y-11472150D01*
X2865063Y-11472150D02*
X2884110Y-11481674D01*
X2884110Y-11481674D02*
X2893634Y-11500722D01*
X2893634Y-11500722D02*
X2893634Y-11605484D01*
X2893634Y-11500722D02*
X2903158Y-11481674D01*
X2903158Y-11481674D02*
X2922205Y-11472150D01*
X2922205Y-11472150D02*
X2950777Y-11472150D01*
X2950777Y-11472150D02*
X2969824Y-11481674D01*
X2969824Y-11481674D02*
X2979348Y-11500722D01*
X2979348Y-11500722D02*
X2979348Y-11605484D01*
X3074586Y-11605484D02*
X3074586Y-11472150D01*
X3074586Y-11491198D02*
X3084110Y-11481674D01*
X3084110Y-11481674D02*
X3103158Y-11472150D01*
X3103158Y-11472150D02*
X3131729Y-11472150D01*
X3131729Y-11472150D02*
X3150777Y-11481674D01*
X3150777Y-11481674D02*
X3160301Y-11500722D01*
X3160301Y-11500722D02*
X3160301Y-11605484D01*
X3160301Y-11500722D02*
X3169824Y-11481674D01*
X3169824Y-11481674D02*
X3188872Y-11472150D01*
X3188872Y-11472150D02*
X3217443Y-11472150D01*
X3217443Y-11472150D02*
X3236491Y-11481674D01*
X3236491Y-11481674D02*
X3246015Y-11500722D01*
X3246015Y-11500722D02*
X3246015Y-11605484D01*
X3636491Y-11395960D02*
X3465063Y-11653103D01*
X3893634Y-11405484D02*
X3912682Y-11405484D01*
X3912682Y-11405484D02*
X3931729Y-11415008D01*
X3931729Y-11415008D02*
X3941253Y-11424531D01*
X3941253Y-11424531D02*
X3950777Y-11443579D01*
X3950777Y-11443579D02*
X3960301Y-11481674D01*
X3960301Y-11481674D02*
X3960301Y-11529293D01*
X3960301Y-11529293D02*
X3950777Y-11567388D01*
X3950777Y-11567388D02*
X3941253Y-11586436D01*
X3941253Y-11586436D02*
X3931729Y-11595960D01*
X3931729Y-11595960D02*
X3912682Y-11605484D01*
X3912682Y-11605484D02*
X3893634Y-11605484D01*
X3893634Y-11605484D02*
X3874586Y-11595960D01*
X3874586Y-11595960D02*
X3865063Y-11586436D01*
X3865063Y-11586436D02*
X3855539Y-11567388D01*
X3855539Y-11567388D02*
X3846015Y-11529293D01*
X3846015Y-11529293D02*
X3846015Y-11481674D01*
X3846015Y-11481674D02*
X3855539Y-11443579D01*
X3855539Y-11443579D02*
X3865063Y-11424531D01*
X3865063Y-11424531D02*
X3874586Y-11415008D01*
X3874586Y-11415008D02*
X3893634Y-11405484D01*
X4046015Y-11586436D02*
X4055539Y-11595960D01*
X4055539Y-11595960D02*
X4046015Y-11605484D01*
X4046015Y-11605484D02*
X4036491Y-11595960D01*
X4036491Y-11595960D02*
X4046015Y-11586436D01*
X4046015Y-11586436D02*
X4046015Y-11605484D01*
X4246015Y-11605484D02*
X4131729Y-11605484D01*
X4188872Y-11605484D02*
X4188872Y-11405484D01*
X4188872Y-11405484D02*
X4169825Y-11434055D01*
X4169825Y-11434055D02*
X4150777Y-11453103D01*
X4150777Y-11453103D02*
X4131729Y-11462627D01*
X4312682Y-11405484D02*
X4436491Y-11405484D01*
X4436491Y-11405484D02*
X4369825Y-11481674D01*
X4369825Y-11481674D02*
X4398396Y-11481674D01*
X4398396Y-11481674D02*
X4417444Y-11491198D01*
X4417444Y-11491198D02*
X4426968Y-11500722D01*
X4426968Y-11500722D02*
X4436491Y-11519769D01*
X4436491Y-11519769D02*
X4436491Y-11567388D01*
X4436491Y-11567388D02*
X4426968Y-11586436D01*
X4426968Y-11586436D02*
X4417444Y-11595960D01*
X4417444Y-11595960D02*
X4398396Y-11605484D01*
X4398396Y-11605484D02*
X4341253Y-11605484D01*
X4341253Y-11605484D02*
X4322206Y-11595960D01*
X4322206Y-11595960D02*
X4312682Y-11586436D01*
X4626968Y-11605484D02*
X4512682Y-11605484D01*
X4569825Y-11605484D02*
X4569825Y-11405484D01*
X4569825Y-11405484D02*
X4550777Y-11434055D01*
X4550777Y-11434055D02*
X4531729Y-11453103D01*
X4531729Y-11453103D02*
X4512682Y-11462627D01*
X4722206Y-11605484D02*
X4760301Y-11605484D01*
X4760301Y-11605484D02*
X4779349Y-11595960D01*
X4779349Y-11595960D02*
X4788872Y-11586436D01*
X4788872Y-11586436D02*
X4807920Y-11557865D01*
X4807920Y-11557865D02*
X4817444Y-11519769D01*
X4817444Y-11519769D02*
X4817444Y-11443579D01*
X4817444Y-11443579D02*
X4807920Y-11424531D01*
X4807920Y-11424531D02*
X4798396Y-11415008D01*
X4798396Y-11415008D02*
X4779349Y-11405484D01*
X4779349Y-11405484D02*
X4741253Y-11405484D01*
X4741253Y-11405484D02*
X4722206Y-11415008D01*
X4722206Y-11415008D02*
X4712682Y-11424531D01*
X4712682Y-11424531D02*
X4703158Y-11443579D01*
X4703158Y-11443579D02*
X4703158Y-11491198D01*
X4703158Y-11491198D02*
X4712682Y-11510246D01*
X4712682Y-11510246D02*
X4722206Y-11519769D01*
X4722206Y-11519769D02*
X4741253Y-11529293D01*
X4741253Y-11529293D02*
X4779349Y-11529293D01*
X4779349Y-11529293D02*
X4798396Y-11519769D01*
X4798396Y-11519769D02*
X4807920Y-11510246D01*
X4807920Y-11510246D02*
X4817444Y-11491198D01*
X4893634Y-11405484D02*
X4893634Y-11443579D01*
X4969825Y-11405484D02*
X4969825Y-11443579D01*
X5265063Y-11681674D02*
X5255539Y-11672150D01*
X5255539Y-11672150D02*
X5236491Y-11643579D01*
X5236491Y-11643579D02*
X5226968Y-11624531D01*
X5226968Y-11624531D02*
X5217444Y-11595960D01*
X5217444Y-11595960D02*
X5207920Y-11548341D01*
X5207920Y-11548341D02*
X5207920Y-11510246D01*
X5207920Y-11510246D02*
X5217444Y-11462627D01*
X5217444Y-11462627D02*
X5226968Y-11434055D01*
X5226968Y-11434055D02*
X5236491Y-11415008D01*
X5236491Y-11415008D02*
X5255539Y-11386436D01*
X5255539Y-11386436D02*
X5265063Y-11376912D01*
X5426968Y-11472150D02*
X5426968Y-11605484D01*
X5379349Y-11395960D02*
X5331730Y-11538817D01*
X5331730Y-11538817D02*
X5455539Y-11538817D01*
X5684110Y-11605484D02*
X5684110Y-11405484D01*
X5769825Y-11605484D02*
X5769825Y-11500722D01*
X5769825Y-11500722D02*
X5760301Y-11481674D01*
X5760301Y-11481674D02*
X5741253Y-11472150D01*
X5741253Y-11472150D02*
X5712682Y-11472150D01*
X5712682Y-11472150D02*
X5693634Y-11481674D01*
X5693634Y-11481674D02*
X5684110Y-11491198D01*
X5893634Y-11605484D02*
X5874587Y-11595960D01*
X5874587Y-11595960D02*
X5865063Y-11586436D01*
X5865063Y-11586436D02*
X5855539Y-11567388D01*
X5855539Y-11567388D02*
X5855539Y-11510246D01*
X5855539Y-11510246D02*
X5865063Y-11491198D01*
X5865063Y-11491198D02*
X5874587Y-11481674D01*
X5874587Y-11481674D02*
X5893634Y-11472150D01*
X5893634Y-11472150D02*
X5922206Y-11472150D01*
X5922206Y-11472150D02*
X5941253Y-11481674D01*
X5941253Y-11481674D02*
X5950777Y-11491198D01*
X5950777Y-11491198D02*
X5960301Y-11510246D01*
X5960301Y-11510246D02*
X5960301Y-11567388D01*
X5960301Y-11567388D02*
X5950777Y-11586436D01*
X5950777Y-11586436D02*
X5941253Y-11595960D01*
X5941253Y-11595960D02*
X5922206Y-11605484D01*
X5922206Y-11605484D02*
X5893634Y-11605484D01*
X6074587Y-11605484D02*
X6055539Y-11595960D01*
X6055539Y-11595960D02*
X6046015Y-11576912D01*
X6046015Y-11576912D02*
X6046015Y-11405484D01*
X6226968Y-11595960D02*
X6207920Y-11605484D01*
X6207920Y-11605484D02*
X6169825Y-11605484D01*
X6169825Y-11605484D02*
X6150777Y-11595960D01*
X6150777Y-11595960D02*
X6141253Y-11576912D01*
X6141253Y-11576912D02*
X6141253Y-11500722D01*
X6141253Y-11500722D02*
X6150777Y-11481674D01*
X6150777Y-11481674D02*
X6169825Y-11472150D01*
X6169825Y-11472150D02*
X6207920Y-11472150D01*
X6207920Y-11472150D02*
X6226968Y-11481674D01*
X6226968Y-11481674D02*
X6236491Y-11500722D01*
X6236491Y-11500722D02*
X6236491Y-11519769D01*
X6236491Y-11519769D02*
X6141253Y-11538817D01*
X6312682Y-11595960D02*
X6331730Y-11605484D01*
X6331730Y-11605484D02*
X6369825Y-11605484D01*
X6369825Y-11605484D02*
X6388872Y-11595960D01*
X6388872Y-11595960D02*
X6398396Y-11576912D01*
X6398396Y-11576912D02*
X6398396Y-11567388D01*
X6398396Y-11567388D02*
X6388872Y-11548341D01*
X6388872Y-11548341D02*
X6369825Y-11538817D01*
X6369825Y-11538817D02*
X6341253Y-11538817D01*
X6341253Y-11538817D02*
X6322206Y-11529293D01*
X6322206Y-11529293D02*
X6312682Y-11510246D01*
X6312682Y-11510246D02*
X6312682Y-11500722D01*
X6312682Y-11500722D02*
X6322206Y-11481674D01*
X6322206Y-11481674D02*
X6341253Y-11472150D01*
X6341253Y-11472150D02*
X6369825Y-11472150D01*
X6369825Y-11472150D02*
X6388872Y-11481674D01*
X6465063Y-11681674D02*
X6474587Y-11672150D01*
X6474587Y-11672150D02*
X6493634Y-11643579D01*
X6493634Y-11643579D02*
X6503158Y-11624531D01*
X6503158Y-11624531D02*
X6512682Y-11595960D01*
X6512682Y-11595960D02*
X6522206Y-11548341D01*
X6522206Y-11548341D02*
X6522206Y-11510246D01*
X6522206Y-11510246D02*
X6512682Y-11462627D01*
X6512682Y-11462627D02*
X6503158Y-11434055D01*
X6503158Y-11434055D02*
X6493634Y-11415008D01*
X6493634Y-11415008D02*
X6474587Y-11386436D01*
X6474587Y-11386436D02*
X6465063Y-11376912D01*
X6826968Y-11681674D02*
X6817444Y-11672150D01*
X6817444Y-11672150D02*
X6798396Y-11643579D01*
X6798396Y-11643579D02*
X6788872Y-11624531D01*
X6788872Y-11624531D02*
X6779349Y-11595960D01*
X6779349Y-11595960D02*
X6769825Y-11548341D01*
X6769825Y-11548341D02*
X6769825Y-11510246D01*
X6769825Y-11510246D02*
X6779349Y-11462627D01*
X6779349Y-11462627D02*
X6788872Y-11434055D01*
X6788872Y-11434055D02*
X6798396Y-11415008D01*
X6798396Y-11415008D02*
X6817444Y-11386436D01*
X6817444Y-11386436D02*
X6826968Y-11376912D01*
X6903158Y-11472150D02*
X6903158Y-11605484D01*
X6903158Y-11491198D02*
X6912682Y-11481674D01*
X6912682Y-11481674D02*
X6931730Y-11472150D01*
X6931730Y-11472150D02*
X6960301Y-11472150D01*
X6960301Y-11472150D02*
X6979349Y-11481674D01*
X6979349Y-11481674D02*
X6988872Y-11500722D01*
X6988872Y-11500722D02*
X6988872Y-11605484D01*
X7112682Y-11605484D02*
X7093634Y-11595960D01*
X7093634Y-11595960D02*
X7084111Y-11586436D01*
X7084111Y-11586436D02*
X7074587Y-11567388D01*
X7074587Y-11567388D02*
X7074587Y-11510246D01*
X7074587Y-11510246D02*
X7084111Y-11491198D01*
X7084111Y-11491198D02*
X7093634Y-11481674D01*
X7093634Y-11481674D02*
X7112682Y-11472150D01*
X7112682Y-11472150D02*
X7141253Y-11472150D01*
X7141253Y-11472150D02*
X7160301Y-11481674D01*
X7160301Y-11481674D02*
X7169825Y-11491198D01*
X7169825Y-11491198D02*
X7179349Y-11510246D01*
X7179349Y-11510246D02*
X7179349Y-11567388D01*
X7179349Y-11567388D02*
X7169825Y-11586436D01*
X7169825Y-11586436D02*
X7160301Y-11595960D01*
X7160301Y-11595960D02*
X7141253Y-11605484D01*
X7141253Y-11605484D02*
X7112682Y-11605484D01*
X7236492Y-11472150D02*
X7312682Y-11472150D01*
X7265063Y-11405484D02*
X7265063Y-11576912D01*
X7265063Y-11576912D02*
X7274587Y-11595960D01*
X7274587Y-11595960D02*
X7293634Y-11605484D01*
X7293634Y-11605484D02*
X7312682Y-11605484D01*
X7531730Y-11472150D02*
X7531730Y-11672150D01*
X7531730Y-11481674D02*
X7550777Y-11472150D01*
X7550777Y-11472150D02*
X7588873Y-11472150D01*
X7588873Y-11472150D02*
X7607920Y-11481674D01*
X7607920Y-11481674D02*
X7617444Y-11491198D01*
X7617444Y-11491198D02*
X7626968Y-11510246D01*
X7626968Y-11510246D02*
X7626968Y-11567388D01*
X7626968Y-11567388D02*
X7617444Y-11586436D01*
X7617444Y-11586436D02*
X7607920Y-11595960D01*
X7607920Y-11595960D02*
X7588873Y-11605484D01*
X7588873Y-11605484D02*
X7550777Y-11605484D01*
X7550777Y-11605484D02*
X7531730Y-11595960D01*
X7741253Y-11605484D02*
X7722206Y-11595960D01*
X7722206Y-11595960D02*
X7712682Y-11576912D01*
X7712682Y-11576912D02*
X7712682Y-11405484D01*
X7903158Y-11605484D02*
X7903158Y-11500722D01*
X7903158Y-11500722D02*
X7893634Y-11481674D01*
X7893634Y-11481674D02*
X7874587Y-11472150D01*
X7874587Y-11472150D02*
X7836492Y-11472150D01*
X7836492Y-11472150D02*
X7817444Y-11481674D01*
X7903158Y-11595960D02*
X7884111Y-11605484D01*
X7884111Y-11605484D02*
X7836492Y-11605484D01*
X7836492Y-11605484D02*
X7817444Y-11595960D01*
X7817444Y-11595960D02*
X7807920Y-11576912D01*
X7807920Y-11576912D02*
X7807920Y-11557865D01*
X7807920Y-11557865D02*
X7817444Y-11538817D01*
X7817444Y-11538817D02*
X7836492Y-11529293D01*
X7836492Y-11529293D02*
X7884111Y-11529293D01*
X7884111Y-11529293D02*
X7903158Y-11519769D01*
X7969825Y-11472150D02*
X8046015Y-11472150D01*
X7998396Y-11405484D02*
X7998396Y-11576912D01*
X7998396Y-11576912D02*
X8007920Y-11595960D01*
X8007920Y-11595960D02*
X8026968Y-11605484D01*
X8026968Y-11605484D02*
X8046015Y-11605484D01*
X8188873Y-11595960D02*
X8169825Y-11605484D01*
X8169825Y-11605484D02*
X8131730Y-11605484D01*
X8131730Y-11605484D02*
X8112682Y-11595960D01*
X8112682Y-11595960D02*
X8103158Y-11576912D01*
X8103158Y-11576912D02*
X8103158Y-11500722D01*
X8103158Y-11500722D02*
X8112682Y-11481674D01*
X8112682Y-11481674D02*
X8131730Y-11472150D01*
X8131730Y-11472150D02*
X8169825Y-11472150D01*
X8169825Y-11472150D02*
X8188873Y-11481674D01*
X8188873Y-11481674D02*
X8198396Y-11500722D01*
X8198396Y-11500722D02*
X8198396Y-11519769D01*
X8198396Y-11519769D02*
X8103158Y-11538817D01*
X8369825Y-11605484D02*
X8369825Y-11405484D01*
X8369825Y-11595960D02*
X8350777Y-11605484D01*
X8350777Y-11605484D02*
X8312682Y-11605484D01*
X8312682Y-11605484D02*
X8293634Y-11595960D01*
X8293634Y-11595960D02*
X8284111Y-11586436D01*
X8284111Y-11586436D02*
X8274587Y-11567388D01*
X8274587Y-11567388D02*
X8274587Y-11510246D01*
X8274587Y-11510246D02*
X8284111Y-11491198D01*
X8284111Y-11491198D02*
X8293634Y-11481674D01*
X8293634Y-11481674D02*
X8312682Y-11472150D01*
X8312682Y-11472150D02*
X8350777Y-11472150D01*
X8350777Y-11472150D02*
X8369825Y-11481674D01*
X8446016Y-11681674D02*
X8455539Y-11672150D01*
X8455539Y-11672150D02*
X8474587Y-11643579D01*
X8474587Y-11643579D02*
X8484111Y-11624531D01*
X8484111Y-11624531D02*
X8493635Y-11595960D01*
X8493635Y-11595960D02*
X8503158Y-11548341D01*
X8503158Y-11548341D02*
X8503158Y-11510246D01*
X8503158Y-11510246D02*
X8493635Y-11462627D01*
X8493635Y-11462627D02*
X8484111Y-11434055D01*
X8484111Y-11434055D02*
X8474587Y-11415008D01*
X8474587Y-11415008D02*
X8455539Y-11386436D01*
X8455539Y-11386436D02*
X8446016Y-11376912D01*
M02*
