%TF.GenerationSoftware,KiCad,Pcbnew,8.0.1-8.0.1-1~ubuntu22.04.1*%
%TF.CreationDate,2024-03-27T01:09:37-04:00*%
%TF.ProjectId,gripper_2024,67726970-7065-4725-9f32-3032342e6b69,rev?*%
%TF.SameCoordinates,Original*%
%TF.FileFunction,Copper,L4,Bot*%
%TF.FilePolarity,Positive*%
%FSLAX46Y46*%
G04 Gerber Fmt 4.6, Leading zero omitted, Abs format (unit mm)*
G04 Created by KiCad (PCBNEW 8.0.1-8.0.1-1~ubuntu22.04.1) date 2024-03-27 01:09:37*
%MOMM*%
%LPD*%
G01*
G04 APERTURE LIST*
G04 Aperture macros list*
%AMRoundRect*
0 Rectangle with rounded corners*
0 $1 Rounding radius*
0 $2 $3 $4 $5 $6 $7 $8 $9 X,Y pos of 4 corners*
0 Add a 4 corners polygon primitive as box body*
4,1,4,$2,$3,$4,$5,$6,$7,$8,$9,$2,$3,0*
0 Add four circle primitives for the rounded corners*
1,1,$1+$1,$2,$3*
1,1,$1+$1,$4,$5*
1,1,$1+$1,$6,$7*
1,1,$1+$1,$8,$9*
0 Add four rect primitives between the rounded corners*
20,1,$1+$1,$2,$3,$4,$5,0*
20,1,$1+$1,$4,$5,$6,$7,0*
20,1,$1+$1,$6,$7,$8,$9,0*
20,1,$1+$1,$8,$9,$2,$3,0*%
G04 Aperture macros list end*
%TA.AperFunction,SMDPad,CuDef*%
%ADD10RoundRect,0.250000X-0.475000X0.337500X-0.475000X-0.337500X0.475000X-0.337500X0.475000X0.337500X0*%
%TD*%
%TA.AperFunction,SMDPad,CuDef*%
%ADD11RoundRect,0.150000X0.825000X0.150000X-0.825000X0.150000X-0.825000X-0.150000X0.825000X-0.150000X0*%
%TD*%
%TA.AperFunction,SMDPad,CuDef*%
%ADD12RoundRect,0.250000X0.450000X-0.350000X0.450000X0.350000X-0.450000X0.350000X-0.450000X-0.350000X0*%
%TD*%
%TA.AperFunction,SMDPad,CuDef*%
%ADD13RoundRect,0.250000X0.625000X-0.400000X0.625000X0.400000X-0.625000X0.400000X-0.625000X-0.400000X0*%
%TD*%
%TA.AperFunction,ComponentPad*%
%ADD14C,2.000000*%
%TD*%
%TA.AperFunction,ComponentPad*%
%ADD15R,2.000000X2.000000*%
%TD*%
%TA.AperFunction,ComponentPad*%
%ADD16R,5.000000X3.000000*%
%TD*%
%TA.AperFunction,ComponentPad*%
%ADD17O,4.500000X2.750000*%
%TD*%
%TA.AperFunction,SMDPad,CuDef*%
%ADD18RoundRect,0.041300X-0.833700X-0.253700X0.833700X-0.253700X0.833700X0.253700X-0.833700X0.253700X0*%
%TD*%
%TA.AperFunction,ComponentPad*%
%ADD19RoundRect,0.250000X0.725000X-0.600000X0.725000X0.600000X-0.725000X0.600000X-0.725000X-0.600000X0*%
%TD*%
%TA.AperFunction,ComponentPad*%
%ADD20O,1.950000X1.700000*%
%TD*%
%TA.AperFunction,ComponentPad*%
%ADD21C,1.268000*%
%TD*%
%TA.AperFunction,ComponentPad*%
%ADD22R,1.268000X1.268000*%
%TD*%
%TA.AperFunction,ComponentPad*%
%ADD23C,1.508000*%
%TD*%
%TA.AperFunction,ComponentPad*%
%ADD24C,2.550000*%
%TD*%
%TA.AperFunction,ComponentPad*%
%ADD25R,2.550000X2.550000*%
%TD*%
%TA.AperFunction,ConnectorPad*%
%ADD26C,5.600000*%
%TD*%
%TA.AperFunction,ComponentPad*%
%ADD27C,3.600000*%
%TD*%
%TA.AperFunction,ComponentPad*%
%ADD28R,1.600000X1.600000*%
%TD*%
%TA.AperFunction,ComponentPad*%
%ADD29C,1.600000*%
%TD*%
%TA.AperFunction,ViaPad*%
%ADD30C,0.600000*%
%TD*%
%TA.AperFunction,Conductor*%
%ADD31C,0.200000*%
%TD*%
%TA.AperFunction,Conductor*%
%ADD32C,1.000000*%
%TD*%
G04 APERTURE END LIST*
D10*
%TO.P,C11,1*%
%TO.N,GND*%
X27900000Y-81162500D03*
%TO.P,C11,2*%
%TO.N,+7.4V*%
X27900000Y-83237500D03*
%TD*%
D11*
%TO.P,U8,1,A1*%
%TO.N,GND*%
X35175000Y-86095000D03*
%TO.P,U8,2,A0*%
X35175000Y-87365000D03*
%TO.P,U8,3,SDA*%
%TO.N,SDA*%
X35175000Y-88635000D03*
%TO.P,U8,4,SCL*%
%TO.N,SCL*%
X35175000Y-89905000D03*
%TO.P,U8,5,VS*%
%TO.N,+3.3V*%
X30225000Y-89905000D03*
%TO.P,U8,6,GND*%
%TO.N,GND*%
X30225000Y-88635000D03*
%TO.P,U8,7,IN-*%
%TO.N,SERVO_POW*%
X30225000Y-87365000D03*
%TO.P,U8,8,IN+*%
%TO.N,+7.4V*%
X30225000Y-86095000D03*
%TD*%
D12*
%TO.P,R21,1*%
%TO.N,SCL*%
X41700000Y-39200000D03*
%TO.P,R21,2*%
%TO.N,Net-(U3-D14)*%
X41700000Y-37200000D03*
%TD*%
%TO.P,R10,1*%
%TO.N,SDA*%
X23200000Y-36700000D03*
%TO.P,R10,2*%
%TO.N,Net-(U3-D2)*%
X23200000Y-34700000D03*
%TD*%
D13*
%TO.P,R7,1*%
%TO.N,SERVO_POW*%
X27150000Y-89200000D03*
%TO.P,R7,2*%
%TO.N,+7.4V*%
X27150000Y-86100000D03*
%TD*%
D14*
%TO.P,U3,30,VIN*%
%TO.N,+5V*%
X45200000Y-26985000D03*
%TO.P,U3,28,D13*%
%TO.N,MA_S2*%
X45200000Y-32065000D03*
%TO.P,U3,27,D12*%
%TO.N,LED_R*%
X45200000Y-34605000D03*
%TO.P,U3,26,D14*%
%TO.N,Net-(U3-D14)*%
X45200000Y-37145000D03*
%TO.P,U3,25,D27*%
%TO.N,MOSI*%
X45200000Y-39685000D03*
%TO.P,U3,24,D26*%
%TO.N,PB_POIGNET_REV*%
X45200000Y-42225000D03*
%TO.P,U3,23,D25*%
%TO.N,PB_POIGNET_FWD*%
X45200000Y-44765000D03*
%TO.P,U3,22,D33*%
%TO.N,SCK*%
X45200000Y-47305000D03*
%TO.P,U3,21,D32*%
%TO.N,MISO*%
X45200000Y-49845000D03*
%TO.P,U3,20,D35*%
%TO.N,PB_ROT_FWD*%
X45200000Y-52385000D03*
%TO.P,U3,19,D34*%
%TO.N,PB_ROT_REV*%
X45200000Y-54925000D03*
%TO.P,U3,18,VN*%
%TO.N,unconnected-(U3-VN-Pad18)*%
X45200000Y-57465000D03*
%TO.P,U3,17,VP*%
%TO.N,unconnected-(U3-VP-Pad17)*%
X45200000Y-60005000D03*
%TO.P,U3,16,EN*%
%TO.N,unconnected-(U3-EN-Pad16)*%
X45200000Y-62545000D03*
%TO.P,U3,15,D23*%
%TO.N,TXC*%
X19800000Y-62545000D03*
%TO.P,U3,14,D22*%
%TO.N,RXC*%
X19800000Y-60005000D03*
%TO.P,U3,13,TX0*%
%TO.N,unconnected-(U3-TX0-Pad13)*%
X19800000Y-57465000D03*
%TO.P,U3,12,RX0*%
%TO.N,unconnected-(U3-RX0-Pad12)*%
X19800000Y-54925000D03*
%TO.P,U3,11,D21*%
%TO.N,SERVO_PWM*%
X19800000Y-52385000D03*
%TO.P,U3,10,D19*%
%TO.N,MB_S2*%
X19800000Y-49845000D03*
%TO.P,U3,9,D18*%
%TO.N,MB_S1*%
X19800000Y-47305000D03*
%TO.P,U3,8,D5*%
%TO.N,LED_B*%
X19800000Y-44765000D03*
%TO.P,U3,7,TX2*%
%TO.N,CS_Poignet*%
X19800000Y-42225000D03*
%TO.P,U3,6,RX2*%
%TO.N,CS_Rotation*%
X19800000Y-39685000D03*
%TO.P,U3,5,D4*%
%TO.N,MA_S1*%
X19800000Y-37145000D03*
%TO.P,U3,4,D2*%
%TO.N,Net-(U3-D2)*%
X19800000Y-34605000D03*
%TO.P,U3,3,D15*%
%TO.N,LED_G*%
X19800000Y-32065000D03*
%TO.P,U3,2,GND*%
%TO.N,GND*%
X45200000Y-29525000D03*
X19800000Y-29525000D03*
D15*
%TO.P,U3,1,3V3*%
%TO.N,+3.3V*%
X19800000Y-26985000D03*
%TD*%
D16*
%TO.P,U7,1,V_{IN}*%
%TO.N,Net-(U7-V_{IN})*%
X23000000Y-72000000D03*
D17*
%TO.P,U7,2,GND*%
%TO.N,GND*%
X23000000Y-77000000D03*
%TO.P,U7,3,V_{OUT}*%
%TO.N,+7.4V*%
X23000000Y-82000000D03*
%TD*%
D18*
%TO.P,U6,1,TXD*%
%TO.N,RXC*%
X28715000Y-63905000D03*
%TO.P,U6,2,GND*%
%TO.N,GND*%
X28715000Y-62635000D03*
%TO.P,U6,3,VCC*%
%TO.N,+5V*%
X28715000Y-61365000D03*
%TO.P,U6,4,RXD*%
%TO.N,TXC*%
X28715000Y-60095000D03*
%TO.P,U6,5,VREF*%
%TO.N,unconnected-(U6-VREF-Pad5)*%
X33885000Y-60095000D03*
%TO.P,U6,6,CANL*%
%TO.N,CANL*%
X33885000Y-61365000D03*
%TO.P,U6,7,CANH*%
%TO.N,CANH*%
X33885000Y-62635000D03*
%TO.P,U6,8,S*%
%TO.N,GND*%
X33885000Y-63905000D03*
%TD*%
D19*
%TO.P,U5,1*%
%TO.N,+5V*%
X64475000Y-91900000D03*
D20*
%TO.P,U5,2*%
%TO.N,SCK*%
X64475000Y-89400000D03*
%TO.P,U5,3*%
%TO.N,MOSI*%
X64475000Y-86900000D03*
%TO.P,U5,4*%
%TO.N,GND*%
X64475000Y-84400000D03*
%TO.P,U5,5*%
%TO.N,MISO*%
X64475000Y-81900000D03*
%TO.P,U5,6*%
%TO.N,CS_Rotation*%
X64475000Y-79400000D03*
%TD*%
D19*
%TO.P,U4,1*%
%TO.N,+5V*%
X72475000Y-91900000D03*
D20*
%TO.P,U4,2*%
%TO.N,SCK*%
X72475000Y-89400000D03*
%TO.P,U4,3*%
%TO.N,MOSI*%
X72475000Y-86900000D03*
%TO.P,U4,4*%
%TO.N,GND*%
X72475000Y-84400000D03*
%TO.P,U4,5*%
%TO.N,MISO*%
X72475000Y-81900000D03*
%TO.P,U4,6*%
%TO.N,CS_Poignet*%
X72475000Y-79400000D03*
%TD*%
D21*
%TO.P,J6,7*%
%TO.N,+5V*%
X37012500Y-97150000D03*
%TO.P,J6,5*%
%TO.N,unconnected-(J6-Pad5)*%
X34472500Y-97150000D03*
%TO.P,J6,3*%
%TO.N,unconnected-(J6-Pad3)*%
X31932500Y-97150000D03*
D22*
%TO.P,J6,1*%
%TO.N,CANH*%
X29392500Y-97150000D03*
D21*
%TO.P,J6,8*%
%TO.N,GND*%
X38282500Y-94610000D03*
%TO.P,J6,6*%
%TO.N,unconnected-(J6-Pad6)*%
X35742500Y-94610000D03*
%TO.P,J6,4*%
%TO.N,unconnected-(J6-Pad4)*%
X33202500Y-94610000D03*
%TO.P,J6,2*%
%TO.N,CANL*%
X30662500Y-94610000D03*
%TD*%
%TO.P,J5,2*%
%TO.N,CANL*%
X35675000Y-31890000D03*
%TO.P,J5,4*%
%TO.N,unconnected-(J5-Pad4)*%
X33135000Y-31890000D03*
%TO.P,J5,6*%
%TO.N,unconnected-(J5-Pad6)*%
X30595000Y-31890000D03*
%TO.P,J5,8*%
%TO.N,GND*%
X28055000Y-31890000D03*
D22*
%TO.P,J5,1*%
%TO.N,CANH*%
X36945000Y-29350000D03*
D21*
%TO.P,J5,3*%
%TO.N,unconnected-(J5-Pad3)*%
X34405000Y-29350000D03*
%TO.P,J5,5*%
%TO.N,unconnected-(J5-Pad5)*%
X31865000Y-29350000D03*
%TO.P,J5,7*%
%TO.N,+5V*%
X29325000Y-29350000D03*
%TD*%
D19*
%TO.P,J4,1*%
%TO.N,GND*%
X21475000Y-94500000D03*
D20*
%TO.P,J4,2*%
%TO.N,SERVO_POW*%
X21475000Y-92000000D03*
%TO.P,J4,3*%
%TO.N,SERVO_PWM*%
X21475000Y-89500000D03*
%TD*%
D23*
%TO.P,J3,*%
%TO.N,*%
X72500000Y-102500000D03*
X61500000Y-102500000D03*
D24*
%TO.P,J3,N,N*%
%TO.N,MB-*%
X69500000Y-97500000D03*
D25*
%TO.P,J3,P,P*%
%TO.N,MB+*%
X64500000Y-97500000D03*
%TD*%
%TO.P,J2,P,P*%
%TO.N,MA+*%
X48000000Y-97500000D03*
D24*
%TO.P,J2,N,N*%
%TO.N,MA-*%
X53000000Y-97500000D03*
D23*
%TO.P,J2,*%
%TO.N,*%
X45000000Y-102500000D03*
X56000000Y-102500000D03*
%TD*%
%TO.P,J1,*%
%TO.N,*%
X49000000Y-18205750D03*
X60000000Y-18205750D03*
D24*
%TO.P,J1,N,N*%
%TO.N,GND*%
X57000000Y-28205750D03*
D25*
%TO.P,J1,P,P*%
%TO.N,+24V*%
X52000000Y-28205750D03*
%TD*%
D26*
%TO.P,H3,1,1*%
%TO.N,GND*%
X73000000Y-19500000D03*
D27*
X73000000Y-19500000D03*
%TD*%
%TO.P,H2,1,1*%
%TO.N,GND*%
X20500000Y-19500000D03*
D26*
X20500000Y-19500000D03*
%TD*%
D27*
%TO.P,H1,1,1*%
%TO.N,GND*%
X20500000Y-102500000D03*
D26*
X20500000Y-102500000D03*
%TD*%
D28*
%TO.P,C8,1*%
%TO.N,+7.4V*%
X36400000Y-83055112D03*
D29*
%TO.P,C8,2*%
%TO.N,GND*%
X36400000Y-81055112D03*
%TD*%
D10*
%TO.P,C7,1*%
%TO.N,+5V*%
X23000000Y-61062500D03*
%TO.P,C7,2*%
%TO.N,GND*%
X23000000Y-63137500D03*
%TD*%
D29*
%TO.P,C6,2*%
%TO.N,GND*%
X30700000Y-81055112D03*
D28*
%TO.P,C6,1*%
%TO.N,+7.4V*%
X30700000Y-83055112D03*
%TD*%
D10*
%TO.P,C3,1*%
%TO.N,+5V*%
X25800000Y-61062500D03*
%TO.P,C3,2*%
%TO.N,GND*%
X25800000Y-63137500D03*
%TD*%
D15*
%TO.P,C2,1*%
%TO.N,+24V*%
X61632323Y-36500000D03*
D14*
%TO.P,C2,2*%
%TO.N,GND*%
X66632323Y-36500000D03*
%TD*%
D15*
%TO.P,C1,1*%
%TO.N,+24V*%
X55367677Y-36500000D03*
D14*
%TO.P,C1,2*%
%TO.N,GND*%
X50367677Y-36500000D03*
%TD*%
D30*
%TO.N,Net-(U1-INA)*%
X38500000Y-43700000D03*
X42700000Y-81500000D03*
%TO.N,GND*%
X51400000Y-66900000D03*
X41300000Y-67100000D03*
%TO.N,+3.3V*%
X41200000Y-70300000D03*
%TO.N,+5V*%
X22000000Y-60000000D03*
%TO.N,GND*%
X27200000Y-63100000D03*
%TO.N,PB_POIGNET_REV*%
X65300000Y-49400000D03*
%TO.N,PB_POIGNET_FWD*%
X66600000Y-50000000D03*
%TO.N,CS_Poignet*%
X43200000Y-47800000D03*
%TO.N,CS_Rotation*%
X42300000Y-45900000D03*
%TO.N,PB_ROT_REV*%
X62925735Y-57574265D03*
%TO.N,PB_ROT_FWD*%
X66150000Y-59950000D03*
%TO.N,SCK*%
X74500000Y-85000000D03*
%TO.N,Net-(U2-INB)*%
X57405000Y-82400000D03*
%TO.N,Net-(U2-INA)*%
X53600000Y-81700000D03*
X40400000Y-48200000D03*
%TO.N,Net-(U2-INB)*%
X41200003Y-48200000D03*
%TO.N,Net-(U1-INB)*%
X46500000Y-79600000D03*
X42200000Y-40600000D03*
%TO.N,LED_G*%
X70500000Y-48700000D03*
%TO.N,LED_R*%
X67300000Y-42300000D03*
%TO.N,SCL*%
X39200000Y-87800000D03*
X37300000Y-89600000D03*
%TO.N,GND*%
X33900000Y-64900000D03*
%TO.N,+3.3V*%
X62700000Y-61600000D03*
X51400000Y-73300000D03*
%TO.N,GND*%
X50100000Y-83600000D03*
X50100000Y-78700000D03*
X50100000Y-77750000D03*
X50095000Y-80545000D03*
X50100000Y-81600000D03*
X50100000Y-82600000D03*
X50100000Y-79500000D03*
%TO.N,+3.3V*%
X31700000Y-89900000D03*
%TO.N,GND*%
X34000000Y-86750000D03*
X49050000Y-80545000D03*
X49055000Y-81600000D03*
X49055000Y-82600000D03*
X49055000Y-79500000D03*
X40150000Y-80495000D03*
X40155000Y-81550000D03*
X40155000Y-82550000D03*
X40155000Y-79450000D03*
X51050000Y-81600000D03*
X51045000Y-80545000D03*
X51050000Y-79500000D03*
X51050000Y-82600000D03*
X59950000Y-82550000D03*
X59950000Y-81550000D03*
X59945000Y-80495000D03*
X59950000Y-79450000D03*
%TD*%
D31*
%TO.N,PB_POIGNET_FWD*%
X66600000Y-50000000D02*
X50435000Y-50000000D01*
X50435000Y-50000000D02*
X45200000Y-44765000D01*
%TO.N,PB_POIGNET_REV*%
X65200000Y-49300000D02*
X52275000Y-49300000D01*
X65300000Y-49400000D02*
X65200000Y-49300000D01*
X52275000Y-49300000D02*
X45200000Y-42225000D01*
%TO.N,Net-(U1-INA)*%
X38500000Y-43700000D02*
X38500000Y-43800000D01*
X38500000Y-44800000D02*
X38500000Y-43700000D01*
X38500000Y-76946471D02*
X38500000Y-44800000D01*
X38500000Y-44800000D02*
X38500000Y-44600000D01*
%TO.N,CS_Rotation*%
X63925000Y-78850000D02*
X64475000Y-79400000D01*
X57950000Y-78850000D02*
X63925000Y-78850000D01*
X42300000Y-45900000D02*
X42300000Y-63200000D01*
X42300000Y-63200000D02*
X57950000Y-78850000D01*
%TO.N,CS_Poignet*%
X43200000Y-63100000D02*
X57100000Y-77000000D01*
X43200000Y-47800000D02*
X43200000Y-63100000D01*
X57100000Y-77000000D02*
X70075000Y-77000000D01*
X70075000Y-77000000D02*
X72475000Y-79400000D01*
%TO.N,Net-(U1-INA)*%
X42700000Y-81146471D02*
X38500000Y-76946471D01*
X42700000Y-81500000D02*
X42700000Y-81146471D01*
%TO.N,+5V*%
X22000000Y-60000000D02*
X22000000Y-36100000D01*
%TO.N,GND*%
X25800000Y-63137500D02*
X25837500Y-63100000D01*
X25837500Y-63100000D02*
X28250000Y-63100000D01*
X28250000Y-63100000D02*
X28715000Y-62635000D01*
%TO.N,MOSI*%
X45200000Y-39685000D02*
X53315000Y-47800000D01*
X53315000Y-47800000D02*
X68751471Y-47800000D01*
X68751471Y-47800000D02*
X75900000Y-54948529D01*
X75900000Y-54948529D02*
X75900000Y-85200000D01*
X75900000Y-85200000D02*
X74200000Y-86900000D01*
X74200000Y-86900000D02*
X72475000Y-86900000D01*
%TO.N,SCK*%
X74500000Y-85000000D02*
X75100000Y-84400000D01*
X75100000Y-84400000D02*
X75100000Y-55200000D01*
X75100000Y-55200000D02*
X70900000Y-51000000D01*
X70900000Y-51000000D02*
X50200000Y-51000000D01*
X50200000Y-51000000D02*
X46505000Y-47305000D01*
X46505000Y-47305000D02*
X45200000Y-47305000D01*
%TO.N,MISO*%
X45200000Y-49845000D02*
X46855000Y-51500000D01*
X46855000Y-51500000D02*
X70000000Y-51500000D01*
X70000000Y-51500000D02*
X74200000Y-55700000D01*
X74200000Y-55700000D02*
X74200000Y-80175000D01*
X74200000Y-80175000D02*
X72475000Y-81900000D01*
%TO.N,Net-(U2-INA)*%
X40400000Y-48200000D02*
X40000000Y-48600000D01*
X40000000Y-48600000D02*
X40000000Y-66700000D01*
X40000000Y-66700000D02*
X53600000Y-80300000D01*
X53600000Y-80300000D02*
X53600000Y-81700000D01*
%TO.N,Net-(U1-INB)*%
X46500000Y-79600000D02*
X46500000Y-79500000D01*
X46500000Y-79500000D02*
X39100000Y-72100000D01*
X39100000Y-72100000D02*
X39100000Y-43700000D01*
X39100000Y-43700000D02*
X42200000Y-40600000D01*
%TO.N,SCL*%
X39200000Y-87800000D02*
X39200000Y-78634314D01*
X39200000Y-78634314D02*
X37900000Y-77334314D01*
X37900000Y-77334314D02*
X37900000Y-43000000D01*
X37900000Y-43000000D02*
X41700000Y-39200000D01*
%TO.N,Net-(U2-INB)*%
X57405000Y-82400000D02*
X57405000Y-80705000D01*
X57405000Y-80705000D02*
X41200003Y-64500003D01*
X41200003Y-64500003D02*
X41200003Y-48200000D01*
%TO.N,PB_ROT_REV*%
X62925735Y-57574265D02*
X62924265Y-57574265D01*
X62924265Y-57574265D02*
X60275000Y-54925000D01*
X60275000Y-54925000D02*
X45200000Y-54925000D01*
%TO.N,PB_ROT_FWD*%
X66150000Y-59950000D02*
X58585000Y-52385000D01*
X58585000Y-52385000D02*
X45200000Y-52385000D01*
%TO.N,LED_G*%
X19800000Y-32065000D02*
X26180000Y-25685000D01*
X26180000Y-25685000D02*
X59185000Y-25685000D01*
X59185000Y-25685000D02*
X70500000Y-37000000D01*
X70500000Y-37000000D02*
X70500000Y-48700000D01*
%TO.N,RXC*%
X19800000Y-60005000D02*
X18350000Y-61455000D01*
X18350000Y-61455000D02*
X18350000Y-63250000D01*
X18350000Y-63250000D02*
X19400000Y-64300000D01*
X19400000Y-64300000D02*
X28320000Y-64300000D01*
X28320000Y-64300000D02*
X28715000Y-63905000D01*
%TO.N,+5V*%
X23000000Y-61062500D02*
X22000000Y-60062500D01*
X22000000Y-60062500D02*
X22000000Y-60000000D01*
X22000000Y-36100000D02*
X22400000Y-35700000D01*
X22400000Y-35700000D02*
X24100000Y-35700000D01*
X28650000Y-29350000D02*
X29325000Y-29350000D01*
X24100000Y-35700000D02*
X24700000Y-35100000D01*
X24700000Y-35100000D02*
X24700000Y-33300000D01*
X24700000Y-33300000D02*
X28650000Y-29350000D01*
%TO.N,TXC*%
X19800000Y-62545000D02*
X20305000Y-62040000D01*
X30300000Y-61400000D02*
X30300000Y-60800000D01*
X20305000Y-62040000D02*
X29660000Y-62040000D01*
X29660000Y-62040000D02*
X30300000Y-61400000D01*
X30300000Y-60800000D02*
X29595000Y-60095000D01*
X29595000Y-60095000D02*
X28715000Y-60095000D01*
%TO.N,LED_R*%
X67300000Y-42300000D02*
X66300000Y-41300000D01*
X66300000Y-41300000D02*
X51895000Y-41300000D01*
X51895000Y-41300000D02*
X45200000Y-34605000D01*
%TO.N,+5V*%
X37012500Y-97150000D02*
X43350000Y-97150000D01*
X43350000Y-97150000D02*
X45500000Y-95000000D01*
X45500000Y-95000000D02*
X61375000Y-95000000D01*
X61375000Y-95000000D02*
X64475000Y-91900000D01*
%TO.N,SCL*%
X37300000Y-89600000D02*
X36995000Y-89905000D01*
X36995000Y-89905000D02*
X35175000Y-89905000D01*
%TO.N,Net-(U3-D14)*%
X41700000Y-37200000D02*
X45145000Y-37200000D01*
X45145000Y-37200000D02*
X45200000Y-37145000D01*
%TO.N,SDA*%
X23200000Y-36700000D02*
X30900000Y-44400000D01*
X30900000Y-44400000D02*
X30900000Y-73000000D01*
X30900000Y-73000000D02*
X37600000Y-79700000D01*
X37600000Y-79700000D02*
X37600000Y-86800000D01*
X35765000Y-88635000D02*
X35175000Y-88635000D01*
X37600000Y-86800000D02*
X35765000Y-88635000D01*
%TO.N,CANL*%
X33885000Y-61365000D02*
X33583784Y-61365000D01*
X33583784Y-61365000D02*
X32500000Y-62448784D01*
X32500000Y-62448784D02*
X32500000Y-73300000D01*
X32500000Y-73300000D02*
X38100000Y-78900000D01*
X38100000Y-78900000D02*
X38100000Y-91800000D01*
X32372500Y-92900000D02*
X30662500Y-94610000D01*
X38100000Y-91800000D02*
X37000000Y-92900000D01*
X37000000Y-92900000D02*
X32372500Y-92900000D01*
%TO.N,CANH*%
X34759999Y-62635000D02*
X35200000Y-63075001D01*
X35200000Y-63075001D02*
X35200000Y-75200000D01*
X35200000Y-75200000D02*
X38600000Y-78600000D01*
X31900000Y-94219093D02*
X31900000Y-95100000D01*
X38600000Y-78600000D02*
X38600000Y-91865685D01*
X32719093Y-93400000D02*
X31900000Y-94219093D01*
X38600000Y-91865685D02*
X37065685Y-93400000D01*
X37065685Y-93400000D02*
X32719093Y-93400000D01*
X31900000Y-95100000D02*
X29850000Y-97150000D01*
X29850000Y-97150000D02*
X29392500Y-97150000D01*
%TO.N,Net-(U3-D2)*%
X23200000Y-34700000D02*
X19895000Y-34700000D01*
X19895000Y-34700000D02*
X19800000Y-34605000D01*
%TO.N,CANH*%
X33885000Y-62635000D02*
X34759999Y-62635000D01*
%TO.N,GND*%
X33885000Y-63905000D02*
X33885000Y-64885000D01*
X33885000Y-64885000D02*
X33900000Y-64900000D01*
%TO.N,CANH*%
X36945000Y-29350000D02*
X36945000Y-60449999D01*
X36945000Y-60449999D02*
X34759999Y-62635000D01*
%TO.N,CANL*%
X33885000Y-61365000D02*
X34759999Y-61365000D01*
X34759999Y-61365000D02*
X35675000Y-60449999D01*
X35675000Y-60449999D02*
X35675000Y-31890000D01*
%TO.N,+5V*%
X25800000Y-61062500D02*
X28412500Y-61062500D01*
X28412500Y-61062500D02*
X28715000Y-61365000D01*
X23000000Y-61062500D02*
X25800000Y-61062500D01*
D32*
%TO.N,GND*%
X36400000Y-81055112D02*
X27055112Y-81055112D01*
X27055112Y-81055112D02*
X23000000Y-77000000D01*
%TO.N,+7.4V*%
X23000000Y-82000000D02*
X24055112Y-83055112D01*
D31*
%TO.N,GND*%
X23000000Y-63137500D02*
X25800000Y-63137500D01*
%TO.N,+5V*%
X64475000Y-91900000D02*
X72475000Y-91900000D01*
%TO.N,SCK*%
X64475000Y-89400000D02*
X72475000Y-89400000D01*
%TO.N,MOSI*%
X64475000Y-86900000D02*
X72475000Y-86900000D01*
%TO.N,GND*%
X64475000Y-84400000D02*
X72475000Y-84400000D01*
%TO.N,MISO*%
X64475000Y-81900000D02*
X72475000Y-81900000D01*
%TO.N,+3.3V*%
X31700000Y-89900000D02*
X30230000Y-89900000D01*
X30230000Y-89900000D02*
X30225000Y-89905000D01*
%TO.N,SERVO_PWM*%
X19800000Y-52385000D02*
X17950000Y-54235000D01*
X17950000Y-54235000D02*
X17950000Y-85975000D01*
X17950000Y-85975000D02*
X21475000Y-89500000D01*
D32*
%TO.N,SERVO_POW*%
X27150000Y-89200000D02*
X24350000Y-92000000D01*
X24350000Y-92000000D02*
X21475000Y-92000000D01*
X27150000Y-89200000D02*
X28985000Y-87365000D01*
X28985000Y-87365000D02*
X30225000Y-87365000D01*
%TO.N,+7.4V*%
X23000000Y-82000000D02*
X23050000Y-82000000D01*
D31*
%TO.N,GND*%
X30225000Y-88635000D02*
X32115000Y-88635000D01*
X32115000Y-88635000D02*
X34000000Y-86750000D01*
X35175000Y-87365000D02*
X34615000Y-87365000D01*
X34615000Y-87365000D02*
X34000000Y-86750000D01*
X35175000Y-86095000D02*
X34655000Y-86095000D01*
X34655000Y-86095000D02*
X34000000Y-86750000D01*
%TD*%
%TA.AperFunction,Conductor*%
%TO.N,+7.4V*%
G36*
X24228956Y-80516891D02*
G01*
X26310336Y-81731029D01*
X26335530Y-81750451D01*
X26417330Y-81832251D01*
X26581198Y-81941744D01*
X26646170Y-81968656D01*
X26763276Y-82017163D01*
X26790010Y-82022480D01*
X26829610Y-82037766D01*
X27100000Y-82200000D01*
X27131484Y-82200000D01*
X27170488Y-82206294D01*
X27272203Y-82239999D01*
X27374991Y-82250500D01*
X28425008Y-82250499D01*
X28425016Y-82250498D01*
X28425019Y-82250498D01*
X28481302Y-82244748D01*
X28527797Y-82239999D01*
X28629512Y-82206294D01*
X28668516Y-82200000D01*
X30050485Y-82200000D01*
X30102889Y-82211617D01*
X30253504Y-82281851D01*
X30253510Y-82281852D01*
X30253511Y-82281853D01*
X30306415Y-82296028D01*
X30473308Y-82340747D01*
X30635230Y-82354913D01*
X30699998Y-82360580D01*
X30700000Y-82360580D01*
X30700002Y-82360580D01*
X30756673Y-82355621D01*
X30926692Y-82340747D01*
X31146496Y-82281851D01*
X31297110Y-82211617D01*
X31349515Y-82200000D01*
X35750485Y-82200000D01*
X35802889Y-82211617D01*
X35953504Y-82281851D01*
X35953510Y-82281852D01*
X35953511Y-82281853D01*
X36006415Y-82296028D01*
X36173308Y-82340747D01*
X36335230Y-82354913D01*
X36399998Y-82360580D01*
X36400000Y-82360580D01*
X36400002Y-82360580D01*
X36456673Y-82355621D01*
X36626692Y-82340747D01*
X36774286Y-82301199D01*
X36843407Y-82282679D01*
X36913257Y-82284342D01*
X36971119Y-82323505D01*
X36998623Y-82387733D01*
X36999500Y-82402454D01*
X36999500Y-83976000D01*
X36979815Y-84043039D01*
X36927011Y-84088794D01*
X36875500Y-84100000D01*
X34599999Y-84100000D01*
X32136319Y-86563681D01*
X32074996Y-86597166D01*
X32048638Y-86600000D01*
X31282418Y-86600000D01*
X31247823Y-86595076D01*
X31211166Y-86584426D01*
X31152570Y-86567402D01*
X31152567Y-86567401D01*
X31115701Y-86564500D01*
X31115694Y-86564500D01*
X30865435Y-86564500D01*
X30798396Y-86544815D01*
X30796544Y-86543602D01*
X30698911Y-86478366D01*
X30516839Y-86402950D01*
X30516829Y-86402947D01*
X30323543Y-86364500D01*
X30323541Y-86364500D01*
X28886459Y-86364500D01*
X28886457Y-86364500D01*
X28835005Y-86374735D01*
X28802081Y-86381284D01*
X28693167Y-86402947D01*
X28693159Y-86402950D01*
X28639834Y-86425037D01*
X28639834Y-86425038D01*
X28594315Y-86443892D01*
X28511089Y-86478366D01*
X28511079Y-86478371D01*
X28360326Y-86579102D01*
X28293648Y-86599980D01*
X28291435Y-86600000D01*
X26038131Y-86600000D01*
X25971092Y-86580315D01*
X25968458Y-86578575D01*
X20754327Y-83036901D01*
X20709931Y-82982949D01*
X20700000Y-82934326D01*
X20700000Y-80624000D01*
X20719685Y-80556961D01*
X20772489Y-80511206D01*
X20824000Y-80500000D01*
X24166476Y-80500000D01*
X24228956Y-80516891D01*
G37*
%TD.AperFunction*%
%TD*%
M02*
