%TF.GenerationSoftware,KiCad,Pcbnew,8.0.1-8.0.1-1~ubuntu22.04.1*%
%TF.CreationDate,2024-03-27T01:09:34-04:00*%
%TF.ProjectId,gripper_2024,67726970-7065-4725-9f32-3032342e6b69,rev?*%
%TF.SameCoordinates,Original*%
%TF.FileFunction,Copper,L1,Top*%
%TF.FilePolarity,Positive*%
%FSLAX46Y46*%
G04 Gerber Fmt 4.6, Leading zero omitted, Abs format (unit mm)*
G04 Created by KiCad (PCBNEW 8.0.1-8.0.1-1~ubuntu22.04.1) date 2024-03-27 01:09:34*
%MOMM*%
%LPD*%
G01*
G04 APERTURE LIST*
G04 Aperture macros list*
%AMRoundRect*
0 Rectangle with rounded corners*
0 $1 Rounding radius*
0 $2 $3 $4 $5 $6 $7 $8 $9 X,Y pos of 4 corners*
0 Add a 4 corners polygon primitive as box body*
4,1,4,$2,$3,$4,$5,$6,$7,$8,$9,$2,$3,0*
0 Add four circle primitives for the rounded corners*
1,1,$1+$1,$2,$3*
1,1,$1+$1,$4,$5*
1,1,$1+$1,$6,$7*
1,1,$1+$1,$8,$9*
0 Add four rect primitives between the rounded corners*
20,1,$1+$1,$2,$3,$4,$5,0*
20,1,$1+$1,$4,$5,$6,$7,0*
20,1,$1+$1,$6,$7,$8,$9,0*
20,1,$1+$1,$8,$9,$2,$3,0*%
G04 Aperture macros list end*
%TA.AperFunction,SMDPad,CuDef*%
%ADD10RoundRect,0.250000X-0.325000X-0.450000X0.325000X-0.450000X0.325000X0.450000X-0.325000X0.450000X0*%
%TD*%
%TA.AperFunction,SMDPad,CuDef*%
%ADD11RoundRect,0.250000X0.350000X0.450000X-0.350000X0.450000X-0.350000X-0.450000X0.350000X-0.450000X0*%
%TD*%
%TA.AperFunction,SMDPad,CuDef*%
%ADD12RoundRect,0.250000X0.450000X-0.350000X0.450000X0.350000X-0.450000X0.350000X-0.450000X-0.350000X0*%
%TD*%
%TA.AperFunction,ComponentPad*%
%ADD13C,2.000000*%
%TD*%
%TA.AperFunction,ComponentPad*%
%ADD14R,2.000000X2.000000*%
%TD*%
%TA.AperFunction,ComponentPad*%
%ADD15R,5.000000X3.000000*%
%TD*%
%TA.AperFunction,ComponentPad*%
%ADD16O,4.500000X2.750000*%
%TD*%
%TA.AperFunction,ComponentPad*%
%ADD17RoundRect,0.250000X0.725000X-0.600000X0.725000X0.600000X-0.725000X0.600000X-0.725000X-0.600000X0*%
%TD*%
%TA.AperFunction,ComponentPad*%
%ADD18O,1.950000X1.700000*%
%TD*%
%TA.AperFunction,SMDPad,CuDef*%
%ADD19R,0.558800X1.460500*%
%TD*%
%TA.AperFunction,SMDPad,CuDef*%
%ADD20R,1.511300X0.609600*%
%TD*%
%TA.AperFunction,SMDPad,CuDef*%
%ADD21RoundRect,0.250000X-0.450000X0.350000X-0.450000X-0.350000X0.450000X-0.350000X0.450000X0.350000X0*%
%TD*%
%TA.AperFunction,SMDPad,CuDef*%
%ADD22RoundRect,0.250000X-0.350000X-0.450000X0.350000X-0.450000X0.350000X0.450000X-0.350000X0.450000X0*%
%TD*%
%TA.AperFunction,SMDPad,CuDef*%
%ADD23R,1.955800X1.549400*%
%TD*%
%TA.AperFunction,ComponentPad*%
%ADD24C,1.268000*%
%TD*%
%TA.AperFunction,ComponentPad*%
%ADD25R,1.268000X1.268000*%
%TD*%
%TA.AperFunction,ComponentPad*%
%ADD26C,1.508000*%
%TD*%
%TA.AperFunction,ComponentPad*%
%ADD27C,2.550000*%
%TD*%
%TA.AperFunction,ComponentPad*%
%ADD28R,2.550000X2.550000*%
%TD*%
%TA.AperFunction,ConnectorPad*%
%ADD29C,5.600000*%
%TD*%
%TA.AperFunction,ComponentPad*%
%ADD30C,3.600000*%
%TD*%
%TA.AperFunction,SMDPad,CuDef*%
%ADD31RoundRect,0.250000X0.400000X1.450000X-0.400000X1.450000X-0.400000X-1.450000X0.400000X-1.450000X0*%
%TD*%
%TA.AperFunction,SMDPad,CuDef*%
%ADD32R,6.600000X4.000000*%
%TD*%
%TA.AperFunction,SMDPad,CuDef*%
%ADD33RoundRect,0.250000X0.325000X0.450000X-0.325000X0.450000X-0.325000X-0.450000X0.325000X-0.450000X0*%
%TD*%
%TA.AperFunction,SMDPad,CuDef*%
%ADD34RoundRect,0.250000X-0.450000X0.325000X-0.450000X-0.325000X0.450000X-0.325000X0.450000X0.325000X0*%
%TD*%
%TA.AperFunction,SMDPad,CuDef*%
%ADD35RoundRect,0.250000X0.475000X-0.337500X0.475000X0.337500X-0.475000X0.337500X-0.475000X-0.337500X0*%
%TD*%
%TA.AperFunction,SMDPad,CuDef*%
%ADD36RoundRect,0.250000X-0.475000X0.337500X-0.475000X-0.337500X0.475000X-0.337500X0.475000X0.337500X0*%
%TD*%
%TA.AperFunction,ComponentPad*%
%ADD37R,1.600000X1.600000*%
%TD*%
%TA.AperFunction,ComponentPad*%
%ADD38C,1.600000*%
%TD*%
%TA.AperFunction,ViaPad*%
%ADD39C,0.600000*%
%TD*%
%TA.AperFunction,Conductor*%
%ADD40C,0.200000*%
%TD*%
%TA.AperFunction,Conductor*%
%ADD41C,1.000000*%
%TD*%
G04 APERTURE END LIST*
D10*
%TO.P,D5,1,K*%
%TO.N,GND*%
X51375000Y-75000000D03*
%TO.P,D5,2,A*%
%TO.N,Net-(D5-A)*%
X53425000Y-75000000D03*
%TD*%
D11*
%TO.P,R18,2*%
%TO.N,+3.3V*%
X62700000Y-59300000D03*
%TO.P,R18,1*%
%TO.N,PB_ROT_REV*%
X64700000Y-59300000D03*
%TD*%
D12*
%TO.P,R19,1*%
%TO.N,Net-(LED1-Pad1)*%
X68500000Y-45500000D03*
%TO.P,R19,2*%
%TO.N,LED_R*%
X68500000Y-43500000D03*
%TD*%
D13*
%TO.P,U3,30,VIN*%
%TO.N,+5V*%
X45200000Y-26985000D03*
%TO.P,U3,28,D13*%
%TO.N,MA_S2*%
X45200000Y-32065000D03*
%TO.P,U3,27,D12*%
%TO.N,LED_R*%
X45200000Y-34605000D03*
%TO.P,U3,26,D14*%
%TO.N,Net-(U3-D14)*%
X45200000Y-37145000D03*
%TO.P,U3,25,D27*%
%TO.N,MOSI*%
X45200000Y-39685000D03*
%TO.P,U3,24,D26*%
%TO.N,PB_POIGNET_REV*%
X45200000Y-42225000D03*
%TO.P,U3,23,D25*%
%TO.N,PB_POIGNET_FWD*%
X45200000Y-44765000D03*
%TO.P,U3,22,D33*%
%TO.N,SCK*%
X45200000Y-47305000D03*
%TO.P,U3,21,D32*%
%TO.N,MISO*%
X45200000Y-49845000D03*
%TO.P,U3,20,D35*%
%TO.N,PB_ROT_FWD*%
X45200000Y-52385000D03*
%TO.P,U3,19,D34*%
%TO.N,PB_ROT_REV*%
X45200000Y-54925000D03*
%TO.P,U3,18,VN*%
%TO.N,unconnected-(U3-VN-Pad18)*%
X45200000Y-57465000D03*
%TO.P,U3,17,VP*%
%TO.N,unconnected-(U3-VP-Pad17)*%
X45200000Y-60005000D03*
%TO.P,U3,16,EN*%
%TO.N,unconnected-(U3-EN-Pad16)*%
X45200000Y-62545000D03*
%TO.P,U3,15,D23*%
%TO.N,TXC*%
X19800000Y-62545000D03*
%TO.P,U3,14,D22*%
%TO.N,RXC*%
X19800000Y-60005000D03*
%TO.P,U3,13,TX0*%
%TO.N,unconnected-(U3-TX0-Pad13)*%
X19800000Y-57465000D03*
%TO.P,U3,12,RX0*%
%TO.N,unconnected-(U3-RX0-Pad12)*%
X19800000Y-54925000D03*
%TO.P,U3,11,D21*%
%TO.N,SERVO_PWM*%
X19800000Y-52385000D03*
%TO.P,U3,10,D19*%
%TO.N,MB_S2*%
X19800000Y-49845000D03*
%TO.P,U3,9,D18*%
%TO.N,MB_S1*%
X19800000Y-47305000D03*
%TO.P,U3,8,D5*%
%TO.N,LED_B*%
X19800000Y-44765000D03*
%TO.P,U3,7,TX2*%
%TO.N,CS_Poignet*%
X19800000Y-42225000D03*
%TO.P,U3,6,RX2*%
%TO.N,CS_Rotation*%
X19800000Y-39685000D03*
%TO.P,U3,5,D4*%
%TO.N,MA_S1*%
X19800000Y-37145000D03*
%TO.P,U3,4,D2*%
%TO.N,Net-(U3-D2)*%
X19800000Y-34605000D03*
%TO.P,U3,3,D15*%
%TO.N,LED_G*%
X19800000Y-32065000D03*
%TO.P,U3,2,GND*%
%TO.N,GND*%
X45200000Y-29525000D03*
X19800000Y-29525000D03*
D14*
%TO.P,U3,1,3V3*%
%TO.N,+3.3V*%
X19800000Y-26985000D03*
%TD*%
D15*
%TO.P,U7,1,V_{IN}*%
%TO.N,Net-(U7-V_{IN})*%
X23000000Y-72000000D03*
D16*
%TO.P,U7,2,GND*%
%TO.N,GND*%
X23000000Y-77000000D03*
%TO.P,U7,3,V_{OUT}*%
%TO.N,+7.4V*%
X23000000Y-82000000D03*
%TD*%
D17*
%TO.P,U5,1*%
%TO.N,+5V*%
X64475000Y-91900000D03*
D18*
%TO.P,U5,2*%
%TO.N,SCK*%
X64475000Y-89400000D03*
%TO.P,U5,3*%
%TO.N,MOSI*%
X64475000Y-86900000D03*
%TO.P,U5,4*%
%TO.N,GND*%
X64475000Y-84400000D03*
%TO.P,U5,5*%
%TO.N,MISO*%
X64475000Y-81900000D03*
%TO.P,U5,6*%
%TO.N,CS_Rotation*%
X64475000Y-79400000D03*
%TD*%
D17*
%TO.P,U4,1*%
%TO.N,+5V*%
X72475000Y-91900000D03*
D18*
%TO.P,U4,2*%
%TO.N,SCK*%
X72475000Y-89400000D03*
%TO.P,U4,3*%
%TO.N,MOSI*%
X72475000Y-86900000D03*
%TO.P,U4,4*%
%TO.N,GND*%
X72475000Y-84400000D03*
%TO.P,U4,5*%
%TO.N,MISO*%
X72475000Y-81900000D03*
%TO.P,U4,6*%
%TO.N,CS_Poignet*%
X72475000Y-79400000D03*
%TD*%
D19*
%TO.P,U2,1,GNDA*%
%TO.N,GND*%
X51055000Y-83724150D03*
%TO.P,U2,2,OUTA*%
%TO.N,MB+*%
X52325000Y-83724150D03*
%TO.P,U2,3,INA*%
%TO.N,Net-(U2-INA)*%
X53595000Y-83724150D03*
%TO.P,U2,4,VCC*%
%TO.N,MB_24V*%
X54865000Y-83724150D03*
%TO.P,U2,5,VCC*%
X56135000Y-83724150D03*
%TO.P,U2,6,INB*%
%TO.N,Net-(U2-INB)*%
X57405000Y-83724150D03*
%TO.P,U2,7,OUTB*%
%TO.N,MB-*%
X58675000Y-83724150D03*
%TO.P,U2,8,GNDB*%
%TO.N,GND*%
X59945000Y-83724150D03*
%TO.P,U2,9,GNDB*%
X59945000Y-78275850D03*
%TO.P,U2,10,OUTB*%
%TO.N,MB-*%
X58675000Y-78275850D03*
%TO.P,U2,11,ENB/DIAGB*%
%TO.N,Net-(D4-A)*%
X57405000Y-78275850D03*
%TO.P,U2,12,VCC*%
%TO.N,MB_24V*%
X56135000Y-78275850D03*
%TO.P,U2,13,CS*%
%TO.N,Net-(U2-CS)*%
X54865000Y-78275850D03*
%TO.P,U2,14,ENA/DIAGB*%
%TO.N,Net-(D5-A)*%
X53595000Y-78275850D03*
%TO.P,U2,15,OUTA*%
%TO.N,MB+*%
X52325000Y-78275850D03*
%TO.P,U2,16,GNDA*%
%TO.N,GND*%
X51055000Y-78275850D03*
%TD*%
%TO.P,U1,16,GNDA*%
%TO.N,GND*%
X40155000Y-78275850D03*
%TO.P,U1,15,OUTA*%
%TO.N,MA+*%
X41425000Y-78275850D03*
%TO.P,U1,14,ENA/DIAGB*%
%TO.N,Net-(D3-A)*%
X42695000Y-78275850D03*
%TO.P,U1,13,CS*%
%TO.N,Net-(U1-CS)*%
X43965000Y-78275850D03*
%TO.P,U1,12,VCC*%
%TO.N,MA_24V*%
X45235000Y-78275850D03*
%TO.P,U1,11,ENB/DIAGB*%
%TO.N,Net-(D2-A)*%
X46505000Y-78275850D03*
%TO.P,U1,10,OUTB*%
%TO.N,MA-*%
X47775000Y-78275850D03*
%TO.P,U1,9,GNDB*%
%TO.N,GND*%
X49045000Y-78275850D03*
%TO.P,U1,8,GNDB*%
X49045000Y-83724150D03*
%TO.P,U1,7,OUTB*%
%TO.N,MA-*%
X47775000Y-83724150D03*
%TO.P,U1,6,INB*%
%TO.N,Net-(U1-INB)*%
X46505000Y-83724150D03*
%TO.P,U1,5,VCC*%
%TO.N,MA_24V*%
X45235000Y-83724150D03*
%TO.P,U1,4,VCC*%
X43965000Y-83724150D03*
%TO.P,U1,3,INA*%
%TO.N,Net-(U1-INA)*%
X42695000Y-83724150D03*
%TO.P,U1,2,OUTA*%
%TO.N,MA+*%
X41425000Y-83724150D03*
%TO.P,U1,1,GNDA*%
%TO.N,GND*%
X40155000Y-83724150D03*
%TD*%
D20*
%TO.P,SW4,1*%
%TO.N,GND*%
X74803650Y-56500000D03*
%TO.P,SW4,2*%
%TO.N,PB_ROT_REV*%
X67196350Y-56500000D03*
%TD*%
%TO.P,SW3,1*%
%TO.N,GND*%
X74803650Y-61868800D03*
%TO.P,SW3,2*%
%TO.N,PB_ROT_FWD*%
X67196350Y-61868800D03*
%TD*%
%TO.P,SW2,1*%
%TO.N,GND*%
X74803650Y-67237600D03*
%TO.P,SW2,2*%
%TO.N,PB_POIGNET_REV*%
X67196350Y-67237600D03*
%TD*%
%TO.P,SW1,2*%
%TO.N,PB_POIGNET_FWD*%
X67196350Y-72606400D03*
%TO.P,SW1,1*%
%TO.N,GND*%
X74803650Y-72606400D03*
%TD*%
D11*
%TO.P,R24,1*%
%TO.N,+3.3V*%
X59800000Y-71700000D03*
%TO.P,R24,2*%
%TO.N,Net-(D4-A)*%
X57800000Y-71700000D03*
%TD*%
%TO.P,R23,1*%
%TO.N,Net-(U2-CS)*%
X53400000Y-68300000D03*
%TO.P,R23,2*%
%TO.N,GND*%
X51400000Y-68300000D03*
%TD*%
D21*
%TO.P,R20,1*%
%TO.N,+7.4V*%
X27000000Y-87000000D03*
%TO.P,R20,2*%
%TO.N,Net-(D1-A)*%
X27000000Y-89000000D03*
%TD*%
D11*
%TO.P,R17,2*%
%TO.N,+3.3V*%
X62700000Y-64600000D03*
%TO.P,R17,1*%
%TO.N,PB_ROT_FWD*%
X64700000Y-64600000D03*
%TD*%
%TO.P,R16,2*%
%TO.N,+3.3V*%
X62700000Y-69900000D03*
%TO.P,R16,1*%
%TO.N,PB_POIGNET_REV*%
X64700000Y-69900000D03*
%TD*%
D22*
%TO.P,R15,2*%
%TO.N,PB_POIGNET_FWD*%
X64700000Y-74700000D03*
%TO.P,R15,1*%
%TO.N,+3.3V*%
X62700000Y-74700000D03*
%TD*%
D11*
%TO.P,R9,1*%
%TO.N,+3.3V*%
X48900000Y-71700000D03*
%TO.P,R9,2*%
%TO.N,Net-(D2-A)*%
X46900000Y-71700000D03*
%TD*%
%TO.P,R8,1*%
%TO.N,Net-(D3-A)*%
X42400000Y-71700000D03*
%TO.P,R8,2*%
%TO.N,+3.3V*%
X40400000Y-71700000D03*
%TD*%
%TO.P,R6,1*%
%TO.N,Net-(D5-A)*%
X53400000Y-71700000D03*
%TO.P,R6,2*%
%TO.N,+3.3V*%
X51400000Y-71700000D03*
%TD*%
%TO.P,R5,2*%
%TO.N,GND*%
X40400000Y-68400000D03*
%TO.P,R5,1*%
%TO.N,Net-(U1-CS)*%
X42400000Y-68400000D03*
%TD*%
D12*
%TO.P,R4,1*%
%TO.N,MB_S2*%
X27100000Y-48400000D03*
%TO.P,R4,2*%
%TO.N,Net-(U2-INB)*%
X27100000Y-46400000D03*
%TD*%
%TO.P,R3,1*%
%TO.N,MB_S1*%
X23900000Y-48400000D03*
%TO.P,R3,2*%
%TO.N,Net-(U2-INA)*%
X23900000Y-46400000D03*
%TD*%
D21*
%TO.P,R2,1*%
%TO.N,MA_S2*%
X42200000Y-36600000D03*
%TO.P,R2,2*%
%TO.N,Net-(U1-INB)*%
X42200000Y-38600000D03*
%TD*%
D22*
%TO.P,R1,1*%
%TO.N,MA_S1*%
X23500000Y-37200000D03*
%TO.P,R1,2*%
%TO.N,Net-(U1-INA)*%
X25500000Y-37200000D03*
%TD*%
D23*
%TO.P,LED1,6*%
%TO.N,GND*%
X73273300Y-47899999D03*
%TO.P,LED1,5*%
X73273300Y-50000000D03*
%TO.P,LED1,4*%
X73273300Y-52099998D03*
%TO.P,LED1,3*%
%TO.N,LED_B*%
X68726700Y-52100001D03*
%TO.P,LED1,2*%
%TO.N,LED_G*%
X68726700Y-50000000D03*
%TO.P,LED1,1*%
%TO.N,Net-(LED1-Pad1)*%
X68726700Y-47900002D03*
%TD*%
D24*
%TO.P,J6,7*%
%TO.N,+5V*%
X37012500Y-97150000D03*
%TO.P,J6,5*%
%TO.N,unconnected-(J6-Pad5)*%
X34472500Y-97150000D03*
%TO.P,J6,3*%
%TO.N,unconnected-(J6-Pad3)*%
X31932500Y-97150000D03*
D25*
%TO.P,J6,1*%
%TO.N,CANH*%
X29392500Y-97150000D03*
D24*
%TO.P,J6,8*%
%TO.N,GND*%
X38282500Y-94610000D03*
%TO.P,J6,6*%
%TO.N,unconnected-(J6-Pad6)*%
X35742500Y-94610000D03*
%TO.P,J6,4*%
%TO.N,unconnected-(J6-Pad4)*%
X33202500Y-94610000D03*
%TO.P,J6,2*%
%TO.N,CANL*%
X30662500Y-94610000D03*
%TD*%
%TO.P,J5,2*%
%TO.N,CANL*%
X35675000Y-31890000D03*
%TO.P,J5,4*%
%TO.N,unconnected-(J5-Pad4)*%
X33135000Y-31890000D03*
%TO.P,J5,6*%
%TO.N,unconnected-(J5-Pad6)*%
X30595000Y-31890000D03*
%TO.P,J5,8*%
%TO.N,GND*%
X28055000Y-31890000D03*
D25*
%TO.P,J5,1*%
%TO.N,CANH*%
X36945000Y-29350000D03*
D24*
%TO.P,J5,3*%
%TO.N,unconnected-(J5-Pad3)*%
X34405000Y-29350000D03*
%TO.P,J5,5*%
%TO.N,unconnected-(J5-Pad5)*%
X31865000Y-29350000D03*
%TO.P,J5,7*%
%TO.N,+5V*%
X29325000Y-29350000D03*
%TD*%
D17*
%TO.P,J4,1*%
%TO.N,GND*%
X21475000Y-94500000D03*
D18*
%TO.P,J4,2*%
%TO.N,SERVO_POW*%
X21475000Y-92000000D03*
%TO.P,J4,3*%
%TO.N,SERVO_PWM*%
X21475000Y-89500000D03*
%TD*%
D26*
%TO.P,J3,*%
%TO.N,*%
X72500000Y-102500000D03*
X61500000Y-102500000D03*
D27*
%TO.P,J3,N,N*%
%TO.N,MB-*%
X69500000Y-97500000D03*
D28*
%TO.P,J3,P,P*%
%TO.N,MB+*%
X64500000Y-97500000D03*
%TD*%
%TO.P,J2,P,P*%
%TO.N,MA+*%
X48000000Y-97500000D03*
D27*
%TO.P,J2,N,N*%
%TO.N,MA-*%
X53000000Y-97500000D03*
D26*
%TO.P,J2,*%
%TO.N,*%
X45000000Y-102500000D03*
X56000000Y-102500000D03*
%TD*%
%TO.P,J1,*%
%TO.N,*%
X49000000Y-18205750D03*
X60000000Y-18205750D03*
D27*
%TO.P,J1,N,N*%
%TO.N,GND*%
X57000000Y-28205750D03*
D28*
%TO.P,J1,P,P*%
%TO.N,+24V*%
X52000000Y-28205750D03*
%TD*%
D29*
%TO.P,H3,1,1*%
%TO.N,GND*%
X73000000Y-19500000D03*
D30*
X73000000Y-19500000D03*
%TD*%
%TO.P,H2,1,1*%
%TO.N,GND*%
X20500000Y-19500000D03*
D29*
X20500000Y-19500000D03*
%TD*%
D30*
%TO.P,H1,1,1*%
%TO.N,GND*%
X20500000Y-102500000D03*
D29*
X20500000Y-102500000D03*
%TD*%
D31*
%TO.P,F3,2*%
%TO.N,Net-(U7-V_{IN})*%
X27450000Y-72050000D03*
%TO.P,F3,1*%
%TO.N,+24V*%
X31900000Y-72050000D03*
%TD*%
D32*
%TO.P,F2,1*%
%TO.N,+24V*%
X61000000Y-45600000D03*
%TO.P,F2,2*%
%TO.N,MB_24V*%
X61000000Y-53400000D03*
%TD*%
%TO.P,F1,1*%
%TO.N,+24V*%
X52000000Y-45600000D03*
%TO.P,F1,2*%
%TO.N,MA_24V*%
X52000000Y-53400000D03*
%TD*%
D33*
%TO.P,D4,2,A*%
%TO.N,Net-(D4-A)*%
X57675000Y-75000000D03*
%TO.P,D4,1,K*%
%TO.N,GND*%
X59725000Y-75000000D03*
%TD*%
D10*
%TO.P,D3,1,K*%
%TO.N,GND*%
X40410000Y-75000000D03*
%TO.P,D3,2,A*%
%TO.N,Net-(D3-A)*%
X42460000Y-75000000D03*
%TD*%
D33*
%TO.P,D2,1,K*%
%TO.N,GND*%
X48860000Y-75000000D03*
%TO.P,D2,2,A*%
%TO.N,Net-(D2-A)*%
X46810000Y-75000000D03*
%TD*%
D34*
%TO.P,D1,1,K*%
%TO.N,GND*%
X30000000Y-86975000D03*
%TO.P,D1,2,A*%
%TO.N,Net-(D1-A)*%
X30000000Y-89025000D03*
%TD*%
D35*
%TO.P,C13,1*%
%TO.N,+5V*%
X42200000Y-33237500D03*
%TO.P,C13,2*%
%TO.N,GND*%
X42200000Y-31162500D03*
%TD*%
D36*
%TO.P,C12,1*%
%TO.N,+5V*%
X42200000Y-26962500D03*
%TO.P,C12,2*%
%TO.N,GND*%
X42200000Y-29037500D03*
%TD*%
%TO.P,C10,1*%
%TO.N,Net-(U7-V_{IN})*%
X30200000Y-76062500D03*
%TO.P,C10,2*%
%TO.N,GND*%
X30200000Y-78137500D03*
%TD*%
%TO.P,C9,2*%
%TO.N,GND*%
X27500000Y-78137500D03*
%TO.P,C9,1*%
%TO.N,Net-(U7-V_{IN})*%
X27500000Y-76062500D03*
%TD*%
D37*
%TO.P,C8,1*%
%TO.N,+7.4V*%
X36400000Y-83055112D03*
D38*
%TO.P,C8,2*%
%TO.N,GND*%
X36400000Y-81055112D03*
%TD*%
%TO.P,C6,2*%
%TO.N,GND*%
X30700000Y-81055112D03*
D37*
%TO.P,C6,1*%
%TO.N,+7.4V*%
X30700000Y-83055112D03*
%TD*%
D14*
%TO.P,C2,1*%
%TO.N,+24V*%
X61632323Y-36500000D03*
D13*
%TO.P,C2,2*%
%TO.N,GND*%
X66632323Y-36500000D03*
%TD*%
D14*
%TO.P,C1,1*%
%TO.N,+24V*%
X55367677Y-36500000D03*
D13*
%TO.P,C1,2*%
%TO.N,GND*%
X50367677Y-36500000D03*
%TD*%
D39*
%TO.N,Net-(U1-INA)*%
X38500000Y-43700000D03*
X42700000Y-81500000D03*
%TO.N,GND*%
X51400000Y-66900000D03*
X41300000Y-67100000D03*
%TO.N,+3.3V*%
X41200000Y-70300000D03*
%TO.N,+5V*%
X22000000Y-60000000D03*
%TO.N,GND*%
X27200000Y-63100000D03*
%TO.N,PB_POIGNET_REV*%
X65300000Y-49400000D03*
%TO.N,PB_POIGNET_FWD*%
X66600000Y-50000000D03*
%TO.N,CS_Poignet*%
X43200000Y-47800000D03*
%TO.N,CS_Rotation*%
X42300000Y-45900000D03*
%TO.N,PB_ROT_REV*%
X62925735Y-57574265D03*
%TO.N,PB_ROT_FWD*%
X66150000Y-59950000D03*
%TO.N,SCK*%
X74500000Y-85000000D03*
%TO.N,Net-(U2-INB)*%
X57405000Y-82400000D03*
%TO.N,Net-(U2-INA)*%
X53600000Y-81700000D03*
X40400000Y-48200000D03*
%TO.N,Net-(U2-INB)*%
X41200003Y-48200000D03*
%TO.N,Net-(U1-INB)*%
X46500000Y-79600000D03*
X42200000Y-40600000D03*
%TO.N,LED_G*%
X70500000Y-48700000D03*
%TO.N,LED_R*%
X67300000Y-42300000D03*
%TO.N,SCL*%
X39200000Y-87800000D03*
X37300000Y-89600000D03*
%TO.N,GND*%
X33900000Y-64900000D03*
%TO.N,+3.3V*%
X62700000Y-61600000D03*
X51400000Y-73300000D03*
%TO.N,GND*%
X50100000Y-83600000D03*
X50100000Y-78700000D03*
X50100000Y-77750000D03*
X50095000Y-80545000D03*
X50100000Y-81600000D03*
X50100000Y-82600000D03*
X50100000Y-79500000D03*
%TO.N,+3.3V*%
X31700000Y-89900000D03*
%TO.N,GND*%
X34000000Y-86750000D03*
X49050000Y-80545000D03*
X49055000Y-81600000D03*
X49055000Y-82600000D03*
X49055000Y-79500000D03*
X40150000Y-80495000D03*
X40155000Y-81550000D03*
X40155000Y-82550000D03*
X40155000Y-79450000D03*
X51050000Y-81600000D03*
X51045000Y-80545000D03*
X51050000Y-79500000D03*
X51050000Y-82600000D03*
X59950000Y-82550000D03*
X59950000Y-81550000D03*
X59945000Y-80495000D03*
X59950000Y-79450000D03*
%TD*%
D40*
%TO.N,PB_POIGNET_FWD*%
X66600000Y-50000000D02*
X66600000Y-52800000D01*
X66600000Y-52800000D02*
X69400000Y-55600000D01*
X69400000Y-55600000D02*
X69400000Y-70402750D01*
X69400000Y-70402750D02*
X67196350Y-72606400D01*
%TO.N,GND*%
X42200000Y-31162500D02*
X42200000Y-29037500D01*
%TO.N,PB_POIGNET_REV*%
X65600000Y-49700000D02*
X65600000Y-53000000D01*
X65600000Y-53000000D02*
X68500000Y-55900000D01*
X68500000Y-55900000D02*
X68500000Y-65933950D01*
X65300000Y-49400000D02*
X65600000Y-49700000D01*
X68500000Y-65933950D02*
X67196350Y-67237600D01*
%TO.N,LED_B*%
X68726700Y-52100001D02*
X68929900Y-52100001D01*
X20700000Y-25200000D02*
X18700000Y-25200000D01*
X68929900Y-52100001D02*
X71500000Y-49529901D01*
X41200000Y-20300000D02*
X25600000Y-20300000D01*
X71500000Y-49529901D02*
X71500000Y-36100000D01*
X18700000Y-25200000D02*
X17900000Y-26000000D01*
X71500000Y-36100000D02*
X60100000Y-24700000D01*
X60100000Y-24700000D02*
X45600000Y-24700000D01*
X25600000Y-20300000D02*
X20700000Y-25200000D01*
X45600000Y-24700000D02*
X41200000Y-20300000D01*
X17900000Y-26000000D02*
X17900000Y-42865000D01*
X17900000Y-42865000D02*
X19800000Y-44765000D01*
%TO.N,Net-(U1-INA)*%
X38500000Y-43700000D02*
X32000000Y-37200000D01*
X32000000Y-37200000D02*
X25500000Y-37200000D01*
%TO.N,CS_Rotation*%
X42300000Y-45900000D02*
X40900000Y-44500000D01*
X40900000Y-44500000D02*
X24615000Y-44500000D01*
X24615000Y-44500000D02*
X19800000Y-39685000D01*
%TO.N,CS_Poignet*%
X43200000Y-47800000D02*
X40800000Y-45400000D01*
X40800000Y-45400000D02*
X22975000Y-45400000D01*
X22975000Y-45400000D02*
X19800000Y-42225000D01*
%TO.N,Net-(U1-INA)*%
X42695000Y-81505000D02*
X42700000Y-81500000D01*
X42695000Y-83724150D02*
X42695000Y-81505000D01*
%TO.N,Net-(D2-A)*%
X46810000Y-75000000D02*
X46810000Y-71790000D01*
X46810000Y-71790000D02*
X46900000Y-71700000D01*
%TO.N,GND*%
X51400000Y-68300000D02*
X51400000Y-66900000D01*
%TO.N,+3.3V*%
X51400000Y-71700000D02*
X48900000Y-71700000D01*
X40400000Y-71700000D02*
X40400000Y-71100000D01*
X40400000Y-71100000D02*
X41200000Y-70300000D01*
%TO.N,GND*%
X40400000Y-68400000D02*
X40400000Y-68000000D01*
X40400000Y-68000000D02*
X41300000Y-67100000D01*
%TO.N,+5V*%
X22000000Y-60000000D02*
X21500000Y-60500000D01*
X21500000Y-60500000D02*
X21500000Y-67200000D01*
X21500000Y-67200000D02*
X19300000Y-69400000D01*
X19300000Y-69400000D02*
X19300000Y-83500000D01*
X19300000Y-83500000D02*
X23800000Y-88000000D01*
X27600000Y-95900000D02*
X35762500Y-95900000D01*
X23800000Y-88000000D02*
X23800000Y-92100000D01*
X23800000Y-92100000D02*
X27600000Y-95900000D01*
X35762500Y-95900000D02*
X37012500Y-97150000D01*
%TO.N,PB_ROT_REV*%
X62925735Y-57574265D02*
X63074265Y-57574265D01*
X63074265Y-57574265D02*
X64700000Y-59200000D01*
X64700000Y-59200000D02*
X64700000Y-59300000D01*
%TO.N,PB_ROT_FWD*%
X67196350Y-60996350D02*
X67196350Y-61868800D01*
X66150000Y-59950000D02*
X67196350Y-60996350D01*
%TO.N,SCK*%
X72475000Y-89400000D02*
X74500000Y-87375000D01*
X74500000Y-87375000D02*
X74500000Y-85000000D01*
%TO.N,GND*%
X72475000Y-84400000D02*
X72600000Y-84400000D01*
X72600000Y-84400000D02*
X74600000Y-82400000D01*
X74600000Y-82400000D02*
X74600000Y-72810050D01*
X74600000Y-72810050D02*
X74803650Y-72606400D01*
X73273300Y-50000000D02*
X73273300Y-47899999D01*
X73273300Y-52099998D02*
X73273300Y-50000000D01*
X74803650Y-56500000D02*
X74803650Y-53630348D01*
X74803650Y-53630348D02*
X73273300Y-52099998D01*
X74803650Y-61868800D02*
X74803650Y-56500000D01*
X74803650Y-67237600D02*
X74803650Y-61868800D01*
X74803650Y-72606400D02*
X74803650Y-67237600D01*
%TO.N,Net-(U2-INB)*%
X57405000Y-82400000D02*
X57405000Y-83724150D01*
X41000000Y-47951471D02*
X39448529Y-46400000D01*
X39448529Y-46400000D02*
X27100000Y-46400000D01*
X41200003Y-48200000D02*
X41000000Y-47999997D01*
X41000000Y-47999997D02*
X41000000Y-47951471D01*
%TO.N,Net-(U2-INA)*%
X25000000Y-47500000D02*
X23900000Y-46400000D01*
X39700000Y-47500000D02*
X25000000Y-47500000D01*
X40400000Y-48200000D02*
X39700000Y-47500000D01*
X53595000Y-83724150D02*
X53595000Y-81705000D01*
X53595000Y-81705000D02*
X53600000Y-81700000D01*
%TO.N,Net-(U1-INB)*%
X46500000Y-79600000D02*
X46505000Y-79605000D01*
X46505000Y-79605000D02*
X46505000Y-83724150D01*
X42200000Y-40600000D02*
X42200000Y-40700000D01*
X42200000Y-38600000D02*
X42200000Y-40600000D01*
X42200000Y-38600000D02*
X42300000Y-38600000D01*
%TO.N,MA_S2*%
X42200000Y-36600000D02*
X42200000Y-35065000D01*
X42200000Y-35065000D02*
X45200000Y-32065000D01*
%TO.N,MB_S2*%
X19800000Y-49845000D02*
X25655000Y-49845000D01*
X25655000Y-49845000D02*
X27100000Y-48400000D01*
%TO.N,MB_S1*%
X19800000Y-47305000D02*
X20895000Y-48400000D01*
X20895000Y-48400000D02*
X23900000Y-48400000D01*
%TO.N,MA_S1*%
X19800000Y-37145000D02*
X23445000Y-37145000D01*
X23445000Y-37145000D02*
X23500000Y-37200000D01*
%TO.N,LED_G*%
X70500000Y-48700000D02*
X69200000Y-50000000D01*
X69200000Y-50000000D02*
X68726700Y-50000000D01*
%TO.N,Net-(LED1-Pad1)*%
X68500000Y-45500000D02*
X68500000Y-47673302D01*
X68500000Y-47673302D02*
X68726700Y-47900002D01*
%TO.N,GND*%
X42200000Y-29037500D02*
X44712500Y-29037500D01*
X44712500Y-29037500D02*
X45200000Y-29525000D01*
%TO.N,LED_R*%
X67300000Y-42300000D02*
X68500000Y-43500000D01*
%TO.N,SCL*%
X37300000Y-89600000D02*
X39100000Y-87800000D01*
X39100000Y-87800000D02*
X39200000Y-87800000D01*
%TO.N,Net-(D4-A)*%
X57800000Y-71700000D02*
X57800000Y-74875000D01*
X57800000Y-74875000D02*
X57675000Y-75000000D01*
%TO.N,+3.3V*%
X59800000Y-71700000D02*
X60900000Y-71700000D01*
X60900000Y-71700000D02*
X62700000Y-69900000D01*
%TO.N,Net-(U1-CS)*%
X42400000Y-68400000D02*
X43965000Y-69965000D01*
X43965000Y-69965000D02*
X43965000Y-78275850D01*
D41*
%TO.N,+24V*%
X52000000Y-45600000D02*
X52000000Y-46550000D01*
X47600000Y-63500000D02*
X46500000Y-64600000D01*
X52000000Y-46550000D02*
X47600000Y-50950000D01*
X47600000Y-50950000D02*
X47600000Y-63500000D01*
X46500000Y-64600000D02*
X41700000Y-64600000D01*
X41700000Y-64600000D02*
X34250000Y-72050000D01*
X34250000Y-72050000D02*
X31900000Y-72050000D01*
D40*
%TO.N,Net-(U2-CS)*%
X53400000Y-68300000D02*
X54865000Y-69765000D01*
X54865000Y-69765000D02*
X54865000Y-78275850D01*
%TO.N,+3.3V*%
X62700000Y-61600000D02*
X62700000Y-64600000D01*
X62700000Y-69900000D02*
X62700000Y-74700000D01*
X62700000Y-69900000D02*
X62700000Y-64600000D01*
X62700000Y-59300000D02*
X62700000Y-61600000D01*
%TO.N,PB_ROT_REV*%
X64700000Y-59300000D02*
X67196350Y-56803650D01*
X67196350Y-56803650D02*
X67196350Y-56500000D01*
%TO.N,PB_ROT_FWD*%
X64700000Y-64600000D02*
X64700000Y-64365150D01*
X64700000Y-64365150D02*
X67196350Y-61868800D01*
%TO.N,PB_POIGNET_REV*%
X64700000Y-69900000D02*
X67196350Y-67403650D01*
X67196350Y-67403650D02*
X67196350Y-67237600D01*
%TO.N,PB_POIGNET_FWD*%
X64700000Y-74700000D02*
X65102750Y-74700000D01*
X65102750Y-74700000D02*
X67196350Y-72606400D01*
%TO.N,Net-(D3-A)*%
X42400000Y-71700000D02*
X42400000Y-74940000D01*
X42400000Y-74940000D02*
X42460000Y-75000000D01*
D41*
%TO.N,MA_24V*%
X52000000Y-53500000D02*
X52000000Y-63200000D01*
X52000000Y-63200000D02*
X45235000Y-69965000D01*
X45235000Y-69965000D02*
X45235000Y-82850000D01*
D40*
%TO.N,GND*%
X40410000Y-75000000D02*
X40410000Y-78095000D01*
%TO.N,Net-(D3-A)*%
X42460000Y-75000000D02*
X42460000Y-78115000D01*
%TO.N,+3.3V*%
X51400000Y-73300000D02*
X51400000Y-71700000D01*
%TO.N,Net-(D5-A)*%
X53425000Y-75000000D02*
X53425000Y-71725000D01*
X53425000Y-71725000D02*
X53400000Y-71700000D01*
%TO.N,+5V*%
X42200000Y-26962500D02*
X31712500Y-26962500D01*
X31712500Y-26962500D02*
X29325000Y-29350000D01*
X45200000Y-26985000D02*
X42222500Y-26985000D01*
X42222500Y-26985000D02*
X42200000Y-26962500D01*
X41437500Y-33237500D02*
X40400000Y-32200000D01*
X40400000Y-28762500D02*
X42200000Y-26962500D01*
X42200000Y-33237500D02*
X41437500Y-33237500D01*
X40400000Y-32200000D02*
X40400000Y-28762500D01*
D41*
%TO.N,MA+*%
X41425000Y-83798300D02*
X41425000Y-90925000D01*
X41425000Y-90925000D02*
X48000000Y-97500000D01*
%TO.N,MA-*%
X47775000Y-83798300D02*
X47775000Y-92112500D01*
X47775000Y-92112500D02*
X53162500Y-97500000D01*
D40*
%TO.N,Net-(D5-A)*%
X53425000Y-75000000D02*
X53425000Y-78105850D01*
X53425000Y-78105850D02*
X53595000Y-78275850D01*
%TO.N,GND*%
X51375000Y-75000000D02*
X51375000Y-77955850D01*
X51375000Y-77955850D02*
X51055000Y-78275850D01*
X59725000Y-75000000D02*
X59725000Y-78055850D01*
X59725000Y-78055850D02*
X59945000Y-78275850D01*
%TO.N,Net-(D4-A)*%
X57675000Y-75000000D02*
X57675000Y-78005850D01*
X57675000Y-78005850D02*
X57405000Y-78275850D01*
%TO.N,Net-(D3-A)*%
X42460000Y-78115000D02*
X42695000Y-78350000D01*
%TO.N,GND*%
X40410000Y-78095000D02*
X40155000Y-78350000D01*
X48860000Y-75000000D02*
X48860000Y-78165000D01*
X48860000Y-78165000D02*
X49045000Y-78350000D01*
%TO.N,Net-(D2-A)*%
X46505000Y-78350000D02*
X46505000Y-75305000D01*
X46505000Y-75305000D02*
X46810000Y-75000000D01*
%TO.N,GND*%
X30000000Y-86975000D02*
X33775000Y-86975000D01*
X33775000Y-86975000D02*
X34000000Y-86750000D01*
%TO.N,Net-(D1-A)*%
X27000000Y-89000000D02*
X27500000Y-89000000D01*
X27500000Y-89000000D02*
X27525000Y-89025000D01*
X27525000Y-89025000D02*
X30000000Y-89025000D01*
%TO.N,+7.4V*%
X23000000Y-82000000D02*
X23000000Y-83000000D01*
X23000000Y-83000000D02*
X27000000Y-87000000D01*
D41*
%TO.N,MB-*%
X58675000Y-83724150D02*
X58675000Y-92175000D01*
X61500000Y-95000000D02*
X67000000Y-95000000D01*
X58675000Y-92175000D02*
X61500000Y-95000000D01*
X67000000Y-95000000D02*
X69500000Y-97500000D01*
%TO.N,MB+*%
X52325000Y-83724150D02*
X52325000Y-89825000D01*
X52325000Y-89825000D02*
X60000000Y-97500000D01*
X60000000Y-97500000D02*
X64500000Y-97500000D01*
%TO.N,MA+*%
X48000000Y-97500000D02*
X48162500Y-97500000D01*
D40*
%TO.N,Net-(U7-V_{IN})*%
X27500000Y-76062500D02*
X27450000Y-76012500D01*
X27450000Y-76012500D02*
X27450000Y-72050000D01*
X30200000Y-76062500D02*
X27500000Y-76062500D01*
%TO.N,GND*%
X23000000Y-77000000D02*
X26362500Y-77000000D01*
X26362500Y-77000000D02*
X27500000Y-78137500D01*
X30200000Y-78137500D02*
X27500000Y-78137500D01*
D41*
%TO.N,Net-(U7-V_{IN})*%
X27450000Y-72050000D02*
X23050000Y-72050000D01*
X23050000Y-72050000D02*
X23000000Y-72000000D01*
%TO.N,GND*%
X49045000Y-78350000D02*
X49045000Y-83798300D01*
X40155000Y-78350000D02*
X40155000Y-83798300D01*
X59945000Y-79455000D02*
X59950000Y-79450000D01*
X59945000Y-80495000D02*
X59945000Y-81545000D01*
X59945000Y-81545000D02*
X59950000Y-81550000D01*
X59945000Y-80495000D02*
X59945000Y-79455000D01*
X59945000Y-82545000D02*
X59945000Y-81700000D01*
X59950000Y-82550000D02*
X59945000Y-82545000D01*
X59945000Y-82555000D02*
X59950000Y-82550000D01*
X59945000Y-81555000D02*
X59950000Y-81550000D01*
X59945000Y-79445000D02*
X59945000Y-79395000D01*
X59950000Y-79450000D02*
X59945000Y-79445000D01*
X59945000Y-82745000D02*
X59945000Y-82555000D01*
X59945000Y-82745000D02*
X59945000Y-83724150D01*
X59945000Y-81700000D02*
X59945000Y-81555000D01*
X59945000Y-79395000D02*
X59945000Y-78275850D01*
X51055000Y-78275850D02*
X51055000Y-83724150D01*
%TO.N,MB+*%
X52325000Y-78275850D02*
X52325000Y-83724150D01*
%TO.N,MB-*%
X58675000Y-78275850D02*
X58675000Y-83724150D01*
%TO.N,MB_24V*%
X56135000Y-78275850D02*
X56135000Y-82500000D01*
X56135000Y-82500000D02*
X56135000Y-83724150D01*
X54865000Y-83724150D02*
X54910850Y-83724150D01*
X54910850Y-83724150D02*
X56135000Y-82500000D01*
X56135000Y-83724150D02*
X54865000Y-83724150D01*
X61000000Y-58000000D02*
X56135000Y-62865000D01*
X56135000Y-62865000D02*
X56135000Y-78275850D01*
X61000000Y-53400000D02*
X61000000Y-58000000D01*
%TO.N,MA+*%
X41425000Y-78350000D02*
X41425000Y-83798300D01*
%TO.N,MA-*%
X47775000Y-78350000D02*
X47775000Y-83798300D01*
%TO.N,MA_24V*%
X43965000Y-83798300D02*
X45235000Y-83798300D01*
X45235000Y-82850000D02*
X45235000Y-83798300D01*
X45235000Y-82850000D02*
X44913300Y-82850000D01*
X44913300Y-82850000D02*
X43965000Y-83798300D01*
D40*
X52000000Y-53400000D02*
X52000000Y-53500000D01*
%TD*%
%TA.AperFunction,Conductor*%
%TO.N,+24V*%
G36*
X56806923Y-26219685D02*
G01*
X56852678Y-26272489D01*
X56862622Y-26341647D01*
X56833597Y-26405203D01*
X56774819Y-26442977D01*
X56758365Y-26446615D01*
X56603810Y-26469909D01*
X56603804Y-26469911D01*
X56349514Y-26548350D01*
X56109769Y-26663805D01*
X56109760Y-26663810D01*
X55889892Y-26813713D01*
X55694820Y-26994712D01*
X55528899Y-27202770D01*
X55395844Y-27433228D01*
X55298625Y-27680939D01*
X55298620Y-27680956D01*
X55239405Y-27940390D01*
X55239405Y-27940392D01*
X55219521Y-28205745D01*
X55219521Y-28205754D01*
X55239405Y-28471107D01*
X55239405Y-28471109D01*
X55239407Y-28471117D01*
X55298623Y-28730555D01*
X55395844Y-28978271D01*
X55528899Y-29208730D01*
X55662906Y-29376768D01*
X55694820Y-29416787D01*
X55809332Y-29523038D01*
X55889890Y-29597785D01*
X56109761Y-29747690D01*
X56349514Y-29863149D01*
X56349515Y-29863149D01*
X56349518Y-29863151D01*
X56603806Y-29941589D01*
X56603807Y-29941589D01*
X56603810Y-29941590D01*
X56866937Y-29981249D01*
X56866942Y-29981249D01*
X56866945Y-29981250D01*
X56866946Y-29981250D01*
X57133054Y-29981250D01*
X57133055Y-29981250D01*
X57133062Y-29981249D01*
X57396189Y-29941590D01*
X57396190Y-29941589D01*
X57396194Y-29941589D01*
X57650482Y-29863151D01*
X57890240Y-29747690D01*
X58110110Y-29597785D01*
X58305183Y-29416783D01*
X58471101Y-29208730D01*
X58604156Y-28978271D01*
X58701377Y-28730555D01*
X58760593Y-28471117D01*
X58780479Y-28205750D01*
X58760593Y-27940383D01*
X58701377Y-27680945D01*
X58604156Y-27433229D01*
X58471101Y-27202770D01*
X58305183Y-26994717D01*
X58305182Y-26994716D01*
X58305179Y-26994712D01*
X58110110Y-26813715D01*
X58110107Y-26813713D01*
X57890240Y-26663810D01*
X57890236Y-26663808D01*
X57890233Y-26663806D01*
X57890232Y-26663805D01*
X57650484Y-26548350D01*
X57650486Y-26548350D01*
X57396195Y-26469911D01*
X57396189Y-26469909D01*
X57241635Y-26446615D01*
X57178278Y-26417159D01*
X57140904Y-26358125D01*
X57141379Y-26288257D01*
X57179552Y-26229737D01*
X57243304Y-26201145D01*
X57260116Y-26200000D01*
X60449451Y-26200000D01*
X60516490Y-26219685D01*
X60536142Y-26235339D01*
X60574136Y-26272489D01*
X64367186Y-29981249D01*
X64962691Y-30563520D01*
X64996862Y-30624463D01*
X65000000Y-30652181D01*
X65000000Y-48376000D01*
X64980315Y-48443039D01*
X64927511Y-48488794D01*
X64876000Y-48500000D01*
X47624000Y-48500000D01*
X47556961Y-48480315D01*
X47511206Y-48427511D01*
X47500000Y-48376000D01*
X47500000Y-36500005D01*
X48862034Y-36500005D01*
X48882567Y-36747812D01*
X48882569Y-36747824D01*
X48943613Y-36988881D01*
X49043503Y-37216606D01*
X49179510Y-37424782D01*
X49179513Y-37424785D01*
X49347933Y-37607738D01*
X49544168Y-37760474D01*
X49762867Y-37878828D01*
X49998063Y-37959571D01*
X50243342Y-38000500D01*
X50492012Y-38000500D01*
X50737291Y-37959571D01*
X50972487Y-37878828D01*
X51191186Y-37760474D01*
X51387421Y-37607738D01*
X51555841Y-37424785D01*
X51691850Y-37216607D01*
X51791740Y-36988881D01*
X51852785Y-36747821D01*
X51873320Y-36500000D01*
X51859381Y-36331785D01*
X51852786Y-36252187D01*
X51852784Y-36252175D01*
X51791740Y-36011118D01*
X51691850Y-35783393D01*
X51555843Y-35575217D01*
X51534234Y-35551744D01*
X51387421Y-35392262D01*
X51191186Y-35239526D01*
X51191184Y-35239525D01*
X51191183Y-35239524D01*
X50972488Y-35121172D01*
X50972479Y-35121169D01*
X50737293Y-35040429D01*
X50492012Y-34999500D01*
X50243342Y-34999500D01*
X49998060Y-35040429D01*
X49762874Y-35121169D01*
X49762865Y-35121172D01*
X49544170Y-35239524D01*
X49347934Y-35392261D01*
X49179510Y-35575217D01*
X49043503Y-35783393D01*
X48943613Y-36011118D01*
X48882569Y-36252175D01*
X48882567Y-36252187D01*
X48862034Y-36499994D01*
X48862034Y-36500005D01*
X47500000Y-36500005D01*
X47500000Y-26324000D01*
X47519685Y-26256961D01*
X47572489Y-26211206D01*
X47624000Y-26200000D01*
X56739884Y-26200000D01*
X56806923Y-26219685D01*
G37*
%TD.AperFunction*%
%TD*%
%TA.AperFunction,Conductor*%
%TO.N,GND*%
G36*
X51495351Y-77319685D02*
G01*
X51541106Y-77372489D01*
X51551602Y-77437254D01*
X51551509Y-77438116D01*
X51551509Y-77438117D01*
X51545100Y-77497727D01*
X51545100Y-77497728D01*
X51545100Y-77497732D01*
X51545100Y-77604585D01*
X51525415Y-77671624D01*
X51524224Y-77673441D01*
X51519210Y-77680947D01*
X51438371Y-77801930D01*
X51438364Y-77801943D01*
X51362950Y-77984010D01*
X51362947Y-77984020D01*
X51324500Y-78177306D01*
X51324500Y-84376000D01*
X51304815Y-84443039D01*
X51252011Y-84488794D01*
X51200500Y-84500000D01*
X48899500Y-84500000D01*
X48832461Y-84480315D01*
X48786706Y-84427511D01*
X48775500Y-84376000D01*
X48775500Y-78251456D01*
X48737052Y-78058170D01*
X48737051Y-78058169D01*
X48737051Y-78058165D01*
X48661632Y-77876086D01*
X48575796Y-77747623D01*
X48554919Y-77680947D01*
X48554899Y-77678734D01*
X48554899Y-77497729D01*
X48554899Y-77497728D01*
X48548491Y-77438117D01*
X48548490Y-77438116D01*
X48548398Y-77437254D01*
X48560805Y-77368494D01*
X48608416Y-77317358D01*
X48671688Y-77300000D01*
X51428312Y-77300000D01*
X51495351Y-77319685D01*
G37*
%TD.AperFunction*%
%TD*%
M02*
