%TF.GenerationSoftware,KiCad,Pcbnew,7.0.1*%
%TF.CreationDate,2023-04-12T13:59:21-04:00*%
%TF.ProjectId,PCB_BioGenius,5043425f-4269-46f4-9765-6e6975732e6b,rev?*%
%TF.SameCoordinates,Original*%
%TF.FileFunction,Soldermask,Top*%
%TF.FilePolarity,Negative*%
%FSLAX46Y46*%
G04 Gerber Fmt 4.6, Leading zero omitted, Abs format (unit mm)*
G04 Created by KiCad (PCBNEW 7.0.1) date 2023-04-12 13:59:21*
%MOMM*%
%LPD*%
G01*
G04 APERTURE LIST*
G04 Aperture macros list*
%AMRoundRect*
0 Rectangle with rounded corners*
0 $1 Rounding radius*
0 $2 $3 $4 $5 $6 $7 $8 $9 X,Y pos of 4 corners*
0 Add a 4 corners polygon primitive as box body*
4,1,4,$2,$3,$4,$5,$6,$7,$8,$9,$2,$3,0*
0 Add four circle primitives for the rounded corners*
1,1,$1+$1,$2,$3*
1,1,$1+$1,$4,$5*
1,1,$1+$1,$6,$7*
1,1,$1+$1,$8,$9*
0 Add four rect primitives between the rounded corners*
20,1,$1+$1,$2,$3,$4,$5,0*
20,1,$1+$1,$4,$5,$6,$7,0*
20,1,$1+$1,$6,$7,$8,$9,0*
20,1,$1+$1,$8,$9,$2,$3,0*%
G04 Aperture macros list end*
%ADD10RoundRect,0.250000X0.600000X0.600000X-0.600000X0.600000X-0.600000X-0.600000X0.600000X-0.600000X0*%
%ADD11C,1.700000*%
%ADD12RoundRect,0.250000X-0.600000X0.600000X-0.600000X-0.600000X0.600000X-0.600000X0.600000X0.600000X0*%
%ADD13R,1.700000X1.700000*%
%ADD14O,1.700000X1.700000*%
%ADD15RoundRect,0.250000X-0.600000X-0.600000X0.600000X-0.600000X0.600000X0.600000X-0.600000X0.600000X0*%
%ADD16RoundRect,0.250000X0.600000X-0.600000X0.600000X0.600000X-0.600000X0.600000X-0.600000X-0.600000X0*%
G04 APERTURE END LIST*
D10*
%TO.C,J4*%
X172720000Y-109220000D03*
D11*
X170180000Y-109220000D03*
X172720000Y-106680000D03*
X170180000Y-106680000D03*
X172720000Y-104140000D03*
X170180000Y-104140000D03*
X172720000Y-101600000D03*
X170180000Y-101600000D03*
X172720000Y-99060000D03*
X170180000Y-99060000D03*
%TD*%
D12*
%TO.C,J6*%
X147320000Y-86360000D03*
D11*
X147320000Y-88900000D03*
X144780000Y-86360000D03*
X144780000Y-88900000D03*
X142240000Y-86360000D03*
X142240000Y-88900000D03*
X139700000Y-86360000D03*
X139700000Y-88900000D03*
X137160000Y-86360000D03*
X137160000Y-88900000D03*
%TD*%
D13*
%TO.C,J15*%
X89380000Y-149860000D03*
D14*
X89380000Y-152400000D03*
%TD*%
D15*
%TO.C,J11*%
X88900000Y-119380000D03*
D11*
X91440000Y-119380000D03*
X88900000Y-121920000D03*
X91440000Y-121920000D03*
X88900000Y-124460000D03*
X91440000Y-124460000D03*
X88900000Y-127000000D03*
X91440000Y-127000000D03*
X88900000Y-129540000D03*
X91440000Y-129540000D03*
%TD*%
D16*
%TO.C,J2*%
X137160000Y-165100000D03*
D11*
X137160000Y-162560000D03*
X139700000Y-165100000D03*
X139700000Y-162560000D03*
X142240000Y-165100000D03*
X142240000Y-162560000D03*
X144780000Y-165100000D03*
X144780000Y-162560000D03*
X147320000Y-165100000D03*
X147320000Y-162560000D03*
%TD*%
D13*
%TO.C,J12*%
X162560000Y-162560000D03*
D14*
X162560000Y-165100000D03*
%TD*%
D12*
%TO.C,J5*%
X116840000Y-86360000D03*
D11*
X116840000Y-88900000D03*
X114300000Y-86360000D03*
X114300000Y-88900000D03*
X111760000Y-86360000D03*
X111760000Y-88900000D03*
X109220000Y-86360000D03*
X109220000Y-88900000D03*
X106680000Y-86360000D03*
X106680000Y-88900000D03*
%TD*%
D16*
%TO.C,J1*%
X106680000Y-165100000D03*
D11*
X106680000Y-162560000D03*
X109220000Y-165100000D03*
X109220000Y-162560000D03*
X111760000Y-165100000D03*
X111760000Y-162560000D03*
X114300000Y-165100000D03*
X114300000Y-162560000D03*
X116840000Y-165100000D03*
X116840000Y-162560000D03*
%TD*%
D13*
%TO.C,J9*%
X104140000Y-137160000D03*
D14*
X106680000Y-137160000D03*
X109220000Y-137160000D03*
X111760000Y-137160000D03*
X114300000Y-137160000D03*
X116840000Y-137160000D03*
X119380000Y-137160000D03*
X121920000Y-137160000D03*
X124460000Y-137160000D03*
X127000000Y-137160000D03*
X129540000Y-137160000D03*
X132080000Y-137160000D03*
X134620000Y-137160000D03*
X137160000Y-137160000D03*
X139700000Y-137160000D03*
X142240000Y-137160000D03*
X144780000Y-137160000D03*
X147320000Y-137160000D03*
X149860000Y-137160000D03*
%TD*%
D10*
%TO.C,J3*%
X172720000Y-149860000D03*
D11*
X170180000Y-149860000D03*
X172720000Y-147320000D03*
X170180000Y-147320000D03*
X172720000Y-144780000D03*
X170180000Y-144780000D03*
X172720000Y-142240000D03*
X170180000Y-142240000D03*
X172720000Y-139700000D03*
X170180000Y-139700000D03*
%TD*%
D13*
%TO.C,J13*%
X89380000Y-157480000D03*
D14*
X89380000Y-160020000D03*
%TD*%
D13*
%TO.C,J7*%
X104140000Y-144780000D03*
D14*
X106680000Y-144780000D03*
X109220000Y-144780000D03*
X111760000Y-144780000D03*
X114300000Y-144780000D03*
X116840000Y-144780000D03*
X119380000Y-144780000D03*
X121920000Y-144780000D03*
X124460000Y-144780000D03*
X127000000Y-144780000D03*
X129540000Y-144780000D03*
X132080000Y-144780000D03*
X134620000Y-144780000D03*
X137160000Y-144780000D03*
X139700000Y-144780000D03*
X142240000Y-144780000D03*
X144780000Y-144780000D03*
X147320000Y-144780000D03*
X149860000Y-144780000D03*
%TD*%
D13*
%TO.C,J8*%
X149860000Y-104140000D03*
D14*
X147320000Y-104140000D03*
X144780000Y-104140000D03*
X142240000Y-104140000D03*
X139700000Y-104140000D03*
X137160000Y-104140000D03*
X134620000Y-104140000D03*
X132080000Y-104140000D03*
X129540000Y-104140000D03*
X127000000Y-104140000D03*
X124460000Y-104140000D03*
X121920000Y-104140000D03*
X119380000Y-104140000D03*
X116840000Y-104140000D03*
X114300000Y-104140000D03*
X111760000Y-104140000D03*
X109220000Y-104140000D03*
X106680000Y-104140000D03*
X104140000Y-104140000D03*
%TD*%
D13*
%TO.C,J16*%
X93980000Y-149860000D03*
D14*
X93980000Y-152400000D03*
%TD*%
D13*
%TO.C,J10*%
X149860000Y-111760000D03*
D14*
X147320000Y-111760000D03*
X144780000Y-111760000D03*
X142240000Y-111760000D03*
X139700000Y-111760000D03*
X137160000Y-111760000D03*
X134620000Y-111760000D03*
X132080000Y-111760000D03*
X129540000Y-111760000D03*
X127000000Y-111760000D03*
X124460000Y-111760000D03*
X121920000Y-111760000D03*
X119380000Y-111760000D03*
X116840000Y-111760000D03*
X114300000Y-111760000D03*
X111760000Y-111760000D03*
X109220000Y-111760000D03*
X106680000Y-111760000D03*
X104140000Y-111760000D03*
%TD*%
D13*
%TO.C,J14*%
X93980000Y-157480000D03*
D14*
X93980000Y-160020000D03*
%TD*%
M02*
