M48
METRIC,TZ
T1C0.270
%
G90
G05
T1
X121525Y-98580
X121525Y-102740
X121525Y-112003
X121750Y-81290
X121750Y-83830
X121750Y-86370
X121750Y-88910
X121820Y-116300
X121860Y-92410
X122100Y-107725
X122100Y-109375
X122213Y-106530
X122292Y-104672
X122650Y-133550
X122654Y-124263
X123150Y-127510
X123414Y-105215
X123470Y-81900
X123579Y-85589
X123719Y-100780
X123818Y-98429
X124041Y-104251
X124430Y-127560
X124575Y-113397
X124725Y-123175
X124805Y-98366
X124918Y-115097
X124924Y-101038
X124941Y-104772
X125066Y-124139
X125300Y-103725
X125523Y-109230
X125630Y-129430
X125682Y-98573
X125700Y-119575
X125825Y-104875
X125922Y-100754
X126044Y-95789
X126083Y-133871
X126250Y-132675
X126275Y-89400
X126289Y-110015
X126405Y-107739
X126510Y-93510
X126575Y-125811
X126722Y-98386
X126830Y-81290
X126830Y-83830
X126830Y-86370
X126862Y-102837
X126960Y-124263
X126982Y-134768
X127222Y-132153
X127660Y-95180
X127790Y-99868
X127815Y-94380
X127818Y-107509
X127820Y-110151
X127825Y-116600
X127930Y-129320
X128091Y-104850
X128099Y-115706
X128187Y-112645
X128226Y-108600
X128229Y-102772
X128400Y-114725
X128635Y-134900
X129134Y-118052
X129370Y-81290
X129370Y-83830
X129370Y-86370
X129370Y-88910
X129370Y-91450
X129945Y-108649
X130141Y-112931
X130368Y-110088
X130509Y-103040
X131123Y-133778
X131155Y-125850
X131200Y-108075
X131232Y-132151
X131239Y-120325
X131250Y-122425
X131850Y-128375
X131910Y-81290
X131910Y-83830
X131910Y-86370
X131910Y-88910
X131910Y-91450
X131910Y-93990
X131910Y-99070
X131910Y-104150
X132100Y-134650
X132125Y-131225
X132175Y-133175
X132299Y-135498
X132300Y-120775
X132775Y-136178
X132950Y-103175
X133025Y-111375
X133447Y-115723
X134050Y-101350
X134075Y-133025
X134108Y-134860
X134161Y-126443
X134200Y-124125
X134225Y-134099
X134282Y-130715
X134376Y-113119
X134450Y-76210
X134450Y-81290
X134450Y-96530
X134450Y-99070
X134450Y-104150
X134600Y-122425
X135049Y-135851
X135125Y-134925
X135140Y-106120
X135140Y-107760
X135310Y-94380
X135340Y-134175
X135350Y-123600
X135375Y-125475
X135463Y-89205
X135463Y-90944
X135650Y-119775
X135680Y-112310
X135750Y-128950
X135900Y-132550
X135920Y-83550
X135925Y-133425
X135950Y-135450
X135975Y-87525
X136090Y-101380
X136150Y-117825
X136351Y-120439
X136490Y-112320
X136570Y-134700
X136710Y-94400
X136764Y-135889
X136780Y-106120
X136820Y-107790
X136990Y-76210
X136990Y-81290
X136990Y-96530
X136990Y-99070
X136990Y-104150
X137200Y-135250
X137400Y-134499
X137424Y-120503
X137650Y-119600
X137656Y-113057
X137685Y-129830
X137699Y-124550
X137714Y-130706
X137719Y-126292
X137950Y-101330
X138130Y-133351
X138225Y-134700
X138625Y-119000
X138690Y-104194
X138732Y-124580
X138853Y-131017
X138908Y-119783
X138930Y-134033
X139100Y-112325
X139530Y-81290
X139530Y-88910
X139530Y-91450
X139530Y-96530
X139530Y-99070
X139530Y-109230
X139538Y-131568
X139649Y-135541
X139687Y-132420
X139720Y-134439
X139750Y-125500
X139757Y-87061
X139775Y-123600
X139883Y-122804
X139910Y-102240
X140170Y-133390
X140620Y-116330
X140672Y-132701
X140810Y-134247
X141327Y-121772
X141371Y-135195
X141574Y-105304
X141695Y-122886
X141799Y-113057
X141902Y-104110
X142050Y-135916
X142070Y-81290
X142070Y-83830
X142070Y-86370
X142070Y-88910
X142070Y-91450
X142070Y-93990
X142070Y-99070
X142070Y-106690
X142070Y-109230
X142070Y-111770
X142480Y-116360
X143643Y-130687
X144015Y-100099
X144015Y-110448
X144255Y-133391
X144380Y-116490
X144610Y-81290
X144610Y-83830
X144610Y-86370
X144610Y-88910
X144610Y-104150
X144610Y-111770
X144610Y-114310
X144610Y-124470
X144980Y-108630
X145804Y-128569
X145930Y-101197
X145966Y-107852
X146510Y-123510
X146862Y-105325
X146875Y-107400
X147060Y-118040
X147060Y-120020
X147130Y-116125
X147150Y-81290
X147150Y-83830
X147150Y-86370
X147150Y-88910
X147150Y-91450
X147150Y-93990
X147150Y-96530
X147150Y-104150
X147150Y-111770
X147150Y-114310
X147150Y-124470
X147150Y-129550
X147150Y-132090
X148478Y-123297
X148620Y-82030
X148740Y-133320
X149117Y-85589
X149690Y-81290
X149690Y-83830
X149690Y-88910
X149690Y-91450
X149690Y-93990
X149690Y-96530
X149690Y-104150
X149690Y-106690
X149690Y-109230
X149690Y-111770
X149690Y-114310
X149690Y-129550
X149690Y-132090
X150080Y-126580
X150185Y-100729
X150275Y-122650
X150475Y-116020
X150475Y-118120
X150475Y-120010
M30
