%TF.GenerationSoftware,KiCad,Pcbnew,8.0.1-rc1*%
%TF.CreationDate,2024-08-06T22:31:27-04:00*%
%TF.ProjectId,SoM_ESP32_v1,536f4d5f-4553-4503-9332-5f76312e6b69,rev?*%
%TF.SameCoordinates,Original*%
%TF.FileFunction,Copper,L4,Bot*%
%TF.FilePolarity,Positive*%
%FSLAX46Y46*%
G04 Gerber Fmt 4.6, Leading zero omitted, Abs format (unit mm)*
G04 Created by KiCad (PCBNEW 8.0.1-rc1) date 2024-08-06 22:31:27*
%MOMM*%
%LPD*%
G01*
G04 APERTURE LIST*
G04 Aperture macros list*
%AMRoundRect*
0 Rectangle with rounded corners*
0 $1 Rounding radius*
0 $2 $3 $4 $5 $6 $7 $8 $9 X,Y pos of 4 corners*
0 Add a 4 corners polygon primitive as box body*
4,1,4,$2,$3,$4,$5,$6,$7,$8,$9,$2,$3,0*
0 Add four circle primitives for the rounded corners*
1,1,$1+$1,$2,$3*
1,1,$1+$1,$4,$5*
1,1,$1+$1,$6,$7*
1,1,$1+$1,$8,$9*
0 Add four rect primitives between the rounded corners*
20,1,$1+$1,$2,$3,$4,$5,0*
20,1,$1+$1,$4,$5,$6,$7,0*
20,1,$1+$1,$6,$7,$8,$9,0*
20,1,$1+$1,$8,$9,$2,$3,0*%
G04 Aperture macros list end*
%TA.AperFunction,SMDPad,CuDef*%
%ADD10RoundRect,0.250000X0.262500X0.450000X-0.262500X0.450000X-0.262500X-0.450000X0.262500X-0.450000X0*%
%TD*%
%TA.AperFunction,ComponentPad*%
%ADD11C,0.600000*%
%TD*%
%TA.AperFunction,SMDPad,CuDef*%
%ADD12R,0.350000X1.950000*%
%TD*%
%TA.AperFunction,SMDPad,CuDef*%
%ADD13RoundRect,0.250000X-0.262500X-0.450000X0.262500X-0.450000X0.262500X0.450000X-0.262500X0.450000X0*%
%TD*%
%TA.AperFunction,SMDPad,CuDef*%
%ADD14RoundRect,0.250000X-0.450000X0.262500X-0.450000X-0.262500X0.450000X-0.262500X0.450000X0.262500X0*%
%TD*%
%TA.AperFunction,SMDPad,CuDef*%
%ADD15RoundRect,0.250000X0.450000X-0.262500X0.450000X0.262500X-0.450000X0.262500X-0.450000X-0.262500X0*%
%TD*%
%TA.AperFunction,SMDPad,CuDef*%
%ADD16RoundRect,0.250000X-0.250000X-0.475000X0.250000X-0.475000X0.250000X0.475000X-0.250000X0.475000X0*%
%TD*%
%TA.AperFunction,ViaPad*%
%ADD17C,0.450000*%
%TD*%
%TA.AperFunction,Conductor*%
%ADD18C,0.120000*%
%TD*%
%TA.AperFunction,Conductor*%
%ADD19C,0.300000*%
%TD*%
%TA.AperFunction,Conductor*%
%ADD20C,0.200000*%
%TD*%
%ADD21C,0.270000*%
%ADD22C,0.300000*%
%ADD23C,0.350000*%
G04 APERTURE END LIST*
D10*
%TO.P,R316,1*%
%TO.N,Vcc_3V3*%
X145262500Y-93725000D03*
%TO.P,R316,2*%
%TO.N,RESET_OTHERS*%
X143437500Y-93725000D03*
%TD*%
D11*
%TO.P,U701,41,GND*%
%TO.N,GND*%
X133150000Y-70640000D03*
X133150000Y-72140000D03*
X133900000Y-69890000D03*
X133900000Y-71390000D03*
X133900000Y-72890000D03*
X134650000Y-70640000D03*
X134650000Y-72140000D03*
X135400000Y-69890000D03*
X135400000Y-71390000D03*
X135400000Y-72890000D03*
X136150000Y-70640000D03*
X136150000Y-72140000D03*
%TD*%
D12*
%TO.P,J201,2,Vcc_3v3*%
%TO.N,Vcc_3V3*%
X144800000Y-137550000D03*
%TO.P,J201,4,Vcc_3v3*%
X144300000Y-137550000D03*
%TO.P,J201,6,GPIO38&LED*%
%TO.N,GPIO38_ADDRESSABLE_LED*%
X143800000Y-137550000D03*
%TO.P,J201,8,I2S_BCLK*%
%TO.N,I2S_BCLK*%
X143300000Y-137550000D03*
%TO.P,J201,10,I2S_WS*%
%TO.N,I2S_WS*%
X142800000Y-137550000D03*
%TO.P,J201,12,I2S_DIN/DOUT*%
%TO.N,I2S_DIN{slash}DOUT*%
X142300000Y-137550000D03*
%TO.P,J201,14,I2C_SDA_3_TCA*%
%TO.N,I2C_SDA_2_TCA*%
X141800000Y-137550000D03*
%TO.P,J201,16,I2C_SCL_3_TCA*%
%TO.N,I2C_SCL_2_TCA*%
X141300000Y-137550000D03*
%TO.P,J201,18,GND*%
%TO.N,GND*%
X140800000Y-137550000D03*
%TO.P,J201,20,SPI_CS_1*%
%TO.N,SPI_5_ESP32*%
X140300000Y-137550000D03*
%TO.P,J201,22,UART_TX*%
%TO.N,GPIO17_U1_TXD*%
X139800000Y-137550000D03*
%TO.P,J201,32,UART_RX*%
%TO.N,GPIO18_U1_RXD*%
X137300000Y-137550000D03*
%TO.P,J201,34,GPIO47*%
%TO.N,GPIO47*%
X136800000Y-137550000D03*
%TO.P,J201,36,GPIO48*%
%TO.N,GPIO48{slash}CAN_INT*%
X136300000Y-137550000D03*
%TO.P,J201,38,GND*%
%TO.N,GND*%
X135800000Y-137550000D03*
%TO.P,J201,40,GPIO15*%
%TO.N,GPIO15*%
X135300000Y-137550000D03*
%TO.P,J201,42,GPIO17*%
%TO.N,unconnected-(J201K-GPIO17-Pad42)*%
X134800000Y-137550000D03*
%TO.P,J201,44,GPIO21*%
%TO.N,unconnected-(J201K-GPIO21-Pad44)*%
X134300000Y-137550000D03*
%TO.P,J201,46,USB_DEBUG_D-*%
%TO.N,DEBUG-*%
X133800000Y-137550000D03*
%TO.P,J201,48,USB_DEBUG_D+*%
%TO.N,DEBUG+*%
X133300000Y-137550000D03*
%TO.P,J201,50,SUSCLK*%
%TO.N,SUSCLK*%
X132800000Y-137550000D03*
%TO.P,J201,52,GPIO33*%
%TO.N,unconnected-(J201K-GPIO33-Pad52)*%
X132300000Y-137550000D03*
%TO.P,J201,54,RESET_AUTRES*%
%TO.N,RESET_OTHERS*%
X131800000Y-137550000D03*
%TO.P,J201,56,RESET_ESP32*%
%TO.N,CHIP_EN*%
X131300000Y-137550000D03*
%TO.P,J201,58,I2C_SDA_ESP32*%
%TO.N,I2C_SDA_ESP32*%
X130800000Y-137550000D03*
%TO.P,J201,60,I2C_SCL_ESP32*%
%TO.N,I2C_SCL_ESP32*%
X130300000Y-137550000D03*
%TO.P,J201,62,GND*%
%TO.N,GND*%
X129800000Y-137550000D03*
%TO.P,J201,64,PWM_1_PCA*%
%TO.N,Net-(J201J-PWM_1_PCA)*%
X129300000Y-137550000D03*
%TO.P,J201,66,PWM_2_PCA*%
%TO.N,Net-(J201J-PWM_2_PCA)*%
X128800000Y-137550000D03*
%TO.P,J201,68,PWM_3_PCA*%
%TO.N,Net-(J201J-PWM_3_PCA)*%
X128300000Y-137550000D03*
%TO.P,J201,70,PWM_4_PCA*%
%TO.N,Net-(J201J-PWM_4_PCA)*%
X127800000Y-137550000D03*
%TO.P,J201,72,Vcc_3v3*%
%TO.N,Vcc_3V3*%
X127300000Y-137550000D03*
%TO.P,J201,74,Vcc_3v3*%
X126800000Y-137550000D03*
%TD*%
D10*
%TO.P,R313,1*%
%TO.N,Vcc_3V3*%
X139212500Y-107300000D03*
%TO.P,R313,2*%
%TO.N,RESET_OTHERS*%
X137387500Y-107300000D03*
%TD*%
%TO.P,R303,1*%
%TO.N,Vcc_3V3*%
X139212500Y-109225000D03*
%TO.P,R303,2*%
%TO.N,I2C_SDA_ESP32*%
X137387500Y-109225000D03*
%TD*%
D13*
%TO.P,C310,1*%
%TO.N,Vcc_3V3*%
X146037500Y-111625000D03*
%TO.P,C310,2*%
%TO.N,GND*%
X147862500Y-111625000D03*
%TD*%
D10*
%TO.P,C301,1*%
%TO.N,Vcc_3V3*%
X137487500Y-120325000D03*
%TO.P,C301,2*%
%TO.N,GND*%
X135662500Y-120325000D03*
%TD*%
%TO.P,R601,1*%
%TO.N,Net-(U701-IO45)*%
X141952500Y-72730000D03*
%TO.P,R601,2*%
%TO.N,GND*%
X140127500Y-72730000D03*
%TD*%
D14*
%TO.P,C309,1*%
%TO.N,Vcc_3V3*%
X144625000Y-99462500D03*
%TO.P,C309,2*%
%TO.N,GND*%
X144625000Y-101287500D03*
%TD*%
D10*
%TO.P,R309,1*%
%TO.N,Vcc_3V3*%
X135825000Y-131400000D03*
%TO.P,R309,2*%
%TO.N,I2C_SDA_2_TCA*%
X134000000Y-131400000D03*
%TD*%
D14*
%TO.P,C401,1*%
%TO.N,Vcc_3V3*%
X147575000Y-120950000D03*
%TO.P,C401,2*%
%TO.N,GND*%
X147575000Y-122775000D03*
%TD*%
D10*
%TO.P,R304,1*%
%TO.N,Vcc_3V3*%
X139212500Y-111175000D03*
%TO.P,R304,2*%
%TO.N,I2C_SCL_ESP32*%
X137387500Y-111175000D03*
%TD*%
D14*
%TO.P,R607,1*%
%TO.N,Vcc_3V3*%
X129400000Y-66687500D03*
%TO.P,R607,2*%
%TO.N,CHIP_EN*%
X129400000Y-68512500D03*
%TD*%
D15*
%TO.P,C603,1*%
%TO.N,Vcc_3V3*%
X124000000Y-67512500D03*
%TO.P,C603,2*%
%TO.N,GND*%
X124000000Y-65687500D03*
%TD*%
D10*
%TO.P,C404,1*%
%TO.N,GND*%
X123850000Y-121650000D03*
%TO.P,C404,2*%
%TO.N,Vcc_3V3*%
X122025000Y-121650000D03*
%TD*%
D13*
%TO.P,R307,1*%
%TO.N,Vcc_3V3*%
X144187500Y-127200000D03*
%TO.P,R307,2*%
%TO.N,I2C_SDA_3_TCA*%
X146012500Y-127200000D03*
%TD*%
D10*
%TO.P,C403,1*%
%TO.N,GND*%
X123850000Y-123550000D03*
%TO.P,C403,2*%
%TO.N,Vcc_3V3*%
X122025000Y-123550000D03*
%TD*%
D13*
%TO.P,R306,1*%
%TO.N,Vcc_3V3*%
X137387500Y-127200000D03*
%TO.P,R306,2*%
%TO.N,I2C_SDA_1_TCA*%
X139212500Y-127200000D03*
%TD*%
%TO.P,R310,1*%
%TO.N,Vcc_3V3*%
X137412500Y-131400000D03*
%TO.P,R310,2*%
%TO.N,I2C_SCL_2_TCA*%
X139237500Y-131400000D03*
%TD*%
%TO.P,R308,1*%
%TO.N,Vcc_3V3*%
X133975000Y-127200000D03*
%TO.P,R308,2*%
%TO.N,I2C_SCL_3_TCA*%
X135800000Y-127200000D03*
%TD*%
%TO.P,R312,1*%
%TO.N,Vcc_3V3*%
X140800000Y-131400000D03*
%TO.P,R312,2*%
%TO.N,I2C_SCL_1_TCA*%
X142625000Y-131400000D03*
%TD*%
D14*
%TO.P,C308,1*%
%TO.N,Vcc_3V3*%
X146525000Y-99462500D03*
%TO.P,C308,2*%
%TO.N,GND*%
X146525000Y-101287500D03*
%TD*%
D13*
%TO.P,R305,1*%
%TO.N,Vcc_3V3*%
X140787500Y-127200000D03*
%TO.P,R305,2*%
%TO.N,I2C_SDA_0_TCA*%
X142612500Y-127200000D03*
%TD*%
D14*
%TO.P,R315,1*%
%TO.N,Net-(D310-A)*%
X139600000Y-115237500D03*
%TO.P,R315,2*%
%TO.N,Vcc_3V3*%
X139600000Y-117062500D03*
%TD*%
D15*
%TO.P,C604,1*%
%TO.N,Vcc_3V3*%
X122050000Y-67512500D03*
%TO.P,C604,2*%
%TO.N,GND*%
X122050000Y-65687500D03*
%TD*%
D13*
%TO.P,C602,1*%
%TO.N,CHIP_EN*%
X131150000Y-68350000D03*
%TO.P,C602,2*%
%TO.N,GND*%
X132975000Y-68350000D03*
%TD*%
D14*
%TO.P,R314,1*%
%TO.N,Net-(D309-A)*%
X132275000Y-115237500D03*
%TO.P,R314,2*%
%TO.N,Vcc_3V3*%
X132275000Y-117062500D03*
%TD*%
%TO.P,C402,1*%
%TO.N,Vcc_3V3*%
X149475000Y-120975000D03*
%TO.P,C402,2*%
%TO.N,GND*%
X149475000Y-122800000D03*
%TD*%
D10*
%TO.P,R602,1*%
%TO.N,Net-(U701-IO46)*%
X141525000Y-76900000D03*
%TO.P,R602,2*%
%TO.N,GND*%
X139700000Y-76900000D03*
%TD*%
D16*
%TO.P,C503,1*%
%TO.N,Vcc_3V3*%
X147250000Y-89300000D03*
%TO.P,C503,2*%
%TO.N,GND*%
X149150000Y-89300000D03*
%TD*%
D10*
%TO.P,R311,1*%
%TO.N,Vcc_3V3*%
X145987500Y-131400000D03*
%TO.P,R311,2*%
%TO.N,I2C_SCL_0_TCA*%
X144162500Y-131400000D03*
%TD*%
D17*
%TO.N,GND*%
X143300000Y-109750000D03*
X134375000Y-110600000D03*
X135050000Y-109050000D03*
%TO.N,GPIO48{slash}CAN_INT*%
X147894900Y-94850000D03*
%TO.N,RESET_OTHERS*%
X144825000Y-96675000D03*
%TO.N,GND*%
X135450000Y-78675000D03*
X134550000Y-100925000D03*
X133475000Y-76775000D03*
X128875000Y-130425000D03*
X137575000Y-101250000D03*
X124025000Y-105575000D03*
X144850000Y-91925000D03*
X127575000Y-134900000D03*
X122125000Y-83175000D03*
X139375000Y-88950000D03*
X147975000Y-78325000D03*
X143775000Y-89050000D03*
X123875000Y-78475000D03*
X139950000Y-101125000D03*
X140000000Y-87200000D03*
X143900000Y-132950000D03*
X147375000Y-93200000D03*
X138425000Y-82100000D03*
X138700000Y-89825000D03*
X138825000Y-133300000D03*
X142050000Y-89150000D03*
X133975000Y-120425000D03*
X144975000Y-114500000D03*
X135050000Y-133400000D03*
X142025000Y-114400000D03*
X129739900Y-135775000D03*
X149975000Y-94250000D03*
X148500000Y-82800000D03*
X132125000Y-130575000D03*
X142725000Y-118500000D03*
X138575000Y-66750000D03*
X122275000Y-69850000D03*
X145125000Y-136200000D03*
X121900000Y-134000000D03*
X143475000Y-95525000D03*
X142025000Y-81000000D03*
X139700000Y-120800000D03*
X135325000Y-135850000D03*
%TO.N,Vcc_3V3*%
X122687100Y-120389400D03*
X125954600Y-67311300D03*
X140510000Y-111393300D03*
X146537300Y-94138500D03*
X134125400Y-125074800D03*
X124825000Y-133900000D03*
X149487300Y-119932200D03*
%TO.N,CHIP_EN*%
X129037200Y-69500200D03*
X131324200Y-135482000D03*
X131262700Y-85747400D03*
%TO.N,I2C_SDA_0_TCA*%
X143114400Y-128957500D03*
X137632500Y-105039200D03*
%TO.N,I2C_SDA_1_TCA*%
X141502900Y-125694500D03*
X134984600Y-107577900D03*
X138555700Y-120327200D03*
%TO.N,I2C_SDA_3_TCA*%
X145127000Y-127188900D03*
X141692400Y-130873400D03*
X137904400Y-115637100D03*
%TO.N,I2C_SCL_3_TCA*%
X139953400Y-126050100D03*
%TO.N,I2C_SDA_2_TCA*%
X137200000Y-132675000D03*
X141725000Y-135225000D03*
X134745100Y-132232400D03*
X133626500Y-113248300D03*
%TO.N,I2C_SCL_2_TCA*%
X139959500Y-129229000D03*
X136544900Y-114760000D03*
%TO.N,I2C_SCL_0_TCA*%
X142799800Y-133049400D03*
X135636900Y-107830000D03*
%TO.N,I2C_SCL_1_TCA*%
X141476400Y-132892400D03*
X134351500Y-107475800D03*
%TO.N,I2S_BCLK*%
X143096351Y-133890549D03*
X135595800Y-85130900D03*
%TO.N,GPIO17_U1_TXD*%
X139604600Y-135710400D03*
X128875600Y-78171800D03*
%TO.N,RESET_OTHERS*%
X134491800Y-85221000D03*
X131088450Y-127551550D03*
X136311800Y-107610400D03*
%TO.N,GPIO15*%
X134191444Y-136073546D03*
X130100800Y-79286700D03*
%TO.N,I2S_WS*%
X137491800Y-85350600D03*
X143063900Y-136154200D03*
%TO.N,GPIO48{slash}CAN_INT*%
X141869600Y-85512300D03*
X135932316Y-135283517D03*
%TO.N,DEBUG+*%
X126687350Y-84112650D03*
%TO.N,SPI_CLK_ESP32*%
X124345000Y-125122300D03*
X147393800Y-96224500D03*
X128806000Y-73476400D03*
X139659200Y-124035100D03*
X147368700Y-119683500D03*
%TO.N,SPI_MISO_ESP32*%
X147237700Y-124355100D03*
X129020300Y-82552800D03*
X136443600Y-134120600D03*
X146268700Y-100375000D03*
%TO.N,Net-(J201J-PWM_2_PCA)*%
X123969300Y-115388600D03*
%TO.N,GPIO16*%
X128600400Y-76731800D03*
X129132200Y-122404500D03*
%TO.N,Net-(J201D-CAN_L_MCP2515)*%
X126650000Y-133975000D03*
X145256700Y-120369100D03*
%TO.N,I2S_DIN{slash}DOUT*%
X141922200Y-132410200D03*
X138520400Y-85024300D03*
%TO.N,SUSCLK*%
X132541800Y-85074300D03*
X131690000Y-129326699D03*
%TO.N,SPI_MOSI_ESP32*%
X145707800Y-96224500D03*
X122616100Y-127092000D03*
X147641400Y-125139300D03*
X136608700Y-134869300D03*
X128806000Y-74306000D03*
%TO.N,GPIO47*%
X143532900Y-85980900D03*
X136762316Y-135825000D03*
%TO.N,Net-(J201J-PWM_1_PCA)*%
X123373600Y-115228800D03*
%TO.N,Net-(J201J-PWM_3_PCA)*%
X127063500Y-133102100D03*
X124893300Y-116161500D03*
%TO.N,I2C_SCL_ESP32*%
X136458500Y-113221800D03*
X140623900Y-78760200D03*
X130431600Y-126727500D03*
%TO.N,GPIO38_ADDRESSABLE_LED*%
X146357400Y-85716500D03*
X146148200Y-77790900D03*
X145155500Y-132754500D03*
%TO.N,GPIO18_U1_RXD*%
X128868600Y-79127300D03*
X133712500Y-135535896D03*
%TO.N,Net-(J201I-ADC_1_MCP3202)*%
X129738200Y-133002200D03*
X141861000Y-123318000D03*
%TO.N,DEBUG-*%
X128036800Y-83886800D03*
%TO.N,I2C_SDA_ESP32*%
X131511600Y-128268000D03*
X143241000Y-67598600D03*
X138773500Y-106235500D03*
%TO.N,Net-(J201I-ADC_2_MCP3202)*%
X128986100Y-135015500D03*
X142092800Y-125059000D03*
%TO.N,Net-(J201D-CAN_H_MCP2515)*%
X146106000Y-120130900D03*
X129017300Y-134326800D03*
%TO.N,Net-(J201J-PWM_4_PCA)*%
X124875500Y-115547700D03*
%TO.N,Net-(D309-A)*%
X132083900Y-116150000D03*
%TO.N,DTR*%
X138398300Y-117652100D03*
X135722400Y-91858300D03*
%TO.N,RTS*%
X139634900Y-118330700D03*
X134325100Y-88857600D03*
%TO.N,Net-(D310-A)*%
X139648200Y-113781300D03*
%TO.N,/Communication/D-*%
X147900000Y-130225000D03*
X133700000Y-123900000D03*
%TO.N,/Communication/D+*%
X133775000Y-122200000D03*
X148400000Y-129725000D03*
%TO.N,Net-(U701-IO45)*%
X141981900Y-74450300D03*
%TO.N,Net-(U701-IO46)*%
X140826700Y-77978200D03*
%TO.N,U0RXD*%
X140839400Y-117845800D03*
X143241000Y-72419000D03*
%TO.N,U0TXD*%
X143363700Y-70167600D03*
X140674700Y-116690100D03*
%TO.N,LDAC_DAC*%
X132959300Y-112636600D03*
X128784800Y-125708600D03*
%TO.N,SPI_DAC_ESP32*%
X124514200Y-120176300D03*
X134506900Y-104829200D03*
%TO.N,Net-(U601-A1)*%
X138810500Y-91544400D03*
X128570000Y-71700500D03*
%TO.N,SPI_6_ESP32*%
X135633200Y-117703000D03*
X139983300Y-132697700D03*
%TO.N,SPI_5_ESP32*%
X138253100Y-129473700D03*
X136466700Y-117644700D03*
%TO.N,Net-(U601-A0)*%
X139688300Y-91467900D03*
X129014500Y-75438300D03*
%TD*%
D18*
%TO.N,RESET_OTHERS*%
X134682899Y-85221000D02*
X143186899Y-93725000D01*
X134491800Y-85221000D02*
X134682899Y-85221000D01*
X143186899Y-93725000D02*
X143437500Y-93725000D01*
X144825000Y-95112500D02*
X144825000Y-96675000D01*
X143437500Y-93725000D02*
X144825000Y-95112500D01*
D19*
%TO.N,Vcc_3V3*%
X145262500Y-93725000D02*
X146123800Y-93725000D01*
X146123800Y-93725000D02*
X146537300Y-94138500D01*
%TO.N,GND*%
X140800000Y-137550000D02*
X140800000Y-136075000D01*
X135800000Y-137550000D02*
X135800000Y-136175000D01*
X129800000Y-135835100D02*
X129739900Y-135775000D01*
X129739900Y-136189900D02*
X129800000Y-136250000D01*
X129800000Y-137550000D02*
X129800000Y-135835100D01*
X129739900Y-135775000D02*
X129739900Y-136189900D01*
%TO.N,Vcc_3V3*%
X137487500Y-119279500D02*
X139600000Y-117167000D01*
X144800000Y-137550000D02*
X144590000Y-137340000D01*
X140800000Y-127212000D02*
X140791000Y-127203000D01*
X137388000Y-127545600D02*
X137387500Y-127545100D01*
X124825000Y-133900000D02*
X124825000Y-133865300D01*
X140625800Y-116036700D02*
X140625800Y-111625000D01*
X147575000Y-120950000D02*
X149450000Y-120950000D01*
X125954600Y-67512500D02*
X125954600Y-67311300D01*
X128395500Y-67512500D02*
X125954600Y-67512500D01*
X133178700Y-121346400D02*
X133178700Y-124128100D01*
X149487300Y-120912700D02*
X149487300Y-119932200D01*
X143204300Y-126216800D02*
X144035100Y-127047600D01*
X139413700Y-104673800D02*
X144625000Y-99462500D01*
X137400000Y-131387500D02*
X137412500Y-131400000D01*
X144037100Y-127049100D02*
X144037100Y-127049600D01*
X147575000Y-120950000D02*
X147575000Y-120879200D01*
X144188000Y-129600000D02*
X145987500Y-131399500D01*
X144188000Y-127200000D02*
X144188000Y-129600000D01*
X145987500Y-134337500D02*
X145987500Y-131400000D01*
X139212500Y-111175000D02*
X139430800Y-111393300D01*
X140510000Y-111509200D02*
X140625800Y-111625000D01*
X137388000Y-127200000D02*
X137388000Y-127545600D01*
X144035100Y-127047600D02*
X144035600Y-127047600D01*
X149450000Y-120950000D02*
X149487300Y-120912700D01*
X122025000Y-123550000D02*
X122025000Y-121650000D01*
X146525000Y-99462500D02*
X146525000Y-94150800D01*
X147250000Y-89300000D02*
X147250000Y-88979000D01*
X140611600Y-116036700D02*
X139600000Y-117048300D01*
X140510000Y-111393300D02*
X140510000Y-111509200D01*
X139212500Y-107300000D02*
X139413700Y-107098800D01*
X133178700Y-124128100D02*
X134125400Y-125074800D01*
X139600000Y-117048300D02*
X139600000Y-117062500D01*
X144035600Y-127047600D02*
X144035600Y-127048100D01*
X142732500Y-116036700D02*
X140625800Y-116036700D01*
X144036600Y-127048600D02*
X144036600Y-127049100D01*
X122050000Y-67512500D02*
X124000000Y-67512500D01*
X144300000Y-137550000D02*
X144800000Y-137550000D01*
X140789000Y-127201500D02*
X140787500Y-127200000D01*
X127075000Y-135927450D02*
X127075000Y-137550000D01*
X140625800Y-111625000D02*
X146037500Y-111625000D01*
X140789500Y-127201500D02*
X140789000Y-127201500D01*
X144625000Y-99462500D02*
X146525000Y-99462500D01*
X144035600Y-127048100D02*
X144036100Y-127048100D01*
X139212500Y-109225000D02*
X139212500Y-107300000D01*
X145275000Y-135050000D02*
X145987500Y-134337500D01*
X139430800Y-111393300D02*
X140510000Y-111393300D01*
X140800000Y-128322100D02*
X137388000Y-128322100D01*
X145987500Y-131399500D02*
X145987500Y-131400000D01*
X144036100Y-127048600D02*
X144036600Y-127048600D01*
X137487500Y-120325000D02*
X137487500Y-119279500D01*
X134125400Y-125074800D02*
X134125400Y-127049600D01*
X132275000Y-117062500D02*
X133178700Y-117966200D01*
X133178700Y-117966200D02*
X133178700Y-121346400D01*
X146537300Y-94138500D02*
X146537300Y-90012700D01*
X140800000Y-131400000D02*
X140800000Y-128322100D01*
X136466100Y-121346400D02*
X137487500Y-120325000D01*
X147575000Y-120879200D02*
X142732500Y-116036700D01*
X139413700Y-107098800D02*
X139413700Y-104673800D01*
X140625800Y-116036700D02*
X140611600Y-116036700D01*
X144590000Y-135735000D02*
X145275000Y-135050000D01*
X144036100Y-127048100D02*
X144036100Y-127048600D01*
X137388000Y-131375000D02*
X137400000Y-131387500D01*
X144036600Y-127049100D02*
X144037100Y-127049100D01*
X129220500Y-66687500D02*
X129400000Y-66687500D01*
X128395500Y-67512500D02*
X129220500Y-66687500D01*
X139212500Y-111175000D02*
X139212500Y-109225000D01*
X146537300Y-90012700D02*
X147250000Y-89300000D01*
X122025000Y-131065300D02*
X122025000Y-123550000D01*
X145987500Y-131399500D02*
X145988000Y-131400000D01*
X128395500Y-70124500D02*
X128395500Y-67512500D01*
X125954600Y-67512500D02*
X124000000Y-67512500D01*
X144590000Y-137340000D02*
X144590000Y-135735000D01*
X146525000Y-94150800D02*
X146537300Y-94138500D01*
X125047550Y-133900000D02*
X127075000Y-135927450D01*
X139600000Y-117167000D02*
X139600000Y-117062500D01*
X124825000Y-133865300D02*
X122025000Y-131065300D01*
X133975000Y-127200000D02*
X133975000Y-129550000D01*
X140800000Y-128322100D02*
X140800000Y-127212000D01*
X147250000Y-88979000D02*
X128395500Y-70124500D01*
X133178700Y-121346400D02*
X136466100Y-121346400D01*
X124825000Y-133900000D02*
X125047550Y-133900000D01*
X140791000Y-127203000D02*
X141777200Y-126216800D01*
X144037100Y-127049100D02*
X144188000Y-127200000D01*
X134125400Y-127049600D02*
X133975000Y-127200000D01*
X149450000Y-120950000D02*
X149475000Y-120975000D01*
X133975000Y-129550000D02*
X135825000Y-131400000D01*
X137412000Y-131400000D02*
X135825000Y-131400000D01*
X127075000Y-137550000D02*
X127300000Y-137550000D01*
X140789500Y-127201500D02*
X140788000Y-127200000D01*
X144037100Y-127049600D02*
X144187500Y-127200000D01*
X137388000Y-127545600D02*
X137388000Y-128322100D01*
X126800000Y-137550000D02*
X127075000Y-137550000D01*
X137387500Y-127545100D02*
X137387500Y-127200000D01*
X137400000Y-131387500D02*
X137412000Y-131400000D01*
X122025000Y-121650000D02*
X122025000Y-121051500D01*
X122025000Y-121051500D02*
X122687100Y-120389400D01*
X140791000Y-127203000D02*
X140789500Y-127201500D01*
X137388000Y-128322100D02*
X137388000Y-131375000D01*
X141777200Y-126216800D02*
X143204300Y-126216800D01*
D18*
%TO.N,CHIP_EN*%
X131300000Y-135506200D02*
X131324200Y-135482000D01*
X131150000Y-68350000D02*
X130987500Y-68512500D01*
X131300000Y-137550000D02*
X131300000Y-135506200D01*
X130987500Y-68512500D02*
X129400000Y-68512500D01*
X129400000Y-69137400D02*
X129400000Y-68512500D01*
X129037200Y-69500200D02*
X129400000Y-69137400D01*
%TO.N,I2C_SDA_0_TCA*%
X143114400Y-127701900D02*
X143114400Y-128957500D01*
X142612500Y-127200000D02*
X143114400Y-127701900D01*
%TO.N,I2C_SDA_1_TCA*%
X140898400Y-125694500D02*
X141502900Y-125694500D01*
X139212500Y-127200000D02*
X139392900Y-127200000D01*
X139392900Y-127200000D02*
X140898400Y-125694500D01*
%TO.N,I2C_SDA_3_TCA*%
X146012500Y-127200000D02*
X145138100Y-127200000D01*
X145138100Y-127200000D02*
X145127000Y-127188900D01*
%TO.N,I2C_SCL_3_TCA*%
X135800000Y-127200000D02*
X136949900Y-126050100D01*
X136949900Y-126050100D02*
X139953400Y-126050100D01*
%TO.N,I2C_SDA_2_TCA*%
X134000000Y-131400000D02*
X134745100Y-132145100D01*
X141800000Y-135300000D02*
X141800000Y-137550000D01*
X135187700Y-132675000D02*
X137200000Y-132675000D01*
X141725000Y-135225000D02*
X141800000Y-135300000D01*
X134745100Y-132232400D02*
X135187700Y-132675000D01*
X134745100Y-132145100D02*
X134745100Y-132232400D01*
%TO.N,I2C_SCL_2_TCA*%
X139825000Y-133126299D02*
X139825000Y-134113800D01*
X139825000Y-134113800D02*
X141300000Y-135588800D01*
X139237500Y-132538799D02*
X139825000Y-133126299D01*
X139237500Y-131400000D02*
X139959500Y-130678000D01*
X141300000Y-135588800D02*
X141300000Y-137550000D01*
X139959500Y-130678000D02*
X139959500Y-129229000D01*
X139237500Y-131400000D02*
X139237500Y-132538799D01*
%TO.N,I2C_SCL_0_TCA*%
X144162500Y-131400000D02*
X142799800Y-132762700D01*
X142799800Y-132762700D02*
X142799800Y-133049400D01*
%TO.N,I2C_SCL_1_TCA*%
X142625000Y-131400000D02*
X142343100Y-131400000D01*
X141476400Y-132266700D02*
X141476400Y-132892400D01*
X142343100Y-131400000D02*
X141476400Y-132266700D01*
%TO.N,I2S_BCLK*%
X142875000Y-135378401D02*
X143478900Y-135982301D01*
X143096351Y-133890549D02*
X142875000Y-134111900D01*
X143478900Y-135982301D02*
X143478900Y-136328600D01*
X142875000Y-134111900D02*
X142875000Y-135378401D01*
X143300000Y-136507500D02*
X143300000Y-137550000D01*
X143478900Y-136328600D02*
X143300000Y-136507500D01*
%TO.N,GPIO17_U1_TXD*%
X139604600Y-136187900D02*
X139604600Y-135710400D01*
X139800000Y-136383300D02*
X139604600Y-136187900D01*
X139800000Y-137550000D02*
X139800000Y-136383300D01*
%TO.N,RESET_OTHERS*%
X137387500Y-107300000D02*
X136622200Y-107300000D01*
X131275000Y-134845901D02*
X131800000Y-135370901D01*
X131926600Y-128096101D02*
X131926600Y-128439899D01*
X131800000Y-135370901D02*
X131800000Y-137550000D01*
X131088450Y-127551550D02*
X131382049Y-127551550D01*
X131926600Y-128439899D02*
X131275000Y-129091499D01*
X131382049Y-127551550D02*
X131926600Y-128096101D01*
X136622200Y-107300000D02*
X136311800Y-107610400D01*
X131275000Y-129091499D02*
X131275000Y-134845901D01*
%TO.N,GPIO15*%
X134501198Y-136383300D02*
X135300000Y-136383300D01*
X134191444Y-136073546D02*
X134501198Y-136383300D01*
X135300000Y-136383300D02*
X135300000Y-137550000D01*
%TO.N,I2S_WS*%
X142800000Y-136383300D02*
X142834800Y-136383300D01*
X142834800Y-136383300D02*
X143063900Y-136154200D01*
X142800000Y-137550000D02*
X142800000Y-136383300D01*
%TO.N,GPIO48{slash}CAN_INT*%
X135932316Y-135283517D02*
X136300000Y-135651201D01*
X136300000Y-135651201D02*
X136300000Y-137550000D01*
D20*
%TO.N,DEBUG+*%
X129675000Y-87093199D02*
X129675000Y-124400000D01*
X129795001Y-125136691D02*
X132927500Y-128269190D01*
X133300000Y-136270322D02*
X133300000Y-137550000D01*
X132927500Y-128269190D02*
X132927501Y-135897823D01*
X127709754Y-85843606D02*
X127897875Y-85655484D01*
X127285490Y-85758754D02*
X127370342Y-85843606D01*
D18*
X126694150Y-84112650D02*
X126779000Y-84197500D01*
D20*
X132927501Y-135897823D02*
X133300000Y-136270322D01*
X126602512Y-84197488D02*
X126779289Y-84197488D01*
X129795000Y-124520000D02*
X129795001Y-125136691D01*
X129675000Y-124400000D02*
X129795000Y-124520000D01*
X129021978Y-86440177D02*
X129675000Y-87093199D01*
X126779289Y-84197488D02*
X127473612Y-84891811D01*
X128237286Y-85655484D02*
X128322140Y-85740339D01*
X128322140Y-85740339D02*
X129021978Y-86440177D01*
X127473612Y-85231222D02*
X127285490Y-85419343D01*
D18*
X126687350Y-84112650D02*
X126694150Y-84112650D01*
D20*
X127473611Y-84891812D02*
G75*
G02*
X127473595Y-85231205I-169711J-169688D01*
G01*
X127370342Y-85843606D02*
G75*
G03*
X127709754Y-85843606I169706J169704D01*
G01*
X127285491Y-85419344D02*
G75*
G03*
X127285539Y-85758705I169709J-169656D01*
G01*
X127897875Y-85655484D02*
G75*
G02*
X128237286Y-85655484I169706J-169707D01*
G01*
D18*
%TO.N,Net-(J201J-PWM_2_PCA)*%
X124702900Y-115131000D02*
X125095200Y-115131000D01*
X128800000Y-135508100D02*
X128800000Y-137550000D01*
X128427000Y-134399400D02*
X128571100Y-134543500D01*
X125095200Y-115131000D02*
X126202400Y-116238200D01*
X126202400Y-131621700D02*
X128427000Y-133846300D01*
X128571100Y-135279200D02*
X128800000Y-135508100D01*
X123969300Y-115388600D02*
X124445400Y-115388600D01*
X124445400Y-115388500D02*
X124702900Y-115131000D01*
X128427000Y-133846300D02*
X128427000Y-134399400D01*
X126202400Y-116238200D02*
X126202400Y-131621700D01*
X128571100Y-134543500D02*
X128571100Y-135279200D01*
X124445400Y-115388600D02*
X124445400Y-115388500D01*
%TO.N,I2S_DIN{slash}DOUT*%
X142300000Y-132788000D02*
X141922200Y-132410200D01*
X142300000Y-137550000D02*
X142300000Y-132788000D01*
%TO.N,SUSCLK*%
X132800000Y-136383300D02*
X132800000Y-137550000D01*
X131525000Y-129491699D02*
X131525000Y-134742347D01*
X132050000Y-135267348D02*
X132050000Y-135633300D01*
X131690000Y-129326699D02*
X131525000Y-129491699D01*
X132050000Y-135633300D02*
X132800000Y-136383300D01*
X131525000Y-134742347D02*
X132050000Y-135267348D01*
%TO.N,GPIO47*%
X136800000Y-135862684D02*
X136800000Y-137550000D01*
X136762316Y-135825000D02*
X136800000Y-135862684D01*
%TO.N,Net-(J201J-PWM_1_PCA)*%
X127255900Y-116929700D02*
X125197000Y-114870800D01*
X129432300Y-135422800D02*
X129432300Y-134152400D01*
X129300000Y-135555100D02*
X129432300Y-135422800D01*
X123731600Y-114870800D02*
X123373600Y-115228800D01*
X127255900Y-131976000D02*
X127255900Y-116929700D01*
X129432300Y-134152400D02*
X127255900Y-131976000D01*
X125197000Y-114870800D02*
X123731600Y-114870800D01*
X129300000Y-137550000D02*
X129300000Y-135555100D01*
%TO.N,Net-(J201J-PWM_3_PCA)*%
X127329246Y-133102100D02*
X128177000Y-133949854D01*
X128300000Y-136383300D02*
X128300000Y-137550000D01*
X128177000Y-133949854D02*
X128177000Y-134502953D01*
X128318400Y-136364900D02*
X128300000Y-136383300D01*
X127063500Y-133102100D02*
X127329246Y-133102100D01*
X128318400Y-134644353D02*
X128318400Y-136364900D01*
X128177000Y-134502953D02*
X128318400Y-134644353D01*
%TO.N,I2C_SCL_ESP32*%
X137387500Y-111175000D02*
X137387500Y-112292800D01*
X130300000Y-126859100D02*
X130300000Y-136383300D01*
X130431600Y-126727500D02*
X130300000Y-126859100D01*
X130300000Y-137550000D02*
X130300000Y-136383300D01*
X137387500Y-112292800D02*
X136458500Y-113221800D01*
%TO.N,GPIO38_ADDRESSABLE_LED*%
X143800000Y-134110000D02*
X145155500Y-132754500D01*
X143800000Y-136383300D02*
X143800000Y-134110000D01*
X143800000Y-137550000D02*
X143800000Y-136383300D01*
%TO.N,GPIO18_U1_RXD*%
X137298600Y-135393000D02*
X137589500Y-135683900D01*
X136615499Y-133705600D02*
X137298600Y-134388701D01*
X137298600Y-134388701D02*
X137298600Y-135393000D01*
X137458169Y-136225131D02*
X137300000Y-136383300D01*
X137528155Y-135803515D02*
X137464131Y-136042455D01*
X137464131Y-136042455D02*
X137458169Y-136225131D01*
X137589500Y-135697261D02*
X137528155Y-135803515D01*
X137589500Y-135683900D02*
X137589500Y-135697261D01*
X133712500Y-135535896D02*
X133712500Y-135462500D01*
X137300000Y-136383300D02*
X137300000Y-137550000D01*
X135469400Y-133705600D02*
X136615499Y-133705600D01*
X133712500Y-135462500D02*
X135469400Y-133705600D01*
D20*
%TO.N,DEBUG-*%
X128036800Y-83886800D02*
X128036800Y-84818601D01*
X133800000Y-136303632D02*
X133800000Y-137550000D01*
X130125000Y-125000000D02*
X133257500Y-128132500D01*
X133257500Y-128132500D02*
X133257500Y-135761132D01*
X128150000Y-84931801D02*
X130125000Y-86906801D01*
X133257500Y-135761132D02*
X133800000Y-136303632D01*
X130125000Y-86906801D02*
X130125000Y-125000000D01*
X128036800Y-84818601D02*
X128150000Y-84931801D01*
D18*
%TO.N,I2C_SDA_ESP32*%
X137387500Y-109225000D02*
X138481600Y-108130900D01*
X138481600Y-108130900D02*
X138481600Y-106527400D01*
X130800000Y-137550000D02*
X130800000Y-128979600D01*
X130800000Y-128979600D02*
X131511600Y-128268000D01*
X138481600Y-106527400D02*
X138773500Y-106235500D01*
%TO.N,Net-(J201J-PWM_4_PCA)*%
X127935000Y-137415000D02*
X127935000Y-136385000D01*
X127935000Y-136385000D02*
X128068400Y-136251600D01*
X127800000Y-137550000D02*
X127935000Y-137415000D01*
X128068400Y-134747907D02*
X125336000Y-132015507D01*
X125336000Y-132015507D02*
X125336000Y-116008200D01*
X128068400Y-136251600D02*
X128068400Y-134747907D01*
X125336000Y-116008200D02*
X124875500Y-115547700D01*
%TO.N,Net-(D309-A)*%
X132083900Y-115428600D02*
X132083900Y-116150000D01*
X132275000Y-115237500D02*
X132083900Y-115428600D01*
%TO.N,Net-(D310-A)*%
X139648200Y-115189300D02*
X139648200Y-113781300D01*
X139600000Y-115237500D02*
X139648200Y-115189300D01*
%TO.N,/Communication/D-*%
X135656838Y-122675001D02*
X135656838Y-122775001D01*
X136856838Y-123015001D02*
X136856838Y-123535001D01*
X147877975Y-130220209D02*
X147877975Y-130043432D01*
X134696838Y-122775001D02*
X133899999Y-122775001D01*
X135056838Y-123535001D02*
X135056838Y-123015001D01*
X135416838Y-123775001D02*
X135296838Y-123775001D01*
X134816838Y-122775001D02*
X134696838Y-122775001D01*
X147130000Y-129295457D02*
X147130000Y-126919250D01*
X142985751Y-122775001D02*
X137096838Y-122775001D01*
X133700000Y-122975000D02*
X133775000Y-122900000D01*
X147883000Y-130225000D02*
X147878000Y-130220000D01*
X136156838Y-122575001D02*
X135756838Y-122575001D01*
X135656838Y-122775001D02*
X135656838Y-123535001D01*
X136256838Y-123015001D02*
X136256838Y-122675001D01*
X133899999Y-122775001D02*
X133775000Y-122900000D01*
X147900000Y-130225000D02*
X147883000Y-130225000D01*
X136616838Y-123775001D02*
X136496838Y-123775001D01*
X133700000Y-123900000D02*
X133700000Y-122975000D01*
X136256838Y-123535001D02*
X136256838Y-123015001D01*
X147130000Y-126919250D02*
X142985751Y-122775001D01*
X147877975Y-130043432D02*
X147130000Y-129295457D01*
X135656838Y-123535001D02*
G75*
G02*
X135416838Y-123775038I-240038J1D01*
G01*
X136256838Y-122675001D02*
G75*
G03*
X136156838Y-122574962I-100038J1D01*
G01*
X135056838Y-123015001D02*
G75*
G03*
X134816838Y-122774962I-240038J1D01*
G01*
X137096838Y-122775001D02*
G75*
G03*
X136856801Y-123015001I-38J-239999D01*
G01*
X136856838Y-123535001D02*
G75*
G02*
X136616838Y-123775038I-240038J1D01*
G01*
X136496838Y-123775001D02*
G75*
G02*
X136256799Y-123535001I-38J240001D01*
G01*
X135296838Y-123775001D02*
G75*
G02*
X135056799Y-123535001I-38J240001D01*
G01*
X135756838Y-122575001D02*
G75*
G03*
X135656801Y-122675001I-38J-99999D01*
G01*
%TO.N,/Communication/D+*%
X147579980Y-129109039D02*
X147579980Y-126732862D01*
X148400000Y-129725000D02*
X148373000Y-129725000D01*
X143172117Y-122324999D02*
X133899999Y-122324999D01*
X133899999Y-122324999D02*
X133775000Y-122200000D01*
X148196174Y-129725233D02*
X147579980Y-129109039D01*
X147579980Y-126732862D02*
X143172117Y-122324999D01*
X148372951Y-129725233D02*
X148196174Y-129725233D01*
%TO.N,Net-(U701-IO45)*%
X141981900Y-72759400D02*
X141981900Y-74450300D01*
X141952500Y-72730000D02*
X141981900Y-72759400D01*
%TO.N,Net-(U701-IO46)*%
X140826700Y-77598300D02*
X140826700Y-77978200D01*
X141525000Y-76900000D02*
X140826700Y-77598300D01*
%TO.N,SPI_5_ESP32*%
X138150000Y-129576800D02*
X138253100Y-129473700D01*
X138150000Y-133666400D02*
X138150000Y-129576800D01*
X140300000Y-135816400D02*
X138150000Y-133666400D01*
X140300000Y-137550000D02*
X140300000Y-135816400D01*
%TD*%
%TA.AperFunction,Conductor*%
%TO.N,GND*%
G36*
X145402826Y-135522506D02*
G01*
X145424500Y-135574832D01*
X145424500Y-137609270D01*
X145402826Y-137661596D01*
X145350540Y-137683270D01*
X145249540Y-137683324D01*
X145197202Y-137661678D01*
X145175500Y-137609364D01*
X145175500Y-136555253D01*
X145175500Y-136555252D01*
X145163867Y-136496769D01*
X145119552Y-136430448D01*
X145097343Y-136415608D01*
X145053232Y-136386133D01*
X145000063Y-136375557D01*
X144952971Y-136344091D01*
X144940500Y-136302979D01*
X144940500Y-135910832D01*
X144962173Y-135858507D01*
X145298174Y-135522505D01*
X145350500Y-135500832D01*
X145402826Y-135522506D01*
G37*
%TD.AperFunction*%
%TA.AperFunction,Conductor*%
G36*
X123103329Y-67884674D02*
G01*
X123120850Y-67912559D01*
X123147206Y-67987881D01*
X123147207Y-67987883D01*
X123227846Y-68097146D01*
X123227853Y-68097153D01*
X123337116Y-68177792D01*
X123337118Y-68177793D01*
X123465295Y-68222644D01*
X123465301Y-68222646D01*
X123495734Y-68225500D01*
X123495741Y-68225500D01*
X124504258Y-68225500D01*
X124504266Y-68225500D01*
X124534699Y-68222646D01*
X124662882Y-68177793D01*
X124772150Y-68097150D01*
X124852793Y-67987882D01*
X124873799Y-67927850D01*
X124879150Y-67912559D01*
X124916890Y-67870328D01*
X124948997Y-67863000D01*
X125908456Y-67863000D01*
X127971000Y-67863000D01*
X128023326Y-67884674D01*
X128045000Y-67937000D01*
X128045000Y-70170646D01*
X128068884Y-70259784D01*
X128068886Y-70259789D01*
X128115030Y-70339712D01*
X143292556Y-85517238D01*
X143314230Y-85569564D01*
X143292556Y-85621890D01*
X143283730Y-85629428D01*
X143279683Y-85632368D01*
X143184371Y-85727680D01*
X143123181Y-85847773D01*
X143123180Y-85847773D01*
X143102096Y-85980900D01*
X143123180Y-86114026D01*
X143182311Y-86230076D01*
X143184372Y-86234120D01*
X143279680Y-86329428D01*
X143399773Y-86390618D01*
X143399773Y-86390619D01*
X143417975Y-86393501D01*
X143532900Y-86411704D01*
X143666026Y-86390619D01*
X143786120Y-86329428D01*
X143881428Y-86234120D01*
X143881431Y-86234112D01*
X143884365Y-86230076D01*
X143932655Y-86200481D01*
X143987728Y-86213699D01*
X143996561Y-86221243D01*
X146527826Y-88752508D01*
X146549500Y-88804834D01*
X146549500Y-89474166D01*
X146527826Y-89526492D01*
X146256829Y-89797488D01*
X146238523Y-89829197D01*
X146220913Y-89859699D01*
X146210686Y-89877412D01*
X146210684Y-89877415D01*
X146186800Y-89966553D01*
X146186800Y-93300500D01*
X146165126Y-93352826D01*
X146112800Y-93374500D01*
X146049500Y-93374500D01*
X145997174Y-93352826D01*
X145975500Y-93300500D01*
X145975500Y-93220740D01*
X145975500Y-93220734D01*
X145972646Y-93190301D01*
X145927793Y-93062118D01*
X145927792Y-93062116D01*
X145847153Y-92952853D01*
X145847146Y-92952846D01*
X145737883Y-92872207D01*
X145737881Y-92872206D01*
X145609704Y-92827355D01*
X145609705Y-92827355D01*
X145609700Y-92827354D01*
X145609699Y-92827354D01*
X145579266Y-92824500D01*
X144945734Y-92824500D01*
X144915301Y-92827354D01*
X144915299Y-92827354D01*
X144915295Y-92827355D01*
X144787118Y-92872206D01*
X144787116Y-92872207D01*
X144677853Y-92952846D01*
X144677846Y-92952853D01*
X144597207Y-93062116D01*
X144597206Y-93062118D01*
X144552355Y-93190295D01*
X144552354Y-93190299D01*
X144552354Y-93190301D01*
X144549500Y-93220734D01*
X144549500Y-94229266D01*
X144552354Y-94259699D01*
X144552354Y-94259701D01*
X144552355Y-94259702D01*
X144559250Y-94279408D01*
X144556073Y-94335956D01*
X144513842Y-94373696D01*
X144457294Y-94370519D01*
X144437076Y-94356174D01*
X144172174Y-94091272D01*
X144150500Y-94038946D01*
X144150500Y-93220740D01*
X144150500Y-93220734D01*
X144147646Y-93190301D01*
X144102793Y-93062118D01*
X144102792Y-93062116D01*
X144022153Y-92952853D01*
X144022146Y-92952846D01*
X143912883Y-92872207D01*
X143912881Y-92872206D01*
X143784704Y-92827355D01*
X143784705Y-92827355D01*
X143784700Y-92827354D01*
X143784699Y-92827354D01*
X143754266Y-92824500D01*
X143120734Y-92824500D01*
X143090301Y-92827354D01*
X143090299Y-92827354D01*
X143090295Y-92827355D01*
X142962119Y-92872206D01*
X142962118Y-92872207D01*
X142863986Y-92944631D01*
X142809015Y-92958264D01*
X142767718Y-92937417D01*
X135514695Y-85684394D01*
X135493021Y-85632068D01*
X135514695Y-85579742D01*
X135567021Y-85558068D01*
X135578591Y-85558978D01*
X135595800Y-85561704D01*
X135728926Y-85540619D01*
X135849020Y-85479428D01*
X135944328Y-85384120D01*
X135961407Y-85350600D01*
X137060996Y-85350600D01*
X137082080Y-85483726D01*
X137143271Y-85603819D01*
X137143272Y-85603820D01*
X137238580Y-85699128D01*
X137358673Y-85760318D01*
X137358673Y-85760319D01*
X137376875Y-85763201D01*
X137491800Y-85781404D01*
X137624926Y-85760319D01*
X137745020Y-85699128D01*
X137840328Y-85603820D01*
X137886960Y-85512300D01*
X141438796Y-85512300D01*
X141459880Y-85645426D01*
X141521071Y-85765519D01*
X141521072Y-85765520D01*
X141616380Y-85860828D01*
X141736473Y-85922018D01*
X141736473Y-85922019D01*
X141754675Y-85924901D01*
X141869600Y-85943104D01*
X142002726Y-85922019D01*
X142122820Y-85860828D01*
X142218128Y-85765520D01*
X142279319Y-85645426D01*
X142300404Y-85512300D01*
X142279319Y-85379174D01*
X142279319Y-85379173D01*
X142218128Y-85259080D01*
X142122819Y-85163771D01*
X142002726Y-85102581D01*
X142002726Y-85102580D01*
X141869600Y-85081496D01*
X141736473Y-85102580D01*
X141736473Y-85102581D01*
X141616380Y-85163771D01*
X141521071Y-85259080D01*
X141459881Y-85379173D01*
X141459880Y-85379173D01*
X141438796Y-85512300D01*
X137886960Y-85512300D01*
X137901519Y-85483726D01*
X137922604Y-85350600D01*
X137903941Y-85232767D01*
X137901519Y-85217473D01*
X137840328Y-85097380D01*
X137767248Y-85024300D01*
X138089596Y-85024300D01*
X138110680Y-85157426D01*
X138162476Y-85259080D01*
X138171872Y-85277520D01*
X138267180Y-85372828D01*
X138387273Y-85434018D01*
X138387273Y-85434019D01*
X138405475Y-85436901D01*
X138520400Y-85455104D01*
X138653526Y-85434019D01*
X138773620Y-85372828D01*
X138868928Y-85277520D01*
X138930119Y-85157426D01*
X138951204Y-85024300D01*
X138930119Y-84891174D01*
X138930119Y-84891173D01*
X138868928Y-84771080D01*
X138773619Y-84675771D01*
X138653526Y-84614581D01*
X138653526Y-84614580D01*
X138520400Y-84593496D01*
X138387273Y-84614580D01*
X138387273Y-84614581D01*
X138267180Y-84675771D01*
X138171871Y-84771080D01*
X138110681Y-84891173D01*
X138110680Y-84891173D01*
X138089596Y-85024300D01*
X137767248Y-85024300D01*
X137745019Y-85002071D01*
X137624926Y-84940881D01*
X137624926Y-84940880D01*
X137491800Y-84919796D01*
X137358673Y-84940880D01*
X137358673Y-84940881D01*
X137238580Y-85002071D01*
X137143271Y-85097380D01*
X137082081Y-85217473D01*
X137082080Y-85217473D01*
X137060996Y-85350600D01*
X135961407Y-85350600D01*
X136005519Y-85264026D01*
X136026604Y-85130900D01*
X136005519Y-84997774D01*
X136005519Y-84997773D01*
X135944328Y-84877680D01*
X135849019Y-84782371D01*
X135728926Y-84721181D01*
X135728926Y-84721180D01*
X135595800Y-84700096D01*
X135462673Y-84721180D01*
X135462673Y-84721181D01*
X135342580Y-84782371D01*
X135247271Y-84877680D01*
X135186081Y-84997773D01*
X135186080Y-84997773D01*
X135164996Y-85130900D01*
X135164996Y-85130902D01*
X135167720Y-85148104D01*
X135154497Y-85203176D01*
X135106205Y-85232767D01*
X135051133Y-85219544D01*
X135042305Y-85212004D01*
X134892501Y-85062200D01*
X134878897Y-85043475D01*
X134840328Y-84967780D01*
X134745020Y-84872472D01*
X134745019Y-84872471D01*
X134624926Y-84811281D01*
X134624926Y-84811280D01*
X134491800Y-84790196D01*
X134358673Y-84811280D01*
X134358673Y-84811281D01*
X134238580Y-84872471D01*
X134143271Y-84967780D01*
X134082081Y-85087873D01*
X134082080Y-85087873D01*
X134060996Y-85221000D01*
X134082080Y-85354126D01*
X134140120Y-85468034D01*
X134143272Y-85474220D01*
X134238580Y-85569528D01*
X134358673Y-85630718D01*
X134358673Y-85630719D01*
X134376875Y-85633601D01*
X134491800Y-85651804D01*
X134624926Y-85630719D01*
X134642795Y-85621613D01*
X134699257Y-85617168D01*
X134728718Y-85635221D01*
X142702826Y-93609329D01*
X142724500Y-93661655D01*
X142724500Y-94229266D01*
X142727354Y-94259699D01*
X142727354Y-94259701D01*
X142727355Y-94259704D01*
X142772206Y-94387881D01*
X142772207Y-94387883D01*
X142852846Y-94497146D01*
X142852853Y-94497153D01*
X142962116Y-94577792D01*
X142962118Y-94577793D01*
X143090295Y-94622644D01*
X143090301Y-94622646D01*
X143120734Y-94625500D01*
X143120741Y-94625500D01*
X143754258Y-94625500D01*
X143754266Y-94625500D01*
X143784699Y-94622646D01*
X143875667Y-94590815D01*
X143932215Y-94593990D01*
X143952434Y-94608336D01*
X144542826Y-95198728D01*
X144564500Y-95251054D01*
X144564500Y-96303100D01*
X144542826Y-96355426D01*
X144476472Y-96421779D01*
X144476471Y-96421780D01*
X144415281Y-96541873D01*
X144415280Y-96541873D01*
X144394196Y-96675000D01*
X144415280Y-96808126D01*
X144476471Y-96928219D01*
X144476472Y-96928220D01*
X144571780Y-97023528D01*
X144691873Y-97084718D01*
X144691873Y-97084719D01*
X144710075Y-97087601D01*
X144825000Y-97105804D01*
X144958126Y-97084719D01*
X145078220Y-97023528D01*
X145173528Y-96928220D01*
X145234719Y-96808126D01*
X145255804Y-96675000D01*
X145234833Y-96542596D01*
X145248055Y-96487526D01*
X145296346Y-96457933D01*
X145351418Y-96471155D01*
X145360248Y-96478696D01*
X145454580Y-96573028D01*
X145574673Y-96634218D01*
X145574673Y-96634219D01*
X145592875Y-96637101D01*
X145707800Y-96655304D01*
X145840926Y-96634219D01*
X145961020Y-96573028D01*
X146048174Y-96485874D01*
X146100500Y-96464200D01*
X146152826Y-96485874D01*
X146174500Y-96538200D01*
X146174500Y-98675500D01*
X146152826Y-98727826D01*
X146100500Y-98749500D01*
X146020734Y-98749500D01*
X145990301Y-98752354D01*
X145990299Y-98752354D01*
X145990295Y-98752355D01*
X145862118Y-98797206D01*
X145862116Y-98797207D01*
X145752853Y-98877846D01*
X145752846Y-98877853D01*
X145672207Y-98987116D01*
X145672206Y-98987118D01*
X145645850Y-99062441D01*
X145608110Y-99104672D01*
X145576003Y-99112000D01*
X145573997Y-99112000D01*
X145521671Y-99090326D01*
X145504150Y-99062441D01*
X145477793Y-98987118D01*
X145477792Y-98987116D01*
X145397153Y-98877853D01*
X145397146Y-98877846D01*
X145287883Y-98797207D01*
X145287881Y-98797206D01*
X145159704Y-98752355D01*
X145159705Y-98752355D01*
X145159700Y-98752354D01*
X145159699Y-98752354D01*
X145129266Y-98749500D01*
X144120734Y-98749500D01*
X144090301Y-98752354D01*
X144090299Y-98752354D01*
X144090295Y-98752355D01*
X143962118Y-98797206D01*
X143962116Y-98797207D01*
X143852853Y-98877846D01*
X143852846Y-98877853D01*
X143772207Y-98987116D01*
X143772206Y-98987118D01*
X143727355Y-99115295D01*
X143727354Y-99115299D01*
X143727354Y-99115301D01*
X143724500Y-99145734D01*
X143724500Y-99779266D01*
X143726719Y-99802936D01*
X143727354Y-99809701D01*
X143728316Y-99814103D01*
X143725740Y-99814665D01*
X143722992Y-99862977D01*
X143708670Y-99883146D01*
X139133230Y-104458587D01*
X139120480Y-104480671D01*
X139089595Y-104534166D01*
X139088003Y-104536922D01*
X139087085Y-104538513D01*
X139063200Y-104627653D01*
X139063200Y-105784803D01*
X139041526Y-105837129D01*
X138989200Y-105858803D01*
X138955605Y-105850737D01*
X138906626Y-105825781D01*
X138906626Y-105825780D01*
X138773500Y-105804696D01*
X138640373Y-105825780D01*
X138640373Y-105825781D01*
X138520280Y-105886971D01*
X138424971Y-105982280D01*
X138363781Y-106102373D01*
X138363780Y-106102373D01*
X138342696Y-106235500D01*
X138342696Y-106235503D01*
X138345329Y-106252131D01*
X138332106Y-106307203D01*
X138324567Y-106316030D01*
X138260758Y-106379840D01*
X138221100Y-106475583D01*
X138221100Y-106682577D01*
X138199426Y-106734903D01*
X138147100Y-106756577D01*
X138094774Y-106734903D01*
X138077253Y-106707018D01*
X138052793Y-106637118D01*
X138052792Y-106637116D01*
X137972153Y-106527853D01*
X137972146Y-106527846D01*
X137862883Y-106447207D01*
X137862881Y-106447206D01*
X137734704Y-106402355D01*
X137734705Y-106402355D01*
X137734700Y-106402354D01*
X137734699Y-106402354D01*
X137704266Y-106399500D01*
X137070734Y-106399500D01*
X137040301Y-106402354D01*
X137040299Y-106402354D01*
X137040295Y-106402355D01*
X136912118Y-106447206D01*
X136912116Y-106447207D01*
X136802853Y-106527846D01*
X136802846Y-106527853D01*
X136722207Y-106637116D01*
X136722206Y-106637118D01*
X136677355Y-106765295D01*
X136677354Y-106765299D01*
X136677354Y-106765301D01*
X136674500Y-106795734D01*
X136674500Y-106795740D01*
X136674500Y-106965500D01*
X136652826Y-107017826D01*
X136600500Y-107039500D01*
X136570383Y-107039500D01*
X136474641Y-107079156D01*
X136474637Y-107079159D01*
X136392330Y-107161466D01*
X136340004Y-107183140D01*
X136328430Y-107182229D01*
X136311803Y-107179596D01*
X136311800Y-107179596D01*
X136178673Y-107200680D01*
X136178673Y-107200681D01*
X136058580Y-107261871D01*
X135963272Y-107357179D01*
X135931512Y-107419511D01*
X135888444Y-107456294D01*
X135831983Y-107451850D01*
X135770026Y-107420281D01*
X135770024Y-107420280D01*
X135770023Y-107420280D01*
X135636900Y-107399196D01*
X135503773Y-107420281D01*
X135503770Y-107420281D01*
X135472903Y-107436009D01*
X135416440Y-107440452D01*
X135373375Y-107403669D01*
X135333128Y-107324680D01*
X135237819Y-107229371D01*
X135117726Y-107168181D01*
X135117726Y-107168180D01*
X134984600Y-107147096D01*
X134851474Y-107168180D01*
X134763012Y-107213253D01*
X134706550Y-107217696D01*
X134677092Y-107199644D01*
X134604719Y-107127271D01*
X134484626Y-107066081D01*
X134484626Y-107066080D01*
X134351500Y-107044996D01*
X134218373Y-107066080D01*
X134218373Y-107066081D01*
X134098280Y-107127271D01*
X134002971Y-107222580D01*
X133941781Y-107342673D01*
X133941780Y-107342673D01*
X133920696Y-107475800D01*
X133941780Y-107608926D01*
X134002971Y-107729019D01*
X134002972Y-107729020D01*
X134098280Y-107824328D01*
X134218373Y-107885518D01*
X134218373Y-107885519D01*
X134236575Y-107888401D01*
X134351500Y-107906604D01*
X134484626Y-107885519D01*
X134573087Y-107840445D01*
X134629547Y-107836002D01*
X134659006Y-107854054D01*
X134731380Y-107926428D01*
X134851473Y-107987618D01*
X134851473Y-107987619D01*
X134869675Y-107990501D01*
X134984600Y-108008704D01*
X135117726Y-107987619D01*
X135148595Y-107971889D01*
X135205056Y-107967446D01*
X135248124Y-108004228D01*
X135248124Y-108004229D01*
X135282731Y-108072150D01*
X135288372Y-108083220D01*
X135383680Y-108178528D01*
X135503773Y-108239718D01*
X135503773Y-108239719D01*
X135521975Y-108242601D01*
X135636900Y-108260804D01*
X135770026Y-108239719D01*
X135890120Y-108178528D01*
X135985428Y-108083220D01*
X136017188Y-108020887D01*
X136060254Y-107984106D01*
X136116714Y-107988548D01*
X136178674Y-108020119D01*
X136311800Y-108041204D01*
X136444926Y-108020119D01*
X136565020Y-107958928D01*
X136597160Y-107926787D01*
X136649485Y-107905113D01*
X136701811Y-107926786D01*
X136719332Y-107954669D01*
X136722205Y-107962880D01*
X136722207Y-107962883D01*
X136802846Y-108072146D01*
X136802853Y-108072153D01*
X136912116Y-108152792D01*
X136912118Y-108152793D01*
X137026029Y-108192653D01*
X137068260Y-108230393D01*
X137071435Y-108286941D01*
X137033695Y-108329172D01*
X137026029Y-108332347D01*
X136912118Y-108372206D01*
X136912116Y-108372207D01*
X136802853Y-108452846D01*
X136802846Y-108452853D01*
X136722207Y-108562116D01*
X136722206Y-108562118D01*
X136677355Y-108690295D01*
X136677354Y-108690299D01*
X136677354Y-108690301D01*
X136674500Y-108720734D01*
X136674500Y-109729266D01*
X136677354Y-109759699D01*
X136677354Y-109759701D01*
X136677355Y-109759704D01*
X136722206Y-109887881D01*
X136722207Y-109887883D01*
X136802846Y-109997146D01*
X136802853Y-109997153D01*
X136912116Y-110077792D01*
X136912118Y-110077793D01*
X137040295Y-110122644D01*
X137040301Y-110122646D01*
X137070734Y-110125500D01*
X137070741Y-110125500D01*
X137704258Y-110125500D01*
X137704266Y-110125500D01*
X137734699Y-110122646D01*
X137862882Y-110077793D01*
X137972150Y-109997150D01*
X138052793Y-109887882D01*
X138097646Y-109759699D01*
X138100500Y-109729266D01*
X138100500Y-108911053D01*
X138122173Y-108858728D01*
X138387079Y-108593822D01*
X138439402Y-108572150D01*
X138491728Y-108593824D01*
X138513402Y-108646150D01*
X138509250Y-108670588D01*
X138502355Y-108690293D01*
X138502355Y-108690294D01*
X138502354Y-108690299D01*
X138502354Y-108690301D01*
X138499500Y-108720734D01*
X138499500Y-109729266D01*
X138502354Y-109759699D01*
X138502354Y-109759701D01*
X138502355Y-109759704D01*
X138547206Y-109887881D01*
X138547207Y-109887883D01*
X138627846Y-109997146D01*
X138627853Y-109997153D01*
X138737115Y-110077791D01*
X138737118Y-110077793D01*
X138812441Y-110104149D01*
X138854671Y-110141888D01*
X138862000Y-110173996D01*
X138862000Y-110226003D01*
X138840326Y-110278329D01*
X138812441Y-110295850D01*
X138737118Y-110322206D01*
X138737116Y-110322207D01*
X138627853Y-110402846D01*
X138627846Y-110402853D01*
X138547207Y-110512116D01*
X138547206Y-110512118D01*
X138502355Y-110640295D01*
X138502354Y-110640299D01*
X138502354Y-110640301D01*
X138499500Y-110670734D01*
X138499500Y-111679266D01*
X138502354Y-111709699D01*
X138502354Y-111709701D01*
X138502355Y-111709704D01*
X138547206Y-111837881D01*
X138547207Y-111837883D01*
X138627846Y-111947146D01*
X138627853Y-111947153D01*
X138737116Y-112027792D01*
X138737118Y-112027793D01*
X138865295Y-112072644D01*
X138865301Y-112072646D01*
X138895734Y-112075500D01*
X138895741Y-112075500D01*
X139529258Y-112075500D01*
X139529266Y-112075500D01*
X139559699Y-112072646D01*
X139687882Y-112027793D01*
X139797150Y-111947150D01*
X139877793Y-111837882D01*
X139884820Y-111817800D01*
X139893373Y-111793359D01*
X139931113Y-111751128D01*
X139963220Y-111743800D01*
X140201300Y-111743800D01*
X140253626Y-111765474D01*
X140275300Y-111817800D01*
X140275300Y-114472258D01*
X140253626Y-114524584D01*
X140201300Y-114546258D01*
X140176860Y-114542106D01*
X140134702Y-114527355D01*
X140134701Y-114527354D01*
X140134699Y-114527354D01*
X140104266Y-114524500D01*
X140104260Y-114524500D01*
X139982700Y-114524500D01*
X139930374Y-114502826D01*
X139908700Y-114450500D01*
X139908700Y-114153200D01*
X139930374Y-114100874D01*
X139996728Y-114034520D01*
X140057919Y-113914426D01*
X140079004Y-113781300D01*
X140058621Y-113652604D01*
X140057919Y-113648173D01*
X139996728Y-113528080D01*
X139901419Y-113432771D01*
X139781326Y-113371581D01*
X139781326Y-113371580D01*
X139648200Y-113350496D01*
X139515073Y-113371580D01*
X139515073Y-113371581D01*
X139394980Y-113432771D01*
X139299671Y-113528080D01*
X139238481Y-113648173D01*
X139238480Y-113648173D01*
X139217396Y-113781300D01*
X139238480Y-113914426D01*
X139299671Y-114034519D01*
X139366026Y-114100874D01*
X139387700Y-114153200D01*
X139387700Y-114450500D01*
X139366026Y-114502826D01*
X139313700Y-114524500D01*
X139095734Y-114524500D01*
X139065301Y-114527354D01*
X139065299Y-114527354D01*
X139065295Y-114527355D01*
X138937118Y-114572206D01*
X138937116Y-114572207D01*
X138827853Y-114652846D01*
X138827846Y-114652853D01*
X138747207Y-114762116D01*
X138747206Y-114762118D01*
X138702355Y-114890295D01*
X138702354Y-114890299D01*
X138702354Y-114890301D01*
X138699500Y-114920734D01*
X138699500Y-115554266D01*
X138702354Y-115584699D01*
X138702354Y-115584701D01*
X138702355Y-115584704D01*
X138747206Y-115712881D01*
X138747207Y-115712883D01*
X138827846Y-115822146D01*
X138827853Y-115822153D01*
X138937116Y-115902792D01*
X138937118Y-115902793D01*
X139065295Y-115947644D01*
X139065301Y-115947646D01*
X139095734Y-115950500D01*
X139095741Y-115950500D01*
X140023465Y-115950500D01*
X140075791Y-115972174D01*
X140097465Y-116024500D01*
X140075791Y-116076826D01*
X139824792Y-116327826D01*
X139772466Y-116349500D01*
X139095734Y-116349500D01*
X139065301Y-116352354D01*
X139065299Y-116352354D01*
X139065295Y-116352355D01*
X138937118Y-116397206D01*
X138937116Y-116397207D01*
X138827853Y-116477846D01*
X138827846Y-116477853D01*
X138747207Y-116587116D01*
X138747206Y-116587118D01*
X138702355Y-116715295D01*
X138702354Y-116715299D01*
X138702354Y-116715301D01*
X138699500Y-116745734D01*
X138699500Y-116745740D01*
X138699500Y-117207262D01*
X138677826Y-117259588D01*
X138625500Y-117281262D01*
X138591906Y-117273197D01*
X138531426Y-117242381D01*
X138531424Y-117242380D01*
X138531423Y-117242380D01*
X138398300Y-117221296D01*
X138265173Y-117242380D01*
X138265173Y-117242381D01*
X138145080Y-117303571D01*
X138049771Y-117398880D01*
X137988581Y-117518973D01*
X137988580Y-117518973D01*
X137967496Y-117652100D01*
X137988580Y-117785226D01*
X138049771Y-117905319D01*
X138145082Y-118000630D01*
X138147738Y-118002560D01*
X138148886Y-118004434D01*
X138149198Y-118004746D01*
X138149123Y-118004820D01*
X138177329Y-118050852D01*
X138164104Y-118105924D01*
X138156565Y-118114751D01*
X137207030Y-119064287D01*
X137160886Y-119144210D01*
X137160884Y-119144215D01*
X137137000Y-119233353D01*
X137137000Y-119376003D01*
X137115326Y-119428329D01*
X137087441Y-119445850D01*
X137012118Y-119472206D01*
X137012116Y-119472207D01*
X136902853Y-119552846D01*
X136902846Y-119552853D01*
X136822207Y-119662116D01*
X136822206Y-119662118D01*
X136777355Y-119790295D01*
X136777354Y-119790299D01*
X136777354Y-119790301D01*
X136774500Y-119820734D01*
X136774500Y-119820740D01*
X136774500Y-120511665D01*
X136752826Y-120563991D01*
X136501326Y-120815491D01*
X136449000Y-120837165D01*
X136396674Y-120815491D01*
X136375000Y-120763165D01*
X136375000Y-120425000D01*
X134950001Y-120425000D01*
X134950001Y-120829205D01*
X134952850Y-120859602D01*
X134952852Y-120859611D01*
X134966096Y-120897460D01*
X134962921Y-120954008D01*
X134920689Y-120991747D01*
X134896249Y-120995900D01*
X133603200Y-120995900D01*
X133550874Y-120974226D01*
X133529200Y-120921900D01*
X133529200Y-120225000D01*
X134950000Y-120225000D01*
X135562500Y-120225000D01*
X135562500Y-119425000D01*
X135762500Y-119425000D01*
X135762500Y-120225000D01*
X136374999Y-120225000D01*
X136374999Y-119820806D01*
X136374998Y-119820794D01*
X136372149Y-119790397D01*
X136372147Y-119790388D01*
X136327347Y-119662356D01*
X136246792Y-119553208D01*
X136246791Y-119553207D01*
X136137643Y-119472652D01*
X136137644Y-119472652D01*
X136009614Y-119427853D01*
X136009606Y-119427851D01*
X135979198Y-119425000D01*
X135762500Y-119425000D01*
X135562500Y-119425000D01*
X135345806Y-119425000D01*
X135345793Y-119425001D01*
X135315397Y-119427850D01*
X135315388Y-119427852D01*
X135187356Y-119472652D01*
X135078208Y-119553207D01*
X135078207Y-119553208D01*
X134997652Y-119662356D01*
X134952853Y-119790385D01*
X134952851Y-119790393D01*
X134950000Y-119820801D01*
X134950000Y-120225000D01*
X133529200Y-120225000D01*
X133529200Y-117920054D01*
X133529199Y-117920053D01*
X133528638Y-117917961D01*
X133505314Y-117830912D01*
X133478937Y-117785226D01*
X133459170Y-117750988D01*
X133411182Y-117703000D01*
X135202396Y-117703000D01*
X135223480Y-117836126D01*
X135284671Y-117956219D01*
X135284672Y-117956220D01*
X135379980Y-118051528D01*
X135500073Y-118112718D01*
X135500073Y-118112719D01*
X135518275Y-118115601D01*
X135633200Y-118133804D01*
X135766326Y-118112719D01*
X135886420Y-118051528D01*
X135981728Y-117956220D01*
X135999683Y-117920981D01*
X136001222Y-117917961D01*
X136044289Y-117881178D01*
X136100751Y-117885622D01*
X136119482Y-117899230D01*
X136213480Y-117993228D01*
X136333573Y-118054418D01*
X136333573Y-118054419D01*
X136351775Y-118057301D01*
X136466700Y-118075504D01*
X136599826Y-118054419D01*
X136719920Y-117993228D01*
X136815228Y-117897920D01*
X136876419Y-117777826D01*
X136897504Y-117644700D01*
X136876419Y-117511574D01*
X136876419Y-117511573D01*
X136815228Y-117391480D01*
X136719919Y-117296171D01*
X136599826Y-117234981D01*
X136599826Y-117234980D01*
X136466700Y-117213896D01*
X136333573Y-117234980D01*
X136333573Y-117234981D01*
X136213480Y-117296171D01*
X136118171Y-117391480D01*
X136098678Y-117429739D01*
X136055611Y-117466522D01*
X135999149Y-117462078D01*
X135980418Y-117448470D01*
X135886419Y-117354471D01*
X135766326Y-117293281D01*
X135766326Y-117293280D01*
X135633200Y-117272196D01*
X135500073Y-117293280D01*
X135500073Y-117293281D01*
X135379980Y-117354471D01*
X135284671Y-117449780D01*
X135223481Y-117569873D01*
X135223480Y-117569873D01*
X135202396Y-117703000D01*
X133411182Y-117703000D01*
X133191328Y-117483146D01*
X133169654Y-117430820D01*
X133172470Y-117414268D01*
X133171685Y-117414097D01*
X133172645Y-117409701D01*
X133172646Y-117409699D01*
X133175500Y-117379266D01*
X133175500Y-116745734D01*
X133172646Y-116715301D01*
X133127793Y-116587118D01*
X133120326Y-116577000D01*
X133047153Y-116477853D01*
X133047146Y-116477846D01*
X132937883Y-116397207D01*
X132937881Y-116397206D01*
X132809704Y-116352355D01*
X132809705Y-116352355D01*
X132809700Y-116352354D01*
X132809699Y-116352354D01*
X132779266Y-116349500D01*
X132779260Y-116349500D01*
X132569749Y-116349500D01*
X132517423Y-116327826D01*
X132495749Y-116275500D01*
X132496660Y-116263924D01*
X132514704Y-116150000D01*
X132496660Y-116036075D01*
X132509882Y-115981004D01*
X132558173Y-115951411D01*
X132569749Y-115950500D01*
X132779258Y-115950500D01*
X132779266Y-115950500D01*
X132809699Y-115947646D01*
X132937882Y-115902793D01*
X133047150Y-115822150D01*
X133127793Y-115712882D01*
X133154310Y-115637100D01*
X137473596Y-115637100D01*
X137494680Y-115770226D01*
X137542483Y-115864043D01*
X137555872Y-115890320D01*
X137651180Y-115985628D01*
X137771273Y-116046818D01*
X137771273Y-116046819D01*
X137789475Y-116049701D01*
X137904400Y-116067904D01*
X138037526Y-116046819D01*
X138157620Y-115985628D01*
X138252928Y-115890320D01*
X138314119Y-115770226D01*
X138335204Y-115637100D01*
X138314119Y-115503974D01*
X138314119Y-115503973D01*
X138252928Y-115383880D01*
X138157619Y-115288571D01*
X138037526Y-115227381D01*
X138037526Y-115227380D01*
X137904400Y-115206296D01*
X137771273Y-115227380D01*
X137771273Y-115227381D01*
X137651180Y-115288571D01*
X137555871Y-115383880D01*
X137494681Y-115503973D01*
X137494680Y-115503973D01*
X137473596Y-115637100D01*
X133154310Y-115637100D01*
X133172646Y-115584699D01*
X133175500Y-115554266D01*
X133175500Y-114920734D01*
X133172646Y-114890301D01*
X133127793Y-114762118D01*
X133126230Y-114760000D01*
X136114096Y-114760000D01*
X136135180Y-114893126D01*
X136177193Y-114975580D01*
X136196372Y-115013220D01*
X136291680Y-115108528D01*
X136411773Y-115169718D01*
X136411773Y-115169719D01*
X136429975Y-115172601D01*
X136544900Y-115190804D01*
X136678026Y-115169719D01*
X136798120Y-115108528D01*
X136893428Y-115013220D01*
X136954619Y-114893126D01*
X136975704Y-114760000D01*
X136954619Y-114626874D01*
X136954619Y-114626873D01*
X136893428Y-114506780D01*
X136798119Y-114411471D01*
X136678026Y-114350281D01*
X136678026Y-114350280D01*
X136544900Y-114329196D01*
X136411773Y-114350280D01*
X136411773Y-114350281D01*
X136291680Y-114411471D01*
X136196371Y-114506780D01*
X136135181Y-114626873D01*
X136135180Y-114626873D01*
X136114096Y-114760000D01*
X133126230Y-114760000D01*
X133047153Y-114652853D01*
X133047146Y-114652846D01*
X132937883Y-114572207D01*
X132937881Y-114572206D01*
X132809704Y-114527355D01*
X132809705Y-114527355D01*
X132809700Y-114527354D01*
X132809699Y-114527354D01*
X132779266Y-114524500D01*
X131770734Y-114524500D01*
X131740301Y-114527354D01*
X131740299Y-114527354D01*
X131740295Y-114527355D01*
X131612118Y-114572206D01*
X131612116Y-114572207D01*
X131502853Y-114652846D01*
X131502846Y-114652853D01*
X131422207Y-114762116D01*
X131422206Y-114762118D01*
X131377355Y-114890295D01*
X131377354Y-114890299D01*
X131377354Y-114890301D01*
X131374500Y-114920734D01*
X131374500Y-115554266D01*
X131377354Y-115584699D01*
X131377354Y-115584701D01*
X131377355Y-115584704D01*
X131422206Y-115712881D01*
X131422207Y-115712883D01*
X131502846Y-115822146D01*
X131502853Y-115822153D01*
X131612116Y-115902792D01*
X131612115Y-115902792D01*
X131612970Y-115903091D01*
X131634173Y-115910510D01*
X131676405Y-115948249D01*
X131679582Y-116004797D01*
X131675669Y-116013952D01*
X131674181Y-116016870D01*
X131674181Y-116016873D01*
X131653096Y-116150000D01*
X131674181Y-116283126D01*
X131674181Y-116283128D01*
X131675670Y-116286050D01*
X131675842Y-116288239D01*
X131675981Y-116288667D01*
X131675878Y-116288700D01*
X131680110Y-116342513D01*
X131643324Y-116385578D01*
X131634176Y-116389488D01*
X131612116Y-116397207D01*
X131502853Y-116477846D01*
X131502846Y-116477853D01*
X131422207Y-116587116D01*
X131422206Y-116587118D01*
X131377355Y-116715295D01*
X131377354Y-116715299D01*
X131377354Y-116715301D01*
X131374500Y-116745734D01*
X131374500Y-117379266D01*
X131377354Y-117409699D01*
X131377354Y-117409701D01*
X131377355Y-117409704D01*
X131422206Y-117537881D01*
X131422207Y-117537883D01*
X131502846Y-117647146D01*
X131502853Y-117647153D01*
X131612116Y-117727792D01*
X131612118Y-117727793D01*
X131740295Y-117772644D01*
X131740301Y-117772646D01*
X131770734Y-117775500D01*
X132461666Y-117775500D01*
X132513992Y-117797174D01*
X132806526Y-118089708D01*
X132828200Y-118142034D01*
X132828200Y-124174246D01*
X132852084Y-124263384D01*
X132852086Y-124263389D01*
X132898230Y-124343312D01*
X133689803Y-125134885D01*
X133710566Y-125175634D01*
X133713508Y-125194211D01*
X133715681Y-125207926D01*
X133766834Y-125308320D01*
X133774900Y-125341913D01*
X133774900Y-126225500D01*
X133753226Y-126277826D01*
X133700900Y-126299500D01*
X133658234Y-126299500D01*
X133627801Y-126302354D01*
X133627799Y-126302354D01*
X133627795Y-126302355D01*
X133499618Y-126347206D01*
X133499616Y-126347207D01*
X133390353Y-126427846D01*
X133390346Y-126427853D01*
X133309707Y-126537116D01*
X133309706Y-126537118D01*
X133264855Y-126665295D01*
X133264854Y-126665299D01*
X133264854Y-126665301D01*
X133262000Y-126695734D01*
X133262000Y-126695740D01*
X133262000Y-127533377D01*
X133240326Y-127585703D01*
X133188000Y-127607377D01*
X133135674Y-127585703D01*
X130447174Y-124897203D01*
X130425500Y-124844877D01*
X130425500Y-112636600D01*
X132528496Y-112636600D01*
X132549580Y-112769726D01*
X132602340Y-112873272D01*
X132610772Y-112889820D01*
X132706080Y-112985128D01*
X132826173Y-113046318D01*
X132826173Y-113046319D01*
X132844375Y-113049201D01*
X132959300Y-113067404D01*
X133092426Y-113046319D01*
X133110158Y-113037283D01*
X133166618Y-113032839D01*
X133209686Y-113069621D01*
X133216841Y-113114794D01*
X133195696Y-113248299D01*
X133216780Y-113381426D01*
X133277971Y-113501519D01*
X133277972Y-113501520D01*
X133373280Y-113596828D01*
X133493373Y-113658018D01*
X133493373Y-113658019D01*
X133511575Y-113660901D01*
X133626500Y-113679104D01*
X133759626Y-113658019D01*
X133879720Y-113596828D01*
X133975028Y-113501520D01*
X134036219Y-113381426D01*
X134057304Y-113248300D01*
X134053107Y-113221800D01*
X136027696Y-113221800D01*
X136048780Y-113354926D01*
X136109971Y-113475019D01*
X136109972Y-113475020D01*
X136205280Y-113570328D01*
X136325373Y-113631518D01*
X136325373Y-113631519D01*
X136343575Y-113634401D01*
X136458500Y-113652604D01*
X136591626Y-113631519D01*
X136711720Y-113570328D01*
X136807028Y-113475020D01*
X136868219Y-113354926D01*
X136889304Y-113221800D01*
X136886670Y-113205172D01*
X136899888Y-113150101D01*
X136907425Y-113141275D01*
X137608341Y-112440361D01*
X137648000Y-112344617D01*
X137648000Y-112148161D01*
X137669674Y-112095835D01*
X137715088Y-112074485D01*
X137734699Y-112072646D01*
X137862882Y-112027793D01*
X137972150Y-111947150D01*
X138052793Y-111837882D01*
X138097646Y-111709699D01*
X138100500Y-111679266D01*
X138100500Y-110670734D01*
X138097646Y-110640301D01*
X138052793Y-110512118D01*
X138052792Y-110512116D01*
X137972153Y-110402853D01*
X137972146Y-110402846D01*
X137862883Y-110322207D01*
X137862881Y-110322206D01*
X137734704Y-110277355D01*
X137734705Y-110277355D01*
X137734700Y-110277354D01*
X137734699Y-110277354D01*
X137704266Y-110274500D01*
X137070734Y-110274500D01*
X137040301Y-110277354D01*
X137040299Y-110277354D01*
X137040295Y-110277355D01*
X136912118Y-110322206D01*
X136912116Y-110322207D01*
X136802853Y-110402846D01*
X136802846Y-110402853D01*
X136722207Y-110512116D01*
X136722206Y-110512118D01*
X136677355Y-110640295D01*
X136677354Y-110640299D01*
X136677354Y-110640301D01*
X136674500Y-110670734D01*
X136674500Y-111679266D01*
X136677354Y-111709699D01*
X136677354Y-111709701D01*
X136677355Y-111709704D01*
X136722206Y-111837881D01*
X136722207Y-111837883D01*
X136802846Y-111947146D01*
X136802853Y-111947153D01*
X136912116Y-112027792D01*
X136912118Y-112027793D01*
X137040295Y-112072644D01*
X137040301Y-112072646D01*
X137059910Y-112074485D01*
X137109983Y-112100949D01*
X137127000Y-112148161D01*
X137127000Y-112154245D01*
X137105326Y-112206571D01*
X136539030Y-112772866D01*
X136486704Y-112794540D01*
X136475130Y-112793629D01*
X136458503Y-112790996D01*
X136458500Y-112790996D01*
X136325373Y-112812080D01*
X136325373Y-112812081D01*
X136205280Y-112873271D01*
X136109971Y-112968580D01*
X136048781Y-113088673D01*
X136048780Y-113088673D01*
X136027696Y-113221800D01*
X134053107Y-113221800D01*
X134036219Y-113115174D01*
X134036219Y-113115173D01*
X133975028Y-112995080D01*
X133879719Y-112899771D01*
X133759626Y-112838581D01*
X133759626Y-112838580D01*
X133626500Y-112817496D01*
X133493373Y-112838580D01*
X133493372Y-112838581D01*
X133475640Y-112847616D01*
X133419178Y-112852059D01*
X133376112Y-112815274D01*
X133368958Y-112770104D01*
X133369017Y-112769729D01*
X133369019Y-112769726D01*
X133390104Y-112636600D01*
X133369019Y-112503474D01*
X133369019Y-112503473D01*
X133307828Y-112383380D01*
X133212519Y-112288071D01*
X133092426Y-112226881D01*
X133092426Y-112226880D01*
X132959300Y-112205796D01*
X132826173Y-112226880D01*
X132826173Y-112226881D01*
X132706080Y-112288071D01*
X132610771Y-112383380D01*
X132549581Y-112503473D01*
X132549580Y-112503473D01*
X132528496Y-112636600D01*
X130425500Y-112636600D01*
X130425500Y-104829200D01*
X134076096Y-104829200D01*
X134097180Y-104962326D01*
X134136350Y-105039200D01*
X134158372Y-105082420D01*
X134253680Y-105177728D01*
X134373773Y-105238918D01*
X134373773Y-105238919D01*
X134391975Y-105241801D01*
X134506900Y-105260004D01*
X134640026Y-105238919D01*
X134760120Y-105177728D01*
X134855428Y-105082420D01*
X134877450Y-105039200D01*
X137201696Y-105039200D01*
X137222780Y-105172326D01*
X137267455Y-105260004D01*
X137283972Y-105292420D01*
X137379280Y-105387728D01*
X137499373Y-105448918D01*
X137499373Y-105448919D01*
X137517575Y-105451801D01*
X137632500Y-105470004D01*
X137765626Y-105448919D01*
X137885720Y-105387728D01*
X137981028Y-105292420D01*
X138042219Y-105172326D01*
X138063304Y-105039200D01*
X138042219Y-104906074D01*
X138042219Y-104906073D01*
X137981028Y-104785980D01*
X137885719Y-104690671D01*
X137765626Y-104629481D01*
X137765626Y-104629480D01*
X137632500Y-104608396D01*
X137499373Y-104629480D01*
X137499373Y-104629481D01*
X137379280Y-104690671D01*
X137283971Y-104785980D01*
X137222781Y-104906073D01*
X137222780Y-104906073D01*
X137201696Y-105039200D01*
X134877450Y-105039200D01*
X134916619Y-104962326D01*
X134937704Y-104829200D01*
X134916619Y-104696074D01*
X134916619Y-104696073D01*
X134855428Y-104575980D01*
X134760119Y-104480671D01*
X134640026Y-104419481D01*
X134640026Y-104419480D01*
X134506900Y-104398396D01*
X134373773Y-104419480D01*
X134373773Y-104419481D01*
X134253680Y-104480671D01*
X134158371Y-104575980D01*
X134097181Y-104696073D01*
X134097180Y-104696073D01*
X134076096Y-104829200D01*
X130425500Y-104829200D01*
X130425500Y-91858300D01*
X135291596Y-91858300D01*
X135312680Y-91991426D01*
X135373871Y-92111519D01*
X135373872Y-92111520D01*
X135469180Y-92206828D01*
X135589273Y-92268018D01*
X135589273Y-92268019D01*
X135607475Y-92270901D01*
X135722400Y-92289104D01*
X135855526Y-92268019D01*
X135975620Y-92206828D01*
X136070928Y-92111520D01*
X136132119Y-91991426D01*
X136153204Y-91858300D01*
X136132119Y-91725174D01*
X136132119Y-91725173D01*
X136070928Y-91605080D01*
X136010248Y-91544400D01*
X138379696Y-91544400D01*
X138400780Y-91677526D01*
X138461971Y-91797619D01*
X138461972Y-91797620D01*
X138557280Y-91892928D01*
X138677373Y-91954118D01*
X138677373Y-91954119D01*
X138695575Y-91957001D01*
X138810500Y-91975204D01*
X138943626Y-91954119D01*
X139063720Y-91892928D01*
X139159028Y-91797620D01*
X139202957Y-91711404D01*
X139246021Y-91674624D01*
X139302484Y-91679067D01*
X139334822Y-91711406D01*
X139339772Y-91721120D01*
X139435080Y-91816428D01*
X139555173Y-91877618D01*
X139555173Y-91877619D01*
X139573375Y-91880501D01*
X139688300Y-91898704D01*
X139821426Y-91877619D01*
X139941520Y-91816428D01*
X140036828Y-91721120D01*
X140098019Y-91601026D01*
X140119104Y-91467900D01*
X140100901Y-91352975D01*
X140098019Y-91334773D01*
X140036828Y-91214680D01*
X139941519Y-91119371D01*
X139821426Y-91058181D01*
X139821426Y-91058180D01*
X139688300Y-91037096D01*
X139555173Y-91058180D01*
X139555173Y-91058181D01*
X139435080Y-91119371D01*
X139339773Y-91214678D01*
X139295844Y-91300893D01*
X139252777Y-91337675D01*
X139196314Y-91333231D01*
X139163977Y-91300893D01*
X139159028Y-91291180D01*
X139063720Y-91195872D01*
X139063719Y-91195871D01*
X138943626Y-91134681D01*
X138943626Y-91134680D01*
X138810500Y-91113596D01*
X138677373Y-91134680D01*
X138677373Y-91134681D01*
X138557280Y-91195871D01*
X138461971Y-91291180D01*
X138400781Y-91411273D01*
X138400780Y-91411273D01*
X138379696Y-91544400D01*
X136010248Y-91544400D01*
X135975619Y-91509771D01*
X135855526Y-91448581D01*
X135855526Y-91448580D01*
X135722400Y-91427496D01*
X135589273Y-91448580D01*
X135589273Y-91448581D01*
X135469180Y-91509771D01*
X135373871Y-91605080D01*
X135312681Y-91725173D01*
X135312680Y-91725173D01*
X135291596Y-91858300D01*
X130425500Y-91858300D01*
X130425500Y-88857600D01*
X133894296Y-88857600D01*
X133915380Y-88990726D01*
X133976571Y-89110819D01*
X133976572Y-89110820D01*
X134071880Y-89206128D01*
X134191973Y-89267318D01*
X134191973Y-89267319D01*
X134210175Y-89270201D01*
X134325100Y-89288404D01*
X134458226Y-89267319D01*
X134578320Y-89206128D01*
X134673628Y-89110820D01*
X134734819Y-88990726D01*
X134755904Y-88857600D01*
X134734819Y-88724474D01*
X134734819Y-88724473D01*
X134673628Y-88604380D01*
X134578319Y-88509071D01*
X134458226Y-88447881D01*
X134458226Y-88447880D01*
X134325100Y-88426796D01*
X134191973Y-88447880D01*
X134191973Y-88447881D01*
X134071880Y-88509071D01*
X133976571Y-88604380D01*
X133915381Y-88724473D01*
X133915380Y-88724473D01*
X133894296Y-88857600D01*
X130425500Y-88857600D01*
X130425500Y-86867238D01*
X130421615Y-86852738D01*
X130421615Y-86852737D01*
X130405023Y-86790816D01*
X130405021Y-86790811D01*
X130365462Y-86722293D01*
X130365461Y-86722292D01*
X130365460Y-86722290D01*
X129390570Y-85747400D01*
X130831896Y-85747400D01*
X130852980Y-85880526D01*
X130906222Y-85985018D01*
X130914172Y-86000620D01*
X131009480Y-86095928D01*
X131129573Y-86157118D01*
X131129573Y-86157119D01*
X131147775Y-86160001D01*
X131262700Y-86178204D01*
X131395826Y-86157119D01*
X131515920Y-86095928D01*
X131611228Y-86000620D01*
X131672419Y-85880526D01*
X131693504Y-85747400D01*
X131672419Y-85614274D01*
X131672419Y-85614273D01*
X131611228Y-85494180D01*
X131515919Y-85398871D01*
X131395826Y-85337681D01*
X131395826Y-85337680D01*
X131262700Y-85316596D01*
X131129573Y-85337680D01*
X131129573Y-85337681D01*
X131009480Y-85398871D01*
X130914171Y-85494180D01*
X130852981Y-85614273D01*
X130852980Y-85614273D01*
X130831896Y-85747400D01*
X129390570Y-85747400D01*
X128717470Y-85074300D01*
X132110996Y-85074300D01*
X132132080Y-85207426D01*
X132193271Y-85327519D01*
X132193272Y-85327520D01*
X132288580Y-85422828D01*
X132408673Y-85484018D01*
X132408673Y-85484019D01*
X132426875Y-85486901D01*
X132541800Y-85505104D01*
X132674926Y-85484019D01*
X132795020Y-85422828D01*
X132890328Y-85327520D01*
X132951519Y-85207426D01*
X132972604Y-85074300D01*
X132951519Y-84941174D01*
X132951519Y-84941173D01*
X132890328Y-84821080D01*
X132795019Y-84725771D01*
X132674926Y-84664581D01*
X132674926Y-84664580D01*
X132541800Y-84643496D01*
X132408673Y-84664580D01*
X132408673Y-84664581D01*
X132288580Y-84725771D01*
X132193271Y-84821080D01*
X132132081Y-84941173D01*
X132132080Y-84941173D01*
X132110996Y-85074300D01*
X128717470Y-85074300D01*
X128358974Y-84715804D01*
X128337300Y-84663478D01*
X128337300Y-84218700D01*
X128358974Y-84166374D01*
X128385328Y-84140020D01*
X128446519Y-84019926D01*
X128467604Y-83886800D01*
X128446519Y-83753674D01*
X128446519Y-83753673D01*
X128385328Y-83633580D01*
X128290019Y-83538271D01*
X128169926Y-83477081D01*
X128169926Y-83477080D01*
X128036800Y-83455996D01*
X127903673Y-83477080D01*
X127903673Y-83477081D01*
X127783580Y-83538271D01*
X127688271Y-83633580D01*
X127627081Y-83753673D01*
X127627080Y-83753673D01*
X127605996Y-83886800D01*
X127627080Y-84019926D01*
X127688271Y-84140019D01*
X127714626Y-84166374D01*
X127736300Y-84218700D01*
X127736300Y-84550876D01*
X127714626Y-84603202D01*
X127662300Y-84624876D01*
X127609974Y-84603202D01*
X127134916Y-84128144D01*
X127114153Y-84087395D01*
X127097069Y-83979524D01*
X127035878Y-83859430D01*
X126940570Y-83764122D01*
X126940569Y-83764121D01*
X126820476Y-83702931D01*
X126820476Y-83702930D01*
X126687350Y-83681846D01*
X126554223Y-83702930D01*
X126554223Y-83702931D01*
X126434130Y-83764121D01*
X126338821Y-83859430D01*
X126277631Y-83979523D01*
X126277630Y-83979523D01*
X126256546Y-84112650D01*
X126277630Y-84245776D01*
X126338821Y-84365869D01*
X126338822Y-84365870D01*
X126434130Y-84461178D01*
X126554224Y-84522369D01*
X126678970Y-84542126D01*
X126719719Y-84562889D01*
X127166019Y-85009189D01*
X127187693Y-85061515D01*
X127166019Y-85113841D01*
X127110625Y-85169235D01*
X127110547Y-85169302D01*
X127094852Y-85185002D01*
X127094688Y-85185069D01*
X127029864Y-85249915D01*
X126965076Y-85353060D01*
X126924863Y-85468034D01*
X126911243Y-85589073D01*
X126911243Y-85589075D01*
X126911243Y-85589078D01*
X126914086Y-85614274D01*
X126924897Y-85710114D01*
X126924898Y-85710118D01*
X126965142Y-85825075D01*
X126965144Y-85825080D01*
X127029962Y-85928209D01*
X127071485Y-85969720D01*
X127157855Y-86056090D01*
X127157854Y-86056090D01*
X127185831Y-86084066D01*
X127200918Y-86099153D01*
X127304049Y-86163955D01*
X127419014Y-86204184D01*
X127540048Y-86217821D01*
X127661082Y-86204184D01*
X127740105Y-86176531D01*
X127776042Y-86163957D01*
X127776042Y-86163956D01*
X127776047Y-86163955D01*
X127879178Y-86099153D01*
X127888170Y-86090159D01*
X127888173Y-86090158D01*
X127894264Y-86084066D01*
X127894266Y-86084066D01*
X128015254Y-85963075D01*
X128067578Y-85941402D01*
X128119904Y-85963075D01*
X128141842Y-85985013D01*
X128141848Y-85985018D01*
X129352826Y-87195996D01*
X129374500Y-87248322D01*
X129374500Y-121929650D01*
X129352826Y-121981976D01*
X129300500Y-122003650D01*
X129270880Y-121996539D01*
X129270867Y-121996581D01*
X129270341Y-121996410D01*
X129266908Y-121995586D01*
X129265330Y-121994782D01*
X129265326Y-121994781D01*
X129132200Y-121973696D01*
X128999073Y-121994780D01*
X128999073Y-121994781D01*
X128878980Y-122055971D01*
X128783671Y-122151280D01*
X128722481Y-122271373D01*
X128722480Y-122271373D01*
X128701396Y-122404500D01*
X128722480Y-122537626D01*
X128781526Y-122653509D01*
X128783672Y-122657720D01*
X128878980Y-122753028D01*
X128999073Y-122814218D01*
X128999073Y-122814219D01*
X129017275Y-122817101D01*
X129132200Y-122835304D01*
X129265326Y-122814219D01*
X129266902Y-122813415D01*
X129268083Y-122813322D01*
X129270862Y-122812420D01*
X129271078Y-122813086D01*
X129323363Y-122808968D01*
X129366432Y-122845749D01*
X129374500Y-122879348D01*
X129374500Y-124439564D01*
X129394977Y-124515985D01*
X129394979Y-124515990D01*
X129420132Y-124559556D01*
X129420133Y-124559558D01*
X129420136Y-124559562D01*
X129434540Y-124584511D01*
X129434541Y-124584512D01*
X129472826Y-124622797D01*
X129494500Y-124675123D01*
X129494500Y-125176254D01*
X129494501Y-125176255D01*
X129514978Y-125252676D01*
X129514979Y-125252678D01*
X129514980Y-125252680D01*
X129536534Y-125290012D01*
X129554541Y-125321202D01*
X129554542Y-125321203D01*
X130413880Y-126180541D01*
X130435554Y-126232867D01*
X130413880Y-126285193D01*
X130373131Y-126305956D01*
X130298473Y-126317781D01*
X130178380Y-126378971D01*
X130083071Y-126474280D01*
X130021881Y-126594373D01*
X130021880Y-126594373D01*
X130000796Y-126727500D01*
X130021880Y-126860624D01*
X130021880Y-126860625D01*
X130021881Y-126860626D01*
X130031434Y-126879376D01*
X130039500Y-126912969D01*
X130039500Y-132557413D01*
X130017826Y-132609739D01*
X129965500Y-132631413D01*
X129931906Y-132623348D01*
X129871326Y-132592481D01*
X129871324Y-132592480D01*
X129871323Y-132592480D01*
X129738200Y-132571396D01*
X129605073Y-132592480D01*
X129605073Y-132592481D01*
X129484980Y-132653671D01*
X129389671Y-132748980D01*
X129328481Y-132869073D01*
X129328480Y-132869073D01*
X129307396Y-133002200D01*
X129328480Y-133135326D01*
X129389671Y-133255419D01*
X129389672Y-133255420D01*
X129484980Y-133350728D01*
X129605073Y-133411918D01*
X129605073Y-133411919D01*
X129623275Y-133414801D01*
X129738200Y-133433004D01*
X129871326Y-133411919D01*
X129931906Y-133381051D01*
X129988367Y-133376608D01*
X130031434Y-133413390D01*
X130039500Y-133446986D01*
X130039500Y-136301000D01*
X130017826Y-136353326D01*
X129965500Y-136375000D01*
X129900000Y-136375000D01*
X129900000Y-137576000D01*
X129878326Y-137628326D01*
X129826000Y-137650000D01*
X129774000Y-137650000D01*
X129721674Y-137628326D01*
X129700000Y-137576000D01*
X129700000Y-136375000D01*
X129634500Y-136375000D01*
X129582174Y-136353326D01*
X129560500Y-136301000D01*
X129560500Y-135693654D01*
X129582174Y-135641328D01*
X129612548Y-135610954D01*
X129653141Y-135570361D01*
X129654586Y-135566872D01*
X129657228Y-135560497D01*
X129683877Y-135496158D01*
X129692800Y-135474617D01*
X129692800Y-134100583D01*
X129653141Y-134004839D01*
X129579861Y-133931559D01*
X127538074Y-131889772D01*
X127516400Y-131837446D01*
X127516400Y-125708600D01*
X128353996Y-125708600D01*
X128375080Y-125841726D01*
X128423284Y-125936330D01*
X128436272Y-125961820D01*
X128531580Y-126057128D01*
X128651673Y-126118318D01*
X128651673Y-126118319D01*
X128669875Y-126121201D01*
X128784800Y-126139404D01*
X128917926Y-126118319D01*
X129038020Y-126057128D01*
X129133328Y-125961820D01*
X129194519Y-125841726D01*
X129215604Y-125708600D01*
X129194519Y-125575474D01*
X129194519Y-125575473D01*
X129133328Y-125455380D01*
X129038019Y-125360071D01*
X128917926Y-125298881D01*
X128917926Y-125298880D01*
X128784800Y-125277796D01*
X128651673Y-125298880D01*
X128651673Y-125298881D01*
X128531580Y-125360071D01*
X128436271Y-125455380D01*
X128375081Y-125575473D01*
X128375080Y-125575473D01*
X128353996Y-125708600D01*
X127516400Y-125708600D01*
X127516400Y-116877883D01*
X127476741Y-116782140D01*
X127476741Y-116782139D01*
X127403461Y-116708859D01*
X125344561Y-114649959D01*
X125328924Y-114643482D01*
X125316518Y-114638343D01*
X125248817Y-114610300D01*
X123679783Y-114610300D01*
X123639773Y-114626873D01*
X123599676Y-114643482D01*
X123584039Y-114649958D01*
X123584037Y-114649960D01*
X123454130Y-114779866D01*
X123401803Y-114801540D01*
X123390230Y-114800629D01*
X123373603Y-114797996D01*
X123373600Y-114797996D01*
X123240473Y-114819080D01*
X123240473Y-114819081D01*
X123120380Y-114880271D01*
X123025071Y-114975580D01*
X122963881Y-115095673D01*
X122963880Y-115095673D01*
X122942796Y-115228800D01*
X122963880Y-115361926D01*
X123025071Y-115482019D01*
X123025072Y-115482020D01*
X123120380Y-115577328D01*
X123240473Y-115638518D01*
X123240473Y-115638519D01*
X123258675Y-115641401D01*
X123373600Y-115659604D01*
X123506726Y-115638519D01*
X123532184Y-115625546D01*
X123588644Y-115621101D01*
X123618106Y-115639154D01*
X123620772Y-115641820D01*
X123716080Y-115737128D01*
X123836173Y-115798318D01*
X123836173Y-115798319D01*
X123852590Y-115800919D01*
X123969300Y-115819404D01*
X124102426Y-115798319D01*
X124222520Y-115737128D01*
X124288874Y-115670774D01*
X124341200Y-115649100D01*
X124393583Y-115649100D01*
X124404269Y-115649100D01*
X124456595Y-115670774D01*
X124470203Y-115689505D01*
X124526971Y-115800919D01*
X124537769Y-115811717D01*
X124559443Y-115864043D01*
X124546851Y-115902803D01*
X124547416Y-115903091D01*
X124545600Y-115906654D01*
X124545315Y-115907533D01*
X124544771Y-115908281D01*
X124483581Y-116028373D01*
X124483580Y-116028373D01*
X124462496Y-116161500D01*
X124483580Y-116294626D01*
X124541793Y-116408874D01*
X124544772Y-116414720D01*
X124640080Y-116510028D01*
X124760173Y-116571218D01*
X124760173Y-116571219D01*
X124781258Y-116574558D01*
X124893300Y-116592304D01*
X124989924Y-116577000D01*
X125044996Y-116590222D01*
X125074589Y-116638513D01*
X125075500Y-116650089D01*
X125075500Y-120059959D01*
X125053826Y-120112285D01*
X125001500Y-120133959D01*
X124949174Y-120112285D01*
X124928411Y-120071535D01*
X124923919Y-120043174D01*
X124923918Y-120043173D01*
X124922745Y-120040871D01*
X124862728Y-119923080D01*
X124767420Y-119827772D01*
X124767419Y-119827771D01*
X124647326Y-119766581D01*
X124647326Y-119766580D01*
X124514200Y-119745496D01*
X124381073Y-119766580D01*
X124381073Y-119766581D01*
X124260980Y-119827771D01*
X124165671Y-119923080D01*
X124104481Y-120043173D01*
X124104480Y-120043173D01*
X124083396Y-120176300D01*
X124104480Y-120309426D01*
X124165671Y-120429519D01*
X124165672Y-120429520D01*
X124260980Y-120524828D01*
X124381073Y-120586018D01*
X124381073Y-120586019D01*
X124399275Y-120588901D01*
X124514200Y-120607104D01*
X124647326Y-120586019D01*
X124767420Y-120524828D01*
X124862728Y-120429520D01*
X124923919Y-120309426D01*
X124928411Y-120281063D01*
X124958004Y-120232773D01*
X125013076Y-120219551D01*
X125061367Y-120249144D01*
X125075500Y-120292640D01*
X125075500Y-131963690D01*
X125075500Y-132067324D01*
X125115159Y-132163068D01*
X125782917Y-132830826D01*
X126445183Y-133493092D01*
X126466857Y-133545418D01*
X126445183Y-133597744D01*
X126426454Y-133611351D01*
X126396780Y-133626471D01*
X126301471Y-133721780D01*
X126240281Y-133841873D01*
X126240280Y-133841873D01*
X126219196Y-133975000D01*
X126240280Y-134108126D01*
X126301258Y-134227800D01*
X126301472Y-134228220D01*
X126396780Y-134323528D01*
X126516873Y-134384718D01*
X126516873Y-134384719D01*
X126535075Y-134387601D01*
X126650000Y-134405804D01*
X126783126Y-134384719D01*
X126903220Y-134323528D01*
X126998528Y-134228220D01*
X127013648Y-134198545D01*
X127056714Y-134161764D01*
X127113176Y-134166207D01*
X127131907Y-134179816D01*
X127786226Y-134834135D01*
X127807900Y-134886461D01*
X127807900Y-136113046D01*
X127786226Y-136165372D01*
X127714158Y-136237440D01*
X127676308Y-136328819D01*
X127636259Y-136368867D01*
X127607941Y-136374500D01*
X127605251Y-136374500D01*
X127564435Y-136382618D01*
X127535565Y-136382618D01*
X127494748Y-136374499D01*
X127492243Y-136374253D01*
X127491494Y-136373852D01*
X127491184Y-136373791D01*
X127491202Y-136373696D01*
X127442295Y-136347552D01*
X127425500Y-136300610D01*
X127425500Y-135881304D01*
X127425499Y-135881303D01*
X127425198Y-135880181D01*
X127401614Y-135792162D01*
X127385691Y-135764583D01*
X127355471Y-135712241D01*
X127355470Y-135712240D01*
X127355469Y-135712238D01*
X127290212Y-135646981D01*
X125262762Y-133619530D01*
X125248596Y-133611351D01*
X125182839Y-133573386D01*
X125182834Y-133573384D01*
X125093696Y-133549500D01*
X125093694Y-133549500D01*
X125092116Y-133549500D01*
X125090198Y-133549039D01*
X125088887Y-133548867D01*
X125088905Y-133548729D01*
X125058521Y-133541435D01*
X124958126Y-133490281D01*
X124958124Y-133490280D01*
X124958123Y-133490280D01*
X124956557Y-133489771D01*
X124953759Y-133488056D01*
X124952938Y-133487638D01*
X124952970Y-133487573D01*
X124927102Y-133471720D01*
X122397174Y-130941792D01*
X122375500Y-130889466D01*
X122375500Y-127567714D01*
X122397174Y-127515388D01*
X122449500Y-127493714D01*
X122477286Y-127500386D01*
X122477438Y-127499920D01*
X122482973Y-127501719D01*
X122501175Y-127504601D01*
X122616100Y-127522804D01*
X122749226Y-127501719D01*
X122869320Y-127440528D01*
X122964628Y-127345220D01*
X123025819Y-127225126D01*
X123046904Y-127092000D01*
X123025819Y-126958874D01*
X123025819Y-126958873D01*
X122964628Y-126838780D01*
X122869319Y-126743471D01*
X122749226Y-126682281D01*
X122749226Y-126682280D01*
X122616100Y-126661196D01*
X122482973Y-126682281D01*
X122477433Y-126684081D01*
X122476984Y-126682700D01*
X122426630Y-126686661D01*
X122383564Y-126649876D01*
X122375500Y-126616284D01*
X122375500Y-125122300D01*
X123914196Y-125122300D01*
X123935280Y-125255426D01*
X123996471Y-125375519D01*
X123996472Y-125375520D01*
X124091780Y-125470828D01*
X124211873Y-125532018D01*
X124211873Y-125532019D01*
X124230075Y-125534901D01*
X124345000Y-125553104D01*
X124478126Y-125532019D01*
X124598220Y-125470828D01*
X124693528Y-125375520D01*
X124754719Y-125255426D01*
X124775804Y-125122300D01*
X124754719Y-124989174D01*
X124754719Y-124989173D01*
X124693528Y-124869080D01*
X124598219Y-124773771D01*
X124478126Y-124712581D01*
X124478126Y-124712580D01*
X124345000Y-124691496D01*
X124211873Y-124712580D01*
X124211873Y-124712581D01*
X124091780Y-124773771D01*
X123996471Y-124869080D01*
X123935281Y-124989173D01*
X123935280Y-124989173D01*
X123914196Y-125122300D01*
X122375500Y-125122300D01*
X122375500Y-124498996D01*
X122397174Y-124446670D01*
X122425057Y-124429149D01*
X122500382Y-124402793D01*
X122609650Y-124322150D01*
X122690293Y-124212882D01*
X122735146Y-124084699D01*
X122738000Y-124054266D01*
X122738000Y-123650000D01*
X123137501Y-123650000D01*
X123137501Y-124054205D01*
X123140350Y-124084602D01*
X123140352Y-124084611D01*
X123185152Y-124212643D01*
X123265707Y-124321791D01*
X123265708Y-124321792D01*
X123374856Y-124402347D01*
X123374855Y-124402347D01*
X123502885Y-124447146D01*
X123502893Y-124447148D01*
X123533302Y-124449999D01*
X123750000Y-124449999D01*
X123750000Y-123650000D01*
X123950000Y-123650000D01*
X123950000Y-124449999D01*
X124166694Y-124449999D01*
X124166705Y-124449998D01*
X124197102Y-124447149D01*
X124197111Y-124447147D01*
X124325143Y-124402347D01*
X124434291Y-124321792D01*
X124434292Y-124321791D01*
X124514847Y-124212643D01*
X124559646Y-124084614D01*
X124559648Y-124084606D01*
X124562499Y-124054198D01*
X124562500Y-124054197D01*
X124562500Y-123650000D01*
X123950000Y-123650000D01*
X123750000Y-123650000D01*
X123137501Y-123650000D01*
X122738000Y-123650000D01*
X122738000Y-123450000D01*
X123137500Y-123450000D01*
X124562499Y-123450000D01*
X124562499Y-123045806D01*
X124562498Y-123045794D01*
X124559649Y-123015397D01*
X124559647Y-123015388D01*
X124514847Y-122887356D01*
X124434292Y-122778208D01*
X124434291Y-122778207D01*
X124325143Y-122697652D01*
X124325144Y-122697652D01*
X124245679Y-122669847D01*
X124203447Y-122632108D01*
X124200272Y-122575560D01*
X124238011Y-122533328D01*
X124245679Y-122530153D01*
X124325143Y-122502347D01*
X124434291Y-122421792D01*
X124434292Y-122421791D01*
X124514847Y-122312643D01*
X124559646Y-122184614D01*
X124559648Y-122184606D01*
X124562499Y-122154198D01*
X124562500Y-122154197D01*
X124562500Y-121750000D01*
X123137501Y-121750000D01*
X123137501Y-122154205D01*
X123140350Y-122184602D01*
X123140352Y-122184611D01*
X123185152Y-122312643D01*
X123265707Y-122421791D01*
X123265708Y-122421792D01*
X123374855Y-122502346D01*
X123454321Y-122530153D01*
X123496552Y-122567892D01*
X123499727Y-122624441D01*
X123461988Y-122666672D01*
X123454321Y-122669847D01*
X123374855Y-122697653D01*
X123265708Y-122778207D01*
X123265707Y-122778208D01*
X123185152Y-122887356D01*
X123140353Y-123015385D01*
X123140351Y-123015393D01*
X123137500Y-123045801D01*
X123137500Y-123450000D01*
X122738000Y-123450000D01*
X122738000Y-123045734D01*
X122735146Y-123015301D01*
X122690293Y-122887118D01*
X122681350Y-122875000D01*
X122609653Y-122777853D01*
X122609646Y-122777846D01*
X122500383Y-122697207D01*
X122500381Y-122697206D01*
X122425059Y-122670850D01*
X122382828Y-122633110D01*
X122375500Y-122601003D01*
X122375500Y-122598996D01*
X122397174Y-122546670D01*
X122425057Y-122529149D01*
X122500382Y-122502793D01*
X122609650Y-122422150D01*
X122690293Y-122312882D01*
X122735146Y-122184699D01*
X122738000Y-122154266D01*
X122738000Y-121550000D01*
X123137500Y-121550000D01*
X123750000Y-121550000D01*
X123750000Y-120750000D01*
X123950000Y-120750000D01*
X123950000Y-121550000D01*
X124562499Y-121550000D01*
X124562499Y-121145806D01*
X124562498Y-121145794D01*
X124559649Y-121115397D01*
X124559647Y-121115388D01*
X124514847Y-120987356D01*
X124434292Y-120878208D01*
X124434291Y-120878207D01*
X124325143Y-120797652D01*
X124325144Y-120797652D01*
X124197114Y-120752853D01*
X124197106Y-120752851D01*
X124166698Y-120750000D01*
X123950000Y-120750000D01*
X123750000Y-120750000D01*
X123533306Y-120750000D01*
X123533293Y-120750001D01*
X123502897Y-120752850D01*
X123502888Y-120752852D01*
X123374856Y-120797652D01*
X123265708Y-120878207D01*
X123265707Y-120878208D01*
X123185152Y-120987356D01*
X123140353Y-121115385D01*
X123140351Y-121115393D01*
X123137500Y-121145801D01*
X123137500Y-121550000D01*
X122738000Y-121550000D01*
X122738000Y-121145734D01*
X122735146Y-121115301D01*
X122690293Y-120987118D01*
X122683423Y-120977810D01*
X122669790Y-120922840D01*
X122690636Y-120881544D01*
X122747187Y-120824993D01*
X122787936Y-120804232D01*
X122820226Y-120799119D01*
X122940320Y-120737928D01*
X123035628Y-120642620D01*
X123096819Y-120522526D01*
X123117904Y-120389400D01*
X123096819Y-120256274D01*
X123096819Y-120256273D01*
X123035628Y-120136180D01*
X122940319Y-120040871D01*
X122820226Y-119979681D01*
X122820226Y-119979680D01*
X122687100Y-119958596D01*
X122553973Y-119979680D01*
X122553973Y-119979681D01*
X122433880Y-120040871D01*
X122338571Y-120136180D01*
X122277382Y-120256271D01*
X122277380Y-120256276D01*
X122272266Y-120288565D01*
X122251503Y-120329313D01*
X121852992Y-120727826D01*
X121800666Y-120749500D01*
X121708234Y-120749500D01*
X121677801Y-120752354D01*
X121677799Y-120752354D01*
X121677795Y-120752355D01*
X121549618Y-120797206D01*
X121549616Y-120797207D01*
X121440353Y-120877846D01*
X121436429Y-120881771D01*
X121434292Y-120879634D01*
X121394296Y-120903710D01*
X121339330Y-120890052D01*
X121310122Y-120841528D01*
X121309300Y-120830486D01*
X121309301Y-120829205D01*
X121333329Y-82552800D01*
X128589496Y-82552800D01*
X128610580Y-82685926D01*
X128671771Y-82806019D01*
X128671772Y-82806020D01*
X128767080Y-82901328D01*
X128887173Y-82962518D01*
X128887173Y-82962519D01*
X128905375Y-82965401D01*
X129020300Y-82983604D01*
X129153426Y-82962519D01*
X129273520Y-82901328D01*
X129368828Y-82806020D01*
X129430019Y-82685926D01*
X129451104Y-82552800D01*
X129430019Y-82419674D01*
X129430019Y-82419673D01*
X129368828Y-82299580D01*
X129273519Y-82204271D01*
X129153426Y-82143081D01*
X129153426Y-82143080D01*
X129020300Y-82121996D01*
X128887173Y-82143080D01*
X128887173Y-82143081D01*
X128767080Y-82204271D01*
X128671771Y-82299580D01*
X128610581Y-82419673D01*
X128610580Y-82419673D01*
X128589496Y-82552800D01*
X121333329Y-82552800D01*
X121335479Y-79127300D01*
X128437796Y-79127300D01*
X128458880Y-79260426D01*
X128520071Y-79380519D01*
X128520072Y-79380520D01*
X128615380Y-79475828D01*
X128735473Y-79537018D01*
X128735473Y-79537019D01*
X128753675Y-79539901D01*
X128868600Y-79558104D01*
X129001726Y-79537019D01*
X129121820Y-79475828D01*
X129217128Y-79380520D01*
X129264932Y-79286700D01*
X129669996Y-79286700D01*
X129691080Y-79419826D01*
X129752271Y-79539919D01*
X129752272Y-79539920D01*
X129847580Y-79635228D01*
X129967673Y-79696418D01*
X129967673Y-79696419D01*
X129985875Y-79699301D01*
X130100800Y-79717504D01*
X130233926Y-79696419D01*
X130354020Y-79635228D01*
X130449328Y-79539920D01*
X130510519Y-79419826D01*
X130531604Y-79286700D01*
X130510519Y-79153574D01*
X130510519Y-79153573D01*
X130449328Y-79033480D01*
X130354019Y-78938171D01*
X130233926Y-78876981D01*
X130233926Y-78876980D01*
X130100800Y-78855896D01*
X129967673Y-78876980D01*
X129967673Y-78876981D01*
X129847580Y-78938171D01*
X129752271Y-79033480D01*
X129691081Y-79153573D01*
X129691080Y-79153573D01*
X129669996Y-79286700D01*
X129264932Y-79286700D01*
X129278319Y-79260426D01*
X129299404Y-79127300D01*
X129278319Y-78994174D01*
X129278319Y-78994173D01*
X129217128Y-78874080D01*
X129121821Y-78778773D01*
X129121820Y-78778772D01*
X129001726Y-78717581D01*
X129000572Y-78716993D01*
X128963790Y-78673926D01*
X128968234Y-78617463D01*
X129004654Y-78586357D01*
X129003537Y-78584163D01*
X129018717Y-78576427D01*
X129128820Y-78520328D01*
X129224128Y-78425020D01*
X129285319Y-78304926D01*
X129306404Y-78171800D01*
X129286182Y-78044120D01*
X129285319Y-78038673D01*
X129224128Y-77918580D01*
X129128819Y-77823271D01*
X129008726Y-77762081D01*
X129008726Y-77762080D01*
X128875600Y-77740996D01*
X128742473Y-77762080D01*
X128742473Y-77762081D01*
X128622380Y-77823271D01*
X128527071Y-77918580D01*
X128465881Y-78038673D01*
X128465880Y-78038673D01*
X128444796Y-78171800D01*
X128465880Y-78304926D01*
X128520271Y-78411673D01*
X128527072Y-78425020D01*
X128622380Y-78520328D01*
X128737478Y-78578973D01*
X128743626Y-78582106D01*
X128780409Y-78625173D01*
X128775965Y-78681635D01*
X128739545Y-78712743D01*
X128740663Y-78714937D01*
X128615380Y-78778771D01*
X128520071Y-78874080D01*
X128458881Y-78994173D01*
X128458880Y-78994173D01*
X128437796Y-79127300D01*
X121335479Y-79127300D01*
X121336983Y-76731800D01*
X128169596Y-76731800D01*
X128190680Y-76864926D01*
X128251871Y-76985019D01*
X128251872Y-76985020D01*
X128347180Y-77080328D01*
X128467273Y-77141518D01*
X128467273Y-77141519D01*
X128485475Y-77144401D01*
X128600400Y-77162604D01*
X128733526Y-77141519D01*
X128853620Y-77080328D01*
X128948928Y-76985020D01*
X129010119Y-76864926D01*
X129031204Y-76731800D01*
X129010119Y-76598674D01*
X129010119Y-76598673D01*
X128948928Y-76478580D01*
X128853619Y-76383271D01*
X128733526Y-76322081D01*
X128733526Y-76322080D01*
X128600400Y-76300996D01*
X128467273Y-76322080D01*
X128467273Y-76322081D01*
X128347180Y-76383271D01*
X128251871Y-76478580D01*
X128190681Y-76598673D01*
X128190680Y-76598673D01*
X128169596Y-76731800D01*
X121336983Y-76731800D01*
X121337795Y-75438300D01*
X128583696Y-75438300D01*
X128604780Y-75571426D01*
X128665971Y-75691519D01*
X128665972Y-75691520D01*
X128761280Y-75786828D01*
X128881373Y-75848018D01*
X128881373Y-75848019D01*
X128899575Y-75850901D01*
X129014500Y-75869104D01*
X129147626Y-75848019D01*
X129267720Y-75786828D01*
X129363028Y-75691520D01*
X129424219Y-75571426D01*
X129445304Y-75438300D01*
X129424219Y-75305174D01*
X129424219Y-75305173D01*
X129363028Y-75185080D01*
X129267719Y-75089771D01*
X129147626Y-75028581D01*
X129147626Y-75028580D01*
X129014500Y-75007496D01*
X128881373Y-75028580D01*
X128881373Y-75028581D01*
X128761280Y-75089771D01*
X128665971Y-75185080D01*
X128604781Y-75305173D01*
X128604780Y-75305173D01*
X128583696Y-75438300D01*
X121337795Y-75438300D01*
X121338506Y-74306000D01*
X128375196Y-74306000D01*
X128396280Y-74439126D01*
X128457471Y-74559219D01*
X128457472Y-74559220D01*
X128552780Y-74654528D01*
X128672873Y-74715718D01*
X128672873Y-74715719D01*
X128691075Y-74718601D01*
X128806000Y-74736804D01*
X128939126Y-74715719D01*
X129059220Y-74654528D01*
X129154528Y-74559220D01*
X129215719Y-74439126D01*
X129236804Y-74306000D01*
X129215719Y-74172874D01*
X129215719Y-74172873D01*
X129154528Y-74052780D01*
X129059222Y-73957474D01*
X129059220Y-73957472D01*
X129058556Y-73957133D01*
X129058232Y-73956754D01*
X129054512Y-73954052D01*
X129055160Y-73953158D01*
X129021774Y-73914070D01*
X129026215Y-73857607D01*
X129054916Y-73828905D01*
X129054512Y-73828348D01*
X129058028Y-73825793D01*
X129058555Y-73825266D01*
X129059220Y-73824928D01*
X129154528Y-73729620D01*
X129215719Y-73609526D01*
X129236804Y-73476400D01*
X129215719Y-73343274D01*
X129215719Y-73343273D01*
X129154528Y-73223180D01*
X129059219Y-73127871D01*
X128939126Y-73066681D01*
X128939126Y-73066680D01*
X128806000Y-73045596D01*
X128672873Y-73066680D01*
X128672873Y-73066681D01*
X128552780Y-73127871D01*
X128457471Y-73223180D01*
X128396281Y-73343273D01*
X128396280Y-73343273D01*
X128375196Y-73476400D01*
X128396280Y-73609526D01*
X128457471Y-73729619D01*
X128457472Y-73729620D01*
X128552780Y-73824928D01*
X128553446Y-73825267D01*
X128553771Y-73825648D01*
X128557488Y-73828348D01*
X128556839Y-73829240D01*
X128590227Y-73868335D01*
X128585781Y-73924798D01*
X128557083Y-73953495D01*
X128557488Y-73954052D01*
X128553975Y-73956603D01*
X128553446Y-73957132D01*
X128553177Y-73957269D01*
X128552779Y-73957472D01*
X128457471Y-74052780D01*
X128396281Y-74172873D01*
X128396280Y-74172873D01*
X128375196Y-74306000D01*
X121338506Y-74306000D01*
X121340141Y-71700500D01*
X128139196Y-71700500D01*
X128160280Y-71833626D01*
X128221471Y-71953719D01*
X128221472Y-71953720D01*
X128316780Y-72049028D01*
X128436873Y-72110218D01*
X128436873Y-72110219D01*
X128455075Y-72113101D01*
X128570000Y-72131304D01*
X128703126Y-72110219D01*
X128823220Y-72049028D01*
X128918528Y-71953720D01*
X128979719Y-71833626D01*
X129000804Y-71700500D01*
X128979719Y-71567374D01*
X128979719Y-71567373D01*
X128918528Y-71447280D01*
X128823219Y-71351971D01*
X128703126Y-71290781D01*
X128703126Y-71290780D01*
X128570000Y-71269696D01*
X128436873Y-71290780D01*
X128436873Y-71290781D01*
X128316780Y-71351971D01*
X128221471Y-71447280D01*
X128160281Y-71567373D01*
X128160280Y-71567373D01*
X128139196Y-71700500D01*
X121340141Y-71700500D01*
X121342297Y-68266355D01*
X121364004Y-68214044D01*
X121416343Y-68192403D01*
X121440738Y-68196556D01*
X121515295Y-68222644D01*
X121515301Y-68222646D01*
X121545734Y-68225500D01*
X121545741Y-68225500D01*
X122554258Y-68225500D01*
X122554266Y-68225500D01*
X122584699Y-68222646D01*
X122712882Y-68177793D01*
X122822150Y-68097150D01*
X122902793Y-67987882D01*
X122923799Y-67927850D01*
X122929150Y-67912559D01*
X122966890Y-67870328D01*
X122998997Y-67863000D01*
X123051003Y-67863000D01*
X123103329Y-67884674D01*
G37*
%TD.AperFunction*%
%TA.AperFunction,Conductor*%
G36*
X136002949Y-133987774D02*
G01*
X136024623Y-134040100D01*
X136023712Y-134051676D01*
X136012796Y-134120599D01*
X136033880Y-134253726D01*
X136076252Y-134336884D01*
X136095072Y-134373820D01*
X136190380Y-134469128D01*
X136233547Y-134491122D01*
X136243213Y-134496048D01*
X136279995Y-134539116D01*
X136275551Y-134595578D01*
X136261947Y-134614303D01*
X136260174Y-134616075D01*
X136260173Y-134616077D01*
X136198980Y-134736176D01*
X136184772Y-134825883D01*
X136155179Y-134874174D01*
X136100107Y-134887396D01*
X136078089Y-134880242D01*
X136065440Y-134873797D01*
X136065442Y-134873797D01*
X135932316Y-134852713D01*
X135799189Y-134873797D01*
X135799189Y-134873798D01*
X135679096Y-134934988D01*
X135583787Y-135030297D01*
X135522597Y-135150390D01*
X135522596Y-135150390D01*
X135501512Y-135283517D01*
X135522596Y-135416643D01*
X135583359Y-135535896D01*
X135583788Y-135536737D01*
X135679096Y-135632045D01*
X135799189Y-135693235D01*
X135799189Y-135693236D01*
X135820274Y-135696575D01*
X135932316Y-135714321D01*
X135948941Y-135711687D01*
X136004012Y-135724905D01*
X136012846Y-135732449D01*
X136017826Y-135737429D01*
X136039500Y-135789755D01*
X136039500Y-136301000D01*
X136017826Y-136353326D01*
X135965500Y-136375000D01*
X135900000Y-136375000D01*
X135900000Y-137576000D01*
X135878326Y-137628326D01*
X135826000Y-137650000D01*
X135774000Y-137650000D01*
X135721674Y-137628326D01*
X135700000Y-137576000D01*
X135700000Y-136375000D01*
X135627970Y-136375000D01*
X135575644Y-136353326D01*
X135559604Y-136329321D01*
X135520841Y-136235739D01*
X135447561Y-136162459D01*
X135351817Y-136122800D01*
X135351816Y-136122800D01*
X134693251Y-136122800D01*
X134640925Y-136101126D01*
X134620162Y-136060376D01*
X134612532Y-136012202D01*
X134601163Y-135940420D01*
X134539972Y-135820326D01*
X134444664Y-135725018D01*
X134444663Y-135725017D01*
X134324570Y-135663827D01*
X134324569Y-135663826D01*
X134201062Y-135644265D01*
X134152771Y-135614672D01*
X134139549Y-135559601D01*
X134143304Y-135535896D01*
X134130634Y-135455904D01*
X134143855Y-135400833D01*
X134151390Y-135392010D01*
X135555629Y-133987774D01*
X135607955Y-133966100D01*
X135950623Y-133966100D01*
X136002949Y-133987774D01*
G37*
%TD.AperFunction*%
%TA.AperFunction,Conductor*%
G36*
X138536826Y-131983957D02*
G01*
X138554347Y-132011842D01*
X138572206Y-132062881D01*
X138572207Y-132062883D01*
X138652846Y-132172146D01*
X138652853Y-132172153D01*
X138762116Y-132252792D01*
X138762118Y-132252793D01*
X138890295Y-132297644D01*
X138890301Y-132297646D01*
X138909910Y-132299485D01*
X138959983Y-132325949D01*
X138977000Y-132373161D01*
X138977000Y-132486982D01*
X138977000Y-132590616D01*
X139016659Y-132686360D01*
X139542826Y-133212527D01*
X139564500Y-133264852D01*
X139564500Y-134061983D01*
X139564500Y-134165617D01*
X139604159Y-134261361D01*
X141017826Y-135675028D01*
X141039500Y-135727353D01*
X141039500Y-136301000D01*
X141017826Y-136353326D01*
X140965500Y-136375000D01*
X140900000Y-136375000D01*
X140900000Y-137576000D01*
X140878326Y-137628326D01*
X140826000Y-137650000D01*
X140774000Y-137650000D01*
X140721674Y-137628326D01*
X140700000Y-137576000D01*
X140700000Y-136375000D01*
X140634500Y-136375000D01*
X140582174Y-136353326D01*
X140560500Y-136301000D01*
X140560500Y-135764583D01*
X140547189Y-135732449D01*
X140520841Y-135668839D01*
X140447561Y-135595559D01*
X138432174Y-133580172D01*
X138410500Y-133527846D01*
X138410500Y-132036283D01*
X138432174Y-131983957D01*
X138484500Y-131962283D01*
X138536826Y-131983957D01*
G37*
%TD.AperFunction*%
%TA.AperFunction,Conductor*%
G36*
X132313426Y-128080087D02*
G01*
X132605326Y-128371987D01*
X132627000Y-128424313D01*
X132627000Y-135663246D01*
X132605326Y-135715572D01*
X132553000Y-135737246D01*
X132500674Y-135715572D01*
X132332174Y-135547072D01*
X132310500Y-135494746D01*
X132310500Y-135215531D01*
X132292959Y-135173184D01*
X132292959Y-135173183D01*
X132270843Y-135119789D01*
X132270841Y-135119786D01*
X131807174Y-134656119D01*
X131785500Y-134603793D01*
X131785500Y-129800937D01*
X131807174Y-129748611D01*
X131825904Y-129735003D01*
X131864959Y-129715103D01*
X131943220Y-129675227D01*
X132038528Y-129579919D01*
X132099719Y-129459825D01*
X132120804Y-129326699D01*
X132099719Y-129193573D01*
X132099719Y-129193572D01*
X132038528Y-129073479D01*
X131943221Y-128978172D01*
X131943220Y-128978171D01*
X131910427Y-128961462D01*
X131873645Y-128918393D01*
X131878090Y-128861931D01*
X131891694Y-128843206D01*
X132147442Y-128587460D01*
X132187100Y-128491715D01*
X132187100Y-128388082D01*
X132187100Y-128132413D01*
X132208774Y-128080087D01*
X132261100Y-128058413D01*
X132313426Y-128080087D01*
G37*
%TD.AperFunction*%
%TA.AperFunction,Conductor*%
G36*
X137847607Y-132289848D02*
G01*
X137885347Y-132332078D01*
X137889500Y-132356520D01*
X137889500Y-133614583D01*
X137889500Y-133718217D01*
X137929159Y-133813961D01*
X138650365Y-134535167D01*
X139362912Y-135247714D01*
X139384586Y-135300040D01*
X139362912Y-135352366D01*
X139354090Y-135359902D01*
X139351382Y-135361869D01*
X139256073Y-135457178D01*
X139209355Y-135548866D01*
X139166288Y-135585648D01*
X139109825Y-135581204D01*
X139091095Y-135567596D01*
X139046005Y-135522506D01*
X138999035Y-135475536D01*
X138997661Y-135474618D01*
X138851544Y-135376985D01*
X138687670Y-135309107D01*
X138687660Y-135309104D01*
X138559022Y-135283517D01*
X138513691Y-135274500D01*
X138336309Y-135274500D01*
X138290978Y-135283517D01*
X138162339Y-135309104D01*
X138162329Y-135309107D01*
X137998455Y-135376985D01*
X137850965Y-135475535D01*
X137848154Y-135477843D01*
X137846882Y-135476293D01*
X137800212Y-135495597D01*
X137747925Y-135473923D01*
X137674835Y-135400833D01*
X137580774Y-135306771D01*
X137559100Y-135254445D01*
X137559100Y-134336884D01*
X137552667Y-134321353D01*
X137519442Y-134241140D01*
X136763060Y-133484759D01*
X136763059Y-133484758D01*
X136696817Y-133457320D01*
X136667316Y-133445100D01*
X135521217Y-133445100D01*
X135417583Y-133445100D01*
X135321841Y-133484756D01*
X135321837Y-133484759D01*
X133716437Y-135090158D01*
X133675687Y-135110921D01*
X133643576Y-135116007D01*
X133588504Y-135102785D01*
X133558911Y-135054494D01*
X133558000Y-135042918D01*
X133558000Y-132368766D01*
X133579674Y-132316440D01*
X133632000Y-132294766D01*
X133648218Y-132297528D01*
X133648403Y-132296685D01*
X133652798Y-132297645D01*
X133652801Y-132297646D01*
X133683234Y-132300500D01*
X133683240Y-132300500D01*
X134261880Y-132300500D01*
X134314206Y-132322174D01*
X134333486Y-132360014D01*
X134333580Y-132359984D01*
X134333772Y-132360577D01*
X134334969Y-132362925D01*
X134335380Y-132365525D01*
X134335381Y-132365526D01*
X134381760Y-132456551D01*
X134396572Y-132485620D01*
X134491880Y-132580928D01*
X134611973Y-132642118D01*
X134611973Y-132642119D01*
X134633058Y-132645458D01*
X134745100Y-132663204D01*
X134761726Y-132660570D01*
X134816799Y-132673791D01*
X134825630Y-132681333D01*
X135040138Y-132895841D01*
X135040141Y-132895843D01*
X135069136Y-132907853D01*
X135135883Y-132935500D01*
X135239517Y-132935500D01*
X136828100Y-132935500D01*
X136880426Y-132957174D01*
X136946780Y-133023528D01*
X137066873Y-133084718D01*
X137066873Y-133084719D01*
X137085075Y-133087601D01*
X137200000Y-133105804D01*
X137333126Y-133084719D01*
X137453220Y-133023528D01*
X137548528Y-132928220D01*
X137609719Y-132808126D01*
X137630804Y-132675000D01*
X137612180Y-132557413D01*
X137609719Y-132541873D01*
X137570075Y-132464069D01*
X137548528Y-132421780D01*
X137548523Y-132421775D01*
X137545776Y-132417993D01*
X137532558Y-132362920D01*
X137562153Y-132314630D01*
X137605646Y-132300500D01*
X137729258Y-132300500D01*
X137729266Y-132300500D01*
X137759699Y-132297646D01*
X137791058Y-132286673D01*
X137847607Y-132289848D01*
G37*
%TD.AperFunction*%
%TA.AperFunction,Conductor*%
G36*
X121433439Y-124314166D02*
G01*
X121440030Y-124321830D01*
X121440353Y-124322153D01*
X121549615Y-124402791D01*
X121549618Y-124402793D01*
X121624941Y-124429149D01*
X121667171Y-124466888D01*
X121674500Y-124498996D01*
X121674500Y-131111446D01*
X121695697Y-131190551D01*
X121695697Y-131190557D01*
X121695699Y-131190557D01*
X121698385Y-131200587D01*
X121744530Y-131280512D01*
X124382873Y-133918855D01*
X124403636Y-133959604D01*
X124415281Y-134033126D01*
X124459850Y-134120599D01*
X124476472Y-134153220D01*
X124571780Y-134248528D01*
X124691873Y-134309718D01*
X124691873Y-134309719D01*
X124712958Y-134313058D01*
X124825000Y-134330804D01*
X124923873Y-134315144D01*
X124978945Y-134328366D01*
X124987775Y-134335907D01*
X125300042Y-134648174D01*
X125321716Y-134700500D01*
X125300042Y-134752826D01*
X125247716Y-134774500D01*
X124801265Y-134774500D01*
X124800751Y-134774498D01*
X121374094Y-134750701D01*
X121321920Y-134728664D01*
X121300608Y-134676657D01*
X121300626Y-134648174D01*
X121307080Y-124366411D01*
X121328787Y-124314100D01*
X121381126Y-124292459D01*
X121433439Y-124314166D01*
G37*
%TD.AperFunction*%
%TA.AperFunction,Conductor*%
G36*
X133586488Y-72435067D02*
G01*
X133598044Y-72439378D01*
X133604132Y-72452710D01*
X133891422Y-72740000D01*
X133870163Y-72740000D01*
X133815032Y-72762836D01*
X133772836Y-72805032D01*
X133750000Y-72860163D01*
X133750000Y-72881421D01*
X133463507Y-72594928D01*
X133451954Y-72590619D01*
X133445866Y-72577288D01*
X133158579Y-72290000D01*
X133179837Y-72290000D01*
X133234968Y-72267164D01*
X133277164Y-72224968D01*
X133300000Y-72169837D01*
X133300000Y-72148579D01*
X133586488Y-72435067D01*
G37*
%TD.AperFunction*%
%TA.AperFunction,Conductor*%
G36*
X135086488Y-72435067D02*
G01*
X135098044Y-72439378D01*
X135104132Y-72452710D01*
X135391422Y-72740000D01*
X135370163Y-72740000D01*
X135315032Y-72762836D01*
X135272836Y-72805032D01*
X135250000Y-72860163D01*
X135250000Y-72881421D01*
X134963507Y-72594928D01*
X134951954Y-72590619D01*
X134945866Y-72577288D01*
X134658579Y-72290000D01*
X134679837Y-72290000D01*
X134734968Y-72267164D01*
X134777164Y-72224968D01*
X134800000Y-72169837D01*
X134800000Y-72148579D01*
X135086488Y-72435067D01*
G37*
%TD.AperFunction*%
%TA.AperFunction,Conductor*%
G36*
X134500000Y-72169837D02*
G01*
X134522836Y-72224968D01*
X134565032Y-72267164D01*
X134620163Y-72290000D01*
X134641421Y-72290000D01*
X134358024Y-72573396D01*
X134355233Y-72582900D01*
X134340449Y-72590970D01*
X134050000Y-72881419D01*
X134050000Y-72860163D01*
X134027164Y-72805032D01*
X133984968Y-72762836D01*
X133929837Y-72740000D01*
X133908576Y-72740000D01*
X134191969Y-72456607D01*
X134194758Y-72447108D01*
X134209545Y-72439032D01*
X134500000Y-72148577D01*
X134500000Y-72169837D01*
G37*
%TD.AperFunction*%
%TA.AperFunction,Conductor*%
G36*
X136000000Y-72169837D02*
G01*
X136022836Y-72224968D01*
X136065032Y-72267164D01*
X136120163Y-72290000D01*
X136141421Y-72290000D01*
X135858024Y-72573396D01*
X135855233Y-72582900D01*
X135840449Y-72590970D01*
X135550000Y-72881419D01*
X135550000Y-72860163D01*
X135527164Y-72805032D01*
X135484968Y-72762836D01*
X135429837Y-72740000D01*
X135408576Y-72740000D01*
X135691969Y-72456607D01*
X135694758Y-72447108D01*
X135709545Y-72439032D01*
X136000000Y-72148577D01*
X136000000Y-72169837D01*
G37*
%TD.AperFunction*%
%TA.AperFunction,Conductor*%
G36*
X134336488Y-71685067D02*
G01*
X134348044Y-71689378D01*
X134354132Y-71702710D01*
X134641422Y-71990000D01*
X134620163Y-71990000D01*
X134565032Y-72012836D01*
X134522836Y-72055032D01*
X134500000Y-72110163D01*
X134500000Y-72131421D01*
X134213507Y-71844928D01*
X134201954Y-71840619D01*
X134195866Y-71827288D01*
X133908579Y-71540000D01*
X133929837Y-71540000D01*
X133984968Y-71517164D01*
X134027164Y-71474968D01*
X134050000Y-71419837D01*
X134050000Y-71398579D01*
X134336488Y-71685067D01*
G37*
%TD.AperFunction*%
%TA.AperFunction,Conductor*%
G36*
X135836488Y-71685067D02*
G01*
X135848044Y-71689378D01*
X135854132Y-71702710D01*
X136141422Y-71990000D01*
X136120163Y-71990000D01*
X136065032Y-72012836D01*
X136022836Y-72055032D01*
X136000000Y-72110163D01*
X136000000Y-72131421D01*
X135713507Y-71844928D01*
X135701954Y-71840619D01*
X135695866Y-71827288D01*
X135408579Y-71540000D01*
X135429837Y-71540000D01*
X135484968Y-71517164D01*
X135527164Y-71474968D01*
X135550000Y-71419837D01*
X135550000Y-71398579D01*
X135836488Y-71685067D01*
G37*
%TD.AperFunction*%
%TA.AperFunction,Conductor*%
G36*
X133750000Y-71419837D02*
G01*
X133772836Y-71474968D01*
X133815032Y-71517164D01*
X133870163Y-71540000D01*
X133891421Y-71540000D01*
X133608024Y-71823396D01*
X133605233Y-71832900D01*
X133590449Y-71840970D01*
X133300000Y-72131419D01*
X133300000Y-72110163D01*
X133277164Y-72055032D01*
X133234968Y-72012836D01*
X133179837Y-71990000D01*
X133158576Y-71990000D01*
X133441969Y-71706607D01*
X133444758Y-71697108D01*
X133459545Y-71689032D01*
X133750000Y-71398577D01*
X133750000Y-71419837D01*
G37*
%TD.AperFunction*%
%TA.AperFunction,Conductor*%
G36*
X135250000Y-71419837D02*
G01*
X135272836Y-71474968D01*
X135315032Y-71517164D01*
X135370163Y-71540000D01*
X135391421Y-71540000D01*
X135108024Y-71823396D01*
X135105233Y-71832900D01*
X135090449Y-71840970D01*
X134800000Y-72131419D01*
X134800000Y-72110163D01*
X134777164Y-72055032D01*
X134734968Y-72012836D01*
X134679837Y-71990000D01*
X134658576Y-71990000D01*
X134941969Y-71706607D01*
X134944758Y-71697108D01*
X134959545Y-71689032D01*
X135250000Y-71398577D01*
X135250000Y-71419837D01*
G37*
%TD.AperFunction*%
%TA.AperFunction,Conductor*%
G36*
X133586488Y-70935067D02*
G01*
X133598044Y-70939378D01*
X133604132Y-70952710D01*
X133891422Y-71240000D01*
X133870163Y-71240000D01*
X133815032Y-71262836D01*
X133772836Y-71305032D01*
X133750000Y-71360163D01*
X133750000Y-71381421D01*
X133463507Y-71094928D01*
X133451954Y-71090619D01*
X133445866Y-71077288D01*
X133158579Y-70790000D01*
X133179837Y-70790000D01*
X133234968Y-70767164D01*
X133277164Y-70724968D01*
X133300000Y-70669837D01*
X133300000Y-70648579D01*
X133586488Y-70935067D01*
G37*
%TD.AperFunction*%
%TA.AperFunction,Conductor*%
G36*
X135086488Y-70935067D02*
G01*
X135098044Y-70939378D01*
X135104132Y-70952710D01*
X135391422Y-71240000D01*
X135370163Y-71240000D01*
X135315032Y-71262836D01*
X135272836Y-71305032D01*
X135250000Y-71360163D01*
X135250000Y-71381421D01*
X134963507Y-71094928D01*
X134951954Y-71090619D01*
X134945866Y-71077288D01*
X134658579Y-70790000D01*
X134679837Y-70790000D01*
X134734968Y-70767164D01*
X134777164Y-70724968D01*
X134800000Y-70669837D01*
X134800000Y-70648579D01*
X135086488Y-70935067D01*
G37*
%TD.AperFunction*%
%TA.AperFunction,Conductor*%
G36*
X134500000Y-70669837D02*
G01*
X134522836Y-70724968D01*
X134565032Y-70767164D01*
X134620163Y-70790000D01*
X134641421Y-70790000D01*
X134358024Y-71073396D01*
X134355233Y-71082900D01*
X134340449Y-71090970D01*
X134050000Y-71381419D01*
X134050000Y-71360163D01*
X134027164Y-71305032D01*
X133984968Y-71262836D01*
X133929837Y-71240000D01*
X133908576Y-71240000D01*
X134191969Y-70956607D01*
X134194758Y-70947108D01*
X134209545Y-70939032D01*
X134500000Y-70648577D01*
X134500000Y-70669837D01*
G37*
%TD.AperFunction*%
%TA.AperFunction,Conductor*%
G36*
X136000000Y-70669837D02*
G01*
X136022836Y-70724968D01*
X136065032Y-70767164D01*
X136120163Y-70790000D01*
X136141421Y-70790000D01*
X135858024Y-71073396D01*
X135855233Y-71082900D01*
X135840449Y-71090970D01*
X135550000Y-71381419D01*
X135550000Y-71360163D01*
X135527164Y-71305032D01*
X135484968Y-71262836D01*
X135429837Y-71240000D01*
X135408576Y-71240000D01*
X135691969Y-70956607D01*
X135694758Y-70947108D01*
X135709545Y-70939032D01*
X136000000Y-70648577D01*
X136000000Y-70669837D01*
G37*
%TD.AperFunction*%
%TA.AperFunction,Conductor*%
G36*
X134336488Y-70185067D02*
G01*
X134348044Y-70189378D01*
X134354132Y-70202710D01*
X134641422Y-70490000D01*
X134620163Y-70490000D01*
X134565032Y-70512836D01*
X134522836Y-70555032D01*
X134500000Y-70610163D01*
X134500000Y-70631421D01*
X134213507Y-70344928D01*
X134201954Y-70340619D01*
X134195866Y-70327288D01*
X133908579Y-70040000D01*
X133929837Y-70040000D01*
X133984968Y-70017164D01*
X134027164Y-69974968D01*
X134050000Y-69919837D01*
X134050000Y-69898579D01*
X134336488Y-70185067D01*
G37*
%TD.AperFunction*%
%TA.AperFunction,Conductor*%
G36*
X135836488Y-70185067D02*
G01*
X135848044Y-70189378D01*
X135854132Y-70202710D01*
X136141422Y-70490000D01*
X136120163Y-70490000D01*
X136065032Y-70512836D01*
X136022836Y-70555032D01*
X136000000Y-70610163D01*
X136000000Y-70631421D01*
X135713507Y-70344928D01*
X135701954Y-70340619D01*
X135695866Y-70327288D01*
X135408579Y-70040000D01*
X135429837Y-70040000D01*
X135484968Y-70017164D01*
X135527164Y-69974968D01*
X135550000Y-69919837D01*
X135550000Y-69898579D01*
X135836488Y-70185067D01*
G37*
%TD.AperFunction*%
%TA.AperFunction,Conductor*%
G36*
X133750000Y-69919837D02*
G01*
X133772836Y-69974968D01*
X133815032Y-70017164D01*
X133870163Y-70040000D01*
X133891421Y-70040000D01*
X133608024Y-70323396D01*
X133605233Y-70332900D01*
X133590449Y-70340970D01*
X133300000Y-70631419D01*
X133300000Y-70610163D01*
X133277164Y-70555032D01*
X133234968Y-70512836D01*
X133179837Y-70490000D01*
X133158576Y-70490000D01*
X133441969Y-70206607D01*
X133444758Y-70197108D01*
X133459545Y-70189032D01*
X133750000Y-69898577D01*
X133750000Y-69919837D01*
G37*
%TD.AperFunction*%
%TA.AperFunction,Conductor*%
G36*
X135250000Y-69919837D02*
G01*
X135272836Y-69974968D01*
X135315032Y-70017164D01*
X135370163Y-70040000D01*
X135391421Y-70040000D01*
X135108024Y-70323396D01*
X135105233Y-70332900D01*
X135090449Y-70340970D01*
X134800000Y-70631419D01*
X134800000Y-70610163D01*
X134777164Y-70555032D01*
X134734968Y-70512836D01*
X134679837Y-70490000D01*
X134658576Y-70490000D01*
X134941969Y-70206607D01*
X134944758Y-70197108D01*
X134959545Y-70189032D01*
X135250000Y-69898577D01*
X135250000Y-69919837D01*
G37*
%TD.AperFunction*%
%TA.AperFunction,Conductor*%
G36*
X150677718Y-64891399D02*
G01*
X150699500Y-64943681D01*
X150699500Y-134676582D01*
X150677826Y-134728908D01*
X150625963Y-134750581D01*
X146838121Y-134774255D01*
X146799201Y-134774499D01*
X146798740Y-134774500D01*
X146224833Y-134774500D01*
X146172507Y-134752826D01*
X146150833Y-134700500D01*
X146172506Y-134648175D01*
X146267970Y-134552712D01*
X146314114Y-134472788D01*
X146317653Y-134459581D01*
X146338000Y-134383644D01*
X146338000Y-132348996D01*
X146359674Y-132296670D01*
X146387557Y-132279149D01*
X146462882Y-132252793D01*
X146572150Y-132172150D01*
X146652793Y-132062882D01*
X146697646Y-131934699D01*
X146700500Y-131904266D01*
X146700500Y-130895734D01*
X146697646Y-130865301D01*
X146686540Y-130833563D01*
X146652793Y-130737118D01*
X146652792Y-130737116D01*
X146572153Y-130627853D01*
X146572146Y-130627846D01*
X146462883Y-130547207D01*
X146462881Y-130547206D01*
X146334704Y-130502355D01*
X146334705Y-130502355D01*
X146334700Y-130502354D01*
X146334699Y-130502354D01*
X146304266Y-130499500D01*
X145670734Y-130499500D01*
X145650445Y-130501402D01*
X145640298Y-130502354D01*
X145635897Y-130503316D01*
X145635305Y-130500605D01*
X145587335Y-130497836D01*
X145567222Y-130483541D01*
X144560174Y-129476492D01*
X144538500Y-129424166D01*
X144538500Y-128148821D01*
X144560174Y-128096495D01*
X144588057Y-128078974D01*
X144662882Y-128052793D01*
X144772150Y-127972150D01*
X144779488Y-127962208D01*
X144827170Y-127897600D01*
X144852793Y-127862882D01*
X144897646Y-127734699D01*
X144900500Y-127704266D01*
X144900500Y-127670132D01*
X144922174Y-127617806D01*
X144974500Y-127596132D01*
X144988032Y-127598275D01*
X144988122Y-127597708D01*
X144993873Y-127598618D01*
X144993874Y-127598619D01*
X145127000Y-127619704D01*
X145213925Y-127605936D01*
X145268996Y-127619157D01*
X145298589Y-127667448D01*
X145299500Y-127679025D01*
X145299500Y-127704266D01*
X145302354Y-127734699D01*
X145302354Y-127734701D01*
X145302355Y-127734704D01*
X145347206Y-127862881D01*
X145347207Y-127862883D01*
X145427846Y-127972146D01*
X145427853Y-127972153D01*
X145537116Y-128052792D01*
X145537118Y-128052793D01*
X145665295Y-128097644D01*
X145665301Y-128097646D01*
X145695734Y-128100500D01*
X145695741Y-128100500D01*
X146329258Y-128100500D01*
X146329266Y-128100500D01*
X146359699Y-128097646D01*
X146487882Y-128052793D01*
X146597150Y-127972150D01*
X146604488Y-127962208D01*
X146652170Y-127897600D01*
X146677793Y-127862882D01*
X146718016Y-127747932D01*
X146722645Y-127734703D01*
X146723203Y-127732149D01*
X146723879Y-127731176D01*
X146724134Y-127730449D01*
X146724336Y-127730519D01*
X146755539Y-127685650D01*
X146811283Y-127675635D01*
X146857782Y-127707971D01*
X146869500Y-127747932D01*
X146869500Y-129243640D01*
X146869500Y-129347274D01*
X146909159Y-129443018D01*
X147475127Y-130008986D01*
X147496801Y-130061311D01*
X147490888Y-130085947D01*
X147492080Y-130086335D01*
X147490281Y-130091870D01*
X147469196Y-130225000D01*
X147490280Y-130358126D01*
X147551271Y-130477826D01*
X147551472Y-130478220D01*
X147646780Y-130573528D01*
X147766873Y-130634718D01*
X147766873Y-130634719D01*
X147785075Y-130637601D01*
X147900000Y-130655804D01*
X148033126Y-130634719D01*
X148153220Y-130573528D01*
X148248528Y-130478220D01*
X148309719Y-130358126D01*
X148330804Y-130225000D01*
X148330803Y-130224999D01*
X148331715Y-130219248D01*
X148334963Y-130219762D01*
X148352478Y-130177478D01*
X148394762Y-130159963D01*
X148394248Y-130156715D01*
X148533126Y-130134719D01*
X148653220Y-130073528D01*
X148748528Y-129978220D01*
X148809719Y-129858126D01*
X148830804Y-129725000D01*
X148809719Y-129591874D01*
X148809719Y-129591873D01*
X148748528Y-129471780D01*
X148653219Y-129376471D01*
X148533126Y-129315281D01*
X148533126Y-129315280D01*
X148400000Y-129294196D01*
X148266873Y-129315281D01*
X148240417Y-129328761D01*
X148183954Y-129333204D01*
X148154496Y-129315152D01*
X147862154Y-129022810D01*
X147840480Y-128970484D01*
X147840480Y-126681045D01*
X147840479Y-126681043D01*
X147831245Y-126658749D01*
X147800823Y-126585303D01*
X147800821Y-126585300D01*
X146684239Y-125468718D01*
X145570621Y-124355100D01*
X146806896Y-124355100D01*
X146827980Y-124488226D01*
X146889171Y-124608319D01*
X146889172Y-124608320D01*
X146984480Y-124703628D01*
X147104573Y-124764818D01*
X147104573Y-124764819D01*
X147161095Y-124773771D01*
X147235384Y-124785537D01*
X147283675Y-124815130D01*
X147296897Y-124870202D01*
X147289743Y-124892221D01*
X147231680Y-125006176D01*
X147210596Y-125139300D01*
X147231680Y-125272426D01*
X147292871Y-125392519D01*
X147292872Y-125392520D01*
X147388180Y-125487828D01*
X147508273Y-125549018D01*
X147508273Y-125549019D01*
X147526475Y-125551901D01*
X147641400Y-125570104D01*
X147774526Y-125549019D01*
X147894620Y-125487828D01*
X147989928Y-125392520D01*
X148051119Y-125272426D01*
X148072204Y-125139300D01*
X148051119Y-125006174D01*
X148051119Y-125006173D01*
X147989928Y-124886080D01*
X147894619Y-124790771D01*
X147774526Y-124729581D01*
X147774525Y-124729580D01*
X147643715Y-124708862D01*
X147595424Y-124679269D01*
X147582202Y-124624197D01*
X147589355Y-124602182D01*
X147647419Y-124488226D01*
X147668504Y-124355100D01*
X147647419Y-124221974D01*
X147647419Y-124221973D01*
X147586228Y-124101880D01*
X147490919Y-124006571D01*
X147370826Y-123945381D01*
X147370826Y-123945380D01*
X147237700Y-123924296D01*
X147104573Y-123945380D01*
X147104573Y-123945381D01*
X146984480Y-124006571D01*
X146889171Y-124101880D01*
X146827981Y-124221973D01*
X146827980Y-124221973D01*
X146806896Y-124355100D01*
X145570621Y-124355100D01*
X144090520Y-122875000D01*
X146675001Y-122875000D01*
X146675001Y-123091705D01*
X146677850Y-123122102D01*
X146677852Y-123122111D01*
X146722652Y-123250143D01*
X146803207Y-123359291D01*
X146803208Y-123359292D01*
X146912356Y-123439847D01*
X146912355Y-123439847D01*
X147040385Y-123484646D01*
X147040393Y-123484648D01*
X147070802Y-123487499D01*
X147475000Y-123487499D01*
X147475000Y-122875000D01*
X146675001Y-122875000D01*
X144090520Y-122875000D01*
X143890520Y-122675000D01*
X146675000Y-122675000D01*
X147475000Y-122675000D01*
X147475000Y-122062500D01*
X147675000Y-122062500D01*
X147675000Y-123487499D01*
X148079194Y-123487499D01*
X148079205Y-123487498D01*
X148109602Y-123484649D01*
X148109611Y-123484647D01*
X148237643Y-123439847D01*
X148346791Y-123359292D01*
X148346792Y-123359291D01*
X148427345Y-123250146D01*
X148450778Y-123183179D01*
X148488518Y-123140948D01*
X148545066Y-123137771D01*
X148587297Y-123175511D01*
X148590473Y-123183179D01*
X148622652Y-123275143D01*
X148703207Y-123384291D01*
X148703208Y-123384292D01*
X148812356Y-123464847D01*
X148812355Y-123464847D01*
X148940385Y-123509646D01*
X148940393Y-123509648D01*
X148970802Y-123512499D01*
X149375000Y-123512499D01*
X149375000Y-122900000D01*
X149575000Y-122900000D01*
X149575000Y-123512499D01*
X149979194Y-123512499D01*
X149979205Y-123512498D01*
X150009602Y-123509649D01*
X150009611Y-123509647D01*
X150137643Y-123464847D01*
X150246791Y-123384292D01*
X150246792Y-123384291D01*
X150327347Y-123275143D01*
X150372146Y-123147114D01*
X150372148Y-123147106D01*
X150374999Y-123116698D01*
X150375000Y-123116697D01*
X150375000Y-122900000D01*
X149575000Y-122900000D01*
X149375000Y-122900000D01*
X149375000Y-122087500D01*
X149575000Y-122087500D01*
X149575000Y-122700000D01*
X150374999Y-122700000D01*
X150374999Y-122483306D01*
X150374998Y-122483294D01*
X150372149Y-122452897D01*
X150372147Y-122452888D01*
X150327347Y-122324856D01*
X150246792Y-122215708D01*
X150246791Y-122215707D01*
X150137643Y-122135152D01*
X150137644Y-122135152D01*
X150009614Y-122090353D01*
X150009606Y-122090351D01*
X149979198Y-122087500D01*
X149575000Y-122087500D01*
X149375000Y-122087500D01*
X148970806Y-122087500D01*
X148970793Y-122087501D01*
X148940397Y-122090350D01*
X148940388Y-122090352D01*
X148812356Y-122135152D01*
X148703208Y-122215707D01*
X148703207Y-122215708D01*
X148622652Y-122324855D01*
X148599220Y-122391821D01*
X148561480Y-122434052D01*
X148504932Y-122437227D01*
X148462701Y-122399487D01*
X148459525Y-122391820D01*
X148427345Y-122299853D01*
X148346792Y-122190708D01*
X148346791Y-122190707D01*
X148237643Y-122110152D01*
X148237644Y-122110152D01*
X148109614Y-122065353D01*
X148109606Y-122065351D01*
X148079198Y-122062500D01*
X147675000Y-122062500D01*
X147475000Y-122062500D01*
X147070806Y-122062500D01*
X147070793Y-122062501D01*
X147040397Y-122065350D01*
X147040388Y-122065352D01*
X146912356Y-122110152D01*
X146803208Y-122190707D01*
X146803207Y-122190708D01*
X146722652Y-122299856D01*
X146677853Y-122427885D01*
X146677851Y-122427893D01*
X146675000Y-122458301D01*
X146675000Y-122675000D01*
X143890520Y-122675000D01*
X143319678Y-122104158D01*
X143223934Y-122064499D01*
X143223933Y-122064499D01*
X134228856Y-122064499D01*
X134176530Y-122042825D01*
X134162922Y-122024094D01*
X134123529Y-121946781D01*
X134028222Y-121851474D01*
X134028220Y-121851472D01*
X133999489Y-121836832D01*
X133962708Y-121793767D01*
X133967151Y-121737305D01*
X134010219Y-121700522D01*
X134033086Y-121696900D01*
X136512246Y-121696900D01*
X136512246Y-121696899D01*
X136601388Y-121673014D01*
X136681312Y-121626870D01*
X137066853Y-121241327D01*
X137119178Y-121219654D01*
X137135725Y-121222469D01*
X137135897Y-121221684D01*
X137140298Y-121222645D01*
X137140301Y-121222646D01*
X137170734Y-121225500D01*
X137170741Y-121225500D01*
X137804258Y-121225500D01*
X137804266Y-121225500D01*
X137834699Y-121222646D01*
X137962882Y-121177793D01*
X138072150Y-121097150D01*
X138152793Y-120987882D01*
X138197646Y-120859699D01*
X138200500Y-120829266D01*
X138200500Y-120744522D01*
X138222174Y-120692196D01*
X138274500Y-120670522D01*
X138308090Y-120678586D01*
X138422574Y-120736919D01*
X138422573Y-120736919D01*
X138440775Y-120739801D01*
X138555700Y-120758004D01*
X138688826Y-120736919D01*
X138808920Y-120675728D01*
X138904228Y-120580420D01*
X138965419Y-120460326D01*
X138986504Y-120327200D01*
X138965419Y-120194074D01*
X138965419Y-120194073D01*
X138904228Y-120073980D01*
X138808919Y-119978671D01*
X138688826Y-119917481D01*
X138688826Y-119917480D01*
X138555700Y-119896396D01*
X138422573Y-119917480D01*
X138422573Y-119917481D01*
X138308095Y-119975811D01*
X138251633Y-119980255D01*
X138208566Y-119943472D01*
X138200500Y-119909877D01*
X138200500Y-119820740D01*
X138200500Y-119820734D01*
X138197646Y-119790301D01*
X138152793Y-119662118D01*
X138152792Y-119662116D01*
X138072153Y-119552853D01*
X138072146Y-119552846D01*
X137962883Y-119472207D01*
X137946325Y-119466413D01*
X137904095Y-119428672D01*
X137900920Y-119372124D01*
X137918439Y-119344242D01*
X139094263Y-118168418D01*
X139146588Y-118146745D01*
X139198914Y-118168419D01*
X139220588Y-118220745D01*
X139219677Y-118232321D01*
X139204096Y-118330699D01*
X139225180Y-118463826D01*
X139286371Y-118583919D01*
X139286372Y-118583920D01*
X139381680Y-118679228D01*
X139501773Y-118740418D01*
X139501773Y-118740419D01*
X139519975Y-118743301D01*
X139634900Y-118761504D01*
X139768026Y-118740419D01*
X139888120Y-118679228D01*
X139983428Y-118583920D01*
X140044619Y-118463826D01*
X140065704Y-118330700D01*
X140044619Y-118197574D01*
X140044619Y-118197573D01*
X139983428Y-118077480D01*
X139888119Y-117982171D01*
X139768027Y-117920981D01*
X139764628Y-117919877D01*
X139721563Y-117883092D01*
X139717122Y-117826629D01*
X139753907Y-117783564D01*
X139787499Y-117775500D01*
X140104258Y-117775500D01*
X140104266Y-117775500D01*
X140134699Y-117772646D01*
X140262882Y-117727793D01*
X140303770Y-117697615D01*
X140358742Y-117683982D01*
X140407253Y-117713213D01*
X140420887Y-117768185D01*
X140420802Y-117768732D01*
X140408596Y-117845799D01*
X140429680Y-117978926D01*
X140486127Y-118089708D01*
X140490872Y-118099020D01*
X140586180Y-118194328D01*
X140706273Y-118255518D01*
X140706273Y-118255519D01*
X140724475Y-118258401D01*
X140839400Y-118276604D01*
X140972526Y-118255519D01*
X141092620Y-118194328D01*
X141187928Y-118099020D01*
X141249119Y-117978926D01*
X141270204Y-117845800D01*
X141251513Y-117727792D01*
X141249119Y-117712673D01*
X141187928Y-117592580D01*
X141092619Y-117497271D01*
X140972526Y-117436081D01*
X140972526Y-117436080D01*
X140839400Y-117414996D01*
X140706276Y-117436080D01*
X140706274Y-117436080D01*
X140706274Y-117436081D01*
X140604271Y-117488054D01*
X140547809Y-117492497D01*
X140504742Y-117455714D01*
X140499428Y-117414387D01*
X140497225Y-117414181D01*
X140497645Y-117409701D01*
X140497646Y-117409699D01*
X140500500Y-117379266D01*
X140500500Y-117179956D01*
X140522174Y-117127630D01*
X140574500Y-117105956D01*
X140586071Y-117106866D01*
X140674700Y-117120904D01*
X140807826Y-117099819D01*
X140927920Y-117038628D01*
X141023228Y-116943320D01*
X141084419Y-116823226D01*
X141105504Y-116690100D01*
X141084419Y-116556974D01*
X141052736Y-116494794D01*
X141048293Y-116438333D01*
X141085075Y-116395266D01*
X141118671Y-116387200D01*
X142556666Y-116387200D01*
X142608992Y-116408874D01*
X145866687Y-119666569D01*
X145888361Y-119718895D01*
X145866687Y-119771221D01*
X145856996Y-119778270D01*
X145857490Y-119778950D01*
X145852780Y-119782371D01*
X145757471Y-119877680D01*
X145696281Y-119997773D01*
X145690402Y-120034890D01*
X145660808Y-120083181D01*
X145605736Y-120096402D01*
X145564987Y-120075639D01*
X145509919Y-120020571D01*
X145389826Y-119959381D01*
X145389826Y-119959380D01*
X145256700Y-119938296D01*
X145123573Y-119959380D01*
X145123573Y-119959381D01*
X145003480Y-120020571D01*
X144908171Y-120115880D01*
X144846981Y-120235973D01*
X144846980Y-120235973D01*
X144825896Y-120369100D01*
X144846980Y-120502226D01*
X144908171Y-120622319D01*
X144908172Y-120622320D01*
X145003480Y-120717628D01*
X145123573Y-120778818D01*
X145123573Y-120778819D01*
X145141775Y-120781701D01*
X145256700Y-120799904D01*
X145389826Y-120778819D01*
X145509920Y-120717628D01*
X145605228Y-120622320D01*
X145666419Y-120502226D01*
X145672297Y-120465110D01*
X145701889Y-120416819D01*
X145756961Y-120403597D01*
X145797712Y-120424360D01*
X145852780Y-120479428D01*
X145972873Y-120540618D01*
X145972873Y-120540619D01*
X145983601Y-120542318D01*
X146106000Y-120561704D01*
X146239126Y-120540619D01*
X146359220Y-120479428D01*
X146454528Y-120384120D01*
X146454529Y-120384117D01*
X146457952Y-120379408D01*
X146460850Y-120381513D01*
X146494910Y-120352234D01*
X146551386Y-120356495D01*
X146570330Y-120370212D01*
X146677022Y-120476904D01*
X146698696Y-120529230D01*
X146694544Y-120553669D01*
X146677355Y-120602795D01*
X146677354Y-120602798D01*
X146676950Y-120607104D01*
X146674500Y-120633234D01*
X146674500Y-121266766D01*
X146677354Y-121297199D01*
X146677354Y-121297201D01*
X146677355Y-121297204D01*
X146722206Y-121425381D01*
X146722207Y-121425383D01*
X146802846Y-121534646D01*
X146802853Y-121534653D01*
X146912116Y-121615292D01*
X146912118Y-121615293D01*
X147040295Y-121660144D01*
X147040301Y-121660146D01*
X147070734Y-121663000D01*
X147070741Y-121663000D01*
X148079258Y-121663000D01*
X148079266Y-121663000D01*
X148109699Y-121660146D01*
X148237882Y-121615293D01*
X148347150Y-121534650D01*
X148427793Y-121425382D01*
X148450778Y-121359691D01*
X148488516Y-121317462D01*
X148545064Y-121314285D01*
X148587296Y-121352024D01*
X148590472Y-121359692D01*
X148622206Y-121450381D01*
X148622207Y-121450383D01*
X148702846Y-121559646D01*
X148702853Y-121559653D01*
X148812116Y-121640292D01*
X148812118Y-121640293D01*
X148940295Y-121685144D01*
X148940301Y-121685146D01*
X148970734Y-121688000D01*
X148970741Y-121688000D01*
X149979258Y-121688000D01*
X149979266Y-121688000D01*
X150009699Y-121685146D01*
X150137882Y-121640293D01*
X150247150Y-121559650D01*
X150327793Y-121450382D01*
X150372646Y-121322199D01*
X150375500Y-121291766D01*
X150375500Y-120658234D01*
X150372646Y-120627801D01*
X150365403Y-120607103D01*
X150327793Y-120499618D01*
X150327792Y-120499616D01*
X150247153Y-120390353D01*
X150247146Y-120390346D01*
X150137883Y-120309707D01*
X150137881Y-120309706D01*
X150009704Y-120264855D01*
X150009705Y-120264855D01*
X150009700Y-120264854D01*
X150009699Y-120264854D01*
X149979266Y-120262000D01*
X149979260Y-120262000D01*
X149917565Y-120262000D01*
X149865239Y-120240326D01*
X149843565Y-120188000D01*
X149851631Y-120154405D01*
X149878096Y-120102464D01*
X149897019Y-120065326D01*
X149918104Y-119932200D01*
X149897019Y-119799074D01*
X149897019Y-119799073D01*
X149835828Y-119678980D01*
X149740519Y-119583671D01*
X149620426Y-119522481D01*
X149620426Y-119522480D01*
X149487300Y-119501396D01*
X149354173Y-119522480D01*
X149354173Y-119522481D01*
X149234080Y-119583671D01*
X149138771Y-119678980D01*
X149077581Y-119799073D01*
X149077580Y-119799073D01*
X149056496Y-119932200D01*
X149077580Y-120065326D01*
X149122969Y-120154405D01*
X149127413Y-120210867D01*
X149090630Y-120253934D01*
X149057035Y-120262000D01*
X148970734Y-120262000D01*
X148940301Y-120264854D01*
X148940299Y-120264854D01*
X148940295Y-120264855D01*
X148812118Y-120309706D01*
X148812116Y-120309707D01*
X148702853Y-120390346D01*
X148702846Y-120390353D01*
X148622207Y-120499616D01*
X148622205Y-120499619D01*
X148604598Y-120549940D01*
X148566859Y-120592172D01*
X148534751Y-120599500D01*
X148523997Y-120599500D01*
X148471671Y-120577826D01*
X148454150Y-120549941D01*
X148427793Y-120474618D01*
X148427792Y-120474616D01*
X148347153Y-120365353D01*
X148347146Y-120365346D01*
X148237883Y-120284707D01*
X148237881Y-120284706D01*
X148109704Y-120239855D01*
X148109705Y-120239855D01*
X148109700Y-120239854D01*
X148109699Y-120239854D01*
X148079266Y-120237000D01*
X148079260Y-120237000D01*
X147526530Y-120237000D01*
X147474204Y-120215326D01*
X147452530Y-120163000D01*
X147474204Y-120110674D01*
X147497050Y-120096673D01*
X147496637Y-120095863D01*
X147521527Y-120083181D01*
X147621920Y-120032028D01*
X147717228Y-119936720D01*
X147778419Y-119816626D01*
X147799504Y-119683500D01*
X147778419Y-119550374D01*
X147778419Y-119550373D01*
X147717228Y-119430280D01*
X147621919Y-119334971D01*
X147501826Y-119273781D01*
X147501826Y-119273780D01*
X147368700Y-119252696D01*
X147235573Y-119273780D01*
X147235573Y-119273781D01*
X147115480Y-119334971D01*
X147020171Y-119430280D01*
X146958981Y-119550373D01*
X146952013Y-119594367D01*
X146922420Y-119642658D01*
X146867347Y-119655879D01*
X146826598Y-119635116D01*
X142947712Y-115756230D01*
X142867789Y-115710086D01*
X142867784Y-115710084D01*
X142778646Y-115686200D01*
X142778644Y-115686200D01*
X141050300Y-115686200D01*
X140997974Y-115664526D01*
X140976300Y-115612200D01*
X140976300Y-112049500D01*
X140997974Y-111997174D01*
X141050300Y-111975500D01*
X145250500Y-111975500D01*
X145302826Y-111997174D01*
X145324500Y-112049500D01*
X145324500Y-112129266D01*
X145327354Y-112159699D01*
X145327354Y-112159701D01*
X145327355Y-112159704D01*
X145372206Y-112287881D01*
X145372207Y-112287883D01*
X145452846Y-112397146D01*
X145452853Y-112397153D01*
X145562116Y-112477792D01*
X145562118Y-112477793D01*
X145690295Y-112522644D01*
X145690301Y-112522646D01*
X145720734Y-112525500D01*
X145720741Y-112525500D01*
X146354258Y-112525500D01*
X146354266Y-112525500D01*
X146384699Y-112522646D01*
X146512882Y-112477793D01*
X146622150Y-112397150D01*
X146702793Y-112287882D01*
X146747646Y-112159699D01*
X146750500Y-112129266D01*
X146750500Y-111725000D01*
X147150001Y-111725000D01*
X147150001Y-112129205D01*
X147152850Y-112159602D01*
X147152852Y-112159611D01*
X147197652Y-112287643D01*
X147278207Y-112396791D01*
X147278208Y-112396792D01*
X147387356Y-112477347D01*
X147387355Y-112477347D01*
X147515385Y-112522146D01*
X147515393Y-112522148D01*
X147545802Y-112524999D01*
X147762500Y-112524999D01*
X147762500Y-111725000D01*
X147962500Y-111725000D01*
X147962500Y-112524999D01*
X148179194Y-112524999D01*
X148179205Y-112524998D01*
X148209602Y-112522149D01*
X148209611Y-112522147D01*
X148337643Y-112477347D01*
X148446791Y-112396792D01*
X148446792Y-112396791D01*
X148527347Y-112287643D01*
X148572146Y-112159614D01*
X148572148Y-112159606D01*
X148574999Y-112129198D01*
X148575000Y-112129197D01*
X148575000Y-111725000D01*
X147962500Y-111725000D01*
X147762500Y-111725000D01*
X147150001Y-111725000D01*
X146750500Y-111725000D01*
X146750500Y-111525000D01*
X147150000Y-111525000D01*
X147762500Y-111525000D01*
X147762500Y-110725000D01*
X147962500Y-110725000D01*
X147962500Y-111525000D01*
X148574999Y-111525000D01*
X148574999Y-111120806D01*
X148574998Y-111120794D01*
X148572149Y-111090397D01*
X148572147Y-111090388D01*
X148527347Y-110962356D01*
X148446792Y-110853208D01*
X148446791Y-110853207D01*
X148337643Y-110772652D01*
X148337644Y-110772652D01*
X148209614Y-110727853D01*
X148209606Y-110727851D01*
X148179198Y-110725000D01*
X147962500Y-110725000D01*
X147762500Y-110725000D01*
X147545806Y-110725000D01*
X147545793Y-110725001D01*
X147515397Y-110727850D01*
X147515388Y-110727852D01*
X147387356Y-110772652D01*
X147278208Y-110853207D01*
X147278207Y-110853208D01*
X147197652Y-110962356D01*
X147152853Y-111090385D01*
X147152851Y-111090393D01*
X147150000Y-111120801D01*
X147150000Y-111525000D01*
X146750500Y-111525000D01*
X146750500Y-111120734D01*
X146747646Y-111090301D01*
X146702793Y-110962118D01*
X146702792Y-110962116D01*
X146622153Y-110852853D01*
X146622146Y-110852846D01*
X146512883Y-110772207D01*
X146512881Y-110772206D01*
X146384704Y-110727355D01*
X146384705Y-110727355D01*
X146384700Y-110727354D01*
X146384699Y-110727354D01*
X146354266Y-110724500D01*
X145720734Y-110724500D01*
X145690301Y-110727354D01*
X145690299Y-110727354D01*
X145690295Y-110727355D01*
X145562118Y-110772206D01*
X145562116Y-110772207D01*
X145452853Y-110852846D01*
X145452846Y-110852853D01*
X145372207Y-110962116D01*
X145372206Y-110962118D01*
X145327355Y-111090295D01*
X145327354Y-111090299D01*
X145327354Y-111090301D01*
X145324500Y-111120734D01*
X145324500Y-111120740D01*
X145324500Y-111200500D01*
X145302826Y-111252826D01*
X145250500Y-111274500D01*
X140972365Y-111274500D01*
X140920039Y-111252826D01*
X140906431Y-111234095D01*
X140858528Y-111140080D01*
X140763220Y-111044772D01*
X140763219Y-111044771D01*
X140643126Y-110983581D01*
X140643126Y-110983580D01*
X140510000Y-110962496D01*
X140376873Y-110983581D01*
X140276478Y-111034735D01*
X140242883Y-111042800D01*
X139999500Y-111042800D01*
X139947174Y-111021126D01*
X139925500Y-110968800D01*
X139925500Y-110670740D01*
X139925500Y-110670734D01*
X139922646Y-110640301D01*
X139877793Y-110512118D01*
X139877792Y-110512116D01*
X139797153Y-110402853D01*
X139797146Y-110402846D01*
X139687883Y-110322207D01*
X139687881Y-110322206D01*
X139612559Y-110295850D01*
X139570328Y-110258110D01*
X139563000Y-110226003D01*
X139563000Y-110173996D01*
X139584674Y-110121670D01*
X139612557Y-110104149D01*
X139687882Y-110077793D01*
X139797150Y-109997150D01*
X139877793Y-109887882D01*
X139922646Y-109759699D01*
X139925500Y-109729266D01*
X139925500Y-108720734D01*
X139922646Y-108690301D01*
X139877793Y-108562118D01*
X139877792Y-108562116D01*
X139797153Y-108452853D01*
X139797146Y-108452846D01*
X139687883Y-108372207D01*
X139687881Y-108372206D01*
X139612559Y-108345850D01*
X139570328Y-108308110D01*
X139563000Y-108276003D01*
X139563000Y-108248996D01*
X139584674Y-108196670D01*
X139612557Y-108179149D01*
X139687882Y-108152793D01*
X139797150Y-108072150D01*
X139877793Y-107962882D01*
X139922646Y-107834699D01*
X139925500Y-107804266D01*
X139925500Y-106795734D01*
X139922646Y-106765301D01*
X139877793Y-106637118D01*
X139797150Y-106527850D01*
X139797145Y-106527846D01*
X139794253Y-106525711D01*
X139765026Y-106477198D01*
X139764200Y-106466174D01*
X139764200Y-104849633D01*
X139785873Y-104797308D01*
X143195681Y-101387500D01*
X143725001Y-101387500D01*
X143725001Y-101604205D01*
X143727850Y-101634602D01*
X143727852Y-101634611D01*
X143772652Y-101762643D01*
X143853207Y-101871791D01*
X143853208Y-101871792D01*
X143962356Y-101952347D01*
X143962355Y-101952347D01*
X144090385Y-101997146D01*
X144090393Y-101997148D01*
X144120802Y-101999999D01*
X144525000Y-101999999D01*
X144525000Y-101387500D01*
X143725001Y-101387500D01*
X143195681Y-101387500D01*
X143598675Y-100984506D01*
X143651000Y-100962833D01*
X143703326Y-100984507D01*
X143725000Y-101036833D01*
X143725000Y-101187500D01*
X144525000Y-101187500D01*
X144525000Y-100575000D01*
X144186832Y-100575000D01*
X144134506Y-100553326D01*
X144112832Y-100501000D01*
X144134504Y-100448677D01*
X144386008Y-100197174D01*
X144438334Y-100175500D01*
X145129258Y-100175500D01*
X145129266Y-100175500D01*
X145159699Y-100172646D01*
X145287882Y-100127793D01*
X145397150Y-100047150D01*
X145477793Y-99937882D01*
X145496946Y-99883146D01*
X145504150Y-99862559D01*
X145541890Y-99820328D01*
X145573997Y-99813000D01*
X145576003Y-99813000D01*
X145628329Y-99834674D01*
X145645850Y-99862559D01*
X145672206Y-99937881D01*
X145672207Y-99937883D01*
X145752846Y-100047146D01*
X145752853Y-100047153D01*
X145851611Y-100120039D01*
X145880842Y-100168550D01*
X145873604Y-100213174D01*
X145858981Y-100241873D01*
X145837896Y-100375000D01*
X145858981Y-100508126D01*
X145873834Y-100537277D01*
X145878277Y-100593739D01*
X145851842Y-100630412D01*
X145753208Y-100703207D01*
X145753207Y-100703208D01*
X145672653Y-100812355D01*
X145644847Y-100891821D01*
X145607108Y-100934052D01*
X145550559Y-100937227D01*
X145508328Y-100899488D01*
X145505153Y-100891821D01*
X145477346Y-100812355D01*
X145396792Y-100703208D01*
X145396791Y-100703207D01*
X145287643Y-100622652D01*
X145287644Y-100622652D01*
X145159614Y-100577853D01*
X145159606Y-100577851D01*
X145129198Y-100575000D01*
X144725000Y-100575000D01*
X144725000Y-101999999D01*
X145129194Y-101999999D01*
X145129205Y-101999998D01*
X145159602Y-101997149D01*
X145159611Y-101997147D01*
X145287643Y-101952347D01*
X145396791Y-101871792D01*
X145396792Y-101871791D01*
X145477347Y-101762643D01*
X145505153Y-101683179D01*
X145542892Y-101640947D01*
X145599440Y-101637772D01*
X145641672Y-101675511D01*
X145644847Y-101683179D01*
X145672652Y-101762643D01*
X145753207Y-101871791D01*
X145753208Y-101871792D01*
X145862356Y-101952347D01*
X145862355Y-101952347D01*
X145990385Y-101997146D01*
X145990393Y-101997148D01*
X146020802Y-101999999D01*
X146425000Y-101999999D01*
X146425000Y-101387500D01*
X146625000Y-101387500D01*
X146625000Y-101999999D01*
X147029194Y-101999999D01*
X147029205Y-101999998D01*
X147059602Y-101997149D01*
X147059611Y-101997147D01*
X147187643Y-101952347D01*
X147296791Y-101871792D01*
X147296792Y-101871791D01*
X147377347Y-101762643D01*
X147422146Y-101634614D01*
X147422148Y-101634606D01*
X147424999Y-101604198D01*
X147425000Y-101604197D01*
X147425000Y-101387500D01*
X146625000Y-101387500D01*
X146425000Y-101387500D01*
X146425000Y-101261500D01*
X146446674Y-101209174D01*
X146499000Y-101187500D01*
X147424999Y-101187500D01*
X147424999Y-100970806D01*
X147424998Y-100970794D01*
X147422149Y-100940397D01*
X147422147Y-100940388D01*
X147377347Y-100812356D01*
X147296792Y-100703208D01*
X147296791Y-100703207D01*
X147187643Y-100622652D01*
X147187644Y-100622652D01*
X147059614Y-100577853D01*
X147059606Y-100577851D01*
X147029198Y-100575000D01*
X146754470Y-100575000D01*
X146702144Y-100553326D01*
X146680470Y-100501000D01*
X146681381Y-100489424D01*
X146687835Y-100448674D01*
X146699504Y-100375000D01*
X146681460Y-100261075D01*
X146694682Y-100206004D01*
X146742973Y-100176411D01*
X146754549Y-100175500D01*
X147029258Y-100175500D01*
X147029266Y-100175500D01*
X147059699Y-100172646D01*
X147187882Y-100127793D01*
X147297150Y-100047150D01*
X147377793Y-99937882D01*
X147422646Y-99809699D01*
X147425500Y-99779266D01*
X147425500Y-99145734D01*
X147422646Y-99115301D01*
X147377793Y-98987118D01*
X147377792Y-98987116D01*
X147297153Y-98877853D01*
X147297146Y-98877846D01*
X147187883Y-98797207D01*
X147187881Y-98797206D01*
X147059704Y-98752355D01*
X147059705Y-98752355D01*
X147059700Y-98752354D01*
X147059699Y-98752354D01*
X147029266Y-98749500D01*
X147029260Y-98749500D01*
X146949500Y-98749500D01*
X146897174Y-98727826D01*
X146875500Y-98675500D01*
X146875500Y-96452754D01*
X146897174Y-96400428D01*
X146949500Y-96378754D01*
X147001826Y-96400428D01*
X147015430Y-96419152D01*
X147045272Y-96477720D01*
X147140580Y-96573028D01*
X147260673Y-96634218D01*
X147260673Y-96634219D01*
X147278875Y-96637101D01*
X147393800Y-96655304D01*
X147526926Y-96634219D01*
X147647020Y-96573028D01*
X147742328Y-96477720D01*
X147803519Y-96357626D01*
X147824604Y-96224500D01*
X147803519Y-96091374D01*
X147803519Y-96091373D01*
X147742328Y-95971280D01*
X147647019Y-95875971D01*
X147526926Y-95814781D01*
X147526926Y-95814780D01*
X147393800Y-95793696D01*
X147260673Y-95814780D01*
X147260673Y-95814781D01*
X147140580Y-95875971D01*
X147045273Y-95971278D01*
X147045272Y-95971280D01*
X147020901Y-96019112D01*
X147015434Y-96029841D01*
X146972367Y-96066623D01*
X146915904Y-96062179D01*
X146879122Y-96019112D01*
X146875500Y-95996245D01*
X146875500Y-94850000D01*
X147464096Y-94850000D01*
X147485180Y-94983126D01*
X147524698Y-95060683D01*
X147546372Y-95103220D01*
X147641680Y-95198528D01*
X147761773Y-95259718D01*
X147761773Y-95259719D01*
X147779975Y-95262601D01*
X147894900Y-95280804D01*
X148028026Y-95259719D01*
X148148120Y-95198528D01*
X148243428Y-95103220D01*
X148304619Y-94983126D01*
X148325704Y-94850000D01*
X148304619Y-94716874D01*
X148304619Y-94716873D01*
X148243428Y-94596780D01*
X148148119Y-94501471D01*
X148028026Y-94440281D01*
X148028026Y-94440280D01*
X147894900Y-94419196D01*
X147761773Y-94440280D01*
X147761773Y-94440281D01*
X147641680Y-94501471D01*
X147546371Y-94596780D01*
X147485181Y-94716873D01*
X147485180Y-94716873D01*
X147464096Y-94850000D01*
X146875500Y-94850000D01*
X146875500Y-94429754D01*
X146883566Y-94396159D01*
X146887783Y-94387883D01*
X146947019Y-94271626D01*
X146968104Y-94138500D01*
X146947019Y-94005374D01*
X146895865Y-93904978D01*
X146887800Y-93871383D01*
X146887800Y-90299500D01*
X146909474Y-90247174D01*
X146961800Y-90225500D01*
X147554258Y-90225500D01*
X147554266Y-90225500D01*
X147584699Y-90222646D01*
X147712882Y-90177793D01*
X147822150Y-90097150D01*
X147902793Y-89987882D01*
X147947646Y-89859699D01*
X147950500Y-89829266D01*
X147950500Y-89400000D01*
X148450001Y-89400000D01*
X148450001Y-89829205D01*
X148452850Y-89859602D01*
X148452852Y-89859611D01*
X148497652Y-89987643D01*
X148578207Y-90096791D01*
X148578208Y-90096792D01*
X148687356Y-90177347D01*
X148687355Y-90177347D01*
X148815385Y-90222146D01*
X148815393Y-90222148D01*
X148845802Y-90224999D01*
X149050000Y-90224999D01*
X149050000Y-89400000D01*
X149250000Y-89400000D01*
X149250000Y-90224999D01*
X149454194Y-90224999D01*
X149454205Y-90224998D01*
X149484602Y-90222149D01*
X149484611Y-90222147D01*
X149612643Y-90177347D01*
X149721791Y-90096792D01*
X149721792Y-90096791D01*
X149802347Y-89987643D01*
X149847146Y-89859614D01*
X149847148Y-89859606D01*
X149849999Y-89829198D01*
X149850000Y-89829197D01*
X149850000Y-89400000D01*
X149250000Y-89400000D01*
X149050000Y-89400000D01*
X148450001Y-89400000D01*
X147950500Y-89400000D01*
X147950500Y-89200000D01*
X148450000Y-89200000D01*
X149050000Y-89200000D01*
X149050000Y-88375000D01*
X149250000Y-88375000D01*
X149250000Y-89200000D01*
X149849999Y-89200000D01*
X149849999Y-88770806D01*
X149849998Y-88770794D01*
X149847149Y-88740397D01*
X149847147Y-88740388D01*
X149802347Y-88612356D01*
X149721792Y-88503208D01*
X149721791Y-88503207D01*
X149612643Y-88422652D01*
X149612644Y-88422652D01*
X149484614Y-88377853D01*
X149484606Y-88377851D01*
X149454198Y-88375000D01*
X149250000Y-88375000D01*
X149050000Y-88375000D01*
X148845806Y-88375000D01*
X148845793Y-88375001D01*
X148815397Y-88377850D01*
X148815388Y-88377852D01*
X148687356Y-88422652D01*
X148578208Y-88503207D01*
X148578207Y-88503208D01*
X148497652Y-88612356D01*
X148452853Y-88740385D01*
X148452851Y-88740393D01*
X148450000Y-88770801D01*
X148450000Y-89200000D01*
X147950500Y-89200000D01*
X147950500Y-88770734D01*
X147947646Y-88740301D01*
X147902793Y-88612118D01*
X147902792Y-88612116D01*
X147822153Y-88502853D01*
X147822146Y-88502846D01*
X147712883Y-88422207D01*
X147712881Y-88422206D01*
X147584704Y-88377355D01*
X147584705Y-88377355D01*
X147584700Y-88377354D01*
X147584699Y-88377354D01*
X147554266Y-88374500D01*
X147554260Y-88374500D01*
X147171834Y-88374500D01*
X147119508Y-88352826D01*
X144483182Y-85716500D01*
X145926596Y-85716500D01*
X145947680Y-85849626D01*
X145995310Y-85943104D01*
X146008872Y-85969720D01*
X146104180Y-86065028D01*
X146224273Y-86126218D01*
X146224273Y-86126219D01*
X146242475Y-86129101D01*
X146357400Y-86147304D01*
X146490526Y-86126219D01*
X146610620Y-86065028D01*
X146705928Y-85969720D01*
X146767119Y-85849626D01*
X146788204Y-85716500D01*
X146768036Y-85589163D01*
X146767119Y-85583373D01*
X146705928Y-85463280D01*
X146610619Y-85367971D01*
X146490526Y-85306781D01*
X146490526Y-85306780D01*
X146357400Y-85285696D01*
X146224273Y-85306780D01*
X146224273Y-85306781D01*
X146104180Y-85367971D01*
X146008871Y-85463280D01*
X145947681Y-85583373D01*
X145947680Y-85583373D01*
X145926596Y-85716500D01*
X144483182Y-85716500D01*
X137526882Y-78760200D01*
X140193096Y-78760200D01*
X140214180Y-78893326D01*
X140275371Y-79013419D01*
X140275372Y-79013420D01*
X140370680Y-79108728D01*
X140490773Y-79169918D01*
X140490773Y-79169919D01*
X140508975Y-79172801D01*
X140623900Y-79191004D01*
X140757026Y-79169919D01*
X140877120Y-79108728D01*
X140972428Y-79013420D01*
X141033619Y-78893326D01*
X141054704Y-78760200D01*
X141033619Y-78627074D01*
X141033619Y-78627073D01*
X140972428Y-78506980D01*
X140961321Y-78495873D01*
X140939647Y-78443547D01*
X140961321Y-78391221D01*
X140980045Y-78377616D01*
X141079920Y-78326728D01*
X141175228Y-78231420D01*
X141236419Y-78111326D01*
X141257504Y-77978200D01*
X141242913Y-77886075D01*
X141256135Y-77831004D01*
X141304426Y-77801411D01*
X141316002Y-77800500D01*
X141841758Y-77800500D01*
X141841766Y-77800500D01*
X141872199Y-77797646D01*
X141891478Y-77790900D01*
X145717396Y-77790900D01*
X145738480Y-77924026D01*
X145796897Y-78038674D01*
X145799672Y-78044120D01*
X145894980Y-78139428D01*
X146015073Y-78200618D01*
X146015073Y-78200619D01*
X146033275Y-78203501D01*
X146148200Y-78221704D01*
X146281326Y-78200619D01*
X146401420Y-78139428D01*
X146496728Y-78044120D01*
X146557919Y-77924026D01*
X146579004Y-77790900D01*
X146557919Y-77657774D01*
X146557919Y-77657773D01*
X146496728Y-77537680D01*
X146401419Y-77442371D01*
X146281326Y-77381181D01*
X146281326Y-77381180D01*
X146148200Y-77360096D01*
X146015073Y-77381180D01*
X146015073Y-77381181D01*
X145894980Y-77442371D01*
X145799671Y-77537680D01*
X145738481Y-77657773D01*
X145738480Y-77657773D01*
X145717396Y-77790900D01*
X141891478Y-77790900D01*
X142000382Y-77752793D01*
X142109650Y-77672150D01*
X142190293Y-77562882D01*
X142235146Y-77434699D01*
X142238000Y-77404266D01*
X142238000Y-76395734D01*
X142235146Y-76365301D01*
X142190293Y-76237118D01*
X142190292Y-76237116D01*
X142109653Y-76127853D01*
X142109646Y-76127846D01*
X142000383Y-76047207D01*
X142000381Y-76047206D01*
X141872204Y-76002355D01*
X141872205Y-76002355D01*
X141872200Y-76002354D01*
X141872199Y-76002354D01*
X141841766Y-75999500D01*
X141208234Y-75999500D01*
X141177801Y-76002354D01*
X141177799Y-76002354D01*
X141177795Y-76002355D01*
X141049618Y-76047206D01*
X141049616Y-76047207D01*
X140940353Y-76127846D01*
X140940346Y-76127853D01*
X140859707Y-76237116D01*
X140859706Y-76237118D01*
X140814855Y-76365295D01*
X140814854Y-76365299D01*
X140814854Y-76365301D01*
X140812000Y-76395734D01*
X140812000Y-76395740D01*
X140812000Y-77213946D01*
X140790326Y-77266272D01*
X140605858Y-77450740D01*
X140566200Y-77546483D01*
X140566200Y-77606300D01*
X140544526Y-77658626D01*
X140478172Y-77724979D01*
X140478171Y-77724980D01*
X140416981Y-77845073D01*
X140416980Y-77845073D01*
X140395896Y-77978200D01*
X140416980Y-78111326D01*
X140478171Y-78231419D01*
X140489278Y-78242526D01*
X140510952Y-78294852D01*
X140489278Y-78347178D01*
X140470548Y-78360786D01*
X140370678Y-78411673D01*
X140275371Y-78506980D01*
X140214181Y-78627073D01*
X140214180Y-78627073D01*
X140193096Y-78760200D01*
X137526882Y-78760200D01*
X135766682Y-77000000D01*
X138987501Y-77000000D01*
X138987501Y-77404205D01*
X138990350Y-77434602D01*
X138990352Y-77434611D01*
X139035152Y-77562643D01*
X139115707Y-77671791D01*
X139115708Y-77671792D01*
X139224856Y-77752347D01*
X139224855Y-77752347D01*
X139352885Y-77797146D01*
X139352893Y-77797148D01*
X139383302Y-77799999D01*
X139600000Y-77799999D01*
X139600000Y-77000000D01*
X139800000Y-77000000D01*
X139800000Y-77799999D01*
X140016694Y-77799999D01*
X140016705Y-77799998D01*
X140047102Y-77797149D01*
X140047111Y-77797147D01*
X140175143Y-77752347D01*
X140284291Y-77671792D01*
X140284292Y-77671791D01*
X140364847Y-77562643D01*
X140409646Y-77434614D01*
X140409648Y-77434606D01*
X140412499Y-77404198D01*
X140412500Y-77404197D01*
X140412500Y-77000000D01*
X139800000Y-77000000D01*
X139600000Y-77000000D01*
X138987501Y-77000000D01*
X135766682Y-77000000D01*
X135566682Y-76800000D01*
X138987500Y-76800000D01*
X139600000Y-76800000D01*
X139600000Y-76000000D01*
X139800000Y-76000000D01*
X139800000Y-76800000D01*
X140412499Y-76800000D01*
X140412499Y-76395806D01*
X140412498Y-76395794D01*
X140409649Y-76365397D01*
X140409647Y-76365388D01*
X140364847Y-76237356D01*
X140284292Y-76128208D01*
X140284291Y-76128207D01*
X140175143Y-76047652D01*
X140175144Y-76047652D01*
X140047114Y-76002853D01*
X140047106Y-76002851D01*
X140016698Y-76000000D01*
X139800000Y-76000000D01*
X139600000Y-76000000D01*
X139383306Y-76000000D01*
X139383293Y-76000001D01*
X139352897Y-76002850D01*
X139352888Y-76002852D01*
X139224856Y-76047652D01*
X139115708Y-76128207D01*
X139115707Y-76128208D01*
X139035152Y-76237356D01*
X138990353Y-76365385D01*
X138990351Y-76365393D01*
X138987500Y-76395801D01*
X138987500Y-76800000D01*
X135566682Y-76800000D01*
X130906682Y-72140000D01*
X132644858Y-72140000D01*
X132665319Y-72282312D01*
X132725048Y-72413100D01*
X132729890Y-72418687D01*
X133000000Y-72148577D01*
X133000000Y-72169837D01*
X133022836Y-72224968D01*
X133065032Y-72267164D01*
X133120163Y-72290000D01*
X133141421Y-72290000D01*
X132874270Y-72557150D01*
X132940155Y-72599492D01*
X133078109Y-72640000D01*
X133221890Y-72640000D01*
X133346594Y-72603383D01*
X133402907Y-72609437D01*
X133438445Y-72653536D01*
X133434756Y-72705125D01*
X133415319Y-72747685D01*
X133394858Y-72890000D01*
X133415319Y-73032312D01*
X133475048Y-73163100D01*
X133479890Y-73168687D01*
X133750000Y-72898577D01*
X133750000Y-72919837D01*
X133772836Y-72974968D01*
X133815032Y-73017164D01*
X133870163Y-73040000D01*
X133891421Y-73040000D01*
X133624270Y-73307150D01*
X133690155Y-73349492D01*
X133828109Y-73390000D01*
X133971890Y-73390000D01*
X134109843Y-73349492D01*
X134109845Y-73349492D01*
X134175728Y-73307151D01*
X134175728Y-73307150D01*
X133908579Y-73040000D01*
X133929837Y-73040000D01*
X133984968Y-73017164D01*
X134027164Y-72974968D01*
X134050000Y-72919837D01*
X134050000Y-72898579D01*
X134320108Y-73168687D01*
X134324951Y-73163100D01*
X134384680Y-73032312D01*
X134405141Y-72890000D01*
X134384680Y-72747687D01*
X134365243Y-72705126D01*
X134363222Y-72648525D01*
X134401815Y-72607072D01*
X134453405Y-72603383D01*
X134578109Y-72640000D01*
X134721890Y-72640000D01*
X134846594Y-72603383D01*
X134902907Y-72609437D01*
X134938445Y-72653536D01*
X134934756Y-72705125D01*
X134915319Y-72747685D01*
X134894858Y-72890000D01*
X134915319Y-73032312D01*
X134975048Y-73163100D01*
X134979890Y-73168687D01*
X135250000Y-72898577D01*
X135250000Y-72919837D01*
X135272836Y-72974968D01*
X135315032Y-73017164D01*
X135370163Y-73040000D01*
X135391421Y-73040000D01*
X135124270Y-73307150D01*
X135190155Y-73349492D01*
X135328109Y-73390000D01*
X135471890Y-73390000D01*
X135609843Y-73349492D01*
X135609845Y-73349492D01*
X135675728Y-73307151D01*
X135675728Y-73307150D01*
X135408579Y-73040000D01*
X135429837Y-73040000D01*
X135484968Y-73017164D01*
X135527164Y-72974968D01*
X135550000Y-72919837D01*
X135550000Y-72898579D01*
X135820108Y-73168687D01*
X135824951Y-73163100D01*
X135884680Y-73032312D01*
X135905141Y-72890000D01*
X135896515Y-72830000D01*
X139415001Y-72830000D01*
X139415001Y-73234205D01*
X139417850Y-73264602D01*
X139417852Y-73264611D01*
X139462652Y-73392643D01*
X139543207Y-73501791D01*
X139543208Y-73501792D01*
X139652356Y-73582347D01*
X139652355Y-73582347D01*
X139780385Y-73627146D01*
X139780393Y-73627148D01*
X139810802Y-73629999D01*
X140027500Y-73629999D01*
X140027500Y-72830000D01*
X140227500Y-72830000D01*
X140227500Y-73629999D01*
X140444194Y-73629999D01*
X140444205Y-73629998D01*
X140474602Y-73627149D01*
X140474611Y-73627147D01*
X140602643Y-73582347D01*
X140711791Y-73501792D01*
X140711792Y-73501791D01*
X140792347Y-73392643D01*
X140837146Y-73264614D01*
X140837148Y-73264606D01*
X140839993Y-73234266D01*
X141239500Y-73234266D01*
X141242354Y-73264699D01*
X141242354Y-73264701D01*
X141242355Y-73264704D01*
X141287206Y-73392881D01*
X141287207Y-73392883D01*
X141367846Y-73502146D01*
X141367853Y-73502153D01*
X141477116Y-73582792D01*
X141477118Y-73582793D01*
X141605295Y-73627644D01*
X141605301Y-73627646D01*
X141635734Y-73630500D01*
X141647400Y-73630500D01*
X141699726Y-73652174D01*
X141721400Y-73704500D01*
X141721400Y-74078400D01*
X141699726Y-74130726D01*
X141633372Y-74197079D01*
X141633371Y-74197080D01*
X141572181Y-74317173D01*
X141572180Y-74317173D01*
X141551096Y-74450300D01*
X141572180Y-74583426D01*
X141608409Y-74654528D01*
X141633372Y-74703520D01*
X141728680Y-74798828D01*
X141848773Y-74860018D01*
X141848773Y-74860019D01*
X141866975Y-74862901D01*
X141981900Y-74881104D01*
X142115026Y-74860019D01*
X142235120Y-74798828D01*
X142330428Y-74703520D01*
X142391619Y-74583426D01*
X142412704Y-74450300D01*
X142391619Y-74317174D01*
X142391619Y-74317173D01*
X142330428Y-74197080D01*
X142264074Y-74130726D01*
X142242400Y-74078400D01*
X142242400Y-73699742D01*
X142264074Y-73647416D01*
X142295783Y-73630091D01*
X142295449Y-73629134D01*
X142389781Y-73596124D01*
X142427882Y-73582793D01*
X142537150Y-73502150D01*
X142617793Y-73392882D01*
X142662646Y-73264699D01*
X142665500Y-73234266D01*
X142665500Y-72445684D01*
X142675217Y-72422222D01*
X142673718Y-72417609D01*
X142804182Y-72417609D01*
X142812589Y-72434108D01*
X142831281Y-72552126D01*
X142880398Y-72648525D01*
X142892472Y-72672220D01*
X142987780Y-72767528D01*
X143107873Y-72828718D01*
X143107873Y-72828719D01*
X143126075Y-72831601D01*
X143241000Y-72849804D01*
X143374126Y-72828719D01*
X143494220Y-72767528D01*
X143589528Y-72672220D01*
X143650719Y-72552126D01*
X143671804Y-72419000D01*
X143653601Y-72304075D01*
X143650719Y-72285873D01*
X143589528Y-72165780D01*
X143494219Y-72070471D01*
X143374126Y-72009281D01*
X143374126Y-72009280D01*
X143241000Y-71988196D01*
X143107873Y-72009280D01*
X143107873Y-72009281D01*
X142987780Y-72070471D01*
X142892471Y-72165780D01*
X142831281Y-72285873D01*
X142831280Y-72285873D01*
X142812589Y-72403891D01*
X142804182Y-72417609D01*
X142673718Y-72417609D01*
X142665500Y-72392315D01*
X142665500Y-72225740D01*
X142665500Y-72225734D01*
X142662646Y-72195301D01*
X142617793Y-72067118D01*
X142617792Y-72067116D01*
X142537153Y-71957853D01*
X142537146Y-71957846D01*
X142427883Y-71877207D01*
X142427881Y-71877206D01*
X142299704Y-71832355D01*
X142299705Y-71832355D01*
X142299700Y-71832354D01*
X142299699Y-71832354D01*
X142269266Y-71829500D01*
X141635734Y-71829500D01*
X141605301Y-71832354D01*
X141605299Y-71832354D01*
X141605295Y-71832355D01*
X141477118Y-71877206D01*
X141477116Y-71877207D01*
X141367853Y-71957846D01*
X141367846Y-71957853D01*
X141287207Y-72067116D01*
X141287206Y-72067118D01*
X141242355Y-72195295D01*
X141242354Y-72195299D01*
X141242354Y-72195301D01*
X141239500Y-72225734D01*
X141239500Y-73234266D01*
X140839993Y-73234266D01*
X140839999Y-73234198D01*
X140840000Y-73234197D01*
X140840000Y-72830000D01*
X140227500Y-72830000D01*
X140027500Y-72830000D01*
X139415001Y-72830000D01*
X135896515Y-72830000D01*
X135884680Y-72747687D01*
X135865243Y-72705126D01*
X135863222Y-72648525D01*
X135901815Y-72607072D01*
X135953405Y-72603383D01*
X136078109Y-72640000D01*
X136221890Y-72640000D01*
X136255946Y-72630000D01*
X139415000Y-72630000D01*
X140027500Y-72630000D01*
X140027500Y-71830000D01*
X140227500Y-71830000D01*
X140227500Y-72630000D01*
X140839999Y-72630000D01*
X140839999Y-72225806D01*
X140839998Y-72225794D01*
X140837149Y-72195397D01*
X140837147Y-72195388D01*
X140792347Y-72067356D01*
X140711792Y-71958208D01*
X140711791Y-71958207D01*
X140602643Y-71877652D01*
X140602644Y-71877652D01*
X140474614Y-71832853D01*
X140474606Y-71832851D01*
X140444198Y-71830000D01*
X140227500Y-71830000D01*
X140027500Y-71830000D01*
X139810806Y-71830000D01*
X139810793Y-71830001D01*
X139780397Y-71832850D01*
X139780388Y-71832852D01*
X139652356Y-71877652D01*
X139543208Y-71958207D01*
X139543207Y-71958208D01*
X139462652Y-72067356D01*
X139417853Y-72195385D01*
X139417851Y-72195393D01*
X139415000Y-72225801D01*
X139415000Y-72630000D01*
X136255946Y-72630000D01*
X136359843Y-72599492D01*
X136359845Y-72599492D01*
X136425728Y-72557151D01*
X136425728Y-72557150D01*
X136158579Y-72290000D01*
X136179837Y-72290000D01*
X136234968Y-72267164D01*
X136277164Y-72224968D01*
X136300000Y-72169837D01*
X136300000Y-72148579D01*
X136570108Y-72418687D01*
X136574951Y-72413100D01*
X136634680Y-72282312D01*
X136655141Y-72140000D01*
X136634680Y-71997687D01*
X136574951Y-71866899D01*
X136570108Y-71861311D01*
X136300000Y-72131419D01*
X136300000Y-72110163D01*
X136277164Y-72055032D01*
X136234968Y-72012836D01*
X136179837Y-71990000D01*
X136158576Y-71990000D01*
X136425728Y-71722848D01*
X136359845Y-71680508D01*
X136359843Y-71680507D01*
X136221891Y-71640000D01*
X136078111Y-71640000D01*
X135953404Y-71676617D01*
X135897091Y-71670562D01*
X135861553Y-71626462D01*
X135865244Y-71574872D01*
X135884680Y-71532314D01*
X135905141Y-71390000D01*
X135884680Y-71247687D01*
X135865243Y-71205126D01*
X135863222Y-71148525D01*
X135901815Y-71107072D01*
X135953405Y-71103383D01*
X136078109Y-71140000D01*
X136221890Y-71140000D01*
X136359843Y-71099492D01*
X136359845Y-71099492D01*
X136425728Y-71057151D01*
X136425728Y-71057150D01*
X136158579Y-70790000D01*
X136179837Y-70790000D01*
X136234968Y-70767164D01*
X136277164Y-70724968D01*
X136300000Y-70669837D01*
X136300000Y-70648579D01*
X136570108Y-70918687D01*
X136574951Y-70913100D01*
X136634680Y-70782312D01*
X136655141Y-70640000D01*
X136634680Y-70497687D01*
X136574951Y-70366899D01*
X136570108Y-70361311D01*
X136300000Y-70631419D01*
X136300000Y-70610163D01*
X136277164Y-70555032D01*
X136234968Y-70512836D01*
X136179837Y-70490000D01*
X136158576Y-70490000D01*
X136425728Y-70222848D01*
X136359845Y-70180508D01*
X136359843Y-70180507D01*
X136315886Y-70167600D01*
X142932896Y-70167600D01*
X142953980Y-70300726D01*
X142987699Y-70366902D01*
X143015172Y-70420820D01*
X143110480Y-70516128D01*
X143230573Y-70577318D01*
X143230573Y-70577319D01*
X143248775Y-70580201D01*
X143363700Y-70598404D01*
X143496826Y-70577319D01*
X143616920Y-70516128D01*
X143712228Y-70420820D01*
X143773419Y-70300726D01*
X143794504Y-70167600D01*
X143773419Y-70034474D01*
X143773419Y-70034473D01*
X143712228Y-69914380D01*
X143616919Y-69819071D01*
X143496826Y-69757881D01*
X143496826Y-69757880D01*
X143363700Y-69736796D01*
X143230573Y-69757880D01*
X143230573Y-69757881D01*
X143110480Y-69819071D01*
X143015171Y-69914380D01*
X142953981Y-70034473D01*
X142953980Y-70034473D01*
X142932896Y-70167600D01*
X136315886Y-70167600D01*
X136221891Y-70140000D01*
X136078111Y-70140000D01*
X135953404Y-70176617D01*
X135897091Y-70170562D01*
X135861553Y-70126462D01*
X135865244Y-70074872D01*
X135884680Y-70032314D01*
X135905141Y-69890000D01*
X135884680Y-69747687D01*
X135824951Y-69616899D01*
X135820108Y-69611311D01*
X135550000Y-69881419D01*
X135550000Y-69860163D01*
X135527164Y-69805032D01*
X135484968Y-69762836D01*
X135429837Y-69740000D01*
X135408576Y-69740000D01*
X135675728Y-69472848D01*
X135609845Y-69430508D01*
X135609843Y-69430507D01*
X135471891Y-69390000D01*
X135328109Y-69390000D01*
X135190152Y-69430508D01*
X135124270Y-69472846D01*
X135124270Y-69472848D01*
X135391422Y-69740000D01*
X135370163Y-69740000D01*
X135315032Y-69762836D01*
X135272836Y-69805032D01*
X135250000Y-69860163D01*
X135250000Y-69881421D01*
X134979889Y-69611310D01*
X134975050Y-69616896D01*
X134975046Y-69616902D01*
X134915319Y-69747687D01*
X134894858Y-69890000D01*
X134915319Y-70032312D01*
X134934756Y-70074873D01*
X134936777Y-70131474D01*
X134898184Y-70172927D01*
X134846595Y-70176616D01*
X134721892Y-70140000D01*
X134578111Y-70140000D01*
X134453404Y-70176617D01*
X134397091Y-70170562D01*
X134361553Y-70126462D01*
X134365244Y-70074872D01*
X134384680Y-70032314D01*
X134405141Y-69890000D01*
X134384680Y-69747687D01*
X134324951Y-69616899D01*
X134320108Y-69611311D01*
X134050000Y-69881419D01*
X134050000Y-69860163D01*
X134027164Y-69805032D01*
X133984968Y-69762836D01*
X133929837Y-69740000D01*
X133908576Y-69740000D01*
X134175728Y-69472848D01*
X134109845Y-69430508D01*
X134109843Y-69430507D01*
X133971891Y-69390000D01*
X133828109Y-69390000D01*
X133690152Y-69430508D01*
X133624270Y-69472846D01*
X133624270Y-69472848D01*
X133891422Y-69740000D01*
X133870163Y-69740000D01*
X133815032Y-69762836D01*
X133772836Y-69805032D01*
X133750000Y-69860163D01*
X133750000Y-69881421D01*
X133479889Y-69611310D01*
X133475050Y-69616896D01*
X133475046Y-69616902D01*
X133415319Y-69747687D01*
X133394858Y-69890000D01*
X133415319Y-70032312D01*
X133434756Y-70074873D01*
X133436777Y-70131474D01*
X133398184Y-70172927D01*
X133346595Y-70176616D01*
X133221892Y-70140000D01*
X133078109Y-70140000D01*
X132940152Y-70180508D01*
X132874270Y-70222846D01*
X132874270Y-70222848D01*
X133141422Y-70490000D01*
X133120163Y-70490000D01*
X133065032Y-70512836D01*
X133022836Y-70555032D01*
X133000000Y-70610163D01*
X133000000Y-70631421D01*
X132729889Y-70361310D01*
X132725050Y-70366896D01*
X132725046Y-70366902D01*
X132665319Y-70497687D01*
X132644858Y-70640000D01*
X132665319Y-70782312D01*
X132725048Y-70913100D01*
X132729890Y-70918687D01*
X133000000Y-70648577D01*
X133000000Y-70669837D01*
X133022836Y-70724968D01*
X133065032Y-70767164D01*
X133120163Y-70790000D01*
X133141421Y-70790000D01*
X132874270Y-71057150D01*
X132940155Y-71099492D01*
X133078109Y-71140000D01*
X133221890Y-71140000D01*
X133346594Y-71103383D01*
X133402907Y-71109437D01*
X133438445Y-71153536D01*
X133434756Y-71205125D01*
X133415319Y-71247685D01*
X133394858Y-71390000D01*
X133415319Y-71532312D01*
X133434756Y-71574873D01*
X133436777Y-71631474D01*
X133398184Y-71672927D01*
X133346595Y-71676616D01*
X133221892Y-71640000D01*
X133078109Y-71640000D01*
X132940152Y-71680508D01*
X132874270Y-71722846D01*
X132874270Y-71722848D01*
X133141422Y-71990000D01*
X133120163Y-71990000D01*
X133065032Y-72012836D01*
X133022836Y-72055032D01*
X133000000Y-72110163D01*
X133000000Y-72131421D01*
X132729889Y-71861310D01*
X132725050Y-71866896D01*
X132725046Y-71866902D01*
X132665319Y-71997687D01*
X132644858Y-72140000D01*
X130906682Y-72140000D01*
X128770664Y-70003982D01*
X128748990Y-69951656D01*
X128770664Y-69899330D01*
X128822990Y-69877656D01*
X128856583Y-69885721D01*
X128904074Y-69909919D01*
X128904073Y-69909919D01*
X128922275Y-69912801D01*
X129037200Y-69931004D01*
X129170326Y-69909919D01*
X129290420Y-69848728D01*
X129385728Y-69753420D01*
X129446919Y-69633326D01*
X129468004Y-69500200D01*
X129465370Y-69483572D01*
X129478588Y-69428501D01*
X129486124Y-69419677D01*
X129620842Y-69284961D01*
X129626548Y-69271183D01*
X129666595Y-69231134D01*
X129694916Y-69225500D01*
X129904258Y-69225500D01*
X129904266Y-69225500D01*
X129934699Y-69222646D01*
X130062882Y-69177793D01*
X130172150Y-69097150D01*
X130252793Y-68987882D01*
X130274171Y-68926785D01*
X130296056Y-68864244D01*
X130333795Y-68822013D01*
X130390344Y-68818838D01*
X130432575Y-68856577D01*
X130439579Y-68881771D01*
X130439853Y-68884698D01*
X130439855Y-68884704D01*
X130484706Y-69012881D01*
X130484707Y-69012883D01*
X130565346Y-69122146D01*
X130565353Y-69122153D01*
X130674616Y-69202792D01*
X130674618Y-69202793D01*
X130802795Y-69247644D01*
X130802801Y-69247646D01*
X130833234Y-69250500D01*
X130833241Y-69250500D01*
X131466758Y-69250500D01*
X131466766Y-69250500D01*
X131497199Y-69247646D01*
X131625382Y-69202793D01*
X131734650Y-69122150D01*
X131815293Y-69012882D01*
X131860146Y-68884699D01*
X131863000Y-68854266D01*
X131863000Y-68450000D01*
X132262501Y-68450000D01*
X132262501Y-68854205D01*
X132265350Y-68884602D01*
X132265352Y-68884611D01*
X132310152Y-69012643D01*
X132390707Y-69121791D01*
X132390708Y-69121792D01*
X132499856Y-69202347D01*
X132499855Y-69202347D01*
X132627885Y-69247146D01*
X132627893Y-69247148D01*
X132658302Y-69249999D01*
X132875000Y-69249999D01*
X132875000Y-68450000D01*
X133075000Y-68450000D01*
X133075000Y-69249999D01*
X133291694Y-69249999D01*
X133291705Y-69249998D01*
X133322102Y-69247149D01*
X133322111Y-69247147D01*
X133450143Y-69202347D01*
X133559291Y-69121792D01*
X133559292Y-69121791D01*
X133639847Y-69012643D01*
X133684646Y-68884614D01*
X133684648Y-68884606D01*
X133687499Y-68854198D01*
X133687500Y-68854197D01*
X133687500Y-68450000D01*
X133075000Y-68450000D01*
X132875000Y-68450000D01*
X132262501Y-68450000D01*
X131863000Y-68450000D01*
X131863000Y-68250000D01*
X132262500Y-68250000D01*
X132875000Y-68250000D01*
X132875000Y-67450000D01*
X133075000Y-67450000D01*
X133075000Y-68250000D01*
X133687499Y-68250000D01*
X133687499Y-67845806D01*
X133687498Y-67845794D01*
X133684649Y-67815397D01*
X133684647Y-67815388D01*
X133639847Y-67687356D01*
X133574342Y-67598600D01*
X142810196Y-67598600D01*
X142831280Y-67731726D01*
X142892471Y-67851819D01*
X142892472Y-67851820D01*
X142987780Y-67947128D01*
X143107873Y-68008318D01*
X143107873Y-68008319D01*
X143126075Y-68011201D01*
X143241000Y-68029404D01*
X143374126Y-68008319D01*
X143494220Y-67947128D01*
X143589528Y-67851820D01*
X143650719Y-67731726D01*
X143671804Y-67598600D01*
X143650719Y-67465474D01*
X143650719Y-67465473D01*
X143589528Y-67345380D01*
X143494219Y-67250071D01*
X143374126Y-67188881D01*
X143374126Y-67188880D01*
X143241000Y-67167796D01*
X143107873Y-67188880D01*
X143107873Y-67188881D01*
X142987780Y-67250071D01*
X142892471Y-67345380D01*
X142831281Y-67465473D01*
X142831280Y-67465473D01*
X142810196Y-67598600D01*
X133574342Y-67598600D01*
X133559292Y-67578208D01*
X133559291Y-67578207D01*
X133450143Y-67497652D01*
X133450144Y-67497652D01*
X133322114Y-67452853D01*
X133322106Y-67452851D01*
X133291698Y-67450000D01*
X133075000Y-67450000D01*
X132875000Y-67450000D01*
X132658306Y-67450000D01*
X132658293Y-67450001D01*
X132627897Y-67452850D01*
X132627888Y-67452852D01*
X132499856Y-67497652D01*
X132390708Y-67578207D01*
X132390707Y-67578208D01*
X132310152Y-67687356D01*
X132265353Y-67815385D01*
X132265351Y-67815393D01*
X132262500Y-67845801D01*
X132262500Y-68250000D01*
X131863000Y-68250000D01*
X131863000Y-67845734D01*
X131860146Y-67815301D01*
X131842280Y-67764244D01*
X131815293Y-67687118D01*
X131815292Y-67687116D01*
X131734653Y-67577853D01*
X131734646Y-67577846D01*
X131625383Y-67497207D01*
X131625381Y-67497206D01*
X131497204Y-67452355D01*
X131497205Y-67452355D01*
X131497200Y-67452354D01*
X131497199Y-67452354D01*
X131466766Y-67449500D01*
X130833234Y-67449500D01*
X130802801Y-67452354D01*
X130802799Y-67452354D01*
X130802795Y-67452355D01*
X130674618Y-67497206D01*
X130674616Y-67497207D01*
X130565353Y-67577846D01*
X130565346Y-67577853D01*
X130484707Y-67687116D01*
X130484706Y-67687118D01*
X130439855Y-67815295D01*
X130439854Y-67815299D01*
X130439854Y-67815301D01*
X130437000Y-67845734D01*
X130437000Y-67845740D01*
X130437000Y-68128017D01*
X130415326Y-68180343D01*
X130363000Y-68202017D01*
X130310674Y-68180343D01*
X130293153Y-68152458D01*
X130252793Y-68037118D01*
X130252792Y-68037116D01*
X130172153Y-67927853D01*
X130172146Y-67927846D01*
X130062883Y-67847207D01*
X130062881Y-67847206D01*
X129934704Y-67802355D01*
X129934705Y-67802355D01*
X129934700Y-67802354D01*
X129934699Y-67802354D01*
X129904266Y-67799500D01*
X128895734Y-67799500D01*
X128875445Y-67801402D01*
X128865298Y-67802354D01*
X128865295Y-67802355D01*
X128844439Y-67809653D01*
X128787891Y-67806476D01*
X128750152Y-67764244D01*
X128746000Y-67739805D01*
X128746000Y-67688334D01*
X128767674Y-67636008D01*
X128981508Y-67422174D01*
X129033834Y-67400500D01*
X129904258Y-67400500D01*
X129904266Y-67400500D01*
X129934699Y-67397646D01*
X130062882Y-67352793D01*
X130172150Y-67272150D01*
X130252793Y-67162882D01*
X130297646Y-67034699D01*
X130300500Y-67004266D01*
X130300500Y-66370734D01*
X130297646Y-66340301D01*
X130252793Y-66212118D01*
X130252792Y-66212116D01*
X130172153Y-66102853D01*
X130172146Y-66102846D01*
X130062883Y-66022207D01*
X130062881Y-66022206D01*
X129934704Y-65977355D01*
X129934705Y-65977355D01*
X129934700Y-65977354D01*
X129934699Y-65977354D01*
X129904266Y-65974500D01*
X128895734Y-65974500D01*
X128865301Y-65977354D01*
X128865299Y-65977354D01*
X128865295Y-65977355D01*
X128737118Y-66022206D01*
X128737116Y-66022207D01*
X128627853Y-66102846D01*
X128627846Y-66102853D01*
X128547207Y-66212116D01*
X128547206Y-66212118D01*
X128502355Y-66340295D01*
X128502354Y-66340299D01*
X128502354Y-66340301D01*
X128499500Y-66370734D01*
X128499500Y-66370740D01*
X128499500Y-66882166D01*
X128477826Y-66934492D01*
X128271992Y-67140326D01*
X128219666Y-67162000D01*
X126401425Y-67162000D01*
X126349099Y-67140326D01*
X126335491Y-67121596D01*
X126330826Y-67112441D01*
X126303128Y-67058080D01*
X126207820Y-66962772D01*
X126207819Y-66962771D01*
X126087726Y-66901581D01*
X126087726Y-66901580D01*
X125954600Y-66880496D01*
X125821473Y-66901580D01*
X125821473Y-66901581D01*
X125701380Y-66962771D01*
X125606073Y-67058078D01*
X125573709Y-67121596D01*
X125530642Y-67158378D01*
X125507775Y-67162000D01*
X124948997Y-67162000D01*
X124896671Y-67140326D01*
X124879150Y-67112441D01*
X124852793Y-67037118D01*
X124852792Y-67037116D01*
X124772153Y-66927853D01*
X124772146Y-66927846D01*
X124662883Y-66847207D01*
X124662881Y-66847206D01*
X124534704Y-66802355D01*
X124534705Y-66802355D01*
X124534700Y-66802354D01*
X124534699Y-66802354D01*
X124504266Y-66799500D01*
X123495734Y-66799500D01*
X123465301Y-66802354D01*
X123465299Y-66802354D01*
X123465295Y-66802355D01*
X123337118Y-66847206D01*
X123337116Y-66847207D01*
X123227853Y-66927846D01*
X123227846Y-66927853D01*
X123147207Y-67037116D01*
X123147206Y-67037118D01*
X123120850Y-67112441D01*
X123083110Y-67154672D01*
X123051003Y-67162000D01*
X122998997Y-67162000D01*
X122946671Y-67140326D01*
X122929150Y-67112441D01*
X122902793Y-67037118D01*
X122902792Y-67037116D01*
X122822153Y-66927853D01*
X122822146Y-66927846D01*
X122712883Y-66847207D01*
X122712881Y-66847206D01*
X122584704Y-66802355D01*
X122584705Y-66802355D01*
X122584700Y-66802354D01*
X122584699Y-66802354D01*
X122554266Y-66799500D01*
X121545734Y-66799500D01*
X121527474Y-66801212D01*
X121515297Y-66802354D01*
X121441684Y-66828113D01*
X121385136Y-66824937D01*
X121347396Y-66782705D01*
X121343244Y-66758219D01*
X121343443Y-66441225D01*
X121365149Y-66388915D01*
X121417488Y-66367274D01*
X121441882Y-66371427D01*
X121515385Y-66397146D01*
X121515393Y-66397148D01*
X121545802Y-66399999D01*
X121950000Y-66399999D01*
X121950000Y-65787500D01*
X122150000Y-65787500D01*
X122150000Y-66399999D01*
X122554194Y-66399999D01*
X122554205Y-66399998D01*
X122584602Y-66397149D01*
X122584611Y-66397147D01*
X122712643Y-66352347D01*
X122821791Y-66271792D01*
X122821792Y-66271791D01*
X122902347Y-66162643D01*
X122947146Y-66034614D01*
X122947148Y-66034606D01*
X122949999Y-66004198D01*
X122950000Y-66004197D01*
X122950000Y-65787500D01*
X123100001Y-65787500D01*
X123100001Y-66004205D01*
X123102850Y-66034602D01*
X123102852Y-66034611D01*
X123147652Y-66162643D01*
X123228207Y-66271791D01*
X123228208Y-66271792D01*
X123337356Y-66352347D01*
X123337355Y-66352347D01*
X123465385Y-66397146D01*
X123465393Y-66397148D01*
X123495802Y-66399999D01*
X123900000Y-66399999D01*
X123900000Y-65787500D01*
X124100000Y-65787500D01*
X124100000Y-66399999D01*
X124504194Y-66399999D01*
X124504205Y-66399998D01*
X124534602Y-66397149D01*
X124534611Y-66397147D01*
X124662643Y-66352347D01*
X124771791Y-66271792D01*
X124771792Y-66271791D01*
X124852347Y-66162643D01*
X124897146Y-66034614D01*
X124897148Y-66034606D01*
X124899999Y-66004198D01*
X124900000Y-66004197D01*
X124900000Y-65787500D01*
X124100000Y-65787500D01*
X123900000Y-65787500D01*
X123100001Y-65787500D01*
X122950000Y-65787500D01*
X122150000Y-65787500D01*
X121950000Y-65787500D01*
X121950000Y-65661500D01*
X121971674Y-65609174D01*
X122024000Y-65587500D01*
X122949999Y-65587500D01*
X122949999Y-65370806D01*
X122949998Y-65370794D01*
X122947149Y-65340397D01*
X122947147Y-65340388D01*
X122902347Y-65212356D01*
X122821792Y-65103208D01*
X122821791Y-65103207D01*
X122764194Y-65060698D01*
X122734963Y-65012187D01*
X122748597Y-64957215D01*
X122797108Y-64927984D01*
X122807963Y-64927159D01*
X123242927Y-64926263D01*
X123295294Y-64947828D01*
X123317076Y-65000110D01*
X123295510Y-65052480D01*
X123287020Y-65059802D01*
X123228206Y-65103209D01*
X123147652Y-65212356D01*
X123102853Y-65340385D01*
X123102851Y-65340393D01*
X123100000Y-65370801D01*
X123100000Y-65587500D01*
X124899999Y-65587500D01*
X124899999Y-65370806D01*
X124899998Y-65370794D01*
X124897149Y-65340397D01*
X124897147Y-65340388D01*
X124852347Y-65212356D01*
X124771792Y-65103208D01*
X124771791Y-65103207D01*
X124708764Y-65056691D01*
X124679534Y-65008180D01*
X124693167Y-64953208D01*
X124741678Y-64923978D01*
X124752538Y-64923152D01*
X150625350Y-64869834D01*
X150677718Y-64891399D01*
G37*
%TD.AperFunction*%
%TA.AperFunction,Conductor*%
G36*
X145001824Y-130909506D02*
G01*
X145054152Y-130961833D01*
X145252826Y-131160507D01*
X145274500Y-131212833D01*
X145274500Y-131904266D01*
X145277354Y-131934699D01*
X145277354Y-131934701D01*
X145277355Y-131934704D01*
X145322206Y-132062881D01*
X145322207Y-132062883D01*
X145402846Y-132172146D01*
X145402853Y-132172153D01*
X145506934Y-132248967D01*
X145512118Y-132252793D01*
X145587441Y-132279149D01*
X145629671Y-132316888D01*
X145637000Y-132348996D01*
X145637000Y-132456551D01*
X145615326Y-132508877D01*
X145563000Y-132530551D01*
X145510674Y-132508877D01*
X145505108Y-132502360D01*
X145408719Y-132405971D01*
X145288626Y-132344781D01*
X145288626Y-132344780D01*
X145155500Y-132323696D01*
X145022373Y-132344780D01*
X145022373Y-132344781D01*
X144902280Y-132405971D01*
X144806971Y-132501280D01*
X144745781Y-132621373D01*
X144745780Y-132621373D01*
X144724696Y-132754500D01*
X144724696Y-132754502D01*
X144727329Y-132771130D01*
X144714106Y-132826202D01*
X144706566Y-132835030D01*
X143652439Y-133889159D01*
X143652434Y-133889164D01*
X143646785Y-133894812D01*
X143594457Y-133916481D01*
X143542133Y-133894802D01*
X143521375Y-133854057D01*
X143506070Y-133757423D01*
X143444879Y-133637329D01*
X143349571Y-133542021D01*
X143349570Y-133542020D01*
X143229477Y-133480830D01*
X143149024Y-133468087D01*
X143100733Y-133438494D01*
X143087512Y-133383421D01*
X143108276Y-133342672D01*
X143148325Y-133302623D01*
X143148328Y-133302620D01*
X143209519Y-133182526D01*
X143230604Y-133049400D01*
X143209519Y-132916274D01*
X143168142Y-132835068D01*
X143163699Y-132778608D01*
X143181747Y-132749153D01*
X143647565Y-132283335D01*
X143699890Y-132261662D01*
X143724331Y-132265815D01*
X143815295Y-132297644D01*
X143815301Y-132297646D01*
X143845734Y-132300500D01*
X143845741Y-132300500D01*
X144479258Y-132300500D01*
X144479266Y-132300500D01*
X144509699Y-132297646D01*
X144637882Y-132252793D01*
X144747150Y-132172150D01*
X144827793Y-132062882D01*
X144872646Y-131934699D01*
X144875500Y-131904266D01*
X144875500Y-130961833D01*
X144897174Y-130909507D01*
X144949500Y-130887833D01*
X145001824Y-130909506D01*
G37*
%TD.AperFunction*%
%TD*%
D21*
X143300000Y-109750000D03*
X134375000Y-110600000D03*
X135050000Y-109050000D03*
X147894900Y-94850000D03*
X144825000Y-96675000D03*
X135450000Y-78675000D03*
X134550000Y-100925000D03*
X133475000Y-76775000D03*
X128875000Y-130425000D03*
X137575000Y-101250000D03*
X124025000Y-105575000D03*
X144850000Y-91925000D03*
X127575000Y-134900000D03*
X122125000Y-83175000D03*
X139375000Y-88950000D03*
X147975000Y-78325000D03*
X143775000Y-89050000D03*
X123875000Y-78475000D03*
X139950000Y-101125000D03*
X140000000Y-87200000D03*
X143900000Y-132950000D03*
X147375000Y-93200000D03*
X138425000Y-82100000D03*
X138700000Y-89825000D03*
X138825000Y-133300000D03*
X142050000Y-89150000D03*
X133975000Y-120425000D03*
X144975000Y-114500000D03*
X135050000Y-133400000D03*
X142025000Y-114400000D03*
X129739900Y-135775000D03*
X149975000Y-94250000D03*
X148500000Y-82800000D03*
X132125000Y-130575000D03*
X142725000Y-118500000D03*
X138575000Y-66750000D03*
X122275000Y-69850000D03*
X145125000Y-136200000D03*
X121900000Y-134000000D03*
X143475000Y-95525000D03*
X142025000Y-81000000D03*
X139700000Y-120800000D03*
X135325000Y-135850000D03*
X122687100Y-120389400D03*
X125954600Y-67311300D03*
X140510000Y-111393300D03*
X146537300Y-94138500D03*
X134125400Y-125074800D03*
X124825000Y-133900000D03*
X149487300Y-119932200D03*
X129037200Y-69500200D03*
X131324200Y-135482000D03*
X131262700Y-85747400D03*
X143114400Y-128957500D03*
X137632500Y-105039200D03*
X141502900Y-125694500D03*
X134984600Y-107577900D03*
X138555700Y-120327200D03*
X145127000Y-127188900D03*
X141692400Y-130873400D03*
X137904400Y-115637100D03*
X139953400Y-126050100D03*
X137200000Y-132675000D03*
X141725000Y-135225000D03*
X134745100Y-132232400D03*
X133626500Y-113248300D03*
X139959500Y-129229000D03*
X136544900Y-114760000D03*
X142799800Y-133049400D03*
X135636900Y-107830000D03*
X141476400Y-132892400D03*
X134351500Y-107475800D03*
X143096351Y-133890549D03*
X135595800Y-85130900D03*
X139604600Y-135710400D03*
X128875600Y-78171800D03*
X134491800Y-85221000D03*
X131088450Y-127551550D03*
X136311800Y-107610400D03*
X134191444Y-136073546D03*
X130100800Y-79286700D03*
X137491800Y-85350600D03*
X143063900Y-136154200D03*
X141869600Y-85512300D03*
X135932316Y-135283517D03*
X126687350Y-84112650D03*
X124345000Y-125122300D03*
X147393800Y-96224500D03*
X128806000Y-73476400D03*
X139659200Y-124035100D03*
X147368700Y-119683500D03*
X147237700Y-124355100D03*
X129020300Y-82552800D03*
X136443600Y-134120600D03*
X146268700Y-100375000D03*
X123969300Y-115388600D03*
X128600400Y-76731800D03*
X129132200Y-122404500D03*
X126650000Y-133975000D03*
X145256700Y-120369100D03*
X141922200Y-132410200D03*
X138520400Y-85024300D03*
X132541800Y-85074300D03*
X131690000Y-129326699D03*
X145707800Y-96224500D03*
X122616100Y-127092000D03*
X147641400Y-125139300D03*
X136608700Y-134869300D03*
X128806000Y-74306000D03*
X143532900Y-85980900D03*
X136762316Y-135825000D03*
X123373600Y-115228800D03*
X127063500Y-133102100D03*
X124893300Y-116161500D03*
X136458500Y-113221800D03*
X140623900Y-78760200D03*
X130431600Y-126727500D03*
X146357400Y-85716500D03*
X146148200Y-77790900D03*
X145155500Y-132754500D03*
X128868600Y-79127300D03*
X133712500Y-135535896D03*
X129738200Y-133002200D03*
X141861000Y-123318000D03*
X128036800Y-83886800D03*
X131511600Y-128268000D03*
X143241000Y-67598600D03*
X138773500Y-106235500D03*
X128986100Y-135015500D03*
X142092800Y-125059000D03*
X146106000Y-120130900D03*
X129017300Y-134326800D03*
X124875500Y-115547700D03*
X132083900Y-116150000D03*
X138398300Y-117652100D03*
X135722400Y-91858300D03*
X139634900Y-118330700D03*
X134325100Y-88857600D03*
X139648200Y-113781300D03*
X147900000Y-130225000D03*
X133700000Y-123900000D03*
X133775000Y-122200000D03*
X148400000Y-129725000D03*
X141981900Y-74450300D03*
X140826700Y-77978200D03*
X140839400Y-117845800D03*
X143241000Y-72419000D03*
X143363700Y-70167600D03*
X140674700Y-116690100D03*
X132959300Y-112636600D03*
X128784800Y-125708600D03*
X124514200Y-120176300D03*
X134506900Y-104829200D03*
X138810500Y-91544400D03*
X128570000Y-71700500D03*
X135633200Y-117703000D03*
X139983300Y-132697700D03*
X138253100Y-129473700D03*
X136466700Y-117644700D03*
X139688300Y-91467900D03*
X129014500Y-75438300D03*
D22*
X133150000Y-70640000D03*
X133150000Y-72140000D03*
X133900000Y-69890000D03*
X133900000Y-71390000D03*
X133900000Y-72890000D03*
X134650000Y-70640000D03*
X134650000Y-72140000D03*
X135400000Y-69890000D03*
X135400000Y-71390000D03*
X135400000Y-72890000D03*
X136150000Y-70640000D03*
X136150000Y-72140000D03*
D23*
X136000000Y-55050000D03*
M02*
