%TF.GenerationSoftware,KiCad,Pcbnew,8.0.1-rc1*%
%TF.CreationDate,2024-08-06T22:31:27-04:00*%
%TF.ProjectId,SoM_ESP32_v1,536f4d5f-4553-4503-9332-5f76312e6b69,rev?*%
%TF.SameCoordinates,Original*%
%TF.FileFunction,Soldermask,Top*%
%TF.FilePolarity,Negative*%
%FSLAX46Y46*%
G04 Gerber Fmt 4.6, Leading zero omitted, Abs format (unit mm)*
G04 Created by KiCad (PCBNEW 8.0.1-rc1) date 2024-08-06 22:31:27*
%MOMM*%
%LPD*%
G01*
G04 APERTURE LIST*
G04 Aperture macros list*
%AMRoundRect*
0 Rectangle with rounded corners*
0 $1 Rounding radius*
0 $2 $3 $4 $5 $6 $7 $8 $9 X,Y pos of 4 corners*
0 Add a 4 corners polygon primitive as box body*
4,1,4,$2,$3,$4,$5,$6,$7,$8,$9,$2,$3,0*
0 Add four circle primitives for the rounded corners*
1,1,$1+$1,$2,$3*
1,1,$1+$1,$4,$5*
1,1,$1+$1,$6,$7*
1,1,$1+$1,$8,$9*
0 Add four rect primitives between the rounded corners*
20,1,$1+$1,$2,$3,$4,$5,0*
20,1,$1+$1,$4,$5,$6,$7,0*
20,1,$1+$1,$6,$7,$8,$9,0*
20,1,$1+$1,$8,$9,$2,$3,0*%
G04 Aperture macros list end*
%ADD10C,0.100000*%
%ADD11RoundRect,0.150000X-0.825000X-0.150000X0.825000X-0.150000X0.825000X0.150000X-0.825000X0.150000X0*%
%ADD12RoundRect,0.250000X-0.450000X0.262500X-0.450000X-0.262500X0.450000X-0.262500X0.450000X0.262500X0*%
%ADD13RoundRect,0.150000X-0.150000X0.825000X-0.150000X-0.825000X0.150000X-0.825000X0.150000X0.825000X0*%
%ADD14RoundRect,0.100000X0.100000X-0.637500X0.100000X0.637500X-0.100000X0.637500X-0.100000X-0.637500X0*%
%ADD15R,1.900000X2.400000*%
%ADD16RoundRect,0.100000X0.100000X-0.712500X0.100000X0.712500X-0.100000X0.712500X-0.100000X-0.712500X0*%
%ADD17R,1.500000X0.900000*%
%ADD18R,0.900000X1.500000*%
%ADD19R,1.000000X1.000000*%
%ADD20C,0.600000*%
%ADD21RoundRect,0.100000X-0.100000X0.637500X-0.100000X-0.637500X0.100000X-0.637500X0.100000X0.637500X0*%
%ADD22C,3.200000*%
%ADD23RoundRect,0.250000X0.262500X0.450000X-0.262500X0.450000X-0.262500X-0.450000X0.262500X-0.450000X0*%
%ADD24RoundRect,0.243750X0.456250X-0.243750X0.456250X0.243750X-0.456250X0.243750X-0.456250X-0.243750X0*%
%ADD25R,0.400000X1.200000*%
%ADD26R,1.120000X2.160000*%
%ADD27RoundRect,0.100000X-0.225000X-0.100000X0.225000X-0.100000X0.225000X0.100000X-0.225000X0.100000X0*%
%ADD28RoundRect,0.250000X0.450000X-0.262500X0.450000X0.262500X-0.450000X0.262500X-0.450000X-0.262500X0*%
%ADD29R,1.000000X1.500000*%
%ADD30RoundRect,0.250000X-0.262500X-0.450000X0.262500X-0.450000X0.262500X0.450000X-0.262500X0.450000X0*%
G04 APERTURE END LIST*
D10*
%TO.C,J201*%
X137825000Y-139075000D02*
X125875000Y-139075000D01*
X125875000Y-137075000D01*
X137825000Y-137075000D01*
X137825000Y-139075000D01*
G36*
X137825000Y-139075000D02*
G01*
X125875000Y-139075000D01*
X125875000Y-137075000D01*
X137825000Y-137075000D01*
X137825000Y-139075000D01*
G37*
X145725000Y-139075000D02*
X139025000Y-139075000D01*
X139025000Y-137075000D01*
X145725000Y-137075000D01*
X145725000Y-139075000D01*
G36*
X145725000Y-139075000D02*
G01*
X139025000Y-139075000D01*
X139025000Y-137075000D01*
X145725000Y-137075000D01*
X145725000Y-139075000D01*
G37*
%TD*%
D11*
%TO.C,U402*%
X144050000Y-121190000D03*
X144050000Y-122460000D03*
X144050000Y-123730000D03*
X144050000Y-125000000D03*
X149000000Y-125000000D03*
X149000000Y-123730000D03*
X149000000Y-122460000D03*
X149000000Y-121190000D03*
%TD*%
D12*
%TO.C,C305*%
X139600000Y-110512500D03*
X139600000Y-112337500D03*
%TD*%
D13*
%TO.C,U601*%
X140290000Y-93050000D03*
X139020000Y-93050000D03*
X137750000Y-93050000D03*
X136480000Y-93050000D03*
X135210000Y-93050000D03*
X133940000Y-93050000D03*
X132670000Y-93050000D03*
X131400000Y-93050000D03*
X131400000Y-98000000D03*
X132670000Y-98000000D03*
X133940000Y-98000000D03*
X135210000Y-98000000D03*
X136480000Y-98000000D03*
X137750000Y-98000000D03*
X139020000Y-98000000D03*
X140290000Y-98000000D03*
%TD*%
D12*
%TO.C,C304*%
X141525000Y-110512500D03*
X141525000Y-112337500D03*
%TD*%
D14*
%TO.C,U302*%
X144125000Y-103675000D03*
X144775000Y-103675000D03*
X145425000Y-103675000D03*
X146075000Y-103675000D03*
X146725000Y-103675000D03*
X147375000Y-103675000D03*
X148025000Y-103675000D03*
X148675000Y-103675000D03*
X149325000Y-103675000D03*
X149975000Y-103675000D03*
X149975000Y-97950000D03*
X149325000Y-97950000D03*
X148675000Y-97950000D03*
X148025000Y-97950000D03*
X147375000Y-97950000D03*
X146725000Y-97950000D03*
X146075000Y-97950000D03*
X145425000Y-97950000D03*
X144775000Y-97950000D03*
X144125000Y-97950000D03*
%TD*%
D15*
%TO.C,Y301*%
X147500000Y-107150000D03*
X143400000Y-107150000D03*
%TD*%
D16*
%TO.C,U501*%
X123100000Y-113987500D03*
X123750000Y-113987500D03*
X124400000Y-113987500D03*
X125050000Y-113987500D03*
X125050000Y-109762500D03*
X124400000Y-109762500D03*
X123750000Y-109762500D03*
X123100000Y-109762500D03*
%TD*%
D17*
%TO.C,U701*%
X127260000Y-66040000D03*
X127260000Y-67310000D03*
X127260000Y-68580000D03*
X127260000Y-69850000D03*
X127260000Y-71120000D03*
X127260000Y-72390000D03*
X127260000Y-73660000D03*
X127260000Y-74930000D03*
X127260000Y-76200000D03*
X127260000Y-77470000D03*
X127260000Y-78740000D03*
X127260000Y-80010000D03*
X127260000Y-81280000D03*
X127260000Y-82550000D03*
D18*
X129025000Y-83800000D03*
X130295000Y-83800000D03*
X131565000Y-83800000D03*
X132835000Y-83800000D03*
X134105000Y-83800000D03*
X135375000Y-83800000D03*
X136645000Y-83800000D03*
X137915000Y-83800000D03*
X139185000Y-83800000D03*
X140455000Y-83800000D03*
X141725000Y-83800000D03*
X142995000Y-83800000D03*
D17*
X144760000Y-82550000D03*
X144760000Y-81280000D03*
X144760000Y-80010000D03*
X144760000Y-78740000D03*
X144760000Y-77470000D03*
X144760000Y-76200000D03*
X144760000Y-74930000D03*
X144760000Y-73660000D03*
X144760000Y-72390000D03*
X144760000Y-71120000D03*
X144760000Y-69850000D03*
X144760000Y-68580000D03*
X144760000Y-67310000D03*
X144760000Y-66040000D03*
D19*
X133150000Y-69890000D03*
D20*
X133150000Y-70640000D03*
D19*
X133150000Y-71390000D03*
D20*
X133150000Y-72140000D03*
D19*
X133150000Y-72890000D03*
D20*
X133900000Y-69890000D03*
X133900000Y-71390000D03*
X133900000Y-72890000D03*
D19*
X134650000Y-69890000D03*
D20*
X134650000Y-70640000D03*
D19*
X134650000Y-71390000D03*
D20*
X134650000Y-72140000D03*
D19*
X134650000Y-72890000D03*
D20*
X135400000Y-69890000D03*
X135400000Y-71390000D03*
X135400000Y-72890000D03*
D19*
X136150000Y-69890000D03*
D20*
X136150000Y-70640000D03*
D19*
X136150000Y-71390000D03*
D20*
X136150000Y-72140000D03*
D19*
X136150000Y-72890000D03*
%TD*%
D21*
%TO.C,U301*%
X138175000Y-106375000D03*
X137525000Y-106375000D03*
X136875000Y-106375000D03*
X136225000Y-106375000D03*
X135575000Y-106375000D03*
X134925000Y-106375000D03*
X134275000Y-106375000D03*
X133625000Y-106375000D03*
X133625000Y-112100000D03*
X134275000Y-112100000D03*
X134925000Y-112100000D03*
X135575000Y-112100000D03*
X136225000Y-112100000D03*
X136875000Y-112100000D03*
X137525000Y-112100000D03*
X138175000Y-112100000D03*
%TD*%
D12*
%TO.C,C502*%
X126825000Y-109462500D03*
X126825000Y-111287500D03*
%TD*%
D22*
%TO.C,REF\u002A\u002A*%
X136000000Y-55050000D03*
%TD*%
D23*
%TO.C,R606*%
X133200000Y-87000000D03*
X131375000Y-87000000D03*
%TD*%
D24*
%TO.C,TX*%
X139600000Y-117075000D03*
X139600000Y-115200000D03*
%TD*%
%TO.C,RX*%
X132285000Y-117075000D03*
X132285000Y-115200000D03*
%TD*%
D11*
%TO.C,U401*%
X122500000Y-121740000D03*
X122500000Y-123010000D03*
X122500000Y-124280000D03*
X122500000Y-125550000D03*
X127450000Y-125550000D03*
X127450000Y-124280000D03*
X127450000Y-123010000D03*
X127450000Y-121740000D03*
%TD*%
D25*
%TO.C,U303*%
X138807500Y-118800000D03*
X138172500Y-118800000D03*
X137537500Y-118800000D03*
X136902500Y-118800000D03*
X136267500Y-118800000D03*
X135632500Y-118800000D03*
X134997500Y-118800000D03*
X134362500Y-118800000D03*
X133727500Y-118800000D03*
X133092500Y-118800000D03*
X133092500Y-124000000D03*
X133727500Y-124000000D03*
X134362500Y-124000000D03*
X134997500Y-124000000D03*
X135632500Y-124000000D03*
X136267500Y-124000000D03*
X136902500Y-124000000D03*
X137537500Y-124000000D03*
X138172500Y-124000000D03*
X138807500Y-124000000D03*
%TD*%
D26*
%TO.C,SW602*%
X123500000Y-66200000D03*
X123500000Y-72930000D03*
%TD*%
D12*
%TO.C,C307*%
X149700000Y-106012500D03*
X149700000Y-107837500D03*
%TD*%
D27*
%TO.C,Q603*%
X135050000Y-87100000D03*
X135050000Y-87750000D03*
X135050000Y-88400000D03*
X136950000Y-88400000D03*
X136950000Y-87750000D03*
X136950000Y-87100000D03*
%TD*%
D28*
%TO.C,R302*%
X149950000Y-134187500D03*
X149950000Y-132362500D03*
%TD*%
D26*
%TO.C,SW601*%
X148500000Y-66200000D03*
X148500000Y-72930000D03*
%TD*%
D28*
%TO.C,R501*%
X122200000Y-107875000D03*
X122200000Y-106050000D03*
%TD*%
D29*
%TO.C,D501*%
X149800000Y-86850000D03*
X146600000Y-86850000D03*
X146600000Y-91750000D03*
X149800000Y-91750000D03*
%TD*%
D23*
%TO.C,C606*%
X133212500Y-88950000D03*
X131387500Y-88950000D03*
%TD*%
D30*
%TO.C,C605*%
X121887500Y-75225000D03*
X123712500Y-75225000D03*
%TD*%
D23*
%TO.C,C601*%
X150125000Y-75250000D03*
X148300000Y-75250000D03*
%TD*%
%TO.C,C607*%
X133212500Y-90875000D03*
X131387500Y-90875000D03*
%TD*%
D30*
%TO.C,C303*%
X148312500Y-127200000D03*
X150137500Y-127200000D03*
%TD*%
D12*
%TO.C,C501*%
X128800000Y-109462500D03*
X128800000Y-111287500D03*
%TD*%
D28*
%TO.C,R301*%
X148025000Y-133637500D03*
X148025000Y-131812500D03*
%TD*%
D12*
%TO.C,C306*%
X141150000Y-106012500D03*
X141150000Y-107837500D03*
%TD*%
D30*
%TO.C,R605*%
X134762500Y-90875000D03*
X136587500Y-90875000D03*
%TD*%
D13*
%TO.C,U304*%
X148850000Y-111900000D03*
X147580000Y-111900000D03*
X146310000Y-111900000D03*
X145040000Y-111900000D03*
X145040000Y-116850000D03*
X146310000Y-116850000D03*
X147580000Y-116850000D03*
X148850000Y-116850000D03*
%TD*%
D28*
%TO.C,C302*%
X149950000Y-130775000D03*
X149950000Y-128950000D03*
%TD*%
%TO.C,R502*%
X125925000Y-107862500D03*
X125925000Y-106037500D03*
%TD*%
M02*
