%TF.GenerationSoftware,KiCad,Pcbnew,8.0.3-8.0.3-0~ubuntu22.04.1*%
%TF.CreationDate,2024-07-07T00:06:26-04:00*%
%TF.ProjectId,arm_drive_jl,61726d5f-6472-4697-9665-5f6a6c2e6b69,rev?*%
%TF.SameCoordinates,Original*%
%TF.FileFunction,Paste,Top*%
%TF.FilePolarity,Positive*%
%FSLAX46Y46*%
G04 Gerber Fmt 4.6, Leading zero omitted, Abs format (unit mm)*
G04 Created by KiCad (PCBNEW 8.0.3-8.0.3-0~ubuntu22.04.1) date 2024-07-07 00:06:26*
%MOMM*%
%LPD*%
G01*
G04 APERTURE LIST*
G04 Aperture macros list*
%AMRoundRect*
0 Rectangle with rounded corners*
0 $1 Rounding radius*
0 $2 $3 $4 $5 $6 $7 $8 $9 X,Y pos of 4 corners*
0 Add a 4 corners polygon primitive as box body*
4,1,4,$2,$3,$4,$5,$6,$7,$8,$9,$2,$3,0*
0 Add four circle primitives for the rounded corners*
1,1,$1+$1,$2,$3*
1,1,$1+$1,$4,$5*
1,1,$1+$1,$6,$7*
1,1,$1+$1,$8,$9*
0 Add four rect primitives between the rounded corners*
20,1,$1+$1,$2,$3,$4,$5,0*
20,1,$1+$1,$4,$5,$6,$7,0*
20,1,$1+$1,$6,$7,$8,$9,0*
20,1,$1+$1,$8,$9,$2,$3,0*%
G04 Aperture macros list end*
%ADD10RoundRect,0.250000X0.337500X0.475000X-0.337500X0.475000X-0.337500X-0.475000X0.337500X-0.475000X0*%
%ADD11O,1.600000X0.900000*%
%ADD12RoundRect,0.250000X-0.450000X0.550000X-0.450000X-0.550000X0.450000X-0.550000X0.450000X0.550000X0*%
%ADD13RoundRect,0.250000X-0.700000X0.700000X-0.700000X-0.700000X0.700000X-0.700000X0.700000X0.700000X0*%
%ADD14RoundRect,0.100000X-0.575000X0.100000X-0.575000X-0.100000X0.575000X-0.100000X0.575000X0.100000X0*%
%ADD15RoundRect,0.250000X0.475000X-0.337500X0.475000X0.337500X-0.475000X0.337500X-0.475000X-0.337500X0*%
%ADD16RoundRect,0.250000X-0.337500X-0.475000X0.337500X-0.475000X0.337500X0.475000X-0.337500X0.475000X0*%
%ADD17R,4.683400X0.762000*%
%ADD18R,9.557400X10.312400*%
%ADD19RoundRect,0.250000X0.350000X0.450000X-0.350000X0.450000X-0.350000X-0.450000X0.350000X-0.450000X0*%
%ADD20RoundRect,0.250000X-0.350000X-0.450000X0.350000X-0.450000X0.350000X0.450000X-0.350000X0.450000X0*%
%ADD21RoundRect,0.041300X-0.833700X-0.253700X0.833700X-0.253700X0.833700X0.253700X-0.833700X0.253700X0*%
G04 APERTURE END LIST*
D10*
%TO.C,C11*%
X94037500Y-64000000D03*
X91962500Y-64000000D03*
%TD*%
D11*
%TO.C,J6*%
X38500000Y-78275000D03*
D12*
X40950000Y-78175000D03*
D13*
X38500000Y-76175000D03*
X38500000Y-73775000D03*
D12*
X40950000Y-71775000D03*
D11*
X38500000Y-71675000D03*
D14*
X41175000Y-76275000D03*
X41175000Y-75625000D03*
X41175000Y-74975000D03*
X41175000Y-74325000D03*
X41175000Y-73675000D03*
%TD*%
D15*
%TO.C,C18*%
X85000000Y-81787500D03*
X85000000Y-79712500D03*
%TD*%
D16*
%TO.C,C8*%
X73212500Y-53500000D03*
X75287500Y-53500000D03*
%TD*%
D17*
%TO.C,U1*%
X79908300Y-50560000D03*
X79908300Y-49290000D03*
X79908300Y-48020000D03*
X79908300Y-46750000D03*
X79908300Y-45480000D03*
X79908300Y-44210000D03*
X79908300Y-42940000D03*
D18*
X69028700Y-46750000D03*
%TD*%
D15*
%TO.C,C7*%
X79500000Y-57287500D03*
X79500000Y-55212500D03*
%TD*%
D19*
%TO.C,R3*%
X89500000Y-48250000D03*
X91500000Y-48250000D03*
%TD*%
D10*
%TO.C,C4*%
X70537500Y-38750000D03*
X68462500Y-38750000D03*
%TD*%
D15*
%TO.C,C17*%
X81500000Y-81787500D03*
X81500000Y-79712500D03*
%TD*%
D20*
%TO.C,R8*%
X86750000Y-44750000D03*
X88750000Y-44750000D03*
%TD*%
D15*
%TO.C,C19*%
X97250000Y-81787500D03*
X97250000Y-79712500D03*
%TD*%
D10*
%TO.C,C10*%
X75787500Y-38750000D03*
X73712500Y-38750000D03*
%TD*%
D20*
%TO.C,R6*%
X86250000Y-48250000D03*
X84250000Y-48250000D03*
%TD*%
%TO.C,R9*%
X86750000Y-64000000D03*
X88750000Y-64000000D03*
%TD*%
D17*
%TO.C,U2*%
X79908300Y-69560000D03*
X79908300Y-68290000D03*
X79908300Y-67020000D03*
X79908300Y-65750000D03*
X79908300Y-64480000D03*
X79908300Y-63210000D03*
X79908300Y-61940000D03*
D18*
X69028700Y-65750000D03*
%TD*%
D20*
%TO.C,R13*%
X92750000Y-85250000D03*
X94750000Y-85250000D03*
%TD*%
D16*
%TO.C,C12*%
X96787500Y-48250000D03*
X94712500Y-48250000D03*
%TD*%
D20*
%TO.C,R7*%
X84250000Y-67500000D03*
X86250000Y-67500000D03*
%TD*%
D10*
%TO.C,C5*%
X75287500Y-58750000D03*
X73212500Y-58750000D03*
%TD*%
%TO.C,C6*%
X94037500Y-44750000D03*
X91962500Y-44750000D03*
%TD*%
D19*
%TO.C,R12*%
X94750000Y-76750000D03*
X92750000Y-76750000D03*
%TD*%
D21*
%TO.C,U5*%
X88415000Y-79095000D03*
X88415000Y-80365000D03*
X88415000Y-81635000D03*
X88415000Y-82905000D03*
X93585000Y-82905000D03*
X93585000Y-81635000D03*
X93585000Y-80365000D03*
X93585000Y-79095000D03*
%TD*%
D20*
%TO.C,R4*%
X89500000Y-67500000D03*
X91500000Y-67500000D03*
%TD*%
D16*
%TO.C,C13*%
X94712500Y-67500000D03*
X96787500Y-67500000D03*
%TD*%
%TO.C,C9*%
X72962500Y-73000000D03*
X75037500Y-73000000D03*
%TD*%
M02*
