M48
;Layer_Color=9474304
;FILE_FORMAT=4:4
METRIC,TZ
;TYPE=PLATED
T1F00S00C0.3000
T2F00S00C0.5000
T3F00S00C0.5300
T5F00S00C0.7000
T6F00S00C0.7600
T7F00S00C1.0000
T8F00S00C3.4000
;TYPE=NON_PLATED
T9F00S00C0.6500
T10F00S00C3.2000
%
T01
X478000Y272000
X512000Y382000
X420000Y361000
Y329000
X381000Y311000
X342000Y313000
X330000Y290000
X332000Y279000
X321000Y220000
Y206000
X328000Y213000
Y199000
X321000Y192000
X307000
X314000Y199000
X307000Y206000
X314000Y213000
X307000Y220000
X300000Y213000
Y199000
Y160000
X310000
X290000
Y120000
X300000
X310000
X317000Y85000
X279000Y81000
Y71000
Y49000
Y39000
X380000Y40000
Y30000
Y20000
Y10000
Y50000
Y60000
Y70000
Y80000
Y90000
X364000Y159000
X406000Y173000
Y180000
X264000Y146000
X261000Y134000
X253000Y141000
Y154000
X267000Y236000
Y242250
X237000Y320000
Y350000
Y380000
X203000
Y350000
Y320000
X211000Y295000
X165000Y290000
X135000Y310000
X113000Y318000
X106000Y324000
X98000
X119000Y351000
X137000
X143000Y345000
X158000Y126000
Y91000
X194000Y89000
Y99000
X204000
Y89000
Y79000
X194000
X116000Y77000
X119000Y27000
X110000
X101000
X102000Y126000
Y136000
X112000
Y126000
X28500Y167000
X11500
X11000Y206351
X11500Y233000
X28000Y247000
X38000Y193651
T02
X164000Y233000
Y251000
X240000Y300000
X305000Y261500
X375000Y270500
X398000
X43000Y233000
T03
X490000Y70000
T05
X290000Y307000
X310000
T06
X461100Y168250
Y193650
Y219050
Y244450
X486500Y231750
Y206350
Y180950
Y155550
X138900
Y180950
Y206350
Y231750
X113500Y219050
Y193650
Y168250
Y244450
T07
X274600Y350000
X300000
X325400
X325400Y375400
X300000
X274600Y375400
T08
X560000Y40000
X559999Y360000
X40000Y360000
Y40000
T09
X101099Y347813
X158899
T10
X550000Y142850
Y257150
X50000
Y142850
M30
