%TF.GenerationSoftware,KiCad,Pcbnew,8.0.1-8.0.1-1~ubuntu22.04.1*%
%TF.CreationDate,2024-04-03T01:55:53-04:00*%
%TF.ProjectId,esp32_rover_devkit,65737033-325f-4726-9f76-65725f646576,rev?*%
%TF.SameCoordinates,Original*%
%TF.FileFunction,Soldermask,Top*%
%TF.FilePolarity,Negative*%
%FSLAX46Y46*%
G04 Gerber Fmt 4.6, Leading zero omitted, Abs format (unit mm)*
G04 Created by KiCad (PCBNEW 8.0.1-8.0.1-1~ubuntu22.04.1) date 2024-04-03 01:55:53*
%MOMM*%
%LPD*%
G01*
G04 APERTURE LIST*
G04 Aperture macros list*
%AMRoundRect*
0 Rectangle with rounded corners*
0 $1 Rounding radius*
0 $2 $3 $4 $5 $6 $7 $8 $9 X,Y pos of 4 corners*
0 Add a 4 corners polygon primitive as box body*
4,1,4,$2,$3,$4,$5,$6,$7,$8,$9,$2,$3,0*
0 Add four circle primitives for the rounded corners*
1,1,$1+$1,$2,$3*
1,1,$1+$1,$4,$5*
1,1,$1+$1,$6,$7*
1,1,$1+$1,$8,$9*
0 Add four rect primitives between the rounded corners*
20,1,$1+$1,$2,$3,$4,$5,0*
20,1,$1+$1,$4,$5,$6,$7,0*
20,1,$1+$1,$6,$7,$8,$9,0*
20,1,$1+$1,$8,$9,$2,$3,0*%
G04 Aperture macros list end*
%ADD10C,2.600000*%
%ADD11C,3.800000*%
%ADD12RoundRect,0.250000X0.337500X0.475000X-0.337500X0.475000X-0.337500X-0.475000X0.337500X-0.475000X0*%
%ADD13RoundRect,0.150000X-0.825000X-0.150000X0.825000X-0.150000X0.825000X0.150000X-0.825000X0.150000X0*%
%ADD14RoundRect,0.250000X-0.350000X-0.450000X0.350000X-0.450000X0.350000X0.450000X-0.350000X0.450000X0*%
%ADD15R,0.900000X1.500000*%
%ADD16R,1.500000X0.900000*%
%ADD17R,3.900000X3.900000*%
%ADD18RoundRect,0.100000X-0.575000X0.100000X-0.575000X-0.100000X0.575000X-0.100000X0.575000X0.100000X0*%
%ADD19O,1.600000X0.900000*%
%ADD20RoundRect,0.250000X-0.450000X0.550000X-0.450000X-0.550000X0.450000X-0.550000X0.450000X0.550000X0*%
%ADD21RoundRect,0.250000X-0.700000X0.700000X-0.700000X-0.700000X0.700000X-0.700000X0.700000X0.700000X0*%
%ADD22C,3.350000*%
%ADD23RoundRect,0.102000X0.634000X0.634000X-0.634000X0.634000X-0.634000X-0.634000X0.634000X-0.634000X0*%
%ADD24C,1.472000*%
%ADD25O,3.000000X1.800000*%
%ADD26RoundRect,0.102000X-0.634000X-0.634000X0.634000X-0.634000X0.634000X0.634000X-0.634000X0.634000X0*%
%ADD27C,0.600000*%
G04 APERTURE END LIST*
D10*
%TO.C,H2*%
X46000000Y-23000000D03*
D11*
X46000000Y-23000000D03*
%TD*%
D10*
%TO.C,H4*%
X46000000Y-79000000D03*
D11*
X46000000Y-79000000D03*
%TD*%
D12*
%TO.C,C2*%
X22537500Y-61500000D03*
X20462500Y-61500000D03*
%TD*%
%TO.C,C3*%
X28037500Y-64500000D03*
X25962500Y-64500000D03*
%TD*%
D13*
%TO.C,U5*%
X36525000Y-63595000D03*
X36525000Y-64865000D03*
X36525000Y-66135000D03*
X36525000Y-67405000D03*
X41475000Y-67405000D03*
X41475000Y-66135000D03*
X41475000Y-64865000D03*
X41475000Y-63595000D03*
%TD*%
D12*
%TO.C,C1*%
X22537500Y-64500000D03*
X20462500Y-64500000D03*
%TD*%
D14*
%TO.C,R1*%
X26000000Y-61500000D03*
X28000000Y-61500000D03*
%TD*%
D15*
%TO.C,U1*%
X25880000Y-58750000D03*
X27150000Y-58750000D03*
X28420000Y-58750000D03*
X29690000Y-58750000D03*
X30960000Y-58750000D03*
X32230000Y-58750000D03*
X33500000Y-58750000D03*
X34770000Y-58750000D03*
X36040000Y-58750000D03*
X37310000Y-58750000D03*
X38580000Y-58750000D03*
X39850000Y-58750000D03*
X41120000Y-58750000D03*
X42390000Y-58750000D03*
D16*
X43640000Y-56985000D03*
X43640000Y-55715000D03*
X43640000Y-54445000D03*
X43640000Y-53175000D03*
X43640000Y-51905000D03*
X43640000Y-50635000D03*
X43640000Y-49365000D03*
X43640000Y-48095000D03*
X43640000Y-46825000D03*
X43640000Y-45555000D03*
X43640000Y-44285000D03*
X43640000Y-43015000D03*
D15*
X42390000Y-41250000D03*
X41120000Y-41250000D03*
X39850000Y-41250000D03*
X38580000Y-41250000D03*
X37310000Y-41250000D03*
X36040000Y-41250000D03*
X34770000Y-41250000D03*
X33500000Y-41250000D03*
X32230000Y-41250000D03*
X30960000Y-41250000D03*
X29690000Y-41250000D03*
X28420000Y-41250000D03*
X27150000Y-41250000D03*
X25880000Y-41250000D03*
D17*
X33600000Y-51500000D03*
%TD*%
D10*
%TO.C,H3*%
X21500000Y-79000000D03*
D11*
X21500000Y-79000000D03*
%TD*%
D10*
%TO.C,H1*%
X21500000Y-23000000D03*
D11*
X21500000Y-23000000D03*
%TD*%
D18*
%TO.C,J1*%
X24000000Y-70000000D03*
X24000000Y-70650000D03*
X24000000Y-71300000D03*
X24000000Y-71950000D03*
X24000000Y-72600000D03*
D19*
X21325000Y-68000000D03*
D20*
X23775000Y-68100000D03*
D21*
X21325000Y-70100000D03*
X21325000Y-72500000D03*
D20*
X23775000Y-74500000D03*
D19*
X21325000Y-74600000D03*
%TD*%
D22*
%TO.C,J3*%
X39500000Y-79120000D03*
X28068000Y-79120000D03*
D23*
X38229000Y-72770000D03*
D24*
X36959000Y-70230000D03*
X35689000Y-72770000D03*
X34419000Y-70230000D03*
X33149000Y-72770000D03*
X31879000Y-70230000D03*
X30609000Y-72770000D03*
X29339000Y-70230000D03*
%TD*%
D25*
%TO.C,U4*%
X46740000Y-57950000D03*
X22640000Y-45250000D03*
X22640000Y-47790000D03*
X22640000Y-50330000D03*
X22640000Y-52870000D03*
X46740000Y-55410000D03*
X22640000Y-55410000D03*
X22640000Y-57950000D03*
X46740000Y-52870000D03*
X46740000Y-50330000D03*
X46740000Y-47790000D03*
X46740000Y-45250000D03*
%TD*%
D22*
%TO.C,J2*%
X28068000Y-22880000D03*
X39500000Y-22880000D03*
D26*
X29339000Y-29230000D03*
D24*
X30609000Y-31770000D03*
X31879000Y-29230000D03*
X33149000Y-31770000D03*
X34419000Y-29230000D03*
X35689000Y-31770000D03*
X36959000Y-29230000D03*
X38229000Y-31770000D03*
%TD*%
D27*
X32500000Y-52000000D03*
X34500000Y-51000000D03*
X32500000Y-50000000D03*
X33500000Y-51000000D03*
X34500000Y-53000000D03*
X34861805Y-43006449D03*
X33500000Y-52000000D03*
X32500000Y-51000000D03*
X33500000Y-53000000D03*
X32500000Y-53000000D03*
X34500000Y-52000000D03*
X43122102Y-65429103D03*
X34500000Y-50000000D03*
X33500000Y-50000000D03*
X35500000Y-62000000D03*
X24500000Y-61500000D03*
X37500000Y-60000000D03*
X35500000Y-60000000D03*
X37500000Y-62000000D03*
X39500000Y-61000000D03*
X35500000Y-61000000D03*
X21000000Y-43000000D03*
X38500000Y-62000000D03*
X36500000Y-60000000D03*
X36500000Y-62000000D03*
X37500000Y-61000000D03*
X38500000Y-61000000D03*
X39500000Y-60000000D03*
X36500000Y-61000000D03*
X38500000Y-60000000D03*
X44500000Y-69500000D03*
X28037500Y-66037500D03*
X30000000Y-68000000D03*
X44000000Y-41000000D03*
X28000000Y-39500000D03*
X40500000Y-45500000D03*
X42000000Y-46500000D03*
M02*
