M48
; DRILL file {KiCad 8.0.1-8.0.1-1~ubuntu22.04.1} date 2024-04-16T20:31:56-0400
; FORMAT={-:-/ absolute / metric / decimal}
; #@! TF.CreationDate,2024-04-16T20:31:56-04:00
; #@! TF.GenerationSoftware,Kicad,Pcbnew,8.0.1-8.0.1-1~ubuntu22.04.1
; #@! TF.FileFunction,Plated,1,4,PTH
FMAT,2
METRIC
; #@! TA.AperFunction,Plated,PTH,ViaDrill
T1C0.300
; #@! TA.AperFunction,Plated,PTH,ComponentDrill
T2C0.760
; #@! TA.AperFunction,Plated,PTH,ComponentDrill
T3C0.800
; #@! TA.AperFunction,Plated,PTH,ComponentDrill
T4C0.900
; #@! TA.AperFunction,Plated,PTH,ComponentDrill
T5C1.000
; #@! TA.AperFunction,Plated,PTH,ComponentDrill
T6C1.020
; #@! TA.AperFunction,Plated,PTH,ComponentDrill
T7C1.300
; #@! TA.AperFunction,Plated,PTH,ComponentDrill
T8C1.600
; #@! TA.AperFunction,Plated,PTH,ComponentDrill
T9C3.200
%
G90
G05
T1
X24.5Y-98.87
X28.75Y-93.37
X28.75Y-94.87
X31.0Y-76.12
X31.75Y-71.37
X41.5Y-76.21
X42.25Y-74.46
X42.25Y-75.46
X53.25Y-28.37
X60.25Y-56.418
X61.5Y-63.87
X62.5Y-50.37
X66.25Y-48.87
X68.0Y-52.87
X71.75Y-51.37
X72.44Y-48.87
X73.75Y-84.25
X74.75Y-82.0
X74.75Y-83.25
X76.0Y-50.37
X77.5Y-63.87
X78.15Y-50.02
X79.5Y-46.62
X90.0Y-61.25
X91.0Y-61.25
X92.0Y-61.25
X93.0Y-61.25
X93.5Y-78.5
X94.0Y-61.25
X94.5Y-77.5
X95.0Y-61.25
X95.5Y-76.5
X97.5Y-61.87
X98.46Y-66.41
T2
X25.339Y-32.89
X26.609Y-30.35
X27.879Y-32.89
X29.149Y-30.35
X30.419Y-32.89
X31.689Y-30.35
X32.959Y-32.89
X34.229Y-30.35
X40.249Y-108.45
X41.519Y-105.91
X42.789Y-108.45
X44.059Y-105.91
X45.329Y-108.45
X46.599Y-105.91
X47.869Y-108.45
X49.139Y-105.91
X56.659Y-108.5
X57.929Y-105.96
X59.199Y-108.5
X60.469Y-105.96
X61.739Y-108.5
X63.009Y-105.96
X64.279Y-108.5
X65.549Y-105.96
X72.98Y-108.5
X74.25Y-105.96
X75.52Y-108.5
X76.79Y-105.96
X78.06Y-108.5
X79.33Y-105.96
X80.6Y-108.5
X81.87Y-105.96
X89.28Y-108.6
X90.55Y-106.06
X91.82Y-108.6
X93.09Y-106.06
X94.36Y-108.6
X95.63Y-106.06
X96.9Y-108.6
X98.17Y-106.06
X104.071Y-32.87
X105.341Y-30.33
X106.611Y-32.87
X107.881Y-30.33
X109.151Y-32.87
X110.421Y-30.33
X111.691Y-32.87
X112.961Y-30.33
T3
X50.0Y-91.46
X50.0Y-93.46
X50.0Y-97.71
X50.0Y-99.71
X88.75Y-97.96
X88.75Y-99.96
T4
X25.255Y-67.59
X25.267Y-50.32
X26.525Y-65.05
X26.537Y-47.78
X27.795Y-67.59
X27.807Y-50.32
X29.065Y-65.05
X29.077Y-47.78
X30.335Y-67.59
X30.348Y-50.32
X31.605Y-65.05
X31.617Y-47.78
X32.875Y-67.59
X32.887Y-50.32
X34.145Y-65.05
X34.157Y-47.78
X43.8Y-35.89
X43.8Y-42.46
X45.07Y-33.35
X45.07Y-39.92
X46.34Y-35.89
X46.34Y-42.46
X47.61Y-33.35
X47.61Y-39.92
X48.88Y-35.89
X48.88Y-42.46
X50.15Y-33.35
X50.15Y-39.92
X51.42Y-35.89
X51.42Y-42.46
X52.69Y-33.35
X52.69Y-39.92
X57.77Y-35.89
X57.77Y-42.46
X59.04Y-33.35
X59.04Y-39.92
X60.31Y-35.89
X60.31Y-42.46
X61.58Y-33.35
X61.58Y-39.92
X62.85Y-35.89
X62.85Y-42.46
X64.12Y-33.35
X64.12Y-39.92
X65.39Y-35.89
X65.39Y-42.46
X66.66Y-33.35
X66.66Y-39.92
X71.74Y-35.89
X71.74Y-42.46
X73.01Y-33.35
X73.01Y-39.92
X74.28Y-35.89
X74.28Y-42.46
X75.55Y-33.35
X75.55Y-39.92
X76.82Y-35.89
X76.82Y-42.46
X78.09Y-33.35
X78.09Y-39.92
X79.36Y-35.89
X79.36Y-42.46
X80.63Y-33.35
X80.63Y-39.92
X85.71Y-35.89
X85.71Y-42.46
X86.98Y-33.35
X86.98Y-39.92
X88.25Y-35.89
X88.25Y-42.46
X89.52Y-33.35
X89.52Y-39.92
X90.79Y-35.89
X90.79Y-42.46
X92.06Y-33.35
X92.06Y-39.92
X93.33Y-35.89
X93.33Y-42.46
X94.6Y-33.35
X94.6Y-39.92
X104.055Y-50.42
X104.055Y-67.89
X105.325Y-47.88
X105.325Y-65.35
X106.595Y-50.42
X106.595Y-67.89
X107.865Y-47.88
X107.865Y-65.35
X109.135Y-50.42
X109.135Y-67.89
X110.405Y-47.88
X110.405Y-65.35
X111.675Y-50.42
X111.675Y-67.89
X112.945Y-47.88
X112.945Y-65.35
T5
X43.5Y-87.725
X43.5Y-90.265
X75.75Y-94.935
X75.75Y-97.475
X96.83Y-89.29
X96.83Y-91.83
X99.92Y-77.0
X99.92Y-81.0
X99.96Y-73.0
X102.46Y-77.0
X102.46Y-81.0
X102.5Y-73.0
T6
X56.4Y-56.44
X56.4Y-58.98
X56.4Y-61.52
X56.4Y-64.06
X56.4Y-66.6
X56.4Y-69.14
X56.4Y-71.68
X56.4Y-74.22
X56.4Y-76.76
X56.4Y-79.3
X56.4Y-81.84
X56.4Y-84.38
X56.4Y-86.92
X56.4Y-89.46
X56.4Y-92.0
X81.8Y-56.44
X81.8Y-58.98
X81.8Y-61.52
X81.8Y-64.06
X81.8Y-66.6
X81.8Y-69.14
X81.8Y-71.68
X81.8Y-74.22
X81.8Y-76.76
X81.8Y-79.3
X81.8Y-81.84
X81.8Y-84.38
X81.8Y-86.92
X81.8Y-89.46
X81.8Y-92.0
T7
X24.712Y-104.767
X24.712Y-112.387
X29.793Y-104.767
X29.793Y-112.387
X105.417Y-99.597
X105.417Y-104.677
X105.417Y-109.757
X105.417Y-114.837
X106.762Y-73.317
X106.762Y-80.938
X111.843Y-73.317
X111.843Y-80.938
X113.037Y-99.597
X113.037Y-104.677
X113.037Y-109.757
X113.037Y-114.837
T8
X39.74Y-22.43
X39.74Y-38.4
X40.405Y-32.85
X47.9Y-54.04
X47.9Y-63.96
X51.3Y-54.04
X51.3Y-63.96
X87.1Y-53.99
X87.1Y-63.91
X90.5Y-53.99
X90.5Y-63.91
X97.995Y-36.15
X98.66Y-22.43
X98.66Y-42.46
T9
X42.3Y-48.9
X42.4Y-98.8
X96.8Y-48.9
X96.8Y-99.0
M30
