%TF.GenerationSoftware,KiCad,Pcbnew,8.0.1-8.0.1-1~ubuntu22.04.1*%
%TF.CreationDate,2024-04-16T20:31:58-04:00*%
%TF.ProjectId,pdb,7064622e-6b69-4636-9164-5f7063625858,rev?*%
%TF.SameCoordinates,Original*%
%TF.FileFunction,Drillmap*%
%TF.FilePolarity,Positive*%
%FSLAX45Y45*%
G04 Gerber Fmt 4.5, Leading zero omitted, Abs format (unit mm)*
G04 Created by KiCad (PCBNEW 8.0.1-8.0.1-1~ubuntu22.04.1) date 2024-04-16 20:31:58*
%MOMM*%
%LPD*%
G01*
G04 APERTURE LIST*
%ADD10C,0.050000*%
%ADD11C,0.200000*%
%ADD12C,0.100000*%
%ADD13C,0.102000*%
%ADD14C,0.130000*%
%ADD15C,0.160000*%
%ADD16C,0.320000*%
G04 APERTURE END LIST*
D10*
X10450000Y-8900000D02*
X10450000Y-9200000D01*
X2400000Y-1962132D02*
X11450000Y-1962132D01*
X11750000Y-8500000D02*
G75*
G02*
X11550000Y-8700000I-200000J0D01*
G01*
X11750000Y-11450000D02*
G75*
G02*
X11450000Y-11750000I-300000J0D01*
G01*
X11450000Y-11750000D02*
X2400000Y-11750000D01*
X2100000Y-2262132D02*
G75*
G02*
X2400000Y-1962132I300000J0D01*
G01*
X10450000Y-8900000D02*
G75*
G02*
X10650000Y-8700000I200000J0D01*
G01*
X11550000Y-9400000D02*
G75*
G02*
X11750000Y-9600000I0J-200000D01*
G01*
X10650000Y-8700000D02*
X11550000Y-8700000D01*
X2100000Y-11450000D02*
X2100000Y-2262132D01*
X10650000Y-9400000D02*
G75*
G02*
X10450000Y-9200000I0J200000D01*
G01*
X11750000Y-2262132D02*
X11750000Y-8500000D01*
X2400000Y-11750000D02*
G75*
G02*
X2100000Y-11450000I0J300000D01*
G01*
X11750000Y-9600000D02*
X11750000Y-11450000D01*
X11450000Y-1962132D02*
G75*
G02*
X11749998Y-2262132I0J-299998D01*
G01*
X11550000Y-9400000D02*
X10650000Y-9400000D01*
D11*
D12*
X2435000Y-9872000D02*
X2465000Y-9902000D01*
X2465000Y-9872000D02*
X2435000Y-9902000D01*
X2860000Y-9322000D02*
X2890000Y-9352000D01*
X2890000Y-9322000D02*
X2860000Y-9352000D01*
X2860000Y-9472000D02*
X2890000Y-9502000D01*
X2890000Y-9472000D02*
X2860000Y-9502000D01*
X3085000Y-7597000D02*
X3115000Y-7627000D01*
X3115000Y-7597000D02*
X3085000Y-7627000D01*
X3160000Y-7122000D02*
X3190000Y-7152000D01*
X3190000Y-7122000D02*
X3160000Y-7152000D01*
X4135000Y-7606000D02*
X4165000Y-7636000D01*
X4165000Y-7606000D02*
X4135000Y-7636000D01*
X4210000Y-7431000D02*
X4240000Y-7461000D01*
X4240000Y-7431000D02*
X4210000Y-7461000D01*
X4210000Y-7531000D02*
X4240000Y-7561000D01*
X4240000Y-7531000D02*
X4210000Y-7561000D01*
X5310000Y-2822000D02*
X5340000Y-2852000D01*
X5340000Y-2822000D02*
X5310000Y-2852000D01*
X6010000Y-5626750D02*
X6040000Y-5656750D01*
X6040000Y-5626750D02*
X6010000Y-5656750D01*
X6135000Y-6372000D02*
X6165000Y-6402000D01*
X6165000Y-6372000D02*
X6135000Y-6402000D01*
X6235000Y-5022000D02*
X6265000Y-5052000D01*
X6265000Y-5022000D02*
X6235000Y-5052000D01*
X6610000Y-4872000D02*
X6640000Y-4902000D01*
X6640000Y-4872000D02*
X6610000Y-4902000D01*
X6785000Y-5272000D02*
X6815000Y-5302000D01*
X6815000Y-5272000D02*
X6785000Y-5302000D01*
X7160000Y-5122000D02*
X7190000Y-5152000D01*
X7190000Y-5122000D02*
X7160000Y-5152000D01*
X7229000Y-4872000D02*
X7259000Y-4902000D01*
X7259000Y-4872000D02*
X7229000Y-4902000D01*
X7360000Y-8410000D02*
X7390000Y-8440000D01*
X7390000Y-8410000D02*
X7360000Y-8440000D01*
X7460000Y-8185000D02*
X7490000Y-8215000D01*
X7490000Y-8185000D02*
X7460000Y-8215000D01*
X7460000Y-8310000D02*
X7490000Y-8340000D01*
X7490000Y-8310000D02*
X7460000Y-8340000D01*
X7585000Y-5022000D02*
X7615000Y-5052000D01*
X7615000Y-5022000D02*
X7585000Y-5052000D01*
X7735000Y-6372000D02*
X7765000Y-6402000D01*
X7765000Y-6372000D02*
X7735000Y-6402000D01*
X7800000Y-4987000D02*
X7830000Y-5017000D01*
X7830000Y-4987000D02*
X7800000Y-5017000D01*
X7935000Y-4647000D02*
X7965000Y-4677000D01*
X7965000Y-4647000D02*
X7935000Y-4677000D01*
X8985000Y-6110000D02*
X9015000Y-6140000D01*
X9015000Y-6110000D02*
X8985000Y-6140000D01*
X9085000Y-6110000D02*
X9115000Y-6140000D01*
X9115000Y-6110000D02*
X9085000Y-6140000D01*
X9185000Y-6110000D02*
X9215000Y-6140000D01*
X9215000Y-6110000D02*
X9185000Y-6140000D01*
X9285000Y-6110000D02*
X9315000Y-6140000D01*
X9315000Y-6110000D02*
X9285000Y-6140000D01*
X9335000Y-7835000D02*
X9365000Y-7865000D01*
X9365000Y-7835000D02*
X9335000Y-7865000D01*
X9385000Y-6110000D02*
X9415000Y-6140000D01*
X9415000Y-6110000D02*
X9385000Y-6140000D01*
X9435000Y-7735000D02*
X9465000Y-7765000D01*
X9465000Y-7735000D02*
X9435000Y-7765000D01*
X9485000Y-6110000D02*
X9515000Y-6140000D01*
X9515000Y-6110000D02*
X9485000Y-6140000D01*
X9535000Y-7635000D02*
X9565000Y-7665000D01*
X9565000Y-7635000D02*
X9535000Y-7665000D01*
X9735000Y-6172000D02*
X9765000Y-6202000D01*
X9765000Y-6172000D02*
X9735000Y-6202000D01*
X9831000Y-6626000D02*
X9861000Y-6656000D01*
X9861000Y-6626000D02*
X9831000Y-6656000D01*
X2571900Y-3289000D02*
G75*
G02*
X2495900Y-3289000I-38000J0D01*
G01*
X2495900Y-3289000D02*
G75*
G02*
X2571900Y-3289000I38000J0D01*
G01*
X2698900Y-3035000D02*
G75*
G02*
X2622900Y-3035000I-38000J0D01*
G01*
X2622900Y-3035000D02*
G75*
G02*
X2698900Y-3035000I38000J0D01*
G01*
X2825900Y-3289000D02*
G75*
G02*
X2749900Y-3289000I-38000J0D01*
G01*
X2749900Y-3289000D02*
G75*
G02*
X2825900Y-3289000I38000J0D01*
G01*
X2952900Y-3035000D02*
G75*
G02*
X2876900Y-3035000I-38000J0D01*
G01*
X2876900Y-3035000D02*
G75*
G02*
X2952900Y-3035000I38000J0D01*
G01*
X3079900Y-3289000D02*
G75*
G02*
X3003900Y-3289000I-38000J0D01*
G01*
X3003900Y-3289000D02*
G75*
G02*
X3079900Y-3289000I38000J0D01*
G01*
X3206900Y-3035000D02*
G75*
G02*
X3130900Y-3035000I-38000J0D01*
G01*
X3130900Y-3035000D02*
G75*
G02*
X3206900Y-3035000I38000J0D01*
G01*
X3333900Y-3289000D02*
G75*
G02*
X3257900Y-3289000I-38000J0D01*
G01*
X3257900Y-3289000D02*
G75*
G02*
X3333900Y-3289000I38000J0D01*
G01*
X3460900Y-3035000D02*
G75*
G02*
X3384900Y-3035000I-38000J0D01*
G01*
X3384900Y-3035000D02*
G75*
G02*
X3460900Y-3035000I38000J0D01*
G01*
X4062900Y-10845000D02*
G75*
G02*
X3986900Y-10845000I-38000J0D01*
G01*
X3986900Y-10845000D02*
G75*
G02*
X4062900Y-10845000I38000J0D01*
G01*
X4189900Y-10591000D02*
G75*
G02*
X4113900Y-10591000I-38000J0D01*
G01*
X4113900Y-10591000D02*
G75*
G02*
X4189900Y-10591000I38000J0D01*
G01*
X4316900Y-10845000D02*
G75*
G02*
X4240900Y-10845000I-38000J0D01*
G01*
X4240900Y-10845000D02*
G75*
G02*
X4316900Y-10845000I38000J0D01*
G01*
X4443900Y-10591000D02*
G75*
G02*
X4367900Y-10591000I-38000J0D01*
G01*
X4367900Y-10591000D02*
G75*
G02*
X4443900Y-10591000I38000J0D01*
G01*
X4570900Y-10845000D02*
G75*
G02*
X4494900Y-10845000I-38000J0D01*
G01*
X4494900Y-10845000D02*
G75*
G02*
X4570900Y-10845000I38000J0D01*
G01*
X4697900Y-10591000D02*
G75*
G02*
X4621900Y-10591000I-38000J0D01*
G01*
X4621900Y-10591000D02*
G75*
G02*
X4697900Y-10591000I38000J0D01*
G01*
X4824900Y-10845000D02*
G75*
G02*
X4748900Y-10845000I-38000J0D01*
G01*
X4748900Y-10845000D02*
G75*
G02*
X4824900Y-10845000I38000J0D01*
G01*
X4951900Y-10591000D02*
G75*
G02*
X4875900Y-10591000I-38000J0D01*
G01*
X4875900Y-10591000D02*
G75*
G02*
X4951900Y-10591000I38000J0D01*
G01*
X5703900Y-10850000D02*
G75*
G02*
X5627900Y-10850000I-38000J0D01*
G01*
X5627900Y-10850000D02*
G75*
G02*
X5703900Y-10850000I38000J0D01*
G01*
X5830900Y-10596000D02*
G75*
G02*
X5754900Y-10596000I-38000J0D01*
G01*
X5754900Y-10596000D02*
G75*
G02*
X5830900Y-10596000I38000J0D01*
G01*
X5957900Y-10850000D02*
G75*
G02*
X5881900Y-10850000I-38000J0D01*
G01*
X5881900Y-10850000D02*
G75*
G02*
X5957900Y-10850000I38000J0D01*
G01*
X6084900Y-10596000D02*
G75*
G02*
X6008900Y-10596000I-38000J0D01*
G01*
X6008900Y-10596000D02*
G75*
G02*
X6084900Y-10596000I38000J0D01*
G01*
X6211900Y-10850000D02*
G75*
G02*
X6135900Y-10850000I-38000J0D01*
G01*
X6135900Y-10850000D02*
G75*
G02*
X6211900Y-10850000I38000J0D01*
G01*
X6338900Y-10596000D02*
G75*
G02*
X6262900Y-10596000I-38000J0D01*
G01*
X6262900Y-10596000D02*
G75*
G02*
X6338900Y-10596000I38000J0D01*
G01*
X6465900Y-10850000D02*
G75*
G02*
X6389900Y-10850000I-38000J0D01*
G01*
X6389900Y-10850000D02*
G75*
G02*
X6465900Y-10850000I38000J0D01*
G01*
X6592900Y-10596000D02*
G75*
G02*
X6516900Y-10596000I-38000J0D01*
G01*
X6516900Y-10596000D02*
G75*
G02*
X6592900Y-10596000I38000J0D01*
G01*
X7336000Y-10850000D02*
G75*
G02*
X7260000Y-10850000I-38000J0D01*
G01*
X7260000Y-10850000D02*
G75*
G02*
X7336000Y-10850000I38000J0D01*
G01*
X7463000Y-10596000D02*
G75*
G02*
X7387000Y-10596000I-38000J0D01*
G01*
X7387000Y-10596000D02*
G75*
G02*
X7463000Y-10596000I38000J0D01*
G01*
X7590000Y-10850000D02*
G75*
G02*
X7514000Y-10850000I-38000J0D01*
G01*
X7514000Y-10850000D02*
G75*
G02*
X7590000Y-10850000I38000J0D01*
G01*
X7717000Y-10596000D02*
G75*
G02*
X7641000Y-10596000I-38000J0D01*
G01*
X7641000Y-10596000D02*
G75*
G02*
X7717000Y-10596000I38000J0D01*
G01*
X7844000Y-10850000D02*
G75*
G02*
X7768000Y-10850000I-38000J0D01*
G01*
X7768000Y-10850000D02*
G75*
G02*
X7844000Y-10850000I38000J0D01*
G01*
X7971000Y-10596000D02*
G75*
G02*
X7895000Y-10596000I-38000J0D01*
G01*
X7895000Y-10596000D02*
G75*
G02*
X7971000Y-10596000I38000J0D01*
G01*
X8098000Y-10850000D02*
G75*
G02*
X8022000Y-10850000I-38000J0D01*
G01*
X8022000Y-10850000D02*
G75*
G02*
X8098000Y-10850000I38000J0D01*
G01*
X8225000Y-10596000D02*
G75*
G02*
X8149000Y-10596000I-38000J0D01*
G01*
X8149000Y-10596000D02*
G75*
G02*
X8225000Y-10596000I38000J0D01*
G01*
X8966000Y-10860000D02*
G75*
G02*
X8890000Y-10860000I-38000J0D01*
G01*
X8890000Y-10860000D02*
G75*
G02*
X8966000Y-10860000I38000J0D01*
G01*
X9093000Y-10606000D02*
G75*
G02*
X9017000Y-10606000I-38000J0D01*
G01*
X9017000Y-10606000D02*
G75*
G02*
X9093000Y-10606000I38000J0D01*
G01*
X9220000Y-10860000D02*
G75*
G02*
X9144000Y-10860000I-38000J0D01*
G01*
X9144000Y-10860000D02*
G75*
G02*
X9220000Y-10860000I38000J0D01*
G01*
X9347000Y-10606000D02*
G75*
G02*
X9271000Y-10606000I-38000J0D01*
G01*
X9271000Y-10606000D02*
G75*
G02*
X9347000Y-10606000I38000J0D01*
G01*
X9474000Y-10860000D02*
G75*
G02*
X9398000Y-10860000I-38000J0D01*
G01*
X9398000Y-10860000D02*
G75*
G02*
X9474000Y-10860000I38000J0D01*
G01*
X9601000Y-10606000D02*
G75*
G02*
X9525000Y-10606000I-38000J0D01*
G01*
X9525000Y-10606000D02*
G75*
G02*
X9601000Y-10606000I38000J0D01*
G01*
X9728000Y-10860000D02*
G75*
G02*
X9652000Y-10860000I-38000J0D01*
G01*
X9652000Y-10860000D02*
G75*
G02*
X9728000Y-10860000I38000J0D01*
G01*
X9855000Y-10606000D02*
G75*
G02*
X9779000Y-10606000I-38000J0D01*
G01*
X9779000Y-10606000D02*
G75*
G02*
X9855000Y-10606000I38000J0D01*
G01*
X10445100Y-3287000D02*
G75*
G02*
X10369100Y-3287000I-38000J0D01*
G01*
X10369100Y-3287000D02*
G75*
G02*
X10445100Y-3287000I38000J0D01*
G01*
X10572100Y-3033000D02*
G75*
G02*
X10496100Y-3033000I-38000J0D01*
G01*
X10496100Y-3033000D02*
G75*
G02*
X10572100Y-3033000I38000J0D01*
G01*
X10699100Y-3287000D02*
G75*
G02*
X10623100Y-3287000I-38000J0D01*
G01*
X10623100Y-3287000D02*
G75*
G02*
X10699100Y-3287000I38000J0D01*
G01*
X10826100Y-3033000D02*
G75*
G02*
X10750100Y-3033000I-38000J0D01*
G01*
X10750100Y-3033000D02*
G75*
G02*
X10826100Y-3033000I38000J0D01*
G01*
X10953100Y-3287000D02*
G75*
G02*
X10877100Y-3287000I-38000J0D01*
G01*
X10877100Y-3287000D02*
G75*
G02*
X10953100Y-3287000I38000J0D01*
G01*
X11080100Y-3033000D02*
G75*
G02*
X11004100Y-3033000I-38000J0D01*
G01*
X11004100Y-3033000D02*
G75*
G02*
X11080100Y-3033000I38000J0D01*
G01*
X11207100Y-3287000D02*
G75*
G02*
X11131100Y-3287000I-38000J0D01*
G01*
X11131100Y-3287000D02*
G75*
G02*
X11207100Y-3287000I38000J0D01*
G01*
X11334100Y-3033000D02*
G75*
G02*
X11258100Y-3033000I-38000J0D01*
G01*
X11258100Y-3033000D02*
G75*
G02*
X11334100Y-3033000I38000J0D01*
G01*
X5000000Y-9106000D02*
X5000000Y-9186000D01*
X4960000Y-9146000D02*
X5040000Y-9146000D01*
X5000000Y-9306000D02*
X5000000Y-9386000D01*
X4960000Y-9346000D02*
X5040000Y-9346000D01*
X5000000Y-9731000D02*
X5000000Y-9811000D01*
X4960000Y-9771000D02*
X5040000Y-9771000D01*
X5000000Y-9931000D02*
X5000000Y-10011000D01*
X4960000Y-9971000D02*
X5040000Y-9971000D01*
X8875000Y-9756000D02*
X8875000Y-9836000D01*
X8835000Y-9796000D02*
X8915000Y-9796000D01*
X8875000Y-9956000D02*
X8875000Y-10036000D01*
X8835000Y-9996000D02*
X8915000Y-9996000D01*
X2557320Y-6790820D02*
X2557320Y-6727180D01*
X2493680Y-6727180D01*
X2493680Y-6790820D01*
X2557320Y-6790820D01*
X2558570Y-5063820D02*
X2558570Y-5000180D01*
X2494930Y-5000180D01*
X2494930Y-5063820D01*
X2558570Y-5063820D01*
X2684320Y-6536820D02*
X2684320Y-6473180D01*
X2620680Y-6473180D01*
X2620680Y-6536820D01*
X2684320Y-6536820D01*
X2685570Y-4809820D02*
X2685570Y-4746180D01*
X2621930Y-4746180D01*
X2621930Y-4809820D01*
X2685570Y-4809820D01*
X2811320Y-6790820D02*
X2811320Y-6727180D01*
X2747680Y-6727180D01*
X2747680Y-6790820D01*
X2811320Y-6790820D01*
X2812570Y-5063820D02*
X2812570Y-5000180D01*
X2748930Y-5000180D01*
X2748930Y-5063820D01*
X2812570Y-5063820D01*
X2938320Y-6536820D02*
X2938320Y-6473180D01*
X2874680Y-6473180D01*
X2874680Y-6536820D01*
X2938320Y-6536820D01*
X2939570Y-4809820D02*
X2939570Y-4746180D01*
X2875930Y-4746180D01*
X2875930Y-4809820D01*
X2939570Y-4809820D01*
X3065320Y-6790820D02*
X3065320Y-6727180D01*
X3001680Y-6727180D01*
X3001680Y-6790820D01*
X3065320Y-6790820D01*
X3066570Y-5063820D02*
X3066570Y-5000180D01*
X3002930Y-5000180D01*
X3002930Y-5063820D01*
X3066570Y-5063820D01*
X3192320Y-6536820D02*
X3192320Y-6473180D01*
X3128680Y-6473180D01*
X3128680Y-6536820D01*
X3192320Y-6536820D01*
X3193570Y-4809820D02*
X3193570Y-4746180D01*
X3129930Y-4746180D01*
X3129930Y-4809820D01*
X3193570Y-4809820D01*
X3319320Y-6790820D02*
X3319320Y-6727180D01*
X3255680Y-6727180D01*
X3255680Y-6790820D01*
X3319320Y-6790820D01*
X3320570Y-5063820D02*
X3320570Y-5000180D01*
X3256930Y-5000180D01*
X3256930Y-5063820D01*
X3320570Y-5063820D01*
X3446320Y-6536820D02*
X3446320Y-6473180D01*
X3382680Y-6473180D01*
X3382680Y-6536820D01*
X3446320Y-6536820D01*
X3447570Y-4809820D02*
X3447570Y-4746180D01*
X3383930Y-4746180D01*
X3383930Y-4809820D01*
X3447570Y-4809820D01*
X4411820Y-3620820D02*
X4411820Y-3557180D01*
X4348180Y-3557180D01*
X4348180Y-3620820D01*
X4411820Y-3620820D01*
X4411820Y-4277820D02*
X4411820Y-4214180D01*
X4348180Y-4214180D01*
X4348180Y-4277820D01*
X4411820Y-4277820D01*
X4538820Y-3366820D02*
X4538820Y-3303180D01*
X4475180Y-3303180D01*
X4475180Y-3366820D01*
X4538820Y-3366820D01*
X4538820Y-4023820D02*
X4538820Y-3960180D01*
X4475180Y-3960180D01*
X4475180Y-4023820D01*
X4538820Y-4023820D01*
X4665820Y-3620820D02*
X4665820Y-3557180D01*
X4602180Y-3557180D01*
X4602180Y-3620820D01*
X4665820Y-3620820D01*
X4665820Y-4277820D02*
X4665820Y-4214180D01*
X4602180Y-4214180D01*
X4602180Y-4277820D01*
X4665820Y-4277820D01*
X4792820Y-3366820D02*
X4792820Y-3303180D01*
X4729180Y-3303180D01*
X4729180Y-3366820D01*
X4792820Y-3366820D01*
X4792820Y-4023820D02*
X4792820Y-3960180D01*
X4729180Y-3960180D01*
X4729180Y-4023820D01*
X4792820Y-4023820D01*
X4919820Y-3620820D02*
X4919820Y-3557180D01*
X4856180Y-3557180D01*
X4856180Y-3620820D01*
X4919820Y-3620820D01*
X4919820Y-4277820D02*
X4919820Y-4214180D01*
X4856180Y-4214180D01*
X4856180Y-4277820D01*
X4919820Y-4277820D01*
X5046820Y-3366820D02*
X5046820Y-3303180D01*
X4983180Y-3303180D01*
X4983180Y-3366820D01*
X5046820Y-3366820D01*
X5046820Y-4023820D02*
X5046820Y-3960180D01*
X4983180Y-3960180D01*
X4983180Y-4023820D01*
X5046820Y-4023820D01*
X5173820Y-3620820D02*
X5173820Y-3557180D01*
X5110180Y-3557180D01*
X5110180Y-3620820D01*
X5173820Y-3620820D01*
X5173820Y-4277820D02*
X5173820Y-4214180D01*
X5110180Y-4214180D01*
X5110180Y-4277820D01*
X5173820Y-4277820D01*
X5300820Y-3366820D02*
X5300820Y-3303180D01*
X5237180Y-3303180D01*
X5237180Y-3366820D01*
X5300820Y-3366820D01*
X5300820Y-4023820D02*
X5300820Y-3960180D01*
X5237180Y-3960180D01*
X5237180Y-4023820D01*
X5300820Y-4023820D01*
X5808820Y-3620820D02*
X5808820Y-3557180D01*
X5745180Y-3557180D01*
X5745180Y-3620820D01*
X5808820Y-3620820D01*
X5808820Y-4277820D02*
X5808820Y-4214180D01*
X5745180Y-4214180D01*
X5745180Y-4277820D01*
X5808820Y-4277820D01*
X5935820Y-3366820D02*
X5935820Y-3303180D01*
X5872180Y-3303180D01*
X5872180Y-3366820D01*
X5935820Y-3366820D01*
X5935820Y-4023820D02*
X5935820Y-3960180D01*
X5872180Y-3960180D01*
X5872180Y-4023820D01*
X5935820Y-4023820D01*
X6062820Y-3620820D02*
X6062820Y-3557180D01*
X5999180Y-3557180D01*
X5999180Y-3620820D01*
X6062820Y-3620820D01*
X6062820Y-4277820D02*
X6062820Y-4214180D01*
X5999180Y-4214180D01*
X5999180Y-4277820D01*
X6062820Y-4277820D01*
X6189820Y-3366820D02*
X6189820Y-3303180D01*
X6126180Y-3303180D01*
X6126180Y-3366820D01*
X6189820Y-3366820D01*
X6189820Y-4023820D02*
X6189820Y-3960180D01*
X6126180Y-3960180D01*
X6126180Y-4023820D01*
X6189820Y-4023820D01*
X6316820Y-3620820D02*
X6316820Y-3557180D01*
X6253180Y-3557180D01*
X6253180Y-3620820D01*
X6316820Y-3620820D01*
X6316820Y-4277820D02*
X6316820Y-4214180D01*
X6253180Y-4214180D01*
X6253180Y-4277820D01*
X6316820Y-4277820D01*
X6443820Y-3366820D02*
X6443820Y-3303180D01*
X6380180Y-3303180D01*
X6380180Y-3366820D01*
X6443820Y-3366820D01*
X6443820Y-4023820D02*
X6443820Y-3960180D01*
X6380180Y-3960180D01*
X6380180Y-4023820D01*
X6443820Y-4023820D01*
X6570820Y-3620820D02*
X6570820Y-3557180D01*
X6507180Y-3557180D01*
X6507180Y-3620820D01*
X6570820Y-3620820D01*
X6570820Y-4277820D02*
X6570820Y-4214180D01*
X6507180Y-4214180D01*
X6507180Y-4277820D01*
X6570820Y-4277820D01*
X6697820Y-3366820D02*
X6697820Y-3303180D01*
X6634180Y-3303180D01*
X6634180Y-3366820D01*
X6697820Y-3366820D01*
X6697820Y-4023820D02*
X6697820Y-3960180D01*
X6634180Y-3960180D01*
X6634180Y-4023820D01*
X6697820Y-4023820D01*
X7205820Y-3620820D02*
X7205820Y-3557180D01*
X7142180Y-3557180D01*
X7142180Y-3620820D01*
X7205820Y-3620820D01*
X7205820Y-4277820D02*
X7205820Y-4214180D01*
X7142180Y-4214180D01*
X7142180Y-4277820D01*
X7205820Y-4277820D01*
X7332820Y-3366820D02*
X7332820Y-3303180D01*
X7269180Y-3303180D01*
X7269180Y-3366820D01*
X7332820Y-3366820D01*
X7332820Y-4023820D02*
X7332820Y-3960180D01*
X7269180Y-3960180D01*
X7269180Y-4023820D01*
X7332820Y-4023820D01*
X7459820Y-3620820D02*
X7459820Y-3557180D01*
X7396180Y-3557180D01*
X7396180Y-3620820D01*
X7459820Y-3620820D01*
X7459820Y-4277820D02*
X7459820Y-4214180D01*
X7396180Y-4214180D01*
X7396180Y-4277820D01*
X7459820Y-4277820D01*
X7586820Y-3366820D02*
X7586820Y-3303180D01*
X7523180Y-3303180D01*
X7523180Y-3366820D01*
X7586820Y-3366820D01*
X7586820Y-4023820D02*
X7586820Y-3960180D01*
X7523180Y-3960180D01*
X7523180Y-4023820D01*
X7586820Y-4023820D01*
X7713820Y-3620820D02*
X7713820Y-3557180D01*
X7650180Y-3557180D01*
X7650180Y-3620820D01*
X7713820Y-3620820D01*
X7713820Y-4277820D02*
X7713820Y-4214180D01*
X7650180Y-4214180D01*
X7650180Y-4277820D01*
X7713820Y-4277820D01*
X7840820Y-3366820D02*
X7840820Y-3303180D01*
X7777180Y-3303180D01*
X7777180Y-3366820D01*
X7840820Y-3366820D01*
X7840820Y-4023820D02*
X7840820Y-3960180D01*
X7777180Y-3960180D01*
X7777180Y-4023820D01*
X7840820Y-4023820D01*
X7967820Y-3620820D02*
X7967820Y-3557180D01*
X7904180Y-3557180D01*
X7904180Y-3620820D01*
X7967820Y-3620820D01*
X7967820Y-4277820D02*
X7967820Y-4214180D01*
X7904180Y-4214180D01*
X7904180Y-4277820D01*
X7967820Y-4277820D01*
X8094820Y-3366820D02*
X8094820Y-3303180D01*
X8031180Y-3303180D01*
X8031180Y-3366820D01*
X8094820Y-3366820D01*
X8094820Y-4023820D02*
X8094820Y-3960180D01*
X8031180Y-3960180D01*
X8031180Y-4023820D01*
X8094820Y-4023820D01*
X8602820Y-3620820D02*
X8602820Y-3557180D01*
X8539180Y-3557180D01*
X8539180Y-3620820D01*
X8602820Y-3620820D01*
X8602820Y-4277820D02*
X8602820Y-4214180D01*
X8539180Y-4214180D01*
X8539180Y-4277820D01*
X8602820Y-4277820D01*
X8729820Y-3366820D02*
X8729820Y-3303180D01*
X8666180Y-3303180D01*
X8666180Y-3366820D01*
X8729820Y-3366820D01*
X8729820Y-4023820D02*
X8729820Y-3960180D01*
X8666180Y-3960180D01*
X8666180Y-4023820D01*
X8729820Y-4023820D01*
X8856820Y-3620820D02*
X8856820Y-3557180D01*
X8793180Y-3557180D01*
X8793180Y-3620820D01*
X8856820Y-3620820D01*
X8856820Y-4277820D02*
X8856820Y-4214180D01*
X8793180Y-4214180D01*
X8793180Y-4277820D01*
X8856820Y-4277820D01*
X8983820Y-3366820D02*
X8983820Y-3303180D01*
X8920180Y-3303180D01*
X8920180Y-3366820D01*
X8983820Y-3366820D01*
X8983820Y-4023820D02*
X8983820Y-3960180D01*
X8920180Y-3960180D01*
X8920180Y-4023820D01*
X8983820Y-4023820D01*
X9110820Y-3620820D02*
X9110820Y-3557180D01*
X9047180Y-3557180D01*
X9047180Y-3620820D01*
X9110820Y-3620820D01*
X9110820Y-4277820D02*
X9110820Y-4214180D01*
X9047180Y-4214180D01*
X9047180Y-4277820D01*
X9110820Y-4277820D01*
X9237820Y-3366820D02*
X9237820Y-3303180D01*
X9174180Y-3303180D01*
X9174180Y-3366820D01*
X9237820Y-3366820D01*
X9237820Y-4023820D02*
X9237820Y-3960180D01*
X9174180Y-3960180D01*
X9174180Y-4023820D01*
X9237820Y-4023820D01*
X9364820Y-3620820D02*
X9364820Y-3557180D01*
X9301180Y-3557180D01*
X9301180Y-3620820D01*
X9364820Y-3620820D01*
X9364820Y-4277820D02*
X9364820Y-4214180D01*
X9301180Y-4214180D01*
X9301180Y-4277820D01*
X9364820Y-4277820D01*
X9491820Y-3366820D02*
X9491820Y-3303180D01*
X9428180Y-3303180D01*
X9428180Y-3366820D01*
X9491820Y-3366820D01*
X9491820Y-4023820D02*
X9491820Y-3960180D01*
X9428180Y-3960180D01*
X9428180Y-4023820D01*
X9491820Y-4023820D01*
X10437320Y-5073820D02*
X10437320Y-5010180D01*
X10373680Y-5010180D01*
X10373680Y-5073820D01*
X10437320Y-5073820D01*
X10437320Y-6820820D02*
X10437320Y-6757180D01*
X10373680Y-6757180D01*
X10373680Y-6820820D01*
X10437320Y-6820820D01*
X10564320Y-4819820D02*
X10564320Y-4756180D01*
X10500680Y-4756180D01*
X10500680Y-4819820D01*
X10564320Y-4819820D01*
X10564320Y-6566820D02*
X10564320Y-6503180D01*
X10500680Y-6503180D01*
X10500680Y-6566820D01*
X10564320Y-6566820D01*
X10691320Y-5073820D02*
X10691320Y-5010180D01*
X10627680Y-5010180D01*
X10627680Y-5073820D01*
X10691320Y-5073820D01*
X10691320Y-6820820D02*
X10691320Y-6757180D01*
X10627680Y-6757180D01*
X10627680Y-6820820D01*
X10691320Y-6820820D01*
X10818320Y-4819820D02*
X10818320Y-4756180D01*
X10754680Y-4756180D01*
X10754680Y-4819820D01*
X10818320Y-4819820D01*
X10818320Y-6566820D02*
X10818320Y-6503180D01*
X10754680Y-6503180D01*
X10754680Y-6566820D01*
X10818320Y-6566820D01*
X10945320Y-5073820D02*
X10945320Y-5010180D01*
X10881680Y-5010180D01*
X10881680Y-5073820D01*
X10945320Y-5073820D01*
X10945320Y-6820820D02*
X10945320Y-6757180D01*
X10881680Y-6757180D01*
X10881680Y-6820820D01*
X10945320Y-6820820D01*
X11072320Y-4819820D02*
X11072320Y-4756180D01*
X11008680Y-4756180D01*
X11008680Y-4819820D01*
X11072320Y-4819820D01*
X11072320Y-6566820D02*
X11072320Y-6503180D01*
X11008680Y-6503180D01*
X11008680Y-6566820D01*
X11072320Y-6566820D01*
X11199320Y-5073820D02*
X11199320Y-5010180D01*
X11135680Y-5010180D01*
X11135680Y-5073820D01*
X11199320Y-5073820D01*
X11199320Y-6820820D02*
X11199320Y-6757180D01*
X11135680Y-6757180D01*
X11135680Y-6820820D01*
X11199320Y-6820820D01*
X11326320Y-4819820D02*
X11326320Y-4756180D01*
X11262680Y-4756180D01*
X11262680Y-4819820D01*
X11326320Y-4819820D01*
X11326320Y-6566820D02*
X11326320Y-6503180D01*
X11262680Y-6503180D01*
X11262680Y-6566820D01*
X11326320Y-6566820D01*
X4350000Y-8822500D02*
X4400000Y-8772500D01*
X4350000Y-8722500D01*
X4300000Y-8772500D01*
X4350000Y-8822500D01*
X4350000Y-9076500D02*
X4400000Y-9026500D01*
X4350000Y-8976500D01*
X4300000Y-9026500D01*
X4350000Y-9076500D01*
X7575000Y-9543500D02*
X7625000Y-9493500D01*
X7575000Y-9443500D01*
X7525000Y-9493500D01*
X7575000Y-9543500D01*
X7575000Y-9797500D02*
X7625000Y-9747500D01*
X7575000Y-9697500D01*
X7525000Y-9747500D01*
X7575000Y-9797500D01*
X9683000Y-8979000D02*
X9733000Y-8929000D01*
X9683000Y-8879000D01*
X9633000Y-8929000D01*
X9683000Y-8979000D01*
X9683000Y-9233000D02*
X9733000Y-9183000D01*
X9683000Y-9133000D01*
X9633000Y-9183000D01*
X9683000Y-9233000D01*
X9992000Y-7750000D02*
X10042000Y-7700000D01*
X9992000Y-7650000D01*
X9942000Y-7700000D01*
X9992000Y-7750000D01*
X9992000Y-8150000D02*
X10042000Y-8100000D01*
X9992000Y-8050000D01*
X9942000Y-8100000D01*
X9992000Y-8150000D01*
X9996000Y-7350000D02*
X10046000Y-7300000D01*
X9996000Y-7250000D01*
X9946000Y-7300000D01*
X9996000Y-7350000D01*
X10246000Y-7750000D02*
X10296000Y-7700000D01*
X10246000Y-7650000D01*
X10196000Y-7700000D01*
X10246000Y-7750000D01*
X10246000Y-8150000D02*
X10296000Y-8100000D01*
X10246000Y-8050000D01*
X10196000Y-8100000D01*
X10246000Y-8150000D01*
X10250000Y-7350000D02*
X10300000Y-7300000D01*
X10250000Y-7250000D01*
X10200000Y-7300000D01*
X10250000Y-7350000D01*
D13*
X5589000Y-5593000D02*
X5691000Y-5695000D01*
X5691000Y-5593000D02*
X5589000Y-5695000D01*
X5691000Y-5644000D02*
G75*
G02*
X5589000Y-5644000I-51000J0D01*
G01*
X5589000Y-5644000D02*
G75*
G02*
X5691000Y-5644000I51000J0D01*
G01*
X5589000Y-5847000D02*
X5691000Y-5949000D01*
X5691000Y-5847000D02*
X5589000Y-5949000D01*
X5691000Y-5898000D02*
G75*
G02*
X5589000Y-5898000I-51000J0D01*
G01*
X5589000Y-5898000D02*
G75*
G02*
X5691000Y-5898000I51000J0D01*
G01*
X5589000Y-6101000D02*
X5691000Y-6203000D01*
X5691000Y-6101000D02*
X5589000Y-6203000D01*
X5691000Y-6152000D02*
G75*
G02*
X5589000Y-6152000I-51000J0D01*
G01*
X5589000Y-6152000D02*
G75*
G02*
X5691000Y-6152000I51000J0D01*
G01*
X5589000Y-6355000D02*
X5691000Y-6457000D01*
X5691000Y-6355000D02*
X5589000Y-6457000D01*
X5691000Y-6406000D02*
G75*
G02*
X5589000Y-6406000I-51000J0D01*
G01*
X5589000Y-6406000D02*
G75*
G02*
X5691000Y-6406000I51000J0D01*
G01*
X5589000Y-6609000D02*
X5691000Y-6711000D01*
X5691000Y-6609000D02*
X5589000Y-6711000D01*
X5691000Y-6660000D02*
G75*
G02*
X5589000Y-6660000I-51000J0D01*
G01*
X5589000Y-6660000D02*
G75*
G02*
X5691000Y-6660000I51000J0D01*
G01*
X5589000Y-6863000D02*
X5691000Y-6965000D01*
X5691000Y-6863000D02*
X5589000Y-6965000D01*
X5691000Y-6914000D02*
G75*
G02*
X5589000Y-6914000I-51000J0D01*
G01*
X5589000Y-6914000D02*
G75*
G02*
X5691000Y-6914000I51000J0D01*
G01*
X5589000Y-7117000D02*
X5691000Y-7219000D01*
X5691000Y-7117000D02*
X5589000Y-7219000D01*
X5691000Y-7168000D02*
G75*
G02*
X5589000Y-7168000I-51000J0D01*
G01*
X5589000Y-7168000D02*
G75*
G02*
X5691000Y-7168000I51000J0D01*
G01*
X5589000Y-7371000D02*
X5691000Y-7473000D01*
X5691000Y-7371000D02*
X5589000Y-7473000D01*
X5691000Y-7422000D02*
G75*
G02*
X5589000Y-7422000I-51000J0D01*
G01*
X5589000Y-7422000D02*
G75*
G02*
X5691000Y-7422000I51000J0D01*
G01*
X5589000Y-7625000D02*
X5691000Y-7727000D01*
X5691000Y-7625000D02*
X5589000Y-7727000D01*
X5691000Y-7676000D02*
G75*
G02*
X5589000Y-7676000I-51000J0D01*
G01*
X5589000Y-7676000D02*
G75*
G02*
X5691000Y-7676000I51000J0D01*
G01*
X5589000Y-7879000D02*
X5691000Y-7981000D01*
X5691000Y-7879000D02*
X5589000Y-7981000D01*
X5691000Y-7930000D02*
G75*
G02*
X5589000Y-7930000I-51000J0D01*
G01*
X5589000Y-7930000D02*
G75*
G02*
X5691000Y-7930000I51000J0D01*
G01*
X5589000Y-8133000D02*
X5691000Y-8235000D01*
X5691000Y-8133000D02*
X5589000Y-8235000D01*
X5691000Y-8184000D02*
G75*
G02*
X5589000Y-8184000I-51000J0D01*
G01*
X5589000Y-8184000D02*
G75*
G02*
X5691000Y-8184000I51000J0D01*
G01*
X5589000Y-8387000D02*
X5691000Y-8489000D01*
X5691000Y-8387000D02*
X5589000Y-8489000D01*
X5691000Y-8438000D02*
G75*
G02*
X5589000Y-8438000I-51000J0D01*
G01*
X5589000Y-8438000D02*
G75*
G02*
X5691000Y-8438000I51000J0D01*
G01*
X5589000Y-8641000D02*
X5691000Y-8743000D01*
X5691000Y-8641000D02*
X5589000Y-8743000D01*
X5691000Y-8692000D02*
G75*
G02*
X5589000Y-8692000I-51000J0D01*
G01*
X5589000Y-8692000D02*
G75*
G02*
X5691000Y-8692000I51000J0D01*
G01*
X5589000Y-8895000D02*
X5691000Y-8997000D01*
X5691000Y-8895000D02*
X5589000Y-8997000D01*
X5691000Y-8946000D02*
G75*
G02*
X5589000Y-8946000I-51000J0D01*
G01*
X5589000Y-8946000D02*
G75*
G02*
X5691000Y-8946000I51000J0D01*
G01*
X5589000Y-9149000D02*
X5691000Y-9251000D01*
X5691000Y-9149000D02*
X5589000Y-9251000D01*
X5691000Y-9200000D02*
G75*
G02*
X5589000Y-9200000I-51000J0D01*
G01*
X5589000Y-9200000D02*
G75*
G02*
X5691000Y-9200000I51000J0D01*
G01*
X8129000Y-5593000D02*
X8231000Y-5695000D01*
X8231000Y-5593000D02*
X8129000Y-5695000D01*
X8231000Y-5644000D02*
G75*
G02*
X8129000Y-5644000I-51000J0D01*
G01*
X8129000Y-5644000D02*
G75*
G02*
X8231000Y-5644000I51000J0D01*
G01*
X8129000Y-5847000D02*
X8231000Y-5949000D01*
X8231000Y-5847000D02*
X8129000Y-5949000D01*
X8231000Y-5898000D02*
G75*
G02*
X8129000Y-5898000I-51000J0D01*
G01*
X8129000Y-5898000D02*
G75*
G02*
X8231000Y-5898000I51000J0D01*
G01*
X8129000Y-6101000D02*
X8231000Y-6203000D01*
X8231000Y-6101000D02*
X8129000Y-6203000D01*
X8231000Y-6152000D02*
G75*
G02*
X8129000Y-6152000I-51000J0D01*
G01*
X8129000Y-6152000D02*
G75*
G02*
X8231000Y-6152000I51000J0D01*
G01*
X8129000Y-6355000D02*
X8231000Y-6457000D01*
X8231000Y-6355000D02*
X8129000Y-6457000D01*
X8231000Y-6406000D02*
G75*
G02*
X8129000Y-6406000I-51000J0D01*
G01*
X8129000Y-6406000D02*
G75*
G02*
X8231000Y-6406000I51000J0D01*
G01*
X8129000Y-6609000D02*
X8231000Y-6711000D01*
X8231000Y-6609000D02*
X8129000Y-6711000D01*
X8231000Y-6660000D02*
G75*
G02*
X8129000Y-6660000I-51000J0D01*
G01*
X8129000Y-6660000D02*
G75*
G02*
X8231000Y-6660000I51000J0D01*
G01*
X8129000Y-6863000D02*
X8231000Y-6965000D01*
X8231000Y-6863000D02*
X8129000Y-6965000D01*
X8231000Y-6914000D02*
G75*
G02*
X8129000Y-6914000I-51000J0D01*
G01*
X8129000Y-6914000D02*
G75*
G02*
X8231000Y-6914000I51000J0D01*
G01*
X8129000Y-7117000D02*
X8231000Y-7219000D01*
X8231000Y-7117000D02*
X8129000Y-7219000D01*
X8231000Y-7168000D02*
G75*
G02*
X8129000Y-7168000I-51000J0D01*
G01*
X8129000Y-7168000D02*
G75*
G02*
X8231000Y-7168000I51000J0D01*
G01*
X8129000Y-7371000D02*
X8231000Y-7473000D01*
X8231000Y-7371000D02*
X8129000Y-7473000D01*
X8231000Y-7422000D02*
G75*
G02*
X8129000Y-7422000I-51000J0D01*
G01*
X8129000Y-7422000D02*
G75*
G02*
X8231000Y-7422000I51000J0D01*
G01*
X8129000Y-7625000D02*
X8231000Y-7727000D01*
X8231000Y-7625000D02*
X8129000Y-7727000D01*
X8231000Y-7676000D02*
G75*
G02*
X8129000Y-7676000I-51000J0D01*
G01*
X8129000Y-7676000D02*
G75*
G02*
X8231000Y-7676000I51000J0D01*
G01*
X8129000Y-7879000D02*
X8231000Y-7981000D01*
X8231000Y-7879000D02*
X8129000Y-7981000D01*
X8231000Y-7930000D02*
G75*
G02*
X8129000Y-7930000I-51000J0D01*
G01*
X8129000Y-7930000D02*
G75*
G02*
X8231000Y-7930000I51000J0D01*
G01*
X8129000Y-8133000D02*
X8231000Y-8235000D01*
X8231000Y-8133000D02*
X8129000Y-8235000D01*
X8231000Y-8184000D02*
G75*
G02*
X8129000Y-8184000I-51000J0D01*
G01*
X8129000Y-8184000D02*
G75*
G02*
X8231000Y-8184000I51000J0D01*
G01*
X8129000Y-8387000D02*
X8231000Y-8489000D01*
X8231000Y-8387000D02*
X8129000Y-8489000D01*
X8231000Y-8438000D02*
G75*
G02*
X8129000Y-8438000I-51000J0D01*
G01*
X8129000Y-8438000D02*
G75*
G02*
X8231000Y-8438000I51000J0D01*
G01*
X8129000Y-8641000D02*
X8231000Y-8743000D01*
X8231000Y-8641000D02*
X8129000Y-8743000D01*
X8231000Y-8692000D02*
G75*
G02*
X8129000Y-8692000I-51000J0D01*
G01*
X8129000Y-8692000D02*
G75*
G02*
X8231000Y-8692000I51000J0D01*
G01*
X8129000Y-8895000D02*
X8231000Y-8997000D01*
X8231000Y-8895000D02*
X8129000Y-8997000D01*
X8231000Y-8946000D02*
G75*
G02*
X8129000Y-8946000I-51000J0D01*
G01*
X8129000Y-8946000D02*
G75*
G02*
X8231000Y-8946000I51000J0D01*
G01*
X8129000Y-9149000D02*
X8231000Y-9251000D01*
X8231000Y-9149000D02*
X8129000Y-9251000D01*
X8231000Y-9200000D02*
G75*
G02*
X8129000Y-9200000I-51000J0D01*
G01*
X8129000Y-9200000D02*
G75*
G02*
X8231000Y-9200000I51000J0D01*
G01*
D14*
X2406250Y-10411750D02*
X2536250Y-10541750D01*
X2536250Y-10411750D02*
X2406250Y-10541750D01*
X2471250Y-10411750D02*
X2471250Y-10541750D01*
X2406250Y-10476750D02*
X2536250Y-10476750D01*
X2406250Y-11173750D02*
X2536250Y-11303750D01*
X2536250Y-11173750D02*
X2406250Y-11303750D01*
X2471250Y-11173750D02*
X2471250Y-11303750D01*
X2406250Y-11238750D02*
X2536250Y-11238750D01*
X2914250Y-10411750D02*
X3044250Y-10541750D01*
X3044250Y-10411750D02*
X2914250Y-10541750D01*
X2979250Y-10411750D02*
X2979250Y-10541750D01*
X2914250Y-10476750D02*
X3044250Y-10476750D01*
X2914250Y-11173750D02*
X3044250Y-11303750D01*
X3044250Y-11173750D02*
X2914250Y-11303750D01*
X2979250Y-11173750D02*
X2979250Y-11303750D01*
X2914250Y-11238750D02*
X3044250Y-11238750D01*
X10476750Y-9894750D02*
X10606750Y-10024750D01*
X10606750Y-9894750D02*
X10476750Y-10024750D01*
X10541750Y-9894750D02*
X10541750Y-10024750D01*
X10476750Y-9959750D02*
X10606750Y-9959750D01*
X10476750Y-10402750D02*
X10606750Y-10532750D01*
X10606750Y-10402750D02*
X10476750Y-10532750D01*
X10541750Y-10402750D02*
X10541750Y-10532750D01*
X10476750Y-10467750D02*
X10606750Y-10467750D01*
X10476750Y-10910750D02*
X10606750Y-11040750D01*
X10606750Y-10910750D02*
X10476750Y-11040750D01*
X10541750Y-10910750D02*
X10541750Y-11040750D01*
X10476750Y-10975750D02*
X10606750Y-10975750D01*
X10476750Y-11418750D02*
X10606750Y-11548750D01*
X10606750Y-11418750D02*
X10476750Y-11548750D01*
X10541750Y-11418750D02*
X10541750Y-11548750D01*
X10476750Y-11483750D02*
X10606750Y-11483750D01*
X10611250Y-7266750D02*
X10741250Y-7396750D01*
X10741250Y-7266750D02*
X10611250Y-7396750D01*
X10676250Y-7266750D02*
X10676250Y-7396750D01*
X10611250Y-7331750D02*
X10741250Y-7331750D01*
X10611250Y-8028750D02*
X10741250Y-8158750D01*
X10741250Y-8028750D02*
X10611250Y-8158750D01*
X10676250Y-8028750D02*
X10676250Y-8158750D01*
X10611250Y-8093750D02*
X10741250Y-8093750D01*
X11119250Y-7266750D02*
X11249250Y-7396750D01*
X11249250Y-7266750D02*
X11119250Y-7396750D01*
X11184250Y-7266750D02*
X11184250Y-7396750D01*
X11119250Y-7331750D02*
X11249250Y-7331750D01*
X11119250Y-8028750D02*
X11249250Y-8158750D01*
X11249250Y-8028750D02*
X11119250Y-8158750D01*
X11184250Y-8028750D02*
X11184250Y-8158750D01*
X11119250Y-8093750D02*
X11249250Y-8093750D01*
X11238750Y-9894750D02*
X11368750Y-10024750D01*
X11368750Y-9894750D02*
X11238750Y-10024750D01*
X11303750Y-9894750D02*
X11303750Y-10024750D01*
X11238750Y-9959750D02*
X11368750Y-9959750D01*
X11238750Y-10402750D02*
X11368750Y-10532750D01*
X11368750Y-10402750D02*
X11238750Y-10532750D01*
X11303750Y-10402750D02*
X11303750Y-10532750D01*
X11238750Y-10467750D02*
X11368750Y-10467750D01*
X11238750Y-10910750D02*
X11368750Y-11040750D01*
X11368750Y-10910750D02*
X11238750Y-11040750D01*
X11303750Y-10910750D02*
X11303750Y-11040750D01*
X11238750Y-10975750D02*
X11368750Y-10975750D01*
X11238750Y-11418750D02*
X11368750Y-11548750D01*
X11368750Y-11418750D02*
X11238750Y-11548750D01*
X11303750Y-11418750D02*
X11303750Y-11548750D01*
X11238750Y-11483750D02*
X11368750Y-11483750D01*
D15*
X3894000Y-2163000D02*
X4054000Y-2323000D01*
X4054000Y-2163000D02*
X3894000Y-2323000D01*
X4030569Y-2299569D02*
X4030569Y-2186431D01*
X3917431Y-2186431D01*
X3917431Y-2299569D01*
X4030569Y-2299569D01*
X3894000Y-3760000D02*
X4054000Y-3920000D01*
X4054000Y-3760000D02*
X3894000Y-3920000D01*
X4030569Y-3896569D02*
X4030569Y-3783431D01*
X3917431Y-3783431D01*
X3917431Y-3896569D01*
X4030569Y-3896569D01*
X3960500Y-3205000D02*
X4120500Y-3365000D01*
X4120500Y-3205000D02*
X3960500Y-3365000D01*
X4097069Y-3341569D02*
X4097069Y-3228431D01*
X3983931Y-3228431D01*
X3983931Y-3341569D01*
X4097069Y-3341569D01*
X4710000Y-5324000D02*
X4870000Y-5484000D01*
X4870000Y-5324000D02*
X4710000Y-5484000D01*
X4846569Y-5460569D02*
X4846569Y-5347431D01*
X4733431Y-5347431D01*
X4733431Y-5460569D01*
X4846569Y-5460569D01*
X4710000Y-6316000D02*
X4870000Y-6476000D01*
X4870000Y-6316000D02*
X4710000Y-6476000D01*
X4846569Y-6452569D02*
X4846569Y-6339431D01*
X4733431Y-6339431D01*
X4733431Y-6452569D01*
X4846569Y-6452569D01*
X5050000Y-5324000D02*
X5210000Y-5484000D01*
X5210000Y-5324000D02*
X5050000Y-5484000D01*
X5186569Y-5460569D02*
X5186569Y-5347431D01*
X5073431Y-5347431D01*
X5073431Y-5460569D01*
X5186569Y-5460569D01*
X5050000Y-6316000D02*
X5210000Y-6476000D01*
X5210000Y-6316000D02*
X5050000Y-6476000D01*
X5186569Y-6452569D02*
X5186569Y-6339431D01*
X5073431Y-6339431D01*
X5073431Y-6452569D01*
X5186569Y-6452569D01*
X8630000Y-5319000D02*
X8790000Y-5479000D01*
X8790000Y-5319000D02*
X8630000Y-5479000D01*
X8766569Y-5455569D02*
X8766569Y-5342431D01*
X8653431Y-5342431D01*
X8653431Y-5455569D01*
X8766569Y-5455569D01*
X8630000Y-6311000D02*
X8790000Y-6471000D01*
X8790000Y-6311000D02*
X8630000Y-6471000D01*
X8766569Y-6447569D02*
X8766569Y-6334431D01*
X8653431Y-6334431D01*
X8653431Y-6447569D01*
X8766569Y-6447569D01*
X8970000Y-5319000D02*
X9130000Y-5479000D01*
X9130000Y-5319000D02*
X8970000Y-5479000D01*
X9106569Y-5455569D02*
X9106569Y-5342431D01*
X8993431Y-5342431D01*
X8993431Y-5455569D01*
X9106569Y-5455569D01*
X8970000Y-6311000D02*
X9130000Y-6471000D01*
X9130000Y-6311000D02*
X8970000Y-6471000D01*
X9106569Y-6447569D02*
X9106569Y-6334431D01*
X8993431Y-6334431D01*
X8993431Y-6447569D01*
X9106569Y-6447569D01*
X9719500Y-3535000D02*
X9879500Y-3695000D01*
X9879500Y-3535000D02*
X9719500Y-3695000D01*
X9856069Y-3671569D02*
X9856069Y-3558431D01*
X9742931Y-3558431D01*
X9742931Y-3671569D01*
X9856069Y-3671569D01*
X9786000Y-2163000D02*
X9946000Y-2323000D01*
X9946000Y-2163000D02*
X9786000Y-2323000D01*
X9922569Y-2299569D02*
X9922569Y-2186431D01*
X9809431Y-2186431D01*
X9809431Y-2299569D01*
X9922569Y-2299569D01*
X9786000Y-4166000D02*
X9946000Y-4326000D01*
X9946000Y-4166000D02*
X9786000Y-4326000D01*
X9922569Y-4302569D02*
X9922569Y-4189431D01*
X9809431Y-4189431D01*
X9809431Y-4302569D01*
X9922569Y-4302569D01*
D16*
X4070000Y-4730000D02*
X4390000Y-5050000D01*
X4390000Y-4730000D02*
X4070000Y-5050000D01*
X4230000Y-5050000D02*
X4390000Y-4890000D01*
X4230000Y-4730000D01*
X4070000Y-4890000D01*
X4230000Y-5050000D01*
X4080000Y-9720000D02*
X4400000Y-10040000D01*
X4400000Y-9720000D02*
X4080000Y-10040000D01*
X4240000Y-10040000D02*
X4400000Y-9880000D01*
X4240000Y-9720000D01*
X4080000Y-9880000D01*
X4240000Y-10040000D01*
X9520000Y-4730000D02*
X9840000Y-5050000D01*
X9840000Y-4730000D02*
X9520000Y-5050000D01*
X9680000Y-5050000D02*
X9840000Y-4890000D01*
X9680000Y-4730000D01*
X9520000Y-4890000D01*
X9680000Y-5050000D01*
X9520000Y-9740000D02*
X9840000Y-10060000D01*
X9840000Y-9740000D02*
X9520000Y-10060000D01*
X9680000Y-10060000D02*
X9840000Y-9900000D01*
X9680000Y-9740000D01*
X9520000Y-9900000D01*
X9680000Y-10060000D01*
D11*
X2358277Y-12063984D02*
X2358277Y-11863984D01*
X2358277Y-11863984D02*
X2405896Y-11863984D01*
X2405896Y-11863984D02*
X2434467Y-11873508D01*
X2434467Y-11873508D02*
X2453515Y-11892555D01*
X2453515Y-11892555D02*
X2463039Y-11911603D01*
X2463039Y-11911603D02*
X2472563Y-11949698D01*
X2472563Y-11949698D02*
X2472563Y-11978269D01*
X2472563Y-11978269D02*
X2463039Y-12016365D01*
X2463039Y-12016365D02*
X2453515Y-12035412D01*
X2453515Y-12035412D02*
X2434467Y-12054460D01*
X2434467Y-12054460D02*
X2405896Y-12063984D01*
X2405896Y-12063984D02*
X2358277Y-12063984D01*
X2558277Y-12063984D02*
X2558277Y-11930650D01*
X2558277Y-11968746D02*
X2567801Y-11949698D01*
X2567801Y-11949698D02*
X2577324Y-11940174D01*
X2577324Y-11940174D02*
X2596372Y-11930650D01*
X2596372Y-11930650D02*
X2615420Y-11930650D01*
X2682086Y-12063984D02*
X2682086Y-11930650D01*
X2682086Y-11863984D02*
X2672563Y-11873508D01*
X2672563Y-11873508D02*
X2682086Y-11883031D01*
X2682086Y-11883031D02*
X2691610Y-11873508D01*
X2691610Y-11873508D02*
X2682086Y-11863984D01*
X2682086Y-11863984D02*
X2682086Y-11883031D01*
X2805896Y-12063984D02*
X2786848Y-12054460D01*
X2786848Y-12054460D02*
X2777324Y-12035412D01*
X2777324Y-12035412D02*
X2777324Y-11863984D01*
X2910658Y-12063984D02*
X2891610Y-12054460D01*
X2891610Y-12054460D02*
X2882086Y-12035412D01*
X2882086Y-12035412D02*
X2882086Y-11863984D01*
X3139229Y-12063984D02*
X3139229Y-11863984D01*
X3139229Y-11863984D02*
X3205896Y-12006841D01*
X3205896Y-12006841D02*
X3272562Y-11863984D01*
X3272562Y-11863984D02*
X3272562Y-12063984D01*
X3453515Y-12063984D02*
X3453515Y-11959222D01*
X3453515Y-11959222D02*
X3443991Y-11940174D01*
X3443991Y-11940174D02*
X3424943Y-11930650D01*
X3424943Y-11930650D02*
X3386848Y-11930650D01*
X3386848Y-11930650D02*
X3367801Y-11940174D01*
X3453515Y-12054460D02*
X3434467Y-12063984D01*
X3434467Y-12063984D02*
X3386848Y-12063984D01*
X3386848Y-12063984D02*
X3367801Y-12054460D01*
X3367801Y-12054460D02*
X3358277Y-12035412D01*
X3358277Y-12035412D02*
X3358277Y-12016365D01*
X3358277Y-12016365D02*
X3367801Y-11997317D01*
X3367801Y-11997317D02*
X3386848Y-11987793D01*
X3386848Y-11987793D02*
X3434467Y-11987793D01*
X3434467Y-11987793D02*
X3453515Y-11978269D01*
X3548753Y-11930650D02*
X3548753Y-12130650D01*
X3548753Y-11940174D02*
X3567801Y-11930650D01*
X3567801Y-11930650D02*
X3605896Y-11930650D01*
X3605896Y-11930650D02*
X3624943Y-11940174D01*
X3624943Y-11940174D02*
X3634467Y-11949698D01*
X3634467Y-11949698D02*
X3643991Y-11968746D01*
X3643991Y-11968746D02*
X3643991Y-12025888D01*
X3643991Y-12025888D02*
X3634467Y-12044936D01*
X3634467Y-12044936D02*
X3624943Y-12054460D01*
X3624943Y-12054460D02*
X3605896Y-12063984D01*
X3605896Y-12063984D02*
X3567801Y-12063984D01*
X3567801Y-12063984D02*
X3548753Y-12054460D01*
X3729705Y-12044936D02*
X3739229Y-12054460D01*
X3739229Y-12054460D02*
X3729705Y-12063984D01*
X3729705Y-12063984D02*
X3720182Y-12054460D01*
X3720182Y-12054460D02*
X3729705Y-12044936D01*
X3729705Y-12044936D02*
X3729705Y-12063984D01*
X3729705Y-11940174D02*
X3739229Y-11949698D01*
X3739229Y-11949698D02*
X3729705Y-11959222D01*
X3729705Y-11959222D02*
X3720182Y-11949698D01*
X3720182Y-11949698D02*
X3729705Y-11940174D01*
X3729705Y-11940174D02*
X3729705Y-11959222D01*
D12*
X2067500Y-12377500D02*
X2097500Y-12407500D01*
X2097500Y-12377500D02*
X2067500Y-12407500D01*
D11*
X2396372Y-12283984D02*
X2415420Y-12283984D01*
X2415420Y-12283984D02*
X2434467Y-12293508D01*
X2434467Y-12293508D02*
X2443991Y-12303031D01*
X2443991Y-12303031D02*
X2453515Y-12322079D01*
X2453515Y-12322079D02*
X2463039Y-12360174D01*
X2463039Y-12360174D02*
X2463039Y-12407793D01*
X2463039Y-12407793D02*
X2453515Y-12445888D01*
X2453515Y-12445888D02*
X2443991Y-12464936D01*
X2443991Y-12464936D02*
X2434467Y-12474460D01*
X2434467Y-12474460D02*
X2415420Y-12483984D01*
X2415420Y-12483984D02*
X2396372Y-12483984D01*
X2396372Y-12483984D02*
X2377324Y-12474460D01*
X2377324Y-12474460D02*
X2367801Y-12464936D01*
X2367801Y-12464936D02*
X2358277Y-12445888D01*
X2358277Y-12445888D02*
X2348753Y-12407793D01*
X2348753Y-12407793D02*
X2348753Y-12360174D01*
X2348753Y-12360174D02*
X2358277Y-12322079D01*
X2358277Y-12322079D02*
X2367801Y-12303031D01*
X2367801Y-12303031D02*
X2377324Y-12293508D01*
X2377324Y-12293508D02*
X2396372Y-12283984D01*
X2548753Y-12464936D02*
X2558277Y-12474460D01*
X2558277Y-12474460D02*
X2548753Y-12483984D01*
X2548753Y-12483984D02*
X2539229Y-12474460D01*
X2539229Y-12474460D02*
X2548753Y-12464936D01*
X2548753Y-12464936D02*
X2548753Y-12483984D01*
X2624944Y-12283984D02*
X2748753Y-12283984D01*
X2748753Y-12283984D02*
X2682086Y-12360174D01*
X2682086Y-12360174D02*
X2710658Y-12360174D01*
X2710658Y-12360174D02*
X2729705Y-12369698D01*
X2729705Y-12369698D02*
X2739229Y-12379222D01*
X2739229Y-12379222D02*
X2748753Y-12398269D01*
X2748753Y-12398269D02*
X2748753Y-12445888D01*
X2748753Y-12445888D02*
X2739229Y-12464936D01*
X2739229Y-12464936D02*
X2729705Y-12474460D01*
X2729705Y-12474460D02*
X2710658Y-12483984D01*
X2710658Y-12483984D02*
X2653515Y-12483984D01*
X2653515Y-12483984D02*
X2634467Y-12474460D01*
X2634467Y-12474460D02*
X2624944Y-12464936D01*
X2872562Y-12283984D02*
X2891610Y-12283984D01*
X2891610Y-12283984D02*
X2910658Y-12293508D01*
X2910658Y-12293508D02*
X2920182Y-12303031D01*
X2920182Y-12303031D02*
X2929705Y-12322079D01*
X2929705Y-12322079D02*
X2939229Y-12360174D01*
X2939229Y-12360174D02*
X2939229Y-12407793D01*
X2939229Y-12407793D02*
X2929705Y-12445888D01*
X2929705Y-12445888D02*
X2920182Y-12464936D01*
X2920182Y-12464936D02*
X2910658Y-12474460D01*
X2910658Y-12474460D02*
X2891610Y-12483984D01*
X2891610Y-12483984D02*
X2872562Y-12483984D01*
X2872562Y-12483984D02*
X2853515Y-12474460D01*
X2853515Y-12474460D02*
X2843991Y-12464936D01*
X2843991Y-12464936D02*
X2834467Y-12445888D01*
X2834467Y-12445888D02*
X2824943Y-12407793D01*
X2824943Y-12407793D02*
X2824943Y-12360174D01*
X2824943Y-12360174D02*
X2834467Y-12322079D01*
X2834467Y-12322079D02*
X2843991Y-12303031D01*
X2843991Y-12303031D02*
X2853515Y-12293508D01*
X2853515Y-12293508D02*
X2872562Y-12283984D01*
X3063039Y-12283984D02*
X3082086Y-12283984D01*
X3082086Y-12283984D02*
X3101134Y-12293508D01*
X3101134Y-12293508D02*
X3110658Y-12303031D01*
X3110658Y-12303031D02*
X3120182Y-12322079D01*
X3120182Y-12322079D02*
X3129705Y-12360174D01*
X3129705Y-12360174D02*
X3129705Y-12407793D01*
X3129705Y-12407793D02*
X3120182Y-12445888D01*
X3120182Y-12445888D02*
X3110658Y-12464936D01*
X3110658Y-12464936D02*
X3101134Y-12474460D01*
X3101134Y-12474460D02*
X3082086Y-12483984D01*
X3082086Y-12483984D02*
X3063039Y-12483984D01*
X3063039Y-12483984D02*
X3043991Y-12474460D01*
X3043991Y-12474460D02*
X3034467Y-12464936D01*
X3034467Y-12464936D02*
X3024943Y-12445888D01*
X3024943Y-12445888D02*
X3015420Y-12407793D01*
X3015420Y-12407793D02*
X3015420Y-12360174D01*
X3015420Y-12360174D02*
X3024943Y-12322079D01*
X3024943Y-12322079D02*
X3034467Y-12303031D01*
X3034467Y-12303031D02*
X3043991Y-12293508D01*
X3043991Y-12293508D02*
X3063039Y-12283984D01*
X3215420Y-12483984D02*
X3215420Y-12350650D01*
X3215420Y-12369698D02*
X3224943Y-12360174D01*
X3224943Y-12360174D02*
X3243991Y-12350650D01*
X3243991Y-12350650D02*
X3272563Y-12350650D01*
X3272563Y-12350650D02*
X3291610Y-12360174D01*
X3291610Y-12360174D02*
X3301134Y-12379222D01*
X3301134Y-12379222D02*
X3301134Y-12483984D01*
X3301134Y-12379222D02*
X3310658Y-12360174D01*
X3310658Y-12360174D02*
X3329705Y-12350650D01*
X3329705Y-12350650D02*
X3358277Y-12350650D01*
X3358277Y-12350650D02*
X3377324Y-12360174D01*
X3377324Y-12360174D02*
X3386848Y-12379222D01*
X3386848Y-12379222D02*
X3386848Y-12483984D01*
X3482086Y-12483984D02*
X3482086Y-12350650D01*
X3482086Y-12369698D02*
X3491610Y-12360174D01*
X3491610Y-12360174D02*
X3510658Y-12350650D01*
X3510658Y-12350650D02*
X3539229Y-12350650D01*
X3539229Y-12350650D02*
X3558277Y-12360174D01*
X3558277Y-12360174D02*
X3567801Y-12379222D01*
X3567801Y-12379222D02*
X3567801Y-12483984D01*
X3567801Y-12379222D02*
X3577324Y-12360174D01*
X3577324Y-12360174D02*
X3596372Y-12350650D01*
X3596372Y-12350650D02*
X3624943Y-12350650D01*
X3624943Y-12350650D02*
X3643991Y-12360174D01*
X3643991Y-12360174D02*
X3653515Y-12379222D01*
X3653515Y-12379222D02*
X3653515Y-12483984D01*
X4043991Y-12274460D02*
X3872563Y-12531603D01*
X4301134Y-12283984D02*
X4320182Y-12283984D01*
X4320182Y-12283984D02*
X4339229Y-12293508D01*
X4339229Y-12293508D02*
X4348753Y-12303031D01*
X4348753Y-12303031D02*
X4358277Y-12322079D01*
X4358277Y-12322079D02*
X4367801Y-12360174D01*
X4367801Y-12360174D02*
X4367801Y-12407793D01*
X4367801Y-12407793D02*
X4358277Y-12445888D01*
X4358277Y-12445888D02*
X4348753Y-12464936D01*
X4348753Y-12464936D02*
X4339229Y-12474460D01*
X4339229Y-12474460D02*
X4320182Y-12483984D01*
X4320182Y-12483984D02*
X4301134Y-12483984D01*
X4301134Y-12483984D02*
X4282087Y-12474460D01*
X4282087Y-12474460D02*
X4272563Y-12464936D01*
X4272563Y-12464936D02*
X4263039Y-12445888D01*
X4263039Y-12445888D02*
X4253515Y-12407793D01*
X4253515Y-12407793D02*
X4253515Y-12360174D01*
X4253515Y-12360174D02*
X4263039Y-12322079D01*
X4263039Y-12322079D02*
X4272563Y-12303031D01*
X4272563Y-12303031D02*
X4282087Y-12293508D01*
X4282087Y-12293508D02*
X4301134Y-12283984D01*
X4453515Y-12464936D02*
X4463039Y-12474460D01*
X4463039Y-12474460D02*
X4453515Y-12483984D01*
X4453515Y-12483984D02*
X4443991Y-12474460D01*
X4443991Y-12474460D02*
X4453515Y-12464936D01*
X4453515Y-12464936D02*
X4453515Y-12483984D01*
X4586848Y-12283984D02*
X4605896Y-12283984D01*
X4605896Y-12283984D02*
X4624944Y-12293508D01*
X4624944Y-12293508D02*
X4634468Y-12303031D01*
X4634468Y-12303031D02*
X4643991Y-12322079D01*
X4643991Y-12322079D02*
X4653515Y-12360174D01*
X4653515Y-12360174D02*
X4653515Y-12407793D01*
X4653515Y-12407793D02*
X4643991Y-12445888D01*
X4643991Y-12445888D02*
X4634468Y-12464936D01*
X4634468Y-12464936D02*
X4624944Y-12474460D01*
X4624944Y-12474460D02*
X4605896Y-12483984D01*
X4605896Y-12483984D02*
X4586848Y-12483984D01*
X4586848Y-12483984D02*
X4567801Y-12474460D01*
X4567801Y-12474460D02*
X4558277Y-12464936D01*
X4558277Y-12464936D02*
X4548753Y-12445888D01*
X4548753Y-12445888D02*
X4539229Y-12407793D01*
X4539229Y-12407793D02*
X4539229Y-12360174D01*
X4539229Y-12360174D02*
X4548753Y-12322079D01*
X4548753Y-12322079D02*
X4558277Y-12303031D01*
X4558277Y-12303031D02*
X4567801Y-12293508D01*
X4567801Y-12293508D02*
X4586848Y-12283984D01*
X4843991Y-12483984D02*
X4729706Y-12483984D01*
X4786848Y-12483984D02*
X4786848Y-12283984D01*
X4786848Y-12283984D02*
X4767801Y-12312555D01*
X4767801Y-12312555D02*
X4748753Y-12331603D01*
X4748753Y-12331603D02*
X4729706Y-12341127D01*
X5034468Y-12483984D02*
X4920182Y-12483984D01*
X4977325Y-12483984D02*
X4977325Y-12283984D01*
X4977325Y-12283984D02*
X4958277Y-12312555D01*
X4958277Y-12312555D02*
X4939229Y-12331603D01*
X4939229Y-12331603D02*
X4920182Y-12341127D01*
X5148753Y-12369698D02*
X5129706Y-12360174D01*
X5129706Y-12360174D02*
X5120182Y-12350650D01*
X5120182Y-12350650D02*
X5110658Y-12331603D01*
X5110658Y-12331603D02*
X5110658Y-12322079D01*
X5110658Y-12322079D02*
X5120182Y-12303031D01*
X5120182Y-12303031D02*
X5129706Y-12293508D01*
X5129706Y-12293508D02*
X5148753Y-12283984D01*
X5148753Y-12283984D02*
X5186849Y-12283984D01*
X5186849Y-12283984D02*
X5205896Y-12293508D01*
X5205896Y-12293508D02*
X5215420Y-12303031D01*
X5215420Y-12303031D02*
X5224944Y-12322079D01*
X5224944Y-12322079D02*
X5224944Y-12331603D01*
X5224944Y-12331603D02*
X5215420Y-12350650D01*
X5215420Y-12350650D02*
X5205896Y-12360174D01*
X5205896Y-12360174D02*
X5186849Y-12369698D01*
X5186849Y-12369698D02*
X5148753Y-12369698D01*
X5148753Y-12369698D02*
X5129706Y-12379222D01*
X5129706Y-12379222D02*
X5120182Y-12388746D01*
X5120182Y-12388746D02*
X5110658Y-12407793D01*
X5110658Y-12407793D02*
X5110658Y-12445888D01*
X5110658Y-12445888D02*
X5120182Y-12464936D01*
X5120182Y-12464936D02*
X5129706Y-12474460D01*
X5129706Y-12474460D02*
X5148753Y-12483984D01*
X5148753Y-12483984D02*
X5186849Y-12483984D01*
X5186849Y-12483984D02*
X5205896Y-12474460D01*
X5205896Y-12474460D02*
X5215420Y-12464936D01*
X5215420Y-12464936D02*
X5224944Y-12445888D01*
X5224944Y-12445888D02*
X5224944Y-12407793D01*
X5224944Y-12407793D02*
X5215420Y-12388746D01*
X5215420Y-12388746D02*
X5205896Y-12379222D01*
X5205896Y-12379222D02*
X5186849Y-12369698D01*
X5301134Y-12283984D02*
X5301134Y-12322079D01*
X5377325Y-12283984D02*
X5377325Y-12322079D01*
X5672563Y-12560174D02*
X5663039Y-12550650D01*
X5663039Y-12550650D02*
X5643991Y-12522079D01*
X5643991Y-12522079D02*
X5634468Y-12503031D01*
X5634468Y-12503031D02*
X5624944Y-12474460D01*
X5624944Y-12474460D02*
X5615420Y-12426841D01*
X5615420Y-12426841D02*
X5615420Y-12388746D01*
X5615420Y-12388746D02*
X5624944Y-12341127D01*
X5624944Y-12341127D02*
X5634468Y-12312555D01*
X5634468Y-12312555D02*
X5643991Y-12293508D01*
X5643991Y-12293508D02*
X5663039Y-12264936D01*
X5663039Y-12264936D02*
X5672563Y-12255412D01*
X5729706Y-12283984D02*
X5853515Y-12283984D01*
X5853515Y-12283984D02*
X5786848Y-12360174D01*
X5786848Y-12360174D02*
X5815420Y-12360174D01*
X5815420Y-12360174D02*
X5834468Y-12369698D01*
X5834468Y-12369698D02*
X5843991Y-12379222D01*
X5843991Y-12379222D02*
X5853515Y-12398269D01*
X5853515Y-12398269D02*
X5853515Y-12445888D01*
X5853515Y-12445888D02*
X5843991Y-12464936D01*
X5843991Y-12464936D02*
X5834468Y-12474460D01*
X5834468Y-12474460D02*
X5815420Y-12483984D01*
X5815420Y-12483984D02*
X5758277Y-12483984D01*
X5758277Y-12483984D02*
X5739229Y-12474460D01*
X5739229Y-12474460D02*
X5729706Y-12464936D01*
X6024944Y-12350650D02*
X6024944Y-12483984D01*
X5977325Y-12274460D02*
X5929706Y-12417317D01*
X5929706Y-12417317D02*
X6053515Y-12417317D01*
X6282087Y-12483984D02*
X6282087Y-12283984D01*
X6367801Y-12483984D02*
X6367801Y-12379222D01*
X6367801Y-12379222D02*
X6358277Y-12360174D01*
X6358277Y-12360174D02*
X6339230Y-12350650D01*
X6339230Y-12350650D02*
X6310658Y-12350650D01*
X6310658Y-12350650D02*
X6291610Y-12360174D01*
X6291610Y-12360174D02*
X6282087Y-12369698D01*
X6491610Y-12483984D02*
X6472563Y-12474460D01*
X6472563Y-12474460D02*
X6463039Y-12464936D01*
X6463039Y-12464936D02*
X6453515Y-12445888D01*
X6453515Y-12445888D02*
X6453515Y-12388746D01*
X6453515Y-12388746D02*
X6463039Y-12369698D01*
X6463039Y-12369698D02*
X6472563Y-12360174D01*
X6472563Y-12360174D02*
X6491610Y-12350650D01*
X6491610Y-12350650D02*
X6520182Y-12350650D01*
X6520182Y-12350650D02*
X6539230Y-12360174D01*
X6539230Y-12360174D02*
X6548753Y-12369698D01*
X6548753Y-12369698D02*
X6558277Y-12388746D01*
X6558277Y-12388746D02*
X6558277Y-12445888D01*
X6558277Y-12445888D02*
X6548753Y-12464936D01*
X6548753Y-12464936D02*
X6539230Y-12474460D01*
X6539230Y-12474460D02*
X6520182Y-12483984D01*
X6520182Y-12483984D02*
X6491610Y-12483984D01*
X6672563Y-12483984D02*
X6653515Y-12474460D01*
X6653515Y-12474460D02*
X6643991Y-12455412D01*
X6643991Y-12455412D02*
X6643991Y-12283984D01*
X6824944Y-12474460D02*
X6805896Y-12483984D01*
X6805896Y-12483984D02*
X6767801Y-12483984D01*
X6767801Y-12483984D02*
X6748753Y-12474460D01*
X6748753Y-12474460D02*
X6739230Y-12455412D01*
X6739230Y-12455412D02*
X6739230Y-12379222D01*
X6739230Y-12379222D02*
X6748753Y-12360174D01*
X6748753Y-12360174D02*
X6767801Y-12350650D01*
X6767801Y-12350650D02*
X6805896Y-12350650D01*
X6805896Y-12350650D02*
X6824944Y-12360174D01*
X6824944Y-12360174D02*
X6834468Y-12379222D01*
X6834468Y-12379222D02*
X6834468Y-12398269D01*
X6834468Y-12398269D02*
X6739230Y-12417317D01*
X6910658Y-12474460D02*
X6929706Y-12483984D01*
X6929706Y-12483984D02*
X6967801Y-12483984D01*
X6967801Y-12483984D02*
X6986849Y-12474460D01*
X6986849Y-12474460D02*
X6996372Y-12455412D01*
X6996372Y-12455412D02*
X6996372Y-12445888D01*
X6996372Y-12445888D02*
X6986849Y-12426841D01*
X6986849Y-12426841D02*
X6967801Y-12417317D01*
X6967801Y-12417317D02*
X6939230Y-12417317D01*
X6939230Y-12417317D02*
X6920182Y-12407793D01*
X6920182Y-12407793D02*
X6910658Y-12388746D01*
X6910658Y-12388746D02*
X6910658Y-12379222D01*
X6910658Y-12379222D02*
X6920182Y-12360174D01*
X6920182Y-12360174D02*
X6939230Y-12350650D01*
X6939230Y-12350650D02*
X6967801Y-12350650D01*
X6967801Y-12350650D02*
X6986849Y-12360174D01*
X7063039Y-12560174D02*
X7072563Y-12550650D01*
X7072563Y-12550650D02*
X7091611Y-12522079D01*
X7091611Y-12522079D02*
X7101134Y-12503031D01*
X7101134Y-12503031D02*
X7110658Y-12474460D01*
X7110658Y-12474460D02*
X7120182Y-12426841D01*
X7120182Y-12426841D02*
X7120182Y-12388746D01*
X7120182Y-12388746D02*
X7110658Y-12341127D01*
X7110658Y-12341127D02*
X7101134Y-12312555D01*
X7101134Y-12312555D02*
X7091611Y-12293508D01*
X7091611Y-12293508D02*
X7072563Y-12264936D01*
X7072563Y-12264936D02*
X7063039Y-12255412D01*
D12*
X2097500Y-12656500D02*
G75*
G02*
X2021500Y-12656500I-38000J0D01*
G01*
X2021500Y-12656500D02*
G75*
G02*
X2097500Y-12656500I38000J0D01*
G01*
D11*
X2396372Y-12547984D02*
X2415420Y-12547984D01*
X2415420Y-12547984D02*
X2434467Y-12557508D01*
X2434467Y-12557508D02*
X2443991Y-12567031D01*
X2443991Y-12567031D02*
X2453515Y-12586079D01*
X2453515Y-12586079D02*
X2463039Y-12624174D01*
X2463039Y-12624174D02*
X2463039Y-12671793D01*
X2463039Y-12671793D02*
X2453515Y-12709888D01*
X2453515Y-12709888D02*
X2443991Y-12728936D01*
X2443991Y-12728936D02*
X2434467Y-12738460D01*
X2434467Y-12738460D02*
X2415420Y-12747984D01*
X2415420Y-12747984D02*
X2396372Y-12747984D01*
X2396372Y-12747984D02*
X2377324Y-12738460D01*
X2377324Y-12738460D02*
X2367801Y-12728936D01*
X2367801Y-12728936D02*
X2358277Y-12709888D01*
X2358277Y-12709888D02*
X2348753Y-12671793D01*
X2348753Y-12671793D02*
X2348753Y-12624174D01*
X2348753Y-12624174D02*
X2358277Y-12586079D01*
X2358277Y-12586079D02*
X2367801Y-12567031D01*
X2367801Y-12567031D02*
X2377324Y-12557508D01*
X2377324Y-12557508D02*
X2396372Y-12547984D01*
X2548753Y-12728936D02*
X2558277Y-12738460D01*
X2558277Y-12738460D02*
X2548753Y-12747984D01*
X2548753Y-12747984D02*
X2539229Y-12738460D01*
X2539229Y-12738460D02*
X2548753Y-12728936D01*
X2548753Y-12728936D02*
X2548753Y-12747984D01*
X2624944Y-12547984D02*
X2758277Y-12547984D01*
X2758277Y-12547984D02*
X2672563Y-12747984D01*
X2920182Y-12547984D02*
X2882086Y-12547984D01*
X2882086Y-12547984D02*
X2863039Y-12557508D01*
X2863039Y-12557508D02*
X2853515Y-12567031D01*
X2853515Y-12567031D02*
X2834467Y-12595603D01*
X2834467Y-12595603D02*
X2824943Y-12633698D01*
X2824943Y-12633698D02*
X2824943Y-12709888D01*
X2824943Y-12709888D02*
X2834467Y-12728936D01*
X2834467Y-12728936D02*
X2843991Y-12738460D01*
X2843991Y-12738460D02*
X2863039Y-12747984D01*
X2863039Y-12747984D02*
X2901134Y-12747984D01*
X2901134Y-12747984D02*
X2920182Y-12738460D01*
X2920182Y-12738460D02*
X2929705Y-12728936D01*
X2929705Y-12728936D02*
X2939229Y-12709888D01*
X2939229Y-12709888D02*
X2939229Y-12662269D01*
X2939229Y-12662269D02*
X2929705Y-12643222D01*
X2929705Y-12643222D02*
X2920182Y-12633698D01*
X2920182Y-12633698D02*
X2901134Y-12624174D01*
X2901134Y-12624174D02*
X2863039Y-12624174D01*
X2863039Y-12624174D02*
X2843991Y-12633698D01*
X2843991Y-12633698D02*
X2834467Y-12643222D01*
X2834467Y-12643222D02*
X2824943Y-12662269D01*
X3063039Y-12547984D02*
X3082086Y-12547984D01*
X3082086Y-12547984D02*
X3101134Y-12557508D01*
X3101134Y-12557508D02*
X3110658Y-12567031D01*
X3110658Y-12567031D02*
X3120182Y-12586079D01*
X3120182Y-12586079D02*
X3129705Y-12624174D01*
X3129705Y-12624174D02*
X3129705Y-12671793D01*
X3129705Y-12671793D02*
X3120182Y-12709888D01*
X3120182Y-12709888D02*
X3110658Y-12728936D01*
X3110658Y-12728936D02*
X3101134Y-12738460D01*
X3101134Y-12738460D02*
X3082086Y-12747984D01*
X3082086Y-12747984D02*
X3063039Y-12747984D01*
X3063039Y-12747984D02*
X3043991Y-12738460D01*
X3043991Y-12738460D02*
X3034467Y-12728936D01*
X3034467Y-12728936D02*
X3024943Y-12709888D01*
X3024943Y-12709888D02*
X3015420Y-12671793D01*
X3015420Y-12671793D02*
X3015420Y-12624174D01*
X3015420Y-12624174D02*
X3024943Y-12586079D01*
X3024943Y-12586079D02*
X3034467Y-12567031D01*
X3034467Y-12567031D02*
X3043991Y-12557508D01*
X3043991Y-12557508D02*
X3063039Y-12547984D01*
X3215420Y-12747984D02*
X3215420Y-12614650D01*
X3215420Y-12633698D02*
X3224943Y-12624174D01*
X3224943Y-12624174D02*
X3243991Y-12614650D01*
X3243991Y-12614650D02*
X3272563Y-12614650D01*
X3272563Y-12614650D02*
X3291610Y-12624174D01*
X3291610Y-12624174D02*
X3301134Y-12643222D01*
X3301134Y-12643222D02*
X3301134Y-12747984D01*
X3301134Y-12643222D02*
X3310658Y-12624174D01*
X3310658Y-12624174D02*
X3329705Y-12614650D01*
X3329705Y-12614650D02*
X3358277Y-12614650D01*
X3358277Y-12614650D02*
X3377324Y-12624174D01*
X3377324Y-12624174D02*
X3386848Y-12643222D01*
X3386848Y-12643222D02*
X3386848Y-12747984D01*
X3482086Y-12747984D02*
X3482086Y-12614650D01*
X3482086Y-12633698D02*
X3491610Y-12624174D01*
X3491610Y-12624174D02*
X3510658Y-12614650D01*
X3510658Y-12614650D02*
X3539229Y-12614650D01*
X3539229Y-12614650D02*
X3558277Y-12624174D01*
X3558277Y-12624174D02*
X3567801Y-12643222D01*
X3567801Y-12643222D02*
X3567801Y-12747984D01*
X3567801Y-12643222D02*
X3577324Y-12624174D01*
X3577324Y-12624174D02*
X3596372Y-12614650D01*
X3596372Y-12614650D02*
X3624943Y-12614650D01*
X3624943Y-12614650D02*
X3643991Y-12624174D01*
X3643991Y-12624174D02*
X3653515Y-12643222D01*
X3653515Y-12643222D02*
X3653515Y-12747984D01*
X4043991Y-12538460D02*
X3872563Y-12795603D01*
X4301134Y-12547984D02*
X4320182Y-12547984D01*
X4320182Y-12547984D02*
X4339229Y-12557508D01*
X4339229Y-12557508D02*
X4348753Y-12567031D01*
X4348753Y-12567031D02*
X4358277Y-12586079D01*
X4358277Y-12586079D02*
X4367801Y-12624174D01*
X4367801Y-12624174D02*
X4367801Y-12671793D01*
X4367801Y-12671793D02*
X4358277Y-12709888D01*
X4358277Y-12709888D02*
X4348753Y-12728936D01*
X4348753Y-12728936D02*
X4339229Y-12738460D01*
X4339229Y-12738460D02*
X4320182Y-12747984D01*
X4320182Y-12747984D02*
X4301134Y-12747984D01*
X4301134Y-12747984D02*
X4282087Y-12738460D01*
X4282087Y-12738460D02*
X4272563Y-12728936D01*
X4272563Y-12728936D02*
X4263039Y-12709888D01*
X4263039Y-12709888D02*
X4253515Y-12671793D01*
X4253515Y-12671793D02*
X4253515Y-12624174D01*
X4253515Y-12624174D02*
X4263039Y-12586079D01*
X4263039Y-12586079D02*
X4272563Y-12567031D01*
X4272563Y-12567031D02*
X4282087Y-12557508D01*
X4282087Y-12557508D02*
X4301134Y-12547984D01*
X4453515Y-12728936D02*
X4463039Y-12738460D01*
X4463039Y-12738460D02*
X4453515Y-12747984D01*
X4453515Y-12747984D02*
X4443991Y-12738460D01*
X4443991Y-12738460D02*
X4453515Y-12728936D01*
X4453515Y-12728936D02*
X4453515Y-12747984D01*
X4586848Y-12547984D02*
X4605896Y-12547984D01*
X4605896Y-12547984D02*
X4624944Y-12557508D01*
X4624944Y-12557508D02*
X4634468Y-12567031D01*
X4634468Y-12567031D02*
X4643991Y-12586079D01*
X4643991Y-12586079D02*
X4653515Y-12624174D01*
X4653515Y-12624174D02*
X4653515Y-12671793D01*
X4653515Y-12671793D02*
X4643991Y-12709888D01*
X4643991Y-12709888D02*
X4634468Y-12728936D01*
X4634468Y-12728936D02*
X4624944Y-12738460D01*
X4624944Y-12738460D02*
X4605896Y-12747984D01*
X4605896Y-12747984D02*
X4586848Y-12747984D01*
X4586848Y-12747984D02*
X4567801Y-12738460D01*
X4567801Y-12738460D02*
X4558277Y-12728936D01*
X4558277Y-12728936D02*
X4548753Y-12709888D01*
X4548753Y-12709888D02*
X4539229Y-12671793D01*
X4539229Y-12671793D02*
X4539229Y-12624174D01*
X4539229Y-12624174D02*
X4548753Y-12586079D01*
X4548753Y-12586079D02*
X4558277Y-12567031D01*
X4558277Y-12567031D02*
X4567801Y-12557508D01*
X4567801Y-12557508D02*
X4586848Y-12547984D01*
X4729706Y-12567031D02*
X4739229Y-12557508D01*
X4739229Y-12557508D02*
X4758277Y-12547984D01*
X4758277Y-12547984D02*
X4805896Y-12547984D01*
X4805896Y-12547984D02*
X4824944Y-12557508D01*
X4824944Y-12557508D02*
X4834468Y-12567031D01*
X4834468Y-12567031D02*
X4843991Y-12586079D01*
X4843991Y-12586079D02*
X4843991Y-12605127D01*
X4843991Y-12605127D02*
X4834468Y-12633698D01*
X4834468Y-12633698D02*
X4720182Y-12747984D01*
X4720182Y-12747984D02*
X4843991Y-12747984D01*
X4939229Y-12747984D02*
X4977325Y-12747984D01*
X4977325Y-12747984D02*
X4996372Y-12738460D01*
X4996372Y-12738460D02*
X5005896Y-12728936D01*
X5005896Y-12728936D02*
X5024944Y-12700365D01*
X5024944Y-12700365D02*
X5034468Y-12662269D01*
X5034468Y-12662269D02*
X5034468Y-12586079D01*
X5034468Y-12586079D02*
X5024944Y-12567031D01*
X5024944Y-12567031D02*
X5015420Y-12557508D01*
X5015420Y-12557508D02*
X4996372Y-12547984D01*
X4996372Y-12547984D02*
X4958277Y-12547984D01*
X4958277Y-12547984D02*
X4939229Y-12557508D01*
X4939229Y-12557508D02*
X4929706Y-12567031D01*
X4929706Y-12567031D02*
X4920182Y-12586079D01*
X4920182Y-12586079D02*
X4920182Y-12633698D01*
X4920182Y-12633698D02*
X4929706Y-12652746D01*
X4929706Y-12652746D02*
X4939229Y-12662269D01*
X4939229Y-12662269D02*
X4958277Y-12671793D01*
X4958277Y-12671793D02*
X4996372Y-12671793D01*
X4996372Y-12671793D02*
X5015420Y-12662269D01*
X5015420Y-12662269D02*
X5024944Y-12652746D01*
X5024944Y-12652746D02*
X5034468Y-12633698D01*
X5129706Y-12747984D02*
X5167801Y-12747984D01*
X5167801Y-12747984D02*
X5186849Y-12738460D01*
X5186849Y-12738460D02*
X5196372Y-12728936D01*
X5196372Y-12728936D02*
X5215420Y-12700365D01*
X5215420Y-12700365D02*
X5224944Y-12662269D01*
X5224944Y-12662269D02*
X5224944Y-12586079D01*
X5224944Y-12586079D02*
X5215420Y-12567031D01*
X5215420Y-12567031D02*
X5205896Y-12557508D01*
X5205896Y-12557508D02*
X5186849Y-12547984D01*
X5186849Y-12547984D02*
X5148753Y-12547984D01*
X5148753Y-12547984D02*
X5129706Y-12557508D01*
X5129706Y-12557508D02*
X5120182Y-12567031D01*
X5120182Y-12567031D02*
X5110658Y-12586079D01*
X5110658Y-12586079D02*
X5110658Y-12633698D01*
X5110658Y-12633698D02*
X5120182Y-12652746D01*
X5120182Y-12652746D02*
X5129706Y-12662269D01*
X5129706Y-12662269D02*
X5148753Y-12671793D01*
X5148753Y-12671793D02*
X5186849Y-12671793D01*
X5186849Y-12671793D02*
X5205896Y-12662269D01*
X5205896Y-12662269D02*
X5215420Y-12652746D01*
X5215420Y-12652746D02*
X5224944Y-12633698D01*
X5301134Y-12547984D02*
X5301134Y-12586079D01*
X5377325Y-12547984D02*
X5377325Y-12586079D01*
X5672563Y-12824174D02*
X5663039Y-12814650D01*
X5663039Y-12814650D02*
X5643991Y-12786079D01*
X5643991Y-12786079D02*
X5634468Y-12767031D01*
X5634468Y-12767031D02*
X5624944Y-12738460D01*
X5624944Y-12738460D02*
X5615420Y-12690841D01*
X5615420Y-12690841D02*
X5615420Y-12652746D01*
X5615420Y-12652746D02*
X5624944Y-12605127D01*
X5624944Y-12605127D02*
X5634468Y-12576555D01*
X5634468Y-12576555D02*
X5643991Y-12557508D01*
X5643991Y-12557508D02*
X5663039Y-12528936D01*
X5663039Y-12528936D02*
X5672563Y-12519412D01*
X5834468Y-12614650D02*
X5834468Y-12747984D01*
X5786848Y-12538460D02*
X5739229Y-12681317D01*
X5739229Y-12681317D02*
X5863039Y-12681317D01*
X5967801Y-12633698D02*
X5948753Y-12624174D01*
X5948753Y-12624174D02*
X5939229Y-12614650D01*
X5939229Y-12614650D02*
X5929706Y-12595603D01*
X5929706Y-12595603D02*
X5929706Y-12586079D01*
X5929706Y-12586079D02*
X5939229Y-12567031D01*
X5939229Y-12567031D02*
X5948753Y-12557508D01*
X5948753Y-12557508D02*
X5967801Y-12547984D01*
X5967801Y-12547984D02*
X6005896Y-12547984D01*
X6005896Y-12547984D02*
X6024944Y-12557508D01*
X6024944Y-12557508D02*
X6034468Y-12567031D01*
X6034468Y-12567031D02*
X6043991Y-12586079D01*
X6043991Y-12586079D02*
X6043991Y-12595603D01*
X6043991Y-12595603D02*
X6034468Y-12614650D01*
X6034468Y-12614650D02*
X6024944Y-12624174D01*
X6024944Y-12624174D02*
X6005896Y-12633698D01*
X6005896Y-12633698D02*
X5967801Y-12633698D01*
X5967801Y-12633698D02*
X5948753Y-12643222D01*
X5948753Y-12643222D02*
X5939229Y-12652746D01*
X5939229Y-12652746D02*
X5929706Y-12671793D01*
X5929706Y-12671793D02*
X5929706Y-12709888D01*
X5929706Y-12709888D02*
X5939229Y-12728936D01*
X5939229Y-12728936D02*
X5948753Y-12738460D01*
X5948753Y-12738460D02*
X5967801Y-12747984D01*
X5967801Y-12747984D02*
X6005896Y-12747984D01*
X6005896Y-12747984D02*
X6024944Y-12738460D01*
X6024944Y-12738460D02*
X6034468Y-12728936D01*
X6034468Y-12728936D02*
X6043991Y-12709888D01*
X6043991Y-12709888D02*
X6043991Y-12671793D01*
X6043991Y-12671793D02*
X6034468Y-12652746D01*
X6034468Y-12652746D02*
X6024944Y-12643222D01*
X6024944Y-12643222D02*
X6005896Y-12633698D01*
X6282087Y-12747984D02*
X6282087Y-12547984D01*
X6367801Y-12747984D02*
X6367801Y-12643222D01*
X6367801Y-12643222D02*
X6358277Y-12624174D01*
X6358277Y-12624174D02*
X6339230Y-12614650D01*
X6339230Y-12614650D02*
X6310658Y-12614650D01*
X6310658Y-12614650D02*
X6291610Y-12624174D01*
X6291610Y-12624174D02*
X6282087Y-12633698D01*
X6491610Y-12747984D02*
X6472563Y-12738460D01*
X6472563Y-12738460D02*
X6463039Y-12728936D01*
X6463039Y-12728936D02*
X6453515Y-12709888D01*
X6453515Y-12709888D02*
X6453515Y-12652746D01*
X6453515Y-12652746D02*
X6463039Y-12633698D01*
X6463039Y-12633698D02*
X6472563Y-12624174D01*
X6472563Y-12624174D02*
X6491610Y-12614650D01*
X6491610Y-12614650D02*
X6520182Y-12614650D01*
X6520182Y-12614650D02*
X6539230Y-12624174D01*
X6539230Y-12624174D02*
X6548753Y-12633698D01*
X6548753Y-12633698D02*
X6558277Y-12652746D01*
X6558277Y-12652746D02*
X6558277Y-12709888D01*
X6558277Y-12709888D02*
X6548753Y-12728936D01*
X6548753Y-12728936D02*
X6539230Y-12738460D01*
X6539230Y-12738460D02*
X6520182Y-12747984D01*
X6520182Y-12747984D02*
X6491610Y-12747984D01*
X6672563Y-12747984D02*
X6653515Y-12738460D01*
X6653515Y-12738460D02*
X6643991Y-12719412D01*
X6643991Y-12719412D02*
X6643991Y-12547984D01*
X6824944Y-12738460D02*
X6805896Y-12747984D01*
X6805896Y-12747984D02*
X6767801Y-12747984D01*
X6767801Y-12747984D02*
X6748753Y-12738460D01*
X6748753Y-12738460D02*
X6739230Y-12719412D01*
X6739230Y-12719412D02*
X6739230Y-12643222D01*
X6739230Y-12643222D02*
X6748753Y-12624174D01*
X6748753Y-12624174D02*
X6767801Y-12614650D01*
X6767801Y-12614650D02*
X6805896Y-12614650D01*
X6805896Y-12614650D02*
X6824944Y-12624174D01*
X6824944Y-12624174D02*
X6834468Y-12643222D01*
X6834468Y-12643222D02*
X6834468Y-12662269D01*
X6834468Y-12662269D02*
X6739230Y-12681317D01*
X6910658Y-12738460D02*
X6929706Y-12747984D01*
X6929706Y-12747984D02*
X6967801Y-12747984D01*
X6967801Y-12747984D02*
X6986849Y-12738460D01*
X6986849Y-12738460D02*
X6996372Y-12719412D01*
X6996372Y-12719412D02*
X6996372Y-12709888D01*
X6996372Y-12709888D02*
X6986849Y-12690841D01*
X6986849Y-12690841D02*
X6967801Y-12681317D01*
X6967801Y-12681317D02*
X6939230Y-12681317D01*
X6939230Y-12681317D02*
X6920182Y-12671793D01*
X6920182Y-12671793D02*
X6910658Y-12652746D01*
X6910658Y-12652746D02*
X6910658Y-12643222D01*
X6910658Y-12643222D02*
X6920182Y-12624174D01*
X6920182Y-12624174D02*
X6939230Y-12614650D01*
X6939230Y-12614650D02*
X6967801Y-12614650D01*
X6967801Y-12614650D02*
X6986849Y-12624174D01*
X7063039Y-12824174D02*
X7072563Y-12814650D01*
X7072563Y-12814650D02*
X7091611Y-12786079D01*
X7091611Y-12786079D02*
X7101134Y-12767031D01*
X7101134Y-12767031D02*
X7110658Y-12738460D01*
X7110658Y-12738460D02*
X7120182Y-12690841D01*
X7120182Y-12690841D02*
X7120182Y-12652746D01*
X7120182Y-12652746D02*
X7110658Y-12605127D01*
X7110658Y-12605127D02*
X7101134Y-12576555D01*
X7101134Y-12576555D02*
X7091611Y-12557508D01*
X7091611Y-12557508D02*
X7072563Y-12528936D01*
X7072563Y-12528936D02*
X7063039Y-12519412D01*
D12*
X2057500Y-12880500D02*
X2057500Y-12960500D01*
X2017500Y-12920500D02*
X2097500Y-12920500D01*
D11*
X2396372Y-12811984D02*
X2415420Y-12811984D01*
X2415420Y-12811984D02*
X2434467Y-12821508D01*
X2434467Y-12821508D02*
X2443991Y-12831031D01*
X2443991Y-12831031D02*
X2453515Y-12850079D01*
X2453515Y-12850079D02*
X2463039Y-12888174D01*
X2463039Y-12888174D02*
X2463039Y-12935793D01*
X2463039Y-12935793D02*
X2453515Y-12973888D01*
X2453515Y-12973888D02*
X2443991Y-12992936D01*
X2443991Y-12992936D02*
X2434467Y-13002460D01*
X2434467Y-13002460D02*
X2415420Y-13011984D01*
X2415420Y-13011984D02*
X2396372Y-13011984D01*
X2396372Y-13011984D02*
X2377324Y-13002460D01*
X2377324Y-13002460D02*
X2367801Y-12992936D01*
X2367801Y-12992936D02*
X2358277Y-12973888D01*
X2358277Y-12973888D02*
X2348753Y-12935793D01*
X2348753Y-12935793D02*
X2348753Y-12888174D01*
X2348753Y-12888174D02*
X2358277Y-12850079D01*
X2358277Y-12850079D02*
X2367801Y-12831031D01*
X2367801Y-12831031D02*
X2377324Y-12821508D01*
X2377324Y-12821508D02*
X2396372Y-12811984D01*
X2548753Y-12992936D02*
X2558277Y-13002460D01*
X2558277Y-13002460D02*
X2548753Y-13011984D01*
X2548753Y-13011984D02*
X2539229Y-13002460D01*
X2539229Y-13002460D02*
X2548753Y-12992936D01*
X2548753Y-12992936D02*
X2548753Y-13011984D01*
X2672563Y-12897698D02*
X2653515Y-12888174D01*
X2653515Y-12888174D02*
X2643991Y-12878650D01*
X2643991Y-12878650D02*
X2634467Y-12859603D01*
X2634467Y-12859603D02*
X2634467Y-12850079D01*
X2634467Y-12850079D02*
X2643991Y-12831031D01*
X2643991Y-12831031D02*
X2653515Y-12821508D01*
X2653515Y-12821508D02*
X2672563Y-12811984D01*
X2672563Y-12811984D02*
X2710658Y-12811984D01*
X2710658Y-12811984D02*
X2729705Y-12821508D01*
X2729705Y-12821508D02*
X2739229Y-12831031D01*
X2739229Y-12831031D02*
X2748753Y-12850079D01*
X2748753Y-12850079D02*
X2748753Y-12859603D01*
X2748753Y-12859603D02*
X2739229Y-12878650D01*
X2739229Y-12878650D02*
X2729705Y-12888174D01*
X2729705Y-12888174D02*
X2710658Y-12897698D01*
X2710658Y-12897698D02*
X2672563Y-12897698D01*
X2672563Y-12897698D02*
X2653515Y-12907222D01*
X2653515Y-12907222D02*
X2643991Y-12916746D01*
X2643991Y-12916746D02*
X2634467Y-12935793D01*
X2634467Y-12935793D02*
X2634467Y-12973888D01*
X2634467Y-12973888D02*
X2643991Y-12992936D01*
X2643991Y-12992936D02*
X2653515Y-13002460D01*
X2653515Y-13002460D02*
X2672563Y-13011984D01*
X2672563Y-13011984D02*
X2710658Y-13011984D01*
X2710658Y-13011984D02*
X2729705Y-13002460D01*
X2729705Y-13002460D02*
X2739229Y-12992936D01*
X2739229Y-12992936D02*
X2748753Y-12973888D01*
X2748753Y-12973888D02*
X2748753Y-12935793D01*
X2748753Y-12935793D02*
X2739229Y-12916746D01*
X2739229Y-12916746D02*
X2729705Y-12907222D01*
X2729705Y-12907222D02*
X2710658Y-12897698D01*
X2872562Y-12811984D02*
X2891610Y-12811984D01*
X2891610Y-12811984D02*
X2910658Y-12821508D01*
X2910658Y-12821508D02*
X2920182Y-12831031D01*
X2920182Y-12831031D02*
X2929705Y-12850079D01*
X2929705Y-12850079D02*
X2939229Y-12888174D01*
X2939229Y-12888174D02*
X2939229Y-12935793D01*
X2939229Y-12935793D02*
X2929705Y-12973888D01*
X2929705Y-12973888D02*
X2920182Y-12992936D01*
X2920182Y-12992936D02*
X2910658Y-13002460D01*
X2910658Y-13002460D02*
X2891610Y-13011984D01*
X2891610Y-13011984D02*
X2872562Y-13011984D01*
X2872562Y-13011984D02*
X2853515Y-13002460D01*
X2853515Y-13002460D02*
X2843991Y-12992936D01*
X2843991Y-12992936D02*
X2834467Y-12973888D01*
X2834467Y-12973888D02*
X2824943Y-12935793D01*
X2824943Y-12935793D02*
X2824943Y-12888174D01*
X2824943Y-12888174D02*
X2834467Y-12850079D01*
X2834467Y-12850079D02*
X2843991Y-12831031D01*
X2843991Y-12831031D02*
X2853515Y-12821508D01*
X2853515Y-12821508D02*
X2872562Y-12811984D01*
X3063039Y-12811984D02*
X3082086Y-12811984D01*
X3082086Y-12811984D02*
X3101134Y-12821508D01*
X3101134Y-12821508D02*
X3110658Y-12831031D01*
X3110658Y-12831031D02*
X3120182Y-12850079D01*
X3120182Y-12850079D02*
X3129705Y-12888174D01*
X3129705Y-12888174D02*
X3129705Y-12935793D01*
X3129705Y-12935793D02*
X3120182Y-12973888D01*
X3120182Y-12973888D02*
X3110658Y-12992936D01*
X3110658Y-12992936D02*
X3101134Y-13002460D01*
X3101134Y-13002460D02*
X3082086Y-13011984D01*
X3082086Y-13011984D02*
X3063039Y-13011984D01*
X3063039Y-13011984D02*
X3043991Y-13002460D01*
X3043991Y-13002460D02*
X3034467Y-12992936D01*
X3034467Y-12992936D02*
X3024943Y-12973888D01*
X3024943Y-12973888D02*
X3015420Y-12935793D01*
X3015420Y-12935793D02*
X3015420Y-12888174D01*
X3015420Y-12888174D02*
X3024943Y-12850079D01*
X3024943Y-12850079D02*
X3034467Y-12831031D01*
X3034467Y-12831031D02*
X3043991Y-12821508D01*
X3043991Y-12821508D02*
X3063039Y-12811984D01*
X3215420Y-13011984D02*
X3215420Y-12878650D01*
X3215420Y-12897698D02*
X3224943Y-12888174D01*
X3224943Y-12888174D02*
X3243991Y-12878650D01*
X3243991Y-12878650D02*
X3272563Y-12878650D01*
X3272563Y-12878650D02*
X3291610Y-12888174D01*
X3291610Y-12888174D02*
X3301134Y-12907222D01*
X3301134Y-12907222D02*
X3301134Y-13011984D01*
X3301134Y-12907222D02*
X3310658Y-12888174D01*
X3310658Y-12888174D02*
X3329705Y-12878650D01*
X3329705Y-12878650D02*
X3358277Y-12878650D01*
X3358277Y-12878650D02*
X3377324Y-12888174D01*
X3377324Y-12888174D02*
X3386848Y-12907222D01*
X3386848Y-12907222D02*
X3386848Y-13011984D01*
X3482086Y-13011984D02*
X3482086Y-12878650D01*
X3482086Y-12897698D02*
X3491610Y-12888174D01*
X3491610Y-12888174D02*
X3510658Y-12878650D01*
X3510658Y-12878650D02*
X3539229Y-12878650D01*
X3539229Y-12878650D02*
X3558277Y-12888174D01*
X3558277Y-12888174D02*
X3567801Y-12907222D01*
X3567801Y-12907222D02*
X3567801Y-13011984D01*
X3567801Y-12907222D02*
X3577324Y-12888174D01*
X3577324Y-12888174D02*
X3596372Y-12878650D01*
X3596372Y-12878650D02*
X3624943Y-12878650D01*
X3624943Y-12878650D02*
X3643991Y-12888174D01*
X3643991Y-12888174D02*
X3653515Y-12907222D01*
X3653515Y-12907222D02*
X3653515Y-13011984D01*
X4043991Y-12802460D02*
X3872563Y-13059603D01*
X4301134Y-12811984D02*
X4320182Y-12811984D01*
X4320182Y-12811984D02*
X4339229Y-12821508D01*
X4339229Y-12821508D02*
X4348753Y-12831031D01*
X4348753Y-12831031D02*
X4358277Y-12850079D01*
X4358277Y-12850079D02*
X4367801Y-12888174D01*
X4367801Y-12888174D02*
X4367801Y-12935793D01*
X4367801Y-12935793D02*
X4358277Y-12973888D01*
X4358277Y-12973888D02*
X4348753Y-12992936D01*
X4348753Y-12992936D02*
X4339229Y-13002460D01*
X4339229Y-13002460D02*
X4320182Y-13011984D01*
X4320182Y-13011984D02*
X4301134Y-13011984D01*
X4301134Y-13011984D02*
X4282087Y-13002460D01*
X4282087Y-13002460D02*
X4272563Y-12992936D01*
X4272563Y-12992936D02*
X4263039Y-12973888D01*
X4263039Y-12973888D02*
X4253515Y-12935793D01*
X4253515Y-12935793D02*
X4253515Y-12888174D01*
X4253515Y-12888174D02*
X4263039Y-12850079D01*
X4263039Y-12850079D02*
X4272563Y-12831031D01*
X4272563Y-12831031D02*
X4282087Y-12821508D01*
X4282087Y-12821508D02*
X4301134Y-12811984D01*
X4453515Y-12992936D02*
X4463039Y-13002460D01*
X4463039Y-13002460D02*
X4453515Y-13011984D01*
X4453515Y-13011984D02*
X4443991Y-13002460D01*
X4443991Y-13002460D02*
X4453515Y-12992936D01*
X4453515Y-12992936D02*
X4453515Y-13011984D01*
X4586848Y-12811984D02*
X4605896Y-12811984D01*
X4605896Y-12811984D02*
X4624944Y-12821508D01*
X4624944Y-12821508D02*
X4634468Y-12831031D01*
X4634468Y-12831031D02*
X4643991Y-12850079D01*
X4643991Y-12850079D02*
X4653515Y-12888174D01*
X4653515Y-12888174D02*
X4653515Y-12935793D01*
X4653515Y-12935793D02*
X4643991Y-12973888D01*
X4643991Y-12973888D02*
X4634468Y-12992936D01*
X4634468Y-12992936D02*
X4624944Y-13002460D01*
X4624944Y-13002460D02*
X4605896Y-13011984D01*
X4605896Y-13011984D02*
X4586848Y-13011984D01*
X4586848Y-13011984D02*
X4567801Y-13002460D01*
X4567801Y-13002460D02*
X4558277Y-12992936D01*
X4558277Y-12992936D02*
X4548753Y-12973888D01*
X4548753Y-12973888D02*
X4539229Y-12935793D01*
X4539229Y-12935793D02*
X4539229Y-12888174D01*
X4539229Y-12888174D02*
X4548753Y-12850079D01*
X4548753Y-12850079D02*
X4558277Y-12831031D01*
X4558277Y-12831031D02*
X4567801Y-12821508D01*
X4567801Y-12821508D02*
X4586848Y-12811984D01*
X4720182Y-12811984D02*
X4843991Y-12811984D01*
X4843991Y-12811984D02*
X4777325Y-12888174D01*
X4777325Y-12888174D02*
X4805896Y-12888174D01*
X4805896Y-12888174D02*
X4824944Y-12897698D01*
X4824944Y-12897698D02*
X4834468Y-12907222D01*
X4834468Y-12907222D02*
X4843991Y-12926269D01*
X4843991Y-12926269D02*
X4843991Y-12973888D01*
X4843991Y-12973888D02*
X4834468Y-12992936D01*
X4834468Y-12992936D02*
X4824944Y-13002460D01*
X4824944Y-13002460D02*
X4805896Y-13011984D01*
X4805896Y-13011984D02*
X4748753Y-13011984D01*
X4748753Y-13011984D02*
X4729706Y-13002460D01*
X4729706Y-13002460D02*
X4720182Y-12992936D01*
X5034468Y-13011984D02*
X4920182Y-13011984D01*
X4977325Y-13011984D02*
X4977325Y-12811984D01*
X4977325Y-12811984D02*
X4958277Y-12840555D01*
X4958277Y-12840555D02*
X4939229Y-12859603D01*
X4939229Y-12859603D02*
X4920182Y-12869127D01*
X5215420Y-12811984D02*
X5120182Y-12811984D01*
X5120182Y-12811984D02*
X5110658Y-12907222D01*
X5110658Y-12907222D02*
X5120182Y-12897698D01*
X5120182Y-12897698D02*
X5139229Y-12888174D01*
X5139229Y-12888174D02*
X5186849Y-12888174D01*
X5186849Y-12888174D02*
X5205896Y-12897698D01*
X5205896Y-12897698D02*
X5215420Y-12907222D01*
X5215420Y-12907222D02*
X5224944Y-12926269D01*
X5224944Y-12926269D02*
X5224944Y-12973888D01*
X5224944Y-12973888D02*
X5215420Y-12992936D01*
X5215420Y-12992936D02*
X5205896Y-13002460D01*
X5205896Y-13002460D02*
X5186849Y-13011984D01*
X5186849Y-13011984D02*
X5139229Y-13011984D01*
X5139229Y-13011984D02*
X5120182Y-13002460D01*
X5120182Y-13002460D02*
X5110658Y-12992936D01*
X5301134Y-12811984D02*
X5301134Y-12850079D01*
X5377325Y-12811984D02*
X5377325Y-12850079D01*
X5672563Y-13088174D02*
X5663039Y-13078650D01*
X5663039Y-13078650D02*
X5643991Y-13050079D01*
X5643991Y-13050079D02*
X5634468Y-13031031D01*
X5634468Y-13031031D02*
X5624944Y-13002460D01*
X5624944Y-13002460D02*
X5615420Y-12954841D01*
X5615420Y-12954841D02*
X5615420Y-12916746D01*
X5615420Y-12916746D02*
X5624944Y-12869127D01*
X5624944Y-12869127D02*
X5634468Y-12840555D01*
X5634468Y-12840555D02*
X5643991Y-12821508D01*
X5643991Y-12821508D02*
X5663039Y-12792936D01*
X5663039Y-12792936D02*
X5672563Y-12783412D01*
X5834468Y-12811984D02*
X5796372Y-12811984D01*
X5796372Y-12811984D02*
X5777325Y-12821508D01*
X5777325Y-12821508D02*
X5767801Y-12831031D01*
X5767801Y-12831031D02*
X5748753Y-12859603D01*
X5748753Y-12859603D02*
X5739229Y-12897698D01*
X5739229Y-12897698D02*
X5739229Y-12973888D01*
X5739229Y-12973888D02*
X5748753Y-12992936D01*
X5748753Y-12992936D02*
X5758277Y-13002460D01*
X5758277Y-13002460D02*
X5777325Y-13011984D01*
X5777325Y-13011984D02*
X5815420Y-13011984D01*
X5815420Y-13011984D02*
X5834468Y-13002460D01*
X5834468Y-13002460D02*
X5843991Y-12992936D01*
X5843991Y-12992936D02*
X5853515Y-12973888D01*
X5853515Y-12973888D02*
X5853515Y-12926269D01*
X5853515Y-12926269D02*
X5843991Y-12907222D01*
X5843991Y-12907222D02*
X5834468Y-12897698D01*
X5834468Y-12897698D02*
X5815420Y-12888174D01*
X5815420Y-12888174D02*
X5777325Y-12888174D01*
X5777325Y-12888174D02*
X5758277Y-12897698D01*
X5758277Y-12897698D02*
X5748753Y-12907222D01*
X5748753Y-12907222D02*
X5739229Y-12926269D01*
X6091610Y-13011984D02*
X6091610Y-12811984D01*
X6177325Y-13011984D02*
X6177325Y-12907222D01*
X6177325Y-12907222D02*
X6167801Y-12888174D01*
X6167801Y-12888174D02*
X6148753Y-12878650D01*
X6148753Y-12878650D02*
X6120182Y-12878650D01*
X6120182Y-12878650D02*
X6101134Y-12888174D01*
X6101134Y-12888174D02*
X6091610Y-12897698D01*
X6301134Y-13011984D02*
X6282087Y-13002460D01*
X6282087Y-13002460D02*
X6272563Y-12992936D01*
X6272563Y-12992936D02*
X6263039Y-12973888D01*
X6263039Y-12973888D02*
X6263039Y-12916746D01*
X6263039Y-12916746D02*
X6272563Y-12897698D01*
X6272563Y-12897698D02*
X6282087Y-12888174D01*
X6282087Y-12888174D02*
X6301134Y-12878650D01*
X6301134Y-12878650D02*
X6329706Y-12878650D01*
X6329706Y-12878650D02*
X6348753Y-12888174D01*
X6348753Y-12888174D02*
X6358277Y-12897698D01*
X6358277Y-12897698D02*
X6367801Y-12916746D01*
X6367801Y-12916746D02*
X6367801Y-12973888D01*
X6367801Y-12973888D02*
X6358277Y-12992936D01*
X6358277Y-12992936D02*
X6348753Y-13002460D01*
X6348753Y-13002460D02*
X6329706Y-13011984D01*
X6329706Y-13011984D02*
X6301134Y-13011984D01*
X6482087Y-13011984D02*
X6463039Y-13002460D01*
X6463039Y-13002460D02*
X6453515Y-12983412D01*
X6453515Y-12983412D02*
X6453515Y-12811984D01*
X6634468Y-13002460D02*
X6615420Y-13011984D01*
X6615420Y-13011984D02*
X6577325Y-13011984D01*
X6577325Y-13011984D02*
X6558277Y-13002460D01*
X6558277Y-13002460D02*
X6548753Y-12983412D01*
X6548753Y-12983412D02*
X6548753Y-12907222D01*
X6548753Y-12907222D02*
X6558277Y-12888174D01*
X6558277Y-12888174D02*
X6577325Y-12878650D01*
X6577325Y-12878650D02*
X6615420Y-12878650D01*
X6615420Y-12878650D02*
X6634468Y-12888174D01*
X6634468Y-12888174D02*
X6643991Y-12907222D01*
X6643991Y-12907222D02*
X6643991Y-12926269D01*
X6643991Y-12926269D02*
X6548753Y-12945317D01*
X6720182Y-13002460D02*
X6739230Y-13011984D01*
X6739230Y-13011984D02*
X6777325Y-13011984D01*
X6777325Y-13011984D02*
X6796372Y-13002460D01*
X6796372Y-13002460D02*
X6805896Y-12983412D01*
X6805896Y-12983412D02*
X6805896Y-12973888D01*
X6805896Y-12973888D02*
X6796372Y-12954841D01*
X6796372Y-12954841D02*
X6777325Y-12945317D01*
X6777325Y-12945317D02*
X6748753Y-12945317D01*
X6748753Y-12945317D02*
X6729706Y-12935793D01*
X6729706Y-12935793D02*
X6720182Y-12916746D01*
X6720182Y-12916746D02*
X6720182Y-12907222D01*
X6720182Y-12907222D02*
X6729706Y-12888174D01*
X6729706Y-12888174D02*
X6748753Y-12878650D01*
X6748753Y-12878650D02*
X6777325Y-12878650D01*
X6777325Y-12878650D02*
X6796372Y-12888174D01*
X6872563Y-13088174D02*
X6882087Y-13078650D01*
X6882087Y-13078650D02*
X6901134Y-13050079D01*
X6901134Y-13050079D02*
X6910658Y-13031031D01*
X6910658Y-13031031D02*
X6920182Y-13002460D01*
X6920182Y-13002460D02*
X6929706Y-12954841D01*
X6929706Y-12954841D02*
X6929706Y-12916746D01*
X6929706Y-12916746D02*
X6920182Y-12869127D01*
X6920182Y-12869127D02*
X6910658Y-12840555D01*
X6910658Y-12840555D02*
X6901134Y-12821508D01*
X6901134Y-12821508D02*
X6882087Y-12792936D01*
X6882087Y-12792936D02*
X6872563Y-12783412D01*
D12*
X2084320Y-13216320D02*
X2084320Y-13152680D01*
X2020680Y-13152680D01*
X2020680Y-13216320D01*
X2084320Y-13216320D01*
D11*
X2396372Y-13075984D02*
X2415420Y-13075984D01*
X2415420Y-13075984D02*
X2434467Y-13085508D01*
X2434467Y-13085508D02*
X2443991Y-13095031D01*
X2443991Y-13095031D02*
X2453515Y-13114079D01*
X2453515Y-13114079D02*
X2463039Y-13152174D01*
X2463039Y-13152174D02*
X2463039Y-13199793D01*
X2463039Y-13199793D02*
X2453515Y-13237888D01*
X2453515Y-13237888D02*
X2443991Y-13256936D01*
X2443991Y-13256936D02*
X2434467Y-13266460D01*
X2434467Y-13266460D02*
X2415420Y-13275984D01*
X2415420Y-13275984D02*
X2396372Y-13275984D01*
X2396372Y-13275984D02*
X2377324Y-13266460D01*
X2377324Y-13266460D02*
X2367801Y-13256936D01*
X2367801Y-13256936D02*
X2358277Y-13237888D01*
X2358277Y-13237888D02*
X2348753Y-13199793D01*
X2348753Y-13199793D02*
X2348753Y-13152174D01*
X2348753Y-13152174D02*
X2358277Y-13114079D01*
X2358277Y-13114079D02*
X2367801Y-13095031D01*
X2367801Y-13095031D02*
X2377324Y-13085508D01*
X2377324Y-13085508D02*
X2396372Y-13075984D01*
X2548753Y-13256936D02*
X2558277Y-13266460D01*
X2558277Y-13266460D02*
X2548753Y-13275984D01*
X2548753Y-13275984D02*
X2539229Y-13266460D01*
X2539229Y-13266460D02*
X2548753Y-13256936D01*
X2548753Y-13256936D02*
X2548753Y-13275984D01*
X2653515Y-13275984D02*
X2691610Y-13275984D01*
X2691610Y-13275984D02*
X2710658Y-13266460D01*
X2710658Y-13266460D02*
X2720182Y-13256936D01*
X2720182Y-13256936D02*
X2739229Y-13228365D01*
X2739229Y-13228365D02*
X2748753Y-13190269D01*
X2748753Y-13190269D02*
X2748753Y-13114079D01*
X2748753Y-13114079D02*
X2739229Y-13095031D01*
X2739229Y-13095031D02*
X2729705Y-13085508D01*
X2729705Y-13085508D02*
X2710658Y-13075984D01*
X2710658Y-13075984D02*
X2672563Y-13075984D01*
X2672563Y-13075984D02*
X2653515Y-13085508D01*
X2653515Y-13085508D02*
X2643991Y-13095031D01*
X2643991Y-13095031D02*
X2634467Y-13114079D01*
X2634467Y-13114079D02*
X2634467Y-13161698D01*
X2634467Y-13161698D02*
X2643991Y-13180746D01*
X2643991Y-13180746D02*
X2653515Y-13190269D01*
X2653515Y-13190269D02*
X2672563Y-13199793D01*
X2672563Y-13199793D02*
X2710658Y-13199793D01*
X2710658Y-13199793D02*
X2729705Y-13190269D01*
X2729705Y-13190269D02*
X2739229Y-13180746D01*
X2739229Y-13180746D02*
X2748753Y-13161698D01*
X2872562Y-13075984D02*
X2891610Y-13075984D01*
X2891610Y-13075984D02*
X2910658Y-13085508D01*
X2910658Y-13085508D02*
X2920182Y-13095031D01*
X2920182Y-13095031D02*
X2929705Y-13114079D01*
X2929705Y-13114079D02*
X2939229Y-13152174D01*
X2939229Y-13152174D02*
X2939229Y-13199793D01*
X2939229Y-13199793D02*
X2929705Y-13237888D01*
X2929705Y-13237888D02*
X2920182Y-13256936D01*
X2920182Y-13256936D02*
X2910658Y-13266460D01*
X2910658Y-13266460D02*
X2891610Y-13275984D01*
X2891610Y-13275984D02*
X2872562Y-13275984D01*
X2872562Y-13275984D02*
X2853515Y-13266460D01*
X2853515Y-13266460D02*
X2843991Y-13256936D01*
X2843991Y-13256936D02*
X2834467Y-13237888D01*
X2834467Y-13237888D02*
X2824943Y-13199793D01*
X2824943Y-13199793D02*
X2824943Y-13152174D01*
X2824943Y-13152174D02*
X2834467Y-13114079D01*
X2834467Y-13114079D02*
X2843991Y-13095031D01*
X2843991Y-13095031D02*
X2853515Y-13085508D01*
X2853515Y-13085508D02*
X2872562Y-13075984D01*
X3063039Y-13075984D02*
X3082086Y-13075984D01*
X3082086Y-13075984D02*
X3101134Y-13085508D01*
X3101134Y-13085508D02*
X3110658Y-13095031D01*
X3110658Y-13095031D02*
X3120182Y-13114079D01*
X3120182Y-13114079D02*
X3129705Y-13152174D01*
X3129705Y-13152174D02*
X3129705Y-13199793D01*
X3129705Y-13199793D02*
X3120182Y-13237888D01*
X3120182Y-13237888D02*
X3110658Y-13256936D01*
X3110658Y-13256936D02*
X3101134Y-13266460D01*
X3101134Y-13266460D02*
X3082086Y-13275984D01*
X3082086Y-13275984D02*
X3063039Y-13275984D01*
X3063039Y-13275984D02*
X3043991Y-13266460D01*
X3043991Y-13266460D02*
X3034467Y-13256936D01*
X3034467Y-13256936D02*
X3024943Y-13237888D01*
X3024943Y-13237888D02*
X3015420Y-13199793D01*
X3015420Y-13199793D02*
X3015420Y-13152174D01*
X3015420Y-13152174D02*
X3024943Y-13114079D01*
X3024943Y-13114079D02*
X3034467Y-13095031D01*
X3034467Y-13095031D02*
X3043991Y-13085508D01*
X3043991Y-13085508D02*
X3063039Y-13075984D01*
X3215420Y-13275984D02*
X3215420Y-13142650D01*
X3215420Y-13161698D02*
X3224943Y-13152174D01*
X3224943Y-13152174D02*
X3243991Y-13142650D01*
X3243991Y-13142650D02*
X3272563Y-13142650D01*
X3272563Y-13142650D02*
X3291610Y-13152174D01*
X3291610Y-13152174D02*
X3301134Y-13171222D01*
X3301134Y-13171222D02*
X3301134Y-13275984D01*
X3301134Y-13171222D02*
X3310658Y-13152174D01*
X3310658Y-13152174D02*
X3329705Y-13142650D01*
X3329705Y-13142650D02*
X3358277Y-13142650D01*
X3358277Y-13142650D02*
X3377324Y-13152174D01*
X3377324Y-13152174D02*
X3386848Y-13171222D01*
X3386848Y-13171222D02*
X3386848Y-13275984D01*
X3482086Y-13275984D02*
X3482086Y-13142650D01*
X3482086Y-13161698D02*
X3491610Y-13152174D01*
X3491610Y-13152174D02*
X3510658Y-13142650D01*
X3510658Y-13142650D02*
X3539229Y-13142650D01*
X3539229Y-13142650D02*
X3558277Y-13152174D01*
X3558277Y-13152174D02*
X3567801Y-13171222D01*
X3567801Y-13171222D02*
X3567801Y-13275984D01*
X3567801Y-13171222D02*
X3577324Y-13152174D01*
X3577324Y-13152174D02*
X3596372Y-13142650D01*
X3596372Y-13142650D02*
X3624943Y-13142650D01*
X3624943Y-13142650D02*
X3643991Y-13152174D01*
X3643991Y-13152174D02*
X3653515Y-13171222D01*
X3653515Y-13171222D02*
X3653515Y-13275984D01*
X4043991Y-13066460D02*
X3872563Y-13323603D01*
X4301134Y-13075984D02*
X4320182Y-13075984D01*
X4320182Y-13075984D02*
X4339229Y-13085508D01*
X4339229Y-13085508D02*
X4348753Y-13095031D01*
X4348753Y-13095031D02*
X4358277Y-13114079D01*
X4358277Y-13114079D02*
X4367801Y-13152174D01*
X4367801Y-13152174D02*
X4367801Y-13199793D01*
X4367801Y-13199793D02*
X4358277Y-13237888D01*
X4358277Y-13237888D02*
X4348753Y-13256936D01*
X4348753Y-13256936D02*
X4339229Y-13266460D01*
X4339229Y-13266460D02*
X4320182Y-13275984D01*
X4320182Y-13275984D02*
X4301134Y-13275984D01*
X4301134Y-13275984D02*
X4282087Y-13266460D01*
X4282087Y-13266460D02*
X4272563Y-13256936D01*
X4272563Y-13256936D02*
X4263039Y-13237888D01*
X4263039Y-13237888D02*
X4253515Y-13199793D01*
X4253515Y-13199793D02*
X4253515Y-13152174D01*
X4253515Y-13152174D02*
X4263039Y-13114079D01*
X4263039Y-13114079D02*
X4272563Y-13095031D01*
X4272563Y-13095031D02*
X4282087Y-13085508D01*
X4282087Y-13085508D02*
X4301134Y-13075984D01*
X4453515Y-13256936D02*
X4463039Y-13266460D01*
X4463039Y-13266460D02*
X4453515Y-13275984D01*
X4453515Y-13275984D02*
X4443991Y-13266460D01*
X4443991Y-13266460D02*
X4453515Y-13256936D01*
X4453515Y-13256936D02*
X4453515Y-13275984D01*
X4586848Y-13075984D02*
X4605896Y-13075984D01*
X4605896Y-13075984D02*
X4624944Y-13085508D01*
X4624944Y-13085508D02*
X4634468Y-13095031D01*
X4634468Y-13095031D02*
X4643991Y-13114079D01*
X4643991Y-13114079D02*
X4653515Y-13152174D01*
X4653515Y-13152174D02*
X4653515Y-13199793D01*
X4653515Y-13199793D02*
X4643991Y-13237888D01*
X4643991Y-13237888D02*
X4634468Y-13256936D01*
X4634468Y-13256936D02*
X4624944Y-13266460D01*
X4624944Y-13266460D02*
X4605896Y-13275984D01*
X4605896Y-13275984D02*
X4586848Y-13275984D01*
X4586848Y-13275984D02*
X4567801Y-13266460D01*
X4567801Y-13266460D02*
X4558277Y-13256936D01*
X4558277Y-13256936D02*
X4548753Y-13237888D01*
X4548753Y-13237888D02*
X4539229Y-13199793D01*
X4539229Y-13199793D02*
X4539229Y-13152174D01*
X4539229Y-13152174D02*
X4548753Y-13114079D01*
X4548753Y-13114079D02*
X4558277Y-13095031D01*
X4558277Y-13095031D02*
X4567801Y-13085508D01*
X4567801Y-13085508D02*
X4586848Y-13075984D01*
X4720182Y-13075984D02*
X4843991Y-13075984D01*
X4843991Y-13075984D02*
X4777325Y-13152174D01*
X4777325Y-13152174D02*
X4805896Y-13152174D01*
X4805896Y-13152174D02*
X4824944Y-13161698D01*
X4824944Y-13161698D02*
X4834468Y-13171222D01*
X4834468Y-13171222D02*
X4843991Y-13190269D01*
X4843991Y-13190269D02*
X4843991Y-13237888D01*
X4843991Y-13237888D02*
X4834468Y-13256936D01*
X4834468Y-13256936D02*
X4824944Y-13266460D01*
X4824944Y-13266460D02*
X4805896Y-13275984D01*
X4805896Y-13275984D02*
X4748753Y-13275984D01*
X4748753Y-13275984D02*
X4729706Y-13266460D01*
X4729706Y-13266460D02*
X4720182Y-13256936D01*
X5024944Y-13075984D02*
X4929706Y-13075984D01*
X4929706Y-13075984D02*
X4920182Y-13171222D01*
X4920182Y-13171222D02*
X4929706Y-13161698D01*
X4929706Y-13161698D02*
X4948753Y-13152174D01*
X4948753Y-13152174D02*
X4996372Y-13152174D01*
X4996372Y-13152174D02*
X5015420Y-13161698D01*
X5015420Y-13161698D02*
X5024944Y-13171222D01*
X5024944Y-13171222D02*
X5034468Y-13190269D01*
X5034468Y-13190269D02*
X5034468Y-13237888D01*
X5034468Y-13237888D02*
X5024944Y-13256936D01*
X5024944Y-13256936D02*
X5015420Y-13266460D01*
X5015420Y-13266460D02*
X4996372Y-13275984D01*
X4996372Y-13275984D02*
X4948753Y-13275984D01*
X4948753Y-13275984D02*
X4929706Y-13266460D01*
X4929706Y-13266460D02*
X4920182Y-13256936D01*
X5205896Y-13142650D02*
X5205896Y-13275984D01*
X5158277Y-13066460D02*
X5110658Y-13209317D01*
X5110658Y-13209317D02*
X5234468Y-13209317D01*
X5301134Y-13075984D02*
X5301134Y-13114079D01*
X5377325Y-13075984D02*
X5377325Y-13114079D01*
X5672563Y-13352174D02*
X5663039Y-13342650D01*
X5663039Y-13342650D02*
X5643991Y-13314079D01*
X5643991Y-13314079D02*
X5634468Y-13295031D01*
X5634468Y-13295031D02*
X5624944Y-13266460D01*
X5624944Y-13266460D02*
X5615420Y-13218841D01*
X5615420Y-13218841D02*
X5615420Y-13180746D01*
X5615420Y-13180746D02*
X5624944Y-13133127D01*
X5624944Y-13133127D02*
X5634468Y-13104555D01*
X5634468Y-13104555D02*
X5643991Y-13085508D01*
X5643991Y-13085508D02*
X5663039Y-13056936D01*
X5663039Y-13056936D02*
X5672563Y-13047412D01*
X5758277Y-13275984D02*
X5796372Y-13275984D01*
X5796372Y-13275984D02*
X5815420Y-13266460D01*
X5815420Y-13266460D02*
X5824944Y-13256936D01*
X5824944Y-13256936D02*
X5843991Y-13228365D01*
X5843991Y-13228365D02*
X5853515Y-13190269D01*
X5853515Y-13190269D02*
X5853515Y-13114079D01*
X5853515Y-13114079D02*
X5843991Y-13095031D01*
X5843991Y-13095031D02*
X5834468Y-13085508D01*
X5834468Y-13085508D02*
X5815420Y-13075984D01*
X5815420Y-13075984D02*
X5777325Y-13075984D01*
X5777325Y-13075984D02*
X5758277Y-13085508D01*
X5758277Y-13085508D02*
X5748753Y-13095031D01*
X5748753Y-13095031D02*
X5739229Y-13114079D01*
X5739229Y-13114079D02*
X5739229Y-13161698D01*
X5739229Y-13161698D02*
X5748753Y-13180746D01*
X5748753Y-13180746D02*
X5758277Y-13190269D01*
X5758277Y-13190269D02*
X5777325Y-13199793D01*
X5777325Y-13199793D02*
X5815420Y-13199793D01*
X5815420Y-13199793D02*
X5834468Y-13190269D01*
X5834468Y-13190269D02*
X5843991Y-13180746D01*
X5843991Y-13180746D02*
X5853515Y-13161698D01*
X6024944Y-13075984D02*
X5986848Y-13075984D01*
X5986848Y-13075984D02*
X5967801Y-13085508D01*
X5967801Y-13085508D02*
X5958277Y-13095031D01*
X5958277Y-13095031D02*
X5939229Y-13123603D01*
X5939229Y-13123603D02*
X5929706Y-13161698D01*
X5929706Y-13161698D02*
X5929706Y-13237888D01*
X5929706Y-13237888D02*
X5939229Y-13256936D01*
X5939229Y-13256936D02*
X5948753Y-13266460D01*
X5948753Y-13266460D02*
X5967801Y-13275984D01*
X5967801Y-13275984D02*
X6005896Y-13275984D01*
X6005896Y-13275984D02*
X6024944Y-13266460D01*
X6024944Y-13266460D02*
X6034468Y-13256936D01*
X6034468Y-13256936D02*
X6043991Y-13237888D01*
X6043991Y-13237888D02*
X6043991Y-13190269D01*
X6043991Y-13190269D02*
X6034468Y-13171222D01*
X6034468Y-13171222D02*
X6024944Y-13161698D01*
X6024944Y-13161698D02*
X6005896Y-13152174D01*
X6005896Y-13152174D02*
X5967801Y-13152174D01*
X5967801Y-13152174D02*
X5948753Y-13161698D01*
X5948753Y-13161698D02*
X5939229Y-13171222D01*
X5939229Y-13171222D02*
X5929706Y-13190269D01*
X6282087Y-13275984D02*
X6282087Y-13075984D01*
X6367801Y-13275984D02*
X6367801Y-13171222D01*
X6367801Y-13171222D02*
X6358277Y-13152174D01*
X6358277Y-13152174D02*
X6339230Y-13142650D01*
X6339230Y-13142650D02*
X6310658Y-13142650D01*
X6310658Y-13142650D02*
X6291610Y-13152174D01*
X6291610Y-13152174D02*
X6282087Y-13161698D01*
X6491610Y-13275984D02*
X6472563Y-13266460D01*
X6472563Y-13266460D02*
X6463039Y-13256936D01*
X6463039Y-13256936D02*
X6453515Y-13237888D01*
X6453515Y-13237888D02*
X6453515Y-13180746D01*
X6453515Y-13180746D02*
X6463039Y-13161698D01*
X6463039Y-13161698D02*
X6472563Y-13152174D01*
X6472563Y-13152174D02*
X6491610Y-13142650D01*
X6491610Y-13142650D02*
X6520182Y-13142650D01*
X6520182Y-13142650D02*
X6539230Y-13152174D01*
X6539230Y-13152174D02*
X6548753Y-13161698D01*
X6548753Y-13161698D02*
X6558277Y-13180746D01*
X6558277Y-13180746D02*
X6558277Y-13237888D01*
X6558277Y-13237888D02*
X6548753Y-13256936D01*
X6548753Y-13256936D02*
X6539230Y-13266460D01*
X6539230Y-13266460D02*
X6520182Y-13275984D01*
X6520182Y-13275984D02*
X6491610Y-13275984D01*
X6672563Y-13275984D02*
X6653515Y-13266460D01*
X6653515Y-13266460D02*
X6643991Y-13247412D01*
X6643991Y-13247412D02*
X6643991Y-13075984D01*
X6824944Y-13266460D02*
X6805896Y-13275984D01*
X6805896Y-13275984D02*
X6767801Y-13275984D01*
X6767801Y-13275984D02*
X6748753Y-13266460D01*
X6748753Y-13266460D02*
X6739230Y-13247412D01*
X6739230Y-13247412D02*
X6739230Y-13171222D01*
X6739230Y-13171222D02*
X6748753Y-13152174D01*
X6748753Y-13152174D02*
X6767801Y-13142650D01*
X6767801Y-13142650D02*
X6805896Y-13142650D01*
X6805896Y-13142650D02*
X6824944Y-13152174D01*
X6824944Y-13152174D02*
X6834468Y-13171222D01*
X6834468Y-13171222D02*
X6834468Y-13190269D01*
X6834468Y-13190269D02*
X6739230Y-13209317D01*
X6910658Y-13266460D02*
X6929706Y-13275984D01*
X6929706Y-13275984D02*
X6967801Y-13275984D01*
X6967801Y-13275984D02*
X6986849Y-13266460D01*
X6986849Y-13266460D02*
X6996372Y-13247412D01*
X6996372Y-13247412D02*
X6996372Y-13237888D01*
X6996372Y-13237888D02*
X6986849Y-13218841D01*
X6986849Y-13218841D02*
X6967801Y-13209317D01*
X6967801Y-13209317D02*
X6939230Y-13209317D01*
X6939230Y-13209317D02*
X6920182Y-13199793D01*
X6920182Y-13199793D02*
X6910658Y-13180746D01*
X6910658Y-13180746D02*
X6910658Y-13171222D01*
X6910658Y-13171222D02*
X6920182Y-13152174D01*
X6920182Y-13152174D02*
X6939230Y-13142650D01*
X6939230Y-13142650D02*
X6967801Y-13142650D01*
X6967801Y-13142650D02*
X6986849Y-13152174D01*
X7063039Y-13352174D02*
X7072563Y-13342650D01*
X7072563Y-13342650D02*
X7091611Y-13314079D01*
X7091611Y-13314079D02*
X7101134Y-13295031D01*
X7101134Y-13295031D02*
X7110658Y-13266460D01*
X7110658Y-13266460D02*
X7120182Y-13218841D01*
X7120182Y-13218841D02*
X7120182Y-13180746D01*
X7120182Y-13180746D02*
X7110658Y-13133127D01*
X7110658Y-13133127D02*
X7101134Y-13104555D01*
X7101134Y-13104555D02*
X7091611Y-13085508D01*
X7091611Y-13085508D02*
X7072563Y-13056936D01*
X7072563Y-13056936D02*
X7063039Y-13047412D01*
D12*
X2047500Y-13498500D02*
X2097500Y-13448500D01*
X2047500Y-13398500D01*
X1997500Y-13448500D01*
X2047500Y-13498500D01*
D11*
X2463039Y-13539984D02*
X2348753Y-13539984D01*
X2405896Y-13539984D02*
X2405896Y-13339984D01*
X2405896Y-13339984D02*
X2386848Y-13368555D01*
X2386848Y-13368555D02*
X2367801Y-13387603D01*
X2367801Y-13387603D02*
X2348753Y-13397127D01*
X2548753Y-13520936D02*
X2558277Y-13530460D01*
X2558277Y-13530460D02*
X2548753Y-13539984D01*
X2548753Y-13539984D02*
X2539229Y-13530460D01*
X2539229Y-13530460D02*
X2548753Y-13520936D01*
X2548753Y-13520936D02*
X2548753Y-13539984D01*
X2682086Y-13339984D02*
X2701134Y-13339984D01*
X2701134Y-13339984D02*
X2720182Y-13349508D01*
X2720182Y-13349508D02*
X2729705Y-13359031D01*
X2729705Y-13359031D02*
X2739229Y-13378079D01*
X2739229Y-13378079D02*
X2748753Y-13416174D01*
X2748753Y-13416174D02*
X2748753Y-13463793D01*
X2748753Y-13463793D02*
X2739229Y-13501888D01*
X2739229Y-13501888D02*
X2729705Y-13520936D01*
X2729705Y-13520936D02*
X2720182Y-13530460D01*
X2720182Y-13530460D02*
X2701134Y-13539984D01*
X2701134Y-13539984D02*
X2682086Y-13539984D01*
X2682086Y-13539984D02*
X2663039Y-13530460D01*
X2663039Y-13530460D02*
X2653515Y-13520936D01*
X2653515Y-13520936D02*
X2643991Y-13501888D01*
X2643991Y-13501888D02*
X2634467Y-13463793D01*
X2634467Y-13463793D02*
X2634467Y-13416174D01*
X2634467Y-13416174D02*
X2643991Y-13378079D01*
X2643991Y-13378079D02*
X2653515Y-13359031D01*
X2653515Y-13359031D02*
X2663039Y-13349508D01*
X2663039Y-13349508D02*
X2682086Y-13339984D01*
X2872562Y-13339984D02*
X2891610Y-13339984D01*
X2891610Y-13339984D02*
X2910658Y-13349508D01*
X2910658Y-13349508D02*
X2920182Y-13359031D01*
X2920182Y-13359031D02*
X2929705Y-13378079D01*
X2929705Y-13378079D02*
X2939229Y-13416174D01*
X2939229Y-13416174D02*
X2939229Y-13463793D01*
X2939229Y-13463793D02*
X2929705Y-13501888D01*
X2929705Y-13501888D02*
X2920182Y-13520936D01*
X2920182Y-13520936D02*
X2910658Y-13530460D01*
X2910658Y-13530460D02*
X2891610Y-13539984D01*
X2891610Y-13539984D02*
X2872562Y-13539984D01*
X2872562Y-13539984D02*
X2853515Y-13530460D01*
X2853515Y-13530460D02*
X2843991Y-13520936D01*
X2843991Y-13520936D02*
X2834467Y-13501888D01*
X2834467Y-13501888D02*
X2824943Y-13463793D01*
X2824943Y-13463793D02*
X2824943Y-13416174D01*
X2824943Y-13416174D02*
X2834467Y-13378079D01*
X2834467Y-13378079D02*
X2843991Y-13359031D01*
X2843991Y-13359031D02*
X2853515Y-13349508D01*
X2853515Y-13349508D02*
X2872562Y-13339984D01*
X3063039Y-13339984D02*
X3082086Y-13339984D01*
X3082086Y-13339984D02*
X3101134Y-13349508D01*
X3101134Y-13349508D02*
X3110658Y-13359031D01*
X3110658Y-13359031D02*
X3120182Y-13378079D01*
X3120182Y-13378079D02*
X3129705Y-13416174D01*
X3129705Y-13416174D02*
X3129705Y-13463793D01*
X3129705Y-13463793D02*
X3120182Y-13501888D01*
X3120182Y-13501888D02*
X3110658Y-13520936D01*
X3110658Y-13520936D02*
X3101134Y-13530460D01*
X3101134Y-13530460D02*
X3082086Y-13539984D01*
X3082086Y-13539984D02*
X3063039Y-13539984D01*
X3063039Y-13539984D02*
X3043991Y-13530460D01*
X3043991Y-13530460D02*
X3034467Y-13520936D01*
X3034467Y-13520936D02*
X3024943Y-13501888D01*
X3024943Y-13501888D02*
X3015420Y-13463793D01*
X3015420Y-13463793D02*
X3015420Y-13416174D01*
X3015420Y-13416174D02*
X3024943Y-13378079D01*
X3024943Y-13378079D02*
X3034467Y-13359031D01*
X3034467Y-13359031D02*
X3043991Y-13349508D01*
X3043991Y-13349508D02*
X3063039Y-13339984D01*
X3215420Y-13539984D02*
X3215420Y-13406650D01*
X3215420Y-13425698D02*
X3224943Y-13416174D01*
X3224943Y-13416174D02*
X3243991Y-13406650D01*
X3243991Y-13406650D02*
X3272563Y-13406650D01*
X3272563Y-13406650D02*
X3291610Y-13416174D01*
X3291610Y-13416174D02*
X3301134Y-13435222D01*
X3301134Y-13435222D02*
X3301134Y-13539984D01*
X3301134Y-13435222D02*
X3310658Y-13416174D01*
X3310658Y-13416174D02*
X3329705Y-13406650D01*
X3329705Y-13406650D02*
X3358277Y-13406650D01*
X3358277Y-13406650D02*
X3377324Y-13416174D01*
X3377324Y-13416174D02*
X3386848Y-13435222D01*
X3386848Y-13435222D02*
X3386848Y-13539984D01*
X3482086Y-13539984D02*
X3482086Y-13406650D01*
X3482086Y-13425698D02*
X3491610Y-13416174D01*
X3491610Y-13416174D02*
X3510658Y-13406650D01*
X3510658Y-13406650D02*
X3539229Y-13406650D01*
X3539229Y-13406650D02*
X3558277Y-13416174D01*
X3558277Y-13416174D02*
X3567801Y-13435222D01*
X3567801Y-13435222D02*
X3567801Y-13539984D01*
X3567801Y-13435222D02*
X3577324Y-13416174D01*
X3577324Y-13416174D02*
X3596372Y-13406650D01*
X3596372Y-13406650D02*
X3624943Y-13406650D01*
X3624943Y-13406650D02*
X3643991Y-13416174D01*
X3643991Y-13416174D02*
X3653515Y-13435222D01*
X3653515Y-13435222D02*
X3653515Y-13539984D01*
X4043991Y-13330460D02*
X3872563Y-13587603D01*
X4301134Y-13339984D02*
X4320182Y-13339984D01*
X4320182Y-13339984D02*
X4339229Y-13349508D01*
X4339229Y-13349508D02*
X4348753Y-13359031D01*
X4348753Y-13359031D02*
X4358277Y-13378079D01*
X4358277Y-13378079D02*
X4367801Y-13416174D01*
X4367801Y-13416174D02*
X4367801Y-13463793D01*
X4367801Y-13463793D02*
X4358277Y-13501888D01*
X4358277Y-13501888D02*
X4348753Y-13520936D01*
X4348753Y-13520936D02*
X4339229Y-13530460D01*
X4339229Y-13530460D02*
X4320182Y-13539984D01*
X4320182Y-13539984D02*
X4301134Y-13539984D01*
X4301134Y-13539984D02*
X4282087Y-13530460D01*
X4282087Y-13530460D02*
X4272563Y-13520936D01*
X4272563Y-13520936D02*
X4263039Y-13501888D01*
X4263039Y-13501888D02*
X4253515Y-13463793D01*
X4253515Y-13463793D02*
X4253515Y-13416174D01*
X4253515Y-13416174D02*
X4263039Y-13378079D01*
X4263039Y-13378079D02*
X4272563Y-13359031D01*
X4272563Y-13359031D02*
X4282087Y-13349508D01*
X4282087Y-13349508D02*
X4301134Y-13339984D01*
X4453515Y-13520936D02*
X4463039Y-13530460D01*
X4463039Y-13530460D02*
X4453515Y-13539984D01*
X4453515Y-13539984D02*
X4443991Y-13530460D01*
X4443991Y-13530460D02*
X4453515Y-13520936D01*
X4453515Y-13520936D02*
X4453515Y-13539984D01*
X4586848Y-13339984D02*
X4605896Y-13339984D01*
X4605896Y-13339984D02*
X4624944Y-13349508D01*
X4624944Y-13349508D02*
X4634468Y-13359031D01*
X4634468Y-13359031D02*
X4643991Y-13378079D01*
X4643991Y-13378079D02*
X4653515Y-13416174D01*
X4653515Y-13416174D02*
X4653515Y-13463793D01*
X4653515Y-13463793D02*
X4643991Y-13501888D01*
X4643991Y-13501888D02*
X4634468Y-13520936D01*
X4634468Y-13520936D02*
X4624944Y-13530460D01*
X4624944Y-13530460D02*
X4605896Y-13539984D01*
X4605896Y-13539984D02*
X4586848Y-13539984D01*
X4586848Y-13539984D02*
X4567801Y-13530460D01*
X4567801Y-13530460D02*
X4558277Y-13520936D01*
X4558277Y-13520936D02*
X4548753Y-13501888D01*
X4548753Y-13501888D02*
X4539229Y-13463793D01*
X4539229Y-13463793D02*
X4539229Y-13416174D01*
X4539229Y-13416174D02*
X4548753Y-13378079D01*
X4548753Y-13378079D02*
X4558277Y-13359031D01*
X4558277Y-13359031D02*
X4567801Y-13349508D01*
X4567801Y-13349508D02*
X4586848Y-13339984D01*
X4720182Y-13339984D02*
X4843991Y-13339984D01*
X4843991Y-13339984D02*
X4777325Y-13416174D01*
X4777325Y-13416174D02*
X4805896Y-13416174D01*
X4805896Y-13416174D02*
X4824944Y-13425698D01*
X4824944Y-13425698D02*
X4834468Y-13435222D01*
X4834468Y-13435222D02*
X4843991Y-13454269D01*
X4843991Y-13454269D02*
X4843991Y-13501888D01*
X4843991Y-13501888D02*
X4834468Y-13520936D01*
X4834468Y-13520936D02*
X4824944Y-13530460D01*
X4824944Y-13530460D02*
X4805896Y-13539984D01*
X4805896Y-13539984D02*
X4748753Y-13539984D01*
X4748753Y-13539984D02*
X4729706Y-13530460D01*
X4729706Y-13530460D02*
X4720182Y-13520936D01*
X4939229Y-13539984D02*
X4977325Y-13539984D01*
X4977325Y-13539984D02*
X4996372Y-13530460D01*
X4996372Y-13530460D02*
X5005896Y-13520936D01*
X5005896Y-13520936D02*
X5024944Y-13492365D01*
X5024944Y-13492365D02*
X5034468Y-13454269D01*
X5034468Y-13454269D02*
X5034468Y-13378079D01*
X5034468Y-13378079D02*
X5024944Y-13359031D01*
X5024944Y-13359031D02*
X5015420Y-13349508D01*
X5015420Y-13349508D02*
X4996372Y-13339984D01*
X4996372Y-13339984D02*
X4958277Y-13339984D01*
X4958277Y-13339984D02*
X4939229Y-13349508D01*
X4939229Y-13349508D02*
X4929706Y-13359031D01*
X4929706Y-13359031D02*
X4920182Y-13378079D01*
X4920182Y-13378079D02*
X4920182Y-13425698D01*
X4920182Y-13425698D02*
X4929706Y-13444746D01*
X4929706Y-13444746D02*
X4939229Y-13454269D01*
X4939229Y-13454269D02*
X4958277Y-13463793D01*
X4958277Y-13463793D02*
X4996372Y-13463793D01*
X4996372Y-13463793D02*
X5015420Y-13454269D01*
X5015420Y-13454269D02*
X5024944Y-13444746D01*
X5024944Y-13444746D02*
X5034468Y-13425698D01*
X5205896Y-13406650D02*
X5205896Y-13539984D01*
X5158277Y-13330460D02*
X5110658Y-13473317D01*
X5110658Y-13473317D02*
X5234468Y-13473317D01*
X5301134Y-13339984D02*
X5301134Y-13378079D01*
X5377325Y-13339984D02*
X5377325Y-13378079D01*
X5672563Y-13616174D02*
X5663039Y-13606650D01*
X5663039Y-13606650D02*
X5643991Y-13578079D01*
X5643991Y-13578079D02*
X5634468Y-13559031D01*
X5634468Y-13559031D02*
X5624944Y-13530460D01*
X5624944Y-13530460D02*
X5615420Y-13482841D01*
X5615420Y-13482841D02*
X5615420Y-13444746D01*
X5615420Y-13444746D02*
X5624944Y-13397127D01*
X5624944Y-13397127D02*
X5634468Y-13368555D01*
X5634468Y-13368555D02*
X5643991Y-13349508D01*
X5643991Y-13349508D02*
X5663039Y-13320936D01*
X5663039Y-13320936D02*
X5672563Y-13311412D01*
X5853515Y-13539984D02*
X5739229Y-13539984D01*
X5796372Y-13539984D02*
X5796372Y-13339984D01*
X5796372Y-13339984D02*
X5777325Y-13368555D01*
X5777325Y-13368555D02*
X5758277Y-13387603D01*
X5758277Y-13387603D02*
X5739229Y-13397127D01*
X5929706Y-13359031D02*
X5939229Y-13349508D01*
X5939229Y-13349508D02*
X5958277Y-13339984D01*
X5958277Y-13339984D02*
X6005896Y-13339984D01*
X6005896Y-13339984D02*
X6024944Y-13349508D01*
X6024944Y-13349508D02*
X6034468Y-13359031D01*
X6034468Y-13359031D02*
X6043991Y-13378079D01*
X6043991Y-13378079D02*
X6043991Y-13397127D01*
X6043991Y-13397127D02*
X6034468Y-13425698D01*
X6034468Y-13425698D02*
X5920182Y-13539984D01*
X5920182Y-13539984D02*
X6043991Y-13539984D01*
X6282087Y-13539984D02*
X6282087Y-13339984D01*
X6367801Y-13539984D02*
X6367801Y-13435222D01*
X6367801Y-13435222D02*
X6358277Y-13416174D01*
X6358277Y-13416174D02*
X6339230Y-13406650D01*
X6339230Y-13406650D02*
X6310658Y-13406650D01*
X6310658Y-13406650D02*
X6291610Y-13416174D01*
X6291610Y-13416174D02*
X6282087Y-13425698D01*
X6491610Y-13539984D02*
X6472563Y-13530460D01*
X6472563Y-13530460D02*
X6463039Y-13520936D01*
X6463039Y-13520936D02*
X6453515Y-13501888D01*
X6453515Y-13501888D02*
X6453515Y-13444746D01*
X6453515Y-13444746D02*
X6463039Y-13425698D01*
X6463039Y-13425698D02*
X6472563Y-13416174D01*
X6472563Y-13416174D02*
X6491610Y-13406650D01*
X6491610Y-13406650D02*
X6520182Y-13406650D01*
X6520182Y-13406650D02*
X6539230Y-13416174D01*
X6539230Y-13416174D02*
X6548753Y-13425698D01*
X6548753Y-13425698D02*
X6558277Y-13444746D01*
X6558277Y-13444746D02*
X6558277Y-13501888D01*
X6558277Y-13501888D02*
X6548753Y-13520936D01*
X6548753Y-13520936D02*
X6539230Y-13530460D01*
X6539230Y-13530460D02*
X6520182Y-13539984D01*
X6520182Y-13539984D02*
X6491610Y-13539984D01*
X6672563Y-13539984D02*
X6653515Y-13530460D01*
X6653515Y-13530460D02*
X6643991Y-13511412D01*
X6643991Y-13511412D02*
X6643991Y-13339984D01*
X6824944Y-13530460D02*
X6805896Y-13539984D01*
X6805896Y-13539984D02*
X6767801Y-13539984D01*
X6767801Y-13539984D02*
X6748753Y-13530460D01*
X6748753Y-13530460D02*
X6739230Y-13511412D01*
X6739230Y-13511412D02*
X6739230Y-13435222D01*
X6739230Y-13435222D02*
X6748753Y-13416174D01*
X6748753Y-13416174D02*
X6767801Y-13406650D01*
X6767801Y-13406650D02*
X6805896Y-13406650D01*
X6805896Y-13406650D02*
X6824944Y-13416174D01*
X6824944Y-13416174D02*
X6834468Y-13435222D01*
X6834468Y-13435222D02*
X6834468Y-13454269D01*
X6834468Y-13454269D02*
X6739230Y-13473317D01*
X6910658Y-13530460D02*
X6929706Y-13539984D01*
X6929706Y-13539984D02*
X6967801Y-13539984D01*
X6967801Y-13539984D02*
X6986849Y-13530460D01*
X6986849Y-13530460D02*
X6996372Y-13511412D01*
X6996372Y-13511412D02*
X6996372Y-13501888D01*
X6996372Y-13501888D02*
X6986849Y-13482841D01*
X6986849Y-13482841D02*
X6967801Y-13473317D01*
X6967801Y-13473317D02*
X6939230Y-13473317D01*
X6939230Y-13473317D02*
X6920182Y-13463793D01*
X6920182Y-13463793D02*
X6910658Y-13444746D01*
X6910658Y-13444746D02*
X6910658Y-13435222D01*
X6910658Y-13435222D02*
X6920182Y-13416174D01*
X6920182Y-13416174D02*
X6939230Y-13406650D01*
X6939230Y-13406650D02*
X6967801Y-13406650D01*
X6967801Y-13406650D02*
X6986849Y-13416174D01*
X7063039Y-13616174D02*
X7072563Y-13606650D01*
X7072563Y-13606650D02*
X7091611Y-13578079D01*
X7091611Y-13578079D02*
X7101134Y-13559031D01*
X7101134Y-13559031D02*
X7110658Y-13530460D01*
X7110658Y-13530460D02*
X7120182Y-13482841D01*
X7120182Y-13482841D02*
X7120182Y-13444746D01*
X7120182Y-13444746D02*
X7110658Y-13397127D01*
X7110658Y-13397127D02*
X7101134Y-13368555D01*
X7101134Y-13368555D02*
X7091611Y-13349508D01*
X7091611Y-13349508D02*
X7072563Y-13320936D01*
X7072563Y-13320936D02*
X7063039Y-13311412D01*
D13*
X1995500Y-13661500D02*
X2097500Y-13763500D01*
X2097500Y-13661500D02*
X1995500Y-13763500D01*
X2097500Y-13712500D02*
G75*
G02*
X1995500Y-13712500I-51000J0D01*
G01*
X1995500Y-13712500D02*
G75*
G02*
X2097500Y-13712500I51000J0D01*
G01*
D11*
X2463039Y-13803984D02*
X2348753Y-13803984D01*
X2405896Y-13803984D02*
X2405896Y-13603984D01*
X2405896Y-13603984D02*
X2386848Y-13632555D01*
X2386848Y-13632555D02*
X2367801Y-13651603D01*
X2367801Y-13651603D02*
X2348753Y-13661127D01*
X2548753Y-13784936D02*
X2558277Y-13794460D01*
X2558277Y-13794460D02*
X2548753Y-13803984D01*
X2548753Y-13803984D02*
X2539229Y-13794460D01*
X2539229Y-13794460D02*
X2548753Y-13784936D01*
X2548753Y-13784936D02*
X2548753Y-13803984D01*
X2682086Y-13603984D02*
X2701134Y-13603984D01*
X2701134Y-13603984D02*
X2720182Y-13613508D01*
X2720182Y-13613508D02*
X2729705Y-13623031D01*
X2729705Y-13623031D02*
X2739229Y-13642079D01*
X2739229Y-13642079D02*
X2748753Y-13680174D01*
X2748753Y-13680174D02*
X2748753Y-13727793D01*
X2748753Y-13727793D02*
X2739229Y-13765888D01*
X2739229Y-13765888D02*
X2729705Y-13784936D01*
X2729705Y-13784936D02*
X2720182Y-13794460D01*
X2720182Y-13794460D02*
X2701134Y-13803984D01*
X2701134Y-13803984D02*
X2682086Y-13803984D01*
X2682086Y-13803984D02*
X2663039Y-13794460D01*
X2663039Y-13794460D02*
X2653515Y-13784936D01*
X2653515Y-13784936D02*
X2643991Y-13765888D01*
X2643991Y-13765888D02*
X2634467Y-13727793D01*
X2634467Y-13727793D02*
X2634467Y-13680174D01*
X2634467Y-13680174D02*
X2643991Y-13642079D01*
X2643991Y-13642079D02*
X2653515Y-13623031D01*
X2653515Y-13623031D02*
X2663039Y-13613508D01*
X2663039Y-13613508D02*
X2682086Y-13603984D01*
X2824943Y-13623031D02*
X2834467Y-13613508D01*
X2834467Y-13613508D02*
X2853515Y-13603984D01*
X2853515Y-13603984D02*
X2901134Y-13603984D01*
X2901134Y-13603984D02*
X2920182Y-13613508D01*
X2920182Y-13613508D02*
X2929705Y-13623031D01*
X2929705Y-13623031D02*
X2939229Y-13642079D01*
X2939229Y-13642079D02*
X2939229Y-13661127D01*
X2939229Y-13661127D02*
X2929705Y-13689698D01*
X2929705Y-13689698D02*
X2815420Y-13803984D01*
X2815420Y-13803984D02*
X2939229Y-13803984D01*
X3063039Y-13603984D02*
X3082086Y-13603984D01*
X3082086Y-13603984D02*
X3101134Y-13613508D01*
X3101134Y-13613508D02*
X3110658Y-13623031D01*
X3110658Y-13623031D02*
X3120182Y-13642079D01*
X3120182Y-13642079D02*
X3129705Y-13680174D01*
X3129705Y-13680174D02*
X3129705Y-13727793D01*
X3129705Y-13727793D02*
X3120182Y-13765888D01*
X3120182Y-13765888D02*
X3110658Y-13784936D01*
X3110658Y-13784936D02*
X3101134Y-13794460D01*
X3101134Y-13794460D02*
X3082086Y-13803984D01*
X3082086Y-13803984D02*
X3063039Y-13803984D01*
X3063039Y-13803984D02*
X3043991Y-13794460D01*
X3043991Y-13794460D02*
X3034467Y-13784936D01*
X3034467Y-13784936D02*
X3024943Y-13765888D01*
X3024943Y-13765888D02*
X3015420Y-13727793D01*
X3015420Y-13727793D02*
X3015420Y-13680174D01*
X3015420Y-13680174D02*
X3024943Y-13642079D01*
X3024943Y-13642079D02*
X3034467Y-13623031D01*
X3034467Y-13623031D02*
X3043991Y-13613508D01*
X3043991Y-13613508D02*
X3063039Y-13603984D01*
X3215420Y-13803984D02*
X3215420Y-13670650D01*
X3215420Y-13689698D02*
X3224943Y-13680174D01*
X3224943Y-13680174D02*
X3243991Y-13670650D01*
X3243991Y-13670650D02*
X3272563Y-13670650D01*
X3272563Y-13670650D02*
X3291610Y-13680174D01*
X3291610Y-13680174D02*
X3301134Y-13699222D01*
X3301134Y-13699222D02*
X3301134Y-13803984D01*
X3301134Y-13699222D02*
X3310658Y-13680174D01*
X3310658Y-13680174D02*
X3329705Y-13670650D01*
X3329705Y-13670650D02*
X3358277Y-13670650D01*
X3358277Y-13670650D02*
X3377324Y-13680174D01*
X3377324Y-13680174D02*
X3386848Y-13699222D01*
X3386848Y-13699222D02*
X3386848Y-13803984D01*
X3482086Y-13803984D02*
X3482086Y-13670650D01*
X3482086Y-13689698D02*
X3491610Y-13680174D01*
X3491610Y-13680174D02*
X3510658Y-13670650D01*
X3510658Y-13670650D02*
X3539229Y-13670650D01*
X3539229Y-13670650D02*
X3558277Y-13680174D01*
X3558277Y-13680174D02*
X3567801Y-13699222D01*
X3567801Y-13699222D02*
X3567801Y-13803984D01*
X3567801Y-13699222D02*
X3577324Y-13680174D01*
X3577324Y-13680174D02*
X3596372Y-13670650D01*
X3596372Y-13670650D02*
X3624943Y-13670650D01*
X3624943Y-13670650D02*
X3643991Y-13680174D01*
X3643991Y-13680174D02*
X3653515Y-13699222D01*
X3653515Y-13699222D02*
X3653515Y-13803984D01*
X4043991Y-13594460D02*
X3872563Y-13851603D01*
X4301134Y-13603984D02*
X4320182Y-13603984D01*
X4320182Y-13603984D02*
X4339229Y-13613508D01*
X4339229Y-13613508D02*
X4348753Y-13623031D01*
X4348753Y-13623031D02*
X4358277Y-13642079D01*
X4358277Y-13642079D02*
X4367801Y-13680174D01*
X4367801Y-13680174D02*
X4367801Y-13727793D01*
X4367801Y-13727793D02*
X4358277Y-13765888D01*
X4358277Y-13765888D02*
X4348753Y-13784936D01*
X4348753Y-13784936D02*
X4339229Y-13794460D01*
X4339229Y-13794460D02*
X4320182Y-13803984D01*
X4320182Y-13803984D02*
X4301134Y-13803984D01*
X4301134Y-13803984D02*
X4282087Y-13794460D01*
X4282087Y-13794460D02*
X4272563Y-13784936D01*
X4272563Y-13784936D02*
X4263039Y-13765888D01*
X4263039Y-13765888D02*
X4253515Y-13727793D01*
X4253515Y-13727793D02*
X4253515Y-13680174D01*
X4253515Y-13680174D02*
X4263039Y-13642079D01*
X4263039Y-13642079D02*
X4272563Y-13623031D01*
X4272563Y-13623031D02*
X4282087Y-13613508D01*
X4282087Y-13613508D02*
X4301134Y-13603984D01*
X4453515Y-13784936D02*
X4463039Y-13794460D01*
X4463039Y-13794460D02*
X4453515Y-13803984D01*
X4453515Y-13803984D02*
X4443991Y-13794460D01*
X4443991Y-13794460D02*
X4453515Y-13784936D01*
X4453515Y-13784936D02*
X4453515Y-13803984D01*
X4586848Y-13603984D02*
X4605896Y-13603984D01*
X4605896Y-13603984D02*
X4624944Y-13613508D01*
X4624944Y-13613508D02*
X4634468Y-13623031D01*
X4634468Y-13623031D02*
X4643991Y-13642079D01*
X4643991Y-13642079D02*
X4653515Y-13680174D01*
X4653515Y-13680174D02*
X4653515Y-13727793D01*
X4653515Y-13727793D02*
X4643991Y-13765888D01*
X4643991Y-13765888D02*
X4634468Y-13784936D01*
X4634468Y-13784936D02*
X4624944Y-13794460D01*
X4624944Y-13794460D02*
X4605896Y-13803984D01*
X4605896Y-13803984D02*
X4586848Y-13803984D01*
X4586848Y-13803984D02*
X4567801Y-13794460D01*
X4567801Y-13794460D02*
X4558277Y-13784936D01*
X4558277Y-13784936D02*
X4548753Y-13765888D01*
X4548753Y-13765888D02*
X4539229Y-13727793D01*
X4539229Y-13727793D02*
X4539229Y-13680174D01*
X4539229Y-13680174D02*
X4548753Y-13642079D01*
X4548753Y-13642079D02*
X4558277Y-13623031D01*
X4558277Y-13623031D02*
X4567801Y-13613508D01*
X4567801Y-13613508D02*
X4586848Y-13603984D01*
X4824944Y-13670650D02*
X4824944Y-13803984D01*
X4777325Y-13594460D02*
X4729706Y-13737317D01*
X4729706Y-13737317D02*
X4853515Y-13737317D01*
X4967801Y-13603984D02*
X4986849Y-13603984D01*
X4986849Y-13603984D02*
X5005896Y-13613508D01*
X5005896Y-13613508D02*
X5015420Y-13623031D01*
X5015420Y-13623031D02*
X5024944Y-13642079D01*
X5024944Y-13642079D02*
X5034468Y-13680174D01*
X5034468Y-13680174D02*
X5034468Y-13727793D01*
X5034468Y-13727793D02*
X5024944Y-13765888D01*
X5024944Y-13765888D02*
X5015420Y-13784936D01*
X5015420Y-13784936D02*
X5005896Y-13794460D01*
X5005896Y-13794460D02*
X4986849Y-13803984D01*
X4986849Y-13803984D02*
X4967801Y-13803984D01*
X4967801Y-13803984D02*
X4948753Y-13794460D01*
X4948753Y-13794460D02*
X4939229Y-13784936D01*
X4939229Y-13784936D02*
X4929706Y-13765888D01*
X4929706Y-13765888D02*
X4920182Y-13727793D01*
X4920182Y-13727793D02*
X4920182Y-13680174D01*
X4920182Y-13680174D02*
X4929706Y-13642079D01*
X4929706Y-13642079D02*
X4939229Y-13623031D01*
X4939229Y-13623031D02*
X4948753Y-13613508D01*
X4948753Y-13613508D02*
X4967801Y-13603984D01*
X5110658Y-13623031D02*
X5120182Y-13613508D01*
X5120182Y-13613508D02*
X5139229Y-13603984D01*
X5139229Y-13603984D02*
X5186849Y-13603984D01*
X5186849Y-13603984D02*
X5205896Y-13613508D01*
X5205896Y-13613508D02*
X5215420Y-13623031D01*
X5215420Y-13623031D02*
X5224944Y-13642079D01*
X5224944Y-13642079D02*
X5224944Y-13661127D01*
X5224944Y-13661127D02*
X5215420Y-13689698D01*
X5215420Y-13689698D02*
X5101134Y-13803984D01*
X5101134Y-13803984D02*
X5224944Y-13803984D01*
X5301134Y-13603984D02*
X5301134Y-13642079D01*
X5377325Y-13603984D02*
X5377325Y-13642079D01*
X5672563Y-13880174D02*
X5663039Y-13870650D01*
X5663039Y-13870650D02*
X5643991Y-13842079D01*
X5643991Y-13842079D02*
X5634468Y-13823031D01*
X5634468Y-13823031D02*
X5624944Y-13794460D01*
X5624944Y-13794460D02*
X5615420Y-13746841D01*
X5615420Y-13746841D02*
X5615420Y-13708746D01*
X5615420Y-13708746D02*
X5624944Y-13661127D01*
X5624944Y-13661127D02*
X5634468Y-13632555D01*
X5634468Y-13632555D02*
X5643991Y-13613508D01*
X5643991Y-13613508D02*
X5663039Y-13584936D01*
X5663039Y-13584936D02*
X5672563Y-13575412D01*
X5729706Y-13603984D02*
X5853515Y-13603984D01*
X5853515Y-13603984D02*
X5786848Y-13680174D01*
X5786848Y-13680174D02*
X5815420Y-13680174D01*
X5815420Y-13680174D02*
X5834468Y-13689698D01*
X5834468Y-13689698D02*
X5843991Y-13699222D01*
X5843991Y-13699222D02*
X5853515Y-13718269D01*
X5853515Y-13718269D02*
X5853515Y-13765888D01*
X5853515Y-13765888D02*
X5843991Y-13784936D01*
X5843991Y-13784936D02*
X5834468Y-13794460D01*
X5834468Y-13794460D02*
X5815420Y-13803984D01*
X5815420Y-13803984D02*
X5758277Y-13803984D01*
X5758277Y-13803984D02*
X5739229Y-13794460D01*
X5739229Y-13794460D02*
X5729706Y-13784936D01*
X5977325Y-13603984D02*
X5996372Y-13603984D01*
X5996372Y-13603984D02*
X6015420Y-13613508D01*
X6015420Y-13613508D02*
X6024944Y-13623031D01*
X6024944Y-13623031D02*
X6034468Y-13642079D01*
X6034468Y-13642079D02*
X6043991Y-13680174D01*
X6043991Y-13680174D02*
X6043991Y-13727793D01*
X6043991Y-13727793D02*
X6034468Y-13765888D01*
X6034468Y-13765888D02*
X6024944Y-13784936D01*
X6024944Y-13784936D02*
X6015420Y-13794460D01*
X6015420Y-13794460D02*
X5996372Y-13803984D01*
X5996372Y-13803984D02*
X5977325Y-13803984D01*
X5977325Y-13803984D02*
X5958277Y-13794460D01*
X5958277Y-13794460D02*
X5948753Y-13784936D01*
X5948753Y-13784936D02*
X5939229Y-13765888D01*
X5939229Y-13765888D02*
X5929706Y-13727793D01*
X5929706Y-13727793D02*
X5929706Y-13680174D01*
X5929706Y-13680174D02*
X5939229Y-13642079D01*
X5939229Y-13642079D02*
X5948753Y-13623031D01*
X5948753Y-13623031D02*
X5958277Y-13613508D01*
X5958277Y-13613508D02*
X5977325Y-13603984D01*
X6282087Y-13803984D02*
X6282087Y-13603984D01*
X6367801Y-13803984D02*
X6367801Y-13699222D01*
X6367801Y-13699222D02*
X6358277Y-13680174D01*
X6358277Y-13680174D02*
X6339230Y-13670650D01*
X6339230Y-13670650D02*
X6310658Y-13670650D01*
X6310658Y-13670650D02*
X6291610Y-13680174D01*
X6291610Y-13680174D02*
X6282087Y-13689698D01*
X6491610Y-13803984D02*
X6472563Y-13794460D01*
X6472563Y-13794460D02*
X6463039Y-13784936D01*
X6463039Y-13784936D02*
X6453515Y-13765888D01*
X6453515Y-13765888D02*
X6453515Y-13708746D01*
X6453515Y-13708746D02*
X6463039Y-13689698D01*
X6463039Y-13689698D02*
X6472563Y-13680174D01*
X6472563Y-13680174D02*
X6491610Y-13670650D01*
X6491610Y-13670650D02*
X6520182Y-13670650D01*
X6520182Y-13670650D02*
X6539230Y-13680174D01*
X6539230Y-13680174D02*
X6548753Y-13689698D01*
X6548753Y-13689698D02*
X6558277Y-13708746D01*
X6558277Y-13708746D02*
X6558277Y-13765888D01*
X6558277Y-13765888D02*
X6548753Y-13784936D01*
X6548753Y-13784936D02*
X6539230Y-13794460D01*
X6539230Y-13794460D02*
X6520182Y-13803984D01*
X6520182Y-13803984D02*
X6491610Y-13803984D01*
X6672563Y-13803984D02*
X6653515Y-13794460D01*
X6653515Y-13794460D02*
X6643991Y-13775412D01*
X6643991Y-13775412D02*
X6643991Y-13603984D01*
X6824944Y-13794460D02*
X6805896Y-13803984D01*
X6805896Y-13803984D02*
X6767801Y-13803984D01*
X6767801Y-13803984D02*
X6748753Y-13794460D01*
X6748753Y-13794460D02*
X6739230Y-13775412D01*
X6739230Y-13775412D02*
X6739230Y-13699222D01*
X6739230Y-13699222D02*
X6748753Y-13680174D01*
X6748753Y-13680174D02*
X6767801Y-13670650D01*
X6767801Y-13670650D02*
X6805896Y-13670650D01*
X6805896Y-13670650D02*
X6824944Y-13680174D01*
X6824944Y-13680174D02*
X6834468Y-13699222D01*
X6834468Y-13699222D02*
X6834468Y-13718269D01*
X6834468Y-13718269D02*
X6739230Y-13737317D01*
X6910658Y-13794460D02*
X6929706Y-13803984D01*
X6929706Y-13803984D02*
X6967801Y-13803984D01*
X6967801Y-13803984D02*
X6986849Y-13794460D01*
X6986849Y-13794460D02*
X6996372Y-13775412D01*
X6996372Y-13775412D02*
X6996372Y-13765888D01*
X6996372Y-13765888D02*
X6986849Y-13746841D01*
X6986849Y-13746841D02*
X6967801Y-13737317D01*
X6967801Y-13737317D02*
X6939230Y-13737317D01*
X6939230Y-13737317D02*
X6920182Y-13727793D01*
X6920182Y-13727793D02*
X6910658Y-13708746D01*
X6910658Y-13708746D02*
X6910658Y-13699222D01*
X6910658Y-13699222D02*
X6920182Y-13680174D01*
X6920182Y-13680174D02*
X6939230Y-13670650D01*
X6939230Y-13670650D02*
X6967801Y-13670650D01*
X6967801Y-13670650D02*
X6986849Y-13680174D01*
X7063039Y-13880174D02*
X7072563Y-13870650D01*
X7072563Y-13870650D02*
X7091611Y-13842079D01*
X7091611Y-13842079D02*
X7101134Y-13823031D01*
X7101134Y-13823031D02*
X7110658Y-13794460D01*
X7110658Y-13794460D02*
X7120182Y-13746841D01*
X7120182Y-13746841D02*
X7120182Y-13708746D01*
X7120182Y-13708746D02*
X7110658Y-13661127D01*
X7110658Y-13661127D02*
X7101134Y-13632555D01*
X7101134Y-13632555D02*
X7091611Y-13613508D01*
X7091611Y-13613508D02*
X7072563Y-13584936D01*
X7072563Y-13584936D02*
X7063039Y-13575412D01*
D14*
X1967500Y-13911500D02*
X2097500Y-14041500D01*
X2097500Y-13911500D02*
X1967500Y-14041500D01*
X2032500Y-13911500D02*
X2032500Y-14041500D01*
X1967500Y-13976500D02*
X2097500Y-13976500D01*
D11*
X2463039Y-14067984D02*
X2348753Y-14067984D01*
X2405896Y-14067984D02*
X2405896Y-13867984D01*
X2405896Y-13867984D02*
X2386848Y-13896555D01*
X2386848Y-13896555D02*
X2367801Y-13915603D01*
X2367801Y-13915603D02*
X2348753Y-13925127D01*
X2548753Y-14048936D02*
X2558277Y-14058460D01*
X2558277Y-14058460D02*
X2548753Y-14067984D01*
X2548753Y-14067984D02*
X2539229Y-14058460D01*
X2539229Y-14058460D02*
X2548753Y-14048936D01*
X2548753Y-14048936D02*
X2548753Y-14067984D01*
X2624944Y-13867984D02*
X2748753Y-13867984D01*
X2748753Y-13867984D02*
X2682086Y-13944174D01*
X2682086Y-13944174D02*
X2710658Y-13944174D01*
X2710658Y-13944174D02*
X2729705Y-13953698D01*
X2729705Y-13953698D02*
X2739229Y-13963222D01*
X2739229Y-13963222D02*
X2748753Y-13982269D01*
X2748753Y-13982269D02*
X2748753Y-14029888D01*
X2748753Y-14029888D02*
X2739229Y-14048936D01*
X2739229Y-14048936D02*
X2729705Y-14058460D01*
X2729705Y-14058460D02*
X2710658Y-14067984D01*
X2710658Y-14067984D02*
X2653515Y-14067984D01*
X2653515Y-14067984D02*
X2634467Y-14058460D01*
X2634467Y-14058460D02*
X2624944Y-14048936D01*
X2872562Y-13867984D02*
X2891610Y-13867984D01*
X2891610Y-13867984D02*
X2910658Y-13877508D01*
X2910658Y-13877508D02*
X2920182Y-13887031D01*
X2920182Y-13887031D02*
X2929705Y-13906079D01*
X2929705Y-13906079D02*
X2939229Y-13944174D01*
X2939229Y-13944174D02*
X2939229Y-13991793D01*
X2939229Y-13991793D02*
X2929705Y-14029888D01*
X2929705Y-14029888D02*
X2920182Y-14048936D01*
X2920182Y-14048936D02*
X2910658Y-14058460D01*
X2910658Y-14058460D02*
X2891610Y-14067984D01*
X2891610Y-14067984D02*
X2872562Y-14067984D01*
X2872562Y-14067984D02*
X2853515Y-14058460D01*
X2853515Y-14058460D02*
X2843991Y-14048936D01*
X2843991Y-14048936D02*
X2834467Y-14029888D01*
X2834467Y-14029888D02*
X2824943Y-13991793D01*
X2824943Y-13991793D02*
X2824943Y-13944174D01*
X2824943Y-13944174D02*
X2834467Y-13906079D01*
X2834467Y-13906079D02*
X2843991Y-13887031D01*
X2843991Y-13887031D02*
X2853515Y-13877508D01*
X2853515Y-13877508D02*
X2872562Y-13867984D01*
X3063039Y-13867984D02*
X3082086Y-13867984D01*
X3082086Y-13867984D02*
X3101134Y-13877508D01*
X3101134Y-13877508D02*
X3110658Y-13887031D01*
X3110658Y-13887031D02*
X3120182Y-13906079D01*
X3120182Y-13906079D02*
X3129705Y-13944174D01*
X3129705Y-13944174D02*
X3129705Y-13991793D01*
X3129705Y-13991793D02*
X3120182Y-14029888D01*
X3120182Y-14029888D02*
X3110658Y-14048936D01*
X3110658Y-14048936D02*
X3101134Y-14058460D01*
X3101134Y-14058460D02*
X3082086Y-14067984D01*
X3082086Y-14067984D02*
X3063039Y-14067984D01*
X3063039Y-14067984D02*
X3043991Y-14058460D01*
X3043991Y-14058460D02*
X3034467Y-14048936D01*
X3034467Y-14048936D02*
X3024943Y-14029888D01*
X3024943Y-14029888D02*
X3015420Y-13991793D01*
X3015420Y-13991793D02*
X3015420Y-13944174D01*
X3015420Y-13944174D02*
X3024943Y-13906079D01*
X3024943Y-13906079D02*
X3034467Y-13887031D01*
X3034467Y-13887031D02*
X3043991Y-13877508D01*
X3043991Y-13877508D02*
X3063039Y-13867984D01*
X3215420Y-14067984D02*
X3215420Y-13934650D01*
X3215420Y-13953698D02*
X3224943Y-13944174D01*
X3224943Y-13944174D02*
X3243991Y-13934650D01*
X3243991Y-13934650D02*
X3272563Y-13934650D01*
X3272563Y-13934650D02*
X3291610Y-13944174D01*
X3291610Y-13944174D02*
X3301134Y-13963222D01*
X3301134Y-13963222D02*
X3301134Y-14067984D01*
X3301134Y-13963222D02*
X3310658Y-13944174D01*
X3310658Y-13944174D02*
X3329705Y-13934650D01*
X3329705Y-13934650D02*
X3358277Y-13934650D01*
X3358277Y-13934650D02*
X3377324Y-13944174D01*
X3377324Y-13944174D02*
X3386848Y-13963222D01*
X3386848Y-13963222D02*
X3386848Y-14067984D01*
X3482086Y-14067984D02*
X3482086Y-13934650D01*
X3482086Y-13953698D02*
X3491610Y-13944174D01*
X3491610Y-13944174D02*
X3510658Y-13934650D01*
X3510658Y-13934650D02*
X3539229Y-13934650D01*
X3539229Y-13934650D02*
X3558277Y-13944174D01*
X3558277Y-13944174D02*
X3567801Y-13963222D01*
X3567801Y-13963222D02*
X3567801Y-14067984D01*
X3567801Y-13963222D02*
X3577324Y-13944174D01*
X3577324Y-13944174D02*
X3596372Y-13934650D01*
X3596372Y-13934650D02*
X3624943Y-13934650D01*
X3624943Y-13934650D02*
X3643991Y-13944174D01*
X3643991Y-13944174D02*
X3653515Y-13963222D01*
X3653515Y-13963222D02*
X3653515Y-14067984D01*
X4043991Y-13858460D02*
X3872563Y-14115603D01*
X4301134Y-13867984D02*
X4320182Y-13867984D01*
X4320182Y-13867984D02*
X4339229Y-13877508D01*
X4339229Y-13877508D02*
X4348753Y-13887031D01*
X4348753Y-13887031D02*
X4358277Y-13906079D01*
X4358277Y-13906079D02*
X4367801Y-13944174D01*
X4367801Y-13944174D02*
X4367801Y-13991793D01*
X4367801Y-13991793D02*
X4358277Y-14029888D01*
X4358277Y-14029888D02*
X4348753Y-14048936D01*
X4348753Y-14048936D02*
X4339229Y-14058460D01*
X4339229Y-14058460D02*
X4320182Y-14067984D01*
X4320182Y-14067984D02*
X4301134Y-14067984D01*
X4301134Y-14067984D02*
X4282087Y-14058460D01*
X4282087Y-14058460D02*
X4272563Y-14048936D01*
X4272563Y-14048936D02*
X4263039Y-14029888D01*
X4263039Y-14029888D02*
X4253515Y-13991793D01*
X4253515Y-13991793D02*
X4253515Y-13944174D01*
X4253515Y-13944174D02*
X4263039Y-13906079D01*
X4263039Y-13906079D02*
X4272563Y-13887031D01*
X4272563Y-13887031D02*
X4282087Y-13877508D01*
X4282087Y-13877508D02*
X4301134Y-13867984D01*
X4453515Y-14048936D02*
X4463039Y-14058460D01*
X4463039Y-14058460D02*
X4453515Y-14067984D01*
X4453515Y-14067984D02*
X4443991Y-14058460D01*
X4443991Y-14058460D02*
X4453515Y-14048936D01*
X4453515Y-14048936D02*
X4453515Y-14067984D01*
X4586848Y-13867984D02*
X4605896Y-13867984D01*
X4605896Y-13867984D02*
X4624944Y-13877508D01*
X4624944Y-13877508D02*
X4634468Y-13887031D01*
X4634468Y-13887031D02*
X4643991Y-13906079D01*
X4643991Y-13906079D02*
X4653515Y-13944174D01*
X4653515Y-13944174D02*
X4653515Y-13991793D01*
X4653515Y-13991793D02*
X4643991Y-14029888D01*
X4643991Y-14029888D02*
X4634468Y-14048936D01*
X4634468Y-14048936D02*
X4624944Y-14058460D01*
X4624944Y-14058460D02*
X4605896Y-14067984D01*
X4605896Y-14067984D02*
X4586848Y-14067984D01*
X4586848Y-14067984D02*
X4567801Y-14058460D01*
X4567801Y-14058460D02*
X4558277Y-14048936D01*
X4558277Y-14048936D02*
X4548753Y-14029888D01*
X4548753Y-14029888D02*
X4539229Y-13991793D01*
X4539229Y-13991793D02*
X4539229Y-13944174D01*
X4539229Y-13944174D02*
X4548753Y-13906079D01*
X4548753Y-13906079D02*
X4558277Y-13887031D01*
X4558277Y-13887031D02*
X4567801Y-13877508D01*
X4567801Y-13877508D02*
X4586848Y-13867984D01*
X4834468Y-13867984D02*
X4739229Y-13867984D01*
X4739229Y-13867984D02*
X4729706Y-13963222D01*
X4729706Y-13963222D02*
X4739229Y-13953698D01*
X4739229Y-13953698D02*
X4758277Y-13944174D01*
X4758277Y-13944174D02*
X4805896Y-13944174D01*
X4805896Y-13944174D02*
X4824944Y-13953698D01*
X4824944Y-13953698D02*
X4834468Y-13963222D01*
X4834468Y-13963222D02*
X4843991Y-13982269D01*
X4843991Y-13982269D02*
X4843991Y-14029888D01*
X4843991Y-14029888D02*
X4834468Y-14048936D01*
X4834468Y-14048936D02*
X4824944Y-14058460D01*
X4824944Y-14058460D02*
X4805896Y-14067984D01*
X4805896Y-14067984D02*
X4758277Y-14067984D01*
X4758277Y-14067984D02*
X4739229Y-14058460D01*
X4739229Y-14058460D02*
X4729706Y-14048936D01*
X5034468Y-14067984D02*
X4920182Y-14067984D01*
X4977325Y-14067984D02*
X4977325Y-13867984D01*
X4977325Y-13867984D02*
X4958277Y-13896555D01*
X4958277Y-13896555D02*
X4939229Y-13915603D01*
X4939229Y-13915603D02*
X4920182Y-13925127D01*
X5110658Y-13887031D02*
X5120182Y-13877508D01*
X5120182Y-13877508D02*
X5139229Y-13867984D01*
X5139229Y-13867984D02*
X5186849Y-13867984D01*
X5186849Y-13867984D02*
X5205896Y-13877508D01*
X5205896Y-13877508D02*
X5215420Y-13887031D01*
X5215420Y-13887031D02*
X5224944Y-13906079D01*
X5224944Y-13906079D02*
X5224944Y-13925127D01*
X5224944Y-13925127D02*
X5215420Y-13953698D01*
X5215420Y-13953698D02*
X5101134Y-14067984D01*
X5101134Y-14067984D02*
X5224944Y-14067984D01*
X5301134Y-13867984D02*
X5301134Y-13906079D01*
X5377325Y-13867984D02*
X5377325Y-13906079D01*
X5672563Y-14144174D02*
X5663039Y-14134650D01*
X5663039Y-14134650D02*
X5643991Y-14106079D01*
X5643991Y-14106079D02*
X5634468Y-14087031D01*
X5634468Y-14087031D02*
X5624944Y-14058460D01*
X5624944Y-14058460D02*
X5615420Y-14010841D01*
X5615420Y-14010841D02*
X5615420Y-13972746D01*
X5615420Y-13972746D02*
X5624944Y-13925127D01*
X5624944Y-13925127D02*
X5634468Y-13896555D01*
X5634468Y-13896555D02*
X5643991Y-13877508D01*
X5643991Y-13877508D02*
X5663039Y-13848936D01*
X5663039Y-13848936D02*
X5672563Y-13839412D01*
X5853515Y-14067984D02*
X5739229Y-14067984D01*
X5796372Y-14067984D02*
X5796372Y-13867984D01*
X5796372Y-13867984D02*
X5777325Y-13896555D01*
X5777325Y-13896555D02*
X5758277Y-13915603D01*
X5758277Y-13915603D02*
X5739229Y-13925127D01*
X6024944Y-13867984D02*
X5986848Y-13867984D01*
X5986848Y-13867984D02*
X5967801Y-13877508D01*
X5967801Y-13877508D02*
X5958277Y-13887031D01*
X5958277Y-13887031D02*
X5939229Y-13915603D01*
X5939229Y-13915603D02*
X5929706Y-13953698D01*
X5929706Y-13953698D02*
X5929706Y-14029888D01*
X5929706Y-14029888D02*
X5939229Y-14048936D01*
X5939229Y-14048936D02*
X5948753Y-14058460D01*
X5948753Y-14058460D02*
X5967801Y-14067984D01*
X5967801Y-14067984D02*
X6005896Y-14067984D01*
X6005896Y-14067984D02*
X6024944Y-14058460D01*
X6024944Y-14058460D02*
X6034468Y-14048936D01*
X6034468Y-14048936D02*
X6043991Y-14029888D01*
X6043991Y-14029888D02*
X6043991Y-13982269D01*
X6043991Y-13982269D02*
X6034468Y-13963222D01*
X6034468Y-13963222D02*
X6024944Y-13953698D01*
X6024944Y-13953698D02*
X6005896Y-13944174D01*
X6005896Y-13944174D02*
X5967801Y-13944174D01*
X5967801Y-13944174D02*
X5948753Y-13953698D01*
X5948753Y-13953698D02*
X5939229Y-13963222D01*
X5939229Y-13963222D02*
X5929706Y-13982269D01*
X6282087Y-14067984D02*
X6282087Y-13867984D01*
X6367801Y-14067984D02*
X6367801Y-13963222D01*
X6367801Y-13963222D02*
X6358277Y-13944174D01*
X6358277Y-13944174D02*
X6339230Y-13934650D01*
X6339230Y-13934650D02*
X6310658Y-13934650D01*
X6310658Y-13934650D02*
X6291610Y-13944174D01*
X6291610Y-13944174D02*
X6282087Y-13953698D01*
X6491610Y-14067984D02*
X6472563Y-14058460D01*
X6472563Y-14058460D02*
X6463039Y-14048936D01*
X6463039Y-14048936D02*
X6453515Y-14029888D01*
X6453515Y-14029888D02*
X6453515Y-13972746D01*
X6453515Y-13972746D02*
X6463039Y-13953698D01*
X6463039Y-13953698D02*
X6472563Y-13944174D01*
X6472563Y-13944174D02*
X6491610Y-13934650D01*
X6491610Y-13934650D02*
X6520182Y-13934650D01*
X6520182Y-13934650D02*
X6539230Y-13944174D01*
X6539230Y-13944174D02*
X6548753Y-13953698D01*
X6548753Y-13953698D02*
X6558277Y-13972746D01*
X6558277Y-13972746D02*
X6558277Y-14029888D01*
X6558277Y-14029888D02*
X6548753Y-14048936D01*
X6548753Y-14048936D02*
X6539230Y-14058460D01*
X6539230Y-14058460D02*
X6520182Y-14067984D01*
X6520182Y-14067984D02*
X6491610Y-14067984D01*
X6672563Y-14067984D02*
X6653515Y-14058460D01*
X6653515Y-14058460D02*
X6643991Y-14039412D01*
X6643991Y-14039412D02*
X6643991Y-13867984D01*
X6824944Y-14058460D02*
X6805896Y-14067984D01*
X6805896Y-14067984D02*
X6767801Y-14067984D01*
X6767801Y-14067984D02*
X6748753Y-14058460D01*
X6748753Y-14058460D02*
X6739230Y-14039412D01*
X6739230Y-14039412D02*
X6739230Y-13963222D01*
X6739230Y-13963222D02*
X6748753Y-13944174D01*
X6748753Y-13944174D02*
X6767801Y-13934650D01*
X6767801Y-13934650D02*
X6805896Y-13934650D01*
X6805896Y-13934650D02*
X6824944Y-13944174D01*
X6824944Y-13944174D02*
X6834468Y-13963222D01*
X6834468Y-13963222D02*
X6834468Y-13982269D01*
X6834468Y-13982269D02*
X6739230Y-14001317D01*
X6910658Y-14058460D02*
X6929706Y-14067984D01*
X6929706Y-14067984D02*
X6967801Y-14067984D01*
X6967801Y-14067984D02*
X6986849Y-14058460D01*
X6986849Y-14058460D02*
X6996372Y-14039412D01*
X6996372Y-14039412D02*
X6996372Y-14029888D01*
X6996372Y-14029888D02*
X6986849Y-14010841D01*
X6986849Y-14010841D02*
X6967801Y-14001317D01*
X6967801Y-14001317D02*
X6939230Y-14001317D01*
X6939230Y-14001317D02*
X6920182Y-13991793D01*
X6920182Y-13991793D02*
X6910658Y-13972746D01*
X6910658Y-13972746D02*
X6910658Y-13963222D01*
X6910658Y-13963222D02*
X6920182Y-13944174D01*
X6920182Y-13944174D02*
X6939230Y-13934650D01*
X6939230Y-13934650D02*
X6967801Y-13934650D01*
X6967801Y-13934650D02*
X6986849Y-13944174D01*
X7063039Y-14144174D02*
X7072563Y-14134650D01*
X7072563Y-14134650D02*
X7091611Y-14106079D01*
X7091611Y-14106079D02*
X7101134Y-14087031D01*
X7101134Y-14087031D02*
X7110658Y-14058460D01*
X7110658Y-14058460D02*
X7120182Y-14010841D01*
X7120182Y-14010841D02*
X7120182Y-13972746D01*
X7120182Y-13972746D02*
X7110658Y-13925127D01*
X7110658Y-13925127D02*
X7101134Y-13896555D01*
X7101134Y-13896555D02*
X7091611Y-13877508D01*
X7091611Y-13877508D02*
X7072563Y-13848936D01*
X7072563Y-13848936D02*
X7063039Y-13839412D01*
D15*
X1937500Y-14160500D02*
X2097500Y-14320500D01*
X2097500Y-14160500D02*
X1937500Y-14320500D01*
X2074069Y-14297069D02*
X2074069Y-14183931D01*
X1960931Y-14183931D01*
X1960931Y-14297069D01*
X2074069Y-14297069D01*
D11*
X2463039Y-14331984D02*
X2348753Y-14331984D01*
X2405896Y-14331984D02*
X2405896Y-14131984D01*
X2405896Y-14131984D02*
X2386848Y-14160555D01*
X2386848Y-14160555D02*
X2367801Y-14179603D01*
X2367801Y-14179603D02*
X2348753Y-14189127D01*
X2548753Y-14312936D02*
X2558277Y-14322460D01*
X2558277Y-14322460D02*
X2548753Y-14331984D01*
X2548753Y-14331984D02*
X2539229Y-14322460D01*
X2539229Y-14322460D02*
X2548753Y-14312936D01*
X2548753Y-14312936D02*
X2548753Y-14331984D01*
X2729705Y-14131984D02*
X2691610Y-14131984D01*
X2691610Y-14131984D02*
X2672563Y-14141508D01*
X2672563Y-14141508D02*
X2663039Y-14151031D01*
X2663039Y-14151031D02*
X2643991Y-14179603D01*
X2643991Y-14179603D02*
X2634467Y-14217698D01*
X2634467Y-14217698D02*
X2634467Y-14293888D01*
X2634467Y-14293888D02*
X2643991Y-14312936D01*
X2643991Y-14312936D02*
X2653515Y-14322460D01*
X2653515Y-14322460D02*
X2672563Y-14331984D01*
X2672563Y-14331984D02*
X2710658Y-14331984D01*
X2710658Y-14331984D02*
X2729705Y-14322460D01*
X2729705Y-14322460D02*
X2739229Y-14312936D01*
X2739229Y-14312936D02*
X2748753Y-14293888D01*
X2748753Y-14293888D02*
X2748753Y-14246269D01*
X2748753Y-14246269D02*
X2739229Y-14227222D01*
X2739229Y-14227222D02*
X2729705Y-14217698D01*
X2729705Y-14217698D02*
X2710658Y-14208174D01*
X2710658Y-14208174D02*
X2672563Y-14208174D01*
X2672563Y-14208174D02*
X2653515Y-14217698D01*
X2653515Y-14217698D02*
X2643991Y-14227222D01*
X2643991Y-14227222D02*
X2634467Y-14246269D01*
X2872562Y-14131984D02*
X2891610Y-14131984D01*
X2891610Y-14131984D02*
X2910658Y-14141508D01*
X2910658Y-14141508D02*
X2920182Y-14151031D01*
X2920182Y-14151031D02*
X2929705Y-14170079D01*
X2929705Y-14170079D02*
X2939229Y-14208174D01*
X2939229Y-14208174D02*
X2939229Y-14255793D01*
X2939229Y-14255793D02*
X2929705Y-14293888D01*
X2929705Y-14293888D02*
X2920182Y-14312936D01*
X2920182Y-14312936D02*
X2910658Y-14322460D01*
X2910658Y-14322460D02*
X2891610Y-14331984D01*
X2891610Y-14331984D02*
X2872562Y-14331984D01*
X2872562Y-14331984D02*
X2853515Y-14322460D01*
X2853515Y-14322460D02*
X2843991Y-14312936D01*
X2843991Y-14312936D02*
X2834467Y-14293888D01*
X2834467Y-14293888D02*
X2824943Y-14255793D01*
X2824943Y-14255793D02*
X2824943Y-14208174D01*
X2824943Y-14208174D02*
X2834467Y-14170079D01*
X2834467Y-14170079D02*
X2843991Y-14151031D01*
X2843991Y-14151031D02*
X2853515Y-14141508D01*
X2853515Y-14141508D02*
X2872562Y-14131984D01*
X3063039Y-14131984D02*
X3082086Y-14131984D01*
X3082086Y-14131984D02*
X3101134Y-14141508D01*
X3101134Y-14141508D02*
X3110658Y-14151031D01*
X3110658Y-14151031D02*
X3120182Y-14170079D01*
X3120182Y-14170079D02*
X3129705Y-14208174D01*
X3129705Y-14208174D02*
X3129705Y-14255793D01*
X3129705Y-14255793D02*
X3120182Y-14293888D01*
X3120182Y-14293888D02*
X3110658Y-14312936D01*
X3110658Y-14312936D02*
X3101134Y-14322460D01*
X3101134Y-14322460D02*
X3082086Y-14331984D01*
X3082086Y-14331984D02*
X3063039Y-14331984D01*
X3063039Y-14331984D02*
X3043991Y-14322460D01*
X3043991Y-14322460D02*
X3034467Y-14312936D01*
X3034467Y-14312936D02*
X3024943Y-14293888D01*
X3024943Y-14293888D02*
X3015420Y-14255793D01*
X3015420Y-14255793D02*
X3015420Y-14208174D01*
X3015420Y-14208174D02*
X3024943Y-14170079D01*
X3024943Y-14170079D02*
X3034467Y-14151031D01*
X3034467Y-14151031D02*
X3043991Y-14141508D01*
X3043991Y-14141508D02*
X3063039Y-14131984D01*
X3215420Y-14331984D02*
X3215420Y-14198650D01*
X3215420Y-14217698D02*
X3224943Y-14208174D01*
X3224943Y-14208174D02*
X3243991Y-14198650D01*
X3243991Y-14198650D02*
X3272563Y-14198650D01*
X3272563Y-14198650D02*
X3291610Y-14208174D01*
X3291610Y-14208174D02*
X3301134Y-14227222D01*
X3301134Y-14227222D02*
X3301134Y-14331984D01*
X3301134Y-14227222D02*
X3310658Y-14208174D01*
X3310658Y-14208174D02*
X3329705Y-14198650D01*
X3329705Y-14198650D02*
X3358277Y-14198650D01*
X3358277Y-14198650D02*
X3377324Y-14208174D01*
X3377324Y-14208174D02*
X3386848Y-14227222D01*
X3386848Y-14227222D02*
X3386848Y-14331984D01*
X3482086Y-14331984D02*
X3482086Y-14198650D01*
X3482086Y-14217698D02*
X3491610Y-14208174D01*
X3491610Y-14208174D02*
X3510658Y-14198650D01*
X3510658Y-14198650D02*
X3539229Y-14198650D01*
X3539229Y-14198650D02*
X3558277Y-14208174D01*
X3558277Y-14208174D02*
X3567801Y-14227222D01*
X3567801Y-14227222D02*
X3567801Y-14331984D01*
X3567801Y-14227222D02*
X3577324Y-14208174D01*
X3577324Y-14208174D02*
X3596372Y-14198650D01*
X3596372Y-14198650D02*
X3624943Y-14198650D01*
X3624943Y-14198650D02*
X3643991Y-14208174D01*
X3643991Y-14208174D02*
X3653515Y-14227222D01*
X3653515Y-14227222D02*
X3653515Y-14331984D01*
X4043991Y-14122460D02*
X3872563Y-14379603D01*
X4301134Y-14131984D02*
X4320182Y-14131984D01*
X4320182Y-14131984D02*
X4339229Y-14141508D01*
X4339229Y-14141508D02*
X4348753Y-14151031D01*
X4348753Y-14151031D02*
X4358277Y-14170079D01*
X4358277Y-14170079D02*
X4367801Y-14208174D01*
X4367801Y-14208174D02*
X4367801Y-14255793D01*
X4367801Y-14255793D02*
X4358277Y-14293888D01*
X4358277Y-14293888D02*
X4348753Y-14312936D01*
X4348753Y-14312936D02*
X4339229Y-14322460D01*
X4339229Y-14322460D02*
X4320182Y-14331984D01*
X4320182Y-14331984D02*
X4301134Y-14331984D01*
X4301134Y-14331984D02*
X4282087Y-14322460D01*
X4282087Y-14322460D02*
X4272563Y-14312936D01*
X4272563Y-14312936D02*
X4263039Y-14293888D01*
X4263039Y-14293888D02*
X4253515Y-14255793D01*
X4253515Y-14255793D02*
X4253515Y-14208174D01*
X4253515Y-14208174D02*
X4263039Y-14170079D01*
X4263039Y-14170079D02*
X4272563Y-14151031D01*
X4272563Y-14151031D02*
X4282087Y-14141508D01*
X4282087Y-14141508D02*
X4301134Y-14131984D01*
X4453515Y-14312936D02*
X4463039Y-14322460D01*
X4463039Y-14322460D02*
X4453515Y-14331984D01*
X4453515Y-14331984D02*
X4443991Y-14322460D01*
X4443991Y-14322460D02*
X4453515Y-14312936D01*
X4453515Y-14312936D02*
X4453515Y-14331984D01*
X4586848Y-14131984D02*
X4605896Y-14131984D01*
X4605896Y-14131984D02*
X4624944Y-14141508D01*
X4624944Y-14141508D02*
X4634468Y-14151031D01*
X4634468Y-14151031D02*
X4643991Y-14170079D01*
X4643991Y-14170079D02*
X4653515Y-14208174D01*
X4653515Y-14208174D02*
X4653515Y-14255793D01*
X4653515Y-14255793D02*
X4643991Y-14293888D01*
X4643991Y-14293888D02*
X4634468Y-14312936D01*
X4634468Y-14312936D02*
X4624944Y-14322460D01*
X4624944Y-14322460D02*
X4605896Y-14331984D01*
X4605896Y-14331984D02*
X4586848Y-14331984D01*
X4586848Y-14331984D02*
X4567801Y-14322460D01*
X4567801Y-14322460D02*
X4558277Y-14312936D01*
X4558277Y-14312936D02*
X4548753Y-14293888D01*
X4548753Y-14293888D02*
X4539229Y-14255793D01*
X4539229Y-14255793D02*
X4539229Y-14208174D01*
X4539229Y-14208174D02*
X4548753Y-14170079D01*
X4548753Y-14170079D02*
X4558277Y-14151031D01*
X4558277Y-14151031D02*
X4567801Y-14141508D01*
X4567801Y-14141508D02*
X4586848Y-14131984D01*
X4824944Y-14131984D02*
X4786848Y-14131984D01*
X4786848Y-14131984D02*
X4767801Y-14141508D01*
X4767801Y-14141508D02*
X4758277Y-14151031D01*
X4758277Y-14151031D02*
X4739229Y-14179603D01*
X4739229Y-14179603D02*
X4729706Y-14217698D01*
X4729706Y-14217698D02*
X4729706Y-14293888D01*
X4729706Y-14293888D02*
X4739229Y-14312936D01*
X4739229Y-14312936D02*
X4748753Y-14322460D01*
X4748753Y-14322460D02*
X4767801Y-14331984D01*
X4767801Y-14331984D02*
X4805896Y-14331984D01*
X4805896Y-14331984D02*
X4824944Y-14322460D01*
X4824944Y-14322460D02*
X4834468Y-14312936D01*
X4834468Y-14312936D02*
X4843991Y-14293888D01*
X4843991Y-14293888D02*
X4843991Y-14246269D01*
X4843991Y-14246269D02*
X4834468Y-14227222D01*
X4834468Y-14227222D02*
X4824944Y-14217698D01*
X4824944Y-14217698D02*
X4805896Y-14208174D01*
X4805896Y-14208174D02*
X4767801Y-14208174D01*
X4767801Y-14208174D02*
X4748753Y-14217698D01*
X4748753Y-14217698D02*
X4739229Y-14227222D01*
X4739229Y-14227222D02*
X4729706Y-14246269D01*
X4910658Y-14131984D02*
X5034468Y-14131984D01*
X5034468Y-14131984D02*
X4967801Y-14208174D01*
X4967801Y-14208174D02*
X4996372Y-14208174D01*
X4996372Y-14208174D02*
X5015420Y-14217698D01*
X5015420Y-14217698D02*
X5024944Y-14227222D01*
X5024944Y-14227222D02*
X5034468Y-14246269D01*
X5034468Y-14246269D02*
X5034468Y-14293888D01*
X5034468Y-14293888D02*
X5024944Y-14312936D01*
X5024944Y-14312936D02*
X5015420Y-14322460D01*
X5015420Y-14322460D02*
X4996372Y-14331984D01*
X4996372Y-14331984D02*
X4939229Y-14331984D01*
X4939229Y-14331984D02*
X4920182Y-14322460D01*
X4920182Y-14322460D02*
X4910658Y-14312936D01*
X5158277Y-14131984D02*
X5177325Y-14131984D01*
X5177325Y-14131984D02*
X5196372Y-14141508D01*
X5196372Y-14141508D02*
X5205896Y-14151031D01*
X5205896Y-14151031D02*
X5215420Y-14170079D01*
X5215420Y-14170079D02*
X5224944Y-14208174D01*
X5224944Y-14208174D02*
X5224944Y-14255793D01*
X5224944Y-14255793D02*
X5215420Y-14293888D01*
X5215420Y-14293888D02*
X5205896Y-14312936D01*
X5205896Y-14312936D02*
X5196372Y-14322460D01*
X5196372Y-14322460D02*
X5177325Y-14331984D01*
X5177325Y-14331984D02*
X5158277Y-14331984D01*
X5158277Y-14331984D02*
X5139229Y-14322460D01*
X5139229Y-14322460D02*
X5129706Y-14312936D01*
X5129706Y-14312936D02*
X5120182Y-14293888D01*
X5120182Y-14293888D02*
X5110658Y-14255793D01*
X5110658Y-14255793D02*
X5110658Y-14208174D01*
X5110658Y-14208174D02*
X5120182Y-14170079D01*
X5120182Y-14170079D02*
X5129706Y-14151031D01*
X5129706Y-14151031D02*
X5139229Y-14141508D01*
X5139229Y-14141508D02*
X5158277Y-14131984D01*
X5301134Y-14131984D02*
X5301134Y-14170079D01*
X5377325Y-14131984D02*
X5377325Y-14170079D01*
X5672563Y-14408174D02*
X5663039Y-14398650D01*
X5663039Y-14398650D02*
X5643991Y-14370079D01*
X5643991Y-14370079D02*
X5634468Y-14351031D01*
X5634468Y-14351031D02*
X5624944Y-14322460D01*
X5624944Y-14322460D02*
X5615420Y-14274841D01*
X5615420Y-14274841D02*
X5615420Y-14236746D01*
X5615420Y-14236746D02*
X5624944Y-14189127D01*
X5624944Y-14189127D02*
X5634468Y-14160555D01*
X5634468Y-14160555D02*
X5643991Y-14141508D01*
X5643991Y-14141508D02*
X5663039Y-14112936D01*
X5663039Y-14112936D02*
X5672563Y-14103412D01*
X5853515Y-14331984D02*
X5739229Y-14331984D01*
X5796372Y-14331984D02*
X5796372Y-14131984D01*
X5796372Y-14131984D02*
X5777325Y-14160555D01*
X5777325Y-14160555D02*
X5758277Y-14179603D01*
X5758277Y-14179603D02*
X5739229Y-14189127D01*
X6024944Y-14198650D02*
X6024944Y-14331984D01*
X5977325Y-14122460D02*
X5929706Y-14265317D01*
X5929706Y-14265317D02*
X6053515Y-14265317D01*
X6282087Y-14331984D02*
X6282087Y-14131984D01*
X6367801Y-14331984D02*
X6367801Y-14227222D01*
X6367801Y-14227222D02*
X6358277Y-14208174D01*
X6358277Y-14208174D02*
X6339230Y-14198650D01*
X6339230Y-14198650D02*
X6310658Y-14198650D01*
X6310658Y-14198650D02*
X6291610Y-14208174D01*
X6291610Y-14208174D02*
X6282087Y-14217698D01*
X6491610Y-14331984D02*
X6472563Y-14322460D01*
X6472563Y-14322460D02*
X6463039Y-14312936D01*
X6463039Y-14312936D02*
X6453515Y-14293888D01*
X6453515Y-14293888D02*
X6453515Y-14236746D01*
X6453515Y-14236746D02*
X6463039Y-14217698D01*
X6463039Y-14217698D02*
X6472563Y-14208174D01*
X6472563Y-14208174D02*
X6491610Y-14198650D01*
X6491610Y-14198650D02*
X6520182Y-14198650D01*
X6520182Y-14198650D02*
X6539230Y-14208174D01*
X6539230Y-14208174D02*
X6548753Y-14217698D01*
X6548753Y-14217698D02*
X6558277Y-14236746D01*
X6558277Y-14236746D02*
X6558277Y-14293888D01*
X6558277Y-14293888D02*
X6548753Y-14312936D01*
X6548753Y-14312936D02*
X6539230Y-14322460D01*
X6539230Y-14322460D02*
X6520182Y-14331984D01*
X6520182Y-14331984D02*
X6491610Y-14331984D01*
X6672563Y-14331984D02*
X6653515Y-14322460D01*
X6653515Y-14322460D02*
X6643991Y-14303412D01*
X6643991Y-14303412D02*
X6643991Y-14131984D01*
X6824944Y-14322460D02*
X6805896Y-14331984D01*
X6805896Y-14331984D02*
X6767801Y-14331984D01*
X6767801Y-14331984D02*
X6748753Y-14322460D01*
X6748753Y-14322460D02*
X6739230Y-14303412D01*
X6739230Y-14303412D02*
X6739230Y-14227222D01*
X6739230Y-14227222D02*
X6748753Y-14208174D01*
X6748753Y-14208174D02*
X6767801Y-14198650D01*
X6767801Y-14198650D02*
X6805896Y-14198650D01*
X6805896Y-14198650D02*
X6824944Y-14208174D01*
X6824944Y-14208174D02*
X6834468Y-14227222D01*
X6834468Y-14227222D02*
X6834468Y-14246269D01*
X6834468Y-14246269D02*
X6739230Y-14265317D01*
X6910658Y-14322460D02*
X6929706Y-14331984D01*
X6929706Y-14331984D02*
X6967801Y-14331984D01*
X6967801Y-14331984D02*
X6986849Y-14322460D01*
X6986849Y-14322460D02*
X6996372Y-14303412D01*
X6996372Y-14303412D02*
X6996372Y-14293888D01*
X6996372Y-14293888D02*
X6986849Y-14274841D01*
X6986849Y-14274841D02*
X6967801Y-14265317D01*
X6967801Y-14265317D02*
X6939230Y-14265317D01*
X6939230Y-14265317D02*
X6920182Y-14255793D01*
X6920182Y-14255793D02*
X6910658Y-14236746D01*
X6910658Y-14236746D02*
X6910658Y-14227222D01*
X6910658Y-14227222D02*
X6920182Y-14208174D01*
X6920182Y-14208174D02*
X6939230Y-14198650D01*
X6939230Y-14198650D02*
X6967801Y-14198650D01*
X6967801Y-14198650D02*
X6986849Y-14208174D01*
X7063039Y-14408174D02*
X7072563Y-14398650D01*
X7072563Y-14398650D02*
X7091611Y-14370079D01*
X7091611Y-14370079D02*
X7101134Y-14351031D01*
X7101134Y-14351031D02*
X7110658Y-14322460D01*
X7110658Y-14322460D02*
X7120182Y-14274841D01*
X7120182Y-14274841D02*
X7120182Y-14236746D01*
X7120182Y-14236746D02*
X7110658Y-14189127D01*
X7110658Y-14189127D02*
X7101134Y-14160555D01*
X7101134Y-14160555D02*
X7091611Y-14141508D01*
X7091611Y-14141508D02*
X7072563Y-14112936D01*
X7072563Y-14112936D02*
X7063039Y-14103412D01*
X1897500Y-14420500D02*
X2097500Y-14620500D01*
X2097500Y-14420500D02*
X1897500Y-14620500D01*
X1997500Y-14620500D02*
X2097500Y-14520500D01*
X1997500Y-14420500D01*
X1897500Y-14520500D01*
X1997500Y-14620500D01*
X2339229Y-14411984D02*
X2463039Y-14411984D01*
X2463039Y-14411984D02*
X2396372Y-14488174D01*
X2396372Y-14488174D02*
X2424944Y-14488174D01*
X2424944Y-14488174D02*
X2443991Y-14497698D01*
X2443991Y-14497698D02*
X2453515Y-14507222D01*
X2453515Y-14507222D02*
X2463039Y-14526269D01*
X2463039Y-14526269D02*
X2463039Y-14573888D01*
X2463039Y-14573888D02*
X2453515Y-14592936D01*
X2453515Y-14592936D02*
X2443991Y-14602460D01*
X2443991Y-14602460D02*
X2424944Y-14611984D01*
X2424944Y-14611984D02*
X2367801Y-14611984D01*
X2367801Y-14611984D02*
X2348753Y-14602460D01*
X2348753Y-14602460D02*
X2339229Y-14592936D01*
X2548753Y-14592936D02*
X2558277Y-14602460D01*
X2558277Y-14602460D02*
X2548753Y-14611984D01*
X2548753Y-14611984D02*
X2539229Y-14602460D01*
X2539229Y-14602460D02*
X2548753Y-14592936D01*
X2548753Y-14592936D02*
X2548753Y-14611984D01*
X2634467Y-14431031D02*
X2643991Y-14421508D01*
X2643991Y-14421508D02*
X2663039Y-14411984D01*
X2663039Y-14411984D02*
X2710658Y-14411984D01*
X2710658Y-14411984D02*
X2729705Y-14421508D01*
X2729705Y-14421508D02*
X2739229Y-14431031D01*
X2739229Y-14431031D02*
X2748753Y-14450079D01*
X2748753Y-14450079D02*
X2748753Y-14469127D01*
X2748753Y-14469127D02*
X2739229Y-14497698D01*
X2739229Y-14497698D02*
X2624944Y-14611984D01*
X2624944Y-14611984D02*
X2748753Y-14611984D01*
X2872562Y-14411984D02*
X2891610Y-14411984D01*
X2891610Y-14411984D02*
X2910658Y-14421508D01*
X2910658Y-14421508D02*
X2920182Y-14431031D01*
X2920182Y-14431031D02*
X2929705Y-14450079D01*
X2929705Y-14450079D02*
X2939229Y-14488174D01*
X2939229Y-14488174D02*
X2939229Y-14535793D01*
X2939229Y-14535793D02*
X2929705Y-14573888D01*
X2929705Y-14573888D02*
X2920182Y-14592936D01*
X2920182Y-14592936D02*
X2910658Y-14602460D01*
X2910658Y-14602460D02*
X2891610Y-14611984D01*
X2891610Y-14611984D02*
X2872562Y-14611984D01*
X2872562Y-14611984D02*
X2853515Y-14602460D01*
X2853515Y-14602460D02*
X2843991Y-14592936D01*
X2843991Y-14592936D02*
X2834467Y-14573888D01*
X2834467Y-14573888D02*
X2824943Y-14535793D01*
X2824943Y-14535793D02*
X2824943Y-14488174D01*
X2824943Y-14488174D02*
X2834467Y-14450079D01*
X2834467Y-14450079D02*
X2843991Y-14431031D01*
X2843991Y-14431031D02*
X2853515Y-14421508D01*
X2853515Y-14421508D02*
X2872562Y-14411984D01*
X3063039Y-14411984D02*
X3082086Y-14411984D01*
X3082086Y-14411984D02*
X3101134Y-14421508D01*
X3101134Y-14421508D02*
X3110658Y-14431031D01*
X3110658Y-14431031D02*
X3120182Y-14450079D01*
X3120182Y-14450079D02*
X3129705Y-14488174D01*
X3129705Y-14488174D02*
X3129705Y-14535793D01*
X3129705Y-14535793D02*
X3120182Y-14573888D01*
X3120182Y-14573888D02*
X3110658Y-14592936D01*
X3110658Y-14592936D02*
X3101134Y-14602460D01*
X3101134Y-14602460D02*
X3082086Y-14611984D01*
X3082086Y-14611984D02*
X3063039Y-14611984D01*
X3063039Y-14611984D02*
X3043991Y-14602460D01*
X3043991Y-14602460D02*
X3034467Y-14592936D01*
X3034467Y-14592936D02*
X3024943Y-14573888D01*
X3024943Y-14573888D02*
X3015420Y-14535793D01*
X3015420Y-14535793D02*
X3015420Y-14488174D01*
X3015420Y-14488174D02*
X3024943Y-14450079D01*
X3024943Y-14450079D02*
X3034467Y-14431031D01*
X3034467Y-14431031D02*
X3043991Y-14421508D01*
X3043991Y-14421508D02*
X3063039Y-14411984D01*
X3215420Y-14611984D02*
X3215420Y-14478650D01*
X3215420Y-14497698D02*
X3224943Y-14488174D01*
X3224943Y-14488174D02*
X3243991Y-14478650D01*
X3243991Y-14478650D02*
X3272563Y-14478650D01*
X3272563Y-14478650D02*
X3291610Y-14488174D01*
X3291610Y-14488174D02*
X3301134Y-14507222D01*
X3301134Y-14507222D02*
X3301134Y-14611984D01*
X3301134Y-14507222D02*
X3310658Y-14488174D01*
X3310658Y-14488174D02*
X3329705Y-14478650D01*
X3329705Y-14478650D02*
X3358277Y-14478650D01*
X3358277Y-14478650D02*
X3377324Y-14488174D01*
X3377324Y-14488174D02*
X3386848Y-14507222D01*
X3386848Y-14507222D02*
X3386848Y-14611984D01*
X3482086Y-14611984D02*
X3482086Y-14478650D01*
X3482086Y-14497698D02*
X3491610Y-14488174D01*
X3491610Y-14488174D02*
X3510658Y-14478650D01*
X3510658Y-14478650D02*
X3539229Y-14478650D01*
X3539229Y-14478650D02*
X3558277Y-14488174D01*
X3558277Y-14488174D02*
X3567801Y-14507222D01*
X3567801Y-14507222D02*
X3567801Y-14611984D01*
X3567801Y-14507222D02*
X3577324Y-14488174D01*
X3577324Y-14488174D02*
X3596372Y-14478650D01*
X3596372Y-14478650D02*
X3624943Y-14478650D01*
X3624943Y-14478650D02*
X3643991Y-14488174D01*
X3643991Y-14488174D02*
X3653515Y-14507222D01*
X3653515Y-14507222D02*
X3653515Y-14611984D01*
X4043991Y-14402460D02*
X3872563Y-14659603D01*
X4301134Y-14411984D02*
X4320182Y-14411984D01*
X4320182Y-14411984D02*
X4339229Y-14421508D01*
X4339229Y-14421508D02*
X4348753Y-14431031D01*
X4348753Y-14431031D02*
X4358277Y-14450079D01*
X4358277Y-14450079D02*
X4367801Y-14488174D01*
X4367801Y-14488174D02*
X4367801Y-14535793D01*
X4367801Y-14535793D02*
X4358277Y-14573888D01*
X4358277Y-14573888D02*
X4348753Y-14592936D01*
X4348753Y-14592936D02*
X4339229Y-14602460D01*
X4339229Y-14602460D02*
X4320182Y-14611984D01*
X4320182Y-14611984D02*
X4301134Y-14611984D01*
X4301134Y-14611984D02*
X4282087Y-14602460D01*
X4282087Y-14602460D02*
X4272563Y-14592936D01*
X4272563Y-14592936D02*
X4263039Y-14573888D01*
X4263039Y-14573888D02*
X4253515Y-14535793D01*
X4253515Y-14535793D02*
X4253515Y-14488174D01*
X4253515Y-14488174D02*
X4263039Y-14450079D01*
X4263039Y-14450079D02*
X4272563Y-14431031D01*
X4272563Y-14431031D02*
X4282087Y-14421508D01*
X4282087Y-14421508D02*
X4301134Y-14411984D01*
X4453515Y-14592936D02*
X4463039Y-14602460D01*
X4463039Y-14602460D02*
X4453515Y-14611984D01*
X4453515Y-14611984D02*
X4443991Y-14602460D01*
X4443991Y-14602460D02*
X4453515Y-14592936D01*
X4453515Y-14592936D02*
X4453515Y-14611984D01*
X4653515Y-14611984D02*
X4539229Y-14611984D01*
X4596372Y-14611984D02*
X4596372Y-14411984D01*
X4596372Y-14411984D02*
X4577325Y-14440555D01*
X4577325Y-14440555D02*
X4558277Y-14459603D01*
X4558277Y-14459603D02*
X4539229Y-14469127D01*
X4729706Y-14431031D02*
X4739229Y-14421508D01*
X4739229Y-14421508D02*
X4758277Y-14411984D01*
X4758277Y-14411984D02*
X4805896Y-14411984D01*
X4805896Y-14411984D02*
X4824944Y-14421508D01*
X4824944Y-14421508D02*
X4834468Y-14431031D01*
X4834468Y-14431031D02*
X4843991Y-14450079D01*
X4843991Y-14450079D02*
X4843991Y-14469127D01*
X4843991Y-14469127D02*
X4834468Y-14497698D01*
X4834468Y-14497698D02*
X4720182Y-14611984D01*
X4720182Y-14611984D02*
X4843991Y-14611984D01*
X5015420Y-14411984D02*
X4977325Y-14411984D01*
X4977325Y-14411984D02*
X4958277Y-14421508D01*
X4958277Y-14421508D02*
X4948753Y-14431031D01*
X4948753Y-14431031D02*
X4929706Y-14459603D01*
X4929706Y-14459603D02*
X4920182Y-14497698D01*
X4920182Y-14497698D02*
X4920182Y-14573888D01*
X4920182Y-14573888D02*
X4929706Y-14592936D01*
X4929706Y-14592936D02*
X4939229Y-14602460D01*
X4939229Y-14602460D02*
X4958277Y-14611984D01*
X4958277Y-14611984D02*
X4996372Y-14611984D01*
X4996372Y-14611984D02*
X5015420Y-14602460D01*
X5015420Y-14602460D02*
X5024944Y-14592936D01*
X5024944Y-14592936D02*
X5034468Y-14573888D01*
X5034468Y-14573888D02*
X5034468Y-14526269D01*
X5034468Y-14526269D02*
X5024944Y-14507222D01*
X5024944Y-14507222D02*
X5015420Y-14497698D01*
X5015420Y-14497698D02*
X4996372Y-14488174D01*
X4996372Y-14488174D02*
X4958277Y-14488174D01*
X4958277Y-14488174D02*
X4939229Y-14497698D01*
X4939229Y-14497698D02*
X4929706Y-14507222D01*
X4929706Y-14507222D02*
X4920182Y-14526269D01*
X5158277Y-14411984D02*
X5177325Y-14411984D01*
X5177325Y-14411984D02*
X5196372Y-14421508D01*
X5196372Y-14421508D02*
X5205896Y-14431031D01*
X5205896Y-14431031D02*
X5215420Y-14450079D01*
X5215420Y-14450079D02*
X5224944Y-14488174D01*
X5224944Y-14488174D02*
X5224944Y-14535793D01*
X5224944Y-14535793D02*
X5215420Y-14573888D01*
X5215420Y-14573888D02*
X5205896Y-14592936D01*
X5205896Y-14592936D02*
X5196372Y-14602460D01*
X5196372Y-14602460D02*
X5177325Y-14611984D01*
X5177325Y-14611984D02*
X5158277Y-14611984D01*
X5158277Y-14611984D02*
X5139229Y-14602460D01*
X5139229Y-14602460D02*
X5129706Y-14592936D01*
X5129706Y-14592936D02*
X5120182Y-14573888D01*
X5120182Y-14573888D02*
X5110658Y-14535793D01*
X5110658Y-14535793D02*
X5110658Y-14488174D01*
X5110658Y-14488174D02*
X5120182Y-14450079D01*
X5120182Y-14450079D02*
X5129706Y-14431031D01*
X5129706Y-14431031D02*
X5139229Y-14421508D01*
X5139229Y-14421508D02*
X5158277Y-14411984D01*
X5301134Y-14411984D02*
X5301134Y-14450079D01*
X5377325Y-14411984D02*
X5377325Y-14450079D01*
X5672563Y-14688174D02*
X5663039Y-14678650D01*
X5663039Y-14678650D02*
X5643991Y-14650079D01*
X5643991Y-14650079D02*
X5634468Y-14631031D01*
X5634468Y-14631031D02*
X5624944Y-14602460D01*
X5624944Y-14602460D02*
X5615420Y-14554841D01*
X5615420Y-14554841D02*
X5615420Y-14516746D01*
X5615420Y-14516746D02*
X5624944Y-14469127D01*
X5624944Y-14469127D02*
X5634468Y-14440555D01*
X5634468Y-14440555D02*
X5643991Y-14421508D01*
X5643991Y-14421508D02*
X5663039Y-14392936D01*
X5663039Y-14392936D02*
X5672563Y-14383412D01*
X5834468Y-14478650D02*
X5834468Y-14611984D01*
X5786848Y-14402460D02*
X5739229Y-14545317D01*
X5739229Y-14545317D02*
X5863039Y-14545317D01*
X6091610Y-14611984D02*
X6091610Y-14411984D01*
X6177325Y-14611984D02*
X6177325Y-14507222D01*
X6177325Y-14507222D02*
X6167801Y-14488174D01*
X6167801Y-14488174D02*
X6148753Y-14478650D01*
X6148753Y-14478650D02*
X6120182Y-14478650D01*
X6120182Y-14478650D02*
X6101134Y-14488174D01*
X6101134Y-14488174D02*
X6091610Y-14497698D01*
X6301134Y-14611984D02*
X6282087Y-14602460D01*
X6282087Y-14602460D02*
X6272563Y-14592936D01*
X6272563Y-14592936D02*
X6263039Y-14573888D01*
X6263039Y-14573888D02*
X6263039Y-14516746D01*
X6263039Y-14516746D02*
X6272563Y-14497698D01*
X6272563Y-14497698D02*
X6282087Y-14488174D01*
X6282087Y-14488174D02*
X6301134Y-14478650D01*
X6301134Y-14478650D02*
X6329706Y-14478650D01*
X6329706Y-14478650D02*
X6348753Y-14488174D01*
X6348753Y-14488174D02*
X6358277Y-14497698D01*
X6358277Y-14497698D02*
X6367801Y-14516746D01*
X6367801Y-14516746D02*
X6367801Y-14573888D01*
X6367801Y-14573888D02*
X6358277Y-14592936D01*
X6358277Y-14592936D02*
X6348753Y-14602460D01*
X6348753Y-14602460D02*
X6329706Y-14611984D01*
X6329706Y-14611984D02*
X6301134Y-14611984D01*
X6482087Y-14611984D02*
X6463039Y-14602460D01*
X6463039Y-14602460D02*
X6453515Y-14583412D01*
X6453515Y-14583412D02*
X6453515Y-14411984D01*
X6634468Y-14602460D02*
X6615420Y-14611984D01*
X6615420Y-14611984D02*
X6577325Y-14611984D01*
X6577325Y-14611984D02*
X6558277Y-14602460D01*
X6558277Y-14602460D02*
X6548753Y-14583412D01*
X6548753Y-14583412D02*
X6548753Y-14507222D01*
X6548753Y-14507222D02*
X6558277Y-14488174D01*
X6558277Y-14488174D02*
X6577325Y-14478650D01*
X6577325Y-14478650D02*
X6615420Y-14478650D01*
X6615420Y-14478650D02*
X6634468Y-14488174D01*
X6634468Y-14488174D02*
X6643991Y-14507222D01*
X6643991Y-14507222D02*
X6643991Y-14526269D01*
X6643991Y-14526269D02*
X6548753Y-14545317D01*
X6720182Y-14602460D02*
X6739230Y-14611984D01*
X6739230Y-14611984D02*
X6777325Y-14611984D01*
X6777325Y-14611984D02*
X6796372Y-14602460D01*
X6796372Y-14602460D02*
X6805896Y-14583412D01*
X6805896Y-14583412D02*
X6805896Y-14573888D01*
X6805896Y-14573888D02*
X6796372Y-14554841D01*
X6796372Y-14554841D02*
X6777325Y-14545317D01*
X6777325Y-14545317D02*
X6748753Y-14545317D01*
X6748753Y-14545317D02*
X6729706Y-14535793D01*
X6729706Y-14535793D02*
X6720182Y-14516746D01*
X6720182Y-14516746D02*
X6720182Y-14507222D01*
X6720182Y-14507222D02*
X6729706Y-14488174D01*
X6729706Y-14488174D02*
X6748753Y-14478650D01*
X6748753Y-14478650D02*
X6777325Y-14478650D01*
X6777325Y-14478650D02*
X6796372Y-14488174D01*
X6872563Y-14688174D02*
X6882087Y-14678650D01*
X6882087Y-14678650D02*
X6901134Y-14650079D01*
X6901134Y-14650079D02*
X6910658Y-14631031D01*
X6910658Y-14631031D02*
X6920182Y-14602460D01*
X6920182Y-14602460D02*
X6929706Y-14554841D01*
X6929706Y-14554841D02*
X6929706Y-14516746D01*
X6929706Y-14516746D02*
X6920182Y-14469127D01*
X6920182Y-14469127D02*
X6910658Y-14440555D01*
X6910658Y-14440555D02*
X6901134Y-14421508D01*
X6901134Y-14421508D02*
X6882087Y-14392936D01*
X6882087Y-14392936D02*
X6872563Y-14383412D01*
M02*
