%TF.GenerationSoftware,KiCad,Pcbnew,8.0.1-8.0.1-1~ubuntu22.04.1*%
%TF.CreationDate,2024-04-16T20:31:58-04:00*%
%TF.ProjectId,pdb,7064622e-6b69-4636-9164-5f7063625858,rev?*%
%TF.SameCoordinates,Original*%
%TF.FileFunction,Drillmap*%
%TF.FilePolarity,Positive*%
%FSLAX45Y45*%
G04 Gerber Fmt 4.5, Leading zero omitted, Abs format (unit mm)*
G04 Created by KiCad (PCBNEW 8.0.1-8.0.1-1~ubuntu22.04.1) date 2024-04-16 20:31:58*
%MOMM*%
%LPD*%
G01*
G04 APERTURE LIST*
%ADD10C,0.050000*%
%ADD11C,0.200000*%
%ADD12C,0.300000*%
%ADD13C,0.325000*%
%ADD14C,0.330000*%
%ADD15C,0.335000*%
G04 APERTURE END LIST*
D10*
X10450000Y-8900000D02*
X10450000Y-9200000D01*
X2400000Y-1962132D02*
X11450000Y-1962132D01*
X11750000Y-8500000D02*
G75*
G02*
X11550000Y-8700000I-200000J0D01*
G01*
X11750000Y-11450000D02*
G75*
G02*
X11450000Y-11750000I-300000J0D01*
G01*
X11450000Y-11750000D02*
X2400000Y-11750000D01*
X2100000Y-2262132D02*
G75*
G02*
X2400000Y-1962132I300000J0D01*
G01*
X10450000Y-8900000D02*
G75*
G02*
X10650000Y-8700000I200000J0D01*
G01*
X11550000Y-9400000D02*
G75*
G02*
X11750000Y-9600000I0J-200000D01*
G01*
X10650000Y-8700000D02*
X11550000Y-8700000D01*
X2100000Y-11450000D02*
X2100000Y-2262132D01*
X10650000Y-9400000D02*
G75*
G02*
X10450000Y-9200000I0J200000D01*
G01*
X11750000Y-2262132D02*
X11750000Y-8500000D01*
X2400000Y-11750000D02*
G75*
G02*
X2100000Y-11450000I0J300000D01*
G01*
X11750000Y-9600000D02*
X11750000Y-11450000D01*
X11450000Y-1962132D02*
G75*
G02*
X11749998Y-2262132I0J-299998D01*
G01*
X11550000Y-9400000D02*
X10650000Y-9400000D01*
D11*
D12*
X5537000Y-5151000D02*
X5837000Y-5451000D01*
X5837000Y-5151000D02*
X5537000Y-5451000D01*
X5537000Y-9846000D02*
X5837000Y-10146000D01*
X5837000Y-9846000D02*
X5537000Y-10146000D01*
X7988000Y-5151000D02*
X8288000Y-5451000D01*
X8288000Y-5151000D02*
X7988000Y-5451000D01*
X7988000Y-9846000D02*
X8288000Y-10146000D01*
X8288000Y-9846000D02*
X7988000Y-10146000D01*
D13*
X4415500Y-2700000D02*
G75*
G02*
X4090500Y-2700000I-162500J0D01*
G01*
X4090500Y-2700000D02*
G75*
G02*
X4415500Y-2700000I162500J0D01*
G01*
X9749500Y-2700000D02*
G75*
G02*
X9424500Y-2700000I-162500J0D01*
G01*
X9424500Y-2700000D02*
G75*
G02*
X9749500Y-2700000I162500J0D01*
G01*
D14*
X2398500Y-5705000D02*
X2398500Y-6035000D01*
X2233500Y-5870000D02*
X2563500Y-5870000D01*
X2399750Y-3978000D02*
X2399750Y-4308000D01*
X2234750Y-4143000D02*
X2564750Y-4143000D01*
X3541500Y-5705000D02*
X3541500Y-6035000D01*
X3376500Y-5870000D02*
X3706500Y-5870000D01*
X3542750Y-3978000D02*
X3542750Y-4308000D01*
X3377750Y-4143000D02*
X3707750Y-4143000D01*
X10278500Y-3988000D02*
X10278500Y-4318000D01*
X10113500Y-4153000D02*
X10443500Y-4153000D01*
X10278500Y-5735000D02*
X10278500Y-6065000D01*
X10113500Y-5900000D02*
X10443500Y-5900000D01*
X11421500Y-3988000D02*
X11421500Y-4318000D01*
X11256500Y-4153000D02*
X11586500Y-4153000D01*
X11421500Y-5735000D02*
X11421500Y-6065000D01*
X11256500Y-5900000D02*
X11586500Y-5900000D01*
D15*
X2525242Y-2518442D02*
X2525242Y-2281559D01*
X2288359Y-2281559D01*
X2288359Y-2518442D01*
X2525242Y-2518442D01*
X3668441Y-2518442D02*
X3668441Y-2281559D01*
X3431558Y-2281559D01*
X3431558Y-2518442D01*
X3668441Y-2518442D01*
X4016241Y-11598441D02*
X4016241Y-11361558D01*
X3779358Y-11361558D01*
X3779358Y-11598441D01*
X4016241Y-11598441D01*
X5159442Y-11598441D02*
X5159442Y-11361558D01*
X4922559Y-11361558D01*
X4922559Y-11598441D01*
X5159442Y-11598441D01*
X5657241Y-11603441D02*
X5657241Y-11366558D01*
X5420359Y-11366558D01*
X5420359Y-11603441D01*
X5657241Y-11603441D01*
X6800441Y-11603441D02*
X6800441Y-11366558D01*
X6563558Y-11366558D01*
X6563558Y-11603441D01*
X6800441Y-11603441D01*
X7289341Y-11603441D02*
X7289341Y-11366558D01*
X7052458Y-11366558D01*
X7052458Y-11603441D01*
X7289341Y-11603441D01*
X8432542Y-11603441D02*
X8432542Y-11366558D01*
X8195658Y-11366558D01*
X8195658Y-11603441D01*
X8432542Y-11603441D01*
X8919342Y-11613441D02*
X8919342Y-11376558D01*
X8682459Y-11376558D01*
X8682459Y-11613441D01*
X8919342Y-11613441D01*
X10062542Y-11613441D02*
X10062542Y-11376558D01*
X9825659Y-11376558D01*
X9825659Y-11613441D01*
X10062542Y-11613441D01*
X10398442Y-2516442D02*
X10398442Y-2279559D01*
X10161559Y-2279559D01*
X10161559Y-2516442D01*
X10398442Y-2516442D01*
X11541641Y-2516442D02*
X11541641Y-2279559D01*
X11304758Y-2279559D01*
X11304758Y-2516442D01*
X11541641Y-2516442D01*
D11*
X2358277Y-12063984D02*
X2358277Y-11863984D01*
X2358277Y-11863984D02*
X2405896Y-11863984D01*
X2405896Y-11863984D02*
X2434467Y-11873508D01*
X2434467Y-11873508D02*
X2453515Y-11892555D01*
X2453515Y-11892555D02*
X2463039Y-11911603D01*
X2463039Y-11911603D02*
X2472563Y-11949698D01*
X2472563Y-11949698D02*
X2472563Y-11978269D01*
X2472563Y-11978269D02*
X2463039Y-12016365D01*
X2463039Y-12016365D02*
X2453515Y-12035412D01*
X2453515Y-12035412D02*
X2434467Y-12054460D01*
X2434467Y-12054460D02*
X2405896Y-12063984D01*
X2405896Y-12063984D02*
X2358277Y-12063984D01*
X2558277Y-12063984D02*
X2558277Y-11930650D01*
X2558277Y-11968746D02*
X2567801Y-11949698D01*
X2567801Y-11949698D02*
X2577324Y-11940174D01*
X2577324Y-11940174D02*
X2596372Y-11930650D01*
X2596372Y-11930650D02*
X2615420Y-11930650D01*
X2682086Y-12063984D02*
X2682086Y-11930650D01*
X2682086Y-11863984D02*
X2672563Y-11873508D01*
X2672563Y-11873508D02*
X2682086Y-11883031D01*
X2682086Y-11883031D02*
X2691610Y-11873508D01*
X2691610Y-11873508D02*
X2682086Y-11863984D01*
X2682086Y-11863984D02*
X2682086Y-11883031D01*
X2805896Y-12063984D02*
X2786848Y-12054460D01*
X2786848Y-12054460D02*
X2777324Y-12035412D01*
X2777324Y-12035412D02*
X2777324Y-11863984D01*
X2910658Y-12063984D02*
X2891610Y-12054460D01*
X2891610Y-12054460D02*
X2882086Y-12035412D01*
X2882086Y-12035412D02*
X2882086Y-11863984D01*
X3139229Y-12063984D02*
X3139229Y-11863984D01*
X3139229Y-11863984D02*
X3205896Y-12006841D01*
X3205896Y-12006841D02*
X3272562Y-11863984D01*
X3272562Y-11863984D02*
X3272562Y-12063984D01*
X3453515Y-12063984D02*
X3453515Y-11959222D01*
X3453515Y-11959222D02*
X3443991Y-11940174D01*
X3443991Y-11940174D02*
X3424943Y-11930650D01*
X3424943Y-11930650D02*
X3386848Y-11930650D01*
X3386848Y-11930650D02*
X3367801Y-11940174D01*
X3453515Y-12054460D02*
X3434467Y-12063984D01*
X3434467Y-12063984D02*
X3386848Y-12063984D01*
X3386848Y-12063984D02*
X3367801Y-12054460D01*
X3367801Y-12054460D02*
X3358277Y-12035412D01*
X3358277Y-12035412D02*
X3358277Y-12016365D01*
X3358277Y-12016365D02*
X3367801Y-11997317D01*
X3367801Y-11997317D02*
X3386848Y-11987793D01*
X3386848Y-11987793D02*
X3434467Y-11987793D01*
X3434467Y-11987793D02*
X3453515Y-11978269D01*
X3548753Y-11930650D02*
X3548753Y-12130650D01*
X3548753Y-11940174D02*
X3567801Y-11930650D01*
X3567801Y-11930650D02*
X3605896Y-11930650D01*
X3605896Y-11930650D02*
X3624943Y-11940174D01*
X3624943Y-11940174D02*
X3634467Y-11949698D01*
X3634467Y-11949698D02*
X3643991Y-11968746D01*
X3643991Y-11968746D02*
X3643991Y-12025888D01*
X3643991Y-12025888D02*
X3634467Y-12044936D01*
X3634467Y-12044936D02*
X3624943Y-12054460D01*
X3624943Y-12054460D02*
X3605896Y-12063984D01*
X3605896Y-12063984D02*
X3567801Y-12063984D01*
X3567801Y-12063984D02*
X3548753Y-12054460D01*
X3729705Y-12044936D02*
X3739229Y-12054460D01*
X3739229Y-12054460D02*
X3729705Y-12063984D01*
X3729705Y-12063984D02*
X3720182Y-12054460D01*
X3720182Y-12054460D02*
X3729705Y-12044936D01*
X3729705Y-12044936D02*
X3729705Y-12063984D01*
X3729705Y-11940174D02*
X3739229Y-11949698D01*
X3739229Y-11949698D02*
X3729705Y-11959222D01*
X3729705Y-11959222D02*
X3720182Y-11949698D01*
X3720182Y-11949698D02*
X3729705Y-11940174D01*
X3729705Y-11940174D02*
X3729705Y-11959222D01*
X1897500Y-12292500D02*
X2097500Y-12492500D01*
X2097500Y-12292500D02*
X1897500Y-12492500D01*
X2339229Y-12283984D02*
X2463039Y-12283984D01*
X2463039Y-12283984D02*
X2396372Y-12360174D01*
X2396372Y-12360174D02*
X2424944Y-12360174D01*
X2424944Y-12360174D02*
X2443991Y-12369698D01*
X2443991Y-12369698D02*
X2453515Y-12379222D01*
X2453515Y-12379222D02*
X2463039Y-12398269D01*
X2463039Y-12398269D02*
X2463039Y-12445888D01*
X2463039Y-12445888D02*
X2453515Y-12464936D01*
X2453515Y-12464936D02*
X2443991Y-12474460D01*
X2443991Y-12474460D02*
X2424944Y-12483984D01*
X2424944Y-12483984D02*
X2367801Y-12483984D01*
X2367801Y-12483984D02*
X2348753Y-12474460D01*
X2348753Y-12474460D02*
X2339229Y-12464936D01*
X2548753Y-12464936D02*
X2558277Y-12474460D01*
X2558277Y-12474460D02*
X2548753Y-12483984D01*
X2548753Y-12483984D02*
X2539229Y-12474460D01*
X2539229Y-12474460D02*
X2548753Y-12464936D01*
X2548753Y-12464936D02*
X2548753Y-12483984D01*
X2682086Y-12283984D02*
X2701134Y-12283984D01*
X2701134Y-12283984D02*
X2720182Y-12293508D01*
X2720182Y-12293508D02*
X2729705Y-12303031D01*
X2729705Y-12303031D02*
X2739229Y-12322079D01*
X2739229Y-12322079D02*
X2748753Y-12360174D01*
X2748753Y-12360174D02*
X2748753Y-12407793D01*
X2748753Y-12407793D02*
X2739229Y-12445888D01*
X2739229Y-12445888D02*
X2729705Y-12464936D01*
X2729705Y-12464936D02*
X2720182Y-12474460D01*
X2720182Y-12474460D02*
X2701134Y-12483984D01*
X2701134Y-12483984D02*
X2682086Y-12483984D01*
X2682086Y-12483984D02*
X2663039Y-12474460D01*
X2663039Y-12474460D02*
X2653515Y-12464936D01*
X2653515Y-12464936D02*
X2643991Y-12445888D01*
X2643991Y-12445888D02*
X2634467Y-12407793D01*
X2634467Y-12407793D02*
X2634467Y-12360174D01*
X2634467Y-12360174D02*
X2643991Y-12322079D01*
X2643991Y-12322079D02*
X2653515Y-12303031D01*
X2653515Y-12303031D02*
X2663039Y-12293508D01*
X2663039Y-12293508D02*
X2682086Y-12283984D01*
X2872562Y-12283984D02*
X2891610Y-12283984D01*
X2891610Y-12283984D02*
X2910658Y-12293508D01*
X2910658Y-12293508D02*
X2920182Y-12303031D01*
X2920182Y-12303031D02*
X2929705Y-12322079D01*
X2929705Y-12322079D02*
X2939229Y-12360174D01*
X2939229Y-12360174D02*
X2939229Y-12407793D01*
X2939229Y-12407793D02*
X2929705Y-12445888D01*
X2929705Y-12445888D02*
X2920182Y-12464936D01*
X2920182Y-12464936D02*
X2910658Y-12474460D01*
X2910658Y-12474460D02*
X2891610Y-12483984D01*
X2891610Y-12483984D02*
X2872562Y-12483984D01*
X2872562Y-12483984D02*
X2853515Y-12474460D01*
X2853515Y-12474460D02*
X2843991Y-12464936D01*
X2843991Y-12464936D02*
X2834467Y-12445888D01*
X2834467Y-12445888D02*
X2824943Y-12407793D01*
X2824943Y-12407793D02*
X2824943Y-12360174D01*
X2824943Y-12360174D02*
X2834467Y-12322079D01*
X2834467Y-12322079D02*
X2843991Y-12303031D01*
X2843991Y-12303031D02*
X2853515Y-12293508D01*
X2853515Y-12293508D02*
X2872562Y-12283984D01*
X3063039Y-12283984D02*
X3082086Y-12283984D01*
X3082086Y-12283984D02*
X3101134Y-12293508D01*
X3101134Y-12293508D02*
X3110658Y-12303031D01*
X3110658Y-12303031D02*
X3120182Y-12322079D01*
X3120182Y-12322079D02*
X3129705Y-12360174D01*
X3129705Y-12360174D02*
X3129705Y-12407793D01*
X3129705Y-12407793D02*
X3120182Y-12445888D01*
X3120182Y-12445888D02*
X3110658Y-12464936D01*
X3110658Y-12464936D02*
X3101134Y-12474460D01*
X3101134Y-12474460D02*
X3082086Y-12483984D01*
X3082086Y-12483984D02*
X3063039Y-12483984D01*
X3063039Y-12483984D02*
X3043991Y-12474460D01*
X3043991Y-12474460D02*
X3034467Y-12464936D01*
X3034467Y-12464936D02*
X3024943Y-12445888D01*
X3024943Y-12445888D02*
X3015420Y-12407793D01*
X3015420Y-12407793D02*
X3015420Y-12360174D01*
X3015420Y-12360174D02*
X3024943Y-12322079D01*
X3024943Y-12322079D02*
X3034467Y-12303031D01*
X3034467Y-12303031D02*
X3043991Y-12293508D01*
X3043991Y-12293508D02*
X3063039Y-12283984D01*
X3215420Y-12483984D02*
X3215420Y-12350650D01*
X3215420Y-12369698D02*
X3224943Y-12360174D01*
X3224943Y-12360174D02*
X3243991Y-12350650D01*
X3243991Y-12350650D02*
X3272563Y-12350650D01*
X3272563Y-12350650D02*
X3291610Y-12360174D01*
X3291610Y-12360174D02*
X3301134Y-12379222D01*
X3301134Y-12379222D02*
X3301134Y-12483984D01*
X3301134Y-12379222D02*
X3310658Y-12360174D01*
X3310658Y-12360174D02*
X3329705Y-12350650D01*
X3329705Y-12350650D02*
X3358277Y-12350650D01*
X3358277Y-12350650D02*
X3377324Y-12360174D01*
X3377324Y-12360174D02*
X3386848Y-12379222D01*
X3386848Y-12379222D02*
X3386848Y-12483984D01*
X3482086Y-12483984D02*
X3482086Y-12350650D01*
X3482086Y-12369698D02*
X3491610Y-12360174D01*
X3491610Y-12360174D02*
X3510658Y-12350650D01*
X3510658Y-12350650D02*
X3539229Y-12350650D01*
X3539229Y-12350650D02*
X3558277Y-12360174D01*
X3558277Y-12360174D02*
X3567801Y-12379222D01*
X3567801Y-12379222D02*
X3567801Y-12483984D01*
X3567801Y-12379222D02*
X3577324Y-12360174D01*
X3577324Y-12360174D02*
X3596372Y-12350650D01*
X3596372Y-12350650D02*
X3624943Y-12350650D01*
X3624943Y-12350650D02*
X3643991Y-12360174D01*
X3643991Y-12360174D02*
X3653515Y-12379222D01*
X3653515Y-12379222D02*
X3653515Y-12483984D01*
X4043991Y-12274460D02*
X3872563Y-12531603D01*
X4301134Y-12283984D02*
X4320182Y-12283984D01*
X4320182Y-12283984D02*
X4339229Y-12293508D01*
X4339229Y-12293508D02*
X4348753Y-12303031D01*
X4348753Y-12303031D02*
X4358277Y-12322079D01*
X4358277Y-12322079D02*
X4367801Y-12360174D01*
X4367801Y-12360174D02*
X4367801Y-12407793D01*
X4367801Y-12407793D02*
X4358277Y-12445888D01*
X4358277Y-12445888D02*
X4348753Y-12464936D01*
X4348753Y-12464936D02*
X4339229Y-12474460D01*
X4339229Y-12474460D02*
X4320182Y-12483984D01*
X4320182Y-12483984D02*
X4301134Y-12483984D01*
X4301134Y-12483984D02*
X4282087Y-12474460D01*
X4282087Y-12474460D02*
X4272563Y-12464936D01*
X4272563Y-12464936D02*
X4263039Y-12445888D01*
X4263039Y-12445888D02*
X4253515Y-12407793D01*
X4253515Y-12407793D02*
X4253515Y-12360174D01*
X4253515Y-12360174D02*
X4263039Y-12322079D01*
X4263039Y-12322079D02*
X4272563Y-12303031D01*
X4272563Y-12303031D02*
X4282087Y-12293508D01*
X4282087Y-12293508D02*
X4301134Y-12283984D01*
X4453515Y-12464936D02*
X4463039Y-12474460D01*
X4463039Y-12474460D02*
X4453515Y-12483984D01*
X4453515Y-12483984D02*
X4443991Y-12474460D01*
X4443991Y-12474460D02*
X4453515Y-12464936D01*
X4453515Y-12464936D02*
X4453515Y-12483984D01*
X4653515Y-12483984D02*
X4539229Y-12483984D01*
X4596372Y-12483984D02*
X4596372Y-12283984D01*
X4596372Y-12283984D02*
X4577325Y-12312555D01*
X4577325Y-12312555D02*
X4558277Y-12331603D01*
X4558277Y-12331603D02*
X4539229Y-12341127D01*
X4843991Y-12483984D02*
X4729706Y-12483984D01*
X4786848Y-12483984D02*
X4786848Y-12283984D01*
X4786848Y-12283984D02*
X4767801Y-12312555D01*
X4767801Y-12312555D02*
X4748753Y-12331603D01*
X4748753Y-12331603D02*
X4729706Y-12341127D01*
X4958277Y-12369698D02*
X4939229Y-12360174D01*
X4939229Y-12360174D02*
X4929706Y-12350650D01*
X4929706Y-12350650D02*
X4920182Y-12331603D01*
X4920182Y-12331603D02*
X4920182Y-12322079D01*
X4920182Y-12322079D02*
X4929706Y-12303031D01*
X4929706Y-12303031D02*
X4939229Y-12293508D01*
X4939229Y-12293508D02*
X4958277Y-12283984D01*
X4958277Y-12283984D02*
X4996372Y-12283984D01*
X4996372Y-12283984D02*
X5015420Y-12293508D01*
X5015420Y-12293508D02*
X5024944Y-12303031D01*
X5024944Y-12303031D02*
X5034468Y-12322079D01*
X5034468Y-12322079D02*
X5034468Y-12331603D01*
X5034468Y-12331603D02*
X5024944Y-12350650D01*
X5024944Y-12350650D02*
X5015420Y-12360174D01*
X5015420Y-12360174D02*
X4996372Y-12369698D01*
X4996372Y-12369698D02*
X4958277Y-12369698D01*
X4958277Y-12369698D02*
X4939229Y-12379222D01*
X4939229Y-12379222D02*
X4929706Y-12388746D01*
X4929706Y-12388746D02*
X4920182Y-12407793D01*
X4920182Y-12407793D02*
X4920182Y-12445888D01*
X4920182Y-12445888D02*
X4929706Y-12464936D01*
X4929706Y-12464936D02*
X4939229Y-12474460D01*
X4939229Y-12474460D02*
X4958277Y-12483984D01*
X4958277Y-12483984D02*
X4996372Y-12483984D01*
X4996372Y-12483984D02*
X5015420Y-12474460D01*
X5015420Y-12474460D02*
X5024944Y-12464936D01*
X5024944Y-12464936D02*
X5034468Y-12445888D01*
X5034468Y-12445888D02*
X5034468Y-12407793D01*
X5034468Y-12407793D02*
X5024944Y-12388746D01*
X5024944Y-12388746D02*
X5015420Y-12379222D01*
X5015420Y-12379222D02*
X4996372Y-12369698D01*
X5224944Y-12483984D02*
X5110658Y-12483984D01*
X5167801Y-12483984D02*
X5167801Y-12283984D01*
X5167801Y-12283984D02*
X5148753Y-12312555D01*
X5148753Y-12312555D02*
X5129706Y-12331603D01*
X5129706Y-12331603D02*
X5110658Y-12341127D01*
X5301134Y-12283984D02*
X5301134Y-12322079D01*
X5377325Y-12283984D02*
X5377325Y-12322079D01*
X5672563Y-12560174D02*
X5663039Y-12550650D01*
X5663039Y-12550650D02*
X5643991Y-12522079D01*
X5643991Y-12522079D02*
X5634468Y-12503031D01*
X5634468Y-12503031D02*
X5624944Y-12474460D01*
X5624944Y-12474460D02*
X5615420Y-12426841D01*
X5615420Y-12426841D02*
X5615420Y-12388746D01*
X5615420Y-12388746D02*
X5624944Y-12341127D01*
X5624944Y-12341127D02*
X5634468Y-12312555D01*
X5634468Y-12312555D02*
X5643991Y-12293508D01*
X5643991Y-12293508D02*
X5663039Y-12264936D01*
X5663039Y-12264936D02*
X5672563Y-12255412D01*
X5834468Y-12350650D02*
X5834468Y-12483984D01*
X5786848Y-12274460D02*
X5739229Y-12417317D01*
X5739229Y-12417317D02*
X5863039Y-12417317D01*
X6091610Y-12483984D02*
X6091610Y-12283984D01*
X6177325Y-12483984D02*
X6177325Y-12379222D01*
X6177325Y-12379222D02*
X6167801Y-12360174D01*
X6167801Y-12360174D02*
X6148753Y-12350650D01*
X6148753Y-12350650D02*
X6120182Y-12350650D01*
X6120182Y-12350650D02*
X6101134Y-12360174D01*
X6101134Y-12360174D02*
X6091610Y-12369698D01*
X6301134Y-12483984D02*
X6282087Y-12474460D01*
X6282087Y-12474460D02*
X6272563Y-12464936D01*
X6272563Y-12464936D02*
X6263039Y-12445888D01*
X6263039Y-12445888D02*
X6263039Y-12388746D01*
X6263039Y-12388746D02*
X6272563Y-12369698D01*
X6272563Y-12369698D02*
X6282087Y-12360174D01*
X6282087Y-12360174D02*
X6301134Y-12350650D01*
X6301134Y-12350650D02*
X6329706Y-12350650D01*
X6329706Y-12350650D02*
X6348753Y-12360174D01*
X6348753Y-12360174D02*
X6358277Y-12369698D01*
X6358277Y-12369698D02*
X6367801Y-12388746D01*
X6367801Y-12388746D02*
X6367801Y-12445888D01*
X6367801Y-12445888D02*
X6358277Y-12464936D01*
X6358277Y-12464936D02*
X6348753Y-12474460D01*
X6348753Y-12474460D02*
X6329706Y-12483984D01*
X6329706Y-12483984D02*
X6301134Y-12483984D01*
X6482087Y-12483984D02*
X6463039Y-12474460D01*
X6463039Y-12474460D02*
X6453515Y-12455412D01*
X6453515Y-12455412D02*
X6453515Y-12283984D01*
X6634468Y-12474460D02*
X6615420Y-12483984D01*
X6615420Y-12483984D02*
X6577325Y-12483984D01*
X6577325Y-12483984D02*
X6558277Y-12474460D01*
X6558277Y-12474460D02*
X6548753Y-12455412D01*
X6548753Y-12455412D02*
X6548753Y-12379222D01*
X6548753Y-12379222D02*
X6558277Y-12360174D01*
X6558277Y-12360174D02*
X6577325Y-12350650D01*
X6577325Y-12350650D02*
X6615420Y-12350650D01*
X6615420Y-12350650D02*
X6634468Y-12360174D01*
X6634468Y-12360174D02*
X6643991Y-12379222D01*
X6643991Y-12379222D02*
X6643991Y-12398269D01*
X6643991Y-12398269D02*
X6548753Y-12417317D01*
X6720182Y-12474460D02*
X6739230Y-12483984D01*
X6739230Y-12483984D02*
X6777325Y-12483984D01*
X6777325Y-12483984D02*
X6796372Y-12474460D01*
X6796372Y-12474460D02*
X6805896Y-12455412D01*
X6805896Y-12455412D02*
X6805896Y-12445888D01*
X6805896Y-12445888D02*
X6796372Y-12426841D01*
X6796372Y-12426841D02*
X6777325Y-12417317D01*
X6777325Y-12417317D02*
X6748753Y-12417317D01*
X6748753Y-12417317D02*
X6729706Y-12407793D01*
X6729706Y-12407793D02*
X6720182Y-12388746D01*
X6720182Y-12388746D02*
X6720182Y-12379222D01*
X6720182Y-12379222D02*
X6729706Y-12360174D01*
X6729706Y-12360174D02*
X6748753Y-12350650D01*
X6748753Y-12350650D02*
X6777325Y-12350650D01*
X6777325Y-12350650D02*
X6796372Y-12360174D01*
X6872563Y-12560174D02*
X6882087Y-12550650D01*
X6882087Y-12550650D02*
X6901134Y-12522079D01*
X6901134Y-12522079D02*
X6910658Y-12503031D01*
X6910658Y-12503031D02*
X6920182Y-12474460D01*
X6920182Y-12474460D02*
X6929706Y-12426841D01*
X6929706Y-12426841D02*
X6929706Y-12388746D01*
X6929706Y-12388746D02*
X6920182Y-12341127D01*
X6920182Y-12341127D02*
X6910658Y-12312555D01*
X6910658Y-12312555D02*
X6901134Y-12293508D01*
X6901134Y-12293508D02*
X6882087Y-12264936D01*
X6882087Y-12264936D02*
X6872563Y-12255412D01*
X7234468Y-12560174D02*
X7224944Y-12550650D01*
X7224944Y-12550650D02*
X7205896Y-12522079D01*
X7205896Y-12522079D02*
X7196372Y-12503031D01*
X7196372Y-12503031D02*
X7186849Y-12474460D01*
X7186849Y-12474460D02*
X7177325Y-12426841D01*
X7177325Y-12426841D02*
X7177325Y-12388746D01*
X7177325Y-12388746D02*
X7186849Y-12341127D01*
X7186849Y-12341127D02*
X7196372Y-12312555D01*
X7196372Y-12312555D02*
X7205896Y-12293508D01*
X7205896Y-12293508D02*
X7224944Y-12264936D01*
X7224944Y-12264936D02*
X7234468Y-12255412D01*
X7310658Y-12350650D02*
X7310658Y-12483984D01*
X7310658Y-12369698D02*
X7320182Y-12360174D01*
X7320182Y-12360174D02*
X7339230Y-12350650D01*
X7339230Y-12350650D02*
X7367801Y-12350650D01*
X7367801Y-12350650D02*
X7386849Y-12360174D01*
X7386849Y-12360174D02*
X7396372Y-12379222D01*
X7396372Y-12379222D02*
X7396372Y-12483984D01*
X7520182Y-12483984D02*
X7501134Y-12474460D01*
X7501134Y-12474460D02*
X7491611Y-12464936D01*
X7491611Y-12464936D02*
X7482087Y-12445888D01*
X7482087Y-12445888D02*
X7482087Y-12388746D01*
X7482087Y-12388746D02*
X7491611Y-12369698D01*
X7491611Y-12369698D02*
X7501134Y-12360174D01*
X7501134Y-12360174D02*
X7520182Y-12350650D01*
X7520182Y-12350650D02*
X7548753Y-12350650D01*
X7548753Y-12350650D02*
X7567801Y-12360174D01*
X7567801Y-12360174D02*
X7577325Y-12369698D01*
X7577325Y-12369698D02*
X7586849Y-12388746D01*
X7586849Y-12388746D02*
X7586849Y-12445888D01*
X7586849Y-12445888D02*
X7577325Y-12464936D01*
X7577325Y-12464936D02*
X7567801Y-12474460D01*
X7567801Y-12474460D02*
X7548753Y-12483984D01*
X7548753Y-12483984D02*
X7520182Y-12483984D01*
X7643992Y-12350650D02*
X7720182Y-12350650D01*
X7672563Y-12283984D02*
X7672563Y-12455412D01*
X7672563Y-12455412D02*
X7682087Y-12474460D01*
X7682087Y-12474460D02*
X7701134Y-12483984D01*
X7701134Y-12483984D02*
X7720182Y-12483984D01*
X7939230Y-12350650D02*
X7939230Y-12550650D01*
X7939230Y-12360174D02*
X7958277Y-12350650D01*
X7958277Y-12350650D02*
X7996373Y-12350650D01*
X7996373Y-12350650D02*
X8015420Y-12360174D01*
X8015420Y-12360174D02*
X8024944Y-12369698D01*
X8024944Y-12369698D02*
X8034468Y-12388746D01*
X8034468Y-12388746D02*
X8034468Y-12445888D01*
X8034468Y-12445888D02*
X8024944Y-12464936D01*
X8024944Y-12464936D02*
X8015420Y-12474460D01*
X8015420Y-12474460D02*
X7996373Y-12483984D01*
X7996373Y-12483984D02*
X7958277Y-12483984D01*
X7958277Y-12483984D02*
X7939230Y-12474460D01*
X8148753Y-12483984D02*
X8129706Y-12474460D01*
X8129706Y-12474460D02*
X8120182Y-12455412D01*
X8120182Y-12455412D02*
X8120182Y-12283984D01*
X8310658Y-12483984D02*
X8310658Y-12379222D01*
X8310658Y-12379222D02*
X8301134Y-12360174D01*
X8301134Y-12360174D02*
X8282087Y-12350650D01*
X8282087Y-12350650D02*
X8243992Y-12350650D01*
X8243992Y-12350650D02*
X8224944Y-12360174D01*
X8310658Y-12474460D02*
X8291611Y-12483984D01*
X8291611Y-12483984D02*
X8243992Y-12483984D01*
X8243992Y-12483984D02*
X8224944Y-12474460D01*
X8224944Y-12474460D02*
X8215420Y-12455412D01*
X8215420Y-12455412D02*
X8215420Y-12436365D01*
X8215420Y-12436365D02*
X8224944Y-12417317D01*
X8224944Y-12417317D02*
X8243992Y-12407793D01*
X8243992Y-12407793D02*
X8291611Y-12407793D01*
X8291611Y-12407793D02*
X8310658Y-12398269D01*
X8377325Y-12350650D02*
X8453515Y-12350650D01*
X8405896Y-12283984D02*
X8405896Y-12455412D01*
X8405896Y-12455412D02*
X8415420Y-12474460D01*
X8415420Y-12474460D02*
X8434468Y-12483984D01*
X8434468Y-12483984D02*
X8453515Y-12483984D01*
X8596373Y-12474460D02*
X8577325Y-12483984D01*
X8577325Y-12483984D02*
X8539230Y-12483984D01*
X8539230Y-12483984D02*
X8520182Y-12474460D01*
X8520182Y-12474460D02*
X8510658Y-12455412D01*
X8510658Y-12455412D02*
X8510658Y-12379222D01*
X8510658Y-12379222D02*
X8520182Y-12360174D01*
X8520182Y-12360174D02*
X8539230Y-12350650D01*
X8539230Y-12350650D02*
X8577325Y-12350650D01*
X8577325Y-12350650D02*
X8596373Y-12360174D01*
X8596373Y-12360174D02*
X8605896Y-12379222D01*
X8605896Y-12379222D02*
X8605896Y-12398269D01*
X8605896Y-12398269D02*
X8510658Y-12417317D01*
X8777325Y-12483984D02*
X8777325Y-12283984D01*
X8777325Y-12474460D02*
X8758277Y-12483984D01*
X8758277Y-12483984D02*
X8720182Y-12483984D01*
X8720182Y-12483984D02*
X8701135Y-12474460D01*
X8701135Y-12474460D02*
X8691611Y-12464936D01*
X8691611Y-12464936D02*
X8682087Y-12445888D01*
X8682087Y-12445888D02*
X8682087Y-12388746D01*
X8682087Y-12388746D02*
X8691611Y-12369698D01*
X8691611Y-12369698D02*
X8701135Y-12360174D01*
X8701135Y-12360174D02*
X8720182Y-12350650D01*
X8720182Y-12350650D02*
X8758277Y-12350650D01*
X8758277Y-12350650D02*
X8777325Y-12360174D01*
X8853516Y-12560174D02*
X8863039Y-12550650D01*
X8863039Y-12550650D02*
X8882087Y-12522079D01*
X8882087Y-12522079D02*
X8891611Y-12503031D01*
X8891611Y-12503031D02*
X8901135Y-12474460D01*
X8901135Y-12474460D02*
X8910658Y-12426841D01*
X8910658Y-12426841D02*
X8910658Y-12388746D01*
X8910658Y-12388746D02*
X8901135Y-12341127D01*
X8901135Y-12341127D02*
X8891611Y-12312555D01*
X8891611Y-12312555D02*
X8882087Y-12293508D01*
X8882087Y-12293508D02*
X8863039Y-12264936D01*
X8863039Y-12264936D02*
X8853516Y-12255412D01*
X2097500Y-12712500D02*
G75*
G02*
X1897500Y-12712500I-100000J0D01*
G01*
X1897500Y-12712500D02*
G75*
G02*
X2097500Y-12712500I100000J0D01*
G01*
X2339229Y-12603984D02*
X2463039Y-12603984D01*
X2463039Y-12603984D02*
X2396372Y-12680174D01*
X2396372Y-12680174D02*
X2424944Y-12680174D01*
X2424944Y-12680174D02*
X2443991Y-12689698D01*
X2443991Y-12689698D02*
X2453515Y-12699222D01*
X2453515Y-12699222D02*
X2463039Y-12718269D01*
X2463039Y-12718269D02*
X2463039Y-12765888D01*
X2463039Y-12765888D02*
X2453515Y-12784936D01*
X2453515Y-12784936D02*
X2443991Y-12794460D01*
X2443991Y-12794460D02*
X2424944Y-12803984D01*
X2424944Y-12803984D02*
X2367801Y-12803984D01*
X2367801Y-12803984D02*
X2348753Y-12794460D01*
X2348753Y-12794460D02*
X2339229Y-12784936D01*
X2548753Y-12784936D02*
X2558277Y-12794460D01*
X2558277Y-12794460D02*
X2548753Y-12803984D01*
X2548753Y-12803984D02*
X2539229Y-12794460D01*
X2539229Y-12794460D02*
X2548753Y-12784936D01*
X2548753Y-12784936D02*
X2548753Y-12803984D01*
X2634467Y-12623031D02*
X2643991Y-12613508D01*
X2643991Y-12613508D02*
X2663039Y-12603984D01*
X2663039Y-12603984D02*
X2710658Y-12603984D01*
X2710658Y-12603984D02*
X2729705Y-12613508D01*
X2729705Y-12613508D02*
X2739229Y-12623031D01*
X2739229Y-12623031D02*
X2748753Y-12642079D01*
X2748753Y-12642079D02*
X2748753Y-12661127D01*
X2748753Y-12661127D02*
X2739229Y-12689698D01*
X2739229Y-12689698D02*
X2624944Y-12803984D01*
X2624944Y-12803984D02*
X2748753Y-12803984D01*
X2929705Y-12603984D02*
X2834467Y-12603984D01*
X2834467Y-12603984D02*
X2824943Y-12699222D01*
X2824943Y-12699222D02*
X2834467Y-12689698D01*
X2834467Y-12689698D02*
X2853515Y-12680174D01*
X2853515Y-12680174D02*
X2901134Y-12680174D01*
X2901134Y-12680174D02*
X2920182Y-12689698D01*
X2920182Y-12689698D02*
X2929705Y-12699222D01*
X2929705Y-12699222D02*
X2939229Y-12718269D01*
X2939229Y-12718269D02*
X2939229Y-12765888D01*
X2939229Y-12765888D02*
X2929705Y-12784936D01*
X2929705Y-12784936D02*
X2920182Y-12794460D01*
X2920182Y-12794460D02*
X2901134Y-12803984D01*
X2901134Y-12803984D02*
X2853515Y-12803984D01*
X2853515Y-12803984D02*
X2834467Y-12794460D01*
X2834467Y-12794460D02*
X2824943Y-12784936D01*
X3063039Y-12603984D02*
X3082086Y-12603984D01*
X3082086Y-12603984D02*
X3101134Y-12613508D01*
X3101134Y-12613508D02*
X3110658Y-12623031D01*
X3110658Y-12623031D02*
X3120182Y-12642079D01*
X3120182Y-12642079D02*
X3129705Y-12680174D01*
X3129705Y-12680174D02*
X3129705Y-12727793D01*
X3129705Y-12727793D02*
X3120182Y-12765888D01*
X3120182Y-12765888D02*
X3110658Y-12784936D01*
X3110658Y-12784936D02*
X3101134Y-12794460D01*
X3101134Y-12794460D02*
X3082086Y-12803984D01*
X3082086Y-12803984D02*
X3063039Y-12803984D01*
X3063039Y-12803984D02*
X3043991Y-12794460D01*
X3043991Y-12794460D02*
X3034467Y-12784936D01*
X3034467Y-12784936D02*
X3024943Y-12765888D01*
X3024943Y-12765888D02*
X3015420Y-12727793D01*
X3015420Y-12727793D02*
X3015420Y-12680174D01*
X3015420Y-12680174D02*
X3024943Y-12642079D01*
X3024943Y-12642079D02*
X3034467Y-12623031D01*
X3034467Y-12623031D02*
X3043991Y-12613508D01*
X3043991Y-12613508D02*
X3063039Y-12603984D01*
X3215420Y-12803984D02*
X3215420Y-12670650D01*
X3215420Y-12689698D02*
X3224943Y-12680174D01*
X3224943Y-12680174D02*
X3243991Y-12670650D01*
X3243991Y-12670650D02*
X3272563Y-12670650D01*
X3272563Y-12670650D02*
X3291610Y-12680174D01*
X3291610Y-12680174D02*
X3301134Y-12699222D01*
X3301134Y-12699222D02*
X3301134Y-12803984D01*
X3301134Y-12699222D02*
X3310658Y-12680174D01*
X3310658Y-12680174D02*
X3329705Y-12670650D01*
X3329705Y-12670650D02*
X3358277Y-12670650D01*
X3358277Y-12670650D02*
X3377324Y-12680174D01*
X3377324Y-12680174D02*
X3386848Y-12699222D01*
X3386848Y-12699222D02*
X3386848Y-12803984D01*
X3482086Y-12803984D02*
X3482086Y-12670650D01*
X3482086Y-12689698D02*
X3491610Y-12680174D01*
X3491610Y-12680174D02*
X3510658Y-12670650D01*
X3510658Y-12670650D02*
X3539229Y-12670650D01*
X3539229Y-12670650D02*
X3558277Y-12680174D01*
X3558277Y-12680174D02*
X3567801Y-12699222D01*
X3567801Y-12699222D02*
X3567801Y-12803984D01*
X3567801Y-12699222D02*
X3577324Y-12680174D01*
X3577324Y-12680174D02*
X3596372Y-12670650D01*
X3596372Y-12670650D02*
X3624943Y-12670650D01*
X3624943Y-12670650D02*
X3643991Y-12680174D01*
X3643991Y-12680174D02*
X3653515Y-12699222D01*
X3653515Y-12699222D02*
X3653515Y-12803984D01*
X4043991Y-12594460D02*
X3872563Y-12851603D01*
X4301134Y-12603984D02*
X4320182Y-12603984D01*
X4320182Y-12603984D02*
X4339229Y-12613508D01*
X4339229Y-12613508D02*
X4348753Y-12623031D01*
X4348753Y-12623031D02*
X4358277Y-12642079D01*
X4358277Y-12642079D02*
X4367801Y-12680174D01*
X4367801Y-12680174D02*
X4367801Y-12727793D01*
X4367801Y-12727793D02*
X4358277Y-12765888D01*
X4358277Y-12765888D02*
X4348753Y-12784936D01*
X4348753Y-12784936D02*
X4339229Y-12794460D01*
X4339229Y-12794460D02*
X4320182Y-12803984D01*
X4320182Y-12803984D02*
X4301134Y-12803984D01*
X4301134Y-12803984D02*
X4282087Y-12794460D01*
X4282087Y-12794460D02*
X4272563Y-12784936D01*
X4272563Y-12784936D02*
X4263039Y-12765888D01*
X4263039Y-12765888D02*
X4253515Y-12727793D01*
X4253515Y-12727793D02*
X4253515Y-12680174D01*
X4253515Y-12680174D02*
X4263039Y-12642079D01*
X4263039Y-12642079D02*
X4272563Y-12623031D01*
X4272563Y-12623031D02*
X4282087Y-12613508D01*
X4282087Y-12613508D02*
X4301134Y-12603984D01*
X4453515Y-12784936D02*
X4463039Y-12794460D01*
X4463039Y-12794460D02*
X4453515Y-12803984D01*
X4453515Y-12803984D02*
X4443991Y-12794460D01*
X4443991Y-12794460D02*
X4453515Y-12784936D01*
X4453515Y-12784936D02*
X4453515Y-12803984D01*
X4653515Y-12803984D02*
X4539229Y-12803984D01*
X4596372Y-12803984D02*
X4596372Y-12603984D01*
X4596372Y-12603984D02*
X4577325Y-12632555D01*
X4577325Y-12632555D02*
X4558277Y-12651603D01*
X4558277Y-12651603D02*
X4539229Y-12661127D01*
X4729706Y-12623031D02*
X4739229Y-12613508D01*
X4739229Y-12613508D02*
X4758277Y-12603984D01*
X4758277Y-12603984D02*
X4805896Y-12603984D01*
X4805896Y-12603984D02*
X4824944Y-12613508D01*
X4824944Y-12613508D02*
X4834468Y-12623031D01*
X4834468Y-12623031D02*
X4843991Y-12642079D01*
X4843991Y-12642079D02*
X4843991Y-12661127D01*
X4843991Y-12661127D02*
X4834468Y-12689698D01*
X4834468Y-12689698D02*
X4720182Y-12803984D01*
X4720182Y-12803984D02*
X4843991Y-12803984D01*
X4958277Y-12689698D02*
X4939229Y-12680174D01*
X4939229Y-12680174D02*
X4929706Y-12670650D01*
X4929706Y-12670650D02*
X4920182Y-12651603D01*
X4920182Y-12651603D02*
X4920182Y-12642079D01*
X4920182Y-12642079D02*
X4929706Y-12623031D01*
X4929706Y-12623031D02*
X4939229Y-12613508D01*
X4939229Y-12613508D02*
X4958277Y-12603984D01*
X4958277Y-12603984D02*
X4996372Y-12603984D01*
X4996372Y-12603984D02*
X5015420Y-12613508D01*
X5015420Y-12613508D02*
X5024944Y-12623031D01*
X5024944Y-12623031D02*
X5034468Y-12642079D01*
X5034468Y-12642079D02*
X5034468Y-12651603D01*
X5034468Y-12651603D02*
X5024944Y-12670650D01*
X5024944Y-12670650D02*
X5015420Y-12680174D01*
X5015420Y-12680174D02*
X4996372Y-12689698D01*
X4996372Y-12689698D02*
X4958277Y-12689698D01*
X4958277Y-12689698D02*
X4939229Y-12699222D01*
X4939229Y-12699222D02*
X4929706Y-12708746D01*
X4929706Y-12708746D02*
X4920182Y-12727793D01*
X4920182Y-12727793D02*
X4920182Y-12765888D01*
X4920182Y-12765888D02*
X4929706Y-12784936D01*
X4929706Y-12784936D02*
X4939229Y-12794460D01*
X4939229Y-12794460D02*
X4958277Y-12803984D01*
X4958277Y-12803984D02*
X4996372Y-12803984D01*
X4996372Y-12803984D02*
X5015420Y-12794460D01*
X5015420Y-12794460D02*
X5024944Y-12784936D01*
X5024944Y-12784936D02*
X5034468Y-12765888D01*
X5034468Y-12765888D02*
X5034468Y-12727793D01*
X5034468Y-12727793D02*
X5024944Y-12708746D01*
X5024944Y-12708746D02*
X5015420Y-12699222D01*
X5015420Y-12699222D02*
X4996372Y-12689698D01*
X5158277Y-12603984D02*
X5177325Y-12603984D01*
X5177325Y-12603984D02*
X5196372Y-12613508D01*
X5196372Y-12613508D02*
X5205896Y-12623031D01*
X5205896Y-12623031D02*
X5215420Y-12642079D01*
X5215420Y-12642079D02*
X5224944Y-12680174D01*
X5224944Y-12680174D02*
X5224944Y-12727793D01*
X5224944Y-12727793D02*
X5215420Y-12765888D01*
X5215420Y-12765888D02*
X5205896Y-12784936D01*
X5205896Y-12784936D02*
X5196372Y-12794460D01*
X5196372Y-12794460D02*
X5177325Y-12803984D01*
X5177325Y-12803984D02*
X5158277Y-12803984D01*
X5158277Y-12803984D02*
X5139229Y-12794460D01*
X5139229Y-12794460D02*
X5129706Y-12784936D01*
X5129706Y-12784936D02*
X5120182Y-12765888D01*
X5120182Y-12765888D02*
X5110658Y-12727793D01*
X5110658Y-12727793D02*
X5110658Y-12680174D01*
X5110658Y-12680174D02*
X5120182Y-12642079D01*
X5120182Y-12642079D02*
X5129706Y-12623031D01*
X5129706Y-12623031D02*
X5139229Y-12613508D01*
X5139229Y-12613508D02*
X5158277Y-12603984D01*
X5301134Y-12603984D02*
X5301134Y-12642079D01*
X5377325Y-12603984D02*
X5377325Y-12642079D01*
X5672563Y-12880174D02*
X5663039Y-12870650D01*
X5663039Y-12870650D02*
X5643991Y-12842079D01*
X5643991Y-12842079D02*
X5634468Y-12823031D01*
X5634468Y-12823031D02*
X5624944Y-12794460D01*
X5624944Y-12794460D02*
X5615420Y-12746841D01*
X5615420Y-12746841D02*
X5615420Y-12708746D01*
X5615420Y-12708746D02*
X5624944Y-12661127D01*
X5624944Y-12661127D02*
X5634468Y-12632555D01*
X5634468Y-12632555D02*
X5643991Y-12613508D01*
X5643991Y-12613508D02*
X5663039Y-12584936D01*
X5663039Y-12584936D02*
X5672563Y-12575412D01*
X5739229Y-12623031D02*
X5748753Y-12613508D01*
X5748753Y-12613508D02*
X5767801Y-12603984D01*
X5767801Y-12603984D02*
X5815420Y-12603984D01*
X5815420Y-12603984D02*
X5834468Y-12613508D01*
X5834468Y-12613508D02*
X5843991Y-12623031D01*
X5843991Y-12623031D02*
X5853515Y-12642079D01*
X5853515Y-12642079D02*
X5853515Y-12661127D01*
X5853515Y-12661127D02*
X5843991Y-12689698D01*
X5843991Y-12689698D02*
X5729706Y-12803984D01*
X5729706Y-12803984D02*
X5853515Y-12803984D01*
X6091610Y-12803984D02*
X6091610Y-12603984D01*
X6177325Y-12803984D02*
X6177325Y-12699222D01*
X6177325Y-12699222D02*
X6167801Y-12680174D01*
X6167801Y-12680174D02*
X6148753Y-12670650D01*
X6148753Y-12670650D02*
X6120182Y-12670650D01*
X6120182Y-12670650D02*
X6101134Y-12680174D01*
X6101134Y-12680174D02*
X6091610Y-12689698D01*
X6301134Y-12803984D02*
X6282087Y-12794460D01*
X6282087Y-12794460D02*
X6272563Y-12784936D01*
X6272563Y-12784936D02*
X6263039Y-12765888D01*
X6263039Y-12765888D02*
X6263039Y-12708746D01*
X6263039Y-12708746D02*
X6272563Y-12689698D01*
X6272563Y-12689698D02*
X6282087Y-12680174D01*
X6282087Y-12680174D02*
X6301134Y-12670650D01*
X6301134Y-12670650D02*
X6329706Y-12670650D01*
X6329706Y-12670650D02*
X6348753Y-12680174D01*
X6348753Y-12680174D02*
X6358277Y-12689698D01*
X6358277Y-12689698D02*
X6367801Y-12708746D01*
X6367801Y-12708746D02*
X6367801Y-12765888D01*
X6367801Y-12765888D02*
X6358277Y-12784936D01*
X6358277Y-12784936D02*
X6348753Y-12794460D01*
X6348753Y-12794460D02*
X6329706Y-12803984D01*
X6329706Y-12803984D02*
X6301134Y-12803984D01*
X6482087Y-12803984D02*
X6463039Y-12794460D01*
X6463039Y-12794460D02*
X6453515Y-12775412D01*
X6453515Y-12775412D02*
X6453515Y-12603984D01*
X6634468Y-12794460D02*
X6615420Y-12803984D01*
X6615420Y-12803984D02*
X6577325Y-12803984D01*
X6577325Y-12803984D02*
X6558277Y-12794460D01*
X6558277Y-12794460D02*
X6548753Y-12775412D01*
X6548753Y-12775412D02*
X6548753Y-12699222D01*
X6548753Y-12699222D02*
X6558277Y-12680174D01*
X6558277Y-12680174D02*
X6577325Y-12670650D01*
X6577325Y-12670650D02*
X6615420Y-12670650D01*
X6615420Y-12670650D02*
X6634468Y-12680174D01*
X6634468Y-12680174D02*
X6643991Y-12699222D01*
X6643991Y-12699222D02*
X6643991Y-12718269D01*
X6643991Y-12718269D02*
X6548753Y-12737317D01*
X6720182Y-12794460D02*
X6739230Y-12803984D01*
X6739230Y-12803984D02*
X6777325Y-12803984D01*
X6777325Y-12803984D02*
X6796372Y-12794460D01*
X6796372Y-12794460D02*
X6805896Y-12775412D01*
X6805896Y-12775412D02*
X6805896Y-12765888D01*
X6805896Y-12765888D02*
X6796372Y-12746841D01*
X6796372Y-12746841D02*
X6777325Y-12737317D01*
X6777325Y-12737317D02*
X6748753Y-12737317D01*
X6748753Y-12737317D02*
X6729706Y-12727793D01*
X6729706Y-12727793D02*
X6720182Y-12708746D01*
X6720182Y-12708746D02*
X6720182Y-12699222D01*
X6720182Y-12699222D02*
X6729706Y-12680174D01*
X6729706Y-12680174D02*
X6748753Y-12670650D01*
X6748753Y-12670650D02*
X6777325Y-12670650D01*
X6777325Y-12670650D02*
X6796372Y-12680174D01*
X6872563Y-12880174D02*
X6882087Y-12870650D01*
X6882087Y-12870650D02*
X6901134Y-12842079D01*
X6901134Y-12842079D02*
X6910658Y-12823031D01*
X6910658Y-12823031D02*
X6920182Y-12794460D01*
X6920182Y-12794460D02*
X6929706Y-12746841D01*
X6929706Y-12746841D02*
X6929706Y-12708746D01*
X6929706Y-12708746D02*
X6920182Y-12661127D01*
X6920182Y-12661127D02*
X6910658Y-12632555D01*
X6910658Y-12632555D02*
X6901134Y-12613508D01*
X6901134Y-12613508D02*
X6882087Y-12584936D01*
X6882087Y-12584936D02*
X6872563Y-12575412D01*
X7234468Y-12880174D02*
X7224944Y-12870650D01*
X7224944Y-12870650D02*
X7205896Y-12842079D01*
X7205896Y-12842079D02*
X7196372Y-12823031D01*
X7196372Y-12823031D02*
X7186849Y-12794460D01*
X7186849Y-12794460D02*
X7177325Y-12746841D01*
X7177325Y-12746841D02*
X7177325Y-12708746D01*
X7177325Y-12708746D02*
X7186849Y-12661127D01*
X7186849Y-12661127D02*
X7196372Y-12632555D01*
X7196372Y-12632555D02*
X7205896Y-12613508D01*
X7205896Y-12613508D02*
X7224944Y-12584936D01*
X7224944Y-12584936D02*
X7234468Y-12575412D01*
X7310658Y-12670650D02*
X7310658Y-12803984D01*
X7310658Y-12689698D02*
X7320182Y-12680174D01*
X7320182Y-12680174D02*
X7339230Y-12670650D01*
X7339230Y-12670650D02*
X7367801Y-12670650D01*
X7367801Y-12670650D02*
X7386849Y-12680174D01*
X7386849Y-12680174D02*
X7396372Y-12699222D01*
X7396372Y-12699222D02*
X7396372Y-12803984D01*
X7520182Y-12803984D02*
X7501134Y-12794460D01*
X7501134Y-12794460D02*
X7491611Y-12784936D01*
X7491611Y-12784936D02*
X7482087Y-12765888D01*
X7482087Y-12765888D02*
X7482087Y-12708746D01*
X7482087Y-12708746D02*
X7491611Y-12689698D01*
X7491611Y-12689698D02*
X7501134Y-12680174D01*
X7501134Y-12680174D02*
X7520182Y-12670650D01*
X7520182Y-12670650D02*
X7548753Y-12670650D01*
X7548753Y-12670650D02*
X7567801Y-12680174D01*
X7567801Y-12680174D02*
X7577325Y-12689698D01*
X7577325Y-12689698D02*
X7586849Y-12708746D01*
X7586849Y-12708746D02*
X7586849Y-12765888D01*
X7586849Y-12765888D02*
X7577325Y-12784936D01*
X7577325Y-12784936D02*
X7567801Y-12794460D01*
X7567801Y-12794460D02*
X7548753Y-12803984D01*
X7548753Y-12803984D02*
X7520182Y-12803984D01*
X7643992Y-12670650D02*
X7720182Y-12670650D01*
X7672563Y-12603984D02*
X7672563Y-12775412D01*
X7672563Y-12775412D02*
X7682087Y-12794460D01*
X7682087Y-12794460D02*
X7701134Y-12803984D01*
X7701134Y-12803984D02*
X7720182Y-12803984D01*
X7939230Y-12670650D02*
X7939230Y-12870650D01*
X7939230Y-12680174D02*
X7958277Y-12670650D01*
X7958277Y-12670650D02*
X7996373Y-12670650D01*
X7996373Y-12670650D02*
X8015420Y-12680174D01*
X8015420Y-12680174D02*
X8024944Y-12689698D01*
X8024944Y-12689698D02*
X8034468Y-12708746D01*
X8034468Y-12708746D02*
X8034468Y-12765888D01*
X8034468Y-12765888D02*
X8024944Y-12784936D01*
X8024944Y-12784936D02*
X8015420Y-12794460D01*
X8015420Y-12794460D02*
X7996373Y-12803984D01*
X7996373Y-12803984D02*
X7958277Y-12803984D01*
X7958277Y-12803984D02*
X7939230Y-12794460D01*
X8148753Y-12803984D02*
X8129706Y-12794460D01*
X8129706Y-12794460D02*
X8120182Y-12775412D01*
X8120182Y-12775412D02*
X8120182Y-12603984D01*
X8310658Y-12803984D02*
X8310658Y-12699222D01*
X8310658Y-12699222D02*
X8301134Y-12680174D01*
X8301134Y-12680174D02*
X8282087Y-12670650D01*
X8282087Y-12670650D02*
X8243992Y-12670650D01*
X8243992Y-12670650D02*
X8224944Y-12680174D01*
X8310658Y-12794460D02*
X8291611Y-12803984D01*
X8291611Y-12803984D02*
X8243992Y-12803984D01*
X8243992Y-12803984D02*
X8224944Y-12794460D01*
X8224944Y-12794460D02*
X8215420Y-12775412D01*
X8215420Y-12775412D02*
X8215420Y-12756365D01*
X8215420Y-12756365D02*
X8224944Y-12737317D01*
X8224944Y-12737317D02*
X8243992Y-12727793D01*
X8243992Y-12727793D02*
X8291611Y-12727793D01*
X8291611Y-12727793D02*
X8310658Y-12718269D01*
X8377325Y-12670650D02*
X8453515Y-12670650D01*
X8405896Y-12603984D02*
X8405896Y-12775412D01*
X8405896Y-12775412D02*
X8415420Y-12794460D01*
X8415420Y-12794460D02*
X8434468Y-12803984D01*
X8434468Y-12803984D02*
X8453515Y-12803984D01*
X8596373Y-12794460D02*
X8577325Y-12803984D01*
X8577325Y-12803984D02*
X8539230Y-12803984D01*
X8539230Y-12803984D02*
X8520182Y-12794460D01*
X8520182Y-12794460D02*
X8510658Y-12775412D01*
X8510658Y-12775412D02*
X8510658Y-12699222D01*
X8510658Y-12699222D02*
X8520182Y-12680174D01*
X8520182Y-12680174D02*
X8539230Y-12670650D01*
X8539230Y-12670650D02*
X8577325Y-12670650D01*
X8577325Y-12670650D02*
X8596373Y-12680174D01*
X8596373Y-12680174D02*
X8605896Y-12699222D01*
X8605896Y-12699222D02*
X8605896Y-12718269D01*
X8605896Y-12718269D02*
X8510658Y-12737317D01*
X8777325Y-12803984D02*
X8777325Y-12603984D01*
X8777325Y-12794460D02*
X8758277Y-12803984D01*
X8758277Y-12803984D02*
X8720182Y-12803984D01*
X8720182Y-12803984D02*
X8701135Y-12794460D01*
X8701135Y-12794460D02*
X8691611Y-12784936D01*
X8691611Y-12784936D02*
X8682087Y-12765888D01*
X8682087Y-12765888D02*
X8682087Y-12708746D01*
X8682087Y-12708746D02*
X8691611Y-12689698D01*
X8691611Y-12689698D02*
X8701135Y-12680174D01*
X8701135Y-12680174D02*
X8720182Y-12670650D01*
X8720182Y-12670650D02*
X8758277Y-12670650D01*
X8758277Y-12670650D02*
X8777325Y-12680174D01*
X8853516Y-12880174D02*
X8863039Y-12870650D01*
X8863039Y-12870650D02*
X8882087Y-12842079D01*
X8882087Y-12842079D02*
X8891611Y-12823031D01*
X8891611Y-12823031D02*
X8901135Y-12794460D01*
X8901135Y-12794460D02*
X8910658Y-12746841D01*
X8910658Y-12746841D02*
X8910658Y-12708746D01*
X8910658Y-12708746D02*
X8901135Y-12661127D01*
X8901135Y-12661127D02*
X8891611Y-12632555D01*
X8891611Y-12632555D02*
X8882087Y-12613508D01*
X8882087Y-12613508D02*
X8863039Y-12584936D01*
X8863039Y-12584936D02*
X8853516Y-12575412D01*
X1997500Y-12932500D02*
X1997500Y-13132500D01*
X1897500Y-13032500D02*
X2097500Y-13032500D01*
X2339229Y-12923984D02*
X2463039Y-12923984D01*
X2463039Y-12923984D02*
X2396372Y-13000174D01*
X2396372Y-13000174D02*
X2424944Y-13000174D01*
X2424944Y-13000174D02*
X2443991Y-13009698D01*
X2443991Y-13009698D02*
X2453515Y-13019222D01*
X2453515Y-13019222D02*
X2463039Y-13038269D01*
X2463039Y-13038269D02*
X2463039Y-13085888D01*
X2463039Y-13085888D02*
X2453515Y-13104936D01*
X2453515Y-13104936D02*
X2443991Y-13114460D01*
X2443991Y-13114460D02*
X2424944Y-13123984D01*
X2424944Y-13123984D02*
X2367801Y-13123984D01*
X2367801Y-13123984D02*
X2348753Y-13114460D01*
X2348753Y-13114460D02*
X2339229Y-13104936D01*
X2548753Y-13104936D02*
X2558277Y-13114460D01*
X2558277Y-13114460D02*
X2548753Y-13123984D01*
X2548753Y-13123984D02*
X2539229Y-13114460D01*
X2539229Y-13114460D02*
X2548753Y-13104936D01*
X2548753Y-13104936D02*
X2548753Y-13123984D01*
X2624944Y-12923984D02*
X2748753Y-12923984D01*
X2748753Y-12923984D02*
X2682086Y-13000174D01*
X2682086Y-13000174D02*
X2710658Y-13000174D01*
X2710658Y-13000174D02*
X2729705Y-13009698D01*
X2729705Y-13009698D02*
X2739229Y-13019222D01*
X2739229Y-13019222D02*
X2748753Y-13038269D01*
X2748753Y-13038269D02*
X2748753Y-13085888D01*
X2748753Y-13085888D02*
X2739229Y-13104936D01*
X2739229Y-13104936D02*
X2729705Y-13114460D01*
X2729705Y-13114460D02*
X2710658Y-13123984D01*
X2710658Y-13123984D02*
X2653515Y-13123984D01*
X2653515Y-13123984D02*
X2634467Y-13114460D01*
X2634467Y-13114460D02*
X2624944Y-13104936D01*
X2872562Y-12923984D02*
X2891610Y-12923984D01*
X2891610Y-12923984D02*
X2910658Y-12933508D01*
X2910658Y-12933508D02*
X2920182Y-12943031D01*
X2920182Y-12943031D02*
X2929705Y-12962079D01*
X2929705Y-12962079D02*
X2939229Y-13000174D01*
X2939229Y-13000174D02*
X2939229Y-13047793D01*
X2939229Y-13047793D02*
X2929705Y-13085888D01*
X2929705Y-13085888D02*
X2920182Y-13104936D01*
X2920182Y-13104936D02*
X2910658Y-13114460D01*
X2910658Y-13114460D02*
X2891610Y-13123984D01*
X2891610Y-13123984D02*
X2872562Y-13123984D01*
X2872562Y-13123984D02*
X2853515Y-13114460D01*
X2853515Y-13114460D02*
X2843991Y-13104936D01*
X2843991Y-13104936D02*
X2834467Y-13085888D01*
X2834467Y-13085888D02*
X2824943Y-13047793D01*
X2824943Y-13047793D02*
X2824943Y-13000174D01*
X2824943Y-13000174D02*
X2834467Y-12962079D01*
X2834467Y-12962079D02*
X2843991Y-12943031D01*
X2843991Y-12943031D02*
X2853515Y-12933508D01*
X2853515Y-12933508D02*
X2872562Y-12923984D01*
X3063039Y-12923984D02*
X3082086Y-12923984D01*
X3082086Y-12923984D02*
X3101134Y-12933508D01*
X3101134Y-12933508D02*
X3110658Y-12943031D01*
X3110658Y-12943031D02*
X3120182Y-12962079D01*
X3120182Y-12962079D02*
X3129705Y-13000174D01*
X3129705Y-13000174D02*
X3129705Y-13047793D01*
X3129705Y-13047793D02*
X3120182Y-13085888D01*
X3120182Y-13085888D02*
X3110658Y-13104936D01*
X3110658Y-13104936D02*
X3101134Y-13114460D01*
X3101134Y-13114460D02*
X3082086Y-13123984D01*
X3082086Y-13123984D02*
X3063039Y-13123984D01*
X3063039Y-13123984D02*
X3043991Y-13114460D01*
X3043991Y-13114460D02*
X3034467Y-13104936D01*
X3034467Y-13104936D02*
X3024943Y-13085888D01*
X3024943Y-13085888D02*
X3015420Y-13047793D01*
X3015420Y-13047793D02*
X3015420Y-13000174D01*
X3015420Y-13000174D02*
X3024943Y-12962079D01*
X3024943Y-12962079D02*
X3034467Y-12943031D01*
X3034467Y-12943031D02*
X3043991Y-12933508D01*
X3043991Y-12933508D02*
X3063039Y-12923984D01*
X3215420Y-13123984D02*
X3215420Y-12990650D01*
X3215420Y-13009698D02*
X3224943Y-13000174D01*
X3224943Y-13000174D02*
X3243991Y-12990650D01*
X3243991Y-12990650D02*
X3272563Y-12990650D01*
X3272563Y-12990650D02*
X3291610Y-13000174D01*
X3291610Y-13000174D02*
X3301134Y-13019222D01*
X3301134Y-13019222D02*
X3301134Y-13123984D01*
X3301134Y-13019222D02*
X3310658Y-13000174D01*
X3310658Y-13000174D02*
X3329705Y-12990650D01*
X3329705Y-12990650D02*
X3358277Y-12990650D01*
X3358277Y-12990650D02*
X3377324Y-13000174D01*
X3377324Y-13000174D02*
X3386848Y-13019222D01*
X3386848Y-13019222D02*
X3386848Y-13123984D01*
X3482086Y-13123984D02*
X3482086Y-12990650D01*
X3482086Y-13009698D02*
X3491610Y-13000174D01*
X3491610Y-13000174D02*
X3510658Y-12990650D01*
X3510658Y-12990650D02*
X3539229Y-12990650D01*
X3539229Y-12990650D02*
X3558277Y-13000174D01*
X3558277Y-13000174D02*
X3567801Y-13019222D01*
X3567801Y-13019222D02*
X3567801Y-13123984D01*
X3567801Y-13019222D02*
X3577324Y-13000174D01*
X3577324Y-13000174D02*
X3596372Y-12990650D01*
X3596372Y-12990650D02*
X3624943Y-12990650D01*
X3624943Y-12990650D02*
X3643991Y-13000174D01*
X3643991Y-13000174D02*
X3653515Y-13019222D01*
X3653515Y-13019222D02*
X3653515Y-13123984D01*
X4043991Y-12914460D02*
X3872563Y-13171603D01*
X4301134Y-12923984D02*
X4320182Y-12923984D01*
X4320182Y-12923984D02*
X4339229Y-12933508D01*
X4339229Y-12933508D02*
X4348753Y-12943031D01*
X4348753Y-12943031D02*
X4358277Y-12962079D01*
X4358277Y-12962079D02*
X4367801Y-13000174D01*
X4367801Y-13000174D02*
X4367801Y-13047793D01*
X4367801Y-13047793D02*
X4358277Y-13085888D01*
X4358277Y-13085888D02*
X4348753Y-13104936D01*
X4348753Y-13104936D02*
X4339229Y-13114460D01*
X4339229Y-13114460D02*
X4320182Y-13123984D01*
X4320182Y-13123984D02*
X4301134Y-13123984D01*
X4301134Y-13123984D02*
X4282087Y-13114460D01*
X4282087Y-13114460D02*
X4272563Y-13104936D01*
X4272563Y-13104936D02*
X4263039Y-13085888D01*
X4263039Y-13085888D02*
X4253515Y-13047793D01*
X4253515Y-13047793D02*
X4253515Y-13000174D01*
X4253515Y-13000174D02*
X4263039Y-12962079D01*
X4263039Y-12962079D02*
X4272563Y-12943031D01*
X4272563Y-12943031D02*
X4282087Y-12933508D01*
X4282087Y-12933508D02*
X4301134Y-12923984D01*
X4453515Y-13104936D02*
X4463039Y-13114460D01*
X4463039Y-13114460D02*
X4453515Y-13123984D01*
X4453515Y-13123984D02*
X4443991Y-13114460D01*
X4443991Y-13114460D02*
X4453515Y-13104936D01*
X4453515Y-13104936D02*
X4453515Y-13123984D01*
X4653515Y-13123984D02*
X4539229Y-13123984D01*
X4596372Y-13123984D02*
X4596372Y-12923984D01*
X4596372Y-12923984D02*
X4577325Y-12952555D01*
X4577325Y-12952555D02*
X4558277Y-12971603D01*
X4558277Y-12971603D02*
X4539229Y-12981127D01*
X4729706Y-12943031D02*
X4739229Y-12933508D01*
X4739229Y-12933508D02*
X4758277Y-12923984D01*
X4758277Y-12923984D02*
X4805896Y-12923984D01*
X4805896Y-12923984D02*
X4824944Y-12933508D01*
X4824944Y-12933508D02*
X4834468Y-12943031D01*
X4834468Y-12943031D02*
X4843991Y-12962079D01*
X4843991Y-12962079D02*
X4843991Y-12981127D01*
X4843991Y-12981127D02*
X4834468Y-13009698D01*
X4834468Y-13009698D02*
X4720182Y-13123984D01*
X4720182Y-13123984D02*
X4843991Y-13123984D01*
X4939229Y-13123984D02*
X4977325Y-13123984D01*
X4977325Y-13123984D02*
X4996372Y-13114460D01*
X4996372Y-13114460D02*
X5005896Y-13104936D01*
X5005896Y-13104936D02*
X5024944Y-13076365D01*
X5024944Y-13076365D02*
X5034468Y-13038269D01*
X5034468Y-13038269D02*
X5034468Y-12962079D01*
X5034468Y-12962079D02*
X5024944Y-12943031D01*
X5024944Y-12943031D02*
X5015420Y-12933508D01*
X5015420Y-12933508D02*
X4996372Y-12923984D01*
X4996372Y-12923984D02*
X4958277Y-12923984D01*
X4958277Y-12923984D02*
X4939229Y-12933508D01*
X4939229Y-12933508D02*
X4929706Y-12943031D01*
X4929706Y-12943031D02*
X4920182Y-12962079D01*
X4920182Y-12962079D02*
X4920182Y-13009698D01*
X4920182Y-13009698D02*
X4929706Y-13028746D01*
X4929706Y-13028746D02*
X4939229Y-13038269D01*
X4939229Y-13038269D02*
X4958277Y-13047793D01*
X4958277Y-13047793D02*
X4996372Y-13047793D01*
X4996372Y-13047793D02*
X5015420Y-13038269D01*
X5015420Y-13038269D02*
X5024944Y-13028746D01*
X5024944Y-13028746D02*
X5034468Y-13009698D01*
X5129706Y-13123984D02*
X5167801Y-13123984D01*
X5167801Y-13123984D02*
X5186849Y-13114460D01*
X5186849Y-13114460D02*
X5196372Y-13104936D01*
X5196372Y-13104936D02*
X5215420Y-13076365D01*
X5215420Y-13076365D02*
X5224944Y-13038269D01*
X5224944Y-13038269D02*
X5224944Y-12962079D01*
X5224944Y-12962079D02*
X5215420Y-12943031D01*
X5215420Y-12943031D02*
X5205896Y-12933508D01*
X5205896Y-12933508D02*
X5186849Y-12923984D01*
X5186849Y-12923984D02*
X5148753Y-12923984D01*
X5148753Y-12923984D02*
X5129706Y-12933508D01*
X5129706Y-12933508D02*
X5120182Y-12943031D01*
X5120182Y-12943031D02*
X5110658Y-12962079D01*
X5110658Y-12962079D02*
X5110658Y-13009698D01*
X5110658Y-13009698D02*
X5120182Y-13028746D01*
X5120182Y-13028746D02*
X5129706Y-13038269D01*
X5129706Y-13038269D02*
X5148753Y-13047793D01*
X5148753Y-13047793D02*
X5186849Y-13047793D01*
X5186849Y-13047793D02*
X5205896Y-13038269D01*
X5205896Y-13038269D02*
X5215420Y-13028746D01*
X5215420Y-13028746D02*
X5224944Y-13009698D01*
X5301134Y-12923984D02*
X5301134Y-12962079D01*
X5377325Y-12923984D02*
X5377325Y-12962079D01*
X5672563Y-13200174D02*
X5663039Y-13190650D01*
X5663039Y-13190650D02*
X5643991Y-13162079D01*
X5643991Y-13162079D02*
X5634468Y-13143031D01*
X5634468Y-13143031D02*
X5624944Y-13114460D01*
X5624944Y-13114460D02*
X5615420Y-13066841D01*
X5615420Y-13066841D02*
X5615420Y-13028746D01*
X5615420Y-13028746D02*
X5624944Y-12981127D01*
X5624944Y-12981127D02*
X5634468Y-12952555D01*
X5634468Y-12952555D02*
X5643991Y-12933508D01*
X5643991Y-12933508D02*
X5663039Y-12904936D01*
X5663039Y-12904936D02*
X5672563Y-12895412D01*
X5777325Y-13009698D02*
X5758277Y-13000174D01*
X5758277Y-13000174D02*
X5748753Y-12990650D01*
X5748753Y-12990650D02*
X5739229Y-12971603D01*
X5739229Y-12971603D02*
X5739229Y-12962079D01*
X5739229Y-12962079D02*
X5748753Y-12943031D01*
X5748753Y-12943031D02*
X5758277Y-12933508D01*
X5758277Y-12933508D02*
X5777325Y-12923984D01*
X5777325Y-12923984D02*
X5815420Y-12923984D01*
X5815420Y-12923984D02*
X5834468Y-12933508D01*
X5834468Y-12933508D02*
X5843991Y-12943031D01*
X5843991Y-12943031D02*
X5853515Y-12962079D01*
X5853515Y-12962079D02*
X5853515Y-12971603D01*
X5853515Y-12971603D02*
X5843991Y-12990650D01*
X5843991Y-12990650D02*
X5834468Y-13000174D01*
X5834468Y-13000174D02*
X5815420Y-13009698D01*
X5815420Y-13009698D02*
X5777325Y-13009698D01*
X5777325Y-13009698D02*
X5758277Y-13019222D01*
X5758277Y-13019222D02*
X5748753Y-13028746D01*
X5748753Y-13028746D02*
X5739229Y-13047793D01*
X5739229Y-13047793D02*
X5739229Y-13085888D01*
X5739229Y-13085888D02*
X5748753Y-13104936D01*
X5748753Y-13104936D02*
X5758277Y-13114460D01*
X5758277Y-13114460D02*
X5777325Y-13123984D01*
X5777325Y-13123984D02*
X5815420Y-13123984D01*
X5815420Y-13123984D02*
X5834468Y-13114460D01*
X5834468Y-13114460D02*
X5843991Y-13104936D01*
X5843991Y-13104936D02*
X5853515Y-13085888D01*
X5853515Y-13085888D02*
X5853515Y-13047793D01*
X5853515Y-13047793D02*
X5843991Y-13028746D01*
X5843991Y-13028746D02*
X5834468Y-13019222D01*
X5834468Y-13019222D02*
X5815420Y-13009698D01*
X6091610Y-13123984D02*
X6091610Y-12923984D01*
X6177325Y-13123984D02*
X6177325Y-13019222D01*
X6177325Y-13019222D02*
X6167801Y-13000174D01*
X6167801Y-13000174D02*
X6148753Y-12990650D01*
X6148753Y-12990650D02*
X6120182Y-12990650D01*
X6120182Y-12990650D02*
X6101134Y-13000174D01*
X6101134Y-13000174D02*
X6091610Y-13009698D01*
X6301134Y-13123984D02*
X6282087Y-13114460D01*
X6282087Y-13114460D02*
X6272563Y-13104936D01*
X6272563Y-13104936D02*
X6263039Y-13085888D01*
X6263039Y-13085888D02*
X6263039Y-13028746D01*
X6263039Y-13028746D02*
X6272563Y-13009698D01*
X6272563Y-13009698D02*
X6282087Y-13000174D01*
X6282087Y-13000174D02*
X6301134Y-12990650D01*
X6301134Y-12990650D02*
X6329706Y-12990650D01*
X6329706Y-12990650D02*
X6348753Y-13000174D01*
X6348753Y-13000174D02*
X6358277Y-13009698D01*
X6358277Y-13009698D02*
X6367801Y-13028746D01*
X6367801Y-13028746D02*
X6367801Y-13085888D01*
X6367801Y-13085888D02*
X6358277Y-13104936D01*
X6358277Y-13104936D02*
X6348753Y-13114460D01*
X6348753Y-13114460D02*
X6329706Y-13123984D01*
X6329706Y-13123984D02*
X6301134Y-13123984D01*
X6482087Y-13123984D02*
X6463039Y-13114460D01*
X6463039Y-13114460D02*
X6453515Y-13095412D01*
X6453515Y-13095412D02*
X6453515Y-12923984D01*
X6634468Y-13114460D02*
X6615420Y-13123984D01*
X6615420Y-13123984D02*
X6577325Y-13123984D01*
X6577325Y-13123984D02*
X6558277Y-13114460D01*
X6558277Y-13114460D02*
X6548753Y-13095412D01*
X6548753Y-13095412D02*
X6548753Y-13019222D01*
X6548753Y-13019222D02*
X6558277Y-13000174D01*
X6558277Y-13000174D02*
X6577325Y-12990650D01*
X6577325Y-12990650D02*
X6615420Y-12990650D01*
X6615420Y-12990650D02*
X6634468Y-13000174D01*
X6634468Y-13000174D02*
X6643991Y-13019222D01*
X6643991Y-13019222D02*
X6643991Y-13038269D01*
X6643991Y-13038269D02*
X6548753Y-13057317D01*
X6720182Y-13114460D02*
X6739230Y-13123984D01*
X6739230Y-13123984D02*
X6777325Y-13123984D01*
X6777325Y-13123984D02*
X6796372Y-13114460D01*
X6796372Y-13114460D02*
X6805896Y-13095412D01*
X6805896Y-13095412D02*
X6805896Y-13085888D01*
X6805896Y-13085888D02*
X6796372Y-13066841D01*
X6796372Y-13066841D02*
X6777325Y-13057317D01*
X6777325Y-13057317D02*
X6748753Y-13057317D01*
X6748753Y-13057317D02*
X6729706Y-13047793D01*
X6729706Y-13047793D02*
X6720182Y-13028746D01*
X6720182Y-13028746D02*
X6720182Y-13019222D01*
X6720182Y-13019222D02*
X6729706Y-13000174D01*
X6729706Y-13000174D02*
X6748753Y-12990650D01*
X6748753Y-12990650D02*
X6777325Y-12990650D01*
X6777325Y-12990650D02*
X6796372Y-13000174D01*
X6872563Y-13200174D02*
X6882087Y-13190650D01*
X6882087Y-13190650D02*
X6901134Y-13162079D01*
X6901134Y-13162079D02*
X6910658Y-13143031D01*
X6910658Y-13143031D02*
X6920182Y-13114460D01*
X6920182Y-13114460D02*
X6929706Y-13066841D01*
X6929706Y-13066841D02*
X6929706Y-13028746D01*
X6929706Y-13028746D02*
X6920182Y-12981127D01*
X6920182Y-12981127D02*
X6910658Y-12952555D01*
X6910658Y-12952555D02*
X6901134Y-12933508D01*
X6901134Y-12933508D02*
X6882087Y-12904936D01*
X6882087Y-12904936D02*
X6872563Y-12895412D01*
X7234468Y-13200174D02*
X7224944Y-13190650D01*
X7224944Y-13190650D02*
X7205896Y-13162079D01*
X7205896Y-13162079D02*
X7196372Y-13143031D01*
X7196372Y-13143031D02*
X7186849Y-13114460D01*
X7186849Y-13114460D02*
X7177325Y-13066841D01*
X7177325Y-13066841D02*
X7177325Y-13028746D01*
X7177325Y-13028746D02*
X7186849Y-12981127D01*
X7186849Y-12981127D02*
X7196372Y-12952555D01*
X7196372Y-12952555D02*
X7205896Y-12933508D01*
X7205896Y-12933508D02*
X7224944Y-12904936D01*
X7224944Y-12904936D02*
X7234468Y-12895412D01*
X7310658Y-12990650D02*
X7310658Y-13123984D01*
X7310658Y-13009698D02*
X7320182Y-13000174D01*
X7320182Y-13000174D02*
X7339230Y-12990650D01*
X7339230Y-12990650D02*
X7367801Y-12990650D01*
X7367801Y-12990650D02*
X7386849Y-13000174D01*
X7386849Y-13000174D02*
X7396372Y-13019222D01*
X7396372Y-13019222D02*
X7396372Y-13123984D01*
X7520182Y-13123984D02*
X7501134Y-13114460D01*
X7501134Y-13114460D02*
X7491611Y-13104936D01*
X7491611Y-13104936D02*
X7482087Y-13085888D01*
X7482087Y-13085888D02*
X7482087Y-13028746D01*
X7482087Y-13028746D02*
X7491611Y-13009698D01*
X7491611Y-13009698D02*
X7501134Y-13000174D01*
X7501134Y-13000174D02*
X7520182Y-12990650D01*
X7520182Y-12990650D02*
X7548753Y-12990650D01*
X7548753Y-12990650D02*
X7567801Y-13000174D01*
X7567801Y-13000174D02*
X7577325Y-13009698D01*
X7577325Y-13009698D02*
X7586849Y-13028746D01*
X7586849Y-13028746D02*
X7586849Y-13085888D01*
X7586849Y-13085888D02*
X7577325Y-13104936D01*
X7577325Y-13104936D02*
X7567801Y-13114460D01*
X7567801Y-13114460D02*
X7548753Y-13123984D01*
X7548753Y-13123984D02*
X7520182Y-13123984D01*
X7643992Y-12990650D02*
X7720182Y-12990650D01*
X7672563Y-12923984D02*
X7672563Y-13095412D01*
X7672563Y-13095412D02*
X7682087Y-13114460D01*
X7682087Y-13114460D02*
X7701134Y-13123984D01*
X7701134Y-13123984D02*
X7720182Y-13123984D01*
X7939230Y-12990650D02*
X7939230Y-13190650D01*
X7939230Y-13000174D02*
X7958277Y-12990650D01*
X7958277Y-12990650D02*
X7996373Y-12990650D01*
X7996373Y-12990650D02*
X8015420Y-13000174D01*
X8015420Y-13000174D02*
X8024944Y-13009698D01*
X8024944Y-13009698D02*
X8034468Y-13028746D01*
X8034468Y-13028746D02*
X8034468Y-13085888D01*
X8034468Y-13085888D02*
X8024944Y-13104936D01*
X8024944Y-13104936D02*
X8015420Y-13114460D01*
X8015420Y-13114460D02*
X7996373Y-13123984D01*
X7996373Y-13123984D02*
X7958277Y-13123984D01*
X7958277Y-13123984D02*
X7939230Y-13114460D01*
X8148753Y-13123984D02*
X8129706Y-13114460D01*
X8129706Y-13114460D02*
X8120182Y-13095412D01*
X8120182Y-13095412D02*
X8120182Y-12923984D01*
X8310658Y-13123984D02*
X8310658Y-13019222D01*
X8310658Y-13019222D02*
X8301134Y-13000174D01*
X8301134Y-13000174D02*
X8282087Y-12990650D01*
X8282087Y-12990650D02*
X8243992Y-12990650D01*
X8243992Y-12990650D02*
X8224944Y-13000174D01*
X8310658Y-13114460D02*
X8291611Y-13123984D01*
X8291611Y-13123984D02*
X8243992Y-13123984D01*
X8243992Y-13123984D02*
X8224944Y-13114460D01*
X8224944Y-13114460D02*
X8215420Y-13095412D01*
X8215420Y-13095412D02*
X8215420Y-13076365D01*
X8215420Y-13076365D02*
X8224944Y-13057317D01*
X8224944Y-13057317D02*
X8243992Y-13047793D01*
X8243992Y-13047793D02*
X8291611Y-13047793D01*
X8291611Y-13047793D02*
X8310658Y-13038269D01*
X8377325Y-12990650D02*
X8453515Y-12990650D01*
X8405896Y-12923984D02*
X8405896Y-13095412D01*
X8405896Y-13095412D02*
X8415420Y-13114460D01*
X8415420Y-13114460D02*
X8434468Y-13123984D01*
X8434468Y-13123984D02*
X8453515Y-13123984D01*
X8596373Y-13114460D02*
X8577325Y-13123984D01*
X8577325Y-13123984D02*
X8539230Y-13123984D01*
X8539230Y-13123984D02*
X8520182Y-13114460D01*
X8520182Y-13114460D02*
X8510658Y-13095412D01*
X8510658Y-13095412D02*
X8510658Y-13019222D01*
X8510658Y-13019222D02*
X8520182Y-13000174D01*
X8520182Y-13000174D02*
X8539230Y-12990650D01*
X8539230Y-12990650D02*
X8577325Y-12990650D01*
X8577325Y-12990650D02*
X8596373Y-13000174D01*
X8596373Y-13000174D02*
X8605896Y-13019222D01*
X8605896Y-13019222D02*
X8605896Y-13038269D01*
X8605896Y-13038269D02*
X8510658Y-13057317D01*
X8777325Y-13123984D02*
X8777325Y-12923984D01*
X8777325Y-13114460D02*
X8758277Y-13123984D01*
X8758277Y-13123984D02*
X8720182Y-13123984D01*
X8720182Y-13123984D02*
X8701135Y-13114460D01*
X8701135Y-13114460D02*
X8691611Y-13104936D01*
X8691611Y-13104936D02*
X8682087Y-13085888D01*
X8682087Y-13085888D02*
X8682087Y-13028746D01*
X8682087Y-13028746D02*
X8691611Y-13009698D01*
X8691611Y-13009698D02*
X8701135Y-13000174D01*
X8701135Y-13000174D02*
X8720182Y-12990650D01*
X8720182Y-12990650D02*
X8758277Y-12990650D01*
X8758277Y-12990650D02*
X8777325Y-13000174D01*
X8853516Y-13200174D02*
X8863039Y-13190650D01*
X8863039Y-13190650D02*
X8882087Y-13162079D01*
X8882087Y-13162079D02*
X8891611Y-13143031D01*
X8891611Y-13143031D02*
X8901135Y-13114460D01*
X8901135Y-13114460D02*
X8910658Y-13066841D01*
X8910658Y-13066841D02*
X8910658Y-13028746D01*
X8910658Y-13028746D02*
X8901135Y-12981127D01*
X8901135Y-12981127D02*
X8891611Y-12952555D01*
X8891611Y-12952555D02*
X8882087Y-12933508D01*
X8882087Y-12933508D02*
X8863039Y-12904936D01*
X8863039Y-12904936D02*
X8853516Y-12895412D01*
X2068211Y-13423211D02*
X2068211Y-13281789D01*
X1926789Y-13281789D01*
X1926789Y-13423211D01*
X2068211Y-13423211D01*
X2339229Y-13243984D02*
X2463039Y-13243984D01*
X2463039Y-13243984D02*
X2396372Y-13320174D01*
X2396372Y-13320174D02*
X2424944Y-13320174D01*
X2424944Y-13320174D02*
X2443991Y-13329698D01*
X2443991Y-13329698D02*
X2453515Y-13339222D01*
X2453515Y-13339222D02*
X2463039Y-13358269D01*
X2463039Y-13358269D02*
X2463039Y-13405888D01*
X2463039Y-13405888D02*
X2453515Y-13424936D01*
X2453515Y-13424936D02*
X2443991Y-13434460D01*
X2443991Y-13434460D02*
X2424944Y-13443984D01*
X2424944Y-13443984D02*
X2367801Y-13443984D01*
X2367801Y-13443984D02*
X2348753Y-13434460D01*
X2348753Y-13434460D02*
X2339229Y-13424936D01*
X2548753Y-13424936D02*
X2558277Y-13434460D01*
X2558277Y-13434460D02*
X2548753Y-13443984D01*
X2548753Y-13443984D02*
X2539229Y-13434460D01*
X2539229Y-13434460D02*
X2548753Y-13424936D01*
X2548753Y-13424936D02*
X2548753Y-13443984D01*
X2624944Y-13243984D02*
X2748753Y-13243984D01*
X2748753Y-13243984D02*
X2682086Y-13320174D01*
X2682086Y-13320174D02*
X2710658Y-13320174D01*
X2710658Y-13320174D02*
X2729705Y-13329698D01*
X2729705Y-13329698D02*
X2739229Y-13339222D01*
X2739229Y-13339222D02*
X2748753Y-13358269D01*
X2748753Y-13358269D02*
X2748753Y-13405888D01*
X2748753Y-13405888D02*
X2739229Y-13424936D01*
X2739229Y-13424936D02*
X2729705Y-13434460D01*
X2729705Y-13434460D02*
X2710658Y-13443984D01*
X2710658Y-13443984D02*
X2653515Y-13443984D01*
X2653515Y-13443984D02*
X2634467Y-13434460D01*
X2634467Y-13434460D02*
X2624944Y-13424936D01*
X2929705Y-13243984D02*
X2834467Y-13243984D01*
X2834467Y-13243984D02*
X2824943Y-13339222D01*
X2824943Y-13339222D02*
X2834467Y-13329698D01*
X2834467Y-13329698D02*
X2853515Y-13320174D01*
X2853515Y-13320174D02*
X2901134Y-13320174D01*
X2901134Y-13320174D02*
X2920182Y-13329698D01*
X2920182Y-13329698D02*
X2929705Y-13339222D01*
X2929705Y-13339222D02*
X2939229Y-13358269D01*
X2939229Y-13358269D02*
X2939229Y-13405888D01*
X2939229Y-13405888D02*
X2929705Y-13424936D01*
X2929705Y-13424936D02*
X2920182Y-13434460D01*
X2920182Y-13434460D02*
X2901134Y-13443984D01*
X2901134Y-13443984D02*
X2853515Y-13443984D01*
X2853515Y-13443984D02*
X2834467Y-13434460D01*
X2834467Y-13434460D02*
X2824943Y-13424936D01*
X3063039Y-13243984D02*
X3082086Y-13243984D01*
X3082086Y-13243984D02*
X3101134Y-13253508D01*
X3101134Y-13253508D02*
X3110658Y-13263031D01*
X3110658Y-13263031D02*
X3120182Y-13282079D01*
X3120182Y-13282079D02*
X3129705Y-13320174D01*
X3129705Y-13320174D02*
X3129705Y-13367793D01*
X3129705Y-13367793D02*
X3120182Y-13405888D01*
X3120182Y-13405888D02*
X3110658Y-13424936D01*
X3110658Y-13424936D02*
X3101134Y-13434460D01*
X3101134Y-13434460D02*
X3082086Y-13443984D01*
X3082086Y-13443984D02*
X3063039Y-13443984D01*
X3063039Y-13443984D02*
X3043991Y-13434460D01*
X3043991Y-13434460D02*
X3034467Y-13424936D01*
X3034467Y-13424936D02*
X3024943Y-13405888D01*
X3024943Y-13405888D02*
X3015420Y-13367793D01*
X3015420Y-13367793D02*
X3015420Y-13320174D01*
X3015420Y-13320174D02*
X3024943Y-13282079D01*
X3024943Y-13282079D02*
X3034467Y-13263031D01*
X3034467Y-13263031D02*
X3043991Y-13253508D01*
X3043991Y-13253508D02*
X3063039Y-13243984D01*
X3215420Y-13443984D02*
X3215420Y-13310650D01*
X3215420Y-13329698D02*
X3224943Y-13320174D01*
X3224943Y-13320174D02*
X3243991Y-13310650D01*
X3243991Y-13310650D02*
X3272563Y-13310650D01*
X3272563Y-13310650D02*
X3291610Y-13320174D01*
X3291610Y-13320174D02*
X3301134Y-13339222D01*
X3301134Y-13339222D02*
X3301134Y-13443984D01*
X3301134Y-13339222D02*
X3310658Y-13320174D01*
X3310658Y-13320174D02*
X3329705Y-13310650D01*
X3329705Y-13310650D02*
X3358277Y-13310650D01*
X3358277Y-13310650D02*
X3377324Y-13320174D01*
X3377324Y-13320174D02*
X3386848Y-13339222D01*
X3386848Y-13339222D02*
X3386848Y-13443984D01*
X3482086Y-13443984D02*
X3482086Y-13310650D01*
X3482086Y-13329698D02*
X3491610Y-13320174D01*
X3491610Y-13320174D02*
X3510658Y-13310650D01*
X3510658Y-13310650D02*
X3539229Y-13310650D01*
X3539229Y-13310650D02*
X3558277Y-13320174D01*
X3558277Y-13320174D02*
X3567801Y-13339222D01*
X3567801Y-13339222D02*
X3567801Y-13443984D01*
X3567801Y-13339222D02*
X3577324Y-13320174D01*
X3577324Y-13320174D02*
X3596372Y-13310650D01*
X3596372Y-13310650D02*
X3624943Y-13310650D01*
X3624943Y-13310650D02*
X3643991Y-13320174D01*
X3643991Y-13320174D02*
X3653515Y-13339222D01*
X3653515Y-13339222D02*
X3653515Y-13443984D01*
X4043991Y-13234460D02*
X3872563Y-13491603D01*
X4301134Y-13243984D02*
X4320182Y-13243984D01*
X4320182Y-13243984D02*
X4339229Y-13253508D01*
X4339229Y-13253508D02*
X4348753Y-13263031D01*
X4348753Y-13263031D02*
X4358277Y-13282079D01*
X4358277Y-13282079D02*
X4367801Y-13320174D01*
X4367801Y-13320174D02*
X4367801Y-13367793D01*
X4367801Y-13367793D02*
X4358277Y-13405888D01*
X4358277Y-13405888D02*
X4348753Y-13424936D01*
X4348753Y-13424936D02*
X4339229Y-13434460D01*
X4339229Y-13434460D02*
X4320182Y-13443984D01*
X4320182Y-13443984D02*
X4301134Y-13443984D01*
X4301134Y-13443984D02*
X4282087Y-13434460D01*
X4282087Y-13434460D02*
X4272563Y-13424936D01*
X4272563Y-13424936D02*
X4263039Y-13405888D01*
X4263039Y-13405888D02*
X4253515Y-13367793D01*
X4253515Y-13367793D02*
X4253515Y-13320174D01*
X4253515Y-13320174D02*
X4263039Y-13282079D01*
X4263039Y-13282079D02*
X4272563Y-13263031D01*
X4272563Y-13263031D02*
X4282087Y-13253508D01*
X4282087Y-13253508D02*
X4301134Y-13243984D01*
X4453515Y-13424936D02*
X4463039Y-13434460D01*
X4463039Y-13434460D02*
X4453515Y-13443984D01*
X4453515Y-13443984D02*
X4443991Y-13434460D01*
X4443991Y-13434460D02*
X4453515Y-13424936D01*
X4453515Y-13424936D02*
X4453515Y-13443984D01*
X4653515Y-13443984D02*
X4539229Y-13443984D01*
X4596372Y-13443984D02*
X4596372Y-13243984D01*
X4596372Y-13243984D02*
X4577325Y-13272555D01*
X4577325Y-13272555D02*
X4558277Y-13291603D01*
X4558277Y-13291603D02*
X4539229Y-13301127D01*
X4720182Y-13243984D02*
X4843991Y-13243984D01*
X4843991Y-13243984D02*
X4777325Y-13320174D01*
X4777325Y-13320174D02*
X4805896Y-13320174D01*
X4805896Y-13320174D02*
X4824944Y-13329698D01*
X4824944Y-13329698D02*
X4834468Y-13339222D01*
X4834468Y-13339222D02*
X4843991Y-13358269D01*
X4843991Y-13358269D02*
X4843991Y-13405888D01*
X4843991Y-13405888D02*
X4834468Y-13424936D01*
X4834468Y-13424936D02*
X4824944Y-13434460D01*
X4824944Y-13434460D02*
X4805896Y-13443984D01*
X4805896Y-13443984D02*
X4748753Y-13443984D01*
X4748753Y-13443984D02*
X4729706Y-13434460D01*
X4729706Y-13434460D02*
X4720182Y-13424936D01*
X5034468Y-13443984D02*
X4920182Y-13443984D01*
X4977325Y-13443984D02*
X4977325Y-13243984D01*
X4977325Y-13243984D02*
X4958277Y-13272555D01*
X4958277Y-13272555D02*
X4939229Y-13291603D01*
X4939229Y-13291603D02*
X4920182Y-13301127D01*
X5129706Y-13443984D02*
X5167801Y-13443984D01*
X5167801Y-13443984D02*
X5186849Y-13434460D01*
X5186849Y-13434460D02*
X5196372Y-13424936D01*
X5196372Y-13424936D02*
X5215420Y-13396365D01*
X5215420Y-13396365D02*
X5224944Y-13358269D01*
X5224944Y-13358269D02*
X5224944Y-13282079D01*
X5224944Y-13282079D02*
X5215420Y-13263031D01*
X5215420Y-13263031D02*
X5205896Y-13253508D01*
X5205896Y-13253508D02*
X5186849Y-13243984D01*
X5186849Y-13243984D02*
X5148753Y-13243984D01*
X5148753Y-13243984D02*
X5129706Y-13253508D01*
X5129706Y-13253508D02*
X5120182Y-13263031D01*
X5120182Y-13263031D02*
X5110658Y-13282079D01*
X5110658Y-13282079D02*
X5110658Y-13329698D01*
X5110658Y-13329698D02*
X5120182Y-13348746D01*
X5120182Y-13348746D02*
X5129706Y-13358269D01*
X5129706Y-13358269D02*
X5148753Y-13367793D01*
X5148753Y-13367793D02*
X5186849Y-13367793D01*
X5186849Y-13367793D02*
X5205896Y-13358269D01*
X5205896Y-13358269D02*
X5215420Y-13348746D01*
X5215420Y-13348746D02*
X5224944Y-13329698D01*
X5301134Y-13243984D02*
X5301134Y-13282079D01*
X5377325Y-13243984D02*
X5377325Y-13282079D01*
X5672563Y-13520174D02*
X5663039Y-13510650D01*
X5663039Y-13510650D02*
X5643991Y-13482079D01*
X5643991Y-13482079D02*
X5634468Y-13463031D01*
X5634468Y-13463031D02*
X5624944Y-13434460D01*
X5624944Y-13434460D02*
X5615420Y-13386841D01*
X5615420Y-13386841D02*
X5615420Y-13348746D01*
X5615420Y-13348746D02*
X5624944Y-13301127D01*
X5624944Y-13301127D02*
X5634468Y-13272555D01*
X5634468Y-13272555D02*
X5643991Y-13253508D01*
X5643991Y-13253508D02*
X5663039Y-13224936D01*
X5663039Y-13224936D02*
X5672563Y-13215412D01*
X5853515Y-13443984D02*
X5739229Y-13443984D01*
X5796372Y-13443984D02*
X5796372Y-13243984D01*
X5796372Y-13243984D02*
X5777325Y-13272555D01*
X5777325Y-13272555D02*
X5758277Y-13291603D01*
X5758277Y-13291603D02*
X5739229Y-13301127D01*
X5929706Y-13263031D02*
X5939229Y-13253508D01*
X5939229Y-13253508D02*
X5958277Y-13243984D01*
X5958277Y-13243984D02*
X6005896Y-13243984D01*
X6005896Y-13243984D02*
X6024944Y-13253508D01*
X6024944Y-13253508D02*
X6034468Y-13263031D01*
X6034468Y-13263031D02*
X6043991Y-13282079D01*
X6043991Y-13282079D02*
X6043991Y-13301127D01*
X6043991Y-13301127D02*
X6034468Y-13329698D01*
X6034468Y-13329698D02*
X5920182Y-13443984D01*
X5920182Y-13443984D02*
X6043991Y-13443984D01*
X6282087Y-13443984D02*
X6282087Y-13243984D01*
X6367801Y-13443984D02*
X6367801Y-13339222D01*
X6367801Y-13339222D02*
X6358277Y-13320174D01*
X6358277Y-13320174D02*
X6339230Y-13310650D01*
X6339230Y-13310650D02*
X6310658Y-13310650D01*
X6310658Y-13310650D02*
X6291610Y-13320174D01*
X6291610Y-13320174D02*
X6282087Y-13329698D01*
X6491610Y-13443984D02*
X6472563Y-13434460D01*
X6472563Y-13434460D02*
X6463039Y-13424936D01*
X6463039Y-13424936D02*
X6453515Y-13405888D01*
X6453515Y-13405888D02*
X6453515Y-13348746D01*
X6453515Y-13348746D02*
X6463039Y-13329698D01*
X6463039Y-13329698D02*
X6472563Y-13320174D01*
X6472563Y-13320174D02*
X6491610Y-13310650D01*
X6491610Y-13310650D02*
X6520182Y-13310650D01*
X6520182Y-13310650D02*
X6539230Y-13320174D01*
X6539230Y-13320174D02*
X6548753Y-13329698D01*
X6548753Y-13329698D02*
X6558277Y-13348746D01*
X6558277Y-13348746D02*
X6558277Y-13405888D01*
X6558277Y-13405888D02*
X6548753Y-13424936D01*
X6548753Y-13424936D02*
X6539230Y-13434460D01*
X6539230Y-13434460D02*
X6520182Y-13443984D01*
X6520182Y-13443984D02*
X6491610Y-13443984D01*
X6672563Y-13443984D02*
X6653515Y-13434460D01*
X6653515Y-13434460D02*
X6643991Y-13415412D01*
X6643991Y-13415412D02*
X6643991Y-13243984D01*
X6824944Y-13434460D02*
X6805896Y-13443984D01*
X6805896Y-13443984D02*
X6767801Y-13443984D01*
X6767801Y-13443984D02*
X6748753Y-13434460D01*
X6748753Y-13434460D02*
X6739230Y-13415412D01*
X6739230Y-13415412D02*
X6739230Y-13339222D01*
X6739230Y-13339222D02*
X6748753Y-13320174D01*
X6748753Y-13320174D02*
X6767801Y-13310650D01*
X6767801Y-13310650D02*
X6805896Y-13310650D01*
X6805896Y-13310650D02*
X6824944Y-13320174D01*
X6824944Y-13320174D02*
X6834468Y-13339222D01*
X6834468Y-13339222D02*
X6834468Y-13358269D01*
X6834468Y-13358269D02*
X6739230Y-13377317D01*
X6910658Y-13434460D02*
X6929706Y-13443984D01*
X6929706Y-13443984D02*
X6967801Y-13443984D01*
X6967801Y-13443984D02*
X6986849Y-13434460D01*
X6986849Y-13434460D02*
X6996372Y-13415412D01*
X6996372Y-13415412D02*
X6996372Y-13405888D01*
X6996372Y-13405888D02*
X6986849Y-13386841D01*
X6986849Y-13386841D02*
X6967801Y-13377317D01*
X6967801Y-13377317D02*
X6939230Y-13377317D01*
X6939230Y-13377317D02*
X6920182Y-13367793D01*
X6920182Y-13367793D02*
X6910658Y-13348746D01*
X6910658Y-13348746D02*
X6910658Y-13339222D01*
X6910658Y-13339222D02*
X6920182Y-13320174D01*
X6920182Y-13320174D02*
X6939230Y-13310650D01*
X6939230Y-13310650D02*
X6967801Y-13310650D01*
X6967801Y-13310650D02*
X6986849Y-13320174D01*
X7063039Y-13520174D02*
X7072563Y-13510650D01*
X7072563Y-13510650D02*
X7091611Y-13482079D01*
X7091611Y-13482079D02*
X7101134Y-13463031D01*
X7101134Y-13463031D02*
X7110658Y-13434460D01*
X7110658Y-13434460D02*
X7120182Y-13386841D01*
X7120182Y-13386841D02*
X7120182Y-13348746D01*
X7120182Y-13348746D02*
X7110658Y-13301127D01*
X7110658Y-13301127D02*
X7101134Y-13272555D01*
X7101134Y-13272555D02*
X7091611Y-13253508D01*
X7091611Y-13253508D02*
X7072563Y-13224936D01*
X7072563Y-13224936D02*
X7063039Y-13215412D01*
X7424944Y-13520174D02*
X7415420Y-13510650D01*
X7415420Y-13510650D02*
X7396372Y-13482079D01*
X7396372Y-13482079D02*
X7386849Y-13463031D01*
X7386849Y-13463031D02*
X7377325Y-13434460D01*
X7377325Y-13434460D02*
X7367801Y-13386841D01*
X7367801Y-13386841D02*
X7367801Y-13348746D01*
X7367801Y-13348746D02*
X7377325Y-13301127D01*
X7377325Y-13301127D02*
X7386849Y-13272555D01*
X7386849Y-13272555D02*
X7396372Y-13253508D01*
X7396372Y-13253508D02*
X7415420Y-13224936D01*
X7415420Y-13224936D02*
X7424944Y-13215412D01*
X7501134Y-13310650D02*
X7501134Y-13443984D01*
X7501134Y-13329698D02*
X7510658Y-13320174D01*
X7510658Y-13320174D02*
X7529706Y-13310650D01*
X7529706Y-13310650D02*
X7558277Y-13310650D01*
X7558277Y-13310650D02*
X7577325Y-13320174D01*
X7577325Y-13320174D02*
X7586849Y-13339222D01*
X7586849Y-13339222D02*
X7586849Y-13443984D01*
X7710658Y-13443984D02*
X7691611Y-13434460D01*
X7691611Y-13434460D02*
X7682087Y-13424936D01*
X7682087Y-13424936D02*
X7672563Y-13405888D01*
X7672563Y-13405888D02*
X7672563Y-13348746D01*
X7672563Y-13348746D02*
X7682087Y-13329698D01*
X7682087Y-13329698D02*
X7691611Y-13320174D01*
X7691611Y-13320174D02*
X7710658Y-13310650D01*
X7710658Y-13310650D02*
X7739230Y-13310650D01*
X7739230Y-13310650D02*
X7758277Y-13320174D01*
X7758277Y-13320174D02*
X7767801Y-13329698D01*
X7767801Y-13329698D02*
X7777325Y-13348746D01*
X7777325Y-13348746D02*
X7777325Y-13405888D01*
X7777325Y-13405888D02*
X7767801Y-13424936D01*
X7767801Y-13424936D02*
X7758277Y-13434460D01*
X7758277Y-13434460D02*
X7739230Y-13443984D01*
X7739230Y-13443984D02*
X7710658Y-13443984D01*
X7834468Y-13310650D02*
X7910658Y-13310650D01*
X7863039Y-13243984D02*
X7863039Y-13415412D01*
X7863039Y-13415412D02*
X7872563Y-13434460D01*
X7872563Y-13434460D02*
X7891611Y-13443984D01*
X7891611Y-13443984D02*
X7910658Y-13443984D01*
X8129706Y-13310650D02*
X8129706Y-13510650D01*
X8129706Y-13320174D02*
X8148753Y-13310650D01*
X8148753Y-13310650D02*
X8186849Y-13310650D01*
X8186849Y-13310650D02*
X8205896Y-13320174D01*
X8205896Y-13320174D02*
X8215420Y-13329698D01*
X8215420Y-13329698D02*
X8224944Y-13348746D01*
X8224944Y-13348746D02*
X8224944Y-13405888D01*
X8224944Y-13405888D02*
X8215420Y-13424936D01*
X8215420Y-13424936D02*
X8205896Y-13434460D01*
X8205896Y-13434460D02*
X8186849Y-13443984D01*
X8186849Y-13443984D02*
X8148753Y-13443984D01*
X8148753Y-13443984D02*
X8129706Y-13434460D01*
X8339230Y-13443984D02*
X8320182Y-13434460D01*
X8320182Y-13434460D02*
X8310658Y-13415412D01*
X8310658Y-13415412D02*
X8310658Y-13243984D01*
X8501135Y-13443984D02*
X8501135Y-13339222D01*
X8501135Y-13339222D02*
X8491611Y-13320174D01*
X8491611Y-13320174D02*
X8472563Y-13310650D01*
X8472563Y-13310650D02*
X8434468Y-13310650D01*
X8434468Y-13310650D02*
X8415420Y-13320174D01*
X8501135Y-13434460D02*
X8482087Y-13443984D01*
X8482087Y-13443984D02*
X8434468Y-13443984D01*
X8434468Y-13443984D02*
X8415420Y-13434460D01*
X8415420Y-13434460D02*
X8405896Y-13415412D01*
X8405896Y-13415412D02*
X8405896Y-13396365D01*
X8405896Y-13396365D02*
X8415420Y-13377317D01*
X8415420Y-13377317D02*
X8434468Y-13367793D01*
X8434468Y-13367793D02*
X8482087Y-13367793D01*
X8482087Y-13367793D02*
X8501135Y-13358269D01*
X8567801Y-13310650D02*
X8643992Y-13310650D01*
X8596373Y-13243984D02*
X8596373Y-13415412D01*
X8596373Y-13415412D02*
X8605896Y-13434460D01*
X8605896Y-13434460D02*
X8624944Y-13443984D01*
X8624944Y-13443984D02*
X8643992Y-13443984D01*
X8786849Y-13434460D02*
X8767801Y-13443984D01*
X8767801Y-13443984D02*
X8729706Y-13443984D01*
X8729706Y-13443984D02*
X8710658Y-13434460D01*
X8710658Y-13434460D02*
X8701135Y-13415412D01*
X8701135Y-13415412D02*
X8701135Y-13339222D01*
X8701135Y-13339222D02*
X8710658Y-13320174D01*
X8710658Y-13320174D02*
X8729706Y-13310650D01*
X8729706Y-13310650D02*
X8767801Y-13310650D01*
X8767801Y-13310650D02*
X8786849Y-13320174D01*
X8786849Y-13320174D02*
X8796373Y-13339222D01*
X8796373Y-13339222D02*
X8796373Y-13358269D01*
X8796373Y-13358269D02*
X8701135Y-13377317D01*
X8967801Y-13443984D02*
X8967801Y-13243984D01*
X8967801Y-13434460D02*
X8948754Y-13443984D01*
X8948754Y-13443984D02*
X8910658Y-13443984D01*
X8910658Y-13443984D02*
X8891611Y-13434460D01*
X8891611Y-13434460D02*
X8882087Y-13424936D01*
X8882087Y-13424936D02*
X8872563Y-13405888D01*
X8872563Y-13405888D02*
X8872563Y-13348746D01*
X8872563Y-13348746D02*
X8882087Y-13329698D01*
X8882087Y-13329698D02*
X8891611Y-13320174D01*
X8891611Y-13320174D02*
X8910658Y-13310650D01*
X8910658Y-13310650D02*
X8948754Y-13310650D01*
X8948754Y-13310650D02*
X8967801Y-13320174D01*
X9043992Y-13520174D02*
X9053516Y-13510650D01*
X9053516Y-13510650D02*
X9072563Y-13482079D01*
X9072563Y-13482079D02*
X9082087Y-13463031D01*
X9082087Y-13463031D02*
X9091611Y-13434460D01*
X9091611Y-13434460D02*
X9101135Y-13386841D01*
X9101135Y-13386841D02*
X9101135Y-13348746D01*
X9101135Y-13348746D02*
X9091611Y-13301127D01*
X9091611Y-13301127D02*
X9082087Y-13272555D01*
X9082087Y-13272555D02*
X9072563Y-13253508D01*
X9072563Y-13253508D02*
X9053516Y-13224936D01*
X9053516Y-13224936D02*
X9043992Y-13215412D01*
M02*
