%TF.GenerationSoftware,KiCad,Pcbnew,10.0.5-10.0.5~ubuntu24.04.1*%
%TF.CreationDate,2026-08-25T10:51:32-04:00*%
%TF.ProjectId,CanTestModule,43616e54-6573-4744-9d6f-64756c652e6b,rev?*%
%TF.SameCoordinates,Original*%
%TF.FileFunction,Copper,L2,Inr*%
%TF.FilePolarity,Positive*%
%FSLAX46Y46*%
G04 Gerber Fmt 4.6, Leading zero omitted, Abs format (unit mm)*
G04 Created by KiCad (PCBNEW 10.0.5-10.0.5~ubuntu24.04.1) date 2026-08-25 10:51:32*
%MOMM*%
%LPD*%
G01*
G04 APERTURE LIST*
%TA.AperFunction,ComponentPad*%
%ADD10C,3.600000*%
%TD*%
%TA.AperFunction,ComponentPad*%
%ADD11C,1.950000*%
%TD*%
%TA.AperFunction,ComponentPad*%
%ADD12R,1.500000X1.500000*%
%TD*%
%TA.AperFunction,ComponentPad*%
%ADD13C,1.500000*%
%TD*%
%TA.AperFunction,ComponentPad*%
%ADD14C,2.400000*%
%TD*%
%TA.AperFunction,ViaPad*%
%ADD15C,0.600000*%
%TD*%
G04 APERTURE END LIST*
D10*
%TO.N,GND*%
%TO.C,H4*%
X119000000Y-62000000D03*
%TD*%
D11*
%TO.N,GND*%
%TO.C,J2*%
X92800000Y-61400000D03*
%TO.N,/24V_in*%
X97800000Y-61400000D03*
%TO.N,GND*%
X102800000Y-61400000D03*
%TO.N,/CANH*%
X107800000Y-61400000D03*
%TO.N,/CANL*%
X112800000Y-61400000D03*
%TD*%
D12*
%TO.N,/CANH*%
%TO.C,J1*%
X103336000Y-46200000D03*
D13*
%TO.N,/CANL*%
X104352000Y-47980000D03*
%TO.N,unconnected-(J1-Pad3)*%
X105368000Y-46200000D03*
%TO.N,unconnected-(J1-Pad4)*%
X106384000Y-47980000D03*
%TO.N,+24V*%
X107400000Y-46200000D03*
%TO.N,GND*%
X108416000Y-47980000D03*
%TO.N,+24V*%
X109432000Y-46200000D03*
%TO.N,GND*%
X110448000Y-47980000D03*
%TO.N,Net-(J1-G_L-)*%
X100036000Y-52800000D03*
%TO.N,+24V*%
X102326000Y-52800000D03*
%TO.N,unconnected-(J1-Y_L--Pad11)*%
X111466000Y-52800000D03*
%TO.N,unconnected-(J1-Y_L+-Pad12)*%
X113756000Y-52800000D03*
%TD*%
D10*
%TO.N,GND*%
%TO.C,H2*%
X84000000Y-41600000D03*
%TD*%
%TO.N,GND*%
%TO.C,H1*%
X119200000Y-41600000D03*
%TD*%
%TO.N,GND*%
%TO.C,H3*%
X84000000Y-62000000D03*
%TD*%
D14*
%TO.N,/24V_in*%
%TO.C,F1*%
X89100000Y-51560000D03*
X92500000Y-51560000D03*
%TO.N,+24V*%
X89100000Y-41640000D03*
X92500000Y-41640000D03*
%TD*%
D15*
%TO.N,GND*%
X120500000Y-64500000D03*
X117500000Y-64500000D03*
X114500000Y-64500000D03*
X111500000Y-64500000D03*
X108500000Y-64500000D03*
X105500000Y-64500000D03*
X102500000Y-64500000D03*
X99500000Y-64500000D03*
X96500000Y-64500000D03*
X93500000Y-64500000D03*
X90500000Y-64500000D03*
X87500000Y-64500000D03*
X122000000Y-61500000D03*
X116000000Y-61500000D03*
X110000000Y-61500000D03*
X101000000Y-61500000D03*
X95000000Y-61500000D03*
X89000000Y-61500000D03*
X120500000Y-58500000D03*
X117500000Y-58500000D03*
X114500000Y-58500000D03*
X111500000Y-58500000D03*
X108500000Y-58500000D03*
X105500000Y-58500000D03*
X102500000Y-58500000D03*
X99500000Y-58500000D03*
X96500000Y-58500000D03*
X93500000Y-58500000D03*
X90500000Y-58500000D03*
X87500000Y-58500000D03*
X84500000Y-58500000D03*
X81500000Y-58500000D03*
X122000000Y-55500000D03*
X119000000Y-55500000D03*
X116000000Y-55500000D03*
X113000000Y-55500000D03*
X107000000Y-55500000D03*
X104000000Y-55500000D03*
X101000000Y-55500000D03*
X98000000Y-55500000D03*
X95000000Y-55500000D03*
X92000000Y-55500000D03*
X89000000Y-55500000D03*
X86000000Y-55500000D03*
X83000000Y-55500000D03*
X120500000Y-52500000D03*
X117500000Y-52500000D03*
X108500000Y-52500000D03*
X87500000Y-52500000D03*
X84500000Y-52500000D03*
X81500000Y-52500000D03*
X122000000Y-49500000D03*
X119000000Y-49500000D03*
X116000000Y-49500000D03*
X113000000Y-49500000D03*
X110000000Y-49500000D03*
X107000000Y-49500000D03*
X101000000Y-49500000D03*
X98000000Y-49500000D03*
X95000000Y-49500000D03*
X92000000Y-49500000D03*
X89000000Y-49500000D03*
X86000000Y-49500000D03*
X83000000Y-49500000D03*
X120500000Y-46500000D03*
X117500000Y-46500000D03*
X114500000Y-46500000D03*
X111500000Y-46500000D03*
X99500000Y-46500000D03*
X96500000Y-46500000D03*
X93500000Y-46500000D03*
X90500000Y-46500000D03*
X87500000Y-46500000D03*
X84500000Y-46500000D03*
X81500000Y-46500000D03*
X122000000Y-43500000D03*
X116000000Y-43500000D03*
X110000000Y-43500000D03*
X107000000Y-43500000D03*
X104000000Y-43500000D03*
X98000000Y-43500000D03*
X95000000Y-43500000D03*
X92000000Y-43500000D03*
X89000000Y-43500000D03*
X114500000Y-40500000D03*
X111500000Y-40500000D03*
X108500000Y-40500000D03*
X105500000Y-40500000D03*
X102500000Y-40500000D03*
X99500000Y-40500000D03*
X96500000Y-40500000D03*
X90500000Y-40500000D03*
X87500000Y-40500000D03*
%TD*%
%TA.AperFunction,Conductor*%
%TO.N,GND*%
G36*
X118162035Y-37735977D02*
G01*
X118162590Y-37736034D01*
X118174584Y-37736034D01*
X118211772Y-37736034D01*
X118217181Y-37736152D01*
X118627383Y-37754062D01*
X118638120Y-37755002D01*
X119042523Y-37808242D01*
X119053161Y-37810117D01*
X119451391Y-37898403D01*
X119461831Y-37901201D01*
X119850829Y-38023851D01*
X119860990Y-38027549D01*
X120237829Y-38183642D01*
X120247621Y-38188208D01*
X120609431Y-38376554D01*
X120618771Y-38381947D01*
X120848325Y-38528189D01*
X120962775Y-38601102D01*
X120971636Y-38607306D01*
X121295232Y-38855610D01*
X121303519Y-38862564D01*
X121604233Y-39138117D01*
X121611882Y-39145766D01*
X121887435Y-39446480D01*
X121894389Y-39454767D01*
X122142693Y-39778363D01*
X122148897Y-39787224D01*
X122348317Y-40100250D01*
X122368044Y-40131214D01*
X122373453Y-40140582D01*
X122561788Y-40502372D01*
X122566360Y-40512176D01*
X122722449Y-40889007D01*
X122726149Y-40899173D01*
X122848797Y-41288164D01*
X122851597Y-41298612D01*
X122939880Y-41696830D01*
X122941758Y-41707484D01*
X122994995Y-42111860D01*
X122995938Y-42122636D01*
X123012296Y-42497297D01*
X123013848Y-42532831D01*
X123013966Y-42538240D01*
X123013966Y-60997292D01*
X123013848Y-61002701D01*
X122995937Y-61412894D01*
X122994994Y-61423671D01*
X122941754Y-61828049D01*
X122939876Y-61838702D01*
X122851593Y-62236915D01*
X122848793Y-62247364D01*
X122726142Y-62636360D01*
X122722442Y-62646525D01*
X122566354Y-63023352D01*
X122561782Y-63033156D01*
X122373446Y-63394945D01*
X122368037Y-63404313D01*
X122148890Y-63748303D01*
X122142686Y-63757164D01*
X121894382Y-64080760D01*
X121887428Y-64089047D01*
X121611875Y-64389760D01*
X121604226Y-64397409D01*
X121303513Y-64672962D01*
X121295226Y-64679916D01*
X120971630Y-64928220D01*
X120962769Y-64934424D01*
X120618779Y-65153571D01*
X120609411Y-65158980D01*
X120247622Y-65347316D01*
X120237818Y-65351888D01*
X119860991Y-65507976D01*
X119850826Y-65511676D01*
X119461830Y-65634327D01*
X119451381Y-65637127D01*
X119053168Y-65725410D01*
X119042515Y-65727288D01*
X118638137Y-65780528D01*
X118627360Y-65781471D01*
X118217167Y-65799382D01*
X118211758Y-65799500D01*
X85002706Y-65799500D01*
X84997297Y-65799382D01*
X84587102Y-65781472D01*
X84576326Y-65780529D01*
X84171950Y-65727292D01*
X84161296Y-65725414D01*
X83763078Y-65637131D01*
X83752630Y-65634331D01*
X83363639Y-65511683D01*
X83353473Y-65507983D01*
X82976642Y-65351894D01*
X82966838Y-65347322D01*
X82847126Y-65285004D01*
X82605042Y-65158983D01*
X82595686Y-65153582D01*
X82423685Y-65044004D01*
X82251690Y-64934431D01*
X82242829Y-64928227D01*
X81919233Y-64679923D01*
X81910946Y-64672969D01*
X81610232Y-64397416D01*
X81602583Y-64389767D01*
X81327030Y-64089053D01*
X81320076Y-64080766D01*
X81071772Y-63757170D01*
X81065568Y-63748309D01*
X81012067Y-63664329D01*
X80846413Y-63404305D01*
X80841020Y-63394965D01*
X80652674Y-63033155D01*
X80648105Y-63023357D01*
X80586860Y-62875500D01*
X80492015Y-62646524D01*
X80488321Y-62636378D01*
X80365667Y-62247364D01*
X80362868Y-62236921D01*
X80362867Y-62236915D01*
X80274583Y-61838695D01*
X80272707Y-61828049D01*
X80270904Y-61814351D01*
X80219468Y-61423654D01*
X80218528Y-61412917D01*
X80212896Y-61283909D01*
X91325000Y-61283909D01*
X91325000Y-61516090D01*
X91361318Y-61745393D01*
X91433065Y-61966205D01*
X91538465Y-62173064D01*
X91595238Y-62251207D01*
X92198958Y-61647487D01*
X92223978Y-61707890D01*
X92295112Y-61814351D01*
X92385649Y-61904888D01*
X92492110Y-61976022D01*
X92552510Y-62001041D01*
X91948791Y-62604759D01*
X91948791Y-62604760D01*
X92026935Y-62661534D01*
X92233794Y-62766934D01*
X92454606Y-62838681D01*
X92683910Y-62875000D01*
X92916090Y-62875000D01*
X93145393Y-62838681D01*
X93366205Y-62766934D01*
X93573071Y-62661530D01*
X93651207Y-62604762D01*
X93651208Y-62604760D01*
X93047488Y-62001041D01*
X93107890Y-61976022D01*
X93214351Y-61904888D01*
X93304888Y-61814351D01*
X93376022Y-61707890D01*
X93401041Y-61647488D01*
X94004760Y-62251208D01*
X94004762Y-62251207D01*
X94061530Y-62173071D01*
X94166934Y-61966205D01*
X94238681Y-61745393D01*
X94275000Y-61516090D01*
X94275000Y-61283909D01*
X94274994Y-61283870D01*
X96324500Y-61283870D01*
X96324500Y-61516129D01*
X96360831Y-61745514D01*
X96432601Y-61966400D01*
X96537903Y-62173064D01*
X96538039Y-62173331D01*
X96674551Y-62361224D01*
X96838776Y-62525449D01*
X97026669Y-62661961D01*
X97124436Y-62711776D01*
X97233599Y-62767398D01*
X97233601Y-62767398D01*
X97233604Y-62767400D01*
X97454486Y-62839169D01*
X97572668Y-62857886D01*
X97683871Y-62875500D01*
X97683876Y-62875500D01*
X97916129Y-62875500D01*
X98017502Y-62859443D01*
X98145514Y-62839169D01*
X98366396Y-62767400D01*
X98573331Y-62661961D01*
X98761224Y-62525449D01*
X98925449Y-62361224D01*
X99061961Y-62173331D01*
X99167400Y-61966396D01*
X99239169Y-61745514D01*
X99263863Y-61589598D01*
X99275500Y-61516129D01*
X99275500Y-61283909D01*
X101325000Y-61283909D01*
X101325000Y-61516090D01*
X101361318Y-61745393D01*
X101433065Y-61966205D01*
X101538465Y-62173064D01*
X101595238Y-62251207D01*
X102198958Y-61647487D01*
X102223978Y-61707890D01*
X102295112Y-61814351D01*
X102385649Y-61904888D01*
X102492110Y-61976022D01*
X102552510Y-62001041D01*
X101948791Y-62604759D01*
X101948791Y-62604760D01*
X102026935Y-62661534D01*
X102233794Y-62766934D01*
X102454606Y-62838681D01*
X102683910Y-62875000D01*
X102916090Y-62875000D01*
X103145393Y-62838681D01*
X103366205Y-62766934D01*
X103573071Y-62661530D01*
X103651207Y-62604762D01*
X103651208Y-62604760D01*
X103047488Y-62001041D01*
X103107890Y-61976022D01*
X103214351Y-61904888D01*
X103304888Y-61814351D01*
X103376022Y-61707890D01*
X103401041Y-61647488D01*
X104004760Y-62251208D01*
X104004762Y-62251207D01*
X104061530Y-62173071D01*
X104166934Y-61966205D01*
X104238681Y-61745393D01*
X104275000Y-61516090D01*
X104275000Y-61283909D01*
X104274994Y-61283870D01*
X106324500Y-61283870D01*
X106324500Y-61516129D01*
X106360831Y-61745514D01*
X106432601Y-61966400D01*
X106537903Y-62173064D01*
X106538039Y-62173331D01*
X106674551Y-62361224D01*
X106838776Y-62525449D01*
X107026669Y-62661961D01*
X107124436Y-62711776D01*
X107233599Y-62767398D01*
X107233601Y-62767398D01*
X107233604Y-62767400D01*
X107454486Y-62839169D01*
X107572668Y-62857886D01*
X107683871Y-62875500D01*
X107683876Y-62875500D01*
X107916129Y-62875500D01*
X108017502Y-62859443D01*
X108145514Y-62839169D01*
X108366396Y-62767400D01*
X108573331Y-62661961D01*
X108761224Y-62525449D01*
X108925449Y-62361224D01*
X109061961Y-62173331D01*
X109167400Y-61966396D01*
X109239169Y-61745514D01*
X109263863Y-61589598D01*
X109275500Y-61516129D01*
X109275500Y-61283870D01*
X111324500Y-61283870D01*
X111324500Y-61516129D01*
X111360831Y-61745514D01*
X111432601Y-61966400D01*
X111537903Y-62173064D01*
X111538039Y-62173331D01*
X111674551Y-62361224D01*
X111838776Y-62525449D01*
X112026669Y-62661961D01*
X112124436Y-62711776D01*
X112233599Y-62767398D01*
X112233601Y-62767398D01*
X112233604Y-62767400D01*
X112454486Y-62839169D01*
X112572668Y-62857886D01*
X112683871Y-62875500D01*
X112683876Y-62875500D01*
X112916129Y-62875500D01*
X113017502Y-62859443D01*
X113145514Y-62839169D01*
X113366396Y-62767400D01*
X113573331Y-62661961D01*
X113761224Y-62525449D01*
X113925449Y-62361224D01*
X114061961Y-62173331D01*
X114167400Y-61966396D01*
X114239169Y-61745514D01*
X114263863Y-61589598D01*
X114275500Y-61516129D01*
X114275500Y-61283870D01*
X114256232Y-61162222D01*
X114239169Y-61054486D01*
X114167400Y-60833604D01*
X114167398Y-60833601D01*
X114167398Y-60833599D01*
X114111776Y-60724436D01*
X114061961Y-60626669D01*
X113925449Y-60438776D01*
X113761224Y-60274551D01*
X113573331Y-60138039D01*
X113366400Y-60032601D01*
X113145514Y-59960831D01*
X112916129Y-59924500D01*
X112916124Y-59924500D01*
X112683876Y-59924500D01*
X112683871Y-59924500D01*
X112454485Y-59960831D01*
X112233599Y-60032601D01*
X112026668Y-60138039D01*
X111838773Y-60274553D01*
X111674553Y-60438773D01*
X111538039Y-60626668D01*
X111432601Y-60833599D01*
X111360831Y-61054485D01*
X111324500Y-61283870D01*
X109275500Y-61283870D01*
X109256232Y-61162222D01*
X109239169Y-61054486D01*
X109167400Y-60833604D01*
X109167398Y-60833601D01*
X109167398Y-60833599D01*
X109111776Y-60724436D01*
X109061961Y-60626669D01*
X108925449Y-60438776D01*
X108761224Y-60274551D01*
X108573331Y-60138039D01*
X108366400Y-60032601D01*
X108145514Y-59960831D01*
X107916129Y-59924500D01*
X107916124Y-59924500D01*
X107683876Y-59924500D01*
X107683871Y-59924500D01*
X107454485Y-59960831D01*
X107233599Y-60032601D01*
X107026668Y-60138039D01*
X106838773Y-60274553D01*
X106674553Y-60438773D01*
X106538039Y-60626668D01*
X106432601Y-60833599D01*
X106360831Y-61054485D01*
X106324500Y-61283870D01*
X104274994Y-61283870D01*
X104238681Y-61054606D01*
X104166934Y-60833794D01*
X104061534Y-60626935D01*
X104004760Y-60548791D01*
X104004759Y-60548791D01*
X103401041Y-61152510D01*
X103376022Y-61092110D01*
X103304888Y-60985649D01*
X103214351Y-60895112D01*
X103107890Y-60823978D01*
X103047487Y-60798957D01*
X103651207Y-60195238D01*
X103573064Y-60138465D01*
X103366205Y-60033065D01*
X103145393Y-59961318D01*
X102916090Y-59925000D01*
X102683910Y-59925000D01*
X102454606Y-59961318D01*
X102233794Y-60033065D01*
X102026925Y-60138470D01*
X101948791Y-60195237D01*
X101948791Y-60195238D01*
X102552511Y-60798958D01*
X102492110Y-60823978D01*
X102385649Y-60895112D01*
X102295112Y-60985649D01*
X102223978Y-61092110D01*
X102198958Y-61152511D01*
X101595238Y-60548791D01*
X101595237Y-60548791D01*
X101538470Y-60626925D01*
X101433065Y-60833794D01*
X101361318Y-61054606D01*
X101325000Y-61283909D01*
X99275500Y-61283909D01*
X99275500Y-61283870D01*
X99256232Y-61162222D01*
X99239169Y-61054486D01*
X99167400Y-60833604D01*
X99167398Y-60833601D01*
X99167398Y-60833599D01*
X99111776Y-60724436D01*
X99061961Y-60626669D01*
X98925449Y-60438776D01*
X98761224Y-60274551D01*
X98573331Y-60138039D01*
X98366400Y-60032601D01*
X98145514Y-59960831D01*
X97916129Y-59924500D01*
X97916124Y-59924500D01*
X97683876Y-59924500D01*
X97683871Y-59924500D01*
X97454485Y-59960831D01*
X97233599Y-60032601D01*
X97026668Y-60138039D01*
X96838773Y-60274553D01*
X96674553Y-60438773D01*
X96538039Y-60626668D01*
X96432601Y-60833599D01*
X96360831Y-61054485D01*
X96324500Y-61283870D01*
X94274994Y-61283870D01*
X94238681Y-61054606D01*
X94166934Y-60833794D01*
X94061534Y-60626935D01*
X94004760Y-60548791D01*
X94004759Y-60548791D01*
X93401041Y-61152510D01*
X93376022Y-61092110D01*
X93304888Y-60985649D01*
X93214351Y-60895112D01*
X93107890Y-60823978D01*
X93047487Y-60798957D01*
X93651207Y-60195238D01*
X93573064Y-60138465D01*
X93366205Y-60033065D01*
X93145393Y-59961318D01*
X92916090Y-59925000D01*
X92683910Y-59925000D01*
X92454606Y-59961318D01*
X92233794Y-60033065D01*
X92026925Y-60138470D01*
X91948791Y-60195237D01*
X91948791Y-60195238D01*
X92552511Y-60798958D01*
X92492110Y-60823978D01*
X92385649Y-60895112D01*
X92295112Y-60985649D01*
X92223978Y-61092110D01*
X92198958Y-61152511D01*
X91595238Y-60548791D01*
X91595237Y-60548791D01*
X91538470Y-60626925D01*
X91433065Y-60833794D01*
X91361318Y-61054606D01*
X91325000Y-61283909D01*
X80212896Y-61283909D01*
X80200618Y-61002701D01*
X80200500Y-60997293D01*
X80200500Y-51448549D01*
X87399500Y-51448549D01*
X87399500Y-51671450D01*
X87399501Y-51671466D01*
X87428594Y-51892452D01*
X87428595Y-51892457D01*
X87428596Y-51892463D01*
X87453486Y-51985354D01*
X87486290Y-52107780D01*
X87486293Y-52107790D01*
X87514561Y-52176034D01*
X87571595Y-52313726D01*
X87683052Y-52506774D01*
X87683057Y-52506780D01*
X87683058Y-52506782D01*
X87818751Y-52683622D01*
X87818757Y-52683629D01*
X87976370Y-52841242D01*
X87976376Y-52841247D01*
X88153226Y-52976948D01*
X88346274Y-53088405D01*
X88552219Y-53173710D01*
X88767537Y-53231404D01*
X88988543Y-53260500D01*
X88988550Y-53260500D01*
X89211450Y-53260500D01*
X89211457Y-53260500D01*
X89432463Y-53231404D01*
X89647781Y-53173710D01*
X89853726Y-53088405D01*
X90046774Y-52976948D01*
X90223624Y-52841247D01*
X90381247Y-52683624D01*
X90516948Y-52506774D01*
X90628405Y-52313726D01*
X90685439Y-52176034D01*
X90729280Y-52121631D01*
X90795574Y-52099566D01*
X90863273Y-52116845D01*
X90910884Y-52167982D01*
X90914561Y-52176034D01*
X90971595Y-52313726D01*
X91083052Y-52506774D01*
X91083057Y-52506780D01*
X91083058Y-52506782D01*
X91218751Y-52683622D01*
X91218757Y-52683629D01*
X91376370Y-52841242D01*
X91376376Y-52841247D01*
X91553226Y-52976948D01*
X91746274Y-53088405D01*
X91952219Y-53173710D01*
X92167537Y-53231404D01*
X92388543Y-53260500D01*
X92388550Y-53260500D01*
X92611450Y-53260500D01*
X92611457Y-53260500D01*
X92832463Y-53231404D01*
X93047781Y-53173710D01*
X93253726Y-53088405D01*
X93446774Y-52976948D01*
X93623624Y-52841247D01*
X93763294Y-52701577D01*
X98785500Y-52701577D01*
X98785500Y-52898422D01*
X98816290Y-53092826D01*
X98877117Y-53280029D01*
X98959112Y-53440952D01*
X98966476Y-53455405D01*
X99082172Y-53614646D01*
X99221354Y-53753828D01*
X99380595Y-53869524D01*
X99463455Y-53911743D01*
X99555970Y-53958882D01*
X99555972Y-53958882D01*
X99555975Y-53958884D01*
X99656317Y-53991487D01*
X99743173Y-54019709D01*
X99937578Y-54050500D01*
X99937583Y-54050500D01*
X100134422Y-54050500D01*
X100328826Y-54019709D01*
X100516025Y-53958884D01*
X100691405Y-53869524D01*
X100850646Y-53753828D01*
X100989828Y-53614646D01*
X101080683Y-53489594D01*
X101136012Y-53446931D01*
X101205626Y-53440952D01*
X101267421Y-53473558D01*
X101281313Y-53489591D01*
X101372172Y-53614646D01*
X101511354Y-53753828D01*
X101670595Y-53869524D01*
X101753455Y-53911743D01*
X101845970Y-53958882D01*
X101845972Y-53958882D01*
X101845975Y-53958884D01*
X101946317Y-53991487D01*
X102033173Y-54019709D01*
X102227578Y-54050500D01*
X102227583Y-54050500D01*
X102424422Y-54050500D01*
X102618826Y-54019709D01*
X102806025Y-53958884D01*
X102981405Y-53869524D01*
X103140646Y-53753828D01*
X103279828Y-53614646D01*
X103395524Y-53455405D01*
X103484884Y-53280025D01*
X103545709Y-53092826D01*
X103546409Y-53088404D01*
X103576500Y-52898422D01*
X103576500Y-52701577D01*
X110215500Y-52701577D01*
X110215500Y-52898422D01*
X110246290Y-53092826D01*
X110307117Y-53280029D01*
X110389112Y-53440952D01*
X110396476Y-53455405D01*
X110512172Y-53614646D01*
X110651354Y-53753828D01*
X110810595Y-53869524D01*
X110893455Y-53911743D01*
X110985970Y-53958882D01*
X110985972Y-53958882D01*
X110985975Y-53958884D01*
X111086317Y-53991487D01*
X111173173Y-54019709D01*
X111367578Y-54050500D01*
X111367583Y-54050500D01*
X111564422Y-54050500D01*
X111758826Y-54019709D01*
X111946025Y-53958884D01*
X112121405Y-53869524D01*
X112280646Y-53753828D01*
X112419828Y-53614646D01*
X112510683Y-53489594D01*
X112566012Y-53446931D01*
X112635626Y-53440952D01*
X112697421Y-53473558D01*
X112711313Y-53489591D01*
X112802172Y-53614646D01*
X112941354Y-53753828D01*
X113100595Y-53869524D01*
X113183455Y-53911743D01*
X113275970Y-53958882D01*
X113275972Y-53958882D01*
X113275975Y-53958884D01*
X113376317Y-53991487D01*
X113463173Y-54019709D01*
X113657578Y-54050500D01*
X113657583Y-54050500D01*
X113854422Y-54050500D01*
X114048826Y-54019709D01*
X114236025Y-53958884D01*
X114411405Y-53869524D01*
X114570646Y-53753828D01*
X114709828Y-53614646D01*
X114825524Y-53455405D01*
X114914884Y-53280025D01*
X114975709Y-53092826D01*
X114976409Y-53088404D01*
X115006500Y-52898422D01*
X115006500Y-52701577D01*
X114975709Y-52507173D01*
X114914882Y-52319970D01*
X114837440Y-52167982D01*
X114825524Y-52144595D01*
X114709828Y-51985354D01*
X114570646Y-51846172D01*
X114411405Y-51730476D01*
X114236029Y-51641117D01*
X114048826Y-51580290D01*
X113854422Y-51549500D01*
X113854417Y-51549500D01*
X113657583Y-51549500D01*
X113657578Y-51549500D01*
X113463173Y-51580290D01*
X113275970Y-51641117D01*
X113100594Y-51730476D01*
X113009741Y-51796485D01*
X112941354Y-51846172D01*
X112941352Y-51846174D01*
X112941351Y-51846174D01*
X112802173Y-51985352D01*
X112711318Y-52110403D01*
X112655987Y-52153068D01*
X112586374Y-52159047D01*
X112524579Y-52126441D01*
X112510682Y-52110403D01*
X112499111Y-52094477D01*
X112419828Y-51985354D01*
X112280646Y-51846172D01*
X112121405Y-51730476D01*
X111946029Y-51641117D01*
X111758826Y-51580290D01*
X111564422Y-51549500D01*
X111564417Y-51549500D01*
X111367583Y-51549500D01*
X111367578Y-51549500D01*
X111173173Y-51580290D01*
X110985970Y-51641117D01*
X110810594Y-51730476D01*
X110719741Y-51796485D01*
X110651354Y-51846172D01*
X110651352Y-51846174D01*
X110651351Y-51846174D01*
X110512174Y-51985351D01*
X110512174Y-51985352D01*
X110512172Y-51985354D01*
X110462485Y-52053741D01*
X110396476Y-52144594D01*
X110307117Y-52319970D01*
X110246290Y-52507173D01*
X110215500Y-52701577D01*
X103576500Y-52701577D01*
X103545709Y-52507173D01*
X103484882Y-52319970D01*
X103407440Y-52167982D01*
X103395524Y-52144595D01*
X103279828Y-51985354D01*
X103140646Y-51846172D01*
X102981405Y-51730476D01*
X102806029Y-51641117D01*
X102618826Y-51580290D01*
X102424422Y-51549500D01*
X102424417Y-51549500D01*
X102227583Y-51549500D01*
X102227578Y-51549500D01*
X102033173Y-51580290D01*
X101845970Y-51641117D01*
X101670594Y-51730476D01*
X101579741Y-51796485D01*
X101511354Y-51846172D01*
X101511352Y-51846174D01*
X101511351Y-51846174D01*
X101372173Y-51985352D01*
X101281318Y-52110403D01*
X101225987Y-52153068D01*
X101156374Y-52159047D01*
X101094579Y-52126441D01*
X101080682Y-52110403D01*
X101069111Y-52094477D01*
X100989828Y-51985354D01*
X100850646Y-51846172D01*
X100691405Y-51730476D01*
X100516029Y-51641117D01*
X100328826Y-51580290D01*
X100134422Y-51549500D01*
X100134417Y-51549500D01*
X99937583Y-51549500D01*
X99937578Y-51549500D01*
X99743173Y-51580290D01*
X99555970Y-51641117D01*
X99380594Y-51730476D01*
X99289741Y-51796485D01*
X99221354Y-51846172D01*
X99221352Y-51846174D01*
X99221351Y-51846174D01*
X99082174Y-51985351D01*
X99082174Y-51985352D01*
X99082172Y-51985354D01*
X99032485Y-52053741D01*
X98966476Y-52144594D01*
X98877117Y-52319970D01*
X98816290Y-52507173D01*
X98785500Y-52701577D01*
X93763294Y-52701577D01*
X93781247Y-52683624D01*
X93799901Y-52659313D01*
X93829128Y-52621225D01*
X93916941Y-52506783D01*
X93916942Y-52506782D01*
X93916948Y-52506774D01*
X94028405Y-52313726D01*
X94113710Y-52107781D01*
X94171404Y-51892463D01*
X94200500Y-51671457D01*
X94200500Y-51448543D01*
X94171404Y-51227537D01*
X94113710Y-51012219D01*
X94028405Y-50806274D01*
X93916948Y-50613226D01*
X93781247Y-50436376D01*
X93781242Y-50436370D01*
X93623629Y-50278757D01*
X93623622Y-50278751D01*
X93446782Y-50143058D01*
X93446780Y-50143057D01*
X93446774Y-50143052D01*
X93253726Y-50031595D01*
X93253722Y-50031593D01*
X93047790Y-49946293D01*
X93047783Y-49946291D01*
X93047781Y-49946290D01*
X92832463Y-49888596D01*
X92832457Y-49888595D01*
X92832452Y-49888594D01*
X92611466Y-49859501D01*
X92611463Y-49859500D01*
X92611457Y-49859500D01*
X92388543Y-49859500D01*
X92388537Y-49859500D01*
X92388533Y-49859501D01*
X92167547Y-49888594D01*
X92167540Y-49888595D01*
X92167537Y-49888596D01*
X91952219Y-49946290D01*
X91952209Y-49946293D01*
X91746277Y-50031593D01*
X91746273Y-50031595D01*
X91553226Y-50143052D01*
X91553217Y-50143058D01*
X91376377Y-50278751D01*
X91376370Y-50278757D01*
X91218757Y-50436370D01*
X91218751Y-50436377D01*
X91083058Y-50613217D01*
X91083052Y-50613226D01*
X90971595Y-50806273D01*
X90971593Y-50806277D01*
X90914561Y-50943965D01*
X90870720Y-50998368D01*
X90804426Y-51020433D01*
X90736726Y-51003154D01*
X90689116Y-50952016D01*
X90685439Y-50943965D01*
X90628406Y-50806277D01*
X90628405Y-50806274D01*
X90516948Y-50613226D01*
X90381247Y-50436376D01*
X90381242Y-50436370D01*
X90223629Y-50278757D01*
X90223622Y-50278751D01*
X90046782Y-50143058D01*
X90046780Y-50143057D01*
X90046774Y-50143052D01*
X89853726Y-50031595D01*
X89853722Y-50031593D01*
X89647790Y-49946293D01*
X89647783Y-49946291D01*
X89647781Y-49946290D01*
X89432463Y-49888596D01*
X89432457Y-49888595D01*
X89432452Y-49888594D01*
X89211466Y-49859501D01*
X89211463Y-49859500D01*
X89211457Y-49859500D01*
X88988543Y-49859500D01*
X88988537Y-49859500D01*
X88988533Y-49859501D01*
X88767547Y-49888594D01*
X88767540Y-49888595D01*
X88767537Y-49888596D01*
X88552219Y-49946290D01*
X88552209Y-49946293D01*
X88346277Y-50031593D01*
X88346273Y-50031595D01*
X88153226Y-50143052D01*
X88153217Y-50143058D01*
X87976377Y-50278751D01*
X87976370Y-50278757D01*
X87818757Y-50436370D01*
X87818751Y-50436377D01*
X87683058Y-50613217D01*
X87683052Y-50613226D01*
X87571595Y-50806273D01*
X87571593Y-50806277D01*
X87486293Y-51012209D01*
X87486290Y-51012219D01*
X87428597Y-51227534D01*
X87428594Y-51227547D01*
X87399501Y-51448533D01*
X87399500Y-51448549D01*
X80200500Y-51448549D01*
X80200500Y-43540356D01*
X98720500Y-43540356D01*
X98720500Y-43779643D01*
X98720501Y-43779659D01*
X98751734Y-44016900D01*
X98813669Y-44248045D01*
X98905243Y-44469123D01*
X98905251Y-44469140D01*
X99024891Y-44676365D01*
X99024892Y-44676367D01*
X99170569Y-44866216D01*
X99170575Y-44866223D01*
X99339776Y-45035424D01*
X99339783Y-45035430D01*
X99529632Y-45181107D01*
X99529634Y-45181108D01*
X99736859Y-45300748D01*
X99736862Y-45300749D01*
X99736870Y-45300754D01*
X99957953Y-45392330D01*
X100189098Y-45454265D01*
X100426350Y-45485500D01*
X100426357Y-45485500D01*
X100665643Y-45485500D01*
X100665650Y-45485500D01*
X100902902Y-45454265D01*
X101097454Y-45402135D01*
X102085500Y-45402135D01*
X102085500Y-46997870D01*
X102085501Y-46997876D01*
X102091908Y-47057483D01*
X102142202Y-47192328D01*
X102142206Y-47192335D01*
X102228452Y-47307544D01*
X102228455Y-47307547D01*
X102343664Y-47393793D01*
X102343671Y-47393797D01*
X102388618Y-47410561D01*
X102478517Y-47444091D01*
X102538127Y-47450500D01*
X103038519Y-47450499D01*
X103105558Y-47470183D01*
X103151313Y-47522987D01*
X103161257Y-47592146D01*
X103156450Y-47612817D01*
X103132291Y-47687169D01*
X103132291Y-47687172D01*
X103101500Y-47881577D01*
X103101500Y-48078422D01*
X103132290Y-48272826D01*
X103193117Y-48460029D01*
X103227112Y-48526747D01*
X103282476Y-48635405D01*
X103398172Y-48794646D01*
X103537354Y-48933828D01*
X103696595Y-49049524D01*
X103779455Y-49091743D01*
X103871970Y-49138882D01*
X103871972Y-49138882D01*
X103871975Y-49138884D01*
X103972317Y-49171487D01*
X104059173Y-49199709D01*
X104253578Y-49230500D01*
X104253583Y-49230500D01*
X104450422Y-49230500D01*
X104644826Y-49199709D01*
X104646328Y-49199221D01*
X104832025Y-49138884D01*
X105007405Y-49049524D01*
X105166646Y-48933828D01*
X105280319Y-48820155D01*
X105341642Y-48786670D01*
X105411334Y-48791654D01*
X105455681Y-48820155D01*
X105569354Y-48933828D01*
X105728595Y-49049524D01*
X105811455Y-49091743D01*
X105903970Y-49138882D01*
X105903972Y-49138882D01*
X105903975Y-49138884D01*
X106004317Y-49171487D01*
X106091173Y-49199709D01*
X106285578Y-49230500D01*
X106285583Y-49230500D01*
X106482422Y-49230500D01*
X106676826Y-49199709D01*
X106678328Y-49199221D01*
X106864025Y-49138884D01*
X107039405Y-49049524D01*
X107198646Y-48933828D01*
X107337828Y-48794646D01*
X107453524Y-48635405D01*
X107492898Y-48558126D01*
X107515698Y-48526747D01*
X107977944Y-48064501D01*
X108001326Y-48151764D01*
X108059911Y-48253236D01*
X108142764Y-48336089D01*
X108244236Y-48394674D01*
X108331497Y-48418055D01*
X107725873Y-49023677D01*
X107725873Y-49023678D01*
X107760858Y-49049096D01*
X107936164Y-49138418D01*
X108123294Y-49199221D01*
X108317618Y-49230000D01*
X108514382Y-49230000D01*
X108708705Y-49199221D01*
X108895835Y-49138418D01*
X109071143Y-49049095D01*
X109106125Y-49023678D01*
X109106126Y-49023678D01*
X108500503Y-48418055D01*
X108587764Y-48394674D01*
X108689236Y-48336089D01*
X108772089Y-48253236D01*
X108830674Y-48151764D01*
X108854055Y-48064501D01*
X109432000Y-48642446D01*
X110009944Y-48064501D01*
X110033326Y-48151764D01*
X110091911Y-48253236D01*
X110174764Y-48336089D01*
X110276236Y-48394674D01*
X110363497Y-48418055D01*
X109757873Y-49023677D01*
X109757873Y-49023678D01*
X109792858Y-49049096D01*
X109968164Y-49138418D01*
X110155294Y-49199221D01*
X110349618Y-49230000D01*
X110546382Y-49230000D01*
X110740705Y-49199221D01*
X110927835Y-49138418D01*
X111103143Y-49049095D01*
X111138125Y-49023678D01*
X111138126Y-49023678D01*
X110532503Y-48418055D01*
X110619764Y-48394674D01*
X110721236Y-48336089D01*
X110804089Y-48253236D01*
X110862674Y-48151764D01*
X110886055Y-48064503D01*
X111491678Y-48670126D01*
X111491678Y-48670125D01*
X111517095Y-48635143D01*
X111606418Y-48459835D01*
X111667221Y-48272705D01*
X111698000Y-48078382D01*
X111698000Y-47881617D01*
X111667221Y-47687294D01*
X111606418Y-47500164D01*
X111517096Y-47324858D01*
X111491678Y-47289873D01*
X111491677Y-47289873D01*
X110886055Y-47895496D01*
X110862674Y-47808236D01*
X110804089Y-47706764D01*
X110721236Y-47623911D01*
X110619764Y-47565326D01*
X110532501Y-47541944D01*
X111138125Y-46936320D01*
X111138125Y-46936319D01*
X111103145Y-46910905D01*
X110927835Y-46821581D01*
X110740707Y-46760779D01*
X110716657Y-46756969D01*
X110653523Y-46727037D01*
X110616593Y-46667725D01*
X110617593Y-46597862D01*
X110618074Y-46596340D01*
X110651709Y-46492826D01*
X110660506Y-46437280D01*
X110682500Y-46298422D01*
X110682500Y-46101577D01*
X110651709Y-45907173D01*
X110590882Y-45719970D01*
X110501523Y-45544594D01*
X110385828Y-45385354D01*
X110246646Y-45246172D01*
X110087405Y-45130476D01*
X109912029Y-45041117D01*
X109724826Y-44980290D01*
X109530422Y-44949500D01*
X109530417Y-44949500D01*
X109333583Y-44949500D01*
X109333578Y-44949500D01*
X109139173Y-44980290D01*
X108951970Y-45041117D01*
X108776594Y-45130476D01*
X108706908Y-45181107D01*
X108617354Y-45246172D01*
X108617352Y-45246174D01*
X108617351Y-45246174D01*
X108503681Y-45359845D01*
X108442358Y-45393330D01*
X108372666Y-45388346D01*
X108328319Y-45359845D01*
X108214648Y-45246174D01*
X108214646Y-45246172D01*
X108055405Y-45130476D01*
X107880029Y-45041117D01*
X107692826Y-44980290D01*
X107498422Y-44949500D01*
X107498417Y-44949500D01*
X107301583Y-44949500D01*
X107301578Y-44949500D01*
X107107173Y-44980290D01*
X106919970Y-45041117D01*
X106744594Y-45130476D01*
X106674908Y-45181107D01*
X106585354Y-45246172D01*
X106585352Y-45246174D01*
X106585351Y-45246174D01*
X106471681Y-45359845D01*
X106410358Y-45393330D01*
X106340666Y-45388346D01*
X106296319Y-45359845D01*
X106182648Y-45246174D01*
X106182646Y-45246172D01*
X106023405Y-45130476D01*
X105848029Y-45041117D01*
X105660826Y-44980290D01*
X105466422Y-44949500D01*
X105466417Y-44949500D01*
X105269583Y-44949500D01*
X105269578Y-44949500D01*
X105075173Y-44980290D01*
X104887970Y-45041117D01*
X104712590Y-45130478D01*
X104655658Y-45171842D01*
X104589851Y-45195322D01*
X104521798Y-45179496D01*
X104483509Y-45145837D01*
X104443546Y-45092454D01*
X104443544Y-45092452D01*
X104443543Y-45092451D01*
X104328335Y-45006206D01*
X104328328Y-45006202D01*
X104193482Y-44955908D01*
X104193483Y-44955908D01*
X104133883Y-44949501D01*
X104133881Y-44949500D01*
X104133873Y-44949500D01*
X104133864Y-44949500D01*
X102538129Y-44949500D01*
X102538123Y-44949501D01*
X102478516Y-44955908D01*
X102343671Y-45006202D01*
X102343664Y-45006206D01*
X102228455Y-45092452D01*
X102228452Y-45092455D01*
X102142206Y-45207664D01*
X102142202Y-45207671D01*
X102091908Y-45342517D01*
X102085501Y-45402116D01*
X102085500Y-45402135D01*
X101097454Y-45402135D01*
X101134047Y-45392330D01*
X101355130Y-45300754D01*
X101359221Y-45298391D01*
X101371300Y-45291419D01*
X101562365Y-45181108D01*
X101562367Y-45181107D01*
X101562370Y-45181105D01*
X101752218Y-45035429D01*
X101921429Y-44866218D01*
X102067105Y-44676370D01*
X102186754Y-44469130D01*
X102278330Y-44248047D01*
X102340265Y-44016902D01*
X102371500Y-43779650D01*
X102371500Y-43540356D01*
X111420500Y-43540356D01*
X111420500Y-43779643D01*
X111420501Y-43779659D01*
X111451734Y-44016900D01*
X111513669Y-44248045D01*
X111605243Y-44469123D01*
X111605251Y-44469140D01*
X111724891Y-44676365D01*
X111724892Y-44676367D01*
X111870569Y-44866216D01*
X111870575Y-44866223D01*
X112039776Y-45035424D01*
X112039783Y-45035430D01*
X112229632Y-45181107D01*
X112229634Y-45181108D01*
X112436859Y-45300748D01*
X112436862Y-45300749D01*
X112436870Y-45300754D01*
X112657953Y-45392330D01*
X112889098Y-45454265D01*
X113126350Y-45485500D01*
X113126357Y-45485500D01*
X113365643Y-45485500D01*
X113365650Y-45485500D01*
X113602902Y-45454265D01*
X113834047Y-45392330D01*
X114055130Y-45300754D01*
X114262370Y-45181105D01*
X114452218Y-45035429D01*
X114621429Y-44866218D01*
X114767105Y-44676370D01*
X114886754Y-44469130D01*
X114978330Y-44248047D01*
X115040265Y-44016902D01*
X115071500Y-43779650D01*
X115071500Y-43540350D01*
X115040265Y-43303098D01*
X114978330Y-43071953D01*
X114886754Y-42850870D01*
X114836382Y-42763622D01*
X114767108Y-42643634D01*
X114767107Y-42643632D01*
X114621430Y-42453783D01*
X114621424Y-42453776D01*
X114452223Y-42284575D01*
X114452216Y-42284569D01*
X114262367Y-42138892D01*
X114262365Y-42138891D01*
X114055140Y-42019251D01*
X114055132Y-42019247D01*
X114055130Y-42019246D01*
X114055123Y-42019243D01*
X113834045Y-41927669D01*
X113602900Y-41865734D01*
X113365659Y-41834501D01*
X113365656Y-41834500D01*
X113365650Y-41834500D01*
X113126350Y-41834500D01*
X113126344Y-41834500D01*
X113126340Y-41834501D01*
X112889099Y-41865734D01*
X112657954Y-41927669D01*
X112436876Y-42019243D01*
X112436859Y-42019251D01*
X112229634Y-42138891D01*
X112229632Y-42138892D01*
X112039783Y-42284569D01*
X112039776Y-42284575D01*
X111870575Y-42453776D01*
X111870569Y-42453783D01*
X111724892Y-42643632D01*
X111724891Y-42643634D01*
X111605251Y-42850859D01*
X111605243Y-42850876D01*
X111513669Y-43071954D01*
X111451734Y-43303099D01*
X111420501Y-43540340D01*
X111420500Y-43540356D01*
X102371500Y-43540356D01*
X102371500Y-43540350D01*
X102340265Y-43303098D01*
X102278330Y-43071953D01*
X102186754Y-42850870D01*
X102136382Y-42763622D01*
X102067108Y-42643634D01*
X102067107Y-42643632D01*
X101921430Y-42453783D01*
X101921424Y-42453776D01*
X101752223Y-42284575D01*
X101752216Y-42284569D01*
X101562367Y-42138892D01*
X101562365Y-42138891D01*
X101355140Y-42019251D01*
X101355132Y-42019247D01*
X101355130Y-42019246D01*
X101355123Y-42019243D01*
X101134045Y-41927669D01*
X100902900Y-41865734D01*
X100665659Y-41834501D01*
X100665656Y-41834500D01*
X100665650Y-41834500D01*
X100426350Y-41834500D01*
X100426344Y-41834500D01*
X100426340Y-41834501D01*
X100189099Y-41865734D01*
X99957954Y-41927669D01*
X99736876Y-42019243D01*
X99736859Y-42019251D01*
X99529634Y-42138891D01*
X99529632Y-42138892D01*
X99339783Y-42284569D01*
X99339776Y-42284575D01*
X99170575Y-42453776D01*
X99170569Y-42453783D01*
X99024892Y-42643632D01*
X99024891Y-42643634D01*
X98905251Y-42850859D01*
X98905243Y-42850876D01*
X98813669Y-43071954D01*
X98751734Y-43303099D01*
X98720501Y-43540340D01*
X98720500Y-43540356D01*
X80200500Y-43540356D01*
X80200500Y-42502706D01*
X80200618Y-42497297D01*
X80209891Y-42284906D01*
X80218528Y-42087080D01*
X80219468Y-42076347D01*
X80272709Y-41671938D01*
X80274582Y-41661308D01*
X80304014Y-41528549D01*
X87399500Y-41528549D01*
X87399500Y-41751450D01*
X87399501Y-41751466D01*
X87428594Y-41972452D01*
X87428595Y-41972457D01*
X87428596Y-41972463D01*
X87473191Y-42138895D01*
X87486290Y-42187780D01*
X87486293Y-42187790D01*
X87526383Y-42284575D01*
X87571595Y-42393726D01*
X87683052Y-42586774D01*
X87683057Y-42586780D01*
X87683058Y-42586782D01*
X87818751Y-42763622D01*
X87818757Y-42763629D01*
X87976370Y-42921242D01*
X87976376Y-42921247D01*
X88153226Y-43056948D01*
X88346274Y-43168405D01*
X88552219Y-43253710D01*
X88767537Y-43311404D01*
X88988543Y-43340500D01*
X88988550Y-43340500D01*
X89211450Y-43340500D01*
X89211457Y-43340500D01*
X89432463Y-43311404D01*
X89647781Y-43253710D01*
X89853726Y-43168405D01*
X90046774Y-43056948D01*
X90223624Y-42921247D01*
X90381247Y-42763624D01*
X90516948Y-42586774D01*
X90628405Y-42393726D01*
X90685439Y-42256034D01*
X90729280Y-42201631D01*
X90795574Y-42179566D01*
X90863273Y-42196845D01*
X90910884Y-42247982D01*
X90914561Y-42256034D01*
X90926381Y-42284571D01*
X90971595Y-42393726D01*
X91083052Y-42586774D01*
X91083057Y-42586780D01*
X91083058Y-42586782D01*
X91218751Y-42763622D01*
X91218757Y-42763629D01*
X91376370Y-42921242D01*
X91376376Y-42921247D01*
X91553226Y-43056948D01*
X91746274Y-43168405D01*
X91952219Y-43253710D01*
X92167537Y-43311404D01*
X92388543Y-43340500D01*
X92388550Y-43340500D01*
X92611450Y-43340500D01*
X92611457Y-43340500D01*
X92832463Y-43311404D01*
X93047781Y-43253710D01*
X93253726Y-43168405D01*
X93446774Y-43056948D01*
X93623624Y-42921247D01*
X93781247Y-42763624D01*
X93916948Y-42586774D01*
X94028405Y-42393726D01*
X94113710Y-42187781D01*
X94171404Y-41972463D01*
X94200500Y-41751457D01*
X94200500Y-41528543D01*
X94171404Y-41307537D01*
X94113710Y-41092219D01*
X94028405Y-40886274D01*
X93916948Y-40693226D01*
X93781247Y-40516376D01*
X93781242Y-40516370D01*
X93623629Y-40358757D01*
X93623622Y-40358751D01*
X93446782Y-40223058D01*
X93446780Y-40223057D01*
X93446774Y-40223052D01*
X93253726Y-40111595D01*
X93253722Y-40111593D01*
X93047790Y-40026293D01*
X93047783Y-40026291D01*
X93047781Y-40026290D01*
X92832463Y-39968596D01*
X92832457Y-39968595D01*
X92832452Y-39968594D01*
X92611466Y-39939501D01*
X92611463Y-39939500D01*
X92611457Y-39939500D01*
X92388543Y-39939500D01*
X92388537Y-39939500D01*
X92388533Y-39939501D01*
X92167547Y-39968594D01*
X92167540Y-39968595D01*
X92167537Y-39968596D01*
X91952219Y-40026290D01*
X91952209Y-40026293D01*
X91746277Y-40111593D01*
X91746273Y-40111595D01*
X91553226Y-40223052D01*
X91553217Y-40223058D01*
X91376377Y-40358751D01*
X91376370Y-40358757D01*
X91218757Y-40516370D01*
X91218751Y-40516377D01*
X91083058Y-40693217D01*
X91083052Y-40693226D01*
X90971595Y-40886273D01*
X90971593Y-40886277D01*
X90914561Y-41023965D01*
X90870720Y-41078368D01*
X90804426Y-41100433D01*
X90736726Y-41083154D01*
X90689116Y-41032016D01*
X90685439Y-41023965D01*
X90633748Y-40899173D01*
X90628405Y-40886274D01*
X90516948Y-40693226D01*
X90381247Y-40516376D01*
X90381242Y-40516370D01*
X90223629Y-40358757D01*
X90223622Y-40358751D01*
X90046782Y-40223058D01*
X90046780Y-40223057D01*
X90046774Y-40223052D01*
X89853726Y-40111595D01*
X89853722Y-40111593D01*
X89647790Y-40026293D01*
X89647783Y-40026291D01*
X89647781Y-40026290D01*
X89432463Y-39968596D01*
X89432457Y-39968595D01*
X89432452Y-39968594D01*
X89211466Y-39939501D01*
X89211463Y-39939500D01*
X89211457Y-39939500D01*
X88988543Y-39939500D01*
X88988537Y-39939500D01*
X88988533Y-39939501D01*
X88767547Y-39968594D01*
X88767540Y-39968595D01*
X88767537Y-39968596D01*
X88552219Y-40026290D01*
X88552209Y-40026293D01*
X88346277Y-40111593D01*
X88346273Y-40111595D01*
X88153226Y-40223052D01*
X88153217Y-40223058D01*
X87976377Y-40358751D01*
X87976370Y-40358757D01*
X87818757Y-40516370D01*
X87818751Y-40516377D01*
X87683058Y-40693217D01*
X87683052Y-40693226D01*
X87571595Y-40886273D01*
X87571593Y-40886277D01*
X87486293Y-41092209D01*
X87486290Y-41092219D01*
X87430988Y-41298612D01*
X87428597Y-41307534D01*
X87428594Y-41307547D01*
X87399501Y-41528533D01*
X87399500Y-41528549D01*
X80304014Y-41528549D01*
X80362869Y-41263074D01*
X80365668Y-41252630D01*
X80488319Y-40863629D01*
X80492016Y-40853473D01*
X80558393Y-40693226D01*
X80648111Y-40476627D01*
X80652669Y-40466853D01*
X80841025Y-40105024D01*
X80846407Y-40095703D01*
X81065574Y-39751680D01*
X81071765Y-39742837D01*
X81320083Y-39419224D01*
X81327021Y-39410955D01*
X81602594Y-39110220D01*
X81610220Y-39102594D01*
X81910955Y-38827021D01*
X81919224Y-38820083D01*
X82242837Y-38571765D01*
X82251680Y-38565574D01*
X82595703Y-38346407D01*
X82605024Y-38341025D01*
X82966853Y-38152669D01*
X82976627Y-38148111D01*
X83353482Y-37992012D01*
X83363629Y-37988319D01*
X83752639Y-37865665D01*
X83763068Y-37862870D01*
X84161308Y-37774582D01*
X84171938Y-37772709D01*
X84576347Y-37719468D01*
X84587080Y-37718528D01*
X84997271Y-37700619D01*
X85002734Y-37700502D01*
X118162035Y-37735977D01*
G37*
%TD.AperFunction*%
%TD*%
M02*
