G04*
G04 #@! TF.GenerationSoftware,Altium Limited,Altium Designer,23.4.1 (23)*
G04*
G04 Layer_Physical_Order=3*
G04 Layer_Color=16440176*
%FSLAX44Y44*%
%MOMM*%
G71*
G04*
G04 #@! TF.SameCoordinates,71779357-5CD3-41FB-92FB-A5B7E85101D3*
G04*
G04*
G04 #@! TF.FilePolarity,Positive*
G04*
G01*
G75*
%ADD166C,0.5000*%
%ADD167C,1.0000*%
%ADD176C,1.5000*%
%ADD178R,1.5000X1.5000*%
%ADD189C,0.5000*%
G36*
X956031Y795807D02*
X961958Y794628D01*
X967681Y792685D01*
X973101Y790012D01*
X978126Y786655D01*
X982670Y782670D01*
X986655Y778126D01*
X990012Y773101D01*
X992685Y767681D01*
X994628Y761958D01*
X995807Y756031D01*
X996191Y750173D01*
X996156Y750000D01*
Y50000D01*
X996191Y49827D01*
X995807Y43969D01*
X994628Y38042D01*
X992685Y32319D01*
X990012Y26899D01*
X986655Y21874D01*
X982670Y17330D01*
X978126Y13346D01*
X973101Y9988D01*
X967681Y7315D01*
X961958Y5372D01*
X956031Y4193D01*
X950173Y3809D01*
X950000Y3844D01*
X50000D01*
X49827Y3809D01*
X43969Y4193D01*
X38042Y5372D01*
X32319Y7315D01*
X26899Y9988D01*
X21874Y13346D01*
X17330Y17330D01*
X13346Y21874D01*
X9988Y26899D01*
X7315Y32319D01*
X5372Y38042D01*
X4193Y43969D01*
X3809Y49827D01*
X3844Y50000D01*
Y336996D01*
X5114Y337648D01*
X6600Y336790D01*
X8840Y336190D01*
X11160D01*
X13400Y336790D01*
X15409Y337950D01*
X17050Y339590D01*
X18210Y341600D01*
X18810Y343840D01*
Y346160D01*
X18210Y348400D01*
X17050Y350410D01*
X15409Y352050D01*
X13400Y353210D01*
X11160Y353810D01*
X8840D01*
X6600Y353210D01*
X5114Y352352D01*
X3844Y353004D01*
Y446996D01*
X5114Y447648D01*
X6600Y446790D01*
X8840Y446190D01*
X11160D01*
X13400Y446790D01*
X15409Y447950D01*
X17050Y449590D01*
X18210Y451600D01*
X18810Y453840D01*
Y456160D01*
X18210Y458400D01*
X17050Y460409D01*
X15409Y462050D01*
X13400Y463210D01*
X11160Y463810D01*
X8840D01*
X6600Y463210D01*
X5114Y462352D01*
X3844Y463004D01*
Y750000D01*
X3809Y750173D01*
X4193Y756031D01*
X5372Y761958D01*
X7315Y767681D01*
X9988Y773101D01*
X13346Y778126D01*
X17330Y782670D01*
X21874Y786655D01*
X26899Y790012D01*
X32319Y792685D01*
X38042Y794628D01*
X43969Y795807D01*
X49827Y796191D01*
X50000Y796156D01*
X265028D01*
X265480Y795480D01*
X267554Y794094D01*
X270000Y793607D01*
X280000D01*
X280167Y793640D01*
X281406Y793394D01*
X282598Y792598D01*
X283394Y791406D01*
X283640Y790167D01*
X283607Y790000D01*
X283695Y789561D01*
X283965Y786811D01*
X284896Y783744D01*
X286407Y780917D01*
X288440Y778440D01*
X290917Y776406D01*
X293744Y774896D01*
X296810Y773965D01*
X299561Y773695D01*
X300000Y773607D01*
X380000D01*
X380439Y773695D01*
X383190Y773965D01*
X386256Y774896D01*
X389083Y776406D01*
X391560Y778440D01*
X393593Y780917D01*
X395104Y783744D01*
X396035Y786811D01*
X396305Y789561D01*
X396393Y790000D01*
X396360Y790167D01*
X396606Y791406D01*
X397402Y792598D01*
X398594Y793394D01*
X399833Y793640D01*
X400000Y793607D01*
X410000D01*
X412446Y794094D01*
X414520Y795480D01*
X414972Y796156D01*
X598795D01*
X599070Y795854D01*
X599515Y794886D01*
X599230Y794199D01*
Y793097D01*
X599652Y792079D01*
X600431Y791299D01*
X600647Y791210D01*
Y789835D01*
X600431Y789746D01*
X599652Y788967D01*
X599230Y787949D01*
Y786847D01*
X599652Y785829D01*
X600431Y785049D01*
X601449Y784628D01*
X602551D01*
X603569Y785049D01*
X604348Y785829D01*
X604770Y786847D01*
Y787949D01*
X604348Y788967D01*
X603569Y789746D01*
X603353Y789835D01*
Y791210D01*
X603569Y791299D01*
X604348Y792079D01*
X604770Y793097D01*
Y794199D01*
X604485Y794886D01*
X604930Y795854D01*
X605205Y796156D01*
X950000D01*
X950173Y796191D01*
X956031Y795807D01*
D02*
G37*
%LPC*%
G36*
X649551Y794770D02*
X648449D01*
X647431Y794348D01*
X646652Y793569D01*
X646230Y792551D01*
Y791449D01*
X646652Y790431D01*
X647431Y789652D01*
X648449Y789230D01*
X649551D01*
X650569Y789652D01*
X651348Y790431D01*
X651770Y791449D01*
Y792551D01*
X651348Y793569D01*
X650569Y794348D01*
X649551Y794770D01*
D02*
G37*
G36*
X870551Y791770D02*
X869449D01*
X868431Y791348D01*
X867652Y790569D01*
X867230Y789551D01*
Y788449D01*
X867652Y787431D01*
X868431Y786652D01*
X869449Y786230D01*
X870551D01*
X871569Y786652D01*
X872348Y787431D01*
X872770Y788449D01*
Y789551D01*
X872348Y790569D01*
X871569Y791348D01*
X870551Y791770D01*
D02*
G37*
G36*
X830551D02*
X829449D01*
X828431Y791348D01*
X827652Y790569D01*
X827230Y789551D01*
Y788449D01*
X827652Y787431D01*
X828431Y786652D01*
X829449Y786230D01*
X830551D01*
X831569Y786652D01*
X832348Y787431D01*
X832770Y788449D01*
Y789551D01*
X832348Y790569D01*
X831569Y791348D01*
X830551Y791770D01*
D02*
G37*
G36*
X685551Y790770D02*
X684449D01*
X683431Y790348D01*
X682652Y789569D01*
X682230Y788551D01*
Y787449D01*
X682652Y786431D01*
X683431Y785652D01*
X684449Y785230D01*
X685551D01*
X686569Y785652D01*
X687348Y786431D01*
X687770Y787449D01*
Y788551D01*
X687348Y789569D01*
X686569Y790348D01*
X685551Y790770D01*
D02*
G37*
G36*
X552551Y789770D02*
X551449D01*
X550431Y789348D01*
X549652Y788569D01*
X549230Y787551D01*
Y786449D01*
X549652Y785431D01*
X550431Y784652D01*
X551449Y784230D01*
X552551D01*
X553569Y784652D01*
X554348Y785431D01*
X554770Y786449D01*
Y787551D01*
X554348Y788569D01*
X553569Y789348D01*
X552551Y789770D01*
D02*
G37*
G36*
X158551Y785770D02*
X157449D01*
X156431Y785348D01*
X155652Y784569D01*
X155230Y783551D01*
Y782449D01*
X155652Y781431D01*
X156431Y780652D01*
X157449Y780230D01*
X158551D01*
X159569Y780652D01*
X160348Y781431D01*
X160770Y782449D01*
Y783551D01*
X160348Y784569D01*
X159569Y785348D01*
X158551Y785770D01*
D02*
G37*
G36*
X411551Y784770D02*
X410449D01*
X409431Y784348D01*
X408652Y783569D01*
X408230Y782551D01*
Y781449D01*
X408652Y780431D01*
X409431Y779652D01*
X410449Y779230D01*
X411551D01*
X412569Y779652D01*
X413348Y780431D01*
X413770Y781449D01*
Y782551D01*
X413348Y783569D01*
X412569Y784348D01*
X411551Y784770D01*
D02*
G37*
G36*
X692551Y783770D02*
X691449D01*
X690431Y783348D01*
X689652Y782569D01*
X689230Y781551D01*
Y780449D01*
X689652Y779431D01*
X690431Y778652D01*
X691449Y778230D01*
X692551D01*
X693569Y778652D01*
X694348Y779431D01*
X694770Y780449D01*
Y781551D01*
X694348Y782569D01*
X693569Y783348D01*
X692551Y783770D01*
D02*
G37*
G36*
X658551Y776770D02*
X657449D01*
X656431Y776348D01*
X655652Y775569D01*
X655230Y774551D01*
Y773449D01*
X655652Y772431D01*
X656431Y771652D01*
X657449Y771230D01*
X658551D01*
X659569Y771652D01*
X660348Y772431D01*
X660770Y773449D01*
Y774551D01*
X660348Y775569D01*
X659569Y776348D01*
X658551Y776770D01*
D02*
G37*
G36*
X427551D02*
X426449D01*
X425431Y776348D01*
X424652Y775569D01*
X424230Y774551D01*
Y773449D01*
X424652Y772431D01*
X425431Y771652D01*
X426449Y771230D01*
X427551D01*
X428569Y771652D01*
X429348Y772431D01*
X429770Y773449D01*
Y774551D01*
X429348Y775569D01*
X428569Y776348D01*
X427551Y776770D01*
D02*
G37*
G36*
X533000Y790383D02*
X530749Y789935D01*
X528840Y788660D01*
X527565Y786751D01*
X527117Y784500D01*
Y775500D01*
X527565Y773249D01*
X528840Y771340D01*
X530749Y770065D01*
X533000Y769617D01*
X535251Y770065D01*
X537160Y771340D01*
X538435Y773249D01*
X538883Y775500D01*
Y784500D01*
X538435Y786751D01*
X537160Y788660D01*
X535251Y789935D01*
X533000Y790383D01*
D02*
G37*
G36*
X467000D02*
X464749Y789935D01*
X462840Y788660D01*
X461565Y786751D01*
X461117Y784500D01*
Y775500D01*
X461565Y773249D01*
X462840Y771340D01*
X464749Y770065D01*
X467000Y769617D01*
X469251Y770065D01*
X471160Y771340D01*
X472435Y773249D01*
X472883Y775500D01*
Y784500D01*
X472435Y786751D01*
X471160Y788660D01*
X469251Y789935D01*
X467000Y790383D01*
D02*
G37*
G36*
X552551Y774770D02*
X551449D01*
X550431Y774348D01*
X549652Y773569D01*
X549230Y772551D01*
Y771449D01*
X549652Y770431D01*
X550431Y769652D01*
X551449Y769230D01*
X552551D01*
X553569Y769652D01*
X554348Y770431D01*
X554770Y771449D01*
Y772551D01*
X554348Y773569D01*
X553569Y774348D01*
X552551Y774770D01*
D02*
G37*
G36*
Y760770D02*
X551449D01*
X550431Y760348D01*
X549652Y759569D01*
X549230Y758551D01*
Y757449D01*
X549652Y756431D01*
X550431Y755652D01*
X551449Y755230D01*
X552551D01*
X553569Y755652D01*
X554348Y756431D01*
X554770Y757449D01*
Y758551D01*
X554348Y759569D01*
X553569Y760348D01*
X552551Y760770D01*
D02*
G37*
G36*
X603750Y759770D02*
X602250D01*
X600864Y759196D01*
X599804Y758136D01*
X599230Y756750D01*
Y755250D01*
X599804Y753865D01*
X600864Y752804D01*
X602250Y752230D01*
X603750D01*
X605135Y752804D01*
X606196Y753865D01*
X606770Y755250D01*
Y756750D01*
X606196Y758136D01*
X605135Y759196D01*
X603750Y759770D01*
D02*
G37*
G36*
X706551Y749770D02*
X705449D01*
X704431Y749348D01*
X703652Y748569D01*
X703230Y747551D01*
Y746449D01*
X703652Y745431D01*
X704431Y744652D01*
X705449Y744230D01*
X706551D01*
X707569Y744652D01*
X708348Y745431D01*
X708770Y746449D01*
Y747551D01*
X708348Y748569D01*
X707569Y749348D01*
X706551Y749770D01*
D02*
G37*
G36*
X402551D02*
X401449D01*
X400431Y749348D01*
X399652Y748569D01*
X399230Y747551D01*
Y746449D01*
X399652Y745431D01*
X400431Y744652D01*
X401449Y744230D01*
X402551D01*
X403569Y744652D01*
X404348Y745431D01*
X404770Y746449D01*
Y747551D01*
X404348Y748569D01*
X403569Y749348D01*
X402551Y749770D01*
D02*
G37*
G36*
X456551Y744770D02*
X455449D01*
X454431Y744348D01*
X453652Y743569D01*
X453230Y742551D01*
Y741449D01*
X453652Y740431D01*
X454431Y739652D01*
X455449Y739230D01*
X456551D01*
X457569Y739652D01*
X458348Y740431D01*
X458770Y741449D01*
Y742551D01*
X458348Y743569D01*
X457569Y744348D01*
X456551Y744770D01*
D02*
G37*
G36*
X700551Y743770D02*
X699449D01*
X698431Y743348D01*
X697652Y742569D01*
X697230Y741551D01*
Y740449D01*
X697652Y739431D01*
X698431Y738652D01*
X699449Y738230D01*
X700551D01*
X701569Y738652D01*
X702348Y739431D01*
X702770Y740449D01*
Y741551D01*
X702348Y742569D01*
X701569Y743348D01*
X700551Y743770D01*
D02*
G37*
G36*
X548551Y737770D02*
X547449D01*
X546431Y737348D01*
X545652Y736569D01*
X545562Y736353D01*
X544188D01*
X544098Y736569D01*
X543319Y737348D01*
X542301Y737770D01*
X541199D01*
X540181Y737348D01*
X539402Y736569D01*
X538980Y735551D01*
Y734449D01*
X539402Y733431D01*
X540181Y732652D01*
X541199Y732230D01*
X542301D01*
X543319Y732652D01*
X544098Y733431D01*
X544188Y733647D01*
X545562D01*
X545652Y733431D01*
X546431Y732652D01*
X547449Y732230D01*
X548551D01*
X549569Y732652D01*
X550348Y733431D01*
X550770Y734449D01*
Y735551D01*
X550348Y736569D01*
X549569Y737348D01*
X548551Y737770D01*
D02*
G37*
G36*
X678551Y741770D02*
X677449D01*
X676431Y741348D01*
X675652Y740569D01*
X675230Y739551D01*
Y738449D01*
X675652Y737431D01*
X676431Y736652D01*
X677449Y736230D01*
X678551D01*
X679569Y736652D01*
X680348Y737431D01*
X680770Y738449D01*
Y739551D01*
X680348Y740569D01*
X679569Y741348D01*
X678551Y741770D01*
D02*
G37*
G36*
X665551D02*
X664449D01*
X663431Y741348D01*
X662652Y740569D01*
X662230Y739551D01*
Y738449D01*
X662652Y737431D01*
X663431Y736652D01*
X664449Y736230D01*
X665551D01*
X666569Y736652D01*
X667348Y737431D01*
X667770Y738449D01*
Y739551D01*
X667348Y740569D01*
X666569Y741348D01*
X665551Y741770D01*
D02*
G37*
G36*
X789551Y737770D02*
X788449D01*
X787431Y737348D01*
X786652Y736569D01*
X786230Y735551D01*
Y734449D01*
X786652Y733431D01*
X787431Y732652D01*
X788449Y732230D01*
X789551D01*
X790569Y732652D01*
X791348Y733431D01*
X791770Y734449D01*
Y735551D01*
X791348Y736569D01*
X790569Y737348D01*
X789551Y737770D01*
D02*
G37*
G36*
X776551D02*
X775449D01*
X774431Y737348D01*
X773652Y736569D01*
X773230Y735551D01*
Y734449D01*
X773652Y733431D01*
X774431Y732652D01*
X775449Y732230D01*
X776551D01*
X777569Y732652D01*
X778348Y733431D01*
X778770Y734449D01*
Y735551D01*
X778348Y736569D01*
X777569Y737348D01*
X776551Y737770D01*
D02*
G37*
G36*
X764551D02*
X763449D01*
X762431Y737348D01*
X761652Y736569D01*
X761230Y735551D01*
Y734449D01*
X761652Y733431D01*
X762431Y732652D01*
X763449Y732230D01*
X764551D01*
X765569Y732652D01*
X766348Y733431D01*
X766770Y734449D01*
Y735551D01*
X766348Y736569D01*
X765569Y737348D01*
X764551Y737770D01*
D02*
G37*
G36*
X221551Y730770D02*
X220449D01*
X219431Y730348D01*
X218652Y729569D01*
X218230Y728551D01*
Y727449D01*
X218652Y726431D01*
X219431Y725652D01*
X220449Y725230D01*
X221551D01*
X222569Y725652D01*
X223348Y726431D01*
X223770Y727449D01*
Y728551D01*
X223348Y729569D01*
X222569Y730348D01*
X221551Y730770D01*
D02*
G37*
G36*
X876551Y724770D02*
X875449D01*
X874431Y724348D01*
X873652Y723569D01*
X873230Y722551D01*
Y721449D01*
X873652Y720431D01*
X874431Y719652D01*
X875449Y719230D01*
X876551D01*
X877569Y719652D01*
X878348Y720431D01*
X878770Y721449D01*
Y722551D01*
X878348Y723569D01*
X877569Y724348D01*
X876551Y724770D01*
D02*
G37*
G36*
X836551D02*
X835449D01*
X834431Y724348D01*
X833652Y723569D01*
X833230Y722551D01*
Y721449D01*
X833652Y720431D01*
X834431Y719652D01*
X835449Y719230D01*
X836551D01*
X837569Y719652D01*
X838348Y720431D01*
X838770Y721449D01*
Y722551D01*
X838348Y723569D01*
X837569Y724348D01*
X836551Y724770D01*
D02*
G37*
G36*
X723551D02*
X722449D01*
X721431Y724348D01*
X720652Y723569D01*
X720230Y722551D01*
Y721449D01*
X720652Y720431D01*
X721431Y719652D01*
X722449Y719230D01*
X723551D01*
X724569Y719652D01*
X725348Y720431D01*
X725770Y721449D01*
Y722551D01*
X725348Y723569D01*
X724569Y724348D01*
X723551Y724770D01*
D02*
G37*
G36*
X570551D02*
X569449D01*
X568431Y724348D01*
X567652Y723569D01*
X567230Y722551D01*
Y721449D01*
X567652Y720431D01*
X568431Y719652D01*
X569449Y719230D01*
X570551D01*
X571569Y719652D01*
X572348Y720431D01*
X572770Y721449D01*
Y722551D01*
X572348Y723569D01*
X571569Y724348D01*
X570551Y724770D01*
D02*
G37*
G36*
X412551D02*
X411449D01*
X410431Y724348D01*
X409652Y723569D01*
X409230Y722551D01*
Y721449D01*
X409652Y720431D01*
X410431Y719652D01*
X411449Y719230D01*
X412551D01*
X413569Y719652D01*
X414348Y720431D01*
X414770Y721449D01*
Y722551D01*
X414348Y723569D01*
X413569Y724348D01*
X412551Y724770D01*
D02*
G37*
G36*
X387551D02*
X386449D01*
X385431Y724348D01*
X384652Y723569D01*
X384230Y722551D01*
Y721449D01*
X384652Y720431D01*
X385431Y719652D01*
X386449Y719230D01*
X387551D01*
X388569Y719652D01*
X389348Y720431D01*
X389770Y721449D01*
Y722551D01*
X389348Y723569D01*
X388569Y724348D01*
X387551Y724770D01*
D02*
G37*
G36*
X171476Y721770D02*
X170374D01*
X169356Y721348D01*
X168577Y720569D01*
X168155Y719551D01*
Y718449D01*
X168577Y717431D01*
X169356Y716652D01*
X170374Y716230D01*
X171476D01*
X172494Y716652D01*
X173273Y717431D01*
X173695Y718449D01*
Y719551D01*
X173273Y720569D01*
X172494Y721348D01*
X171476Y721770D01*
D02*
G37*
G36*
X478551Y718770D02*
X477449D01*
X476431Y718348D01*
X475652Y717569D01*
X475230Y716551D01*
Y715449D01*
X475652Y714431D01*
X476431Y713652D01*
X477449Y713230D01*
X478551D01*
X479569Y713652D01*
X480348Y714431D01*
X480770Y715449D01*
Y716551D01*
X480348Y717569D01*
X479569Y718348D01*
X478551Y718770D01*
D02*
G37*
G36*
X570551Y717770D02*
X569449D01*
X568431Y717348D01*
X567652Y716569D01*
X567230Y715551D01*
Y714449D01*
X567652Y713431D01*
X568431Y712652D01*
X569449Y712230D01*
X570551D01*
X571569Y712652D01*
X572348Y713431D01*
X572770Y714449D01*
Y715551D01*
X572348Y716569D01*
X571569Y717348D01*
X570551Y717770D01*
D02*
G37*
G36*
X387551Y716770D02*
X386449D01*
X385431Y716348D01*
X384652Y715569D01*
X384230Y714551D01*
Y713449D01*
X384652Y712431D01*
X385431Y711652D01*
X386449Y711230D01*
X387551D01*
X388569Y711652D01*
X389348Y712431D01*
X389770Y713449D01*
Y714551D01*
X389348Y715569D01*
X388569Y716348D01*
X387551Y716770D01*
D02*
G37*
G36*
X427551Y715770D02*
X426449D01*
X425431Y715348D01*
X424652Y714569D01*
X424230Y713551D01*
Y712449D01*
X424652Y711431D01*
X425431Y710652D01*
X426449Y710230D01*
X427551D01*
X428569Y710652D01*
X429348Y711431D01*
X429770Y712449D01*
Y713551D01*
X429348Y714569D01*
X428569Y715348D01*
X427551Y715770D01*
D02*
G37*
G36*
X52705Y791270D02*
X47295D01*
X41931Y790564D01*
X36706Y789164D01*
X31708Y787093D01*
X27022Y784388D01*
X22730Y781095D01*
X18905Y777270D01*
X15612Y772978D01*
X12907Y768292D01*
X10836Y763294D01*
X9436Y758069D01*
X8730Y752705D01*
Y747295D01*
X9436Y741931D01*
X10836Y736706D01*
X12907Y731708D01*
X15612Y727022D01*
X18905Y722730D01*
X22730Y718905D01*
X27022Y715612D01*
X31708Y712907D01*
X36706Y710836D01*
X41931Y709436D01*
X47295Y708730D01*
X52705D01*
X58069Y709436D01*
X63294Y710836D01*
X68292Y712907D01*
X72978Y715612D01*
X77270Y718905D01*
X81095Y722730D01*
X84388Y727022D01*
X87093Y731708D01*
X89164Y736706D01*
X90564Y741931D01*
X91270Y747295D01*
Y752705D01*
X90564Y758069D01*
X89164Y763294D01*
X87093Y768292D01*
X84388Y772978D01*
X81095Y777270D01*
X77270Y781095D01*
X72978Y784388D01*
X68292Y787093D01*
X63294Y789164D01*
X58069Y790564D01*
X52705Y791270D01*
D02*
G37*
G36*
X570551Y710770D02*
X569449D01*
X568431Y710348D01*
X567652Y709569D01*
X567230Y708551D01*
Y707449D01*
X567652Y706431D01*
X568431Y705652D01*
X569449Y705230D01*
X570551D01*
X571569Y705652D01*
X572348Y706431D01*
X572770Y707449D01*
Y708551D01*
X572348Y709569D01*
X571569Y710348D01*
X570551Y710770D01*
D02*
G37*
G36*
X723551Y709770D02*
X722449D01*
X721431Y709348D01*
X720652Y708569D01*
X720230Y707551D01*
Y706449D01*
X720652Y705431D01*
X721431Y704652D01*
X722449Y704230D01*
X723551D01*
X724569Y704652D01*
X725348Y705431D01*
X725770Y706449D01*
Y707551D01*
X725348Y708569D01*
X724569Y709348D01*
X723551Y709770D01*
D02*
G37*
G36*
X693551D02*
X692449D01*
X691431Y709348D01*
X690652Y708569D01*
X690230Y707551D01*
Y706449D01*
X690652Y705431D01*
X691431Y704652D01*
X692449Y704230D01*
X693551D01*
X694569Y704652D01*
X695348Y705431D01*
X695770Y706449D01*
Y707551D01*
X695348Y708569D01*
X694569Y709348D01*
X693551Y709770D01*
D02*
G37*
G36*
X323551Y707770D02*
X322449D01*
X321431Y707348D01*
X320652Y706569D01*
X320230Y705551D01*
Y704449D01*
X320652Y703431D01*
X321431Y702652D01*
X322449Y702230D01*
X323551D01*
X324569Y702652D01*
X325348Y703431D01*
X325770Y704449D01*
Y705551D01*
X325348Y706569D01*
X324569Y707348D01*
X323551Y707770D01*
D02*
G37*
G36*
X570551Y703770D02*
X569449D01*
X568431Y703348D01*
X567652Y702569D01*
X567230Y701551D01*
Y700449D01*
X567652Y699431D01*
X568431Y698652D01*
X569449Y698230D01*
X570551D01*
X571569Y698652D01*
X572348Y699431D01*
X572770Y700449D01*
Y701551D01*
X572348Y702569D01*
X571569Y703348D01*
X570551Y703770D01*
D02*
G37*
G36*
X622551Y696770D02*
X621449D01*
X620431Y696348D01*
X619652Y695569D01*
X619230Y694551D01*
Y693449D01*
X619652Y692431D01*
X620431Y691652D01*
X621449Y691230D01*
X622551D01*
X623569Y691652D01*
X624348Y692431D01*
X624770Y693449D01*
Y694551D01*
X624348Y695569D01*
X623569Y696348D01*
X622551Y696770D01*
D02*
G37*
G36*
X614551D02*
X613449D01*
X612431Y696348D01*
X611652Y695569D01*
X611230Y694551D01*
Y693449D01*
X611652Y692431D01*
X612431Y691652D01*
X613449Y691230D01*
X614551D01*
X615569Y691652D01*
X616348Y692431D01*
X616770Y693449D01*
Y694551D01*
X616348Y695569D01*
X615569Y696348D01*
X614551Y696770D01*
D02*
G37*
G36*
X693551Y694770D02*
X692449D01*
X691431Y694348D01*
X690652Y693569D01*
X690230Y692551D01*
Y691449D01*
X690652Y690431D01*
X691431Y689652D01*
X692449Y689230D01*
X693551D01*
X694569Y689652D01*
X695348Y690431D01*
X695770Y691449D01*
Y692551D01*
X695348Y693569D01*
X694569Y694348D01*
X693551Y694770D01*
D02*
G37*
G36*
X403034Y689893D02*
X401932D01*
X400914Y689471D01*
X400135Y688692D01*
X399713Y687674D01*
Y686572D01*
X400135Y685554D01*
X400914Y684774D01*
X401932Y684353D01*
X403034D01*
X404052Y684774D01*
X404832Y685554D01*
X405253Y686572D01*
Y687674D01*
X404832Y688692D01*
X404052Y689471D01*
X403034Y689893D01*
D02*
G37*
G36*
X346165Y683900D02*
X345063D01*
X344045Y683478D01*
X343266Y682699D01*
X343177Y682484D01*
X341802D01*
X341713Y682699D01*
X340933Y683478D01*
X339915Y683900D01*
X338813D01*
X337795Y683478D01*
X337016Y682699D01*
X336594Y681681D01*
Y680579D01*
X337016Y679561D01*
X337795Y678782D01*
X338813Y678360D01*
X339915D01*
X340933Y678782D01*
X341713Y679561D01*
X341802Y679777D01*
X343177D01*
X343266Y679561D01*
X344045Y678782D01*
X345063Y678360D01*
X346165D01*
X347183Y678782D01*
X347963Y679561D01*
X348384Y680579D01*
Y681681D01*
X347963Y682699D01*
X347183Y683478D01*
X346165Y683900D01*
D02*
G37*
G36*
X952705Y791270D02*
X947295D01*
X941931Y790564D01*
X936706Y789164D01*
X931708Y787093D01*
X927022Y784388D01*
X922730Y781095D01*
X918905Y777270D01*
X915612Y772978D01*
X912907Y768292D01*
X910836Y763294D01*
X909436Y758069D01*
X908730Y752705D01*
Y747295D01*
X909436Y741931D01*
X910836Y736706D01*
X912907Y731708D01*
X915612Y727022D01*
X918905Y722730D01*
X922730Y718905D01*
X927022Y715612D01*
X931708Y712907D01*
X936706Y710836D01*
X941931Y709436D01*
X944987Y709034D01*
X945071Y707742D01*
X943115Y707218D01*
X939975Y705405D01*
X937411Y702841D01*
X935598Y699701D01*
X934660Y696199D01*
Y692573D01*
X935598Y689071D01*
X937411Y685931D01*
X939975Y683367D01*
X943115Y681554D01*
X946617Y680616D01*
X950243D01*
X953745Y681554D01*
X956885Y683367D01*
X959449Y685931D01*
X961262Y689071D01*
X962200Y692573D01*
Y696199D01*
X961262Y699701D01*
X959449Y702841D01*
X956885Y705405D01*
X953745Y707218D01*
X952758Y707482D01*
X952705Y708730D01*
X958069Y709436D01*
X963294Y710836D01*
X968292Y712907D01*
X972978Y715612D01*
X977270Y718905D01*
X981095Y722730D01*
X984388Y727022D01*
X987093Y731708D01*
X989164Y736706D01*
X990564Y741931D01*
X991270Y747295D01*
Y752705D01*
X990564Y758069D01*
X989164Y763294D01*
X987093Y768292D01*
X984388Y772978D01*
X981095Y777270D01*
X977270Y781095D01*
X972978Y784388D01*
X968292Y787093D01*
X963294Y789164D01*
X958069Y790564D01*
X952705Y791270D01*
D02*
G37*
G36*
X66047Y704520D02*
X62553D01*
X59178Y703616D01*
X56152Y701869D01*
X53681Y699398D01*
X51934Y696372D01*
X51030Y692997D01*
Y689503D01*
X51934Y686128D01*
X53681Y683102D01*
X56152Y680631D01*
X59178Y678884D01*
X62553Y677980D01*
X66047D01*
X69422Y678884D01*
X72448Y680631D01*
X74919Y683102D01*
X76666Y686128D01*
X77570Y689503D01*
Y692997D01*
X76666Y696372D01*
X74919Y699398D01*
X72448Y701869D01*
X69422Y703616D01*
X66047Y704520D01*
D02*
G37*
G36*
X326176Y675770D02*
X325074D01*
X324056Y675348D01*
X323277Y674569D01*
X323187Y674353D01*
X321813D01*
X321723Y674569D01*
X320944Y675348D01*
X319926Y675770D01*
X318824D01*
X317806Y675348D01*
X317027Y674569D01*
X316605Y673551D01*
Y672449D01*
X317027Y671431D01*
X317806Y670652D01*
X318824Y670230D01*
X319926D01*
X320944Y670652D01*
X321723Y671431D01*
X321813Y671647D01*
X323187D01*
X323277Y671431D01*
X324056Y670652D01*
X325074Y670230D01*
X326176D01*
X327194Y670652D01*
X327973Y671431D01*
X328395Y672449D01*
Y673551D01*
X327973Y674569D01*
X327194Y675348D01*
X326176Y675770D01*
D02*
G37*
G36*
X637551Y679629D02*
X636449D01*
X635431Y679207D01*
X634652Y678428D01*
X634230Y677410D01*
Y676308D01*
X634652Y675290D01*
X635431Y674511D01*
X636449Y674089D01*
X637551D01*
X638569Y674511D01*
X639348Y675290D01*
X639770Y676308D01*
Y677410D01*
X639348Y678428D01*
X638569Y679207D01*
X637551Y679629D01*
D02*
G37*
G36*
X369551Y673770D02*
X368449D01*
X367431Y673348D01*
X366652Y672569D01*
X366289Y671694D01*
X366230Y671551D01*
X365020D01*
X364961Y671694D01*
X364598Y672569D01*
X363819Y673348D01*
X362801Y673770D01*
X361699D01*
X360681Y673348D01*
X359902Y672569D01*
X359480Y671551D01*
Y670449D01*
X359902Y669431D01*
X360681Y668652D01*
X361699Y668230D01*
X362801D01*
X363819Y668652D01*
X364598Y669431D01*
X364961Y670306D01*
X365020Y670449D01*
X366230D01*
X366289Y670306D01*
X366652Y669431D01*
X367431Y668652D01*
X368449Y668230D01*
X369551D01*
X370569Y668652D01*
X371348Y669431D01*
X371770Y670449D01*
Y671551D01*
X371348Y672569D01*
X370569Y673348D01*
X369551Y673770D01*
D02*
G37*
G36*
X122494Y686910D02*
X120306D01*
X118192Y686344D01*
X116298Y685250D01*
X114750Y683702D01*
X113656Y681807D01*
X113090Y679694D01*
Y677506D01*
X113656Y675392D01*
X114750Y673497D01*
X116298Y671950D01*
X118192Y670856D01*
X120306Y670290D01*
X122494D01*
X124607Y670856D01*
X126502Y671950D01*
X128050Y673497D01*
X129144Y675392D01*
X129710Y677506D01*
Y679694D01*
X129144Y681807D01*
X128050Y683702D01*
X126502Y685250D01*
X124607Y686344D01*
X122494Y686910D01*
D02*
G37*
G36*
X760551Y672770D02*
X759449D01*
X758431Y672348D01*
X757652Y671569D01*
X757230Y670551D01*
Y669449D01*
X757652Y668431D01*
X758431Y667652D01*
X759449Y667230D01*
X760551D01*
X761569Y667652D01*
X762348Y668431D01*
X762770Y669449D01*
Y670551D01*
X762348Y671569D01*
X761569Y672348D01*
X760551Y672770D01*
D02*
G37*
G36*
X663551Y670770D02*
X662449D01*
X661431Y670348D01*
X660652Y669569D01*
X660230Y668551D01*
Y667449D01*
X660652Y666431D01*
X661431Y665652D01*
X662449Y665230D01*
X663551D01*
X664569Y665652D01*
X665348Y666431D01*
X665770Y667449D01*
Y668551D01*
X665348Y669569D01*
X664569Y670348D01*
X663551Y670770D01*
D02*
G37*
G36*
X614551Y669770D02*
X613449D01*
X612431Y669348D01*
X611652Y668569D01*
X611230Y667551D01*
Y666449D01*
X611652Y665431D01*
X612431Y664652D01*
X613449Y664230D01*
X614551D01*
X615569Y664652D01*
X616348Y665431D01*
X616770Y666449D01*
Y667551D01*
X616348Y668569D01*
X615569Y669348D01*
X614551Y669770D01*
D02*
G37*
G36*
X698551Y664770D02*
X697449D01*
X696431Y664348D01*
X695652Y663569D01*
X695230Y662551D01*
Y661449D01*
X695652Y660431D01*
X696431Y659652D01*
X697449Y659230D01*
X698551D01*
X699569Y659652D01*
X700348Y660431D01*
X700770Y661449D01*
Y662551D01*
X700348Y663569D01*
X699569Y664348D01*
X698551Y664770D01*
D02*
G37*
G36*
X31701Y690770D02*
X28299D01*
X24962Y690106D01*
X21820Y688804D01*
X18991Y686915D01*
X16586Y684509D01*
X14696Y681680D01*
X13394Y678538D01*
X12730Y675201D01*
Y671799D01*
X13394Y668463D01*
X14696Y665320D01*
X16586Y662491D01*
X18991Y660086D01*
X21820Y658195D01*
X24962Y656894D01*
X28299Y656230D01*
X31701D01*
X35038Y656894D01*
X38180Y658195D01*
X41009Y660086D01*
X43415Y662491D01*
X45304Y665320D01*
X46606Y668463D01*
X47270Y671799D01*
Y675201D01*
X46606Y678538D01*
X45304Y681680D01*
X43415Y684509D01*
X41009Y686915D01*
X38180Y688804D01*
X35038Y690106D01*
X31701Y690770D01*
D02*
G37*
G36*
X595551Y659770D02*
X594449D01*
X593431Y659348D01*
X592652Y658569D01*
X592230Y657551D01*
Y656449D01*
X592652Y655431D01*
X593431Y654652D01*
X594449Y654230D01*
X595551D01*
X596569Y654652D01*
X597348Y655431D01*
X597770Y656449D01*
Y657551D01*
X597348Y658569D01*
X596569Y659348D01*
X595551Y659770D01*
D02*
G37*
G36*
X735551Y657770D02*
X734449D01*
X733431Y657348D01*
X732652Y656569D01*
X732230Y655551D01*
Y654449D01*
X732652Y653431D01*
X733431Y652652D01*
X734449Y652230D01*
X735551D01*
X736569Y652652D01*
X737348Y653431D01*
X737770Y654449D01*
Y655551D01*
X737348Y656569D01*
X736569Y657348D01*
X735551Y657770D01*
D02*
G37*
G36*
X711551Y656770D02*
X710449D01*
X709431Y656348D01*
X708652Y655569D01*
X708230Y654551D01*
Y653449D01*
X708652Y652431D01*
X709431Y651652D01*
X710449Y651230D01*
X711551D01*
X712569Y651652D01*
X713348Y652431D01*
X713770Y653449D01*
Y654551D01*
X713348Y655569D01*
X712569Y656348D01*
X711551Y656770D01*
D02*
G37*
G36*
X913301Y683972D02*
X909899D01*
X906562Y683308D01*
X903419Y682006D01*
X900590Y680116D01*
X898184Y677710D01*
X896294Y674881D01*
X894992Y671738D01*
X894328Y668401D01*
Y664999D01*
X894992Y661662D01*
X896294Y658519D01*
X898184Y655690D01*
X900590Y653284D01*
X903419Y651394D01*
X906562Y650092D01*
X909899Y649428D01*
X913301D01*
X916638Y650092D01*
X919781Y651394D01*
X922610Y653284D01*
X925016Y655690D01*
X926906Y658519D01*
X928208Y661662D01*
X928872Y664999D01*
Y668401D01*
X928208Y671738D01*
X926906Y674881D01*
X925016Y677710D01*
X922610Y680116D01*
X919781Y682006D01*
X916638Y683308D01*
X913301Y683972D01*
D02*
G37*
G36*
X122494Y664010D02*
X120306D01*
X118192Y663444D01*
X116298Y662350D01*
X114750Y660802D01*
X113656Y658907D01*
X113090Y656794D01*
Y654606D01*
X113656Y652492D01*
X114750Y650598D01*
X116298Y649050D01*
X118192Y647956D01*
X120306Y647390D01*
X122494D01*
X124607Y647956D01*
X126502Y649050D01*
X128050Y650598D01*
X129144Y652492D01*
X129710Y654606D01*
Y656794D01*
X129144Y658907D01*
X128050Y660802D01*
X126502Y662350D01*
X124607Y663444D01*
X122494Y664010D01*
D02*
G37*
G36*
X823870Y662890D02*
X821530D01*
X819269Y662284D01*
X817241Y661114D01*
X815586Y659459D01*
X814416Y657431D01*
X813810Y655170D01*
Y652830D01*
X814416Y650569D01*
X815586Y648541D01*
X817241Y646886D01*
X819269Y645716D01*
X821530Y645110D01*
X823870D01*
X826131Y645716D01*
X828159Y646886D01*
X829814Y648541D01*
X830984Y650569D01*
X831590Y652830D01*
Y655170D01*
X830984Y657431D01*
X829814Y659459D01*
X828159Y661114D01*
X826131Y662284D01*
X823870Y662890D01*
D02*
G37*
G36*
X646551Y650633D02*
X645449D01*
X644431Y650211D01*
X643652Y649432D01*
X643230Y648414D01*
Y647312D01*
X643652Y646294D01*
X644431Y645515D01*
X645449Y645093D01*
X646551D01*
X647569Y645515D01*
X648348Y646294D01*
X648770Y647312D01*
Y648414D01*
X648348Y649432D01*
X647569Y650211D01*
X646551Y650633D01*
D02*
G37*
G36*
X634551D02*
X633449D01*
X632431Y650211D01*
X631652Y649432D01*
X631230Y648414D01*
Y647312D01*
X631652Y646294D01*
X632431Y645515D01*
X633449Y645093D01*
X634551D01*
X635569Y645515D01*
X636348Y646294D01*
X636770Y647312D01*
Y648414D01*
X636348Y649432D01*
X635569Y650211D01*
X634551Y650633D01*
D02*
G37*
G36*
X74294Y654010D02*
X72106D01*
X69992Y653444D01*
X68098Y652350D01*
X66550Y650802D01*
X65456Y648907D01*
X64890Y646794D01*
Y644606D01*
X65456Y642492D01*
X66550Y640598D01*
X68098Y639050D01*
X69992Y637956D01*
X72106Y637390D01*
X74294D01*
X76407Y637956D01*
X78302Y639050D01*
X79850Y640598D01*
X80944Y642492D01*
X81510Y644606D01*
Y646794D01*
X80944Y648907D01*
X79850Y650802D01*
X78302Y652350D01*
X76407Y653444D01*
X74294Y654010D01*
D02*
G37*
G36*
X915551Y642770D02*
X914449D01*
X913431Y642348D01*
X912652Y641569D01*
X912230Y640551D01*
Y639449D01*
X912652Y638431D01*
X913431Y637652D01*
X914449Y637230D01*
X915551D01*
X916569Y637652D01*
X917348Y638431D01*
X917770Y639449D01*
Y640551D01*
X917348Y641569D01*
X916569Y642348D01*
X915551Y642770D01*
D02*
G37*
G36*
X640551Y646020D02*
X639449D01*
X638431Y645598D01*
X637652Y644819D01*
X637230Y643801D01*
Y642699D01*
X637652Y641681D01*
X638431Y640902D01*
X638647Y640812D01*
Y639438D01*
X638431Y639348D01*
X637652Y638569D01*
X637230Y637551D01*
Y636449D01*
X637652Y635431D01*
X638431Y634652D01*
X639449Y634230D01*
X640551D01*
X641569Y634652D01*
X642348Y635431D01*
X642770Y636449D01*
Y637551D01*
X642348Y638569D01*
X641569Y639348D01*
X641353Y639438D01*
Y640812D01*
X641569Y640902D01*
X642348Y641681D01*
X642770Y642699D01*
Y643801D01*
X642348Y644819D01*
X641569Y645598D01*
X640551Y646020D01*
D02*
G37*
G36*
X849270Y650190D02*
X846930D01*
X844669Y649584D01*
X842641Y648414D01*
X840986Y646759D01*
X839816Y644731D01*
X839210Y642470D01*
Y640130D01*
X839816Y637869D01*
X840986Y635841D01*
X842641Y634186D01*
X844669Y633016D01*
X846930Y632410D01*
X849270D01*
X851531Y633016D01*
X853559Y634186D01*
X855214Y635841D01*
X856384Y637869D01*
X856990Y640130D01*
Y642470D01*
X856384Y644731D01*
X855214Y646759D01*
X853559Y648414D01*
X851531Y649584D01*
X849270Y650190D01*
D02*
G37*
G36*
X646551Y634633D02*
X645449D01*
X644431Y634212D01*
X643652Y633432D01*
X643230Y632414D01*
Y631312D01*
X643652Y630294D01*
X644431Y629515D01*
X645449Y629093D01*
X646551D01*
X647569Y629515D01*
X648348Y630294D01*
X648770Y631312D01*
Y632414D01*
X648348Y633432D01*
X647569Y634212D01*
X646551Y634633D01*
D02*
G37*
G36*
X634551D02*
X633449D01*
X632431Y634212D01*
X631652Y633432D01*
X631230Y632414D01*
Y631312D01*
X631652Y630294D01*
X632431Y629515D01*
X633449Y629093D01*
X634551D01*
X635569Y629515D01*
X636348Y630294D01*
X636770Y631312D01*
Y632414D01*
X636348Y633432D01*
X635569Y634212D01*
X634551Y634633D01*
D02*
G37*
G36*
X265551Y634270D02*
X264449D01*
X263431Y633848D01*
X262652Y633069D01*
X262230Y632051D01*
Y630949D01*
X262652Y629931D01*
X263431Y629152D01*
X264449Y628730D01*
X265551D01*
X266569Y629152D01*
X267348Y629931D01*
X267770Y630949D01*
Y632051D01*
X267348Y633069D01*
X266569Y633848D01*
X265551Y634270D01*
D02*
G37*
G36*
X177413D02*
X176311D01*
X175293Y633848D01*
X174514Y633069D01*
X174092Y632051D01*
Y630949D01*
X174514Y629931D01*
X175293Y629152D01*
X176311Y628730D01*
X177413D01*
X178431Y629152D01*
X179210Y629931D01*
X179632Y630949D01*
Y632051D01*
X179210Y633069D01*
X178431Y633848D01*
X177413Y634270D01*
D02*
G37*
G36*
X356551Y632770D02*
X355449D01*
X354431Y632348D01*
X353652Y631569D01*
X353230Y630551D01*
Y629449D01*
X353652Y628431D01*
X354431Y627652D01*
X355449Y627230D01*
X356551D01*
X357569Y627652D01*
X358348Y628431D01*
X358770Y629449D01*
Y630551D01*
X358348Y631569D01*
X357569Y632348D01*
X356551Y632770D01*
D02*
G37*
G36*
X56494Y643810D02*
X54306D01*
X52193Y643244D01*
X50297Y642150D01*
X48750Y640602D01*
X47656Y638708D01*
X47090Y636594D01*
Y634406D01*
X47656Y632292D01*
X48750Y630397D01*
X50297Y628850D01*
X52193Y627756D01*
X54306Y627190D01*
X56494D01*
X58608Y627756D01*
X60502Y628850D01*
X62050Y630397D01*
X63144Y632292D01*
X63710Y634406D01*
Y636594D01*
X63144Y638708D01*
X62050Y640602D01*
X60502Y642150D01*
X58608Y643244D01*
X56494Y643810D01*
D02*
G37*
G36*
X646551Y627383D02*
X645449D01*
X644431Y626962D01*
X643652Y626182D01*
X643230Y625164D01*
Y624062D01*
X643652Y623044D01*
X644431Y622265D01*
X645449Y621843D01*
X646551D01*
X647569Y622265D01*
X648348Y623044D01*
X648770Y624062D01*
Y625164D01*
X648348Y626182D01*
X647569Y626962D01*
X646551Y627383D01*
D02*
G37*
G36*
X634551D02*
X633449D01*
X632431Y626962D01*
X631652Y626182D01*
X631230Y625164D01*
Y624062D01*
X631652Y623044D01*
X632431Y622265D01*
X633449Y621843D01*
X634551D01*
X635569Y622265D01*
X636348Y623044D01*
X636770Y624062D01*
Y625164D01*
X636348Y626182D01*
X635569Y626962D01*
X634551Y627383D01*
D02*
G37*
G36*
X442551Y625770D02*
X441449D01*
X440431Y625348D01*
X439652Y624569D01*
X439230Y623551D01*
Y622449D01*
X439652Y621431D01*
X440431Y620652D01*
X441449Y620230D01*
X442551D01*
X443569Y620652D01*
X444348Y621431D01*
X444770Y622449D01*
Y623551D01*
X444348Y624569D01*
X443569Y625348D01*
X442551Y625770D01*
D02*
G37*
G36*
X414551D02*
X413449D01*
X412431Y625348D01*
X411652Y624569D01*
X411230Y623551D01*
Y622449D01*
X411652Y621431D01*
X412431Y620652D01*
X413449Y620230D01*
X414551D01*
X415569Y620652D01*
X416348Y621431D01*
X416770Y622449D01*
Y623551D01*
X416348Y624569D01*
X415569Y625348D01*
X414551Y625770D01*
D02*
G37*
G36*
X823870Y637490D02*
X821530D01*
X819269Y636884D01*
X817241Y635714D01*
X815586Y634059D01*
X814416Y632031D01*
X813810Y629770D01*
Y627430D01*
X814416Y625169D01*
X815586Y623141D01*
X817241Y621486D01*
X819269Y620316D01*
X821530Y619710D01*
X823870D01*
X826131Y620316D01*
X828159Y621486D01*
X829814Y623141D01*
X830984Y625169D01*
X831590Y627430D01*
Y629770D01*
X830984Y632031D01*
X829814Y634059D01*
X828159Y635714D01*
X826131Y636884D01*
X823870Y637490D01*
D02*
G37*
G36*
X74294Y633610D02*
X72106D01*
X69992Y633044D01*
X68098Y631950D01*
X66550Y630402D01*
X65456Y628507D01*
X64890Y626394D01*
Y624206D01*
X65456Y622092D01*
X66550Y620197D01*
X68098Y618650D01*
X69992Y617556D01*
X72106Y616990D01*
X74294D01*
X76407Y617556D01*
X78302Y618650D01*
X79850Y620197D01*
X80944Y622092D01*
X81510Y624206D01*
Y626394D01*
X80944Y628507D01*
X79850Y630402D01*
X78302Y631950D01*
X76407Y633044D01*
X74294Y633610D01*
D02*
G37*
G36*
X640551Y622770D02*
X639449D01*
X638431Y622348D01*
X637652Y621569D01*
X637230Y620551D01*
Y619449D01*
X637652Y618431D01*
X638431Y617652D01*
X638647Y617562D01*
Y616188D01*
X638431Y616098D01*
X637652Y615319D01*
X637230Y614301D01*
Y613199D01*
X637652Y612181D01*
X638431Y611402D01*
X639449Y610980D01*
X640551D01*
X641569Y611402D01*
X642348Y612181D01*
X642770Y613199D01*
Y614301D01*
X642348Y615319D01*
X641569Y616098D01*
X641353Y616188D01*
Y617562D01*
X641569Y617652D01*
X642348Y618431D01*
X642770Y619449D01*
Y620551D01*
X642348Y621569D01*
X641569Y622348D01*
X640551Y622770D01*
D02*
G37*
G36*
X634551Y611383D02*
X633449D01*
X632431Y610961D01*
X631652Y610182D01*
X631230Y609164D01*
X631230Y608289D01*
X630013Y607935D01*
X629972Y607972D01*
X629972Y607972D01*
X629972D01*
X629863Y608081D01*
X627972Y609972D01*
X627000Y610375D01*
X627000Y610375D01*
X617000D01*
X616028Y609972D01*
X616028Y609972D01*
X614886Y608830D01*
X613114Y608830D01*
X611972Y609972D01*
X611972Y609972D01*
X611000Y610375D01*
X611000Y610375D01*
X519000D01*
X518028Y609972D01*
X518028Y609972D01*
X516886Y608830D01*
X515113Y608830D01*
X513972Y609972D01*
X513000Y610375D01*
X513000Y610375D01*
X444332D01*
X443360Y609972D01*
X443359Y609972D01*
X443357Y609969D01*
X442477Y609605D01*
X441524D01*
X440643Y609969D01*
X440640Y609972D01*
X439668Y610375D01*
X439668Y610375D01*
X365000D01*
X364028Y609972D01*
X364028Y609972D01*
X362028Y607972D01*
X361625Y607000D01*
X361625Y607000D01*
Y537978D01*
X360452Y537492D01*
X359972Y537972D01*
X359000Y538375D01*
X359000Y538375D01*
X348000D01*
X347028Y537972D01*
X347028Y537972D01*
X345028Y535972D01*
X344625Y535000D01*
X344625Y535000D01*
Y318000D01*
X344625Y318000D01*
X345028Y317028D01*
X345028Y317028D01*
X347028Y315028D01*
X348000Y314625D01*
X348000Y314625D01*
X554000Y314625D01*
X554972Y315028D01*
X554972Y315028D01*
X556972Y317028D01*
X557375Y318000D01*
X557375Y318000D01*
Y328000D01*
X556972Y328972D01*
X556904Y329386D01*
X557862Y330625D01*
X627000D01*
X627972Y331028D01*
X627972Y331028D01*
X629972Y333028D01*
X630375Y334000D01*
X630375Y334000D01*
X630375Y533933D01*
X631645Y534186D01*
X631652Y534169D01*
X632431Y533390D01*
X633449Y532968D01*
X634551D01*
X635569Y533390D01*
X636348Y534169D01*
X636770Y535187D01*
Y536289D01*
X636348Y537307D01*
X635569Y538087D01*
X634551Y538508D01*
X633449D01*
X632431Y538087D01*
X631652Y537307D01*
X631645Y537290D01*
X630375Y537543D01*
Y549934D01*
X631645Y550186D01*
X631652Y550169D01*
X632431Y549390D01*
X633449Y548968D01*
X634551D01*
X635569Y549390D01*
X636348Y550169D01*
X636770Y551187D01*
Y552289D01*
X636348Y553307D01*
X635569Y554086D01*
X634551Y554508D01*
X633449D01*
X632431Y554086D01*
X631652Y553307D01*
X631645Y553290D01*
X630375Y553543D01*
Y606538D01*
X630375Y606750D01*
X631608Y607088D01*
X631652Y607044D01*
X631726Y606969D01*
X632431Y606265D01*
X633449Y605843D01*
X634551D01*
X635569Y606265D01*
X636348Y607044D01*
X636770Y608062D01*
Y609164D01*
X636348Y610182D01*
X635569Y610961D01*
X634551Y611383D01*
D02*
G37*
G36*
X849270Y624790D02*
X846930D01*
X844669Y624184D01*
X842641Y623014D01*
X840986Y621359D01*
X839816Y619331D01*
X839210Y617070D01*
Y614730D01*
X839816Y612469D01*
X840986Y610441D01*
X842641Y608786D01*
X844669Y607616D01*
X846930Y607010D01*
X849270D01*
X851531Y607616D01*
X853559Y608786D01*
X855214Y610441D01*
X856384Y612469D01*
X856990Y614730D01*
Y617070D01*
X856384Y619331D01*
X855214Y621359D01*
X853559Y623014D01*
X851531Y624184D01*
X849270Y624790D01*
D02*
G37*
G36*
X56494Y623410D02*
X54306D01*
X52193Y622844D01*
X50297Y621750D01*
X48750Y620202D01*
X47656Y618307D01*
X47090Y616194D01*
Y614006D01*
X47656Y611892D01*
X48750Y609997D01*
X50297Y608450D01*
X52193Y607356D01*
X54306Y606790D01*
X56494D01*
X58608Y607356D01*
X60502Y608450D01*
X62050Y609997D01*
X63144Y611892D01*
X63710Y614006D01*
Y616194D01*
X63144Y618307D01*
X62050Y620202D01*
X60502Y621750D01*
X58608Y622844D01*
X56494Y623410D01*
D02*
G37*
G36*
X646551Y611383D02*
X645449D01*
X644431Y610961D01*
X643652Y610182D01*
X643230Y609164D01*
Y608062D01*
X643652Y607044D01*
X644431Y606265D01*
X645449Y605843D01*
X646551D01*
X647569Y606265D01*
X648348Y607044D01*
X648770Y608062D01*
Y609164D01*
X648348Y610182D01*
X647569Y610961D01*
X646551Y611383D01*
D02*
G37*
G36*
X735551Y607770D02*
X734449D01*
X733431Y607348D01*
X732652Y606569D01*
X732230Y605551D01*
Y604449D01*
X732652Y603431D01*
X733431Y602652D01*
X734449Y602230D01*
X735551D01*
X736569Y602652D01*
X737348Y603431D01*
X737770Y604449D01*
Y605551D01*
X737348Y606569D01*
X736569Y607348D01*
X735551Y607770D01*
D02*
G37*
G36*
X280551D02*
X279449D01*
X278431Y607348D01*
X277652Y606569D01*
X277230Y605551D01*
Y604449D01*
X277652Y603431D01*
X278431Y602652D01*
X279449Y602230D01*
X280551D01*
X281569Y602652D01*
X282348Y603431D01*
X282770Y604449D01*
Y605551D01*
X282348Y606569D01*
X281569Y607348D01*
X280551Y607770D01*
D02*
G37*
G36*
X659551Y602770D02*
X658449D01*
X657431Y602348D01*
X656652Y601569D01*
X656230Y600551D01*
Y599449D01*
X656652Y598431D01*
X657431Y597652D01*
X658449Y597230D01*
X659551D01*
X660569Y597652D01*
X661348Y598431D01*
X661770Y599449D01*
Y600551D01*
X661348Y601569D01*
X660569Y602348D01*
X659551Y602770D01*
D02*
G37*
G36*
X74294Y613210D02*
X72106D01*
X69992Y612644D01*
X68098Y611550D01*
X66550Y610002D01*
X65456Y608107D01*
X64890Y605994D01*
Y603806D01*
X65456Y601692D01*
X66550Y599798D01*
X68098Y598250D01*
X69992Y597156D01*
X72106Y596590D01*
X74294D01*
X76407Y597156D01*
X78302Y598250D01*
X79850Y599798D01*
X80944Y601692D01*
X81510Y603806D01*
Y605994D01*
X80944Y608107D01*
X79850Y610002D01*
X78302Y611550D01*
X76407Y612644D01*
X74294Y613210D01*
D02*
G37*
G36*
X698551Y601270D02*
X697449D01*
X696431Y600848D01*
X695652Y600069D01*
X695230Y599051D01*
Y597949D01*
X695652Y596931D01*
X696431Y596152D01*
X697449Y595730D01*
X698551D01*
X699569Y596152D01*
X700348Y596931D01*
X700770Y597949D01*
Y599051D01*
X700348Y600069D01*
X699569Y600848D01*
X698551Y601270D01*
D02*
G37*
G36*
X823870Y612090D02*
X821530D01*
X819269Y611484D01*
X817241Y610314D01*
X815586Y608659D01*
X814416Y606631D01*
X813810Y604370D01*
Y602030D01*
X814416Y599769D01*
X815586Y597741D01*
X817241Y596086D01*
X819269Y594916D01*
X821530Y594310D01*
X823870D01*
X826131Y594916D01*
X828159Y596086D01*
X829814Y597741D01*
X830984Y599769D01*
X831590Y602030D01*
Y604370D01*
X830984Y606631D01*
X829814Y608659D01*
X828159Y610314D01*
X826131Y611484D01*
X823870Y612090D01*
D02*
G37*
G36*
X735551Y595770D02*
X734449D01*
X733431Y595348D01*
X732652Y594569D01*
X732230Y593551D01*
Y592449D01*
X732652Y591431D01*
X733431Y590652D01*
X734449Y590230D01*
X735551D01*
X736569Y590652D01*
X737348Y591431D01*
X737770Y592449D01*
Y593551D01*
X737348Y594569D01*
X736569Y595348D01*
X735551Y595770D01*
D02*
G37*
G36*
X759551Y593770D02*
X758449D01*
X757431Y593348D01*
X756652Y592569D01*
X756230Y591551D01*
Y590449D01*
X756652Y589431D01*
X757431Y588652D01*
X758449Y588230D01*
X759551D01*
X760569Y588652D01*
X761348Y589431D01*
X761770Y590449D01*
Y591551D01*
X761348Y592569D01*
X760569Y593348D01*
X759551Y593770D01*
D02*
G37*
G36*
X56494Y603010D02*
X54306D01*
X52193Y602444D01*
X50297Y601350D01*
X48750Y599802D01*
X47656Y597907D01*
X47090Y595794D01*
Y593606D01*
X47656Y591492D01*
X48750Y589598D01*
X50297Y588050D01*
X52193Y586956D01*
X54306Y586390D01*
X56494D01*
X58608Y586956D01*
X60502Y588050D01*
X62050Y589598D01*
X63144Y591492D01*
X63710Y593606D01*
Y595794D01*
X63144Y597907D01*
X62050Y599802D01*
X60502Y601350D01*
X58608Y602444D01*
X56494Y603010D01*
D02*
G37*
G36*
X849270Y599390D02*
X846930D01*
X844669Y598784D01*
X842641Y597614D01*
X840986Y595959D01*
X839816Y593931D01*
X839210Y591670D01*
Y589330D01*
X839816Y587069D01*
X840986Y585041D01*
X842641Y583386D01*
X844669Y582216D01*
X846930Y581610D01*
X849270D01*
X851531Y582216D01*
X853559Y583386D01*
X855214Y585041D01*
X856384Y587069D01*
X856990Y589330D01*
Y591670D01*
X856384Y593931D01*
X855214Y595959D01*
X853559Y597614D01*
X851531Y598784D01*
X849270Y599390D01*
D02*
G37*
G36*
X759551Y582770D02*
X758449D01*
X757431Y582348D01*
X756652Y581569D01*
X756230Y580551D01*
Y579449D01*
X756652Y578431D01*
X757431Y577652D01*
X758449Y577230D01*
X759551D01*
X760569Y577652D01*
X761348Y578431D01*
X761770Y579449D01*
Y580551D01*
X761348Y581569D01*
X760569Y582348D01*
X759551Y582770D01*
D02*
G37*
G36*
X74294Y592810D02*
X72106D01*
X69992Y592244D01*
X68098Y591150D01*
X66550Y589602D01*
X65456Y587707D01*
X64890Y585594D01*
Y583406D01*
X65456Y581292D01*
X66550Y579398D01*
X68098Y577850D01*
X69992Y576756D01*
X72106Y576190D01*
X74294D01*
X76407Y576756D01*
X78302Y577850D01*
X79850Y579398D01*
X80944Y581292D01*
X81510Y583406D01*
Y585594D01*
X80944Y587707D01*
X79850Y589602D01*
X78302Y591150D01*
X76407Y592244D01*
X74294Y592810D01*
D02*
G37*
G36*
X952551Y577770D02*
X951449D01*
X950431Y577348D01*
X949652Y576569D01*
X949230Y575551D01*
Y574449D01*
X949652Y573431D01*
X950431Y572652D01*
X951449Y572230D01*
X952551D01*
X953569Y572652D01*
X954348Y573431D01*
X954770Y574449D01*
Y575551D01*
X954348Y576569D01*
X953569Y577348D01*
X952551Y577770D01*
D02*
G37*
G36*
X823870Y586690D02*
X821530D01*
X819269Y586084D01*
X817241Y584914D01*
X815586Y583259D01*
X814416Y581231D01*
X813810Y578970D01*
Y576630D01*
X814416Y574369D01*
X815586Y572341D01*
X817241Y570686D01*
X819269Y569516D01*
X821530Y568910D01*
X823870D01*
X826131Y569516D01*
X828159Y570686D01*
X829814Y572341D01*
X830984Y574369D01*
X831590Y576630D01*
Y578970D01*
X830984Y581231D01*
X829814Y583259D01*
X828159Y584914D01*
X826131Y586084D01*
X823870Y586690D01*
D02*
G37*
G36*
X759551Y572770D02*
X758449D01*
X757431Y572348D01*
X756652Y571569D01*
X756230Y570551D01*
Y569449D01*
X756652Y568431D01*
X757431Y567652D01*
X758449Y567230D01*
X759551D01*
X760569Y567652D01*
X761348Y568431D01*
X761770Y569449D01*
Y570551D01*
X761348Y571569D01*
X760569Y572348D01*
X759551Y572770D01*
D02*
G37*
G36*
X63710Y582610D02*
X47090D01*
Y565990D01*
X63710D01*
Y582610D01*
D02*
G37*
G36*
X265551Y570770D02*
X264449D01*
X263431Y570348D01*
X262652Y569569D01*
X262230Y568551D01*
Y567449D01*
X262652Y566431D01*
X263431Y565652D01*
X264449Y565230D01*
X265551D01*
X266569Y565652D01*
X267348Y566431D01*
X267770Y567449D01*
Y568551D01*
X267348Y569569D01*
X266569Y570348D01*
X265551Y570770D01*
D02*
G37*
G36*
X177413D02*
X176311D01*
X175293Y570348D01*
X174514Y569569D01*
X174092Y568551D01*
Y567449D01*
X174514Y566431D01*
X175293Y565652D01*
X176311Y565230D01*
X177413D01*
X178431Y565652D01*
X179210Y566431D01*
X179632Y567449D01*
Y568551D01*
X179210Y569569D01*
X178431Y570348D01*
X177413Y570770D01*
D02*
G37*
G36*
X849270Y573990D02*
X846930D01*
X844669Y573384D01*
X842641Y572214D01*
X840986Y570559D01*
X839816Y568531D01*
X839210Y566270D01*
Y563930D01*
X839816Y561669D01*
X840986Y559641D01*
X842641Y557986D01*
X844669Y556816D01*
X846930Y556210D01*
X849270D01*
X851531Y556816D01*
X853559Y557986D01*
X855214Y559641D01*
X856384Y561669D01*
X856990Y563930D01*
Y566270D01*
X856384Y568531D01*
X855214Y570559D01*
X853559Y572214D01*
X851531Y573384D01*
X849270Y573990D01*
D02*
G37*
G36*
X122494Y572610D02*
X120306D01*
X118192Y572044D01*
X116298Y570950D01*
X114750Y569402D01*
X113656Y567508D01*
X113090Y565394D01*
Y563206D01*
X113656Y561092D01*
X114750Y559198D01*
X116298Y557650D01*
X118192Y556556D01*
X120306Y555990D01*
X122494D01*
X124607Y556556D01*
X126502Y557650D01*
X128050Y559198D01*
X129144Y561092D01*
X129710Y563206D01*
Y565394D01*
X129144Y567508D01*
X128050Y569402D01*
X126502Y570950D01*
X124607Y572044D01*
X122494Y572610D01*
D02*
G37*
G36*
X646551Y554508D02*
X645449D01*
X644431Y554086D01*
X643652Y553307D01*
X643230Y552289D01*
Y551187D01*
X643652Y550169D01*
X644431Y549390D01*
X645449Y548968D01*
X646551D01*
X647569Y549390D01*
X648348Y550169D01*
X648770Y551187D01*
Y552289D01*
X648348Y553307D01*
X647569Y554086D01*
X646551Y554508D01*
D02*
G37*
G36*
X280551Y547770D02*
X279449D01*
X278431Y547348D01*
X277652Y546569D01*
X277230Y545551D01*
Y544449D01*
X277652Y543431D01*
X278431Y542652D01*
X279449Y542230D01*
X280551D01*
X281569Y542652D01*
X282348Y543431D01*
X282770Y544449D01*
Y545551D01*
X282348Y546569D01*
X281569Y547348D01*
X280551Y547770D01*
D02*
G37*
G36*
X640551Y549895D02*
X639449D01*
X638431Y549473D01*
X637652Y548694D01*
X637230Y547676D01*
Y546574D01*
X637652Y545556D01*
X638431Y544777D01*
X638647Y544687D01*
Y543313D01*
X638431Y543223D01*
X637652Y542444D01*
X637230Y541426D01*
Y540324D01*
X637652Y539306D01*
X638431Y538527D01*
X639449Y538105D01*
X640551D01*
X641569Y538527D01*
X642348Y539306D01*
X642770Y540324D01*
Y541426D01*
X642348Y542444D01*
X641569Y543223D01*
X641353Y543313D01*
Y544687D01*
X641569Y544777D01*
X642348Y545556D01*
X642770Y546574D01*
Y547676D01*
X642348Y548694D01*
X641569Y549473D01*
X640551Y549895D01*
D02*
G37*
G36*
X122494Y549710D02*
X120306D01*
X118192Y549144D01*
X116298Y548050D01*
X114750Y546502D01*
X113656Y544608D01*
X113090Y542494D01*
Y540306D01*
X113656Y538192D01*
X114750Y536297D01*
X116298Y534750D01*
X118192Y533656D01*
X120306Y533090D01*
X122494D01*
X124607Y533656D01*
X126502Y534750D01*
X128050Y536297D01*
X129144Y538192D01*
X129710Y540306D01*
Y542494D01*
X129144Y544608D01*
X128050Y546502D01*
X126502Y548050D01*
X124607Y549144D01*
X122494Y549710D01*
D02*
G37*
G36*
X646551Y538508D02*
X645449D01*
X644431Y538087D01*
X643652Y537307D01*
X643230Y536289D01*
Y535187D01*
X643652Y534169D01*
X644431Y533390D01*
X645449Y532968D01*
X646551D01*
X647569Y533390D01*
X648348Y534169D01*
X648770Y535187D01*
Y536289D01*
X648348Y537307D01*
X647569Y538087D01*
X646551Y538508D01*
D02*
G37*
G36*
X273551Y537770D02*
X272449D01*
X271431Y537348D01*
X270652Y536569D01*
X270230Y535551D01*
Y534449D01*
X270652Y533431D01*
X271431Y532652D01*
X272449Y532230D01*
X273551D01*
X274569Y532652D01*
X275348Y533431D01*
X275770Y534449D01*
Y535551D01*
X275348Y536569D01*
X274569Y537348D01*
X273551Y537770D01*
D02*
G37*
G36*
X265301D02*
X264199D01*
X263181Y537348D01*
X262402Y536569D01*
X261980Y535551D01*
Y534449D01*
X262402Y533431D01*
X263181Y532652D01*
X264199Y532230D01*
X265301D01*
X266319Y532652D01*
X267098Y533431D01*
X267520Y534449D01*
Y535551D01*
X267098Y536569D01*
X266319Y537348D01*
X265301Y537770D01*
D02*
G37*
G36*
X31701Y563770D02*
X28299D01*
X24962Y563106D01*
X21820Y561804D01*
X18991Y559915D01*
X16586Y557509D01*
X14696Y554680D01*
X13394Y551538D01*
X12730Y548201D01*
Y544799D01*
X13394Y541463D01*
X14696Y538320D01*
X16586Y535491D01*
X18991Y533086D01*
X21820Y531195D01*
X24962Y529894D01*
X28299Y529230D01*
X31701D01*
X35038Y529894D01*
X38180Y531195D01*
X41009Y533086D01*
X43415Y535491D01*
X45304Y538320D01*
X46606Y541463D01*
X47270Y544799D01*
Y548201D01*
X46606Y551538D01*
X45304Y554680D01*
X43415Y557509D01*
X41009Y559915D01*
X38180Y561804D01*
X35038Y563106D01*
X31701Y563770D01*
D02*
G37*
G36*
X811813Y553470D02*
X808187D01*
X804685Y552532D01*
X801545Y550719D01*
X798981Y548155D01*
X797168Y545015D01*
X796230Y541513D01*
Y537887D01*
X797168Y534385D01*
X798981Y531245D01*
X801545Y528681D01*
X804685Y526868D01*
X808187Y525930D01*
X811813D01*
X815315Y526868D01*
X818455Y528681D01*
X821019Y531245D01*
X822832Y534385D01*
X823770Y537887D01*
Y541513D01*
X822832Y545015D01*
X821019Y548155D01*
X818455Y550719D01*
X815315Y552532D01*
X811813Y553470D01*
D02*
G37*
G36*
X760551Y522770D02*
X759449D01*
X758431Y522348D01*
X757652Y521569D01*
X757230Y520551D01*
Y519449D01*
X757652Y518431D01*
X758431Y517652D01*
X759449Y517230D01*
X760551D01*
X761569Y517652D01*
X762348Y518431D01*
X762770Y519449D01*
Y520551D01*
X762348Y521569D01*
X761569Y522348D01*
X760551Y522770D01*
D02*
G37*
G36*
X66047Y542020D02*
X62553D01*
X59178Y541116D01*
X56152Y539369D01*
X53681Y536898D01*
X51934Y533872D01*
X51030Y530497D01*
Y527003D01*
X51934Y523628D01*
X53681Y520602D01*
X56152Y518131D01*
X59178Y516384D01*
X62553Y515480D01*
X66047D01*
X69422Y516384D01*
X72448Y518131D01*
X74919Y520602D01*
X76666Y523628D01*
X77570Y527003D01*
Y530497D01*
X76666Y533872D01*
X74919Y536898D01*
X72448Y539369D01*
X69422Y541116D01*
X66047Y542020D01*
D02*
G37*
G36*
X146551Y517770D02*
X145449D01*
X144431Y517348D01*
X143652Y516569D01*
X143230Y515551D01*
Y514449D01*
X143652Y513431D01*
X144431Y512652D01*
X145449Y512230D01*
X146551D01*
X147569Y512652D01*
X148348Y513431D01*
X148770Y514449D01*
Y515551D01*
X148348Y516569D01*
X147569Y517348D01*
X146551Y517770D01*
D02*
G37*
G36*
X698551Y514770D02*
X697449D01*
X696431Y514348D01*
X695652Y513569D01*
X695230Y512551D01*
Y511449D01*
X695652Y510431D01*
X696431Y509652D01*
X697449Y509230D01*
X698551D01*
X699569Y509652D01*
X700348Y510431D01*
X700770Y511449D01*
Y512551D01*
X700348Y513569D01*
X699569Y514348D01*
X698551Y514770D01*
D02*
G37*
G36*
X659551Y512770D02*
X658449D01*
X657431Y512348D01*
X656652Y511569D01*
X656230Y510551D01*
Y509449D01*
X656652Y508431D01*
X657431Y507652D01*
X658449Y507230D01*
X659551D01*
X660569Y507652D01*
X661348Y508431D01*
X661770Y509449D01*
Y510551D01*
X661348Y511569D01*
X660569Y512348D01*
X659551Y512770D01*
D02*
G37*
G36*
X823870Y523190D02*
X821530D01*
X819269Y522584D01*
X817241Y521414D01*
X815586Y519759D01*
X814416Y517731D01*
X813810Y515470D01*
Y513130D01*
X814416Y510869D01*
X815586Y508841D01*
X817241Y507186D01*
X819269Y506016D01*
X821530Y505410D01*
X823870D01*
X826131Y506016D01*
X828159Y507186D01*
X829814Y508841D01*
X830984Y510869D01*
X831590Y513130D01*
Y515470D01*
X830984Y517731D01*
X829814Y519759D01*
X828159Y521414D01*
X826131Y522584D01*
X823870Y523190D01*
D02*
G37*
G36*
X735551Y507770D02*
X734449D01*
X733431Y507348D01*
X732652Y506569D01*
X732230Y505551D01*
Y504449D01*
X732652Y503431D01*
X733431Y502652D01*
X734449Y502230D01*
X735551D01*
X736569Y502652D01*
X737348Y503431D01*
X737770Y504449D01*
Y505551D01*
X737348Y506569D01*
X736569Y507348D01*
X735551Y507770D01*
D02*
G37*
G36*
X849270Y510490D02*
X846930D01*
X844669Y509884D01*
X842641Y508714D01*
X840986Y507059D01*
X839816Y505031D01*
X839210Y502770D01*
Y500430D01*
X839816Y498169D01*
X840986Y496141D01*
X842641Y494486D01*
X844669Y493316D01*
X846930Y492710D01*
X849270D01*
X851531Y493316D01*
X853559Y494486D01*
X855214Y496141D01*
X856384Y498169D01*
X856990Y500430D01*
Y502770D01*
X856384Y505031D01*
X855214Y507059D01*
X853559Y508714D01*
X851531Y509884D01*
X849270Y510490D01*
D02*
G37*
G36*
X672164Y489770D02*
X671062D01*
X670044Y489348D01*
X669265Y488569D01*
X668843Y487551D01*
Y486449D01*
X669265Y485431D01*
X670044Y484652D01*
X671062Y484230D01*
X672164D01*
X673182Y484652D01*
X673961Y485431D01*
X674383Y486449D01*
Y487551D01*
X673961Y488569D01*
X673182Y489348D01*
X672164Y489770D01*
D02*
G37*
G36*
X656164D02*
X655062D01*
X654044Y489348D01*
X653265Y488569D01*
X652843Y487551D01*
Y486449D01*
X653265Y485431D01*
X654044Y484652D01*
X655062Y484230D01*
X656164D01*
X657182Y484652D01*
X657962Y485431D01*
X658383Y486449D01*
Y487551D01*
X657962Y488569D01*
X657182Y489348D01*
X656164Y489770D01*
D02*
G37*
G36*
X667551Y483770D02*
X666449D01*
X665431Y483348D01*
X664652Y482569D01*
X664562Y482353D01*
X663188D01*
X663098Y482569D01*
X662319Y483348D01*
X661301Y483770D01*
X660199D01*
X659181Y483348D01*
X658402Y482569D01*
X657980Y481551D01*
Y480449D01*
X658402Y479431D01*
X659181Y478652D01*
X660199Y478230D01*
X661301D01*
X662319Y478652D01*
X663098Y479431D01*
X663188Y479647D01*
X664562D01*
X664652Y479431D01*
X665431Y478652D01*
X666449Y478230D01*
X667551D01*
X668569Y478652D01*
X669348Y479431D01*
X669770Y480449D01*
Y481551D01*
X669348Y482569D01*
X668569Y483348D01*
X667551Y483770D01*
D02*
G37*
G36*
X823870Y497790D02*
X821530D01*
X819269Y497184D01*
X817241Y496014D01*
X815586Y494359D01*
X814416Y492331D01*
X813810Y490070D01*
Y487730D01*
X814416Y485469D01*
X815586Y483441D01*
X817241Y481786D01*
X819269Y480616D01*
X821530Y480010D01*
X823870D01*
X826131Y480616D01*
X828159Y481786D01*
X829814Y483441D01*
X830984Y485469D01*
X831590Y487730D01*
Y490070D01*
X830984Y492331D01*
X829814Y494359D01*
X828159Y496014D01*
X826131Y497184D01*
X823870Y497790D01*
D02*
G37*
G36*
X672164Y477770D02*
X671062D01*
X670044Y477348D01*
X669265Y476569D01*
X668843Y475551D01*
Y474449D01*
X669265Y473431D01*
X670044Y472652D01*
X671062Y472230D01*
X672164D01*
X673182Y472652D01*
X673961Y473431D01*
X674383Y474449D01*
Y475551D01*
X673961Y476569D01*
X673182Y477348D01*
X672164Y477770D01*
D02*
G37*
G36*
X656164D02*
X655062D01*
X654044Y477348D01*
X653265Y476569D01*
X652843Y475551D01*
Y474449D01*
X653265Y473431D01*
X654044Y472652D01*
X655062Y472230D01*
X656164D01*
X657182Y472652D01*
X657962Y473431D01*
X658383Y474449D01*
Y475551D01*
X657962Y476569D01*
X657182Y477348D01*
X656164Y477770D01*
D02*
G37*
G36*
X849270Y485090D02*
X846930D01*
X844669Y484484D01*
X842641Y483314D01*
X840986Y481659D01*
X839816Y479631D01*
X839210Y477370D01*
Y475030D01*
X839816Y472769D01*
X840986Y470741D01*
X842641Y469086D01*
X844669Y467916D01*
X846930Y467310D01*
X849270D01*
X851531Y467916D01*
X853559Y469086D01*
X855214Y470741D01*
X856384Y472769D01*
X856990Y475030D01*
Y477370D01*
X856384Y479631D01*
X855214Y481659D01*
X853559Y483314D01*
X851531Y484484D01*
X849270Y485090D01*
D02*
G37*
G36*
X952551Y467770D02*
X951449D01*
X950431Y467348D01*
X949652Y466569D01*
X949230Y465551D01*
Y464449D01*
X949652Y463431D01*
X950431Y462652D01*
X951449Y462230D01*
X952551D01*
X953569Y462652D01*
X954348Y463431D01*
X954770Y464449D01*
Y465551D01*
X954348Y466569D01*
X953569Y467348D01*
X952551Y467770D01*
D02*
G37*
G36*
X823870Y472390D02*
X821530D01*
X819269Y471784D01*
X817241Y470614D01*
X815586Y468959D01*
X814416Y466931D01*
X813810Y464670D01*
Y462330D01*
X814416Y460069D01*
X815586Y458041D01*
X817241Y456386D01*
X819269Y455216D01*
X821530Y454610D01*
X823870D01*
X826131Y455216D01*
X828159Y456386D01*
X829814Y458041D01*
X830984Y460069D01*
X831590Y462330D01*
Y464670D01*
X830984Y466931D01*
X829814Y468959D01*
X828159Y470614D01*
X826131Y471784D01*
X823870Y472390D01*
D02*
G37*
G36*
X659551Y452770D02*
X658449D01*
X657431Y452348D01*
X656652Y451569D01*
X656230Y450551D01*
Y449449D01*
X656652Y448431D01*
X657431Y447652D01*
X658449Y447230D01*
X659551D01*
X660569Y447652D01*
X661348Y448431D01*
X661770Y449449D01*
Y450551D01*
X661348Y451569D01*
X660569Y452348D01*
X659551Y452770D01*
D02*
G37*
G36*
X698551Y451270D02*
X697449D01*
X696431Y450848D01*
X695652Y450069D01*
X695230Y449051D01*
Y447949D01*
X695652Y446931D01*
X696431Y446152D01*
X697449Y445730D01*
X698551D01*
X699569Y446152D01*
X700348Y446931D01*
X700770Y447949D01*
Y449051D01*
X700348Y450069D01*
X699569Y450848D01*
X698551Y451270D01*
D02*
G37*
G36*
X216551Y448770D02*
X215449D01*
X214431Y448348D01*
X213652Y447569D01*
X213230Y446551D01*
Y445449D01*
X213652Y444431D01*
X214431Y443652D01*
X215449Y443230D01*
X216551D01*
X217569Y443652D01*
X218348Y444431D01*
X218770Y445449D01*
Y446551D01*
X218348Y447569D01*
X217569Y448348D01*
X216551Y448770D01*
D02*
G37*
G36*
X300551Y447770D02*
X299449D01*
X298431Y447348D01*
X297652Y446569D01*
X297230Y445551D01*
Y444449D01*
X297652Y443431D01*
X298431Y442652D01*
X299449Y442230D01*
X300551D01*
X301569Y442652D01*
X302348Y443431D01*
X302770Y444449D01*
Y445551D01*
X302348Y446569D01*
X301569Y447348D01*
X300551Y447770D01*
D02*
G37*
G36*
X849270Y459690D02*
X846930D01*
X844669Y459084D01*
X842641Y457914D01*
X840986Y456259D01*
X839816Y454231D01*
X839210Y451970D01*
Y449630D01*
X839816Y447369D01*
X840986Y445341D01*
X842641Y443686D01*
X844669Y442516D01*
X846930Y441910D01*
X849270D01*
X851531Y442516D01*
X853559Y443686D01*
X855214Y445341D01*
X856384Y447369D01*
X856990Y449630D01*
Y451970D01*
X856384Y454231D01*
X855214Y456259D01*
X853559Y457914D01*
X851531Y459084D01*
X849270Y459690D01*
D02*
G37*
G36*
X759551Y443770D02*
X758449D01*
X757431Y443348D01*
X756652Y442569D01*
X756230Y441551D01*
Y440449D01*
X756652Y439431D01*
X757431Y438652D01*
X758449Y438230D01*
X759551D01*
X760569Y438652D01*
X761348Y439431D01*
X761770Y440449D01*
Y441551D01*
X761348Y442569D01*
X760569Y443348D01*
X759551Y443770D01*
D02*
G37*
G36*
X270551Y440770D02*
X269449D01*
X268431Y440348D01*
X267652Y439569D01*
X267230Y438551D01*
Y437449D01*
X267652Y436431D01*
X268431Y435652D01*
X269449Y435230D01*
X270551D01*
X271569Y435652D01*
X272348Y436431D01*
X272770Y437449D01*
Y438551D01*
X272348Y439569D01*
X271569Y440348D01*
X270551Y440770D01*
D02*
G37*
G36*
X823870Y446990D02*
X821530D01*
X819269Y446384D01*
X817241Y445214D01*
X815586Y443559D01*
X814416Y441531D01*
X813810Y439270D01*
Y436930D01*
X814416Y434669D01*
X815586Y432641D01*
X817241Y430986D01*
X819269Y429816D01*
X821530Y429210D01*
X823870D01*
X826131Y429816D01*
X828159Y430986D01*
X829814Y432641D01*
X830984Y434669D01*
X831590Y436930D01*
Y439270D01*
X830984Y441531D01*
X829814Y443559D01*
X828159Y445214D01*
X826131Y446384D01*
X823870Y446990D01*
D02*
G37*
G36*
X759551Y432770D02*
X758449D01*
X757431Y432348D01*
X756652Y431569D01*
X756230Y430551D01*
Y429449D01*
X756652Y428431D01*
X757431Y427652D01*
X758449Y427230D01*
X759551D01*
X760569Y427652D01*
X761348Y428431D01*
X761770Y429449D01*
Y430551D01*
X761348Y431569D01*
X760569Y432348D01*
X759551Y432770D01*
D02*
G37*
G36*
Y422770D02*
X758449D01*
X757431Y422348D01*
X756652Y421569D01*
X756230Y420551D01*
Y419449D01*
X756652Y418431D01*
X757431Y417652D01*
X758449Y417230D01*
X759551D01*
X760569Y417652D01*
X761348Y418431D01*
X761770Y419449D01*
Y420551D01*
X761348Y421569D01*
X760569Y422348D01*
X759551Y422770D01*
D02*
G37*
G36*
X849270Y434290D02*
X846930D01*
X844669Y433684D01*
X842641Y432514D01*
X840986Y430859D01*
X839816Y428831D01*
X839210Y426570D01*
Y424230D01*
X839816Y421969D01*
X840986Y419941D01*
X842641Y418286D01*
X844669Y417116D01*
X846930Y416510D01*
X849270D01*
X851531Y417116D01*
X853559Y418286D01*
X855214Y419941D01*
X856384Y421969D01*
X856990Y424230D01*
Y426570D01*
X856384Y428831D01*
X855214Y430859D01*
X853559Y432514D01*
X851531Y433684D01*
X849270Y434290D01*
D02*
G37*
G36*
X280551Y417770D02*
X279449D01*
X278431Y417348D01*
X277652Y416569D01*
X277230Y415551D01*
Y414449D01*
X277652Y413431D01*
X278431Y412652D01*
X279449Y412230D01*
X280551D01*
X281569Y412652D01*
X282348Y413431D01*
X282770Y414449D01*
Y415551D01*
X282348Y416569D01*
X281569Y417348D01*
X280551Y417770D01*
D02*
G37*
G36*
X111846Y439020D02*
X108154D01*
X104588Y438064D01*
X101391Y436219D01*
X98781Y433609D01*
X96936Y430411D01*
X95980Y426846D01*
Y423154D01*
X96936Y419589D01*
X98781Y416391D01*
X101391Y413781D01*
X104588Y411935D01*
X108154Y410980D01*
X111846D01*
X115412Y411935D01*
X118609Y413781D01*
X121219Y416391D01*
X123064Y419589D01*
X124020Y423154D01*
Y426846D01*
X123064Y430411D01*
X121219Y433609D01*
X118609Y436219D01*
X115412Y438064D01*
X111846Y439020D01*
D02*
G37*
G36*
X811813Y413770D02*
X808187D01*
X804685Y412832D01*
X801545Y411019D01*
X798981Y408455D01*
X797168Y405315D01*
X796230Y401813D01*
Y398187D01*
X797168Y394685D01*
X798981Y391545D01*
X801545Y388981D01*
X804685Y387168D01*
X808187Y386230D01*
X811813D01*
X815315Y387168D01*
X818455Y388981D01*
X821019Y391545D01*
X822832Y394685D01*
X823770Y398187D01*
Y401813D01*
X822832Y405315D01*
X821019Y408455D01*
X818455Y411019D01*
X815315Y412832D01*
X811813Y413770D01*
D02*
G37*
G36*
X216551Y388770D02*
X215449D01*
X214431Y388348D01*
X213652Y387569D01*
X213230Y386551D01*
Y385449D01*
X213652Y384431D01*
X214431Y383652D01*
X215449Y383230D01*
X216551D01*
X217569Y383652D01*
X218348Y384431D01*
X218770Y385449D01*
Y386551D01*
X218348Y387569D01*
X217569Y388348D01*
X216551Y388770D01*
D02*
G37*
G36*
X663551Y387770D02*
X662449D01*
X661431Y387348D01*
X660652Y386569D01*
X660230Y385551D01*
Y384449D01*
X660652Y383431D01*
X661431Y382652D01*
X662449Y382230D01*
X663551D01*
X664569Y382652D01*
X665348Y383431D01*
X665770Y384449D01*
Y385551D01*
X665348Y386569D01*
X664569Y387348D01*
X663551Y387770D01*
D02*
G37*
G36*
X266851Y386534D02*
X265749D01*
X264731Y386112D01*
X263951Y385333D01*
X263530Y384315D01*
Y383213D01*
X263951Y382195D01*
X264731Y381415D01*
X265749Y380994D01*
X266851D01*
X267869Y381415D01*
X268648Y382195D01*
X269070Y383213D01*
Y384315D01*
X268648Y385333D01*
X267869Y386112D01*
X266851Y386534D01*
D02*
G37*
G36*
X300551Y385770D02*
X299449D01*
X298431Y385348D01*
X297652Y384569D01*
X297230Y383551D01*
Y382449D01*
X297652Y381431D01*
X298431Y380652D01*
X299449Y380230D01*
X300551D01*
X301569Y380652D01*
X302348Y381431D01*
X302770Y382449D01*
Y383551D01*
X302348Y384569D01*
X301569Y385348D01*
X300551Y385770D01*
D02*
G37*
G36*
X663868Y380088D02*
X662766D01*
X661748Y379666D01*
X660969Y378886D01*
X660547Y377868D01*
Y376767D01*
X660637Y376551D01*
X659665Y375579D01*
X659449Y375668D01*
X658347D01*
X657329Y375246D01*
X656550Y374467D01*
X656128Y373449D01*
Y372347D01*
X656550Y371329D01*
X657329Y370550D01*
X658347Y370128D01*
X659449D01*
X660467Y370550D01*
X661246Y371329D01*
X661668Y372347D01*
Y373449D01*
X661579Y373665D01*
X662551Y374637D01*
X662766Y374548D01*
X663868D01*
X664886Y374969D01*
X665666Y375748D01*
X666087Y376767D01*
Y377868D01*
X665666Y378886D01*
X664886Y379666D01*
X663868Y380088D01*
D02*
G37*
G36*
X671551Y379770D02*
X670449D01*
X669431Y379348D01*
X668652Y378569D01*
X668230Y377551D01*
Y376449D01*
X668652Y375431D01*
X669431Y374652D01*
X670449Y374230D01*
X671551D01*
X672569Y374652D01*
X673348Y375431D01*
X673770Y376449D01*
Y377551D01*
X673348Y378569D01*
X672569Y379348D01*
X671551Y379770D01*
D02*
G37*
G36*
X651551Y375770D02*
X650449D01*
X649431Y375348D01*
X648652Y374569D01*
X648230Y373551D01*
Y372449D01*
X648652Y371431D01*
X649431Y370652D01*
X650449Y370230D01*
X651551D01*
X652569Y370652D01*
X653348Y371431D01*
X653770Y372449D01*
Y373551D01*
X653348Y374569D01*
X652569Y375348D01*
X651551Y375770D01*
D02*
G37*
G36*
X823870Y383490D02*
X821530D01*
X819269Y382884D01*
X817241Y381714D01*
X815586Y380059D01*
X814416Y378031D01*
X813810Y375770D01*
Y373430D01*
X814416Y371169D01*
X815586Y369141D01*
X817241Y367486D01*
X819269Y366316D01*
X821530Y365710D01*
X823870D01*
X826131Y366316D01*
X828159Y367486D01*
X829814Y369141D01*
X830984Y371169D01*
X831590Y373430D01*
Y375770D01*
X830984Y378031D01*
X829814Y380059D01*
X828159Y381714D01*
X826131Y382884D01*
X823870Y383490D01*
D02*
G37*
G36*
X142000Y787393D02*
X139554Y786906D01*
X137480Y785520D01*
X136094Y783446D01*
X135607Y781000D01*
Y764000D01*
X136094Y761554D01*
X137480Y759480D01*
X223607Y673352D01*
Y362375D01*
X209000D01*
X209000Y362375D01*
X208028Y361972D01*
X208028Y361972D01*
X204028Y357972D01*
X203625Y357000D01*
X203625Y357000D01*
Y78000D01*
X204028Y77028D01*
X204028Y77028D01*
X208028Y73028D01*
X209000Y72625D01*
X209000Y72625D01*
X397000D01*
X397972Y73028D01*
X397972Y73028D01*
X401972Y77028D01*
X401972Y77028D01*
X402375Y78000D01*
X402375Y78000D01*
Y115000D01*
X401972Y115972D01*
X401972Y115972D01*
X397972Y119972D01*
X397000Y120375D01*
X397000Y120375D01*
X249569D01*
X246375Y123569D01*
Y126230D01*
X245972Y127202D01*
X245000Y127605D01*
X244524D01*
X243643Y127969D01*
X242969Y128643D01*
X242605Y129523D01*
Y130477D01*
X242969Y131357D01*
X243643Y132031D01*
X244524Y132395D01*
X245000D01*
X245972Y132798D01*
X246375Y133770D01*
Y139309D01*
X247645Y139695D01*
X248067Y139063D01*
X253924Y133205D01*
X255998Y131820D01*
X258445Y131333D01*
X405453D01*
X414002Y122784D01*
Y74642D01*
X403106Y63746D01*
X355899D01*
X353453Y63259D01*
X351379Y61874D01*
X330499Y40994D01*
X298579D01*
X296731Y41037D01*
X296036Y41090D01*
X295893Y41111D01*
X295385Y41618D01*
X293385Y42773D01*
X291155Y43371D01*
X288846D01*
X286615Y42773D01*
X284615Y41618D01*
X282983Y39986D01*
X281828Y37986D01*
X281230Y35755D01*
Y33446D01*
X281828Y31216D01*
X282983Y29216D01*
X284615Y27583D01*
X286615Y26428D01*
X288846Y25831D01*
X291155D01*
X293385Y26428D01*
X295385Y27583D01*
X295800Y27998D01*
X299783Y28208D01*
X333147D01*
X334003Y28378D01*
X334629Y27208D01*
X327037Y19616D01*
X201425D01*
X168393Y52648D01*
Y689000D01*
X167906Y691446D01*
X166520Y693520D01*
X114393Y745648D01*
Y781000D01*
X113906Y783446D01*
X112520Y785520D01*
X110446Y786906D01*
X108000Y787393D01*
X105554Y786906D01*
X103480Y785520D01*
X102094Y783446D01*
X101607Y781000D01*
Y743000D01*
X102094Y740554D01*
X103480Y738480D01*
X155607Y686352D01*
Y50000D01*
X156094Y47554D01*
X157480Y45480D01*
X194257Y8702D01*
X196331Y7317D01*
X198777Y6830D01*
X329685D01*
X332131Y7317D01*
X334205Y8702D01*
X363823Y38320D01*
X364767Y38243D01*
X365428Y37030D01*
X365230Y36551D01*
Y35449D01*
X365652Y34431D01*
X366431Y33652D01*
X367449Y33230D01*
X368551D01*
X369569Y33652D01*
X370348Y34431D01*
X370770Y35449D01*
Y36551D01*
X370420Y37397D01*
X370699Y38120D01*
X371047Y38667D01*
X388953D01*
X389301Y38120D01*
X389580Y37397D01*
X389230Y36551D01*
Y35449D01*
X389652Y34431D01*
X390431Y33652D01*
X391449Y33230D01*
X392551D01*
X393569Y33652D01*
X394348Y34431D01*
X394770Y35449D01*
Y36551D01*
X394420Y37397D01*
X394699Y38120D01*
X395047Y38667D01*
X571020D01*
X573466Y39153D01*
X575540Y40539D01*
X598626Y63625D01*
X909611Y63625D01*
X910584Y62355D01*
X909435Y58068D01*
X908729Y52705D01*
Y47295D01*
X909435Y41931D01*
X910835Y36705D01*
X912906Y31707D01*
X915611Y27022D01*
X918904Y22730D01*
X922729Y18905D01*
X927021Y15611D01*
X931706Y12906D01*
X936705Y10836D01*
X941930Y9436D01*
X947294Y8730D01*
X952704D01*
X958068Y9436D01*
X963293Y10836D01*
X968291Y12906D01*
X972977Y15611D01*
X977269Y18905D01*
X981094Y22730D01*
X984387Y27022D01*
X987092Y31707D01*
X989163Y36705D01*
X990563Y41931D01*
X991269Y47295D01*
Y52705D01*
X990563Y58068D01*
X989163Y63294D01*
X987092Y68292D01*
X984387Y72977D01*
X981094Y77269D01*
X977269Y81095D01*
X972977Y84388D01*
X968291Y87093D01*
X963293Y89163D01*
X958068Y90563D01*
X952704Y91270D01*
X952757Y92518D01*
X953745Y92782D01*
X956885Y94595D01*
X959449Y97159D01*
X961262Y100299D01*
X962200Y103801D01*
Y107427D01*
X961262Y110929D01*
X959449Y114069D01*
X956885Y116633D01*
X953745Y118446D01*
X950243Y119384D01*
X946617D01*
X944382Y118785D01*
X943375Y119558D01*
Y598000D01*
X942972Y598972D01*
X942972Y598972D01*
X938972Y602972D01*
X938000Y603375D01*
X938000Y603375D01*
X875000D01*
X874028Y602972D01*
X874028Y602972D01*
X870028Y598972D01*
X869625Y598000D01*
X869625Y598000D01*
X869625Y132569D01*
X866431Y129375D01*
X762700D01*
X761770Y130449D01*
Y131551D01*
X761348Y132569D01*
X760569Y133348D01*
X759551Y133770D01*
X758449D01*
X757431Y133348D01*
X756652Y132569D01*
X756230Y131551D01*
Y130449D01*
X755300Y129375D01*
X598000D01*
X597028Y128972D01*
X597028Y128972D01*
X593028Y124972D01*
X592625Y124000D01*
X592625Y124000D01*
Y75706D01*
X568372Y51452D01*
X410396D01*
X410027Y52668D01*
X410274Y52833D01*
X424916Y67474D01*
X426301Y69548D01*
X426788Y71994D01*
Y125432D01*
X426301Y127879D01*
X424916Y129952D01*
X412622Y142246D01*
X410548Y143632D01*
X408101Y144119D01*
X261093D01*
X258980Y146232D01*
Y634652D01*
X277040Y652713D01*
X319499D01*
X319859Y652121D01*
X320115Y651443D01*
X319757Y650578D01*
Y649476D01*
X320179Y648458D01*
X320958Y647678D01*
X321976Y647257D01*
X323078D01*
X324096Y647678D01*
X324875Y648458D01*
X325297Y649476D01*
Y650578D01*
X324939Y651443D01*
X325195Y652121D01*
X325555Y652713D01*
X339499D01*
X339859Y652121D01*
X340115Y651443D01*
X339757Y650578D01*
Y649476D01*
X340179Y648458D01*
X340958Y647678D01*
X341976Y647257D01*
X343078D01*
X344096Y647678D01*
X344875Y648458D01*
X345297Y649476D01*
Y650578D01*
X344939Y651443D01*
X345195Y652121D01*
X345555Y652713D01*
X504965D01*
X507411Y653199D01*
X509485Y654585D01*
X525466Y670566D01*
X526852Y672640D01*
X527338Y675086D01*
Y715946D01*
X526852Y718392D01*
X525466Y720466D01*
X523392Y721852D01*
X520946Y722338D01*
X518499Y721852D01*
X516425Y720466D01*
X515039Y718392D01*
X514553Y715946D01*
Y677734D01*
X502317Y665498D01*
X274392D01*
X271946Y665012D01*
X269872Y663626D01*
X248067Y641821D01*
X246681Y639747D01*
X246194Y637300D01*
Y359546D01*
X244924Y359020D01*
X241972Y361972D01*
X241000Y362375D01*
X241000Y362375D01*
X236393D01*
Y676000D01*
X235906Y678446D01*
X234520Y680520D01*
X148393Y766648D01*
Y781000D01*
X147906Y783446D01*
X146520Y785520D01*
X144446Y786906D01*
X142000Y787393D01*
D02*
G37*
G36*
X659551Y367770D02*
X658449D01*
X657431Y367348D01*
X656652Y366569D01*
X656230Y365551D01*
Y364449D01*
X656652Y363431D01*
X657431Y362652D01*
X658449Y362230D01*
X659551D01*
X660569Y362652D01*
X661348Y363431D01*
X661770Y364449D01*
Y365551D01*
X661348Y366569D01*
X660569Y367348D01*
X659551Y367770D01*
D02*
G37*
G36*
X111846Y389020D02*
X108154D01*
X104588Y388064D01*
X101391Y386219D01*
X98781Y383609D01*
X96936Y380411D01*
X95980Y376846D01*
Y373154D01*
X96936Y369589D01*
X98781Y366391D01*
X101391Y363781D01*
X104588Y361935D01*
X108154Y360980D01*
X111846D01*
X115412Y361935D01*
X118609Y363781D01*
X121219Y366391D01*
X123064Y369589D01*
X124020Y373154D01*
Y376846D01*
X123064Y380411D01*
X121219Y383609D01*
X118609Y386219D01*
X115412Y388064D01*
X111846Y389020D01*
D02*
G37*
G36*
X756551Y358770D02*
X755449D01*
X754431Y358348D01*
X753652Y357569D01*
X753230Y356551D01*
Y355449D01*
X753652Y354431D01*
X754431Y353652D01*
X755449Y353230D01*
X756551D01*
X757569Y353652D01*
X758348Y354431D01*
X758770Y355449D01*
Y356551D01*
X758348Y357569D01*
X757569Y358348D01*
X756551Y358770D01*
D02*
G37*
G36*
X849270Y370790D02*
X846930D01*
X844669Y370184D01*
X842641Y369014D01*
X840986Y367359D01*
X839816Y365331D01*
X839210Y363070D01*
Y360730D01*
X839816Y358469D01*
X840986Y356441D01*
X842641Y354786D01*
X844669Y353616D01*
X846930Y353010D01*
X849270D01*
X851531Y353616D01*
X853559Y354786D01*
X855214Y356441D01*
X856384Y358469D01*
X856990Y360730D01*
Y363070D01*
X856384Y365331D01*
X855214Y367359D01*
X853559Y369014D01*
X851531Y370184D01*
X849270Y370790D01*
D02*
G37*
G36*
X698551Y354770D02*
X697449D01*
X696431Y354348D01*
X695652Y353569D01*
X695230Y352551D01*
Y351449D01*
X695652Y350431D01*
X696431Y349652D01*
X697449Y349230D01*
X698551D01*
X699569Y349652D01*
X700348Y350431D01*
X700770Y351449D01*
Y352551D01*
X700348Y353569D01*
X699569Y354348D01*
X698551Y354770D01*
D02*
G37*
G36*
X659551Y352770D02*
X658449D01*
X657431Y352348D01*
X656652Y351569D01*
X656230Y350551D01*
Y349449D01*
X656652Y348431D01*
X657431Y347652D01*
X658449Y347230D01*
X659551D01*
X660569Y347652D01*
X661348Y348431D01*
X661770Y349449D01*
Y350551D01*
X661348Y351569D01*
X660569Y352348D01*
X659551Y352770D01*
D02*
G37*
G36*
X735551Y347770D02*
X734449D01*
X733431Y347348D01*
X732652Y346569D01*
X732230Y345551D01*
Y344449D01*
X732652Y343431D01*
X733431Y342652D01*
X734449Y342230D01*
X735551D01*
X736569Y342652D01*
X737348Y343431D01*
X737770Y344449D01*
Y345551D01*
X737348Y346569D01*
X736569Y347348D01*
X735551Y347770D01*
D02*
G37*
G36*
X823870Y358090D02*
X821530D01*
X819269Y357484D01*
X817241Y356314D01*
X815586Y354659D01*
X814416Y352631D01*
X813810Y350370D01*
Y348030D01*
X814416Y345769D01*
X815586Y343741D01*
X817241Y342086D01*
X819269Y340916D01*
X821530Y340310D01*
X823870D01*
X826131Y340916D01*
X828159Y342086D01*
X829814Y343741D01*
X830984Y345769D01*
X831590Y348030D01*
Y350370D01*
X830984Y352631D01*
X829814Y354659D01*
X828159Y356314D01*
X826131Y357484D01*
X823870Y358090D01*
D02*
G37*
G36*
X849270Y345390D02*
X846930D01*
X844669Y344784D01*
X842641Y343614D01*
X840986Y341959D01*
X839816Y339931D01*
X839210Y337670D01*
Y335330D01*
X839816Y333069D01*
X840986Y331041D01*
X842641Y329386D01*
X844669Y328216D01*
X846930Y327610D01*
X849270D01*
X851531Y328216D01*
X853559Y329386D01*
X855214Y331041D01*
X856384Y333069D01*
X856990Y335330D01*
Y337670D01*
X856384Y339931D01*
X855214Y341959D01*
X853559Y343614D01*
X851531Y344784D01*
X849270Y345390D01*
D02*
G37*
G36*
X952551Y327770D02*
X951449D01*
X950431Y327348D01*
X949652Y326569D01*
X949230Y325551D01*
Y324449D01*
X949652Y323431D01*
X950431Y322652D01*
X951449Y322230D01*
X952551D01*
X953569Y322652D01*
X954348Y323431D01*
X954770Y324449D01*
Y325551D01*
X954348Y326569D01*
X953569Y327348D01*
X952551Y327770D01*
D02*
G37*
G36*
X654551Y322770D02*
X653449D01*
X652431Y322348D01*
X651652Y321569D01*
X651230Y320551D01*
Y319449D01*
X651652Y318431D01*
X652431Y317652D01*
X653449Y317230D01*
X654551D01*
X655569Y317652D01*
X656348Y318431D01*
X656770Y319449D01*
Y320551D01*
X656348Y321569D01*
X655569Y322348D01*
X654551Y322770D01*
D02*
G37*
G36*
X823870Y332690D02*
X821530D01*
X819269Y332084D01*
X817241Y330914D01*
X815586Y329259D01*
X814416Y327231D01*
X813810Y324970D01*
Y322630D01*
X814416Y320369D01*
X815586Y318341D01*
X817241Y316686D01*
X819269Y315516D01*
X821530Y314910D01*
X823870D01*
X826131Y315516D01*
X828159Y316686D01*
X829814Y318341D01*
X830984Y320369D01*
X831590Y322630D01*
Y324970D01*
X830984Y327231D01*
X829814Y329259D01*
X828159Y330914D01*
X826131Y332084D01*
X823870Y332690D01*
D02*
G37*
G36*
X654551Y314770D02*
X653449D01*
X652431Y314348D01*
X651652Y313569D01*
X651230Y312551D01*
Y311449D01*
X651319Y311233D01*
X650347Y310261D01*
X650132Y310351D01*
X649030D01*
X648011Y309929D01*
X647232Y309150D01*
X646811Y308132D01*
Y307030D01*
X647232Y306012D01*
X648011Y305232D01*
X649030Y304811D01*
X650132D01*
X651150Y305232D01*
X651929Y306012D01*
X652351Y307030D01*
Y308132D01*
X652261Y308347D01*
X653233Y309319D01*
X653449Y309230D01*
X654551D01*
X655569Y309652D01*
X656348Y310431D01*
X656770Y311449D01*
Y312551D01*
X656348Y313569D01*
X655569Y314348D01*
X654551Y314770D01*
D02*
G37*
G36*
X662551D02*
X661449D01*
X660431Y314348D01*
X659652Y313569D01*
X659230Y312551D01*
Y311449D01*
X659652Y310431D01*
X660431Y309652D01*
X661449Y309230D01*
X662551D01*
X663569Y309652D01*
X664348Y310431D01*
X664770Y311449D01*
Y312551D01*
X664348Y313569D01*
X663569Y314348D01*
X662551Y314770D01*
D02*
G37*
G36*
X641551Y309770D02*
X640449D01*
X639431Y309348D01*
X638652Y308569D01*
X638230Y307551D01*
Y306449D01*
X638652Y305431D01*
X639431Y304652D01*
X640449Y304230D01*
X641551D01*
X642569Y304652D01*
X643348Y305431D01*
X643770Y306449D01*
Y307551D01*
X643348Y308569D01*
X642569Y309348D01*
X641551Y309770D01*
D02*
G37*
G36*
X849270Y319990D02*
X846930D01*
X844669Y319384D01*
X842641Y318214D01*
X840986Y316559D01*
X839816Y314531D01*
X839210Y312270D01*
Y309930D01*
X839816Y307669D01*
X840986Y305641D01*
X842641Y303986D01*
X844669Y302816D01*
X846930Y302210D01*
X849270D01*
X851531Y302816D01*
X853559Y303986D01*
X855214Y305641D01*
X856384Y307669D01*
X856990Y309930D01*
Y312270D01*
X856384Y314531D01*
X855214Y316559D01*
X853559Y318214D01*
X851531Y319384D01*
X849270Y319990D01*
D02*
G37*
G36*
X116870Y318770D02*
X99330D01*
Y301230D01*
X116870D01*
Y318770D01*
D02*
G37*
G36*
X83854D02*
X81545D01*
X79314Y318172D01*
X77315Y317018D01*
X75682Y315385D01*
X74527Y313385D01*
X73930Y311155D01*
Y308846D01*
X74527Y306615D01*
X75682Y304615D01*
X77315Y302983D01*
X79314Y301828D01*
X81545Y301230D01*
X83854D01*
X86085Y301828D01*
X88084Y302983D01*
X89717Y304615D01*
X90872Y306615D01*
X91470Y308846D01*
Y311155D01*
X90872Y313385D01*
X89717Y315385D01*
X88084Y317018D01*
X86085Y318172D01*
X83854Y318770D01*
D02*
G37*
G36*
X58455Y318770D02*
X56146D01*
X53915Y318172D01*
X51915Y317017D01*
X50283Y315385D01*
X49128Y313385D01*
X48530Y311154D01*
Y308845D01*
X49128Y306615D01*
X50283Y304615D01*
X51915Y302982D01*
X53915Y301828D01*
X56146Y301230D01*
X58455D01*
X60686Y301828D01*
X62685Y302982D01*
X64318Y304615D01*
X65473Y306615D01*
X66070Y308845D01*
Y311154D01*
X65473Y313385D01*
X64318Y315385D01*
X62685Y317017D01*
X60686Y318172D01*
X58455Y318770D01*
D02*
G37*
G36*
X33055D02*
X30746D01*
X28515Y318172D01*
X26516Y317017D01*
X24883Y315385D01*
X23728Y313385D01*
X23130Y311154D01*
Y308845D01*
X23728Y306615D01*
X24883Y304615D01*
X26516Y302982D01*
X28515Y301828D01*
X30746Y301230D01*
X33055D01*
X35285Y301828D01*
X37285Y302982D01*
X38918Y304615D01*
X40073Y306615D01*
X40670Y308845D01*
Y311154D01*
X40073Y313385D01*
X38918Y315385D01*
X37285Y317017D01*
X35285Y318172D01*
X33055Y318770D01*
D02*
G37*
G36*
X510203Y306126D02*
X509101D01*
X508083Y305704D01*
X507304Y304925D01*
X506882Y303907D01*
Y302805D01*
X507304Y301787D01*
X508083Y301007D01*
X509101Y300586D01*
X510203D01*
X511221Y301007D01*
X512001Y301787D01*
X512422Y302805D01*
Y303907D01*
X512001Y304925D01*
X511221Y305704D01*
X510203Y306126D01*
D02*
G37*
G36*
X649551Y301770D02*
X648449D01*
X647431Y301348D01*
X646652Y300569D01*
X646230Y299551D01*
Y298449D01*
X646652Y297431D01*
X647431Y296652D01*
X648449Y296230D01*
X649551D01*
X650569Y296652D01*
X651348Y297431D01*
X651770Y298449D01*
Y299551D01*
X651348Y300569D01*
X650569Y301348D01*
X649551Y301770D01*
D02*
G37*
G36*
X503551Y298770D02*
X502449D01*
X501431Y298348D01*
X500652Y297569D01*
X500230Y296551D01*
Y295449D01*
X500652Y294431D01*
X501431Y293652D01*
X502449Y293230D01*
X503551D01*
X504569Y293652D01*
X505348Y294431D01*
X505770Y295449D01*
Y296551D01*
X505348Y297569D01*
X504569Y298348D01*
X503551Y298770D01*
D02*
G37*
G36*
X736268Y297770D02*
X735166D01*
X734148Y297348D01*
X733369Y296569D01*
X732947Y295551D01*
Y294449D01*
X733369Y293431D01*
X734148Y292652D01*
X735166Y292230D01*
X736268D01*
X737287Y292652D01*
X738066Y293431D01*
X738487Y294449D01*
Y295551D01*
X738066Y296569D01*
X737287Y297348D01*
X736268Y297770D01*
D02*
G37*
G36*
X823870Y307290D02*
X821530D01*
X819269Y306684D01*
X817241Y305514D01*
X815586Y303859D01*
X814416Y301831D01*
X813810Y299570D01*
Y297230D01*
X814416Y294969D01*
X815586Y292941D01*
X817241Y291286D01*
X819269Y290116D01*
X821530Y289510D01*
X823870D01*
X826131Y290116D01*
X828159Y291286D01*
X829814Y292941D01*
X830984Y294969D01*
X831590Y297230D01*
Y299570D01*
X830984Y301831D01*
X829814Y303859D01*
X828159Y305514D01*
X826131Y306684D01*
X823870Y307290D01*
D02*
G37*
G36*
X659551Y292770D02*
X658449D01*
X657431Y292348D01*
X656652Y291569D01*
X656230Y290551D01*
Y289449D01*
X656652Y288431D01*
X657431Y287652D01*
X658449Y287230D01*
X659551D01*
X660569Y287652D01*
X661348Y288431D01*
X661770Y289449D01*
Y290551D01*
X661348Y291569D01*
X660569Y292348D01*
X659551Y292770D01*
D02*
G37*
G36*
X698551Y291270D02*
X697449D01*
X696431Y290848D01*
X695652Y290069D01*
X695230Y289051D01*
Y287949D01*
X695652Y286931D01*
X696431Y286152D01*
X697449Y285730D01*
X698551D01*
X699569Y286152D01*
X700348Y286931D01*
X700770Y287949D01*
Y289051D01*
X700348Y290069D01*
X699569Y290848D01*
X698551Y291270D01*
D02*
G37*
G36*
X759551Y283770D02*
X758449D01*
X757431Y283348D01*
X756652Y282569D01*
X756230Y281551D01*
Y280449D01*
X756652Y279431D01*
X757431Y278652D01*
X758449Y278230D01*
X759551D01*
X760569Y278652D01*
X761348Y279431D01*
X761770Y280449D01*
Y281551D01*
X761348Y282569D01*
X760569Y283348D01*
X759551Y283770D01*
D02*
G37*
G36*
X849270Y294590D02*
X846930D01*
X844669Y293984D01*
X842641Y292814D01*
X840986Y291159D01*
X839816Y289131D01*
X839210Y286870D01*
Y284530D01*
X839816Y282269D01*
X840986Y280241D01*
X842641Y278586D01*
X844669Y277416D01*
X846930Y276810D01*
X849270D01*
X851531Y277416D01*
X853559Y278586D01*
X855214Y280241D01*
X856384Y282269D01*
X856990Y284530D01*
Y286870D01*
X856384Y289131D01*
X855214Y291159D01*
X853559Y292814D01*
X851531Y293984D01*
X849270Y294590D01*
D02*
G37*
G36*
X759551Y272770D02*
X758449D01*
X757431Y272348D01*
X756652Y271569D01*
X756230Y270551D01*
Y269449D01*
X756652Y268431D01*
X757431Y267652D01*
X758449Y267230D01*
X759551D01*
X760569Y267652D01*
X761348Y268431D01*
X761770Y269449D01*
Y270551D01*
X761348Y271569D01*
X760569Y272348D01*
X759551Y272770D01*
D02*
G37*
G36*
X440551Y270770D02*
X439449D01*
X438431Y270348D01*
X437652Y269569D01*
X437230Y268551D01*
Y267449D01*
X437652Y266431D01*
X438431Y265652D01*
X439449Y265230D01*
X440551D01*
X441569Y265652D01*
X442348Y266431D01*
X442770Y267449D01*
Y268551D01*
X442348Y269569D01*
X441569Y270348D01*
X440551Y270770D01*
D02*
G37*
G36*
X447907Y264118D02*
X446805D01*
X445787Y263696D01*
X445008Y262917D01*
X444586Y261899D01*
Y260797D01*
X445008Y259779D01*
X445787Y258999D01*
X446805Y258578D01*
X447907D01*
X448925Y258999D01*
X449704Y259779D01*
X450126Y260797D01*
Y261899D01*
X449704Y262917D01*
X448925Y263696D01*
X447907Y264118D01*
D02*
G37*
G36*
X759551Y262770D02*
X758449D01*
X757431Y262348D01*
X756652Y261569D01*
X756230Y260551D01*
Y259449D01*
X756652Y258431D01*
X757431Y257652D01*
X758449Y257230D01*
X759551D01*
X760569Y257652D01*
X761348Y258431D01*
X761770Y259449D01*
Y260551D01*
X761348Y261569D01*
X760569Y262348D01*
X759551Y262770D01*
D02*
G37*
G36*
X482195Y261422D02*
X481093D01*
X480075Y261001D01*
X479296Y260221D01*
X478874Y259203D01*
Y258101D01*
X479296Y257083D01*
X480075Y256304D01*
X481093Y255882D01*
X482195D01*
X483213Y256304D01*
X483993Y257083D01*
X484414Y258101D01*
Y259203D01*
X483993Y260221D01*
X483213Y261001D01*
X482195Y261422D01*
D02*
G37*
G36*
X702551Y256520D02*
X701449D01*
X700431Y256098D01*
X699652Y255319D01*
X699230Y254301D01*
Y253199D01*
X699652Y252181D01*
X700431Y251402D01*
X701449Y250980D01*
X702551D01*
X703569Y251402D01*
X704348Y252181D01*
X704770Y253199D01*
Y254301D01*
X704348Y255319D01*
X703569Y256098D01*
X702551Y256520D01*
D02*
G37*
G36*
X711551Y255770D02*
X710449D01*
X709431Y255348D01*
X708652Y254569D01*
X708230Y253551D01*
Y252449D01*
X708652Y251431D01*
X709431Y250652D01*
X710449Y250230D01*
X711551D01*
X712569Y250652D01*
X713348Y251431D01*
X713770Y252449D01*
Y253551D01*
X713348Y254569D01*
X712569Y255348D01*
X711551Y255770D01*
D02*
G37*
G36*
X489551Y254770D02*
X488449D01*
X487431Y254348D01*
X486652Y253569D01*
X486230Y252551D01*
Y251449D01*
X486652Y250431D01*
X487431Y249652D01*
X488449Y249230D01*
X489551D01*
X490569Y249652D01*
X491348Y250431D01*
X491770Y251449D01*
Y252551D01*
X491348Y253569D01*
X490569Y254348D01*
X489551Y254770D01*
D02*
G37*
G36*
X811813Y274070D02*
X808187D01*
X804685Y273132D01*
X801545Y271319D01*
X798981Y268755D01*
X797168Y265615D01*
X796230Y262113D01*
Y258487D01*
X797168Y254985D01*
X798981Y251845D01*
X801545Y249281D01*
X804685Y247468D01*
X808187Y246530D01*
X811813D01*
X815315Y247468D01*
X818455Y249281D01*
X821019Y251845D01*
X822832Y254985D01*
X823770Y258487D01*
Y262113D01*
X822832Y265615D01*
X821019Y268755D01*
X818455Y271319D01*
X815315Y273132D01*
X811813Y274070D01*
D02*
G37*
G36*
X366551Y248770D02*
X365449D01*
X364431Y248348D01*
X363652Y247569D01*
X363230Y246551D01*
Y245449D01*
X363652Y244431D01*
X364431Y243652D01*
X365449Y243230D01*
X366551D01*
X367569Y243652D01*
X368348Y244431D01*
X368770Y245449D01*
Y246551D01*
X368348Y247569D01*
X367569Y248348D01*
X366551Y248770D01*
D02*
G37*
G36*
X713551Y247770D02*
X712449D01*
X711431Y247348D01*
X710652Y246569D01*
X710230Y245551D01*
Y244449D01*
X710652Y243431D01*
X711431Y242652D01*
X712449Y242230D01*
X713551D01*
X714569Y242652D01*
X715348Y243431D01*
X715770Y244449D01*
Y245551D01*
X715348Y246569D01*
X714569Y247348D01*
X713551Y247770D01*
D02*
G37*
G36*
X51701Y274420D02*
X48299D01*
X44963Y273756D01*
X41820Y272454D01*
X38991Y270564D01*
X36586Y268159D01*
X34695Y265330D01*
X33394Y262188D01*
X32730Y258851D01*
Y255449D01*
X33394Y252113D01*
X34695Y248970D01*
X36586Y246141D01*
X38991Y243736D01*
X41820Y241845D01*
X44963Y240544D01*
X48299Y239880D01*
X51701D01*
X55037Y240544D01*
X58180Y241845D01*
X61009Y243736D01*
X63415Y246141D01*
X65304Y248970D01*
X66606Y252113D01*
X67270Y255449D01*
Y258851D01*
X66606Y262188D01*
X65304Y265330D01*
X63415Y268159D01*
X61009Y270564D01*
X58180Y272454D01*
X55037Y273756D01*
X51701Y274420D01*
D02*
G37*
G36*
X700551Y242770D02*
X699449D01*
X698431Y242348D01*
X697652Y241569D01*
X697230Y240551D01*
Y239449D01*
X697652Y238431D01*
X698431Y237652D01*
X699449Y237230D01*
X700551D01*
X701569Y237652D01*
X702348Y238431D01*
X702770Y239449D01*
Y240551D01*
X702348Y241569D01*
X701569Y242348D01*
X700551Y242770D01*
D02*
G37*
G36*
X114502Y252060D02*
X112498D01*
X110563Y251541D01*
X108827Y250539D01*
X107410Y249123D01*
X106409Y247387D01*
X105890Y245452D01*
Y243448D01*
X106409Y241513D01*
X107410Y239777D01*
X108827Y238361D01*
X110563Y237359D01*
X112498Y236840D01*
X114502D01*
X116437Y237359D01*
X118173Y238361D01*
X119590Y239777D01*
X120591Y241513D01*
X121110Y243448D01*
Y245452D01*
X120591Y247387D01*
X119590Y249123D01*
X118173Y250539D01*
X116437Y251541D01*
X114502Y252060D01*
D02*
G37*
G36*
X366551Y238770D02*
X365449D01*
X364431Y238348D01*
X363652Y237569D01*
X363230Y236551D01*
Y235449D01*
X363652Y234431D01*
X364431Y233652D01*
X365449Y233230D01*
X366551D01*
X367569Y233652D01*
X368348Y234431D01*
X368770Y235449D01*
Y236551D01*
X368348Y237569D01*
X367569Y238348D01*
X366551Y238770D01*
D02*
G37*
G36*
X317551Y237324D02*
X316449D01*
X315431Y236902D01*
X314652Y236123D01*
X314230Y235105D01*
Y234003D01*
X314652Y232985D01*
X315431Y232206D01*
X316449Y231784D01*
X317551D01*
X318569Y232206D01*
X319348Y232985D01*
X319770Y234003D01*
Y235105D01*
X319348Y236123D01*
X318569Y236902D01*
X317551Y237324D01*
D02*
G37*
G36*
X198770Y246870D02*
X181230D01*
Y229330D01*
X198770D01*
Y246870D01*
D02*
G37*
G36*
X646551Y232279D02*
X645449D01*
X644431Y231858D01*
X643652Y231078D01*
X643230Y230060D01*
Y228958D01*
X643652Y227940D01*
X644431Y227161D01*
X645449Y226739D01*
X646551D01*
X647569Y227161D01*
X648348Y227940D01*
X648770Y228958D01*
Y230060D01*
X648348Y231078D01*
X647569Y231858D01*
X646551Y232279D01*
D02*
G37*
G36*
X658551Y231770D02*
X657449D01*
X656431Y231348D01*
X655652Y230569D01*
X655230Y229551D01*
Y228449D01*
X655652Y227431D01*
X656431Y226652D01*
X657449Y226230D01*
X658551D01*
X659569Y226652D01*
X660348Y227431D01*
X660770Y228449D01*
Y229551D01*
X660348Y230569D01*
X659569Y231348D01*
X658551Y231770D01*
D02*
G37*
G36*
X823870Y243790D02*
X821530D01*
X819269Y243184D01*
X817241Y242014D01*
X815586Y240359D01*
X814416Y238331D01*
X813810Y236070D01*
Y233730D01*
X814416Y231469D01*
X815586Y229441D01*
X817241Y227786D01*
X819269Y226616D01*
X821530Y226010D01*
X823870D01*
X826131Y226616D01*
X828159Y227786D01*
X829814Y229441D01*
X830984Y231469D01*
X831590Y233730D01*
Y236070D01*
X830984Y238331D01*
X829814Y240359D01*
X828159Y242014D01*
X826131Y243184D01*
X823870Y243790D01*
D02*
G37*
G36*
X139902Y239360D02*
X137898D01*
X135963Y238841D01*
X134227Y237840D01*
X132810Y236423D01*
X131809Y234687D01*
X131290Y232752D01*
Y230748D01*
X131809Y228813D01*
X132810Y227077D01*
X134227Y225660D01*
X135963Y224659D01*
X137898Y224140D01*
X139902D01*
X141837Y224659D01*
X143573Y225660D01*
X144990Y227077D01*
X145991Y228813D01*
X146510Y230748D01*
Y232752D01*
X145991Y234687D01*
X144990Y236423D01*
X143573Y237840D01*
X141837Y238841D01*
X139902Y239360D01*
D02*
G37*
G36*
X366551Y228770D02*
X365449D01*
X364431Y228348D01*
X363652Y227569D01*
X363230Y226551D01*
Y225449D01*
X363652Y224431D01*
X364431Y223652D01*
X365449Y223230D01*
X366551D01*
X367569Y223652D01*
X368348Y224431D01*
X368770Y225449D01*
Y226551D01*
X368348Y227569D01*
X367569Y228348D01*
X366551Y228770D01*
D02*
G37*
G36*
X652551Y227770D02*
X651449D01*
X650431Y227348D01*
X649652Y226569D01*
X649230Y225551D01*
Y224449D01*
X649652Y223431D01*
X650431Y222652D01*
X650772Y222510D01*
Y221136D01*
X650431Y220994D01*
X649652Y220215D01*
X649230Y219197D01*
Y218095D01*
X649652Y217077D01*
X650431Y216298D01*
X651449Y215876D01*
X652551D01*
X653569Y216298D01*
X654348Y217077D01*
X654770Y218095D01*
Y219197D01*
X654348Y220215D01*
X653569Y220994D01*
X653228Y221136D01*
Y222510D01*
X653569Y222652D01*
X654348Y223431D01*
X654770Y224449D01*
Y225551D01*
X654348Y226569D01*
X653569Y227348D01*
X652551Y227770D01*
D02*
G37*
G36*
X849270Y231090D02*
X846930D01*
X844669Y230484D01*
X842641Y229314D01*
X840986Y227659D01*
X839816Y225631D01*
X839210Y223370D01*
Y221030D01*
X839816Y218769D01*
X840986Y216741D01*
X842641Y215086D01*
X844669Y213916D01*
X846930Y213310D01*
X849270D01*
X851531Y213916D01*
X853559Y215086D01*
X855214Y216741D01*
X856384Y218769D01*
X856990Y221030D01*
Y223370D01*
X856384Y225631D01*
X855214Y227659D01*
X853559Y229314D01*
X851531Y230484D01*
X849270Y231090D01*
D02*
G37*
G36*
X366551Y218770D02*
X365449D01*
X364431Y218348D01*
X363652Y217569D01*
X363230Y216551D01*
Y215449D01*
X363652Y214431D01*
X364431Y213652D01*
X365449Y213230D01*
X366551D01*
X367569Y213652D01*
X368348Y214431D01*
X368770Y215449D01*
Y216551D01*
X368348Y217569D01*
X367569Y218348D01*
X366551Y218770D01*
D02*
G37*
G36*
X114502Y226660D02*
X112498D01*
X110563Y226141D01*
X108827Y225140D01*
X107410Y223723D01*
X106409Y221987D01*
X105890Y220052D01*
Y218048D01*
X106409Y216113D01*
X107410Y214377D01*
X108827Y212960D01*
X110563Y211959D01*
X112498Y211440D01*
X114502D01*
X116437Y211959D01*
X118173Y212960D01*
X119590Y214377D01*
X120591Y216113D01*
X121110Y218048D01*
Y220052D01*
X120591Y221987D01*
X119590Y223723D01*
X118173Y225140D01*
X116437Y226141D01*
X114502Y226660D01*
D02*
G37*
G36*
X658551Y216279D02*
X657449D01*
X656431Y215858D01*
X655652Y215078D01*
X655230Y214060D01*
Y212958D01*
X655652Y211940D01*
X656431Y211161D01*
X657449Y210739D01*
X658551D01*
X659569Y211161D01*
X660348Y211940D01*
X660770Y212958D01*
Y214060D01*
X660348Y215078D01*
X659569Y215858D01*
X658551Y216279D01*
D02*
G37*
G36*
X646551D02*
X645449D01*
X644431Y215858D01*
X643652Y215078D01*
X643230Y214060D01*
Y212958D01*
X643652Y211940D01*
X644431Y211161D01*
X645449Y210739D01*
X646551D01*
X647569Y211161D01*
X648348Y211940D01*
X648770Y212958D01*
Y214060D01*
X648348Y215078D01*
X647569Y215858D01*
X646551Y216279D01*
D02*
G37*
G36*
X760551Y212770D02*
X759449D01*
X758431Y212348D01*
X757652Y211569D01*
X757230Y210551D01*
Y209449D01*
X757652Y208431D01*
X758431Y207652D01*
X759449Y207230D01*
X760551D01*
X761569Y207652D01*
X762348Y208431D01*
X762770Y209449D01*
Y210551D01*
X762348Y211569D01*
X761569Y212348D01*
X760551Y212770D01*
D02*
G37*
G36*
X191154Y221470D02*
X188845D01*
X186615Y220872D01*
X184615Y219717D01*
X182982Y218085D01*
X181828Y216085D01*
X181230Y213854D01*
Y211545D01*
X181828Y209314D01*
X182982Y207315D01*
X184615Y205682D01*
X186615Y204527D01*
X188845Y203930D01*
X191154D01*
X193385Y204527D01*
X195385Y205682D01*
X197017Y207315D01*
X198172Y209314D01*
X198770Y211545D01*
Y213854D01*
X198172Y216085D01*
X197017Y218085D01*
X195385Y219717D01*
X193385Y220872D01*
X191154Y221470D01*
D02*
G37*
G36*
X729551Y207770D02*
X728449D01*
X727431Y207348D01*
X726652Y206569D01*
X726230Y205551D01*
Y204449D01*
X726652Y203431D01*
X727431Y202652D01*
X728449Y202230D01*
X729551D01*
X730569Y202652D01*
X731348Y203431D01*
X731770Y204449D01*
Y205551D01*
X731348Y206569D01*
X730569Y207348D01*
X729551Y207770D01*
D02*
G37*
G36*
X268051Y206270D02*
X266949D01*
X265931Y205848D01*
X265152Y205069D01*
X264730Y204051D01*
Y202949D01*
X265152Y201931D01*
X265931Y201152D01*
X266949Y200730D01*
X268051D01*
X269069Y201152D01*
X269848Y201931D01*
X270270Y202949D01*
Y204051D01*
X269848Y205069D01*
X269069Y205848D01*
X268051Y206270D01*
D02*
G37*
G36*
X823870Y218390D02*
X821530D01*
X819269Y217784D01*
X817241Y216614D01*
X815586Y214959D01*
X814416Y212931D01*
X813810Y210670D01*
Y208330D01*
X814416Y206069D01*
X815586Y204041D01*
X817241Y202386D01*
X819269Y201216D01*
X821530Y200610D01*
X823870D01*
X826131Y201216D01*
X828159Y202386D01*
X829814Y204041D01*
X830984Y206069D01*
X831590Y208330D01*
Y210670D01*
X830984Y212931D01*
X829814Y214959D01*
X828159Y216614D01*
X826131Y217784D01*
X823870Y218390D01*
D02*
G37*
G36*
X698551Y204770D02*
X697449D01*
X696431Y204348D01*
X695652Y203569D01*
X695230Y202551D01*
Y201449D01*
X695652Y200431D01*
X696431Y199652D01*
X697449Y199230D01*
X698551D01*
X699569Y199652D01*
X700348Y200431D01*
X700770Y201449D01*
Y202551D01*
X700348Y203569D01*
X699569Y204348D01*
X698551Y204770D01*
D02*
G37*
G36*
X139902Y213960D02*
X137898D01*
X135963Y213441D01*
X134227Y212439D01*
X132810Y211023D01*
X131809Y209287D01*
X131290Y207352D01*
Y205348D01*
X131809Y203413D01*
X132810Y201677D01*
X134227Y200261D01*
X135963Y199259D01*
X137898Y198740D01*
X139902D01*
X141837Y199259D01*
X143573Y200261D01*
X144990Y201677D01*
X145991Y203413D01*
X146510Y205348D01*
Y207352D01*
X145991Y209287D01*
X144990Y211023D01*
X143573Y212439D01*
X141837Y213441D01*
X139902Y213960D01*
D02*
G37*
G36*
X659551Y202770D02*
X658449D01*
X657431Y202348D01*
X656652Y201569D01*
X656230Y200551D01*
Y199449D01*
X656652Y198431D01*
X657431Y197652D01*
X658449Y197230D01*
X659551D01*
X660569Y197652D01*
X661348Y198431D01*
X661770Y199449D01*
Y200551D01*
X661348Y201569D01*
X660569Y202348D01*
X659551Y202770D01*
D02*
G37*
G36*
X565551Y202770D02*
X564449D01*
X563431Y202348D01*
X562652Y201569D01*
X562230Y200551D01*
Y199449D01*
X562652Y198431D01*
X563431Y197652D01*
X564449Y197230D01*
X565551D01*
X566569Y197652D01*
X567348Y198431D01*
X567770Y199449D01*
Y200551D01*
X567348Y201569D01*
X566569Y202348D01*
X565551Y202770D01*
D02*
G37*
G36*
X735551Y197770D02*
X734449D01*
X733431Y197348D01*
X732652Y196569D01*
X732230Y195551D01*
Y194449D01*
X732652Y193431D01*
X733431Y192652D01*
X734449Y192230D01*
X735551D01*
X736569Y192652D01*
X737348Y193431D01*
X737770Y194449D01*
Y195551D01*
X737348Y196569D01*
X736569Y197348D01*
X735551Y197770D01*
D02*
G37*
G36*
X495551Y194770D02*
X494449D01*
X493431Y194348D01*
X492652Y193569D01*
X492230Y192551D01*
Y191449D01*
X492652Y190431D01*
X493431Y189652D01*
X494449Y189230D01*
X495551D01*
X496569Y189652D01*
X497348Y190431D01*
X497770Y191449D01*
Y192551D01*
X497348Y193569D01*
X496569Y194348D01*
X495551Y194770D01*
D02*
G37*
G36*
X485551D02*
X484449D01*
X483431Y194348D01*
X482652Y193569D01*
X482230Y192551D01*
Y191449D01*
X482652Y190431D01*
X483431Y189652D01*
X484449Y189230D01*
X485551D01*
X486569Y189652D01*
X487348Y190431D01*
X487770Y191449D01*
Y192551D01*
X487348Y193569D01*
X486569Y194348D01*
X485551Y194770D01*
D02*
G37*
G36*
X849270Y205690D02*
X846930D01*
X844669Y205084D01*
X842641Y203914D01*
X840986Y202259D01*
X839816Y200231D01*
X839210Y197970D01*
Y195630D01*
X839816Y193369D01*
X840986Y191341D01*
X842641Y189686D01*
X844669Y188516D01*
X846930Y187910D01*
X849270D01*
X851531Y188516D01*
X853559Y189686D01*
X855214Y191341D01*
X856384Y193369D01*
X856990Y195630D01*
Y197970D01*
X856384Y200231D01*
X855214Y202259D01*
X853559Y203914D01*
X851531Y205084D01*
X849270Y205690D01*
D02*
G37*
G36*
X114502Y201260D02*
X112498D01*
X110563Y200741D01*
X108827Y199739D01*
X107410Y198323D01*
X106409Y196587D01*
X105890Y194652D01*
Y192648D01*
X106409Y190713D01*
X107410Y188977D01*
X108827Y187561D01*
X110563Y186559D01*
X112498Y186040D01*
X114502D01*
X116437Y186559D01*
X118173Y187561D01*
X119590Y188977D01*
X120591Y190713D01*
X121110Y192648D01*
Y194652D01*
X120591Y196587D01*
X119590Y198323D01*
X118173Y199739D01*
X116437Y200741D01*
X114502Y201260D01*
D02*
G37*
G36*
X952551Y187770D02*
X951449D01*
X950431Y187348D01*
X949652Y186569D01*
X949230Y185551D01*
Y184449D01*
X949652Y183431D01*
X950431Y182652D01*
X951449Y182230D01*
X952551D01*
X953569Y182652D01*
X954348Y183431D01*
X954770Y184449D01*
Y185551D01*
X954348Y186569D01*
X953569Y187348D01*
X952551Y187770D01*
D02*
G37*
G36*
X495551Y184770D02*
X494449D01*
X493431Y184348D01*
X492652Y183569D01*
X492230Y182551D01*
Y181449D01*
X492652Y180431D01*
X493431Y179652D01*
X494449Y179230D01*
X495551D01*
X496569Y179652D01*
X497348Y180431D01*
X497770Y181449D01*
Y182551D01*
X497348Y183569D01*
X496569Y184348D01*
X495551Y184770D01*
D02*
G37*
G36*
X485551D02*
X484449D01*
X483431Y184348D01*
X482652Y183569D01*
X482230Y182551D01*
Y181449D01*
X482652Y180431D01*
X483431Y179652D01*
X484449Y179230D01*
X485551D01*
X486569Y179652D01*
X487348Y180431D01*
X487770Y181449D01*
Y182551D01*
X487348Y183569D01*
X486569Y184348D01*
X485551Y184770D01*
D02*
G37*
G36*
X191155Y196070D02*
X188846D01*
X186615Y195473D01*
X184615Y194318D01*
X182983Y192685D01*
X181828Y190686D01*
X181230Y188455D01*
Y186146D01*
X181828Y183915D01*
X182983Y181915D01*
X184615Y180283D01*
X186615Y179128D01*
X188846Y178530D01*
X191155D01*
X193385Y179128D01*
X195385Y180283D01*
X197018Y181915D01*
X198172Y183915D01*
X198770Y186146D01*
Y188455D01*
X198172Y190686D01*
X197018Y192685D01*
X195385Y194318D01*
X193385Y195473D01*
X191155Y196070D01*
D02*
G37*
G36*
X576551Y182770D02*
X575449D01*
X574431Y182348D01*
X573652Y181569D01*
X573230Y180551D01*
Y179449D01*
X573652Y178431D01*
X574431Y177652D01*
X575449Y177230D01*
X576551D01*
X577569Y177652D01*
X578348Y178431D01*
X578770Y179449D01*
Y180551D01*
X578348Y181569D01*
X577569Y182348D01*
X576551Y182770D01*
D02*
G37*
G36*
X415551D02*
X414449D01*
X413431Y182348D01*
X412652Y181569D01*
X412230Y180551D01*
Y179449D01*
X412652Y178431D01*
X413431Y177652D01*
X414449Y177230D01*
X415551D01*
X416569Y177652D01*
X417348Y178431D01*
X417770Y179449D01*
Y180551D01*
X417348Y181569D01*
X416569Y182348D01*
X415551Y182770D01*
D02*
G37*
G36*
X823870Y192990D02*
X821530D01*
X819269Y192384D01*
X817241Y191214D01*
X815586Y189559D01*
X814416Y187531D01*
X813810Y185270D01*
Y182930D01*
X814416Y180669D01*
X815586Y178641D01*
X817241Y176986D01*
X819269Y175816D01*
X821530Y175210D01*
X823870D01*
X826131Y175816D01*
X828159Y176986D01*
X829814Y178641D01*
X830984Y180669D01*
X831590Y182930D01*
Y185270D01*
X830984Y187531D01*
X829814Y189559D01*
X828159Y191214D01*
X826131Y192384D01*
X823870Y192990D01*
D02*
G37*
G36*
X139902Y188560D02*
X137898D01*
X135963Y188041D01*
X134227Y187040D01*
X132810Y185623D01*
X131809Y183887D01*
X131290Y181952D01*
Y179948D01*
X131809Y178013D01*
X132810Y176277D01*
X134227Y174860D01*
X135963Y173859D01*
X137898Y173340D01*
X139902D01*
X141837Y173859D01*
X143573Y174860D01*
X144990Y176277D01*
X145991Y178013D01*
X146510Y179948D01*
Y181952D01*
X145991Y183887D01*
X144990Y185623D01*
X143573Y187040D01*
X141837Y188041D01*
X139902Y188560D01*
D02*
G37*
G36*
X662551Y174770D02*
X661449D01*
X660431Y174348D01*
X659652Y173569D01*
X659230Y172551D01*
Y171449D01*
X659652Y170431D01*
X660431Y169652D01*
X661449Y169230D01*
X662551D01*
X663569Y169652D01*
X664348Y170431D01*
X664770Y171449D01*
Y172551D01*
X664348Y173569D01*
X663569Y174348D01*
X662551Y174770D01*
D02*
G37*
G36*
X646551D02*
X645449D01*
X644431Y174348D01*
X643652Y173569D01*
X643230Y172551D01*
Y171449D01*
X643652Y170431D01*
X644431Y169652D01*
X645449Y169230D01*
X646551D01*
X647569Y169652D01*
X648348Y170431D01*
X648770Y171449D01*
Y172551D01*
X648348Y173569D01*
X647569Y174348D01*
X646551Y174770D01*
D02*
G37*
G36*
X657938Y168770D02*
X656836D01*
X655818Y168348D01*
X655039Y167569D01*
X654949Y167353D01*
X653575D01*
X653485Y167569D01*
X652706Y168348D01*
X651688Y168770D01*
X650586D01*
X649568Y168348D01*
X648789Y167569D01*
X648367Y166551D01*
Y165449D01*
X648789Y164431D01*
X649568Y163652D01*
X650586Y163230D01*
X651688D01*
X652706Y163652D01*
X653485Y164431D01*
X653575Y164647D01*
X654949D01*
X655039Y164431D01*
X655818Y163652D01*
X656836Y163230D01*
X657938D01*
X658956Y163652D01*
X659735Y164431D01*
X660157Y165449D01*
Y166551D01*
X659735Y167569D01*
X658956Y168348D01*
X657938Y168770D01*
D02*
G37*
G36*
X339551Y171770D02*
X338449D01*
X337431Y171348D01*
X336652Y170569D01*
X336230Y169551D01*
Y168449D01*
X336652Y167431D01*
X337431Y166652D01*
X338449Y166230D01*
X339551D01*
X340569Y166652D01*
X341348Y167431D01*
X341770Y168449D01*
Y169551D01*
X341348Y170569D01*
X340569Y171348D01*
X339551Y171770D01*
D02*
G37*
G36*
X453279Y169179D02*
X452177D01*
X451158Y168758D01*
X450379Y167978D01*
X449958Y166960D01*
Y165858D01*
X450379Y164840D01*
X451158Y164061D01*
X452177Y163639D01*
X453279D01*
X454297Y164061D01*
X455076Y164840D01*
X455498Y165858D01*
Y166960D01*
X455076Y167978D01*
X454297Y168758D01*
X453279Y169179D01*
D02*
G37*
G36*
X849270Y180290D02*
X846930D01*
X844669Y179684D01*
X842641Y178514D01*
X840986Y176859D01*
X839816Y174831D01*
X839210Y172570D01*
Y170230D01*
X839816Y167969D01*
X840986Y165941D01*
X842641Y164286D01*
X844669Y163116D01*
X846930Y162510D01*
X849270D01*
X851531Y163116D01*
X853559Y164286D01*
X855214Y165941D01*
X856384Y167969D01*
X856990Y170230D01*
Y172570D01*
X856384Y174831D01*
X855214Y176859D01*
X853559Y178514D01*
X851531Y179684D01*
X849270Y180290D01*
D02*
G37*
G36*
X114502Y175860D02*
X112498D01*
X110563Y175341D01*
X108827Y174340D01*
X107410Y172923D01*
X106409Y171187D01*
X105890Y169252D01*
Y167248D01*
X106409Y165313D01*
X107410Y163577D01*
X108827Y162160D01*
X110563Y161159D01*
X112498Y160640D01*
X114502D01*
X116437Y161159D01*
X118173Y162160D01*
X119590Y163577D01*
X120591Y165313D01*
X121110Y167248D01*
Y169252D01*
X120591Y171187D01*
X119590Y172923D01*
X118173Y174340D01*
X116437Y175341D01*
X114502Y175860D01*
D02*
G37*
G36*
X662551Y162770D02*
X661449D01*
X660431Y162348D01*
X659652Y161569D01*
X659230Y160551D01*
Y159449D01*
X659652Y158431D01*
X660431Y157652D01*
X661449Y157230D01*
X662551D01*
X663569Y157652D01*
X664348Y158431D01*
X664770Y159449D01*
Y160551D01*
X664348Y161569D01*
X663569Y162348D01*
X662551Y162770D01*
D02*
G37*
G36*
X646551D02*
X645449D01*
X644431Y162348D01*
X643652Y161569D01*
X643230Y160551D01*
Y159449D01*
X643652Y158431D01*
X644431Y157652D01*
X645449Y157230D01*
X646551D01*
X647569Y157652D01*
X648348Y158431D01*
X648770Y159449D01*
Y160551D01*
X648348Y161569D01*
X647569Y162348D01*
X646551Y162770D01*
D02*
G37*
G36*
X191155Y170670D02*
X188846D01*
X186615Y170073D01*
X184615Y168918D01*
X182983Y167285D01*
X181828Y165285D01*
X181230Y163055D01*
Y160746D01*
X181828Y158515D01*
X182983Y156516D01*
X184615Y154883D01*
X186615Y153728D01*
X188846Y153130D01*
X191155D01*
X193385Y153728D01*
X195385Y154883D01*
X197018Y156516D01*
X198172Y158515D01*
X198770Y160746D01*
Y163055D01*
X198172Y165285D01*
X197018Y167285D01*
X195385Y168918D01*
X193385Y170073D01*
X191155Y170670D01*
D02*
G37*
G36*
X823870Y167590D02*
X821530D01*
X819269Y166984D01*
X817241Y165814D01*
X815586Y164159D01*
X814416Y162131D01*
X813810Y159870D01*
Y157530D01*
X814416Y155269D01*
X815586Y153241D01*
X817241Y151586D01*
X819269Y150416D01*
X821530Y149810D01*
X823870D01*
X826131Y150416D01*
X828159Y151586D01*
X829814Y153241D01*
X830984Y155269D01*
X831590Y157530D01*
Y159870D01*
X830984Y162131D01*
X829814Y164159D01*
X828159Y165814D01*
X826131Y166984D01*
X823870Y167590D01*
D02*
G37*
G36*
X729551Y154770D02*
X728449D01*
X727431Y154348D01*
X726652Y153569D01*
X726230Y152551D01*
Y151449D01*
X726652Y150431D01*
X727431Y149652D01*
X728449Y149230D01*
X729551D01*
X730569Y149652D01*
X731348Y150431D01*
X731770Y151449D01*
Y152551D01*
X731348Y153569D01*
X730569Y154348D01*
X729551Y154770D01*
D02*
G37*
G36*
X139902Y163160D02*
X137898D01*
X135963Y162641D01*
X134227Y161639D01*
X132810Y160223D01*
X131809Y158487D01*
X131290Y156552D01*
Y154548D01*
X131809Y152613D01*
X132810Y150877D01*
X134227Y149460D01*
X135963Y148459D01*
X137898Y147940D01*
X139902D01*
X141837Y148459D01*
X143573Y149460D01*
X144990Y150877D01*
X145991Y152613D01*
X146510Y154548D01*
Y156552D01*
X145991Y158487D01*
X144990Y160223D01*
X143573Y161639D01*
X141837Y162641D01*
X139902Y163160D01*
D02*
G37*
G36*
X413551Y152770D02*
X412449D01*
X411431Y152348D01*
X410652Y151569D01*
X410230Y150551D01*
Y149449D01*
X410652Y148431D01*
X411431Y147652D01*
X412449Y147230D01*
X413551D01*
X414569Y147652D01*
X415348Y148431D01*
X415770Y149449D01*
Y150551D01*
X415348Y151569D01*
X414569Y152348D01*
X413551Y152770D01*
D02*
G37*
G36*
X296551Y152770D02*
X295449D01*
X294431Y152348D01*
X293652Y151569D01*
X293230Y150551D01*
Y149449D01*
X293652Y148431D01*
X294431Y147652D01*
X295449Y147230D01*
X296551D01*
X297569Y147652D01*
X298348Y148431D01*
X298770Y149449D01*
Y150551D01*
X298348Y151569D01*
X297569Y152348D01*
X296551Y152770D01*
D02*
G37*
G36*
X277551D02*
X276449D01*
X275431Y152348D01*
X274652Y151569D01*
X274230Y150551D01*
Y149449D01*
X274652Y148431D01*
X275431Y147652D01*
X276449Y147230D01*
X277551D01*
X278569Y147652D01*
X279348Y148431D01*
X279770Y149449D01*
Y150551D01*
X279348Y151569D01*
X278569Y152348D01*
X277551Y152770D01*
D02*
G37*
G36*
X735551Y147770D02*
X734449D01*
X733431Y147348D01*
X732652Y146569D01*
X732230Y145551D01*
Y144449D01*
X732652Y143431D01*
X733431Y142652D01*
X734449Y142230D01*
X735551D01*
X736569Y142652D01*
X737348Y143431D01*
X737770Y144449D01*
Y145551D01*
X737348Y146569D01*
X736569Y147348D01*
X735551Y147770D01*
D02*
G37*
G36*
X659551Y142770D02*
X658449D01*
X657431Y142348D01*
X656652Y141569D01*
X656230Y140551D01*
Y139449D01*
X656652Y138431D01*
X657431Y137652D01*
X658449Y137230D01*
X659551D01*
X660569Y137652D01*
X661348Y138431D01*
X661770Y139449D01*
Y140551D01*
X661348Y141569D01*
X660569Y142348D01*
X659551Y142770D01*
D02*
G37*
G36*
X849270Y154890D02*
X846930D01*
X844669Y154284D01*
X842641Y153114D01*
X840986Y151459D01*
X839816Y149431D01*
X839210Y147170D01*
Y144830D01*
X839816Y142569D01*
X840986Y140541D01*
X842641Y138886D01*
X844669Y137716D01*
X846930Y137110D01*
X849270D01*
X851531Y137716D01*
X853559Y138886D01*
X855214Y140541D01*
X856384Y142569D01*
X856990Y144830D01*
Y147170D01*
X856384Y149431D01*
X855214Y151459D01*
X853559Y153114D01*
X851531Y154284D01*
X849270Y154890D01*
D02*
G37*
G36*
X580551Y142270D02*
X579449D01*
X578431Y141848D01*
X577652Y141069D01*
X577230Y140051D01*
Y138949D01*
X577652Y137931D01*
X578431Y137152D01*
X579449Y136730D01*
X580551D01*
X581569Y137152D01*
X582348Y137931D01*
X582770Y138949D01*
Y140051D01*
X582348Y141069D01*
X581569Y141848D01*
X580551Y142270D01*
D02*
G37*
G36*
X698551Y141270D02*
X697449D01*
X696431Y140848D01*
X695652Y140069D01*
X695230Y139051D01*
Y137949D01*
X695652Y136931D01*
X696431Y136152D01*
X697449Y135730D01*
X698551D01*
X699569Y136152D01*
X700348Y136931D01*
X700770Y137949D01*
Y139051D01*
X700348Y140069D01*
X699569Y140848D01*
X698551Y141270D01*
D02*
G37*
G36*
X495551Y140770D02*
X494449D01*
X493431Y140348D01*
X492652Y139569D01*
X492230Y138551D01*
Y137449D01*
X492652Y136431D01*
X493431Y135652D01*
X494449Y135230D01*
X495551D01*
X496569Y135652D01*
X497348Y136431D01*
X497770Y137449D01*
Y138551D01*
X497348Y139569D01*
X496569Y140348D01*
X495551Y140770D01*
D02*
G37*
G36*
X485551D02*
X484449D01*
X483431Y140348D01*
X482652Y139569D01*
X482230Y138551D01*
Y137449D01*
X482652Y136431D01*
X483431Y135652D01*
X484449Y135230D01*
X485551D01*
X486569Y135652D01*
X487348Y136431D01*
X487770Y137449D01*
Y138551D01*
X487348Y139569D01*
X486569Y140348D01*
X485551Y140770D01*
D02*
G37*
G36*
X573551Y132770D02*
X572449D01*
X571431Y132348D01*
X570652Y131569D01*
X570230Y130551D01*
Y129449D01*
X570652Y128431D01*
X571431Y127652D01*
X572449Y127230D01*
X573551D01*
X574569Y127652D01*
X575348Y128431D01*
X575770Y129449D01*
Y130551D01*
X575348Y131569D01*
X574569Y132348D01*
X573551Y132770D01*
D02*
G37*
G36*
X51701Y160120D02*
X48299D01*
X44963Y159456D01*
X41820Y158154D01*
X38991Y156264D01*
X36586Y153859D01*
X34695Y151030D01*
X33394Y147887D01*
X32730Y144551D01*
Y141149D01*
X33394Y137812D01*
X34695Y134670D01*
X36586Y131841D01*
X38991Y129436D01*
X41820Y127545D01*
X44963Y126244D01*
X48299Y125580D01*
X51701D01*
X55037Y126244D01*
X58180Y127545D01*
X61009Y129436D01*
X63415Y131841D01*
X65304Y134670D01*
X66606Y137812D01*
X67270Y141149D01*
Y144551D01*
X66606Y147887D01*
X65304Y151030D01*
X63415Y153859D01*
X61009Y156264D01*
X58180Y158154D01*
X55037Y159456D01*
X51701Y160120D01*
D02*
G37*
G36*
X495551Y130770D02*
X494449D01*
X493431Y130348D01*
X492652Y129569D01*
X492230Y128551D01*
Y127449D01*
X492652Y126431D01*
X493431Y125652D01*
X494449Y125230D01*
X495551D01*
X496569Y125652D01*
X497348Y126431D01*
X497770Y127449D01*
Y128551D01*
X497348Y129569D01*
X496569Y130348D01*
X495551Y130770D01*
D02*
G37*
G36*
X485551D02*
X484449D01*
X483431Y130348D01*
X482652Y129569D01*
X482230Y128551D01*
Y127449D01*
X482652Y126431D01*
X483431Y125652D01*
X484449Y125230D01*
X485551D01*
X486569Y125652D01*
X487348Y126431D01*
X487770Y127449D01*
Y128551D01*
X487348Y129569D01*
X486569Y130348D01*
X485551Y130770D01*
D02*
G37*
G36*
X188551Y100770D02*
X187449D01*
X186431Y100348D01*
X185652Y99569D01*
X185230Y98551D01*
Y97449D01*
X185652Y96431D01*
X186431Y95652D01*
X187449Y95230D01*
X188551D01*
X189569Y95652D01*
X190348Y96431D01*
X190770Y97449D01*
Y98551D01*
X190348Y99569D01*
X189569Y100348D01*
X188551Y100770D01*
D02*
G37*
G36*
X176551D02*
X175449D01*
X174431Y100348D01*
X173652Y99569D01*
X173230Y98551D01*
Y97449D01*
X173652Y96431D01*
X174431Y95652D01*
X175449Y95230D01*
X176551D01*
X177569Y95652D01*
X178348Y96431D01*
X178770Y97449D01*
Y98551D01*
X178348Y99569D01*
X177569Y100348D01*
X176551Y100770D01*
D02*
G37*
G36*
X455551Y99770D02*
X454449D01*
X453431Y99348D01*
X452652Y98569D01*
X452230Y97551D01*
Y96449D01*
X452652Y95431D01*
X453431Y94652D01*
X454449Y94230D01*
X455551D01*
X456569Y94652D01*
X457348Y95431D01*
X457770Y96449D01*
Y97551D01*
X457348Y98569D01*
X456569Y99348D01*
X455551Y99770D01*
D02*
G37*
G36*
X445551D02*
X444449D01*
X443431Y99348D01*
X442652Y98569D01*
X442230Y97551D01*
Y96449D01*
X442652Y95431D01*
X443431Y94652D01*
X444449Y94230D01*
X445551D01*
X446569Y94652D01*
X447348Y95431D01*
X447770Y96449D01*
Y97551D01*
X447348Y98569D01*
X446569Y99348D01*
X445551Y99770D01*
D02*
G37*
G36*
X291155Y68770D02*
X288845D01*
X286615Y68172D01*
X284615Y67018D01*
X282982Y65385D01*
X281828Y63385D01*
X281230Y61155D01*
Y58845D01*
X281828Y56615D01*
X282982Y54615D01*
X284615Y52982D01*
X286615Y51828D01*
X288845Y51230D01*
X291155D01*
X293385Y51828D01*
X295385Y52982D01*
X297018Y54615D01*
X298172Y56615D01*
X298770Y58845D01*
Y61155D01*
X298172Y63385D01*
X297018Y65385D01*
X295385Y67018D01*
X293385Y68172D01*
X291155Y68770D01*
D02*
G37*
G36*
X220900Y56421D02*
X219798D01*
X218780Y55999D01*
X218001Y55220D01*
X217579Y54202D01*
Y53100D01*
X218001Y52082D01*
X218780Y51302D01*
X219798Y50881D01*
X220900D01*
X221918Y51302D01*
X222698Y52082D01*
X223119Y53100D01*
Y54202D01*
X222698Y55220D01*
X221918Y55999D01*
X220900Y56421D01*
D02*
G37*
G36*
X240551Y54270D02*
X239449D01*
X238431Y53848D01*
X237652Y53069D01*
X237230Y52051D01*
Y50949D01*
X237652Y49931D01*
X238431Y49152D01*
X239449Y48730D01*
X240551D01*
X241569Y49152D01*
X242348Y49931D01*
X242770Y50949D01*
Y52051D01*
X242348Y53069D01*
X241569Y53848D01*
X240551Y54270D01*
D02*
G37*
G36*
X632551Y38770D02*
X631449D01*
X630431Y38348D01*
X629652Y37569D01*
X629230Y36551D01*
Y35449D01*
X629652Y34431D01*
X630431Y33652D01*
X631449Y33230D01*
X632551D01*
X633569Y33652D01*
X634348Y34431D01*
X634770Y35449D01*
Y36551D01*
X634348Y37569D01*
X633569Y38348D01*
X632551Y38770D01*
D02*
G37*
G36*
X608551D02*
X607449D01*
X606431Y38348D01*
X605652Y37569D01*
X605230Y36551D01*
Y35449D01*
X605652Y34431D01*
X606431Y33652D01*
X607449Y33230D01*
X608551D01*
X609569Y33652D01*
X610348Y34431D01*
X610770Y35449D01*
Y36551D01*
X610348Y37569D01*
X609569Y38348D01*
X608551Y38770D01*
D02*
G37*
G36*
X228551Y35770D02*
X227449D01*
X226431Y35348D01*
X225652Y34569D01*
X225230Y33551D01*
Y32449D01*
X225652Y31431D01*
X226431Y30652D01*
X227449Y30230D01*
X228551D01*
X229569Y30652D01*
X230348Y31431D01*
X230770Y32449D01*
Y33551D01*
X230348Y34569D01*
X229569Y35348D01*
X228551Y35770D01*
D02*
G37*
G36*
X632551Y28770D02*
X631449D01*
X630431Y28348D01*
X629652Y27569D01*
X629230Y26551D01*
Y25449D01*
X629652Y24431D01*
X630431Y23652D01*
X631449Y23230D01*
X632551D01*
X633569Y23652D01*
X634348Y24431D01*
X634770Y25449D01*
Y26551D01*
X634348Y27569D01*
X633569Y28348D01*
X632551Y28770D01*
D02*
G37*
G36*
X608551D02*
X607449D01*
X606431Y28348D01*
X605652Y27569D01*
X605230Y26551D01*
Y25449D01*
X605652Y24431D01*
X606431Y23652D01*
X607449Y23230D01*
X608551D01*
X609569Y23652D01*
X610348Y24431D01*
X610770Y25449D01*
Y26551D01*
X610348Y27569D01*
X609569Y28348D01*
X608551Y28770D01*
D02*
G37*
G36*
X392551D02*
X391449D01*
X390431Y28348D01*
X389652Y27569D01*
X389230Y26551D01*
Y25449D01*
X389652Y24431D01*
X390431Y23652D01*
X391449Y23230D01*
X392551D01*
X393569Y23652D01*
X394348Y24431D01*
X394770Y25449D01*
Y26551D01*
X394348Y27569D01*
X393569Y28348D01*
X392551Y28770D01*
D02*
G37*
G36*
X368551D02*
X367449D01*
X366431Y28348D01*
X365652Y27569D01*
X365230Y26551D01*
Y25449D01*
X365652Y24431D01*
X366431Y23652D01*
X367449Y23230D01*
X368551D01*
X369569Y23652D01*
X370348Y24431D01*
X370770Y25449D01*
Y26551D01*
X370348Y27569D01*
X369569Y28348D01*
X368551Y28770D01*
D02*
G37*
G36*
X632551Y18770D02*
X631449D01*
X630431Y18348D01*
X629652Y17569D01*
X629230Y16551D01*
Y15449D01*
X629652Y14431D01*
X630431Y13652D01*
X631449Y13230D01*
X632551D01*
X633569Y13652D01*
X634348Y14431D01*
X634770Y15449D01*
Y16551D01*
X634348Y17569D01*
X633569Y18348D01*
X632551Y18770D01*
D02*
G37*
G36*
X608551D02*
X607449D01*
X606431Y18348D01*
X605652Y17569D01*
X605230Y16551D01*
Y15449D01*
X605652Y14431D01*
X606431Y13652D01*
X607449Y13230D01*
X608551D01*
X609569Y13652D01*
X610348Y14431D01*
X610770Y15449D01*
Y16551D01*
X610348Y17569D01*
X609569Y18348D01*
X608551Y18770D01*
D02*
G37*
G36*
X392551D02*
X391449D01*
X390431Y18348D01*
X389652Y17569D01*
X389230Y16551D01*
Y15449D01*
X389652Y14431D01*
X390431Y13652D01*
X391449Y13230D01*
X392551D01*
X393569Y13652D01*
X394348Y14431D01*
X394770Y15449D01*
Y16551D01*
X394348Y17569D01*
X393569Y18348D01*
X392551Y18770D01*
D02*
G37*
G36*
X368551D02*
X367449D01*
X366431Y18348D01*
X365652Y17569D01*
X365230Y16551D01*
Y15449D01*
X365652Y14431D01*
X366431Y13652D01*
X367449Y13230D01*
X368551D01*
X369569Y13652D01*
X370348Y14431D01*
X370770Y15449D01*
Y16551D01*
X370348Y17569D01*
X369569Y18348D01*
X368551Y18770D01*
D02*
G37*
G36*
X52705Y91270D02*
X47295D01*
X41931Y90564D01*
X36706Y89164D01*
X31708Y87093D01*
X27022Y84388D01*
X22730Y81095D01*
X18905Y77270D01*
X15612Y72978D01*
X12907Y68292D01*
X10836Y63294D01*
X9436Y58069D01*
X8730Y52705D01*
Y47295D01*
X9436Y41931D01*
X10836Y36706D01*
X12907Y31708D01*
X15612Y27022D01*
X18905Y22730D01*
X22730Y18905D01*
X27022Y15612D01*
X31708Y12907D01*
X36706Y10836D01*
X41931Y9436D01*
X47295Y8730D01*
X52705D01*
X58069Y9436D01*
X63294Y10836D01*
X68292Y12907D01*
X72978Y15612D01*
X77270Y18905D01*
X81095Y22730D01*
X84388Y27022D01*
X87093Y31708D01*
X89164Y36706D01*
X90564Y41931D01*
X91270Y47295D01*
Y52705D01*
X90564Y58069D01*
X89164Y63294D01*
X87093Y68292D01*
X84388Y72978D01*
X81095Y77270D01*
X77270Y81095D01*
X72978Y84388D01*
X68292Y87093D01*
X63294Y89164D01*
X58069Y90564D01*
X52705Y91270D01*
D02*
G37*
%LPD*%
G36*
X554000Y597000D02*
Y591000D01*
X555000Y590000D01*
X593000D01*
X596000Y587000D01*
X596000Y555000D01*
X596000Y535000D01*
X595000Y534000D01*
X588000D01*
X587000Y533000D01*
Y516000D01*
X588000Y515000D01*
X595000D01*
X596000Y514000D01*
Y513000D01*
X596000Y497000D01*
X596000Y487000D01*
X595000Y486000D01*
X588000D01*
X587000Y485000D01*
Y455000D01*
X588000Y454000D01*
X595000D01*
X596000Y453000D01*
Y447000D01*
X595000Y446000D01*
X588000D01*
X587000Y445000D01*
X587000Y417000D01*
X585000Y415000D01*
X557005Y415000D01*
X556000Y413995D01*
X556000Y408000D01*
X555000Y407000D01*
X544000Y407000D01*
X543000Y408000D01*
Y414000D01*
X542000Y415000D01*
X531000D01*
X530000Y414000D01*
Y408000D01*
X529000Y407000D01*
X503000Y407000D01*
X502000Y408000D01*
Y428000D01*
X504000Y430000D01*
X568001Y430000D01*
X570000Y431999D01*
Y568000D01*
X568000Y570000D01*
X529000D01*
X527000Y572000D01*
Y597000D01*
X528000Y598000D01*
X533000Y598000D01*
X547000Y598000D01*
X553000D01*
X554000Y597000D01*
D02*
G37*
G36*
X613000Y607000D02*
X613000Y398000D01*
X611000Y396000D01*
X542562Y396000D01*
X542331Y396558D01*
X541558Y397331D01*
X540547Y397750D01*
X539453D01*
X538442Y397331D01*
X537669Y396558D01*
X537438Y396000D01*
X495000Y396000D01*
X491663Y399337D01*
X491558Y400669D01*
X492331Y401442D01*
X492750Y402453D01*
Y403547D01*
X492331Y404558D01*
X491558Y405331D01*
X491000Y405562D01*
Y428000D01*
X493000Y430000D01*
X498000D01*
X500000Y428000D01*
Y406000D01*
X501000Y405000D01*
X531000Y405000D01*
X532000Y406000D01*
Y412000D01*
X533000Y413000D01*
X540000Y413000D01*
X541000Y412000D01*
Y406000D01*
X542000Y405000D01*
X557000D01*
X558000Y406000D01*
Y412000D01*
X559000Y413000D01*
X587000D01*
X589000Y415000D01*
X589000Y443002D01*
X589998Y444000D01*
X597000D01*
X598000Y445000D01*
Y455000D01*
X597000Y456000D01*
X590000D01*
X589000Y457000D01*
Y477000D01*
X590000Y478000D01*
X597000Y478000D01*
X598000Y479000D01*
X598000Y516000D01*
X597000Y517000D01*
X590000D01*
X589000Y518000D01*
X589000Y525000D01*
X590000Y526000D01*
X597000Y526000D01*
X598000Y527000D01*
Y588000D01*
X594000Y592000D01*
X557000D01*
X556000Y593000D01*
X556000Y599000D01*
X555000Y600000D01*
X526000D01*
X525000Y599000D01*
Y572000D01*
X523000Y570000D01*
X519000Y570000D01*
X517000Y572000D01*
Y607000D01*
X519000Y609000D01*
X611000D01*
X613000Y607000D01*
D02*
G37*
G36*
X629000Y607000D02*
X629000Y334000D01*
X627000Y332000D01*
X487000Y332000D01*
X365000D01*
X363000Y334000D01*
Y607000D01*
X365000Y609000D01*
X439668D01*
X439865Y608804D01*
X441250Y608230D01*
X442750D01*
X444136Y608804D01*
X444332Y609000D01*
X513000D01*
X515000Y607000D01*
Y570000D01*
X517000Y568000D01*
X566000D01*
X568000Y566000D01*
Y435000D01*
X566000Y433000D01*
X491000D01*
X489000Y431000D01*
X489000Y405562D01*
X488442Y405331D01*
X487669Y404558D01*
X487250Y403547D01*
Y402453D01*
X487669Y401442D01*
X488442Y400669D01*
X489000Y400438D01*
Y396000D01*
X489310Y395690D01*
X489250Y395547D01*
Y394453D01*
X489669Y393442D01*
X490442Y392669D01*
X491453Y392250D01*
X492547D01*
X493558Y392669D01*
X494331Y393442D01*
X494562Y394000D01*
X537438D01*
X537669Y393442D01*
X538442Y392669D01*
X539453Y392250D01*
X540547D01*
X541558Y392669D01*
X542331Y393442D01*
X542562Y394000D01*
X596315D01*
X596841Y392730D01*
X596669Y392558D01*
X596250Y391547D01*
Y390453D01*
X596669Y389442D01*
X597442Y388669D01*
X598453Y388250D01*
X599547D01*
X600558Y388669D01*
X601331Y389442D01*
X601750Y390453D01*
Y391547D01*
X601331Y392558D01*
X601159Y392730D01*
X601685Y394000D01*
X612000D01*
X615000Y397000D01*
Y607000D01*
X617000Y609000D01*
X627000D01*
X629000Y607000D01*
D02*
G37*
G36*
X361000Y535000D02*
X361000Y333000D01*
X364000Y330000D01*
X554000D01*
X556000Y328000D01*
Y318000D01*
X554000Y316000D01*
Y316000D01*
X348000Y316000D01*
X346000Y318000D01*
Y535000D01*
X348000Y537000D01*
X359000D01*
X361000Y535000D01*
D02*
G37*
%LPC*%
G36*
X375547Y592750D02*
X374453D01*
X373442Y592331D01*
X372669Y591558D01*
X372250Y590547D01*
Y589453D01*
X372669Y588442D01*
X373442Y587669D01*
X374453Y587250D01*
X375547D01*
X376558Y587669D01*
X377331Y588442D01*
X377750Y589453D01*
Y590547D01*
X377331Y591558D01*
X376558Y592331D01*
X375547Y592750D01*
D02*
G37*
G36*
X441547Y567750D02*
X440453D01*
X439442Y567331D01*
X438669Y566558D01*
X438250Y565547D01*
Y564453D01*
X438669Y563442D01*
X439442Y562669D01*
X440453Y562250D01*
X441547D01*
X442558Y562669D01*
X443331Y563442D01*
X443750Y564453D01*
Y565547D01*
X443331Y566558D01*
X442558Y567331D01*
X441547Y567750D01*
D02*
G37*
G36*
X375547Y565750D02*
X374453D01*
X373442Y565331D01*
X372669Y564558D01*
X372250Y563547D01*
Y562453D01*
X372669Y561442D01*
X373442Y560669D01*
X374453Y560250D01*
X375547D01*
X376558Y560669D01*
X377331Y561442D01*
X377750Y562453D01*
Y563547D01*
X377331Y564558D01*
X376558Y565331D01*
X375547Y565750D01*
D02*
G37*
G36*
X550547Y564750D02*
X549453D01*
X548442Y564331D01*
X547669Y563558D01*
X547250Y562547D01*
Y561453D01*
X547669Y560442D01*
X548442Y559669D01*
X549453Y559250D01*
X550547D01*
X551558Y559669D01*
X552331Y560442D01*
X552750Y561453D01*
Y562547D01*
X552331Y563558D01*
X551558Y564331D01*
X550547Y564750D01*
D02*
G37*
G36*
X536547D02*
X535453D01*
X534442Y564331D01*
X533669Y563558D01*
X533250Y562547D01*
Y561453D01*
X533669Y560442D01*
X534442Y559669D01*
X535453Y559250D01*
X536547D01*
X537558Y559669D01*
X538331Y560442D01*
X538750Y561453D01*
Y562547D01*
X538331Y563558D01*
X537558Y564331D01*
X536547Y564750D01*
D02*
G37*
G36*
X522547D02*
X521453D01*
X520442Y564331D01*
X519669Y563558D01*
X519250Y562547D01*
Y561453D01*
X519669Y560442D01*
X520442Y559669D01*
X521453Y559250D01*
X522547D01*
X523558Y559669D01*
X524331Y560442D01*
X524750Y561453D01*
Y562547D01*
X524331Y563558D01*
X523558Y564331D01*
X522547Y564750D01*
D02*
G37*
G36*
X510547D02*
X509453D01*
X508442Y564331D01*
X507669Y563558D01*
X507250Y562547D01*
Y561453D01*
X507669Y560442D01*
X508442Y559669D01*
X509453Y559250D01*
X510547D01*
X511558Y559669D01*
X512331Y560442D01*
X512750Y561453D01*
Y562547D01*
X512331Y563558D01*
X511558Y564331D01*
X510547Y564750D01*
D02*
G37*
G36*
X470547D02*
X469453D01*
X468442Y564331D01*
X467669Y563558D01*
X467250Y562547D01*
Y561453D01*
X467669Y560442D01*
X468442Y559669D01*
X469453Y559250D01*
X470547D01*
X471558Y559669D01*
X472331Y560442D01*
X472750Y561453D01*
Y562547D01*
X472331Y563558D01*
X471558Y564331D01*
X470547Y564750D01*
D02*
G37*
G36*
X560547Y560750D02*
X559453D01*
X558442Y560331D01*
X557669Y559558D01*
X557250Y558547D01*
Y557453D01*
X557669Y556442D01*
X558442Y555669D01*
X559453Y555250D01*
X560547D01*
X561558Y555669D01*
X562331Y556442D01*
X562750Y557453D01*
Y558547D01*
X562331Y559558D01*
X561558Y560331D01*
X560547Y560750D01*
D02*
G37*
G36*
X407551Y558792D02*
X406449D01*
X405431Y558370D01*
X404652Y557591D01*
X404230Y556573D01*
Y555471D01*
X404652Y554453D01*
X405431Y553673D01*
X406449Y553252D01*
X407551D01*
X408569Y553673D01*
X409348Y554453D01*
X409770Y555471D01*
Y556573D01*
X409348Y557591D01*
X408569Y558370D01*
X407551Y558792D01*
D02*
G37*
G36*
X441547Y554750D02*
X440453D01*
X439442Y554331D01*
X438669Y553558D01*
X438250Y552547D01*
Y551453D01*
X438669Y550442D01*
X439442Y549669D01*
X440453Y549250D01*
X441547D01*
X442558Y549669D01*
X443331Y550442D01*
X443750Y551453D01*
Y552547D01*
X443331Y553558D01*
X442558Y554331D01*
X441547Y554750D01*
D02*
G37*
G36*
X380547Y542750D02*
X379453D01*
X378442Y542331D01*
X377669Y541558D01*
X377250Y540547D01*
Y539453D01*
X377669Y538442D01*
X378442Y537669D01*
X379453Y537250D01*
X380547D01*
X381558Y537669D01*
X382331Y538442D01*
X382750Y539453D01*
Y540547D01*
X382331Y541558D01*
X381558Y542331D01*
X380547Y542750D01*
D02*
G37*
G36*
X441547Y541750D02*
X440453D01*
X439442Y541331D01*
X438669Y540558D01*
X438250Y539547D01*
Y538453D01*
X438669Y537442D01*
X439442Y536669D01*
X440453Y536250D01*
X441547D01*
X442558Y536669D01*
X443331Y537442D01*
X443750Y538453D01*
Y539547D01*
X443331Y540558D01*
X442558Y541331D01*
X441547Y541750D01*
D02*
G37*
G36*
X560547Y537750D02*
X559453D01*
X558442Y537331D01*
X557669Y536558D01*
X557250Y535547D01*
Y534453D01*
X557669Y533442D01*
X558442Y532669D01*
X559453Y532250D01*
X560547D01*
X561558Y532669D01*
X562331Y533442D01*
X562750Y534453D01*
Y535547D01*
X562331Y536558D01*
X561558Y537331D01*
X560547Y537750D01*
D02*
G37*
G36*
X406161Y545824D02*
X404698Y545532D01*
X403458Y544704D01*
X395296Y536542D01*
X394468Y535302D01*
X394176Y533839D01*
Y524241D01*
X393961Y524016D01*
X392906Y523498D01*
X392297Y523750D01*
X391203D01*
X390192Y523331D01*
X389419Y522558D01*
X389000Y521547D01*
Y520453D01*
X389419Y519442D01*
X390192Y518669D01*
X391203Y518250D01*
X392297D01*
X392906Y518503D01*
X393961Y517984D01*
X394176Y517758D01*
Y495000D01*
X394250Y494631D01*
Y494254D01*
X394394Y493906D01*
X394468Y493537D01*
X394677Y493224D01*
X394821Y492876D01*
X395087Y492610D01*
X395296Y492296D01*
X395610Y492087D01*
X395876Y491821D01*
X396224Y491677D01*
X396537Y491468D01*
X396906Y491394D01*
X397254Y491250D01*
X397631D01*
X398000Y491176D01*
X398369Y491250D01*
X398746D01*
X399094Y491394D01*
X399463Y491468D01*
X399776Y491677D01*
X400124Y491821D01*
X400390Y492087D01*
X400704Y492296D01*
X400913Y492610D01*
X401179Y492876D01*
X401323Y493224D01*
X401532Y493537D01*
X401606Y493906D01*
X401750Y494254D01*
Y494631D01*
X401824Y495000D01*
Y532255D01*
X402992Y533424D01*
X403303Y533431D01*
X404416Y533052D01*
X404669Y532442D01*
X405442Y531669D01*
X406453Y531250D01*
X407547D01*
X408558Y531669D01*
X409331Y532442D01*
X409750Y533453D01*
Y534547D01*
X409331Y535558D01*
X408558Y536331D01*
X408466Y536369D01*
X408014Y537757D01*
X408455Y538466D01*
X408463Y538468D01*
X408776Y538677D01*
X409124Y538821D01*
X409390Y539087D01*
X409704Y539296D01*
X409913Y539610D01*
X410179Y539876D01*
X410323Y540224D01*
X410532Y540537D01*
X410606Y540906D01*
X410750Y541254D01*
Y541631D01*
X410824Y542000D01*
X410750Y542369D01*
Y542746D01*
X410606Y543094D01*
X410532Y543463D01*
X410323Y543776D01*
X410179Y544124D01*
X409913Y544390D01*
X409704Y544704D01*
X409390Y544913D01*
X409124Y545179D01*
X408776Y545323D01*
X408463Y545532D01*
X408094Y545606D01*
X407746Y545750D01*
X407369D01*
X407000Y545824D01*
X406161D01*
X406161Y545824D01*
D02*
G37*
G36*
X441547Y527750D02*
X440453D01*
X439442Y527331D01*
X438669Y526558D01*
X438250Y525547D01*
Y524453D01*
X438669Y523442D01*
X439442Y522669D01*
X440453Y522250D01*
X441547D01*
X442558Y522669D01*
X443331Y523442D01*
X443750Y524453D01*
Y525547D01*
X443331Y526558D01*
X442558Y527331D01*
X441547Y527750D01*
D02*
G37*
G36*
X560547Y525950D02*
X559453D01*
X558442Y525531D01*
X557669Y524758D01*
X557250Y523747D01*
Y522653D01*
X557669Y521642D01*
X558442Y520869D01*
X559453Y520450D01*
X560547D01*
X561558Y520869D01*
X562331Y521642D01*
X562750Y522653D01*
Y523747D01*
X562331Y524758D01*
X561558Y525531D01*
X560547Y525950D01*
D02*
G37*
G36*
Y513150D02*
X559453D01*
X558442Y512731D01*
X557669Y511958D01*
X557250Y510947D01*
Y509853D01*
X557669Y508842D01*
X558442Y508069D01*
X559453Y507650D01*
X560547D01*
X561558Y508069D01*
X562331Y508842D01*
X562750Y509853D01*
Y510947D01*
X562331Y511958D01*
X561558Y512731D01*
X560547Y513150D01*
D02*
G37*
G36*
X441547Y501750D02*
X440453D01*
X439442Y501331D01*
X438669Y500558D01*
X438250Y499547D01*
Y498453D01*
X438669Y497442D01*
X439442Y496669D01*
X440453Y496250D01*
X441547D01*
X442558Y496669D01*
X443331Y497442D01*
X443750Y498453D01*
Y499547D01*
X443331Y500558D01*
X442558Y501331D01*
X441547Y501750D01*
D02*
G37*
G36*
X407547Y499750D02*
X406453D01*
X405442Y499331D01*
X404669Y498558D01*
X404250Y497547D01*
Y496453D01*
X404669Y495442D01*
X405442Y494669D01*
X406453Y494250D01*
X407547D01*
X408558Y494669D01*
X409331Y495442D01*
X409750Y496453D01*
Y497547D01*
X409331Y498558D01*
X408558Y499331D01*
X407547Y499750D01*
D02*
G37*
G36*
X560547Y498350D02*
X559453D01*
X558442Y497931D01*
X557669Y497158D01*
X557250Y496147D01*
Y495053D01*
X557669Y494042D01*
X558442Y493269D01*
X559453Y492850D01*
X560547D01*
X561558Y493269D01*
X562331Y494042D01*
X562750Y495053D01*
Y496147D01*
X562331Y497158D01*
X561558Y497931D01*
X560547Y498350D01*
D02*
G37*
G36*
X380547Y497750D02*
X379453D01*
X378442Y497331D01*
X377669Y496558D01*
X377250Y495547D01*
Y494453D01*
X377669Y493442D01*
X378442Y492669D01*
X379453Y492250D01*
X380547D01*
X381558Y492669D01*
X382331Y493442D01*
X382750Y494453D01*
Y495547D01*
X382331Y496558D01*
X381558Y497331D01*
X380547Y497750D01*
D02*
G37*
G36*
X441547Y488750D02*
X440453D01*
X439442Y488331D01*
X438669Y487558D01*
X438250Y486547D01*
Y485453D01*
X438669Y484442D01*
X439442Y483669D01*
X440453Y483250D01*
X441547D01*
X442558Y483669D01*
X443331Y484442D01*
X443750Y485453D01*
Y486547D01*
X443331Y487558D01*
X442558Y488331D01*
X441547Y488750D01*
D02*
G37*
G36*
X560547Y485550D02*
X559453D01*
X558442Y485131D01*
X557669Y484358D01*
X557250Y483347D01*
Y482253D01*
X557669Y481242D01*
X558442Y480469D01*
X559453Y480050D01*
X560547D01*
X561558Y480469D01*
X562331Y481242D01*
X562750Y482253D01*
Y483347D01*
X562331Y484358D01*
X561558Y485131D01*
X560547Y485550D01*
D02*
G37*
G36*
X397547Y479750D02*
X396453D01*
X395442Y479331D01*
X394669Y478558D01*
X394250Y477547D01*
Y476453D01*
X394669Y475442D01*
X395442Y474669D01*
X396453Y474250D01*
X397547D01*
X398558Y474669D01*
X399331Y475442D01*
X399750Y476453D01*
Y477547D01*
X399331Y478558D01*
X398558Y479331D01*
X397547Y479750D01*
D02*
G37*
G36*
X387547Y476750D02*
X386453D01*
X385442Y476331D01*
X384669Y475558D01*
X384250Y474547D01*
Y473453D01*
X384669Y472442D01*
X385442Y471669D01*
X386453Y471250D01*
X387547D01*
X388558Y471669D01*
X389331Y472442D01*
X389750Y473453D01*
Y474547D01*
X389331Y475558D01*
X388558Y476331D01*
X387547Y476750D01*
D02*
G37*
G36*
X441547Y475750D02*
X440453D01*
X439442Y475331D01*
X438669Y474558D01*
X438250Y473547D01*
Y472453D01*
X438669Y471442D01*
X439442Y470669D01*
X440453Y470250D01*
X441547D01*
X442558Y470669D01*
X443331Y471442D01*
X443750Y472453D01*
Y473547D01*
X443331Y474558D01*
X442558Y475331D01*
X441547Y475750D01*
D02*
G37*
G36*
X560547Y471750D02*
X559453D01*
X558442Y471331D01*
X557669Y470558D01*
X557250Y469547D01*
Y468453D01*
X557669Y467442D01*
X558442Y466669D01*
X559453Y466250D01*
X560547D01*
X561558Y466669D01*
X562331Y467442D01*
X562750Y468453D01*
Y469547D01*
X562331Y470558D01*
X561558Y471331D01*
X560547Y471750D01*
D02*
G37*
G36*
X395547D02*
X394453D01*
X393442Y471331D01*
X392669Y470558D01*
X392250Y469547D01*
Y468453D01*
X392669Y467442D01*
X393442Y466669D01*
X394453Y466250D01*
X395547D01*
X396558Y466669D01*
X397331Y467442D01*
X397750Y468453D01*
Y469547D01*
X397331Y470558D01*
X396558Y471331D01*
X395547Y471750D01*
D02*
G37*
G36*
X437547Y464750D02*
X436453D01*
X435442Y464331D01*
X434669Y463558D01*
X434250Y462547D01*
Y461453D01*
X434669Y460442D01*
X435442Y459669D01*
X436453Y459250D01*
X437547D01*
X438558Y459669D01*
X439331Y460442D01*
X439750Y461453D01*
Y462547D01*
X439331Y463558D01*
X438558Y464331D01*
X437547Y464750D01*
D02*
G37*
G36*
X438547Y454750D02*
X437453D01*
X436442Y454331D01*
X435669Y453558D01*
X435250Y452547D01*
Y451453D01*
X435669Y450442D01*
X436442Y449669D01*
X437453Y449250D01*
X438547D01*
X439558Y449669D01*
X440331Y450442D01*
X440750Y451453D01*
Y452547D01*
X440331Y453558D01*
X439558Y454331D01*
X438547Y454750D01*
D02*
G37*
G36*
X560547Y452750D02*
X559453D01*
X558442Y452331D01*
X557669Y451558D01*
X557250Y450547D01*
Y449453D01*
X557669Y448442D01*
X558442Y447669D01*
X559453Y447250D01*
X560547D01*
X561558Y447669D01*
X562331Y448442D01*
X562750Y449453D01*
Y450547D01*
X562331Y451558D01*
X561558Y452331D01*
X560547Y452750D01*
D02*
G37*
G36*
X548547Y447750D02*
X547453D01*
X546442Y447331D01*
X545669Y446558D01*
X545250Y445547D01*
Y444453D01*
X545669Y443442D01*
X546442Y442669D01*
X547453Y442250D01*
X548547D01*
X549558Y442669D01*
X550331Y443442D01*
X550750Y444453D01*
Y445547D01*
X550331Y446558D01*
X549558Y447331D01*
X548547Y447750D01*
D02*
G37*
G36*
X535547D02*
X534453D01*
X533442Y447331D01*
X532669Y446558D01*
X532250Y445547D01*
Y444453D01*
X532669Y443442D01*
X533442Y442669D01*
X534453Y442250D01*
X535547D01*
X536558Y442669D01*
X537331Y443442D01*
X537750Y444453D01*
Y445547D01*
X537331Y446558D01*
X536558Y447331D01*
X535547Y447750D01*
D02*
G37*
G36*
X522547D02*
X521453D01*
X520442Y447331D01*
X519669Y446558D01*
X519250Y445547D01*
Y444453D01*
X519669Y443442D01*
X520442Y442669D01*
X521453Y442250D01*
X522547D01*
X523558Y442669D01*
X524331Y443442D01*
X524750Y444453D01*
Y445547D01*
X524331Y446558D01*
X523558Y447331D01*
X522547Y447750D01*
D02*
G37*
G36*
X507547D02*
X506453D01*
X505442Y447331D01*
X504669Y446558D01*
X504250Y445547D01*
Y444453D01*
X504669Y443442D01*
X505442Y442669D01*
X506453Y442250D01*
X507547D01*
X508558Y442669D01*
X509331Y443442D01*
X509750Y444453D01*
Y445547D01*
X509331Y446558D01*
X508558Y447331D01*
X507547Y447750D01*
D02*
G37*
G36*
X494547D02*
X493453D01*
X492442Y447331D01*
X491669Y446558D01*
X491250Y445547D01*
Y444453D01*
X491669Y443442D01*
X492442Y442669D01*
X493453Y442250D01*
X494547D01*
X495558Y442669D01*
X496331Y443442D01*
X496750Y444453D01*
Y445547D01*
X496331Y446558D01*
X495558Y447331D01*
X494547Y447750D01*
D02*
G37*
G36*
X481547D02*
X480453D01*
X479442Y447331D01*
X478669Y446558D01*
X478250Y445547D01*
Y444453D01*
X478669Y443442D01*
X479442Y442669D01*
X480453Y442250D01*
X481547D01*
X482558Y442669D01*
X483331Y443442D01*
X483750Y444453D01*
Y445547D01*
X483331Y446558D01*
X482558Y447331D01*
X481547Y447750D01*
D02*
G37*
G36*
X466547D02*
X465453D01*
X464442Y447331D01*
X463669Y446558D01*
X463250Y445547D01*
Y444453D01*
X463669Y443442D01*
X464442Y442669D01*
X465453Y442250D01*
X466547D01*
X467558Y442669D01*
X468331Y443442D01*
X468750Y444453D01*
Y445547D01*
X468331Y446558D01*
X467558Y447331D01*
X466547Y447750D01*
D02*
G37*
G36*
X408605Y436780D02*
X407511D01*
X406501Y436361D01*
X405727Y435587D01*
X405308Y434577D01*
Y433483D01*
X405727Y432472D01*
X406501Y431698D01*
X407511Y431280D01*
X408605D01*
X409616Y431698D01*
X410390Y432472D01*
X410808Y433483D01*
Y434577D01*
X410390Y435587D01*
X409616Y436361D01*
X408605Y436780D01*
D02*
G37*
G36*
X437547Y413750D02*
X436453D01*
X435442Y413331D01*
X434669Y412558D01*
X434250Y411547D01*
Y410453D01*
X434669Y409442D01*
X435442Y408669D01*
X436453Y408250D01*
X437547D01*
X438558Y408669D01*
X439331Y409442D01*
X439750Y410453D01*
Y411547D01*
X439331Y412558D01*
X438558Y413331D01*
X437547Y413750D01*
D02*
G37*
G36*
X430547D02*
X429453D01*
X428442Y413331D01*
X427669Y412558D01*
X427250Y411547D01*
Y410453D01*
X427669Y409442D01*
X428442Y408669D01*
X429453Y408250D01*
X430547D01*
X431558Y408669D01*
X432331Y409442D01*
X432750Y410453D01*
Y411547D01*
X432331Y412558D01*
X431558Y413331D01*
X430547Y413750D01*
D02*
G37*
G36*
X371547Y407750D02*
X370453D01*
X369442Y407331D01*
X368669Y406558D01*
X368250Y405547D01*
Y404453D01*
X368669Y403442D01*
X369442Y402669D01*
X370453Y402250D01*
X371547D01*
X372558Y402669D01*
X373331Y403442D01*
X373750Y404453D01*
Y405547D01*
X373331Y406558D01*
X372558Y407331D01*
X371547Y407750D01*
D02*
G37*
G36*
X464547Y402750D02*
X463453D01*
X462442Y402331D01*
X461669Y401558D01*
X461250Y400547D01*
Y399453D01*
X461669Y398442D01*
X462442Y397669D01*
X463453Y397250D01*
X464547D01*
X465558Y397669D01*
X466331Y398442D01*
X466750Y399453D01*
Y400547D01*
X466331Y401558D01*
X465558Y402331D01*
X464547Y402750D01*
D02*
G37*
G36*
X369547Y387750D02*
X368453D01*
X367442Y387331D01*
X366669Y386558D01*
X366250Y385547D01*
Y384453D01*
X366669Y383442D01*
X367442Y382669D01*
X368453Y382250D01*
X369547D01*
X370558Y382669D01*
X371331Y383442D01*
X371750Y384453D01*
Y385547D01*
X371331Y386558D01*
X370558Y387331D01*
X369547Y387750D01*
D02*
G37*
G36*
X577547Y384750D02*
X576453D01*
X575442Y384331D01*
X574669Y383558D01*
X574250Y382547D01*
Y381453D01*
X574669Y380442D01*
X575442Y379669D01*
X576453Y379250D01*
X577547D01*
X578558Y379669D01*
X579331Y380442D01*
X579750Y381453D01*
Y382547D01*
X579331Y383558D01*
X578558Y384331D01*
X577547Y384750D01*
D02*
G37*
G36*
X465547Y381750D02*
X464453D01*
X463442Y381331D01*
X462669Y380558D01*
X462250Y379547D01*
Y378453D01*
X462669Y377442D01*
X463442Y376669D01*
X464453Y376250D01*
X465547D01*
X466558Y376669D01*
X467331Y377442D01*
X467750Y378453D01*
Y379547D01*
X467331Y380558D01*
X466558Y381331D01*
X465547Y381750D01*
D02*
G37*
G36*
X456547D02*
X455453D01*
X454442Y381331D01*
X453669Y380558D01*
X453250Y379547D01*
Y378453D01*
X453669Y377442D01*
X454442Y376669D01*
X455453Y376250D01*
X456547D01*
X457558Y376669D01*
X458331Y377442D01*
X458750Y378453D01*
Y379547D01*
X458331Y380558D01*
X457558Y381331D01*
X456547Y381750D01*
D02*
G37*
G36*
X446547D02*
X445453D01*
X444442Y381331D01*
X443669Y380558D01*
X443250Y379547D01*
Y378453D01*
X443669Y377442D01*
X444442Y376669D01*
X445453Y376250D01*
X446547D01*
X447558Y376669D01*
X448331Y377442D01*
X448750Y378453D01*
Y379547D01*
X448331Y380558D01*
X447558Y381331D01*
X446547Y381750D01*
D02*
G37*
G36*
X470316Y376591D02*
X469221D01*
X468211Y376172D01*
X467437Y375399D01*
X467019Y374388D01*
Y373294D01*
X467437Y372283D01*
X468211Y371510D01*
X469221Y371091D01*
X470316D01*
X471326Y371510D01*
X472100Y372283D01*
X472519Y373294D01*
Y374388D01*
X472100Y375399D01*
X471326Y376172D01*
X470316Y376591D01*
D02*
G37*
G36*
X551547Y368750D02*
X550453D01*
X549442Y368331D01*
X548669Y367558D01*
X548250Y366547D01*
Y365453D01*
X548669Y364442D01*
X549442Y363669D01*
X550453Y363250D01*
X551547D01*
X552558Y363669D01*
X553331Y364442D01*
X553750Y365453D01*
Y366547D01*
X553331Y367558D01*
X552558Y368331D01*
X551547Y368750D01*
D02*
G37*
G36*
X538547D02*
X537453D01*
X536442Y368331D01*
X535669Y367558D01*
X535250Y366547D01*
Y365453D01*
X535669Y364442D01*
X536442Y363669D01*
X537453Y363250D01*
X538547D01*
X539558Y363669D01*
X540331Y364442D01*
X540750Y365453D01*
Y366547D01*
X540331Y367558D01*
X539558Y368331D01*
X538547Y368750D01*
D02*
G37*
G36*
X587547Y362750D02*
X586453D01*
X585442Y362331D01*
X584669Y361558D01*
X584250Y360547D01*
Y359453D01*
X584669Y358442D01*
X585442Y357669D01*
X586453Y357250D01*
X587547D01*
X588558Y357669D01*
X589331Y358442D01*
X589750Y359453D01*
Y360547D01*
X589331Y361558D01*
X588558Y362331D01*
X587547Y362750D01*
D02*
G37*
G36*
X551547Y358750D02*
X550453D01*
X549442Y358331D01*
X548669Y357558D01*
X548250Y356547D01*
Y355453D01*
X548669Y354442D01*
X549442Y353669D01*
X550453Y353250D01*
X551547D01*
X552558Y353669D01*
X553331Y354442D01*
X553750Y355453D01*
Y356547D01*
X553331Y357558D01*
X552558Y358331D01*
X551547Y358750D01*
D02*
G37*
G36*
X538547D02*
X537453D01*
X536442Y358331D01*
X535669Y357558D01*
X535250Y356547D01*
Y355453D01*
X535669Y354442D01*
X536442Y353669D01*
X537453Y353250D01*
X538547D01*
X539558Y353669D01*
X540331Y354442D01*
X540750Y355453D01*
Y356547D01*
X540331Y357558D01*
X539558Y358331D01*
X538547Y358750D01*
D02*
G37*
%LPD*%
G36*
X245000Y357000D02*
X245000Y133770D01*
X244250D01*
X242864Y133196D01*
X241804Y132135D01*
X241230Y130750D01*
Y129250D01*
X241804Y127865D01*
X242864Y126804D01*
X244250Y126230D01*
X245000D01*
Y123000D01*
X249000Y119000D01*
X397000D01*
X401000Y115000D01*
Y78000D01*
X397000Y74000D01*
X209000D01*
X205000Y78000D01*
Y357000D01*
X209000Y361000D01*
X241000D01*
X245000Y357000D01*
D02*
G37*
G36*
X942000Y598000D02*
Y117779D01*
X939987Y116617D01*
X937427Y114057D01*
X935617Y110921D01*
X934680Y107424D01*
Y103804D01*
X935617Y100307D01*
X937427Y97171D01*
X939987Y94611D01*
X942000Y93449D01*
Y90552D01*
X941934Y90544D01*
X936711Y89144D01*
X931715Y87075D01*
X927032Y84371D01*
X922743Y81080D01*
X918919Y77256D01*
X915627Y72966D01*
X912924Y68283D01*
X911564Y65000D01*
X598000Y65000D01*
X594000Y69000D01*
Y124000D01*
X598000Y128000D01*
X867000D01*
X871000Y132000D01*
X871000Y598000D01*
X875000Y602000D01*
X938000D01*
X942000Y598000D01*
D02*
G37*
G36*
X295448Y39803D02*
X295624Y39761D01*
X295885Y39723D01*
X296663Y39663D01*
X299235Y39603D01*
X300091Y39601D01*
Y29601D01*
X295356Y29351D01*
Y39851D01*
X295448Y39803D01*
D02*
G37*
%LPC*%
G36*
X221551Y81770D02*
X220449D01*
X219431Y81348D01*
X218652Y80569D01*
X218230Y79551D01*
Y78449D01*
X218652Y77431D01*
X219431Y76652D01*
X220449Y76230D01*
X221551D01*
X222569Y76652D01*
X223348Y77431D01*
X223770Y78449D01*
Y79551D01*
X223348Y80569D01*
X222569Y81348D01*
X221551Y81770D01*
D02*
G37*
G36*
X915547Y532750D02*
X914453D01*
X913442Y532331D01*
X912669Y531558D01*
X912250Y530547D01*
Y529453D01*
X912669Y528442D01*
X913442Y527669D01*
X914453Y527250D01*
X915547D01*
X916558Y527669D01*
X917331Y528442D01*
X917750Y529453D01*
Y530547D01*
X917331Y531558D01*
X916558Y532331D01*
X915547Y532750D01*
D02*
G37*
G36*
Y392750D02*
X914453D01*
X913442Y392331D01*
X912669Y391558D01*
X912250Y390547D01*
Y389453D01*
X912669Y388442D01*
X913442Y387669D01*
X914453Y387250D01*
X915547D01*
X916558Y387669D01*
X917331Y388442D01*
X917750Y389453D01*
Y390547D01*
X917331Y391558D01*
X916558Y392331D01*
X915547Y392750D01*
D02*
G37*
G36*
Y252750D02*
X914453D01*
X913442Y252331D01*
X912669Y251558D01*
X912250Y250547D01*
Y249453D01*
X912669Y248442D01*
X913442Y247669D01*
X914453Y247250D01*
X915547D01*
X916558Y247669D01*
X917331Y248442D01*
X917750Y249453D01*
Y250547D01*
X917331Y251558D01*
X916558Y252331D01*
X915547Y252750D01*
D02*
G37*
G36*
X759547Y122750D02*
X758453D01*
X757442Y122331D01*
X756669Y121558D01*
X756250Y120547D01*
Y119453D01*
X756669Y118442D01*
X757442Y117669D01*
X758453Y117250D01*
X759547D01*
X760558Y117669D01*
X761331Y118442D01*
X761750Y119453D01*
Y120547D01*
X761331Y121558D01*
X760558Y122331D01*
X759547Y122750D01*
D02*
G37*
G36*
X913299Y150552D02*
X909901D01*
X906568Y149889D01*
X903428Y148588D01*
X900602Y146700D01*
X898199Y144298D01*
X896311Y141472D01*
X895011Y138332D01*
X894348Y134999D01*
Y131601D01*
X895011Y128268D01*
X896311Y125128D01*
X898199Y122303D01*
X900602Y119900D01*
X903428Y118012D01*
X906568Y116711D01*
X909901Y116048D01*
X913299D01*
X916632Y116711D01*
X919772Y118012D01*
X922598Y119900D01*
X925001Y122303D01*
X926889Y125128D01*
X928189Y128268D01*
X928852Y131601D01*
Y134999D01*
X928189Y138332D01*
X926889Y141472D01*
X925001Y144298D01*
X922598Y146700D01*
X919772Y148588D01*
X916632Y149889D01*
X913299Y150552D01*
D02*
G37*
G36*
X759547Y112750D02*
X758453D01*
X757442Y112331D01*
X756669Y111558D01*
X756250Y110547D01*
Y109453D01*
X756669Y108442D01*
X757442Y107669D01*
X758453Y107250D01*
X759547D01*
X760558Y107669D01*
X761331Y108442D01*
X761750Y109453D01*
Y110547D01*
X761331Y111558D01*
X760558Y112331D01*
X759547Y112750D01*
D02*
G37*
%LPD*%
D166*
X398000Y533839D02*
X406161Y542000D01*
X398000Y495000D02*
Y533839D01*
X406161Y542000D02*
X407000D01*
D167*
X252587Y637300D02*
X274392Y659105D01*
X504965D02*
X520946Y675086D01*
X274392Y659105D02*
X504965D01*
X258445Y137726D02*
X408101D01*
X252587Y143584D02*
X258445Y137726D01*
X252587Y143584D02*
Y637300D01*
X408101Y137726D02*
X420395Y125432D01*
Y71994D02*
Y125432D01*
X405754Y57353D02*
X420395Y71994D01*
X355899Y57353D02*
X405754D01*
X333147Y34601D02*
X355899Y57353D01*
X290000Y34601D02*
X333147D01*
X361521Y45059D02*
X571020D01*
X198777Y13223D02*
X329685D01*
X361521Y45059D01*
X571020D02*
X608000Y82040D01*
X520946Y675086D02*
Y715946D01*
X162000Y50000D02*
X198777Y13223D01*
X108000Y743000D02*
X162000Y689000D01*
X108000Y743000D02*
Y781000D01*
X162000Y50000D02*
Y689000D01*
X142000Y764000D02*
Y781000D01*
X230000Y348000D02*
Y676000D01*
X142000Y764000D02*
X230000Y676000D01*
D176*
X290000Y34601D02*
D03*
D178*
X290000Y85400D02*
D03*
D189*
X862000Y375000D02*
D03*
Y514000D02*
D03*
X864000Y233000D02*
D03*
X338000Y378000D02*
D03*
X341000Y467000D02*
D03*
X442000Y612000D02*
D03*
X352000Y561000D02*
D03*
X99000Y534000D02*
D03*
X98000Y655000D02*
D03*
X108000Y781000D02*
D03*
X142000D02*
D03*
X370000Y467000D02*
D03*
X527000Y323000D02*
D03*
X539000D02*
D03*
X551000D02*
D03*
X354000Y521000D02*
D03*
Y532000D02*
D03*
X741500Y170000D02*
D03*
X404000Y707000D02*
D03*
X404171Y478750D02*
D03*
X398000Y495000D02*
D03*
X478000Y388000D02*
D03*
X465250Y410000D02*
D03*
X740000Y768000D02*
D03*
X200000Y725000D02*
D03*
X402000Y767000D02*
D03*
X924500Y620000D02*
D03*
X909500Y580000D02*
D03*
X911000Y470000D02*
D03*
Y330000D02*
D03*
Y190000D02*
D03*
X521000Y716000D02*
D03*
X470750Y595000D02*
D03*
X568000Y773000D02*
D03*
X585000Y771000D02*
D03*
X606000Y695000D02*
D03*
X626000Y784000D02*
D03*
X664000Y704000D02*
D03*
X655000D02*
D03*
X676000Y692000D02*
D03*
X706000Y722000D02*
D03*
Y707000D02*
D03*
X622000Y517000D02*
D03*
X621000Y463000D02*
D03*
X392000Y102040D02*
D03*
Y92040D02*
D03*
Y82040D02*
D03*
X368000D02*
D03*
Y92040D02*
D03*
Y102040D02*
D03*
X608000D02*
D03*
Y92040D02*
D03*
Y82040D02*
D03*
X632000D02*
D03*
Y92040D02*
D03*
Y102040D02*
D03*
X220000Y348000D02*
D03*
X230000D02*
D03*
X240000D02*
D03*
X210000D02*
D03*
X503000Y237000D02*
D03*
X488000Y283000D02*
D03*
X504000D02*
D03*
X496000Y277000D02*
D03*
X383000Y337000D02*
D03*
X394333D02*
D03*
X405667D02*
D03*
X417000D02*
D03*
Y347000D02*
D03*
X405667D02*
D03*
X394333D02*
D03*
X383000D02*
D03*
X448000Y222000D02*
D03*
X438000D02*
D03*
X428000D02*
D03*
X418000D02*
D03*
X478000Y380000D02*
D03*
X486000Y388000D02*
D03*
Y380000D02*
D03*
X562000Y400000D02*
D03*
X519000Y410000D02*
D03*
X593000Y510000D02*
D03*
X281000Y236000D02*
D03*
X295000Y214000D02*
D03*
Y205000D02*
D03*
Y196000D02*
D03*
Y187000D02*
D03*
X245000Y130000D02*
D03*
X407000Y542000D02*
D03*
X526000Y410000D02*
D03*
X562000D02*
D03*
X546000D02*
D03*
X538000D02*
D03*
X506000D02*
D03*
X494000D02*
D03*
X486000D02*
D03*
X407000Y549000D02*
D03*
Y564000D02*
D03*
X512511Y595000D02*
D03*
X520000D02*
D03*
X530000D02*
D03*
X550000D02*
D03*
X562000D02*
D03*
X593000Y558000D02*
D03*
Y522000D02*
D03*
Y494000D02*
D03*
Y450000D02*
D03*
Y474000D02*
D03*
X741500Y320000D02*
D03*
Y480000D02*
D03*
Y630000D02*
D03*
X210000Y339000D02*
D03*
X220000D02*
D03*
X230000D02*
D03*
X240000D02*
D03*
X220351Y66351D02*
D03*
X240000Y68500D02*
D03*
M02*
