%TF.GenerationSoftware,KiCad,Pcbnew,8.0.3-8.0.3-0~ubuntu22.04.1*%
%TF.CreationDate,2024-06-26T16:43:44-04:00*%
%TF.ProjectId,drive_27A,64726976-655f-4323-9741-2e6b69636164,rev?*%
%TF.SameCoordinates,Original*%
%TF.FileFunction,Legend,Top*%
%TF.FilePolarity,Positive*%
%FSLAX46Y46*%
G04 Gerber Fmt 4.6, Leading zero omitted, Abs format (unit mm)*
G04 Created by KiCad (PCBNEW 8.0.3-8.0.3-0~ubuntu22.04.1) date 2024-06-26 16:43:44*
%MOMM*%
%LPD*%
G01*
G04 APERTURE LIST*
G04 Aperture macros list*
%AMRoundRect*
0 Rectangle with rounded corners*
0 $1 Rounding radius*
0 $2 $3 $4 $5 $6 $7 $8 $9 X,Y pos of 4 corners*
0 Add a 4 corners polygon primitive as box body*
4,1,4,$2,$3,$4,$5,$6,$7,$8,$9,$2,$3,0*
0 Add four circle primitives for the rounded corners*
1,1,$1+$1,$2,$3*
1,1,$1+$1,$4,$5*
1,1,$1+$1,$6,$7*
1,1,$1+$1,$8,$9*
0 Add four rect primitives between the rounded corners*
20,1,$1+$1,$2,$3,$4,$5,0*
20,1,$1+$1,$4,$5,$6,$7,0*
20,1,$1+$1,$6,$7,$8,$9,0*
20,1,$1+$1,$8,$9,$2,$3,0*%
%AMRotRect*
0 Rectangle, with rotation*
0 The origin of the aperture is its center*
0 $1 length*
0 $2 width*
0 $3 Rotation angle, in degrees counterclockwise*
0 Add horizontal line*
21,1,$1,$2,0,0,$3*%
G04 Aperture macros list end*
%ADD10C,0.150000*%
%ADD11C,0.152400*%
%ADD12C,0.120000*%
%ADD13C,0.127000*%
%ADD14C,0.200000*%
%ADD15R,0.762000X4.683400*%
%ADD16R,10.312400X9.557400*%
%ADD17RotRect,2.400000X2.400000X70.000000*%
%ADD18C,2.400000*%
%ADD19C,3.350000*%
%ADD20RoundRect,0.102000X-0.634000X-0.634000X0.634000X-0.634000X0.634000X0.634000X-0.634000X0.634000X0*%
%ADD21C,1.472000*%
%ADD22RoundRect,0.250000X0.475000X-0.337500X0.475000X0.337500X-0.475000X0.337500X-0.475000X-0.337500X0*%
%ADD23C,3.600000*%
%ADD24C,5.600000*%
%ADD25RoundRect,0.250000X-0.475000X0.337500X-0.475000X-0.337500X0.475000X-0.337500X0.475000X0.337500X0*%
%ADD26C,1.400000*%
%ADD27R,3.500000X3.500000*%
%ADD28C,3.500000*%
%ADD29RoundRect,0.250000X-0.337500X-0.475000X0.337500X-0.475000X0.337500X0.475000X-0.337500X0.475000X0*%
%ADD30RoundRect,0.250000X0.450000X-0.350000X0.450000X0.350000X-0.450000X0.350000X-0.450000X-0.350000X0*%
%ADD31C,1.712000*%
%ADD32RoundRect,0.102000X-1.275000X-1.275000X1.275000X-1.275000X1.275000X1.275000X-1.275000X1.275000X0*%
%ADD33C,2.754000*%
%ADD34RoundRect,0.250000X-0.450000X0.350000X-0.450000X-0.350000X0.450000X-0.350000X0.450000X0.350000X0*%
%ADD35RoundRect,0.250000X0.337500X0.475000X-0.337500X0.475000X-0.337500X-0.475000X0.337500X-0.475000X0*%
%ADD36R,1.700000X1.700000*%
%ADD37O,1.700000X1.700000*%
%ADD38O,1.600000X0.900000*%
G04 APERTURE END LIST*
D10*
X40238095Y-26204819D02*
X40238095Y-27014342D01*
X40238095Y-27014342D02*
X40285714Y-27109580D01*
X40285714Y-27109580D02*
X40333333Y-27157200D01*
X40333333Y-27157200D02*
X40428571Y-27204819D01*
X40428571Y-27204819D02*
X40619047Y-27204819D01*
X40619047Y-27204819D02*
X40714285Y-27157200D01*
X40714285Y-27157200D02*
X40761904Y-27109580D01*
X40761904Y-27109580D02*
X40809523Y-27014342D01*
X40809523Y-27014342D02*
X40809523Y-26204819D01*
X41761904Y-26204819D02*
X41285714Y-26204819D01*
X41285714Y-26204819D02*
X41238095Y-26681009D01*
X41238095Y-26681009D02*
X41285714Y-26633390D01*
X41285714Y-26633390D02*
X41380952Y-26585771D01*
X41380952Y-26585771D02*
X41619047Y-26585771D01*
X41619047Y-26585771D02*
X41714285Y-26633390D01*
X41714285Y-26633390D02*
X41761904Y-26681009D01*
X41761904Y-26681009D02*
X41809523Y-26776247D01*
X41809523Y-26776247D02*
X41809523Y-27014342D01*
X41809523Y-27014342D02*
X41761904Y-27109580D01*
X41761904Y-27109580D02*
X41714285Y-27157200D01*
X41714285Y-27157200D02*
X41619047Y-27204819D01*
X41619047Y-27204819D02*
X41380952Y-27204819D01*
X41380952Y-27204819D02*
X41285714Y-27157200D01*
X41285714Y-27157200D02*
X41238095Y-27109580D01*
X44139941Y-55884335D02*
X44168401Y-55945369D01*
X44168401Y-55945369D02*
X44164289Y-56095898D01*
X44164289Y-56095898D02*
X44131715Y-56185392D01*
X44131715Y-56185392D02*
X44038108Y-56303348D01*
X44038108Y-56303348D02*
X43916040Y-56360269D01*
X43916040Y-56360269D02*
X43810259Y-56372443D01*
X43810259Y-56372443D02*
X43614983Y-56352043D01*
X43614983Y-56352043D02*
X43480741Y-56303183D01*
X43480741Y-56303183D02*
X43318039Y-56193289D01*
X43318039Y-56193289D02*
X43244831Y-56115969D01*
X43244831Y-56115969D02*
X43187910Y-55993901D01*
X43187910Y-55993901D02*
X43192023Y-55843372D01*
X43192023Y-55843372D02*
X43224596Y-55753878D01*
X43224596Y-55753878D02*
X43318203Y-55635923D01*
X43318203Y-55635923D02*
X43379237Y-55607462D01*
X43582903Y-54769438D02*
X43517756Y-54948427D01*
X43517756Y-54948427D02*
X43529930Y-55054208D01*
X43529930Y-55054208D02*
X43558391Y-55115242D01*
X43558391Y-55115242D02*
X43660059Y-55253597D01*
X43660059Y-55253597D02*
X43822762Y-55363491D01*
X43822762Y-55363491D02*
X44180740Y-55493784D01*
X44180740Y-55493784D02*
X44286521Y-55481610D01*
X44286521Y-55481610D02*
X44347555Y-55453149D01*
X44347555Y-55453149D02*
X44424875Y-55379942D01*
X44424875Y-55379942D02*
X44490022Y-55200952D01*
X44490022Y-55200952D02*
X44477848Y-55095171D01*
X44477848Y-55095171D02*
X44449388Y-55034137D01*
X44449388Y-55034137D02*
X44376180Y-54956817D01*
X44376180Y-54956817D02*
X44152443Y-54875383D01*
X44152443Y-54875383D02*
X44046662Y-54887557D01*
X44046662Y-54887557D02*
X43985628Y-54916018D01*
X43985628Y-54916018D02*
X43908308Y-54989226D01*
X43908308Y-54989226D02*
X43843161Y-55168215D01*
X43843161Y-55168215D02*
X43855335Y-55273996D01*
X43855335Y-55273996D02*
X43883796Y-55335030D01*
X43883796Y-55335030D02*
X43957003Y-55412351D01*
X23166666Y-67454819D02*
X23166666Y-68169104D01*
X23166666Y-68169104D02*
X23119047Y-68311961D01*
X23119047Y-68311961D02*
X23023809Y-68407200D01*
X23023809Y-68407200D02*
X22880952Y-68454819D01*
X22880952Y-68454819D02*
X22785714Y-68454819D01*
X23595238Y-67550057D02*
X23642857Y-67502438D01*
X23642857Y-67502438D02*
X23738095Y-67454819D01*
X23738095Y-67454819D02*
X23976190Y-67454819D01*
X23976190Y-67454819D02*
X24071428Y-67502438D01*
X24071428Y-67502438D02*
X24119047Y-67550057D01*
X24119047Y-67550057D02*
X24166666Y-67645295D01*
X24166666Y-67645295D02*
X24166666Y-67740533D01*
X24166666Y-67740533D02*
X24119047Y-67883390D01*
X24119047Y-67883390D02*
X23547619Y-68454819D01*
X23547619Y-68454819D02*
X24166666Y-68454819D01*
X28359580Y-46392857D02*
X28407200Y-46440476D01*
X28407200Y-46440476D02*
X28454819Y-46583333D01*
X28454819Y-46583333D02*
X28454819Y-46678571D01*
X28454819Y-46678571D02*
X28407200Y-46821428D01*
X28407200Y-46821428D02*
X28311961Y-46916666D01*
X28311961Y-46916666D02*
X28216723Y-46964285D01*
X28216723Y-46964285D02*
X28026247Y-47011904D01*
X28026247Y-47011904D02*
X27883390Y-47011904D01*
X27883390Y-47011904D02*
X27692914Y-46964285D01*
X27692914Y-46964285D02*
X27597676Y-46916666D01*
X27597676Y-46916666D02*
X27502438Y-46821428D01*
X27502438Y-46821428D02*
X27454819Y-46678571D01*
X27454819Y-46678571D02*
X27454819Y-46583333D01*
X27454819Y-46583333D02*
X27502438Y-46440476D01*
X27502438Y-46440476D02*
X27550057Y-46392857D01*
X28454819Y-45440476D02*
X28454819Y-46011904D01*
X28454819Y-45726190D02*
X27454819Y-45726190D01*
X27454819Y-45726190D02*
X27597676Y-45821428D01*
X27597676Y-45821428D02*
X27692914Y-45916666D01*
X27692914Y-45916666D02*
X27740533Y-46011904D01*
X27454819Y-44821428D02*
X27454819Y-44726190D01*
X27454819Y-44726190D02*
X27502438Y-44630952D01*
X27502438Y-44630952D02*
X27550057Y-44583333D01*
X27550057Y-44583333D02*
X27645295Y-44535714D01*
X27645295Y-44535714D02*
X27835771Y-44488095D01*
X27835771Y-44488095D02*
X28073866Y-44488095D01*
X28073866Y-44488095D02*
X28264342Y-44535714D01*
X28264342Y-44535714D02*
X28359580Y-44583333D01*
X28359580Y-44583333D02*
X28407200Y-44630952D01*
X28407200Y-44630952D02*
X28454819Y-44726190D01*
X28454819Y-44726190D02*
X28454819Y-44821428D01*
X28454819Y-44821428D02*
X28407200Y-44916666D01*
X28407200Y-44916666D02*
X28359580Y-44964285D01*
X28359580Y-44964285D02*
X28264342Y-45011904D01*
X28264342Y-45011904D02*
X28073866Y-45059523D01*
X28073866Y-45059523D02*
X27835771Y-45059523D01*
X27835771Y-45059523D02*
X27645295Y-45011904D01*
X27645295Y-45011904D02*
X27550057Y-44964285D01*
X27550057Y-44964285D02*
X27502438Y-44916666D01*
X27502438Y-44916666D02*
X27454819Y-44821428D01*
X28359580Y-42642857D02*
X28407200Y-42690476D01*
X28407200Y-42690476D02*
X28454819Y-42833333D01*
X28454819Y-42833333D02*
X28454819Y-42928571D01*
X28454819Y-42928571D02*
X28407200Y-43071428D01*
X28407200Y-43071428D02*
X28311961Y-43166666D01*
X28311961Y-43166666D02*
X28216723Y-43214285D01*
X28216723Y-43214285D02*
X28026247Y-43261904D01*
X28026247Y-43261904D02*
X27883390Y-43261904D01*
X27883390Y-43261904D02*
X27692914Y-43214285D01*
X27692914Y-43214285D02*
X27597676Y-43166666D01*
X27597676Y-43166666D02*
X27502438Y-43071428D01*
X27502438Y-43071428D02*
X27454819Y-42928571D01*
X27454819Y-42928571D02*
X27454819Y-42833333D01*
X27454819Y-42833333D02*
X27502438Y-42690476D01*
X27502438Y-42690476D02*
X27550057Y-42642857D01*
X28454819Y-41690476D02*
X28454819Y-42261904D01*
X28454819Y-41976190D02*
X27454819Y-41976190D01*
X27454819Y-41976190D02*
X27597676Y-42071428D01*
X27597676Y-42071428D02*
X27692914Y-42166666D01*
X27692914Y-42166666D02*
X27740533Y-42261904D01*
X27454819Y-41357142D02*
X27454819Y-40738095D01*
X27454819Y-40738095D02*
X27835771Y-41071428D01*
X27835771Y-41071428D02*
X27835771Y-40928571D01*
X27835771Y-40928571D02*
X27883390Y-40833333D01*
X27883390Y-40833333D02*
X27931009Y-40785714D01*
X27931009Y-40785714D02*
X28026247Y-40738095D01*
X28026247Y-40738095D02*
X28264342Y-40738095D01*
X28264342Y-40738095D02*
X28359580Y-40785714D01*
X28359580Y-40785714D02*
X28407200Y-40833333D01*
X28407200Y-40833333D02*
X28454819Y-40928571D01*
X28454819Y-40928571D02*
X28454819Y-41214285D01*
X28454819Y-41214285D02*
X28407200Y-41309523D01*
X28407200Y-41309523D02*
X28359580Y-41357142D01*
X38416666Y-71204819D02*
X38416666Y-71919104D01*
X38416666Y-71919104D02*
X38369047Y-72061961D01*
X38369047Y-72061961D02*
X38273809Y-72157200D01*
X38273809Y-72157200D02*
X38130952Y-72204819D01*
X38130952Y-72204819D02*
X38035714Y-72204819D01*
X39321428Y-71204819D02*
X39130952Y-71204819D01*
X39130952Y-71204819D02*
X39035714Y-71252438D01*
X39035714Y-71252438D02*
X38988095Y-71300057D01*
X38988095Y-71300057D02*
X38892857Y-71442914D01*
X38892857Y-71442914D02*
X38845238Y-71633390D01*
X38845238Y-71633390D02*
X38845238Y-72014342D01*
X38845238Y-72014342D02*
X38892857Y-72109580D01*
X38892857Y-72109580D02*
X38940476Y-72157200D01*
X38940476Y-72157200D02*
X39035714Y-72204819D01*
X39035714Y-72204819D02*
X39226190Y-72204819D01*
X39226190Y-72204819D02*
X39321428Y-72157200D01*
X39321428Y-72157200D02*
X39369047Y-72109580D01*
X39369047Y-72109580D02*
X39416666Y-72014342D01*
X39416666Y-72014342D02*
X39416666Y-71776247D01*
X39416666Y-71776247D02*
X39369047Y-71681009D01*
X39369047Y-71681009D02*
X39321428Y-71633390D01*
X39321428Y-71633390D02*
X39226190Y-71585771D01*
X39226190Y-71585771D02*
X39035714Y-71585771D01*
X39035714Y-71585771D02*
X38940476Y-71633390D01*
X38940476Y-71633390D02*
X38892857Y-71681009D01*
X38892857Y-71681009D02*
X38845238Y-71776247D01*
X43678571Y-62614700D02*
X44821429Y-62614700D01*
X44250000Y-63186128D02*
X44250000Y-62043271D01*
X32678571Y-62614700D02*
X33821429Y-62614700D01*
X45399268Y-31933640D02*
X45446888Y-31981259D01*
X45446888Y-31981259D02*
X45494507Y-32124116D01*
X45494507Y-32124116D02*
X45494507Y-32219354D01*
X45494507Y-32219354D02*
X45446888Y-32362211D01*
X45446888Y-32362211D02*
X45351649Y-32457449D01*
X45351649Y-32457449D02*
X45256411Y-32505068D01*
X45256411Y-32505068D02*
X45065935Y-32552687D01*
X45065935Y-32552687D02*
X44923078Y-32552687D01*
X44923078Y-32552687D02*
X44732602Y-32505068D01*
X44732602Y-32505068D02*
X44637364Y-32457449D01*
X44637364Y-32457449D02*
X44542126Y-32362211D01*
X44542126Y-32362211D02*
X44494507Y-32219354D01*
X44494507Y-32219354D02*
X44494507Y-32124116D01*
X44494507Y-32124116D02*
X44542126Y-31981259D01*
X44542126Y-31981259D02*
X44589745Y-31933640D01*
X44923078Y-31362211D02*
X44875459Y-31457449D01*
X44875459Y-31457449D02*
X44827840Y-31505068D01*
X44827840Y-31505068D02*
X44732602Y-31552687D01*
X44732602Y-31552687D02*
X44684983Y-31552687D01*
X44684983Y-31552687D02*
X44589745Y-31505068D01*
X44589745Y-31505068D02*
X44542126Y-31457449D01*
X44542126Y-31457449D02*
X44494507Y-31362211D01*
X44494507Y-31362211D02*
X44494507Y-31171735D01*
X44494507Y-31171735D02*
X44542126Y-31076497D01*
X44542126Y-31076497D02*
X44589745Y-31028878D01*
X44589745Y-31028878D02*
X44684983Y-30981259D01*
X44684983Y-30981259D02*
X44732602Y-30981259D01*
X44732602Y-30981259D02*
X44827840Y-31028878D01*
X44827840Y-31028878D02*
X44875459Y-31076497D01*
X44875459Y-31076497D02*
X44923078Y-31171735D01*
X44923078Y-31171735D02*
X44923078Y-31362211D01*
X44923078Y-31362211D02*
X44970697Y-31457449D01*
X44970697Y-31457449D02*
X45018316Y-31505068D01*
X45018316Y-31505068D02*
X45113554Y-31552687D01*
X45113554Y-31552687D02*
X45304030Y-31552687D01*
X45304030Y-31552687D02*
X45399268Y-31505068D01*
X45399268Y-31505068D02*
X45446888Y-31457449D01*
X45446888Y-31457449D02*
X45494507Y-31362211D01*
X45494507Y-31362211D02*
X45494507Y-31171735D01*
X45494507Y-31171735D02*
X45446888Y-31076497D01*
X45446888Y-31076497D02*
X45399268Y-31028878D01*
X45399268Y-31028878D02*
X45304030Y-30981259D01*
X45304030Y-30981259D02*
X45113554Y-30981259D01*
X45113554Y-30981259D02*
X45018316Y-31028878D01*
X45018316Y-31028878D02*
X44970697Y-31076497D01*
X44970697Y-31076497D02*
X44923078Y-31171735D01*
X29609580Y-29766666D02*
X29657200Y-29814285D01*
X29657200Y-29814285D02*
X29704819Y-29957142D01*
X29704819Y-29957142D02*
X29704819Y-30052380D01*
X29704819Y-30052380D02*
X29657200Y-30195237D01*
X29657200Y-30195237D02*
X29561961Y-30290475D01*
X29561961Y-30290475D02*
X29466723Y-30338094D01*
X29466723Y-30338094D02*
X29276247Y-30385713D01*
X29276247Y-30385713D02*
X29133390Y-30385713D01*
X29133390Y-30385713D02*
X28942914Y-30338094D01*
X28942914Y-30338094D02*
X28847676Y-30290475D01*
X28847676Y-30290475D02*
X28752438Y-30195237D01*
X28752438Y-30195237D02*
X28704819Y-30052380D01*
X28704819Y-30052380D02*
X28704819Y-29957142D01*
X28704819Y-29957142D02*
X28752438Y-29814285D01*
X28752438Y-29814285D02*
X28800057Y-29766666D01*
X28704819Y-29433332D02*
X28704819Y-28766666D01*
X28704819Y-28766666D02*
X29704819Y-29195237D01*
X41857142Y-23109580D02*
X41809523Y-23157200D01*
X41809523Y-23157200D02*
X41666666Y-23204819D01*
X41666666Y-23204819D02*
X41571428Y-23204819D01*
X41571428Y-23204819D02*
X41428571Y-23157200D01*
X41428571Y-23157200D02*
X41333333Y-23061961D01*
X41333333Y-23061961D02*
X41285714Y-22966723D01*
X41285714Y-22966723D02*
X41238095Y-22776247D01*
X41238095Y-22776247D02*
X41238095Y-22633390D01*
X41238095Y-22633390D02*
X41285714Y-22442914D01*
X41285714Y-22442914D02*
X41333333Y-22347676D01*
X41333333Y-22347676D02*
X41428571Y-22252438D01*
X41428571Y-22252438D02*
X41571428Y-22204819D01*
X41571428Y-22204819D02*
X41666666Y-22204819D01*
X41666666Y-22204819D02*
X41809523Y-22252438D01*
X41809523Y-22252438D02*
X41857142Y-22300057D01*
X42809523Y-23204819D02*
X42238095Y-23204819D01*
X42523809Y-23204819D02*
X42523809Y-22204819D01*
X42523809Y-22204819D02*
X42428571Y-22347676D01*
X42428571Y-22347676D02*
X42333333Y-22442914D01*
X42333333Y-22442914D02*
X42238095Y-22490533D01*
X43190476Y-22300057D02*
X43238095Y-22252438D01*
X43238095Y-22252438D02*
X43333333Y-22204819D01*
X43333333Y-22204819D02*
X43571428Y-22204819D01*
X43571428Y-22204819D02*
X43666666Y-22252438D01*
X43666666Y-22252438D02*
X43714285Y-22300057D01*
X43714285Y-22300057D02*
X43761904Y-22395295D01*
X43761904Y-22395295D02*
X43761904Y-22490533D01*
X43761904Y-22490533D02*
X43714285Y-22633390D01*
X43714285Y-22633390D02*
X43142857Y-23204819D01*
X43142857Y-23204819D02*
X43761904Y-23204819D01*
X39704819Y-55642857D02*
X39228628Y-55976190D01*
X39704819Y-56214285D02*
X38704819Y-56214285D01*
X38704819Y-56214285D02*
X38704819Y-55833333D01*
X38704819Y-55833333D02*
X38752438Y-55738095D01*
X38752438Y-55738095D02*
X38800057Y-55690476D01*
X38800057Y-55690476D02*
X38895295Y-55642857D01*
X38895295Y-55642857D02*
X39038152Y-55642857D01*
X39038152Y-55642857D02*
X39133390Y-55690476D01*
X39133390Y-55690476D02*
X39181009Y-55738095D01*
X39181009Y-55738095D02*
X39228628Y-55833333D01*
X39228628Y-55833333D02*
X39228628Y-56214285D01*
X39704819Y-54690476D02*
X39704819Y-55261904D01*
X39704819Y-54976190D02*
X38704819Y-54976190D01*
X38704819Y-54976190D02*
X38847676Y-55071428D01*
X38847676Y-55071428D02*
X38942914Y-55166666D01*
X38942914Y-55166666D02*
X38990533Y-55261904D01*
X38800057Y-54309523D02*
X38752438Y-54261904D01*
X38752438Y-54261904D02*
X38704819Y-54166666D01*
X38704819Y-54166666D02*
X38704819Y-53928571D01*
X38704819Y-53928571D02*
X38752438Y-53833333D01*
X38752438Y-53833333D02*
X38800057Y-53785714D01*
X38800057Y-53785714D02*
X38895295Y-53738095D01*
X38895295Y-53738095D02*
X38990533Y-53738095D01*
X38990533Y-53738095D02*
X39133390Y-53785714D01*
X39133390Y-53785714D02*
X39704819Y-54357142D01*
X39704819Y-54357142D02*
X39704819Y-53738095D01*
X26091666Y-28819669D02*
X26091666Y-29533954D01*
X26091666Y-29533954D02*
X26044047Y-29676811D01*
X26044047Y-29676811D02*
X25948809Y-29772050D01*
X25948809Y-29772050D02*
X25805952Y-29819669D01*
X25805952Y-29819669D02*
X25710714Y-29819669D01*
X26472619Y-28819669D02*
X27139285Y-28819669D01*
X27139285Y-28819669D02*
X26710714Y-29819669D01*
X23404819Y-56022457D02*
X22928628Y-56355790D01*
X23404819Y-56593885D02*
X22404819Y-56593885D01*
X22404819Y-56593885D02*
X22404819Y-56212933D01*
X22404819Y-56212933D02*
X22452438Y-56117695D01*
X22452438Y-56117695D02*
X22500057Y-56070076D01*
X22500057Y-56070076D02*
X22595295Y-56022457D01*
X22595295Y-56022457D02*
X22738152Y-56022457D01*
X22738152Y-56022457D02*
X22833390Y-56070076D01*
X22833390Y-56070076D02*
X22881009Y-56117695D01*
X22881009Y-56117695D02*
X22928628Y-56212933D01*
X22928628Y-56212933D02*
X22928628Y-56593885D01*
X23404819Y-55070076D02*
X23404819Y-55641504D01*
X23404819Y-55355790D02*
X22404819Y-55355790D01*
X22404819Y-55355790D02*
X22547676Y-55451028D01*
X22547676Y-55451028D02*
X22642914Y-55546266D01*
X22642914Y-55546266D02*
X22690533Y-55641504D01*
X23404819Y-54117695D02*
X23404819Y-54689123D01*
X23404819Y-54403409D02*
X22404819Y-54403409D01*
X22404819Y-54403409D02*
X22547676Y-54498647D01*
X22547676Y-54498647D02*
X22642914Y-54593885D01*
X22642914Y-54593885D02*
X22690533Y-54689123D01*
X25738095Y-26204819D02*
X25738095Y-27014342D01*
X25738095Y-27014342D02*
X25785714Y-27109580D01*
X25785714Y-27109580D02*
X25833333Y-27157200D01*
X25833333Y-27157200D02*
X25928571Y-27204819D01*
X25928571Y-27204819D02*
X26119047Y-27204819D01*
X26119047Y-27204819D02*
X26214285Y-27157200D01*
X26214285Y-27157200D02*
X26261904Y-27109580D01*
X26261904Y-27109580D02*
X26309523Y-27014342D01*
X26309523Y-27014342D02*
X26309523Y-26204819D01*
X27214285Y-26538152D02*
X27214285Y-27204819D01*
X26976190Y-26157200D02*
X26738095Y-26871485D01*
X26738095Y-26871485D02*
X27357142Y-26871485D01*
X23359580Y-50796266D02*
X23407200Y-50843885D01*
X23407200Y-50843885D02*
X23454819Y-50986742D01*
X23454819Y-50986742D02*
X23454819Y-51081980D01*
X23454819Y-51081980D02*
X23407200Y-51224837D01*
X23407200Y-51224837D02*
X23311961Y-51320075D01*
X23311961Y-51320075D02*
X23216723Y-51367694D01*
X23216723Y-51367694D02*
X23026247Y-51415313D01*
X23026247Y-51415313D02*
X22883390Y-51415313D01*
X22883390Y-51415313D02*
X22692914Y-51367694D01*
X22692914Y-51367694D02*
X22597676Y-51320075D01*
X22597676Y-51320075D02*
X22502438Y-51224837D01*
X22502438Y-51224837D02*
X22454819Y-51081980D01*
X22454819Y-51081980D02*
X22454819Y-50986742D01*
X22454819Y-50986742D02*
X22502438Y-50843885D01*
X22502438Y-50843885D02*
X22550057Y-50796266D01*
X23454819Y-50320075D02*
X23454819Y-50129599D01*
X23454819Y-50129599D02*
X23407200Y-50034361D01*
X23407200Y-50034361D02*
X23359580Y-49986742D01*
X23359580Y-49986742D02*
X23216723Y-49891504D01*
X23216723Y-49891504D02*
X23026247Y-49843885D01*
X23026247Y-49843885D02*
X22645295Y-49843885D01*
X22645295Y-49843885D02*
X22550057Y-49891504D01*
X22550057Y-49891504D02*
X22502438Y-49939123D01*
X22502438Y-49939123D02*
X22454819Y-50034361D01*
X22454819Y-50034361D02*
X22454819Y-50224837D01*
X22454819Y-50224837D02*
X22502438Y-50320075D01*
X22502438Y-50320075D02*
X22550057Y-50367694D01*
X22550057Y-50367694D02*
X22645295Y-50415313D01*
X22645295Y-50415313D02*
X22883390Y-50415313D01*
X22883390Y-50415313D02*
X22978628Y-50367694D01*
X22978628Y-50367694D02*
X23026247Y-50320075D01*
X23026247Y-50320075D02*
X23073866Y-50224837D01*
X23073866Y-50224837D02*
X23073866Y-50034361D01*
X23073866Y-50034361D02*
X23026247Y-49939123D01*
X23026247Y-49939123D02*
X22978628Y-49891504D01*
X22978628Y-49891504D02*
X22883390Y-49843885D01*
X36404819Y-51272457D02*
X35928628Y-51605790D01*
X36404819Y-51843885D02*
X35404819Y-51843885D01*
X35404819Y-51843885D02*
X35404819Y-51462933D01*
X35404819Y-51462933D02*
X35452438Y-51367695D01*
X35452438Y-51367695D02*
X35500057Y-51320076D01*
X35500057Y-51320076D02*
X35595295Y-51272457D01*
X35595295Y-51272457D02*
X35738152Y-51272457D01*
X35738152Y-51272457D02*
X35833390Y-51320076D01*
X35833390Y-51320076D02*
X35881009Y-51367695D01*
X35881009Y-51367695D02*
X35928628Y-51462933D01*
X35928628Y-51462933D02*
X35928628Y-51843885D01*
X36404819Y-50320076D02*
X36404819Y-50891504D01*
X36404819Y-50605790D02*
X35404819Y-50605790D01*
X35404819Y-50605790D02*
X35547676Y-50701028D01*
X35547676Y-50701028D02*
X35642914Y-50796266D01*
X35642914Y-50796266D02*
X35690533Y-50891504D01*
X35404819Y-49701028D02*
X35404819Y-49605790D01*
X35404819Y-49605790D02*
X35452438Y-49510552D01*
X35452438Y-49510552D02*
X35500057Y-49462933D01*
X35500057Y-49462933D02*
X35595295Y-49415314D01*
X35595295Y-49415314D02*
X35785771Y-49367695D01*
X35785771Y-49367695D02*
X36023866Y-49367695D01*
X36023866Y-49367695D02*
X36214342Y-49415314D01*
X36214342Y-49415314D02*
X36309580Y-49462933D01*
X36309580Y-49462933D02*
X36357200Y-49510552D01*
X36357200Y-49510552D02*
X36404819Y-49605790D01*
X36404819Y-49605790D02*
X36404819Y-49701028D01*
X36404819Y-49701028D02*
X36357200Y-49796266D01*
X36357200Y-49796266D02*
X36309580Y-49843885D01*
X36309580Y-49843885D02*
X36214342Y-49891504D01*
X36214342Y-49891504D02*
X36023866Y-49939123D01*
X36023866Y-49939123D02*
X35785771Y-49939123D01*
X35785771Y-49939123D02*
X35595295Y-49891504D01*
X35595295Y-49891504D02*
X35500057Y-49843885D01*
X35500057Y-49843885D02*
X35452438Y-49796266D01*
X35452438Y-49796266D02*
X35404819Y-49701028D01*
X17857142Y-23109580D02*
X17809523Y-23157200D01*
X17809523Y-23157200D02*
X17666666Y-23204819D01*
X17666666Y-23204819D02*
X17571428Y-23204819D01*
X17571428Y-23204819D02*
X17428571Y-23157200D01*
X17428571Y-23157200D02*
X17333333Y-23061961D01*
X17333333Y-23061961D02*
X17285714Y-22966723D01*
X17285714Y-22966723D02*
X17238095Y-22776247D01*
X17238095Y-22776247D02*
X17238095Y-22633390D01*
X17238095Y-22633390D02*
X17285714Y-22442914D01*
X17285714Y-22442914D02*
X17333333Y-22347676D01*
X17333333Y-22347676D02*
X17428571Y-22252438D01*
X17428571Y-22252438D02*
X17571428Y-22204819D01*
X17571428Y-22204819D02*
X17666666Y-22204819D01*
X17666666Y-22204819D02*
X17809523Y-22252438D01*
X17809523Y-22252438D02*
X17857142Y-22300057D01*
X18809523Y-23204819D02*
X18238095Y-23204819D01*
X18523809Y-23204819D02*
X18523809Y-22204819D01*
X18523809Y-22204819D02*
X18428571Y-22347676D01*
X18428571Y-22347676D02*
X18333333Y-22442914D01*
X18333333Y-22442914D02*
X18238095Y-22490533D01*
X19761904Y-23204819D02*
X19190476Y-23204819D01*
X19476190Y-23204819D02*
X19476190Y-22204819D01*
X19476190Y-22204819D02*
X19380952Y-22347676D01*
X19380952Y-22347676D02*
X19285714Y-22442914D01*
X19285714Y-22442914D02*
X19190476Y-22490533D01*
X39609580Y-51272457D02*
X39657200Y-51320076D01*
X39657200Y-51320076D02*
X39704819Y-51462933D01*
X39704819Y-51462933D02*
X39704819Y-51558171D01*
X39704819Y-51558171D02*
X39657200Y-51701028D01*
X39657200Y-51701028D02*
X39561961Y-51796266D01*
X39561961Y-51796266D02*
X39466723Y-51843885D01*
X39466723Y-51843885D02*
X39276247Y-51891504D01*
X39276247Y-51891504D02*
X39133390Y-51891504D01*
X39133390Y-51891504D02*
X38942914Y-51843885D01*
X38942914Y-51843885D02*
X38847676Y-51796266D01*
X38847676Y-51796266D02*
X38752438Y-51701028D01*
X38752438Y-51701028D02*
X38704819Y-51558171D01*
X38704819Y-51558171D02*
X38704819Y-51462933D01*
X38704819Y-51462933D02*
X38752438Y-51320076D01*
X38752438Y-51320076D02*
X38800057Y-51272457D01*
X39704819Y-50320076D02*
X39704819Y-50891504D01*
X39704819Y-50605790D02*
X38704819Y-50605790D01*
X38704819Y-50605790D02*
X38847676Y-50701028D01*
X38847676Y-50701028D02*
X38942914Y-50796266D01*
X38942914Y-50796266D02*
X38990533Y-50891504D01*
X39038152Y-49462933D02*
X39704819Y-49462933D01*
X38657200Y-49701028D02*
X39371485Y-49939123D01*
X39371485Y-49939123D02*
X39371485Y-49320076D01*
X33109580Y-55642857D02*
X33157200Y-55690476D01*
X33157200Y-55690476D02*
X33204819Y-55833333D01*
X33204819Y-55833333D02*
X33204819Y-55928571D01*
X33204819Y-55928571D02*
X33157200Y-56071428D01*
X33157200Y-56071428D02*
X33061961Y-56166666D01*
X33061961Y-56166666D02*
X32966723Y-56214285D01*
X32966723Y-56214285D02*
X32776247Y-56261904D01*
X32776247Y-56261904D02*
X32633390Y-56261904D01*
X32633390Y-56261904D02*
X32442914Y-56214285D01*
X32442914Y-56214285D02*
X32347676Y-56166666D01*
X32347676Y-56166666D02*
X32252438Y-56071428D01*
X32252438Y-56071428D02*
X32204819Y-55928571D01*
X32204819Y-55928571D02*
X32204819Y-55833333D01*
X32204819Y-55833333D02*
X32252438Y-55690476D01*
X32252438Y-55690476D02*
X32300057Y-55642857D01*
X33204819Y-54690476D02*
X33204819Y-55261904D01*
X33204819Y-54976190D02*
X32204819Y-54976190D01*
X32204819Y-54976190D02*
X32347676Y-55071428D01*
X32347676Y-55071428D02*
X32442914Y-55166666D01*
X32442914Y-55166666D02*
X32490533Y-55261904D01*
X32204819Y-53833333D02*
X32204819Y-54023809D01*
X32204819Y-54023809D02*
X32252438Y-54119047D01*
X32252438Y-54119047D02*
X32300057Y-54166666D01*
X32300057Y-54166666D02*
X32442914Y-54261904D01*
X32442914Y-54261904D02*
X32633390Y-54309523D01*
X32633390Y-54309523D02*
X33014342Y-54309523D01*
X33014342Y-54309523D02*
X33109580Y-54261904D01*
X33109580Y-54261904D02*
X33157200Y-54214285D01*
X33157200Y-54214285D02*
X33204819Y-54119047D01*
X33204819Y-54119047D02*
X33204819Y-53928571D01*
X33204819Y-53928571D02*
X33157200Y-53833333D01*
X33157200Y-53833333D02*
X33109580Y-53785714D01*
X33109580Y-53785714D02*
X33014342Y-53738095D01*
X33014342Y-53738095D02*
X32776247Y-53738095D01*
X32776247Y-53738095D02*
X32681009Y-53785714D01*
X32681009Y-53785714D02*
X32633390Y-53833333D01*
X32633390Y-53833333D02*
X32585771Y-53928571D01*
X32585771Y-53928571D02*
X32585771Y-54119047D01*
X32585771Y-54119047D02*
X32633390Y-54214285D01*
X32633390Y-54214285D02*
X32681009Y-54261904D01*
X32681009Y-54261904D02*
X32776247Y-54309523D01*
X18454819Y-55416666D02*
X17978628Y-55749999D01*
X18454819Y-55988094D02*
X17454819Y-55988094D01*
X17454819Y-55988094D02*
X17454819Y-55607142D01*
X17454819Y-55607142D02*
X17502438Y-55511904D01*
X17502438Y-55511904D02*
X17550057Y-55464285D01*
X17550057Y-55464285D02*
X17645295Y-55416666D01*
X17645295Y-55416666D02*
X17788152Y-55416666D01*
X17788152Y-55416666D02*
X17883390Y-55464285D01*
X17883390Y-55464285D02*
X17931009Y-55511904D01*
X17931009Y-55511904D02*
X17978628Y-55607142D01*
X17978628Y-55607142D02*
X17978628Y-55988094D01*
X18454819Y-54940475D02*
X18454819Y-54749999D01*
X18454819Y-54749999D02*
X18407200Y-54654761D01*
X18407200Y-54654761D02*
X18359580Y-54607142D01*
X18359580Y-54607142D02*
X18216723Y-54511904D01*
X18216723Y-54511904D02*
X18026247Y-54464285D01*
X18026247Y-54464285D02*
X17645295Y-54464285D01*
X17645295Y-54464285D02*
X17550057Y-54511904D01*
X17550057Y-54511904D02*
X17502438Y-54559523D01*
X17502438Y-54559523D02*
X17454819Y-54654761D01*
X17454819Y-54654761D02*
X17454819Y-54845237D01*
X17454819Y-54845237D02*
X17502438Y-54940475D01*
X17502438Y-54940475D02*
X17550057Y-54988094D01*
X17550057Y-54988094D02*
X17645295Y-55035713D01*
X17645295Y-55035713D02*
X17883390Y-55035713D01*
X17883390Y-55035713D02*
X17978628Y-54988094D01*
X17978628Y-54988094D02*
X18026247Y-54940475D01*
X18026247Y-54940475D02*
X18073866Y-54845237D01*
X18073866Y-54845237D02*
X18073866Y-54654761D01*
X18073866Y-54654761D02*
X18026247Y-54559523D01*
X18026247Y-54559523D02*
X17978628Y-54511904D01*
X17978628Y-54511904D02*
X17883390Y-54464285D01*
X20109580Y-51272457D02*
X20157200Y-51320076D01*
X20157200Y-51320076D02*
X20204819Y-51462933D01*
X20204819Y-51462933D02*
X20204819Y-51558171D01*
X20204819Y-51558171D02*
X20157200Y-51701028D01*
X20157200Y-51701028D02*
X20061961Y-51796266D01*
X20061961Y-51796266D02*
X19966723Y-51843885D01*
X19966723Y-51843885D02*
X19776247Y-51891504D01*
X19776247Y-51891504D02*
X19633390Y-51891504D01*
X19633390Y-51891504D02*
X19442914Y-51843885D01*
X19442914Y-51843885D02*
X19347676Y-51796266D01*
X19347676Y-51796266D02*
X19252438Y-51701028D01*
X19252438Y-51701028D02*
X19204819Y-51558171D01*
X19204819Y-51558171D02*
X19204819Y-51462933D01*
X19204819Y-51462933D02*
X19252438Y-51320076D01*
X19252438Y-51320076D02*
X19300057Y-51272457D01*
X20204819Y-50320076D02*
X20204819Y-50891504D01*
X20204819Y-50605790D02*
X19204819Y-50605790D01*
X19204819Y-50605790D02*
X19347676Y-50701028D01*
X19347676Y-50701028D02*
X19442914Y-50796266D01*
X19442914Y-50796266D02*
X19490533Y-50891504D01*
X19204819Y-49415314D02*
X19204819Y-49891504D01*
X19204819Y-49891504D02*
X19681009Y-49939123D01*
X19681009Y-49939123D02*
X19633390Y-49891504D01*
X19633390Y-49891504D02*
X19585771Y-49796266D01*
X19585771Y-49796266D02*
X19585771Y-49558171D01*
X19585771Y-49558171D02*
X19633390Y-49462933D01*
X19633390Y-49462933D02*
X19681009Y-49415314D01*
X19681009Y-49415314D02*
X19776247Y-49367695D01*
X19776247Y-49367695D02*
X20014342Y-49367695D01*
X20014342Y-49367695D02*
X20109580Y-49415314D01*
X20109580Y-49415314D02*
X20157200Y-49462933D01*
X20157200Y-49462933D02*
X20204819Y-49558171D01*
X20204819Y-49558171D02*
X20204819Y-49796266D01*
X20204819Y-49796266D02*
X20157200Y-49891504D01*
X20157200Y-49891504D02*
X20109580Y-49939123D01*
X30704819Y-50796266D02*
X30228628Y-51129599D01*
X30704819Y-51367694D02*
X29704819Y-51367694D01*
X29704819Y-51367694D02*
X29704819Y-50986742D01*
X29704819Y-50986742D02*
X29752438Y-50891504D01*
X29752438Y-50891504D02*
X29800057Y-50843885D01*
X29800057Y-50843885D02*
X29895295Y-50796266D01*
X29895295Y-50796266D02*
X30038152Y-50796266D01*
X30038152Y-50796266D02*
X30133390Y-50843885D01*
X30133390Y-50843885D02*
X30181009Y-50891504D01*
X30181009Y-50891504D02*
X30228628Y-50986742D01*
X30228628Y-50986742D02*
X30228628Y-51367694D01*
X30133390Y-50224837D02*
X30085771Y-50320075D01*
X30085771Y-50320075D02*
X30038152Y-50367694D01*
X30038152Y-50367694D02*
X29942914Y-50415313D01*
X29942914Y-50415313D02*
X29895295Y-50415313D01*
X29895295Y-50415313D02*
X29800057Y-50367694D01*
X29800057Y-50367694D02*
X29752438Y-50320075D01*
X29752438Y-50320075D02*
X29704819Y-50224837D01*
X29704819Y-50224837D02*
X29704819Y-50034361D01*
X29704819Y-50034361D02*
X29752438Y-49939123D01*
X29752438Y-49939123D02*
X29800057Y-49891504D01*
X29800057Y-49891504D02*
X29895295Y-49843885D01*
X29895295Y-49843885D02*
X29942914Y-49843885D01*
X29942914Y-49843885D02*
X30038152Y-49891504D01*
X30038152Y-49891504D02*
X30085771Y-49939123D01*
X30085771Y-49939123D02*
X30133390Y-50034361D01*
X30133390Y-50034361D02*
X30133390Y-50224837D01*
X30133390Y-50224837D02*
X30181009Y-50320075D01*
X30181009Y-50320075D02*
X30228628Y-50367694D01*
X30228628Y-50367694D02*
X30323866Y-50415313D01*
X30323866Y-50415313D02*
X30514342Y-50415313D01*
X30514342Y-50415313D02*
X30609580Y-50367694D01*
X30609580Y-50367694D02*
X30657200Y-50320075D01*
X30657200Y-50320075D02*
X30704819Y-50224837D01*
X30704819Y-50224837D02*
X30704819Y-50034361D01*
X30704819Y-50034361D02*
X30657200Y-49939123D01*
X30657200Y-49939123D02*
X30609580Y-49891504D01*
X30609580Y-49891504D02*
X30514342Y-49843885D01*
X30514342Y-49843885D02*
X30323866Y-49843885D01*
X30323866Y-49843885D02*
X30228628Y-49891504D01*
X30228628Y-49891504D02*
X30181009Y-49939123D01*
X30181009Y-49939123D02*
X30133390Y-50034361D01*
X16954819Y-50766666D02*
X16478628Y-51099999D01*
X16954819Y-51338094D02*
X15954819Y-51338094D01*
X15954819Y-51338094D02*
X15954819Y-50957142D01*
X15954819Y-50957142D02*
X16002438Y-50861904D01*
X16002438Y-50861904D02*
X16050057Y-50814285D01*
X16050057Y-50814285D02*
X16145295Y-50766666D01*
X16145295Y-50766666D02*
X16288152Y-50766666D01*
X16288152Y-50766666D02*
X16383390Y-50814285D01*
X16383390Y-50814285D02*
X16431009Y-50861904D01*
X16431009Y-50861904D02*
X16478628Y-50957142D01*
X16478628Y-50957142D02*
X16478628Y-51338094D01*
X15954819Y-50433332D02*
X15954819Y-49766666D01*
X15954819Y-49766666D02*
X16954819Y-50195237D01*
D11*
%TO.C,U5*%
X31317600Y-37381297D02*
X31317600Y-39851400D01*
X31317600Y-39851400D02*
X41782400Y-39851400D01*
X41782400Y-39851400D02*
X41782400Y-37381297D01*
D12*
%TO.C,C6*%
X43304149Y-59687640D02*
X44478766Y-60115164D01*
X43677695Y-60488709D02*
X44105220Y-59314093D01*
D13*
%TO.C,J2*%
X15880000Y-57880000D02*
X15880000Y-66005000D01*
X15880000Y-75880000D02*
X15880000Y-69995000D01*
X15880000Y-75880000D02*
X31120000Y-75880000D01*
X31120000Y-57880000D02*
X15880000Y-57880000D01*
X31120000Y-66005000D02*
X31120000Y-57880000D01*
X31120000Y-75880000D02*
X31120000Y-69995000D01*
D14*
X15230000Y-61650000D02*
G75*
G02*
X15030000Y-61650000I-100000J0D01*
G01*
X15030000Y-61650000D02*
G75*
G02*
X15230000Y-61650000I100000J0D01*
G01*
D12*
%TO.C,C10*%
X28865000Y-46140852D02*
X28865000Y-45618348D01*
X30335000Y-46140852D02*
X30335000Y-45618348D01*
%TO.C,C13*%
X28865000Y-41405848D02*
X28865000Y-41928352D01*
X30335000Y-41405848D02*
X30335000Y-41928352D01*
%TO.C,J6*%
X33690000Y-71390000D02*
X33100000Y-71390000D01*
X33690000Y-71390000D02*
X33690000Y-66490000D01*
X33690000Y-73610000D02*
X33100000Y-73610000D01*
X33690000Y-75710000D02*
X33690000Y-73610000D01*
X43810000Y-66490000D02*
X33690000Y-66490000D01*
X43810000Y-71390000D02*
X43810000Y-66490000D01*
X43810000Y-75710000D02*
X33690000Y-75710000D01*
X43810000Y-75710000D02*
X43810000Y-73610000D01*
X44400000Y-71390000D02*
X43810000Y-71390000D01*
X44400000Y-73610000D02*
X43810000Y-73610000D01*
X33100000Y-73610000D02*
G75*
G02*
X33100000Y-71390000I0J1110000D01*
G01*
X44400000Y-71390000D02*
G75*
G02*
X44400000Y-73610000I0J-1110000D01*
G01*
%TO.C,C8*%
X42765000Y-32011252D02*
X42765000Y-31488748D01*
X44235000Y-32011252D02*
X44235000Y-31488748D01*
%TO.C,C7*%
X28515000Y-32761252D02*
X28515000Y-32238748D01*
X29985000Y-32761252D02*
X29985000Y-32238748D01*
%TO.C,C12*%
X42238748Y-23765000D02*
X42761252Y-23765000D01*
X42238748Y-25235000D02*
X42761252Y-25235000D01*
%TO.C,R12*%
X36765000Y-55227064D02*
X36765000Y-54772936D01*
X38235000Y-55227064D02*
X38235000Y-54772936D01*
D13*
%TO.C,J7*%
X23850000Y-15629600D02*
X25550000Y-15629600D01*
X23850000Y-18129600D02*
X23850000Y-15629600D01*
X25550000Y-13979600D02*
X26230000Y-13979600D01*
X25550000Y-15629600D02*
X25550000Y-13979600D01*
X26230000Y-7979600D02*
X34770000Y-7979600D01*
X26230000Y-13979600D02*
X26230000Y-7979600D01*
X27500000Y-24129600D02*
X28500000Y-24129600D01*
X32500000Y-24129600D02*
X33500000Y-24129600D01*
X33000000Y-23629600D02*
X33000000Y-24629600D01*
X34770000Y-13979600D02*
X34770000Y-7979600D01*
X35450000Y-13979600D02*
X34770000Y-13979600D01*
X35450000Y-15629600D02*
X35450000Y-13979600D01*
X37150000Y-15629600D02*
X35450000Y-15629600D01*
X37150000Y-18129600D02*
X23850000Y-18129600D01*
X37150000Y-18129600D02*
X37150000Y-15629600D01*
D12*
%TO.C,R11*%
X23865000Y-55606664D02*
X23865000Y-55152536D01*
X25335000Y-55606664D02*
X25335000Y-55152536D01*
D11*
%TO.C,U4*%
X17017600Y-37381297D02*
X17017600Y-39851400D01*
X17017600Y-39851400D02*
X27482400Y-39851400D01*
X27482400Y-39851400D02*
X27482400Y-37381297D01*
D12*
%TO.C,C9*%
X23865000Y-50368348D02*
X23865000Y-50890852D01*
X25335000Y-50368348D02*
X25335000Y-50890852D01*
%TO.C,R10*%
X33565000Y-50402536D02*
X33565000Y-50856664D01*
X35035000Y-50402536D02*
X35035000Y-50856664D01*
%TO.C,C11*%
X18761252Y-23765000D02*
X18238748Y-23765000D01*
X18761252Y-25235000D02*
X18238748Y-25235000D01*
%TO.C,C14*%
X36765000Y-50368348D02*
X36765000Y-50890852D01*
X38235000Y-50368348D02*
X38235000Y-50890852D01*
%TO.C,C16*%
X33515000Y-54738748D02*
X33515000Y-55261252D01*
X34985000Y-54738748D02*
X34985000Y-55261252D01*
%TO.C,R9*%
X18815000Y-55022936D02*
X18815000Y-55477064D01*
X20285000Y-55022936D02*
X20285000Y-55477064D01*
%TO.C,C15*%
X20565000Y-50368348D02*
X20565000Y-50890852D01*
X22035000Y-50368348D02*
X22035000Y-50890852D01*
%TO.C,R8*%
X31015000Y-50402536D02*
X31015000Y-50856664D01*
X32485000Y-50402536D02*
X32485000Y-50856664D01*
%TO.C,R7*%
X17315000Y-50372936D02*
X17315000Y-50827064D01*
X18785000Y-50372936D02*
X18785000Y-50827064D01*
%TD*%
%LPC*%
D15*
%TO.C,U5*%
X32740000Y-43158300D03*
X34010000Y-43158300D03*
X35280000Y-43158300D03*
X36550000Y-43158300D03*
X37820000Y-43158300D03*
X39090000Y-43158300D03*
X40360000Y-43158300D03*
D16*
X36550000Y-32278700D03*
%TD*%
D17*
%TO.C,C6*%
X42994949Y-57978832D03*
D18*
X44705050Y-53280369D03*
%TD*%
D19*
%TO.C,J2*%
X17784000Y-68000000D03*
X29216000Y-68000000D03*
D20*
X19055000Y-61650000D03*
D21*
X20325000Y-59110000D03*
X21595000Y-61650000D03*
X22865000Y-59110000D03*
X24135000Y-61650000D03*
X25405000Y-59110000D03*
X26675000Y-61650000D03*
X27945000Y-59110000D03*
%TD*%
D22*
%TO.C,C10*%
X29600000Y-46917100D03*
X29600000Y-44842100D03*
%TD*%
D23*
%TO.C,H2*%
X43000000Y-18250000D03*
D24*
X43000000Y-18250000D03*
%TD*%
D25*
%TO.C,C13*%
X29600000Y-40629600D03*
X29600000Y-42704600D03*
%TD*%
D26*
%TO.C,J6*%
X44250000Y-72500000D03*
X33250000Y-72500000D03*
D27*
X36250000Y-62500000D03*
D28*
X41250000Y-62500000D03*
%TD*%
D22*
%TO.C,C8*%
X43500000Y-32787500D03*
X43500000Y-30712500D03*
%TD*%
%TO.C,C7*%
X29250000Y-33537500D03*
X29250000Y-31462500D03*
%TD*%
D29*
%TO.C,C12*%
X41462500Y-24500000D03*
X43537500Y-24500000D03*
%TD*%
D30*
%TO.C,R12*%
X37500000Y-56000000D03*
X37500000Y-54000000D03*
%TD*%
D31*
%TO.C,J7*%
X25000000Y-16879600D03*
X36000000Y-16879600D03*
D32*
X33000000Y-21879600D03*
D33*
X28000000Y-21879600D03*
%TD*%
D30*
%TO.C,R11*%
X24600000Y-56379600D03*
X24600000Y-54379600D03*
%TD*%
D23*
%TO.C,H1*%
X18000000Y-18250000D03*
D24*
X18000000Y-18250000D03*
%TD*%
D15*
%TO.C,U4*%
X18440000Y-43158300D03*
X19710000Y-43158300D03*
X20980000Y-43158300D03*
X22250000Y-43158300D03*
X23520000Y-43158300D03*
X24790000Y-43158300D03*
X26060000Y-43158300D03*
D16*
X22250000Y-32278700D03*
%TD*%
D25*
%TO.C,C9*%
X24600000Y-49592100D03*
X24600000Y-51667100D03*
%TD*%
D34*
%TO.C,R10*%
X34300000Y-49629600D03*
X34300000Y-51629600D03*
%TD*%
D35*
%TO.C,C11*%
X19537500Y-24500000D03*
X17462500Y-24500000D03*
%TD*%
D25*
%TO.C,C14*%
X37500000Y-49592100D03*
X37500000Y-51667100D03*
%TD*%
%TO.C,C16*%
X34250000Y-53962500D03*
X34250000Y-56037500D03*
%TD*%
D34*
%TO.C,R9*%
X19550000Y-54250000D03*
X19550000Y-56250000D03*
%TD*%
D25*
%TO.C,C15*%
X21300000Y-49592100D03*
X21300000Y-51667100D03*
%TD*%
D34*
%TO.C,R8*%
X31750000Y-49629600D03*
X31750000Y-51629600D03*
%TD*%
%TO.C,R7*%
X18050000Y-49600000D03*
X18050000Y-51600000D03*
%TD*%
D36*
%TO.C,JP1*%
X45000000Y-49830000D03*
D37*
X45000000Y-47290000D03*
X45000000Y-44750000D03*
%TD*%
D38*
%TO.C,J1*%
X45250000Y-35450000D03*
X45250000Y-42050000D03*
%TD*%
%LPD*%
M02*
