%TF.GenerationSoftware,KiCad,Pcbnew,8.0.2*%
%TF.CreationDate,2024-10-02T19:38:12-04:00*%
%TF.ProjectId,drive_27A,64726976-655f-4323-9741-2e6b69636164,rev?*%
%TF.SameCoordinates,Original*%
%TF.FileFunction,Soldermask,Top*%
%TF.FilePolarity,Negative*%
%FSLAX46Y46*%
G04 Gerber Fmt 4.6, Leading zero omitted, Abs format (unit mm)*
G04 Created by KiCad (PCBNEW 8.0.2) date 2024-10-02 19:38:12*
%MOMM*%
%LPD*%
G01*
G04 APERTURE LIST*
G04 Aperture macros list*
%AMRoundRect*
0 Rectangle with rounded corners*
0 $1 Rounding radius*
0 $2 $3 $4 $5 $6 $7 $8 $9 X,Y pos of 4 corners*
0 Add a 4 corners polygon primitive as box body*
4,1,4,$2,$3,$4,$5,$6,$7,$8,$9,$2,$3,0*
0 Add four circle primitives for the rounded corners*
1,1,$1+$1,$2,$3*
1,1,$1+$1,$4,$5*
1,1,$1+$1,$6,$7*
1,1,$1+$1,$8,$9*
0 Add four rect primitives between the rounded corners*
20,1,$1+$1,$2,$3,$4,$5,0*
20,1,$1+$1,$4,$5,$6,$7,0*
20,1,$1+$1,$6,$7,$8,$9,0*
20,1,$1+$1,$8,$9,$2,$3,0*%
%AMRotRect*
0 Rectangle, with rotation*
0 The origin of the aperture is its center*
0 $1 length*
0 $2 width*
0 $3 Rotation angle, in degrees counterclockwise*
0 Add horizontal line*
21,1,$1,$2,0,0,$3*%
G04 Aperture macros list end*
%ADD10R,0.900000X2.000000*%
%ADD11RoundRect,1.025000X1.025000X1.025000X-1.025000X1.025000X-1.025000X-1.025000X1.025000X-1.025000X0*%
%ADD12C,4.100000*%
%ADD13RoundRect,1.025000X-1.025000X-1.025000X1.025000X-1.025000X1.025000X1.025000X-1.025000X1.025000X0*%
%ADD14R,0.762000X4.683400*%
%ADD15R,10.312400X9.557400*%
%ADD16RotRect,2.400000X2.400000X70.000000*%
%ADD17C,2.400000*%
%ADD18C,3.350000*%
%ADD19RoundRect,0.102000X-0.634000X-0.634000X0.634000X-0.634000X0.634000X0.634000X-0.634000X0.634000X0*%
%ADD20C,1.472000*%
%ADD21RoundRect,0.250000X0.475000X-0.337500X0.475000X0.337500X-0.475000X0.337500X-0.475000X-0.337500X0*%
%ADD22C,3.600000*%
%ADD23C,5.600000*%
%ADD24RoundRect,0.250000X-0.475000X0.337500X-0.475000X-0.337500X0.475000X-0.337500X0.475000X0.337500X0*%
%ADD25RoundRect,0.250000X-0.337500X-0.475000X0.337500X-0.475000X0.337500X0.475000X-0.337500X0.475000X0*%
%ADD26RoundRect,0.250000X0.450000X-0.350000X0.450000X0.350000X-0.450000X0.350000X-0.450000X-0.350000X0*%
%ADD27RoundRect,0.250000X-0.450000X0.350000X-0.450000X-0.350000X0.450000X-0.350000X0.450000X0.350000X0*%
%ADD28RoundRect,0.250000X0.337500X0.475000X-0.337500X0.475000X-0.337500X-0.475000X0.337500X-0.475000X0*%
%ADD29R,1.700000X1.700000*%
%ADD30O,1.700000X1.700000*%
%ADD31O,1.600000X0.900000*%
G04 APERTURE END LIST*
D10*
%TO.C,J6*%
X45500000Y-68750000D03*
X32000000Y-68750000D03*
D11*
X42350000Y-62750000D03*
D12*
X35150000Y-62750000D03*
%TD*%
D10*
%TO.C,J7*%
X23750000Y-16150000D03*
X37250000Y-16150000D03*
D13*
X34100000Y-22150000D03*
D12*
X26900000Y-22150000D03*
%TD*%
D14*
%TO.C,U5*%
X32740000Y-43158300D03*
X34010000Y-43158300D03*
X35280000Y-43158300D03*
X36550000Y-43158300D03*
X37820000Y-43158300D03*
X39090000Y-43158300D03*
X40360000Y-43158300D03*
D15*
X36550000Y-32278700D03*
%TD*%
D16*
%TO.C,C6*%
X42994949Y-57978832D03*
D17*
X44705050Y-53280369D03*
%TD*%
D18*
%TO.C,J2*%
X16609000Y-71350000D03*
X28041000Y-71350000D03*
D19*
X17880000Y-65000000D03*
D20*
X19150000Y-62460000D03*
X20420000Y-65000000D03*
X21690000Y-62460000D03*
X22960000Y-65000000D03*
X24230000Y-62460000D03*
X25500000Y-65000000D03*
X26770000Y-62460000D03*
%TD*%
D21*
%TO.C,C10*%
X29600000Y-46917100D03*
X29600000Y-44842100D03*
%TD*%
D22*
%TO.C,H2*%
X43000000Y-18250000D03*
D23*
X43000000Y-18250000D03*
%TD*%
D24*
%TO.C,C13*%
X29600000Y-40629600D03*
X29600000Y-42704600D03*
%TD*%
D21*
%TO.C,C8*%
X43500000Y-32787500D03*
X43500000Y-30712500D03*
%TD*%
%TO.C,C7*%
X29250000Y-33537500D03*
X29250000Y-31462500D03*
%TD*%
D25*
%TO.C,C12*%
X41462500Y-24500000D03*
X43537500Y-24500000D03*
%TD*%
D26*
%TO.C,R12*%
X37500000Y-56000000D03*
X37500000Y-54000000D03*
%TD*%
%TO.C,R11*%
X24600000Y-56379600D03*
X24600000Y-54379600D03*
%TD*%
D22*
%TO.C,H1*%
X18000000Y-18250000D03*
D23*
X18000000Y-18250000D03*
%TD*%
D14*
%TO.C,U4*%
X18440000Y-43158300D03*
X19710000Y-43158300D03*
X20980000Y-43158300D03*
X22250000Y-43158300D03*
X23520000Y-43158300D03*
X24790000Y-43158300D03*
X26060000Y-43158300D03*
D15*
X22250000Y-32278700D03*
%TD*%
D24*
%TO.C,C9*%
X24600000Y-49592100D03*
X24600000Y-51667100D03*
%TD*%
D27*
%TO.C,R10*%
X34300000Y-49629600D03*
X34300000Y-51629600D03*
%TD*%
D28*
%TO.C,C11*%
X19537500Y-24500000D03*
X17462500Y-24500000D03*
%TD*%
D24*
%TO.C,C14*%
X37500000Y-49592100D03*
X37500000Y-51667100D03*
%TD*%
%TO.C,C16*%
X34250000Y-53962500D03*
X34250000Y-56037500D03*
%TD*%
D27*
%TO.C,R9*%
X19550000Y-54250000D03*
X19550000Y-56250000D03*
%TD*%
D24*
%TO.C,C15*%
X21300000Y-49592100D03*
X21300000Y-51667100D03*
%TD*%
D27*
%TO.C,R8*%
X31750000Y-49629600D03*
X31750000Y-51629600D03*
%TD*%
%TO.C,R7*%
X18050000Y-49600000D03*
X18050000Y-51600000D03*
%TD*%
D29*
%TO.C,JP1*%
X45000000Y-49830000D03*
D30*
X45000000Y-47290000D03*
X45000000Y-44750000D03*
%TD*%
D31*
%TO.C,J1*%
X45250000Y-35450000D03*
X45250000Y-42050000D03*
%TD*%
M02*
