%TF.GenerationSoftware,KiCad,Pcbnew,8.0.3-8.0.3-0~ubuntu22.04.1*%
%TF.CreationDate,2024-06-26T16:43:43-04:00*%
%TF.ProjectId,drive_27A,64726976-655f-4323-9741-2e6b69636164,rev?*%
%TF.SameCoordinates,Original*%
%TF.FileFunction,Copper,L4,Bot*%
%TF.FilePolarity,Positive*%
%FSLAX46Y46*%
G04 Gerber Fmt 4.6, Leading zero omitted, Abs format (unit mm)*
G04 Created by KiCad (PCBNEW 8.0.3-8.0.3-0~ubuntu22.04.1) date 2024-06-26 16:43:43*
%MOMM*%
%LPD*%
G01*
G04 APERTURE LIST*
G04 Aperture macros list*
%AMRoundRect*
0 Rectangle with rounded corners*
0 $1 Rounding radius*
0 $2 $3 $4 $5 $6 $7 $8 $9 X,Y pos of 4 corners*
0 Add a 4 corners polygon primitive as box body*
4,1,4,$2,$3,$4,$5,$6,$7,$8,$9,$2,$3,0*
0 Add four circle primitives for the rounded corners*
1,1,$1+$1,$2,$3*
1,1,$1+$1,$4,$5*
1,1,$1+$1,$6,$7*
1,1,$1+$1,$8,$9*
0 Add four rect primitives between the rounded corners*
20,1,$1+$1,$2,$3,$4,$5,0*
20,1,$1+$1,$4,$5,$6,$7,0*
20,1,$1+$1,$6,$7,$8,$9,0*
20,1,$1+$1,$8,$9,$2,$3,0*%
%AMRotRect*
0 Rectangle, with rotation*
0 The origin of the aperture is its center*
0 $1 length*
0 $2 width*
0 $3 Rotation angle, in degrees counterclockwise*
0 Add horizontal line*
21,1,$1,$2,0,0,$3*%
G04 Aperture macros list end*
%TA.AperFunction,ComponentPad*%
%ADD10RotRect,2.400000X2.400000X70.000000*%
%TD*%
%TA.AperFunction,ComponentPad*%
%ADD11C,2.400000*%
%TD*%
%TA.AperFunction,ComponentPad*%
%ADD12R,1.268000X1.268000*%
%TD*%
%TA.AperFunction,ComponentPad*%
%ADD13C,1.268000*%
%TD*%
%TA.AperFunction,ComponentPad*%
%ADD14C,3.600000*%
%TD*%
%TA.AperFunction,ConnectorPad*%
%ADD15C,5.600000*%
%TD*%
%TA.AperFunction,ComponentPad*%
%ADD16C,1.400000*%
%TD*%
%TA.AperFunction,ComponentPad*%
%ADD17R,3.500000X3.500000*%
%TD*%
%TA.AperFunction,ComponentPad*%
%ADD18C,3.500000*%
%TD*%
%TA.AperFunction,ComponentPad*%
%ADD19C,1.508000*%
%TD*%
%TA.AperFunction,ComponentPad*%
%ADD20R,2.550000X2.550000*%
%TD*%
%TA.AperFunction,ComponentPad*%
%ADD21C,2.550000*%
%TD*%
%TA.AperFunction,SMDPad,CuDef*%
%ADD22R,2.454600X1.549400*%
%TD*%
%TA.AperFunction,SMDPad,CuDef*%
%ADD23R,2.454600X1.524700*%
%TD*%
%TA.AperFunction,SMDPad,CuDef*%
%ADD24RoundRect,0.250000X-0.450000X0.350000X-0.450000X-0.350000X0.450000X-0.350000X0.450000X0.350000X0*%
%TD*%
%TA.AperFunction,SMDPad,CuDef*%
%ADD25RoundRect,0.250000X0.475000X-0.337500X0.475000X0.337500X-0.475000X0.337500X-0.475000X-0.337500X0*%
%TD*%
%TA.AperFunction,SMDPad,CuDef*%
%ADD26RoundRect,0.250000X0.350000X0.450000X-0.350000X0.450000X-0.350000X-0.450000X0.350000X-0.450000X0*%
%TD*%
%TA.AperFunction,SMDPad,CuDef*%
%ADD27RoundRect,0.250000X-0.475000X0.337500X-0.475000X-0.337500X0.475000X-0.337500X0.475000X0.337500X0*%
%TD*%
%TA.AperFunction,SMDPad,CuDef*%
%ADD28RoundRect,0.250000X0.337500X0.475000X-0.337500X0.475000X-0.337500X-0.475000X0.337500X-0.475000X0*%
%TD*%
%TA.AperFunction,SMDPad,CuDef*%
%ADD29RoundRect,0.041300X-0.253700X0.833700X-0.253700X-0.833700X0.253700X-0.833700X0.253700X0.833700X0*%
%TD*%
%TA.AperFunction,SMDPad,CuDef*%
%ADD30RoundRect,0.250000X-0.337500X-0.475000X0.337500X-0.475000X0.337500X0.475000X-0.337500X0.475000X0*%
%TD*%
%TA.AperFunction,SMDPad,CuDef*%
%ADD31R,1.500000X0.900000*%
%TD*%
%TA.AperFunction,SMDPad,CuDef*%
%ADD32R,0.900000X1.500000*%
%TD*%
%TA.AperFunction,SMDPad,CuDef*%
%ADD33R,3.900000X3.900000*%
%TD*%
%TA.AperFunction,ComponentPad*%
%ADD34R,1.700000X1.700000*%
%TD*%
%TA.AperFunction,ComponentPad*%
%ADD35O,1.700000X1.700000*%
%TD*%
%TA.AperFunction,SMDPad,CuDef*%
%ADD36RoundRect,0.250000X-0.350000X-0.450000X0.350000X-0.450000X0.350000X0.450000X-0.350000X0.450000X0*%
%TD*%
%TA.AperFunction,SMDPad,CuDef*%
%ADD37RoundRect,0.250000X0.450000X-0.325000X0.450000X0.325000X-0.450000X0.325000X-0.450000X-0.325000X0*%
%TD*%
%TA.AperFunction,SMDPad,CuDef*%
%ADD38R,2.184400X0.889000*%
%TD*%
%TA.AperFunction,SMDPad,CuDef*%
%ADD39R,5.613400X5.511800*%
%TD*%
%TA.AperFunction,SMDPad,CuDef*%
%ADD40RoundRect,0.250000X0.875000X-0.550000X0.875000X0.550000X-0.875000X0.550000X-0.875000X-0.550000X0*%
%TD*%
%TA.AperFunction,SMDPad,CuDef*%
%ADD41RoundRect,0.250000X2.125000X-0.250000X2.125000X0.250000X-2.125000X0.250000X-2.125000X-0.250000X0*%
%TD*%
%TA.AperFunction,SMDPad,CuDef*%
%ADD42RoundRect,0.150000X-0.150000X1.100000X-0.150000X-1.100000X0.150000X-1.100000X0.150000X1.100000X0*%
%TD*%
%TA.AperFunction,SMDPad,CuDef*%
%ADD43R,0.609600X1.511300*%
%TD*%
%TA.AperFunction,SMDPad,CuDef*%
%ADD44RoundRect,0.100000X-0.900000X0.100000X-0.900000X-0.100000X0.900000X-0.100000X0.900000X0.100000X0*%
%TD*%
%TA.AperFunction,ComponentPad*%
%ADD45O,1.600000X0.900000*%
%TD*%
%TA.AperFunction,SMDPad,CuDef*%
%ADD46RoundRect,0.250000X-0.450000X0.550000X-0.450000X-0.550000X0.450000X-0.550000X0.450000X0.550000X0*%
%TD*%
%TA.AperFunction,SMDPad,CuDef*%
%ADD47RoundRect,0.250000X-0.700000X0.700000X-0.700000X-0.700000X0.700000X-0.700000X0.700000X0.700000X0*%
%TD*%
%TA.AperFunction,ViaPad*%
%ADD48C,0.600000*%
%TD*%
%TA.AperFunction,ViaPad*%
%ADD49C,1.200000*%
%TD*%
%TA.AperFunction,Conductor*%
%ADD50C,0.200000*%
%TD*%
%TA.AperFunction,Conductor*%
%ADD51C,0.500000*%
%TD*%
%TA.AperFunction,Conductor*%
%ADD52C,0.155814*%
%TD*%
G04 APERTURE END LIST*
D10*
%TO.P,C6,1*%
%TO.N,+24V*%
X42994949Y-57978832D03*
D11*
%TO.P,C6,2*%
%TO.N,GND*%
X44705050Y-53280369D03*
%TD*%
D12*
%TO.P,J2,1*%
%TO.N,CANH*%
X19055000Y-61650000D03*
D13*
%TO.P,J2,2*%
%TO.N,CANL*%
X20325000Y-59110000D03*
%TO.P,J2,3*%
%TO.N,unconnected-(J2-Pad3)*%
X21595000Y-61650000D03*
%TO.P,J2,4*%
%TO.N,unconnected-(J2-Pad4)*%
X22865000Y-59110000D03*
%TO.P,J2,5*%
%TO.N,unconnected-(J2-Pad5)*%
X24135000Y-61650000D03*
%TO.P,J2,6*%
%TO.N,unconnected-(J2-Pad6)*%
X25405000Y-59110000D03*
%TO.P,J2,7*%
%TO.N,+5V*%
X26675000Y-61650000D03*
%TO.P,J2,8*%
%TO.N,GND*%
X27945000Y-59110000D03*
%TD*%
D14*
%TO.P,H2,1,1*%
%TO.N,GND*%
X43000000Y-18250000D03*
D15*
X43000000Y-18250000D03*
%TD*%
D16*
%TO.P,J6,*%
%TO.N,*%
X44250000Y-72500000D03*
X33250000Y-72500000D03*
D17*
%TO.P,J6,1,-*%
%TO.N,GND*%
X36250000Y-62500000D03*
D18*
%TO.P,J6,2,+*%
%TO.N,+24V*%
X41250000Y-62500000D03*
%TD*%
D19*
%TO.P,J7,*%
%TO.N,*%
X25000000Y-16879600D03*
X36000000Y-16879600D03*
D20*
%TO.P,J7,1,+*%
%TO.N,J2-*%
X33000000Y-21879600D03*
D21*
%TO.P,J7,2,-*%
%TO.N,J2+*%
X28000000Y-21879600D03*
%TD*%
D14*
%TO.P,H1,1,1*%
%TO.N,GND*%
X18000000Y-18250000D03*
D15*
X18000000Y-18250000D03*
%TD*%
D22*
%TO.P,D3,1*%
%TO.N,Net-(D3-Pad1)*%
X31750600Y-29500000D03*
D23*
%TO.P,D3,2*%
%TO.N,Net-(D3-Pad2)*%
X31750600Y-27412352D03*
D22*
%TO.P,D3,3*%
%TO.N,Net-(D3-Pad3)*%
X31750600Y-25300001D03*
%TO.P,D3,4*%
%TO.N,GND*%
X36796000Y-25300004D03*
%TO.P,D3,5*%
X36796000Y-27400002D03*
%TO.P,D3,6*%
X36796000Y-29500003D03*
%TD*%
D24*
%TO.P,R1,1*%
%TO.N,Net-(D1-A)*%
X39000000Y-17500000D03*
%TO.P,R1,2*%
%TO.N,LED_BUILDIN*%
X39000000Y-19500000D03*
%TD*%
D25*
%TO.P,C18,1*%
%TO.N,+3.3V*%
X37000000Y-34287500D03*
%TO.P,C18,2*%
%TO.N,GND*%
X37000000Y-32212500D03*
%TD*%
D26*
%TO.P,R5,1*%
%TO.N,Net-(D3-Pad2)*%
X28750000Y-27500000D03*
%TO.P,R5,2*%
%TO.N,LED_G*%
X26750000Y-27500000D03*
%TD*%
D27*
%TO.P,C3,1*%
%TO.N,+3.3V*%
X32750000Y-61712500D03*
%TO.P,C3,2*%
%TO.N,GND*%
X32750000Y-63787500D03*
%TD*%
D28*
%TO.P,C1,1*%
%TO.N,GND*%
X31537500Y-19000000D03*
%TO.P,C1,2*%
%TO.N,EN_PB*%
X29462500Y-19000000D03*
%TD*%
D29*
%TO.P,U2,1,TXD*%
%TO.N,RXC*%
X21595000Y-64915000D03*
%TO.P,U2,2,GND*%
%TO.N,GND*%
X22865000Y-64915000D03*
%TO.P,U2,3,VCC*%
%TO.N,+3.3V*%
X24135000Y-64915000D03*
%TO.P,U2,4,RXD*%
%TO.N,TXC*%
X25405000Y-64915000D03*
%TO.P,U2,5,VREF*%
%TO.N,unconnected-(U2-VREF-Pad5)*%
X25405000Y-70085000D03*
%TO.P,U2,6,CANL*%
%TO.N,CANL*%
X24135000Y-70085000D03*
%TO.P,U2,7,CANH*%
%TO.N,CANH*%
X22865000Y-70085000D03*
%TO.P,U2,8,S*%
%TO.N,GND*%
X21595000Y-70085000D03*
%TD*%
D27*
%TO.P,C20,1*%
%TO.N,GND*%
X17000000Y-58712500D03*
%TO.P,C20,2*%
%TO.N,Net-(C20-Pad2)*%
X17000000Y-60787500D03*
%TD*%
D30*
%TO.P,C19,1*%
%TO.N,EN_PB*%
X29462500Y-16879600D03*
%TO.P,C19,2*%
%TO.N,GND*%
X31537500Y-16879600D03*
%TD*%
D31*
%TO.P,U6,1,GND*%
%TO.N,GND*%
X34650000Y-33130000D03*
%TO.P,U6,2,3V3*%
%TO.N,+3.3V*%
X34650000Y-34400000D03*
%TO.P,U6,3,EN*%
%TO.N,EN_PB*%
X34650000Y-35670000D03*
%TO.P,U6,4,IO4*%
%TO.N,unconnected-(U6-IO4-Pad4)*%
X34650000Y-36940000D03*
%TO.P,U6,5,IO5*%
%TO.N,unconnected-(U6-IO5-Pad5)*%
X34650000Y-38210000D03*
%TO.P,U6,6,IO6*%
%TO.N,unconnected-(U6-IO6-Pad6)*%
X34650000Y-39480000D03*
%TO.P,U6,7,IO7*%
%TO.N,unconnected-(U6-IO7-Pad7)*%
X34650000Y-40750000D03*
%TO.P,U6,8,IO15*%
%TO.N,unconnected-(U6-IO15-Pad8)*%
X34650000Y-42020000D03*
%TO.P,U6,9,IO16*%
%TO.N,J2_EN_2*%
X34650000Y-43290000D03*
%TO.P,U6,10,IO17*%
%TO.N,ENC_QUAD_B*%
X34650000Y-44560000D03*
%TO.P,U6,11,IO18*%
%TO.N,ENC_QUAD_A*%
X34650000Y-45830000D03*
%TO.P,U6,12,IO8*%
%TO.N,J2_EN_1*%
X34650000Y-47100000D03*
%TO.P,U6,13,IO19*%
%TO.N,USB_N*%
X34650000Y-48370000D03*
%TO.P,U6,14,IO20*%
%TO.N,USB_P*%
X34650000Y-49640000D03*
D32*
%TO.P,U6,15,IO3*%
%TO.N,LED_R*%
X32885000Y-50890000D03*
%TO.P,U6,16,IO46*%
%TO.N,unconnected-(U6-IO46-Pad16)*%
X31615000Y-50890000D03*
%TO.P,U6,17,IO9*%
%TO.N,LED_G*%
X30345000Y-50890000D03*
%TO.P,U6,18,IO10*%
%TO.N,LED_B*%
X29075000Y-50890000D03*
%TO.P,U6,19,IO11*%
%TO.N,unconnected-(U6-IO11-Pad19)*%
X27805000Y-50890000D03*
%TO.P,U6,20,IO12*%
%TO.N,unconnected-(U6-IO12-Pad20)*%
X26535000Y-50890000D03*
%TO.P,U6,21,IO13*%
%TO.N,unconnected-(U6-IO13-Pad21)*%
X25265000Y-50890000D03*
%TO.P,U6,22,IO14*%
%TO.N,unconnected-(U6-IO14-Pad22)*%
X23995000Y-50890000D03*
%TO.P,U6,23,IO21*%
%TO.N,J2_IN_1*%
X22725000Y-50890000D03*
%TO.P,U6,24,IO47*%
%TO.N,RXC*%
X21455000Y-50890000D03*
%TO.P,U6,25,IO48*%
%TO.N,TXC*%
X20185000Y-50890000D03*
%TO.P,U6,26,IO45*%
%TO.N,unconnected-(U6-IO45-Pad26)*%
X18915000Y-50890000D03*
D31*
%TO.P,U6,27,IO0*%
%TO.N,GPIO_0*%
X17150000Y-49640000D03*
%TO.P,U6,28,IO35*%
%TO.N,unconnected-(U6-IO35-Pad28)*%
X17150000Y-48370000D03*
%TO.P,U6,29,IO36*%
%TO.N,unconnected-(U6-IO36-Pad29)*%
X17150000Y-47100000D03*
%TO.P,U6,30,IO37*%
%TO.N,unconnected-(U6-IO37-Pad30)*%
X17150000Y-45830000D03*
%TO.P,U6,31,IO38*%
%TO.N,J2_IN_2*%
X17150000Y-44560000D03*
%TO.P,U6,32,IO39*%
%TO.N,unconnected-(U6-IO39-Pad32)*%
X17150000Y-43290000D03*
%TO.P,U6,33,IO40*%
%TO.N,unconnected-(U6-IO40-Pad33)*%
X17150000Y-42020000D03*
%TO.P,U6,34,IO41*%
%TO.N,unconnected-(U6-IO41-Pad34)*%
X17150000Y-40750000D03*
%TO.P,U6,35,IO42*%
%TO.N,unconnected-(U6-IO42-Pad35)*%
X17150000Y-39480000D03*
%TO.P,U6,36,RXD0*%
%TO.N,unconnected-(U6-RXD0-Pad36)*%
X17150000Y-38210000D03*
%TO.P,U6,37,TXD0*%
%TO.N,unconnected-(U6-TXD0-Pad37)*%
X17150000Y-36940000D03*
%TO.P,U6,38,IO2*%
%TO.N,LED_BUILDIN*%
X17150000Y-35670000D03*
%TO.P,U6,39,IO1*%
%TO.N,unconnected-(U6-IO1-Pad39)*%
X17150000Y-34400000D03*
%TO.P,U6,40,GND*%
%TO.N,GND*%
X17150000Y-33130000D03*
D33*
%TO.P,U6,41,GND*%
X27400000Y-40850000D03*
%TD*%
D34*
%TO.P,JP1,1,A*%
%TO.N,+24V*%
X45000000Y-49830000D03*
D35*
%TO.P,JP1,2,C*%
%TO.N,Net-(JP1-C)*%
X45000000Y-47290000D03*
%TO.P,JP1,3,B*%
%TO.N,+5V*%
X45000000Y-44750000D03*
%TD*%
D36*
%TO.P,R3,1*%
%TO.N,Net-(C20-Pad2)*%
X17000000Y-64250000D03*
%TO.P,R3,2*%
%TO.N,CANH*%
X19000000Y-64250000D03*
%TD*%
D37*
%TO.P,D1,1,K*%
%TO.N,GND*%
X36500000Y-22525000D03*
%TO.P,D1,2,A*%
%TO.N,Net-(D1-A)*%
X36500000Y-20475000D03*
%TD*%
D25*
%TO.P,C2,1*%
%TO.N,GND*%
X22250000Y-56537500D03*
%TO.P,C2,2*%
%TO.N,GPIO_0*%
X22250000Y-54462500D03*
%TD*%
D38*
%TO.P,U3,1,GND*%
%TO.N,GND*%
X32906600Y-70572000D03*
D39*
%TO.P,U3,2,OUTPUT*%
%TO.N,+3.3V*%
X39828100Y-68286000D03*
D38*
%TO.P,U3,3,INPUT*%
%TO.N,Net-(JP1-C)*%
X32906600Y-66000000D03*
%TD*%
D26*
%TO.P,R6,1*%
%TO.N,Net-(D3-Pad1)*%
X28750000Y-30250000D03*
%TO.P,R6,2*%
%TO.N,LED_R*%
X26750000Y-30250000D03*
%TD*%
D27*
%TO.P,C5,1*%
%TO.N,Net-(JP1-C)*%
X44250000Y-66962500D03*
%TO.P,C5,2*%
%TO.N,GND*%
X44250000Y-69037500D03*
%TD*%
D26*
%TO.P,R14,1*%
%TO.N,Net-(D3-Pad3)*%
X28750000Y-24500000D03*
%TO.P,R14,2*%
%TO.N,LED_B*%
X26750000Y-24500000D03*
%TD*%
D40*
%TO.P,J9,*%
%TO.N,*%
X45125000Y-32900000D03*
X45125000Y-22100000D03*
D41*
%TO.P,J9,1*%
%TO.N,+3.3V*%
X42875000Y-30500000D03*
%TO.P,J9,2*%
%TO.N,GND*%
X42875000Y-28500000D03*
%TO.P,J9,3*%
%TO.N,ENC_QUAD_A*%
X42875000Y-26500000D03*
%TO.P,J9,4*%
%TO.N,ENC_QUAD_B*%
X42875000Y-24500000D03*
%TD*%
D42*
%TO.P,U1,1*%
%TO.N,+5V*%
X37095000Y-45000000D03*
%TO.P,U1,2*%
%TO.N,USB_N*%
X38365000Y-45000000D03*
%TO.P,U1,3*%
%TO.N,USB_P*%
X39635000Y-45000000D03*
%TO.P,U1,4*%
%TO.N,unconnected-(U1-Pad4)*%
X40905000Y-45000000D03*
%TO.P,U1,5*%
%TO.N,GND*%
X40905000Y-50500000D03*
%TO.P,U1,6*%
X39635000Y-50500000D03*
%TO.P,U1,7*%
X38365000Y-50500000D03*
%TO.P,U1,8*%
X37095000Y-50500000D03*
%TD*%
D43*
%TO.P,SW2,1*%
%TO.N,GND*%
X23000000Y-22696350D03*
%TO.P,SW2,2*%
%TO.N,GPIO_0*%
X23000000Y-30303650D03*
%TD*%
D27*
%TO.P,C4,1*%
%TO.N,+3.3V*%
X29250000Y-61712500D03*
%TO.P,C4,2*%
%TO.N,GND*%
X29250000Y-63787500D03*
%TD*%
D26*
%TO.P,R4,1*%
%TO.N,CANL*%
X19000000Y-55750000D03*
%TO.P,R4,2*%
%TO.N,Net-(C20-Pad2)*%
X17000000Y-55750000D03*
%TD*%
D25*
%TO.P,C17,1*%
%TO.N,+3.3V*%
X37000000Y-38537500D03*
%TO.P,C17,2*%
%TO.N,GND*%
X37000000Y-36462500D03*
%TD*%
D24*
%TO.P,R2,1*%
%TO.N,Net-(D2-A)*%
X40250000Y-55500000D03*
%TO.P,R2,2*%
%TO.N,+3.3V*%
X40250000Y-57500000D03*
%TD*%
D43*
%TO.P,SW1,1*%
%TO.N,GND*%
X18250000Y-22696350D03*
%TO.P,SW1,2*%
%TO.N,EN_PB*%
X18250000Y-30303650D03*
%TD*%
D44*
%TO.P,J1,1,VBUS*%
%TO.N,+5V*%
X42250000Y-37450000D03*
%TO.P,J1,2,D-*%
%TO.N,USB_N*%
X42250000Y-38100000D03*
%TO.P,J1,3,D+*%
%TO.N,USB_P*%
X42250000Y-38750000D03*
%TO.P,J1,4,ID*%
%TO.N,unconnected-(J1-ID-Pad4)*%
X42250000Y-39400000D03*
%TO.P,J1,5,GND*%
%TO.N,GND*%
X42250000Y-40050000D03*
D45*
%TO.P,J1,6,Shield*%
X45250000Y-35450000D03*
D46*
X42800000Y-35550000D03*
D47*
X45250000Y-37550000D03*
X45250000Y-39950000D03*
D46*
X42800000Y-41950000D03*
D45*
X45250000Y-42050000D03*
%TD*%
D37*
%TO.P,D2,1,K*%
%TO.N,GND*%
X37000000Y-57525000D03*
%TO.P,D2,2,A*%
%TO.N,Net-(D2-A)*%
X37000000Y-55475000D03*
%TD*%
D26*
%TO.P,R13,1*%
%TO.N,+3.3V*%
X24000000Y-19500000D03*
%TO.P,R13,2*%
%TO.N,EN_PB*%
X22000000Y-19500000D03*
%TD*%
D48*
%TO.N,EN_PB*%
X28000000Y-17000000D03*
X30500000Y-20250000D03*
%TO.N,GND*%
X31600000Y-42750000D03*
X18500000Y-41000000D03*
X18500000Y-42750000D03*
X18500000Y-44500000D03*
X19750000Y-70000000D03*
X23250000Y-67000000D03*
X32750000Y-41000000D03*
X33000000Y-19750000D03*
X31600000Y-44500000D03*
X31600000Y-46500000D03*
X23250000Y-48750000D03*
X32750000Y-46500000D03*
X29750000Y-65500000D03*
X32750000Y-42750000D03*
X20676514Y-55566865D03*
X18500000Y-46500000D03*
X17000000Y-57250000D03*
X32000000Y-68750000D03*
X18500000Y-48250000D03*
X28500000Y-65500000D03*
X35800000Y-55250000D03*
X24250000Y-68000000D03*
X45750000Y-27750000D03*
X32750000Y-44500000D03*
X30500000Y-70000000D03*
X31600000Y-41000000D03*
X36000000Y-37557402D03*
%TO.N,GPIO_0*%
X19110000Y-47250000D03*
X23250000Y-26999998D03*
%TO.N,+5V*%
X37095000Y-46845000D03*
%TO.N,+3.3V*%
X41500000Y-69000000D03*
X41500000Y-68000000D03*
X41500000Y-70000000D03*
X41500000Y-66000000D03*
X37750000Y-66000000D03*
X37750000Y-68000000D03*
X40250000Y-68000000D03*
X40250000Y-66000000D03*
X41500000Y-67000000D03*
X37750000Y-67000000D03*
X40250000Y-67000000D03*
X30750000Y-33500000D03*
X39000000Y-70000000D03*
X24875000Y-66625000D03*
X39000000Y-69000000D03*
X39000000Y-66000000D03*
X25500000Y-19750000D03*
X32750000Y-60250000D03*
X39000000Y-68000000D03*
X37750000Y-69000000D03*
X40250000Y-69000000D03*
X37750000Y-70000000D03*
X39000000Y-67000000D03*
X40250000Y-70000000D03*
X45750000Y-29500000D03*
%TO.N,J2_IN_1*%
X20310000Y-47750000D03*
%TO.N,J2_IN_2*%
X29400000Y-48500000D03*
%TO.N,J2_EN_1*%
X26850000Y-57129600D03*
X35500000Y-52750000D03*
X36000000Y-47500000D03*
%TO.N,J2_EN_2*%
X33014065Y-48514065D03*
%TO.N,TXC*%
X20750000Y-53000000D03*
X23106765Y-52643235D03*
D49*
%TO.N,Net-(JP1-C)*%
X34750000Y-68000000D03*
X45000000Y-64250000D03*
%TD*%
D50*
%TO.N,EN_PB*%
X34250000Y-30000000D02*
X34250000Y-25000000D01*
X34650000Y-35670000D02*
X32071471Y-35670000D01*
X15500000Y-29500000D02*
X15500000Y-23000000D01*
X30500000Y-20037500D02*
X29462500Y-19000000D01*
X16303650Y-30303650D02*
X15500000Y-29500000D01*
X30150000Y-33251471D02*
X32401471Y-31000000D01*
X17150000Y-21350000D02*
X20150000Y-21350000D01*
X33250000Y-31000000D02*
X34250000Y-30000000D01*
X32401471Y-31000000D02*
X33250000Y-31000000D01*
X26500000Y-18500000D02*
X28000000Y-17000000D01*
X15500000Y-23000000D02*
X17150000Y-21350000D01*
X30150000Y-33748529D02*
X30150000Y-33251471D01*
X20150000Y-21350000D02*
X22000000Y-19500000D01*
X31750000Y-23750000D02*
X30500000Y-22500000D01*
X30500000Y-22500000D02*
X30500000Y-20250000D01*
X18250000Y-30303650D02*
X16303650Y-30303650D01*
X30500000Y-20250000D02*
X30500000Y-20037500D01*
X28120400Y-16879600D02*
X29462500Y-16879600D01*
X34250000Y-25000000D02*
X33000000Y-23750000D01*
X28000000Y-17000000D02*
X28120400Y-16879600D01*
X22000000Y-19500000D02*
X23000000Y-18500000D01*
X23000000Y-18500000D02*
X26500000Y-18500000D01*
X32071471Y-35670000D02*
X30150000Y-33748529D01*
X33000000Y-23750000D02*
X31750000Y-23750000D01*
%TO.N,GND*%
X22250000Y-56537500D02*
X21647149Y-56537500D01*
X32750000Y-63787500D02*
X34962500Y-63787500D01*
X45750000Y-27750000D02*
X43625000Y-27750000D01*
X17000000Y-58712500D02*
X17000000Y-57250000D01*
X37000000Y-36462500D02*
X37000000Y-36557402D01*
X21647149Y-56537500D02*
X20676514Y-55566865D01*
X41750000Y-28500000D02*
X42875000Y-28500000D01*
X42250000Y-40050000D02*
X45150000Y-40050000D01*
X37000000Y-36557402D02*
X36000000Y-37557402D01*
X43625000Y-27750000D02*
X42875000Y-28500000D01*
X45150000Y-40050000D02*
X45250000Y-39950000D01*
X31537500Y-19000000D02*
X32250000Y-19000000D01*
X34962500Y-63787500D02*
X36250000Y-62500000D01*
X32250000Y-19000000D02*
X33000000Y-19750000D01*
%TO.N,GPIO_0*%
X23000000Y-27249998D02*
X23250000Y-26999998D01*
X19110000Y-48488529D02*
X19110000Y-47250000D01*
X17150000Y-49640000D02*
X17150000Y-50925000D01*
X17150000Y-49640000D02*
X17958529Y-49640000D01*
X20687500Y-54462500D02*
X22250000Y-54462500D01*
X17958529Y-49640000D02*
X19110000Y-48488529D01*
X23000000Y-29553650D02*
X23000000Y-27249998D01*
X17150000Y-50925000D02*
X20687500Y-54462500D01*
D51*
%TO.N,+5V*%
X37095000Y-46845000D02*
X37095000Y-45000000D01*
X37095000Y-43655000D02*
X38250000Y-42500000D01*
X42250000Y-37450000D02*
X40550000Y-37450000D01*
X37095000Y-45000000D02*
X37095000Y-43655000D01*
X40550000Y-37450000D02*
X39567986Y-38432014D01*
X39567986Y-41182014D02*
X38250000Y-42500000D01*
X39567986Y-38432014D02*
X39567986Y-41182014D01*
D50*
%TO.N,+3.3V*%
X32750000Y-61712500D02*
X29250000Y-61712500D01*
X24875000Y-66625000D02*
X24135000Y-65885000D01*
X38750000Y-59000000D02*
X38750000Y-67106300D01*
X25250000Y-19500000D02*
X25500000Y-19750000D01*
X45750000Y-29500000D02*
X43875000Y-29500000D01*
X34650000Y-34400000D02*
X36887500Y-34400000D01*
X31650000Y-34400000D02*
X34650000Y-34400000D01*
X38750000Y-67106300D02*
X39929700Y-68286000D01*
X36887500Y-34400000D02*
X37000000Y-34287500D01*
X24135000Y-65885000D02*
X24135000Y-64915000D01*
X43875000Y-29500000D02*
X42875000Y-30500000D01*
X40250000Y-57500000D02*
X38750000Y-59000000D01*
X37000000Y-34287500D02*
X38025000Y-35312500D01*
X38025000Y-37512500D02*
X37000000Y-38537500D01*
X30750000Y-33500000D02*
X31650000Y-34400000D01*
X38025000Y-35312500D02*
X38025000Y-37512500D01*
X24000000Y-19500000D02*
X25250000Y-19500000D01*
X32750000Y-61712500D02*
X32750000Y-60250000D01*
%TO.N,Net-(D1-A)*%
X36500000Y-20475000D02*
X36500000Y-20000000D01*
X36500000Y-20000000D02*
X39000000Y-17500000D01*
%TO.N,Net-(D2-A)*%
X40225000Y-55475000D02*
X40250000Y-55500000D01*
X37000000Y-55475000D02*
X40225000Y-55475000D01*
%TO.N,Net-(D3-Pad1)*%
X28750000Y-30250000D02*
X31000600Y-30250000D01*
X31000600Y-30250000D02*
X31750600Y-29500000D01*
%TO.N,LED_B*%
X24750000Y-26500000D02*
X26750000Y-24500000D01*
X30000000Y-37750000D02*
X24750000Y-32500000D01*
X30000000Y-49015000D02*
X30000000Y-37750000D01*
X29075000Y-49940000D02*
X30000000Y-49015000D01*
X29075000Y-50890000D02*
X29075000Y-49940000D01*
X24750000Y-32500000D02*
X24750000Y-26500000D01*
%TO.N,LED_G*%
X30500000Y-37500000D02*
X25250000Y-32250000D01*
X26000000Y-27500000D02*
X26750000Y-27500000D01*
X30500000Y-49080686D02*
X30500000Y-37500000D01*
X25250000Y-28250000D02*
X26000000Y-27500000D01*
X30345000Y-49235686D02*
X30500000Y-49080686D01*
X30345000Y-50890000D02*
X30345000Y-49235686D01*
X25250000Y-32250000D02*
X25250000Y-28250000D01*
D52*
%TO.N,USB_P*%
X42250000Y-38750000D02*
X42079108Y-38579108D01*
X37063835Y-47904107D02*
X38313835Y-47904107D01*
X42079108Y-38579108D02*
X41388834Y-38579108D01*
X40404107Y-42063835D02*
X39154107Y-43313835D01*
X34650000Y-49640000D02*
X34950000Y-49640000D01*
X41388834Y-38579108D02*
X40404107Y-39563835D01*
X38313835Y-47904107D02*
X39154107Y-47063835D01*
X34950000Y-49640000D02*
X35430893Y-49159107D01*
X39635000Y-45950000D02*
X39635000Y-45000000D01*
X39154107Y-43313835D02*
X39154107Y-43569107D01*
X39154107Y-46430893D02*
X39635000Y-45950000D01*
X35430893Y-49159107D02*
X35808835Y-49159107D01*
X39635000Y-44050000D02*
X39635000Y-45000000D01*
X39154107Y-47063835D02*
X39154107Y-46430893D01*
X39154107Y-43569107D02*
X39635000Y-44050000D01*
X35808835Y-49159107D02*
X37063835Y-47904107D01*
X40404107Y-39563835D02*
X40404107Y-42063835D01*
%TO.N,USB_N*%
X41019693Y-38510411D02*
X41019693Y-38512365D01*
X42079108Y-38270892D02*
X41259212Y-38270892D01*
X42250000Y-38100000D02*
X42079108Y-38270892D01*
X34650000Y-48370000D02*
X34950000Y-48370000D01*
X34950000Y-48370000D02*
X35430893Y-48850893D01*
X35681165Y-48850893D02*
X36936165Y-47595893D01*
X36936165Y-47595893D02*
X38186165Y-47595893D01*
X38845893Y-43569107D02*
X38365000Y-44050000D01*
X35430893Y-48850893D02*
X35681165Y-48850893D01*
X40095893Y-39436165D02*
X40095893Y-41936165D01*
X41019693Y-38512365D02*
X40095893Y-39436165D01*
X38845893Y-46430893D02*
X38365000Y-45950000D01*
X41259212Y-38270892D02*
X41019693Y-38510411D01*
X38845893Y-46936165D02*
X38845893Y-46430893D01*
X38186165Y-47595893D02*
X38845893Y-46936165D01*
X38845893Y-43186165D02*
X38845893Y-43569107D01*
X38365000Y-45950000D02*
X38365000Y-45000000D01*
X40095893Y-41936165D02*
X38845893Y-43186165D01*
X38365000Y-44050000D02*
X38365000Y-45000000D01*
D50*
%TO.N,CANH*%
X22865000Y-70085000D02*
X22865000Y-69365000D01*
X19000000Y-65500000D02*
X19000000Y-64250000D01*
X22865000Y-69365000D02*
X19000000Y-65500000D01*
X19000000Y-64250000D02*
X19000000Y-61705000D01*
X19000000Y-61705000D02*
X19055000Y-61650000D01*
%TO.N,CANL*%
X20325000Y-65825000D02*
X20325000Y-59110000D01*
X19000000Y-57785000D02*
X20325000Y-59110000D01*
X24135000Y-69635000D02*
X20325000Y-65825000D01*
X19000000Y-55750000D02*
X19000000Y-57785000D01*
X24135000Y-70085000D02*
X24135000Y-69635000D01*
%TO.N,ENC_QUAD_A*%
X39750000Y-37472182D02*
X39017986Y-38204196D01*
X42875000Y-26500000D02*
X40500000Y-26500000D01*
X35600000Y-45830000D02*
X34650000Y-45830000D01*
X39017986Y-40954196D02*
X36495000Y-43477182D01*
X39750000Y-27250000D02*
X39750000Y-37472182D01*
X39017986Y-38204196D02*
X39017986Y-40954196D01*
X36495000Y-43477182D02*
X36495000Y-44935000D01*
X40500000Y-26500000D02*
X39750000Y-27250000D01*
X36495000Y-44935000D02*
X35600000Y-45830000D01*
%TO.N,ENC_QUAD_B*%
X35850000Y-44310000D02*
X35850000Y-43556497D01*
X39250000Y-25750000D02*
X40500000Y-24500000D01*
X38617986Y-40788511D02*
X38617986Y-38038510D01*
X35850000Y-43556497D02*
X38617986Y-40788511D01*
X34650000Y-44560000D02*
X35600000Y-44560000D01*
X40500000Y-24500000D02*
X42875000Y-24500000D01*
X35600000Y-44560000D02*
X35850000Y-44310000D01*
X39250000Y-37406496D02*
X39250000Y-25750000D01*
X38617986Y-38038510D02*
X39250000Y-37406496D01*
%TO.N,LED_BUILDIN*%
X32245400Y-17975000D02*
X28890256Y-17975000D01*
X25000000Y-23750000D02*
X24250000Y-24500000D01*
X24250000Y-24500000D02*
X24250000Y-31250000D01*
X39000000Y-19500000D02*
X39000000Y-20100000D01*
X19830000Y-35670000D02*
X17150000Y-35670000D01*
X25000000Y-21865256D02*
X25000000Y-23750000D01*
X35920400Y-21650000D02*
X32245400Y-17975000D01*
X37450000Y-21650000D02*
X35920400Y-21650000D01*
X39000000Y-20100000D02*
X37450000Y-21650000D01*
X24250000Y-31250000D02*
X19830000Y-35670000D01*
X28890256Y-17975000D02*
X25000000Y-21865256D01*
%TO.N,LED_R*%
X32885000Y-50890000D02*
X32365000Y-50370000D01*
X31000000Y-37250000D02*
X26750000Y-33000000D01*
X32365000Y-50370000D02*
X32365000Y-49840000D01*
X31000000Y-48475000D02*
X31000000Y-37250000D01*
X32365000Y-49840000D02*
X31000000Y-48475000D01*
X26750000Y-33000000D02*
X26750000Y-30250000D01*
%TO.N,J2_IN_1*%
X22725000Y-50165000D02*
X22725000Y-50890000D01*
X20310000Y-47750000D02*
X22725000Y-50165000D01*
%TO.N,J2_IN_2*%
X29400000Y-48500000D02*
X28400000Y-47500000D01*
X19901471Y-46750000D02*
X17711471Y-44560000D01*
X17711471Y-44560000D02*
X17150000Y-44560000D01*
X22000000Y-47500000D02*
X21250000Y-46750000D01*
X21250000Y-46750000D02*
X19901471Y-46750000D01*
X28400000Y-47500000D02*
X22000000Y-47500000D01*
%TO.N,J2_EN_1*%
X36000000Y-47500000D02*
X35600000Y-47100000D01*
X35600000Y-47100000D02*
X34650000Y-47100000D01*
%TO.N,J2_EN_2*%
X33350000Y-48178130D02*
X33350000Y-43640000D01*
X33700000Y-43290000D02*
X34650000Y-43290000D01*
X33350000Y-43640000D02*
X33700000Y-43290000D01*
X33014065Y-48514065D02*
X33350000Y-48178130D01*
%TO.N,RXC*%
X21455000Y-50890000D02*
X21455000Y-51840000D01*
X22750000Y-61250000D02*
X22750000Y-62885001D01*
X22750000Y-62885001D02*
X21595000Y-64040001D01*
X21595000Y-64040001D02*
X21595000Y-64915000D01*
X24350000Y-54735000D02*
X24350000Y-58278438D01*
X21455000Y-51840000D02*
X24350000Y-54735000D01*
X24071000Y-59929000D02*
X22750000Y-61250000D01*
X24350000Y-58278438D02*
X24071000Y-58557438D01*
X24071000Y-58557438D02*
X24071000Y-59929000D01*
%TO.N,TXC*%
X24750000Y-54286470D02*
X24750000Y-58444124D01*
X20185000Y-52435000D02*
X20185000Y-50890000D01*
X20750000Y-53000000D02*
X20185000Y-52435000D01*
X24471000Y-60068062D02*
X25405000Y-61002062D01*
X23106765Y-52643235D02*
X24750000Y-54286470D01*
X25405000Y-61002062D02*
X25405000Y-64915000D01*
X24750000Y-58444124D02*
X24471000Y-58723124D01*
X24471000Y-58723124D02*
X24471000Y-60068062D01*
%TO.N,Net-(C20-Pad2)*%
X17000000Y-55750000D02*
X18250000Y-57000000D01*
X18250000Y-59537500D02*
X17000000Y-60787500D01*
X18250000Y-57000000D02*
X18250000Y-59537500D01*
X17000000Y-60787500D02*
X17000000Y-64250000D01*
%TO.N,Net-(D3-Pad3)*%
X28750000Y-24500000D02*
X30950599Y-24500000D01*
X30950599Y-24500000D02*
X31750600Y-25300001D01*
%TO.N,Net-(D3-Pad2)*%
X31750600Y-27412352D02*
X28837648Y-27412352D01*
X28837648Y-27412352D02*
X28750000Y-27500000D01*
D51*
%TO.N,Net-(JP1-C)*%
X44250000Y-66962500D02*
X44250000Y-65000000D01*
X44250000Y-65000000D02*
X45000000Y-64250000D01*
X32855800Y-66000000D02*
X32855800Y-66105800D01*
X32855800Y-66105800D02*
X34750000Y-68000000D01*
X45000000Y-46750000D02*
X45000000Y-47290000D01*
%TD*%
%TA.AperFunction,Conductor*%
%TO.N,GND*%
G36*
X25048888Y-20414992D02*
G01*
X25071525Y-20426179D01*
X25099079Y-20443493D01*
X25150479Y-20475790D01*
X25252931Y-20511640D01*
X25309707Y-20552361D01*
X25335454Y-20617314D01*
X25321998Y-20685876D01*
X25299657Y-20716362D01*
X24631286Y-21384734D01*
X24519481Y-21496538D01*
X24519479Y-21496541D01*
X24480905Y-21563355D01*
X24480904Y-21563357D01*
X24440423Y-21633470D01*
X24431537Y-21666633D01*
X24399499Y-21786199D01*
X24399499Y-21786201D01*
X24399499Y-21954302D01*
X24399500Y-21954315D01*
X24399500Y-23449902D01*
X24379815Y-23516941D01*
X24363181Y-23537583D01*
X23769481Y-24131282D01*
X23769477Y-24131287D01*
X23729812Y-24199991D01*
X23690424Y-24268211D01*
X23690423Y-24268212D01*
X23665868Y-24359851D01*
X23649499Y-24420943D01*
X23649499Y-24420945D01*
X23649499Y-24589046D01*
X23649500Y-24589059D01*
X23649500Y-26116934D01*
X23629815Y-26183973D01*
X23577011Y-26229728D01*
X23507853Y-26239672D01*
X23484547Y-26233976D01*
X23429260Y-26214631D01*
X23429249Y-26214628D01*
X23250004Y-26194433D01*
X23249996Y-26194433D01*
X23070750Y-26214628D01*
X23070745Y-26214629D01*
X22900476Y-26274209D01*
X22747737Y-26370182D01*
X22620184Y-26497735D01*
X22524211Y-26650474D01*
X22464631Y-26820743D01*
X22464630Y-26820747D01*
X22444844Y-26996360D01*
X22441399Y-27014569D01*
X22399499Y-27170941D01*
X22399499Y-27343488D01*
X22399500Y-27343497D01*
X22399500Y-29082086D01*
X22379815Y-29149125D01*
X22349814Y-29181350D01*
X22337655Y-29190452D01*
X22337652Y-29190455D01*
X22251406Y-29305664D01*
X22251402Y-29305671D01*
X22201108Y-29440517D01*
X22196792Y-29480666D01*
X22194701Y-29500123D01*
X22194700Y-29500135D01*
X22194700Y-31107170D01*
X22194701Y-31107176D01*
X22201108Y-31166783D01*
X22251402Y-31301628D01*
X22251406Y-31301635D01*
X22337652Y-31416844D01*
X22337655Y-31416847D01*
X22452864Y-31503093D01*
X22452871Y-31503097D01*
X22479235Y-31512930D01*
X22587717Y-31553391D01*
X22647327Y-31559800D01*
X22791603Y-31559799D01*
X22858641Y-31579483D01*
X22904396Y-31632287D01*
X22914340Y-31701445D01*
X22885315Y-31765001D01*
X22879283Y-31771480D01*
X19617584Y-35033181D01*
X19556261Y-35066666D01*
X19529903Y-35069500D01*
X18520094Y-35069500D01*
X18453055Y-35049815D01*
X18407300Y-34997011D01*
X18396804Y-34932246D01*
X18397853Y-34922489D01*
X18400500Y-34897873D01*
X18400499Y-33902128D01*
X18394091Y-33842517D01*
X18381073Y-33807616D01*
X18376090Y-33737926D01*
X18381075Y-33720949D01*
X18393597Y-33687375D01*
X18393598Y-33687372D01*
X18399999Y-33627844D01*
X18400000Y-33627827D01*
X18400000Y-33580000D01*
X18282182Y-33580000D01*
X18215143Y-33560315D01*
X18207871Y-33555267D01*
X18142331Y-33506204D01*
X18142328Y-33506202D01*
X18007482Y-33455908D01*
X18007483Y-33455908D01*
X17947883Y-33449501D01*
X17947881Y-33449500D01*
X17947873Y-33449500D01*
X17947864Y-33449500D01*
X16352129Y-33449500D01*
X16352123Y-33449501D01*
X16292516Y-33455908D01*
X16157671Y-33506202D01*
X16157668Y-33506204D01*
X16092129Y-33555267D01*
X16026664Y-33579684D01*
X16017818Y-33580000D01*
X15900000Y-33580000D01*
X15900000Y-33627844D01*
X15906401Y-33687372D01*
X15906403Y-33687379D01*
X15918925Y-33720952D01*
X15923909Y-33790643D01*
X15918925Y-33807617D01*
X15905909Y-33842514D01*
X15905908Y-33842516D01*
X15899729Y-33899998D01*
X15899501Y-33902123D01*
X15899500Y-33902135D01*
X15899500Y-34897870D01*
X15899501Y-34897876D01*
X15905908Y-34957481D01*
X15918659Y-34991669D01*
X15923642Y-35061361D01*
X15918659Y-35078331D01*
X15905908Y-35112518D01*
X15899501Y-35172116D01*
X15899500Y-35172135D01*
X15899500Y-36167870D01*
X15899501Y-36167876D01*
X15905908Y-36227481D01*
X15918659Y-36261669D01*
X15923642Y-36331361D01*
X15918659Y-36348331D01*
X15905908Y-36382518D01*
X15901973Y-36419124D01*
X15899501Y-36442123D01*
X15899500Y-36442135D01*
X15899500Y-37437870D01*
X15899501Y-37437876D01*
X15905908Y-37497481D01*
X15918659Y-37531669D01*
X15923642Y-37601361D01*
X15918659Y-37618331D01*
X15905908Y-37652518D01*
X15900077Y-37706762D01*
X15899501Y-37712123D01*
X15899500Y-37712135D01*
X15899500Y-38707870D01*
X15899501Y-38707876D01*
X15905908Y-38767481D01*
X15918659Y-38801669D01*
X15923642Y-38871361D01*
X15918659Y-38888331D01*
X15905908Y-38922518D01*
X15899501Y-38982116D01*
X15899501Y-38982123D01*
X15899500Y-38982135D01*
X15899500Y-39977870D01*
X15899501Y-39977876D01*
X15905908Y-40037481D01*
X15918659Y-40071669D01*
X15923642Y-40141361D01*
X15918659Y-40158331D01*
X15905908Y-40192518D01*
X15899501Y-40252116D01*
X15899501Y-40252123D01*
X15899500Y-40252135D01*
X15899500Y-41247870D01*
X15899501Y-41247876D01*
X15905908Y-41307481D01*
X15918659Y-41341669D01*
X15923642Y-41411361D01*
X15918659Y-41428331D01*
X15905908Y-41462518D01*
X15899501Y-41522116D01*
X15899501Y-41522123D01*
X15899500Y-41522135D01*
X15899500Y-42517870D01*
X15899501Y-42517876D01*
X15905908Y-42577481D01*
X15918659Y-42611669D01*
X15923642Y-42681361D01*
X15918659Y-42698331D01*
X15905908Y-42732518D01*
X15899953Y-42787910D01*
X15899501Y-42792123D01*
X15899500Y-42792135D01*
X15899500Y-43787870D01*
X15899501Y-43787876D01*
X15905908Y-43847481D01*
X15918659Y-43881669D01*
X15923642Y-43951361D01*
X15918659Y-43968331D01*
X15905908Y-44002518D01*
X15899501Y-44062116D01*
X15899501Y-44062123D01*
X15899500Y-44062135D01*
X15899500Y-45057870D01*
X15899501Y-45057876D01*
X15905908Y-45117481D01*
X15918659Y-45151669D01*
X15923642Y-45221361D01*
X15918659Y-45238331D01*
X15905908Y-45272518D01*
X15899501Y-45332116D01*
X15899500Y-45332135D01*
X15899500Y-46327870D01*
X15899501Y-46327876D01*
X15905908Y-46387481D01*
X15918659Y-46421669D01*
X15923642Y-46491361D01*
X15918659Y-46508331D01*
X15905908Y-46542518D01*
X15899501Y-46602116D01*
X15899500Y-46602135D01*
X15899500Y-47597870D01*
X15899501Y-47597876D01*
X15905908Y-47657481D01*
X15918659Y-47691669D01*
X15923642Y-47761361D01*
X15918659Y-47778331D01*
X15905908Y-47812518D01*
X15899501Y-47872116D01*
X15899500Y-47872135D01*
X15899500Y-48867870D01*
X15899501Y-48867876D01*
X15905908Y-48927481D01*
X15918659Y-48961669D01*
X15923642Y-49031361D01*
X15918659Y-49048331D01*
X15905908Y-49082518D01*
X15899501Y-49142116D01*
X15899500Y-49142135D01*
X15899500Y-50137870D01*
X15899501Y-50137876D01*
X15905908Y-50197483D01*
X15956202Y-50332328D01*
X15956206Y-50332335D01*
X16042452Y-50447544D01*
X16042455Y-50447547D01*
X16157664Y-50533793D01*
X16157671Y-50533797D01*
X16202618Y-50550561D01*
X16292517Y-50584091D01*
X16352127Y-50590500D01*
X16425500Y-50590499D01*
X16492538Y-50610183D01*
X16538294Y-50662986D01*
X16549500Y-50714499D01*
X16549500Y-50838330D01*
X16549499Y-50838348D01*
X16549499Y-51004054D01*
X16549498Y-51004054D01*
X16549499Y-51004057D01*
X16590423Y-51156785D01*
X16604115Y-51180500D01*
X16669477Y-51293712D01*
X16669481Y-51293717D01*
X16788349Y-51412585D01*
X16788355Y-51412590D01*
X19780383Y-54404618D01*
X19813868Y-54465941D01*
X19808884Y-54535633D01*
X19767012Y-54591566D01*
X19701548Y-54615983D01*
X19653699Y-54610005D01*
X19502797Y-54560001D01*
X19502795Y-54560000D01*
X19400010Y-54549500D01*
X18599998Y-54549500D01*
X18599980Y-54549501D01*
X18497203Y-54560000D01*
X18497200Y-54560001D01*
X18330668Y-54615185D01*
X18330663Y-54615187D01*
X18181342Y-54707289D01*
X18087681Y-54800951D01*
X18026358Y-54834436D01*
X17956666Y-54829452D01*
X17912319Y-54800951D01*
X17818657Y-54707289D01*
X17818656Y-54707288D01*
X17725888Y-54650069D01*
X17669336Y-54615187D01*
X17669331Y-54615185D01*
X17651550Y-54609293D01*
X17502797Y-54560001D01*
X17502795Y-54560000D01*
X17400010Y-54549500D01*
X16599998Y-54549500D01*
X16599980Y-54549501D01*
X16497203Y-54560000D01*
X16497200Y-54560001D01*
X16330668Y-54615185D01*
X16330663Y-54615187D01*
X16181342Y-54707289D01*
X16057289Y-54831342D01*
X15965187Y-54980663D01*
X15965185Y-54980668D01*
X15951465Y-55022073D01*
X15910001Y-55147203D01*
X15910001Y-55147204D01*
X15910000Y-55147204D01*
X15899500Y-55249983D01*
X15899500Y-56250001D01*
X15899501Y-56250019D01*
X15910000Y-56352796D01*
X15910001Y-56352799D01*
X15932547Y-56420836D01*
X15965186Y-56519334D01*
X16057288Y-56668656D01*
X16181344Y-56792712D01*
X16330666Y-56884814D01*
X16497203Y-56939999D01*
X16599991Y-56950500D01*
X17299902Y-56950499D01*
X17366941Y-56970183D01*
X17387583Y-56986818D01*
X17613181Y-57212416D01*
X17646666Y-57273739D01*
X17649500Y-57300097D01*
X17649500Y-57520298D01*
X17629815Y-57587337D01*
X17608606Y-57612328D01*
X17587500Y-57631387D01*
X17587500Y-59176000D01*
X17567815Y-59243039D01*
X17515011Y-59288794D01*
X17463500Y-59300000D01*
X15817737Y-59300000D01*
X15840641Y-59369120D01*
X15932684Y-59518345D01*
X16056655Y-59642316D01*
X16056659Y-59642319D01*
X16059656Y-59644168D01*
X16061279Y-59645972D01*
X16062323Y-59646798D01*
X16062181Y-59646976D01*
X16106381Y-59696116D01*
X16117602Y-59765079D01*
X16089759Y-59829161D01*
X16059661Y-59855241D01*
X16056349Y-59857283D01*
X16056343Y-59857288D01*
X15932289Y-59981342D01*
X15840187Y-60130663D01*
X15840186Y-60130666D01*
X15785001Y-60297203D01*
X15785001Y-60297204D01*
X15785000Y-60297204D01*
X15774500Y-60399983D01*
X15774500Y-61175001D01*
X15774501Y-61175019D01*
X15785000Y-61277796D01*
X15785001Y-61277799D01*
X15816328Y-61372336D01*
X15840186Y-61444334D01*
X15932288Y-61593656D01*
X16056344Y-61717712D01*
X16205666Y-61809814D01*
X16314505Y-61845879D01*
X16371949Y-61885652D01*
X16398772Y-61950167D01*
X16399500Y-61963585D01*
X16399500Y-63004091D01*
X16379815Y-63071130D01*
X16335731Y-63109641D01*
X16336813Y-63111395D01*
X16330667Y-63115185D01*
X16330666Y-63115186D01*
X16275501Y-63149212D01*
X16181342Y-63207289D01*
X16057289Y-63331342D01*
X15965187Y-63480663D01*
X15965185Y-63480668D01*
X15942064Y-63550444D01*
X15910001Y-63647203D01*
X15910001Y-63647204D01*
X15910000Y-63647204D01*
X15899500Y-63749983D01*
X15899500Y-63749996D01*
X15899501Y-64750000D01*
X15899501Y-64750019D01*
X15910000Y-64852796D01*
X15910001Y-64852799D01*
X15965185Y-65019331D01*
X15965187Y-65019336D01*
X15975471Y-65036009D01*
X16057288Y-65168656D01*
X16181344Y-65292712D01*
X16330666Y-65384814D01*
X16497203Y-65439999D01*
X16599991Y-65450500D01*
X17400008Y-65450499D01*
X17400016Y-65450498D01*
X17400019Y-65450498D01*
X17456302Y-65444748D01*
X17502797Y-65439999D01*
X17669334Y-65384814D01*
X17818656Y-65292712D01*
X17912319Y-65199049D01*
X17973642Y-65165564D01*
X18043334Y-65170548D01*
X18087681Y-65199049D01*
X18181344Y-65292712D01*
X18330666Y-65384814D01*
X18330667Y-65384814D01*
X18336813Y-65388605D01*
X18335704Y-65390401D01*
X18380328Y-65429673D01*
X18399499Y-65495907D01*
X18399499Y-65579054D01*
X18399498Y-65579054D01*
X18399499Y-65579057D01*
X18440423Y-65731785D01*
X18468888Y-65781087D01*
X18505177Y-65843942D01*
X18519479Y-65868714D01*
X18519481Y-65868717D01*
X18638349Y-65987585D01*
X18638355Y-65987590D01*
X18679211Y-66028446D01*
X18712696Y-66089769D01*
X18707712Y-66159461D01*
X18665840Y-66215394D01*
X18600376Y-66239811D01*
X18544078Y-66230688D01*
X18404261Y-66172774D01*
X18264819Y-66135411D01*
X18160452Y-66107446D01*
X18129171Y-66103327D01*
X17910211Y-66074500D01*
X17910204Y-66074500D01*
X17657796Y-66074500D01*
X17657788Y-66074500D01*
X17407548Y-66107446D01*
X17163741Y-66172773D01*
X16930552Y-66269363D01*
X16930535Y-66269372D01*
X16711958Y-66395566D01*
X16711954Y-66395568D01*
X16511705Y-66549227D01*
X16333227Y-66727705D01*
X16179568Y-66927954D01*
X16179566Y-66927958D01*
X16053372Y-67146535D01*
X16053363Y-67146552D01*
X15956773Y-67379741D01*
X15891446Y-67623548D01*
X15858500Y-67873788D01*
X15858500Y-68126211D01*
X15887327Y-68345171D01*
X15891446Y-68376452D01*
X15911153Y-68450000D01*
X15956773Y-68620258D01*
X16053363Y-68853447D01*
X16053372Y-68853464D01*
X16179566Y-69072041D01*
X16179568Y-69072045D01*
X16333227Y-69272294D01*
X16333235Y-69272303D01*
X16511697Y-69450765D01*
X16511705Y-69450772D01*
X16711954Y-69604431D01*
X16711958Y-69604433D01*
X16930535Y-69730627D01*
X16930552Y-69730636D01*
X17059758Y-69784154D01*
X17163740Y-69827226D01*
X17407548Y-69892554D01*
X17657796Y-69925500D01*
X17657803Y-69925500D01*
X17910197Y-69925500D01*
X17910204Y-69925500D01*
X18160452Y-69892554D01*
X18404260Y-69827226D01*
X18637454Y-69730633D01*
X18856041Y-69604433D01*
X18856045Y-69604431D01*
X18893842Y-69575427D01*
X19056294Y-69450773D01*
X19056298Y-69450768D01*
X19056303Y-69450765D01*
X19234765Y-69272303D01*
X19234768Y-69272298D01*
X19234773Y-69272294D01*
X19388430Y-69072046D01*
X19514633Y-68853454D01*
X19611226Y-68620260D01*
X19676554Y-68376452D01*
X19709500Y-68126204D01*
X19709500Y-67873796D01*
X19676554Y-67623548D01*
X19611226Y-67379740D01*
X19553311Y-67239922D01*
X19545842Y-67170453D01*
X19577117Y-67107973D01*
X19637206Y-67072321D01*
X19707031Y-67074815D01*
X19755553Y-67104788D01*
X21192483Y-68541718D01*
X21225968Y-68603041D01*
X21220984Y-68672733D01*
X21179112Y-68728666D01*
X21150293Y-68744753D01*
X21073510Y-68775033D01*
X20954945Y-68864945D01*
X20865034Y-68983508D01*
X20810445Y-69121936D01*
X20800000Y-69208928D01*
X20800000Y-69790000D01*
X21766000Y-69790000D01*
X21833039Y-69809685D01*
X21878794Y-69862489D01*
X21890000Y-69914000D01*
X21890000Y-71460000D01*
X21891072Y-71460000D01*
X21978063Y-71449554D01*
X22116492Y-71394965D01*
X22154658Y-71366022D01*
X22219969Y-71341197D01*
X22288333Y-71355623D01*
X22304512Y-71366021D01*
X22304513Y-71366022D01*
X22343262Y-71395406D01*
X22481815Y-71450044D01*
X22539859Y-71457014D01*
X22568881Y-71460500D01*
X22568882Y-71460500D01*
X23161119Y-71460500D01*
X23182884Y-71457886D01*
X23248185Y-71450044D01*
X23386738Y-71395406D01*
X23425074Y-71366335D01*
X23490386Y-71341511D01*
X23558749Y-71355939D01*
X23574926Y-71366335D01*
X23613262Y-71395406D01*
X23751815Y-71450044D01*
X23809859Y-71457014D01*
X23838881Y-71460500D01*
X23838882Y-71460500D01*
X24431119Y-71460500D01*
X24452884Y-71457886D01*
X24518185Y-71450044D01*
X24656738Y-71395406D01*
X24695074Y-71366335D01*
X24760386Y-71341511D01*
X24828749Y-71355939D01*
X24844926Y-71366335D01*
X24883262Y-71395406D01*
X25021815Y-71450044D01*
X25079859Y-71457014D01*
X25108881Y-71460500D01*
X25108882Y-71460500D01*
X25701119Y-71460500D01*
X25722884Y-71457886D01*
X25788185Y-71450044D01*
X25926738Y-71395406D01*
X26045412Y-71305412D01*
X26135406Y-71186738D01*
X26190044Y-71048185D01*
X26200500Y-70961118D01*
X26200500Y-70079655D01*
X31314400Y-70079655D01*
X31314400Y-70127500D01*
X32462100Y-70127500D01*
X33351100Y-70127500D01*
X34498800Y-70127500D01*
X34498800Y-70079672D01*
X34498799Y-70079655D01*
X34492398Y-70020127D01*
X34492396Y-70020120D01*
X34442154Y-69885413D01*
X34442150Y-69885406D01*
X34355990Y-69770312D01*
X34355987Y-69770309D01*
X34240893Y-69684149D01*
X34240886Y-69684145D01*
X34106179Y-69633903D01*
X34106172Y-69633901D01*
X34046644Y-69627500D01*
X33351100Y-69627500D01*
X33351100Y-70127500D01*
X32462100Y-70127500D01*
X32462100Y-69627500D01*
X31766555Y-69627500D01*
X31707027Y-69633901D01*
X31707020Y-69633903D01*
X31572313Y-69684145D01*
X31572306Y-69684149D01*
X31457212Y-69770309D01*
X31457209Y-69770312D01*
X31371049Y-69885406D01*
X31371045Y-69885413D01*
X31320803Y-70020120D01*
X31320801Y-70020127D01*
X31314400Y-70079655D01*
X26200500Y-70079655D01*
X26200500Y-69208882D01*
X26190044Y-69121815D01*
X26135406Y-68983262D01*
X26045412Y-68864588D01*
X25926738Y-68774594D01*
X25788185Y-68719956D01*
X25788184Y-68719955D01*
X25788182Y-68719955D01*
X25701119Y-68709500D01*
X25701118Y-68709500D01*
X25108882Y-68709500D01*
X25108881Y-68709500D01*
X25021817Y-68719955D01*
X25021816Y-68719955D01*
X24883259Y-68774595D01*
X24883255Y-68774597D01*
X24844924Y-68803665D01*
X24779613Y-68828488D01*
X24711249Y-68814060D01*
X24695076Y-68803665D01*
X24656744Y-68774597D01*
X24656740Y-68774595D01*
X24656738Y-68774594D01*
X24518185Y-68719956D01*
X24518184Y-68719955D01*
X24518182Y-68719955D01*
X24431119Y-68709500D01*
X24431118Y-68709500D01*
X24110098Y-68709500D01*
X24043059Y-68689815D01*
X24022417Y-68673181D01*
X23223024Y-67873788D01*
X27290500Y-67873788D01*
X27290500Y-68126211D01*
X27319327Y-68345171D01*
X27323446Y-68376452D01*
X27343153Y-68450000D01*
X27388773Y-68620258D01*
X27485363Y-68853447D01*
X27485372Y-68853464D01*
X27611566Y-69072041D01*
X27611568Y-69072045D01*
X27765227Y-69272294D01*
X27765235Y-69272303D01*
X27943697Y-69450765D01*
X27943705Y-69450772D01*
X28143954Y-69604431D01*
X28143958Y-69604433D01*
X28362535Y-69730627D01*
X28362552Y-69730636D01*
X28491758Y-69784154D01*
X28595740Y-69827226D01*
X28839548Y-69892554D01*
X29089796Y-69925500D01*
X29089803Y-69925500D01*
X29342197Y-69925500D01*
X29342204Y-69925500D01*
X29592452Y-69892554D01*
X29836260Y-69827226D01*
X30069454Y-69730633D01*
X30288041Y-69604433D01*
X30288045Y-69604431D01*
X30325842Y-69575427D01*
X30488294Y-69450773D01*
X30488298Y-69450768D01*
X30488303Y-69450765D01*
X30666765Y-69272303D01*
X30666768Y-69272298D01*
X30666773Y-69272294D01*
X30820430Y-69072046D01*
X30946633Y-68853454D01*
X31043226Y-68620260D01*
X31108554Y-68376452D01*
X31141500Y-68126204D01*
X31141500Y-67873796D01*
X31108554Y-67623548D01*
X31043226Y-67379740D01*
X30956536Y-67170453D01*
X30946636Y-67146552D01*
X30946627Y-67146535D01*
X30820433Y-66927958D01*
X30820431Y-66927954D01*
X30666772Y-66727705D01*
X30666765Y-66727697D01*
X30488303Y-66549235D01*
X30488294Y-66549227D01*
X30288045Y-66395568D01*
X30288041Y-66395566D01*
X30069464Y-66269372D01*
X30069447Y-66269363D01*
X29836258Y-66172773D01*
X29681690Y-66131357D01*
X29592452Y-66107446D01*
X29561171Y-66103327D01*
X29342211Y-66074500D01*
X29342204Y-66074500D01*
X29089796Y-66074500D01*
X29089788Y-66074500D01*
X28839548Y-66107446D01*
X28595741Y-66172773D01*
X28362552Y-66269363D01*
X28362535Y-66269372D01*
X28143958Y-66395566D01*
X28143954Y-66395568D01*
X27943705Y-66549227D01*
X27765227Y-66727705D01*
X27611568Y-66927954D01*
X27611566Y-66927958D01*
X27485372Y-67146535D01*
X27485363Y-67146552D01*
X27388773Y-67379741D01*
X27323446Y-67623548D01*
X27290500Y-67873788D01*
X23223024Y-67873788D01*
X21847067Y-66497831D01*
X21813582Y-66436508D01*
X21818566Y-66366816D01*
X21860438Y-66310883D01*
X21919958Y-66287036D01*
X21978185Y-66280044D01*
X22116738Y-66225406D01*
X22155489Y-66196019D01*
X22220798Y-66171197D01*
X22289162Y-66185624D01*
X22305339Y-66196020D01*
X22343508Y-66224965D01*
X22481936Y-66279554D01*
X22568928Y-66290000D01*
X22570000Y-66290000D01*
X22570000Y-64744000D01*
X22589685Y-64676961D01*
X22642489Y-64631206D01*
X22694000Y-64620000D01*
X23036000Y-64620000D01*
X23103039Y-64639685D01*
X23148794Y-64692489D01*
X23160000Y-64744000D01*
X23160000Y-66290000D01*
X23161072Y-66290000D01*
X23248063Y-66279554D01*
X23386492Y-66224965D01*
X23424658Y-66196022D01*
X23489969Y-66171197D01*
X23558333Y-66185623D01*
X23574512Y-66196021D01*
X23613262Y-66225406D01*
X23620656Y-66229564D01*
X23620085Y-66230578D01*
X23652794Y-66252030D01*
X23654479Y-66253715D01*
X23654480Y-66253716D01*
X23766284Y-66365520D01*
X23766285Y-66365520D01*
X23773352Y-66372587D01*
X23773351Y-66372587D01*
X23773355Y-66372590D01*
X24044298Y-66643533D01*
X24077783Y-66704856D01*
X24079837Y-66717330D01*
X24089630Y-66804249D01*
X24149210Y-66974521D01*
X24153481Y-66981318D01*
X24245184Y-67127262D01*
X24372738Y-67254816D01*
X24373701Y-67255421D01*
X24524247Y-67350016D01*
X24525478Y-67350789D01*
X24695745Y-67410368D01*
X24695750Y-67410369D01*
X24874996Y-67430565D01*
X24875000Y-67430565D01*
X24875004Y-67430565D01*
X25054249Y-67410369D01*
X25054252Y-67410368D01*
X25054255Y-67410368D01*
X25224522Y-67350789D01*
X25377262Y-67254816D01*
X25504816Y-67127262D01*
X25600789Y-66974522D01*
X25660368Y-66804255D01*
X25670162Y-66717330D01*
X25680565Y-66625003D01*
X25680565Y-66624996D01*
X25660369Y-66445753D01*
X25660368Y-66445752D01*
X25660368Y-66445745D01*
X25660365Y-66445738D01*
X25658819Y-66438961D01*
X25660414Y-66438596D01*
X25657289Y-66377344D01*
X25692019Y-66316717D01*
X25754013Y-66284491D01*
X25763071Y-66283059D01*
X25788185Y-66280044D01*
X25926738Y-66225406D01*
X26045412Y-66135412D01*
X26135406Y-66016738D01*
X26190044Y-65878185D01*
X26200500Y-65791118D01*
X26200500Y-64375000D01*
X28067737Y-64375000D01*
X28090641Y-64444120D01*
X28182684Y-64593345D01*
X28306654Y-64717315D01*
X28455875Y-64809356D01*
X28455880Y-64809358D01*
X28622302Y-64864505D01*
X28662499Y-64868611D01*
X28662500Y-64868611D01*
X29837500Y-64868611D01*
X29877696Y-64864505D01*
X29877698Y-64864505D01*
X30044119Y-64809358D01*
X30044124Y-64809356D01*
X30193345Y-64717315D01*
X30317315Y-64593345D01*
X30409358Y-64444120D01*
X30432263Y-64375000D01*
X29837500Y-64375000D01*
X29837500Y-64868611D01*
X28662500Y-64868611D01*
X28662500Y-64375000D01*
X28067737Y-64375000D01*
X26200500Y-64375000D01*
X26200500Y-64038882D01*
X26190044Y-63951815D01*
X26135406Y-63813262D01*
X26045412Y-63694588D01*
X26045410Y-63694587D01*
X26045407Y-63694582D01*
X26041819Y-63690994D01*
X26008334Y-63629671D01*
X26005500Y-63603313D01*
X26005500Y-62788309D01*
X26025185Y-62721270D01*
X26077989Y-62675515D01*
X26147147Y-62665571D01*
X26174292Y-62672682D01*
X26363199Y-62745866D01*
X26569873Y-62784500D01*
X26569875Y-62784500D01*
X26780125Y-62784500D01*
X26780127Y-62784500D01*
X26986801Y-62745866D01*
X27182856Y-62669913D01*
X27361618Y-62559229D01*
X27516997Y-62417582D01*
X27643703Y-62249796D01*
X27737422Y-62061584D01*
X27781235Y-61907594D01*
X27818512Y-61848504D01*
X27881821Y-61818946D01*
X27951061Y-61828307D01*
X28004248Y-61873616D01*
X28024496Y-61940488D01*
X28024500Y-61941530D01*
X28024500Y-62100000D01*
X28024501Y-62100019D01*
X28035000Y-62202796D01*
X28035001Y-62202799D01*
X28090185Y-62369331D01*
X28090187Y-62369336D01*
X28113069Y-62406433D01*
X28182288Y-62518656D01*
X28306344Y-62642712D01*
X28309628Y-62644737D01*
X28309653Y-62644753D01*
X28311445Y-62646746D01*
X28312011Y-62647193D01*
X28311934Y-62647289D01*
X28356379Y-62696699D01*
X28367603Y-62765661D01*
X28339761Y-62829744D01*
X28309665Y-62855826D01*
X28306660Y-62857679D01*
X28306655Y-62857683D01*
X28182684Y-62981654D01*
X28090641Y-63130879D01*
X28067737Y-63200000D01*
X30432262Y-63200000D01*
X30409358Y-63130879D01*
X30317315Y-62981654D01*
X30193344Y-62857683D01*
X30193341Y-62857681D01*
X30190339Y-62855829D01*
X30188713Y-62854021D01*
X30187677Y-62853202D01*
X30187817Y-62853024D01*
X30143617Y-62803880D01*
X30132397Y-62734917D01*
X30160243Y-62670836D01*
X30190344Y-62644754D01*
X30193656Y-62642712D01*
X30317712Y-62518656D01*
X30408229Y-62371902D01*
X30460177Y-62325179D01*
X30513768Y-62313000D01*
X31486232Y-62313000D01*
X31553271Y-62332685D01*
X31591769Y-62371901D01*
X31682288Y-62518656D01*
X31806344Y-62642712D01*
X31809628Y-62644737D01*
X31809653Y-62644753D01*
X31811445Y-62646746D01*
X31812011Y-62647193D01*
X31811934Y-62647289D01*
X31856379Y-62696699D01*
X31867603Y-62765661D01*
X31839761Y-62829744D01*
X31809665Y-62855826D01*
X31806660Y-62857679D01*
X31806655Y-62857683D01*
X31682684Y-62981654D01*
X31590641Y-63130879D01*
X31567737Y-63200000D01*
X33213500Y-63200000D01*
X33280539Y-63219685D01*
X33326294Y-63272489D01*
X33337500Y-63324000D01*
X33337500Y-64251000D01*
X33317815Y-64318039D01*
X33265011Y-64363794D01*
X33213500Y-64375000D01*
X31567737Y-64375000D01*
X31590641Y-64444120D01*
X31682684Y-64593345D01*
X31806654Y-64717315D01*
X31955875Y-64809356D01*
X31967755Y-64813292D01*
X32025202Y-64853063D01*
X32052027Y-64917577D01*
X32039715Y-64986354D01*
X31992174Y-65037556D01*
X31928757Y-65055000D01*
X31766529Y-65055000D01*
X31766523Y-65055001D01*
X31706916Y-65061408D01*
X31572071Y-65111702D01*
X31572064Y-65111706D01*
X31456855Y-65197952D01*
X31456852Y-65197955D01*
X31370606Y-65313164D01*
X31370602Y-65313171D01*
X31320308Y-65448017D01*
X31316630Y-65482235D01*
X31313901Y-65507623D01*
X31313900Y-65507635D01*
X31313900Y-66492370D01*
X31313901Y-66492376D01*
X31320308Y-66551983D01*
X31370602Y-66686828D01*
X31370606Y-66686835D01*
X31456852Y-66802044D01*
X31456855Y-66802047D01*
X31572064Y-66888293D01*
X31572071Y-66888297D01*
X31706917Y-66938591D01*
X31706916Y-66938591D01*
X31713844Y-66939335D01*
X31766527Y-66945000D01*
X32582269Y-66944999D01*
X32649308Y-66964683D01*
X32669950Y-66981318D01*
X33608647Y-67920014D01*
X33642132Y-67981337D01*
X33644437Y-67996253D01*
X33663603Y-68203082D01*
X33719417Y-68399247D01*
X33719422Y-68399260D01*
X33810327Y-68581821D01*
X33933237Y-68744581D01*
X34083958Y-68881980D01*
X34083960Y-68881982D01*
X34183141Y-68943392D01*
X34257363Y-68989348D01*
X34447544Y-69063024D01*
X34648024Y-69100500D01*
X34648026Y-69100500D01*
X34851974Y-69100500D01*
X34851976Y-69100500D01*
X35052456Y-69063024D01*
X35242637Y-68989348D01*
X35416041Y-68881981D01*
X35566764Y-68744579D01*
X35689673Y-68581821D01*
X35780582Y-68399250D01*
X35836397Y-68203083D01*
X35855215Y-68000000D01*
X35851496Y-67959870D01*
X35836397Y-67796917D01*
X35806680Y-67692474D01*
X35780582Y-67600750D01*
X35689673Y-67418179D01*
X35566764Y-67255421D01*
X35566762Y-67255418D01*
X35416041Y-67118019D01*
X35416039Y-67118017D01*
X35242642Y-67010655D01*
X35242635Y-67010651D01*
X35147546Y-66973814D01*
X35052456Y-66936976D01*
X34851976Y-66899500D01*
X34851974Y-66899500D01*
X34762229Y-66899500D01*
X34695190Y-66879815D01*
X34674548Y-66863181D01*
X34514049Y-66702682D01*
X34480564Y-66641359D01*
X34485547Y-66571670D01*
X34492891Y-66551983D01*
X34499300Y-66492373D01*
X34499299Y-65507628D01*
X34492891Y-65448017D01*
X34489900Y-65439999D01*
X34442597Y-65313171D01*
X34442593Y-65313164D01*
X34356347Y-65197955D01*
X34356344Y-65197952D01*
X34241135Y-65111706D01*
X34241128Y-65111702D01*
X34106282Y-65061408D01*
X34106283Y-65061408D01*
X34046683Y-65055001D01*
X34046681Y-65055000D01*
X34046673Y-65055000D01*
X34046665Y-65055000D01*
X33571246Y-65055000D01*
X33504207Y-65035315D01*
X33458452Y-64982511D01*
X33448508Y-64913353D01*
X33477533Y-64849797D01*
X33532243Y-64813294D01*
X33544117Y-64809359D01*
X33544124Y-64809356D01*
X33693345Y-64717315D01*
X33817315Y-64593345D01*
X33864038Y-64517596D01*
X33915986Y-64470872D01*
X33984948Y-64459649D01*
X34049031Y-64487493D01*
X34068843Y-64508382D01*
X34142809Y-64607187D01*
X34142812Y-64607190D01*
X34257906Y-64693350D01*
X34257913Y-64693354D01*
X34392620Y-64743596D01*
X34392627Y-64743598D01*
X34452155Y-64749999D01*
X34452172Y-64750000D01*
X35250000Y-64750000D01*
X35250000Y-62406433D01*
X35300000Y-62406433D01*
X35300000Y-62593567D01*
X35336508Y-62777105D01*
X35408121Y-62949994D01*
X35512087Y-63105590D01*
X35644410Y-63237913D01*
X35800006Y-63341879D01*
X35972895Y-63413492D01*
X36156433Y-63450000D01*
X36343567Y-63450000D01*
X36527105Y-63413492D01*
X36699994Y-63341879D01*
X36855590Y-63237913D01*
X36987913Y-63105590D01*
X37091879Y-62949994D01*
X37163492Y-62777105D01*
X37200000Y-62593567D01*
X37200000Y-62406433D01*
X37163492Y-62222895D01*
X37091879Y-62050006D01*
X36987913Y-61894410D01*
X36855590Y-61762087D01*
X36699994Y-61658121D01*
X36527105Y-61586508D01*
X36343567Y-61550000D01*
X36156433Y-61550000D01*
X35972895Y-61586508D01*
X35800006Y-61658121D01*
X35644410Y-61762087D01*
X35512087Y-61894410D01*
X35408121Y-62050006D01*
X35336508Y-62222895D01*
X35300000Y-62406433D01*
X35250000Y-62406433D01*
X35250000Y-60250000D01*
X34452155Y-60250000D01*
X34392627Y-60256401D01*
X34392620Y-60256403D01*
X34257913Y-60306645D01*
X34257906Y-60306649D01*
X34142812Y-60392809D01*
X34142809Y-60392812D01*
X34056649Y-60507906D01*
X34056645Y-60507913D01*
X34006403Y-60642620D01*
X34006401Y-60642627D01*
X34000000Y-60702155D01*
X34000000Y-60789270D01*
X33980315Y-60856309D01*
X33927511Y-60902064D01*
X33858353Y-60912008D01*
X33794797Y-60882983D01*
X33788319Y-60876951D01*
X33693655Y-60782287D01*
X33546748Y-60691675D01*
X33500023Y-60639727D01*
X33488800Y-60570765D01*
X33494803Y-60545182D01*
X33530555Y-60443011D01*
X33535367Y-60429259D01*
X33535369Y-60429249D01*
X33555565Y-60250000D01*
X33555565Y-60249996D01*
X33535369Y-60070750D01*
X33535368Y-60070745D01*
X33516492Y-60016801D01*
X33475789Y-59900478D01*
X33461402Y-59877582D01*
X33436582Y-59838080D01*
X33379816Y-59747738D01*
X33252262Y-59620184D01*
X33246485Y-59616554D01*
X33099523Y-59524211D01*
X32929254Y-59464631D01*
X32929249Y-59464630D01*
X32750004Y-59444435D01*
X32749996Y-59444435D01*
X32570750Y-59464630D01*
X32570745Y-59464631D01*
X32400476Y-59524211D01*
X32247737Y-59620184D01*
X32120184Y-59747737D01*
X32024211Y-59900476D01*
X31964631Y-60070745D01*
X31964630Y-60070750D01*
X31944435Y-60249996D01*
X31944435Y-60250000D01*
X31964630Y-60429249D01*
X31964632Y-60429257D01*
X32005196Y-60545182D01*
X32008757Y-60614960D01*
X31974028Y-60675588D01*
X31953251Y-60691675D01*
X31806342Y-60782289D01*
X31682289Y-60906342D01*
X31682288Y-60906344D01*
X31598592Y-61042039D01*
X31591771Y-61053097D01*
X31539823Y-61099821D01*
X31486232Y-61112000D01*
X30513768Y-61112000D01*
X30446729Y-61092315D01*
X30408229Y-61053097D01*
X30401665Y-61042455D01*
X30317712Y-60906344D01*
X30193656Y-60782288D01*
X30077638Y-60710728D01*
X30044336Y-60690187D01*
X30044331Y-60690185D01*
X30000280Y-60675588D01*
X29877797Y-60635001D01*
X29877795Y-60635000D01*
X29775010Y-60624500D01*
X28724998Y-60624500D01*
X28724980Y-60624501D01*
X28622203Y-60635000D01*
X28622200Y-60635001D01*
X28455668Y-60690185D01*
X28455663Y-60690187D01*
X28306342Y-60782289D01*
X28182289Y-60906342D01*
X28090187Y-61055663D01*
X28090186Y-61055666D01*
X28035001Y-61222203D01*
X28035001Y-61222204D01*
X28035000Y-61222204D01*
X28024500Y-61324983D01*
X28024500Y-61358465D01*
X28004815Y-61425504D01*
X27952011Y-61471259D01*
X27882853Y-61481203D01*
X27819297Y-61452178D01*
X27781523Y-61393400D01*
X27781262Y-61392500D01*
X27737422Y-61238416D01*
X27705854Y-61175019D01*
X27643706Y-61050209D01*
X27643701Y-61050201D01*
X27516995Y-60882415D01*
X27361618Y-60740771D01*
X27361616Y-60740769D01*
X27188121Y-60633347D01*
X27182856Y-60630087D01*
X26986801Y-60554134D01*
X26780127Y-60515500D01*
X26569873Y-60515500D01*
X26363199Y-60554134D01*
X26363196Y-60554134D01*
X26363196Y-60554135D01*
X26167146Y-60630086D01*
X26167145Y-60630086D01*
X26167144Y-60630087D01*
X26146891Y-60642627D01*
X26067021Y-60692080D01*
X25999660Y-60710634D01*
X25932961Y-60689826D01*
X25894356Y-60648651D01*
X25889204Y-60639727D01*
X25885520Y-60633346D01*
X25773716Y-60521542D01*
X25773715Y-60521541D01*
X25769385Y-60517211D01*
X25769374Y-60517201D01*
X25664558Y-60412385D01*
X25631073Y-60351062D01*
X25636057Y-60281370D01*
X25677929Y-60225437D01*
X25682524Y-60223161D01*
X27728448Y-60223161D01*
X27839921Y-60244000D01*
X28050079Y-60244000D01*
X28161551Y-60223161D01*
X27945001Y-60006611D01*
X27728448Y-60223161D01*
X25682524Y-60223161D01*
X25711745Y-60208687D01*
X25711455Y-60207937D01*
X25716801Y-60205866D01*
X25912856Y-60129913D01*
X26091618Y-60019229D01*
X26246997Y-59877582D01*
X26373703Y-59709796D01*
X26467422Y-59521584D01*
X26524960Y-59319357D01*
X26544360Y-59110000D01*
X26544360Y-59109999D01*
X26806142Y-59109999D01*
X26806142Y-59110000D01*
X26825532Y-59319264D01*
X26825533Y-59319268D01*
X26828542Y-59329844D01*
X26828544Y-59329845D01*
X27048389Y-59110000D01*
X26998361Y-59059972D01*
X27565000Y-59059972D01*
X27565000Y-59160028D01*
X27590896Y-59256675D01*
X27640924Y-59343325D01*
X27711675Y-59414076D01*
X27798325Y-59464104D01*
X27894972Y-59490000D01*
X27995028Y-59490000D01*
X28091675Y-59464104D01*
X28178325Y-59414076D01*
X28249076Y-59343325D01*
X28299104Y-59256675D01*
X28325000Y-59160028D01*
X28325000Y-59110000D01*
X28841610Y-59110000D01*
X29061456Y-59329845D01*
X29064466Y-59319268D01*
X29064467Y-59319260D01*
X29083858Y-59110000D01*
X29083858Y-59109999D01*
X29064467Y-58900735D01*
X29061456Y-58890154D01*
X28841610Y-59110000D01*
X28325000Y-59110000D01*
X28325000Y-59059972D01*
X28299104Y-58963325D01*
X28249076Y-58876675D01*
X28178325Y-58805924D01*
X28091675Y-58755896D01*
X27995028Y-58730000D01*
X27894972Y-58730000D01*
X27798325Y-58755896D01*
X27711675Y-58805924D01*
X27640924Y-58876675D01*
X27590896Y-58963325D01*
X27565000Y-59059972D01*
X26998361Y-59059972D01*
X26828543Y-58890154D01*
X26828542Y-58890154D01*
X26825533Y-58900733D01*
X26806142Y-59109999D01*
X26544360Y-59109999D01*
X26524960Y-58900643D01*
X26467422Y-58698416D01*
X26441897Y-58647155D01*
X26373706Y-58510209D01*
X26373701Y-58510201D01*
X26246995Y-58342415D01*
X26091618Y-58200771D01*
X26091616Y-58200769D01*
X25912859Y-58090089D01*
X25912856Y-58090087D01*
X25824556Y-58055879D01*
X25716801Y-58014134D01*
X25624270Y-57996837D01*
X27728448Y-57996837D01*
X27944999Y-58213388D01*
X28058386Y-58100000D01*
X35842737Y-58100000D01*
X35865641Y-58169120D01*
X35957684Y-58318345D01*
X36081654Y-58442315D01*
X36230875Y-58534356D01*
X36230880Y-58534358D01*
X36397301Y-58589505D01*
X36397304Y-58589506D01*
X36424999Y-58592334D01*
X36425000Y-58592334D01*
X37575000Y-58592334D01*
X37602695Y-58589506D01*
X37602698Y-58589505D01*
X37769119Y-58534358D01*
X37769124Y-58534356D01*
X37918345Y-58442315D01*
X38042315Y-58318345D01*
X38134358Y-58169120D01*
X38157263Y-58100000D01*
X37575000Y-58100000D01*
X37575000Y-58592334D01*
X36425000Y-58592334D01*
X36425000Y-58100000D01*
X35842737Y-58100000D01*
X28058386Y-58100000D01*
X28161550Y-57996836D01*
X28050079Y-57976000D01*
X27839921Y-57976000D01*
X27728448Y-57996837D01*
X25624270Y-57996837D01*
X25510127Y-57975500D01*
X25510125Y-57975500D01*
X25474500Y-57975500D01*
X25407461Y-57955815D01*
X25361706Y-57903011D01*
X25350500Y-57851500D01*
X25350500Y-57129596D01*
X26044435Y-57129596D01*
X26044435Y-57129603D01*
X26064630Y-57308849D01*
X26064631Y-57308854D01*
X26124211Y-57479123D01*
X26182937Y-57572584D01*
X26220184Y-57631862D01*
X26347738Y-57759416D01*
X26384769Y-57782684D01*
X26494288Y-57851500D01*
X26500478Y-57855389D01*
X26636574Y-57903011D01*
X26670745Y-57914968D01*
X26670750Y-57914969D01*
X26849996Y-57935165D01*
X26850000Y-57935165D01*
X26850004Y-57935165D01*
X27029249Y-57914969D01*
X27029252Y-57914968D01*
X27029255Y-57914968D01*
X27199522Y-57855389D01*
X27352262Y-57759416D01*
X27479816Y-57631862D01*
X27575789Y-57479122D01*
X27635368Y-57308855D01*
X27646234Y-57212416D01*
X27655565Y-57129603D01*
X27655565Y-57129596D01*
X27635369Y-56950350D01*
X27635368Y-56950345D01*
X27606879Y-56868929D01*
X27575789Y-56780078D01*
X27479816Y-56627338D01*
X27352262Y-56499784D01*
X27328601Y-56484917D01*
X27199523Y-56403811D01*
X27029254Y-56344231D01*
X27029249Y-56344230D01*
X26850004Y-56324035D01*
X26849996Y-56324035D01*
X26670750Y-56344230D01*
X26670745Y-56344231D01*
X26500476Y-56403811D01*
X26347737Y-56499784D01*
X26220184Y-56627337D01*
X26124211Y-56780076D01*
X26064631Y-56950345D01*
X26064630Y-56950350D01*
X26044435Y-57129596D01*
X25350500Y-57129596D01*
X25350500Y-54207414D01*
X25350499Y-54207407D01*
X25341929Y-54175423D01*
X25309577Y-54054685D01*
X25280639Y-54004565D01*
X25230520Y-53917754D01*
X25118716Y-53805950D01*
X25118715Y-53805949D01*
X25114385Y-53801619D01*
X25114374Y-53801609D01*
X24062761Y-52749996D01*
X34694435Y-52749996D01*
X34694435Y-52750003D01*
X34714630Y-52929249D01*
X34714631Y-52929254D01*
X34774211Y-53099523D01*
X34838211Y-53201378D01*
X34870184Y-53252262D01*
X34997738Y-53379816D01*
X35150478Y-53475789D01*
X35253849Y-53511960D01*
X35320745Y-53535368D01*
X35320750Y-53535369D01*
X35499996Y-53555565D01*
X35500000Y-53555565D01*
X35500004Y-53555565D01*
X35679249Y-53535369D01*
X35679252Y-53535368D01*
X35679255Y-53535368D01*
X35849522Y-53475789D01*
X36002262Y-53379816D01*
X36129816Y-53252262D01*
X36161789Y-53201378D01*
X44105050Y-53201378D01*
X44105050Y-53359360D01*
X44145939Y-53511960D01*
X44224931Y-53648777D01*
X44336642Y-53760488D01*
X44473459Y-53839480D01*
X44626059Y-53880369D01*
X44784041Y-53880369D01*
X44936641Y-53839480D01*
X45073458Y-53760488D01*
X45185169Y-53648777D01*
X45264161Y-53511960D01*
X45305050Y-53359360D01*
X45305050Y-53201378D01*
X45264161Y-53048778D01*
X45185169Y-52911961D01*
X45073458Y-52800250D01*
X44936641Y-52721258D01*
X44784041Y-52680369D01*
X44626059Y-52680369D01*
X44473459Y-52721258D01*
X44336642Y-52800250D01*
X44224931Y-52911961D01*
X44145939Y-53048778D01*
X44105050Y-53201378D01*
X36161789Y-53201378D01*
X36225789Y-53099522D01*
X36276175Y-52955527D01*
X43035473Y-52955527D01*
X43376124Y-52796678D01*
X43217595Y-52456714D01*
X43217594Y-52456714D01*
X43169110Y-52540694D01*
X43169105Y-52540704D01*
X43076023Y-52777874D01*
X43076018Y-52777891D01*
X43035473Y-52955527D01*
X36276175Y-52955527D01*
X36285368Y-52929255D01*
X36297594Y-52820745D01*
X36305565Y-52750003D01*
X36305565Y-52749996D01*
X36285369Y-52570750D01*
X36285368Y-52570745D01*
X36225788Y-52400476D01*
X36136783Y-52258826D01*
X36129816Y-52247738D01*
X36002262Y-52120184D01*
X35951750Y-52088445D01*
X35849523Y-52024211D01*
X35679254Y-51964631D01*
X35679249Y-51964630D01*
X35500004Y-51944435D01*
X35499996Y-51944435D01*
X35320750Y-51964630D01*
X35320745Y-51964631D01*
X35150476Y-52024211D01*
X34997737Y-52120184D01*
X34870184Y-52247737D01*
X34774211Y-52400476D01*
X34714631Y-52570745D01*
X34714630Y-52570750D01*
X34694435Y-52749996D01*
X24062761Y-52749996D01*
X23937465Y-52624700D01*
X23903980Y-52563377D01*
X23901928Y-52550921D01*
X23892133Y-52463980D01*
X23836661Y-52305452D01*
X23833101Y-52235675D01*
X23867830Y-52175047D01*
X23929823Y-52142820D01*
X23953704Y-52140499D01*
X24492871Y-52140499D01*
X24492872Y-52140499D01*
X24552483Y-52134091D01*
X24586667Y-52121340D01*
X24656358Y-52116357D01*
X24673327Y-52121338D01*
X24707517Y-52134091D01*
X24767127Y-52140500D01*
X25762872Y-52140499D01*
X25822483Y-52134091D01*
X25856667Y-52121340D01*
X25926358Y-52116357D01*
X25943327Y-52121338D01*
X25977517Y-52134091D01*
X26037127Y-52140500D01*
X27032872Y-52140499D01*
X27092483Y-52134091D01*
X27126667Y-52121340D01*
X27196358Y-52116357D01*
X27213327Y-52121338D01*
X27247517Y-52134091D01*
X27307127Y-52140500D01*
X28302872Y-52140499D01*
X28362483Y-52134091D01*
X28396667Y-52121340D01*
X28466358Y-52116357D01*
X28483327Y-52121338D01*
X28517517Y-52134091D01*
X28577127Y-52140500D01*
X29572872Y-52140499D01*
X29632483Y-52134091D01*
X29666667Y-52121340D01*
X29736358Y-52116357D01*
X29753327Y-52121338D01*
X29787517Y-52134091D01*
X29847127Y-52140500D01*
X30842872Y-52140499D01*
X30902483Y-52134091D01*
X30936667Y-52121340D01*
X31006358Y-52116357D01*
X31023327Y-52121338D01*
X31057517Y-52134091D01*
X31117127Y-52140500D01*
X32112872Y-52140499D01*
X32172483Y-52134091D01*
X32206667Y-52121340D01*
X32276358Y-52116357D01*
X32293327Y-52121338D01*
X32327517Y-52134091D01*
X32387127Y-52140500D01*
X33382872Y-52140499D01*
X33442483Y-52134091D01*
X33577331Y-52083796D01*
X33692546Y-51997546D01*
X33778796Y-51882331D01*
X33829091Y-51747483D01*
X33835500Y-51687873D01*
X33835500Y-51665649D01*
X36295000Y-51665649D01*
X36297899Y-51702489D01*
X36297900Y-51702495D01*
X36343716Y-51860193D01*
X36343717Y-51860196D01*
X36427314Y-52001552D01*
X36427321Y-52001561D01*
X36543438Y-52117678D01*
X36543447Y-52117685D01*
X36684801Y-52201281D01*
X36795000Y-52233296D01*
X36795000Y-52233295D01*
X37395000Y-52233295D01*
X37505198Y-52201281D01*
X37646552Y-52117685D01*
X37652722Y-52112900D01*
X37654546Y-52115252D01*
X37703595Y-52088445D01*
X37773288Y-52093402D01*
X37806063Y-52114465D01*
X37807278Y-52112900D01*
X37813447Y-52117685D01*
X37954801Y-52201281D01*
X38065000Y-52233296D01*
X38065000Y-52233295D01*
X38665000Y-52233295D01*
X38775198Y-52201281D01*
X38916552Y-52117685D01*
X38922722Y-52112900D01*
X38924546Y-52115252D01*
X38973595Y-52088445D01*
X39043288Y-52093402D01*
X39076063Y-52114465D01*
X39077278Y-52112900D01*
X39083447Y-52117685D01*
X39224801Y-52201281D01*
X39335000Y-52233296D01*
X39935000Y-52233296D01*
X40045198Y-52201281D01*
X40186552Y-52117685D01*
X40192722Y-52112900D01*
X40194546Y-52115252D01*
X40243595Y-52088445D01*
X40313288Y-52093402D01*
X40346063Y-52114465D01*
X40347278Y-52112900D01*
X40353447Y-52117685D01*
X40494801Y-52201281D01*
X40605000Y-52233296D01*
X40605000Y-52233295D01*
X41205000Y-52233295D01*
X41315198Y-52201281D01*
X41456552Y-52117685D01*
X41456561Y-52117678D01*
X41572678Y-52001561D01*
X41572685Y-52001552D01*
X41656282Y-51860196D01*
X41656283Y-51860193D01*
X41702099Y-51702495D01*
X41702100Y-51702489D01*
X41704999Y-51665649D01*
X41705000Y-51665634D01*
X41705000Y-50800000D01*
X41205000Y-50800000D01*
X41205000Y-52233295D01*
X40605000Y-52233295D01*
X40605000Y-50800000D01*
X39935000Y-50800000D01*
X39935000Y-52233296D01*
X39335000Y-52233296D01*
X39335000Y-50800000D01*
X38665000Y-50800000D01*
X38665000Y-52233295D01*
X38065000Y-52233295D01*
X38065000Y-50800000D01*
X37395000Y-50800000D01*
X37395000Y-52233295D01*
X36795000Y-52233295D01*
X36795000Y-50800000D01*
X36295000Y-50800000D01*
X36295000Y-51665649D01*
X33835500Y-51665649D01*
X33835499Y-50714498D01*
X33855183Y-50647460D01*
X33907987Y-50601705D01*
X33959494Y-50590499D01*
X35447872Y-50590499D01*
X35507483Y-50584091D01*
X35642331Y-50533796D01*
X35757546Y-50447546D01*
X35843796Y-50332331D01*
X35894091Y-50197483D01*
X35900500Y-50137873D01*
X35900499Y-49828503D01*
X35920183Y-49761465D01*
X35972987Y-49715710D01*
X35992401Y-49708730D01*
X36032092Y-49698096D01*
X36109001Y-49653692D01*
X36176900Y-49637220D01*
X36242927Y-49660072D01*
X36286118Y-49714994D01*
X36295000Y-49761080D01*
X36295000Y-50200000D01*
X38065000Y-50200000D01*
X38065000Y-48766702D01*
X38665000Y-48766702D01*
X38665000Y-50200000D01*
X39335000Y-50200000D01*
X39335000Y-48766702D01*
X39935000Y-48766702D01*
X39935000Y-50200000D01*
X40605000Y-50200000D01*
X40605000Y-48766702D01*
X41205000Y-48766702D01*
X41205000Y-50200000D01*
X41705000Y-50200000D01*
X41705000Y-49334365D01*
X41704999Y-49334350D01*
X41702100Y-49297510D01*
X41702099Y-49297504D01*
X41656283Y-49139806D01*
X41656282Y-49139803D01*
X41572685Y-48998447D01*
X41572678Y-48998438D01*
X41456561Y-48882321D01*
X41456552Y-48882314D01*
X41315196Y-48798717D01*
X41315193Y-48798715D01*
X41205001Y-48766701D01*
X41205000Y-48766702D01*
X40605000Y-48766702D01*
X40604998Y-48766701D01*
X40494806Y-48798715D01*
X40494803Y-48798717D01*
X40353447Y-48882314D01*
X40347278Y-48887100D01*
X40345457Y-48884753D01*
X40296358Y-48911564D01*
X40226666Y-48906580D01*
X40193930Y-48885541D01*
X40192722Y-48887100D01*
X40186552Y-48882314D01*
X40045196Y-48798717D01*
X40045193Y-48798715D01*
X39935001Y-48766701D01*
X39935000Y-48766702D01*
X39335000Y-48766702D01*
X39334998Y-48766701D01*
X39224806Y-48798715D01*
X39224803Y-48798717D01*
X39083447Y-48882314D01*
X39077278Y-48887100D01*
X39075457Y-48884753D01*
X39026358Y-48911564D01*
X38956666Y-48906580D01*
X38923930Y-48885541D01*
X38922722Y-48887100D01*
X38916552Y-48882314D01*
X38775196Y-48798717D01*
X38775193Y-48798715D01*
X38665001Y-48766701D01*
X38665000Y-48766702D01*
X38065000Y-48766702D01*
X38064998Y-48766701D01*
X37954806Y-48798715D01*
X37954803Y-48798717D01*
X37813447Y-48882314D01*
X37807278Y-48887100D01*
X37805457Y-48884753D01*
X37756358Y-48911564D01*
X37686666Y-48906580D01*
X37653930Y-48885541D01*
X37652722Y-48887100D01*
X37646552Y-48882314D01*
X37505196Y-48798717D01*
X37505193Y-48798716D01*
X37347495Y-48752900D01*
X37347480Y-48752898D01*
X37324120Y-48751059D01*
X37258832Y-48726174D01*
X37217363Y-48669942D01*
X37212878Y-48600216D01*
X37246171Y-48539761D01*
X37267102Y-48518831D01*
X37328426Y-48485347D01*
X37354781Y-48482514D01*
X38389981Y-48482514D01*
X38389984Y-48482514D01*
X38537092Y-48443096D01*
X38668985Y-48366948D01*
X38776676Y-48259257D01*
X39616948Y-47418985D01*
X39636983Y-47384283D01*
X39693096Y-47287092D01*
X39732514Y-47139984D01*
X39732514Y-46874367D01*
X39752199Y-46807328D01*
X39805003Y-46761573D01*
X39848311Y-46751259D01*
X39848267Y-46750691D01*
X39850694Y-46750500D01*
X39887569Y-46747598D01*
X39887571Y-46747597D01*
X39887573Y-46747597D01*
X39929191Y-46735505D01*
X40045398Y-46701744D01*
X40186865Y-46618081D01*
X40186870Y-46618075D01*
X40193031Y-46613298D01*
X40194933Y-46615750D01*
X40243579Y-46589155D01*
X40313274Y-46594104D01*
X40345695Y-46614940D01*
X40346969Y-46613298D01*
X40353132Y-46618078D01*
X40353135Y-46618081D01*
X40494602Y-46701744D01*
X40505248Y-46704837D01*
X40652426Y-46747597D01*
X40652429Y-46747597D01*
X40652431Y-46747598D01*
X40689306Y-46750500D01*
X40689314Y-46750500D01*
X41120686Y-46750500D01*
X41120694Y-46750500D01*
X41157569Y-46747598D01*
X41157571Y-46747597D01*
X41157573Y-46747597D01*
X41199191Y-46735505D01*
X41315398Y-46701744D01*
X41456865Y-46618081D01*
X41573081Y-46501865D01*
X41656744Y-46360398D01*
X41702598Y-46202569D01*
X41705500Y-46165694D01*
X41705500Y-43834306D01*
X41702598Y-43797431D01*
X41700509Y-43790241D01*
X41656745Y-43639606D01*
X41656744Y-43639603D01*
X41656744Y-43639602D01*
X41573081Y-43498135D01*
X41573079Y-43498133D01*
X41573076Y-43498129D01*
X41456870Y-43381923D01*
X41456862Y-43381917D01*
X41360129Y-43324710D01*
X41315398Y-43298256D01*
X41315397Y-43298255D01*
X41315396Y-43298255D01*
X41315393Y-43298254D01*
X41157573Y-43252402D01*
X41157567Y-43252401D01*
X41120701Y-43249500D01*
X41120694Y-43249500D01*
X40689306Y-43249500D01*
X40689298Y-43249500D01*
X40652432Y-43252401D01*
X40652426Y-43252402D01*
X40494606Y-43298254D01*
X40494603Y-43298255D01*
X40353137Y-43381917D01*
X40346969Y-43386702D01*
X40345072Y-43384256D01*
X40296358Y-43410857D01*
X40226666Y-43405873D01*
X40194296Y-43385069D01*
X40193031Y-43386702D01*
X40186864Y-43381918D01*
X40170920Y-43372489D01*
X40146723Y-43358179D01*
X40099041Y-43307112D01*
X40086537Y-43238370D01*
X40113182Y-43173781D01*
X40122154Y-43163778D01*
X40635933Y-42650000D01*
X41610219Y-42650000D01*
X41610494Y-42652694D01*
X41610495Y-42652701D01*
X41665641Y-42819119D01*
X41665643Y-42819124D01*
X41757684Y-42968345D01*
X41881654Y-43092315D01*
X42030881Y-43184359D01*
X42099999Y-43207262D01*
X42100000Y-43207262D01*
X42100000Y-42650000D01*
X43500000Y-42650000D01*
X43500000Y-43207262D01*
X43569118Y-43184359D01*
X43718345Y-43092315D01*
X43842315Y-42968345D01*
X43934356Y-42819124D01*
X43934359Y-42819117D01*
X43968504Y-42716073D01*
X44008276Y-42658628D01*
X44072791Y-42631804D01*
X44141567Y-42644119D01*
X44173891Y-42667395D01*
X44294406Y-42787910D01*
X44294410Y-42787913D01*
X44449999Y-42891875D01*
X44450008Y-42891880D01*
X44622894Y-42963491D01*
X44622902Y-42963493D01*
X44800000Y-42998720D01*
X44800000Y-42500000D01*
X44058125Y-42500000D01*
X44048521Y-42517965D01*
X44050344Y-42523785D01*
X44031860Y-42591165D01*
X43979882Y-42637856D01*
X43926364Y-42650000D01*
X43500000Y-42650000D01*
X42100000Y-42650000D01*
X41610219Y-42650000D01*
X40635933Y-42650000D01*
X40866948Y-42418985D01*
X40878483Y-42399006D01*
X40943096Y-42287092D01*
X40982514Y-42139984D01*
X40982514Y-40832796D01*
X41002199Y-40765757D01*
X41055003Y-40720002D01*
X41124161Y-40710058D01*
X41153966Y-40718235D01*
X41193365Y-40734554D01*
X41193369Y-40734555D01*
X41310676Y-40749999D01*
X41647555Y-40749999D01*
X41714594Y-40769683D01*
X41760349Y-40822487D01*
X41770293Y-40891646D01*
X41753094Y-40939096D01*
X41665643Y-41080875D01*
X41665641Y-41080880D01*
X41610495Y-41247298D01*
X41610494Y-41247305D01*
X41610219Y-41250000D01*
X44015399Y-41250000D01*
X44017425Y-41248756D01*
X44087280Y-41250191D01*
X44115004Y-41262886D01*
X44124787Y-41268920D01*
X44171513Y-41320868D01*
X44182736Y-41389830D01*
X44162794Y-41443351D01*
X44058124Y-41599999D01*
X44058124Y-41600000D01*
X44800000Y-41600000D01*
X44800000Y-41443000D01*
X44424000Y-41443000D01*
X44356961Y-41423315D01*
X44311206Y-41370511D01*
X44300000Y-41319000D01*
X44300000Y-40900000D01*
X43862023Y-40900000D01*
X43794984Y-40880315D01*
X43774342Y-40863681D01*
X43718344Y-40807683D01*
X43718340Y-40807680D01*
X43620240Y-40747171D01*
X43573515Y-40695223D01*
X43562294Y-40626261D01*
X43586962Y-40566146D01*
X43674098Y-40452589D01*
X43674099Y-40452587D01*
X43734555Y-40306631D01*
X43742012Y-40250000D01*
X43524303Y-40250000D01*
X43457264Y-40230315D01*
X43411509Y-40177511D01*
X43401565Y-40108353D01*
X43430590Y-40044797D01*
X43448816Y-40027624D01*
X43452839Y-40024536D01*
X43452841Y-40024536D01*
X43578282Y-39928282D01*
X43586823Y-39917150D01*
X43601125Y-39898513D01*
X43657553Y-39857310D01*
X43699500Y-39850000D01*
X43742010Y-39850000D01*
X43742011Y-39849998D01*
X43734558Y-39793377D01*
X43734554Y-39793365D01*
X43726163Y-39773106D01*
X43718694Y-39703637D01*
X43726164Y-39678199D01*
X43735044Y-39656762D01*
X43750500Y-39539361D01*
X43750499Y-39260640D01*
X43735044Y-39143238D01*
X43734642Y-39140184D01*
X43745408Y-39071149D01*
X43791789Y-39018894D01*
X43857581Y-39000000D01*
X44300000Y-39000000D01*
X44300000Y-36181000D01*
X44319685Y-36113961D01*
X44372489Y-36068206D01*
X44424000Y-36057000D01*
X44800000Y-36057000D01*
X44800000Y-35900000D01*
X44058125Y-35900000D01*
X44162794Y-36056648D01*
X44183672Y-36123325D01*
X44165188Y-36190706D01*
X44124787Y-36231079D01*
X44115004Y-36237113D01*
X44047612Y-36255552D01*
X44029923Y-36250000D01*
X41610219Y-36250000D01*
X41610494Y-36252694D01*
X41610495Y-36252701D01*
X41665641Y-36419119D01*
X41665643Y-36419124D01*
X41721945Y-36510403D01*
X41740385Y-36577796D01*
X41719462Y-36644459D01*
X41665820Y-36689229D01*
X41616406Y-36699500D01*
X40474500Y-36699500D01*
X40407461Y-36679815D01*
X40361706Y-36627011D01*
X40350500Y-36575500D01*
X40350500Y-34850000D01*
X41610219Y-34850000D01*
X42100000Y-34850000D01*
X43500000Y-34850000D01*
X43926364Y-34850000D01*
X43993403Y-34869685D01*
X44039158Y-34922489D01*
X44047424Y-34979982D01*
X44058124Y-35000000D01*
X44800000Y-35000000D01*
X44800000Y-34501279D01*
X44799999Y-34501278D01*
X44622900Y-34536506D01*
X44622894Y-34536508D01*
X44450008Y-34608119D01*
X44449999Y-34608124D01*
X44294410Y-34712086D01*
X44173891Y-34832605D01*
X44112568Y-34866089D01*
X44042876Y-34861105D01*
X43986943Y-34819233D01*
X43968504Y-34783926D01*
X43934359Y-34680882D01*
X43934356Y-34680875D01*
X43842315Y-34531654D01*
X43718345Y-34407684D01*
X43569120Y-34315641D01*
X43500000Y-34292737D01*
X43500000Y-34850000D01*
X42100000Y-34850000D01*
X42100000Y-34292737D01*
X42030879Y-34315641D01*
X41881654Y-34407684D01*
X41757684Y-34531654D01*
X41665643Y-34680875D01*
X41665641Y-34680880D01*
X41610495Y-34847298D01*
X41610494Y-34847305D01*
X41610219Y-34850000D01*
X40350500Y-34850000D01*
X40350500Y-31579969D01*
X40370185Y-31512930D01*
X40422989Y-31467175D01*
X40492147Y-31457231D01*
X40513492Y-31462260D01*
X40597203Y-31489999D01*
X40699991Y-31500500D01*
X43760427Y-31500499D01*
X43827465Y-31520184D01*
X43873220Y-31572988D01*
X43883164Y-31642146D01*
X43854139Y-31705702D01*
X43825524Y-31730037D01*
X43781344Y-31757287D01*
X43657289Y-31881342D01*
X43565187Y-32030663D01*
X43565185Y-32030668D01*
X43552834Y-32067942D01*
X43510001Y-32197203D01*
X43510001Y-32197204D01*
X43510000Y-32197204D01*
X43499500Y-32299983D01*
X43499500Y-33500001D01*
X43499501Y-33500018D01*
X43510000Y-33602796D01*
X43510001Y-33602799D01*
X43544752Y-33707669D01*
X43565186Y-33769334D01*
X43657288Y-33918656D01*
X43781344Y-34042712D01*
X43930666Y-34134814D01*
X44097203Y-34189999D01*
X44199991Y-34200500D01*
X46050008Y-34200499D01*
X46112899Y-34194074D01*
X46181590Y-34206843D01*
X46232475Y-34254723D01*
X46249500Y-34317432D01*
X46249500Y-34509438D01*
X46229815Y-34576477D01*
X46177011Y-34622232D01*
X46107853Y-34632176D01*
X46056611Y-34612542D01*
X46049996Y-34608122D01*
X46049991Y-34608119D01*
X45877105Y-34536508D01*
X45877099Y-34536506D01*
X45700000Y-34501278D01*
X45700000Y-35220823D01*
X45649728Y-35200000D01*
X44850272Y-35200000D01*
X44758386Y-35238060D01*
X44688060Y-35308386D01*
X44650000Y-35400272D01*
X44650000Y-35499728D01*
X44688060Y-35591614D01*
X44758386Y-35661940D01*
X44850272Y-35700000D01*
X45649728Y-35700000D01*
X45700000Y-35679176D01*
X45700000Y-36057000D01*
X46076000Y-36057000D01*
X46143039Y-36076685D01*
X46188794Y-36129489D01*
X46200000Y-36181000D01*
X46200000Y-41319000D01*
X46180315Y-41386039D01*
X46127511Y-41431794D01*
X46076000Y-41443000D01*
X45700000Y-41443000D01*
X45700000Y-41820823D01*
X45649728Y-41800000D01*
X44850272Y-41800000D01*
X44758386Y-41838060D01*
X44688060Y-41908386D01*
X44650000Y-42000272D01*
X44650000Y-42099728D01*
X44688060Y-42191614D01*
X44758386Y-42261940D01*
X44850272Y-42300000D01*
X45649728Y-42300000D01*
X45700000Y-42279176D01*
X45700000Y-42998719D01*
X45877097Y-42963493D01*
X45877105Y-42963491D01*
X46049991Y-42891880D01*
X46050000Y-42891875D01*
X46056605Y-42887462D01*
X46123282Y-42866581D01*
X46190663Y-42885063D01*
X46237355Y-42937040D01*
X46249500Y-42990561D01*
X46249500Y-43790241D01*
X46229815Y-43857280D01*
X46177011Y-43903035D01*
X46107853Y-43912979D01*
X46044297Y-43883954D01*
X46037819Y-43877922D01*
X45871402Y-43711506D01*
X45871395Y-43711501D01*
X45677834Y-43575967D01*
X45677830Y-43575965D01*
X45677828Y-43575964D01*
X45463663Y-43476097D01*
X45463659Y-43476096D01*
X45463655Y-43476094D01*
X45235413Y-43414938D01*
X45235403Y-43414936D01*
X45000001Y-43394341D01*
X44999999Y-43394341D01*
X44764596Y-43414936D01*
X44764586Y-43414938D01*
X44536344Y-43476094D01*
X44536335Y-43476098D01*
X44322171Y-43575964D01*
X44322169Y-43575965D01*
X44128597Y-43711505D01*
X43961505Y-43878597D01*
X43825965Y-44072169D01*
X43825964Y-44072171D01*
X43726098Y-44286335D01*
X43726094Y-44286344D01*
X43664938Y-44514586D01*
X43664936Y-44514596D01*
X43644341Y-44749999D01*
X43644341Y-44750000D01*
X43664936Y-44985403D01*
X43664938Y-44985413D01*
X43726094Y-45213655D01*
X43726096Y-45213659D01*
X43726097Y-45213663D01*
X43753542Y-45272518D01*
X43825965Y-45427830D01*
X43825967Y-45427834D01*
X43961501Y-45621395D01*
X43961506Y-45621402D01*
X44128597Y-45788493D01*
X44128603Y-45788498D01*
X44314158Y-45918425D01*
X44357783Y-45973002D01*
X44364977Y-46042500D01*
X44333454Y-46104855D01*
X44314158Y-46121575D01*
X44128597Y-46251505D01*
X43961505Y-46418597D01*
X43825965Y-46612169D01*
X43825964Y-46612171D01*
X43726098Y-46826335D01*
X43726094Y-46826344D01*
X43664938Y-47054586D01*
X43664936Y-47054596D01*
X43644341Y-47289999D01*
X43644341Y-47290000D01*
X43664936Y-47525403D01*
X43664938Y-47525413D01*
X43726094Y-47753655D01*
X43726096Y-47753659D01*
X43726097Y-47753663D01*
X43825965Y-47967830D01*
X43825967Y-47967834D01*
X43890207Y-48059577D01*
X43944292Y-48136819D01*
X43961501Y-48161395D01*
X43961506Y-48161402D01*
X44083430Y-48283326D01*
X44116915Y-48344649D01*
X44111931Y-48414341D01*
X44070059Y-48470274D01*
X44039083Y-48487189D01*
X43907669Y-48536203D01*
X43907664Y-48536206D01*
X43792455Y-48622452D01*
X43792452Y-48622455D01*
X43706206Y-48737664D01*
X43706202Y-48737671D01*
X43655908Y-48872517D01*
X43649501Y-48932116D01*
X43649500Y-48932135D01*
X43649500Y-50727870D01*
X43649501Y-50727876D01*
X43655908Y-50787483D01*
X43706202Y-50922328D01*
X43706206Y-50922335D01*
X43792452Y-51037544D01*
X43792455Y-51037547D01*
X43907664Y-51123793D01*
X43907671Y-51123797D01*
X44042517Y-51174091D01*
X44042516Y-51174091D01*
X44049444Y-51174835D01*
X44102127Y-51180500D01*
X45897872Y-51180499D01*
X45957483Y-51174091D01*
X46082167Y-51127587D01*
X46151859Y-51122603D01*
X46213182Y-51156088D01*
X46246666Y-51217411D01*
X46249500Y-51243769D01*
X46249500Y-52136088D01*
X46229815Y-52203127D01*
X46177011Y-52248882D01*
X46107853Y-52258826D01*
X46044297Y-52229801D01*
X46028553Y-52213401D01*
X45954729Y-52120828D01*
X45767955Y-51947528D01*
X45557427Y-51803993D01*
X45557426Y-51803992D01*
X45327873Y-51693447D01*
X45327875Y-51693447D01*
X45084400Y-51618345D01*
X45029558Y-51610078D01*
X45204012Y-51984197D01*
X45204014Y-51984200D01*
X46208579Y-54138497D01*
X46240431Y-54178666D01*
X46249500Y-54225215D01*
X46249500Y-63763179D01*
X46229815Y-63830218D01*
X46177011Y-63875973D01*
X46107853Y-63885917D01*
X46044297Y-63856892D01*
X46014500Y-63818451D01*
X45950779Y-63690483D01*
X45939673Y-63668179D01*
X45850395Y-63549956D01*
X45816762Y-63505418D01*
X45666041Y-63368019D01*
X45666039Y-63368017D01*
X45492642Y-63260655D01*
X45492635Y-63260651D01*
X45354890Y-63207289D01*
X45302456Y-63186976D01*
X45101976Y-63149500D01*
X44898024Y-63149500D01*
X44697544Y-63186976D01*
X44697541Y-63186976D01*
X44697541Y-63186977D01*
X44507364Y-63260651D01*
X44507357Y-63260655D01*
X44333960Y-63368017D01*
X44333958Y-63368019D01*
X44183237Y-63505418D01*
X44060327Y-63668178D01*
X43969422Y-63850739D01*
X43969417Y-63850752D01*
X43913602Y-64046917D01*
X43894438Y-64253742D01*
X43868652Y-64318679D01*
X43858648Y-64329982D01*
X43667049Y-64521581D01*
X43617812Y-64595271D01*
X43584921Y-64644496D01*
X43584914Y-64644508D01*
X43528342Y-64781086D01*
X43528340Y-64781092D01*
X43499500Y-64926079D01*
X43499500Y-65843942D01*
X43479815Y-65910981D01*
X43440598Y-65949479D01*
X43324394Y-66021154D01*
X43257003Y-66039594D01*
X43190340Y-66018671D01*
X43145570Y-65965029D01*
X43135299Y-65915615D01*
X43135299Y-65482229D01*
X43135298Y-65482223D01*
X43135297Y-65482216D01*
X43130099Y-65433857D01*
X43128891Y-65422616D01*
X43078597Y-65287771D01*
X43078593Y-65287764D01*
X42992347Y-65172555D01*
X42992344Y-65172552D01*
X42877135Y-65086306D01*
X42877128Y-65086302D01*
X42742282Y-65036008D01*
X42742283Y-65036008D01*
X42682683Y-65029601D01*
X42682681Y-65029600D01*
X42682673Y-65029600D01*
X42682665Y-65029600D01*
X39474500Y-65029600D01*
X39407461Y-65009915D01*
X39361706Y-64957111D01*
X39350500Y-64905600D01*
X39350500Y-64076727D01*
X39370185Y-64009688D01*
X39422989Y-63963933D01*
X39492147Y-63953989D01*
X39555703Y-63983014D01*
X39567728Y-63994968D01*
X39655241Y-64094758D01*
X39877044Y-64289274D01*
X39920094Y-64318039D01*
X40122335Y-64453172D01*
X40386923Y-64583652D01*
X40666278Y-64678481D01*
X40955620Y-64736034D01*
X40967612Y-64736820D01*
X41249993Y-64755329D01*
X41250000Y-64755329D01*
X41250007Y-64755329D01*
X41485675Y-64739881D01*
X41544380Y-64736034D01*
X41833722Y-64678481D01*
X42113077Y-64583652D01*
X42377665Y-64453172D01*
X42622957Y-64289273D01*
X42844758Y-64094758D01*
X43039273Y-63872957D01*
X43203172Y-63627665D01*
X43333652Y-63363077D01*
X43428481Y-63083722D01*
X43486034Y-62794380D01*
X43492251Y-62699530D01*
X43505329Y-62500007D01*
X43505329Y-62499992D01*
X43486035Y-62205636D01*
X43486034Y-62205620D01*
X43428481Y-61916278D01*
X43333652Y-61636923D01*
X43203172Y-61372336D01*
X43039273Y-61127043D01*
X42932271Y-61005031D01*
X42844758Y-60905241D01*
X42622955Y-60710725D01*
X42377667Y-60546829D01*
X42377660Y-60546825D01*
X42113080Y-60416349D01*
X41833730Y-60321521D01*
X41833724Y-60321519D01*
X41833722Y-60321519D01*
X41544380Y-60263966D01*
X41544373Y-60263965D01*
X41544363Y-60263964D01*
X41250007Y-60244671D01*
X41249993Y-60244671D01*
X40955636Y-60263964D01*
X40955624Y-60263965D01*
X40955620Y-60263966D01*
X40955612Y-60263967D01*
X40955609Y-60263968D01*
X40666283Y-60321518D01*
X40666269Y-60321521D01*
X40386919Y-60416349D01*
X40122334Y-60546828D01*
X39877041Y-60710728D01*
X39655241Y-60905241D01*
X39567728Y-61005031D01*
X39508726Y-61042455D01*
X39438857Y-61042039D01*
X39380305Y-61003915D01*
X39351659Y-60940188D01*
X39350500Y-60923272D01*
X39350500Y-59300096D01*
X39370185Y-59233057D01*
X39386815Y-59212419D01*
X39962416Y-58636817D01*
X40023739Y-58603333D01*
X40050097Y-58600499D01*
X40750002Y-58600499D01*
X40750008Y-58600499D01*
X40819937Y-58593355D01*
X40888627Y-58606124D01*
X40939512Y-58654004D01*
X40956533Y-58715728D01*
X40956979Y-58771965D01*
X40998621Y-58909733D01*
X41005953Y-58920945D01*
X41077390Y-59030189D01*
X41186904Y-59123571D01*
X41240727Y-59149982D01*
X43585960Y-60003576D01*
X43644168Y-60017942D01*
X43644171Y-60017941D01*
X43644172Y-60017942D01*
X43740112Y-60017181D01*
X43788085Y-60016801D01*
X43925851Y-59975159D01*
X44046306Y-59896391D01*
X44139688Y-59786877D01*
X44166099Y-59733054D01*
X45019693Y-57387821D01*
X45034059Y-57329613D01*
X45032918Y-57185696D01*
X44991276Y-57047930D01*
X44912508Y-56927475D01*
X44802994Y-56834093D01*
X44802993Y-56834092D01*
X44775581Y-56820641D01*
X44749171Y-56807682D01*
X44749165Y-56807679D01*
X44749161Y-56807678D01*
X42403947Y-55954091D01*
X42403940Y-55954088D01*
X42364448Y-55944341D01*
X42345730Y-55939722D01*
X42345729Y-55939722D01*
X42345725Y-55939721D01*
X42201814Y-55940862D01*
X42064047Y-55982504D01*
X41943594Y-56061271D01*
X41943591Y-56061274D01*
X41850209Y-56170787D01*
X41823799Y-56224610D01*
X41823797Y-56224613D01*
X41609764Y-56812665D01*
X41568338Y-56868929D01*
X41503069Y-56893864D01*
X41434680Y-56879554D01*
X41387703Y-56835350D01*
X41292712Y-56681344D01*
X41199049Y-56587681D01*
X41165564Y-56526358D01*
X41170548Y-56456666D01*
X41199049Y-56412319D01*
X41218660Y-56392708D01*
X41292712Y-56318656D01*
X41384814Y-56169334D01*
X41439999Y-56002797D01*
X41450500Y-55900009D01*
X41450499Y-55099992D01*
X41442539Y-55022073D01*
X41439999Y-54997203D01*
X41439998Y-54997200D01*
X41416562Y-54926476D01*
X41384814Y-54830666D01*
X41346888Y-54769177D01*
X43878490Y-54769177D01*
X44082226Y-54867290D01*
X44082224Y-54867290D01*
X44325702Y-54942393D01*
X44325710Y-54942395D01*
X44380540Y-54950659D01*
X44380541Y-54950658D01*
X44221359Y-54609293D01*
X43878491Y-54769176D01*
X43878490Y-54769177D01*
X41346888Y-54769177D01*
X41292712Y-54681344D01*
X41168656Y-54557288D01*
X41019334Y-54465186D01*
X40852797Y-54410001D01*
X40852795Y-54410000D01*
X40750010Y-54399500D01*
X39749998Y-54399500D01*
X39749980Y-54399501D01*
X39647203Y-54410000D01*
X39647200Y-54410001D01*
X39480668Y-54465185D01*
X39480663Y-54465187D01*
X39331342Y-54557289D01*
X39207289Y-54681342D01*
X39207288Y-54681344D01*
X39133515Y-54800951D01*
X39124481Y-54815597D01*
X39072533Y-54862321D01*
X39018942Y-54874500D01*
X38231058Y-54874500D01*
X38164019Y-54854815D01*
X38125519Y-54815597D01*
X38042712Y-54681344D01*
X37918656Y-54557288D01*
X37769334Y-54465186D01*
X37602797Y-54410001D01*
X37602795Y-54410000D01*
X37500010Y-54399500D01*
X36499998Y-54399500D01*
X36499980Y-54399501D01*
X36397203Y-54410000D01*
X36397200Y-54410001D01*
X36230668Y-54465185D01*
X36230663Y-54465187D01*
X36081342Y-54557289D01*
X35957289Y-54681342D01*
X35865187Y-54830663D01*
X35865185Y-54830668D01*
X35840721Y-54904496D01*
X35810001Y-54997203D01*
X35810001Y-54997204D01*
X35810000Y-54997204D01*
X35799500Y-55099983D01*
X35799500Y-55850001D01*
X35799501Y-55850019D01*
X35810000Y-55952796D01*
X35810001Y-55952799D01*
X35865185Y-56119331D01*
X35865187Y-56119336D01*
X35882860Y-56147989D01*
X35957288Y-56268656D01*
X36081344Y-56392712D01*
X36084628Y-56394737D01*
X36084653Y-56394753D01*
X36086445Y-56396746D01*
X36087011Y-56397193D01*
X36086934Y-56397289D01*
X36131379Y-56446699D01*
X36142603Y-56515661D01*
X36114761Y-56579744D01*
X36084665Y-56605826D01*
X36081660Y-56607679D01*
X36081655Y-56607683D01*
X35957684Y-56731654D01*
X35865641Y-56880879D01*
X35842737Y-56950000D01*
X38157262Y-56950000D01*
X38134358Y-56880879D01*
X38042315Y-56731654D01*
X37918344Y-56607683D01*
X37918341Y-56607681D01*
X37915339Y-56605829D01*
X37913713Y-56604021D01*
X37912677Y-56603202D01*
X37912817Y-56603024D01*
X37868617Y-56553880D01*
X37857397Y-56484917D01*
X37885243Y-56420836D01*
X37915344Y-56394754D01*
X37918656Y-56392712D01*
X38042712Y-56268656D01*
X38125519Y-56134402D01*
X38177467Y-56087679D01*
X38231058Y-56075500D01*
X38994551Y-56075500D01*
X39061590Y-56095185D01*
X39107345Y-56147989D01*
X39112256Y-56160493D01*
X39115186Y-56169334D01*
X39164946Y-56250009D01*
X39207289Y-56318657D01*
X39300951Y-56412319D01*
X39334436Y-56473642D01*
X39329452Y-56543334D01*
X39300951Y-56587681D01*
X39207289Y-56681342D01*
X39115187Y-56830663D01*
X39115185Y-56830668D01*
X39114050Y-56834093D01*
X39060001Y-56997203D01*
X39060001Y-56997204D01*
X39060000Y-56997204D01*
X39049500Y-57099983D01*
X39049500Y-57799902D01*
X39029815Y-57866941D01*
X39013181Y-57887583D01*
X38381286Y-58519478D01*
X38381284Y-58519480D01*
X38352242Y-58548522D01*
X38269479Y-58631284D01*
X38266285Y-58636818D01*
X38260318Y-58647154D01*
X38190423Y-58768215D01*
X38149499Y-58920943D01*
X38149499Y-58920945D01*
X38149499Y-59089046D01*
X38149500Y-59089059D01*
X38149500Y-60126000D01*
X38129815Y-60193039D01*
X38077011Y-60238794D01*
X38025500Y-60250000D01*
X37250000Y-60250000D01*
X37250000Y-64750000D01*
X38025500Y-64750000D01*
X38092539Y-64769685D01*
X38138294Y-64822489D01*
X38149500Y-64874000D01*
X38149500Y-64905600D01*
X38129815Y-64972639D01*
X38077011Y-65018394D01*
X38025500Y-65029600D01*
X36973529Y-65029600D01*
X36973523Y-65029601D01*
X36913916Y-65036008D01*
X36779071Y-65086302D01*
X36779064Y-65086306D01*
X36663855Y-65172552D01*
X36663852Y-65172555D01*
X36577606Y-65287764D01*
X36577602Y-65287771D01*
X36527308Y-65422617D01*
X36520901Y-65482216D01*
X36520901Y-65482223D01*
X36520900Y-65482235D01*
X36520900Y-71089770D01*
X36520901Y-71089776D01*
X36527308Y-71149383D01*
X36577602Y-71284228D01*
X36577606Y-71284235D01*
X36663852Y-71399444D01*
X36663855Y-71399447D01*
X36779064Y-71485693D01*
X36779071Y-71485697D01*
X36913917Y-71535991D01*
X36913916Y-71535991D01*
X36915721Y-71536185D01*
X36973527Y-71542400D01*
X42682672Y-71542399D01*
X42742283Y-71535991D01*
X42877131Y-71485696D01*
X42992346Y-71399446D01*
X43078596Y-71284231D01*
X43128891Y-71149383D01*
X43135300Y-71089773D01*
X43135299Y-70083794D01*
X43154983Y-70016758D01*
X43207787Y-69971003D01*
X43276946Y-69961059D01*
X43324396Y-69978259D01*
X43455869Y-70059353D01*
X43455880Y-70059358D01*
X43622302Y-70114505D01*
X43662499Y-70118611D01*
X43662500Y-70118611D01*
X44837500Y-70118611D01*
X44877696Y-70114505D01*
X44877698Y-70114505D01*
X45044119Y-70059358D01*
X45044124Y-70059356D01*
X45193345Y-69967315D01*
X45317315Y-69843345D01*
X45409358Y-69694120D01*
X45432263Y-69625000D01*
X44837500Y-69625000D01*
X44837500Y-70118611D01*
X43662500Y-70118611D01*
X43662500Y-68574000D01*
X43682185Y-68506961D01*
X43734989Y-68461206D01*
X43786500Y-68450000D01*
X45432262Y-68450000D01*
X45409358Y-68380879D01*
X45317315Y-68231654D01*
X45193344Y-68107683D01*
X45193341Y-68107681D01*
X45190339Y-68105829D01*
X45188713Y-68104021D01*
X45187677Y-68103202D01*
X45187817Y-68103024D01*
X45143617Y-68053880D01*
X45132397Y-67984917D01*
X45160243Y-67920836D01*
X45190344Y-67894754D01*
X45193656Y-67892712D01*
X45317712Y-67768656D01*
X45409814Y-67619334D01*
X45464999Y-67452797D01*
X45475500Y-67350009D01*
X45475499Y-66574992D01*
X45475159Y-66571667D01*
X45464999Y-66472203D01*
X45464998Y-66472200D01*
X45439605Y-66395570D01*
X45409814Y-66305666D01*
X45317712Y-66156344D01*
X45193656Y-66032288D01*
X45059402Y-65949480D01*
X45012679Y-65897533D01*
X45000500Y-65843942D01*
X45000500Y-65472437D01*
X45020185Y-65405398D01*
X45072989Y-65359643D01*
X45101715Y-65350548D01*
X45101972Y-65350500D01*
X45101976Y-65350500D01*
X45302456Y-65313024D01*
X45492637Y-65239348D01*
X45666041Y-65131981D01*
X45816764Y-64994579D01*
X45939673Y-64831821D01*
X46014500Y-64681548D01*
X46062003Y-64630311D01*
X46129666Y-64612890D01*
X46196006Y-64634816D01*
X46239961Y-64689127D01*
X46249500Y-64736820D01*
X46249500Y-71245933D01*
X46249235Y-71254043D01*
X46232925Y-71502883D01*
X46230807Y-71518964D01*
X46182954Y-71759535D01*
X46178756Y-71775202D01*
X46099909Y-72007479D01*
X46093702Y-72022465D01*
X45985212Y-72242460D01*
X45977102Y-72256507D01*
X45840825Y-72460460D01*
X45830951Y-72473328D01*
X45669218Y-72657749D01*
X45657744Y-72669222D01*
X45654633Y-72671950D01*
X45591250Y-72701350D01*
X45522034Y-72691814D01*
X45468961Y-72646372D01*
X45448881Y-72579450D01*
X45449406Y-72567298D01*
X45455643Y-72500000D01*
X45435115Y-72278464D01*
X45374229Y-72064472D01*
X45353312Y-72022465D01*
X45275061Y-71865316D01*
X45275056Y-71865308D01*
X45140979Y-71687761D01*
X44976562Y-71537876D01*
X44976560Y-71537874D01*
X44787404Y-71420754D01*
X44787398Y-71420752D01*
X44579940Y-71340382D01*
X44361243Y-71299500D01*
X44138757Y-71299500D01*
X43920060Y-71340382D01*
X43788864Y-71391207D01*
X43712601Y-71420752D01*
X43712595Y-71420754D01*
X43523439Y-71537874D01*
X43523437Y-71537876D01*
X43359020Y-71687761D01*
X43224943Y-71865308D01*
X43224938Y-71865316D01*
X43125775Y-72064461D01*
X43125769Y-72064476D01*
X43064885Y-72278462D01*
X43064884Y-72278464D01*
X43044357Y-72499999D01*
X43044357Y-72500000D01*
X43064884Y-72721535D01*
X43064885Y-72721537D01*
X43125769Y-72935523D01*
X43125775Y-72935538D01*
X43192844Y-73070228D01*
X43205105Y-73139013D01*
X43178232Y-73203508D01*
X43120757Y-73243236D01*
X43081844Y-73249500D01*
X34418156Y-73249500D01*
X34351117Y-73229815D01*
X34305362Y-73177011D01*
X34295418Y-73107853D01*
X34307156Y-73070228D01*
X34374224Y-72935538D01*
X34374223Y-72935538D01*
X34374229Y-72935528D01*
X34435115Y-72721536D01*
X34455643Y-72500000D01*
X34435115Y-72278464D01*
X34374229Y-72064472D01*
X34353312Y-72022465D01*
X34275061Y-71865316D01*
X34275056Y-71865308D01*
X34140978Y-71687760D01*
X34137118Y-71683526D01*
X34138434Y-71682326D01*
X34106395Y-71629603D01*
X34108152Y-71559756D01*
X34147392Y-71501946D01*
X34182881Y-71481489D01*
X34240884Y-71459855D01*
X34240893Y-71459850D01*
X34355987Y-71373690D01*
X34355990Y-71373687D01*
X34442150Y-71258593D01*
X34442154Y-71258586D01*
X34492396Y-71123879D01*
X34492398Y-71123872D01*
X34498799Y-71064344D01*
X34498800Y-71064327D01*
X34498800Y-71016500D01*
X31314400Y-71016500D01*
X31314400Y-71064344D01*
X31320801Y-71123872D01*
X31320803Y-71123879D01*
X31371045Y-71258586D01*
X31371049Y-71258593D01*
X31457209Y-71373687D01*
X31457212Y-71373690D01*
X31572306Y-71459850D01*
X31572313Y-71459854D01*
X31707020Y-71510096D01*
X31707027Y-71510098D01*
X31766555Y-71516499D01*
X31766572Y-71516500D01*
X32239326Y-71516500D01*
X32306365Y-71536185D01*
X32352120Y-71588989D01*
X32362064Y-71658147D01*
X32338280Y-71715227D01*
X32224943Y-71865308D01*
X32224938Y-71865316D01*
X32125775Y-72064461D01*
X32125769Y-72064476D01*
X32064885Y-72278462D01*
X32064884Y-72278464D01*
X32044357Y-72499999D01*
X32044357Y-72500000D01*
X32064884Y-72721535D01*
X32064885Y-72721537D01*
X32125769Y-72935523D01*
X32125775Y-72935538D01*
X32192844Y-73070228D01*
X32205105Y-73139013D01*
X32178232Y-73203508D01*
X32120757Y-73243236D01*
X32081844Y-73249500D01*
X18253051Y-73249500D01*
X18246968Y-73249351D01*
X18226900Y-73248365D01*
X17913071Y-73232947D01*
X17900962Y-73231754D01*
X17573305Y-73183151D01*
X17561369Y-73180777D01*
X17240055Y-73100292D01*
X17228411Y-73096759D01*
X16916540Y-72985170D01*
X16905301Y-72980515D01*
X16605844Y-72838883D01*
X16595121Y-72833150D01*
X16311011Y-72662862D01*
X16300893Y-72656102D01*
X16034829Y-72458775D01*
X16025423Y-72451055D01*
X15834998Y-72278464D01*
X15779986Y-72228604D01*
X15771395Y-72220013D01*
X15548944Y-71974576D01*
X15541224Y-71965170D01*
X15388714Y-71759535D01*
X15343895Y-71699103D01*
X15337137Y-71688988D01*
X15166844Y-71404871D01*
X15161120Y-71394163D01*
X15019479Y-71094688D01*
X15014829Y-71083459D01*
X15007983Y-71064327D01*
X14971038Y-70961071D01*
X20800000Y-70961071D01*
X20810445Y-71048063D01*
X20865034Y-71186491D01*
X20954945Y-71305054D01*
X21073508Y-71394965D01*
X21211936Y-71449554D01*
X21298928Y-71460000D01*
X21300000Y-71460000D01*
X21300000Y-70380000D01*
X20800000Y-70380000D01*
X20800000Y-70961071D01*
X14971038Y-70961071D01*
X14903240Y-70771588D01*
X14899707Y-70759944D01*
X14890958Y-70725015D01*
X14819219Y-70438617D01*
X14816848Y-70426694D01*
X14768245Y-70099037D01*
X14767052Y-70086927D01*
X14750649Y-69753032D01*
X14750500Y-69746948D01*
X14750500Y-58125000D01*
X15817737Y-58125000D01*
X16412500Y-58125000D01*
X16412500Y-57631387D01*
X16372306Y-57635493D01*
X16205880Y-57690641D01*
X16205875Y-57690643D01*
X16056654Y-57782684D01*
X15932684Y-57906654D01*
X15840641Y-58055879D01*
X15817737Y-58125000D01*
X14750500Y-58125000D01*
X14750500Y-32632155D01*
X15900000Y-32632155D01*
X15900000Y-32680000D01*
X16700000Y-32680000D01*
X17600000Y-32680000D01*
X18400000Y-32680000D01*
X18400000Y-32632172D01*
X18399999Y-32632155D01*
X18393598Y-32572627D01*
X18393596Y-32572620D01*
X18343354Y-32437913D01*
X18343350Y-32437906D01*
X18257190Y-32322812D01*
X18257187Y-32322809D01*
X18142093Y-32236649D01*
X18142086Y-32236645D01*
X18007379Y-32186403D01*
X18007372Y-32186401D01*
X17947844Y-32180000D01*
X17600000Y-32180000D01*
X17600000Y-32680000D01*
X16700000Y-32680000D01*
X16700000Y-32180000D01*
X16352155Y-32180000D01*
X16292627Y-32186401D01*
X16292620Y-32186403D01*
X16157913Y-32236645D01*
X16157906Y-32236649D01*
X16042812Y-32322809D01*
X16042809Y-32322812D01*
X15956649Y-32437906D01*
X15956645Y-32437913D01*
X15906403Y-32572620D01*
X15906401Y-32572627D01*
X15900000Y-32632155D01*
X14750500Y-32632155D01*
X14750500Y-29865602D01*
X14770185Y-29798563D01*
X14822989Y-29752808D01*
X14892147Y-29742864D01*
X14955703Y-29771889D01*
X14981885Y-29803599D01*
X15006729Y-29846630D01*
X15019479Y-29868715D01*
X15138349Y-29987585D01*
X15138354Y-29987589D01*
X15934934Y-30784170D01*
X15934936Y-30784171D01*
X15934940Y-30784174D01*
X16071859Y-30863223D01*
X16071866Y-30863227D01*
X16224593Y-30904151D01*
X16224595Y-30904151D01*
X16390304Y-30904151D01*
X16390320Y-30904150D01*
X17320701Y-30904150D01*
X17387740Y-30923835D01*
X17433495Y-30976639D01*
X17444701Y-31028150D01*
X17444701Y-31107176D01*
X17451108Y-31166783D01*
X17501402Y-31301628D01*
X17501406Y-31301635D01*
X17587652Y-31416844D01*
X17587655Y-31416847D01*
X17702864Y-31503093D01*
X17702871Y-31503097D01*
X17729235Y-31512930D01*
X17837717Y-31553391D01*
X17897327Y-31559800D01*
X18602672Y-31559799D01*
X18662283Y-31553391D01*
X18797131Y-31503096D01*
X18912346Y-31416846D01*
X18998596Y-31301631D01*
X19048891Y-31166783D01*
X19055300Y-31107173D01*
X19055299Y-29500128D01*
X19048891Y-29440517D01*
X19041590Y-29420943D01*
X18998597Y-29305671D01*
X18998593Y-29305664D01*
X18912347Y-29190455D01*
X18912344Y-29190452D01*
X18797135Y-29104206D01*
X18797128Y-29104202D01*
X18662286Y-29053910D01*
X18662285Y-29053909D01*
X18662283Y-29053909D01*
X18602673Y-29047500D01*
X18602663Y-29047500D01*
X17897329Y-29047500D01*
X17897323Y-29047501D01*
X17837716Y-29053908D01*
X17702871Y-29104202D01*
X17702864Y-29104206D01*
X17587655Y-29190452D01*
X17587652Y-29190455D01*
X17501406Y-29305664D01*
X17501402Y-29305671D01*
X17451108Y-29440517D01*
X17446792Y-29480666D01*
X17444701Y-29500123D01*
X17444700Y-29500135D01*
X17444700Y-29579150D01*
X17425015Y-29646189D01*
X17372211Y-29691944D01*
X17320700Y-29703150D01*
X16603748Y-29703150D01*
X16536709Y-29683465D01*
X16516067Y-29666831D01*
X16136819Y-29287583D01*
X16103334Y-29226260D01*
X16100500Y-29199902D01*
X16100500Y-23499844D01*
X17445200Y-23499844D01*
X17451601Y-23559372D01*
X17451603Y-23559379D01*
X17501845Y-23694086D01*
X17501849Y-23694093D01*
X17588009Y-23809187D01*
X17588012Y-23809190D01*
X17703106Y-23895350D01*
X17703113Y-23895354D01*
X17837820Y-23945596D01*
X17837827Y-23945598D01*
X17897355Y-23951999D01*
X17897372Y-23952000D01*
X17945200Y-23952000D01*
X18554800Y-23952000D01*
X18602628Y-23952000D01*
X18602644Y-23951999D01*
X18662172Y-23945598D01*
X18662179Y-23945596D01*
X18796886Y-23895354D01*
X18796893Y-23895350D01*
X18911987Y-23809190D01*
X18911990Y-23809187D01*
X18998150Y-23694093D01*
X18998154Y-23694086D01*
X19048396Y-23559379D01*
X19048398Y-23559372D01*
X19054799Y-23499844D01*
X22195200Y-23499844D01*
X22201601Y-23559372D01*
X22201603Y-23559379D01*
X22251845Y-23694086D01*
X22251849Y-23694093D01*
X22338009Y-23809187D01*
X22338012Y-23809190D01*
X22453106Y-23895350D01*
X22453113Y-23895354D01*
X22587820Y-23945596D01*
X22587827Y-23945598D01*
X22647355Y-23951999D01*
X22647372Y-23952000D01*
X22695200Y-23952000D01*
X23304800Y-23952000D01*
X23352628Y-23952000D01*
X23352644Y-23951999D01*
X23412172Y-23945598D01*
X23412179Y-23945596D01*
X23546886Y-23895354D01*
X23546893Y-23895350D01*
X23661987Y-23809190D01*
X23661990Y-23809187D01*
X23748150Y-23694093D01*
X23748154Y-23694086D01*
X23798396Y-23559379D01*
X23798398Y-23559372D01*
X23804799Y-23499844D01*
X23804800Y-23499827D01*
X23804800Y-23001150D01*
X23304800Y-23001150D01*
X23304800Y-23952000D01*
X22695200Y-23952000D01*
X22695200Y-23001150D01*
X22195200Y-23001150D01*
X22195200Y-23499844D01*
X19054799Y-23499844D01*
X19054800Y-23499827D01*
X19054800Y-23001150D01*
X18554800Y-23001150D01*
X18554800Y-23952000D01*
X17945200Y-23952000D01*
X17945200Y-23001150D01*
X17445200Y-23001150D01*
X17445200Y-23499844D01*
X16100500Y-23499844D01*
X16100500Y-23300097D01*
X16120185Y-23233058D01*
X16136819Y-23212416D01*
X17233519Y-22115716D01*
X17294842Y-22082231D01*
X17364534Y-22087215D01*
X17420467Y-22129087D01*
X17444884Y-22194551D01*
X17445200Y-22203397D01*
X17445200Y-22391550D01*
X19054800Y-22391550D01*
X19054800Y-22074500D01*
X19074485Y-22007461D01*
X19127289Y-21961706D01*
X19178800Y-21950500D01*
X20063331Y-21950500D01*
X20063347Y-21950501D01*
X20070943Y-21950501D01*
X20229054Y-21950501D01*
X20229057Y-21950501D01*
X20381785Y-21909577D01*
X20410748Y-21892855D01*
X22195200Y-21892855D01*
X22195200Y-22391550D01*
X22695200Y-22391550D01*
X23304800Y-22391550D01*
X23804800Y-22391550D01*
X23804800Y-21892872D01*
X23804799Y-21892855D01*
X23798398Y-21833327D01*
X23798396Y-21833320D01*
X23748154Y-21698613D01*
X23748150Y-21698606D01*
X23661990Y-21583512D01*
X23661987Y-21583509D01*
X23546893Y-21497349D01*
X23546886Y-21497345D01*
X23412179Y-21447103D01*
X23412172Y-21447101D01*
X23352644Y-21440700D01*
X23304800Y-21440700D01*
X23304800Y-22391550D01*
X22695200Y-22391550D01*
X22695200Y-21440700D01*
X22647355Y-21440700D01*
X22587827Y-21447101D01*
X22587820Y-21447103D01*
X22453113Y-21497345D01*
X22453106Y-21497349D01*
X22338012Y-21583509D01*
X22338009Y-21583512D01*
X22251849Y-21698606D01*
X22251845Y-21698613D01*
X22201603Y-21833320D01*
X22201601Y-21833327D01*
X22195200Y-21892855D01*
X20410748Y-21892855D01*
X20433706Y-21879600D01*
X20518716Y-21830520D01*
X20630520Y-21718716D01*
X20630520Y-21718714D01*
X20640724Y-21708511D01*
X20640728Y-21708506D01*
X21612416Y-20736818D01*
X21673739Y-20703333D01*
X21700097Y-20700499D01*
X22400002Y-20700499D01*
X22400008Y-20700499D01*
X22502797Y-20689999D01*
X22669334Y-20634814D01*
X22818656Y-20542712D01*
X22912319Y-20449049D01*
X22973642Y-20415564D01*
X23043334Y-20420548D01*
X23087681Y-20449049D01*
X23181344Y-20542712D01*
X23330666Y-20634814D01*
X23497203Y-20689999D01*
X23599991Y-20700500D01*
X24400008Y-20700499D01*
X24400016Y-20700498D01*
X24400019Y-20700498D01*
X24456302Y-20694748D01*
X24502797Y-20689999D01*
X24669334Y-20634814D01*
X24818656Y-20542712D01*
X24917877Y-20443490D01*
X24979196Y-20410008D01*
X25048888Y-20414992D01*
G37*
%TD.AperFunction*%
%TA.AperFunction,Conductor*%
G36*
X20205304Y-54842801D02*
G01*
X20245382Y-54869618D01*
X20318784Y-54943020D01*
X20318786Y-54943021D01*
X20318790Y-54943024D01*
X20455709Y-55022073D01*
X20455716Y-55022077D01*
X20567519Y-55052034D01*
X20608442Y-55063000D01*
X20608443Y-55063000D01*
X20986232Y-55063000D01*
X21053271Y-55082685D01*
X21091769Y-55121901D01*
X21182288Y-55268656D01*
X21306344Y-55392712D01*
X21309628Y-55394737D01*
X21309653Y-55394753D01*
X21311445Y-55396746D01*
X21312011Y-55397193D01*
X21311934Y-55397289D01*
X21356379Y-55446699D01*
X21367603Y-55515661D01*
X21339761Y-55579744D01*
X21309665Y-55605826D01*
X21306660Y-55607679D01*
X21306655Y-55607683D01*
X21182684Y-55731654D01*
X21090641Y-55880879D01*
X21067737Y-55950000D01*
X23432262Y-55950000D01*
X23409358Y-55880879D01*
X23317315Y-55731654D01*
X23193344Y-55607683D01*
X23193341Y-55607681D01*
X23190339Y-55605829D01*
X23188713Y-55604021D01*
X23187677Y-55603202D01*
X23187817Y-55603024D01*
X23143617Y-55553880D01*
X23132397Y-55484917D01*
X23160243Y-55420836D01*
X23190344Y-55394754D01*
X23193656Y-55392712D01*
X23317712Y-55268656D01*
X23409814Y-55119334D01*
X23464874Y-54953171D01*
X23504647Y-54895728D01*
X23569162Y-54868905D01*
X23637938Y-54881220D01*
X23670261Y-54904496D01*
X23713181Y-54947416D01*
X23746666Y-55008739D01*
X23749500Y-55035097D01*
X23749500Y-57978340D01*
X23729815Y-58045379D01*
X23713181Y-58066021D01*
X23702285Y-58076917D01*
X23702284Y-58076918D01*
X23679202Y-58100000D01*
X23637627Y-58141574D01*
X23576303Y-58175058D01*
X23506612Y-58170072D01*
X23484670Y-58159318D01*
X23372859Y-58090089D01*
X23372856Y-58090087D01*
X23284556Y-58055879D01*
X23176801Y-58014134D01*
X22970127Y-57975500D01*
X22759873Y-57975500D01*
X22553199Y-58014134D01*
X22553196Y-58014134D01*
X22553196Y-58014135D01*
X22357143Y-58090087D01*
X22357140Y-58090089D01*
X22178383Y-58200769D01*
X22178381Y-58200771D01*
X22023004Y-58342415D01*
X21896298Y-58510201D01*
X21896293Y-58510209D01*
X21802579Y-58698412D01*
X21802578Y-58698416D01*
X21751860Y-58876675D01*
X21745039Y-58900647D01*
X21725640Y-59109999D01*
X21725640Y-59110000D01*
X21745039Y-59319352D01*
X21745039Y-59319354D01*
X21745040Y-59319357D01*
X21802578Y-59521584D01*
X21802579Y-59521587D01*
X21896293Y-59709790D01*
X21896298Y-59709798D01*
X22023004Y-59877584D01*
X22178381Y-60019228D01*
X22178383Y-60019230D01*
X22192922Y-60028232D01*
X22357144Y-60129913D01*
X22553199Y-60205866D01*
X22651971Y-60224329D01*
X22714249Y-60255996D01*
X22749523Y-60316308D01*
X22746590Y-60386116D01*
X22716865Y-60433898D01*
X22430353Y-60720410D01*
X22369030Y-60753895D01*
X22299338Y-60748911D01*
X22277395Y-60738156D01*
X22123109Y-60642627D01*
X22102856Y-60630087D01*
X21906801Y-60554134D01*
X21700127Y-60515500D01*
X21489873Y-60515500D01*
X21283199Y-60554134D01*
X21094294Y-60627317D01*
X21024671Y-60633179D01*
X20962931Y-60600469D01*
X20928676Y-60539573D01*
X20925500Y-60511690D01*
X20925500Y-60141617D01*
X20945185Y-60074578D01*
X20984220Y-60036192D01*
X21011618Y-60019229D01*
X21166997Y-59877582D01*
X21293703Y-59709796D01*
X21387422Y-59521584D01*
X21444960Y-59319357D01*
X21464360Y-59110000D01*
X21444960Y-58900643D01*
X21387422Y-58698416D01*
X21361897Y-58647155D01*
X21293706Y-58510209D01*
X21293701Y-58510201D01*
X21166995Y-58342415D01*
X21011618Y-58200771D01*
X21011616Y-58200769D01*
X20832859Y-58090089D01*
X20832856Y-58090087D01*
X20744556Y-58055879D01*
X20636801Y-58014134D01*
X20430127Y-57975500D01*
X20219873Y-57975500D01*
X20171674Y-57984509D01*
X20132352Y-57991860D01*
X20062837Y-57984828D01*
X20021887Y-57957652D01*
X19636819Y-57572584D01*
X19603334Y-57511261D01*
X19600500Y-57484903D01*
X19600500Y-57125000D01*
X21067737Y-57125000D01*
X21090641Y-57194120D01*
X21182684Y-57343345D01*
X21306654Y-57467315D01*
X21455875Y-57559356D01*
X21455880Y-57559358D01*
X21622302Y-57614505D01*
X21662499Y-57618611D01*
X21662500Y-57618611D01*
X22837500Y-57618611D01*
X22877696Y-57614505D01*
X22877698Y-57614505D01*
X23044119Y-57559358D01*
X23044124Y-57559356D01*
X23193345Y-57467315D01*
X23317315Y-57343345D01*
X23409358Y-57194120D01*
X23432263Y-57125000D01*
X22837500Y-57125000D01*
X22837500Y-57618611D01*
X21662500Y-57618611D01*
X21662500Y-57125000D01*
X21067737Y-57125000D01*
X19600500Y-57125000D01*
X19600500Y-56995908D01*
X19620185Y-56928869D01*
X19664271Y-56890363D01*
X19663187Y-56888605D01*
X19669332Y-56884814D01*
X19669334Y-56884814D01*
X19818656Y-56792712D01*
X19942712Y-56668656D01*
X20034814Y-56519334D01*
X20089999Y-56352797D01*
X20100500Y-56250009D01*
X20100499Y-55249992D01*
X20089999Y-55147203D01*
X20039994Y-54996300D01*
X20037593Y-54926476D01*
X20073324Y-54866434D01*
X20135844Y-54835241D01*
X20205304Y-54842801D01*
G37*
%TD.AperFunction*%
%TA.AperFunction,Conductor*%
G36*
X21806219Y-48069760D02*
G01*
X21920943Y-48100500D01*
X28099903Y-48100500D01*
X28166942Y-48120185D01*
X28187584Y-48136819D01*
X28569298Y-48518533D01*
X28602783Y-48579856D01*
X28604837Y-48592330D01*
X28614630Y-48679249D01*
X28674210Y-48849521D01*
X28770184Y-49002262D01*
X28879162Y-49111240D01*
X28912647Y-49172563D01*
X28907663Y-49242255D01*
X28879162Y-49286602D01*
X28594482Y-49571281D01*
X28594480Y-49571284D01*
X28582979Y-49591204D01*
X28532410Y-49639418D01*
X28518925Y-49645383D01*
X28483332Y-49658658D01*
X28413640Y-49663642D01*
X28396669Y-49658659D01*
X28362480Y-49645908D01*
X28362482Y-49645908D01*
X28302883Y-49639501D01*
X28302881Y-49639500D01*
X28302873Y-49639500D01*
X28302864Y-49639500D01*
X27307129Y-49639500D01*
X27307123Y-49639501D01*
X27247518Y-49645908D01*
X27213331Y-49658659D01*
X27143639Y-49663642D01*
X27126669Y-49658659D01*
X27092480Y-49645908D01*
X27092482Y-49645908D01*
X27032883Y-49639501D01*
X27032881Y-49639500D01*
X27032873Y-49639500D01*
X27032864Y-49639500D01*
X26037129Y-49639500D01*
X26037123Y-49639501D01*
X25977518Y-49645908D01*
X25943331Y-49658659D01*
X25873639Y-49663642D01*
X25856669Y-49658659D01*
X25822480Y-49645908D01*
X25822482Y-49645908D01*
X25762883Y-49639501D01*
X25762881Y-49639500D01*
X25762873Y-49639500D01*
X25762864Y-49639500D01*
X24767129Y-49639500D01*
X24767123Y-49639501D01*
X24707518Y-49645908D01*
X24673331Y-49658659D01*
X24603639Y-49663642D01*
X24586669Y-49658659D01*
X24552480Y-49645908D01*
X24552482Y-49645908D01*
X24492883Y-49639501D01*
X24492881Y-49639500D01*
X24492873Y-49639500D01*
X24492864Y-49639500D01*
X23497129Y-49639500D01*
X23497123Y-49639501D01*
X23437518Y-49645908D01*
X23403331Y-49658659D01*
X23333639Y-49663642D01*
X23316669Y-49658659D01*
X23282480Y-49645908D01*
X23282482Y-49645908D01*
X23222883Y-49639501D01*
X23222881Y-49639500D01*
X23222873Y-49639500D01*
X23222865Y-49639500D01*
X23100098Y-49639500D01*
X23033059Y-49619815D01*
X23012417Y-49603181D01*
X21686453Y-48277217D01*
X21652968Y-48215894D01*
X21657952Y-48146202D01*
X21699824Y-48090269D01*
X21765288Y-48065852D01*
X21806219Y-48069760D01*
G37*
%TD.AperFunction*%
%TA.AperFunction,Conductor*%
G36*
X31544713Y-30794884D02*
G01*
X31590468Y-30847688D01*
X31600412Y-30916846D01*
X31571387Y-30980402D01*
X31565355Y-30986880D01*
X29669481Y-32882753D01*
X29669479Y-32882755D01*
X29646077Y-32923289D01*
X29636186Y-32940423D01*
X29613304Y-32980054D01*
X29590423Y-33019685D01*
X29590423Y-33019686D01*
X29549499Y-33172414D01*
X29549499Y-33172416D01*
X29549499Y-33340517D01*
X29549500Y-33340530D01*
X29549500Y-33661859D01*
X29549499Y-33661877D01*
X29549499Y-33827583D01*
X29549498Y-33827583D01*
X29553500Y-33842517D01*
X29590423Y-33980314D01*
X29590424Y-33980315D01*
X29603094Y-34002260D01*
X29603095Y-34002263D01*
X29669475Y-34117238D01*
X29669481Y-34117246D01*
X29788349Y-34236114D01*
X29788355Y-34236119D01*
X31586610Y-36034374D01*
X31586620Y-36034385D01*
X31590950Y-36038715D01*
X31590951Y-36038716D01*
X31702755Y-36150520D01*
X31702757Y-36150521D01*
X31702761Y-36150524D01*
X31836060Y-36227483D01*
X31839687Y-36229577D01*
X31951490Y-36259534D01*
X31992413Y-36270500D01*
X31992414Y-36270500D01*
X33279906Y-36270500D01*
X33346945Y-36290185D01*
X33392700Y-36342989D01*
X33403195Y-36407752D01*
X33399500Y-36442127D01*
X33399500Y-36442128D01*
X33399500Y-36442132D01*
X33399500Y-37437870D01*
X33399501Y-37437876D01*
X33405908Y-37497481D01*
X33418659Y-37531669D01*
X33423642Y-37601361D01*
X33418659Y-37618331D01*
X33405908Y-37652518D01*
X33400077Y-37706762D01*
X33399501Y-37712123D01*
X33399500Y-37712135D01*
X33399500Y-38707870D01*
X33399501Y-38707876D01*
X33405908Y-38767481D01*
X33418659Y-38801669D01*
X33423642Y-38871361D01*
X33418659Y-38888331D01*
X33405908Y-38922518D01*
X33399501Y-38982116D01*
X33399501Y-38982123D01*
X33399500Y-38982135D01*
X33399500Y-39977870D01*
X33399501Y-39977876D01*
X33405908Y-40037481D01*
X33418659Y-40071669D01*
X33423642Y-40141361D01*
X33418659Y-40158331D01*
X33405908Y-40192518D01*
X33399501Y-40252116D01*
X33399501Y-40252123D01*
X33399500Y-40252135D01*
X33399500Y-41247870D01*
X33399501Y-41247876D01*
X33405908Y-41307481D01*
X33418659Y-41341669D01*
X33423642Y-41411361D01*
X33418659Y-41428331D01*
X33405908Y-41462518D01*
X33399501Y-41522116D01*
X33399501Y-41522123D01*
X33399500Y-41522135D01*
X33399500Y-42517870D01*
X33399501Y-42517876D01*
X33405908Y-42577483D01*
X33418658Y-42611667D01*
X33423642Y-42681359D01*
X33418659Y-42698330D01*
X33405384Y-42733924D01*
X33363514Y-42789859D01*
X33351204Y-42797979D01*
X33331284Y-42809480D01*
X33331281Y-42809482D01*
X32974217Y-43166546D01*
X32974214Y-43166548D01*
X32974215Y-43166549D01*
X32869478Y-43271286D01*
X32838635Y-43324710D01*
X32838634Y-43324711D01*
X32790424Y-43408211D01*
X32790423Y-43408212D01*
X32766330Y-43498129D01*
X32749499Y-43560943D01*
X32749499Y-43560945D01*
X32749499Y-43729046D01*
X32749500Y-43729059D01*
X32749500Y-47670565D01*
X32729815Y-47737604D01*
X32677011Y-47783359D01*
X32666467Y-47787602D01*
X32664547Y-47788273D01*
X32664540Y-47788277D01*
X32511802Y-47884249D01*
X32384249Y-48011802D01*
X32288276Y-48164541D01*
X32228696Y-48334810D01*
X32228695Y-48334815D01*
X32208500Y-48514061D01*
X32208500Y-48514066D01*
X32209482Y-48522785D01*
X32197424Y-48591607D01*
X32150073Y-48642984D01*
X32082462Y-48660606D01*
X32016057Y-48638877D01*
X31998580Y-48624345D01*
X31974451Y-48600216D01*
X31636819Y-48262583D01*
X31603334Y-48201260D01*
X31600500Y-48174902D01*
X31600500Y-37339060D01*
X31600501Y-37339047D01*
X31600501Y-37170944D01*
X31600501Y-37170943D01*
X31559577Y-37018216D01*
X31559573Y-37018209D01*
X31480524Y-36881290D01*
X31480518Y-36881282D01*
X27386819Y-32787583D01*
X27353334Y-32726260D01*
X27350500Y-32699902D01*
X27350500Y-31495908D01*
X27370185Y-31428869D01*
X27414271Y-31390363D01*
X27413187Y-31388605D01*
X27419332Y-31384814D01*
X27419334Y-31384814D01*
X27568656Y-31292712D01*
X27662319Y-31199049D01*
X27723642Y-31165564D01*
X27793334Y-31170548D01*
X27837681Y-31199049D01*
X27931344Y-31292712D01*
X28080666Y-31384814D01*
X28247203Y-31439999D01*
X28349991Y-31450500D01*
X29150008Y-31450499D01*
X29150016Y-31450498D01*
X29150019Y-31450498D01*
X29206302Y-31444748D01*
X29252797Y-31439999D01*
X29419334Y-31384814D01*
X29568656Y-31292712D01*
X29692712Y-31168656D01*
X29784814Y-31019334D01*
X29812595Y-30935495D01*
X29852368Y-30878051D01*
X29916884Y-30851228D01*
X29930301Y-30850500D01*
X30913931Y-30850500D01*
X30913947Y-30850501D01*
X30921543Y-30850501D01*
X31079654Y-30850501D01*
X31079657Y-30850501D01*
X31232385Y-30809577D01*
X31249874Y-30799479D01*
X31263153Y-30791813D01*
X31325154Y-30775199D01*
X31477674Y-30775199D01*
X31544713Y-30794884D01*
G37*
%TD.AperFunction*%
%TA.AperFunction,Conductor*%
G36*
X24068833Y-32382915D02*
G01*
X24124766Y-32424787D01*
X24149183Y-32490251D01*
X24149499Y-32499097D01*
X24149499Y-32579054D01*
X24149498Y-32579054D01*
X24190424Y-32731789D01*
X24190425Y-32731790D01*
X24211455Y-32768214D01*
X24211456Y-32768216D01*
X24269475Y-32868709D01*
X24269481Y-32868717D01*
X24388349Y-32987585D01*
X24388355Y-32987590D01*
X29363181Y-37962416D01*
X29396666Y-38023739D01*
X29399500Y-38050097D01*
X29399500Y-38276000D01*
X29379815Y-38343039D01*
X29327011Y-38388794D01*
X29275500Y-38400000D01*
X28400000Y-38400000D01*
X28400000Y-43300000D01*
X29275500Y-43300000D01*
X29342539Y-43319685D01*
X29388294Y-43372489D01*
X29399500Y-43424000D01*
X29399500Y-47350902D01*
X29379815Y-47417941D01*
X29327011Y-47463696D01*
X29257853Y-47473640D01*
X29194297Y-47444615D01*
X29187819Y-47438583D01*
X28887590Y-47138355D01*
X28887588Y-47138352D01*
X28768717Y-47019481D01*
X28768709Y-47019475D01*
X28666936Y-46960717D01*
X28666934Y-46960716D01*
X28631790Y-46940425D01*
X28631789Y-46940424D01*
X28619263Y-46937067D01*
X28479057Y-46899499D01*
X28320943Y-46899499D01*
X28313347Y-46899499D01*
X28313331Y-46899500D01*
X22300097Y-46899500D01*
X22233058Y-46879815D01*
X22212416Y-46863181D01*
X21737590Y-46388355D01*
X21737588Y-46388352D01*
X21618717Y-46269481D01*
X21618709Y-46269475D01*
X21502823Y-46202569D01*
X21502822Y-46202568D01*
X21488035Y-46194031D01*
X21481785Y-46190423D01*
X21329057Y-46149499D01*
X21170943Y-46149499D01*
X21163347Y-46149499D01*
X21163331Y-46149500D01*
X20201569Y-46149500D01*
X20134530Y-46129815D01*
X20113888Y-46113181D01*
X18436818Y-44436111D01*
X18403333Y-44374788D01*
X18400499Y-44348430D01*
X18400499Y-44062129D01*
X18400498Y-44062123D01*
X18400497Y-44062116D01*
X18394091Y-44002517D01*
X18381340Y-43968332D01*
X18376357Y-43898642D01*
X18381340Y-43881669D01*
X18394091Y-43847483D01*
X18400500Y-43787873D01*
X18400499Y-42847844D01*
X24950000Y-42847844D01*
X24956401Y-42907372D01*
X24956403Y-42907379D01*
X25006645Y-43042086D01*
X25006649Y-43042093D01*
X25092809Y-43157187D01*
X25092812Y-43157190D01*
X25207906Y-43243350D01*
X25207913Y-43243354D01*
X25342620Y-43293596D01*
X25342627Y-43293598D01*
X25402155Y-43299999D01*
X25402172Y-43300000D01*
X26400000Y-43300000D01*
X26400000Y-41850000D01*
X24950000Y-41850000D01*
X24950000Y-42847844D01*
X18400499Y-42847844D01*
X18400499Y-42792128D01*
X18394091Y-42732517D01*
X18381340Y-42698332D01*
X18376357Y-42628642D01*
X18381341Y-42611667D01*
X18394091Y-42577483D01*
X18400500Y-42517873D01*
X18400499Y-41522128D01*
X18394091Y-41462517D01*
X18381340Y-41428332D01*
X18376357Y-41358642D01*
X18381340Y-41341669D01*
X18394091Y-41307483D01*
X18400500Y-41247873D01*
X18400499Y-40252128D01*
X18394091Y-40192517D01*
X18381340Y-40158332D01*
X18376357Y-40088642D01*
X18381340Y-40071669D01*
X18394091Y-40037483D01*
X18400500Y-39977873D01*
X18400499Y-38982128D01*
X18394091Y-38922517D01*
X18381340Y-38888332D01*
X18378753Y-38852155D01*
X24950000Y-38852155D01*
X24950000Y-39850000D01*
X26400000Y-39850000D01*
X26400000Y-38400000D01*
X25402155Y-38400000D01*
X25342627Y-38406401D01*
X25342620Y-38406403D01*
X25207913Y-38456645D01*
X25207906Y-38456649D01*
X25092812Y-38542809D01*
X25092809Y-38542812D01*
X25006649Y-38657906D01*
X25006645Y-38657913D01*
X24956403Y-38792620D01*
X24956401Y-38792627D01*
X24950000Y-38852155D01*
X18378753Y-38852155D01*
X18376357Y-38818642D01*
X18381340Y-38801669D01*
X18394091Y-38767483D01*
X18400500Y-38707873D01*
X18400499Y-37712128D01*
X18394091Y-37652517D01*
X18381340Y-37618332D01*
X18376357Y-37548642D01*
X18381340Y-37531669D01*
X18394091Y-37497483D01*
X18400500Y-37437873D01*
X18400499Y-36442128D01*
X18396804Y-36407753D01*
X18409211Y-36338994D01*
X18456822Y-36287857D01*
X18520094Y-36270500D01*
X19743331Y-36270500D01*
X19743347Y-36270501D01*
X19750943Y-36270501D01*
X19909054Y-36270501D01*
X19909057Y-36270501D01*
X20061785Y-36229577D01*
X20111904Y-36200639D01*
X20198716Y-36150520D01*
X20310520Y-36038716D01*
X20310520Y-36038714D01*
X20320728Y-36028507D01*
X20320729Y-36028504D01*
X23937820Y-32411414D01*
X23999141Y-32377931D01*
X24068833Y-32382915D01*
G37*
%TD.AperFunction*%
%TA.AperFunction,Conductor*%
G36*
X41439397Y-18624668D02*
G01*
X41517221Y-18864187D01*
X41631557Y-19088583D01*
X41779588Y-19292330D01*
X41957670Y-19470412D01*
X42161417Y-19618443D01*
X42385813Y-19732779D01*
X42625332Y-19810603D01*
X42822398Y-19841815D01*
X41480943Y-21183268D01*
X41480943Y-21183269D01*
X41776745Y-21320124D01*
X42115855Y-21434383D01*
X42465339Y-21511311D01*
X42821075Y-21549999D01*
X42821085Y-21550000D01*
X43178915Y-21550000D01*
X43178922Y-21549999D01*
X43362093Y-21530078D01*
X43430868Y-21542399D01*
X43482064Y-21589946D01*
X43499500Y-21653351D01*
X43499500Y-22700001D01*
X43499501Y-22700018D01*
X43510000Y-22802796D01*
X43510001Y-22802799D01*
X43565185Y-22969331D01*
X43565187Y-22969336D01*
X43572086Y-22980521D01*
X43640475Y-23091398D01*
X43657289Y-23118657D01*
X43781344Y-23242712D01*
X43825522Y-23269961D01*
X43872247Y-23321909D01*
X43883470Y-23390871D01*
X43855627Y-23454953D01*
X43797558Y-23493810D01*
X43760426Y-23499500D01*
X40699998Y-23499500D01*
X40699981Y-23499501D01*
X40597203Y-23510000D01*
X40597200Y-23510001D01*
X40430668Y-23565185D01*
X40430663Y-23565187D01*
X40281342Y-23657289D01*
X40157289Y-23781342D01*
X40065187Y-23930663D01*
X40065185Y-23930668D01*
X40010001Y-24097201D01*
X40009998Y-24097215D01*
X40009526Y-24101842D01*
X39983126Y-24166532D01*
X39973850Y-24176913D01*
X38881286Y-25269478D01*
X38769481Y-25381282D01*
X38769479Y-25381284D01*
X38761872Y-25394461D01*
X38738575Y-25434814D01*
X38690423Y-25518215D01*
X38649499Y-25670943D01*
X38649499Y-25670945D01*
X38649499Y-25839046D01*
X38649500Y-25839059D01*
X38649500Y-25950704D01*
X38629815Y-26017743D01*
X38577011Y-26063498D01*
X38525500Y-26074704D01*
X37570700Y-26074704D01*
X37570700Y-30774703D01*
X38071128Y-30774703D01*
X38071144Y-30774702D01*
X38130672Y-30768301D01*
X38130679Y-30768299D01*
X38265386Y-30718057D01*
X38265393Y-30718053D01*
X38380486Y-30631893D01*
X38426233Y-30570785D01*
X38482167Y-30528914D01*
X38551859Y-30523930D01*
X38613182Y-30557415D01*
X38646666Y-30618739D01*
X38649500Y-30645096D01*
X38649500Y-34788401D01*
X38629815Y-34855440D01*
X38577011Y-34901195D01*
X38507853Y-34911139D01*
X38444297Y-34882114D01*
X38437819Y-34876082D01*
X38389397Y-34827660D01*
X38389374Y-34827639D01*
X38261818Y-34700083D01*
X38228333Y-34638760D01*
X38225499Y-34612402D01*
X38225499Y-33899998D01*
X38225498Y-33899981D01*
X38214999Y-33797203D01*
X38214998Y-33797200D01*
X38203725Y-33763181D01*
X38159814Y-33630666D01*
X38067712Y-33481344D01*
X37943656Y-33357288D01*
X37940342Y-33355243D01*
X37938546Y-33353248D01*
X37937989Y-33352807D01*
X37938064Y-33352711D01*
X37893618Y-33303297D01*
X37882397Y-33234334D01*
X37910240Y-33170252D01*
X37940348Y-33144165D01*
X37943342Y-33142318D01*
X38067315Y-33018345D01*
X38159358Y-32869120D01*
X38182263Y-32800000D01*
X36536500Y-32800000D01*
X36469461Y-32780315D01*
X36423706Y-32727511D01*
X36412500Y-32676000D01*
X36412500Y-31625000D01*
X37587500Y-31625000D01*
X38182262Y-31625000D01*
X38159358Y-31555879D01*
X38067315Y-31406654D01*
X37943345Y-31282684D01*
X37794124Y-31190643D01*
X37794119Y-31190641D01*
X37627691Y-31135493D01*
X37627695Y-31135493D01*
X37587500Y-31131387D01*
X37587500Y-31625000D01*
X36412500Y-31625000D01*
X36412500Y-31131387D01*
X36372306Y-31135493D01*
X36205880Y-31190641D01*
X36205875Y-31190643D01*
X36056654Y-31282684D01*
X35932684Y-31406654D01*
X35840643Y-31555875D01*
X35840641Y-31555880D01*
X35785494Y-31722302D01*
X35785493Y-31722309D01*
X35775000Y-31825013D01*
X35775000Y-32107625D01*
X35755315Y-32174664D01*
X35702511Y-32220419D01*
X35633353Y-32230363D01*
X35607668Y-32223807D01*
X35507383Y-32186403D01*
X35507372Y-32186401D01*
X35447844Y-32180000D01*
X35100000Y-32180000D01*
X35100000Y-33325500D01*
X35080315Y-33392539D01*
X35027511Y-33438294D01*
X34976000Y-33449500D01*
X33852129Y-33449500D01*
X33852123Y-33449501D01*
X33792516Y-33455908D01*
X33657671Y-33506202D01*
X33657668Y-33506204D01*
X33592129Y-33555267D01*
X33526664Y-33579684D01*
X33517818Y-33580000D01*
X33400000Y-33580000D01*
X33400000Y-33627839D01*
X33403700Y-33662242D01*
X33391296Y-33731002D01*
X33343687Y-33782140D01*
X33280411Y-33799500D01*
X31950097Y-33799500D01*
X31883058Y-33779815D01*
X31862416Y-33763181D01*
X31580700Y-33481465D01*
X31547215Y-33420142D01*
X31545163Y-33407686D01*
X31535368Y-33320745D01*
X31509812Y-33247711D01*
X31475788Y-33150474D01*
X31383479Y-33003567D01*
X31364478Y-32936331D01*
X31384845Y-32869496D01*
X31400786Y-32849919D01*
X31618550Y-32632155D01*
X33400000Y-32632155D01*
X33400000Y-32680000D01*
X34200000Y-32680000D01*
X34200000Y-32180000D01*
X33852155Y-32180000D01*
X33792627Y-32186401D01*
X33792620Y-32186403D01*
X33657913Y-32236645D01*
X33657906Y-32236649D01*
X33542812Y-32322809D01*
X33542809Y-32322812D01*
X33456649Y-32437906D01*
X33456645Y-32437913D01*
X33406403Y-32572620D01*
X33406401Y-32572627D01*
X33400000Y-32632155D01*
X31618550Y-32632155D01*
X32613887Y-31636819D01*
X32675210Y-31603334D01*
X32701568Y-31600500D01*
X33163331Y-31600500D01*
X33163347Y-31600501D01*
X33170943Y-31600501D01*
X33329054Y-31600501D01*
X33329057Y-31600501D01*
X33481785Y-31559577D01*
X33531904Y-31530639D01*
X33618716Y-31480520D01*
X33730520Y-31368716D01*
X33730520Y-31368714D01*
X33740728Y-31358507D01*
X33740729Y-31358504D01*
X34730520Y-30368716D01*
X34809577Y-30231784D01*
X34824926Y-30174500D01*
X34861290Y-30114843D01*
X34924137Y-30084314D01*
X34993513Y-30092609D01*
X35047391Y-30137094D01*
X35068665Y-30203646D01*
X35068700Y-30206597D01*
X35068700Y-30322547D01*
X35075101Y-30382075D01*
X35075103Y-30382082D01*
X35125345Y-30516789D01*
X35125349Y-30516796D01*
X35211509Y-30631890D01*
X35211512Y-30631893D01*
X35326606Y-30718053D01*
X35326613Y-30718057D01*
X35461320Y-30768299D01*
X35461327Y-30768301D01*
X35520855Y-30774702D01*
X35520872Y-30774703D01*
X36021300Y-30774703D01*
X36021300Y-24525304D01*
X37570700Y-24525304D01*
X38523300Y-24525304D01*
X38523300Y-24477476D01*
X38523299Y-24477459D01*
X38516898Y-24417931D01*
X38516896Y-24417924D01*
X38466654Y-24283217D01*
X38466650Y-24283210D01*
X38380490Y-24168116D01*
X38380487Y-24168113D01*
X38265393Y-24081953D01*
X38265386Y-24081949D01*
X38130679Y-24031707D01*
X38130672Y-24031705D01*
X38071144Y-24025304D01*
X37570700Y-24025304D01*
X37570700Y-24525304D01*
X36021300Y-24525304D01*
X36021300Y-24025304D01*
X35520855Y-24025304D01*
X35461327Y-24031705D01*
X35461320Y-24031707D01*
X35326613Y-24081949D01*
X35326606Y-24081953D01*
X35211512Y-24168113D01*
X35211509Y-24168116D01*
X35125349Y-24283210D01*
X35125345Y-24283217D01*
X35075103Y-24417924D01*
X35075101Y-24417931D01*
X35068700Y-24477459D01*
X35068700Y-24793401D01*
X35049015Y-24860440D01*
X34996211Y-24906195D01*
X34927053Y-24916139D01*
X34863497Y-24887114D01*
X34825723Y-24828336D01*
X34824925Y-24825495D01*
X34809577Y-24768215D01*
X34780639Y-24718095D01*
X34730520Y-24631284D01*
X34618716Y-24519480D01*
X34618715Y-24519479D01*
X34614385Y-24515149D01*
X34614374Y-24515139D01*
X33966015Y-23866780D01*
X33932530Y-23805457D01*
X33937514Y-23735765D01*
X33979386Y-23679832D01*
X34044850Y-23655415D01*
X34053696Y-23655099D01*
X34322871Y-23655099D01*
X34322872Y-23655099D01*
X34382483Y-23648691D01*
X34517331Y-23598396D01*
X34632546Y-23512146D01*
X34718796Y-23396931D01*
X34769091Y-23262083D01*
X34775500Y-23202473D01*
X34775500Y-23100000D01*
X35342737Y-23100000D01*
X35365641Y-23169120D01*
X35457684Y-23318345D01*
X35581654Y-23442315D01*
X35730875Y-23534356D01*
X35730880Y-23534358D01*
X35897301Y-23589505D01*
X35897304Y-23589506D01*
X35924999Y-23592334D01*
X35925000Y-23592334D01*
X37075000Y-23592334D01*
X37102695Y-23589506D01*
X37102698Y-23589505D01*
X37269119Y-23534358D01*
X37269124Y-23534356D01*
X37418345Y-23442315D01*
X37542315Y-23318345D01*
X37634358Y-23169120D01*
X37657263Y-23100000D01*
X37075000Y-23100000D01*
X37075000Y-23592334D01*
X35925000Y-23592334D01*
X35925000Y-23100000D01*
X35342737Y-23100000D01*
X34775500Y-23100000D01*
X34775499Y-21653695D01*
X34795184Y-21586657D01*
X34847987Y-21540902D01*
X34917146Y-21530958D01*
X34980702Y-21559983D01*
X34987180Y-21566015D01*
X35295730Y-21874565D01*
X35318882Y-21916964D01*
X35348909Y-21958546D01*
X35386842Y-21969685D01*
X35407484Y-21986319D01*
X35435539Y-22014374D01*
X35435549Y-22014385D01*
X35439879Y-22018715D01*
X35439880Y-22018716D01*
X35551684Y-22130520D01*
X35638495Y-22180639D01*
X35638497Y-22180641D01*
X35662590Y-22194551D01*
X35688615Y-22209577D01*
X35841343Y-22250501D01*
X35841346Y-22250501D01*
X36007053Y-22250501D01*
X36007069Y-22250500D01*
X37363331Y-22250500D01*
X37363347Y-22250501D01*
X37370943Y-22250501D01*
X37529054Y-22250501D01*
X37529057Y-22250501D01*
X37681785Y-22209577D01*
X37731904Y-22180639D01*
X37818716Y-22130520D01*
X37930520Y-22018716D01*
X37930520Y-22018714D01*
X37940728Y-22008507D01*
X37940730Y-22008504D01*
X39312416Y-20636818D01*
X39373739Y-20603333D01*
X39400097Y-20600499D01*
X39500002Y-20600499D01*
X39500008Y-20600499D01*
X39509563Y-20599523D01*
X39517895Y-20598671D01*
X39602797Y-20589999D01*
X39769334Y-20534814D01*
X39918656Y-20442712D01*
X40042712Y-20318656D01*
X40134814Y-20169334D01*
X40189999Y-20002797D01*
X40200500Y-19900009D01*
X40200499Y-19686645D01*
X40220183Y-19619608D01*
X40236818Y-19598966D01*
X41408184Y-18427600D01*
X41439397Y-18624668D01*
G37*
%TD.AperFunction*%
%TA.AperFunction,Conductor*%
G36*
X46181590Y-23406843D02*
G01*
X46232475Y-23454723D01*
X46249500Y-23517432D01*
X46249500Y-28651928D01*
X46229815Y-28718967D01*
X46177011Y-28764722D01*
X46107853Y-28774666D01*
X46084546Y-28768970D01*
X45929257Y-28714632D01*
X45929249Y-28714630D01*
X45750004Y-28694435D01*
X45749996Y-28694435D01*
X45570750Y-28714630D01*
X45570745Y-28714631D01*
X45400476Y-28774211D01*
X45247736Y-28870185D01*
X45244903Y-28872445D01*
X45242724Y-28873334D01*
X45241842Y-28873889D01*
X45241744Y-28873734D01*
X45180217Y-28898855D01*
X45167588Y-28899500D01*
X43961670Y-28899500D01*
X43961654Y-28899499D01*
X43954058Y-28899499D01*
X43795943Y-28899499D01*
X43719579Y-28919961D01*
X43643214Y-28940423D01*
X43643213Y-28940424D01*
X43590302Y-28970972D01*
X43568799Y-28983387D01*
X43506800Y-29000000D01*
X42499000Y-29000000D01*
X42431961Y-28980315D01*
X42386206Y-28927511D01*
X42375000Y-28876000D01*
X42375000Y-28124000D01*
X42394685Y-28056961D01*
X42447489Y-28011206D01*
X42499000Y-28000000D01*
X45707262Y-28000000D01*
X45684358Y-27930879D01*
X45592315Y-27781654D01*
X45468344Y-27657683D01*
X45468340Y-27657680D01*
X45384280Y-27605831D01*
X45337555Y-27553883D01*
X45326334Y-27484921D01*
X45354177Y-27420839D01*
X45384278Y-27394756D01*
X45468656Y-27342712D01*
X45592712Y-27218656D01*
X45684814Y-27069334D01*
X45739999Y-26902797D01*
X45750500Y-26800009D01*
X45750499Y-26199992D01*
X45739999Y-26097203D01*
X45684814Y-25930666D01*
X45592712Y-25781344D01*
X45468656Y-25657288D01*
X45468655Y-25657287D01*
X45384757Y-25605539D01*
X45338032Y-25553591D01*
X45326809Y-25484629D01*
X45354653Y-25420546D01*
X45384757Y-25394461D01*
X45406120Y-25381284D01*
X45468656Y-25342712D01*
X45592712Y-25218656D01*
X45684814Y-25069334D01*
X45739999Y-24902797D01*
X45750500Y-24800009D01*
X45750499Y-24199992D01*
X45748141Y-24176913D01*
X45739999Y-24097203D01*
X45739998Y-24097200D01*
X45734944Y-24081949D01*
X45684814Y-23930666D01*
X45592712Y-23781344D01*
X45468656Y-23657288D01*
X45424475Y-23630037D01*
X45377752Y-23578090D01*
X45366529Y-23509127D01*
X45394373Y-23445045D01*
X45452442Y-23406189D01*
X45489571Y-23400499D01*
X46050008Y-23400499D01*
X46112899Y-23394074D01*
X46181590Y-23406843D01*
G37*
%TD.AperFunction*%
%TA.AperFunction,Conductor*%
G36*
X16439397Y-18624668D02*
G01*
X16517221Y-18864187D01*
X16631557Y-19088583D01*
X16779588Y-19292330D01*
X16957670Y-19470412D01*
X17161417Y-19618443D01*
X17385813Y-19732779D01*
X17625332Y-19810603D01*
X17822398Y-19841815D01*
X16824649Y-20839563D01*
X16798970Y-20859268D01*
X16781286Y-20869478D01*
X16781284Y-20869479D01*
X16725382Y-20925381D01*
X16669480Y-20981284D01*
X15019481Y-22631282D01*
X15019477Y-22631287D01*
X14981887Y-22696397D01*
X14931321Y-22744612D01*
X14862714Y-22757836D01*
X14797849Y-22731868D01*
X14757320Y-22674954D01*
X14750500Y-22634397D01*
X14750500Y-19656187D01*
X14770185Y-19589148D01*
X14822989Y-19543393D01*
X14892147Y-19533449D01*
X14955703Y-19562474D01*
X14989694Y-19610291D01*
X15000602Y-19637668D01*
X15000606Y-19637677D01*
X15069035Y-19766749D01*
X16408184Y-18427600D01*
X16439397Y-18624668D01*
G37*
%TD.AperFunction*%
%TA.AperFunction,Conductor*%
G36*
X45930963Y-19766749D02*
G01*
X45999394Y-19637677D01*
X45999397Y-19637668D01*
X46010306Y-19610291D01*
X46053406Y-19555298D01*
X46119395Y-19532337D01*
X46187323Y-19548698D01*
X46235622Y-19599185D01*
X46249500Y-19656187D01*
X46249500Y-20682566D01*
X46229815Y-20749605D01*
X46177011Y-20795360D01*
X46112899Y-20805924D01*
X46050012Y-20799500D01*
X44199998Y-20799500D01*
X44199975Y-20799502D01*
X44199899Y-20799510D01*
X44199882Y-20799506D01*
X44196836Y-20799662D01*
X44196798Y-20798933D01*
X44131207Y-20786739D01*
X44099619Y-20763833D01*
X43177601Y-19841815D01*
X43374668Y-19810603D01*
X43614187Y-19732779D01*
X43838583Y-19618443D01*
X44042330Y-19470412D01*
X44220412Y-19292330D01*
X44368443Y-19088583D01*
X44482779Y-18864187D01*
X44560603Y-18624668D01*
X44591815Y-18427601D01*
X45930963Y-19766749D01*
G37*
%TD.AperFunction*%
%TA.AperFunction,Conductor*%
G36*
X32830198Y-19409480D02*
G01*
X32836680Y-19415515D01*
X33313584Y-19892419D01*
X33347069Y-19953742D01*
X33342085Y-20023434D01*
X33300213Y-20079367D01*
X33234749Y-20103784D01*
X33225903Y-20104100D01*
X32590336Y-20104100D01*
X32523297Y-20084415D01*
X32477542Y-20031611D01*
X32467598Y-19962453D01*
X32484798Y-19915003D01*
X32559353Y-19794130D01*
X32559358Y-19794119D01*
X32614505Y-19627697D01*
X32614506Y-19627690D01*
X32624999Y-19524986D01*
X32624999Y-19503201D01*
X32644681Y-19436161D01*
X32697483Y-19390404D01*
X32766641Y-19380457D01*
X32830198Y-19409480D01*
G37*
%TD.AperFunction*%
%TA.AperFunction,Conductor*%
G36*
X41668163Y-15020184D02*
G01*
X41713918Y-15072988D01*
X41723862Y-15142146D01*
X41694837Y-15205702D01*
X41653190Y-15237038D01*
X41480943Y-15316727D01*
X41480943Y-15316729D01*
X42822398Y-16658184D01*
X42625332Y-16689397D01*
X42385813Y-16767221D01*
X42161417Y-16881557D01*
X41957670Y-17029588D01*
X41779588Y-17207670D01*
X41631557Y-17411417D01*
X41517221Y-17635813D01*
X41439397Y-17875332D01*
X41408184Y-18072398D01*
X40094138Y-16758352D01*
X40076280Y-16735767D01*
X40042712Y-16681344D01*
X39918657Y-16557289D01*
X39918656Y-16557288D01*
X39769334Y-16465186D01*
X39602797Y-16410001D01*
X39602795Y-16410000D01*
X39500010Y-16399500D01*
X38499998Y-16399500D01*
X38499980Y-16399501D01*
X38397203Y-16410000D01*
X38397200Y-16410001D01*
X38230668Y-16465185D01*
X38230663Y-16465187D01*
X38081342Y-16557289D01*
X37957289Y-16681342D01*
X37865187Y-16830663D01*
X37865185Y-16830668D01*
X37858664Y-16850347D01*
X37810001Y-16997203D01*
X37810001Y-16997204D01*
X37810000Y-16997204D01*
X37799500Y-17099983D01*
X37799500Y-17799902D01*
X37779815Y-17866941D01*
X37763181Y-17887583D01*
X36287582Y-19363181D01*
X36226259Y-19396666D01*
X36199902Y-19399500D01*
X35999999Y-19399500D01*
X35999980Y-19399501D01*
X35897203Y-19410000D01*
X35897200Y-19410001D01*
X35730668Y-19465185D01*
X35730663Y-19465187D01*
X35581342Y-19557289D01*
X35457289Y-19681342D01*
X35365187Y-19830663D01*
X35365186Y-19830666D01*
X35325326Y-19950957D01*
X35325159Y-19951460D01*
X35285386Y-20008905D01*
X35220870Y-20035728D01*
X35152095Y-20023413D01*
X35119772Y-20000137D01*
X32732990Y-17613355D01*
X32732988Y-17613352D01*
X32657324Y-17537688D01*
X32623839Y-17476365D01*
X32623630Y-17472656D01*
X32618613Y-17467100D01*
X32599917Y-17467100D01*
X32537918Y-17450487D01*
X32510279Y-17434530D01*
X32477185Y-17415423D01*
X32324457Y-17374499D01*
X32166343Y-17374499D01*
X32158747Y-17374499D01*
X32158731Y-17374500D01*
X31074000Y-17374500D01*
X31006961Y-17354815D01*
X30961206Y-17302011D01*
X30950000Y-17250500D01*
X30950000Y-16879597D01*
X34740708Y-16879597D01*
X34740708Y-16879602D01*
X34750996Y-16997204D01*
X34759839Y-17098274D01*
X34816653Y-17310303D01*
X34816654Y-17310306D01*
X34816655Y-17310308D01*
X34909419Y-17509242D01*
X34909423Y-17509250D01*
X35035322Y-17689052D01*
X35035327Y-17689058D01*
X35190541Y-17844272D01*
X35190547Y-17844277D01*
X35370349Y-17970176D01*
X35370351Y-17970177D01*
X35370354Y-17970179D01*
X35569297Y-18062947D01*
X35781326Y-18119761D01*
X35937521Y-18133426D01*
X35999998Y-18138892D01*
X36000000Y-18138892D01*
X36000002Y-18138892D01*
X36054668Y-18134109D01*
X36218674Y-18119761D01*
X36430703Y-18062947D01*
X36629646Y-17970179D01*
X36809457Y-17844274D01*
X36964674Y-17689057D01*
X37090579Y-17509246D01*
X37183347Y-17310303D01*
X37240161Y-17098274D01*
X37254509Y-16934268D01*
X37259292Y-16879602D01*
X37259292Y-16879597D01*
X37248684Y-16758352D01*
X37240161Y-16660926D01*
X37183347Y-16448897D01*
X37090579Y-16249954D01*
X37090577Y-16249951D01*
X37090576Y-16249949D01*
X36964677Y-16070147D01*
X36964672Y-16070141D01*
X36809458Y-15914927D01*
X36809452Y-15914922D01*
X36629650Y-15789023D01*
X36629642Y-15789019D01*
X36430708Y-15696255D01*
X36430706Y-15696254D01*
X36430703Y-15696253D01*
X36273389Y-15654100D01*
X36218675Y-15639439D01*
X36218668Y-15639438D01*
X36000002Y-15620308D01*
X35999998Y-15620308D01*
X35781331Y-15639438D01*
X35781324Y-15639439D01*
X35658902Y-15672242D01*
X35569297Y-15696253D01*
X35569295Y-15696253D01*
X35569291Y-15696255D01*
X35370357Y-15789019D01*
X35370349Y-15789023D01*
X35190547Y-15914922D01*
X35190541Y-15914927D01*
X35035327Y-16070141D01*
X35035322Y-16070147D01*
X34909423Y-16249949D01*
X34909419Y-16249957D01*
X34816655Y-16448891D01*
X34816653Y-16448895D01*
X34816653Y-16448897D01*
X34812288Y-16465187D01*
X34759839Y-16660924D01*
X34759838Y-16660931D01*
X34740708Y-16879597D01*
X30950000Y-16879597D01*
X30950000Y-16292100D01*
X32125000Y-16292100D01*
X32618611Y-16292100D01*
X32618611Y-16292099D01*
X32614505Y-16251903D01*
X32614505Y-16251901D01*
X32559358Y-16085480D01*
X32559356Y-16085475D01*
X32467315Y-15936254D01*
X32343345Y-15812284D01*
X32194120Y-15720241D01*
X32125000Y-15697337D01*
X32125000Y-16292100D01*
X30950000Y-16292100D01*
X30950000Y-15697337D01*
X30880879Y-15720241D01*
X30731654Y-15812284D01*
X30607683Y-15936255D01*
X30607679Y-15936260D01*
X30605826Y-15939265D01*
X30604018Y-15940890D01*
X30603202Y-15941923D01*
X30603025Y-15941783D01*
X30553874Y-15985985D01*
X30484911Y-15997201D01*
X30420831Y-15969352D01*
X30394753Y-15939253D01*
X30394737Y-15939228D01*
X30392712Y-15935944D01*
X30268656Y-15811888D01*
X30119334Y-15719786D01*
X29952797Y-15664601D01*
X29952795Y-15664600D01*
X29850010Y-15654100D01*
X29074998Y-15654100D01*
X29074980Y-15654101D01*
X28972203Y-15664600D01*
X28972200Y-15664601D01*
X28805668Y-15719785D01*
X28805663Y-15719787D01*
X28656342Y-15811889D01*
X28532289Y-15935942D01*
X28440187Y-16085263D01*
X28440184Y-16085271D01*
X28414317Y-16163330D01*
X28374544Y-16220774D01*
X28310028Y-16247596D01*
X28255658Y-16241366D01*
X28179257Y-16214632D01*
X28179249Y-16214630D01*
X28000004Y-16194435D01*
X27999996Y-16194435D01*
X27820750Y-16214630D01*
X27820745Y-16214631D01*
X27650476Y-16274211D01*
X27497737Y-16370184D01*
X27370184Y-16497737D01*
X27274210Y-16650478D01*
X27214630Y-16820750D01*
X27204837Y-16907668D01*
X27177770Y-16972082D01*
X27169298Y-16981465D01*
X26287584Y-17863181D01*
X26226261Y-17896666D01*
X26199903Y-17899500D01*
X26053593Y-17899500D01*
X25986554Y-17879815D01*
X25940799Y-17827011D01*
X25930855Y-17757853D01*
X25959880Y-17694297D01*
X25963893Y-17689986D01*
X25964666Y-17689064D01*
X25964674Y-17689057D01*
X26090579Y-17509246D01*
X26183347Y-17310303D01*
X26240161Y-17098274D01*
X26254509Y-16934268D01*
X26259292Y-16879602D01*
X26259292Y-16879597D01*
X26248684Y-16758352D01*
X26240161Y-16660926D01*
X26183347Y-16448897D01*
X26090579Y-16249954D01*
X26090577Y-16249951D01*
X26090576Y-16249949D01*
X25964677Y-16070147D01*
X25964672Y-16070141D01*
X25809458Y-15914927D01*
X25809452Y-15914922D01*
X25629650Y-15789023D01*
X25629642Y-15789019D01*
X25430708Y-15696255D01*
X25430706Y-15696254D01*
X25430703Y-15696253D01*
X25273389Y-15654100D01*
X25218675Y-15639439D01*
X25218668Y-15639438D01*
X25000002Y-15620308D01*
X24999998Y-15620308D01*
X24781331Y-15639438D01*
X24781324Y-15639439D01*
X24658902Y-15672242D01*
X24569297Y-15696253D01*
X24569295Y-15696253D01*
X24569291Y-15696255D01*
X24370357Y-15789019D01*
X24370349Y-15789023D01*
X24190547Y-15914922D01*
X24190541Y-15914927D01*
X24035327Y-16070141D01*
X24035322Y-16070147D01*
X23909423Y-16249949D01*
X23909419Y-16249957D01*
X23816655Y-16448891D01*
X23816653Y-16448895D01*
X23816653Y-16448897D01*
X23812288Y-16465187D01*
X23759839Y-16660924D01*
X23759838Y-16660931D01*
X23740708Y-16879597D01*
X23740708Y-16879602D01*
X23750996Y-16997204D01*
X23759839Y-17098274D01*
X23816653Y-17310303D01*
X23816654Y-17310306D01*
X23816655Y-17310308D01*
X23909419Y-17509242D01*
X23909423Y-17509250D01*
X24035322Y-17689052D01*
X24038803Y-17693200D01*
X24037584Y-17694222D01*
X24067573Y-17749142D01*
X24062589Y-17818834D01*
X24020717Y-17874767D01*
X23955253Y-17899184D01*
X23946407Y-17899500D01*
X23086670Y-17899500D01*
X23086654Y-17899499D01*
X23079058Y-17899499D01*
X22920943Y-17899499D01*
X22874264Y-17912007D01*
X22768214Y-17940423D01*
X22768209Y-17940426D01*
X22631290Y-18019475D01*
X22631282Y-18019481D01*
X22387582Y-18263181D01*
X22326259Y-18296666D01*
X22299901Y-18299500D01*
X21599998Y-18299500D01*
X21599980Y-18299501D01*
X21497203Y-18310000D01*
X21497202Y-18310001D01*
X21465472Y-18320515D01*
X21395644Y-18322915D01*
X21335602Y-18287183D01*
X21304411Y-18224662D01*
X21302652Y-18209521D01*
X21285473Y-17892685D01*
X21285472Y-17892668D01*
X21227584Y-17539568D01*
X21227578Y-17539542D01*
X21131852Y-17194767D01*
X21131850Y-17194760D01*
X20999402Y-16862340D01*
X20999393Y-16862322D01*
X20930963Y-16733249D01*
X19591814Y-18072397D01*
X19560603Y-17875332D01*
X19482779Y-17635813D01*
X19368443Y-17411417D01*
X19220412Y-17207670D01*
X19042330Y-17029588D01*
X18838583Y-16881557D01*
X18614187Y-16767221D01*
X18374668Y-16689397D01*
X18177600Y-16658184D01*
X19519055Y-15316729D01*
X19346808Y-15237038D01*
X19294230Y-15191024D01*
X19274877Y-15123888D01*
X19294891Y-15056946D01*
X19347920Y-15011452D01*
X19398875Y-15000499D01*
X41601124Y-15000499D01*
X41668163Y-15020184D01*
G37*
%TD.AperFunction*%
%TA.AperFunction,Conductor*%
G36*
X32012342Y-18595185D02*
G01*
X32032984Y-18611819D01*
X32088681Y-18667516D01*
X32122166Y-18728839D01*
X32125000Y-18755197D01*
X32125000Y-19463500D01*
X32105315Y-19530539D01*
X32052511Y-19576294D01*
X32001000Y-19587500D01*
X31074000Y-19587500D01*
X31006961Y-19567815D01*
X30961206Y-19515011D01*
X30950000Y-19463500D01*
X30950000Y-18699500D01*
X30969685Y-18632461D01*
X31022489Y-18586706D01*
X31074000Y-18575500D01*
X31945303Y-18575500D01*
X32012342Y-18595185D01*
G37*
%TD.AperFunction*%
%TD*%
M02*
