%TF.GenerationSoftware,KiCad,Pcbnew,8.0.3-8.0.3-0~ubuntu22.04.1*%
%TF.CreationDate,2024-06-26T16:43:43-04:00*%
%TF.ProjectId,drive_27A,64726976-655f-4323-9741-2e6b69636164,rev?*%
%TF.SameCoordinates,Original*%
%TF.FileFunction,Copper,L1,Top*%
%TF.FilePolarity,Positive*%
%FSLAX46Y46*%
G04 Gerber Fmt 4.6, Leading zero omitted, Abs format (unit mm)*
G04 Created by KiCad (PCBNEW 8.0.3-8.0.3-0~ubuntu22.04.1) date 2024-06-26 16:43:43*
%MOMM*%
%LPD*%
G01*
G04 APERTURE LIST*
G04 Aperture macros list*
%AMRoundRect*
0 Rectangle with rounded corners*
0 $1 Rounding radius*
0 $2 $3 $4 $5 $6 $7 $8 $9 X,Y pos of 4 corners*
0 Add a 4 corners polygon primitive as box body*
4,1,4,$2,$3,$4,$5,$6,$7,$8,$9,$2,$3,0*
0 Add four circle primitives for the rounded corners*
1,1,$1+$1,$2,$3*
1,1,$1+$1,$4,$5*
1,1,$1+$1,$6,$7*
1,1,$1+$1,$8,$9*
0 Add four rect primitives between the rounded corners*
20,1,$1+$1,$2,$3,$4,$5,0*
20,1,$1+$1,$4,$5,$6,$7,0*
20,1,$1+$1,$6,$7,$8,$9,0*
20,1,$1+$1,$8,$9,$2,$3,0*%
%AMRotRect*
0 Rectangle, with rotation*
0 The origin of the aperture is its center*
0 $1 length*
0 $2 width*
0 $3 Rotation angle, in degrees counterclockwise*
0 Add horizontal line*
21,1,$1,$2,0,0,$3*%
G04 Aperture macros list end*
%TA.AperFunction,SMDPad,CuDef*%
%ADD10R,0.762000X4.683400*%
%TD*%
%TA.AperFunction,SMDPad,CuDef*%
%ADD11R,10.312400X9.557400*%
%TD*%
%TA.AperFunction,ComponentPad*%
%ADD12RotRect,2.400000X2.400000X70.000000*%
%TD*%
%TA.AperFunction,ComponentPad*%
%ADD13C,2.400000*%
%TD*%
%TA.AperFunction,ComponentPad*%
%ADD14R,1.268000X1.268000*%
%TD*%
%TA.AperFunction,ComponentPad*%
%ADD15C,1.268000*%
%TD*%
%TA.AperFunction,SMDPad,CuDef*%
%ADD16RoundRect,0.250000X0.475000X-0.337500X0.475000X0.337500X-0.475000X0.337500X-0.475000X-0.337500X0*%
%TD*%
%TA.AperFunction,ComponentPad*%
%ADD17C,3.600000*%
%TD*%
%TA.AperFunction,ConnectorPad*%
%ADD18C,5.600000*%
%TD*%
%TA.AperFunction,SMDPad,CuDef*%
%ADD19RoundRect,0.250000X-0.475000X0.337500X-0.475000X-0.337500X0.475000X-0.337500X0.475000X0.337500X0*%
%TD*%
%TA.AperFunction,ComponentPad*%
%ADD20C,1.400000*%
%TD*%
%TA.AperFunction,ComponentPad*%
%ADD21R,3.500000X3.500000*%
%TD*%
%TA.AperFunction,ComponentPad*%
%ADD22C,3.500000*%
%TD*%
%TA.AperFunction,SMDPad,CuDef*%
%ADD23RoundRect,0.250000X-0.337500X-0.475000X0.337500X-0.475000X0.337500X0.475000X-0.337500X0.475000X0*%
%TD*%
%TA.AperFunction,SMDPad,CuDef*%
%ADD24RoundRect,0.250000X0.450000X-0.350000X0.450000X0.350000X-0.450000X0.350000X-0.450000X-0.350000X0*%
%TD*%
%TA.AperFunction,ComponentPad*%
%ADD25C,1.508000*%
%TD*%
%TA.AperFunction,ComponentPad*%
%ADD26R,2.550000X2.550000*%
%TD*%
%TA.AperFunction,ComponentPad*%
%ADD27C,2.550000*%
%TD*%
%TA.AperFunction,SMDPad,CuDef*%
%ADD28RoundRect,0.250000X-0.450000X0.350000X-0.450000X-0.350000X0.450000X-0.350000X0.450000X0.350000X0*%
%TD*%
%TA.AperFunction,SMDPad,CuDef*%
%ADD29RoundRect,0.250000X0.337500X0.475000X-0.337500X0.475000X-0.337500X-0.475000X0.337500X-0.475000X0*%
%TD*%
%TA.AperFunction,ComponentPad*%
%ADD30R,1.700000X1.700000*%
%TD*%
%TA.AperFunction,ComponentPad*%
%ADD31O,1.700000X1.700000*%
%TD*%
%TA.AperFunction,ComponentPad*%
%ADD32O,1.600000X0.900000*%
%TD*%
%TA.AperFunction,ViaPad*%
%ADD33C,0.600000*%
%TD*%
%TA.AperFunction,ViaPad*%
%ADD34C,1.200000*%
%TD*%
%TA.AperFunction,Conductor*%
%ADD35C,0.200000*%
%TD*%
%TA.AperFunction,Conductor*%
%ADD36C,0.155814*%
%TD*%
G04 APERTURE END LIST*
D10*
%TO.P,U5,1,GND*%
%TO.N,GND*%
X32740000Y-43158300D03*
%TO.P,U5,2,IN*%
%TO.N,Net-(U5-IN)*%
X34010000Y-43158300D03*
%TO.P,U5,3,EN_(INH)*%
%TO.N,Net-(U5-EN_(INH))*%
X35280000Y-43158300D03*
%TO.P,U5,4*%
%TO.N,N/C*%
X36550000Y-43158300D03*
%TO.P,U5,5,SR*%
%TO.N,Net-(U5-SR)*%
X37820000Y-43158300D03*
%TO.P,U5,6,IS*%
%TO.N,Net-(U5-IS)*%
X39090000Y-43158300D03*
%TO.P,U5,7,VS*%
%TO.N,+24V*%
X40360000Y-43158300D03*
D11*
%TO.P,U5,8,OUT*%
%TO.N,J2-*%
X36550000Y-32278700D03*
%TD*%
D12*
%TO.P,C6,1*%
%TO.N,+24V*%
X42994949Y-57978832D03*
D13*
%TO.P,C6,2*%
%TO.N,GND*%
X44705050Y-53280369D03*
%TD*%
D14*
%TO.P,J2,1*%
%TO.N,CANH*%
X19055000Y-61650000D03*
D15*
%TO.P,J2,2*%
%TO.N,CANL*%
X20325000Y-59110000D03*
%TO.P,J2,3*%
%TO.N,unconnected-(J2-Pad3)*%
X21595000Y-61650000D03*
%TO.P,J2,4*%
%TO.N,unconnected-(J2-Pad4)*%
X22865000Y-59110000D03*
%TO.P,J2,5*%
%TO.N,unconnected-(J2-Pad5)*%
X24135000Y-61650000D03*
%TO.P,J2,6*%
%TO.N,unconnected-(J2-Pad6)*%
X25405000Y-59110000D03*
%TO.P,J2,7*%
%TO.N,+5V*%
X26675000Y-61650000D03*
%TO.P,J2,8*%
%TO.N,GND*%
X27945000Y-59110000D03*
%TD*%
D16*
%TO.P,C10,1*%
%TO.N,+24V*%
X29600000Y-46917100D03*
%TO.P,C10,2*%
%TO.N,GND*%
X29600000Y-44842100D03*
%TD*%
D17*
%TO.P,H2,1,1*%
%TO.N,GND*%
X43000000Y-18250000D03*
D18*
X43000000Y-18250000D03*
%TD*%
D19*
%TO.P,C13,1*%
%TO.N,+24V*%
X29600000Y-40629600D03*
%TO.P,C13,2*%
%TO.N,GND*%
X29600000Y-42704600D03*
%TD*%
D20*
%TO.P,J6,*%
%TO.N,*%
X44250000Y-72500000D03*
X33250000Y-72500000D03*
D21*
%TO.P,J6,1,-*%
%TO.N,GND*%
X36250000Y-62500000D03*
D22*
%TO.P,J6,2,+*%
%TO.N,+24V*%
X41250000Y-62500000D03*
%TD*%
D16*
%TO.P,C8,1*%
%TO.N,+24V*%
X43500000Y-32787500D03*
%TO.P,C8,2*%
%TO.N,J2-*%
X43500000Y-30712500D03*
%TD*%
%TO.P,C7,1*%
%TO.N,+24V*%
X29250000Y-33537500D03*
%TO.P,C7,2*%
%TO.N,J2+*%
X29250000Y-31462500D03*
%TD*%
D23*
%TO.P,C12,1*%
%TO.N,J2-*%
X41462500Y-24500000D03*
%TO.P,C12,2*%
%TO.N,GND*%
X43537500Y-24500000D03*
%TD*%
D24*
%TO.P,R12,1*%
%TO.N,Net-(U5-IS)*%
X37500000Y-56000000D03*
%TO.P,R12,2*%
%TO.N,GND*%
X37500000Y-54000000D03*
%TD*%
D25*
%TO.P,J7,*%
%TO.N,*%
X25000000Y-16879600D03*
X36000000Y-16879600D03*
D26*
%TO.P,J7,1,+*%
%TO.N,J2-*%
X33000000Y-21879600D03*
D27*
%TO.P,J7,2,-*%
%TO.N,J2+*%
X28000000Y-21879600D03*
%TD*%
D24*
%TO.P,R11,1*%
%TO.N,Net-(U4-IS)*%
X24600000Y-56379600D03*
%TO.P,R11,2*%
%TO.N,GND*%
X24600000Y-54379600D03*
%TD*%
D17*
%TO.P,H1,1,1*%
%TO.N,GND*%
X18000000Y-18250000D03*
D18*
X18000000Y-18250000D03*
%TD*%
D10*
%TO.P,U4,1,GND*%
%TO.N,GND*%
X18440000Y-43158300D03*
%TO.P,U4,2,IN*%
%TO.N,Net-(U4-IN)*%
X19710000Y-43158300D03*
%TO.P,U4,3,EN_(INH)*%
%TO.N,Net-(U4-EN_(INH))*%
X20980000Y-43158300D03*
%TO.P,U4,4*%
%TO.N,N/C*%
X22250000Y-43158300D03*
%TO.P,U4,5,SR*%
%TO.N,Net-(U4-SR)*%
X23520000Y-43158300D03*
%TO.P,U4,6,IS*%
%TO.N,Net-(U4-IS)*%
X24790000Y-43158300D03*
%TO.P,U4,7,VS*%
%TO.N,+24V*%
X26060000Y-43158300D03*
D11*
%TO.P,U4,8,OUT*%
%TO.N,J2+*%
X22250000Y-32278700D03*
%TD*%
D19*
%TO.P,C9,1*%
%TO.N,Net-(U4-IS)*%
X24600000Y-49592100D03*
%TO.P,C9,2*%
%TO.N,GND*%
X24600000Y-51667100D03*
%TD*%
D28*
%TO.P,R10,1*%
%TO.N,Net-(U5-EN_(INH))*%
X34300000Y-49629600D03*
%TO.P,R10,2*%
%TO.N,J2_EN_2*%
X34300000Y-51629600D03*
%TD*%
D29*
%TO.P,C11,1*%
%TO.N,J2+*%
X19537500Y-24500000D03*
%TO.P,C11,2*%
%TO.N,GND*%
X17462500Y-24500000D03*
%TD*%
D19*
%TO.P,C14,1*%
%TO.N,Net-(U5-IS)*%
X37500000Y-49592100D03*
%TO.P,C14,2*%
%TO.N,GND*%
X37500000Y-51667100D03*
%TD*%
%TO.P,C16,1*%
%TO.N,Net-(U5-SR)*%
X34250000Y-53962500D03*
%TO.P,C16,2*%
%TO.N,GND*%
X34250000Y-56037500D03*
%TD*%
D28*
%TO.P,R9,1*%
%TO.N,Net-(U4-EN_(INH))*%
X19550000Y-54250000D03*
%TO.P,R9,2*%
%TO.N,J2_EN_1*%
X19550000Y-56250000D03*
%TD*%
D19*
%TO.P,C15,1*%
%TO.N,Net-(U4-SR)*%
X21300000Y-49592100D03*
%TO.P,C15,2*%
%TO.N,GND*%
X21300000Y-51667100D03*
%TD*%
D28*
%TO.P,R8,1*%
%TO.N,Net-(U5-IN)*%
X31750000Y-49629600D03*
%TO.P,R8,2*%
%TO.N,J2_IN_2*%
X31750000Y-51629600D03*
%TD*%
%TO.P,R7,1*%
%TO.N,Net-(U4-IN)*%
X18050000Y-49600000D03*
%TO.P,R7,2*%
%TO.N,J2_IN_1*%
X18050000Y-51600000D03*
%TD*%
D30*
%TO.P,JP1,1,A*%
%TO.N,+24V*%
X45000000Y-49830000D03*
D31*
%TO.P,JP1,2,C*%
%TO.N,Net-(JP1-C)*%
X45000000Y-47290000D03*
%TO.P,JP1,3,B*%
%TO.N,+5V*%
X45000000Y-44750000D03*
%TD*%
D32*
%TO.P,J1,6,Shield*%
%TO.N,GND*%
X45250000Y-35450000D03*
X45250000Y-42050000D03*
%TD*%
D33*
%TO.N,EN_PB*%
X28000000Y-17000000D03*
X30500000Y-20250000D03*
%TO.N,GND*%
X31600000Y-42750000D03*
X18500000Y-41000000D03*
X18500000Y-42750000D03*
X18500000Y-44500000D03*
X19750000Y-70000000D03*
X23250000Y-67000000D03*
X32750000Y-41000000D03*
X33000000Y-19750000D03*
X31600000Y-44500000D03*
X31600000Y-46500000D03*
X23250000Y-48750000D03*
X32750000Y-46500000D03*
X29750000Y-65500000D03*
X32750000Y-42750000D03*
X20676514Y-55566865D03*
X18500000Y-46500000D03*
X17000000Y-57250000D03*
X32000000Y-68750000D03*
X18500000Y-48250000D03*
X28500000Y-65500000D03*
X35800000Y-55250000D03*
X24250000Y-68000000D03*
X45750000Y-27750000D03*
X32750000Y-44500000D03*
X30500000Y-70000000D03*
X31600000Y-41000000D03*
X36000000Y-37557402D03*
%TO.N,GPIO_0*%
X19110000Y-47250000D03*
X23250000Y-26999998D03*
%TO.N,+5V*%
X37095000Y-46845000D03*
%TO.N,+3.3V*%
X41500000Y-69000000D03*
X41500000Y-68000000D03*
X41500000Y-70000000D03*
X41500000Y-66000000D03*
X37750000Y-66000000D03*
X37750000Y-68000000D03*
X40250000Y-68000000D03*
X40250000Y-66000000D03*
X41500000Y-67000000D03*
X37750000Y-67000000D03*
X40250000Y-67000000D03*
X30750000Y-33500000D03*
X39000000Y-70000000D03*
X24875000Y-66625000D03*
X39000000Y-69000000D03*
X39000000Y-66000000D03*
X25500000Y-19750000D03*
X32750000Y-60250000D03*
X39000000Y-68000000D03*
X37750000Y-69000000D03*
X40250000Y-69000000D03*
X37750000Y-70000000D03*
X39000000Y-67000000D03*
X40250000Y-70000000D03*
X45750000Y-29500000D03*
%TO.N,J2_IN_1*%
X20310000Y-47750000D03*
%TO.N,J2_IN_2*%
X29400000Y-48500000D03*
%TO.N,J2_EN_1*%
X26850000Y-57129600D03*
X35500000Y-52750000D03*
X36000000Y-47500000D03*
%TO.N,J2_EN_2*%
X33014065Y-48514065D03*
%TO.N,TXC*%
X20750000Y-53000000D03*
X23106765Y-52643235D03*
D34*
%TO.N,Net-(JP1-C)*%
X34750000Y-68000000D03*
X45000000Y-64250000D03*
%TD*%
D35*
%TO.N,GND*%
X37500000Y-51667100D02*
X37500000Y-54000000D01*
X24600000Y-54379600D02*
X24600000Y-51667100D01*
X23000000Y-51667100D02*
X24600000Y-51667100D01*
X17462500Y-24500000D02*
X17462500Y-19787500D01*
X23000000Y-51667100D02*
X23222937Y-51444163D01*
X23222937Y-48777063D02*
X23250000Y-48750000D01*
X21300000Y-51667100D02*
X23000000Y-51667100D01*
X35012500Y-56037500D02*
X35800000Y-55250000D01*
X43537500Y-19787500D02*
X43000000Y-19250000D01*
X24637500Y-51629600D02*
X24600000Y-51667100D01*
X34250000Y-56037500D02*
X35012500Y-56037500D01*
X43537500Y-24500000D02*
X43537500Y-19787500D01*
X37500000Y-54000000D02*
X37050000Y-54000000D01*
X37050000Y-54000000D02*
X35800000Y-55250000D01*
X23222937Y-51444163D02*
X23222937Y-48777063D01*
X17462500Y-19787500D02*
X18000000Y-19250000D01*
D36*
%TO.N,J2+*%
X25500000Y-35528700D02*
X22250000Y-32278700D01*
%TO.N,J2-*%
X43500000Y-30712500D02*
X42750000Y-31462500D01*
X42750000Y-31462500D02*
X37366200Y-31462500D01*
X37366200Y-31462500D02*
X36550000Y-32278700D01*
D35*
%TO.N,Net-(U4-IS)*%
X24600000Y-49592100D02*
X24600000Y-43348300D01*
X25625000Y-50617100D02*
X24600000Y-49592100D01*
X24600000Y-56379600D02*
X25625000Y-55354600D01*
X25625000Y-55354600D02*
X25625000Y-50617100D01*
X24600000Y-43348300D02*
X24790000Y-43158300D01*
%TO.N,Net-(U5-IS)*%
X37500000Y-49592100D02*
X39090000Y-48002100D01*
X38525000Y-54725000D02*
X38525000Y-50617100D01*
X39090000Y-48002100D02*
X39090000Y-43158300D01*
X37500000Y-55750000D02*
X38525000Y-54725000D01*
X38525000Y-50617100D02*
X37500000Y-49592100D01*
X37500000Y-56000000D02*
X37500000Y-55750000D01*
%TO.N,Net-(U4-SR)*%
X23520000Y-47372100D02*
X21300000Y-49592100D01*
X23520000Y-43158300D02*
X23520000Y-47372100D01*
%TO.N,Net-(U5-SR)*%
X35636029Y-53962500D02*
X36100000Y-53498529D01*
X34250000Y-53962500D02*
X35636029Y-53962500D01*
X36100000Y-53498529D02*
X36100000Y-48805486D01*
X37820000Y-47085486D02*
X37820000Y-43158300D01*
X36100000Y-48805486D02*
X37820000Y-47085486D01*
%TO.N,J2_IN_1*%
X19150000Y-50500000D02*
X19150000Y-49100000D01*
X18050000Y-51600000D02*
X19150000Y-50500000D01*
X19150000Y-49100000D02*
X20310000Y-47940000D01*
X20310000Y-47940000D02*
X20310000Y-47750000D01*
%TO.N,Net-(U4-IN)*%
X18050000Y-49600000D02*
X19710000Y-47940000D01*
X19710000Y-47940000D02*
X19710000Y-43158300D01*
%TO.N,Net-(U5-IN)*%
X32250000Y-49129600D02*
X32250000Y-48429601D01*
X34010000Y-46669601D02*
X34010000Y-43158300D01*
X31750000Y-49629600D02*
X32250000Y-49129600D01*
X32250000Y-48429601D02*
X34010000Y-46669601D01*
%TO.N,J2_IN_2*%
X30350000Y-48879600D02*
X30350000Y-50929600D01*
X29970400Y-48500000D02*
X30350000Y-48879600D01*
X30350000Y-50929600D02*
X31050000Y-51629600D01*
X29400000Y-48500000D02*
X29970400Y-48500000D01*
%TO.N,J2_EN_1*%
X35650000Y-48845286D02*
X35650000Y-47850000D01*
X20929600Y-57629600D02*
X19550000Y-56250000D01*
X35500000Y-52750000D02*
X35500000Y-48995286D01*
X26850000Y-57129600D02*
X26350000Y-57629600D01*
X26350000Y-57629600D02*
X20929600Y-57629600D01*
X35650000Y-47850000D02*
X36000000Y-47500000D01*
X35500000Y-48995286D02*
X35650000Y-48845286D01*
%TO.N,Net-(U4-EN_(INH))*%
X20980000Y-43158300D02*
X20980000Y-47940000D01*
X19550000Y-49370000D02*
X19550000Y-54250000D01*
X20980000Y-47940000D02*
X19550000Y-49370000D01*
%TO.N,J2_EN_2*%
X33014065Y-51043665D02*
X33600000Y-51629600D01*
X33600000Y-51629600D02*
X34300000Y-51629600D01*
X33014065Y-48514065D02*
X33014065Y-51043665D01*
%TO.N,Net-(U5-EN_(INH))*%
X35250000Y-43188300D02*
X35280000Y-43158300D01*
X34300000Y-49629600D02*
X35250000Y-48679600D01*
X35250000Y-48679600D02*
X35250000Y-43188300D01*
%TD*%
%TA.AperFunction,Conductor*%
%TO.N,+24V*%
G36*
X46187323Y-19550051D02*
G01*
X46235622Y-19600538D01*
X46249500Y-19657540D01*
X46249500Y-26901928D01*
X46229815Y-26968967D01*
X46177011Y-27014722D01*
X46107853Y-27024666D01*
X46084546Y-27018970D01*
X45929257Y-26964632D01*
X45929249Y-26964630D01*
X45750004Y-26944435D01*
X45749996Y-26944435D01*
X45570750Y-26964630D01*
X45570745Y-26964631D01*
X45400476Y-27024211D01*
X45247737Y-27120184D01*
X45120184Y-27247737D01*
X45024211Y-27400476D01*
X44964631Y-27570745D01*
X44964630Y-27570750D01*
X44944435Y-27749996D01*
X44944435Y-27750003D01*
X44964630Y-27929249D01*
X44964631Y-27929254D01*
X45024211Y-28099523D01*
X45120184Y-28252262D01*
X45247738Y-28379816D01*
X45400478Y-28475789D01*
X45400480Y-28475790D01*
X45492411Y-28507959D01*
X45549187Y-28548680D01*
X45574934Y-28613633D01*
X45561478Y-28682195D01*
X45513090Y-28732597D01*
X45492411Y-28742041D01*
X45400480Y-28774209D01*
X45247737Y-28870184D01*
X45120184Y-28997737D01*
X45024211Y-29150476D01*
X44964631Y-29320745D01*
X44964630Y-29320750D01*
X44944435Y-29499996D01*
X44944435Y-29500003D01*
X44964630Y-29679249D01*
X44964631Y-29679254D01*
X45024211Y-29849523D01*
X45088720Y-29952188D01*
X45120184Y-30002262D01*
X45247738Y-30129816D01*
X45400478Y-30225789D01*
X45570739Y-30285366D01*
X45570745Y-30285368D01*
X45570750Y-30285369D01*
X45749996Y-30305565D01*
X45750000Y-30305565D01*
X45750004Y-30305565D01*
X45929249Y-30285369D01*
X45929251Y-30285368D01*
X45929255Y-30285368D01*
X45929258Y-30285366D01*
X45929262Y-30285366D01*
X46084545Y-30231030D01*
X46154324Y-30227468D01*
X46214951Y-30262196D01*
X46247179Y-30324190D01*
X46249500Y-30348071D01*
X46249500Y-34508836D01*
X46229815Y-34575875D01*
X46177011Y-34621630D01*
X46107853Y-34631574D01*
X46056615Y-34611942D01*
X46050240Y-34607683D01*
X46050228Y-34607676D01*
X45877251Y-34536027D01*
X45877243Y-34536025D01*
X45693620Y-34499500D01*
X45693616Y-34499500D01*
X44806384Y-34499500D01*
X44806379Y-34499500D01*
X44622756Y-34536025D01*
X44622748Y-34536027D01*
X44449771Y-34607676D01*
X44449762Y-34607681D01*
X44294092Y-34711697D01*
X44294088Y-34711700D01*
X44161700Y-34844088D01*
X44161697Y-34844092D01*
X44057681Y-34999762D01*
X44057676Y-34999771D01*
X43986027Y-35172748D01*
X43986025Y-35172756D01*
X43949500Y-35356379D01*
X43949500Y-35543620D01*
X43986025Y-35727243D01*
X43986027Y-35727251D01*
X44057676Y-35900228D01*
X44057681Y-35900237D01*
X44161697Y-36055907D01*
X44161700Y-36055911D01*
X44294088Y-36188299D01*
X44294092Y-36188302D01*
X44449762Y-36292318D01*
X44449768Y-36292321D01*
X44449769Y-36292322D01*
X44622749Y-36363973D01*
X44806379Y-36400499D01*
X44806383Y-36400500D01*
X44806384Y-36400500D01*
X45693617Y-36400500D01*
X45693618Y-36400499D01*
X45877251Y-36363973D01*
X46050231Y-36292322D01*
X46050237Y-36292318D01*
X46056609Y-36288061D01*
X46123286Y-36267183D01*
X46190667Y-36285667D01*
X46237357Y-36337646D01*
X46249500Y-36391163D01*
X46249500Y-41108836D01*
X46229815Y-41175875D01*
X46177011Y-41221630D01*
X46107853Y-41231574D01*
X46056615Y-41211942D01*
X46050240Y-41207683D01*
X46050228Y-41207676D01*
X45877251Y-41136027D01*
X45877243Y-41136025D01*
X45693620Y-41099500D01*
X45693616Y-41099500D01*
X44806384Y-41099500D01*
X44806379Y-41099500D01*
X44622756Y-41136025D01*
X44622748Y-41136027D01*
X44449771Y-41207676D01*
X44449762Y-41207681D01*
X44294092Y-41311697D01*
X44294088Y-41311700D01*
X44161700Y-41444088D01*
X44161697Y-41444092D01*
X44057681Y-41599762D01*
X44057676Y-41599771D01*
X43986027Y-41772748D01*
X43986025Y-41772756D01*
X43949500Y-41956379D01*
X43949500Y-42143620D01*
X43986025Y-42327243D01*
X43986027Y-42327251D01*
X44057676Y-42500228D01*
X44057681Y-42500237D01*
X44161697Y-42655907D01*
X44161700Y-42655911D01*
X44294088Y-42788299D01*
X44294092Y-42788302D01*
X44449762Y-42892318D01*
X44449771Y-42892323D01*
X44471444Y-42901300D01*
X44622749Y-42963973D01*
X44806379Y-43000499D01*
X44806383Y-43000500D01*
X44806384Y-43000500D01*
X45693617Y-43000500D01*
X45693618Y-43000499D01*
X45877251Y-42963973D01*
X46050231Y-42892322D01*
X46050237Y-42892318D01*
X46056609Y-42888061D01*
X46123286Y-42867183D01*
X46190667Y-42885667D01*
X46237357Y-42937646D01*
X46249500Y-42991163D01*
X46249500Y-43790241D01*
X46229815Y-43857280D01*
X46177011Y-43903035D01*
X46107853Y-43912979D01*
X46044297Y-43883954D01*
X46037819Y-43877922D01*
X45871402Y-43711506D01*
X45871395Y-43711501D01*
X45677834Y-43575967D01*
X45677830Y-43575965D01*
X45677828Y-43575964D01*
X45463663Y-43476097D01*
X45463659Y-43476096D01*
X45463655Y-43476094D01*
X45235413Y-43414938D01*
X45235403Y-43414936D01*
X45000001Y-43394341D01*
X44999999Y-43394341D01*
X44764596Y-43414936D01*
X44764586Y-43414938D01*
X44536344Y-43476094D01*
X44536335Y-43476098D01*
X44322171Y-43575964D01*
X44322169Y-43575965D01*
X44128597Y-43711505D01*
X43961505Y-43878597D01*
X43825965Y-44072169D01*
X43825964Y-44072171D01*
X43726098Y-44286335D01*
X43726094Y-44286344D01*
X43664938Y-44514586D01*
X43664936Y-44514596D01*
X43644341Y-44749999D01*
X43644341Y-44750000D01*
X43664936Y-44985403D01*
X43664938Y-44985413D01*
X43726094Y-45213655D01*
X43726096Y-45213659D01*
X43726097Y-45213663D01*
X43787390Y-45345106D01*
X43825965Y-45427830D01*
X43825967Y-45427834D01*
X43961501Y-45621395D01*
X43961506Y-45621402D01*
X44128597Y-45788493D01*
X44128603Y-45788498D01*
X44314158Y-45918425D01*
X44357783Y-45973002D01*
X44364977Y-46042500D01*
X44333454Y-46104855D01*
X44314158Y-46121575D01*
X44128597Y-46251505D01*
X43961505Y-46418597D01*
X43825965Y-46612169D01*
X43825964Y-46612171D01*
X43726098Y-46826335D01*
X43726094Y-46826344D01*
X43664938Y-47054586D01*
X43664936Y-47054596D01*
X43644341Y-47289999D01*
X43644341Y-47290000D01*
X43664936Y-47525403D01*
X43664938Y-47525413D01*
X43726094Y-47753655D01*
X43726096Y-47753659D01*
X43726097Y-47753663D01*
X43780432Y-47870184D01*
X43825965Y-47967830D01*
X43825967Y-47967834D01*
X43961501Y-48161395D01*
X43961506Y-48161402D01*
X44083818Y-48283714D01*
X44117303Y-48345037D01*
X44112319Y-48414729D01*
X44070447Y-48470662D01*
X44039471Y-48487577D01*
X43907912Y-48536646D01*
X43907906Y-48536649D01*
X43792812Y-48622809D01*
X43792809Y-48622812D01*
X43706649Y-48737906D01*
X43706645Y-48737913D01*
X43656403Y-48872620D01*
X43656401Y-48872627D01*
X43650000Y-48932155D01*
X43650000Y-48980000D01*
X45726000Y-48980000D01*
X45793039Y-48999685D01*
X45838794Y-49052489D01*
X45850000Y-49104000D01*
X45850000Y-51180000D01*
X45897828Y-51180000D01*
X45897844Y-51179999D01*
X45957372Y-51173598D01*
X45957379Y-51173596D01*
X46082167Y-51127054D01*
X46151858Y-51122070D01*
X46213182Y-51155555D01*
X46246666Y-51216878D01*
X46249500Y-51243236D01*
X46249500Y-52135286D01*
X46229815Y-52202325D01*
X46177011Y-52248080D01*
X46107853Y-52258024D01*
X46044297Y-52228999D01*
X46028553Y-52212599D01*
X45997491Y-52173649D01*
X45955100Y-52120492D01*
X45768267Y-51947137D01*
X45557684Y-51803564D01*
X45557680Y-51803562D01*
X45557677Y-51803560D01*
X45557676Y-51803559D01*
X45328056Y-51692981D01*
X45328058Y-51692981D01*
X45084516Y-51617858D01*
X45084512Y-51617857D01*
X45084508Y-51617856D01*
X44963281Y-51599583D01*
X44832490Y-51579869D01*
X44832485Y-51579869D01*
X44577615Y-51579869D01*
X44577609Y-51579869D01*
X44420659Y-51603526D01*
X44325592Y-51617856D01*
X44325589Y-51617857D01*
X44325583Y-51617858D01*
X44082042Y-51692981D01*
X43852423Y-51803559D01*
X43852422Y-51803560D01*
X43641832Y-51947137D01*
X43455002Y-52120490D01*
X43455000Y-52120492D01*
X43296091Y-52319757D01*
X43168658Y-52540478D01*
X43075542Y-52777731D01*
X43075540Y-52777738D01*
X43018827Y-53026214D01*
X42999782Y-53280364D01*
X42999782Y-53280373D01*
X43018827Y-53534523D01*
X43062482Y-53725789D01*
X43075542Y-53783006D01*
X43168657Y-54020257D01*
X43296091Y-54240981D01*
X43455000Y-54440246D01*
X43641833Y-54613601D01*
X43852416Y-54757174D01*
X43852421Y-54757176D01*
X43852422Y-54757177D01*
X43852423Y-54757178D01*
X43974378Y-54815907D01*
X44082042Y-54867756D01*
X44082043Y-54867756D01*
X44082046Y-54867758D01*
X44325592Y-54942882D01*
X44577615Y-54980869D01*
X44832485Y-54980869D01*
X45084508Y-54942882D01*
X45328054Y-54867758D01*
X45511114Y-54779601D01*
X45557676Y-54757178D01*
X45557676Y-54757177D01*
X45557684Y-54757174D01*
X45768267Y-54613601D01*
X45955100Y-54440246D01*
X46028555Y-54348136D01*
X46085741Y-54307998D01*
X46155553Y-54305148D01*
X46215823Y-54340493D01*
X46247416Y-54402812D01*
X46249500Y-54425451D01*
X46249500Y-63763179D01*
X46229815Y-63830218D01*
X46177011Y-63875973D01*
X46107853Y-63885917D01*
X46044297Y-63856892D01*
X46014500Y-63818451D01*
X45966608Y-63722273D01*
X45939673Y-63668179D01*
X45816764Y-63505421D01*
X45816762Y-63505418D01*
X45666041Y-63368019D01*
X45666039Y-63368017D01*
X45492642Y-63260655D01*
X45492635Y-63260651D01*
X45382838Y-63218116D01*
X45302456Y-63186976D01*
X45101976Y-63149500D01*
X44898024Y-63149500D01*
X44697544Y-63186976D01*
X44697541Y-63186976D01*
X44697541Y-63186977D01*
X44507364Y-63260651D01*
X44507357Y-63260655D01*
X44333960Y-63368017D01*
X44333958Y-63368019D01*
X44183237Y-63505418D01*
X44060327Y-63668178D01*
X43969422Y-63850739D01*
X43969417Y-63850752D01*
X43913602Y-64046917D01*
X43894785Y-64249999D01*
X43894785Y-64250000D01*
X43913602Y-64453082D01*
X43969417Y-64649247D01*
X43969422Y-64649260D01*
X44060327Y-64831821D01*
X44183237Y-64994581D01*
X44333958Y-65131980D01*
X44333960Y-65131982D01*
X44433141Y-65193392D01*
X44507363Y-65239348D01*
X44697544Y-65313024D01*
X44898024Y-65350500D01*
X44898026Y-65350500D01*
X45101974Y-65350500D01*
X45101976Y-65350500D01*
X45302456Y-65313024D01*
X45492637Y-65239348D01*
X45666041Y-65131981D01*
X45816764Y-64994579D01*
X45939673Y-64831821D01*
X46008083Y-64694435D01*
X46014500Y-64681548D01*
X46062003Y-64630311D01*
X46129666Y-64612890D01*
X46196006Y-64634816D01*
X46239961Y-64689127D01*
X46249500Y-64736820D01*
X46249500Y-71245933D01*
X46249235Y-71254043D01*
X46232925Y-71502883D01*
X46230807Y-71518964D01*
X46182954Y-71759535D01*
X46178756Y-71775202D01*
X46099909Y-72007479D01*
X46093702Y-72022465D01*
X45985212Y-72242460D01*
X45977102Y-72256507D01*
X45840825Y-72460460D01*
X45830951Y-72473328D01*
X45669218Y-72657749D01*
X45657744Y-72669222D01*
X45654633Y-72671950D01*
X45591250Y-72701350D01*
X45522034Y-72691814D01*
X45468961Y-72646372D01*
X45448881Y-72579450D01*
X45449406Y-72567298D01*
X45455643Y-72500000D01*
X45435115Y-72278464D01*
X45374229Y-72064472D01*
X45353312Y-72022465D01*
X45275061Y-71865316D01*
X45275056Y-71865308D01*
X45140979Y-71687761D01*
X44976562Y-71537876D01*
X44976560Y-71537874D01*
X44787404Y-71420754D01*
X44787398Y-71420752D01*
X44579940Y-71340382D01*
X44361243Y-71299500D01*
X44138757Y-71299500D01*
X43920060Y-71340382D01*
X43788864Y-71391207D01*
X43712601Y-71420752D01*
X43712595Y-71420754D01*
X43523439Y-71537874D01*
X43523437Y-71537876D01*
X43359020Y-71687761D01*
X43224943Y-71865308D01*
X43224938Y-71865316D01*
X43125775Y-72064461D01*
X43125769Y-72064476D01*
X43064885Y-72278462D01*
X43064884Y-72278464D01*
X43044357Y-72499999D01*
X43044357Y-72500000D01*
X43064884Y-72721535D01*
X43064885Y-72721537D01*
X43125769Y-72935523D01*
X43125775Y-72935538D01*
X43192844Y-73070228D01*
X43205105Y-73139013D01*
X43178232Y-73203508D01*
X43120757Y-73243236D01*
X43081844Y-73249500D01*
X34418156Y-73249500D01*
X34351117Y-73229815D01*
X34305362Y-73177011D01*
X34295418Y-73107853D01*
X34307156Y-73070228D01*
X34374224Y-72935538D01*
X34374223Y-72935538D01*
X34374229Y-72935528D01*
X34435115Y-72721536D01*
X34455643Y-72500000D01*
X34435115Y-72278464D01*
X34374229Y-72064472D01*
X34353312Y-72022465D01*
X34275061Y-71865316D01*
X34275056Y-71865308D01*
X34140979Y-71687761D01*
X33976562Y-71537876D01*
X33976560Y-71537874D01*
X33787404Y-71420754D01*
X33787398Y-71420752D01*
X33579940Y-71340382D01*
X33361243Y-71299500D01*
X33138757Y-71299500D01*
X32920060Y-71340382D01*
X32788864Y-71391207D01*
X32712601Y-71420752D01*
X32712595Y-71420754D01*
X32523439Y-71537874D01*
X32523437Y-71537876D01*
X32359020Y-71687761D01*
X32224943Y-71865308D01*
X32224938Y-71865316D01*
X32125775Y-72064461D01*
X32125769Y-72064476D01*
X32064885Y-72278462D01*
X32064884Y-72278464D01*
X32044357Y-72499999D01*
X32044357Y-72500000D01*
X32064884Y-72721535D01*
X32064885Y-72721537D01*
X32125769Y-72935523D01*
X32125775Y-72935538D01*
X32192844Y-73070228D01*
X32205105Y-73139013D01*
X32178232Y-73203508D01*
X32120757Y-73243236D01*
X32081844Y-73249500D01*
X18253051Y-73249500D01*
X18246968Y-73249351D01*
X18226900Y-73248365D01*
X17913071Y-73232947D01*
X17900962Y-73231754D01*
X17573305Y-73183151D01*
X17561369Y-73180777D01*
X17240055Y-73100292D01*
X17228411Y-73096759D01*
X16916540Y-72985170D01*
X16905301Y-72980515D01*
X16605844Y-72838883D01*
X16595121Y-72833150D01*
X16311011Y-72662862D01*
X16300893Y-72656102D01*
X16034829Y-72458775D01*
X16025423Y-72451055D01*
X15834998Y-72278464D01*
X15779986Y-72228604D01*
X15771395Y-72220013D01*
X15548944Y-71974576D01*
X15541224Y-71965170D01*
X15388714Y-71759535D01*
X15343895Y-71699103D01*
X15337137Y-71688988D01*
X15166844Y-71404871D01*
X15161120Y-71394163D01*
X15019479Y-71094688D01*
X15014829Y-71083459D01*
X14903240Y-70771588D01*
X14899707Y-70759944D01*
X14891152Y-70725789D01*
X14819219Y-70438617D01*
X14816848Y-70426694D01*
X14768245Y-70099037D01*
X14767052Y-70086927D01*
X14750649Y-69753032D01*
X14750500Y-69746948D01*
X14750500Y-67873788D01*
X15858500Y-67873788D01*
X15858500Y-68126211D01*
X15882168Y-68305981D01*
X15891446Y-68376452D01*
X15897883Y-68400476D01*
X15956773Y-68620258D01*
X16053363Y-68853447D01*
X16053372Y-68853464D01*
X16179566Y-69072041D01*
X16179568Y-69072045D01*
X16333227Y-69272294D01*
X16333235Y-69272303D01*
X16511697Y-69450765D01*
X16511705Y-69450772D01*
X16711954Y-69604431D01*
X16711958Y-69604433D01*
X16930535Y-69730627D01*
X16930552Y-69730636D01*
X17059758Y-69784154D01*
X17163740Y-69827226D01*
X17407548Y-69892554D01*
X17657796Y-69925500D01*
X17657803Y-69925500D01*
X17910197Y-69925500D01*
X17910204Y-69925500D01*
X18160452Y-69892554D01*
X18404260Y-69827226D01*
X18637454Y-69730633D01*
X18797559Y-69638196D01*
X18865460Y-69621724D01*
X18931486Y-69644577D01*
X18974677Y-69699498D01*
X18981318Y-69769052D01*
X18976601Y-69786538D01*
X18964632Y-69820742D01*
X18964630Y-69820750D01*
X18944435Y-69999996D01*
X18944435Y-70000003D01*
X18964630Y-70179249D01*
X18964631Y-70179254D01*
X19024211Y-70349523D01*
X19072701Y-70426694D01*
X19120184Y-70502262D01*
X19247738Y-70629816D01*
X19400478Y-70725789D01*
X19514969Y-70765851D01*
X19570745Y-70785368D01*
X19570750Y-70785369D01*
X19749996Y-70805565D01*
X19750000Y-70805565D01*
X19750004Y-70805565D01*
X19929249Y-70785369D01*
X19929252Y-70785368D01*
X19929255Y-70785368D01*
X20099522Y-70725789D01*
X20252262Y-70629816D01*
X20379816Y-70502262D01*
X20475789Y-70349522D01*
X20535368Y-70179255D01*
X20535369Y-70179249D01*
X20555565Y-70000003D01*
X20555565Y-69999996D01*
X20535369Y-69820750D01*
X20535368Y-69820745D01*
X20492942Y-69699498D01*
X20475789Y-69650478D01*
X20468072Y-69638197D01*
X20403461Y-69535369D01*
X20379816Y-69497738D01*
X20252262Y-69370184D01*
X20219379Y-69349522D01*
X20099523Y-69274211D01*
X19929254Y-69214631D01*
X19929249Y-69214630D01*
X19750004Y-69194435D01*
X19749996Y-69194435D01*
X19570750Y-69214630D01*
X19570737Y-69214633D01*
X19554542Y-69220300D01*
X19484763Y-69223859D01*
X19424137Y-69189128D01*
X19391912Y-69127134D01*
X19398320Y-69057558D01*
X19406200Y-69041266D01*
X19514633Y-68853454D01*
X19611226Y-68620260D01*
X19676554Y-68376452D01*
X19709500Y-68126204D01*
X19709500Y-67873796D01*
X19676554Y-67623548D01*
X19611226Y-67379740D01*
X19550723Y-67233674D01*
X19514636Y-67146552D01*
X19514627Y-67146535D01*
X19430024Y-66999996D01*
X22444435Y-66999996D01*
X22444435Y-67000003D01*
X22464630Y-67179249D01*
X22464631Y-67179254D01*
X22524211Y-67349523D01*
X22577309Y-67434027D01*
X22620184Y-67502262D01*
X22747738Y-67629816D01*
X22900478Y-67725789D01*
X23070745Y-67785368D01*
X23070750Y-67785369D01*
X23249996Y-67805565D01*
X23250000Y-67805565D01*
X23250002Y-67805565D01*
X23279449Y-67802246D01*
X23314610Y-67798285D01*
X23383432Y-67810339D01*
X23434811Y-67857688D01*
X23452436Y-67925298D01*
X23451714Y-67935388D01*
X23444435Y-67999995D01*
X23444435Y-68000003D01*
X23464630Y-68179249D01*
X23464631Y-68179254D01*
X23524211Y-68349523D01*
X23577309Y-68434027D01*
X23620184Y-68502262D01*
X23747738Y-68629816D01*
X23900478Y-68725789D01*
X23969678Y-68750003D01*
X24070745Y-68785368D01*
X24070750Y-68785369D01*
X24249996Y-68805565D01*
X24250000Y-68805565D01*
X24250004Y-68805565D01*
X24429249Y-68785369D01*
X24429252Y-68785368D01*
X24429255Y-68785368D01*
X24599522Y-68725789D01*
X24752262Y-68629816D01*
X24879816Y-68502262D01*
X24975789Y-68349522D01*
X25035368Y-68179255D01*
X25041345Y-68126206D01*
X25055565Y-68000003D01*
X25055565Y-67999996D01*
X25041345Y-67873788D01*
X27290500Y-67873788D01*
X27290500Y-68126211D01*
X27314168Y-68305981D01*
X27323446Y-68376452D01*
X27329883Y-68400476D01*
X27388773Y-68620258D01*
X27485363Y-68853447D01*
X27485372Y-68853464D01*
X27611566Y-69072041D01*
X27611568Y-69072045D01*
X27765227Y-69272294D01*
X27765235Y-69272303D01*
X27943697Y-69450765D01*
X27943705Y-69450772D01*
X28143954Y-69604431D01*
X28143958Y-69604433D01*
X28362535Y-69730627D01*
X28362552Y-69730636D01*
X28491758Y-69784154D01*
X28595740Y-69827226D01*
X28839548Y-69892554D01*
X29089796Y-69925500D01*
X29089803Y-69925500D01*
X29342197Y-69925500D01*
X29342204Y-69925500D01*
X29555755Y-69897385D01*
X29624790Y-69908150D01*
X29677046Y-69954530D01*
X29695160Y-70006441D01*
X29714630Y-70179249D01*
X29714631Y-70179254D01*
X29774211Y-70349523D01*
X29822701Y-70426694D01*
X29870184Y-70502262D01*
X29997738Y-70629816D01*
X30150478Y-70725789D01*
X30264969Y-70765851D01*
X30320745Y-70785368D01*
X30320750Y-70785369D01*
X30499996Y-70805565D01*
X30500000Y-70805565D01*
X30500004Y-70805565D01*
X30679249Y-70785369D01*
X30679252Y-70785368D01*
X30679255Y-70785368D01*
X30849522Y-70725789D01*
X31002262Y-70629816D01*
X31129816Y-70502262D01*
X31225789Y-70349522D01*
X31285368Y-70179255D01*
X31285369Y-70179249D01*
X31305565Y-70000003D01*
X31305565Y-69999996D01*
X31285369Y-69820750D01*
X31285368Y-69820745D01*
X31242942Y-69699498D01*
X31225789Y-69650478D01*
X31218072Y-69638197D01*
X31153461Y-69535369D01*
X31129816Y-69497738D01*
X31002262Y-69370184D01*
X30969379Y-69349522D01*
X30843626Y-69270506D01*
X30844768Y-69268688D01*
X30800582Y-69228789D01*
X30782273Y-69161361D01*
X30803325Y-69094739D01*
X30807861Y-69088424D01*
X30820430Y-69072046D01*
X30946633Y-68853454D01*
X30966648Y-68805133D01*
X31010486Y-68750732D01*
X31076780Y-68728666D01*
X31144480Y-68745944D01*
X31192091Y-68797080D01*
X31204428Y-68838703D01*
X31214630Y-68929250D01*
X31214631Y-68929254D01*
X31274211Y-69099523D01*
X31324315Y-69179262D01*
X31370184Y-69252262D01*
X31497738Y-69379816D01*
X31584014Y-69434027D01*
X31610652Y-69450765D01*
X31650478Y-69475789D01*
X31820745Y-69535368D01*
X31820750Y-69535369D01*
X31999996Y-69555565D01*
X32000000Y-69555565D01*
X32000004Y-69555565D01*
X32179249Y-69535369D01*
X32179252Y-69535368D01*
X32179255Y-69535368D01*
X32349522Y-69475789D01*
X32502262Y-69379816D01*
X32629816Y-69252262D01*
X32725789Y-69099522D01*
X32785368Y-68929255D01*
X32785369Y-68929249D01*
X32805565Y-68750003D01*
X32805565Y-68749996D01*
X32785369Y-68570750D01*
X32785368Y-68570745D01*
X32783698Y-68565973D01*
X32725789Y-68400478D01*
X32725017Y-68399250D01*
X32673101Y-68316626D01*
X32629816Y-68247738D01*
X32502262Y-68120184D01*
X32349523Y-68024211D01*
X32280329Y-67999999D01*
X33644785Y-67999999D01*
X33644785Y-68000000D01*
X33663602Y-68203082D01*
X33719417Y-68399247D01*
X33719422Y-68399260D01*
X33810327Y-68581821D01*
X33933237Y-68744581D01*
X34083958Y-68881980D01*
X34083960Y-68881982D01*
X34160301Y-68929250D01*
X34257363Y-68989348D01*
X34447544Y-69063024D01*
X34648024Y-69100500D01*
X34648026Y-69100500D01*
X34851974Y-69100500D01*
X34851976Y-69100500D01*
X35052456Y-69063024D01*
X35242637Y-68989348D01*
X35416041Y-68881981D01*
X35544122Y-68765219D01*
X35566762Y-68744581D01*
X35566764Y-68744579D01*
X35689673Y-68581821D01*
X35780582Y-68399250D01*
X35836397Y-68203083D01*
X35855215Y-68000000D01*
X35836397Y-67796917D01*
X35780582Y-67600750D01*
X35763265Y-67565973D01*
X35691730Y-67422311D01*
X35689673Y-67418179D01*
X35566764Y-67255421D01*
X35566762Y-67255418D01*
X35416041Y-67118019D01*
X35416039Y-67118017D01*
X35242642Y-67010655D01*
X35242635Y-67010651D01*
X35147546Y-66973814D01*
X35052456Y-66936976D01*
X34851976Y-66899500D01*
X34648024Y-66899500D01*
X34447544Y-66936976D01*
X34447541Y-66936976D01*
X34447541Y-66936977D01*
X34257364Y-67010651D01*
X34257357Y-67010655D01*
X34083960Y-67118017D01*
X34083958Y-67118019D01*
X33933237Y-67255418D01*
X33810327Y-67418178D01*
X33719422Y-67600739D01*
X33719417Y-67600752D01*
X33663602Y-67796917D01*
X33644785Y-67999999D01*
X32280329Y-67999999D01*
X32179254Y-67964631D01*
X32179249Y-67964630D01*
X32000004Y-67944435D01*
X31999996Y-67944435D01*
X31820750Y-67964630D01*
X31820745Y-67964631D01*
X31650476Y-68024211D01*
X31497737Y-68120184D01*
X31370183Y-68247738D01*
X31362672Y-68259692D01*
X31310335Y-68305981D01*
X31241281Y-68316626D01*
X31177434Y-68288247D01*
X31139065Y-68229856D01*
X31134742Y-68177532D01*
X31141500Y-68126204D01*
X31141500Y-67873796D01*
X31108554Y-67623548D01*
X31043226Y-67379740D01*
X30982723Y-67233674D01*
X30946636Y-67146552D01*
X30946627Y-67146535D01*
X30820433Y-66927958D01*
X30820431Y-66927954D01*
X30666772Y-66727705D01*
X30666765Y-66727697D01*
X30488303Y-66549235D01*
X30488294Y-66549227D01*
X30288045Y-66395568D01*
X30288041Y-66395566D01*
X30227200Y-66360440D01*
X30178984Y-66309874D01*
X30165760Y-66241267D01*
X30191728Y-66176402D01*
X30223223Y-66148062D01*
X30252262Y-66129816D01*
X30379816Y-66002262D01*
X30381240Y-65999996D01*
X36944435Y-65999996D01*
X36944435Y-66000003D01*
X36964630Y-66179249D01*
X36964633Y-66179262D01*
X37024209Y-66349520D01*
X37077309Y-66434029D01*
X37096309Y-66501266D01*
X37077309Y-66565971D01*
X37024209Y-66650479D01*
X36964633Y-66820737D01*
X36964630Y-66820750D01*
X36944435Y-66999996D01*
X36944435Y-67000003D01*
X36964630Y-67179249D01*
X36964633Y-67179262D01*
X37024209Y-67349520D01*
X37077309Y-67434029D01*
X37096309Y-67501266D01*
X37077309Y-67565971D01*
X37024209Y-67650479D01*
X36964633Y-67820737D01*
X36964630Y-67820750D01*
X36944435Y-67999996D01*
X36944435Y-68000003D01*
X36964630Y-68179249D01*
X36964633Y-68179262D01*
X37024209Y-68349520D01*
X37077309Y-68434029D01*
X37096309Y-68501266D01*
X37077309Y-68565971D01*
X37024209Y-68650479D01*
X36964633Y-68820737D01*
X36964630Y-68820750D01*
X36944435Y-68999996D01*
X36944435Y-69000003D01*
X36964630Y-69179249D01*
X36964633Y-69179262D01*
X37024209Y-69349520D01*
X37077309Y-69434029D01*
X37096309Y-69501266D01*
X37077309Y-69565971D01*
X37024209Y-69650479D01*
X36964633Y-69820737D01*
X36964630Y-69820750D01*
X36944435Y-69999996D01*
X36944435Y-70000003D01*
X36964630Y-70179249D01*
X36964631Y-70179254D01*
X37024211Y-70349523D01*
X37072701Y-70426694D01*
X37120184Y-70502262D01*
X37247738Y-70629816D01*
X37400478Y-70725789D01*
X37514969Y-70765851D01*
X37570745Y-70785368D01*
X37570750Y-70785369D01*
X37749996Y-70805565D01*
X37750000Y-70805565D01*
X37750004Y-70805565D01*
X37929249Y-70785369D01*
X37929252Y-70785368D01*
X37929255Y-70785368D01*
X38099522Y-70725789D01*
X38252262Y-70629816D01*
X38287319Y-70594759D01*
X38348642Y-70561274D01*
X38418334Y-70566258D01*
X38462681Y-70594759D01*
X38497738Y-70629816D01*
X38650478Y-70725789D01*
X38764969Y-70765851D01*
X38820745Y-70785368D01*
X38820750Y-70785369D01*
X38999996Y-70805565D01*
X39000000Y-70805565D01*
X39000004Y-70805565D01*
X39179249Y-70785369D01*
X39179252Y-70785368D01*
X39179255Y-70785368D01*
X39349522Y-70725789D01*
X39502262Y-70629816D01*
X39537319Y-70594759D01*
X39598642Y-70561274D01*
X39668334Y-70566258D01*
X39712681Y-70594759D01*
X39747738Y-70629816D01*
X39900478Y-70725789D01*
X40014969Y-70765851D01*
X40070745Y-70785368D01*
X40070750Y-70785369D01*
X40249996Y-70805565D01*
X40250000Y-70805565D01*
X40250004Y-70805565D01*
X40429249Y-70785369D01*
X40429252Y-70785368D01*
X40429255Y-70785368D01*
X40599522Y-70725789D01*
X40752262Y-70629816D01*
X40787319Y-70594759D01*
X40848642Y-70561274D01*
X40918334Y-70566258D01*
X40962681Y-70594759D01*
X40997738Y-70629816D01*
X41150478Y-70725789D01*
X41264969Y-70765851D01*
X41320745Y-70785368D01*
X41320750Y-70785369D01*
X41499996Y-70805565D01*
X41500000Y-70805565D01*
X41500004Y-70805565D01*
X41679249Y-70785369D01*
X41679252Y-70785368D01*
X41679255Y-70785368D01*
X41849522Y-70725789D01*
X42002262Y-70629816D01*
X42129816Y-70502262D01*
X42225789Y-70349522D01*
X42285368Y-70179255D01*
X42285369Y-70179249D01*
X42305565Y-70000003D01*
X42305565Y-69999996D01*
X42285369Y-69820750D01*
X42285368Y-69820745D01*
X42225788Y-69650475D01*
X42172691Y-69565973D01*
X42153690Y-69498736D01*
X42172691Y-69434027D01*
X42225788Y-69349524D01*
X42225789Y-69349522D01*
X42285368Y-69179255D01*
X42291241Y-69127134D01*
X42305565Y-69000003D01*
X42305565Y-68999996D01*
X42285369Y-68820750D01*
X42285368Y-68820745D01*
X42225788Y-68650475D01*
X42172691Y-68565973D01*
X42153690Y-68498736D01*
X42172691Y-68434027D01*
X42225788Y-68349524D01*
X42225789Y-68349522D01*
X42285368Y-68179255D01*
X42291345Y-68126206D01*
X42305565Y-68000003D01*
X42305565Y-67999996D01*
X42285369Y-67820750D01*
X42285368Y-67820745D01*
X42225788Y-67650475D01*
X42172691Y-67565973D01*
X42153690Y-67498736D01*
X42172691Y-67434027D01*
X42225788Y-67349524D01*
X42225789Y-67349522D01*
X42285368Y-67179255D01*
X42289053Y-67146552D01*
X42305565Y-67000003D01*
X42305565Y-66999996D01*
X42285369Y-66820750D01*
X42285368Y-66820745D01*
X42225788Y-66650475D01*
X42172691Y-66565973D01*
X42153690Y-66498736D01*
X42172691Y-66434027D01*
X42225788Y-66349524D01*
X42225789Y-66349522D01*
X42285368Y-66179255D01*
X42285369Y-66179249D01*
X42305565Y-66000003D01*
X42305565Y-65999996D01*
X42285369Y-65820750D01*
X42285368Y-65820745D01*
X42284910Y-65819435D01*
X42225789Y-65650478D01*
X42129816Y-65497738D01*
X42002262Y-65370184D01*
X41970935Y-65350500D01*
X41849523Y-65274211D01*
X41679254Y-65214631D01*
X41679249Y-65214630D01*
X41500004Y-65194435D01*
X41499996Y-65194435D01*
X41320750Y-65214630D01*
X41320745Y-65214631D01*
X41150476Y-65274211D01*
X40997737Y-65370184D01*
X40962681Y-65405241D01*
X40901358Y-65438726D01*
X40831666Y-65433742D01*
X40787319Y-65405241D01*
X40752262Y-65370184D01*
X40599523Y-65274211D01*
X40429254Y-65214631D01*
X40429249Y-65214630D01*
X40250004Y-65194435D01*
X40249996Y-65194435D01*
X40070750Y-65214630D01*
X40070745Y-65214631D01*
X39900476Y-65274211D01*
X39747737Y-65370184D01*
X39712681Y-65405241D01*
X39651358Y-65438726D01*
X39581666Y-65433742D01*
X39537319Y-65405241D01*
X39502262Y-65370184D01*
X39349523Y-65274211D01*
X39179254Y-65214631D01*
X39179249Y-65214630D01*
X39000004Y-65194435D01*
X38999996Y-65194435D01*
X38820750Y-65214630D01*
X38820745Y-65214631D01*
X38650476Y-65274211D01*
X38497737Y-65370184D01*
X38462681Y-65405241D01*
X38401358Y-65438726D01*
X38331666Y-65433742D01*
X38287319Y-65405241D01*
X38252262Y-65370184D01*
X38099523Y-65274211D01*
X37929254Y-65214631D01*
X37929249Y-65214630D01*
X37750004Y-65194435D01*
X37749996Y-65194435D01*
X37570750Y-65214630D01*
X37570745Y-65214631D01*
X37400476Y-65274211D01*
X37247737Y-65370184D01*
X37120184Y-65497737D01*
X37024211Y-65650476D01*
X36964631Y-65820745D01*
X36964630Y-65820750D01*
X36944435Y-65999996D01*
X30381240Y-65999996D01*
X30475789Y-65849522D01*
X30535368Y-65679255D01*
X30535369Y-65679249D01*
X30555565Y-65500003D01*
X30555565Y-65499996D01*
X30535369Y-65320750D01*
X30535368Y-65320745D01*
X30506886Y-65239348D01*
X30475789Y-65150478D01*
X30379816Y-64997738D01*
X30252262Y-64870184D01*
X30191208Y-64831821D01*
X30099523Y-64774211D01*
X29929254Y-64714631D01*
X29929249Y-64714630D01*
X29750004Y-64694435D01*
X29749996Y-64694435D01*
X29570750Y-64714630D01*
X29570745Y-64714631D01*
X29400476Y-64774211D01*
X29247737Y-64870184D01*
X29212681Y-64905241D01*
X29151358Y-64938726D01*
X29081666Y-64933742D01*
X29037319Y-64905241D01*
X29002262Y-64870184D01*
X28849523Y-64774211D01*
X28679254Y-64714631D01*
X28679249Y-64714630D01*
X28500004Y-64694435D01*
X28499996Y-64694435D01*
X28320750Y-64714630D01*
X28320745Y-64714631D01*
X28150476Y-64774211D01*
X27997737Y-64870184D01*
X27870184Y-64997737D01*
X27774211Y-65150476D01*
X27714631Y-65320745D01*
X27714630Y-65320750D01*
X27694435Y-65499996D01*
X27694435Y-65500003D01*
X27714630Y-65679249D01*
X27714631Y-65679254D01*
X27774211Y-65849523D01*
X27865737Y-65995184D01*
X27870184Y-66002262D01*
X27997738Y-66129816D01*
X28026770Y-66148058D01*
X28117593Y-66205126D01*
X28163884Y-66257461D01*
X28174532Y-66326515D01*
X28146157Y-66390363D01*
X28127108Y-66408495D01*
X27943705Y-66549227D01*
X27765227Y-66727705D01*
X27611568Y-66927954D01*
X27611566Y-66927958D01*
X27485372Y-67146535D01*
X27485363Y-67146552D01*
X27388773Y-67379741D01*
X27323446Y-67623548D01*
X27290500Y-67873788D01*
X25041345Y-67873788D01*
X25035369Y-67820750D01*
X25035368Y-67820745D01*
X24975788Y-67650475D01*
X24945075Y-67601597D01*
X24926074Y-67534360D01*
X24946441Y-67467525D01*
X24999709Y-67422311D01*
X25036183Y-67412404D01*
X25054255Y-67410368D01*
X25224522Y-67350789D01*
X25377262Y-67254816D01*
X25504816Y-67127262D01*
X25600789Y-66974522D01*
X25660368Y-66804255D01*
X25668994Y-66727697D01*
X25680565Y-66625003D01*
X25680565Y-66624996D01*
X25660369Y-66445750D01*
X25660368Y-66445745D01*
X25626697Y-66349520D01*
X25600789Y-66275478D01*
X25596952Y-66269372D01*
X25536255Y-66172773D01*
X25504816Y-66122738D01*
X25377262Y-65995184D01*
X25224523Y-65899211D01*
X25054254Y-65839631D01*
X25054249Y-65839630D01*
X24875004Y-65819435D01*
X24874996Y-65819435D01*
X24695750Y-65839630D01*
X24695745Y-65839631D01*
X24525476Y-65899211D01*
X24372737Y-65995184D01*
X24245184Y-66122737D01*
X24149211Y-66275476D01*
X24087332Y-66452318D01*
X24084648Y-66451378D01*
X24056738Y-66501200D01*
X23995055Y-66534018D01*
X23925422Y-66528278D01*
X23882332Y-66500254D01*
X23752262Y-66370184D01*
X23599523Y-66274211D01*
X23429254Y-66214631D01*
X23429249Y-66214630D01*
X23250004Y-66194435D01*
X23249996Y-66194435D01*
X23070750Y-66214630D01*
X23070745Y-66214631D01*
X22900476Y-66274211D01*
X22747737Y-66370184D01*
X22620184Y-66497737D01*
X22524211Y-66650476D01*
X22464631Y-66820745D01*
X22464630Y-66820750D01*
X22444435Y-66999996D01*
X19430024Y-66999996D01*
X19388433Y-66927958D01*
X19388431Y-66927954D01*
X19234772Y-66727705D01*
X19234765Y-66727697D01*
X19056303Y-66549235D01*
X19056294Y-66549227D01*
X18856045Y-66395568D01*
X18856041Y-66395566D01*
X18637464Y-66269372D01*
X18637447Y-66269363D01*
X18404258Y-66172773D01*
X18243927Y-66129813D01*
X18160452Y-66107446D01*
X18129171Y-66103327D01*
X17910211Y-66074500D01*
X17910204Y-66074500D01*
X17657796Y-66074500D01*
X17657788Y-66074500D01*
X17407548Y-66107446D01*
X17163741Y-66172773D01*
X16930552Y-66269363D01*
X16930535Y-66269372D01*
X16711958Y-66395566D01*
X16711954Y-66395568D01*
X16511705Y-66549227D01*
X16333227Y-66727705D01*
X16179568Y-66927954D01*
X16179566Y-66927958D01*
X16053372Y-67146535D01*
X16053363Y-67146552D01*
X15956773Y-67379741D01*
X15891446Y-67623548D01*
X15858500Y-67873788D01*
X14750500Y-67873788D01*
X14750500Y-60968135D01*
X17920500Y-60968135D01*
X17920500Y-62331870D01*
X17920501Y-62331876D01*
X17926908Y-62391483D01*
X17977202Y-62526328D01*
X17977206Y-62526335D01*
X18063452Y-62641544D01*
X18063455Y-62641547D01*
X18178664Y-62727793D01*
X18178671Y-62727797D01*
X18313517Y-62778091D01*
X18313516Y-62778091D01*
X18320444Y-62778835D01*
X18373127Y-62784500D01*
X19736872Y-62784499D01*
X19796483Y-62778091D01*
X19931331Y-62727796D01*
X20046546Y-62641546D01*
X20132796Y-62526331D01*
X20183091Y-62391483D01*
X20189500Y-62331873D01*
X20189499Y-61649999D01*
X20455640Y-61649999D01*
X20455640Y-61650000D01*
X20475039Y-61859352D01*
X20475039Y-61859354D01*
X20475040Y-61859357D01*
X20491275Y-61916416D01*
X20532579Y-62061587D01*
X20626293Y-62249790D01*
X20626298Y-62249798D01*
X20753004Y-62417584D01*
X20908381Y-62559228D01*
X20908383Y-62559230D01*
X20963840Y-62593567D01*
X21087144Y-62669913D01*
X21283199Y-62745866D01*
X21489873Y-62784500D01*
X21489875Y-62784500D01*
X21700125Y-62784500D01*
X21700127Y-62784500D01*
X21906801Y-62745866D01*
X22102856Y-62669913D01*
X22281618Y-62559229D01*
X22436997Y-62417582D01*
X22563703Y-62249796D01*
X22657422Y-62061584D01*
X22714960Y-61859357D01*
X22734360Y-61650000D01*
X22734360Y-61649999D01*
X22995640Y-61649999D01*
X22995640Y-61650000D01*
X23015039Y-61859352D01*
X23015039Y-61859354D01*
X23015040Y-61859357D01*
X23031275Y-61916416D01*
X23072579Y-62061587D01*
X23166293Y-62249790D01*
X23166298Y-62249798D01*
X23293004Y-62417584D01*
X23448381Y-62559228D01*
X23448383Y-62559230D01*
X23503840Y-62593567D01*
X23627144Y-62669913D01*
X23823199Y-62745866D01*
X24029873Y-62784500D01*
X24029875Y-62784500D01*
X24240125Y-62784500D01*
X24240127Y-62784500D01*
X24446801Y-62745866D01*
X24642856Y-62669913D01*
X24821618Y-62559229D01*
X24976997Y-62417582D01*
X25103703Y-62249796D01*
X25197422Y-62061584D01*
X25254960Y-61859357D01*
X25274360Y-61650000D01*
X25274360Y-61649999D01*
X25535640Y-61649999D01*
X25535640Y-61650000D01*
X25555039Y-61859352D01*
X25555039Y-61859354D01*
X25555040Y-61859357D01*
X25571275Y-61916416D01*
X25612579Y-62061587D01*
X25706293Y-62249790D01*
X25706298Y-62249798D01*
X25833004Y-62417584D01*
X25988381Y-62559228D01*
X25988383Y-62559230D01*
X26043840Y-62593567D01*
X26167144Y-62669913D01*
X26363199Y-62745866D01*
X26569873Y-62784500D01*
X26569875Y-62784500D01*
X26780125Y-62784500D01*
X26780127Y-62784500D01*
X26986801Y-62745866D01*
X27182856Y-62669913D01*
X27361618Y-62559229D01*
X27516997Y-62417582D01*
X27643703Y-62249796D01*
X27737422Y-62061584D01*
X27794960Y-61859357D01*
X27814360Y-61650000D01*
X27794960Y-61440643D01*
X27737422Y-61238416D01*
X27661421Y-61085786D01*
X27643706Y-61050209D01*
X27643701Y-61050201D01*
X27516995Y-60882415D01*
X27361618Y-60740771D01*
X27361616Y-60740769D01*
X27182859Y-60630089D01*
X27182856Y-60630087D01*
X27103962Y-60599523D01*
X26986801Y-60554134D01*
X26780127Y-60515500D01*
X26569873Y-60515500D01*
X26363199Y-60554134D01*
X26363196Y-60554134D01*
X26363196Y-60554135D01*
X26167143Y-60630087D01*
X26167140Y-60630089D01*
X25988383Y-60740769D01*
X25988381Y-60740771D01*
X25833004Y-60882415D01*
X25706298Y-61050201D01*
X25706293Y-61050209D01*
X25612579Y-61238412D01*
X25555039Y-61440647D01*
X25535640Y-61649999D01*
X25274360Y-61649999D01*
X25254960Y-61440643D01*
X25197422Y-61238416D01*
X25121421Y-61085786D01*
X25103706Y-61050209D01*
X25103701Y-61050201D01*
X24976995Y-60882415D01*
X24821618Y-60740771D01*
X24821616Y-60740769D01*
X24642859Y-60630089D01*
X24642856Y-60630087D01*
X24563962Y-60599523D01*
X24446801Y-60554134D01*
X24240127Y-60515500D01*
X24029873Y-60515500D01*
X23823199Y-60554134D01*
X23823196Y-60554134D01*
X23823196Y-60554135D01*
X23627143Y-60630087D01*
X23627140Y-60630089D01*
X23448383Y-60740769D01*
X23448381Y-60740771D01*
X23293004Y-60882415D01*
X23166298Y-61050201D01*
X23166293Y-61050209D01*
X23072579Y-61238412D01*
X23015039Y-61440647D01*
X22995640Y-61649999D01*
X22734360Y-61649999D01*
X22714960Y-61440643D01*
X22657422Y-61238416D01*
X22581421Y-61085786D01*
X22563706Y-61050209D01*
X22563701Y-61050201D01*
X22436995Y-60882415D01*
X22281618Y-60740771D01*
X22281616Y-60740769D01*
X22102859Y-60630089D01*
X22102856Y-60630087D01*
X22023962Y-60599523D01*
X21906801Y-60554134D01*
X21700127Y-60515500D01*
X21489873Y-60515500D01*
X21283199Y-60554134D01*
X21283196Y-60554134D01*
X21283196Y-60554135D01*
X21087143Y-60630087D01*
X21087140Y-60630089D01*
X20908383Y-60740769D01*
X20908381Y-60740771D01*
X20753004Y-60882415D01*
X20626298Y-61050201D01*
X20626293Y-61050209D01*
X20532579Y-61238412D01*
X20475039Y-61440647D01*
X20455640Y-61649999D01*
X20189499Y-61649999D01*
X20189499Y-60968128D01*
X20183091Y-60908517D01*
X20172386Y-60879816D01*
X20132797Y-60773671D01*
X20132793Y-60773664D01*
X20046547Y-60658455D01*
X20046544Y-60658452D01*
X19931335Y-60572206D01*
X19931328Y-60572202D01*
X19796482Y-60521908D01*
X19796483Y-60521908D01*
X19736883Y-60515501D01*
X19736881Y-60515500D01*
X19736873Y-60515500D01*
X19736864Y-60515500D01*
X18373129Y-60515500D01*
X18373123Y-60515501D01*
X18313516Y-60521908D01*
X18178671Y-60572202D01*
X18178664Y-60572206D01*
X18063455Y-60658452D01*
X18063452Y-60658455D01*
X17977206Y-60773664D01*
X17977202Y-60773671D01*
X17926908Y-60908517D01*
X17920501Y-60968116D01*
X17920501Y-60968123D01*
X17920500Y-60968135D01*
X14750500Y-60968135D01*
X14750500Y-60249996D01*
X31944435Y-60249996D01*
X31944435Y-60250003D01*
X31964630Y-60429249D01*
X31964631Y-60429254D01*
X32024211Y-60599523D01*
X32088683Y-60702129D01*
X32120184Y-60752262D01*
X32247738Y-60879816D01*
X32338080Y-60936582D01*
X32388296Y-60968135D01*
X32400478Y-60975789D01*
X32570745Y-61035368D01*
X32570750Y-61035369D01*
X32749996Y-61055565D01*
X32750000Y-61055565D01*
X32750004Y-61055565D01*
X32929249Y-61035369D01*
X32929252Y-61035368D01*
X32929255Y-61035368D01*
X33099522Y-60975789D01*
X33252262Y-60879816D01*
X33379816Y-60752262D01*
X33411313Y-60702135D01*
X33999500Y-60702135D01*
X33999500Y-64297870D01*
X33999501Y-64297876D01*
X34005908Y-64357483D01*
X34056202Y-64492328D01*
X34056206Y-64492335D01*
X34142452Y-64607544D01*
X34142455Y-64607547D01*
X34257664Y-64693793D01*
X34257671Y-64693797D01*
X34392517Y-64744091D01*
X34392516Y-64744091D01*
X34399444Y-64744835D01*
X34452127Y-64750500D01*
X38047872Y-64750499D01*
X38107483Y-64744091D01*
X38242331Y-64693796D01*
X38324439Y-64632330D01*
X40531881Y-64632330D01*
X40531882Y-64632331D01*
X40666400Y-64677994D01*
X40666415Y-64677998D01*
X40955675Y-64735535D01*
X40955687Y-64735537D01*
X41250000Y-64754827D01*
X41544312Y-64735537D01*
X41544324Y-64735535D01*
X41833584Y-64677998D01*
X41833599Y-64677994D01*
X41968116Y-64632331D01*
X41968117Y-64632330D01*
X41250000Y-63914214D01*
X40531881Y-64632330D01*
X38324439Y-64632330D01*
X38357546Y-64607546D01*
X38443796Y-64492331D01*
X38494091Y-64357483D01*
X38500500Y-64297873D01*
X38500499Y-62500000D01*
X38995172Y-62500000D01*
X39014462Y-62794312D01*
X39014464Y-62794324D01*
X39072001Y-63083584D01*
X39072006Y-63083604D01*
X39117667Y-63218116D01*
X39117668Y-63218117D01*
X39835786Y-62500000D01*
X39835786Y-62499999D01*
X39742220Y-62406433D01*
X40300000Y-62406433D01*
X40300000Y-62593567D01*
X40336508Y-62777105D01*
X40408121Y-62949994D01*
X40512087Y-63105590D01*
X40644410Y-63237913D01*
X40800006Y-63341879D01*
X40972895Y-63413492D01*
X41156433Y-63450000D01*
X41343567Y-63450000D01*
X41527105Y-63413492D01*
X41699994Y-63341879D01*
X41855590Y-63237913D01*
X41987913Y-63105590D01*
X42091879Y-62949994D01*
X42163492Y-62777105D01*
X42200000Y-62593567D01*
X42200000Y-62499999D01*
X42664214Y-62499999D01*
X42664214Y-62500000D01*
X43382330Y-63218117D01*
X43382331Y-63218116D01*
X43427994Y-63083599D01*
X43427998Y-63083584D01*
X43485535Y-62794324D01*
X43485537Y-62794312D01*
X43504827Y-62500000D01*
X43485537Y-62205687D01*
X43485535Y-62205675D01*
X43427998Y-61916415D01*
X43427994Y-61916400D01*
X43382331Y-61781882D01*
X43382330Y-61781881D01*
X42664214Y-62499999D01*
X42200000Y-62499999D01*
X42200000Y-62406433D01*
X42163492Y-62222895D01*
X42091879Y-62050006D01*
X41987913Y-61894410D01*
X41855590Y-61762087D01*
X41699994Y-61658121D01*
X41527105Y-61586508D01*
X41343567Y-61550000D01*
X41156433Y-61550000D01*
X40972895Y-61586508D01*
X40800006Y-61658121D01*
X40644410Y-61762087D01*
X40512087Y-61894410D01*
X40408121Y-62050006D01*
X40336508Y-62222895D01*
X40300000Y-62406433D01*
X39742220Y-62406433D01*
X39117669Y-61781882D01*
X39117668Y-61781882D01*
X39072003Y-61916410D01*
X39072001Y-61916416D01*
X39014464Y-62205675D01*
X39014462Y-62205687D01*
X38995172Y-62500000D01*
X38500499Y-62500000D01*
X38500499Y-60702128D01*
X38494091Y-60642517D01*
X38478055Y-60599523D01*
X38443797Y-60507671D01*
X38443793Y-60507664D01*
X38357547Y-60392455D01*
X38357544Y-60392452D01*
X38324437Y-60367668D01*
X40531882Y-60367668D01*
X40531882Y-60367669D01*
X41250000Y-61085786D01*
X41250001Y-61085786D01*
X41968117Y-60367668D01*
X41968116Y-60367667D01*
X41833604Y-60322006D01*
X41833584Y-60322001D01*
X41544324Y-60264464D01*
X41544312Y-60264462D01*
X41250000Y-60245172D01*
X40955687Y-60264462D01*
X40955675Y-60264464D01*
X40666416Y-60322001D01*
X40666410Y-60322003D01*
X40531882Y-60367668D01*
X38324437Y-60367668D01*
X38242335Y-60306206D01*
X38242328Y-60306202D01*
X38107482Y-60255908D01*
X38107483Y-60255908D01*
X38047883Y-60249501D01*
X38047881Y-60249500D01*
X38047873Y-60249500D01*
X38047864Y-60249500D01*
X34452129Y-60249500D01*
X34452123Y-60249501D01*
X34392516Y-60255908D01*
X34257671Y-60306202D01*
X34257664Y-60306206D01*
X34142455Y-60392452D01*
X34142452Y-60392455D01*
X34056206Y-60507664D01*
X34056202Y-60507671D01*
X34005908Y-60642517D01*
X34004195Y-60658455D01*
X33999501Y-60702123D01*
X33999500Y-60702135D01*
X33411313Y-60702135D01*
X33475789Y-60599522D01*
X33535368Y-60429255D01*
X33535369Y-60429249D01*
X33555565Y-60250003D01*
X33555565Y-60249996D01*
X33535369Y-60070750D01*
X33535368Y-60070745D01*
X33516716Y-60017441D01*
X33482035Y-59918329D01*
X43353206Y-59918329D01*
X43586088Y-60003091D01*
X43644238Y-60017441D01*
X43788005Y-60016302D01*
X43788012Y-60016301D01*
X43925636Y-59974701D01*
X43925637Y-59974701D01*
X44045969Y-59896013D01*
X44045973Y-59896010D01*
X44139261Y-59786607D01*
X44165642Y-59732842D01*
X44250405Y-59499958D01*
X43592621Y-59260544D01*
X43353206Y-59918329D01*
X33482035Y-59918329D01*
X33475789Y-59900478D01*
X33472983Y-59896013D01*
X33379815Y-59747737D01*
X33252262Y-59620184D01*
X33099523Y-59524211D01*
X32929254Y-59464631D01*
X32929249Y-59464630D01*
X32750004Y-59444435D01*
X32749996Y-59444435D01*
X32570750Y-59464630D01*
X32570745Y-59464631D01*
X32400476Y-59524211D01*
X32247737Y-59620184D01*
X32120184Y-59747737D01*
X32024211Y-59900476D01*
X31964631Y-60070745D01*
X31964630Y-60070750D01*
X31944435Y-60249996D01*
X14750500Y-60249996D01*
X14750500Y-57249996D01*
X16194435Y-57249996D01*
X16194435Y-57250003D01*
X16214630Y-57429249D01*
X16214631Y-57429254D01*
X16274211Y-57599523D01*
X16367029Y-57747241D01*
X16370184Y-57752262D01*
X16497738Y-57879816D01*
X16576999Y-57929619D01*
X16631077Y-57963599D01*
X16650478Y-57975789D01*
X16760062Y-58014134D01*
X16820745Y-58035368D01*
X16820750Y-58035369D01*
X16999996Y-58055565D01*
X17000000Y-58055565D01*
X17000004Y-58055565D01*
X17179249Y-58035369D01*
X17179252Y-58035368D01*
X17179255Y-58035368D01*
X17349522Y-57975789D01*
X17502262Y-57879816D01*
X17629816Y-57752262D01*
X17725789Y-57599522D01*
X17785368Y-57429255D01*
X17785369Y-57429249D01*
X17805565Y-57250003D01*
X17805565Y-57249996D01*
X17785369Y-57070750D01*
X17785368Y-57070745D01*
X17743238Y-56950345D01*
X17725789Y-56900478D01*
X17718660Y-56889133D01*
X17667767Y-56808137D01*
X17629816Y-56747738D01*
X17502262Y-56620184D01*
X17472151Y-56601264D01*
X17349523Y-56524211D01*
X17179254Y-56464631D01*
X17179249Y-56464630D01*
X17000004Y-56444435D01*
X16999996Y-56444435D01*
X16820750Y-56464630D01*
X16820745Y-56464631D01*
X16650476Y-56524211D01*
X16497737Y-56620184D01*
X16370184Y-56747737D01*
X16274211Y-56900476D01*
X16214631Y-57070745D01*
X16214630Y-57070750D01*
X16194435Y-57249996D01*
X14750500Y-57249996D01*
X14750500Y-49199983D01*
X16849500Y-49199983D01*
X16849500Y-50000001D01*
X16849501Y-50000019D01*
X16860000Y-50102796D01*
X16860001Y-50102799D01*
X16908246Y-50248390D01*
X16915186Y-50269334D01*
X16994705Y-50398256D01*
X17007289Y-50418657D01*
X17100951Y-50512319D01*
X17134436Y-50573642D01*
X17129452Y-50643334D01*
X17100951Y-50687681D01*
X17007289Y-50781342D01*
X16915187Y-50930663D01*
X16915186Y-50930666D01*
X16860001Y-51097203D01*
X16860001Y-51097204D01*
X16860000Y-51097204D01*
X16849500Y-51199983D01*
X16849500Y-52000001D01*
X16849501Y-52000019D01*
X16860000Y-52102796D01*
X16860001Y-52102799D01*
X16915185Y-52269331D01*
X16915187Y-52269336D01*
X16946287Y-52319757D01*
X17007288Y-52418656D01*
X17131344Y-52542712D01*
X17280666Y-52634814D01*
X17447203Y-52689999D01*
X17549991Y-52700500D01*
X18550008Y-52700499D01*
X18550016Y-52700498D01*
X18550019Y-52700498D01*
X18606302Y-52694748D01*
X18652797Y-52689999D01*
X18786497Y-52645694D01*
X18856324Y-52643293D01*
X18916366Y-52679024D01*
X18947559Y-52741545D01*
X18949500Y-52763401D01*
X18949500Y-53069699D01*
X18929815Y-53136738D01*
X18877011Y-53182493D01*
X18864507Y-53187403D01*
X18831962Y-53198188D01*
X18780668Y-53215185D01*
X18780663Y-53215187D01*
X18631342Y-53307289D01*
X18507289Y-53431342D01*
X18415187Y-53580663D01*
X18415185Y-53580668D01*
X18398899Y-53629816D01*
X18360001Y-53747203D01*
X18360001Y-53747204D01*
X18360000Y-53747204D01*
X18349500Y-53849983D01*
X18349500Y-54650001D01*
X18349501Y-54650019D01*
X18360000Y-54752796D01*
X18360001Y-54752799D01*
X18415185Y-54919331D01*
X18415187Y-54919336D01*
X18429709Y-54942880D01*
X18504787Y-55064602D01*
X18507289Y-55068657D01*
X18600951Y-55162319D01*
X18634436Y-55223642D01*
X18629452Y-55293334D01*
X18600951Y-55337681D01*
X18507289Y-55431342D01*
X18415187Y-55580663D01*
X18415186Y-55580666D01*
X18360001Y-55747203D01*
X18360001Y-55747204D01*
X18360000Y-55747204D01*
X18349500Y-55849983D01*
X18349500Y-56650001D01*
X18349501Y-56650019D01*
X18360000Y-56752796D01*
X18360001Y-56752799D01*
X18415185Y-56919331D01*
X18415187Y-56919336D01*
X18445024Y-56967710D01*
X18507288Y-57068656D01*
X18631344Y-57192712D01*
X18780666Y-57284814D01*
X18947203Y-57339999D01*
X19049991Y-57350500D01*
X19749902Y-57350499D01*
X19816941Y-57370183D01*
X19837583Y-57386818D01*
X20227416Y-57776651D01*
X20260901Y-57837974D01*
X20255917Y-57907666D01*
X20214045Y-57963599D01*
X20162520Y-57986221D01*
X20131451Y-57992028D01*
X20013199Y-58014134D01*
X20013196Y-58014134D01*
X20013196Y-58014135D01*
X19817143Y-58090087D01*
X19817140Y-58090089D01*
X19638383Y-58200769D01*
X19638381Y-58200771D01*
X19483004Y-58342415D01*
X19356298Y-58510201D01*
X19356293Y-58510209D01*
X19262579Y-58698412D01*
X19205039Y-58900647D01*
X19185640Y-59109999D01*
X19185640Y-59110000D01*
X19205039Y-59319352D01*
X19205039Y-59319354D01*
X19205040Y-59319357D01*
X19246374Y-59464631D01*
X19262579Y-59521587D01*
X19356293Y-59709790D01*
X19356298Y-59709798D01*
X19483004Y-59877584D01*
X19638381Y-60019228D01*
X19638383Y-60019230D01*
X19713675Y-60065848D01*
X19817144Y-60129913D01*
X20013199Y-60205866D01*
X20219873Y-60244500D01*
X20219875Y-60244500D01*
X20430125Y-60244500D01*
X20430127Y-60244500D01*
X20636801Y-60205866D01*
X20832856Y-60129913D01*
X21011618Y-60019229D01*
X21146779Y-59896013D01*
X21166995Y-59877584D01*
X21265051Y-59747738D01*
X21293703Y-59709796D01*
X21387422Y-59521584D01*
X21444960Y-59319357D01*
X21464360Y-59110000D01*
X21444960Y-58900643D01*
X21387422Y-58698416D01*
X21326717Y-58576504D01*
X21293706Y-58510209D01*
X21293701Y-58510201D01*
X21232250Y-58428827D01*
X21207558Y-58363466D01*
X21222123Y-58295131D01*
X21271321Y-58245518D01*
X21331204Y-58230100D01*
X21858796Y-58230100D01*
X21925835Y-58249785D01*
X21971590Y-58302589D01*
X21981534Y-58371747D01*
X21957750Y-58428827D01*
X21896298Y-58510201D01*
X21896293Y-58510209D01*
X21802579Y-58698412D01*
X21745039Y-58900647D01*
X21725640Y-59109999D01*
X21725640Y-59110000D01*
X21745039Y-59319352D01*
X21745039Y-59319354D01*
X21745040Y-59319357D01*
X21786374Y-59464631D01*
X21802579Y-59521587D01*
X21896293Y-59709790D01*
X21896298Y-59709798D01*
X22023004Y-59877584D01*
X22178381Y-60019228D01*
X22178383Y-60019230D01*
X22253675Y-60065848D01*
X22357144Y-60129913D01*
X22553199Y-60205866D01*
X22759873Y-60244500D01*
X22759875Y-60244500D01*
X22970125Y-60244500D01*
X22970127Y-60244500D01*
X23176801Y-60205866D01*
X23372856Y-60129913D01*
X23551618Y-60019229D01*
X23686779Y-59896013D01*
X23706995Y-59877584D01*
X23805051Y-59747738D01*
X23833703Y-59709796D01*
X23927422Y-59521584D01*
X23984960Y-59319357D01*
X24004360Y-59110000D01*
X23984960Y-58900643D01*
X23927422Y-58698416D01*
X23866717Y-58576504D01*
X23833706Y-58510209D01*
X23833701Y-58510201D01*
X23772250Y-58428827D01*
X23747558Y-58363466D01*
X23762123Y-58295131D01*
X23811321Y-58245518D01*
X23871204Y-58230100D01*
X24398796Y-58230100D01*
X24465835Y-58249785D01*
X24511590Y-58302589D01*
X24521534Y-58371747D01*
X24497750Y-58428827D01*
X24436298Y-58510201D01*
X24436293Y-58510209D01*
X24342579Y-58698412D01*
X24285039Y-58900647D01*
X24265640Y-59109999D01*
X24265640Y-59110000D01*
X24285039Y-59319352D01*
X24285039Y-59319354D01*
X24285040Y-59319357D01*
X24326374Y-59464631D01*
X24342579Y-59521587D01*
X24436293Y-59709790D01*
X24436298Y-59709798D01*
X24563004Y-59877584D01*
X24718381Y-60019228D01*
X24718383Y-60019230D01*
X24793675Y-60065848D01*
X24897144Y-60129913D01*
X25093199Y-60205866D01*
X25299873Y-60244500D01*
X25299875Y-60244500D01*
X25510125Y-60244500D01*
X25510127Y-60244500D01*
X25716801Y-60205866D01*
X25912856Y-60129913D01*
X26091618Y-60019229D01*
X26226779Y-59896013D01*
X26246995Y-59877584D01*
X26345051Y-59747738D01*
X26373703Y-59709796D01*
X26467422Y-59521584D01*
X26524960Y-59319357D01*
X26544360Y-59110000D01*
X26544360Y-59109999D01*
X26805640Y-59109999D01*
X26805640Y-59110000D01*
X26825039Y-59319352D01*
X26825039Y-59319354D01*
X26825040Y-59319357D01*
X26866374Y-59464631D01*
X26882579Y-59521587D01*
X26976293Y-59709790D01*
X26976298Y-59709798D01*
X27103004Y-59877584D01*
X27258381Y-60019228D01*
X27258383Y-60019230D01*
X27333675Y-60065848D01*
X27437144Y-60129913D01*
X27633199Y-60205866D01*
X27839873Y-60244500D01*
X27839875Y-60244500D01*
X28050125Y-60244500D01*
X28050127Y-60244500D01*
X28256801Y-60205866D01*
X28452856Y-60129913D01*
X28631618Y-60019229D01*
X28766779Y-59896013D01*
X28786995Y-59877584D01*
X28885051Y-59747738D01*
X28913703Y-59709796D01*
X29007422Y-59521584D01*
X29064960Y-59319357D01*
X29084360Y-59110000D01*
X29064960Y-58900643D01*
X29007422Y-58698416D01*
X28972420Y-58628122D01*
X40956338Y-58628122D01*
X40957478Y-58771888D01*
X40957479Y-58771895D01*
X40999079Y-58909519D01*
X40999079Y-58909520D01*
X41077767Y-59029852D01*
X41077770Y-59029856D01*
X41187173Y-59123144D01*
X41240938Y-59149525D01*
X41473821Y-59234288D01*
X41713235Y-58576504D01*
X41713235Y-58576503D01*
X41055451Y-58337090D01*
X40970692Y-58569964D01*
X40970687Y-58569979D01*
X40956338Y-58628122D01*
X28972420Y-58628122D01*
X28946717Y-58576504D01*
X28913706Y-58510209D01*
X28913701Y-58510201D01*
X28786995Y-58342415D01*
X28631618Y-58200771D01*
X28631616Y-58200769D01*
X28452859Y-58090089D01*
X28452856Y-58090087D01*
X28311614Y-58035369D01*
X28256801Y-58014134D01*
X28050127Y-57975500D01*
X27839873Y-57975500D01*
X27633199Y-58014134D01*
X27633196Y-58014134D01*
X27633196Y-58014135D01*
X27437143Y-58090087D01*
X27437140Y-58090089D01*
X27258383Y-58200769D01*
X27258381Y-58200771D01*
X27103004Y-58342415D01*
X26976298Y-58510201D01*
X26976293Y-58510209D01*
X26882579Y-58698412D01*
X26825039Y-58900647D01*
X26805640Y-59109999D01*
X26544360Y-59109999D01*
X26524960Y-58900643D01*
X26467422Y-58698416D01*
X26406717Y-58576504D01*
X26373706Y-58510209D01*
X26373701Y-58510201D01*
X26312251Y-58428828D01*
X26287559Y-58363466D01*
X26302124Y-58295132D01*
X26351322Y-58245519D01*
X26411205Y-58230101D01*
X26429054Y-58230101D01*
X26429057Y-58230101D01*
X26581785Y-58189177D01*
X26631904Y-58160239D01*
X26718716Y-58110120D01*
X26830520Y-57998316D01*
X26830521Y-57998314D01*
X26853335Y-57975500D01*
X26868535Y-57960300D01*
X26929858Y-57926815D01*
X26942315Y-57924763D01*
X27029255Y-57914968D01*
X27072485Y-57899841D01*
X42394949Y-57899841D01*
X42394949Y-58057823D01*
X42435838Y-58210423D01*
X42514830Y-58347240D01*
X42626541Y-58458951D01*
X42763358Y-58537943D01*
X42915958Y-58578832D01*
X43073940Y-58578832D01*
X43226540Y-58537943D01*
X43363357Y-58458951D01*
X43475068Y-58347240D01*
X43554060Y-58210423D01*
X43594949Y-58057823D01*
X43594949Y-57899841D01*
X43554060Y-57747241D01*
X43475068Y-57610424D01*
X43363357Y-57498713D01*
X43226540Y-57419721D01*
X43082621Y-57381158D01*
X44276661Y-57381158D01*
X44934446Y-57620573D01*
X45019208Y-57387692D01*
X45033559Y-57329541D01*
X45032419Y-57185775D01*
X45032418Y-57185768D01*
X44990818Y-57048144D01*
X44990818Y-57048143D01*
X44912130Y-56927811D01*
X44912127Y-56927807D01*
X44802724Y-56834519D01*
X44748959Y-56808137D01*
X44516075Y-56723374D01*
X44276661Y-57381158D01*
X43082621Y-57381158D01*
X43073940Y-57378832D01*
X42915958Y-57378832D01*
X42763358Y-57419721D01*
X42626541Y-57498713D01*
X42514830Y-57610424D01*
X42435838Y-57747241D01*
X42394949Y-57899841D01*
X27072485Y-57899841D01*
X27199522Y-57855389D01*
X27352262Y-57759416D01*
X27479816Y-57631862D01*
X27575789Y-57479122D01*
X27635368Y-57308855D01*
X27641999Y-57250003D01*
X27655565Y-57129603D01*
X27655565Y-57129596D01*
X27635369Y-56950350D01*
X27635368Y-56950345D01*
X27614026Y-56889352D01*
X27575789Y-56780078D01*
X27575494Y-56779609D01*
X27521912Y-56694334D01*
X27479816Y-56627338D01*
X27352262Y-56499784D01*
X27296318Y-56464632D01*
X27199523Y-56403811D01*
X27029254Y-56344231D01*
X27029249Y-56344230D01*
X26850004Y-56324035D01*
X26849996Y-56324035D01*
X26670750Y-56344230D01*
X26670745Y-56344231D01*
X26500476Y-56403811D01*
X26347737Y-56499784D01*
X26220184Y-56627337D01*
X26124211Y-56780077D01*
X26066133Y-56946055D01*
X26025411Y-57002831D01*
X25960458Y-57028578D01*
X25949091Y-57029100D01*
X25911948Y-57029100D01*
X25844909Y-57009415D01*
X25799154Y-56956611D01*
X25789453Y-56889146D01*
X25789311Y-56889132D01*
X25789369Y-56888561D01*
X25789210Y-56887453D01*
X25789845Y-56883898D01*
X25789998Y-56882399D01*
X25789999Y-56882397D01*
X25800500Y-56779609D01*
X25800499Y-56079695D01*
X25820183Y-56012657D01*
X25836813Y-55992020D01*
X25983506Y-55845328D01*
X25983511Y-55845324D01*
X25993714Y-55835120D01*
X25993716Y-55835120D01*
X26105520Y-55723316D01*
X26147854Y-55649991D01*
X26165901Y-55618733D01*
X26165904Y-55618724D01*
X26165910Y-55618716D01*
X26184577Y-55586385D01*
X26225501Y-55433657D01*
X26225501Y-55275543D01*
X26225501Y-55267948D01*
X26225500Y-55267930D01*
X26225500Y-50706159D01*
X26225501Y-50706146D01*
X26225501Y-50538045D01*
X26225501Y-50538043D01*
X26184577Y-50385315D01*
X26168473Y-50357422D01*
X26152120Y-50329098D01*
X26152120Y-50329097D01*
X26105524Y-50248390D01*
X26105521Y-50248386D01*
X26105520Y-50248384D01*
X25993716Y-50136580D01*
X25993715Y-50136579D01*
X25989385Y-50132249D01*
X25989374Y-50132239D01*
X25861818Y-50004683D01*
X25828333Y-49943360D01*
X25825499Y-49917002D01*
X25825499Y-49204598D01*
X25825498Y-49204581D01*
X25814999Y-49101803D01*
X25814998Y-49101800D01*
X25774637Y-48980000D01*
X25759814Y-48935266D01*
X25667712Y-48785944D01*
X25543656Y-48661888D01*
X25394334Y-48569786D01*
X25333301Y-48549561D01*
X25285495Y-48533720D01*
X25228050Y-48493947D01*
X25201228Y-48429431D01*
X25200500Y-48416014D01*
X25200500Y-46109272D01*
X25220185Y-46042233D01*
X25272989Y-45996478D01*
X25281158Y-45993093D01*
X25382383Y-45955338D01*
X25452072Y-45950355D01*
X25469047Y-45955339D01*
X25571620Y-45993596D01*
X25571627Y-45993598D01*
X25631155Y-45999999D01*
X25631172Y-46000000D01*
X25679000Y-46000000D01*
X26441000Y-46000000D01*
X26488828Y-46000000D01*
X26488844Y-45999999D01*
X26548372Y-45993598D01*
X26548379Y-45993596D01*
X26683086Y-45943354D01*
X26683093Y-45943350D01*
X26798187Y-45857190D01*
X26798190Y-45857187D01*
X26884350Y-45742093D01*
X26884354Y-45742086D01*
X26934596Y-45607379D01*
X26934598Y-45607372D01*
X26940999Y-45547844D01*
X26941000Y-45547827D01*
X26941000Y-43539300D01*
X26441000Y-43539300D01*
X26441000Y-46000000D01*
X25679000Y-46000000D01*
X25679000Y-42777300D01*
X26441000Y-42777300D01*
X26941000Y-42777300D01*
X26941000Y-42317083D01*
X28374500Y-42317083D01*
X28374500Y-43092101D01*
X28374501Y-43092119D01*
X28385000Y-43194896D01*
X28385001Y-43194899D01*
X28422231Y-43307250D01*
X28440186Y-43361434D01*
X28488539Y-43439827D01*
X28507000Y-43504923D01*
X28507000Y-44041776D01*
X28488539Y-44106872D01*
X28440189Y-44185259D01*
X28440186Y-44185266D01*
X28385001Y-44351803D01*
X28385001Y-44351804D01*
X28385000Y-44351804D01*
X28374500Y-44454583D01*
X28374500Y-45229601D01*
X28374501Y-45229619D01*
X28385000Y-45332396D01*
X28385001Y-45332399D01*
X28440185Y-45498931D01*
X28440187Y-45498936D01*
X28470343Y-45547827D01*
X28532288Y-45648256D01*
X28656344Y-45772312D01*
X28659628Y-45774337D01*
X28659653Y-45774353D01*
X28661445Y-45776346D01*
X28662011Y-45776793D01*
X28661934Y-45776889D01*
X28706379Y-45826299D01*
X28717603Y-45895261D01*
X28689761Y-45959344D01*
X28659665Y-45985426D01*
X28656660Y-45987279D01*
X28656655Y-45987283D01*
X28532684Y-46111254D01*
X28440641Y-46260479D01*
X28417737Y-46329600D01*
X30063500Y-46329600D01*
X30130539Y-46349285D01*
X30176294Y-46402089D01*
X30187500Y-46453600D01*
X30187500Y-47380600D01*
X30167815Y-47447639D01*
X30115011Y-47493394D01*
X30063500Y-47504600D01*
X28417737Y-47504600D01*
X28440641Y-47573720D01*
X28532684Y-47722945D01*
X28656655Y-47846916D01*
X28656659Y-47846919D01*
X28700351Y-47873869D01*
X28747076Y-47925817D01*
X28758297Y-47994779D01*
X28740248Y-48045378D01*
X28674212Y-48150474D01*
X28614631Y-48320745D01*
X28614630Y-48320750D01*
X28594435Y-48499996D01*
X28594435Y-48500003D01*
X28614630Y-48679249D01*
X28614631Y-48679254D01*
X28674211Y-48849523D01*
X28728089Y-48935268D01*
X28770184Y-49002262D01*
X28897738Y-49129816D01*
X29050478Y-49225789D01*
X29168818Y-49267198D01*
X29220745Y-49285368D01*
X29220750Y-49285369D01*
X29399996Y-49305565D01*
X29400000Y-49305565D01*
X29400004Y-49305565D01*
X29579246Y-49285369D01*
X29579245Y-49285369D01*
X29579255Y-49285368D01*
X29584542Y-49283517D01*
X29654316Y-49279952D01*
X29714945Y-49314676D01*
X29747177Y-49376667D01*
X29749500Y-49400557D01*
X29749500Y-50842930D01*
X29749499Y-50842948D01*
X29749499Y-51008654D01*
X29749498Y-51008654D01*
X29790423Y-51161387D01*
X29790425Y-51161390D01*
X29812712Y-51199991D01*
X29812713Y-51199993D01*
X29869475Y-51298309D01*
X29869481Y-51298317D01*
X29988349Y-51417185D01*
X29988355Y-51417190D01*
X30513181Y-51942016D01*
X30546666Y-52003339D01*
X30549156Y-52026469D01*
X30549176Y-52026468D01*
X30549180Y-52026468D01*
X30549341Y-52026460D01*
X30549501Y-52029618D01*
X30560001Y-52132397D01*
X30560001Y-52132399D01*
X30605378Y-52269336D01*
X30615186Y-52298934D01*
X30707288Y-52448256D01*
X30831344Y-52572312D01*
X30980666Y-52664414D01*
X31147203Y-52719599D01*
X31249991Y-52730100D01*
X32250008Y-52730099D01*
X32250016Y-52730098D01*
X32250019Y-52730098D01*
X32306302Y-52724348D01*
X32352797Y-52719599D01*
X32519334Y-52664414D01*
X32668656Y-52572312D01*
X32792712Y-52448256D01*
X32884814Y-52298934D01*
X32907294Y-52231091D01*
X32947065Y-52173649D01*
X33011580Y-52146825D01*
X33080356Y-52159139D01*
X33131557Y-52206682D01*
X33142704Y-52231091D01*
X33155378Y-52269336D01*
X33165186Y-52298934D01*
X33257288Y-52448256D01*
X33381344Y-52572312D01*
X33530666Y-52664414D01*
X33554064Y-52672167D01*
X33611509Y-52711939D01*
X33638333Y-52776455D01*
X33626018Y-52845231D01*
X33578476Y-52896431D01*
X33554066Y-52907579D01*
X33455666Y-52940186D01*
X33455663Y-52940187D01*
X33306342Y-53032289D01*
X33182289Y-53156342D01*
X33090187Y-53305663D01*
X33090185Y-53305668D01*
X33069191Y-53369024D01*
X33035001Y-53472203D01*
X33035001Y-53472204D01*
X33035000Y-53472204D01*
X33024500Y-53574983D01*
X33024500Y-54350001D01*
X33024501Y-54350019D01*
X33035000Y-54452796D01*
X33035001Y-54452799D01*
X33090185Y-54619331D01*
X33090187Y-54619336D01*
X33110624Y-54652470D01*
X33175208Y-54757178D01*
X33182289Y-54768657D01*
X33306346Y-54892714D01*
X33309182Y-54894463D01*
X33310717Y-54896170D01*
X33312011Y-54897193D01*
X33311836Y-54897414D01*
X33355905Y-54946411D01*
X33367126Y-55015374D01*
X33339282Y-55079456D01*
X33309182Y-55105537D01*
X33306346Y-55107285D01*
X33182289Y-55231342D01*
X33090187Y-55380663D01*
X33090185Y-55380668D01*
X33073393Y-55431344D01*
X33035001Y-55547203D01*
X33035001Y-55547204D01*
X33035000Y-55547204D01*
X33024500Y-55649983D01*
X33024500Y-56425001D01*
X33024501Y-56425019D01*
X33035000Y-56527796D01*
X33035001Y-56527799D01*
X33075495Y-56650001D01*
X33090186Y-56694334D01*
X33182288Y-56843656D01*
X33306344Y-56967712D01*
X33455666Y-57059814D01*
X33622203Y-57114999D01*
X33724991Y-57125500D01*
X34775008Y-57125499D01*
X34775016Y-57125498D01*
X34775019Y-57125498D01*
X34831302Y-57119748D01*
X34877797Y-57114999D01*
X35044334Y-57059814D01*
X35193656Y-56967712D01*
X35317712Y-56843656D01*
X35409814Y-56694334D01*
X35464999Y-56527797D01*
X35471161Y-56467473D01*
X35497556Y-56402783D01*
X35506829Y-56392404D01*
X35818535Y-56080698D01*
X35879856Y-56047215D01*
X35892311Y-56045163D01*
X35979255Y-56035368D01*
X35999354Y-56028335D01*
X36134545Y-55981030D01*
X36204324Y-55977468D01*
X36264951Y-56012196D01*
X36297179Y-56074190D01*
X36299500Y-56098071D01*
X36299500Y-56400000D01*
X36299501Y-56400019D01*
X36310000Y-56502796D01*
X36310001Y-56502799D01*
X36351270Y-56627338D01*
X36365186Y-56669334D01*
X36457288Y-56818656D01*
X36581344Y-56942712D01*
X36730666Y-57034814D01*
X36897203Y-57089999D01*
X36999991Y-57100500D01*
X38000008Y-57100499D01*
X38000016Y-57100498D01*
X38000019Y-57100498D01*
X38056302Y-57094748D01*
X38102797Y-57089999D01*
X38269334Y-57034814D01*
X38418656Y-56942712D01*
X38542712Y-56818656D01*
X38634814Y-56669334D01*
X38689999Y-56502797D01*
X38694606Y-56457704D01*
X41739491Y-56457704D01*
X42397275Y-56697118D01*
X42636689Y-56039334D01*
X42403809Y-55954572D01*
X42345658Y-55940221D01*
X42201892Y-55941361D01*
X42201885Y-55941362D01*
X42064261Y-55982962D01*
X42064260Y-55982962D01*
X41943928Y-56061650D01*
X41943924Y-56061653D01*
X41850636Y-56171056D01*
X41824254Y-56224821D01*
X41739491Y-56457704D01*
X38694606Y-56457704D01*
X38700500Y-56400009D01*
X38700499Y-55599992D01*
X38689999Y-55497203D01*
X38689997Y-55497197D01*
X38688606Y-55490698D01*
X38693819Y-55421023D01*
X38722175Y-55377058D01*
X38893713Y-55205521D01*
X38893716Y-55205520D01*
X39005520Y-55093716D01*
X39055639Y-55006904D01*
X39084577Y-54956785D01*
X39125501Y-54804057D01*
X39125501Y-54645943D01*
X39125501Y-54638348D01*
X39125500Y-54638330D01*
X39125500Y-50727844D01*
X43650000Y-50727844D01*
X43656401Y-50787372D01*
X43656403Y-50787379D01*
X43706645Y-50922086D01*
X43706649Y-50922093D01*
X43792809Y-51037187D01*
X43792812Y-51037190D01*
X43907906Y-51123350D01*
X43907913Y-51123354D01*
X44042620Y-51173596D01*
X44042627Y-51173598D01*
X44102155Y-51179999D01*
X44102172Y-51180000D01*
X44150000Y-51180000D01*
X44150000Y-50680000D01*
X43650000Y-50680000D01*
X43650000Y-50727844D01*
X39125500Y-50727844D01*
X39125500Y-50706159D01*
X39125501Y-50706146D01*
X39125501Y-50538045D01*
X39125501Y-50538043D01*
X39084577Y-50385315D01*
X39068473Y-50357422D01*
X39052120Y-50329098D01*
X39052120Y-50329097D01*
X39005524Y-50248390D01*
X39005521Y-50248386D01*
X39005520Y-50248384D01*
X38893716Y-50136580D01*
X38893715Y-50136579D01*
X38889385Y-50132249D01*
X38889374Y-50132239D01*
X38761818Y-50004683D01*
X38728333Y-49943360D01*
X38725499Y-49917002D01*
X38725499Y-49764174D01*
X44500000Y-49764174D01*
X44500000Y-49895826D01*
X44534075Y-50022993D01*
X44599901Y-50137007D01*
X44692993Y-50230099D01*
X44807007Y-50295925D01*
X44934174Y-50330000D01*
X45065826Y-50330000D01*
X45192993Y-50295925D01*
X45307007Y-50230099D01*
X45400099Y-50137007D01*
X45465925Y-50022993D01*
X45500000Y-49895826D01*
X45500000Y-49764174D01*
X45465925Y-49637007D01*
X45400099Y-49522993D01*
X45307007Y-49429901D01*
X45192993Y-49364075D01*
X45065826Y-49330000D01*
X44934174Y-49330000D01*
X44807007Y-49364075D01*
X44692993Y-49429901D01*
X44599901Y-49522993D01*
X44534075Y-49637007D01*
X44500000Y-49764174D01*
X38725499Y-49764174D01*
X38725499Y-49267198D01*
X38745184Y-49200159D01*
X38761818Y-49179517D01*
X39091813Y-48849522D01*
X39570520Y-48370816D01*
X39649577Y-48233884D01*
X39690501Y-48081157D01*
X39690501Y-47923042D01*
X39690501Y-47915447D01*
X39690500Y-47915429D01*
X39690500Y-46104636D01*
X39710185Y-46037597D01*
X39762989Y-45991842D01*
X39832147Y-45981898D01*
X39857835Y-45988455D01*
X39871619Y-45993596D01*
X39871627Y-45993598D01*
X39931155Y-45999999D01*
X39931172Y-46000000D01*
X39979000Y-46000000D01*
X40741000Y-46000000D01*
X40788828Y-46000000D01*
X40788844Y-45999999D01*
X40848372Y-45993598D01*
X40848379Y-45993596D01*
X40983086Y-45943354D01*
X40983093Y-45943350D01*
X41098187Y-45857190D01*
X41098190Y-45857187D01*
X41184350Y-45742093D01*
X41184354Y-45742086D01*
X41234596Y-45607379D01*
X41234598Y-45607372D01*
X41240999Y-45547844D01*
X41241000Y-45547827D01*
X41241000Y-43539300D01*
X40741000Y-43539300D01*
X40741000Y-46000000D01*
X39979000Y-46000000D01*
X39979000Y-42777300D01*
X40741000Y-42777300D01*
X41241000Y-42777300D01*
X41241000Y-40768772D01*
X41240999Y-40768755D01*
X41234598Y-40709227D01*
X41234596Y-40709220D01*
X41184354Y-40574513D01*
X41184350Y-40574506D01*
X41098190Y-40459412D01*
X41098187Y-40459409D01*
X40983093Y-40373249D01*
X40983086Y-40373245D01*
X40848379Y-40323003D01*
X40848372Y-40323001D01*
X40788844Y-40316600D01*
X40741000Y-40316600D01*
X40741000Y-42777300D01*
X39979000Y-42777300D01*
X39979000Y-40316600D01*
X39931155Y-40316600D01*
X39871627Y-40323001D01*
X39871620Y-40323003D01*
X39769048Y-40361260D01*
X39699356Y-40366244D01*
X39682382Y-40361260D01*
X39578482Y-40322508D01*
X39578483Y-40322508D01*
X39518883Y-40316101D01*
X39518881Y-40316100D01*
X39518873Y-40316100D01*
X39518864Y-40316100D01*
X38661129Y-40316100D01*
X38661123Y-40316101D01*
X38601516Y-40322508D01*
X38498333Y-40360994D01*
X38428641Y-40365978D01*
X38411667Y-40360994D01*
X38308482Y-40322508D01*
X38308483Y-40322508D01*
X38248883Y-40316101D01*
X38248881Y-40316100D01*
X38248873Y-40316100D01*
X38248864Y-40316100D01*
X37391129Y-40316100D01*
X37391123Y-40316101D01*
X37331516Y-40322508D01*
X37228333Y-40360994D01*
X37158641Y-40365978D01*
X37141667Y-40360994D01*
X37038482Y-40322508D01*
X37038483Y-40322508D01*
X36978883Y-40316101D01*
X36978881Y-40316100D01*
X36978873Y-40316100D01*
X36978864Y-40316100D01*
X36121129Y-40316100D01*
X36121123Y-40316101D01*
X36061516Y-40322508D01*
X35958333Y-40360994D01*
X35888641Y-40365978D01*
X35871667Y-40360994D01*
X35768482Y-40322508D01*
X35768483Y-40322508D01*
X35708883Y-40316101D01*
X35708881Y-40316100D01*
X35708873Y-40316100D01*
X35708864Y-40316100D01*
X34851129Y-40316100D01*
X34851123Y-40316101D01*
X34791516Y-40322508D01*
X34688333Y-40360994D01*
X34618641Y-40365978D01*
X34601667Y-40360994D01*
X34498482Y-40322508D01*
X34498483Y-40322508D01*
X34438883Y-40316101D01*
X34438881Y-40316100D01*
X34438873Y-40316100D01*
X34438864Y-40316100D01*
X33581129Y-40316100D01*
X33581123Y-40316101D01*
X33521516Y-40322508D01*
X33418333Y-40360994D01*
X33348641Y-40365978D01*
X33331667Y-40360994D01*
X33228483Y-40322508D01*
X33194102Y-40318812D01*
X33141387Y-40300517D01*
X33099522Y-40274211D01*
X33087416Y-40269975D01*
X32929254Y-40214631D01*
X32929249Y-40214630D01*
X32750004Y-40194435D01*
X32749996Y-40194435D01*
X32570750Y-40214630D01*
X32570737Y-40214633D01*
X32393906Y-40276510D01*
X32392888Y-40273602D01*
X32337205Y-40282572D01*
X32273168Y-40254625D01*
X32259062Y-40240756D01*
X32218924Y-40194435D01*
X32213914Y-40188653D01*
X32105180Y-40094433D01*
X32105177Y-40094431D01*
X32105175Y-40094430D01*
X31974309Y-40034664D01*
X31974304Y-40034662D01*
X31974303Y-40034662D01*
X31907264Y-40014977D01*
X31907266Y-40014977D01*
X31907261Y-40014976D01*
X31845191Y-40006052D01*
X31764844Y-39994500D01*
X31374000Y-39994500D01*
X31373991Y-39994500D01*
X31373990Y-39994501D01*
X31266549Y-40006052D01*
X31266537Y-40006054D01*
X31215027Y-40017260D01*
X31112502Y-40051383D01*
X31112496Y-40051386D01*
X30991462Y-40129171D01*
X30987916Y-40131826D01*
X30987263Y-40130954D01*
X30928225Y-40157906D01*
X30859068Y-40147953D01*
X30806270Y-40102191D01*
X30792889Y-40074170D01*
X30759358Y-39972980D01*
X30759356Y-39972975D01*
X30667315Y-39823754D01*
X30543345Y-39699784D01*
X30394124Y-39607743D01*
X30394119Y-39607741D01*
X30227691Y-39552593D01*
X30227695Y-39552593D01*
X30187500Y-39548487D01*
X30187500Y-41093100D01*
X30167815Y-41160139D01*
X30115011Y-41205894D01*
X30063500Y-41217100D01*
X28417737Y-41217100D01*
X28440641Y-41286220D01*
X28532684Y-41435445D01*
X28656655Y-41559416D01*
X28656659Y-41559419D01*
X28659656Y-41561268D01*
X28661279Y-41563072D01*
X28662323Y-41563898D01*
X28662181Y-41564076D01*
X28706381Y-41613216D01*
X28717602Y-41682179D01*
X28689759Y-41746261D01*
X28659661Y-41772341D01*
X28656349Y-41774383D01*
X28656343Y-41774388D01*
X28532289Y-41898442D01*
X28440187Y-42047763D01*
X28440186Y-42047766D01*
X28385001Y-42214303D01*
X28385001Y-42214304D01*
X28385000Y-42214304D01*
X28374500Y-42317083D01*
X26941000Y-42317083D01*
X26941000Y-40768772D01*
X26940999Y-40768755D01*
X26934598Y-40709227D01*
X26934596Y-40709220D01*
X26884354Y-40574513D01*
X26884350Y-40574506D01*
X26798190Y-40459412D01*
X26798187Y-40459409D01*
X26683093Y-40373249D01*
X26683086Y-40373245D01*
X26548379Y-40323003D01*
X26548372Y-40323001D01*
X26488844Y-40316600D01*
X26441000Y-40316600D01*
X26441000Y-42777300D01*
X25679000Y-42777300D01*
X25679000Y-40316600D01*
X25631155Y-40316600D01*
X25571627Y-40323001D01*
X25571620Y-40323003D01*
X25469048Y-40361260D01*
X25399356Y-40366244D01*
X25382382Y-40361260D01*
X25278482Y-40322508D01*
X25278483Y-40322508D01*
X25218883Y-40316101D01*
X25218881Y-40316100D01*
X25218873Y-40316100D01*
X25218864Y-40316100D01*
X24361129Y-40316100D01*
X24361123Y-40316101D01*
X24301516Y-40322508D01*
X24198333Y-40360994D01*
X24128641Y-40365978D01*
X24111667Y-40360994D01*
X24008482Y-40322508D01*
X24008483Y-40322508D01*
X23948883Y-40316101D01*
X23948881Y-40316100D01*
X23948873Y-40316100D01*
X23948864Y-40316100D01*
X23091129Y-40316100D01*
X23091123Y-40316101D01*
X23031516Y-40322508D01*
X22928333Y-40360994D01*
X22858641Y-40365978D01*
X22841667Y-40360994D01*
X22738482Y-40322508D01*
X22738483Y-40322508D01*
X22678883Y-40316101D01*
X22678881Y-40316100D01*
X22678873Y-40316100D01*
X22678864Y-40316100D01*
X21821129Y-40316100D01*
X21821123Y-40316101D01*
X21761516Y-40322508D01*
X21658333Y-40360994D01*
X21588641Y-40365978D01*
X21571667Y-40360994D01*
X21468482Y-40322508D01*
X21468483Y-40322508D01*
X21408883Y-40316101D01*
X21408881Y-40316100D01*
X21408873Y-40316100D01*
X21408864Y-40316100D01*
X20551129Y-40316100D01*
X20551123Y-40316101D01*
X20491516Y-40322508D01*
X20388333Y-40360994D01*
X20318641Y-40365978D01*
X20301667Y-40360994D01*
X20198482Y-40322508D01*
X20198483Y-40322508D01*
X20138883Y-40316101D01*
X20138881Y-40316100D01*
X20138873Y-40316100D01*
X20138864Y-40316100D01*
X19281129Y-40316100D01*
X19281123Y-40316101D01*
X19221515Y-40322509D01*
X19118332Y-40360993D01*
X19048640Y-40365977D01*
X19031668Y-40360993D01*
X18935220Y-40325021D01*
X18912580Y-40313833D01*
X18849522Y-40274211D01*
X18679254Y-40214631D01*
X18679249Y-40214630D01*
X18500004Y-40194435D01*
X18499996Y-40194435D01*
X18320750Y-40214630D01*
X18320737Y-40214633D01*
X18150478Y-40274210D01*
X18114053Y-40297096D01*
X18048088Y-40316100D01*
X18011131Y-40316100D01*
X18011122Y-40316101D01*
X17951516Y-40322508D01*
X17816671Y-40372802D01*
X17816664Y-40372806D01*
X17701455Y-40459052D01*
X17701452Y-40459055D01*
X17615206Y-40574264D01*
X17615202Y-40574271D01*
X17564908Y-40709117D01*
X17558501Y-40768716D01*
X17558500Y-40768735D01*
X17558500Y-42857653D01*
X17557238Y-42875297D01*
X17553500Y-42901295D01*
X17553500Y-45232312D01*
X17533815Y-45299351D01*
X17481011Y-45345106D01*
X17464436Y-45351289D01*
X17362496Y-45381222D01*
X17362492Y-45381224D01*
X17241462Y-45459006D01*
X17241451Y-45459014D01*
X17188659Y-45504758D01*
X17094433Y-45613499D01*
X17094430Y-45613503D01*
X17034664Y-45744369D01*
X17014976Y-45811417D01*
X17002922Y-45895261D01*
X16994500Y-45953835D01*
X16994500Y-48375500D01*
X16994501Y-48375509D01*
X17006052Y-48482950D01*
X17006054Y-48482962D01*
X17012937Y-48514601D01*
X17017259Y-48534467D01*
X17029015Y-48569787D01*
X17052229Y-48639535D01*
X17054722Y-48709360D01*
X17022257Y-48766373D01*
X17007292Y-48781337D01*
X16915187Y-48930663D01*
X16915185Y-48930668D01*
X16913661Y-48935268D01*
X16860001Y-49097203D01*
X16860001Y-49097204D01*
X16860000Y-49097204D01*
X16849500Y-49199983D01*
X14750500Y-49199983D01*
X14750500Y-40042100D01*
X28417737Y-40042100D01*
X29012500Y-40042100D01*
X29012500Y-39548487D01*
X28972306Y-39552593D01*
X28805880Y-39607741D01*
X28805875Y-39607743D01*
X28656654Y-39699784D01*
X28532684Y-39823754D01*
X28440641Y-39972979D01*
X28417737Y-40042100D01*
X14750500Y-40042100D01*
X14750500Y-19657540D01*
X14770185Y-19590501D01*
X14822989Y-19544746D01*
X14892147Y-19534802D01*
X14955703Y-19563827D01*
X14989694Y-19611644D01*
X15000147Y-19637879D01*
X15000151Y-19637888D01*
X15167784Y-19954077D01*
X15167790Y-19954086D01*
X15368634Y-20250309D01*
X15368641Y-20250319D01*
X15600331Y-20523085D01*
X15600332Y-20523086D01*
X15860163Y-20769211D01*
X16145081Y-20985800D01*
X16451747Y-21170315D01*
X16451749Y-21170316D01*
X16451751Y-21170317D01*
X16451755Y-21170319D01*
X16614156Y-21245453D01*
X16776565Y-21320591D01*
X16777572Y-21320930D01*
X16777778Y-21321074D01*
X16779692Y-21321837D01*
X16779512Y-21322287D01*
X16834824Y-21360979D01*
X16861335Y-21425624D01*
X16862000Y-21438446D01*
X16862000Y-23236232D01*
X16842315Y-23303271D01*
X16803098Y-23341769D01*
X16761195Y-23367616D01*
X16656342Y-23432289D01*
X16532289Y-23556342D01*
X16440187Y-23705663D01*
X16440186Y-23705666D01*
X16385001Y-23872203D01*
X16385001Y-23872204D01*
X16385000Y-23872204D01*
X16374500Y-23974983D01*
X16374500Y-25025001D01*
X16374501Y-25025019D01*
X16385000Y-25127796D01*
X16385001Y-25127799D01*
X16440185Y-25294331D01*
X16440187Y-25294336D01*
X16532289Y-25443657D01*
X16534608Y-25445976D01*
X16535691Y-25447959D01*
X16536766Y-25449319D01*
X16536533Y-25449502D01*
X16568093Y-25507299D01*
X16563109Y-25576991D01*
X16559721Y-25585170D01*
X16534663Y-25640036D01*
X16528856Y-25659814D01*
X16514977Y-25707079D01*
X16514976Y-25707083D01*
X16494500Y-25849499D01*
X16494500Y-26876000D01*
X16494501Y-26876009D01*
X16506052Y-26983451D01*
X16506053Y-26983459D01*
X16509649Y-26999988D01*
X16509651Y-26999994D01*
X16517259Y-27034967D01*
X16517263Y-27034979D01*
X16517265Y-27034986D01*
X16551383Y-27137497D01*
X16551386Y-27137503D01*
X16608590Y-27226513D01*
X16628275Y-27293553D01*
X16620457Y-27336885D01*
X16599709Y-27392514D01*
X16599708Y-27392516D01*
X16593301Y-27452116D01*
X16593300Y-27452135D01*
X16593300Y-37105270D01*
X16593301Y-37105276D01*
X16599708Y-37164883D01*
X16650002Y-37299728D01*
X16650006Y-37299735D01*
X16736252Y-37414944D01*
X16736255Y-37414947D01*
X16851464Y-37501193D01*
X16851471Y-37501197D01*
X16986317Y-37551491D01*
X16986316Y-37551491D01*
X16993244Y-37552235D01*
X17045927Y-37557900D01*
X27454072Y-37557899D01*
X27513683Y-37551491D01*
X27648531Y-37501196D01*
X27763746Y-37414946D01*
X27849996Y-37299731D01*
X27900291Y-37164883D01*
X27906700Y-37105273D01*
X27906700Y-34333142D01*
X27926385Y-34266103D01*
X27979189Y-34220348D01*
X28048347Y-34210404D01*
X28111903Y-34239429D01*
X28136239Y-34268046D01*
X28182682Y-34343342D01*
X28182683Y-34343344D01*
X28306654Y-34467315D01*
X28455875Y-34559356D01*
X28455880Y-34559358D01*
X28622302Y-34614505D01*
X28662499Y-34618611D01*
X28662500Y-34618611D01*
X28662500Y-33074000D01*
X28682185Y-33006961D01*
X28734989Y-32961206D01*
X28786500Y-32950000D01*
X29713500Y-32950000D01*
X29780539Y-32969685D01*
X29826294Y-33022489D01*
X29837500Y-33074000D01*
X29837500Y-34618611D01*
X29877696Y-34614505D01*
X29877698Y-34614505D01*
X30044119Y-34559358D01*
X30044124Y-34559356D01*
X30193345Y-34467315D01*
X30317315Y-34343345D01*
X30339358Y-34307608D01*
X30391305Y-34260883D01*
X30460267Y-34249660D01*
X30485852Y-34255663D01*
X30570737Y-34285366D01*
X30570743Y-34285367D01*
X30570745Y-34285368D01*
X30570746Y-34285368D01*
X30570750Y-34285369D01*
X30749996Y-34305565D01*
X30750000Y-34305565D01*
X30750002Y-34305565D01*
X30755416Y-34304955D01*
X30824238Y-34317009D01*
X30875617Y-34364358D01*
X30893300Y-34428175D01*
X30893300Y-37105270D01*
X30893301Y-37105276D01*
X30899708Y-37164883D01*
X30950002Y-37299728D01*
X30950006Y-37299735D01*
X31036252Y-37414944D01*
X31036255Y-37414947D01*
X31151464Y-37501193D01*
X31151471Y-37501197D01*
X31286317Y-37551491D01*
X31286316Y-37551491D01*
X31293244Y-37552235D01*
X31345927Y-37557900D01*
X35083677Y-37557899D01*
X35150716Y-37577584D01*
X35196471Y-37630388D01*
X35206897Y-37668015D01*
X35214630Y-37736652D01*
X35214631Y-37736656D01*
X35274211Y-37906925D01*
X35370184Y-38059664D01*
X35497738Y-38187218D01*
X35650478Y-38283191D01*
X35820745Y-38342770D01*
X35820750Y-38342771D01*
X35999996Y-38362967D01*
X36000000Y-38362967D01*
X36000004Y-38362967D01*
X36179249Y-38342771D01*
X36179252Y-38342770D01*
X36179255Y-38342770D01*
X36349522Y-38283191D01*
X36502262Y-38187218D01*
X36629816Y-38059664D01*
X36725789Y-37906924D01*
X36785368Y-37736657D01*
X36793102Y-37668015D01*
X36820168Y-37603602D01*
X36877762Y-37564047D01*
X36916322Y-37557899D01*
X41754071Y-37557899D01*
X41754072Y-37557899D01*
X41813683Y-37551491D01*
X41948531Y-37501196D01*
X42063746Y-37414946D01*
X42149996Y-37299731D01*
X42200291Y-37164883D01*
X42206700Y-37105273D01*
X42206699Y-33664202D01*
X42226384Y-33597165D01*
X42279188Y-33551410D01*
X42348346Y-33541466D01*
X42411902Y-33570491D01*
X42427197Y-33588471D01*
X42428202Y-33587677D01*
X42432683Y-33593344D01*
X42556654Y-33717315D01*
X42705875Y-33809356D01*
X42705880Y-33809358D01*
X42872302Y-33864505D01*
X42912499Y-33868611D01*
X42912500Y-33868611D01*
X44087500Y-33868611D01*
X44127696Y-33864505D01*
X44127698Y-33864505D01*
X44294119Y-33809358D01*
X44294124Y-33809356D01*
X44443345Y-33717315D01*
X44567315Y-33593345D01*
X44659358Y-33444120D01*
X44682263Y-33375000D01*
X44087500Y-33375000D01*
X44087500Y-33868611D01*
X42912500Y-33868611D01*
X42912500Y-32324000D01*
X42932185Y-32256961D01*
X42984989Y-32211206D01*
X43036500Y-32200000D01*
X44682262Y-32200000D01*
X44659358Y-32130879D01*
X44567315Y-31981654D01*
X44443344Y-31857683D01*
X44443341Y-31857681D01*
X44440339Y-31855829D01*
X44438713Y-31854021D01*
X44437677Y-31853202D01*
X44437817Y-31853024D01*
X44393617Y-31803880D01*
X44382397Y-31734917D01*
X44410243Y-31670836D01*
X44440344Y-31644754D01*
X44443656Y-31642712D01*
X44567712Y-31518656D01*
X44659814Y-31369334D01*
X44714999Y-31202797D01*
X44725500Y-31100009D01*
X44725499Y-30324992D01*
X44721451Y-30285369D01*
X44714999Y-30222203D01*
X44714998Y-30222200D01*
X44659814Y-30055666D01*
X44567712Y-29906344D01*
X44443656Y-29782288D01*
X44294334Y-29690186D01*
X44127797Y-29635001D01*
X44127795Y-29635000D01*
X44025010Y-29624500D01*
X42974998Y-29624500D01*
X42974980Y-29624501D01*
X42872203Y-29635000D01*
X42872200Y-29635001D01*
X42705668Y-29690185D01*
X42705663Y-29690187D01*
X42556342Y-29782289D01*
X42432287Y-29906344D01*
X42427964Y-29911812D01*
X42370942Y-29952188D01*
X42301143Y-29955326D01*
X42240727Y-29920230D01*
X42208878Y-29858041D01*
X42206699Y-29834900D01*
X42206699Y-27493044D01*
X42226384Y-27426005D01*
X42256399Y-27393769D01*
X42258535Y-27392169D01*
X42258543Y-27392165D01*
X42258549Y-27392159D01*
X42258554Y-27392156D01*
X42311340Y-27346416D01*
X42311339Y-27346416D01*
X42311347Y-27346410D01*
X42405567Y-27237676D01*
X42465338Y-27106799D01*
X42485023Y-27039760D01*
X42485024Y-27039756D01*
X42505500Y-26897340D01*
X42505500Y-25641230D01*
X42525185Y-25574191D01*
X42577989Y-25528436D01*
X42647147Y-25518492D01*
X42710703Y-25547517D01*
X42717181Y-25553549D01*
X42731344Y-25567712D01*
X42880666Y-25659814D01*
X43047203Y-25714999D01*
X43149991Y-25725500D01*
X43925008Y-25725499D01*
X43925016Y-25725498D01*
X43925019Y-25725498D01*
X43981302Y-25719748D01*
X44027797Y-25714999D01*
X44194334Y-25659814D01*
X44343656Y-25567712D01*
X44467712Y-25443656D01*
X44559814Y-25294334D01*
X44614999Y-25127797D01*
X44625500Y-25025009D01*
X44625499Y-23974992D01*
X44614999Y-23872203D01*
X44559814Y-23705666D01*
X44467712Y-23556344D01*
X44343656Y-23432288D01*
X44196902Y-23341770D01*
X44150179Y-23289823D01*
X44138000Y-23236232D01*
X44138000Y-21438446D01*
X44157685Y-21371407D01*
X44210489Y-21325652D01*
X44222422Y-21320931D01*
X44223435Y-21320591D01*
X44548253Y-21170315D01*
X44854919Y-20985800D01*
X45139837Y-20769211D01*
X45399668Y-20523086D01*
X45631365Y-20250311D01*
X45832211Y-19954085D01*
X45999853Y-19637880D01*
X46010306Y-19611643D01*
X46053406Y-19556651D01*
X46119395Y-19533690D01*
X46187323Y-19550051D01*
G37*
%TD.AperFunction*%
%TD*%
%TA.AperFunction,Conductor*%
%TO.N,GND*%
G36*
X18764039Y-42796985D02*
G01*
X18809794Y-42849789D01*
X18821000Y-42901300D01*
X18821000Y-46000000D01*
X18868823Y-46000000D01*
X18869344Y-45999972D01*
X18869463Y-46000000D01*
X18872149Y-46000000D01*
X18872149Y-46000634D01*
X18937344Y-46016030D01*
X18985867Y-46066302D01*
X19000000Y-46123793D01*
X19000000Y-46352416D01*
X18980315Y-46419455D01*
X18927511Y-46465210D01*
X18916960Y-46469455D01*
X18878984Y-46482743D01*
X18760478Y-46524210D01*
X18607737Y-46620184D01*
X18480184Y-46747737D01*
X18384211Y-46900476D01*
X18324631Y-47070745D01*
X18324630Y-47070750D01*
X18304435Y-47249996D01*
X18304435Y-47250003D01*
X18324630Y-47429249D01*
X18324631Y-47429254D01*
X18384211Y-47599523D01*
X18452508Y-47708216D01*
X18480184Y-47752262D01*
X18607738Y-47879816D01*
X18668428Y-47917950D01*
X18714719Y-47970285D01*
X18725367Y-48039339D01*
X18696992Y-48103187D01*
X18690137Y-48110625D01*
X18337582Y-48463181D01*
X18276259Y-48496666D01*
X18249901Y-48499500D01*
X17624000Y-48499500D01*
X17556961Y-48479815D01*
X17511206Y-48427011D01*
X17500000Y-48375500D01*
X17500000Y-45953835D01*
X17519685Y-45886796D01*
X17572489Y-45841041D01*
X17641647Y-45831097D01*
X17698312Y-45854569D01*
X17816910Y-45943352D01*
X17816913Y-45943354D01*
X17951620Y-45993596D01*
X17951627Y-45993598D01*
X18011155Y-45999999D01*
X18011172Y-46000000D01*
X18059000Y-46000000D01*
X18059000Y-42901300D01*
X18078685Y-42834261D01*
X18131489Y-42788506D01*
X18183000Y-42777300D01*
X18697000Y-42777300D01*
X18764039Y-42796985D01*
G37*
%TD.AperFunction*%
%TD*%
%TA.AperFunction,Conductor*%
%TO.N,J2-*%
G36*
X41666973Y-15020184D02*
G01*
X41712728Y-15072988D01*
X41722672Y-15142146D01*
X41693647Y-15205702D01*
X41652000Y-15237038D01*
X41451755Y-15329680D01*
X41451751Y-15329682D01*
X41223367Y-15467096D01*
X41145081Y-15514200D01*
X41056768Y-15581333D01*
X40860172Y-15730781D01*
X40860163Y-15730789D01*
X40600331Y-15976914D01*
X40368641Y-16249680D01*
X40368634Y-16249690D01*
X40167790Y-16545913D01*
X40167784Y-16545922D01*
X40000151Y-16862111D01*
X40000142Y-16862129D01*
X39867674Y-17194600D01*
X39867672Y-17194607D01*
X39771932Y-17539434D01*
X39771926Y-17539460D01*
X39714029Y-17892614D01*
X39714028Y-17892631D01*
X39694652Y-18249997D01*
X39694652Y-18250002D01*
X39714028Y-18607368D01*
X39714029Y-18607385D01*
X39771926Y-18960539D01*
X39771932Y-18960565D01*
X39867672Y-19305392D01*
X39867674Y-19305399D01*
X40000142Y-19637870D01*
X40000151Y-19637888D01*
X40167784Y-19954077D01*
X40167787Y-19954082D01*
X40167789Y-19954085D01*
X40366669Y-20247412D01*
X40368634Y-20250309D01*
X40368641Y-20250319D01*
X40578361Y-20497220D01*
X40600332Y-20523086D01*
X40860163Y-20769211D01*
X41145081Y-20985800D01*
X41451747Y-21170315D01*
X41451749Y-21170316D01*
X41451751Y-21170317D01*
X41451755Y-21170319D01*
X41776552Y-21320585D01*
X41776565Y-21320591D01*
X41915596Y-21367436D01*
X41972838Y-21407493D01*
X41999338Y-21472143D01*
X42000000Y-21484943D01*
X42000000Y-25768000D01*
X42000000Y-26897340D01*
X41980315Y-26964379D01*
X41927511Y-27010134D01*
X41858353Y-27020078D01*
X41832668Y-27013522D01*
X41813583Y-27006404D01*
X41813572Y-27006401D01*
X41754044Y-27000000D01*
X39050000Y-27000000D01*
X39050000Y-34654700D01*
X39030315Y-34721739D01*
X38977511Y-34767494D01*
X38926000Y-34778700D01*
X34174000Y-34778700D01*
X34106961Y-34759015D01*
X34061206Y-34706211D01*
X34050000Y-34654700D01*
X34050000Y-27000000D01*
X31345955Y-27000000D01*
X31286427Y-27006401D01*
X31286420Y-27006403D01*
X31151713Y-27056645D01*
X31151706Y-27056649D01*
X31036612Y-27142809D01*
X30973266Y-27227428D01*
X30917332Y-27269298D01*
X30847640Y-27274282D01*
X30786318Y-27240796D01*
X30752833Y-27179472D01*
X30750000Y-27153116D01*
X30750000Y-25087500D01*
X40381388Y-25087500D01*
X40385494Y-25127696D01*
X40385494Y-25127698D01*
X40440641Y-25294119D01*
X40440643Y-25294124D01*
X40532684Y-25443345D01*
X40656654Y-25567315D01*
X40805881Y-25659359D01*
X40874999Y-25682262D01*
X40875000Y-25682262D01*
X40875000Y-25087500D01*
X40381388Y-25087500D01*
X30750000Y-25087500D01*
X30750000Y-23912500D01*
X40381387Y-23912500D01*
X40875000Y-23912500D01*
X40875000Y-23317737D01*
X40805879Y-23340641D01*
X40656654Y-23432684D01*
X40532684Y-23556654D01*
X40440643Y-23705875D01*
X40440641Y-23705880D01*
X40385493Y-23872306D01*
X40381387Y-23912500D01*
X30750000Y-23912500D01*
X30750000Y-23202444D01*
X31225000Y-23202444D01*
X31231401Y-23261972D01*
X31231403Y-23261979D01*
X31281645Y-23396686D01*
X31281649Y-23396693D01*
X31367809Y-23511787D01*
X31367812Y-23511790D01*
X31482906Y-23597950D01*
X31482913Y-23597954D01*
X31617620Y-23648196D01*
X31617627Y-23648198D01*
X31677155Y-23654599D01*
X31677172Y-23654600D01*
X31725000Y-23654600D01*
X34275000Y-23654600D01*
X34322828Y-23654600D01*
X34322844Y-23654599D01*
X34382372Y-23648198D01*
X34382379Y-23648196D01*
X34517086Y-23597954D01*
X34517093Y-23597950D01*
X34632187Y-23511790D01*
X34632190Y-23511787D01*
X34718350Y-23396693D01*
X34718354Y-23396686D01*
X34768596Y-23261979D01*
X34768598Y-23261972D01*
X34774999Y-23202444D01*
X34775000Y-23202427D01*
X34775000Y-23154600D01*
X34275000Y-23154600D01*
X34275000Y-23654600D01*
X31725000Y-23654600D01*
X31725000Y-23154600D01*
X31225000Y-23154600D01*
X31225000Y-23202444D01*
X30750000Y-23202444D01*
X30750000Y-21795882D01*
X32150000Y-21795882D01*
X32150000Y-21963318D01*
X32182665Y-22127536D01*
X32246740Y-22282226D01*
X32339762Y-22421444D01*
X32458156Y-22539838D01*
X32597374Y-22632860D01*
X32752064Y-22696935D01*
X32916282Y-22729600D01*
X33083718Y-22729600D01*
X33247936Y-22696935D01*
X33402626Y-22632860D01*
X33541844Y-22539838D01*
X33660238Y-22421444D01*
X33753260Y-22282226D01*
X33817335Y-22127536D01*
X33850000Y-21963318D01*
X33850000Y-21795882D01*
X33817335Y-21631664D01*
X33753260Y-21476974D01*
X33660238Y-21337756D01*
X33541844Y-21219362D01*
X33402626Y-21126340D01*
X33247936Y-21062265D01*
X33083718Y-21029600D01*
X32916282Y-21029600D01*
X32752064Y-21062265D01*
X32597374Y-21126340D01*
X32458156Y-21219362D01*
X32339762Y-21337756D01*
X32246740Y-21476974D01*
X32182665Y-21631664D01*
X32150000Y-21795882D01*
X30750000Y-21795882D01*
X30750000Y-21098596D01*
X30769685Y-21031557D01*
X30822489Y-20985802D01*
X30833042Y-20981555D01*
X30849522Y-20975789D01*
X31002262Y-20879816D01*
X31129816Y-20752262D01*
X31186137Y-20662626D01*
X31238470Y-20616337D01*
X31291130Y-20604600D01*
X34775000Y-20604600D01*
X34775000Y-20556772D01*
X34774999Y-20556755D01*
X34768598Y-20497227D01*
X34768596Y-20497220D01*
X34718354Y-20362513D01*
X34718350Y-20362506D01*
X34632190Y-20247412D01*
X34632187Y-20247409D01*
X34517093Y-20161249D01*
X34517086Y-20161245D01*
X34382379Y-20111003D01*
X34382372Y-20111001D01*
X34322844Y-20104600D01*
X33898774Y-20104600D01*
X33831735Y-20084915D01*
X33785980Y-20032111D01*
X33776036Y-19962953D01*
X33781733Y-19939643D01*
X33785368Y-19929255D01*
X33785369Y-19929249D01*
X33805565Y-19750003D01*
X33805565Y-19749996D01*
X33785369Y-19570750D01*
X33785368Y-19570745D01*
X33725788Y-19400476D01*
X33629815Y-19247737D01*
X33502262Y-19120184D01*
X33349523Y-19024211D01*
X33179254Y-18964631D01*
X33179249Y-18964630D01*
X33000004Y-18944435D01*
X32999996Y-18944435D01*
X32820750Y-18964630D01*
X32820745Y-18964631D01*
X32650476Y-19024211D01*
X32497737Y-19120184D01*
X32370184Y-19247737D01*
X32274211Y-19400476D01*
X32214631Y-19570745D01*
X32214630Y-19570750D01*
X32194435Y-19749996D01*
X32194435Y-19750003D01*
X32214630Y-19929249D01*
X32214632Y-19929255D01*
X32218267Y-19939643D01*
X32221830Y-20009422D01*
X32187102Y-20070050D01*
X32125109Y-20102278D01*
X32101226Y-20104600D01*
X31677155Y-20104600D01*
X31617627Y-20111001D01*
X31617620Y-20111003D01*
X31482913Y-20161245D01*
X31475128Y-20165497D01*
X31474428Y-20164216D01*
X31417955Y-20185274D01*
X31349684Y-20170416D01*
X31300283Y-20121006D01*
X31285900Y-20075469D01*
X31285368Y-20070745D01*
X31225789Y-19900478D01*
X31129816Y-19747738D01*
X31002262Y-19620184D01*
X30849524Y-19524212D01*
X30849525Y-19524212D01*
X30846803Y-19523259D01*
X30833042Y-19518444D01*
X30776268Y-19477722D01*
X30750522Y-19412769D01*
X30750000Y-19401404D01*
X30750000Y-16879600D01*
X34740708Y-16879600D01*
X34759839Y-17098274D01*
X34816653Y-17310303D01*
X34816654Y-17310306D01*
X34816655Y-17310308D01*
X34909419Y-17509242D01*
X34909423Y-17509250D01*
X35035322Y-17689052D01*
X35035327Y-17689058D01*
X35190541Y-17844272D01*
X35190547Y-17844277D01*
X35370349Y-17970176D01*
X35370351Y-17970177D01*
X35370354Y-17970179D01*
X35569297Y-18062947D01*
X35781326Y-18119761D01*
X35937521Y-18133426D01*
X35999998Y-18138892D01*
X36000000Y-18138892D01*
X36000002Y-18138892D01*
X36054668Y-18134109D01*
X36218674Y-18119761D01*
X36430703Y-18062947D01*
X36629646Y-17970179D01*
X36809457Y-17844274D01*
X36964674Y-17689057D01*
X37090579Y-17509246D01*
X37183347Y-17310303D01*
X37240161Y-17098274D01*
X37259292Y-16879600D01*
X37240161Y-16660926D01*
X37183347Y-16448897D01*
X37090579Y-16249954D01*
X37090577Y-16249951D01*
X37090576Y-16249949D01*
X36964677Y-16070147D01*
X36964672Y-16070141D01*
X36809458Y-15914927D01*
X36809452Y-15914922D01*
X36629650Y-15789023D01*
X36629642Y-15789019D01*
X36430708Y-15696255D01*
X36430706Y-15696254D01*
X36430703Y-15696253D01*
X36279885Y-15655840D01*
X36218675Y-15639439D01*
X36218668Y-15639438D01*
X36000002Y-15620308D01*
X35999998Y-15620308D01*
X35781331Y-15639438D01*
X35781324Y-15639439D01*
X35658902Y-15672242D01*
X35569297Y-15696253D01*
X35569295Y-15696253D01*
X35569291Y-15696255D01*
X35370357Y-15789019D01*
X35370349Y-15789023D01*
X35190547Y-15914922D01*
X35190541Y-15914927D01*
X35035327Y-16070141D01*
X35035322Y-16070147D01*
X34909423Y-16249949D01*
X34909419Y-16249957D01*
X34816655Y-16448891D01*
X34759839Y-16660924D01*
X34759838Y-16660931D01*
X34742238Y-16862111D01*
X34740708Y-16879600D01*
X30750000Y-16879600D01*
X30750000Y-15124499D01*
X30769685Y-15057460D01*
X30822489Y-15011705D01*
X30873997Y-15000499D01*
X41599934Y-15000499D01*
X41666973Y-15020184D01*
G37*
%TD.AperFunction*%
%TD*%
%TA.AperFunction,Conductor*%
%TO.N,J2+*%
G36*
X30187539Y-15020184D02*
G01*
X30233294Y-15072988D01*
X30244500Y-15124499D01*
X30244500Y-19402826D01*
X30243877Y-19402826D01*
X30226281Y-19468044D01*
X30174501Y-19514953D01*
X30161472Y-19520363D01*
X30150481Y-19524209D01*
X30150475Y-19524212D01*
X29997737Y-19620184D01*
X29870184Y-19747737D01*
X29774211Y-19900476D01*
X29714631Y-20070745D01*
X29714630Y-20070750D01*
X29694435Y-20249996D01*
X29694435Y-20250003D01*
X29714630Y-20429249D01*
X29714631Y-20429254D01*
X29774211Y-20599523D01*
X29851824Y-20723043D01*
X29870184Y-20752262D01*
X29997738Y-20879816D01*
X30150478Y-20975789D01*
X30161452Y-20979629D01*
X30218228Y-21020348D01*
X30243977Y-21085300D01*
X30244500Y-21096671D01*
X30244500Y-27153121D01*
X30247392Y-27207115D01*
X30250228Y-27233498D01*
X30250232Y-27233529D01*
X30258883Y-27286917D01*
X30258884Y-27286920D01*
X30309165Y-27421730D01*
X30309170Y-27421741D01*
X30342648Y-27483052D01*
X30342650Y-27483054D01*
X30428866Y-27598230D01*
X30467119Y-27626867D01*
X30544048Y-27684458D01*
X30571077Y-27699217D01*
X30605349Y-27717933D01*
X30605356Y-27717936D01*
X30605370Y-27717944D01*
X30605377Y-27717947D01*
X30669334Y-27741802D01*
X30725268Y-27783674D01*
X30749684Y-27849139D01*
X30750000Y-27857984D01*
X30750000Y-32376000D01*
X30730315Y-32443039D01*
X30677511Y-32488794D01*
X30626000Y-32500000D01*
X30385023Y-32500000D01*
X30317984Y-32480315D01*
X30272229Y-32427511D01*
X30262285Y-32358353D01*
X30291310Y-32294797D01*
X30297342Y-32288319D01*
X30317315Y-32268345D01*
X30409358Y-32119120D01*
X30432263Y-32050000D01*
X28786500Y-32050000D01*
X28719461Y-32030315D01*
X28673706Y-31977511D01*
X28662500Y-31926000D01*
X28662500Y-30875000D01*
X29837500Y-30875000D01*
X30432262Y-30875000D01*
X30409358Y-30805879D01*
X30317315Y-30656654D01*
X30193345Y-30532684D01*
X30044124Y-30440643D01*
X30044119Y-30440641D01*
X29877691Y-30385493D01*
X29877695Y-30385493D01*
X29837500Y-30381387D01*
X29837500Y-30875000D01*
X28662500Y-30875000D01*
X28662500Y-30381387D01*
X28622306Y-30385493D01*
X28455880Y-30440641D01*
X28455875Y-30440643D01*
X28306654Y-30532684D01*
X28182684Y-30656654D01*
X28090643Y-30805875D01*
X28090641Y-30805880D01*
X28035494Y-30972302D01*
X28035493Y-30972309D01*
X28025000Y-31075013D01*
X28025000Y-31849971D01*
X28025001Y-31849987D01*
X28035494Y-31952697D01*
X28090641Y-32119119D01*
X28090643Y-32119124D01*
X28182684Y-32268345D01*
X28202658Y-32288319D01*
X28236143Y-32349642D01*
X28231159Y-32419334D01*
X28189287Y-32475267D01*
X28123823Y-32499684D01*
X28114977Y-32500000D01*
X27250000Y-32500000D01*
X27250000Y-34778700D01*
X19874000Y-34778700D01*
X19806961Y-34759015D01*
X19761206Y-34706211D01*
X19750000Y-34654700D01*
X19750000Y-29778700D01*
X24750000Y-29778700D01*
X27906200Y-29778700D01*
X27906200Y-27452172D01*
X27906199Y-27452155D01*
X27899798Y-27392627D01*
X27899796Y-27392620D01*
X27849554Y-27257913D01*
X27849550Y-27257906D01*
X27763390Y-27142812D01*
X27763387Y-27142809D01*
X27648293Y-27056649D01*
X27648286Y-27056645D01*
X27513579Y-27006403D01*
X27513572Y-27006401D01*
X27454044Y-27000000D01*
X24750000Y-27000000D01*
X24750000Y-29778700D01*
X19750000Y-29778700D01*
X19750000Y-27000000D01*
X17124000Y-27000000D01*
X17123980Y-26999994D01*
X22444435Y-26999994D01*
X22444435Y-27000000D01*
X22464630Y-27179247D01*
X22464631Y-27179252D01*
X22524211Y-27349521D01*
X22599884Y-27469953D01*
X22620184Y-27502260D01*
X22747738Y-27629814D01*
X22818023Y-27673977D01*
X22888000Y-27717947D01*
X22900478Y-27725787D01*
X23051106Y-27778494D01*
X23070745Y-27785366D01*
X23070750Y-27785367D01*
X23249996Y-27805563D01*
X23250000Y-27805563D01*
X23250004Y-27805563D01*
X23429249Y-27785367D01*
X23429252Y-27785366D01*
X23429255Y-27785366D01*
X23599522Y-27725787D01*
X23752262Y-27629814D01*
X23879816Y-27502260D01*
X23975789Y-27349520D01*
X24035368Y-27179253D01*
X24038313Y-27153121D01*
X24055565Y-27000000D01*
X24055565Y-26999994D01*
X24035369Y-26820748D01*
X24035368Y-26820743D01*
X23975788Y-26650474D01*
X23879815Y-26497735D01*
X23752262Y-26370182D01*
X23599523Y-26274209D01*
X23429254Y-26214629D01*
X23429249Y-26214628D01*
X23250004Y-26194433D01*
X23249996Y-26194433D01*
X23070750Y-26214628D01*
X23070745Y-26214629D01*
X22900476Y-26274209D01*
X22747737Y-26370182D01*
X22620184Y-26497735D01*
X22524211Y-26650474D01*
X22464631Y-26820743D01*
X22464630Y-26820748D01*
X22444435Y-26999994D01*
X17123980Y-26999994D01*
X17056961Y-26980315D01*
X17011206Y-26927511D01*
X17000000Y-26876000D01*
X17000000Y-25849499D01*
X17019685Y-25782460D01*
X17072489Y-25736705D01*
X17123995Y-25725499D01*
X17850008Y-25725499D01*
X17850016Y-25725498D01*
X17850019Y-25725498D01*
X17906302Y-25719748D01*
X17952797Y-25714999D01*
X18119334Y-25659814D01*
X18268656Y-25567712D01*
X18392712Y-25443656D01*
X18394752Y-25440347D01*
X18396745Y-25438555D01*
X18397193Y-25437989D01*
X18397289Y-25438065D01*
X18446694Y-25393623D01*
X18515656Y-25382395D01*
X18579740Y-25410234D01*
X18605829Y-25440339D01*
X18607681Y-25443341D01*
X18607683Y-25443344D01*
X18731654Y-25567315D01*
X18880881Y-25659359D01*
X18949999Y-25682262D01*
X18950000Y-25682262D01*
X20125000Y-25682262D01*
X20194118Y-25659359D01*
X20343345Y-25567315D01*
X20467315Y-25443345D01*
X20559356Y-25294124D01*
X20559358Y-25294119D01*
X20614506Y-25127693D01*
X20618613Y-25087500D01*
X20125000Y-25087500D01*
X20125000Y-25682262D01*
X18950000Y-25682262D01*
X18950000Y-23912500D01*
X20125000Y-23912500D01*
X20618611Y-23912500D01*
X20618611Y-23912499D01*
X20614505Y-23872303D01*
X20614505Y-23872301D01*
X20559358Y-23705880D01*
X20559356Y-23705875D01*
X20467315Y-23556654D01*
X20343345Y-23432684D01*
X20194120Y-23340641D01*
X20125000Y-23317737D01*
X20125000Y-23912500D01*
X18950000Y-23912500D01*
X18950000Y-23317737D01*
X18880879Y-23340641D01*
X18731654Y-23432684D01*
X18607683Y-23556655D01*
X18607679Y-23556660D01*
X18605826Y-23559665D01*
X18604018Y-23561290D01*
X18603202Y-23562323D01*
X18603025Y-23562183D01*
X18553874Y-23606385D01*
X18484911Y-23617601D01*
X18420831Y-23589752D01*
X18394753Y-23559653D01*
X18394737Y-23559628D01*
X18392712Y-23556344D01*
X18268656Y-23432288D01*
X18121902Y-23341770D01*
X18075179Y-23289823D01*
X18063000Y-23236232D01*
X18063000Y-21795882D01*
X27150000Y-21795882D01*
X27150000Y-21963318D01*
X27182665Y-22127536D01*
X27246740Y-22282226D01*
X27339762Y-22421444D01*
X27458156Y-22539838D01*
X27597374Y-22632860D01*
X27752064Y-22696935D01*
X27916282Y-22729600D01*
X28083718Y-22729600D01*
X28247936Y-22696935D01*
X28402626Y-22632860D01*
X28541844Y-22539838D01*
X28660238Y-22421444D01*
X28753260Y-22282226D01*
X28817335Y-22127536D01*
X28850000Y-21963318D01*
X28850000Y-21795882D01*
X28817335Y-21631664D01*
X28753260Y-21476974D01*
X28660238Y-21337756D01*
X28541844Y-21219362D01*
X28402626Y-21126340D01*
X28247936Y-21062265D01*
X28083718Y-21029600D01*
X27916282Y-21029600D01*
X27752064Y-21062265D01*
X27597374Y-21126340D01*
X27458156Y-21219362D01*
X27339762Y-21337756D01*
X27246740Y-21476974D01*
X27182665Y-21631664D01*
X27150000Y-21795882D01*
X18063000Y-21795882D01*
X18063000Y-21674245D01*
X18082685Y-21607206D01*
X18135489Y-21561451D01*
X18175684Y-21551562D01*
X18175608Y-21550863D01*
X18178946Y-21550500D01*
X18178948Y-21550500D01*
X18534746Y-21511805D01*
X18884274Y-21434868D01*
X19223435Y-21320591D01*
X19548253Y-21170315D01*
X19854919Y-20985800D01*
X20139837Y-20769211D01*
X20399668Y-20523086D01*
X20631365Y-20250311D01*
X20832211Y-19954085D01*
X20940413Y-19749996D01*
X24694435Y-19749996D01*
X24694435Y-19750003D01*
X24714630Y-19929249D01*
X24714631Y-19929254D01*
X24774211Y-20099523D01*
X24821600Y-20174941D01*
X24870184Y-20252262D01*
X24997738Y-20379816D01*
X25150478Y-20475789D01*
X25285642Y-20523085D01*
X25320745Y-20535368D01*
X25320750Y-20535369D01*
X25499996Y-20555565D01*
X25500000Y-20555565D01*
X25500004Y-20555565D01*
X25679249Y-20535369D01*
X25679252Y-20535368D01*
X25679255Y-20535368D01*
X25849522Y-20475789D01*
X26002262Y-20379816D01*
X26129816Y-20252262D01*
X26225789Y-20099522D01*
X26285368Y-19929255D01*
X26287102Y-19913865D01*
X26305565Y-19750003D01*
X26305565Y-19749996D01*
X26285369Y-19570750D01*
X26285368Y-19570745D01*
X26269084Y-19524209D01*
X26225789Y-19400478D01*
X26129816Y-19247738D01*
X26002262Y-19120184D01*
X25849523Y-19024211D01*
X25679254Y-18964631D01*
X25679249Y-18964630D01*
X25500004Y-18944435D01*
X25499996Y-18944435D01*
X25320750Y-18964630D01*
X25320745Y-18964631D01*
X25150476Y-19024211D01*
X24997737Y-19120184D01*
X24870184Y-19247737D01*
X24774211Y-19400476D01*
X24714631Y-19570745D01*
X24714630Y-19570750D01*
X24694435Y-19749996D01*
X20940413Y-19749996D01*
X20999853Y-19637880D01*
X21132324Y-19305403D01*
X21228071Y-18960552D01*
X21253193Y-18807314D01*
X21285970Y-18607385D01*
X21285970Y-18607382D01*
X21285972Y-18607371D01*
X21305348Y-18250000D01*
X21285972Y-17892629D01*
X21278045Y-17844277D01*
X21228073Y-17539460D01*
X21228072Y-17539459D01*
X21228071Y-17539448D01*
X21164451Y-17310308D01*
X21132327Y-17194607D01*
X21132325Y-17194600D01*
X21006817Y-16879597D01*
X23740708Y-16879597D01*
X23740708Y-16879602D01*
X23757775Y-17074690D01*
X23759839Y-17098274D01*
X23816653Y-17310303D01*
X23816654Y-17310306D01*
X23816655Y-17310308D01*
X23909419Y-17509242D01*
X23909423Y-17509250D01*
X24035322Y-17689052D01*
X24035327Y-17689058D01*
X24190541Y-17844272D01*
X24190547Y-17844277D01*
X24370349Y-17970176D01*
X24370351Y-17970177D01*
X24370354Y-17970179D01*
X24569297Y-18062947D01*
X24781326Y-18119761D01*
X24937521Y-18133426D01*
X24999998Y-18138892D01*
X25000000Y-18138892D01*
X25000002Y-18138892D01*
X25054668Y-18134109D01*
X25218674Y-18119761D01*
X25430703Y-18062947D01*
X25629646Y-17970179D01*
X25809457Y-17844274D01*
X25964674Y-17689057D01*
X26090579Y-17509246D01*
X26183347Y-17310303D01*
X26240161Y-17098274D01*
X26248759Y-16999996D01*
X27194435Y-16999996D01*
X27194435Y-17000003D01*
X27214630Y-17179249D01*
X27214631Y-17179254D01*
X27274211Y-17349523D01*
X27282609Y-17362888D01*
X27370184Y-17502262D01*
X27497738Y-17629816D01*
X27650478Y-17725789D01*
X27820745Y-17785368D01*
X27820750Y-17785369D01*
X27999996Y-17805565D01*
X28000000Y-17805565D01*
X28000004Y-17805565D01*
X28179249Y-17785369D01*
X28179252Y-17785368D01*
X28179255Y-17785368D01*
X28349522Y-17725789D01*
X28502262Y-17629816D01*
X28629816Y-17502262D01*
X28725789Y-17349522D01*
X28785368Y-17179255D01*
X28785369Y-17179249D01*
X28805565Y-17000003D01*
X28805565Y-16999996D01*
X28785369Y-16820750D01*
X28785368Y-16820745D01*
X28760276Y-16749037D01*
X28725789Y-16650478D01*
X28629816Y-16497738D01*
X28502262Y-16370184D01*
X28430435Y-16325052D01*
X28349523Y-16274211D01*
X28179254Y-16214631D01*
X28179249Y-16214630D01*
X28000004Y-16194435D01*
X27999996Y-16194435D01*
X27820750Y-16214630D01*
X27820745Y-16214631D01*
X27650476Y-16274211D01*
X27497737Y-16370184D01*
X27370184Y-16497737D01*
X27274211Y-16650476D01*
X27214631Y-16820745D01*
X27214630Y-16820750D01*
X27194435Y-16999996D01*
X26248759Y-16999996D01*
X26259292Y-16879600D01*
X26240161Y-16660926D01*
X26183347Y-16448897D01*
X26090579Y-16249954D01*
X26090577Y-16249951D01*
X26090576Y-16249949D01*
X25964677Y-16070147D01*
X25964672Y-16070141D01*
X25809458Y-15914927D01*
X25809452Y-15914922D01*
X25629650Y-15789023D01*
X25629642Y-15789019D01*
X25430708Y-15696255D01*
X25430706Y-15696254D01*
X25430703Y-15696253D01*
X25279885Y-15655840D01*
X25218675Y-15639439D01*
X25218668Y-15639438D01*
X25000002Y-15620308D01*
X24999998Y-15620308D01*
X24781331Y-15639438D01*
X24781324Y-15639439D01*
X24658902Y-15672242D01*
X24569297Y-15696253D01*
X24569295Y-15696253D01*
X24569291Y-15696255D01*
X24370357Y-15789019D01*
X24370349Y-15789023D01*
X24190547Y-15914922D01*
X24190541Y-15914927D01*
X24035327Y-16070141D01*
X24035322Y-16070147D01*
X23909423Y-16249949D01*
X23909419Y-16249957D01*
X23816655Y-16448891D01*
X23759839Y-16660924D01*
X23759838Y-16660931D01*
X23740708Y-16879597D01*
X21006817Y-16879597D01*
X20999857Y-16862129D01*
X20999848Y-16862111D01*
X20970586Y-16806918D01*
X20832211Y-16545915D01*
X20631365Y-16249689D01*
X20631361Y-16249684D01*
X20631358Y-16249680D01*
X20399668Y-15976914D01*
X20318718Y-15900234D01*
X20139837Y-15730789D01*
X20139830Y-15730783D01*
X20139827Y-15730781D01*
X20019668Y-15639439D01*
X19854919Y-15514200D01*
X19548253Y-15329685D01*
X19548252Y-15329684D01*
X19548248Y-15329682D01*
X19548244Y-15329680D01*
X19348000Y-15237038D01*
X19295422Y-15191024D01*
X19276068Y-15123889D01*
X19296082Y-15056947D01*
X19349110Y-15011452D01*
X19400066Y-15000499D01*
X30120500Y-15000499D01*
X30187539Y-15020184D01*
G37*
%TD.AperFunction*%
%TD*%
%TA.AperFunction,Conductor*%
%TO.N,GND*%
G36*
X31831883Y-40519685D02*
G01*
X31877638Y-40572489D01*
X31887582Y-40641647D01*
X31881026Y-40667333D01*
X31865403Y-40709219D01*
X31865401Y-40709227D01*
X31859000Y-40768755D01*
X31859000Y-42777300D01*
X32997000Y-42777300D01*
X33064039Y-42796985D01*
X33109794Y-42849789D01*
X33121000Y-42901300D01*
X33121000Y-46000000D01*
X33126000Y-46000000D01*
X33193039Y-46019685D01*
X33238794Y-46072489D01*
X33250000Y-46124000D01*
X33250000Y-46529003D01*
X33230315Y-46596042D01*
X33213681Y-46616684D01*
X31769481Y-48060883D01*
X31769480Y-48060885D01*
X31720715Y-48145349D01*
X31690423Y-48197816D01*
X31649499Y-48350544D01*
X31649499Y-48350546D01*
X31649499Y-48405100D01*
X31629814Y-48472139D01*
X31577010Y-48517894D01*
X31525499Y-48529100D01*
X31249999Y-48529100D01*
X31249980Y-48529101D01*
X31147203Y-48539600D01*
X31147200Y-48539601D01*
X30991178Y-48591302D01*
X30921349Y-48593704D01*
X30861308Y-48557972D01*
X30844786Y-48535594D01*
X30830522Y-48510887D01*
X30830518Y-48510882D01*
X30786319Y-48466683D01*
X30752834Y-48405360D01*
X30750000Y-48379002D01*
X30750000Y-47622469D01*
X30759124Y-47581313D01*
X30757542Y-47580789D01*
X30759812Y-47573935D01*
X30759814Y-47573934D01*
X30814999Y-47407397D01*
X30825500Y-47304609D01*
X30825499Y-46529592D01*
X30814999Y-46426803D01*
X30773274Y-46300885D01*
X30757543Y-46253411D01*
X30759123Y-46252887D01*
X30750000Y-46211728D01*
X30750000Y-46000000D01*
X30610801Y-46000000D01*
X30543762Y-45980315D01*
X30498007Y-45927511D01*
X30488063Y-45858353D01*
X30517088Y-45794797D01*
X30538097Y-45776929D01*
X30537677Y-45776398D01*
X30543344Y-45771916D01*
X30667315Y-45647945D01*
X30729058Y-45547844D01*
X31859000Y-45547844D01*
X31865401Y-45607372D01*
X31865403Y-45607379D01*
X31915645Y-45742086D01*
X31915649Y-45742093D01*
X32001809Y-45857187D01*
X32001812Y-45857190D01*
X32116906Y-45943350D01*
X32116913Y-45943354D01*
X32251620Y-45993596D01*
X32251627Y-45993598D01*
X32311155Y-45999999D01*
X32311172Y-46000000D01*
X32359000Y-46000000D01*
X32359000Y-43539300D01*
X31859000Y-43539300D01*
X31859000Y-45547844D01*
X30729058Y-45547844D01*
X30759358Y-45498720D01*
X30782263Y-45429600D01*
X29136500Y-45429600D01*
X29069461Y-45409915D01*
X29023706Y-45357111D01*
X29012500Y-45305600D01*
X29012500Y-44254600D01*
X30187500Y-44254600D01*
X30782262Y-44254600D01*
X30759358Y-44185479D01*
X30667315Y-44036254D01*
X30543343Y-43912282D01*
X30489203Y-43878889D01*
X30442478Y-43826942D01*
X30431255Y-43757979D01*
X30459098Y-43693897D01*
X30489203Y-43667811D01*
X30543343Y-43634417D01*
X30667315Y-43510445D01*
X30759358Y-43361220D01*
X30782263Y-43292100D01*
X30187500Y-43292100D01*
X30187500Y-44254600D01*
X29012500Y-44254600D01*
X29012500Y-42241100D01*
X29032185Y-42174061D01*
X29084989Y-42128306D01*
X29136500Y-42117100D01*
X30782262Y-42117100D01*
X30759358Y-42047979D01*
X30667315Y-41898754D01*
X30543344Y-41774783D01*
X30543341Y-41774781D01*
X30540339Y-41772929D01*
X30538713Y-41771121D01*
X30537677Y-41770302D01*
X30537817Y-41770124D01*
X30493617Y-41720980D01*
X30482397Y-41652017D01*
X30510243Y-41587936D01*
X30540344Y-41561854D01*
X30543656Y-41559812D01*
X30567149Y-41536319D01*
X30628472Y-41502834D01*
X30654830Y-41500000D01*
X31250000Y-41500000D01*
X31250000Y-40624000D01*
X31269685Y-40556961D01*
X31322489Y-40511206D01*
X31374000Y-40500000D01*
X31764844Y-40500000D01*
X31831883Y-40519685D01*
G37*
%TD.AperFunction*%
%TD*%
M02*
