%TF.GenerationSoftware,KiCad,Pcbnew,8.0.2*%
%TF.CreationDate,2024-10-02T19:37:23-04:00*%
%TF.ProjectId,drive_27A,64726976-655f-4323-9741-2e6b69636164,rev?*%
%TF.SameCoordinates,Original*%
%TF.FileFunction,Drillmap*%
%TF.FilePolarity,Positive*%
%FSLAX45Y45*%
G04 Gerber Fmt 4.5, Leading zero omitted, Abs format (unit mm)*
G04 Created by KiCad (PCBNEW 8.0.2) date 2024-10-02 19:37:23*
%MOMM*%
%LPD*%
G01*
G04 APERTURE LIST*
%ADD10C,0.050000*%
%ADD11C,0.200000*%
%ADD12C,0.100000*%
%ADD13C,0.120000*%
%ADD14C,0.270000*%
%ADD15C,0.320000*%
G04 APERTURE END LIST*
D10*
X1825000Y-7375000D02*
G75*
G02*
X1425000Y-6975000I0J400000D01*
G01*
X4675000Y-7125000D02*
G75*
G02*
X4425000Y-7375000I-250000J0D01*
G01*
X4275000Y-1450000D02*
G75*
G02*
X4675000Y-1850000I0J-400000D01*
G01*
X1425000Y-1850000D02*
G75*
G02*
X1825000Y-1450000I400000J0D01*
G01*
X1825000Y-1450000D02*
X4275000Y-1450000D01*
X1825000Y-7375000D02*
X4425000Y-7375000D01*
X1425000Y-1850000D02*
X1425000Y-6975000D01*
X4675000Y-7125000D02*
X4675000Y-1850000D01*
D11*
D12*
X1510000Y-4085000D02*
X1540000Y-4115000D01*
X1540000Y-4085000D02*
X1510000Y-4115000D01*
X1510000Y-4210000D02*
X1540000Y-4240000D01*
X1540000Y-4210000D02*
X1510000Y-4240000D01*
X1510000Y-4335000D02*
X1540000Y-4365000D01*
X1540000Y-4335000D02*
X1510000Y-4365000D01*
X1510000Y-4460000D02*
X1540000Y-4490000D01*
X1540000Y-4460000D02*
X1510000Y-4490000D01*
X1510000Y-4585000D02*
X1540000Y-4615000D01*
X1540000Y-4585000D02*
X1510000Y-4615000D01*
X1510000Y-4710000D02*
X1540000Y-4740000D01*
X1540000Y-4710000D02*
X1510000Y-4740000D01*
X1685000Y-5710000D02*
X1715000Y-5740000D01*
X1715000Y-5710000D02*
X1685000Y-5740000D01*
X1834128Y-4659286D02*
X1864128Y-4689286D01*
X1864128Y-4659286D02*
X1834128Y-4689286D01*
X1835000Y-2635000D02*
X1865000Y-2665000D01*
X1865000Y-2635000D02*
X1835000Y-2665000D01*
X1835000Y-4085000D02*
X1865000Y-4115000D01*
X1865000Y-4085000D02*
X1835000Y-4115000D01*
X1835000Y-4160000D02*
X1865000Y-4190000D01*
X1865000Y-4160000D02*
X1835000Y-4190000D01*
X1835000Y-4260000D02*
X1865000Y-4290000D01*
X1865000Y-4260000D02*
X1835000Y-4290000D01*
X1835000Y-4360000D02*
X1865000Y-4390000D01*
X1865000Y-4360000D02*
X1835000Y-4390000D01*
X1835000Y-4435000D02*
X1865000Y-4465000D01*
X1865000Y-4435000D02*
X1835000Y-4465000D01*
X1835000Y-4560000D02*
X1865000Y-4590000D01*
X1865000Y-4560000D02*
X1835000Y-4590000D01*
X1835000Y-4785000D02*
X1865000Y-4815000D01*
X1865000Y-4785000D02*
X1835000Y-4815000D01*
X1896000Y-4710000D02*
X1926000Y-4740000D01*
X1926000Y-4710000D02*
X1896000Y-4740000D01*
X2016000Y-4760000D02*
X2046000Y-4790000D01*
X2046000Y-4760000D02*
X2016000Y-4790000D01*
X2052651Y-5541687D02*
X2082651Y-5571687D01*
X2082651Y-5541687D02*
X2052651Y-5571687D01*
X2060000Y-5285000D02*
X2090000Y-5315000D01*
X2090000Y-5285000D02*
X2060000Y-5315000D01*
X2285000Y-7010000D02*
X2315000Y-7040000D01*
X2315000Y-7010000D02*
X2285000Y-7040000D01*
X2295677Y-5249324D02*
X2325677Y-5279324D01*
X2325677Y-5249324D02*
X2295677Y-5279324D01*
X2310000Y-2685000D02*
X2340000Y-2715000D01*
X2340000Y-2685000D02*
X2310000Y-2715000D01*
X2310000Y-4860000D02*
X2340000Y-4890000D01*
X2340000Y-4860000D02*
X2310000Y-4890000D01*
X2335000Y-6360000D02*
X2365000Y-6390000D01*
X2365000Y-6360000D02*
X2335000Y-6390000D01*
X2510000Y-1895000D02*
X2540000Y-1925000D01*
X2540000Y-1895000D02*
X2510000Y-1925000D01*
X2610000Y-2510000D02*
X2640000Y-2540000D01*
X2640000Y-2510000D02*
X2610000Y-2540000D01*
X2660000Y-6910000D02*
X2690000Y-6940000D01*
X2690000Y-6910000D02*
X2660000Y-6940000D01*
X2670000Y-5697960D02*
X2700000Y-5727960D01*
X2700000Y-5697960D02*
X2670000Y-5727960D01*
X2793342Y-3235000D02*
X2823342Y-3265000D01*
X2823342Y-3235000D02*
X2793342Y-3265000D01*
X2885000Y-4210000D02*
X2915000Y-4240000D01*
X2915000Y-4210000D02*
X2885000Y-4240000D01*
X2885000Y-4360000D02*
X2915000Y-4390000D01*
X2915000Y-4360000D02*
X2885000Y-4390000D01*
X2885000Y-4510000D02*
X2915000Y-4540000D01*
X2915000Y-4510000D02*
X2885000Y-4540000D01*
X2925000Y-4835000D02*
X2955000Y-4865000D01*
X2955000Y-4835000D02*
X2925000Y-4865000D01*
X3010000Y-6885000D02*
X3040000Y-6915000D01*
X3040000Y-6885000D02*
X3010000Y-6915000D01*
X3060000Y-3335000D02*
X3090000Y-3365000D01*
X3090000Y-3335000D02*
X3060000Y-3365000D01*
X3145000Y-4085000D02*
X3175000Y-4115000D01*
X3175000Y-4085000D02*
X3145000Y-4115000D01*
X3145000Y-4185000D02*
X3175000Y-4215000D01*
X3175000Y-4185000D02*
X3145000Y-4215000D01*
X3145000Y-4285000D02*
X3175000Y-4315000D01*
X3175000Y-4285000D02*
X3145000Y-4315000D01*
X3145000Y-4385000D02*
X3175000Y-4415000D01*
X3175000Y-4385000D02*
X3145000Y-4415000D01*
X3145000Y-4485000D02*
X3175000Y-4515000D01*
X3175000Y-4485000D02*
X3145000Y-4515000D01*
X3145000Y-4585000D02*
X3175000Y-4615000D01*
X3175000Y-4585000D02*
X3145000Y-4615000D01*
X3145000Y-4685000D02*
X3175000Y-4715000D01*
X3175000Y-4685000D02*
X3145000Y-4715000D01*
X3145000Y-4785000D02*
X3175000Y-4815000D01*
X3175000Y-4785000D02*
X3145000Y-4815000D01*
X3260000Y-4085000D02*
X3290000Y-4115000D01*
X3290000Y-4085000D02*
X3260000Y-4115000D01*
X3260000Y-4185000D02*
X3290000Y-4215000D01*
X3290000Y-4185000D02*
X3260000Y-4215000D01*
X3260000Y-4285000D02*
X3290000Y-4315000D01*
X3290000Y-4285000D02*
X3260000Y-4315000D01*
X3260000Y-4385000D02*
X3290000Y-4415000D01*
X3290000Y-4385000D02*
X3260000Y-4415000D01*
X3260000Y-4485000D02*
X3290000Y-4515000D01*
X3290000Y-4485000D02*
X3260000Y-4515000D01*
X3260000Y-4585000D02*
X3290000Y-4615000D01*
X3290000Y-4585000D02*
X3260000Y-4615000D01*
X3260000Y-4685000D02*
X3290000Y-4715000D01*
X3290000Y-4685000D02*
X3260000Y-4715000D01*
X3286406Y-4836407D02*
X3316406Y-4866407D01*
X3316406Y-4836407D02*
X3286406Y-4866407D01*
X3460000Y-2610000D02*
X3490000Y-2640000D01*
X3490000Y-2610000D02*
X3460000Y-2640000D01*
X3535000Y-5260000D02*
X3565000Y-5290000D01*
X3565000Y-5260000D02*
X3535000Y-5290000D01*
X3585000Y-4735000D02*
X3615000Y-4765000D01*
X3615000Y-4735000D02*
X3585000Y-4765000D01*
X3612353Y-5402353D02*
X3642353Y-5432353D01*
X3642353Y-5402353D02*
X3612353Y-5432353D01*
X3685000Y-6660000D02*
X3715000Y-6690000D01*
X3715000Y-6660000D02*
X3685000Y-6690000D01*
X3685000Y-6760000D02*
X3715000Y-6790000D01*
X3715000Y-6760000D02*
X3685000Y-6790000D01*
X3685000Y-6860000D02*
X3715000Y-6890000D01*
X3715000Y-6860000D02*
X3685000Y-6890000D01*
X3685000Y-6960000D02*
X3715000Y-6990000D01*
X3715000Y-6960000D02*
X3685000Y-6990000D01*
X3694500Y-4669500D02*
X3724500Y-4699500D01*
X3724500Y-4669500D02*
X3694500Y-4699500D01*
X3810000Y-6660000D02*
X3840000Y-6690000D01*
X3840000Y-6660000D02*
X3810000Y-6690000D01*
X3810000Y-6760000D02*
X3840000Y-6790000D01*
X3840000Y-6760000D02*
X3810000Y-6790000D01*
X3810000Y-6860000D02*
X3840000Y-6890000D01*
X3840000Y-6860000D02*
X3810000Y-6890000D01*
X3810000Y-6960000D02*
X3840000Y-6990000D01*
X3840000Y-6960000D02*
X3810000Y-6990000D01*
X3810000Y-7060000D02*
X3840000Y-7090000D01*
X3840000Y-7060000D02*
X3810000Y-7090000D01*
X3860000Y-2310000D02*
X3890000Y-2340000D01*
X3890000Y-2310000D02*
X3860000Y-2340000D01*
X3935000Y-6660000D02*
X3965000Y-6690000D01*
X3965000Y-6660000D02*
X3935000Y-6690000D01*
X3935000Y-6760000D02*
X3965000Y-6790000D01*
X3965000Y-6760000D02*
X3935000Y-6790000D01*
X3935000Y-6860000D02*
X3965000Y-6890000D01*
X3965000Y-6860000D02*
X3935000Y-6890000D01*
X3935000Y-6960000D02*
X3965000Y-6990000D01*
X3965000Y-6960000D02*
X3935000Y-6990000D01*
X3935000Y-7060000D02*
X3965000Y-7090000D01*
X3965000Y-7060000D02*
X3935000Y-7090000D01*
X4060000Y-6660000D02*
X4090000Y-6690000D01*
X4090000Y-6660000D02*
X4060000Y-6690000D01*
X4060000Y-6760000D02*
X4090000Y-6790000D01*
X4090000Y-6760000D02*
X4060000Y-6790000D01*
X4060000Y-6860000D02*
X4090000Y-6890000D01*
X4090000Y-6860000D02*
X4060000Y-6890000D01*
X4060000Y-6960000D02*
X4090000Y-6990000D01*
X4090000Y-6960000D02*
X4060000Y-6990000D01*
X4060000Y-7060000D02*
X4090000Y-7090000D01*
X4090000Y-7060000D02*
X4060000Y-7090000D01*
X4560000Y-2760000D02*
X4590000Y-2790000D01*
X4590000Y-2760000D02*
X4560000Y-2790000D01*
X4560000Y-2935000D02*
X4590000Y-2965000D01*
X4590000Y-2935000D02*
X4560000Y-2965000D01*
X4550000Y-3545000D02*
G75*
G02*
X4500000Y-3545000I-25000J0D01*
G01*
X4500000Y-3545000D02*
G75*
G02*
X4550000Y-3545000I25000J0D01*
G01*
X4490000Y-3570000D02*
X4560000Y-3570000D01*
X4560000Y-3520000D02*
G75*
G02*
X4560000Y-3570000I0J-25000D01*
G01*
X4560000Y-3520000D02*
X4490000Y-3520000D01*
X4490000Y-3520000D02*
G75*
G03*
X4490000Y-3570000I0J-25000D01*
G01*
X4550000Y-4205000D02*
G75*
G02*
X4500000Y-4205000I-25000J0D01*
G01*
X4500000Y-4205000D02*
G75*
G02*
X4550000Y-4205000I25000J0D01*
G01*
X4490000Y-4230000D02*
X4560000Y-4230000D01*
X4560000Y-4180000D02*
G75*
G02*
X4560000Y-4230000I0J-25000D01*
G01*
X4560000Y-4180000D02*
X4490000Y-4180000D01*
X4490000Y-4180000D02*
G75*
G03*
X4490000Y-4230000I0J-25000D01*
G01*
X3475000Y-6845000D02*
X3475000Y-6905000D01*
X3445000Y-6875000D02*
X3505000Y-6875000D01*
X4500000Y-6495000D02*
X4500000Y-6555000D01*
X4470000Y-6525000D02*
X4530000Y-6525000D01*
X2396213Y-1636213D02*
X2396213Y-1593787D01*
X2353787Y-1593787D01*
X2353787Y-1636213D01*
X2396213Y-1636213D01*
X2345000Y-1560000D02*
X2345000Y-1670000D01*
X2405000Y-1670000D02*
G75*
G02*
X2345000Y-1670000I-30000J0D01*
G01*
X2405000Y-1670000D02*
X2405000Y-1560000D01*
X2405000Y-1560000D02*
G75*
G03*
X2345000Y-1560000I-30000J0D01*
G01*
X3221213Y-6896213D02*
X3221213Y-6853787D01*
X3178787Y-6853787D01*
X3178787Y-6896213D01*
X3221213Y-6896213D01*
X3230000Y-6930000D02*
X3230000Y-6820000D01*
X3170000Y-6820000D02*
G75*
G02*
X3230000Y-6820000I30000J0D01*
G01*
X3170000Y-6820000D02*
X3170000Y-6930000D01*
X3170000Y-6930000D02*
G75*
G03*
X3230000Y-6930000I30000J0D01*
G01*
X3746213Y-1636213D02*
X3746213Y-1593787D01*
X3703787Y-1593787D01*
X3703787Y-1636213D01*
X3746213Y-1636213D01*
X3695000Y-1560000D02*
X3695000Y-1670000D01*
X3755000Y-1670000D02*
G75*
G02*
X3695000Y-1670000I-30000J0D01*
G01*
X3755000Y-1670000D02*
X3755000Y-1560000D01*
X3755000Y-1560000D02*
G75*
G03*
X3695000Y-1560000I-30000J0D01*
G01*
X4571213Y-6896213D02*
X4571213Y-6853787D01*
X4528787Y-6853787D01*
X4528787Y-6896213D01*
X4571213Y-6896213D01*
X4580000Y-6930000D02*
X4580000Y-6820000D01*
X4520000Y-6820000D02*
G75*
G02*
X4580000Y-6820000I30000J0D01*
G01*
X4520000Y-6820000D02*
X4520000Y-6930000D01*
X4520000Y-6930000D02*
G75*
G03*
X4580000Y-6930000I30000J0D01*
G01*
X1788000Y-6538000D02*
X1826000Y-6500000D01*
X1788000Y-6462000D01*
X1750000Y-6500000D01*
X1788000Y-6538000D01*
X1915000Y-6284000D02*
X1953000Y-6246000D01*
X1915000Y-6208000D01*
X1877000Y-6246000D01*
X1915000Y-6284000D01*
X2042000Y-6538000D02*
X2080000Y-6500000D01*
X2042000Y-6462000D01*
X2004000Y-6500000D01*
X2042000Y-6538000D01*
X2169000Y-6284000D02*
X2207000Y-6246000D01*
X2169000Y-6208000D01*
X2131000Y-6246000D01*
X2169000Y-6284000D01*
X2296000Y-6538000D02*
X2334000Y-6500000D01*
X2296000Y-6462000D01*
X2258000Y-6500000D01*
X2296000Y-6538000D01*
X2423000Y-6284000D02*
X2461000Y-6246000D01*
X2423000Y-6208000D01*
X2385000Y-6246000D01*
X2423000Y-6284000D01*
X2550000Y-6538000D02*
X2588000Y-6500000D01*
X2550000Y-6462000D01*
X2512000Y-6500000D01*
X2550000Y-6538000D01*
X2677000Y-6284000D02*
X2715000Y-6246000D01*
X2677000Y-6208000D01*
X2639000Y-6246000D01*
X2677000Y-6284000D01*
X4450000Y-4425000D02*
X4550000Y-4525000D01*
X4550000Y-4425000D02*
X4450000Y-4525000D01*
X4550000Y-4475000D02*
G75*
G02*
X4450000Y-4475000I-50000J0D01*
G01*
X4450000Y-4475000D02*
G75*
G02*
X4550000Y-4475000I50000J0D01*
G01*
X4450000Y-4679000D02*
X4550000Y-4779000D01*
X4550000Y-4679000D02*
X4450000Y-4779000D01*
X4550000Y-4729000D02*
G75*
G02*
X4450000Y-4729000I-50000J0D01*
G01*
X4450000Y-4729000D02*
G75*
G02*
X4550000Y-4729000I50000J0D01*
G01*
X4450000Y-4933000D02*
X4550000Y-5033000D01*
X4550000Y-4933000D02*
X4450000Y-5033000D01*
X4550000Y-4983000D02*
G75*
G02*
X4450000Y-4983000I-50000J0D01*
G01*
X4450000Y-4983000D02*
G75*
G02*
X4550000Y-4983000I50000J0D01*
G01*
D13*
X4239495Y-5737883D02*
X4359495Y-5857883D01*
X4359495Y-5737883D02*
X4239495Y-5857883D01*
X4299495Y-5737883D02*
X4299495Y-5857883D01*
X4239495Y-5797883D02*
X4359495Y-5797883D01*
X4410505Y-5268037D02*
X4530505Y-5388037D01*
X4530505Y-5268037D02*
X4410505Y-5388037D01*
X4470505Y-5268037D02*
X4470505Y-5388037D01*
X4410505Y-5328037D02*
X4530505Y-5328037D01*
D14*
X2555000Y-2080000D02*
X2825000Y-2350000D01*
X2825000Y-2080000D02*
X2555000Y-2350000D01*
X2785460Y-2310460D02*
X2785460Y-2119540D01*
X2594540Y-2119540D01*
X2594540Y-2310460D01*
X2785460Y-2310460D01*
X3275000Y-2080000D02*
X3545000Y-2350000D01*
X3545000Y-2080000D02*
X3275000Y-2350000D01*
X3505460Y-2310460D02*
X3505460Y-2119540D01*
X3314540Y-2119540D01*
X3314540Y-2310460D01*
X3505460Y-2310460D01*
X3380000Y-6140000D02*
X3650000Y-6410000D01*
X3650000Y-6140000D02*
X3380000Y-6410000D01*
X3610460Y-6370460D02*
X3610460Y-6179540D01*
X3419540Y-6179540D01*
X3419540Y-6370460D01*
X3610460Y-6370460D01*
X4100000Y-6140000D02*
X4370000Y-6410000D01*
X4370000Y-6140000D02*
X4100000Y-6410000D01*
X4330460Y-6370460D02*
X4330460Y-6179540D01*
X4139540Y-6179540D01*
X4139540Y-6370460D01*
X4330460Y-6370460D01*
D15*
X1640000Y-1665000D02*
X1960000Y-1985000D01*
X1960000Y-1665000D02*
X1640000Y-1985000D01*
X1800000Y-1985000D02*
X1960000Y-1825000D01*
X1800000Y-1665000D01*
X1640000Y-1825000D01*
X1800000Y-1985000D01*
X4140000Y-1665000D02*
X4460000Y-1985000D01*
X4460000Y-1665000D02*
X4140000Y-1985000D01*
X4300000Y-1985000D02*
X4460000Y-1825000D01*
X4300000Y-1665000D01*
X4140000Y-1825000D01*
X4300000Y-1985000D01*
D11*
X1683277Y-7688984D02*
X1683277Y-7488984D01*
X1683277Y-7488984D02*
X1730896Y-7488984D01*
X1730896Y-7488984D02*
X1759467Y-7498508D01*
X1759467Y-7498508D02*
X1778515Y-7517555D01*
X1778515Y-7517555D02*
X1788039Y-7536603D01*
X1788039Y-7536603D02*
X1797562Y-7574698D01*
X1797562Y-7574698D02*
X1797562Y-7603269D01*
X1797562Y-7603269D02*
X1788039Y-7641365D01*
X1788039Y-7641365D02*
X1778515Y-7660412D01*
X1778515Y-7660412D02*
X1759467Y-7679460D01*
X1759467Y-7679460D02*
X1730896Y-7688984D01*
X1730896Y-7688984D02*
X1683277Y-7688984D01*
X1883277Y-7688984D02*
X1883277Y-7555650D01*
X1883277Y-7593746D02*
X1892801Y-7574698D01*
X1892801Y-7574698D02*
X1902324Y-7565174D01*
X1902324Y-7565174D02*
X1921372Y-7555650D01*
X1921372Y-7555650D02*
X1940420Y-7555650D01*
X2007086Y-7688984D02*
X2007086Y-7555650D01*
X2007086Y-7488984D02*
X1997562Y-7498508D01*
X1997562Y-7498508D02*
X2007086Y-7508031D01*
X2007086Y-7508031D02*
X2016610Y-7498508D01*
X2016610Y-7498508D02*
X2007086Y-7488984D01*
X2007086Y-7488984D02*
X2007086Y-7508031D01*
X2130896Y-7688984D02*
X2111848Y-7679460D01*
X2111848Y-7679460D02*
X2102324Y-7660412D01*
X2102324Y-7660412D02*
X2102324Y-7488984D01*
X2235658Y-7688984D02*
X2216610Y-7679460D01*
X2216610Y-7679460D02*
X2207086Y-7660412D01*
X2207086Y-7660412D02*
X2207086Y-7488984D01*
X2464229Y-7688984D02*
X2464229Y-7488984D01*
X2464229Y-7488984D02*
X2530896Y-7631841D01*
X2530896Y-7631841D02*
X2597563Y-7488984D01*
X2597563Y-7488984D02*
X2597563Y-7688984D01*
X2778515Y-7688984D02*
X2778515Y-7584222D01*
X2778515Y-7584222D02*
X2768991Y-7565174D01*
X2768991Y-7565174D02*
X2749944Y-7555650D01*
X2749944Y-7555650D02*
X2711848Y-7555650D01*
X2711848Y-7555650D02*
X2692801Y-7565174D01*
X2778515Y-7679460D02*
X2759467Y-7688984D01*
X2759467Y-7688984D02*
X2711848Y-7688984D01*
X2711848Y-7688984D02*
X2692801Y-7679460D01*
X2692801Y-7679460D02*
X2683277Y-7660412D01*
X2683277Y-7660412D02*
X2683277Y-7641365D01*
X2683277Y-7641365D02*
X2692801Y-7622317D01*
X2692801Y-7622317D02*
X2711848Y-7612793D01*
X2711848Y-7612793D02*
X2759467Y-7612793D01*
X2759467Y-7612793D02*
X2778515Y-7603269D01*
X2873753Y-7555650D02*
X2873753Y-7755650D01*
X2873753Y-7565174D02*
X2892801Y-7555650D01*
X2892801Y-7555650D02*
X2930896Y-7555650D01*
X2930896Y-7555650D02*
X2949943Y-7565174D01*
X2949943Y-7565174D02*
X2959467Y-7574698D01*
X2959467Y-7574698D02*
X2968991Y-7593746D01*
X2968991Y-7593746D02*
X2968991Y-7650888D01*
X2968991Y-7650888D02*
X2959467Y-7669936D01*
X2959467Y-7669936D02*
X2949943Y-7679460D01*
X2949943Y-7679460D02*
X2930896Y-7688984D01*
X2930896Y-7688984D02*
X2892801Y-7688984D01*
X2892801Y-7688984D02*
X2873753Y-7679460D01*
X3054705Y-7669936D02*
X3064229Y-7679460D01*
X3064229Y-7679460D02*
X3054705Y-7688984D01*
X3054705Y-7688984D02*
X3045182Y-7679460D01*
X3045182Y-7679460D02*
X3054705Y-7669936D01*
X3054705Y-7669936D02*
X3054705Y-7688984D01*
X3054705Y-7565174D02*
X3064229Y-7574698D01*
X3064229Y-7574698D02*
X3054705Y-7584222D01*
X3054705Y-7584222D02*
X3045182Y-7574698D01*
X3045182Y-7574698D02*
X3054705Y-7565174D01*
X3054705Y-7565174D02*
X3054705Y-7584222D01*
D12*
X1392500Y-8002500D02*
X1422500Y-8032500D01*
X1422500Y-8002500D02*
X1392500Y-8032500D01*
D11*
X1721372Y-7908984D02*
X1740420Y-7908984D01*
X1740420Y-7908984D02*
X1759467Y-7918508D01*
X1759467Y-7918508D02*
X1768991Y-7928031D01*
X1768991Y-7928031D02*
X1778515Y-7947079D01*
X1778515Y-7947079D02*
X1788039Y-7985174D01*
X1788039Y-7985174D02*
X1788039Y-8032793D01*
X1788039Y-8032793D02*
X1778515Y-8070888D01*
X1778515Y-8070888D02*
X1768991Y-8089936D01*
X1768991Y-8089936D02*
X1759467Y-8099460D01*
X1759467Y-8099460D02*
X1740420Y-8108984D01*
X1740420Y-8108984D02*
X1721372Y-8108984D01*
X1721372Y-8108984D02*
X1702324Y-8099460D01*
X1702324Y-8099460D02*
X1692801Y-8089936D01*
X1692801Y-8089936D02*
X1683277Y-8070888D01*
X1683277Y-8070888D02*
X1673753Y-8032793D01*
X1673753Y-8032793D02*
X1673753Y-7985174D01*
X1673753Y-7985174D02*
X1683277Y-7947079D01*
X1683277Y-7947079D02*
X1692801Y-7928031D01*
X1692801Y-7928031D02*
X1702324Y-7918508D01*
X1702324Y-7918508D02*
X1721372Y-7908984D01*
X1873753Y-8089936D02*
X1883277Y-8099460D01*
X1883277Y-8099460D02*
X1873753Y-8108984D01*
X1873753Y-8108984D02*
X1864229Y-8099460D01*
X1864229Y-8099460D02*
X1873753Y-8089936D01*
X1873753Y-8089936D02*
X1873753Y-8108984D01*
X1949943Y-7908984D02*
X2073753Y-7908984D01*
X2073753Y-7908984D02*
X2007086Y-7985174D01*
X2007086Y-7985174D02*
X2035658Y-7985174D01*
X2035658Y-7985174D02*
X2054705Y-7994698D01*
X2054705Y-7994698D02*
X2064229Y-8004222D01*
X2064229Y-8004222D02*
X2073753Y-8023269D01*
X2073753Y-8023269D02*
X2073753Y-8070888D01*
X2073753Y-8070888D02*
X2064229Y-8089936D01*
X2064229Y-8089936D02*
X2054705Y-8099460D01*
X2054705Y-8099460D02*
X2035658Y-8108984D01*
X2035658Y-8108984D02*
X1978515Y-8108984D01*
X1978515Y-8108984D02*
X1959467Y-8099460D01*
X1959467Y-8099460D02*
X1949943Y-8089936D01*
X2197563Y-7908984D02*
X2216610Y-7908984D01*
X2216610Y-7908984D02*
X2235658Y-7918508D01*
X2235658Y-7918508D02*
X2245182Y-7928031D01*
X2245182Y-7928031D02*
X2254705Y-7947079D01*
X2254705Y-7947079D02*
X2264229Y-7985174D01*
X2264229Y-7985174D02*
X2264229Y-8032793D01*
X2264229Y-8032793D02*
X2254705Y-8070888D01*
X2254705Y-8070888D02*
X2245182Y-8089936D01*
X2245182Y-8089936D02*
X2235658Y-8099460D01*
X2235658Y-8099460D02*
X2216610Y-8108984D01*
X2216610Y-8108984D02*
X2197563Y-8108984D01*
X2197563Y-8108984D02*
X2178515Y-8099460D01*
X2178515Y-8099460D02*
X2168991Y-8089936D01*
X2168991Y-8089936D02*
X2159467Y-8070888D01*
X2159467Y-8070888D02*
X2149944Y-8032793D01*
X2149944Y-8032793D02*
X2149944Y-7985174D01*
X2149944Y-7985174D02*
X2159467Y-7947079D01*
X2159467Y-7947079D02*
X2168991Y-7928031D01*
X2168991Y-7928031D02*
X2178515Y-7918508D01*
X2178515Y-7918508D02*
X2197563Y-7908984D01*
X2388039Y-7908984D02*
X2407086Y-7908984D01*
X2407086Y-7908984D02*
X2426134Y-7918508D01*
X2426134Y-7918508D02*
X2435658Y-7928031D01*
X2435658Y-7928031D02*
X2445182Y-7947079D01*
X2445182Y-7947079D02*
X2454705Y-7985174D01*
X2454705Y-7985174D02*
X2454705Y-8032793D01*
X2454705Y-8032793D02*
X2445182Y-8070888D01*
X2445182Y-8070888D02*
X2435658Y-8089936D01*
X2435658Y-8089936D02*
X2426134Y-8099460D01*
X2426134Y-8099460D02*
X2407086Y-8108984D01*
X2407086Y-8108984D02*
X2388039Y-8108984D01*
X2388039Y-8108984D02*
X2368991Y-8099460D01*
X2368991Y-8099460D02*
X2359467Y-8089936D01*
X2359467Y-8089936D02*
X2349944Y-8070888D01*
X2349944Y-8070888D02*
X2340420Y-8032793D01*
X2340420Y-8032793D02*
X2340420Y-7985174D01*
X2340420Y-7985174D02*
X2349944Y-7947079D01*
X2349944Y-7947079D02*
X2359467Y-7928031D01*
X2359467Y-7928031D02*
X2368991Y-7918508D01*
X2368991Y-7918508D02*
X2388039Y-7908984D01*
X2540420Y-8108984D02*
X2540420Y-7975650D01*
X2540420Y-7994698D02*
X2549944Y-7985174D01*
X2549944Y-7985174D02*
X2568991Y-7975650D01*
X2568991Y-7975650D02*
X2597563Y-7975650D01*
X2597563Y-7975650D02*
X2616610Y-7985174D01*
X2616610Y-7985174D02*
X2626134Y-8004222D01*
X2626134Y-8004222D02*
X2626134Y-8108984D01*
X2626134Y-8004222D02*
X2635658Y-7985174D01*
X2635658Y-7985174D02*
X2654705Y-7975650D01*
X2654705Y-7975650D02*
X2683277Y-7975650D01*
X2683277Y-7975650D02*
X2702325Y-7985174D01*
X2702325Y-7985174D02*
X2711848Y-8004222D01*
X2711848Y-8004222D02*
X2711848Y-8108984D01*
X2807086Y-8108984D02*
X2807086Y-7975650D01*
X2807086Y-7994698D02*
X2816610Y-7985174D01*
X2816610Y-7985174D02*
X2835658Y-7975650D01*
X2835658Y-7975650D02*
X2864229Y-7975650D01*
X2864229Y-7975650D02*
X2883277Y-7985174D01*
X2883277Y-7985174D02*
X2892801Y-8004222D01*
X2892801Y-8004222D02*
X2892801Y-8108984D01*
X2892801Y-8004222D02*
X2902324Y-7985174D01*
X2902324Y-7985174D02*
X2921372Y-7975650D01*
X2921372Y-7975650D02*
X2949943Y-7975650D01*
X2949943Y-7975650D02*
X2968991Y-7985174D01*
X2968991Y-7985174D02*
X2978515Y-8004222D01*
X2978515Y-8004222D02*
X2978515Y-8108984D01*
X3368991Y-7899460D02*
X3197563Y-8156603D01*
X3626134Y-7908984D02*
X3645182Y-7908984D01*
X3645182Y-7908984D02*
X3664229Y-7918508D01*
X3664229Y-7918508D02*
X3673753Y-7928031D01*
X3673753Y-7928031D02*
X3683277Y-7947079D01*
X3683277Y-7947079D02*
X3692801Y-7985174D01*
X3692801Y-7985174D02*
X3692801Y-8032793D01*
X3692801Y-8032793D02*
X3683277Y-8070888D01*
X3683277Y-8070888D02*
X3673753Y-8089936D01*
X3673753Y-8089936D02*
X3664229Y-8099460D01*
X3664229Y-8099460D02*
X3645182Y-8108984D01*
X3645182Y-8108984D02*
X3626134Y-8108984D01*
X3626134Y-8108984D02*
X3607086Y-8099460D01*
X3607086Y-8099460D02*
X3597563Y-8089936D01*
X3597563Y-8089936D02*
X3588039Y-8070888D01*
X3588039Y-8070888D02*
X3578515Y-8032793D01*
X3578515Y-8032793D02*
X3578515Y-7985174D01*
X3578515Y-7985174D02*
X3588039Y-7947079D01*
X3588039Y-7947079D02*
X3597563Y-7928031D01*
X3597563Y-7928031D02*
X3607086Y-7918508D01*
X3607086Y-7918508D02*
X3626134Y-7908984D01*
X3778515Y-8089936D02*
X3788039Y-8099460D01*
X3788039Y-8099460D02*
X3778515Y-8108984D01*
X3778515Y-8108984D02*
X3768991Y-8099460D01*
X3768991Y-8099460D02*
X3778515Y-8089936D01*
X3778515Y-8089936D02*
X3778515Y-8108984D01*
X3911848Y-7908984D02*
X3930896Y-7908984D01*
X3930896Y-7908984D02*
X3949944Y-7918508D01*
X3949944Y-7918508D02*
X3959467Y-7928031D01*
X3959467Y-7928031D02*
X3968991Y-7947079D01*
X3968991Y-7947079D02*
X3978515Y-7985174D01*
X3978515Y-7985174D02*
X3978515Y-8032793D01*
X3978515Y-8032793D02*
X3968991Y-8070888D01*
X3968991Y-8070888D02*
X3959467Y-8089936D01*
X3959467Y-8089936D02*
X3949944Y-8099460D01*
X3949944Y-8099460D02*
X3930896Y-8108984D01*
X3930896Y-8108984D02*
X3911848Y-8108984D01*
X3911848Y-8108984D02*
X3892801Y-8099460D01*
X3892801Y-8099460D02*
X3883277Y-8089936D01*
X3883277Y-8089936D02*
X3873753Y-8070888D01*
X3873753Y-8070888D02*
X3864229Y-8032793D01*
X3864229Y-8032793D02*
X3864229Y-7985174D01*
X3864229Y-7985174D02*
X3873753Y-7947079D01*
X3873753Y-7947079D02*
X3883277Y-7928031D01*
X3883277Y-7928031D02*
X3892801Y-7918508D01*
X3892801Y-7918508D02*
X3911848Y-7908984D01*
X4168991Y-8108984D02*
X4054706Y-8108984D01*
X4111848Y-8108984D02*
X4111848Y-7908984D01*
X4111848Y-7908984D02*
X4092801Y-7937555D01*
X4092801Y-7937555D02*
X4073753Y-7956603D01*
X4073753Y-7956603D02*
X4054706Y-7966127D01*
X4359468Y-8108984D02*
X4245182Y-8108984D01*
X4302325Y-8108984D02*
X4302325Y-7908984D01*
X4302325Y-7908984D02*
X4283277Y-7937555D01*
X4283277Y-7937555D02*
X4264229Y-7956603D01*
X4264229Y-7956603D02*
X4245182Y-7966127D01*
X4473753Y-7994698D02*
X4454706Y-7985174D01*
X4454706Y-7985174D02*
X4445182Y-7975650D01*
X4445182Y-7975650D02*
X4435658Y-7956603D01*
X4435658Y-7956603D02*
X4435658Y-7947079D01*
X4435658Y-7947079D02*
X4445182Y-7928031D01*
X4445182Y-7928031D02*
X4454706Y-7918508D01*
X4454706Y-7918508D02*
X4473753Y-7908984D01*
X4473753Y-7908984D02*
X4511849Y-7908984D01*
X4511849Y-7908984D02*
X4530896Y-7918508D01*
X4530896Y-7918508D02*
X4540420Y-7928031D01*
X4540420Y-7928031D02*
X4549944Y-7947079D01*
X4549944Y-7947079D02*
X4549944Y-7956603D01*
X4549944Y-7956603D02*
X4540420Y-7975650D01*
X4540420Y-7975650D02*
X4530896Y-7985174D01*
X4530896Y-7985174D02*
X4511849Y-7994698D01*
X4511849Y-7994698D02*
X4473753Y-7994698D01*
X4473753Y-7994698D02*
X4454706Y-8004222D01*
X4454706Y-8004222D02*
X4445182Y-8013746D01*
X4445182Y-8013746D02*
X4435658Y-8032793D01*
X4435658Y-8032793D02*
X4435658Y-8070888D01*
X4435658Y-8070888D02*
X4445182Y-8089936D01*
X4445182Y-8089936D02*
X4454706Y-8099460D01*
X4454706Y-8099460D02*
X4473753Y-8108984D01*
X4473753Y-8108984D02*
X4511849Y-8108984D01*
X4511849Y-8108984D02*
X4530896Y-8099460D01*
X4530896Y-8099460D02*
X4540420Y-8089936D01*
X4540420Y-8089936D02*
X4549944Y-8070888D01*
X4549944Y-8070888D02*
X4549944Y-8032793D01*
X4549944Y-8032793D02*
X4540420Y-8013746D01*
X4540420Y-8013746D02*
X4530896Y-8004222D01*
X4530896Y-8004222D02*
X4511849Y-7994698D01*
X4626134Y-7908984D02*
X4626134Y-7947079D01*
X4702325Y-7908984D02*
X4702325Y-7947079D01*
X4997563Y-8185174D02*
X4988039Y-8175650D01*
X4988039Y-8175650D02*
X4968991Y-8147079D01*
X4968991Y-8147079D02*
X4959468Y-8128031D01*
X4959468Y-8128031D02*
X4949944Y-8099460D01*
X4949944Y-8099460D02*
X4940420Y-8051841D01*
X4940420Y-8051841D02*
X4940420Y-8013746D01*
X4940420Y-8013746D02*
X4949944Y-7966127D01*
X4949944Y-7966127D02*
X4959468Y-7937555D01*
X4959468Y-7937555D02*
X4968991Y-7918508D01*
X4968991Y-7918508D02*
X4988039Y-7889936D01*
X4988039Y-7889936D02*
X4997563Y-7880412D01*
X5054706Y-7908984D02*
X5188039Y-7908984D01*
X5188039Y-7908984D02*
X5102325Y-8108984D01*
X5273753Y-8108984D02*
X5311849Y-8108984D01*
X5311849Y-8108984D02*
X5330896Y-8099460D01*
X5330896Y-8099460D02*
X5340420Y-8089936D01*
X5340420Y-8089936D02*
X5359468Y-8061365D01*
X5359468Y-8061365D02*
X5368991Y-8023269D01*
X5368991Y-8023269D02*
X5368991Y-7947079D01*
X5368991Y-7947079D02*
X5359468Y-7928031D01*
X5359468Y-7928031D02*
X5349944Y-7918508D01*
X5349944Y-7918508D02*
X5330896Y-7908984D01*
X5330896Y-7908984D02*
X5292801Y-7908984D01*
X5292801Y-7908984D02*
X5273753Y-7918508D01*
X5273753Y-7918508D02*
X5264230Y-7928031D01*
X5264230Y-7928031D02*
X5254706Y-7947079D01*
X5254706Y-7947079D02*
X5254706Y-7994698D01*
X5254706Y-7994698D02*
X5264230Y-8013746D01*
X5264230Y-8013746D02*
X5273753Y-8023269D01*
X5273753Y-8023269D02*
X5292801Y-8032793D01*
X5292801Y-8032793D02*
X5330896Y-8032793D01*
X5330896Y-8032793D02*
X5349944Y-8023269D01*
X5349944Y-8023269D02*
X5359468Y-8013746D01*
X5359468Y-8013746D02*
X5368991Y-7994698D01*
X5607087Y-8108984D02*
X5607087Y-7908984D01*
X5692801Y-8108984D02*
X5692801Y-8004222D01*
X5692801Y-8004222D02*
X5683277Y-7985174D01*
X5683277Y-7985174D02*
X5664230Y-7975650D01*
X5664230Y-7975650D02*
X5635658Y-7975650D01*
X5635658Y-7975650D02*
X5616610Y-7985174D01*
X5616610Y-7985174D02*
X5607087Y-7994698D01*
X5816610Y-8108984D02*
X5797563Y-8099460D01*
X5797563Y-8099460D02*
X5788039Y-8089936D01*
X5788039Y-8089936D02*
X5778515Y-8070888D01*
X5778515Y-8070888D02*
X5778515Y-8013746D01*
X5778515Y-8013746D02*
X5788039Y-7994698D01*
X5788039Y-7994698D02*
X5797563Y-7985174D01*
X5797563Y-7985174D02*
X5816610Y-7975650D01*
X5816610Y-7975650D02*
X5845182Y-7975650D01*
X5845182Y-7975650D02*
X5864230Y-7985174D01*
X5864230Y-7985174D02*
X5873753Y-7994698D01*
X5873753Y-7994698D02*
X5883277Y-8013746D01*
X5883277Y-8013746D02*
X5883277Y-8070888D01*
X5883277Y-8070888D02*
X5873753Y-8089936D01*
X5873753Y-8089936D02*
X5864230Y-8099460D01*
X5864230Y-8099460D02*
X5845182Y-8108984D01*
X5845182Y-8108984D02*
X5816610Y-8108984D01*
X5997563Y-8108984D02*
X5978515Y-8099460D01*
X5978515Y-8099460D02*
X5968991Y-8080412D01*
X5968991Y-8080412D02*
X5968991Y-7908984D01*
X6149944Y-8099460D02*
X6130896Y-8108984D01*
X6130896Y-8108984D02*
X6092801Y-8108984D01*
X6092801Y-8108984D02*
X6073753Y-8099460D01*
X6073753Y-8099460D02*
X6064230Y-8080412D01*
X6064230Y-8080412D02*
X6064230Y-8004222D01*
X6064230Y-8004222D02*
X6073753Y-7985174D01*
X6073753Y-7985174D02*
X6092801Y-7975650D01*
X6092801Y-7975650D02*
X6130896Y-7975650D01*
X6130896Y-7975650D02*
X6149944Y-7985174D01*
X6149944Y-7985174D02*
X6159468Y-8004222D01*
X6159468Y-8004222D02*
X6159468Y-8023269D01*
X6159468Y-8023269D02*
X6064230Y-8042317D01*
X6235658Y-8099460D02*
X6254706Y-8108984D01*
X6254706Y-8108984D02*
X6292801Y-8108984D01*
X6292801Y-8108984D02*
X6311849Y-8099460D01*
X6311849Y-8099460D02*
X6321372Y-8080412D01*
X6321372Y-8080412D02*
X6321372Y-8070888D01*
X6321372Y-8070888D02*
X6311849Y-8051841D01*
X6311849Y-8051841D02*
X6292801Y-8042317D01*
X6292801Y-8042317D02*
X6264230Y-8042317D01*
X6264230Y-8042317D02*
X6245182Y-8032793D01*
X6245182Y-8032793D02*
X6235658Y-8013746D01*
X6235658Y-8013746D02*
X6235658Y-8004222D01*
X6235658Y-8004222D02*
X6245182Y-7985174D01*
X6245182Y-7985174D02*
X6264230Y-7975650D01*
X6264230Y-7975650D02*
X6292801Y-7975650D01*
X6292801Y-7975650D02*
X6311849Y-7985174D01*
X6388039Y-8185174D02*
X6397563Y-8175650D01*
X6397563Y-8175650D02*
X6416611Y-8147079D01*
X6416611Y-8147079D02*
X6426134Y-8128031D01*
X6426134Y-8128031D02*
X6435658Y-8099460D01*
X6435658Y-8099460D02*
X6445182Y-8051841D01*
X6445182Y-8051841D02*
X6445182Y-8013746D01*
X6445182Y-8013746D02*
X6435658Y-7966127D01*
X6435658Y-7966127D02*
X6426134Y-7937555D01*
X6426134Y-7937555D02*
X6416611Y-7918508D01*
X6416611Y-7918508D02*
X6397563Y-7889936D01*
X6397563Y-7889936D02*
X6388039Y-7880412D01*
D12*
X1422500Y-8281500D02*
G75*
G02*
X1372500Y-8281500I-25000J0D01*
G01*
X1372500Y-8281500D02*
G75*
G02*
X1422500Y-8281500I25000J0D01*
G01*
D11*
X1721372Y-8172984D02*
X1740420Y-8172984D01*
X1740420Y-8172984D02*
X1759467Y-8182508D01*
X1759467Y-8182508D02*
X1768991Y-8192031D01*
X1768991Y-8192031D02*
X1778515Y-8211079D01*
X1778515Y-8211079D02*
X1788039Y-8249174D01*
X1788039Y-8249174D02*
X1788039Y-8296793D01*
X1788039Y-8296793D02*
X1778515Y-8334888D01*
X1778515Y-8334888D02*
X1768991Y-8353936D01*
X1768991Y-8353936D02*
X1759467Y-8363460D01*
X1759467Y-8363460D02*
X1740420Y-8372984D01*
X1740420Y-8372984D02*
X1721372Y-8372984D01*
X1721372Y-8372984D02*
X1702324Y-8363460D01*
X1702324Y-8363460D02*
X1692801Y-8353936D01*
X1692801Y-8353936D02*
X1683277Y-8334888D01*
X1683277Y-8334888D02*
X1673753Y-8296793D01*
X1673753Y-8296793D02*
X1673753Y-8249174D01*
X1673753Y-8249174D02*
X1683277Y-8211079D01*
X1683277Y-8211079D02*
X1692801Y-8192031D01*
X1692801Y-8192031D02*
X1702324Y-8182508D01*
X1702324Y-8182508D02*
X1721372Y-8172984D01*
X1873753Y-8353936D02*
X1883277Y-8363460D01*
X1883277Y-8363460D02*
X1873753Y-8372984D01*
X1873753Y-8372984D02*
X1864229Y-8363460D01*
X1864229Y-8363460D02*
X1873753Y-8353936D01*
X1873753Y-8353936D02*
X1873753Y-8372984D01*
X2064229Y-8172984D02*
X1968991Y-8172984D01*
X1968991Y-8172984D02*
X1959467Y-8268222D01*
X1959467Y-8268222D02*
X1968991Y-8258698D01*
X1968991Y-8258698D02*
X1988039Y-8249174D01*
X1988039Y-8249174D02*
X2035658Y-8249174D01*
X2035658Y-8249174D02*
X2054705Y-8258698D01*
X2054705Y-8258698D02*
X2064229Y-8268222D01*
X2064229Y-8268222D02*
X2073753Y-8287269D01*
X2073753Y-8287269D02*
X2073753Y-8334888D01*
X2073753Y-8334888D02*
X2064229Y-8353936D01*
X2064229Y-8353936D02*
X2054705Y-8363460D01*
X2054705Y-8363460D02*
X2035658Y-8372984D01*
X2035658Y-8372984D02*
X1988039Y-8372984D01*
X1988039Y-8372984D02*
X1968991Y-8363460D01*
X1968991Y-8363460D02*
X1959467Y-8353936D01*
X2197563Y-8172984D02*
X2216610Y-8172984D01*
X2216610Y-8172984D02*
X2235658Y-8182508D01*
X2235658Y-8182508D02*
X2245182Y-8192031D01*
X2245182Y-8192031D02*
X2254705Y-8211079D01*
X2254705Y-8211079D02*
X2264229Y-8249174D01*
X2264229Y-8249174D02*
X2264229Y-8296793D01*
X2264229Y-8296793D02*
X2254705Y-8334888D01*
X2254705Y-8334888D02*
X2245182Y-8353936D01*
X2245182Y-8353936D02*
X2235658Y-8363460D01*
X2235658Y-8363460D02*
X2216610Y-8372984D01*
X2216610Y-8372984D02*
X2197563Y-8372984D01*
X2197563Y-8372984D02*
X2178515Y-8363460D01*
X2178515Y-8363460D02*
X2168991Y-8353936D01*
X2168991Y-8353936D02*
X2159467Y-8334888D01*
X2159467Y-8334888D02*
X2149944Y-8296793D01*
X2149944Y-8296793D02*
X2149944Y-8249174D01*
X2149944Y-8249174D02*
X2159467Y-8211079D01*
X2159467Y-8211079D02*
X2168991Y-8192031D01*
X2168991Y-8192031D02*
X2178515Y-8182508D01*
X2178515Y-8182508D02*
X2197563Y-8172984D01*
X2388039Y-8172984D02*
X2407086Y-8172984D01*
X2407086Y-8172984D02*
X2426134Y-8182508D01*
X2426134Y-8182508D02*
X2435658Y-8192031D01*
X2435658Y-8192031D02*
X2445182Y-8211079D01*
X2445182Y-8211079D02*
X2454705Y-8249174D01*
X2454705Y-8249174D02*
X2454705Y-8296793D01*
X2454705Y-8296793D02*
X2445182Y-8334888D01*
X2445182Y-8334888D02*
X2435658Y-8353936D01*
X2435658Y-8353936D02*
X2426134Y-8363460D01*
X2426134Y-8363460D02*
X2407086Y-8372984D01*
X2407086Y-8372984D02*
X2388039Y-8372984D01*
X2388039Y-8372984D02*
X2368991Y-8363460D01*
X2368991Y-8363460D02*
X2359467Y-8353936D01*
X2359467Y-8353936D02*
X2349944Y-8334888D01*
X2349944Y-8334888D02*
X2340420Y-8296793D01*
X2340420Y-8296793D02*
X2340420Y-8249174D01*
X2340420Y-8249174D02*
X2349944Y-8211079D01*
X2349944Y-8211079D02*
X2359467Y-8192031D01*
X2359467Y-8192031D02*
X2368991Y-8182508D01*
X2368991Y-8182508D02*
X2388039Y-8172984D01*
X2540420Y-8372984D02*
X2540420Y-8239650D01*
X2540420Y-8258698D02*
X2549944Y-8249174D01*
X2549944Y-8249174D02*
X2568991Y-8239650D01*
X2568991Y-8239650D02*
X2597563Y-8239650D01*
X2597563Y-8239650D02*
X2616610Y-8249174D01*
X2616610Y-8249174D02*
X2626134Y-8268222D01*
X2626134Y-8268222D02*
X2626134Y-8372984D01*
X2626134Y-8268222D02*
X2635658Y-8249174D01*
X2635658Y-8249174D02*
X2654705Y-8239650D01*
X2654705Y-8239650D02*
X2683277Y-8239650D01*
X2683277Y-8239650D02*
X2702325Y-8249174D01*
X2702325Y-8249174D02*
X2711848Y-8268222D01*
X2711848Y-8268222D02*
X2711848Y-8372984D01*
X2807086Y-8372984D02*
X2807086Y-8239650D01*
X2807086Y-8258698D02*
X2816610Y-8249174D01*
X2816610Y-8249174D02*
X2835658Y-8239650D01*
X2835658Y-8239650D02*
X2864229Y-8239650D01*
X2864229Y-8239650D02*
X2883277Y-8249174D01*
X2883277Y-8249174D02*
X2892801Y-8268222D01*
X2892801Y-8268222D02*
X2892801Y-8372984D01*
X2892801Y-8268222D02*
X2902324Y-8249174D01*
X2902324Y-8249174D02*
X2921372Y-8239650D01*
X2921372Y-8239650D02*
X2949943Y-8239650D01*
X2949943Y-8239650D02*
X2968991Y-8249174D01*
X2968991Y-8249174D02*
X2978515Y-8268222D01*
X2978515Y-8268222D02*
X2978515Y-8372984D01*
X3368991Y-8163460D02*
X3197563Y-8420603D01*
X3626134Y-8172984D02*
X3645182Y-8172984D01*
X3645182Y-8172984D02*
X3664229Y-8182508D01*
X3664229Y-8182508D02*
X3673753Y-8192031D01*
X3673753Y-8192031D02*
X3683277Y-8211079D01*
X3683277Y-8211079D02*
X3692801Y-8249174D01*
X3692801Y-8249174D02*
X3692801Y-8296793D01*
X3692801Y-8296793D02*
X3683277Y-8334888D01*
X3683277Y-8334888D02*
X3673753Y-8353936D01*
X3673753Y-8353936D02*
X3664229Y-8363460D01*
X3664229Y-8363460D02*
X3645182Y-8372984D01*
X3645182Y-8372984D02*
X3626134Y-8372984D01*
X3626134Y-8372984D02*
X3607086Y-8363460D01*
X3607086Y-8363460D02*
X3597563Y-8353936D01*
X3597563Y-8353936D02*
X3588039Y-8334888D01*
X3588039Y-8334888D02*
X3578515Y-8296793D01*
X3578515Y-8296793D02*
X3578515Y-8249174D01*
X3578515Y-8249174D02*
X3588039Y-8211079D01*
X3588039Y-8211079D02*
X3597563Y-8192031D01*
X3597563Y-8192031D02*
X3607086Y-8182508D01*
X3607086Y-8182508D02*
X3626134Y-8172984D01*
X3778515Y-8353936D02*
X3788039Y-8363460D01*
X3788039Y-8363460D02*
X3778515Y-8372984D01*
X3778515Y-8372984D02*
X3768991Y-8363460D01*
X3768991Y-8363460D02*
X3778515Y-8353936D01*
X3778515Y-8353936D02*
X3778515Y-8372984D01*
X3911848Y-8172984D02*
X3930896Y-8172984D01*
X3930896Y-8172984D02*
X3949944Y-8182508D01*
X3949944Y-8182508D02*
X3959467Y-8192031D01*
X3959467Y-8192031D02*
X3968991Y-8211079D01*
X3968991Y-8211079D02*
X3978515Y-8249174D01*
X3978515Y-8249174D02*
X3978515Y-8296793D01*
X3978515Y-8296793D02*
X3968991Y-8334888D01*
X3968991Y-8334888D02*
X3959467Y-8353936D01*
X3959467Y-8353936D02*
X3949944Y-8363460D01*
X3949944Y-8363460D02*
X3930896Y-8372984D01*
X3930896Y-8372984D02*
X3911848Y-8372984D01*
X3911848Y-8372984D02*
X3892801Y-8363460D01*
X3892801Y-8363460D02*
X3883277Y-8353936D01*
X3883277Y-8353936D02*
X3873753Y-8334888D01*
X3873753Y-8334888D02*
X3864229Y-8296793D01*
X3864229Y-8296793D02*
X3864229Y-8249174D01*
X3864229Y-8249174D02*
X3873753Y-8211079D01*
X3873753Y-8211079D02*
X3883277Y-8192031D01*
X3883277Y-8192031D02*
X3892801Y-8182508D01*
X3892801Y-8182508D02*
X3911848Y-8172984D01*
X4168991Y-8372984D02*
X4054706Y-8372984D01*
X4111848Y-8372984D02*
X4111848Y-8172984D01*
X4111848Y-8172984D02*
X4092801Y-8201555D01*
X4092801Y-8201555D02*
X4073753Y-8220603D01*
X4073753Y-8220603D02*
X4054706Y-8230127D01*
X4264229Y-8372984D02*
X4302325Y-8372984D01*
X4302325Y-8372984D02*
X4321372Y-8363460D01*
X4321372Y-8363460D02*
X4330896Y-8353936D01*
X4330896Y-8353936D02*
X4349944Y-8325365D01*
X4349944Y-8325365D02*
X4359468Y-8287269D01*
X4359468Y-8287269D02*
X4359468Y-8211079D01*
X4359468Y-8211079D02*
X4349944Y-8192031D01*
X4349944Y-8192031D02*
X4340420Y-8182508D01*
X4340420Y-8182508D02*
X4321372Y-8172984D01*
X4321372Y-8172984D02*
X4283277Y-8172984D01*
X4283277Y-8172984D02*
X4264229Y-8182508D01*
X4264229Y-8182508D02*
X4254706Y-8192031D01*
X4254706Y-8192031D02*
X4245182Y-8211079D01*
X4245182Y-8211079D02*
X4245182Y-8258698D01*
X4245182Y-8258698D02*
X4254706Y-8277746D01*
X4254706Y-8277746D02*
X4264229Y-8287269D01*
X4264229Y-8287269D02*
X4283277Y-8296793D01*
X4283277Y-8296793D02*
X4321372Y-8296793D01*
X4321372Y-8296793D02*
X4340420Y-8287269D01*
X4340420Y-8287269D02*
X4349944Y-8277746D01*
X4349944Y-8277746D02*
X4359468Y-8258698D01*
X4426134Y-8172984D02*
X4559468Y-8172984D01*
X4559468Y-8172984D02*
X4473753Y-8372984D01*
X4626134Y-8172984D02*
X4626134Y-8211079D01*
X4702325Y-8172984D02*
X4702325Y-8211079D01*
X4997563Y-8449174D02*
X4988039Y-8439650D01*
X4988039Y-8439650D02*
X4968991Y-8411079D01*
X4968991Y-8411079D02*
X4959468Y-8392031D01*
X4959468Y-8392031D02*
X4949944Y-8363460D01*
X4949944Y-8363460D02*
X4940420Y-8315841D01*
X4940420Y-8315841D02*
X4940420Y-8277746D01*
X4940420Y-8277746D02*
X4949944Y-8230127D01*
X4949944Y-8230127D02*
X4959468Y-8201555D01*
X4959468Y-8201555D02*
X4968991Y-8182508D01*
X4968991Y-8182508D02*
X4988039Y-8153936D01*
X4988039Y-8153936D02*
X4997563Y-8144412D01*
X5111849Y-8172984D02*
X5130896Y-8172984D01*
X5130896Y-8172984D02*
X5149944Y-8182508D01*
X5149944Y-8182508D02*
X5159468Y-8192031D01*
X5159468Y-8192031D02*
X5168991Y-8211079D01*
X5168991Y-8211079D02*
X5178515Y-8249174D01*
X5178515Y-8249174D02*
X5178515Y-8296793D01*
X5178515Y-8296793D02*
X5168991Y-8334888D01*
X5168991Y-8334888D02*
X5159468Y-8353936D01*
X5159468Y-8353936D02*
X5149944Y-8363460D01*
X5149944Y-8363460D02*
X5130896Y-8372984D01*
X5130896Y-8372984D02*
X5111849Y-8372984D01*
X5111849Y-8372984D02*
X5092801Y-8363460D01*
X5092801Y-8363460D02*
X5083277Y-8353936D01*
X5083277Y-8353936D02*
X5073753Y-8334888D01*
X5073753Y-8334888D02*
X5064230Y-8296793D01*
X5064230Y-8296793D02*
X5064230Y-8249174D01*
X5064230Y-8249174D02*
X5073753Y-8211079D01*
X5073753Y-8211079D02*
X5083277Y-8192031D01*
X5083277Y-8192031D02*
X5092801Y-8182508D01*
X5092801Y-8182508D02*
X5111849Y-8172984D01*
X5416611Y-8372984D02*
X5416611Y-8172984D01*
X5502325Y-8372984D02*
X5502325Y-8268222D01*
X5502325Y-8268222D02*
X5492801Y-8249174D01*
X5492801Y-8249174D02*
X5473753Y-8239650D01*
X5473753Y-8239650D02*
X5445182Y-8239650D01*
X5445182Y-8239650D02*
X5426134Y-8249174D01*
X5426134Y-8249174D02*
X5416611Y-8258698D01*
X5626134Y-8372984D02*
X5607087Y-8363460D01*
X5607087Y-8363460D02*
X5597563Y-8353936D01*
X5597563Y-8353936D02*
X5588039Y-8334888D01*
X5588039Y-8334888D02*
X5588039Y-8277746D01*
X5588039Y-8277746D02*
X5597563Y-8258698D01*
X5597563Y-8258698D02*
X5607087Y-8249174D01*
X5607087Y-8249174D02*
X5626134Y-8239650D01*
X5626134Y-8239650D02*
X5654706Y-8239650D01*
X5654706Y-8239650D02*
X5673753Y-8249174D01*
X5673753Y-8249174D02*
X5683277Y-8258698D01*
X5683277Y-8258698D02*
X5692801Y-8277746D01*
X5692801Y-8277746D02*
X5692801Y-8334888D01*
X5692801Y-8334888D02*
X5683277Y-8353936D01*
X5683277Y-8353936D02*
X5673753Y-8363460D01*
X5673753Y-8363460D02*
X5654706Y-8372984D01*
X5654706Y-8372984D02*
X5626134Y-8372984D01*
X5807087Y-8372984D02*
X5788039Y-8363460D01*
X5788039Y-8363460D02*
X5778515Y-8344412D01*
X5778515Y-8344412D02*
X5778515Y-8172984D01*
X5959468Y-8363460D02*
X5940420Y-8372984D01*
X5940420Y-8372984D02*
X5902325Y-8372984D01*
X5902325Y-8372984D02*
X5883277Y-8363460D01*
X5883277Y-8363460D02*
X5873753Y-8344412D01*
X5873753Y-8344412D02*
X5873753Y-8268222D01*
X5873753Y-8268222D02*
X5883277Y-8249174D01*
X5883277Y-8249174D02*
X5902325Y-8239650D01*
X5902325Y-8239650D02*
X5940420Y-8239650D01*
X5940420Y-8239650D02*
X5959468Y-8249174D01*
X5959468Y-8249174D02*
X5968991Y-8268222D01*
X5968991Y-8268222D02*
X5968991Y-8287269D01*
X5968991Y-8287269D02*
X5873753Y-8306317D01*
X6045182Y-8363460D02*
X6064230Y-8372984D01*
X6064230Y-8372984D02*
X6102325Y-8372984D01*
X6102325Y-8372984D02*
X6121372Y-8363460D01*
X6121372Y-8363460D02*
X6130896Y-8344412D01*
X6130896Y-8344412D02*
X6130896Y-8334888D01*
X6130896Y-8334888D02*
X6121372Y-8315841D01*
X6121372Y-8315841D02*
X6102325Y-8306317D01*
X6102325Y-8306317D02*
X6073753Y-8306317D01*
X6073753Y-8306317D02*
X6054706Y-8296793D01*
X6054706Y-8296793D02*
X6045182Y-8277746D01*
X6045182Y-8277746D02*
X6045182Y-8268222D01*
X6045182Y-8268222D02*
X6054706Y-8249174D01*
X6054706Y-8249174D02*
X6073753Y-8239650D01*
X6073753Y-8239650D02*
X6102325Y-8239650D01*
X6102325Y-8239650D02*
X6121372Y-8249174D01*
X6368992Y-8296793D02*
X6521373Y-8296793D01*
X6445182Y-8372984D02*
X6445182Y-8220603D01*
X6759468Y-8192031D02*
X6768992Y-8182508D01*
X6768992Y-8182508D02*
X6788039Y-8172984D01*
X6788039Y-8172984D02*
X6835658Y-8172984D01*
X6835658Y-8172984D02*
X6854706Y-8182508D01*
X6854706Y-8182508D02*
X6864230Y-8192031D01*
X6864230Y-8192031D02*
X6873753Y-8211079D01*
X6873753Y-8211079D02*
X6873753Y-8230127D01*
X6873753Y-8230127D02*
X6864230Y-8258698D01*
X6864230Y-8258698D02*
X6749944Y-8372984D01*
X6749944Y-8372984D02*
X6873753Y-8372984D01*
X7102325Y-8363460D02*
X7121373Y-8372984D01*
X7121373Y-8372984D02*
X7159468Y-8372984D01*
X7159468Y-8372984D02*
X7178515Y-8363460D01*
X7178515Y-8363460D02*
X7188039Y-8344412D01*
X7188039Y-8344412D02*
X7188039Y-8334888D01*
X7188039Y-8334888D02*
X7178515Y-8315841D01*
X7178515Y-8315841D02*
X7159468Y-8306317D01*
X7159468Y-8306317D02*
X7130896Y-8306317D01*
X7130896Y-8306317D02*
X7111849Y-8296793D01*
X7111849Y-8296793D02*
X7102325Y-8277746D01*
X7102325Y-8277746D02*
X7102325Y-8268222D01*
X7102325Y-8268222D02*
X7111849Y-8249174D01*
X7111849Y-8249174D02*
X7130896Y-8239650D01*
X7130896Y-8239650D02*
X7159468Y-8239650D01*
X7159468Y-8239650D02*
X7178515Y-8249174D01*
X7302325Y-8372984D02*
X7283277Y-8363460D01*
X7283277Y-8363460D02*
X7273754Y-8344412D01*
X7273754Y-8344412D02*
X7273754Y-8172984D01*
X7407087Y-8372984D02*
X7388039Y-8363460D01*
X7388039Y-8363460D02*
X7378515Y-8353936D01*
X7378515Y-8353936D02*
X7368992Y-8334888D01*
X7368992Y-8334888D02*
X7368992Y-8277746D01*
X7368992Y-8277746D02*
X7378515Y-8258698D01*
X7378515Y-8258698D02*
X7388039Y-8249174D01*
X7388039Y-8249174D02*
X7407087Y-8239650D01*
X7407087Y-8239650D02*
X7435658Y-8239650D01*
X7435658Y-8239650D02*
X7454706Y-8249174D01*
X7454706Y-8249174D02*
X7464230Y-8258698D01*
X7464230Y-8258698D02*
X7473754Y-8277746D01*
X7473754Y-8277746D02*
X7473754Y-8334888D01*
X7473754Y-8334888D02*
X7464230Y-8353936D01*
X7464230Y-8353936D02*
X7454706Y-8363460D01*
X7454706Y-8363460D02*
X7435658Y-8372984D01*
X7435658Y-8372984D02*
X7407087Y-8372984D01*
X7530896Y-8239650D02*
X7607087Y-8239650D01*
X7559468Y-8172984D02*
X7559468Y-8344412D01*
X7559468Y-8344412D02*
X7568992Y-8363460D01*
X7568992Y-8363460D02*
X7588039Y-8372984D01*
X7588039Y-8372984D02*
X7607087Y-8372984D01*
X7664230Y-8363460D02*
X7683277Y-8372984D01*
X7683277Y-8372984D02*
X7721373Y-8372984D01*
X7721373Y-8372984D02*
X7740420Y-8363460D01*
X7740420Y-8363460D02*
X7749944Y-8344412D01*
X7749944Y-8344412D02*
X7749944Y-8334888D01*
X7749944Y-8334888D02*
X7740420Y-8315841D01*
X7740420Y-8315841D02*
X7721373Y-8306317D01*
X7721373Y-8306317D02*
X7692801Y-8306317D01*
X7692801Y-8306317D02*
X7673754Y-8296793D01*
X7673754Y-8296793D02*
X7664230Y-8277746D01*
X7664230Y-8277746D02*
X7664230Y-8268222D01*
X7664230Y-8268222D02*
X7673754Y-8249174D01*
X7673754Y-8249174D02*
X7692801Y-8239650D01*
X7692801Y-8239650D02*
X7721373Y-8239650D01*
X7721373Y-8239650D02*
X7740420Y-8249174D01*
X7816611Y-8449174D02*
X7826135Y-8439650D01*
X7826135Y-8439650D02*
X7845182Y-8411079D01*
X7845182Y-8411079D02*
X7854706Y-8392031D01*
X7854706Y-8392031D02*
X7864230Y-8363460D01*
X7864230Y-8363460D02*
X7873754Y-8315841D01*
X7873754Y-8315841D02*
X7873754Y-8277746D01*
X7873754Y-8277746D02*
X7864230Y-8230127D01*
X7864230Y-8230127D02*
X7854706Y-8201555D01*
X7854706Y-8201555D02*
X7845182Y-8182508D01*
X7845182Y-8182508D02*
X7826135Y-8153936D01*
X7826135Y-8153936D02*
X7816611Y-8144412D01*
D12*
X1392500Y-8515500D02*
X1392500Y-8575500D01*
X1362500Y-8545500D02*
X1422500Y-8545500D01*
D11*
X1721372Y-8436984D02*
X1740420Y-8436984D01*
X1740420Y-8436984D02*
X1759467Y-8446508D01*
X1759467Y-8446508D02*
X1768991Y-8456031D01*
X1768991Y-8456031D02*
X1778515Y-8475079D01*
X1778515Y-8475079D02*
X1788039Y-8513174D01*
X1788039Y-8513174D02*
X1788039Y-8560793D01*
X1788039Y-8560793D02*
X1778515Y-8598889D01*
X1778515Y-8598889D02*
X1768991Y-8617936D01*
X1768991Y-8617936D02*
X1759467Y-8627460D01*
X1759467Y-8627460D02*
X1740420Y-8636984D01*
X1740420Y-8636984D02*
X1721372Y-8636984D01*
X1721372Y-8636984D02*
X1702324Y-8627460D01*
X1702324Y-8627460D02*
X1692801Y-8617936D01*
X1692801Y-8617936D02*
X1683277Y-8598889D01*
X1683277Y-8598889D02*
X1673753Y-8560793D01*
X1673753Y-8560793D02*
X1673753Y-8513174D01*
X1673753Y-8513174D02*
X1683277Y-8475079D01*
X1683277Y-8475079D02*
X1692801Y-8456031D01*
X1692801Y-8456031D02*
X1702324Y-8446508D01*
X1702324Y-8446508D02*
X1721372Y-8436984D01*
X1873753Y-8617936D02*
X1883277Y-8627460D01*
X1883277Y-8627460D02*
X1873753Y-8636984D01*
X1873753Y-8636984D02*
X1864229Y-8627460D01*
X1864229Y-8627460D02*
X1873753Y-8617936D01*
X1873753Y-8617936D02*
X1873753Y-8636984D01*
X2054705Y-8436984D02*
X2016610Y-8436984D01*
X2016610Y-8436984D02*
X1997562Y-8446508D01*
X1997562Y-8446508D02*
X1988039Y-8456031D01*
X1988039Y-8456031D02*
X1968991Y-8484603D01*
X1968991Y-8484603D02*
X1959467Y-8522698D01*
X1959467Y-8522698D02*
X1959467Y-8598889D01*
X1959467Y-8598889D02*
X1968991Y-8617936D01*
X1968991Y-8617936D02*
X1978515Y-8627460D01*
X1978515Y-8627460D02*
X1997562Y-8636984D01*
X1997562Y-8636984D02*
X2035658Y-8636984D01*
X2035658Y-8636984D02*
X2054705Y-8627460D01*
X2054705Y-8627460D02*
X2064229Y-8617936D01*
X2064229Y-8617936D02*
X2073753Y-8598889D01*
X2073753Y-8598889D02*
X2073753Y-8551270D01*
X2073753Y-8551270D02*
X2064229Y-8532222D01*
X2064229Y-8532222D02*
X2054705Y-8522698D01*
X2054705Y-8522698D02*
X2035658Y-8513174D01*
X2035658Y-8513174D02*
X1997562Y-8513174D01*
X1997562Y-8513174D02*
X1978515Y-8522698D01*
X1978515Y-8522698D02*
X1968991Y-8532222D01*
X1968991Y-8532222D02*
X1959467Y-8551270D01*
X2197563Y-8436984D02*
X2216610Y-8436984D01*
X2216610Y-8436984D02*
X2235658Y-8446508D01*
X2235658Y-8446508D02*
X2245182Y-8456031D01*
X2245182Y-8456031D02*
X2254705Y-8475079D01*
X2254705Y-8475079D02*
X2264229Y-8513174D01*
X2264229Y-8513174D02*
X2264229Y-8560793D01*
X2264229Y-8560793D02*
X2254705Y-8598889D01*
X2254705Y-8598889D02*
X2245182Y-8617936D01*
X2245182Y-8617936D02*
X2235658Y-8627460D01*
X2235658Y-8627460D02*
X2216610Y-8636984D01*
X2216610Y-8636984D02*
X2197563Y-8636984D01*
X2197563Y-8636984D02*
X2178515Y-8627460D01*
X2178515Y-8627460D02*
X2168991Y-8617936D01*
X2168991Y-8617936D02*
X2159467Y-8598889D01*
X2159467Y-8598889D02*
X2149944Y-8560793D01*
X2149944Y-8560793D02*
X2149944Y-8513174D01*
X2149944Y-8513174D02*
X2159467Y-8475079D01*
X2159467Y-8475079D02*
X2168991Y-8456031D01*
X2168991Y-8456031D02*
X2178515Y-8446508D01*
X2178515Y-8446508D02*
X2197563Y-8436984D01*
X2388039Y-8436984D02*
X2407086Y-8436984D01*
X2407086Y-8436984D02*
X2426134Y-8446508D01*
X2426134Y-8446508D02*
X2435658Y-8456031D01*
X2435658Y-8456031D02*
X2445182Y-8475079D01*
X2445182Y-8475079D02*
X2454705Y-8513174D01*
X2454705Y-8513174D02*
X2454705Y-8560793D01*
X2454705Y-8560793D02*
X2445182Y-8598889D01*
X2445182Y-8598889D02*
X2435658Y-8617936D01*
X2435658Y-8617936D02*
X2426134Y-8627460D01*
X2426134Y-8627460D02*
X2407086Y-8636984D01*
X2407086Y-8636984D02*
X2388039Y-8636984D01*
X2388039Y-8636984D02*
X2368991Y-8627460D01*
X2368991Y-8627460D02*
X2359467Y-8617936D01*
X2359467Y-8617936D02*
X2349944Y-8598889D01*
X2349944Y-8598889D02*
X2340420Y-8560793D01*
X2340420Y-8560793D02*
X2340420Y-8513174D01*
X2340420Y-8513174D02*
X2349944Y-8475079D01*
X2349944Y-8475079D02*
X2359467Y-8456031D01*
X2359467Y-8456031D02*
X2368991Y-8446508D01*
X2368991Y-8446508D02*
X2388039Y-8436984D01*
X2540420Y-8636984D02*
X2540420Y-8503650D01*
X2540420Y-8522698D02*
X2549944Y-8513174D01*
X2549944Y-8513174D02*
X2568991Y-8503650D01*
X2568991Y-8503650D02*
X2597563Y-8503650D01*
X2597563Y-8503650D02*
X2616610Y-8513174D01*
X2616610Y-8513174D02*
X2626134Y-8532222D01*
X2626134Y-8532222D02*
X2626134Y-8636984D01*
X2626134Y-8532222D02*
X2635658Y-8513174D01*
X2635658Y-8513174D02*
X2654705Y-8503650D01*
X2654705Y-8503650D02*
X2683277Y-8503650D01*
X2683277Y-8503650D02*
X2702325Y-8513174D01*
X2702325Y-8513174D02*
X2711848Y-8532222D01*
X2711848Y-8532222D02*
X2711848Y-8636984D01*
X2807086Y-8636984D02*
X2807086Y-8503650D01*
X2807086Y-8522698D02*
X2816610Y-8513174D01*
X2816610Y-8513174D02*
X2835658Y-8503650D01*
X2835658Y-8503650D02*
X2864229Y-8503650D01*
X2864229Y-8503650D02*
X2883277Y-8513174D01*
X2883277Y-8513174D02*
X2892801Y-8532222D01*
X2892801Y-8532222D02*
X2892801Y-8636984D01*
X2892801Y-8532222D02*
X2902324Y-8513174D01*
X2902324Y-8513174D02*
X2921372Y-8503650D01*
X2921372Y-8503650D02*
X2949943Y-8503650D01*
X2949943Y-8503650D02*
X2968991Y-8513174D01*
X2968991Y-8513174D02*
X2978515Y-8532222D01*
X2978515Y-8532222D02*
X2978515Y-8636984D01*
X3368991Y-8427460D02*
X3197563Y-8684603D01*
X3626134Y-8436984D02*
X3645182Y-8436984D01*
X3645182Y-8436984D02*
X3664229Y-8446508D01*
X3664229Y-8446508D02*
X3673753Y-8456031D01*
X3673753Y-8456031D02*
X3683277Y-8475079D01*
X3683277Y-8475079D02*
X3692801Y-8513174D01*
X3692801Y-8513174D02*
X3692801Y-8560793D01*
X3692801Y-8560793D02*
X3683277Y-8598889D01*
X3683277Y-8598889D02*
X3673753Y-8617936D01*
X3673753Y-8617936D02*
X3664229Y-8627460D01*
X3664229Y-8627460D02*
X3645182Y-8636984D01*
X3645182Y-8636984D02*
X3626134Y-8636984D01*
X3626134Y-8636984D02*
X3607086Y-8627460D01*
X3607086Y-8627460D02*
X3597563Y-8617936D01*
X3597563Y-8617936D02*
X3588039Y-8598889D01*
X3588039Y-8598889D02*
X3578515Y-8560793D01*
X3578515Y-8560793D02*
X3578515Y-8513174D01*
X3578515Y-8513174D02*
X3588039Y-8475079D01*
X3588039Y-8475079D02*
X3597563Y-8456031D01*
X3597563Y-8456031D02*
X3607086Y-8446508D01*
X3607086Y-8446508D02*
X3626134Y-8436984D01*
X3778515Y-8617936D02*
X3788039Y-8627460D01*
X3788039Y-8627460D02*
X3778515Y-8636984D01*
X3778515Y-8636984D02*
X3768991Y-8627460D01*
X3768991Y-8627460D02*
X3778515Y-8617936D01*
X3778515Y-8617936D02*
X3778515Y-8636984D01*
X3911848Y-8436984D02*
X3930896Y-8436984D01*
X3930896Y-8436984D02*
X3949944Y-8446508D01*
X3949944Y-8446508D02*
X3959467Y-8456031D01*
X3959467Y-8456031D02*
X3968991Y-8475079D01*
X3968991Y-8475079D02*
X3978515Y-8513174D01*
X3978515Y-8513174D02*
X3978515Y-8560793D01*
X3978515Y-8560793D02*
X3968991Y-8598889D01*
X3968991Y-8598889D02*
X3959467Y-8617936D01*
X3959467Y-8617936D02*
X3949944Y-8627460D01*
X3949944Y-8627460D02*
X3930896Y-8636984D01*
X3930896Y-8636984D02*
X3911848Y-8636984D01*
X3911848Y-8636984D02*
X3892801Y-8627460D01*
X3892801Y-8627460D02*
X3883277Y-8617936D01*
X3883277Y-8617936D02*
X3873753Y-8598889D01*
X3873753Y-8598889D02*
X3864229Y-8560793D01*
X3864229Y-8560793D02*
X3864229Y-8513174D01*
X3864229Y-8513174D02*
X3873753Y-8475079D01*
X3873753Y-8475079D02*
X3883277Y-8456031D01*
X3883277Y-8456031D02*
X3892801Y-8446508D01*
X3892801Y-8446508D02*
X3911848Y-8436984D01*
X4054706Y-8456031D02*
X4064229Y-8446508D01*
X4064229Y-8446508D02*
X4083277Y-8436984D01*
X4083277Y-8436984D02*
X4130896Y-8436984D01*
X4130896Y-8436984D02*
X4149944Y-8446508D01*
X4149944Y-8446508D02*
X4159467Y-8456031D01*
X4159467Y-8456031D02*
X4168991Y-8475079D01*
X4168991Y-8475079D02*
X4168991Y-8494127D01*
X4168991Y-8494127D02*
X4159467Y-8522698D01*
X4159467Y-8522698D02*
X4045182Y-8636984D01*
X4045182Y-8636984D02*
X4168991Y-8636984D01*
X4235658Y-8436984D02*
X4359468Y-8436984D01*
X4359468Y-8436984D02*
X4292801Y-8513174D01*
X4292801Y-8513174D02*
X4321372Y-8513174D01*
X4321372Y-8513174D02*
X4340420Y-8522698D01*
X4340420Y-8522698D02*
X4349944Y-8532222D01*
X4349944Y-8532222D02*
X4359468Y-8551270D01*
X4359468Y-8551270D02*
X4359468Y-8598889D01*
X4359468Y-8598889D02*
X4349944Y-8617936D01*
X4349944Y-8617936D02*
X4340420Y-8627460D01*
X4340420Y-8627460D02*
X4321372Y-8636984D01*
X4321372Y-8636984D02*
X4264229Y-8636984D01*
X4264229Y-8636984D02*
X4245182Y-8627460D01*
X4245182Y-8627460D02*
X4235658Y-8617936D01*
X4530896Y-8436984D02*
X4492801Y-8436984D01*
X4492801Y-8436984D02*
X4473753Y-8446508D01*
X4473753Y-8446508D02*
X4464229Y-8456031D01*
X4464229Y-8456031D02*
X4445182Y-8484603D01*
X4445182Y-8484603D02*
X4435658Y-8522698D01*
X4435658Y-8522698D02*
X4435658Y-8598889D01*
X4435658Y-8598889D02*
X4445182Y-8617936D01*
X4445182Y-8617936D02*
X4454706Y-8627460D01*
X4454706Y-8627460D02*
X4473753Y-8636984D01*
X4473753Y-8636984D02*
X4511849Y-8636984D01*
X4511849Y-8636984D02*
X4530896Y-8627460D01*
X4530896Y-8627460D02*
X4540420Y-8617936D01*
X4540420Y-8617936D02*
X4549944Y-8598889D01*
X4549944Y-8598889D02*
X4549944Y-8551270D01*
X4549944Y-8551270D02*
X4540420Y-8532222D01*
X4540420Y-8532222D02*
X4530896Y-8522698D01*
X4530896Y-8522698D02*
X4511849Y-8513174D01*
X4511849Y-8513174D02*
X4473753Y-8513174D01*
X4473753Y-8513174D02*
X4454706Y-8522698D01*
X4454706Y-8522698D02*
X4445182Y-8532222D01*
X4445182Y-8532222D02*
X4435658Y-8551270D01*
X4626134Y-8436984D02*
X4626134Y-8475079D01*
X4702325Y-8436984D02*
X4702325Y-8475079D01*
X4997563Y-8713174D02*
X4988039Y-8703650D01*
X4988039Y-8703650D02*
X4968991Y-8675079D01*
X4968991Y-8675079D02*
X4959468Y-8656031D01*
X4959468Y-8656031D02*
X4949944Y-8627460D01*
X4949944Y-8627460D02*
X4940420Y-8579841D01*
X4940420Y-8579841D02*
X4940420Y-8541746D01*
X4940420Y-8541746D02*
X4949944Y-8494127D01*
X4949944Y-8494127D02*
X4959468Y-8465555D01*
X4959468Y-8465555D02*
X4968991Y-8446508D01*
X4968991Y-8446508D02*
X4988039Y-8417936D01*
X4988039Y-8417936D02*
X4997563Y-8408412D01*
X5064230Y-8456031D02*
X5073753Y-8446508D01*
X5073753Y-8446508D02*
X5092801Y-8436984D01*
X5092801Y-8436984D02*
X5140420Y-8436984D01*
X5140420Y-8436984D02*
X5159468Y-8446508D01*
X5159468Y-8446508D02*
X5168991Y-8456031D01*
X5168991Y-8456031D02*
X5178515Y-8475079D01*
X5178515Y-8475079D02*
X5178515Y-8494127D01*
X5178515Y-8494127D02*
X5168991Y-8522698D01*
X5168991Y-8522698D02*
X5054706Y-8636984D01*
X5054706Y-8636984D02*
X5178515Y-8636984D01*
X5416611Y-8636984D02*
X5416611Y-8436984D01*
X5502325Y-8636984D02*
X5502325Y-8532222D01*
X5502325Y-8532222D02*
X5492801Y-8513174D01*
X5492801Y-8513174D02*
X5473753Y-8503650D01*
X5473753Y-8503650D02*
X5445182Y-8503650D01*
X5445182Y-8503650D02*
X5426134Y-8513174D01*
X5426134Y-8513174D02*
X5416611Y-8522698D01*
X5626134Y-8636984D02*
X5607087Y-8627460D01*
X5607087Y-8627460D02*
X5597563Y-8617936D01*
X5597563Y-8617936D02*
X5588039Y-8598889D01*
X5588039Y-8598889D02*
X5588039Y-8541746D01*
X5588039Y-8541746D02*
X5597563Y-8522698D01*
X5597563Y-8522698D02*
X5607087Y-8513174D01*
X5607087Y-8513174D02*
X5626134Y-8503650D01*
X5626134Y-8503650D02*
X5654706Y-8503650D01*
X5654706Y-8503650D02*
X5673753Y-8513174D01*
X5673753Y-8513174D02*
X5683277Y-8522698D01*
X5683277Y-8522698D02*
X5692801Y-8541746D01*
X5692801Y-8541746D02*
X5692801Y-8598889D01*
X5692801Y-8598889D02*
X5683277Y-8617936D01*
X5683277Y-8617936D02*
X5673753Y-8627460D01*
X5673753Y-8627460D02*
X5654706Y-8636984D01*
X5654706Y-8636984D02*
X5626134Y-8636984D01*
X5807087Y-8636984D02*
X5788039Y-8627460D01*
X5788039Y-8627460D02*
X5778515Y-8608412D01*
X5778515Y-8608412D02*
X5778515Y-8436984D01*
X5959468Y-8627460D02*
X5940420Y-8636984D01*
X5940420Y-8636984D02*
X5902325Y-8636984D01*
X5902325Y-8636984D02*
X5883277Y-8627460D01*
X5883277Y-8627460D02*
X5873753Y-8608412D01*
X5873753Y-8608412D02*
X5873753Y-8532222D01*
X5873753Y-8532222D02*
X5883277Y-8513174D01*
X5883277Y-8513174D02*
X5902325Y-8503650D01*
X5902325Y-8503650D02*
X5940420Y-8503650D01*
X5940420Y-8503650D02*
X5959468Y-8513174D01*
X5959468Y-8513174D02*
X5968991Y-8532222D01*
X5968991Y-8532222D02*
X5968991Y-8551270D01*
X5968991Y-8551270D02*
X5873753Y-8570317D01*
X6045182Y-8627460D02*
X6064230Y-8636984D01*
X6064230Y-8636984D02*
X6102325Y-8636984D01*
X6102325Y-8636984D02*
X6121372Y-8627460D01*
X6121372Y-8627460D02*
X6130896Y-8608412D01*
X6130896Y-8608412D02*
X6130896Y-8598889D01*
X6130896Y-8598889D02*
X6121372Y-8579841D01*
X6121372Y-8579841D02*
X6102325Y-8570317D01*
X6102325Y-8570317D02*
X6073753Y-8570317D01*
X6073753Y-8570317D02*
X6054706Y-8560793D01*
X6054706Y-8560793D02*
X6045182Y-8541746D01*
X6045182Y-8541746D02*
X6045182Y-8532222D01*
X6045182Y-8532222D02*
X6054706Y-8513174D01*
X6054706Y-8513174D02*
X6073753Y-8503650D01*
X6073753Y-8503650D02*
X6102325Y-8503650D01*
X6102325Y-8503650D02*
X6121372Y-8513174D01*
X6197563Y-8713174D02*
X6207087Y-8703650D01*
X6207087Y-8703650D02*
X6226134Y-8675079D01*
X6226134Y-8675079D02*
X6235658Y-8656031D01*
X6235658Y-8656031D02*
X6245182Y-8627460D01*
X6245182Y-8627460D02*
X6254706Y-8579841D01*
X6254706Y-8579841D02*
X6254706Y-8541746D01*
X6254706Y-8541746D02*
X6245182Y-8494127D01*
X6245182Y-8494127D02*
X6235658Y-8465555D01*
X6235658Y-8465555D02*
X6226134Y-8446508D01*
X6226134Y-8446508D02*
X6207087Y-8417936D01*
X6207087Y-8417936D02*
X6197563Y-8408412D01*
D12*
X1413713Y-8830713D02*
X1413713Y-8788287D01*
X1371287Y-8788287D01*
X1371287Y-8830713D01*
X1413713Y-8830713D01*
D11*
X1721372Y-8700984D02*
X1740420Y-8700984D01*
X1740420Y-8700984D02*
X1759467Y-8710508D01*
X1759467Y-8710508D02*
X1768991Y-8720031D01*
X1768991Y-8720031D02*
X1778515Y-8739079D01*
X1778515Y-8739079D02*
X1788039Y-8777174D01*
X1788039Y-8777174D02*
X1788039Y-8824793D01*
X1788039Y-8824793D02*
X1778515Y-8862889D01*
X1778515Y-8862889D02*
X1768991Y-8881936D01*
X1768991Y-8881936D02*
X1759467Y-8891460D01*
X1759467Y-8891460D02*
X1740420Y-8900984D01*
X1740420Y-8900984D02*
X1721372Y-8900984D01*
X1721372Y-8900984D02*
X1702324Y-8891460D01*
X1702324Y-8891460D02*
X1692801Y-8881936D01*
X1692801Y-8881936D02*
X1683277Y-8862889D01*
X1683277Y-8862889D02*
X1673753Y-8824793D01*
X1673753Y-8824793D02*
X1673753Y-8777174D01*
X1673753Y-8777174D02*
X1683277Y-8739079D01*
X1683277Y-8739079D02*
X1692801Y-8720031D01*
X1692801Y-8720031D02*
X1702324Y-8710508D01*
X1702324Y-8710508D02*
X1721372Y-8700984D01*
X1873753Y-8881936D02*
X1883277Y-8891460D01*
X1883277Y-8891460D02*
X1873753Y-8900984D01*
X1873753Y-8900984D02*
X1864229Y-8891460D01*
X1864229Y-8891460D02*
X1873753Y-8881936D01*
X1873753Y-8881936D02*
X1873753Y-8900984D01*
X2054705Y-8700984D02*
X2016610Y-8700984D01*
X2016610Y-8700984D02*
X1997562Y-8710508D01*
X1997562Y-8710508D02*
X1988039Y-8720031D01*
X1988039Y-8720031D02*
X1968991Y-8748603D01*
X1968991Y-8748603D02*
X1959467Y-8786698D01*
X1959467Y-8786698D02*
X1959467Y-8862889D01*
X1959467Y-8862889D02*
X1968991Y-8881936D01*
X1968991Y-8881936D02*
X1978515Y-8891460D01*
X1978515Y-8891460D02*
X1997562Y-8900984D01*
X1997562Y-8900984D02*
X2035658Y-8900984D01*
X2035658Y-8900984D02*
X2054705Y-8891460D01*
X2054705Y-8891460D02*
X2064229Y-8881936D01*
X2064229Y-8881936D02*
X2073753Y-8862889D01*
X2073753Y-8862889D02*
X2073753Y-8815270D01*
X2073753Y-8815270D02*
X2064229Y-8796222D01*
X2064229Y-8796222D02*
X2054705Y-8786698D01*
X2054705Y-8786698D02*
X2035658Y-8777174D01*
X2035658Y-8777174D02*
X1997562Y-8777174D01*
X1997562Y-8777174D02*
X1978515Y-8786698D01*
X1978515Y-8786698D02*
X1968991Y-8796222D01*
X1968991Y-8796222D02*
X1959467Y-8815270D01*
X2197563Y-8700984D02*
X2216610Y-8700984D01*
X2216610Y-8700984D02*
X2235658Y-8710508D01*
X2235658Y-8710508D02*
X2245182Y-8720031D01*
X2245182Y-8720031D02*
X2254705Y-8739079D01*
X2254705Y-8739079D02*
X2264229Y-8777174D01*
X2264229Y-8777174D02*
X2264229Y-8824793D01*
X2264229Y-8824793D02*
X2254705Y-8862889D01*
X2254705Y-8862889D02*
X2245182Y-8881936D01*
X2245182Y-8881936D02*
X2235658Y-8891460D01*
X2235658Y-8891460D02*
X2216610Y-8900984D01*
X2216610Y-8900984D02*
X2197563Y-8900984D01*
X2197563Y-8900984D02*
X2178515Y-8891460D01*
X2178515Y-8891460D02*
X2168991Y-8881936D01*
X2168991Y-8881936D02*
X2159467Y-8862889D01*
X2159467Y-8862889D02*
X2149944Y-8824793D01*
X2149944Y-8824793D02*
X2149944Y-8777174D01*
X2149944Y-8777174D02*
X2159467Y-8739079D01*
X2159467Y-8739079D02*
X2168991Y-8720031D01*
X2168991Y-8720031D02*
X2178515Y-8710508D01*
X2178515Y-8710508D02*
X2197563Y-8700984D01*
X2388039Y-8700984D02*
X2407086Y-8700984D01*
X2407086Y-8700984D02*
X2426134Y-8710508D01*
X2426134Y-8710508D02*
X2435658Y-8720031D01*
X2435658Y-8720031D02*
X2445182Y-8739079D01*
X2445182Y-8739079D02*
X2454705Y-8777174D01*
X2454705Y-8777174D02*
X2454705Y-8824793D01*
X2454705Y-8824793D02*
X2445182Y-8862889D01*
X2445182Y-8862889D02*
X2435658Y-8881936D01*
X2435658Y-8881936D02*
X2426134Y-8891460D01*
X2426134Y-8891460D02*
X2407086Y-8900984D01*
X2407086Y-8900984D02*
X2388039Y-8900984D01*
X2388039Y-8900984D02*
X2368991Y-8891460D01*
X2368991Y-8891460D02*
X2359467Y-8881936D01*
X2359467Y-8881936D02*
X2349944Y-8862889D01*
X2349944Y-8862889D02*
X2340420Y-8824793D01*
X2340420Y-8824793D02*
X2340420Y-8777174D01*
X2340420Y-8777174D02*
X2349944Y-8739079D01*
X2349944Y-8739079D02*
X2359467Y-8720031D01*
X2359467Y-8720031D02*
X2368991Y-8710508D01*
X2368991Y-8710508D02*
X2388039Y-8700984D01*
X2540420Y-8900984D02*
X2540420Y-8767650D01*
X2540420Y-8786698D02*
X2549944Y-8777174D01*
X2549944Y-8777174D02*
X2568991Y-8767650D01*
X2568991Y-8767650D02*
X2597563Y-8767650D01*
X2597563Y-8767650D02*
X2616610Y-8777174D01*
X2616610Y-8777174D02*
X2626134Y-8796222D01*
X2626134Y-8796222D02*
X2626134Y-8900984D01*
X2626134Y-8796222D02*
X2635658Y-8777174D01*
X2635658Y-8777174D02*
X2654705Y-8767650D01*
X2654705Y-8767650D02*
X2683277Y-8767650D01*
X2683277Y-8767650D02*
X2702325Y-8777174D01*
X2702325Y-8777174D02*
X2711848Y-8796222D01*
X2711848Y-8796222D02*
X2711848Y-8900984D01*
X2807086Y-8900984D02*
X2807086Y-8767650D01*
X2807086Y-8786698D02*
X2816610Y-8777174D01*
X2816610Y-8777174D02*
X2835658Y-8767650D01*
X2835658Y-8767650D02*
X2864229Y-8767650D01*
X2864229Y-8767650D02*
X2883277Y-8777174D01*
X2883277Y-8777174D02*
X2892801Y-8796222D01*
X2892801Y-8796222D02*
X2892801Y-8900984D01*
X2892801Y-8796222D02*
X2902324Y-8777174D01*
X2902324Y-8777174D02*
X2921372Y-8767650D01*
X2921372Y-8767650D02*
X2949943Y-8767650D01*
X2949943Y-8767650D02*
X2968991Y-8777174D01*
X2968991Y-8777174D02*
X2978515Y-8796222D01*
X2978515Y-8796222D02*
X2978515Y-8900984D01*
X3368991Y-8691460D02*
X3197563Y-8948603D01*
X3626134Y-8700984D02*
X3645182Y-8700984D01*
X3645182Y-8700984D02*
X3664229Y-8710508D01*
X3664229Y-8710508D02*
X3673753Y-8720031D01*
X3673753Y-8720031D02*
X3683277Y-8739079D01*
X3683277Y-8739079D02*
X3692801Y-8777174D01*
X3692801Y-8777174D02*
X3692801Y-8824793D01*
X3692801Y-8824793D02*
X3683277Y-8862889D01*
X3683277Y-8862889D02*
X3673753Y-8881936D01*
X3673753Y-8881936D02*
X3664229Y-8891460D01*
X3664229Y-8891460D02*
X3645182Y-8900984D01*
X3645182Y-8900984D02*
X3626134Y-8900984D01*
X3626134Y-8900984D02*
X3607086Y-8891460D01*
X3607086Y-8891460D02*
X3597563Y-8881936D01*
X3597563Y-8881936D02*
X3588039Y-8862889D01*
X3588039Y-8862889D02*
X3578515Y-8824793D01*
X3578515Y-8824793D02*
X3578515Y-8777174D01*
X3578515Y-8777174D02*
X3588039Y-8739079D01*
X3588039Y-8739079D02*
X3597563Y-8720031D01*
X3597563Y-8720031D02*
X3607086Y-8710508D01*
X3607086Y-8710508D02*
X3626134Y-8700984D01*
X3778515Y-8881936D02*
X3788039Y-8891460D01*
X3788039Y-8891460D02*
X3778515Y-8900984D01*
X3778515Y-8900984D02*
X3768991Y-8891460D01*
X3768991Y-8891460D02*
X3778515Y-8881936D01*
X3778515Y-8881936D02*
X3778515Y-8900984D01*
X3911848Y-8700984D02*
X3930896Y-8700984D01*
X3930896Y-8700984D02*
X3949944Y-8710508D01*
X3949944Y-8710508D02*
X3959467Y-8720031D01*
X3959467Y-8720031D02*
X3968991Y-8739079D01*
X3968991Y-8739079D02*
X3978515Y-8777174D01*
X3978515Y-8777174D02*
X3978515Y-8824793D01*
X3978515Y-8824793D02*
X3968991Y-8862889D01*
X3968991Y-8862889D02*
X3959467Y-8881936D01*
X3959467Y-8881936D02*
X3949944Y-8891460D01*
X3949944Y-8891460D02*
X3930896Y-8900984D01*
X3930896Y-8900984D02*
X3911848Y-8900984D01*
X3911848Y-8900984D02*
X3892801Y-8891460D01*
X3892801Y-8891460D02*
X3883277Y-8881936D01*
X3883277Y-8881936D02*
X3873753Y-8862889D01*
X3873753Y-8862889D02*
X3864229Y-8824793D01*
X3864229Y-8824793D02*
X3864229Y-8777174D01*
X3864229Y-8777174D02*
X3873753Y-8739079D01*
X3873753Y-8739079D02*
X3883277Y-8720031D01*
X3883277Y-8720031D02*
X3892801Y-8710508D01*
X3892801Y-8710508D02*
X3911848Y-8700984D01*
X4054706Y-8720031D02*
X4064229Y-8710508D01*
X4064229Y-8710508D02*
X4083277Y-8700984D01*
X4083277Y-8700984D02*
X4130896Y-8700984D01*
X4130896Y-8700984D02*
X4149944Y-8710508D01*
X4149944Y-8710508D02*
X4159467Y-8720031D01*
X4159467Y-8720031D02*
X4168991Y-8739079D01*
X4168991Y-8739079D02*
X4168991Y-8758127D01*
X4168991Y-8758127D02*
X4159467Y-8786698D01*
X4159467Y-8786698D02*
X4045182Y-8900984D01*
X4045182Y-8900984D02*
X4168991Y-8900984D01*
X4235658Y-8700984D02*
X4359468Y-8700984D01*
X4359468Y-8700984D02*
X4292801Y-8777174D01*
X4292801Y-8777174D02*
X4321372Y-8777174D01*
X4321372Y-8777174D02*
X4340420Y-8786698D01*
X4340420Y-8786698D02*
X4349944Y-8796222D01*
X4349944Y-8796222D02*
X4359468Y-8815270D01*
X4359468Y-8815270D02*
X4359468Y-8862889D01*
X4359468Y-8862889D02*
X4349944Y-8881936D01*
X4349944Y-8881936D02*
X4340420Y-8891460D01*
X4340420Y-8891460D02*
X4321372Y-8900984D01*
X4321372Y-8900984D02*
X4264229Y-8900984D01*
X4264229Y-8900984D02*
X4245182Y-8891460D01*
X4245182Y-8891460D02*
X4235658Y-8881936D01*
X4530896Y-8700984D02*
X4492801Y-8700984D01*
X4492801Y-8700984D02*
X4473753Y-8710508D01*
X4473753Y-8710508D02*
X4464229Y-8720031D01*
X4464229Y-8720031D02*
X4445182Y-8748603D01*
X4445182Y-8748603D02*
X4435658Y-8786698D01*
X4435658Y-8786698D02*
X4435658Y-8862889D01*
X4435658Y-8862889D02*
X4445182Y-8881936D01*
X4445182Y-8881936D02*
X4454706Y-8891460D01*
X4454706Y-8891460D02*
X4473753Y-8900984D01*
X4473753Y-8900984D02*
X4511849Y-8900984D01*
X4511849Y-8900984D02*
X4530896Y-8891460D01*
X4530896Y-8891460D02*
X4540420Y-8881936D01*
X4540420Y-8881936D02*
X4549944Y-8862889D01*
X4549944Y-8862889D02*
X4549944Y-8815270D01*
X4549944Y-8815270D02*
X4540420Y-8796222D01*
X4540420Y-8796222D02*
X4530896Y-8786698D01*
X4530896Y-8786698D02*
X4511849Y-8777174D01*
X4511849Y-8777174D02*
X4473753Y-8777174D01*
X4473753Y-8777174D02*
X4454706Y-8786698D01*
X4454706Y-8786698D02*
X4445182Y-8796222D01*
X4445182Y-8796222D02*
X4435658Y-8815270D01*
X4626134Y-8700984D02*
X4626134Y-8739079D01*
X4702325Y-8700984D02*
X4702325Y-8739079D01*
X4997563Y-8977174D02*
X4988039Y-8967650D01*
X4988039Y-8967650D02*
X4968991Y-8939079D01*
X4968991Y-8939079D02*
X4959468Y-8920031D01*
X4959468Y-8920031D02*
X4949944Y-8891460D01*
X4949944Y-8891460D02*
X4940420Y-8843841D01*
X4940420Y-8843841D02*
X4940420Y-8805746D01*
X4940420Y-8805746D02*
X4949944Y-8758127D01*
X4949944Y-8758127D02*
X4959468Y-8729555D01*
X4959468Y-8729555D02*
X4968991Y-8710508D01*
X4968991Y-8710508D02*
X4988039Y-8681936D01*
X4988039Y-8681936D02*
X4997563Y-8672412D01*
X5111849Y-8700984D02*
X5130896Y-8700984D01*
X5130896Y-8700984D02*
X5149944Y-8710508D01*
X5149944Y-8710508D02*
X5159468Y-8720031D01*
X5159468Y-8720031D02*
X5168991Y-8739079D01*
X5168991Y-8739079D02*
X5178515Y-8777174D01*
X5178515Y-8777174D02*
X5178515Y-8824793D01*
X5178515Y-8824793D02*
X5168991Y-8862889D01*
X5168991Y-8862889D02*
X5159468Y-8881936D01*
X5159468Y-8881936D02*
X5149944Y-8891460D01*
X5149944Y-8891460D02*
X5130896Y-8900984D01*
X5130896Y-8900984D02*
X5111849Y-8900984D01*
X5111849Y-8900984D02*
X5092801Y-8891460D01*
X5092801Y-8891460D02*
X5083277Y-8881936D01*
X5083277Y-8881936D02*
X5073753Y-8862889D01*
X5073753Y-8862889D02*
X5064230Y-8824793D01*
X5064230Y-8824793D02*
X5064230Y-8777174D01*
X5064230Y-8777174D02*
X5073753Y-8739079D01*
X5073753Y-8739079D02*
X5083277Y-8720031D01*
X5083277Y-8720031D02*
X5092801Y-8710508D01*
X5092801Y-8710508D02*
X5111849Y-8700984D01*
X5416611Y-8900984D02*
X5416611Y-8700984D01*
X5502325Y-8900984D02*
X5502325Y-8796222D01*
X5502325Y-8796222D02*
X5492801Y-8777174D01*
X5492801Y-8777174D02*
X5473753Y-8767650D01*
X5473753Y-8767650D02*
X5445182Y-8767650D01*
X5445182Y-8767650D02*
X5426134Y-8777174D01*
X5426134Y-8777174D02*
X5416611Y-8786698D01*
X5626134Y-8900984D02*
X5607087Y-8891460D01*
X5607087Y-8891460D02*
X5597563Y-8881936D01*
X5597563Y-8881936D02*
X5588039Y-8862889D01*
X5588039Y-8862889D02*
X5588039Y-8805746D01*
X5588039Y-8805746D02*
X5597563Y-8786698D01*
X5597563Y-8786698D02*
X5607087Y-8777174D01*
X5607087Y-8777174D02*
X5626134Y-8767650D01*
X5626134Y-8767650D02*
X5654706Y-8767650D01*
X5654706Y-8767650D02*
X5673753Y-8777174D01*
X5673753Y-8777174D02*
X5683277Y-8786698D01*
X5683277Y-8786698D02*
X5692801Y-8805746D01*
X5692801Y-8805746D02*
X5692801Y-8862889D01*
X5692801Y-8862889D02*
X5683277Y-8881936D01*
X5683277Y-8881936D02*
X5673753Y-8891460D01*
X5673753Y-8891460D02*
X5654706Y-8900984D01*
X5654706Y-8900984D02*
X5626134Y-8900984D01*
X5807087Y-8900984D02*
X5788039Y-8891460D01*
X5788039Y-8891460D02*
X5778515Y-8872412D01*
X5778515Y-8872412D02*
X5778515Y-8700984D01*
X5959468Y-8891460D02*
X5940420Y-8900984D01*
X5940420Y-8900984D02*
X5902325Y-8900984D01*
X5902325Y-8900984D02*
X5883277Y-8891460D01*
X5883277Y-8891460D02*
X5873753Y-8872412D01*
X5873753Y-8872412D02*
X5873753Y-8796222D01*
X5873753Y-8796222D02*
X5883277Y-8777174D01*
X5883277Y-8777174D02*
X5902325Y-8767650D01*
X5902325Y-8767650D02*
X5940420Y-8767650D01*
X5940420Y-8767650D02*
X5959468Y-8777174D01*
X5959468Y-8777174D02*
X5968991Y-8796222D01*
X5968991Y-8796222D02*
X5968991Y-8815270D01*
X5968991Y-8815270D02*
X5873753Y-8834317D01*
X6045182Y-8891460D02*
X6064230Y-8900984D01*
X6064230Y-8900984D02*
X6102325Y-8900984D01*
X6102325Y-8900984D02*
X6121372Y-8891460D01*
X6121372Y-8891460D02*
X6130896Y-8872412D01*
X6130896Y-8872412D02*
X6130896Y-8862889D01*
X6130896Y-8862889D02*
X6121372Y-8843841D01*
X6121372Y-8843841D02*
X6102325Y-8834317D01*
X6102325Y-8834317D02*
X6073753Y-8834317D01*
X6073753Y-8834317D02*
X6054706Y-8824793D01*
X6054706Y-8824793D02*
X6045182Y-8805746D01*
X6045182Y-8805746D02*
X6045182Y-8796222D01*
X6045182Y-8796222D02*
X6054706Y-8777174D01*
X6054706Y-8777174D02*
X6073753Y-8767650D01*
X6073753Y-8767650D02*
X6102325Y-8767650D01*
X6102325Y-8767650D02*
X6121372Y-8777174D01*
X6368992Y-8824793D02*
X6521373Y-8824793D01*
X6445182Y-8900984D02*
X6445182Y-8748603D01*
X6854706Y-8767650D02*
X6854706Y-8900984D01*
X6807087Y-8691460D02*
X6759468Y-8834317D01*
X6759468Y-8834317D02*
X6883277Y-8834317D01*
X7102325Y-8891460D02*
X7121373Y-8900984D01*
X7121373Y-8900984D02*
X7159468Y-8900984D01*
X7159468Y-8900984D02*
X7178515Y-8891460D01*
X7178515Y-8891460D02*
X7188039Y-8872412D01*
X7188039Y-8872412D02*
X7188039Y-8862889D01*
X7188039Y-8862889D02*
X7178515Y-8843841D01*
X7178515Y-8843841D02*
X7159468Y-8834317D01*
X7159468Y-8834317D02*
X7130896Y-8834317D01*
X7130896Y-8834317D02*
X7111849Y-8824793D01*
X7111849Y-8824793D02*
X7102325Y-8805746D01*
X7102325Y-8805746D02*
X7102325Y-8796222D01*
X7102325Y-8796222D02*
X7111849Y-8777174D01*
X7111849Y-8777174D02*
X7130896Y-8767650D01*
X7130896Y-8767650D02*
X7159468Y-8767650D01*
X7159468Y-8767650D02*
X7178515Y-8777174D01*
X7302325Y-8900984D02*
X7283277Y-8891460D01*
X7283277Y-8891460D02*
X7273754Y-8872412D01*
X7273754Y-8872412D02*
X7273754Y-8700984D01*
X7407087Y-8900984D02*
X7388039Y-8891460D01*
X7388039Y-8891460D02*
X7378515Y-8881936D01*
X7378515Y-8881936D02*
X7368992Y-8862889D01*
X7368992Y-8862889D02*
X7368992Y-8805746D01*
X7368992Y-8805746D02*
X7378515Y-8786698D01*
X7378515Y-8786698D02*
X7388039Y-8777174D01*
X7388039Y-8777174D02*
X7407087Y-8767650D01*
X7407087Y-8767650D02*
X7435658Y-8767650D01*
X7435658Y-8767650D02*
X7454706Y-8777174D01*
X7454706Y-8777174D02*
X7464230Y-8786698D01*
X7464230Y-8786698D02*
X7473754Y-8805746D01*
X7473754Y-8805746D02*
X7473754Y-8862889D01*
X7473754Y-8862889D02*
X7464230Y-8881936D01*
X7464230Y-8881936D02*
X7454706Y-8891460D01*
X7454706Y-8891460D02*
X7435658Y-8900984D01*
X7435658Y-8900984D02*
X7407087Y-8900984D01*
X7530896Y-8767650D02*
X7607087Y-8767650D01*
X7559468Y-8700984D02*
X7559468Y-8872412D01*
X7559468Y-8872412D02*
X7568992Y-8891460D01*
X7568992Y-8891460D02*
X7588039Y-8900984D01*
X7588039Y-8900984D02*
X7607087Y-8900984D01*
X7664230Y-8891460D02*
X7683277Y-8900984D01*
X7683277Y-8900984D02*
X7721373Y-8900984D01*
X7721373Y-8900984D02*
X7740420Y-8891460D01*
X7740420Y-8891460D02*
X7749944Y-8872412D01*
X7749944Y-8872412D02*
X7749944Y-8862889D01*
X7749944Y-8862889D02*
X7740420Y-8843841D01*
X7740420Y-8843841D02*
X7721373Y-8834317D01*
X7721373Y-8834317D02*
X7692801Y-8834317D01*
X7692801Y-8834317D02*
X7673754Y-8824793D01*
X7673754Y-8824793D02*
X7664230Y-8805746D01*
X7664230Y-8805746D02*
X7664230Y-8796222D01*
X7664230Y-8796222D02*
X7673754Y-8777174D01*
X7673754Y-8777174D02*
X7692801Y-8767650D01*
X7692801Y-8767650D02*
X7721373Y-8767650D01*
X7721373Y-8767650D02*
X7740420Y-8777174D01*
X7816611Y-8977174D02*
X7826135Y-8967650D01*
X7826135Y-8967650D02*
X7845182Y-8939079D01*
X7845182Y-8939079D02*
X7854706Y-8920031D01*
X7854706Y-8920031D02*
X7864230Y-8891460D01*
X7864230Y-8891460D02*
X7873754Y-8843841D01*
X7873754Y-8843841D02*
X7873754Y-8805746D01*
X7873754Y-8805746D02*
X7864230Y-8758127D01*
X7864230Y-8758127D02*
X7854706Y-8729555D01*
X7854706Y-8729555D02*
X7845182Y-8710508D01*
X7845182Y-8710508D02*
X7826135Y-8681936D01*
X7826135Y-8681936D02*
X7816611Y-8672412D01*
D12*
X1384500Y-9111500D02*
X1422500Y-9073500D01*
X1384500Y-9035500D01*
X1346500Y-9073500D01*
X1384500Y-9111500D01*
D11*
X1721372Y-8964984D02*
X1740420Y-8964984D01*
X1740420Y-8964984D02*
X1759467Y-8974508D01*
X1759467Y-8974508D02*
X1768991Y-8984031D01*
X1768991Y-8984031D02*
X1778515Y-9003079D01*
X1778515Y-9003079D02*
X1788039Y-9041174D01*
X1788039Y-9041174D02*
X1788039Y-9088793D01*
X1788039Y-9088793D02*
X1778515Y-9126889D01*
X1778515Y-9126889D02*
X1768991Y-9145936D01*
X1768991Y-9145936D02*
X1759467Y-9155460D01*
X1759467Y-9155460D02*
X1740420Y-9164984D01*
X1740420Y-9164984D02*
X1721372Y-9164984D01*
X1721372Y-9164984D02*
X1702324Y-9155460D01*
X1702324Y-9155460D02*
X1692801Y-9145936D01*
X1692801Y-9145936D02*
X1683277Y-9126889D01*
X1683277Y-9126889D02*
X1673753Y-9088793D01*
X1673753Y-9088793D02*
X1673753Y-9041174D01*
X1673753Y-9041174D02*
X1683277Y-9003079D01*
X1683277Y-9003079D02*
X1692801Y-8984031D01*
X1692801Y-8984031D02*
X1702324Y-8974508D01*
X1702324Y-8974508D02*
X1721372Y-8964984D01*
X1873753Y-9145936D02*
X1883277Y-9155460D01*
X1883277Y-9155460D02*
X1873753Y-9164984D01*
X1873753Y-9164984D02*
X1864229Y-9155460D01*
X1864229Y-9155460D02*
X1873753Y-9145936D01*
X1873753Y-9145936D02*
X1873753Y-9164984D01*
X1949943Y-8964984D02*
X2083277Y-8964984D01*
X2083277Y-8964984D02*
X1997562Y-9164984D01*
X2245182Y-8964984D02*
X2207086Y-8964984D01*
X2207086Y-8964984D02*
X2188039Y-8974508D01*
X2188039Y-8974508D02*
X2178515Y-8984031D01*
X2178515Y-8984031D02*
X2159467Y-9012603D01*
X2159467Y-9012603D02*
X2149944Y-9050698D01*
X2149944Y-9050698D02*
X2149944Y-9126889D01*
X2149944Y-9126889D02*
X2159467Y-9145936D01*
X2159467Y-9145936D02*
X2168991Y-9155460D01*
X2168991Y-9155460D02*
X2188039Y-9164984D01*
X2188039Y-9164984D02*
X2226134Y-9164984D01*
X2226134Y-9164984D02*
X2245182Y-9155460D01*
X2245182Y-9155460D02*
X2254705Y-9145936D01*
X2254705Y-9145936D02*
X2264229Y-9126889D01*
X2264229Y-9126889D02*
X2264229Y-9079270D01*
X2264229Y-9079270D02*
X2254705Y-9060222D01*
X2254705Y-9060222D02*
X2245182Y-9050698D01*
X2245182Y-9050698D02*
X2226134Y-9041174D01*
X2226134Y-9041174D02*
X2188039Y-9041174D01*
X2188039Y-9041174D02*
X2168991Y-9050698D01*
X2168991Y-9050698D02*
X2159467Y-9060222D01*
X2159467Y-9060222D02*
X2149944Y-9079270D01*
X2388039Y-8964984D02*
X2407086Y-8964984D01*
X2407086Y-8964984D02*
X2426134Y-8974508D01*
X2426134Y-8974508D02*
X2435658Y-8984031D01*
X2435658Y-8984031D02*
X2445182Y-9003079D01*
X2445182Y-9003079D02*
X2454705Y-9041174D01*
X2454705Y-9041174D02*
X2454705Y-9088793D01*
X2454705Y-9088793D02*
X2445182Y-9126889D01*
X2445182Y-9126889D02*
X2435658Y-9145936D01*
X2435658Y-9145936D02*
X2426134Y-9155460D01*
X2426134Y-9155460D02*
X2407086Y-9164984D01*
X2407086Y-9164984D02*
X2388039Y-9164984D01*
X2388039Y-9164984D02*
X2368991Y-9155460D01*
X2368991Y-9155460D02*
X2359467Y-9145936D01*
X2359467Y-9145936D02*
X2349944Y-9126889D01*
X2349944Y-9126889D02*
X2340420Y-9088793D01*
X2340420Y-9088793D02*
X2340420Y-9041174D01*
X2340420Y-9041174D02*
X2349944Y-9003079D01*
X2349944Y-9003079D02*
X2359467Y-8984031D01*
X2359467Y-8984031D02*
X2368991Y-8974508D01*
X2368991Y-8974508D02*
X2388039Y-8964984D01*
X2540420Y-9164984D02*
X2540420Y-9031650D01*
X2540420Y-9050698D02*
X2549944Y-9041174D01*
X2549944Y-9041174D02*
X2568991Y-9031650D01*
X2568991Y-9031650D02*
X2597563Y-9031650D01*
X2597563Y-9031650D02*
X2616610Y-9041174D01*
X2616610Y-9041174D02*
X2626134Y-9060222D01*
X2626134Y-9060222D02*
X2626134Y-9164984D01*
X2626134Y-9060222D02*
X2635658Y-9041174D01*
X2635658Y-9041174D02*
X2654705Y-9031650D01*
X2654705Y-9031650D02*
X2683277Y-9031650D01*
X2683277Y-9031650D02*
X2702325Y-9041174D01*
X2702325Y-9041174D02*
X2711848Y-9060222D01*
X2711848Y-9060222D02*
X2711848Y-9164984D01*
X2807086Y-9164984D02*
X2807086Y-9031650D01*
X2807086Y-9050698D02*
X2816610Y-9041174D01*
X2816610Y-9041174D02*
X2835658Y-9031650D01*
X2835658Y-9031650D02*
X2864229Y-9031650D01*
X2864229Y-9031650D02*
X2883277Y-9041174D01*
X2883277Y-9041174D02*
X2892801Y-9060222D01*
X2892801Y-9060222D02*
X2892801Y-9164984D01*
X2892801Y-9060222D02*
X2902324Y-9041174D01*
X2902324Y-9041174D02*
X2921372Y-9031650D01*
X2921372Y-9031650D02*
X2949943Y-9031650D01*
X2949943Y-9031650D02*
X2968991Y-9041174D01*
X2968991Y-9041174D02*
X2978515Y-9060222D01*
X2978515Y-9060222D02*
X2978515Y-9164984D01*
X3368991Y-8955460D02*
X3197563Y-9212603D01*
X3626134Y-8964984D02*
X3645182Y-8964984D01*
X3645182Y-8964984D02*
X3664229Y-8974508D01*
X3664229Y-8974508D02*
X3673753Y-8984031D01*
X3673753Y-8984031D02*
X3683277Y-9003079D01*
X3683277Y-9003079D02*
X3692801Y-9041174D01*
X3692801Y-9041174D02*
X3692801Y-9088793D01*
X3692801Y-9088793D02*
X3683277Y-9126889D01*
X3683277Y-9126889D02*
X3673753Y-9145936D01*
X3673753Y-9145936D02*
X3664229Y-9155460D01*
X3664229Y-9155460D02*
X3645182Y-9164984D01*
X3645182Y-9164984D02*
X3626134Y-9164984D01*
X3626134Y-9164984D02*
X3607086Y-9155460D01*
X3607086Y-9155460D02*
X3597563Y-9145936D01*
X3597563Y-9145936D02*
X3588039Y-9126889D01*
X3588039Y-9126889D02*
X3578515Y-9088793D01*
X3578515Y-9088793D02*
X3578515Y-9041174D01*
X3578515Y-9041174D02*
X3588039Y-9003079D01*
X3588039Y-9003079D02*
X3597563Y-8984031D01*
X3597563Y-8984031D02*
X3607086Y-8974508D01*
X3607086Y-8974508D02*
X3626134Y-8964984D01*
X3778515Y-9145936D02*
X3788039Y-9155460D01*
X3788039Y-9155460D02*
X3778515Y-9164984D01*
X3778515Y-9164984D02*
X3768991Y-9155460D01*
X3768991Y-9155460D02*
X3778515Y-9145936D01*
X3778515Y-9145936D02*
X3778515Y-9164984D01*
X3911848Y-8964984D02*
X3930896Y-8964984D01*
X3930896Y-8964984D02*
X3949944Y-8974508D01*
X3949944Y-8974508D02*
X3959467Y-8984031D01*
X3959467Y-8984031D02*
X3968991Y-9003079D01*
X3968991Y-9003079D02*
X3978515Y-9041174D01*
X3978515Y-9041174D02*
X3978515Y-9088793D01*
X3978515Y-9088793D02*
X3968991Y-9126889D01*
X3968991Y-9126889D02*
X3959467Y-9145936D01*
X3959467Y-9145936D02*
X3949944Y-9155460D01*
X3949944Y-9155460D02*
X3930896Y-9164984D01*
X3930896Y-9164984D02*
X3911848Y-9164984D01*
X3911848Y-9164984D02*
X3892801Y-9155460D01*
X3892801Y-9155460D02*
X3883277Y-9145936D01*
X3883277Y-9145936D02*
X3873753Y-9126889D01*
X3873753Y-9126889D02*
X3864229Y-9088793D01*
X3864229Y-9088793D02*
X3864229Y-9041174D01*
X3864229Y-9041174D02*
X3873753Y-9003079D01*
X3873753Y-9003079D02*
X3883277Y-8984031D01*
X3883277Y-8984031D02*
X3892801Y-8974508D01*
X3892801Y-8974508D02*
X3911848Y-8964984D01*
X4054706Y-8984031D02*
X4064229Y-8974508D01*
X4064229Y-8974508D02*
X4083277Y-8964984D01*
X4083277Y-8964984D02*
X4130896Y-8964984D01*
X4130896Y-8964984D02*
X4149944Y-8974508D01*
X4149944Y-8974508D02*
X4159467Y-8984031D01*
X4159467Y-8984031D02*
X4168991Y-9003079D01*
X4168991Y-9003079D02*
X4168991Y-9022127D01*
X4168991Y-9022127D02*
X4159467Y-9050698D01*
X4159467Y-9050698D02*
X4045182Y-9164984D01*
X4045182Y-9164984D02*
X4168991Y-9164984D01*
X4264229Y-9164984D02*
X4302325Y-9164984D01*
X4302325Y-9164984D02*
X4321372Y-9155460D01*
X4321372Y-9155460D02*
X4330896Y-9145936D01*
X4330896Y-9145936D02*
X4349944Y-9117365D01*
X4349944Y-9117365D02*
X4359468Y-9079270D01*
X4359468Y-9079270D02*
X4359468Y-9003079D01*
X4359468Y-9003079D02*
X4349944Y-8984031D01*
X4349944Y-8984031D02*
X4340420Y-8974508D01*
X4340420Y-8974508D02*
X4321372Y-8964984D01*
X4321372Y-8964984D02*
X4283277Y-8964984D01*
X4283277Y-8964984D02*
X4264229Y-8974508D01*
X4264229Y-8974508D02*
X4254706Y-8984031D01*
X4254706Y-8984031D02*
X4245182Y-9003079D01*
X4245182Y-9003079D02*
X4245182Y-9050698D01*
X4245182Y-9050698D02*
X4254706Y-9069746D01*
X4254706Y-9069746D02*
X4264229Y-9079270D01*
X4264229Y-9079270D02*
X4283277Y-9088793D01*
X4283277Y-9088793D02*
X4321372Y-9088793D01*
X4321372Y-9088793D02*
X4340420Y-9079270D01*
X4340420Y-9079270D02*
X4349944Y-9069746D01*
X4349944Y-9069746D02*
X4359468Y-9050698D01*
X4454706Y-9164984D02*
X4492801Y-9164984D01*
X4492801Y-9164984D02*
X4511849Y-9155460D01*
X4511849Y-9155460D02*
X4521372Y-9145936D01*
X4521372Y-9145936D02*
X4540420Y-9117365D01*
X4540420Y-9117365D02*
X4549944Y-9079270D01*
X4549944Y-9079270D02*
X4549944Y-9003079D01*
X4549944Y-9003079D02*
X4540420Y-8984031D01*
X4540420Y-8984031D02*
X4530896Y-8974508D01*
X4530896Y-8974508D02*
X4511849Y-8964984D01*
X4511849Y-8964984D02*
X4473753Y-8964984D01*
X4473753Y-8964984D02*
X4454706Y-8974508D01*
X4454706Y-8974508D02*
X4445182Y-8984031D01*
X4445182Y-8984031D02*
X4435658Y-9003079D01*
X4435658Y-9003079D02*
X4435658Y-9050698D01*
X4435658Y-9050698D02*
X4445182Y-9069746D01*
X4445182Y-9069746D02*
X4454706Y-9079270D01*
X4454706Y-9079270D02*
X4473753Y-9088793D01*
X4473753Y-9088793D02*
X4511849Y-9088793D01*
X4511849Y-9088793D02*
X4530896Y-9079270D01*
X4530896Y-9079270D02*
X4540420Y-9069746D01*
X4540420Y-9069746D02*
X4549944Y-9050698D01*
X4626134Y-8964984D02*
X4626134Y-9003079D01*
X4702325Y-8964984D02*
X4702325Y-9003079D01*
X4997563Y-9241174D02*
X4988039Y-9231650D01*
X4988039Y-9231650D02*
X4968991Y-9203079D01*
X4968991Y-9203079D02*
X4959468Y-9184031D01*
X4959468Y-9184031D02*
X4949944Y-9155460D01*
X4949944Y-9155460D02*
X4940420Y-9107841D01*
X4940420Y-9107841D02*
X4940420Y-9069746D01*
X4940420Y-9069746D02*
X4949944Y-9022127D01*
X4949944Y-9022127D02*
X4959468Y-8993555D01*
X4959468Y-8993555D02*
X4968991Y-8974508D01*
X4968991Y-8974508D02*
X4988039Y-8945936D01*
X4988039Y-8945936D02*
X4997563Y-8936412D01*
X5102325Y-9050698D02*
X5083277Y-9041174D01*
X5083277Y-9041174D02*
X5073753Y-9031650D01*
X5073753Y-9031650D02*
X5064230Y-9012603D01*
X5064230Y-9012603D02*
X5064230Y-9003079D01*
X5064230Y-9003079D02*
X5073753Y-8984031D01*
X5073753Y-8984031D02*
X5083277Y-8974508D01*
X5083277Y-8974508D02*
X5102325Y-8964984D01*
X5102325Y-8964984D02*
X5140420Y-8964984D01*
X5140420Y-8964984D02*
X5159468Y-8974508D01*
X5159468Y-8974508D02*
X5168991Y-8984031D01*
X5168991Y-8984031D02*
X5178515Y-9003079D01*
X5178515Y-9003079D02*
X5178515Y-9012603D01*
X5178515Y-9012603D02*
X5168991Y-9031650D01*
X5168991Y-9031650D02*
X5159468Y-9041174D01*
X5159468Y-9041174D02*
X5140420Y-9050698D01*
X5140420Y-9050698D02*
X5102325Y-9050698D01*
X5102325Y-9050698D02*
X5083277Y-9060222D01*
X5083277Y-9060222D02*
X5073753Y-9069746D01*
X5073753Y-9069746D02*
X5064230Y-9088793D01*
X5064230Y-9088793D02*
X5064230Y-9126889D01*
X5064230Y-9126889D02*
X5073753Y-9145936D01*
X5073753Y-9145936D02*
X5083277Y-9155460D01*
X5083277Y-9155460D02*
X5102325Y-9164984D01*
X5102325Y-9164984D02*
X5140420Y-9164984D01*
X5140420Y-9164984D02*
X5159468Y-9155460D01*
X5159468Y-9155460D02*
X5168991Y-9145936D01*
X5168991Y-9145936D02*
X5178515Y-9126889D01*
X5178515Y-9126889D02*
X5178515Y-9088793D01*
X5178515Y-9088793D02*
X5168991Y-9069746D01*
X5168991Y-9069746D02*
X5159468Y-9060222D01*
X5159468Y-9060222D02*
X5140420Y-9050698D01*
X5416611Y-9164984D02*
X5416611Y-8964984D01*
X5502325Y-9164984D02*
X5502325Y-9060222D01*
X5502325Y-9060222D02*
X5492801Y-9041174D01*
X5492801Y-9041174D02*
X5473753Y-9031650D01*
X5473753Y-9031650D02*
X5445182Y-9031650D01*
X5445182Y-9031650D02*
X5426134Y-9041174D01*
X5426134Y-9041174D02*
X5416611Y-9050698D01*
X5626134Y-9164984D02*
X5607087Y-9155460D01*
X5607087Y-9155460D02*
X5597563Y-9145936D01*
X5597563Y-9145936D02*
X5588039Y-9126889D01*
X5588039Y-9126889D02*
X5588039Y-9069746D01*
X5588039Y-9069746D02*
X5597563Y-9050698D01*
X5597563Y-9050698D02*
X5607087Y-9041174D01*
X5607087Y-9041174D02*
X5626134Y-9031650D01*
X5626134Y-9031650D02*
X5654706Y-9031650D01*
X5654706Y-9031650D02*
X5673753Y-9041174D01*
X5673753Y-9041174D02*
X5683277Y-9050698D01*
X5683277Y-9050698D02*
X5692801Y-9069746D01*
X5692801Y-9069746D02*
X5692801Y-9126889D01*
X5692801Y-9126889D02*
X5683277Y-9145936D01*
X5683277Y-9145936D02*
X5673753Y-9155460D01*
X5673753Y-9155460D02*
X5654706Y-9164984D01*
X5654706Y-9164984D02*
X5626134Y-9164984D01*
X5807087Y-9164984D02*
X5788039Y-9155460D01*
X5788039Y-9155460D02*
X5778515Y-9136412D01*
X5778515Y-9136412D02*
X5778515Y-8964984D01*
X5959468Y-9155460D02*
X5940420Y-9164984D01*
X5940420Y-9164984D02*
X5902325Y-9164984D01*
X5902325Y-9164984D02*
X5883277Y-9155460D01*
X5883277Y-9155460D02*
X5873753Y-9136412D01*
X5873753Y-9136412D02*
X5873753Y-9060222D01*
X5873753Y-9060222D02*
X5883277Y-9041174D01*
X5883277Y-9041174D02*
X5902325Y-9031650D01*
X5902325Y-9031650D02*
X5940420Y-9031650D01*
X5940420Y-9031650D02*
X5959468Y-9041174D01*
X5959468Y-9041174D02*
X5968991Y-9060222D01*
X5968991Y-9060222D02*
X5968991Y-9079270D01*
X5968991Y-9079270D02*
X5873753Y-9098317D01*
X6045182Y-9155460D02*
X6064230Y-9164984D01*
X6064230Y-9164984D02*
X6102325Y-9164984D01*
X6102325Y-9164984D02*
X6121372Y-9155460D01*
X6121372Y-9155460D02*
X6130896Y-9136412D01*
X6130896Y-9136412D02*
X6130896Y-9126889D01*
X6130896Y-9126889D02*
X6121372Y-9107841D01*
X6121372Y-9107841D02*
X6102325Y-9098317D01*
X6102325Y-9098317D02*
X6073753Y-9098317D01*
X6073753Y-9098317D02*
X6054706Y-9088793D01*
X6054706Y-9088793D02*
X6045182Y-9069746D01*
X6045182Y-9069746D02*
X6045182Y-9060222D01*
X6045182Y-9060222D02*
X6054706Y-9041174D01*
X6054706Y-9041174D02*
X6073753Y-9031650D01*
X6073753Y-9031650D02*
X6102325Y-9031650D01*
X6102325Y-9031650D02*
X6121372Y-9041174D01*
X6197563Y-9241174D02*
X6207087Y-9231650D01*
X6207087Y-9231650D02*
X6226134Y-9203079D01*
X6226134Y-9203079D02*
X6235658Y-9184031D01*
X6235658Y-9184031D02*
X6245182Y-9155460D01*
X6245182Y-9155460D02*
X6254706Y-9107841D01*
X6254706Y-9107841D02*
X6254706Y-9069746D01*
X6254706Y-9069746D02*
X6245182Y-9022127D01*
X6245182Y-9022127D02*
X6235658Y-8993555D01*
X6235658Y-8993555D02*
X6226134Y-8974508D01*
X6226134Y-8974508D02*
X6207087Y-8945936D01*
X6207087Y-8945936D02*
X6197563Y-8936412D01*
D12*
X1322500Y-9287500D02*
X1422500Y-9387500D01*
X1422500Y-9287500D02*
X1322500Y-9387500D01*
X1422500Y-9337500D02*
G75*
G02*
X1322500Y-9337500I-50000J0D01*
G01*
X1322500Y-9337500D02*
G75*
G02*
X1422500Y-9337500I50000J0D01*
G01*
D11*
X1788039Y-9428984D02*
X1673753Y-9428984D01*
X1730896Y-9428984D02*
X1730896Y-9228984D01*
X1730896Y-9228984D02*
X1711848Y-9257555D01*
X1711848Y-9257555D02*
X1692801Y-9276603D01*
X1692801Y-9276603D02*
X1673753Y-9286127D01*
X1873753Y-9409936D02*
X1883277Y-9419460D01*
X1883277Y-9419460D02*
X1873753Y-9428984D01*
X1873753Y-9428984D02*
X1864229Y-9419460D01*
X1864229Y-9419460D02*
X1873753Y-9409936D01*
X1873753Y-9409936D02*
X1873753Y-9428984D01*
X2007086Y-9228984D02*
X2026134Y-9228984D01*
X2026134Y-9228984D02*
X2045182Y-9238508D01*
X2045182Y-9238508D02*
X2054705Y-9248031D01*
X2054705Y-9248031D02*
X2064229Y-9267079D01*
X2064229Y-9267079D02*
X2073753Y-9305174D01*
X2073753Y-9305174D02*
X2073753Y-9352793D01*
X2073753Y-9352793D02*
X2064229Y-9390889D01*
X2064229Y-9390889D02*
X2054705Y-9409936D01*
X2054705Y-9409936D02*
X2045182Y-9419460D01*
X2045182Y-9419460D02*
X2026134Y-9428984D01*
X2026134Y-9428984D02*
X2007086Y-9428984D01*
X2007086Y-9428984D02*
X1988039Y-9419460D01*
X1988039Y-9419460D02*
X1978515Y-9409936D01*
X1978515Y-9409936D02*
X1968991Y-9390889D01*
X1968991Y-9390889D02*
X1959467Y-9352793D01*
X1959467Y-9352793D02*
X1959467Y-9305174D01*
X1959467Y-9305174D02*
X1968991Y-9267079D01*
X1968991Y-9267079D02*
X1978515Y-9248031D01*
X1978515Y-9248031D02*
X1988039Y-9238508D01*
X1988039Y-9238508D02*
X2007086Y-9228984D01*
X2197563Y-9228984D02*
X2216610Y-9228984D01*
X2216610Y-9228984D02*
X2235658Y-9238508D01*
X2235658Y-9238508D02*
X2245182Y-9248031D01*
X2245182Y-9248031D02*
X2254705Y-9267079D01*
X2254705Y-9267079D02*
X2264229Y-9305174D01*
X2264229Y-9305174D02*
X2264229Y-9352793D01*
X2264229Y-9352793D02*
X2254705Y-9390889D01*
X2254705Y-9390889D02*
X2245182Y-9409936D01*
X2245182Y-9409936D02*
X2235658Y-9419460D01*
X2235658Y-9419460D02*
X2216610Y-9428984D01*
X2216610Y-9428984D02*
X2197563Y-9428984D01*
X2197563Y-9428984D02*
X2178515Y-9419460D01*
X2178515Y-9419460D02*
X2168991Y-9409936D01*
X2168991Y-9409936D02*
X2159467Y-9390889D01*
X2159467Y-9390889D02*
X2149944Y-9352793D01*
X2149944Y-9352793D02*
X2149944Y-9305174D01*
X2149944Y-9305174D02*
X2159467Y-9267079D01*
X2159467Y-9267079D02*
X2168991Y-9248031D01*
X2168991Y-9248031D02*
X2178515Y-9238508D01*
X2178515Y-9238508D02*
X2197563Y-9228984D01*
X2388039Y-9228984D02*
X2407086Y-9228984D01*
X2407086Y-9228984D02*
X2426134Y-9238508D01*
X2426134Y-9238508D02*
X2435658Y-9248031D01*
X2435658Y-9248031D02*
X2445182Y-9267079D01*
X2445182Y-9267079D02*
X2454705Y-9305174D01*
X2454705Y-9305174D02*
X2454705Y-9352793D01*
X2454705Y-9352793D02*
X2445182Y-9390889D01*
X2445182Y-9390889D02*
X2435658Y-9409936D01*
X2435658Y-9409936D02*
X2426134Y-9419460D01*
X2426134Y-9419460D02*
X2407086Y-9428984D01*
X2407086Y-9428984D02*
X2388039Y-9428984D01*
X2388039Y-9428984D02*
X2368991Y-9419460D01*
X2368991Y-9419460D02*
X2359467Y-9409936D01*
X2359467Y-9409936D02*
X2349944Y-9390889D01*
X2349944Y-9390889D02*
X2340420Y-9352793D01*
X2340420Y-9352793D02*
X2340420Y-9305174D01*
X2340420Y-9305174D02*
X2349944Y-9267079D01*
X2349944Y-9267079D02*
X2359467Y-9248031D01*
X2359467Y-9248031D02*
X2368991Y-9238508D01*
X2368991Y-9238508D02*
X2388039Y-9228984D01*
X2540420Y-9428984D02*
X2540420Y-9295650D01*
X2540420Y-9314698D02*
X2549944Y-9305174D01*
X2549944Y-9305174D02*
X2568991Y-9295650D01*
X2568991Y-9295650D02*
X2597563Y-9295650D01*
X2597563Y-9295650D02*
X2616610Y-9305174D01*
X2616610Y-9305174D02*
X2626134Y-9324222D01*
X2626134Y-9324222D02*
X2626134Y-9428984D01*
X2626134Y-9324222D02*
X2635658Y-9305174D01*
X2635658Y-9305174D02*
X2654705Y-9295650D01*
X2654705Y-9295650D02*
X2683277Y-9295650D01*
X2683277Y-9295650D02*
X2702325Y-9305174D01*
X2702325Y-9305174D02*
X2711848Y-9324222D01*
X2711848Y-9324222D02*
X2711848Y-9428984D01*
X2807086Y-9428984D02*
X2807086Y-9295650D01*
X2807086Y-9314698D02*
X2816610Y-9305174D01*
X2816610Y-9305174D02*
X2835658Y-9295650D01*
X2835658Y-9295650D02*
X2864229Y-9295650D01*
X2864229Y-9295650D02*
X2883277Y-9305174D01*
X2883277Y-9305174D02*
X2892801Y-9324222D01*
X2892801Y-9324222D02*
X2892801Y-9428984D01*
X2892801Y-9324222D02*
X2902324Y-9305174D01*
X2902324Y-9305174D02*
X2921372Y-9295650D01*
X2921372Y-9295650D02*
X2949943Y-9295650D01*
X2949943Y-9295650D02*
X2968991Y-9305174D01*
X2968991Y-9305174D02*
X2978515Y-9324222D01*
X2978515Y-9324222D02*
X2978515Y-9428984D01*
X3368991Y-9219460D02*
X3197563Y-9476603D01*
X3626134Y-9228984D02*
X3645182Y-9228984D01*
X3645182Y-9228984D02*
X3664229Y-9238508D01*
X3664229Y-9238508D02*
X3673753Y-9248031D01*
X3673753Y-9248031D02*
X3683277Y-9267079D01*
X3683277Y-9267079D02*
X3692801Y-9305174D01*
X3692801Y-9305174D02*
X3692801Y-9352793D01*
X3692801Y-9352793D02*
X3683277Y-9390889D01*
X3683277Y-9390889D02*
X3673753Y-9409936D01*
X3673753Y-9409936D02*
X3664229Y-9419460D01*
X3664229Y-9419460D02*
X3645182Y-9428984D01*
X3645182Y-9428984D02*
X3626134Y-9428984D01*
X3626134Y-9428984D02*
X3607086Y-9419460D01*
X3607086Y-9419460D02*
X3597563Y-9409936D01*
X3597563Y-9409936D02*
X3588039Y-9390889D01*
X3588039Y-9390889D02*
X3578515Y-9352793D01*
X3578515Y-9352793D02*
X3578515Y-9305174D01*
X3578515Y-9305174D02*
X3588039Y-9267079D01*
X3588039Y-9267079D02*
X3597563Y-9248031D01*
X3597563Y-9248031D02*
X3607086Y-9238508D01*
X3607086Y-9238508D02*
X3626134Y-9228984D01*
X3778515Y-9409936D02*
X3788039Y-9419460D01*
X3788039Y-9419460D02*
X3778515Y-9428984D01*
X3778515Y-9428984D02*
X3768991Y-9419460D01*
X3768991Y-9419460D02*
X3778515Y-9409936D01*
X3778515Y-9409936D02*
X3778515Y-9428984D01*
X3911848Y-9228984D02*
X3930896Y-9228984D01*
X3930896Y-9228984D02*
X3949944Y-9238508D01*
X3949944Y-9238508D02*
X3959467Y-9248031D01*
X3959467Y-9248031D02*
X3968991Y-9267079D01*
X3968991Y-9267079D02*
X3978515Y-9305174D01*
X3978515Y-9305174D02*
X3978515Y-9352793D01*
X3978515Y-9352793D02*
X3968991Y-9390889D01*
X3968991Y-9390889D02*
X3959467Y-9409936D01*
X3959467Y-9409936D02*
X3949944Y-9419460D01*
X3949944Y-9419460D02*
X3930896Y-9428984D01*
X3930896Y-9428984D02*
X3911848Y-9428984D01*
X3911848Y-9428984D02*
X3892801Y-9419460D01*
X3892801Y-9419460D02*
X3883277Y-9409936D01*
X3883277Y-9409936D02*
X3873753Y-9390889D01*
X3873753Y-9390889D02*
X3864229Y-9352793D01*
X3864229Y-9352793D02*
X3864229Y-9305174D01*
X3864229Y-9305174D02*
X3873753Y-9267079D01*
X3873753Y-9267079D02*
X3883277Y-9248031D01*
X3883277Y-9248031D02*
X3892801Y-9238508D01*
X3892801Y-9238508D02*
X3911848Y-9228984D01*
X4045182Y-9228984D02*
X4168991Y-9228984D01*
X4168991Y-9228984D02*
X4102325Y-9305174D01*
X4102325Y-9305174D02*
X4130896Y-9305174D01*
X4130896Y-9305174D02*
X4149944Y-9314698D01*
X4149944Y-9314698D02*
X4159467Y-9324222D01*
X4159467Y-9324222D02*
X4168991Y-9343270D01*
X4168991Y-9343270D02*
X4168991Y-9390889D01*
X4168991Y-9390889D02*
X4159467Y-9409936D01*
X4159467Y-9409936D02*
X4149944Y-9419460D01*
X4149944Y-9419460D02*
X4130896Y-9428984D01*
X4130896Y-9428984D02*
X4073753Y-9428984D01*
X4073753Y-9428984D02*
X4054706Y-9419460D01*
X4054706Y-9419460D02*
X4045182Y-9409936D01*
X4264229Y-9428984D02*
X4302325Y-9428984D01*
X4302325Y-9428984D02*
X4321372Y-9419460D01*
X4321372Y-9419460D02*
X4330896Y-9409936D01*
X4330896Y-9409936D02*
X4349944Y-9381365D01*
X4349944Y-9381365D02*
X4359468Y-9343270D01*
X4359468Y-9343270D02*
X4359468Y-9267079D01*
X4359468Y-9267079D02*
X4349944Y-9248031D01*
X4349944Y-9248031D02*
X4340420Y-9238508D01*
X4340420Y-9238508D02*
X4321372Y-9228984D01*
X4321372Y-9228984D02*
X4283277Y-9228984D01*
X4283277Y-9228984D02*
X4264229Y-9238508D01*
X4264229Y-9238508D02*
X4254706Y-9248031D01*
X4254706Y-9248031D02*
X4245182Y-9267079D01*
X4245182Y-9267079D02*
X4245182Y-9314698D01*
X4245182Y-9314698D02*
X4254706Y-9333746D01*
X4254706Y-9333746D02*
X4264229Y-9343270D01*
X4264229Y-9343270D02*
X4283277Y-9352793D01*
X4283277Y-9352793D02*
X4321372Y-9352793D01*
X4321372Y-9352793D02*
X4340420Y-9343270D01*
X4340420Y-9343270D02*
X4349944Y-9333746D01*
X4349944Y-9333746D02*
X4359468Y-9314698D01*
X4530896Y-9295650D02*
X4530896Y-9428984D01*
X4483277Y-9219460D02*
X4435658Y-9362317D01*
X4435658Y-9362317D02*
X4559468Y-9362317D01*
X4626134Y-9228984D02*
X4626134Y-9267079D01*
X4702325Y-9228984D02*
X4702325Y-9267079D01*
X4997563Y-9505174D02*
X4988039Y-9495650D01*
X4988039Y-9495650D02*
X4968991Y-9467079D01*
X4968991Y-9467079D02*
X4959468Y-9448031D01*
X4959468Y-9448031D02*
X4949944Y-9419460D01*
X4949944Y-9419460D02*
X4940420Y-9371841D01*
X4940420Y-9371841D02*
X4940420Y-9333746D01*
X4940420Y-9333746D02*
X4949944Y-9286127D01*
X4949944Y-9286127D02*
X4959468Y-9257555D01*
X4959468Y-9257555D02*
X4968991Y-9238508D01*
X4968991Y-9238508D02*
X4988039Y-9209936D01*
X4988039Y-9209936D02*
X4997563Y-9200412D01*
X5054706Y-9228984D02*
X5178515Y-9228984D01*
X5178515Y-9228984D02*
X5111849Y-9305174D01*
X5111849Y-9305174D02*
X5140420Y-9305174D01*
X5140420Y-9305174D02*
X5159468Y-9314698D01*
X5159468Y-9314698D02*
X5168991Y-9324222D01*
X5168991Y-9324222D02*
X5178515Y-9343270D01*
X5178515Y-9343270D02*
X5178515Y-9390889D01*
X5178515Y-9390889D02*
X5168991Y-9409936D01*
X5168991Y-9409936D02*
X5159468Y-9419460D01*
X5159468Y-9419460D02*
X5140420Y-9428984D01*
X5140420Y-9428984D02*
X5083277Y-9428984D01*
X5083277Y-9428984D02*
X5064230Y-9419460D01*
X5064230Y-9419460D02*
X5054706Y-9409936D01*
X5416611Y-9428984D02*
X5416611Y-9228984D01*
X5502325Y-9428984D02*
X5502325Y-9324222D01*
X5502325Y-9324222D02*
X5492801Y-9305174D01*
X5492801Y-9305174D02*
X5473753Y-9295650D01*
X5473753Y-9295650D02*
X5445182Y-9295650D01*
X5445182Y-9295650D02*
X5426134Y-9305174D01*
X5426134Y-9305174D02*
X5416611Y-9314698D01*
X5626134Y-9428984D02*
X5607087Y-9419460D01*
X5607087Y-9419460D02*
X5597563Y-9409936D01*
X5597563Y-9409936D02*
X5588039Y-9390889D01*
X5588039Y-9390889D02*
X5588039Y-9333746D01*
X5588039Y-9333746D02*
X5597563Y-9314698D01*
X5597563Y-9314698D02*
X5607087Y-9305174D01*
X5607087Y-9305174D02*
X5626134Y-9295650D01*
X5626134Y-9295650D02*
X5654706Y-9295650D01*
X5654706Y-9295650D02*
X5673753Y-9305174D01*
X5673753Y-9305174D02*
X5683277Y-9314698D01*
X5683277Y-9314698D02*
X5692801Y-9333746D01*
X5692801Y-9333746D02*
X5692801Y-9390889D01*
X5692801Y-9390889D02*
X5683277Y-9409936D01*
X5683277Y-9409936D02*
X5673753Y-9419460D01*
X5673753Y-9419460D02*
X5654706Y-9428984D01*
X5654706Y-9428984D02*
X5626134Y-9428984D01*
X5807087Y-9428984D02*
X5788039Y-9419460D01*
X5788039Y-9419460D02*
X5778515Y-9400412D01*
X5778515Y-9400412D02*
X5778515Y-9228984D01*
X5959468Y-9419460D02*
X5940420Y-9428984D01*
X5940420Y-9428984D02*
X5902325Y-9428984D01*
X5902325Y-9428984D02*
X5883277Y-9419460D01*
X5883277Y-9419460D02*
X5873753Y-9400412D01*
X5873753Y-9400412D02*
X5873753Y-9324222D01*
X5873753Y-9324222D02*
X5883277Y-9305174D01*
X5883277Y-9305174D02*
X5902325Y-9295650D01*
X5902325Y-9295650D02*
X5940420Y-9295650D01*
X5940420Y-9295650D02*
X5959468Y-9305174D01*
X5959468Y-9305174D02*
X5968991Y-9324222D01*
X5968991Y-9324222D02*
X5968991Y-9343270D01*
X5968991Y-9343270D02*
X5873753Y-9362317D01*
X6045182Y-9419460D02*
X6064230Y-9428984D01*
X6064230Y-9428984D02*
X6102325Y-9428984D01*
X6102325Y-9428984D02*
X6121372Y-9419460D01*
X6121372Y-9419460D02*
X6130896Y-9400412D01*
X6130896Y-9400412D02*
X6130896Y-9390889D01*
X6130896Y-9390889D02*
X6121372Y-9371841D01*
X6121372Y-9371841D02*
X6102325Y-9362317D01*
X6102325Y-9362317D02*
X6073753Y-9362317D01*
X6073753Y-9362317D02*
X6054706Y-9352793D01*
X6054706Y-9352793D02*
X6045182Y-9333746D01*
X6045182Y-9333746D02*
X6045182Y-9324222D01*
X6045182Y-9324222D02*
X6054706Y-9305174D01*
X6054706Y-9305174D02*
X6073753Y-9295650D01*
X6073753Y-9295650D02*
X6102325Y-9295650D01*
X6102325Y-9295650D02*
X6121372Y-9305174D01*
X6197563Y-9505174D02*
X6207087Y-9495650D01*
X6207087Y-9495650D02*
X6226134Y-9467079D01*
X6226134Y-9467079D02*
X6235658Y-9448031D01*
X6235658Y-9448031D02*
X6245182Y-9419460D01*
X6245182Y-9419460D02*
X6254706Y-9371841D01*
X6254706Y-9371841D02*
X6254706Y-9333746D01*
X6254706Y-9333746D02*
X6245182Y-9286127D01*
X6245182Y-9286127D02*
X6235658Y-9257555D01*
X6235658Y-9257555D02*
X6226134Y-9238508D01*
X6226134Y-9238508D02*
X6207087Y-9209936D01*
X6207087Y-9209936D02*
X6197563Y-9200412D01*
D13*
X1302500Y-9541500D02*
X1422500Y-9661500D01*
X1422500Y-9541500D02*
X1302500Y-9661500D01*
X1362500Y-9541500D02*
X1362500Y-9661500D01*
X1302500Y-9601500D02*
X1422500Y-9601500D01*
D11*
X1788039Y-9692984D02*
X1673753Y-9692984D01*
X1730896Y-9692984D02*
X1730896Y-9492984D01*
X1730896Y-9492984D02*
X1711848Y-9521555D01*
X1711848Y-9521555D02*
X1692801Y-9540603D01*
X1692801Y-9540603D02*
X1673753Y-9550127D01*
X1873753Y-9673936D02*
X1883277Y-9683460D01*
X1883277Y-9683460D02*
X1873753Y-9692984D01*
X1873753Y-9692984D02*
X1864229Y-9683460D01*
X1864229Y-9683460D02*
X1873753Y-9673936D01*
X1873753Y-9673936D02*
X1873753Y-9692984D01*
X1959467Y-9512031D02*
X1968991Y-9502508D01*
X1968991Y-9502508D02*
X1988039Y-9492984D01*
X1988039Y-9492984D02*
X2035658Y-9492984D01*
X2035658Y-9492984D02*
X2054705Y-9502508D01*
X2054705Y-9502508D02*
X2064229Y-9512031D01*
X2064229Y-9512031D02*
X2073753Y-9531079D01*
X2073753Y-9531079D02*
X2073753Y-9550127D01*
X2073753Y-9550127D02*
X2064229Y-9578698D01*
X2064229Y-9578698D02*
X1949943Y-9692984D01*
X1949943Y-9692984D02*
X2073753Y-9692984D01*
X2197563Y-9492984D02*
X2216610Y-9492984D01*
X2216610Y-9492984D02*
X2235658Y-9502508D01*
X2235658Y-9502508D02*
X2245182Y-9512031D01*
X2245182Y-9512031D02*
X2254705Y-9531079D01*
X2254705Y-9531079D02*
X2264229Y-9569174D01*
X2264229Y-9569174D02*
X2264229Y-9616793D01*
X2264229Y-9616793D02*
X2254705Y-9654889D01*
X2254705Y-9654889D02*
X2245182Y-9673936D01*
X2245182Y-9673936D02*
X2235658Y-9683460D01*
X2235658Y-9683460D02*
X2216610Y-9692984D01*
X2216610Y-9692984D02*
X2197563Y-9692984D01*
X2197563Y-9692984D02*
X2178515Y-9683460D01*
X2178515Y-9683460D02*
X2168991Y-9673936D01*
X2168991Y-9673936D02*
X2159467Y-9654889D01*
X2159467Y-9654889D02*
X2149944Y-9616793D01*
X2149944Y-9616793D02*
X2149944Y-9569174D01*
X2149944Y-9569174D02*
X2159467Y-9531079D01*
X2159467Y-9531079D02*
X2168991Y-9512031D01*
X2168991Y-9512031D02*
X2178515Y-9502508D01*
X2178515Y-9502508D02*
X2197563Y-9492984D01*
X2388039Y-9492984D02*
X2407086Y-9492984D01*
X2407086Y-9492984D02*
X2426134Y-9502508D01*
X2426134Y-9502508D02*
X2435658Y-9512031D01*
X2435658Y-9512031D02*
X2445182Y-9531079D01*
X2445182Y-9531079D02*
X2454705Y-9569174D01*
X2454705Y-9569174D02*
X2454705Y-9616793D01*
X2454705Y-9616793D02*
X2445182Y-9654889D01*
X2445182Y-9654889D02*
X2435658Y-9673936D01*
X2435658Y-9673936D02*
X2426134Y-9683460D01*
X2426134Y-9683460D02*
X2407086Y-9692984D01*
X2407086Y-9692984D02*
X2388039Y-9692984D01*
X2388039Y-9692984D02*
X2368991Y-9683460D01*
X2368991Y-9683460D02*
X2359467Y-9673936D01*
X2359467Y-9673936D02*
X2349944Y-9654889D01*
X2349944Y-9654889D02*
X2340420Y-9616793D01*
X2340420Y-9616793D02*
X2340420Y-9569174D01*
X2340420Y-9569174D02*
X2349944Y-9531079D01*
X2349944Y-9531079D02*
X2359467Y-9512031D01*
X2359467Y-9512031D02*
X2368991Y-9502508D01*
X2368991Y-9502508D02*
X2388039Y-9492984D01*
X2540420Y-9692984D02*
X2540420Y-9559650D01*
X2540420Y-9578698D02*
X2549944Y-9569174D01*
X2549944Y-9569174D02*
X2568991Y-9559650D01*
X2568991Y-9559650D02*
X2597563Y-9559650D01*
X2597563Y-9559650D02*
X2616610Y-9569174D01*
X2616610Y-9569174D02*
X2626134Y-9588222D01*
X2626134Y-9588222D02*
X2626134Y-9692984D01*
X2626134Y-9588222D02*
X2635658Y-9569174D01*
X2635658Y-9569174D02*
X2654705Y-9559650D01*
X2654705Y-9559650D02*
X2683277Y-9559650D01*
X2683277Y-9559650D02*
X2702325Y-9569174D01*
X2702325Y-9569174D02*
X2711848Y-9588222D01*
X2711848Y-9588222D02*
X2711848Y-9692984D01*
X2807086Y-9692984D02*
X2807086Y-9559650D01*
X2807086Y-9578698D02*
X2816610Y-9569174D01*
X2816610Y-9569174D02*
X2835658Y-9559650D01*
X2835658Y-9559650D02*
X2864229Y-9559650D01*
X2864229Y-9559650D02*
X2883277Y-9569174D01*
X2883277Y-9569174D02*
X2892801Y-9588222D01*
X2892801Y-9588222D02*
X2892801Y-9692984D01*
X2892801Y-9588222D02*
X2902324Y-9569174D01*
X2902324Y-9569174D02*
X2921372Y-9559650D01*
X2921372Y-9559650D02*
X2949943Y-9559650D01*
X2949943Y-9559650D02*
X2968991Y-9569174D01*
X2968991Y-9569174D02*
X2978515Y-9588222D01*
X2978515Y-9588222D02*
X2978515Y-9692984D01*
X3368991Y-9483460D02*
X3197563Y-9740603D01*
X3626134Y-9492984D02*
X3645182Y-9492984D01*
X3645182Y-9492984D02*
X3664229Y-9502508D01*
X3664229Y-9502508D02*
X3673753Y-9512031D01*
X3673753Y-9512031D02*
X3683277Y-9531079D01*
X3683277Y-9531079D02*
X3692801Y-9569174D01*
X3692801Y-9569174D02*
X3692801Y-9616793D01*
X3692801Y-9616793D02*
X3683277Y-9654889D01*
X3683277Y-9654889D02*
X3673753Y-9673936D01*
X3673753Y-9673936D02*
X3664229Y-9683460D01*
X3664229Y-9683460D02*
X3645182Y-9692984D01*
X3645182Y-9692984D02*
X3626134Y-9692984D01*
X3626134Y-9692984D02*
X3607086Y-9683460D01*
X3607086Y-9683460D02*
X3597563Y-9673936D01*
X3597563Y-9673936D02*
X3588039Y-9654889D01*
X3588039Y-9654889D02*
X3578515Y-9616793D01*
X3578515Y-9616793D02*
X3578515Y-9569174D01*
X3578515Y-9569174D02*
X3588039Y-9531079D01*
X3588039Y-9531079D02*
X3597563Y-9512031D01*
X3597563Y-9512031D02*
X3607086Y-9502508D01*
X3607086Y-9502508D02*
X3626134Y-9492984D01*
X3778515Y-9673936D02*
X3788039Y-9683460D01*
X3788039Y-9683460D02*
X3778515Y-9692984D01*
X3778515Y-9692984D02*
X3768991Y-9683460D01*
X3768991Y-9683460D02*
X3778515Y-9673936D01*
X3778515Y-9673936D02*
X3778515Y-9692984D01*
X3911848Y-9492984D02*
X3930896Y-9492984D01*
X3930896Y-9492984D02*
X3949944Y-9502508D01*
X3949944Y-9502508D02*
X3959467Y-9512031D01*
X3959467Y-9512031D02*
X3968991Y-9531079D01*
X3968991Y-9531079D02*
X3978515Y-9569174D01*
X3978515Y-9569174D02*
X3978515Y-9616793D01*
X3978515Y-9616793D02*
X3968991Y-9654889D01*
X3968991Y-9654889D02*
X3959467Y-9673936D01*
X3959467Y-9673936D02*
X3949944Y-9683460D01*
X3949944Y-9683460D02*
X3930896Y-9692984D01*
X3930896Y-9692984D02*
X3911848Y-9692984D01*
X3911848Y-9692984D02*
X3892801Y-9683460D01*
X3892801Y-9683460D02*
X3883277Y-9673936D01*
X3883277Y-9673936D02*
X3873753Y-9654889D01*
X3873753Y-9654889D02*
X3864229Y-9616793D01*
X3864229Y-9616793D02*
X3864229Y-9569174D01*
X3864229Y-9569174D02*
X3873753Y-9531079D01*
X3873753Y-9531079D02*
X3883277Y-9512031D01*
X3883277Y-9512031D02*
X3892801Y-9502508D01*
X3892801Y-9502508D02*
X3911848Y-9492984D01*
X4149944Y-9559650D02*
X4149944Y-9692984D01*
X4102325Y-9483460D02*
X4054706Y-9626317D01*
X4054706Y-9626317D02*
X4178515Y-9626317D01*
X4235658Y-9492984D02*
X4368991Y-9492984D01*
X4368991Y-9492984D02*
X4283277Y-9692984D01*
X4435658Y-9512031D02*
X4445182Y-9502508D01*
X4445182Y-9502508D02*
X4464229Y-9492984D01*
X4464229Y-9492984D02*
X4511849Y-9492984D01*
X4511849Y-9492984D02*
X4530896Y-9502508D01*
X4530896Y-9502508D02*
X4540420Y-9512031D01*
X4540420Y-9512031D02*
X4549944Y-9531079D01*
X4549944Y-9531079D02*
X4549944Y-9550127D01*
X4549944Y-9550127D02*
X4540420Y-9578698D01*
X4540420Y-9578698D02*
X4426134Y-9692984D01*
X4426134Y-9692984D02*
X4549944Y-9692984D01*
X4626134Y-9492984D02*
X4626134Y-9531079D01*
X4702325Y-9492984D02*
X4702325Y-9531079D01*
X4997563Y-9769174D02*
X4988039Y-9759650D01*
X4988039Y-9759650D02*
X4968991Y-9731079D01*
X4968991Y-9731079D02*
X4959468Y-9712031D01*
X4959468Y-9712031D02*
X4949944Y-9683460D01*
X4949944Y-9683460D02*
X4940420Y-9635841D01*
X4940420Y-9635841D02*
X4940420Y-9597746D01*
X4940420Y-9597746D02*
X4949944Y-9550127D01*
X4949944Y-9550127D02*
X4959468Y-9521555D01*
X4959468Y-9521555D02*
X4968991Y-9502508D01*
X4968991Y-9502508D02*
X4988039Y-9473936D01*
X4988039Y-9473936D02*
X4997563Y-9464412D01*
X5064230Y-9512031D02*
X5073753Y-9502508D01*
X5073753Y-9502508D02*
X5092801Y-9492984D01*
X5092801Y-9492984D02*
X5140420Y-9492984D01*
X5140420Y-9492984D02*
X5159468Y-9502508D01*
X5159468Y-9502508D02*
X5168991Y-9512031D01*
X5168991Y-9512031D02*
X5178515Y-9531079D01*
X5178515Y-9531079D02*
X5178515Y-9550127D01*
X5178515Y-9550127D02*
X5168991Y-9578698D01*
X5168991Y-9578698D02*
X5054706Y-9692984D01*
X5054706Y-9692984D02*
X5178515Y-9692984D01*
X5416611Y-9692984D02*
X5416611Y-9492984D01*
X5502325Y-9692984D02*
X5502325Y-9588222D01*
X5502325Y-9588222D02*
X5492801Y-9569174D01*
X5492801Y-9569174D02*
X5473753Y-9559650D01*
X5473753Y-9559650D02*
X5445182Y-9559650D01*
X5445182Y-9559650D02*
X5426134Y-9569174D01*
X5426134Y-9569174D02*
X5416611Y-9578698D01*
X5626134Y-9692984D02*
X5607087Y-9683460D01*
X5607087Y-9683460D02*
X5597563Y-9673936D01*
X5597563Y-9673936D02*
X5588039Y-9654889D01*
X5588039Y-9654889D02*
X5588039Y-9597746D01*
X5588039Y-9597746D02*
X5597563Y-9578698D01*
X5597563Y-9578698D02*
X5607087Y-9569174D01*
X5607087Y-9569174D02*
X5626134Y-9559650D01*
X5626134Y-9559650D02*
X5654706Y-9559650D01*
X5654706Y-9559650D02*
X5673753Y-9569174D01*
X5673753Y-9569174D02*
X5683277Y-9578698D01*
X5683277Y-9578698D02*
X5692801Y-9597746D01*
X5692801Y-9597746D02*
X5692801Y-9654889D01*
X5692801Y-9654889D02*
X5683277Y-9673936D01*
X5683277Y-9673936D02*
X5673753Y-9683460D01*
X5673753Y-9683460D02*
X5654706Y-9692984D01*
X5654706Y-9692984D02*
X5626134Y-9692984D01*
X5807087Y-9692984D02*
X5788039Y-9683460D01*
X5788039Y-9683460D02*
X5778515Y-9664412D01*
X5778515Y-9664412D02*
X5778515Y-9492984D01*
X5959468Y-9683460D02*
X5940420Y-9692984D01*
X5940420Y-9692984D02*
X5902325Y-9692984D01*
X5902325Y-9692984D02*
X5883277Y-9683460D01*
X5883277Y-9683460D02*
X5873753Y-9664412D01*
X5873753Y-9664412D02*
X5873753Y-9588222D01*
X5873753Y-9588222D02*
X5883277Y-9569174D01*
X5883277Y-9569174D02*
X5902325Y-9559650D01*
X5902325Y-9559650D02*
X5940420Y-9559650D01*
X5940420Y-9559650D02*
X5959468Y-9569174D01*
X5959468Y-9569174D02*
X5968991Y-9588222D01*
X5968991Y-9588222D02*
X5968991Y-9607270D01*
X5968991Y-9607270D02*
X5873753Y-9626317D01*
X6045182Y-9683460D02*
X6064230Y-9692984D01*
X6064230Y-9692984D02*
X6102325Y-9692984D01*
X6102325Y-9692984D02*
X6121372Y-9683460D01*
X6121372Y-9683460D02*
X6130896Y-9664412D01*
X6130896Y-9664412D02*
X6130896Y-9654889D01*
X6130896Y-9654889D02*
X6121372Y-9635841D01*
X6121372Y-9635841D02*
X6102325Y-9626317D01*
X6102325Y-9626317D02*
X6073753Y-9626317D01*
X6073753Y-9626317D02*
X6054706Y-9616793D01*
X6054706Y-9616793D02*
X6045182Y-9597746D01*
X6045182Y-9597746D02*
X6045182Y-9588222D01*
X6045182Y-9588222D02*
X6054706Y-9569174D01*
X6054706Y-9569174D02*
X6073753Y-9559650D01*
X6073753Y-9559650D02*
X6102325Y-9559650D01*
X6102325Y-9559650D02*
X6121372Y-9569174D01*
X6197563Y-9769174D02*
X6207087Y-9759650D01*
X6207087Y-9759650D02*
X6226134Y-9731079D01*
X6226134Y-9731079D02*
X6235658Y-9712031D01*
X6235658Y-9712031D02*
X6245182Y-9683460D01*
X6245182Y-9683460D02*
X6254706Y-9635841D01*
X6254706Y-9635841D02*
X6254706Y-9597746D01*
X6254706Y-9597746D02*
X6245182Y-9550127D01*
X6245182Y-9550127D02*
X6235658Y-9521555D01*
X6235658Y-9521555D02*
X6226134Y-9502508D01*
X6226134Y-9502508D02*
X6207087Y-9473936D01*
X6207087Y-9473936D02*
X6197563Y-9464412D01*
X1222500Y-9765500D02*
X1422500Y-9965500D01*
X1422500Y-9765500D02*
X1222500Y-9965500D01*
X1393211Y-9936211D02*
X1393211Y-9794789D01*
X1251789Y-9794789D01*
X1251789Y-9936211D01*
X1393211Y-9936211D01*
X1673753Y-9776031D02*
X1683277Y-9766508D01*
X1683277Y-9766508D02*
X1702324Y-9756984D01*
X1702324Y-9756984D02*
X1749943Y-9756984D01*
X1749943Y-9756984D02*
X1768991Y-9766508D01*
X1768991Y-9766508D02*
X1778515Y-9776031D01*
X1778515Y-9776031D02*
X1788039Y-9795079D01*
X1788039Y-9795079D02*
X1788039Y-9814127D01*
X1788039Y-9814127D02*
X1778515Y-9842698D01*
X1778515Y-9842698D02*
X1664229Y-9956984D01*
X1664229Y-9956984D02*
X1788039Y-9956984D01*
X1873753Y-9937936D02*
X1883277Y-9947460D01*
X1883277Y-9947460D02*
X1873753Y-9956984D01*
X1873753Y-9956984D02*
X1864229Y-9947460D01*
X1864229Y-9947460D02*
X1873753Y-9937936D01*
X1873753Y-9937936D02*
X1873753Y-9956984D01*
X1949943Y-9756984D02*
X2083277Y-9756984D01*
X2083277Y-9756984D02*
X1997562Y-9956984D01*
X2197563Y-9756984D02*
X2216610Y-9756984D01*
X2216610Y-9756984D02*
X2235658Y-9766508D01*
X2235658Y-9766508D02*
X2245182Y-9776031D01*
X2245182Y-9776031D02*
X2254705Y-9795079D01*
X2254705Y-9795079D02*
X2264229Y-9833174D01*
X2264229Y-9833174D02*
X2264229Y-9880793D01*
X2264229Y-9880793D02*
X2254705Y-9918889D01*
X2254705Y-9918889D02*
X2245182Y-9937936D01*
X2245182Y-9937936D02*
X2235658Y-9947460D01*
X2235658Y-9947460D02*
X2216610Y-9956984D01*
X2216610Y-9956984D02*
X2197563Y-9956984D01*
X2197563Y-9956984D02*
X2178515Y-9947460D01*
X2178515Y-9947460D02*
X2168991Y-9937936D01*
X2168991Y-9937936D02*
X2159467Y-9918889D01*
X2159467Y-9918889D02*
X2149944Y-9880793D01*
X2149944Y-9880793D02*
X2149944Y-9833174D01*
X2149944Y-9833174D02*
X2159467Y-9795079D01*
X2159467Y-9795079D02*
X2168991Y-9776031D01*
X2168991Y-9776031D02*
X2178515Y-9766508D01*
X2178515Y-9766508D02*
X2197563Y-9756984D01*
X2388039Y-9756984D02*
X2407086Y-9756984D01*
X2407086Y-9756984D02*
X2426134Y-9766508D01*
X2426134Y-9766508D02*
X2435658Y-9776031D01*
X2435658Y-9776031D02*
X2445182Y-9795079D01*
X2445182Y-9795079D02*
X2454705Y-9833174D01*
X2454705Y-9833174D02*
X2454705Y-9880793D01*
X2454705Y-9880793D02*
X2445182Y-9918889D01*
X2445182Y-9918889D02*
X2435658Y-9937936D01*
X2435658Y-9937936D02*
X2426134Y-9947460D01*
X2426134Y-9947460D02*
X2407086Y-9956984D01*
X2407086Y-9956984D02*
X2388039Y-9956984D01*
X2388039Y-9956984D02*
X2368991Y-9947460D01*
X2368991Y-9947460D02*
X2359467Y-9937936D01*
X2359467Y-9937936D02*
X2349944Y-9918889D01*
X2349944Y-9918889D02*
X2340420Y-9880793D01*
X2340420Y-9880793D02*
X2340420Y-9833174D01*
X2340420Y-9833174D02*
X2349944Y-9795079D01*
X2349944Y-9795079D02*
X2359467Y-9776031D01*
X2359467Y-9776031D02*
X2368991Y-9766508D01*
X2368991Y-9766508D02*
X2388039Y-9756984D01*
X2540420Y-9956984D02*
X2540420Y-9823650D01*
X2540420Y-9842698D02*
X2549944Y-9833174D01*
X2549944Y-9833174D02*
X2568991Y-9823650D01*
X2568991Y-9823650D02*
X2597563Y-9823650D01*
X2597563Y-9823650D02*
X2616610Y-9833174D01*
X2616610Y-9833174D02*
X2626134Y-9852222D01*
X2626134Y-9852222D02*
X2626134Y-9956984D01*
X2626134Y-9852222D02*
X2635658Y-9833174D01*
X2635658Y-9833174D02*
X2654705Y-9823650D01*
X2654705Y-9823650D02*
X2683277Y-9823650D01*
X2683277Y-9823650D02*
X2702325Y-9833174D01*
X2702325Y-9833174D02*
X2711848Y-9852222D01*
X2711848Y-9852222D02*
X2711848Y-9956984D01*
X2807086Y-9956984D02*
X2807086Y-9823650D01*
X2807086Y-9842698D02*
X2816610Y-9833174D01*
X2816610Y-9833174D02*
X2835658Y-9823650D01*
X2835658Y-9823650D02*
X2864229Y-9823650D01*
X2864229Y-9823650D02*
X2883277Y-9833174D01*
X2883277Y-9833174D02*
X2892801Y-9852222D01*
X2892801Y-9852222D02*
X2892801Y-9956984D01*
X2892801Y-9852222D02*
X2902324Y-9833174D01*
X2902324Y-9833174D02*
X2921372Y-9823650D01*
X2921372Y-9823650D02*
X2949943Y-9823650D01*
X2949943Y-9823650D02*
X2968991Y-9833174D01*
X2968991Y-9833174D02*
X2978515Y-9852222D01*
X2978515Y-9852222D02*
X2978515Y-9956984D01*
X3368991Y-9747460D02*
X3197563Y-10004603D01*
X3626134Y-9756984D02*
X3645182Y-9756984D01*
X3645182Y-9756984D02*
X3664229Y-9766508D01*
X3664229Y-9766508D02*
X3673753Y-9776031D01*
X3673753Y-9776031D02*
X3683277Y-9795079D01*
X3683277Y-9795079D02*
X3692801Y-9833174D01*
X3692801Y-9833174D02*
X3692801Y-9880793D01*
X3692801Y-9880793D02*
X3683277Y-9918889D01*
X3683277Y-9918889D02*
X3673753Y-9937936D01*
X3673753Y-9937936D02*
X3664229Y-9947460D01*
X3664229Y-9947460D02*
X3645182Y-9956984D01*
X3645182Y-9956984D02*
X3626134Y-9956984D01*
X3626134Y-9956984D02*
X3607086Y-9947460D01*
X3607086Y-9947460D02*
X3597563Y-9937936D01*
X3597563Y-9937936D02*
X3588039Y-9918889D01*
X3588039Y-9918889D02*
X3578515Y-9880793D01*
X3578515Y-9880793D02*
X3578515Y-9833174D01*
X3578515Y-9833174D02*
X3588039Y-9795079D01*
X3588039Y-9795079D02*
X3597563Y-9776031D01*
X3597563Y-9776031D02*
X3607086Y-9766508D01*
X3607086Y-9766508D02*
X3626134Y-9756984D01*
X3778515Y-9937936D02*
X3788039Y-9947460D01*
X3788039Y-9947460D02*
X3778515Y-9956984D01*
X3778515Y-9956984D02*
X3768991Y-9947460D01*
X3768991Y-9947460D02*
X3778515Y-9937936D01*
X3778515Y-9937936D02*
X3778515Y-9956984D01*
X3978515Y-9956984D02*
X3864229Y-9956984D01*
X3921372Y-9956984D02*
X3921372Y-9756984D01*
X3921372Y-9756984D02*
X3902325Y-9785555D01*
X3902325Y-9785555D02*
X3883277Y-9804603D01*
X3883277Y-9804603D02*
X3864229Y-9814127D01*
X4102325Y-9756984D02*
X4121372Y-9756984D01*
X4121372Y-9756984D02*
X4140420Y-9766508D01*
X4140420Y-9766508D02*
X4149944Y-9776031D01*
X4149944Y-9776031D02*
X4159467Y-9795079D01*
X4159467Y-9795079D02*
X4168991Y-9833174D01*
X4168991Y-9833174D02*
X4168991Y-9880793D01*
X4168991Y-9880793D02*
X4159467Y-9918889D01*
X4159467Y-9918889D02*
X4149944Y-9937936D01*
X4149944Y-9937936D02*
X4140420Y-9947460D01*
X4140420Y-9947460D02*
X4121372Y-9956984D01*
X4121372Y-9956984D02*
X4102325Y-9956984D01*
X4102325Y-9956984D02*
X4083277Y-9947460D01*
X4083277Y-9947460D02*
X4073753Y-9937936D01*
X4073753Y-9937936D02*
X4064229Y-9918889D01*
X4064229Y-9918889D02*
X4054706Y-9880793D01*
X4054706Y-9880793D02*
X4054706Y-9833174D01*
X4054706Y-9833174D02*
X4064229Y-9795079D01*
X4064229Y-9795079D02*
X4073753Y-9776031D01*
X4073753Y-9776031D02*
X4083277Y-9766508D01*
X4083277Y-9766508D02*
X4102325Y-9756984D01*
X4340420Y-9756984D02*
X4302325Y-9756984D01*
X4302325Y-9756984D02*
X4283277Y-9766508D01*
X4283277Y-9766508D02*
X4273753Y-9776031D01*
X4273753Y-9776031D02*
X4254706Y-9804603D01*
X4254706Y-9804603D02*
X4245182Y-9842698D01*
X4245182Y-9842698D02*
X4245182Y-9918889D01*
X4245182Y-9918889D02*
X4254706Y-9937936D01*
X4254706Y-9937936D02*
X4264229Y-9947460D01*
X4264229Y-9947460D02*
X4283277Y-9956984D01*
X4283277Y-9956984D02*
X4321372Y-9956984D01*
X4321372Y-9956984D02*
X4340420Y-9947460D01*
X4340420Y-9947460D02*
X4349944Y-9937936D01*
X4349944Y-9937936D02*
X4359468Y-9918889D01*
X4359468Y-9918889D02*
X4359468Y-9871270D01*
X4359468Y-9871270D02*
X4349944Y-9852222D01*
X4349944Y-9852222D02*
X4340420Y-9842698D01*
X4340420Y-9842698D02*
X4321372Y-9833174D01*
X4321372Y-9833174D02*
X4283277Y-9833174D01*
X4283277Y-9833174D02*
X4264229Y-9842698D01*
X4264229Y-9842698D02*
X4254706Y-9852222D01*
X4254706Y-9852222D02*
X4245182Y-9871270D01*
X4426134Y-9756984D02*
X4549944Y-9756984D01*
X4549944Y-9756984D02*
X4483277Y-9833174D01*
X4483277Y-9833174D02*
X4511849Y-9833174D01*
X4511849Y-9833174D02*
X4530896Y-9842698D01*
X4530896Y-9842698D02*
X4540420Y-9852222D01*
X4540420Y-9852222D02*
X4549944Y-9871270D01*
X4549944Y-9871270D02*
X4549944Y-9918889D01*
X4549944Y-9918889D02*
X4540420Y-9937936D01*
X4540420Y-9937936D02*
X4530896Y-9947460D01*
X4530896Y-9947460D02*
X4511849Y-9956984D01*
X4511849Y-9956984D02*
X4454706Y-9956984D01*
X4454706Y-9956984D02*
X4435658Y-9947460D01*
X4435658Y-9947460D02*
X4426134Y-9937936D01*
X4626134Y-9756984D02*
X4626134Y-9795079D01*
X4702325Y-9756984D02*
X4702325Y-9795079D01*
X4997563Y-10033174D02*
X4988039Y-10023650D01*
X4988039Y-10023650D02*
X4968991Y-9995079D01*
X4968991Y-9995079D02*
X4959468Y-9976031D01*
X4959468Y-9976031D02*
X4949944Y-9947460D01*
X4949944Y-9947460D02*
X4940420Y-9899841D01*
X4940420Y-9899841D02*
X4940420Y-9861746D01*
X4940420Y-9861746D02*
X4949944Y-9814127D01*
X4949944Y-9814127D02*
X4959468Y-9785555D01*
X4959468Y-9785555D02*
X4968991Y-9766508D01*
X4968991Y-9766508D02*
X4988039Y-9737936D01*
X4988039Y-9737936D02*
X4997563Y-9728412D01*
X5159468Y-9823650D02*
X5159468Y-9956984D01*
X5111849Y-9747460D02*
X5064230Y-9890317D01*
X5064230Y-9890317D02*
X5188039Y-9890317D01*
X5416611Y-9956984D02*
X5416611Y-9756984D01*
X5502325Y-9956984D02*
X5502325Y-9852222D01*
X5502325Y-9852222D02*
X5492801Y-9833174D01*
X5492801Y-9833174D02*
X5473753Y-9823650D01*
X5473753Y-9823650D02*
X5445182Y-9823650D01*
X5445182Y-9823650D02*
X5426134Y-9833174D01*
X5426134Y-9833174D02*
X5416611Y-9842698D01*
X5626134Y-9956984D02*
X5607087Y-9947460D01*
X5607087Y-9947460D02*
X5597563Y-9937936D01*
X5597563Y-9937936D02*
X5588039Y-9918889D01*
X5588039Y-9918889D02*
X5588039Y-9861746D01*
X5588039Y-9861746D02*
X5597563Y-9842698D01*
X5597563Y-9842698D02*
X5607087Y-9833174D01*
X5607087Y-9833174D02*
X5626134Y-9823650D01*
X5626134Y-9823650D02*
X5654706Y-9823650D01*
X5654706Y-9823650D02*
X5673753Y-9833174D01*
X5673753Y-9833174D02*
X5683277Y-9842698D01*
X5683277Y-9842698D02*
X5692801Y-9861746D01*
X5692801Y-9861746D02*
X5692801Y-9918889D01*
X5692801Y-9918889D02*
X5683277Y-9937936D01*
X5683277Y-9937936D02*
X5673753Y-9947460D01*
X5673753Y-9947460D02*
X5654706Y-9956984D01*
X5654706Y-9956984D02*
X5626134Y-9956984D01*
X5807087Y-9956984D02*
X5788039Y-9947460D01*
X5788039Y-9947460D02*
X5778515Y-9928412D01*
X5778515Y-9928412D02*
X5778515Y-9756984D01*
X5959468Y-9947460D02*
X5940420Y-9956984D01*
X5940420Y-9956984D02*
X5902325Y-9956984D01*
X5902325Y-9956984D02*
X5883277Y-9947460D01*
X5883277Y-9947460D02*
X5873753Y-9928412D01*
X5873753Y-9928412D02*
X5873753Y-9852222D01*
X5873753Y-9852222D02*
X5883277Y-9833174D01*
X5883277Y-9833174D02*
X5902325Y-9823650D01*
X5902325Y-9823650D02*
X5940420Y-9823650D01*
X5940420Y-9823650D02*
X5959468Y-9833174D01*
X5959468Y-9833174D02*
X5968991Y-9852222D01*
X5968991Y-9852222D02*
X5968991Y-9871270D01*
X5968991Y-9871270D02*
X5873753Y-9890317D01*
X6045182Y-9947460D02*
X6064230Y-9956984D01*
X6064230Y-9956984D02*
X6102325Y-9956984D01*
X6102325Y-9956984D02*
X6121372Y-9947460D01*
X6121372Y-9947460D02*
X6130896Y-9928412D01*
X6130896Y-9928412D02*
X6130896Y-9918889D01*
X6130896Y-9918889D02*
X6121372Y-9899841D01*
X6121372Y-9899841D02*
X6102325Y-9890317D01*
X6102325Y-9890317D02*
X6073753Y-9890317D01*
X6073753Y-9890317D02*
X6054706Y-9880793D01*
X6054706Y-9880793D02*
X6045182Y-9861746D01*
X6045182Y-9861746D02*
X6045182Y-9852222D01*
X6045182Y-9852222D02*
X6054706Y-9833174D01*
X6054706Y-9833174D02*
X6073753Y-9823650D01*
X6073753Y-9823650D02*
X6102325Y-9823650D01*
X6102325Y-9823650D02*
X6121372Y-9833174D01*
X6197563Y-10033174D02*
X6207087Y-10023650D01*
X6207087Y-10023650D02*
X6226134Y-9995079D01*
X6226134Y-9995079D02*
X6235658Y-9976031D01*
X6235658Y-9976031D02*
X6245182Y-9947460D01*
X6245182Y-9947460D02*
X6254706Y-9899841D01*
X6254706Y-9899841D02*
X6254706Y-9861746D01*
X6254706Y-9861746D02*
X6245182Y-9814127D01*
X6245182Y-9814127D02*
X6235658Y-9785555D01*
X6235658Y-9785555D02*
X6226134Y-9766508D01*
X6226134Y-9766508D02*
X6207087Y-9737936D01*
X6207087Y-9737936D02*
X6197563Y-9728412D01*
X1222500Y-10085500D02*
X1422500Y-10285500D01*
X1422500Y-10085500D02*
X1222500Y-10285500D01*
X1322500Y-10285500D02*
X1422500Y-10185500D01*
X1322500Y-10085500D01*
X1222500Y-10185500D01*
X1322500Y-10285500D01*
X1664229Y-10076984D02*
X1788039Y-10076984D01*
X1788039Y-10076984D02*
X1721372Y-10153174D01*
X1721372Y-10153174D02*
X1749943Y-10153174D01*
X1749943Y-10153174D02*
X1768991Y-10162698D01*
X1768991Y-10162698D02*
X1778515Y-10172222D01*
X1778515Y-10172222D02*
X1788039Y-10191270D01*
X1788039Y-10191270D02*
X1788039Y-10238889D01*
X1788039Y-10238889D02*
X1778515Y-10257936D01*
X1778515Y-10257936D02*
X1768991Y-10267460D01*
X1768991Y-10267460D02*
X1749943Y-10276984D01*
X1749943Y-10276984D02*
X1692801Y-10276984D01*
X1692801Y-10276984D02*
X1673753Y-10267460D01*
X1673753Y-10267460D02*
X1664229Y-10257936D01*
X1873753Y-10257936D02*
X1883277Y-10267460D01*
X1883277Y-10267460D02*
X1873753Y-10276984D01*
X1873753Y-10276984D02*
X1864229Y-10267460D01*
X1864229Y-10267460D02*
X1873753Y-10257936D01*
X1873753Y-10257936D02*
X1873753Y-10276984D01*
X1959467Y-10096031D02*
X1968991Y-10086508D01*
X1968991Y-10086508D02*
X1988039Y-10076984D01*
X1988039Y-10076984D02*
X2035658Y-10076984D01*
X2035658Y-10076984D02*
X2054705Y-10086508D01*
X2054705Y-10086508D02*
X2064229Y-10096031D01*
X2064229Y-10096031D02*
X2073753Y-10115079D01*
X2073753Y-10115079D02*
X2073753Y-10134127D01*
X2073753Y-10134127D02*
X2064229Y-10162698D01*
X2064229Y-10162698D02*
X1949943Y-10276984D01*
X1949943Y-10276984D02*
X2073753Y-10276984D01*
X2197563Y-10076984D02*
X2216610Y-10076984D01*
X2216610Y-10076984D02*
X2235658Y-10086508D01*
X2235658Y-10086508D02*
X2245182Y-10096031D01*
X2245182Y-10096031D02*
X2254705Y-10115079D01*
X2254705Y-10115079D02*
X2264229Y-10153174D01*
X2264229Y-10153174D02*
X2264229Y-10200793D01*
X2264229Y-10200793D02*
X2254705Y-10238889D01*
X2254705Y-10238889D02*
X2245182Y-10257936D01*
X2245182Y-10257936D02*
X2235658Y-10267460D01*
X2235658Y-10267460D02*
X2216610Y-10276984D01*
X2216610Y-10276984D02*
X2197563Y-10276984D01*
X2197563Y-10276984D02*
X2178515Y-10267460D01*
X2178515Y-10267460D02*
X2168991Y-10257936D01*
X2168991Y-10257936D02*
X2159467Y-10238889D01*
X2159467Y-10238889D02*
X2149944Y-10200793D01*
X2149944Y-10200793D02*
X2149944Y-10153174D01*
X2149944Y-10153174D02*
X2159467Y-10115079D01*
X2159467Y-10115079D02*
X2168991Y-10096031D01*
X2168991Y-10096031D02*
X2178515Y-10086508D01*
X2178515Y-10086508D02*
X2197563Y-10076984D01*
X2388039Y-10076984D02*
X2407086Y-10076984D01*
X2407086Y-10076984D02*
X2426134Y-10086508D01*
X2426134Y-10086508D02*
X2435658Y-10096031D01*
X2435658Y-10096031D02*
X2445182Y-10115079D01*
X2445182Y-10115079D02*
X2454705Y-10153174D01*
X2454705Y-10153174D02*
X2454705Y-10200793D01*
X2454705Y-10200793D02*
X2445182Y-10238889D01*
X2445182Y-10238889D02*
X2435658Y-10257936D01*
X2435658Y-10257936D02*
X2426134Y-10267460D01*
X2426134Y-10267460D02*
X2407086Y-10276984D01*
X2407086Y-10276984D02*
X2388039Y-10276984D01*
X2388039Y-10276984D02*
X2368991Y-10267460D01*
X2368991Y-10267460D02*
X2359467Y-10257936D01*
X2359467Y-10257936D02*
X2349944Y-10238889D01*
X2349944Y-10238889D02*
X2340420Y-10200793D01*
X2340420Y-10200793D02*
X2340420Y-10153174D01*
X2340420Y-10153174D02*
X2349944Y-10115079D01*
X2349944Y-10115079D02*
X2359467Y-10096031D01*
X2359467Y-10096031D02*
X2368991Y-10086508D01*
X2368991Y-10086508D02*
X2388039Y-10076984D01*
X2540420Y-10276984D02*
X2540420Y-10143650D01*
X2540420Y-10162698D02*
X2549944Y-10153174D01*
X2549944Y-10153174D02*
X2568991Y-10143650D01*
X2568991Y-10143650D02*
X2597563Y-10143650D01*
X2597563Y-10143650D02*
X2616610Y-10153174D01*
X2616610Y-10153174D02*
X2626134Y-10172222D01*
X2626134Y-10172222D02*
X2626134Y-10276984D01*
X2626134Y-10172222D02*
X2635658Y-10153174D01*
X2635658Y-10153174D02*
X2654705Y-10143650D01*
X2654705Y-10143650D02*
X2683277Y-10143650D01*
X2683277Y-10143650D02*
X2702325Y-10153174D01*
X2702325Y-10153174D02*
X2711848Y-10172222D01*
X2711848Y-10172222D02*
X2711848Y-10276984D01*
X2807086Y-10276984D02*
X2807086Y-10143650D01*
X2807086Y-10162698D02*
X2816610Y-10153174D01*
X2816610Y-10153174D02*
X2835658Y-10143650D01*
X2835658Y-10143650D02*
X2864229Y-10143650D01*
X2864229Y-10143650D02*
X2883277Y-10153174D01*
X2883277Y-10153174D02*
X2892801Y-10172222D01*
X2892801Y-10172222D02*
X2892801Y-10276984D01*
X2892801Y-10172222D02*
X2902324Y-10153174D01*
X2902324Y-10153174D02*
X2921372Y-10143650D01*
X2921372Y-10143650D02*
X2949943Y-10143650D01*
X2949943Y-10143650D02*
X2968991Y-10153174D01*
X2968991Y-10153174D02*
X2978515Y-10172222D01*
X2978515Y-10172222D02*
X2978515Y-10276984D01*
X3368991Y-10067460D02*
X3197563Y-10324603D01*
X3626134Y-10076984D02*
X3645182Y-10076984D01*
X3645182Y-10076984D02*
X3664229Y-10086508D01*
X3664229Y-10086508D02*
X3673753Y-10096031D01*
X3673753Y-10096031D02*
X3683277Y-10115079D01*
X3683277Y-10115079D02*
X3692801Y-10153174D01*
X3692801Y-10153174D02*
X3692801Y-10200793D01*
X3692801Y-10200793D02*
X3683277Y-10238889D01*
X3683277Y-10238889D02*
X3673753Y-10257936D01*
X3673753Y-10257936D02*
X3664229Y-10267460D01*
X3664229Y-10267460D02*
X3645182Y-10276984D01*
X3645182Y-10276984D02*
X3626134Y-10276984D01*
X3626134Y-10276984D02*
X3607086Y-10267460D01*
X3607086Y-10267460D02*
X3597563Y-10257936D01*
X3597563Y-10257936D02*
X3588039Y-10238889D01*
X3588039Y-10238889D02*
X3578515Y-10200793D01*
X3578515Y-10200793D02*
X3578515Y-10153174D01*
X3578515Y-10153174D02*
X3588039Y-10115079D01*
X3588039Y-10115079D02*
X3597563Y-10096031D01*
X3597563Y-10096031D02*
X3607086Y-10086508D01*
X3607086Y-10086508D02*
X3626134Y-10076984D01*
X3778515Y-10257936D02*
X3788039Y-10267460D01*
X3788039Y-10267460D02*
X3778515Y-10276984D01*
X3778515Y-10276984D02*
X3768991Y-10267460D01*
X3768991Y-10267460D02*
X3778515Y-10257936D01*
X3778515Y-10257936D02*
X3778515Y-10276984D01*
X3978515Y-10276984D02*
X3864229Y-10276984D01*
X3921372Y-10276984D02*
X3921372Y-10076984D01*
X3921372Y-10076984D02*
X3902325Y-10105555D01*
X3902325Y-10105555D02*
X3883277Y-10124603D01*
X3883277Y-10124603D02*
X3864229Y-10134127D01*
X4054706Y-10096031D02*
X4064229Y-10086508D01*
X4064229Y-10086508D02*
X4083277Y-10076984D01*
X4083277Y-10076984D02*
X4130896Y-10076984D01*
X4130896Y-10076984D02*
X4149944Y-10086508D01*
X4149944Y-10086508D02*
X4159467Y-10096031D01*
X4159467Y-10096031D02*
X4168991Y-10115079D01*
X4168991Y-10115079D02*
X4168991Y-10134127D01*
X4168991Y-10134127D02*
X4159467Y-10162698D01*
X4159467Y-10162698D02*
X4045182Y-10276984D01*
X4045182Y-10276984D02*
X4168991Y-10276984D01*
X4340420Y-10076984D02*
X4302325Y-10076984D01*
X4302325Y-10076984D02*
X4283277Y-10086508D01*
X4283277Y-10086508D02*
X4273753Y-10096031D01*
X4273753Y-10096031D02*
X4254706Y-10124603D01*
X4254706Y-10124603D02*
X4245182Y-10162698D01*
X4245182Y-10162698D02*
X4245182Y-10238889D01*
X4245182Y-10238889D02*
X4254706Y-10257936D01*
X4254706Y-10257936D02*
X4264229Y-10267460D01*
X4264229Y-10267460D02*
X4283277Y-10276984D01*
X4283277Y-10276984D02*
X4321372Y-10276984D01*
X4321372Y-10276984D02*
X4340420Y-10267460D01*
X4340420Y-10267460D02*
X4349944Y-10257936D01*
X4349944Y-10257936D02*
X4359468Y-10238889D01*
X4359468Y-10238889D02*
X4359468Y-10191270D01*
X4359468Y-10191270D02*
X4349944Y-10172222D01*
X4349944Y-10172222D02*
X4340420Y-10162698D01*
X4340420Y-10162698D02*
X4321372Y-10153174D01*
X4321372Y-10153174D02*
X4283277Y-10153174D01*
X4283277Y-10153174D02*
X4264229Y-10162698D01*
X4264229Y-10162698D02*
X4254706Y-10172222D01*
X4254706Y-10172222D02*
X4245182Y-10191270D01*
X4483277Y-10076984D02*
X4502325Y-10076984D01*
X4502325Y-10076984D02*
X4521372Y-10086508D01*
X4521372Y-10086508D02*
X4530896Y-10096031D01*
X4530896Y-10096031D02*
X4540420Y-10115079D01*
X4540420Y-10115079D02*
X4549944Y-10153174D01*
X4549944Y-10153174D02*
X4549944Y-10200793D01*
X4549944Y-10200793D02*
X4540420Y-10238889D01*
X4540420Y-10238889D02*
X4530896Y-10257936D01*
X4530896Y-10257936D02*
X4521372Y-10267460D01*
X4521372Y-10267460D02*
X4502325Y-10276984D01*
X4502325Y-10276984D02*
X4483277Y-10276984D01*
X4483277Y-10276984D02*
X4464229Y-10267460D01*
X4464229Y-10267460D02*
X4454706Y-10257936D01*
X4454706Y-10257936D02*
X4445182Y-10238889D01*
X4445182Y-10238889D02*
X4435658Y-10200793D01*
X4435658Y-10200793D02*
X4435658Y-10153174D01*
X4435658Y-10153174D02*
X4445182Y-10115079D01*
X4445182Y-10115079D02*
X4454706Y-10096031D01*
X4454706Y-10096031D02*
X4464229Y-10086508D01*
X4464229Y-10086508D02*
X4483277Y-10076984D01*
X4626134Y-10076984D02*
X4626134Y-10115079D01*
X4702325Y-10076984D02*
X4702325Y-10115079D01*
X4997563Y-10353174D02*
X4988039Y-10343650D01*
X4988039Y-10343650D02*
X4968991Y-10315079D01*
X4968991Y-10315079D02*
X4959468Y-10296031D01*
X4959468Y-10296031D02*
X4949944Y-10267460D01*
X4949944Y-10267460D02*
X4940420Y-10219841D01*
X4940420Y-10219841D02*
X4940420Y-10181746D01*
X4940420Y-10181746D02*
X4949944Y-10134127D01*
X4949944Y-10134127D02*
X4959468Y-10105555D01*
X4959468Y-10105555D02*
X4968991Y-10086508D01*
X4968991Y-10086508D02*
X4988039Y-10057936D01*
X4988039Y-10057936D02*
X4997563Y-10048412D01*
X5064230Y-10096031D02*
X5073753Y-10086508D01*
X5073753Y-10086508D02*
X5092801Y-10076984D01*
X5092801Y-10076984D02*
X5140420Y-10076984D01*
X5140420Y-10076984D02*
X5159468Y-10086508D01*
X5159468Y-10086508D02*
X5168991Y-10096031D01*
X5168991Y-10096031D02*
X5178515Y-10115079D01*
X5178515Y-10115079D02*
X5178515Y-10134127D01*
X5178515Y-10134127D02*
X5168991Y-10162698D01*
X5168991Y-10162698D02*
X5054706Y-10276984D01*
X5054706Y-10276984D02*
X5178515Y-10276984D01*
X5416611Y-10276984D02*
X5416611Y-10076984D01*
X5502325Y-10276984D02*
X5502325Y-10172222D01*
X5502325Y-10172222D02*
X5492801Y-10153174D01*
X5492801Y-10153174D02*
X5473753Y-10143650D01*
X5473753Y-10143650D02*
X5445182Y-10143650D01*
X5445182Y-10143650D02*
X5426134Y-10153174D01*
X5426134Y-10153174D02*
X5416611Y-10162698D01*
X5626134Y-10276984D02*
X5607087Y-10267460D01*
X5607087Y-10267460D02*
X5597563Y-10257936D01*
X5597563Y-10257936D02*
X5588039Y-10238889D01*
X5588039Y-10238889D02*
X5588039Y-10181746D01*
X5588039Y-10181746D02*
X5597563Y-10162698D01*
X5597563Y-10162698D02*
X5607087Y-10153174D01*
X5607087Y-10153174D02*
X5626134Y-10143650D01*
X5626134Y-10143650D02*
X5654706Y-10143650D01*
X5654706Y-10143650D02*
X5673753Y-10153174D01*
X5673753Y-10153174D02*
X5683277Y-10162698D01*
X5683277Y-10162698D02*
X5692801Y-10181746D01*
X5692801Y-10181746D02*
X5692801Y-10238889D01*
X5692801Y-10238889D02*
X5683277Y-10257936D01*
X5683277Y-10257936D02*
X5673753Y-10267460D01*
X5673753Y-10267460D02*
X5654706Y-10276984D01*
X5654706Y-10276984D02*
X5626134Y-10276984D01*
X5807087Y-10276984D02*
X5788039Y-10267460D01*
X5788039Y-10267460D02*
X5778515Y-10248412D01*
X5778515Y-10248412D02*
X5778515Y-10076984D01*
X5959468Y-10267460D02*
X5940420Y-10276984D01*
X5940420Y-10276984D02*
X5902325Y-10276984D01*
X5902325Y-10276984D02*
X5883277Y-10267460D01*
X5883277Y-10267460D02*
X5873753Y-10248412D01*
X5873753Y-10248412D02*
X5873753Y-10172222D01*
X5873753Y-10172222D02*
X5883277Y-10153174D01*
X5883277Y-10153174D02*
X5902325Y-10143650D01*
X5902325Y-10143650D02*
X5940420Y-10143650D01*
X5940420Y-10143650D02*
X5959468Y-10153174D01*
X5959468Y-10153174D02*
X5968991Y-10172222D01*
X5968991Y-10172222D02*
X5968991Y-10191270D01*
X5968991Y-10191270D02*
X5873753Y-10210317D01*
X6045182Y-10267460D02*
X6064230Y-10276984D01*
X6064230Y-10276984D02*
X6102325Y-10276984D01*
X6102325Y-10276984D02*
X6121372Y-10267460D01*
X6121372Y-10267460D02*
X6130896Y-10248412D01*
X6130896Y-10248412D02*
X6130896Y-10238889D01*
X6130896Y-10238889D02*
X6121372Y-10219841D01*
X6121372Y-10219841D02*
X6102325Y-10210317D01*
X6102325Y-10210317D02*
X6073753Y-10210317D01*
X6073753Y-10210317D02*
X6054706Y-10200793D01*
X6054706Y-10200793D02*
X6045182Y-10181746D01*
X6045182Y-10181746D02*
X6045182Y-10172222D01*
X6045182Y-10172222D02*
X6054706Y-10153174D01*
X6054706Y-10153174D02*
X6073753Y-10143650D01*
X6073753Y-10143650D02*
X6102325Y-10143650D01*
X6102325Y-10143650D02*
X6121372Y-10153174D01*
X6197563Y-10353174D02*
X6207087Y-10343650D01*
X6207087Y-10343650D02*
X6226134Y-10315079D01*
X6226134Y-10315079D02*
X6235658Y-10296031D01*
X6235658Y-10296031D02*
X6245182Y-10267460D01*
X6245182Y-10267460D02*
X6254706Y-10219841D01*
X6254706Y-10219841D02*
X6254706Y-10181746D01*
X6254706Y-10181746D02*
X6245182Y-10134127D01*
X6245182Y-10134127D02*
X6235658Y-10105555D01*
X6235658Y-10105555D02*
X6226134Y-10086508D01*
X6226134Y-10086508D02*
X6207087Y-10057936D01*
X6207087Y-10057936D02*
X6197563Y-10048412D01*
M02*
