M48
METRIC,TZ
T1C0.270
T2C0.300
%
G90
G05
T1
X121900Y-134000
X122125Y-83175
X122275Y-69850
X122616Y-127092
X122687Y-120389
X123374Y-115229
X123875Y-78475
X123969Y-115389
X124025Y-105575
X124345Y-125122
X124514Y-120176
X124825Y-133900
X124876Y-115548
X124893Y-116161
X125955Y-67311
X126650Y-133975
X126687Y-84113
X127064Y-133102
X127575Y-134900
X128037Y-83887
X128570Y-71701
X128600Y-76732
X128785Y-125709
X128806Y-73476
X128806Y-74306
X128869Y-79127
X128875Y-130425
X128876Y-78172
X128986Y-135016
X129015Y-75438
X129017Y-134327
X129020Y-82553
X129037Y-69500
X129132Y-122405
X129738Y-133002
X129740Y-135775
X130101Y-79287
X130432Y-126727
X131088Y-127552
X131263Y-85747
X131324Y-135482
X131512Y-128268
X131690Y-129327
X132084Y-116150
X132125Y-130575
X132542Y-85074
X132959Y-112637
X133475Y-76775
X133626Y-113248
X133700Y-123900
X133713Y-135536
X133775Y-122200
X133975Y-120425
X134125Y-125075
X134191Y-136074
X134325Y-88858
X134351Y-107476
X134375Y-110600
X134492Y-85221
X134507Y-104829
X134550Y-100925
X134745Y-132232
X134985Y-107578
X135050Y-109050
X135050Y-133400
X135325Y-135850
X135450Y-78675
X135596Y-85131
X135633Y-117703
X135637Y-107830
X135722Y-91858
X135932Y-135284
X136312Y-107610
X136444Y-134121
X136459Y-113222
X136467Y-117645
X136545Y-114760
X136609Y-134869
X136762Y-135825
X137200Y-132675
X137492Y-85351
X137575Y-101250
X137632Y-105039
X137904Y-115637
X138253Y-129474
X138398Y-117652
X138425Y-82100
X138520Y-85024
X138556Y-120327
X138575Y-66750
X138700Y-89825
X138774Y-106236
X138811Y-91544
X138825Y-133300
X139375Y-88950
X139605Y-135710
X139635Y-118331
X139648Y-113781
X139659Y-124035
X139688Y-91468
X139700Y-120800
X139950Y-101125
X139953Y-126050
X139959Y-129229
X139983Y-132698
X140000Y-87200
X140510Y-111393
X140624Y-78760
X140675Y-116690
X140827Y-77978
X140839Y-117846
X141476Y-132892
X141503Y-125694
X141692Y-130873
X141725Y-135225
X141861Y-123318
X141870Y-85512
X141922Y-132410
X141982Y-74450
X142025Y-81000
X142025Y-114400
X142050Y-89150
X142093Y-125059
X142725Y-118500
X142800Y-133049
X143064Y-136154
X143096Y-133891
X143114Y-128957
X143241Y-67599
X143241Y-72419
X143300Y-109750
X143364Y-70168
X143475Y-95525
X143533Y-85981
X143775Y-89050
X143900Y-132950
X144825Y-96675
X144850Y-91925
X144975Y-114500
X145125Y-136200
X145127Y-127189
X145156Y-132755
X145257Y-120369
X145708Y-96224
X146106Y-120131
X146148Y-77791
X146269Y-100375
X146357Y-85717
X146537Y-94139
X147238Y-124355
X147369Y-119684
X147375Y-93200
X147394Y-96224
X147641Y-125139
X147895Y-94850
X147900Y-130225
X147975Y-78325
X148400Y-129725
X148500Y-82800
X149487Y-119932
X149975Y-94250
T2
X133150Y-70640
X133150Y-72140
X133900Y-69890
X133900Y-71390
X133900Y-72890
X134650Y-70640
X134650Y-72140
X135400Y-69890
X135400Y-71390
X135400Y-72890
X136150Y-70640
X136150Y-72140
M30
