%TF.GenerationSoftware,KiCad,Pcbnew,8.0.1-rc1*%
%TF.CreationDate,2024-08-22T21:46:19-04:00*%
%TF.ProjectId,SoM_V2,536f4d5f-5632-42e6-9b69-6361645f7063,rev?*%
%TF.SameCoordinates,Original*%
%TF.FileFunction,Profile,NP*%
%FSLAX46Y46*%
G04 Gerber Fmt 4.6, Leading zero omitted, Abs format (unit mm)*
G04 Created by KiCad (PCBNEW 8.0.1-rc1) date 2024-08-22 21:46:19*
%MOMM*%
%LPD*%
G01*
G04 APERTURE LIST*
%TA.AperFunction,Profile*%
%ADD10C,0.080000*%
%TD*%
%TA.AperFunction,Profile*%
%ADD11C,0.050000*%
%TD*%
G04 APERTURE END LIST*
D10*
X146800000Y-135075000D02*
X150800000Y-135050000D01*
D11*
X151000000Y-134850000D02*
X151000000Y-79075000D01*
X131875001Y-79075000D02*
X121000000Y-79100000D01*
X140124997Y-79074279D02*
X151000000Y-79075000D01*
X121000000Y-79100000D02*
X121000000Y-134850000D01*
X131875002Y-79075000D02*
G75*
G02*
X140124996Y-79074279I4124998J-12500D01*
G01*
D10*
X121200000Y-135050000D02*
X124800000Y-135075000D01*
X121200000Y-135050000D02*
G75*
G02*
X121000000Y-134850000I0J200000D01*
G01*
X151000000Y-134850000D02*
G75*
G02*
X150800000Y-135050000I-200000J0D01*
G01*
%TO.C,J201*%
X124800000Y-135075000D02*
X125375000Y-135075000D01*
X125875000Y-135575000D02*
X125875000Y-139075000D01*
X125875000Y-139075000D02*
X135800000Y-139075000D01*
X135800000Y-139075000D02*
X137825000Y-139075000D01*
X137825000Y-139075000D02*
X137825000Y-136175000D01*
X139025000Y-136175000D02*
X139025000Y-139075000D01*
X139025000Y-139075000D02*
X145725000Y-139075000D01*
X145725000Y-139075000D02*
X145725000Y-135575000D01*
X146225000Y-135075000D02*
X146800000Y-135075000D01*
X125375000Y-135075000D02*
G75*
G02*
X125875000Y-135575000I-1J-500001D01*
G01*
X137825000Y-136175000D02*
G75*
G02*
X139025000Y-136175000I600000J0D01*
G01*
X145725000Y-135575000D02*
G75*
G02*
X146225000Y-135075000I500000J0D01*
G01*
%TD*%
M02*
