M48
METRIC,TZ
T1C0.300
T2C0.760
%
G90
G05
T1
X74560Y-54860
X77100Y-52320
X77100Y-54860
X77100Y-57400
X77100Y-59940
X79640Y-52320
X79640Y-54860
X79640Y-57400
X79640Y-59940
X79640Y-62480
X79640Y-65020
X82180Y-52320
X82180Y-54860
X82180Y-57400
X82180Y-59940
X82180Y-62480
X82180Y-65020
X82180Y-67560
X82180Y-70100
X84720Y-52320
X84720Y-54860
X84720Y-57400
X84720Y-59940
X84720Y-62480
X84720Y-65020
X84720Y-67560
X84720Y-70100
X84720Y-72640
X87260Y-49780
X87260Y-52320
X87260Y-54860
X87260Y-57400
X87260Y-59940
X87260Y-62480
X87260Y-65020
X87260Y-67560
X87260Y-70100
X87260Y-72640
X87260Y-75180
X89800Y-49780
X89800Y-52320
X89800Y-54860
X89800Y-57400
X89800Y-59940
X89800Y-62480
X89800Y-65020
X89800Y-67560
X89800Y-70100
X89800Y-72640
X89800Y-75180
X92340Y-49780
X92340Y-52320
X92340Y-54860
X92340Y-57400
X92340Y-59940
X92340Y-62480
X92340Y-65020
X92340Y-67560
X92340Y-70100
X92340Y-72640
X92340Y-75180
X92340Y-77720
X94880Y-47240
X94880Y-49780
X94880Y-52320
X94880Y-54860
X94880Y-57400
X94880Y-59940
X94880Y-62480
X94880Y-65020
X94880Y-67560
X94880Y-70100
X94880Y-72640
X94880Y-75180
X94880Y-77720
X94880Y-80260
X97420Y-44700
X97420Y-47240
X97420Y-49780
X97420Y-52320
X97420Y-57400
X97420Y-59940
X97420Y-62480
X97420Y-65020
X97420Y-67560
X97420Y-70100
X97420Y-77720
X97420Y-80260
X99960Y-39620
X99960Y-42160
X99960Y-44700
X99960Y-47240
X99960Y-49780
X99960Y-57400
X99960Y-70100
X99960Y-77720
X99960Y-80260
X100610Y-58800
X101900Y-58256
X102500Y-37080
X102500Y-39620
X102500Y-42160
X102500Y-44700
X102500Y-47240
X102500Y-49780
X102500Y-52320
X102500Y-54860
X102500Y-70100
X102500Y-72640
X102500Y-75180
X102500Y-77720
X102500Y-80260
X102500Y-82800
X103150Y-57514
X104420Y-56964
X105040Y-34540
X105040Y-37080
X105040Y-39620
X105040Y-44700
X105040Y-47240
X105040Y-49780
X105040Y-52320
X105040Y-54860
X105040Y-70100
X105040Y-72640
X105040Y-75180
X105040Y-77720
X105040Y-80260
X105040Y-82800
X105700Y-56500
X107000Y-55800
X107580Y-34540
X107580Y-37080
X107580Y-44700
X107580Y-47240
X107580Y-52320
X107580Y-70100
X107580Y-72640
X107580Y-75180
X107580Y-77720
X107580Y-80260
X107580Y-82800
X108300Y-55200
X110120Y-34540
X110120Y-37080
X110120Y-39620
X110120Y-42160
X110120Y-44700
X110120Y-59940
X110120Y-62480
X110120Y-67560
X110120Y-70100
X110120Y-77720
X110120Y-80260
X110120Y-82800
X110800Y-55914
X112100Y-56464
X112660Y-34540
X112660Y-37080
X112660Y-39620
X112660Y-42160
X112660Y-44700
X112660Y-59940
X112660Y-62480
X112660Y-65020
X112660Y-67560
X112660Y-70100
X112660Y-77720
X112660Y-80260
X112660Y-82800
X113400Y-57100
X114600Y-57650
X115200Y-34540
X115200Y-37080
X115200Y-39620
X115200Y-42160
X115200Y-44700
X115200Y-59940
X115200Y-62480
X115200Y-65020
X115200Y-67560
X115200Y-70100
X115200Y-77720
X115200Y-80260
X115200Y-82800
X115900Y-58250
X117100Y-58900
X117740Y-34540
X117740Y-37080
X117740Y-44700
X117740Y-70100
X117740Y-77720
X117740Y-80260
X117740Y-82800
X118300Y-58250
X119500Y-57650
X120280Y-34540
X120280Y-37080
X120280Y-39620
X120280Y-44700
X120280Y-47240
X120280Y-49780
X120280Y-52320
X120280Y-70100
X120280Y-72640
X120280Y-75180
X120280Y-77720
X120280Y-80260
X120280Y-82800
X120900Y-57064
X122100Y-56464
X122820Y-34540
X122820Y-37080
X122820Y-44700
X122820Y-47240
X122820Y-49780
X122820Y-52320
X122820Y-70100
X122820Y-72640
X122820Y-75180
X122820Y-77720
X122820Y-80260
X123400Y-55900
X124600Y-55200
X125360Y-34540
X125360Y-37080
X125360Y-39620
X125360Y-44700
X125360Y-70100
X125360Y-77720
X125360Y-80260
X127200Y-55900
X127900Y-34540
X127900Y-37080
X127900Y-39620
X127900Y-42160
X127900Y-44700
X127900Y-59940
X127900Y-62480
X127900Y-65020
X127900Y-67560
X127900Y-70100
X127900Y-77720
X127900Y-80260
X128500Y-56464
X129700Y-57064
X130440Y-37080
X130440Y-39620
X130440Y-42160
X130440Y-44700
X130440Y-59940
X130440Y-62480
X130440Y-65020
X130440Y-67560
X130440Y-70100
X130440Y-77720
X130440Y-80260
X131000Y-57650
X132300Y-58250
X132980Y-34540
X132980Y-37080
X132980Y-39620
X132980Y-44700
X132980Y-70100
X132980Y-77720
X132980Y-80260
X133600Y-58900
X134800Y-58250
X135520Y-34540
X135520Y-37080
X135520Y-44700
X135520Y-47240
X135520Y-49780
X135520Y-52320
X135520Y-70100
X135520Y-72640
X135520Y-75180
X135520Y-77720
X135520Y-80260
X136100Y-57650
X137300Y-57064
X138060Y-34540
X138060Y-37080
X138060Y-39620
X138060Y-44700
X138060Y-47240
X138060Y-49780
X138060Y-52320
X138060Y-70100
X138060Y-72640
X138060Y-75180
X138060Y-77720
X138060Y-80260
X138060Y-82800
X138600Y-56464
X139860Y-55914
X140600Y-34540
X140600Y-37080
X140600Y-44700
X140600Y-47240
X140600Y-52320
X140600Y-70100
X140600Y-72640
X140600Y-75180
X140600Y-77720
X140600Y-80260
X140600Y-82800
X141300Y-55200
X143140Y-34540
X143140Y-37080
X143140Y-39620
X143140Y-42160
X143140Y-44700
X143140Y-59940
X143140Y-62480
X143140Y-67560
X143140Y-70100
X143140Y-77720
X143140Y-80260
X143140Y-82800
X143500Y-55900
X144800Y-56464
X145680Y-34540
X145680Y-37080
X145680Y-39620
X145680Y-42160
X145680Y-44700
X145680Y-59940
X145680Y-62480
X145680Y-65020
X145680Y-67560
X145680Y-70100
X145680Y-77720
X145680Y-80260
X145680Y-82800
X146100Y-57064
X147400Y-57650
X148220Y-34540
X148220Y-37080
X148220Y-39620
X148220Y-42160
X148220Y-44700
X148220Y-59940
X148220Y-62480
X148220Y-65020
X148220Y-67560
X148220Y-70100
X148220Y-77720
X148220Y-80260
X148220Y-82800
X148600Y-58250
X149786Y-58900
X150760Y-34540
X150760Y-37080
X150760Y-44700
X150760Y-49780
X150760Y-52320
X150760Y-70100
X150760Y-72640
X150760Y-77720
X150760Y-80260
X150760Y-82800
X153300Y-34540
X153300Y-37080
X153300Y-39620
X153300Y-44700
X153300Y-47240
X153300Y-49780
X153300Y-52320
X153300Y-70100
X153300Y-72640
X153300Y-75180
X153300Y-77720
X153300Y-80260
X153300Y-82800
X155840Y-34540
X155840Y-37080
X155840Y-39620
X155840Y-42160
X155840Y-44700
X155840Y-47240
X155840Y-49780
X155840Y-52320
X155840Y-70100
X155840Y-72640
X155840Y-75180
X155840Y-77720
X155840Y-80260
X155840Y-82800
X158380Y-39620
X158380Y-42160
X158380Y-44700
X158380Y-47240
X158380Y-49780
X158380Y-70100
X158380Y-77720
X158380Y-80260
X160920Y-42160
X160920Y-44700
X160920Y-47240
X160920Y-49780
X160920Y-57400
X160920Y-59940
X160920Y-62480
X160920Y-65020
X160920Y-67560
X160920Y-70100
X160920Y-77720
X160920Y-80260
X163460Y-47240
X163460Y-49780
X163460Y-52320
X163460Y-54860
X163460Y-57400
X163460Y-59940
X163460Y-62480
X163460Y-65020
X163460Y-67560
X163460Y-70100
X163460Y-72640
X163460Y-75180
X163460Y-77720
X163460Y-80260
X166000Y-47240
X166000Y-49780
X166000Y-52320
X166000Y-54860
X166000Y-57400
X166000Y-59940
X166000Y-62480
X166000Y-65020
X166000Y-67560
X166000Y-70100
X166000Y-72640
X166000Y-75180
X166000Y-77720
X168540Y-49780
X168540Y-52320
X168540Y-54860
X168540Y-57400
X168540Y-59940
X168540Y-62480
X168540Y-65020
X168540Y-67560
X168540Y-70100
X168540Y-72640
X168540Y-75180
X168540Y-77720
X171080Y-49780
X171080Y-52320
X171080Y-54860
X171080Y-57400
X171080Y-59940
X171080Y-62480
X171080Y-65020
X171080Y-67560
X171080Y-70100
X171080Y-72640
X171080Y-75180
X173620Y-52320
X173620Y-54860
X173620Y-57400
X173620Y-59940
X173620Y-62480
X173620Y-65020
X173620Y-67560
X173620Y-70100
X173620Y-72640
X176160Y-52320
X176160Y-54860
X176160Y-57400
X176160Y-59940
X176160Y-62480
X176160Y-65020
X176160Y-67560
X176160Y-70100
X178700Y-52320
X178700Y-54860
X178700Y-57400
X178700Y-59940
X178700Y-62480
X178700Y-65020
X178700Y-67560
X181240Y-52320
X181240Y-54860
X181240Y-57400
X181240Y-59940
X181240Y-62480
X183780Y-54860
X183780Y-57400
T2
X100610Y-67984
X101880Y-65444
X103150Y-67984
X104420Y-65444
X105690Y-67984
X106960Y-65444
X108230Y-67984
X108260Y-50741
X109500Y-65444
X109530Y-48201
X110800Y-50741
X112070Y-48201
X113340Y-50741
X114610Y-48201
X115880Y-50741
X117010Y-67984
X117150Y-48201
X118280Y-65444
X119550Y-67984
X120820Y-65444
X122090Y-67984
X123360Y-65444
X124630Y-67984
X124652Y-50758
X125900Y-65444
X125923Y-48218
X127193Y-50758
X128463Y-48218
X129732Y-50758
X131003Y-48218
X132273Y-50758
X133510Y-67984
X133543Y-48218
X134780Y-65444
X136050Y-67984
X137320Y-65444
X138590Y-67984
X139860Y-65444
X140980Y-50758
X141130Y-67984
X142250Y-48218
X142400Y-65444
X143520Y-50758
X144790Y-48218
X146060Y-50758
X147330Y-48218
X148600Y-50758
X149840Y-67950
X149870Y-48218
X151110Y-65410
X152380Y-67950
X153650Y-65410
X154920Y-67950
X156190Y-65410
X157460Y-67950
X158730Y-65410
M30
