%TF.GenerationSoftware,KiCad,Pcbnew,8.0.1-rc1*%
%TF.CreationDate,2024-05-02T00:25:51-04:00*%
%TF.ProjectId,Mustachio_v2,4d757374-6163-4686-996f-5f76322e6b69,rev?*%
%TF.SameCoordinates,Original*%
%TF.FileFunction,Copper,L1,Top*%
%TF.FilePolarity,Positive*%
%FSLAX46Y46*%
G04 Gerber Fmt 4.6, Leading zero omitted, Abs format (unit mm)*
G04 Created by KiCad (PCBNEW 8.0.1-rc1) date 2024-05-02 00:25:51*
%MOMM*%
%LPD*%
G01*
G04 APERTURE LIST*
G04 Aperture macros list*
%AMRoundRect*
0 Rectangle with rounded corners*
0 $1 Rounding radius*
0 $2 $3 $4 $5 $6 $7 $8 $9 X,Y pos of 4 corners*
0 Add a 4 corners polygon primitive as box body*
4,1,4,$2,$3,$4,$5,$6,$7,$8,$9,$2,$3,0*
0 Add four circle primitives for the rounded corners*
1,1,$1+$1,$2,$3*
1,1,$1+$1,$4,$5*
1,1,$1+$1,$6,$7*
1,1,$1+$1,$8,$9*
0 Add four rect primitives between the rounded corners*
20,1,$1+$1,$2,$3,$4,$5,0*
20,1,$1+$1,$4,$5,$6,$7,0*
20,1,$1+$1,$6,$7,$8,$9,0*
20,1,$1+$1,$8,$9,$2,$3,0*%
G04 Aperture macros list end*
%TA.AperFunction,ComponentPad*%
%ADD10C,3.800000*%
%TD*%
%TA.AperFunction,ComponentPad*%
%ADD11RoundRect,0.250000X0.600000X-0.600000X0.600000X0.600000X-0.600000X0.600000X-0.600000X-0.600000X0*%
%TD*%
%TA.AperFunction,ComponentPad*%
%ADD12C,1.700000*%
%TD*%
%TA.AperFunction,ComponentPad*%
%ADD13RoundRect,0.250000X-0.600000X0.600000X-0.600000X-0.600000X0.600000X-0.600000X0.600000X0.600000X0*%
%TD*%
%TA.AperFunction,ViaPad*%
%ADD14C,0.600000*%
%TD*%
%TA.AperFunction,Conductor*%
%ADD15C,0.200000*%
%TD*%
G04 APERTURE END LIST*
D10*
%TO.P,H102,1,1*%
%TO.N,GND*%
X96200000Y-49900000D03*
%TD*%
%TO.P,H101,1,1*%
%TO.N,GND*%
X134200000Y-49900000D03*
%TD*%
D11*
%TO.P,PROXI,1,Pin_1*%
%TO.N,Vcc_3v3*%
X118900000Y-56800000D03*
D12*
%TO.P,PROXI,2,Pin_2*%
%TO.N,unconnected-(J105-Pin_2-Pad2)*%
X121400000Y-56800000D03*
%TO.P,PROXI,3,Pin_3*%
%TO.N,SCL_I2C*%
X123900000Y-56800000D03*
%TO.P,PROXI,4,Pin_4*%
%TO.N,unconnected-(J105-Pin_4-Pad4)*%
X126400000Y-56800000D03*
%TO.P,PROXI,5,Pin_5*%
%TO.N,GND*%
X118900000Y-54300000D03*
%TO.P,PROXI,6,Pin_6*%
%TO.N,SDA_I2C*%
X121400000Y-54300000D03*
%TO.P,PROXI,7,Pin_7*%
%TO.N,unconnected-(J105-Pin_7-Pad7)*%
X123900000Y-54300000D03*
%TO.P,PROXI,8,Pin_8*%
%TO.N,RESET*%
X126400000Y-54300000D03*
%TD*%
D11*
%TO.P,BNO_2,1,Pin_1*%
%TO.N,Vcc_3v3*%
X104000000Y-56800000D03*
D12*
%TO.P,BNO_2,2,Pin_2*%
%TO.N,GND*%
X106500000Y-56800000D03*
%TO.P,BNO_2,3,Pin_3*%
%TO.N,SCL_I2C*%
X109000000Y-56800000D03*
%TO.P,BNO_2,4,Pin_4*%
%TO.N,GND*%
X111500000Y-56800000D03*
%TO.P,BNO_2,5,Pin_5*%
X104000000Y-54300000D03*
%TO.P,BNO_2,6,Pin_6*%
%TO.N,SDA_I2C*%
X106500000Y-54300000D03*
%TO.P,BNO_2,7,Pin_7*%
%TO.N,GND*%
X109000000Y-54300000D03*
%TO.P,BNO_2,8,Pin_8*%
%TO.N,RESET*%
X111500000Y-54300000D03*
%TD*%
D11*
%TO.P,BNO_1,1,Pin_1*%
%TO.N,Vcc_3v3*%
X89200000Y-56800000D03*
D12*
%TO.P,BNO_1,2,Pin_2*%
%TO.N,GND*%
X91700000Y-56800000D03*
%TO.P,BNO_1,3,Pin_3*%
%TO.N,SCL_I2C*%
X94200000Y-56800000D03*
%TO.P,BNO_1,4,Pin_4*%
%TO.N,GND*%
X96700000Y-56800000D03*
%TO.P,BNO_1,5,Pin_5*%
X89200000Y-54300000D03*
%TO.P,BNO_1,6,Pin_6*%
%TO.N,SDA_I2C*%
X91700000Y-54300000D03*
%TO.P,BNO_1,7,Pin_7*%
%TO.N,GND*%
X94200000Y-54300000D03*
%TO.P,BNO_1,8,Pin_8*%
%TO.N,RESET*%
X96700000Y-54300000D03*
%TD*%
%TO.P,ENCODEUR,8,Pin_8*%
%TO.N,unconnected-(J102-Pin_8-Pad8)*%
X141200000Y-54300000D03*
%TO.P,ENCODEUR,7,Pin_7*%
%TO.N,GND*%
X138700000Y-54300000D03*
%TO.P,ENCODEUR,6,Pin_6*%
%TO.N,ENC_IntB*%
X136200000Y-54300000D03*
%TO.P,ENCODEUR,5,Pin_5*%
%TO.N,GND*%
X133700000Y-54300000D03*
%TO.P,ENCODEUR,4,Pin_4*%
X141200000Y-56800000D03*
%TO.P,ENCODEUR,3,Pin_3*%
%TO.N,ENC_IntA*%
X138700000Y-56800000D03*
%TO.P,ENCODEUR,2,Pin_2*%
%TO.N,GND*%
X136200000Y-56800000D03*
D11*
%TO.P,ENCODEUR,1,Pin_1*%
%TO.N,Vcc_3v3*%
X133700000Y-56800000D03*
%TD*%
D13*
%TO.P,J101,1,Pin_1*%
%TO.N,Vcc_3v3*%
X123950000Y-45540000D03*
D12*
%TO.P,J101,2,Pin_2*%
%TO.N,GND*%
X121450000Y-45540000D03*
%TO.P,J101,3,Pin_3*%
%TO.N,SCL_I2C*%
X118950000Y-45540000D03*
%TO.P,J101,4,Pin_4*%
%TO.N,GND*%
X116450000Y-45540000D03*
%TO.P,J101,5,Pin_5*%
%TO.N,Vcc_3v3*%
X113950000Y-45540000D03*
%TO.P,J101,6,Pin_6*%
%TO.N,GND*%
X111450000Y-45540000D03*
%TO.P,J101,7,Pin_7*%
%TO.N,ENC_IntA*%
X108950000Y-45540000D03*
%TO.P,J101,8,Pin_8*%
%TO.N,GND*%
X106450000Y-45540000D03*
%TO.P,J101,9,Pin_9*%
X123950000Y-48040000D03*
%TO.P,J101,10,Pin_10*%
%TO.N,SDA_I2C*%
X121450000Y-48040000D03*
%TO.P,J101,11,Pin_11*%
%TO.N,GND*%
X118950000Y-48040000D03*
%TO.P,J101,12,Pin_12*%
%TO.N,RESET*%
X116450000Y-48040000D03*
%TO.P,J101,13,Pin_13*%
%TO.N,GND*%
X113950000Y-48040000D03*
%TO.P,J101,14,Pin_14*%
%TO.N,ENC_IntB*%
X111450000Y-48040000D03*
%TO.P,J101,15,Pin_15*%
%TO.N,GND*%
X108950000Y-48040000D03*
%TO.P,J101,16,Pin_16*%
%TO.N,unconnected-(J101-Pin_16-Pad16)*%
X106450000Y-48040000D03*
%TD*%
D14*
%TO.N,GND*%
X146060000Y-55830000D03*
X145610000Y-50900000D03*
X129970000Y-45720000D03*
X129720000Y-49960000D03*
X101790000Y-46740000D03*
X100660000Y-51330000D03*
X103930000Y-51230000D03*
X111260000Y-51050000D03*
X119930000Y-51010000D03*
X123501898Y-33449226D03*
X122505500Y-33550352D03*
X121530112Y-33771094D03*
X120571412Y-34062136D03*
X119645642Y-34438719D03*
X118758173Y-34903838D03*
X117916389Y-35441210D03*
X117130759Y-36061189D03*
X116410744Y-36757978D03*
X115757877Y-37517752D03*
X114984654Y-38009837D03*
X114301697Y-37325107D03*
X113627008Y-36586204D03*
X112895393Y-35902697D03*
X112081874Y-35317896D03*
X111233719Y-34786171D03*
X110337111Y-34343852D03*
X109397661Y-33997402D03*
X108446509Y-33682370D03*
X107456384Y-33533131D03*
X106459922Y-33444113D03*
X105458752Y-33434773D03*
X104464456Y-33538443D03*
X103487304Y-33759234D03*
X102515667Y-34003891D03*
X101592107Y-34385248D03*
X100920892Y-35087789D03*
X100447227Y-35969834D03*
X99911560Y-36816526D03*
X99373378Y-37661319D03*
X98775337Y-38465128D03*
X98160956Y-39256627D03*
X97525051Y-40030346D03*
X96863281Y-40782673D03*
X96155372Y-41491734D03*
X95414353Y-42165772D03*
X94652422Y-42816063D03*
X93874025Y-43446958D03*
X93056355Y-44026044D03*
X92237082Y-44602863D03*
X91389771Y-45136263D03*
X90518634Y-45630620D03*
X89623045Y-46079794D03*
X88711717Y-46496229D03*
X87790578Y-46889209D03*
X86853909Y-47244999D03*
X85905406Y-47567892D03*
X84942989Y-47846100D03*
X83971115Y-48088763D03*
X82988422Y-48282834D03*
X81999360Y-48442881D03*
X81003939Y-48553845D03*
X80005909Y-48641834D03*
X79005114Y-48687044D03*
X78089480Y-49049528D03*
X77546904Y-49869587D03*
X77490494Y-50864922D03*
X77522054Y-51866311D03*
X77676384Y-52847516D03*
X77872193Y-53828996D03*
X78151963Y-54790513D03*
X78472894Y-55739113D03*
X78883541Y-56653064D03*
X79344945Y-57541375D03*
X80116888Y-58172737D03*
X80923326Y-58766878D03*
X81749969Y-59333091D03*
X82594609Y-59871428D03*
X83451609Y-60390547D03*
X84321423Y-60887102D03*
X85207767Y-61354360D03*
X86105041Y-61799058D03*
X87021101Y-62204976D03*
X87941089Y-62601819D03*
X88875835Y-62959430D03*
X89833494Y-63254094D03*
X90791152Y-63548758D03*
X91748810Y-63843422D03*
X92717617Y-64098458D03*
X93688439Y-64346328D03*
X94675344Y-64518351D03*
X95663650Y-64683140D03*
X96653964Y-64835496D03*
X97650266Y-64932951D03*
X98650143Y-64997620D03*
X99650836Y-65046785D03*
X100652737Y-65050000D03*
X101654579Y-65042394D03*
X102656010Y-65009667D03*
X103653510Y-64921377D03*
X104649566Y-64812717D03*
X105642550Y-64680556D03*
X106633045Y-64529376D03*
X107614543Y-64330833D03*
X108590897Y-64105898D03*
X109559872Y-63850905D03*
X110524669Y-63581394D03*
X111478571Y-63275268D03*
X112419220Y-62930138D03*
X113348519Y-62556088D03*
X114272808Y-62169271D03*
X115209390Y-61822822D03*
X116147392Y-62137591D03*
X117071133Y-62525685D03*
X118000783Y-62897339D03*
X118950651Y-63216223D03*
X119896474Y-63546878D03*
X120866291Y-63797536D03*
X121838766Y-64038753D03*
X122814369Y-64267085D03*
X123799782Y-64446400D03*
X124788555Y-64608211D03*
X125781524Y-64742183D03*
X126779396Y-64830538D03*
X127778157Y-64910610D03*
X128779695Y-64939894D03*
X129781356Y-64957110D03*
X130783135Y-64941883D03*
X131784372Y-64903667D03*
X132782353Y-64815503D03*
X133777822Y-64702631D03*
X134770306Y-64566046D03*
X135759872Y-64408905D03*
X136748425Y-64246888D03*
X137718475Y-63996013D03*
X138685867Y-63735536D03*
X139646770Y-63451632D03*
X140601234Y-63147579D03*
X141548681Y-62821575D03*
X142483255Y-62461836D03*
X143406994Y-62073710D03*
X144330457Y-61685004D03*
X145213349Y-61211256D03*
X146096242Y-60737509D03*
X146969611Y-60247449D03*
X147816167Y-59711465D03*
X148658996Y-59169744D03*
X149489501Y-58609364D03*
X150297943Y-58017549D03*
X150990046Y-57322367D03*
X151434339Y-56424535D03*
X151833165Y-55506282D03*
X152154130Y-54557998D03*
X152411391Y-53590268D03*
X152573007Y-52601490D03*
X152692052Y-51606621D03*
X152715877Y-50605284D03*
X152580310Y-49620888D03*
X151900832Y-48903494D03*
X150946037Y-48674827D03*
X149945775Y-48618550D03*
X148947493Y-48532971D03*
X147954506Y-48402013D03*
X146966327Y-48237793D03*
X145986951Y-48027724D03*
X145016594Y-47778042D03*
X144056727Y-47493110D03*
X143108019Y-47170793D03*
X142181838Y-46789761D03*
X141263677Y-46388766D03*
X140353549Y-45969714D03*
X139474226Y-45491535D03*
X138609717Y-44985017D03*
X137745523Y-44477983D03*
X136921053Y-43908612D03*
X136138317Y-43284083D03*
X135366689Y-42644924D03*
X134595060Y-42005764D03*
X133859869Y-41325848D03*
X133172519Y-40596889D03*
X132524326Y-39833023D03*
X131883681Y-39062627D03*
X131261904Y-38277983D03*
X130699723Y-37448638D03*
X130173508Y-36595975D03*
X129647294Y-35743313D03*
X129169772Y-34862520D03*
X128392092Y-34280040D03*
X127457585Y-33918625D03*
X126487021Y-33671114D03*
X125500700Y-33510477D03*
X124502041Y-33429326D03*
%TD*%
D15*
%TO.N,Vcc_3v3*%
X112110000Y-43700000D02*
X113950000Y-45540000D01*
X99288730Y-43700000D02*
X112110000Y-43700000D01*
X90550000Y-52438730D02*
X99288730Y-43700000D01*
X90550000Y-55450000D02*
X90550000Y-52438730D01*
X89200000Y-56800000D02*
X90550000Y-55450000D01*
X131360000Y-59140000D02*
X133700000Y-56800000D01*
X121240000Y-59140000D02*
X131360000Y-59140000D01*
X118900000Y-56800000D02*
X121240000Y-59140000D01*
%TO.N,GND*%
X142350000Y-55650000D02*
X141200000Y-56800000D01*
X142350000Y-53823654D02*
X142350000Y-55650000D01*
X138426346Y-49900000D02*
X142350000Y-53823654D01*
X134200000Y-49900000D02*
X138426346Y-49900000D01*
X102090000Y-49900000D02*
X106450000Y-45540000D01*
X96200000Y-49900000D02*
X102090000Y-49900000D01*
%TO.N,ENC_IntB*%
X134607300Y-52707300D02*
X136200000Y-54300000D01*
X116117300Y-52707300D02*
X134607300Y-52707300D01*
X111450000Y-48040000D02*
X116117300Y-52707300D01*
%TO.N,RESET*%
X110328100Y-55471900D02*
X111500000Y-54300000D01*
X97871900Y-55471900D02*
X110328100Y-55471900D01*
X96700000Y-54300000D02*
X97871900Y-55471900D01*
X125244600Y-55455400D02*
X126400000Y-54300000D01*
X112655400Y-55455400D02*
X125244600Y-55455400D01*
X111500000Y-54300000D02*
X112655400Y-55455400D01*
%TO.N,SDA_I2C*%
X92852500Y-53147500D02*
X91700000Y-54300000D01*
X105347500Y-53147500D02*
X92852500Y-53147500D01*
X106500000Y-54300000D02*
X105347500Y-53147500D01*
X107651700Y-53148300D02*
X106500000Y-54300000D01*
X120248300Y-53148300D02*
X107651700Y-53148300D01*
X121400000Y-54300000D02*
X120248300Y-53148300D01*
%TO.N,ENC_IntA*%
X139871900Y-55628100D02*
X138700000Y-56800000D01*
X139871900Y-53821200D02*
X139871900Y-55628100D01*
X138173100Y-52122400D02*
X139871900Y-53821200D01*
X116370400Y-52122400D02*
X138173100Y-52122400D01*
X112798300Y-48550300D02*
X116370400Y-52122400D01*
X112798300Y-47722400D02*
X112798300Y-48550300D01*
X111865900Y-46790000D02*
X112798300Y-47722400D01*
X110200000Y-46790000D02*
X111865900Y-46790000D01*
X108950000Y-45540000D02*
X110200000Y-46790000D01*
%TO.N,Vcc_3v3*%
X98628400Y-56800000D02*
X104000000Y-56800000D01*
X97437400Y-55609000D02*
X98628400Y-56800000D01*
X90391000Y-55609000D02*
X97437400Y-55609000D01*
X89200000Y-56800000D02*
X90391000Y-55609000D01*
X106587100Y-59387100D02*
X104000000Y-56800000D01*
X116312900Y-59387100D02*
X106587100Y-59387100D01*
X118900000Y-56800000D02*
X116312900Y-59387100D01*
%TO.N,GND*%
X138700000Y-54300000D02*
X136200000Y-56800000D01*
X116450000Y-45540000D02*
X113950000Y-48040000D01*
X123950000Y-48040000D02*
X121450000Y-45540000D01*
X132340000Y-48040000D02*
X123950000Y-48040000D01*
X134200000Y-49900000D02*
X132340000Y-48040000D01*
X118950000Y-48040000D02*
X121450000Y-45540000D01*
%TD*%
%TA.AperFunction,Conductor*%
%TO.N,GND*%
G36*
X117492539Y-56075585D02*
G01*
X117538294Y-56128389D01*
X117549500Y-56179900D01*
X117549500Y-57249902D01*
X117529815Y-57316941D01*
X117513181Y-57337583D01*
X116100484Y-58750281D01*
X116039161Y-58783766D01*
X116012803Y-58786600D01*
X108632966Y-58786600D01*
X108565927Y-58766915D01*
X108520172Y-58714111D01*
X108510228Y-58644953D01*
X108529865Y-58593708D01*
X108548008Y-58566555D01*
X108548009Y-58566552D01*
X108548013Y-58566547D01*
X108615894Y-58402666D01*
X108649070Y-58235876D01*
X108681454Y-58173967D01*
X108742170Y-58139393D01*
X108781489Y-58136541D01*
X108979705Y-58153883D01*
X108999999Y-58155659D01*
X109000000Y-58155659D01*
X109000001Y-58155659D01*
X109058966Y-58150500D01*
X109235408Y-58135063D01*
X109463663Y-58073903D01*
X109677830Y-57974035D01*
X109871401Y-57838495D01*
X110038495Y-57671401D01*
X110148730Y-57513968D01*
X110203307Y-57470344D01*
X110272805Y-57463150D01*
X110335160Y-57494673D01*
X110351880Y-57513969D01*
X110385072Y-57561373D01*
X110385073Y-57561373D01*
X110935387Y-57011058D01*
X110940889Y-57031591D01*
X111019881Y-57168408D01*
X111131592Y-57280119D01*
X111268409Y-57359111D01*
X111288939Y-57364612D01*
X110738625Y-57914925D01*
X110822421Y-57973599D01*
X111036507Y-58073429D01*
X111036516Y-58073433D01*
X111264673Y-58134567D01*
X111264684Y-58134569D01*
X111499998Y-58155157D01*
X111500002Y-58155157D01*
X111735315Y-58134569D01*
X111735326Y-58134567D01*
X111963483Y-58073433D01*
X111963492Y-58073429D01*
X112177578Y-57973600D01*
X112177582Y-57973598D01*
X112261373Y-57914926D01*
X112261373Y-57914925D01*
X111711059Y-57364612D01*
X111731591Y-57359111D01*
X111868408Y-57280119D01*
X111980119Y-57168408D01*
X112059111Y-57031591D01*
X112064612Y-57011060D01*
X112614925Y-57561373D01*
X112614926Y-57561373D01*
X112673598Y-57477582D01*
X112673600Y-57477578D01*
X112773429Y-57263492D01*
X112773433Y-57263483D01*
X112834567Y-57035326D01*
X112834569Y-57035315D01*
X112855157Y-56800001D01*
X112855157Y-56799998D01*
X112834569Y-56564684D01*
X112834567Y-56564673D01*
X112773433Y-56336516D01*
X112773428Y-56336502D01*
X112724840Y-56232304D01*
X112714348Y-56163227D01*
X112742868Y-56099443D01*
X112801345Y-56061204D01*
X112837222Y-56055900D01*
X117425500Y-56055900D01*
X117492539Y-56075585D01*
G37*
%TD.AperFunction*%
%TA.AperFunction,Conductor*%
G36*
X132575538Y-53327485D02*
G01*
X132621293Y-53380289D01*
X132631237Y-53449447D01*
X132610074Y-53502924D01*
X132526398Y-53622424D01*
X132426570Y-53836507D01*
X132426566Y-53836516D01*
X132365432Y-54064673D01*
X132365430Y-54064684D01*
X132344843Y-54299998D01*
X132344843Y-54300001D01*
X132365430Y-54535315D01*
X132365432Y-54535326D01*
X132426566Y-54763483D01*
X132426570Y-54763492D01*
X132526400Y-54977579D01*
X132526402Y-54977583D01*
X132585072Y-55061373D01*
X132585073Y-55061373D01*
X133135387Y-54511058D01*
X133140889Y-54531591D01*
X133219881Y-54668408D01*
X133331592Y-54780119D01*
X133468409Y-54859111D01*
X133488940Y-54864612D01*
X132897739Y-55455812D01*
X132897683Y-55455756D01*
X132871767Y-55482506D01*
X132849631Y-55492332D01*
X132780674Y-55515182D01*
X132780663Y-55515187D01*
X132631342Y-55607289D01*
X132507289Y-55731342D01*
X132415187Y-55880663D01*
X132415185Y-55880668D01*
X132391409Y-55952420D01*
X132360001Y-56047203D01*
X132360001Y-56047204D01*
X132360000Y-56047204D01*
X132349500Y-56149983D01*
X132349500Y-57249901D01*
X132329815Y-57316940D01*
X132313180Y-57337582D01*
X131422074Y-58228691D01*
X131147584Y-58503181D01*
X131086261Y-58536666D01*
X131059903Y-58539500D01*
X123639771Y-58539500D01*
X123572732Y-58519815D01*
X123526977Y-58467011D01*
X123517033Y-58397853D01*
X123518153Y-58391310D01*
X123527449Y-58344575D01*
X123549070Y-58235875D01*
X123581454Y-58173967D01*
X123642170Y-58139393D01*
X123681489Y-58136541D01*
X123879705Y-58153883D01*
X123899999Y-58155659D01*
X123900000Y-58155659D01*
X123900001Y-58155659D01*
X123958966Y-58150500D01*
X124135408Y-58135063D01*
X124363663Y-58073903D01*
X124577830Y-57974035D01*
X124771401Y-57838495D01*
X124938495Y-57671401D01*
X125048425Y-57514405D01*
X125103002Y-57470780D01*
X125172500Y-57463586D01*
X125234855Y-57495109D01*
X125251575Y-57514405D01*
X125361500Y-57671395D01*
X125361505Y-57671401D01*
X125528599Y-57838495D01*
X125625384Y-57906265D01*
X125722165Y-57974032D01*
X125722167Y-57974033D01*
X125722170Y-57974035D01*
X125936337Y-58073903D01*
X126164592Y-58135063D01*
X126341034Y-58150500D01*
X126399999Y-58155659D01*
X126400000Y-58155659D01*
X126400001Y-58155659D01*
X126458966Y-58150500D01*
X126635408Y-58135063D01*
X126863663Y-58073903D01*
X127077830Y-57974035D01*
X127271401Y-57838495D01*
X127438495Y-57671401D01*
X127574035Y-57477830D01*
X127673903Y-57263663D01*
X127735063Y-57035408D01*
X127755659Y-56800000D01*
X127735063Y-56564592D01*
X127673903Y-56336337D01*
X127574035Y-56122171D01*
X127564548Y-56108621D01*
X127438494Y-55928597D01*
X127271402Y-55761506D01*
X127271396Y-55761501D01*
X127114405Y-55651575D01*
X127070780Y-55596998D01*
X127063586Y-55527500D01*
X127095109Y-55465145D01*
X127114405Y-55448425D01*
X127162248Y-55414925D01*
X127271401Y-55338495D01*
X127438495Y-55171401D01*
X127574035Y-54977830D01*
X127673903Y-54763663D01*
X127735063Y-54535408D01*
X127755659Y-54300000D01*
X127735063Y-54064592D01*
X127673903Y-53836337D01*
X127574035Y-53622171D01*
X127515536Y-53538626D01*
X127490537Y-53502923D01*
X127468210Y-53436717D01*
X127485220Y-53368950D01*
X127536168Y-53321137D01*
X127592112Y-53307800D01*
X132508499Y-53307800D01*
X132575538Y-53327485D01*
G37*
%TD.AperFunction*%
%TA.AperFunction,Conductor*%
G36*
X134814925Y-55061373D02*
G01*
X134848119Y-55013968D01*
X134902696Y-54970343D01*
X134972194Y-54963149D01*
X135034549Y-54994672D01*
X135051269Y-55013968D01*
X135161500Y-55171395D01*
X135161505Y-55171401D01*
X135328599Y-55338495D01*
X135472399Y-55439185D01*
X135486031Y-55448730D01*
X135529655Y-55503307D01*
X135536848Y-55572806D01*
X135505326Y-55635160D01*
X135486030Y-55651880D01*
X135438626Y-55685072D01*
X135438625Y-55685072D01*
X135988940Y-56235387D01*
X135968409Y-56240889D01*
X135831592Y-56319881D01*
X135719881Y-56431592D01*
X135640889Y-56568409D01*
X135635387Y-56588939D01*
X135044187Y-55997739D01*
X135044242Y-55997683D01*
X135017493Y-55971767D01*
X135007666Y-55949630D01*
X135000697Y-55928599D01*
X134984814Y-55880666D01*
X134892712Y-55731344D01*
X134768656Y-55607288D01*
X134639793Y-55527805D01*
X134619336Y-55515187D01*
X134619331Y-55515185D01*
X134615881Y-55514041D01*
X134550367Y-55492332D01*
X134492923Y-55452560D01*
X134488592Y-55442144D01*
X133911059Y-54864612D01*
X133931591Y-54859111D01*
X134068408Y-54780119D01*
X134180119Y-54668408D01*
X134259111Y-54531591D01*
X134264612Y-54511060D01*
X134814925Y-55061373D01*
G37*
%TD.AperFunction*%
%TA.AperFunction,Conductor*%
G36*
X138140889Y-54531591D02*
G01*
X138219881Y-54668408D01*
X138331592Y-54780119D01*
X138468409Y-54859111D01*
X138488938Y-54864611D01*
X137938625Y-55414925D01*
X137986031Y-55448119D01*
X138029656Y-55502696D01*
X138036850Y-55572194D01*
X138005327Y-55634549D01*
X137986032Y-55651269D01*
X137828594Y-55761508D01*
X137661508Y-55928594D01*
X137551269Y-56086032D01*
X137496692Y-56129656D01*
X137427193Y-56136849D01*
X137364839Y-56105327D01*
X137348119Y-56086031D01*
X137314926Y-56038626D01*
X137314925Y-56038625D01*
X136764612Y-56588939D01*
X136759111Y-56568409D01*
X136680119Y-56431592D01*
X136568408Y-56319881D01*
X136431591Y-56240889D01*
X136411059Y-56235387D01*
X136961373Y-55685073D01*
X136961373Y-55685072D01*
X136913969Y-55651880D01*
X136870344Y-55597303D01*
X136863150Y-55527805D01*
X136894673Y-55465450D01*
X136913969Y-55448730D01*
X136927601Y-55439185D01*
X137071401Y-55338495D01*
X137238495Y-55171401D01*
X137348730Y-55013968D01*
X137403307Y-54970344D01*
X137472805Y-54963150D01*
X137535160Y-54994673D01*
X137551880Y-55013969D01*
X137585072Y-55061373D01*
X137585073Y-55061373D01*
X138135387Y-54511059D01*
X138140889Y-54531591D01*
G37*
%TD.AperFunction*%
%TA.AperFunction,Conductor*%
G36*
X137940042Y-52742585D02*
G01*
X137960684Y-52759219D01*
X138105507Y-52904042D01*
X138138992Y-52965365D01*
X138134008Y-53035057D01*
X138092136Y-53090990D01*
X138070233Y-53104104D01*
X138022420Y-53126400D01*
X137938625Y-53185072D01*
X138488940Y-53735387D01*
X138468409Y-53740889D01*
X138331592Y-53819881D01*
X138219881Y-53931592D01*
X138140889Y-54068409D01*
X138135387Y-54088939D01*
X137585073Y-53538625D01*
X137585071Y-53538626D01*
X137551879Y-53586031D01*
X137497302Y-53629656D01*
X137427804Y-53636850D01*
X137365449Y-53605327D01*
X137348732Y-53586034D01*
X137238495Y-53428599D01*
X137071401Y-53261505D01*
X137032521Y-53234281D01*
X136877834Y-53125967D01*
X136877830Y-53125965D01*
X136796487Y-53088034D01*
X136663663Y-53026097D01*
X136663659Y-53026096D01*
X136663655Y-53026094D01*
X136465628Y-52973034D01*
X136441893Y-52966674D01*
X136382233Y-52930310D01*
X136351704Y-52867464D01*
X136359998Y-52798088D01*
X136404484Y-52744210D01*
X136471035Y-52722935D01*
X136473987Y-52722900D01*
X137873003Y-52722900D01*
X137940042Y-52742585D01*
G37*
%TD.AperFunction*%
%TA.AperFunction,Conductor*%
G36*
X93751171Y-50189306D02*
G01*
X93807104Y-50231178D01*
X93829641Y-50282252D01*
X93870806Y-50498041D01*
X93964125Y-50785247D01*
X93964127Y-50785252D01*
X94092704Y-51058491D01*
X94092707Y-51058497D01*
X94254516Y-51313469D01*
X94335311Y-51411133D01*
X95263708Y-50482736D01*
X95360967Y-50616602D01*
X95483398Y-50739033D01*
X95617262Y-50836290D01*
X94686564Y-51766987D01*
X94686565Y-51766989D01*
X94911461Y-51930385D01*
X94911479Y-51930397D01*
X95176109Y-52075878D01*
X95176117Y-52075882D01*
X95456889Y-52187047D01*
X95456892Y-52187048D01*
X95749399Y-52262150D01*
X96048827Y-52299978D01*
X96112870Y-52327910D01*
X96151646Y-52386032D01*
X96152843Y-52455891D01*
X96116081Y-52515308D01*
X96053032Y-52545417D01*
X96033285Y-52547000D01*
X92773443Y-52547000D01*
X92620714Y-52587923D01*
X92594740Y-52602920D01*
X92594739Y-52602920D01*
X92483787Y-52666977D01*
X92483782Y-52666981D01*
X92371978Y-52778786D01*
X92183530Y-52967233D01*
X92122207Y-53000718D01*
X92063756Y-52999327D01*
X91935413Y-52964938D01*
X91935403Y-52964936D01*
X91700001Y-52944341D01*
X91699999Y-52944341D01*
X91464596Y-52964936D01*
X91464583Y-52964939D01*
X91306592Y-53007271D01*
X91236742Y-53005608D01*
X91178880Y-52966445D01*
X91151377Y-52902216D01*
X91150500Y-52887496D01*
X91150500Y-52738826D01*
X91170185Y-52671787D01*
X91186814Y-52651150D01*
X93620160Y-50217804D01*
X93681479Y-50184322D01*
X93751171Y-50189306D01*
G37*
%TD.AperFunction*%
%TA.AperFunction,Conductor*%
G36*
X105631241Y-44320185D02*
G01*
X105676996Y-44372989D01*
X105685413Y-44421860D01*
X106238940Y-44975387D01*
X106218409Y-44980889D01*
X106081592Y-45059881D01*
X105969881Y-45171592D01*
X105890889Y-45308409D01*
X105885387Y-45328940D01*
X105335072Y-44778625D01*
X105276401Y-44862419D01*
X105176570Y-45076507D01*
X105176566Y-45076516D01*
X105115432Y-45304673D01*
X105115430Y-45304684D01*
X105094843Y-45539998D01*
X105094843Y-45540001D01*
X105115430Y-45775315D01*
X105115432Y-45775326D01*
X105176566Y-46003483D01*
X105176570Y-46003492D01*
X105276400Y-46217579D01*
X105276402Y-46217583D01*
X105335072Y-46301373D01*
X105335073Y-46301373D01*
X105885387Y-45751059D01*
X105890889Y-45771591D01*
X105969881Y-45908408D01*
X106081592Y-46020119D01*
X106218409Y-46099111D01*
X106238939Y-46104612D01*
X105688625Y-46654925D01*
X105736031Y-46688119D01*
X105779656Y-46742696D01*
X105786850Y-46812194D01*
X105755327Y-46874549D01*
X105736032Y-46891269D01*
X105578594Y-47001508D01*
X105411505Y-47168597D01*
X105275965Y-47362169D01*
X105275964Y-47362171D01*
X105176098Y-47576335D01*
X105176094Y-47576344D01*
X105114938Y-47804586D01*
X105114936Y-47804596D01*
X105094341Y-48039999D01*
X105094341Y-48040000D01*
X105114936Y-48275403D01*
X105114938Y-48275413D01*
X105176094Y-48503655D01*
X105176096Y-48503659D01*
X105176097Y-48503663D01*
X105266063Y-48696596D01*
X105275965Y-48717830D01*
X105275967Y-48717834D01*
X105324954Y-48787794D01*
X105411505Y-48911401D01*
X105578599Y-49078495D01*
X105616328Y-49104913D01*
X105772165Y-49214032D01*
X105772167Y-49214033D01*
X105772170Y-49214035D01*
X105986337Y-49313903D01*
X105986343Y-49313904D01*
X105986344Y-49313905D01*
X106040523Y-49328422D01*
X106214592Y-49375063D01*
X106402918Y-49391539D01*
X106449999Y-49395659D01*
X106450000Y-49395659D01*
X106450001Y-49395659D01*
X106489234Y-49392226D01*
X106685408Y-49375063D01*
X106913663Y-49313903D01*
X107127830Y-49214035D01*
X107321401Y-49078495D01*
X107488495Y-48911401D01*
X107598730Y-48753968D01*
X107653307Y-48710344D01*
X107722805Y-48703150D01*
X107785160Y-48734673D01*
X107801880Y-48753969D01*
X107835072Y-48801373D01*
X107835073Y-48801373D01*
X108385387Y-48251059D01*
X108390889Y-48271591D01*
X108469881Y-48408408D01*
X108581592Y-48520119D01*
X108718409Y-48599111D01*
X108738939Y-48604612D01*
X108188625Y-49154925D01*
X108272421Y-49213599D01*
X108486507Y-49313429D01*
X108486516Y-49313433D01*
X108714673Y-49374567D01*
X108714684Y-49374569D01*
X108949998Y-49395157D01*
X108950002Y-49395157D01*
X109185315Y-49374569D01*
X109185326Y-49374567D01*
X109413483Y-49313433D01*
X109413492Y-49313429D01*
X109627578Y-49213600D01*
X109627582Y-49213598D01*
X109711373Y-49154926D01*
X109711373Y-49154925D01*
X109161059Y-48604612D01*
X109181591Y-48599111D01*
X109318408Y-48520119D01*
X109430119Y-48408408D01*
X109509111Y-48271591D01*
X109514612Y-48251059D01*
X110064925Y-48801373D01*
X110098119Y-48753968D01*
X110152696Y-48710343D01*
X110222194Y-48703149D01*
X110284549Y-48734672D01*
X110301269Y-48753968D01*
X110411500Y-48911395D01*
X110411505Y-48911401D01*
X110578599Y-49078495D01*
X110616328Y-49104913D01*
X110772165Y-49214032D01*
X110772167Y-49214033D01*
X110772170Y-49214035D01*
X110986337Y-49313903D01*
X110986343Y-49313904D01*
X110986344Y-49313905D01*
X111040523Y-49328422D01*
X111214592Y-49375063D01*
X111402918Y-49391539D01*
X111449999Y-49395659D01*
X111450000Y-49395659D01*
X111450001Y-49395659D01*
X111489234Y-49392226D01*
X111685408Y-49375063D01*
X111813757Y-49340672D01*
X111883606Y-49342335D01*
X111933531Y-49372766D01*
X114896884Y-52336119D01*
X114930369Y-52397442D01*
X114925385Y-52467134D01*
X114883513Y-52523067D01*
X114818049Y-52547484D01*
X114809203Y-52547800D01*
X107738370Y-52547800D01*
X107738354Y-52547799D01*
X107730758Y-52547799D01*
X107572643Y-52547799D01*
X107496279Y-52568261D01*
X107419914Y-52588723D01*
X107419909Y-52588726D01*
X107282990Y-52667775D01*
X107282986Y-52667778D01*
X106983529Y-52967234D01*
X106922206Y-53000718D01*
X106863755Y-52999327D01*
X106735413Y-52964938D01*
X106735403Y-52964936D01*
X106500001Y-52944341D01*
X106499999Y-52944341D01*
X106264596Y-52964936D01*
X106264583Y-52964939D01*
X106136241Y-52999327D01*
X106066392Y-52997664D01*
X106016468Y-52967233D01*
X105835090Y-52785855D01*
X105835088Y-52785852D01*
X105716217Y-52666981D01*
X105716209Y-52666975D01*
X105605261Y-52602920D01*
X105605260Y-52602919D01*
X105587002Y-52592378D01*
X105579285Y-52587923D01*
X105426557Y-52546999D01*
X105268443Y-52546999D01*
X105260847Y-52546999D01*
X105260831Y-52547000D01*
X96366715Y-52547000D01*
X96299676Y-52527315D01*
X96253921Y-52474511D01*
X96243977Y-52405353D01*
X96273002Y-52341797D01*
X96331780Y-52304023D01*
X96351173Y-52299978D01*
X96650600Y-52262150D01*
X96943107Y-52187048D01*
X96943110Y-52187047D01*
X97223882Y-52075882D01*
X97223890Y-52075878D01*
X97488520Y-51930397D01*
X97488530Y-51930390D01*
X97713433Y-51766987D01*
X97713434Y-51766987D01*
X96782737Y-50836290D01*
X96916602Y-50739033D01*
X97039033Y-50616602D01*
X97136290Y-50482737D01*
X98064687Y-51411134D01*
X98145486Y-51313464D01*
X98307292Y-51058497D01*
X98307295Y-51058491D01*
X98435872Y-50785252D01*
X98435874Y-50785247D01*
X98529194Y-50498040D01*
X98585783Y-50201390D01*
X98585784Y-50201383D01*
X98604745Y-49900005D01*
X98604745Y-49899994D01*
X98585784Y-49598616D01*
X98585783Y-49598609D01*
X98529194Y-49301959D01*
X98435874Y-49014752D01*
X98435872Y-49014747D01*
X98307295Y-48741508D01*
X98307292Y-48741502D01*
X98145483Y-48486530D01*
X98064686Y-48388864D01*
X97136289Y-49317261D01*
X97039033Y-49183398D01*
X96916602Y-49060967D01*
X96782736Y-48963709D01*
X97713434Y-48033011D01*
X97713433Y-48033009D01*
X97488538Y-47869614D01*
X97488520Y-47869602D01*
X97223890Y-47724121D01*
X97223882Y-47724117D01*
X96943110Y-47612952D01*
X96943107Y-47612951D01*
X96650600Y-47537849D01*
X96590544Y-47530262D01*
X96526501Y-47502330D01*
X96487725Y-47444208D01*
X96486528Y-47374348D01*
X96518403Y-47319561D01*
X99501146Y-44336819D01*
X99562469Y-44303334D01*
X99588827Y-44300500D01*
X105564202Y-44300500D01*
X105631241Y-44320185D01*
G37*
%TD.AperFunction*%
%TA.AperFunction,Conductor*%
G36*
X107564925Y-46301373D02*
G01*
X107598119Y-46253968D01*
X107652696Y-46210343D01*
X107722194Y-46203149D01*
X107784549Y-46234672D01*
X107801269Y-46253968D01*
X107896777Y-46390368D01*
X107911505Y-46411401D01*
X108078599Y-46578495D01*
X108229763Y-46684341D01*
X108236031Y-46688730D01*
X108279655Y-46743307D01*
X108286848Y-46812806D01*
X108255326Y-46875160D01*
X108236030Y-46891880D01*
X108188626Y-46925072D01*
X108188625Y-46925072D01*
X108738940Y-47475387D01*
X108718409Y-47480889D01*
X108581592Y-47559881D01*
X108469881Y-47671592D01*
X108390889Y-47808409D01*
X108385387Y-47828940D01*
X107835072Y-47278625D01*
X107835071Y-47278626D01*
X107801879Y-47326031D01*
X107747302Y-47369656D01*
X107677804Y-47376850D01*
X107615449Y-47345327D01*
X107598730Y-47326032D01*
X107488495Y-47168599D01*
X107321401Y-47001505D01*
X107321399Y-47001504D01*
X107321396Y-47001501D01*
X107163968Y-46891269D01*
X107120343Y-46836692D01*
X107113149Y-46767194D01*
X107144672Y-46704839D01*
X107163968Y-46688119D01*
X107211373Y-46654925D01*
X106661059Y-46104612D01*
X106681591Y-46099111D01*
X106818408Y-46020119D01*
X106930119Y-45908408D01*
X107009111Y-45771591D01*
X107014612Y-45751060D01*
X107564925Y-46301373D01*
G37*
%TD.AperFunction*%
%TA.AperFunction,Conductor*%
G36*
X115890889Y-45771591D02*
G01*
X115969881Y-45908408D01*
X116081592Y-46020119D01*
X116218409Y-46099111D01*
X116238939Y-46104612D01*
X115688625Y-46654925D01*
X115736031Y-46688119D01*
X115779656Y-46742696D01*
X115786850Y-46812194D01*
X115755327Y-46874549D01*
X115736032Y-46891269D01*
X115578594Y-47001508D01*
X115411508Y-47168594D01*
X115301269Y-47326032D01*
X115246692Y-47369656D01*
X115177193Y-47376849D01*
X115114839Y-47345327D01*
X115098119Y-47326031D01*
X115064926Y-47278626D01*
X115064925Y-47278625D01*
X114514612Y-47828939D01*
X114509111Y-47808409D01*
X114430119Y-47671592D01*
X114318408Y-47559881D01*
X114181591Y-47480889D01*
X114161059Y-47475387D01*
X114711373Y-46925073D01*
X114711373Y-46925072D01*
X114663969Y-46891880D01*
X114620344Y-46837303D01*
X114613150Y-46767805D01*
X114644673Y-46705450D01*
X114663969Y-46688730D01*
X114670237Y-46684341D01*
X114821401Y-46578495D01*
X114988495Y-46411401D01*
X115098730Y-46253968D01*
X115153307Y-46210344D01*
X115222805Y-46203150D01*
X115285160Y-46234673D01*
X115301880Y-46253969D01*
X115335073Y-46301373D01*
X115885387Y-45751058D01*
X115890889Y-45771591D01*
G37*
%TD.AperFunction*%
%TA.AperFunction,Conductor*%
G36*
X117564925Y-46301373D02*
G01*
X117598119Y-46253968D01*
X117652696Y-46210343D01*
X117722194Y-46203149D01*
X117784549Y-46234672D01*
X117801269Y-46253968D01*
X117896777Y-46390368D01*
X117911505Y-46411401D01*
X118078599Y-46578495D01*
X118229763Y-46684341D01*
X118236031Y-46688730D01*
X118279655Y-46743307D01*
X118286848Y-46812806D01*
X118255326Y-46875160D01*
X118236030Y-46891880D01*
X118188626Y-46925072D01*
X118188625Y-46925072D01*
X118738940Y-47475387D01*
X118718409Y-47480889D01*
X118581592Y-47559881D01*
X118469881Y-47671592D01*
X118390889Y-47808409D01*
X118385387Y-47828939D01*
X117835073Y-47278625D01*
X117835071Y-47278626D01*
X117801879Y-47326031D01*
X117747302Y-47369656D01*
X117677804Y-47376850D01*
X117615449Y-47345327D01*
X117598730Y-47326032D01*
X117488495Y-47168599D01*
X117321401Y-47001505D01*
X117321399Y-47001504D01*
X117321396Y-47001501D01*
X117163968Y-46891269D01*
X117120343Y-46836692D01*
X117113149Y-46767194D01*
X117144672Y-46704839D01*
X117163968Y-46688119D01*
X117211373Y-46654925D01*
X116661059Y-46104612D01*
X116681591Y-46099111D01*
X116818408Y-46020119D01*
X116930119Y-45908408D01*
X117009111Y-45771591D01*
X117014612Y-45751060D01*
X117564925Y-46301373D01*
G37*
%TD.AperFunction*%
%TA.AperFunction,Conductor*%
G36*
X120890889Y-45771591D02*
G01*
X120969881Y-45908408D01*
X121081592Y-46020119D01*
X121218409Y-46099111D01*
X121238939Y-46104612D01*
X120688625Y-46654925D01*
X120736031Y-46688119D01*
X120779656Y-46742696D01*
X120786850Y-46812194D01*
X120755327Y-46874549D01*
X120736032Y-46891269D01*
X120578594Y-47001508D01*
X120411508Y-47168594D01*
X120301269Y-47326032D01*
X120246692Y-47369656D01*
X120177193Y-47376849D01*
X120114839Y-47345327D01*
X120098119Y-47326031D01*
X120064926Y-47278626D01*
X120064925Y-47278625D01*
X119514612Y-47828939D01*
X119509111Y-47808409D01*
X119430119Y-47671592D01*
X119318408Y-47559881D01*
X119181591Y-47480889D01*
X119161059Y-47475387D01*
X119711373Y-46925073D01*
X119711373Y-46925072D01*
X119663969Y-46891880D01*
X119620344Y-46837303D01*
X119613150Y-46767805D01*
X119644673Y-46705450D01*
X119663969Y-46688730D01*
X119670237Y-46684341D01*
X119821401Y-46578495D01*
X119988495Y-46411401D01*
X120098730Y-46253968D01*
X120153307Y-46210344D01*
X120222805Y-46203150D01*
X120285160Y-46234673D01*
X120301880Y-46253969D01*
X120335072Y-46301373D01*
X120335073Y-46301373D01*
X120885387Y-45751059D01*
X120890889Y-45771591D01*
G37*
%TD.AperFunction*%
%TA.AperFunction,Conductor*%
G36*
X122605812Y-46342260D02*
G01*
X122605756Y-46342315D01*
X122632496Y-46368215D01*
X122642332Y-46390367D01*
X122665186Y-46459334D01*
X122757288Y-46608656D01*
X122881344Y-46732712D01*
X123030666Y-46824814D01*
X123099631Y-46847666D01*
X123157075Y-46887439D01*
X123161404Y-46897852D01*
X123738940Y-47475387D01*
X123718409Y-47480889D01*
X123581592Y-47559881D01*
X123469881Y-47671592D01*
X123390889Y-47808409D01*
X123385387Y-47828939D01*
X122835073Y-47278625D01*
X122835071Y-47278626D01*
X122801879Y-47326031D01*
X122747302Y-47369656D01*
X122677804Y-47376850D01*
X122615449Y-47345327D01*
X122598730Y-47326032D01*
X122488495Y-47168599D01*
X122321401Y-47001505D01*
X122321399Y-47001504D01*
X122321396Y-47001501D01*
X122163968Y-46891269D01*
X122120343Y-46836692D01*
X122113149Y-46767194D01*
X122144672Y-46704839D01*
X122163968Y-46688119D01*
X122211373Y-46654925D01*
X121661059Y-46104612D01*
X121681591Y-46099111D01*
X121818408Y-46020119D01*
X121930119Y-45908408D01*
X122009111Y-45771591D01*
X122014612Y-45751060D01*
X122605812Y-46342260D01*
G37*
%TD.AperFunction*%
%TA.AperFunction,Conductor*%
G36*
X110631241Y-44320185D02*
G01*
X110676996Y-44372989D01*
X110685413Y-44421860D01*
X111238940Y-44975387D01*
X111218409Y-44980889D01*
X111081592Y-45059881D01*
X110969881Y-45171592D01*
X110890889Y-45308409D01*
X110885387Y-45328940D01*
X110335072Y-44778625D01*
X110335071Y-44778626D01*
X110301879Y-44826031D01*
X110247302Y-44869656D01*
X110177804Y-44876850D01*
X110115449Y-44845327D01*
X110098730Y-44826032D01*
X109988495Y-44668599D01*
X109832075Y-44512179D01*
X109798592Y-44450858D01*
X109803576Y-44381167D01*
X109845447Y-44325233D01*
X109910912Y-44300816D01*
X109919758Y-44300500D01*
X110564202Y-44300500D01*
X110631241Y-44320185D01*
G37*
%TD.AperFunction*%
%TA.AperFunction,Conductor*%
G36*
X108047280Y-44320185D02*
G01*
X108093035Y-44372989D01*
X108102979Y-44442147D01*
X108073954Y-44505703D01*
X108067922Y-44512181D01*
X107911508Y-44668594D01*
X107801269Y-44826032D01*
X107746692Y-44869656D01*
X107677193Y-44876849D01*
X107614839Y-44845327D01*
X107598119Y-44826031D01*
X107564926Y-44778626D01*
X107564925Y-44778625D01*
X107014612Y-45328939D01*
X107009111Y-45308409D01*
X106930119Y-45171592D01*
X106818408Y-45059881D01*
X106681591Y-44980889D01*
X106661059Y-44975387D01*
X107215068Y-44421378D01*
X107226036Y-44366807D01*
X107274651Y-44316624D01*
X107335797Y-44300500D01*
X107980241Y-44300500D01*
X108047280Y-44320185D01*
G37*
%TD.AperFunction*%
%TA.AperFunction,Conductor*%
G36*
X124362930Y-33429466D02*
G01*
X124996322Y-33457710D01*
X125003673Y-33458257D01*
X125634295Y-33524152D01*
X125641551Y-33525129D01*
X126267101Y-33628434D01*
X126274344Y-33629852D01*
X126892640Y-33770205D01*
X126899778Y-33772052D01*
X127508614Y-33948953D01*
X127515641Y-33951223D01*
X128112860Y-34164042D01*
X128119710Y-34166715D01*
X128650886Y-34392466D01*
X128660869Y-34397460D01*
X128712884Y-34419132D01*
X128717037Y-34420951D01*
X128726375Y-34425253D01*
X128732136Y-34428091D01*
X128846149Y-34488005D01*
X128864670Y-34499951D01*
X128965220Y-34578299D01*
X128981338Y-34593345D01*
X129066414Y-34688261D01*
X129079615Y-34705927D01*
X129149436Y-34819123D01*
X129154807Y-34828767D01*
X129183389Y-34885932D01*
X129187375Y-34892694D01*
X129355043Y-35222114D01*
X129373173Y-35257733D01*
X129844055Y-36101816D01*
X129844058Y-36101820D01*
X130346696Y-36927389D01*
X130611405Y-37327112D01*
X130880358Y-37733245D01*
X131094024Y-38030672D01*
X131444280Y-38518235D01*
X132037631Y-39281201D01*
X132037636Y-39281207D01*
X132659577Y-40021070D01*
X132659588Y-40021082D01*
X133309193Y-40736744D01*
X133985562Y-41427212D01*
X134458739Y-41874858D01*
X134687693Y-42091459D01*
X135144338Y-42491683D01*
X135414575Y-42728531D01*
X136165145Y-43337498D01*
X136938335Y-43917490D01*
X137492019Y-44300816D01*
X137708742Y-44450858D01*
X137733019Y-44467665D01*
X138548035Y-44987218D01*
X139382224Y-45475410D01*
X140062167Y-45839357D01*
X140234380Y-45931536D01*
X141103257Y-46354927D01*
X141987604Y-46744975D01*
X142886143Y-47101116D01*
X143797573Y-47422834D01*
X144720577Y-47709665D01*
X145653819Y-47961193D01*
X146112808Y-48066357D01*
X146595939Y-48177053D01*
X146595950Y-48177055D01*
X147545608Y-48356938D01*
X148501418Y-48500582D01*
X149462000Y-48607780D01*
X150425962Y-48678377D01*
X150863777Y-48693726D01*
X150881568Y-48695643D01*
X150901937Y-48699341D01*
X150931053Y-48696939D01*
X150945580Y-48696596D01*
X150974789Y-48697622D01*
X150978838Y-48696687D01*
X151005376Y-48693518D01*
X151188787Y-48691536D01*
X151206433Y-48692608D01*
X151394402Y-48717578D01*
X151416895Y-48720566D01*
X151434232Y-48724143D01*
X151638575Y-48781786D01*
X151655214Y-48787792D01*
X151849263Y-48873942D01*
X151864875Y-48882254D01*
X152044686Y-48995161D01*
X152058959Y-49005615D01*
X152144858Y-49078493D01*
X152220853Y-49142969D01*
X152233498Y-49155355D01*
X152374186Y-49314362D01*
X152384940Y-49328423D01*
X152501544Y-49505829D01*
X152510187Y-49521278D01*
X152600347Y-49713492D01*
X152606701Y-49730014D01*
X152668572Y-49933106D01*
X152672508Y-49950363D01*
X152691471Y-50073462D01*
X152692815Y-50087323D01*
X152695262Y-50147744D01*
X152695347Y-50150730D01*
X152706019Y-50802027D01*
X152705973Y-50808004D01*
X152685300Y-51457500D01*
X152684966Y-51463467D01*
X152633021Y-52111208D01*
X152632400Y-52117152D01*
X152549305Y-52761643D01*
X152548398Y-52767551D01*
X152434346Y-53407280D01*
X152433156Y-53413136D01*
X152288408Y-54046652D01*
X152286936Y-54052445D01*
X152111842Y-54678205D01*
X152110094Y-54683920D01*
X151905040Y-55300557D01*
X151903018Y-55306181D01*
X151668492Y-55912214D01*
X151666201Y-55917734D01*
X151402752Y-56511753D01*
X151400198Y-56517157D01*
X151108439Y-57097778D01*
X151105628Y-57103052D01*
X150841053Y-57571809D01*
X150808834Y-57609018D01*
X150003031Y-58231004D01*
X149999700Y-58233487D01*
X149079552Y-58895763D01*
X149076141Y-58898133D01*
X148134280Y-59529248D01*
X148130790Y-59531502D01*
X147168372Y-60130681D01*
X147164810Y-60132817D01*
X146182831Y-60699443D01*
X146179198Y-60701459D01*
X145178811Y-61234864D01*
X145175114Y-61236757D01*
X144157375Y-61736379D01*
X144153616Y-61738146D01*
X143119771Y-62203372D01*
X143115955Y-62205013D01*
X142067100Y-62635351D01*
X142063231Y-62636864D01*
X141000488Y-63031853D01*
X140996570Y-63033234D01*
X139921276Y-63392378D01*
X139917315Y-63393628D01*
X138830537Y-63716570D01*
X138826536Y-63717686D01*
X137729585Y-64004036D01*
X137725548Y-64005018D01*
X136619610Y-64254467D01*
X136615544Y-64255313D01*
X135501854Y-64467583D01*
X135497761Y-64468292D01*
X134377614Y-64643136D01*
X134373499Y-64643708D01*
X133248119Y-64780934D01*
X133243988Y-64781368D01*
X132114623Y-64880824D01*
X132110479Y-64881119D01*
X130978428Y-64942691D01*
X130974277Y-64942847D01*
X129840803Y-64966466D01*
X129836649Y-64966483D01*
X128703021Y-64952123D01*
X128698869Y-64952001D01*
X127566355Y-64899679D01*
X127562209Y-64899418D01*
X126432070Y-64809189D01*
X126427936Y-64808789D01*
X125301475Y-64680760D01*
X125297356Y-64680222D01*
X124175797Y-64514532D01*
X124171698Y-64513856D01*
X123056317Y-64310691D01*
X123052244Y-64309878D01*
X123046202Y-64308567D01*
X121944314Y-64069472D01*
X121940269Y-64068523D01*
X120841022Y-63791144D01*
X120837012Y-63790061D01*
X119747613Y-63476001D01*
X119743642Y-63474783D01*
X118665458Y-63124438D01*
X118661529Y-63123089D01*
X117595605Y-62736797D01*
X117591724Y-62735316D01*
X116674506Y-62367711D01*
X116539368Y-62313550D01*
X116535545Y-62311943D01*
X116495282Y-62294219D01*
X116288910Y-62203372D01*
X115554861Y-61880237D01*
X115542519Y-61873006D01*
X115542232Y-61873515D01*
X115535155Y-61869514D01*
X115487914Y-61850447D01*
X115482472Y-61848098D01*
X115436169Y-61826782D01*
X115432826Y-61825746D01*
X115420013Y-61822117D01*
X115419949Y-61822344D01*
X115413661Y-61820556D01*
X115285377Y-61798305D01*
X115285373Y-61798305D01*
X115155282Y-61803531D01*
X115051371Y-61830287D01*
X115043775Y-61831991D01*
X115036112Y-61833458D01*
X115032844Y-61834541D01*
X115031097Y-61835288D01*
X115029208Y-61835993D01*
X114974900Y-61863082D01*
X114973585Y-61863728D01*
X114839151Y-61928810D01*
X114834958Y-61930744D01*
X113795939Y-62386813D01*
X113792103Y-62388421D01*
X112735519Y-62810533D01*
X112731632Y-62812011D01*
X111661474Y-63198462D01*
X111657540Y-63199808D01*
X110575054Y-63550147D01*
X110571077Y-63551361D01*
X109477455Y-63865205D01*
X109473439Y-63866285D01*
X108369895Y-64143285D01*
X108365845Y-64144230D01*
X107253617Y-64384074D01*
X107249538Y-64384882D01*
X106129916Y-64587291D01*
X106125812Y-64587962D01*
X105000023Y-64752716D01*
X104995898Y-64753249D01*
X103865241Y-64880158D01*
X103861101Y-64880553D01*
X102726777Y-64969480D01*
X102722627Y-64969735D01*
X101585994Y-65020576D01*
X101581837Y-65020692D01*
X100444145Y-65033390D01*
X100439986Y-65033367D01*
X99302477Y-65007908D01*
X99298322Y-65007745D01*
X98162328Y-64944159D01*
X98158180Y-64943857D01*
X98146919Y-64942847D01*
X98093047Y-64938015D01*
X97024953Y-64842214D01*
X97020818Y-64841773D01*
X95891646Y-64702190D01*
X95887528Y-64701611D01*
X94763652Y-64524239D01*
X94759556Y-64523522D01*
X93642269Y-64308567D01*
X93638199Y-64307713D01*
X92528747Y-64055413D01*
X92524708Y-64054423D01*
X91424334Y-63765060D01*
X91420331Y-63763935D01*
X90330310Y-63437848D01*
X90326346Y-63436590D01*
X89247821Y-63074119D01*
X89243902Y-63072728D01*
X88178153Y-62674301D01*
X88174283Y-62672779D01*
X87122530Y-62238854D01*
X87118713Y-62237204D01*
X86082084Y-61768248D01*
X86078324Y-61766471D01*
X85057970Y-61263003D01*
X85054272Y-61261100D01*
X84051420Y-60723724D01*
X84047788Y-60721699D01*
X83063491Y-60150983D01*
X83059929Y-60148837D01*
X82095334Y-59545443D01*
X82091846Y-59543179D01*
X81148015Y-58907771D01*
X81144605Y-58905391D01*
X80222630Y-58238706D01*
X80219301Y-58236213D01*
X79411101Y-57609478D01*
X79379102Y-57572438D01*
X79114177Y-57103059D01*
X79111366Y-57097786D01*
X79048479Y-56972638D01*
X78819587Y-56517127D01*
X78817048Y-56511753D01*
X78611020Y-56047204D01*
X78553600Y-55917734D01*
X78551309Y-55912214D01*
X78471955Y-55707157D01*
X78316770Y-55306147D01*
X78314772Y-55300591D01*
X78109706Y-54683921D01*
X78107958Y-54678206D01*
X78024235Y-54378991D01*
X78002133Y-54300001D01*
X87844843Y-54300001D01*
X87865430Y-54535315D01*
X87865432Y-54535326D01*
X87926566Y-54763483D01*
X87926570Y-54763492D01*
X88026400Y-54977579D01*
X88026402Y-54977583D01*
X88085072Y-55061373D01*
X88085073Y-55061373D01*
X88635387Y-54511059D01*
X88640889Y-54531591D01*
X88719881Y-54668408D01*
X88831592Y-54780119D01*
X88968409Y-54859111D01*
X88988939Y-54864611D01*
X88397739Y-55455812D01*
X88397683Y-55455756D01*
X88371767Y-55482506D01*
X88349631Y-55492332D01*
X88280674Y-55515182D01*
X88280663Y-55515187D01*
X88131342Y-55607289D01*
X88007289Y-55731342D01*
X87915187Y-55880663D01*
X87915185Y-55880668D01*
X87891409Y-55952420D01*
X87860001Y-56047203D01*
X87860001Y-56047204D01*
X87860000Y-56047204D01*
X87849500Y-56149983D01*
X87849500Y-57450001D01*
X87849501Y-57450018D01*
X87860000Y-57552796D01*
X87860001Y-57552799D01*
X87899303Y-57671402D01*
X87915186Y-57719334D01*
X88007288Y-57868656D01*
X88131344Y-57992712D01*
X88280666Y-58084814D01*
X88447203Y-58139999D01*
X88549991Y-58150500D01*
X89850008Y-58150499D01*
X89952797Y-58139999D01*
X90119334Y-58084814D01*
X90268656Y-57992712D01*
X90392712Y-57868656D01*
X90484814Y-57719334D01*
X90507667Y-57650366D01*
X90547438Y-57592924D01*
X90557853Y-57588593D01*
X91135387Y-57011059D01*
X91140889Y-57031591D01*
X91219881Y-57168408D01*
X91331592Y-57280119D01*
X91468409Y-57359111D01*
X91488938Y-57364611D01*
X90938625Y-57914925D01*
X91022421Y-57973599D01*
X91236507Y-58073429D01*
X91236516Y-58073433D01*
X91464673Y-58134567D01*
X91464684Y-58134569D01*
X91699998Y-58155157D01*
X91700001Y-58155157D01*
X91918405Y-58136048D01*
X91986905Y-58149814D01*
X92037088Y-58198429D01*
X92050830Y-58235384D01*
X92084104Y-58402659D01*
X92084106Y-58402667D01*
X92151983Y-58566540D01*
X92151990Y-58566553D01*
X92250535Y-58714034D01*
X92250538Y-58714038D01*
X92375961Y-58839461D01*
X92375965Y-58839464D01*
X92523446Y-58938009D01*
X92523459Y-58938016D01*
X92646363Y-58988923D01*
X92687334Y-59005894D01*
X92687336Y-59005894D01*
X92687341Y-59005896D01*
X92861304Y-59040499D01*
X92861307Y-59040500D01*
X92861309Y-59040500D01*
X93038693Y-59040500D01*
X93038694Y-59040499D01*
X93096682Y-59028964D01*
X93212658Y-59005896D01*
X93212661Y-59005894D01*
X93212666Y-59005894D01*
X93376547Y-58938013D01*
X93524035Y-58839464D01*
X93649464Y-58714035D01*
X93748013Y-58566547D01*
X93815894Y-58402666D01*
X93849070Y-58235876D01*
X93881454Y-58173967D01*
X93942170Y-58139393D01*
X93981489Y-58136541D01*
X94179705Y-58153883D01*
X94199999Y-58155659D01*
X94200000Y-58155659D01*
X94200001Y-58155659D01*
X94258966Y-58150500D01*
X94435408Y-58135063D01*
X94663663Y-58073903D01*
X94877830Y-57974035D01*
X95071401Y-57838495D01*
X95238495Y-57671401D01*
X95348730Y-57513968D01*
X95403307Y-57470344D01*
X95472805Y-57463150D01*
X95535160Y-57494673D01*
X95551880Y-57513969D01*
X95585072Y-57561373D01*
X95585073Y-57561373D01*
X96135387Y-57011058D01*
X96140889Y-57031591D01*
X96219881Y-57168408D01*
X96331592Y-57280119D01*
X96468409Y-57359111D01*
X96488939Y-57364612D01*
X95938625Y-57914925D01*
X96022421Y-57973599D01*
X96236507Y-58073429D01*
X96236516Y-58073433D01*
X96464673Y-58134567D01*
X96464684Y-58134569D01*
X96699998Y-58155157D01*
X96700002Y-58155157D01*
X96935315Y-58134569D01*
X96935326Y-58134567D01*
X97163483Y-58073433D01*
X97163492Y-58073429D01*
X97377578Y-57973600D01*
X97377582Y-57973598D01*
X97461373Y-57914926D01*
X97461373Y-57914925D01*
X96911059Y-57364612D01*
X96931591Y-57359111D01*
X97068408Y-57280119D01*
X97180119Y-57168408D01*
X97259111Y-57031591D01*
X97264612Y-57011060D01*
X97814925Y-57561373D01*
X97814926Y-57561373D01*
X97873598Y-57477582D01*
X97873600Y-57477578D01*
X97973429Y-57263492D01*
X97973431Y-57263487D01*
X97974736Y-57258620D01*
X98011099Y-57198959D01*
X98073945Y-57168428D01*
X98143321Y-57176720D01*
X98182193Y-57203029D01*
X98259684Y-57280520D01*
X98259686Y-57280521D01*
X98259690Y-57280524D01*
X98358519Y-57337582D01*
X98396616Y-57359577D01*
X98508419Y-57389534D01*
X98549342Y-57400500D01*
X98549343Y-57400500D01*
X102532465Y-57400500D01*
X102599504Y-57420185D01*
X102645259Y-57472989D01*
X102655823Y-57511898D01*
X102660001Y-57552797D01*
X102660001Y-57552799D01*
X102699303Y-57671402D01*
X102715186Y-57719334D01*
X102807288Y-57868656D01*
X102931344Y-57992712D01*
X103080666Y-58084814D01*
X103247203Y-58139999D01*
X103349991Y-58150500D01*
X104449902Y-58150499D01*
X104516941Y-58170184D01*
X104537583Y-58186818D01*
X106102239Y-59751474D01*
X106102249Y-59751485D01*
X106106579Y-59755815D01*
X106106580Y-59755816D01*
X106218384Y-59867620D01*
X106305195Y-59917739D01*
X106305197Y-59917741D01*
X106343251Y-59939711D01*
X106355315Y-59946677D01*
X106508043Y-59987601D01*
X106508046Y-59987601D01*
X106673753Y-59987601D01*
X106673769Y-59987600D01*
X116226231Y-59987600D01*
X116226247Y-59987601D01*
X116233843Y-59987601D01*
X116391954Y-59987601D01*
X116391957Y-59987601D01*
X116544685Y-59946677D01*
X116594804Y-59917739D01*
X116681616Y-59867620D01*
X116793420Y-59755816D01*
X116793420Y-59755814D01*
X116803628Y-59745607D01*
X116803630Y-59745604D01*
X118362416Y-58186818D01*
X118423739Y-58153333D01*
X118450097Y-58150499D01*
X119349901Y-58150499D01*
X119416940Y-58170184D01*
X119437582Y-58186818D01*
X120871284Y-59620520D01*
X120871286Y-59620521D01*
X120871290Y-59620524D01*
X121008209Y-59699573D01*
X121008216Y-59699577D01*
X121160943Y-59740501D01*
X121160945Y-59740501D01*
X121326654Y-59740501D01*
X121326670Y-59740500D01*
X131273331Y-59740500D01*
X131273347Y-59740501D01*
X131280943Y-59740501D01*
X131439054Y-59740501D01*
X131439057Y-59740501D01*
X131591785Y-59699577D01*
X131641904Y-59670639D01*
X131728716Y-59620520D01*
X131840520Y-59508716D01*
X131840520Y-59508714D01*
X131850728Y-59498507D01*
X131850730Y-59498504D01*
X133162416Y-58186818D01*
X133223739Y-58153333D01*
X133250097Y-58150499D01*
X134350002Y-58150499D01*
X134350008Y-58150499D01*
X134452797Y-58139999D01*
X134619334Y-58084814D01*
X134768656Y-57992712D01*
X134892712Y-57868656D01*
X134984814Y-57719334D01*
X135007667Y-57650366D01*
X135047438Y-57592924D01*
X135057853Y-57588593D01*
X135635387Y-57011059D01*
X135640889Y-57031591D01*
X135719881Y-57168408D01*
X135831592Y-57280119D01*
X135968409Y-57359111D01*
X135988939Y-57364612D01*
X135438625Y-57914925D01*
X135522421Y-57973599D01*
X135736507Y-58073429D01*
X135736516Y-58073433D01*
X135964673Y-58134567D01*
X135964684Y-58134569D01*
X136199998Y-58155157D01*
X136200001Y-58155157D01*
X136418405Y-58136048D01*
X136486905Y-58149814D01*
X136537088Y-58198429D01*
X136550830Y-58235384D01*
X136584104Y-58402659D01*
X136584106Y-58402667D01*
X136651983Y-58566540D01*
X136651990Y-58566553D01*
X136750535Y-58714034D01*
X136750538Y-58714038D01*
X136875961Y-58839461D01*
X136875965Y-58839464D01*
X137023446Y-58938009D01*
X137023459Y-58938016D01*
X137146363Y-58988923D01*
X137187334Y-59005894D01*
X137187336Y-59005894D01*
X137187341Y-59005896D01*
X137361304Y-59040499D01*
X137361307Y-59040500D01*
X137361309Y-59040500D01*
X137538693Y-59040500D01*
X137538694Y-59040499D01*
X137596682Y-59028964D01*
X137712658Y-59005896D01*
X137712661Y-59005894D01*
X137712666Y-59005894D01*
X137876547Y-58938013D01*
X138024035Y-58839464D01*
X138149464Y-58714035D01*
X138248013Y-58566547D01*
X138315894Y-58402666D01*
X138349070Y-58235876D01*
X138381454Y-58173967D01*
X138442170Y-58139393D01*
X138481489Y-58136541D01*
X138679705Y-58153883D01*
X138699999Y-58155659D01*
X138700000Y-58155659D01*
X138700001Y-58155659D01*
X138758966Y-58150500D01*
X138935408Y-58135063D01*
X139163663Y-58073903D01*
X139377830Y-57974035D01*
X139571401Y-57838495D01*
X139738495Y-57671401D01*
X139848730Y-57513968D01*
X139903307Y-57470344D01*
X139972805Y-57463150D01*
X140035160Y-57494673D01*
X140051880Y-57513969D01*
X140085073Y-57561373D01*
X140635387Y-57011058D01*
X140640889Y-57031591D01*
X140719881Y-57168408D01*
X140831592Y-57280119D01*
X140968409Y-57359111D01*
X140988939Y-57364612D01*
X140438625Y-57914925D01*
X140522421Y-57973599D01*
X140736507Y-58073429D01*
X140736516Y-58073433D01*
X140964673Y-58134567D01*
X140964684Y-58134569D01*
X141199998Y-58155157D01*
X141200002Y-58155157D01*
X141435315Y-58134569D01*
X141435326Y-58134567D01*
X141663483Y-58073433D01*
X141663492Y-58073429D01*
X141877578Y-57973600D01*
X141877582Y-57973598D01*
X141961373Y-57914926D01*
X141961373Y-57914925D01*
X141411059Y-57364612D01*
X141431591Y-57359111D01*
X141568408Y-57280119D01*
X141680119Y-57168408D01*
X141759111Y-57031591D01*
X141764612Y-57011060D01*
X142314925Y-57561373D01*
X142314926Y-57561373D01*
X142373598Y-57477582D01*
X142373600Y-57477578D01*
X142473429Y-57263492D01*
X142473433Y-57263483D01*
X142534567Y-57035326D01*
X142534569Y-57035315D01*
X142555157Y-56800001D01*
X142555157Y-56799998D01*
X142534569Y-56564684D01*
X142534567Y-56564673D01*
X142473433Y-56336516D01*
X142473429Y-56336507D01*
X142373600Y-56122423D01*
X142373599Y-56122421D01*
X142314925Y-56038626D01*
X142314925Y-56038625D01*
X141764612Y-56588939D01*
X141759111Y-56568409D01*
X141680119Y-56431592D01*
X141568408Y-56319881D01*
X141431591Y-56240889D01*
X141411058Y-56235387D01*
X141961373Y-55685073D01*
X141961373Y-55685072D01*
X141913969Y-55651880D01*
X141870344Y-55597303D01*
X141863150Y-55527805D01*
X141894673Y-55465450D01*
X141913969Y-55448730D01*
X141927601Y-55439185D01*
X142071401Y-55338495D01*
X142238495Y-55171401D01*
X142374035Y-54977830D01*
X142473903Y-54763663D01*
X142535063Y-54535408D01*
X142555659Y-54300000D01*
X142535063Y-54064592D01*
X142473903Y-53836337D01*
X142374035Y-53622171D01*
X142315537Y-53538626D01*
X142238494Y-53428597D01*
X142071402Y-53261506D01*
X142071395Y-53261501D01*
X142065575Y-53257426D01*
X142032521Y-53234281D01*
X141877834Y-53125967D01*
X141877830Y-53125965D01*
X141796487Y-53088034D01*
X141663663Y-53026097D01*
X141663659Y-53026096D01*
X141663655Y-53026094D01*
X141435413Y-52964938D01*
X141435403Y-52964936D01*
X141200001Y-52944341D01*
X141199999Y-52944341D01*
X140964596Y-52964936D01*
X140964586Y-52964938D01*
X140736344Y-53026094D01*
X140736335Y-53026098D01*
X140522171Y-53125964D01*
X140522169Y-53125965D01*
X140328593Y-53261508D01*
X140324734Y-53264746D01*
X140260722Y-53292750D01*
X140191731Y-53281700D01*
X140157361Y-53257426D01*
X138660690Y-51760755D01*
X138660688Y-51760752D01*
X138541817Y-51641881D01*
X138541816Y-51641880D01*
X138455004Y-51591760D01*
X138455004Y-51591759D01*
X138455000Y-51591758D01*
X138404885Y-51562823D01*
X138252157Y-51521899D01*
X138094043Y-51521899D01*
X138086447Y-51521899D01*
X138086431Y-51521900D01*
X136236569Y-51521900D01*
X136169530Y-51502215D01*
X136123775Y-51449411D01*
X136113831Y-51380253D01*
X136141024Y-51318860D01*
X136145483Y-51313469D01*
X136307292Y-51058497D01*
X136307295Y-51058491D01*
X136435872Y-50785252D01*
X136435874Y-50785247D01*
X136529194Y-50498040D01*
X136585783Y-50201390D01*
X136585784Y-50201383D01*
X136604745Y-49900005D01*
X136604745Y-49899994D01*
X136585784Y-49598616D01*
X136585783Y-49598609D01*
X136529194Y-49301959D01*
X136435874Y-49014752D01*
X136435872Y-49014747D01*
X136307295Y-48741508D01*
X136307292Y-48741502D01*
X136145483Y-48486530D01*
X136064686Y-48388864D01*
X135136289Y-49317261D01*
X135039033Y-49183398D01*
X134916602Y-49060967D01*
X134782736Y-48963709D01*
X135713434Y-48033011D01*
X135713433Y-48033009D01*
X135488538Y-47869614D01*
X135488520Y-47869602D01*
X135223890Y-47724121D01*
X135223882Y-47724117D01*
X134943110Y-47612952D01*
X134943107Y-47612951D01*
X134650600Y-47537849D01*
X134351004Y-47500000D01*
X134048995Y-47500000D01*
X133749399Y-47537849D01*
X133456892Y-47612951D01*
X133456889Y-47612952D01*
X133176117Y-47724117D01*
X133176109Y-47724121D01*
X132911476Y-47869604D01*
X132911471Y-47869607D01*
X132686565Y-48033010D01*
X132686564Y-48033011D01*
X133617262Y-48963709D01*
X133483398Y-49060967D01*
X133360967Y-49183398D01*
X133263709Y-49317262D01*
X132335311Y-48388864D01*
X132254520Y-48486525D01*
X132254518Y-48486528D01*
X132092707Y-48741502D01*
X132092704Y-48741508D01*
X131964127Y-49014747D01*
X131964125Y-49014752D01*
X131870805Y-49301959D01*
X131814216Y-49598609D01*
X131814215Y-49598616D01*
X131795255Y-49899994D01*
X131795255Y-49900005D01*
X131814215Y-50201383D01*
X131814216Y-50201390D01*
X131870805Y-50498040D01*
X131964125Y-50785247D01*
X131964127Y-50785252D01*
X132092704Y-51058491D01*
X132092707Y-51058497D01*
X132254516Y-51313469D01*
X132258976Y-51318860D01*
X132286540Y-51383063D01*
X132275018Y-51451976D01*
X132228069Y-51503721D01*
X132163431Y-51521900D01*
X116670497Y-51521900D01*
X116603458Y-51502215D01*
X116582816Y-51485581D01*
X114536786Y-49439551D01*
X114503301Y-49378228D01*
X114508285Y-49308536D01*
X114550157Y-49252603D01*
X114572063Y-49239488D01*
X114627574Y-49213602D01*
X114627582Y-49213598D01*
X114711373Y-49154926D01*
X114711373Y-49154925D01*
X114161060Y-48604612D01*
X114181591Y-48599111D01*
X114318408Y-48520119D01*
X114430119Y-48408408D01*
X114509111Y-48271591D01*
X114514612Y-48251060D01*
X115064925Y-48801373D01*
X115098119Y-48753968D01*
X115152696Y-48710343D01*
X115222194Y-48703149D01*
X115284549Y-48734672D01*
X115301269Y-48753968D01*
X115411500Y-48911395D01*
X115411505Y-48911401D01*
X115578599Y-49078495D01*
X115616328Y-49104913D01*
X115772165Y-49214032D01*
X115772167Y-49214033D01*
X115772170Y-49214035D01*
X115986337Y-49313903D01*
X115986343Y-49313904D01*
X115986344Y-49313905D01*
X116040523Y-49328422D01*
X116214592Y-49375063D01*
X116402918Y-49391539D01*
X116449999Y-49395659D01*
X116450000Y-49395659D01*
X116450001Y-49395659D01*
X116489234Y-49392226D01*
X116685408Y-49375063D01*
X116913663Y-49313903D01*
X117127830Y-49214035D01*
X117321401Y-49078495D01*
X117488495Y-48911401D01*
X117598730Y-48753968D01*
X117653307Y-48710344D01*
X117722805Y-48703150D01*
X117785160Y-48734673D01*
X117801880Y-48753969D01*
X117835072Y-48801373D01*
X117835073Y-48801373D01*
X118385387Y-48251059D01*
X118390889Y-48271591D01*
X118469881Y-48408408D01*
X118581592Y-48520119D01*
X118718409Y-48599111D01*
X118738939Y-48604612D01*
X118188625Y-49154925D01*
X118272421Y-49213599D01*
X118486507Y-49313429D01*
X118486516Y-49313433D01*
X118714673Y-49374567D01*
X118714684Y-49374569D01*
X118949998Y-49395157D01*
X118950002Y-49395157D01*
X119185315Y-49374569D01*
X119185326Y-49374567D01*
X119413483Y-49313433D01*
X119413492Y-49313429D01*
X119627578Y-49213600D01*
X119627582Y-49213598D01*
X119711373Y-49154926D01*
X119711373Y-49154925D01*
X119161059Y-48604612D01*
X119181591Y-48599111D01*
X119318408Y-48520119D01*
X119430119Y-48408408D01*
X119509111Y-48271591D01*
X119514612Y-48251060D01*
X120064925Y-48801373D01*
X120098119Y-48753968D01*
X120152696Y-48710343D01*
X120222194Y-48703149D01*
X120284549Y-48734672D01*
X120301269Y-48753968D01*
X120411500Y-48911395D01*
X120411505Y-48911401D01*
X120578599Y-49078495D01*
X120616328Y-49104913D01*
X120772165Y-49214032D01*
X120772167Y-49214033D01*
X120772170Y-49214035D01*
X120986337Y-49313903D01*
X120986343Y-49313904D01*
X120986344Y-49313905D01*
X121040523Y-49328422D01*
X121214592Y-49375063D01*
X121402918Y-49391539D01*
X121449999Y-49395659D01*
X121450000Y-49395659D01*
X121450001Y-49395659D01*
X121489234Y-49392226D01*
X121685408Y-49375063D01*
X121913663Y-49313903D01*
X122127830Y-49214035D01*
X122321401Y-49078495D01*
X122488495Y-48911401D01*
X122598730Y-48753968D01*
X122653307Y-48710344D01*
X122722805Y-48703150D01*
X122785160Y-48734673D01*
X122801880Y-48753969D01*
X122835072Y-48801373D01*
X122835073Y-48801373D01*
X123385387Y-48251059D01*
X123390889Y-48271591D01*
X123469881Y-48408408D01*
X123581592Y-48520119D01*
X123718409Y-48599111D01*
X123738939Y-48604612D01*
X123188625Y-49154925D01*
X123272421Y-49213599D01*
X123486507Y-49313429D01*
X123486516Y-49313433D01*
X123714673Y-49374567D01*
X123714684Y-49374569D01*
X123949998Y-49395157D01*
X123950002Y-49395157D01*
X124185315Y-49374569D01*
X124185326Y-49374567D01*
X124413483Y-49313433D01*
X124413492Y-49313429D01*
X124627578Y-49213600D01*
X124627582Y-49213598D01*
X124711373Y-49154926D01*
X124711373Y-49154925D01*
X124161059Y-48604612D01*
X124181591Y-48599111D01*
X124318408Y-48520119D01*
X124430119Y-48408408D01*
X124509111Y-48271591D01*
X124514612Y-48251060D01*
X125064925Y-48801373D01*
X125064926Y-48801373D01*
X125123598Y-48717582D01*
X125123600Y-48717578D01*
X125223429Y-48503492D01*
X125223433Y-48503483D01*
X125284567Y-48275326D01*
X125284569Y-48275315D01*
X125305157Y-48040001D01*
X125305157Y-48039998D01*
X125284569Y-47804684D01*
X125284567Y-47804673D01*
X125223433Y-47576516D01*
X125223429Y-47576507D01*
X125123600Y-47362423D01*
X125123599Y-47362421D01*
X125064925Y-47278626D01*
X125064925Y-47278625D01*
X124514612Y-47828939D01*
X124509111Y-47808409D01*
X124430119Y-47671592D01*
X124318408Y-47559881D01*
X124181591Y-47480889D01*
X124161059Y-47475387D01*
X124752260Y-46884186D01*
X124752315Y-46884241D01*
X124778213Y-46857503D01*
X124800362Y-46847669D01*
X124869334Y-46824814D01*
X125018656Y-46732712D01*
X125142712Y-46608656D01*
X125234814Y-46459334D01*
X125289999Y-46292797D01*
X125300500Y-46190009D01*
X125300499Y-44889992D01*
X125299156Y-44876849D01*
X125289999Y-44787203D01*
X125289998Y-44787200D01*
X125287157Y-44778626D01*
X125234814Y-44620666D01*
X125142712Y-44471344D01*
X125018656Y-44347288D01*
X124887784Y-44266566D01*
X124869336Y-44255187D01*
X124869331Y-44255185D01*
X124867862Y-44254698D01*
X124702797Y-44200001D01*
X124702795Y-44200000D01*
X124600010Y-44189500D01*
X123299998Y-44189500D01*
X123299981Y-44189501D01*
X123197203Y-44200000D01*
X123197200Y-44200001D01*
X123030668Y-44255185D01*
X123030663Y-44255187D01*
X122881342Y-44347289D01*
X122757289Y-44471342D01*
X122665187Y-44620663D01*
X122665182Y-44620674D01*
X122642332Y-44689631D01*
X122602559Y-44747076D01*
X122592145Y-44751405D01*
X122014612Y-45328939D01*
X122009111Y-45308409D01*
X121930119Y-45171592D01*
X121818408Y-45059881D01*
X121681591Y-44980889D01*
X121661059Y-44975387D01*
X122211373Y-44425073D01*
X122211373Y-44425072D01*
X122127583Y-44366402D01*
X122127579Y-44366400D01*
X121913492Y-44266570D01*
X121913483Y-44266566D01*
X121685326Y-44205432D01*
X121685315Y-44205430D01*
X121450002Y-44184843D01*
X121449998Y-44184843D01*
X121214684Y-44205430D01*
X121214673Y-44205432D01*
X120986516Y-44266566D01*
X120986507Y-44266570D01*
X120772419Y-44366401D01*
X120688625Y-44425072D01*
X121238940Y-44975387D01*
X121218409Y-44980889D01*
X121081592Y-45059881D01*
X120969881Y-45171592D01*
X120890889Y-45308409D01*
X120885387Y-45328940D01*
X120335072Y-44778625D01*
X120335071Y-44778626D01*
X120301879Y-44826031D01*
X120247302Y-44869656D01*
X120177804Y-44876850D01*
X120115449Y-44845327D01*
X120098730Y-44826032D01*
X119988495Y-44668599D01*
X119821401Y-44501505D01*
X119712245Y-44425073D01*
X119627834Y-44365967D01*
X119627830Y-44365965D01*
X119540480Y-44325233D01*
X119413663Y-44266097D01*
X119413659Y-44266096D01*
X119413655Y-44266094D01*
X119185413Y-44204938D01*
X119185403Y-44204936D01*
X118950001Y-44184341D01*
X118949999Y-44184341D01*
X118714596Y-44204936D01*
X118714586Y-44204938D01*
X118486344Y-44266094D01*
X118486335Y-44266098D01*
X118272171Y-44365964D01*
X118272169Y-44365965D01*
X118078597Y-44501505D01*
X117911508Y-44668594D01*
X117801269Y-44826032D01*
X117746692Y-44869656D01*
X117677193Y-44876849D01*
X117614839Y-44845327D01*
X117598119Y-44826031D01*
X117564926Y-44778626D01*
X117564925Y-44778625D01*
X117014612Y-45328939D01*
X117009111Y-45308409D01*
X116930119Y-45171592D01*
X116818408Y-45059881D01*
X116681591Y-44980889D01*
X116661058Y-44975387D01*
X117211373Y-44425073D01*
X117211373Y-44425072D01*
X117127583Y-44366402D01*
X117127579Y-44366400D01*
X116913492Y-44266570D01*
X116913483Y-44266566D01*
X116685326Y-44205432D01*
X116685315Y-44205430D01*
X116450002Y-44184843D01*
X116449998Y-44184843D01*
X116231593Y-44203951D01*
X116163093Y-44190184D01*
X116112910Y-44141569D01*
X116099169Y-44104614D01*
X116065896Y-43937342D01*
X116065893Y-43937332D01*
X115998016Y-43773459D01*
X115998009Y-43773446D01*
X115899464Y-43625965D01*
X115899461Y-43625961D01*
X115774038Y-43500538D01*
X115774034Y-43500535D01*
X115626553Y-43401990D01*
X115626540Y-43401983D01*
X115462667Y-43334106D01*
X115462658Y-43334103D01*
X115288694Y-43299500D01*
X115288691Y-43299500D01*
X115111309Y-43299500D01*
X115111306Y-43299500D01*
X114937341Y-43334103D01*
X114937332Y-43334106D01*
X114773459Y-43401983D01*
X114773446Y-43401990D01*
X114625965Y-43500535D01*
X114625961Y-43500538D01*
X114500538Y-43625961D01*
X114500535Y-43625965D01*
X114401990Y-43773446D01*
X114401983Y-43773459D01*
X114334106Y-43937332D01*
X114334104Y-43937340D01*
X114300929Y-44104122D01*
X114268544Y-44166032D01*
X114207828Y-44200607D01*
X114168504Y-44203458D01*
X113950001Y-44184341D01*
X113949999Y-44184341D01*
X113714596Y-44204936D01*
X113714583Y-44204939D01*
X113586241Y-44239327D01*
X113516392Y-44237664D01*
X113466468Y-44207233D01*
X112597590Y-43338355D01*
X112597588Y-43338352D01*
X112478717Y-43219481D01*
X112478716Y-43219480D01*
X112391904Y-43169360D01*
X112391904Y-43169359D01*
X112391900Y-43169358D01*
X112341785Y-43140423D01*
X112189057Y-43099499D01*
X112030943Y-43099499D01*
X112023347Y-43099499D01*
X112023331Y-43099500D01*
X99209670Y-43099500D01*
X99168749Y-43110464D01*
X99168749Y-43110465D01*
X99131481Y-43120451D01*
X99056944Y-43140423D01*
X99056939Y-43140426D01*
X98920020Y-43219475D01*
X98920012Y-43219481D01*
X90069479Y-52070014D01*
X90054552Y-52095870D01*
X90048242Y-52106800D01*
X89990423Y-52206945D01*
X89949499Y-52359673D01*
X89949499Y-52359675D01*
X89949499Y-52527776D01*
X89949500Y-52527789D01*
X89949500Y-52965296D01*
X89929815Y-53032335D01*
X89877011Y-53078090D01*
X89807853Y-53088034D01*
X89773096Y-53077678D01*
X89663497Y-53026571D01*
X89663483Y-53026566D01*
X89435326Y-52965432D01*
X89435315Y-52965430D01*
X89200002Y-52944843D01*
X89199998Y-52944843D01*
X88964684Y-52965430D01*
X88964673Y-52965432D01*
X88736516Y-53026566D01*
X88736507Y-53026570D01*
X88522419Y-53126401D01*
X88438625Y-53185072D01*
X88988940Y-53735387D01*
X88968409Y-53740889D01*
X88831592Y-53819881D01*
X88719881Y-53931592D01*
X88640889Y-54068409D01*
X88635387Y-54088940D01*
X88085072Y-53538625D01*
X88026401Y-53622419D01*
X87926570Y-53836507D01*
X87926566Y-53836516D01*
X87865432Y-54064673D01*
X87865430Y-54064684D01*
X87844843Y-54299998D01*
X87844843Y-54300001D01*
X78002133Y-54300001D01*
X77932854Y-54052409D01*
X77931401Y-54046688D01*
X77786642Y-53413127D01*
X77785454Y-53407280D01*
X77780642Y-53380289D01*
X77671397Y-52767523D01*
X77670499Y-52761672D01*
X77587396Y-52117120D01*
X77586782Y-52111240D01*
X77534832Y-51463433D01*
X77534501Y-51457535D01*
X77513827Y-50808004D01*
X77513781Y-50802028D01*
X77521642Y-50322253D01*
X77524453Y-50150730D01*
X77524534Y-50147859D01*
X77526988Y-50087300D01*
X77528331Y-50073451D01*
X77547292Y-49950363D01*
X77551227Y-49933112D01*
X77561313Y-49900005D01*
X77613102Y-49730008D01*
X77619449Y-49713502D01*
X77709619Y-49521267D01*
X77718244Y-49505848D01*
X77834876Y-49328400D01*
X77845604Y-49314373D01*
X77986312Y-49155344D01*
X77998935Y-49142980D01*
X78160842Y-49005616D01*
X78175120Y-48995160D01*
X78308510Y-48911402D01*
X78354921Y-48882259D01*
X78370537Y-48873944D01*
X78564596Y-48787789D01*
X78581226Y-48781787D01*
X78785571Y-48724145D01*
X78802904Y-48720568D01*
X79013369Y-48692610D01*
X79031013Y-48691538D01*
X79214436Y-48693521D01*
X79240962Y-48696687D01*
X79245013Y-48697622D01*
X79274219Y-48696596D01*
X79288747Y-48696939D01*
X79306243Y-48698382D01*
X79317860Y-48699341D01*
X79317861Y-48699340D01*
X79317865Y-48699341D01*
X79338232Y-48695643D01*
X79356010Y-48693728D01*
X79793840Y-48678377D01*
X80757802Y-48607781D01*
X81718384Y-48500583D01*
X82674194Y-48356938D01*
X83623852Y-48177055D01*
X83623854Y-48177054D01*
X83623862Y-48177053D01*
X83887493Y-48116649D01*
X84565983Y-47961193D01*
X85499225Y-47709665D01*
X86422229Y-47422835D01*
X87333659Y-47101116D01*
X88232198Y-46744976D01*
X89116545Y-46354927D01*
X89985422Y-45931536D01*
X90837572Y-45475414D01*
X91671763Y-44987220D01*
X92486788Y-44467661D01*
X93281469Y-43917488D01*
X93837306Y-43500538D01*
X94054655Y-43337498D01*
X94382480Y-43071521D01*
X94805231Y-42728527D01*
X95532109Y-42091459D01*
X96234238Y-41427213D01*
X96910602Y-40736750D01*
X97560225Y-40021070D01*
X98182165Y-39281206D01*
X98775524Y-38518230D01*
X99339444Y-37733244D01*
X99873108Y-36927385D01*
X100375745Y-36101816D01*
X100846629Y-35257733D01*
X101032425Y-34892694D01*
X101036408Y-34885940D01*
X101037995Y-34882766D01*
X101064995Y-34828767D01*
X101070340Y-34819166D01*
X101140194Y-34705918D01*
X101153390Y-34688261D01*
X101238464Y-34593347D01*
X101254576Y-34578306D01*
X101355137Y-34499950D01*
X101373646Y-34488011D01*
X101487709Y-34428071D01*
X101493484Y-34425226D01*
X101502757Y-34420955D01*
X101506926Y-34419128D01*
X101557109Y-34398219D01*
X101557110Y-34398217D01*
X101558951Y-34397451D01*
X101568905Y-34392470D01*
X102100102Y-34166711D01*
X102106930Y-34164046D01*
X102704180Y-33951216D01*
X102711167Y-33948957D01*
X103320041Y-33772047D01*
X103327152Y-33770208D01*
X103945456Y-33629853D01*
X103952700Y-33628435D01*
X103952706Y-33628434D01*
X104578254Y-33525129D01*
X104585504Y-33524152D01*
X105216128Y-33458258D01*
X105223477Y-33457711D01*
X105856872Y-33429467D01*
X105864226Y-33429359D01*
X106498181Y-33438863D01*
X106505524Y-33439192D01*
X107137801Y-33486411D01*
X107145133Y-33487179D01*
X107773474Y-33571945D01*
X107780728Y-33573145D01*
X108402900Y-33695156D01*
X108410080Y-33696787D01*
X109023862Y-33855606D01*
X109023870Y-33855608D01*
X109030957Y-33857668D01*
X109634231Y-34052745D01*
X109641174Y-34055221D01*
X110231756Y-34285852D01*
X110238514Y-34288726D01*
X110814359Y-34554114D01*
X110820933Y-34557385D01*
X111247797Y-34785841D01*
X111379930Y-34856559D01*
X111386330Y-34860233D01*
X111926544Y-35192155D01*
X111932676Y-35196179D01*
X112351281Y-35489068D01*
X112452170Y-35559658D01*
X112458090Y-35564069D01*
X112748875Y-35794473D01*
X112955024Y-35957817D01*
X112960639Y-35962544D01*
X113433276Y-36385189D01*
X113438619Y-36390262D01*
X113885238Y-36840260D01*
X113890277Y-36845649D01*
X113962266Y-36927385D01*
X114309320Y-37321429D01*
X114314033Y-37327112D01*
X114669060Y-37782183D01*
X114677300Y-37794126D01*
X114678306Y-37795784D01*
X114711046Y-37836585D01*
X114714325Y-37840858D01*
X114745260Y-37883040D01*
X114750884Y-37888914D01*
X114750811Y-37888983D01*
X114754850Y-37893021D01*
X114754920Y-37892949D01*
X114760784Y-37898563D01*
X114760788Y-37898568D01*
X114802969Y-37929500D01*
X114807243Y-37932779D01*
X114848043Y-37965521D01*
X114848044Y-37965521D01*
X114848045Y-37965522D01*
X114854991Y-37969737D01*
X114854938Y-37969823D01*
X114859886Y-37972679D01*
X114859935Y-37972591D01*
X114867055Y-37976497D01*
X114867059Y-37976500D01*
X114867062Y-37976501D01*
X114915804Y-37995460D01*
X114920780Y-37997520D01*
X114968670Y-38018589D01*
X114968675Y-38018589D01*
X114976476Y-38020863D01*
X114976447Y-38020960D01*
X114981962Y-38022437D01*
X114981986Y-38022340D01*
X114989880Y-38024272D01*
X115041862Y-38029968D01*
X115047208Y-38030671D01*
X115098922Y-38038628D01*
X115098929Y-38038627D01*
X115107050Y-38038804D01*
X115107048Y-38038906D01*
X115112755Y-38038906D01*
X115112753Y-38038804D01*
X115120872Y-38038627D01*
X115120880Y-38038628D01*
X115172638Y-38030664D01*
X115177871Y-38029975D01*
X115229922Y-38024272D01*
X115229923Y-38024271D01*
X115229927Y-38024271D01*
X115237815Y-38022340D01*
X115237839Y-38022440D01*
X115243351Y-38020963D01*
X115243323Y-38020865D01*
X115251132Y-38018589D01*
X115299021Y-37997521D01*
X115303994Y-37995460D01*
X115352743Y-37976500D01*
X115352749Y-37976495D01*
X115359869Y-37972589D01*
X115359918Y-37972679D01*
X115364860Y-37969826D01*
X115364807Y-37969739D01*
X115371753Y-37965523D01*
X115371759Y-37965521D01*
X115412563Y-37932775D01*
X115416804Y-37929520D01*
X115459014Y-37898568D01*
X115459017Y-37898563D01*
X115464890Y-37892942D01*
X115464960Y-37893016D01*
X115468993Y-37888983D01*
X115468919Y-37888913D01*
X115474539Y-37883043D01*
X115474539Y-37883042D01*
X115474541Y-37883041D01*
X115505486Y-37840841D01*
X115508739Y-37836602D01*
X115541494Y-37795786D01*
X115541496Y-37795781D01*
X115542504Y-37794121D01*
X115550747Y-37782170D01*
X115905776Y-37327096D01*
X115910467Y-37321441D01*
X116329538Y-36845628D01*
X116334539Y-36840280D01*
X116781191Y-36390249D01*
X116786533Y-36385179D01*
X117259140Y-35962562D01*
X117264762Y-35957827D01*
X117761748Y-35564035D01*
X117767605Y-35559673D01*
X118287123Y-35196177D01*
X118293254Y-35192153D01*
X118666033Y-34963109D01*
X118833468Y-34860233D01*
X118839867Y-34856559D01*
X119398881Y-34557376D01*
X119405428Y-34554118D01*
X119981298Y-34288718D01*
X119988032Y-34285855D01*
X120578637Y-34055215D01*
X120585558Y-34052746D01*
X121188851Y-33857663D01*
X121195918Y-33855609D01*
X121809727Y-33696784D01*
X121816893Y-33695156D01*
X122439077Y-33573143D01*
X122446321Y-33571945D01*
X123074670Y-33487177D01*
X123081995Y-33486410D01*
X123714277Y-33439191D01*
X123721618Y-33438862D01*
X124355574Y-33429358D01*
X124362930Y-33429466D01*
G37*
%TD.AperFunction*%
%TD*%
M02*
