%TF.GenerationSoftware,KiCad,Pcbnew,8.0.1-rc1*%
%TF.CreationDate,2024-05-02T00:25:49-04:00*%
%TF.ProjectId,Mustachio_v2,4d757374-6163-4686-996f-5f76322e6b69,rev?*%
%TF.SameCoordinates,Original*%
%TF.FileFunction,Drillmap*%
%TF.FilePolarity,Positive*%
%FSLAX45Y45*%
G04 Gerber Fmt 4.5, Leading zero omitted, Abs format (unit mm)*
G04 Created by KiCad (PCBNEW 8.0.1-rc1) date 2024-05-02 00:25:49*
%MOMM*%
%LPD*%
G01*
G04 APERTURE LIST*
%ADD10C,0.100000*%
%ADD11C,0.200000*%
%ADD12C,0.130000*%
G04 APERTURE END LIST*
D10*
X11519489Y-6231266D02*
G75*
G02*
X11528673Y-6230897I5000J-10000D01*
G01*
X11504848Y-6238354D02*
X11519489Y-6231266D01*
X7701477Y-5012827D02*
G75*
G02*
X7929331Y-4819512I210503J-17173D01*
G01*
X10061980Y-3460000D02*
G75*
G02*
X10130379Y-3396156I120001J-60000D01*
G01*
X7900524Y-5792802D02*
G75*
G02*
X7702439Y-5012905I1211457J722802D01*
G01*
X10061980Y-3460000D02*
G75*
G02*
X7929331Y-4819512I-2220000J1130000D01*
G01*
X10130379Y-3396156D02*
G75*
G02*
X11510990Y-3753393I471602J-1023844D01*
G01*
X11504848Y-6238354D02*
G75*
G02*
X7900524Y-5792802I-1441547J3140001D01*
G01*
X12891602Y-3396156D02*
G75*
G02*
X12960000Y-3460000I-51602J-123844D01*
G01*
X15092649Y-4819512D02*
G75*
G02*
X15320503Y-5012827I17351J-210488D01*
G01*
X15319541Y-5012905D02*
G75*
G02*
X15121456Y-5792802I-1409542J-57095D01*
G01*
X15121456Y-5792802D02*
G75*
G02*
X11528673Y-6230897I-2151456J2692802D01*
G01*
X15092649Y-4819512D02*
G75*
G02*
X12960000Y-3460000I87351J2489512D01*
G01*
X11510990Y-3753393D02*
G75*
G02*
X12891602Y-3396156I909010J-666607D01*
G01*
D11*
D12*
X9230000Y-5749000D02*
X9360000Y-5879000D01*
X9360000Y-5749000D02*
X9230000Y-5879000D01*
X10710000Y-5749000D02*
X10840000Y-5879000D01*
X10840000Y-5749000D02*
X10710000Y-5879000D01*
X11455000Y-4355000D02*
X11585000Y-4485000D01*
X11585000Y-4355000D02*
X11455000Y-4485000D01*
X12200000Y-5749000D02*
X12330000Y-5879000D01*
X12330000Y-5749000D02*
X12200000Y-5879000D01*
X13680000Y-5749000D02*
X13810000Y-5879000D01*
X13810000Y-5749000D02*
X13680000Y-5879000D01*
D11*
X7957060Y-6869929D02*
X7957060Y-6669929D01*
X7957060Y-6669929D02*
X8004679Y-6669929D01*
X8004679Y-6669929D02*
X8033250Y-6679452D01*
X8033250Y-6679452D02*
X8052298Y-6698500D01*
X8052298Y-6698500D02*
X8061821Y-6717548D01*
X8061821Y-6717548D02*
X8071345Y-6755643D01*
X8071345Y-6755643D02*
X8071345Y-6784214D01*
X8071345Y-6784214D02*
X8061821Y-6822310D01*
X8061821Y-6822310D02*
X8052298Y-6841357D01*
X8052298Y-6841357D02*
X8033250Y-6860405D01*
X8033250Y-6860405D02*
X8004679Y-6869929D01*
X8004679Y-6869929D02*
X7957060Y-6869929D01*
X8157060Y-6869929D02*
X8157060Y-6736595D01*
X8157060Y-6774691D02*
X8166583Y-6755643D01*
X8166583Y-6755643D02*
X8176107Y-6746119D01*
X8176107Y-6746119D02*
X8195155Y-6736595D01*
X8195155Y-6736595D02*
X8214202Y-6736595D01*
X8280869Y-6869929D02*
X8280869Y-6736595D01*
X8280869Y-6669929D02*
X8271345Y-6679452D01*
X8271345Y-6679452D02*
X8280869Y-6688976D01*
X8280869Y-6688976D02*
X8290393Y-6679452D01*
X8290393Y-6679452D02*
X8280869Y-6669929D01*
X8280869Y-6669929D02*
X8280869Y-6688976D01*
X8404679Y-6869929D02*
X8385631Y-6860405D01*
X8385631Y-6860405D02*
X8376107Y-6841357D01*
X8376107Y-6841357D02*
X8376107Y-6669929D01*
X8509441Y-6869929D02*
X8490393Y-6860405D01*
X8490393Y-6860405D02*
X8480869Y-6841357D01*
X8480869Y-6841357D02*
X8480869Y-6669929D01*
X8738012Y-6869929D02*
X8738012Y-6669929D01*
X8738012Y-6669929D02*
X8804679Y-6812786D01*
X8804679Y-6812786D02*
X8871345Y-6669929D01*
X8871345Y-6669929D02*
X8871345Y-6869929D01*
X9052298Y-6869929D02*
X9052298Y-6765167D01*
X9052298Y-6765167D02*
X9042774Y-6746119D01*
X9042774Y-6746119D02*
X9023726Y-6736595D01*
X9023726Y-6736595D02*
X8985631Y-6736595D01*
X8985631Y-6736595D02*
X8966583Y-6746119D01*
X9052298Y-6860405D02*
X9033250Y-6869929D01*
X9033250Y-6869929D02*
X8985631Y-6869929D01*
X8985631Y-6869929D02*
X8966583Y-6860405D01*
X8966583Y-6860405D02*
X8957060Y-6841357D01*
X8957060Y-6841357D02*
X8957060Y-6822310D01*
X8957060Y-6822310D02*
X8966583Y-6803262D01*
X8966583Y-6803262D02*
X8985631Y-6793738D01*
X8985631Y-6793738D02*
X9033250Y-6793738D01*
X9033250Y-6793738D02*
X9052298Y-6784214D01*
X9147536Y-6736595D02*
X9147536Y-6936595D01*
X9147536Y-6746119D02*
X9166583Y-6736595D01*
X9166583Y-6736595D02*
X9204679Y-6736595D01*
X9204679Y-6736595D02*
X9223726Y-6746119D01*
X9223726Y-6746119D02*
X9233250Y-6755643D01*
X9233250Y-6755643D02*
X9242774Y-6774691D01*
X9242774Y-6774691D02*
X9242774Y-6831833D01*
X9242774Y-6831833D02*
X9233250Y-6850881D01*
X9233250Y-6850881D02*
X9223726Y-6860405D01*
X9223726Y-6860405D02*
X9204679Y-6869929D01*
X9204679Y-6869929D02*
X9166583Y-6869929D01*
X9166583Y-6869929D02*
X9147536Y-6860405D01*
X9328488Y-6850881D02*
X9338012Y-6860405D01*
X9338012Y-6860405D02*
X9328488Y-6869929D01*
X9328488Y-6869929D02*
X9318964Y-6860405D01*
X9318964Y-6860405D02*
X9328488Y-6850881D01*
X9328488Y-6850881D02*
X9328488Y-6869929D01*
X9328488Y-6746119D02*
X9338012Y-6755643D01*
X9338012Y-6755643D02*
X9328488Y-6765167D01*
X9328488Y-6765167D02*
X9318964Y-6755643D01*
X9318964Y-6755643D02*
X9328488Y-6746119D01*
X9328488Y-6746119D02*
X9328488Y-6765167D01*
D12*
X7566283Y-7133445D02*
X7696283Y-7263445D01*
X7696283Y-7133445D02*
X7566283Y-7263445D01*
D11*
X8061821Y-7289929D02*
X7947536Y-7289929D01*
X8004679Y-7289929D02*
X8004679Y-7089929D01*
X8004679Y-7089929D02*
X7985631Y-7118500D01*
X7985631Y-7118500D02*
X7966583Y-7137548D01*
X7966583Y-7137548D02*
X7947536Y-7147071D01*
X8147536Y-7270881D02*
X8157060Y-7280405D01*
X8157060Y-7280405D02*
X8147536Y-7289929D01*
X8147536Y-7289929D02*
X8138012Y-7280405D01*
X8138012Y-7280405D02*
X8147536Y-7270881D01*
X8147536Y-7270881D02*
X8147536Y-7289929D01*
X8223726Y-7089929D02*
X8347536Y-7089929D01*
X8347536Y-7089929D02*
X8280869Y-7166119D01*
X8280869Y-7166119D02*
X8309441Y-7166119D01*
X8309441Y-7166119D02*
X8328488Y-7175643D01*
X8328488Y-7175643D02*
X8338012Y-7185167D01*
X8338012Y-7185167D02*
X8347536Y-7204214D01*
X8347536Y-7204214D02*
X8347536Y-7251833D01*
X8347536Y-7251833D02*
X8338012Y-7270881D01*
X8338012Y-7270881D02*
X8328488Y-7280405D01*
X8328488Y-7280405D02*
X8309441Y-7289929D01*
X8309441Y-7289929D02*
X8252298Y-7289929D01*
X8252298Y-7289929D02*
X8233250Y-7280405D01*
X8233250Y-7280405D02*
X8223726Y-7270881D01*
X8471345Y-7089929D02*
X8490393Y-7089929D01*
X8490393Y-7089929D02*
X8509441Y-7099452D01*
X8509441Y-7099452D02*
X8518964Y-7108976D01*
X8518964Y-7108976D02*
X8528488Y-7128024D01*
X8528488Y-7128024D02*
X8538012Y-7166119D01*
X8538012Y-7166119D02*
X8538012Y-7213738D01*
X8538012Y-7213738D02*
X8528488Y-7251833D01*
X8528488Y-7251833D02*
X8518964Y-7270881D01*
X8518964Y-7270881D02*
X8509441Y-7280405D01*
X8509441Y-7280405D02*
X8490393Y-7289929D01*
X8490393Y-7289929D02*
X8471345Y-7289929D01*
X8471345Y-7289929D02*
X8452298Y-7280405D01*
X8452298Y-7280405D02*
X8442774Y-7270881D01*
X8442774Y-7270881D02*
X8433250Y-7251833D01*
X8433250Y-7251833D02*
X8423726Y-7213738D01*
X8423726Y-7213738D02*
X8423726Y-7166119D01*
X8423726Y-7166119D02*
X8433250Y-7128024D01*
X8433250Y-7128024D02*
X8442774Y-7108976D01*
X8442774Y-7108976D02*
X8452298Y-7099452D01*
X8452298Y-7099452D02*
X8471345Y-7089929D01*
X8661822Y-7089929D02*
X8680869Y-7089929D01*
X8680869Y-7089929D02*
X8699917Y-7099452D01*
X8699917Y-7099452D02*
X8709441Y-7108976D01*
X8709441Y-7108976D02*
X8718964Y-7128024D01*
X8718964Y-7128024D02*
X8728488Y-7166119D01*
X8728488Y-7166119D02*
X8728488Y-7213738D01*
X8728488Y-7213738D02*
X8718964Y-7251833D01*
X8718964Y-7251833D02*
X8709441Y-7270881D01*
X8709441Y-7270881D02*
X8699917Y-7280405D01*
X8699917Y-7280405D02*
X8680869Y-7289929D01*
X8680869Y-7289929D02*
X8661822Y-7289929D01*
X8661822Y-7289929D02*
X8642774Y-7280405D01*
X8642774Y-7280405D02*
X8633250Y-7270881D01*
X8633250Y-7270881D02*
X8623726Y-7251833D01*
X8623726Y-7251833D02*
X8614203Y-7213738D01*
X8614203Y-7213738D02*
X8614203Y-7166119D01*
X8614203Y-7166119D02*
X8623726Y-7128024D01*
X8623726Y-7128024D02*
X8633250Y-7108976D01*
X8633250Y-7108976D02*
X8642774Y-7099452D01*
X8642774Y-7099452D02*
X8661822Y-7089929D01*
X8814203Y-7289929D02*
X8814203Y-7156595D01*
X8814203Y-7175643D02*
X8823726Y-7166119D01*
X8823726Y-7166119D02*
X8842774Y-7156595D01*
X8842774Y-7156595D02*
X8871345Y-7156595D01*
X8871345Y-7156595D02*
X8890393Y-7166119D01*
X8890393Y-7166119D02*
X8899917Y-7185167D01*
X8899917Y-7185167D02*
X8899917Y-7289929D01*
X8899917Y-7185167D02*
X8909441Y-7166119D01*
X8909441Y-7166119D02*
X8928488Y-7156595D01*
X8928488Y-7156595D02*
X8957060Y-7156595D01*
X8957060Y-7156595D02*
X8976107Y-7166119D01*
X8976107Y-7166119D02*
X8985631Y-7185167D01*
X8985631Y-7185167D02*
X8985631Y-7289929D01*
X9080869Y-7289929D02*
X9080869Y-7156595D01*
X9080869Y-7175643D02*
X9090393Y-7166119D01*
X9090393Y-7166119D02*
X9109441Y-7156595D01*
X9109441Y-7156595D02*
X9138012Y-7156595D01*
X9138012Y-7156595D02*
X9157060Y-7166119D01*
X9157060Y-7166119D02*
X9166584Y-7185167D01*
X9166584Y-7185167D02*
X9166584Y-7289929D01*
X9166584Y-7185167D02*
X9176107Y-7166119D01*
X9176107Y-7166119D02*
X9195155Y-7156595D01*
X9195155Y-7156595D02*
X9223726Y-7156595D01*
X9223726Y-7156595D02*
X9242774Y-7166119D01*
X9242774Y-7166119D02*
X9252298Y-7185167D01*
X9252298Y-7185167D02*
X9252298Y-7289929D01*
X9642774Y-7080405D02*
X9471346Y-7337548D01*
X9899917Y-7089929D02*
X9918965Y-7089929D01*
X9918965Y-7089929D02*
X9938012Y-7099452D01*
X9938012Y-7099452D02*
X9947536Y-7108976D01*
X9947536Y-7108976D02*
X9957060Y-7128024D01*
X9957060Y-7128024D02*
X9966584Y-7166119D01*
X9966584Y-7166119D02*
X9966584Y-7213738D01*
X9966584Y-7213738D02*
X9957060Y-7251833D01*
X9957060Y-7251833D02*
X9947536Y-7270881D01*
X9947536Y-7270881D02*
X9938012Y-7280405D01*
X9938012Y-7280405D02*
X9918965Y-7289929D01*
X9918965Y-7289929D02*
X9899917Y-7289929D01*
X9899917Y-7289929D02*
X9880869Y-7280405D01*
X9880869Y-7280405D02*
X9871346Y-7270881D01*
X9871346Y-7270881D02*
X9861822Y-7251833D01*
X9861822Y-7251833D02*
X9852298Y-7213738D01*
X9852298Y-7213738D02*
X9852298Y-7166119D01*
X9852298Y-7166119D02*
X9861822Y-7128024D01*
X9861822Y-7128024D02*
X9871346Y-7108976D01*
X9871346Y-7108976D02*
X9880869Y-7099452D01*
X9880869Y-7099452D02*
X9899917Y-7089929D01*
X10052298Y-7270881D02*
X10061822Y-7280405D01*
X10061822Y-7280405D02*
X10052298Y-7289929D01*
X10052298Y-7289929D02*
X10042774Y-7280405D01*
X10042774Y-7280405D02*
X10052298Y-7270881D01*
X10052298Y-7270881D02*
X10052298Y-7289929D01*
X10185631Y-7089929D02*
X10204679Y-7089929D01*
X10204679Y-7089929D02*
X10223727Y-7099452D01*
X10223727Y-7099452D02*
X10233250Y-7108976D01*
X10233250Y-7108976D02*
X10242774Y-7128024D01*
X10242774Y-7128024D02*
X10252298Y-7166119D01*
X10252298Y-7166119D02*
X10252298Y-7213738D01*
X10252298Y-7213738D02*
X10242774Y-7251833D01*
X10242774Y-7251833D02*
X10233250Y-7270881D01*
X10233250Y-7270881D02*
X10223727Y-7280405D01*
X10223727Y-7280405D02*
X10204679Y-7289929D01*
X10204679Y-7289929D02*
X10185631Y-7289929D01*
X10185631Y-7289929D02*
X10166584Y-7280405D01*
X10166584Y-7280405D02*
X10157060Y-7270881D01*
X10157060Y-7270881D02*
X10147536Y-7251833D01*
X10147536Y-7251833D02*
X10138012Y-7213738D01*
X10138012Y-7213738D02*
X10138012Y-7166119D01*
X10138012Y-7166119D02*
X10147536Y-7128024D01*
X10147536Y-7128024D02*
X10157060Y-7108976D01*
X10157060Y-7108976D02*
X10166584Y-7099452D01*
X10166584Y-7099452D02*
X10185631Y-7089929D01*
X10433250Y-7089929D02*
X10338012Y-7089929D01*
X10338012Y-7089929D02*
X10328488Y-7185167D01*
X10328488Y-7185167D02*
X10338012Y-7175643D01*
X10338012Y-7175643D02*
X10357060Y-7166119D01*
X10357060Y-7166119D02*
X10404679Y-7166119D01*
X10404679Y-7166119D02*
X10423727Y-7175643D01*
X10423727Y-7175643D02*
X10433250Y-7185167D01*
X10433250Y-7185167D02*
X10442774Y-7204214D01*
X10442774Y-7204214D02*
X10442774Y-7251833D01*
X10442774Y-7251833D02*
X10433250Y-7270881D01*
X10433250Y-7270881D02*
X10423727Y-7280405D01*
X10423727Y-7280405D02*
X10404679Y-7289929D01*
X10404679Y-7289929D02*
X10357060Y-7289929D01*
X10357060Y-7289929D02*
X10338012Y-7280405D01*
X10338012Y-7280405D02*
X10328488Y-7270881D01*
X10633250Y-7289929D02*
X10518965Y-7289929D01*
X10576107Y-7289929D02*
X10576107Y-7089929D01*
X10576107Y-7089929D02*
X10557060Y-7118500D01*
X10557060Y-7118500D02*
X10538012Y-7137548D01*
X10538012Y-7137548D02*
X10518965Y-7147071D01*
X10709441Y-7108976D02*
X10718965Y-7099452D01*
X10718965Y-7099452D02*
X10738012Y-7089929D01*
X10738012Y-7089929D02*
X10785631Y-7089929D01*
X10785631Y-7089929D02*
X10804679Y-7099452D01*
X10804679Y-7099452D02*
X10814203Y-7108976D01*
X10814203Y-7108976D02*
X10823727Y-7128024D01*
X10823727Y-7128024D02*
X10823727Y-7147071D01*
X10823727Y-7147071D02*
X10814203Y-7175643D01*
X10814203Y-7175643D02*
X10699917Y-7289929D01*
X10699917Y-7289929D02*
X10823727Y-7289929D01*
X10899917Y-7089929D02*
X10899917Y-7128024D01*
X10976108Y-7089929D02*
X10976108Y-7128024D01*
X11271346Y-7366119D02*
X11261822Y-7356595D01*
X11261822Y-7356595D02*
X11242774Y-7328024D01*
X11242774Y-7328024D02*
X11233250Y-7308976D01*
X11233250Y-7308976D02*
X11223727Y-7280405D01*
X11223727Y-7280405D02*
X11214203Y-7232786D01*
X11214203Y-7232786D02*
X11214203Y-7194691D01*
X11214203Y-7194691D02*
X11223727Y-7147071D01*
X11223727Y-7147071D02*
X11233250Y-7118500D01*
X11233250Y-7118500D02*
X11242774Y-7099452D01*
X11242774Y-7099452D02*
X11261822Y-7070881D01*
X11261822Y-7070881D02*
X11271346Y-7061357D01*
X11442774Y-7089929D02*
X11347536Y-7089929D01*
X11347536Y-7089929D02*
X11338012Y-7185167D01*
X11338012Y-7185167D02*
X11347536Y-7175643D01*
X11347536Y-7175643D02*
X11366584Y-7166119D01*
X11366584Y-7166119D02*
X11414203Y-7166119D01*
X11414203Y-7166119D02*
X11433250Y-7175643D01*
X11433250Y-7175643D02*
X11442774Y-7185167D01*
X11442774Y-7185167D02*
X11452298Y-7204214D01*
X11452298Y-7204214D02*
X11452298Y-7251833D01*
X11452298Y-7251833D02*
X11442774Y-7270881D01*
X11442774Y-7270881D02*
X11433250Y-7280405D01*
X11433250Y-7280405D02*
X11414203Y-7289929D01*
X11414203Y-7289929D02*
X11366584Y-7289929D01*
X11366584Y-7289929D02*
X11347536Y-7280405D01*
X11347536Y-7280405D02*
X11338012Y-7270881D01*
X11690393Y-7289929D02*
X11690393Y-7089929D01*
X11776108Y-7289929D02*
X11776108Y-7185167D01*
X11776108Y-7185167D02*
X11766584Y-7166119D01*
X11766584Y-7166119D02*
X11747536Y-7156595D01*
X11747536Y-7156595D02*
X11718965Y-7156595D01*
X11718965Y-7156595D02*
X11699917Y-7166119D01*
X11699917Y-7166119D02*
X11690393Y-7175643D01*
X11899917Y-7289929D02*
X11880869Y-7280405D01*
X11880869Y-7280405D02*
X11871346Y-7270881D01*
X11871346Y-7270881D02*
X11861822Y-7251833D01*
X11861822Y-7251833D02*
X11861822Y-7194691D01*
X11861822Y-7194691D02*
X11871346Y-7175643D01*
X11871346Y-7175643D02*
X11880869Y-7166119D01*
X11880869Y-7166119D02*
X11899917Y-7156595D01*
X11899917Y-7156595D02*
X11928489Y-7156595D01*
X11928489Y-7156595D02*
X11947536Y-7166119D01*
X11947536Y-7166119D02*
X11957060Y-7175643D01*
X11957060Y-7175643D02*
X11966584Y-7194691D01*
X11966584Y-7194691D02*
X11966584Y-7251833D01*
X11966584Y-7251833D02*
X11957060Y-7270881D01*
X11957060Y-7270881D02*
X11947536Y-7280405D01*
X11947536Y-7280405D02*
X11928489Y-7289929D01*
X11928489Y-7289929D02*
X11899917Y-7289929D01*
X12080869Y-7289929D02*
X12061822Y-7280405D01*
X12061822Y-7280405D02*
X12052298Y-7261357D01*
X12052298Y-7261357D02*
X12052298Y-7089929D01*
X12233250Y-7280405D02*
X12214203Y-7289929D01*
X12214203Y-7289929D02*
X12176108Y-7289929D01*
X12176108Y-7289929D02*
X12157060Y-7280405D01*
X12157060Y-7280405D02*
X12147536Y-7261357D01*
X12147536Y-7261357D02*
X12147536Y-7185167D01*
X12147536Y-7185167D02*
X12157060Y-7166119D01*
X12157060Y-7166119D02*
X12176108Y-7156595D01*
X12176108Y-7156595D02*
X12214203Y-7156595D01*
X12214203Y-7156595D02*
X12233250Y-7166119D01*
X12233250Y-7166119D02*
X12242774Y-7185167D01*
X12242774Y-7185167D02*
X12242774Y-7204214D01*
X12242774Y-7204214D02*
X12147536Y-7223262D01*
X12318965Y-7280405D02*
X12338012Y-7289929D01*
X12338012Y-7289929D02*
X12376108Y-7289929D01*
X12376108Y-7289929D02*
X12395155Y-7280405D01*
X12395155Y-7280405D02*
X12404679Y-7261357D01*
X12404679Y-7261357D02*
X12404679Y-7251833D01*
X12404679Y-7251833D02*
X12395155Y-7232786D01*
X12395155Y-7232786D02*
X12376108Y-7223262D01*
X12376108Y-7223262D02*
X12347536Y-7223262D01*
X12347536Y-7223262D02*
X12328489Y-7213738D01*
X12328489Y-7213738D02*
X12318965Y-7194691D01*
X12318965Y-7194691D02*
X12318965Y-7185167D01*
X12318965Y-7185167D02*
X12328489Y-7166119D01*
X12328489Y-7166119D02*
X12347536Y-7156595D01*
X12347536Y-7156595D02*
X12376108Y-7156595D01*
X12376108Y-7156595D02*
X12395155Y-7166119D01*
X12471346Y-7366119D02*
X12480870Y-7356595D01*
X12480870Y-7356595D02*
X12499917Y-7328024D01*
X12499917Y-7328024D02*
X12509441Y-7308976D01*
X12509441Y-7308976D02*
X12518965Y-7280405D01*
X12518965Y-7280405D02*
X12528489Y-7232786D01*
X12528489Y-7232786D02*
X12528489Y-7194691D01*
X12528489Y-7194691D02*
X12518965Y-7147071D01*
X12518965Y-7147071D02*
X12509441Y-7118500D01*
X12509441Y-7118500D02*
X12499917Y-7099452D01*
X12499917Y-7099452D02*
X12480870Y-7070881D01*
X12480870Y-7070881D02*
X12471346Y-7061357D01*
X12833251Y-7366119D02*
X12823727Y-7356595D01*
X12823727Y-7356595D02*
X12804679Y-7328024D01*
X12804679Y-7328024D02*
X12795155Y-7308976D01*
X12795155Y-7308976D02*
X12785631Y-7280405D01*
X12785631Y-7280405D02*
X12776108Y-7232786D01*
X12776108Y-7232786D02*
X12776108Y-7194691D01*
X12776108Y-7194691D02*
X12785631Y-7147071D01*
X12785631Y-7147071D02*
X12795155Y-7118500D01*
X12795155Y-7118500D02*
X12804679Y-7099452D01*
X12804679Y-7099452D02*
X12823727Y-7070881D01*
X12823727Y-7070881D02*
X12833251Y-7061357D01*
X12909441Y-7156595D02*
X12909441Y-7289929D01*
X12909441Y-7175643D02*
X12918965Y-7166119D01*
X12918965Y-7166119D02*
X12938012Y-7156595D01*
X12938012Y-7156595D02*
X12966584Y-7156595D01*
X12966584Y-7156595D02*
X12985631Y-7166119D01*
X12985631Y-7166119D02*
X12995155Y-7185167D01*
X12995155Y-7185167D02*
X12995155Y-7289929D01*
X13118965Y-7289929D02*
X13099917Y-7280405D01*
X13099917Y-7280405D02*
X13090393Y-7270881D01*
X13090393Y-7270881D02*
X13080870Y-7251833D01*
X13080870Y-7251833D02*
X13080870Y-7194691D01*
X13080870Y-7194691D02*
X13090393Y-7175643D01*
X13090393Y-7175643D02*
X13099917Y-7166119D01*
X13099917Y-7166119D02*
X13118965Y-7156595D01*
X13118965Y-7156595D02*
X13147536Y-7156595D01*
X13147536Y-7156595D02*
X13166584Y-7166119D01*
X13166584Y-7166119D02*
X13176108Y-7175643D01*
X13176108Y-7175643D02*
X13185631Y-7194691D01*
X13185631Y-7194691D02*
X13185631Y-7251833D01*
X13185631Y-7251833D02*
X13176108Y-7270881D01*
X13176108Y-7270881D02*
X13166584Y-7280405D01*
X13166584Y-7280405D02*
X13147536Y-7289929D01*
X13147536Y-7289929D02*
X13118965Y-7289929D01*
X13242774Y-7156595D02*
X13318965Y-7156595D01*
X13271346Y-7089929D02*
X13271346Y-7261357D01*
X13271346Y-7261357D02*
X13280870Y-7280405D01*
X13280870Y-7280405D02*
X13299917Y-7289929D01*
X13299917Y-7289929D02*
X13318965Y-7289929D01*
X13538012Y-7156595D02*
X13538012Y-7356595D01*
X13538012Y-7166119D02*
X13557060Y-7156595D01*
X13557060Y-7156595D02*
X13595155Y-7156595D01*
X13595155Y-7156595D02*
X13614203Y-7166119D01*
X13614203Y-7166119D02*
X13623727Y-7175643D01*
X13623727Y-7175643D02*
X13633251Y-7194691D01*
X13633251Y-7194691D02*
X13633251Y-7251833D01*
X13633251Y-7251833D02*
X13623727Y-7270881D01*
X13623727Y-7270881D02*
X13614203Y-7280405D01*
X13614203Y-7280405D02*
X13595155Y-7289929D01*
X13595155Y-7289929D02*
X13557060Y-7289929D01*
X13557060Y-7289929D02*
X13538012Y-7280405D01*
X13747536Y-7289929D02*
X13728489Y-7280405D01*
X13728489Y-7280405D02*
X13718965Y-7261357D01*
X13718965Y-7261357D02*
X13718965Y-7089929D01*
X13909441Y-7289929D02*
X13909441Y-7185167D01*
X13909441Y-7185167D02*
X13899917Y-7166119D01*
X13899917Y-7166119D02*
X13880870Y-7156595D01*
X13880870Y-7156595D02*
X13842774Y-7156595D01*
X13842774Y-7156595D02*
X13823727Y-7166119D01*
X13909441Y-7280405D02*
X13890393Y-7289929D01*
X13890393Y-7289929D02*
X13842774Y-7289929D01*
X13842774Y-7289929D02*
X13823727Y-7280405D01*
X13823727Y-7280405D02*
X13814203Y-7261357D01*
X13814203Y-7261357D02*
X13814203Y-7242310D01*
X13814203Y-7242310D02*
X13823727Y-7223262D01*
X13823727Y-7223262D02*
X13842774Y-7213738D01*
X13842774Y-7213738D02*
X13890393Y-7213738D01*
X13890393Y-7213738D02*
X13909441Y-7204214D01*
X13976108Y-7156595D02*
X14052298Y-7156595D01*
X14004679Y-7089929D02*
X14004679Y-7261357D01*
X14004679Y-7261357D02*
X14014203Y-7280405D01*
X14014203Y-7280405D02*
X14033251Y-7289929D01*
X14033251Y-7289929D02*
X14052298Y-7289929D01*
X14195155Y-7280405D02*
X14176108Y-7289929D01*
X14176108Y-7289929D02*
X14138012Y-7289929D01*
X14138012Y-7289929D02*
X14118965Y-7280405D01*
X14118965Y-7280405D02*
X14109441Y-7261357D01*
X14109441Y-7261357D02*
X14109441Y-7185167D01*
X14109441Y-7185167D02*
X14118965Y-7166119D01*
X14118965Y-7166119D02*
X14138012Y-7156595D01*
X14138012Y-7156595D02*
X14176108Y-7156595D01*
X14176108Y-7156595D02*
X14195155Y-7166119D01*
X14195155Y-7166119D02*
X14204679Y-7185167D01*
X14204679Y-7185167D02*
X14204679Y-7204214D01*
X14204679Y-7204214D02*
X14109441Y-7223262D01*
X14376108Y-7289929D02*
X14376108Y-7089929D01*
X14376108Y-7280405D02*
X14357060Y-7289929D01*
X14357060Y-7289929D02*
X14318965Y-7289929D01*
X14318965Y-7289929D02*
X14299917Y-7280405D01*
X14299917Y-7280405D02*
X14290393Y-7270881D01*
X14290393Y-7270881D02*
X14280870Y-7251833D01*
X14280870Y-7251833D02*
X14280870Y-7194691D01*
X14280870Y-7194691D02*
X14290393Y-7175643D01*
X14290393Y-7175643D02*
X14299917Y-7166119D01*
X14299917Y-7166119D02*
X14318965Y-7156595D01*
X14318965Y-7156595D02*
X14357060Y-7156595D01*
X14357060Y-7156595D02*
X14376108Y-7166119D01*
X14452298Y-7366119D02*
X14461822Y-7356595D01*
X14461822Y-7356595D02*
X14480870Y-7328024D01*
X14480870Y-7328024D02*
X14490393Y-7308976D01*
X14490393Y-7308976D02*
X14499917Y-7280405D01*
X14499917Y-7280405D02*
X14509441Y-7232786D01*
X14509441Y-7232786D02*
X14509441Y-7194691D01*
X14509441Y-7194691D02*
X14499917Y-7147071D01*
X14499917Y-7147071D02*
X14490393Y-7118500D01*
X14490393Y-7118500D02*
X14480870Y-7099452D01*
X14480870Y-7099452D02*
X14461822Y-7070881D01*
X14461822Y-7070881D02*
X14452298Y-7061357D01*
M02*
