%TF.GenerationSoftware,KiCad,Pcbnew,8.0.1-8.0.1-1~ubuntu22.04.1*%
%TF.CreationDate,2024-04-21T23:11:14-04:00*%
%TF.ProjectId,arm_drive_j2,61726d5f-6472-4697-9665-5f6a322e6b69,rev?*%
%TF.SameCoordinates,Original*%
%TF.FileFunction,Legend,Top*%
%TF.FilePolarity,Positive*%
%FSLAX46Y46*%
G04 Gerber Fmt 4.6, Leading zero omitted, Abs format (unit mm)*
G04 Created by KiCad (PCBNEW 8.0.1-8.0.1-1~ubuntu22.04.1) date 2024-04-21 23:11:14*
%MOMM*%
%LPD*%
G01*
G04 APERTURE LIST*
G04 Aperture macros list*
%AMRoundRect*
0 Rectangle with rounded corners*
0 $1 Rounding radius*
0 $2 $3 $4 $5 $6 $7 $8 $9 X,Y pos of 4 corners*
0 Add a 4 corners polygon primitive as box body*
4,1,4,$2,$3,$4,$5,$6,$7,$8,$9,$2,$3,0*
0 Add four circle primitives for the rounded corners*
1,1,$1+$1,$2,$3*
1,1,$1+$1,$4,$5*
1,1,$1+$1,$6,$7*
1,1,$1+$1,$8,$9*
0 Add four rect primitives between the rounded corners*
20,1,$1+$1,$2,$3,$4,$5,0*
20,1,$1+$1,$4,$5,$6,$7,0*
20,1,$1+$1,$6,$7,$8,$9,0*
20,1,$1+$1,$8,$9,$2,$3,0*%
G04 Aperture macros list end*
%ADD10C,0.150000*%
%ADD11C,0.120000*%
%ADD12C,0.152400*%
%ADD13C,0.508000*%
%ADD14C,0.127000*%
%ADD15C,0.200000*%
%ADD16RoundRect,0.250000X-0.350000X-0.450000X0.350000X-0.450000X0.350000X0.450000X-0.350000X0.450000X0*%
%ADD17RoundRect,0.250000X0.337500X0.475000X-0.337500X0.475000X-0.337500X-0.475000X0.337500X-0.475000X0*%
%ADD18RoundRect,0.250000X0.325000X0.450000X-0.325000X0.450000X-0.325000X-0.450000X0.325000X-0.450000X0*%
%ADD19RoundRect,0.250000X0.350000X0.450000X-0.350000X0.450000X-0.350000X-0.450000X0.350000X-0.450000X0*%
%ADD20R,3.911600X1.803400*%
%ADD21R,4.495800X1.295400*%
%ADD22C,1.400000*%
%ADD23R,3.500000X3.500000*%
%ADD24C,3.500000*%
%ADD25R,0.609600X1.511300*%
%ADD26R,1.511300X0.609600*%
%ADD27R,0.900000X1.500000*%
%ADD28R,1.500000X0.900000*%
%ADD29R,3.900000X3.900000*%
%ADD30RoundRect,0.055580X0.341420X-1.316420X0.341420X1.316420X-0.341420X1.316420X-0.341420X-1.316420X0*%
%ADD31RoundRect,0.055580X0.341420X-1.191420X0.341420X1.191420X-0.341420X1.191420X-0.341420X-1.191420X0*%
%ADD32RoundRect,0.150000X-1.225000X-0.150000X1.225000X-0.150000X1.225000X0.150000X-1.225000X0.150000X0*%
%ADD33RoundRect,0.150000X-1.100000X-0.150000X1.100000X-0.150000X1.100000X0.150000X-1.100000X0.150000X0*%
%ADD34RoundRect,0.250000X-0.450000X0.350000X-0.450000X-0.350000X0.450000X-0.350000X0.450000X0.350000X0*%
%ADD35RoundRect,0.100000X-0.575000X0.100000X-0.575000X-0.100000X0.575000X-0.100000X0.575000X0.100000X0*%
%ADD36O,1.600000X0.900000*%
%ADD37RoundRect,0.250000X-0.450000X0.550000X-0.450000X-0.550000X0.450000X-0.550000X0.450000X0.550000X0*%
%ADD38RoundRect,0.250000X-0.700000X0.700000X-0.700000X-0.700000X0.700000X-0.700000X0.700000X0.700000X0*%
%ADD39RoundRect,0.250000X-0.337500X-0.475000X0.337500X-0.475000X0.337500X0.475000X-0.337500X0.475000X0*%
%ADD40R,2.704600X1.549400*%
%ADD41R,2.704600X1.524700*%
%ADD42C,2.600000*%
%ADD43C,3.800000*%
%ADD44C,3.350000*%
%ADD45RoundRect,0.102000X-0.634000X-0.634000X0.634000X-0.634000X0.634000X0.634000X-0.634000X0.634000X0*%
%ADD46C,1.472000*%
%ADD47R,2.400000X2.400000*%
%ADD48C,2.400000*%
%ADD49RoundRect,0.102000X0.634000X0.634000X-0.634000X0.634000X-0.634000X-0.634000X0.634000X-0.634000X0*%
G04 APERTURE END LIST*
D10*
X39946009Y-49069108D02*
X39946009Y-49402441D01*
X40469819Y-49402441D02*
X39469819Y-49402441D01*
X39469819Y-49402441D02*
X39469819Y-48926251D01*
X39469819Y-48640536D02*
X40469819Y-48402441D01*
X40469819Y-48402441D02*
X39755533Y-48211965D01*
X39755533Y-48211965D02*
X40469819Y-48021489D01*
X40469819Y-48021489D02*
X39469819Y-47783394D01*
X40469819Y-47402441D02*
X39469819Y-47402441D01*
X39469819Y-47402441D02*
X39469819Y-47164346D01*
X39469819Y-47164346D02*
X39517438Y-47021489D01*
X39517438Y-47021489D02*
X39612676Y-46926251D01*
X39612676Y-46926251D02*
X39707914Y-46878632D01*
X39707914Y-46878632D02*
X39898390Y-46831013D01*
X39898390Y-46831013D02*
X40041247Y-46831013D01*
X40041247Y-46831013D02*
X40231723Y-46878632D01*
X40231723Y-46878632D02*
X40326961Y-46926251D01*
X40326961Y-46926251D02*
X40422200Y-47021489D01*
X40422200Y-47021489D02*
X40469819Y-47164346D01*
X40469819Y-47164346D02*
X40469819Y-47402441D01*
X47622493Y-49069819D02*
X47622493Y-49784104D01*
X47622493Y-49784104D02*
X47574874Y-49926961D01*
X47574874Y-49926961D02*
X47479636Y-50022200D01*
X47479636Y-50022200D02*
X47336779Y-50069819D01*
X47336779Y-50069819D02*
X47241541Y-50069819D01*
X48051065Y-49165057D02*
X48098684Y-49117438D01*
X48098684Y-49117438D02*
X48193922Y-49069819D01*
X48193922Y-49069819D02*
X48432017Y-49069819D01*
X48432017Y-49069819D02*
X48527255Y-49117438D01*
X48527255Y-49117438D02*
X48574874Y-49165057D01*
X48574874Y-49165057D02*
X48622493Y-49260295D01*
X48622493Y-49260295D02*
X48622493Y-49355533D01*
X48622493Y-49355533D02*
X48574874Y-49498390D01*
X48574874Y-49498390D02*
X48003446Y-50069819D01*
X48003446Y-50069819D02*
X48622493Y-50069819D01*
X49812970Y-50069819D02*
X49812970Y-49069819D01*
X49812970Y-49069819D02*
X50193922Y-49069819D01*
X50193922Y-49069819D02*
X50289160Y-49117438D01*
X50289160Y-49117438D02*
X50336779Y-49165057D01*
X50336779Y-49165057D02*
X50384398Y-49260295D01*
X50384398Y-49260295D02*
X50384398Y-49403152D01*
X50384398Y-49403152D02*
X50336779Y-49498390D01*
X50336779Y-49498390D02*
X50289160Y-49546009D01*
X50289160Y-49546009D02*
X50193922Y-49593628D01*
X50193922Y-49593628D02*
X49812970Y-49593628D01*
X51003446Y-49069819D02*
X51193922Y-49069819D01*
X51193922Y-49069819D02*
X51289160Y-49117438D01*
X51289160Y-49117438D02*
X51384398Y-49212676D01*
X51384398Y-49212676D02*
X51432017Y-49403152D01*
X51432017Y-49403152D02*
X51432017Y-49736485D01*
X51432017Y-49736485D02*
X51384398Y-49926961D01*
X51384398Y-49926961D02*
X51289160Y-50022200D01*
X51289160Y-50022200D02*
X51193922Y-50069819D01*
X51193922Y-50069819D02*
X51003446Y-50069819D01*
X51003446Y-50069819D02*
X50908208Y-50022200D01*
X50908208Y-50022200D02*
X50812970Y-49926961D01*
X50812970Y-49926961D02*
X50765351Y-49736485D01*
X50765351Y-49736485D02*
X50765351Y-49403152D01*
X50765351Y-49403152D02*
X50812970Y-49212676D01*
X50812970Y-49212676D02*
X50908208Y-49117438D01*
X50908208Y-49117438D02*
X51003446Y-49069819D01*
X51765351Y-49069819D02*
X52003446Y-50069819D01*
X52003446Y-50069819D02*
X52193922Y-49355533D01*
X52193922Y-49355533D02*
X52384398Y-50069819D01*
X52384398Y-50069819D02*
X52622494Y-49069819D01*
X40478019Y-28593442D02*
X40001828Y-28926775D01*
X40478019Y-29164870D02*
X39478019Y-29164870D01*
X39478019Y-29164870D02*
X39478019Y-28783918D01*
X39478019Y-28783918D02*
X39525638Y-28688680D01*
X39525638Y-28688680D02*
X39573257Y-28641061D01*
X39573257Y-28641061D02*
X39668495Y-28593442D01*
X39668495Y-28593442D02*
X39811352Y-28593442D01*
X39811352Y-28593442D02*
X39906590Y-28641061D01*
X39906590Y-28641061D02*
X39954209Y-28688680D01*
X39954209Y-28688680D02*
X40001828Y-28783918D01*
X40001828Y-28783918D02*
X40001828Y-29164870D01*
X39954209Y-28164870D02*
X39954209Y-27831537D01*
X40478019Y-27688680D02*
X40478019Y-28164870D01*
X40478019Y-28164870D02*
X39478019Y-28164870D01*
X39478019Y-28164870D02*
X39478019Y-27688680D01*
X39478019Y-27402965D02*
X40478019Y-27069632D01*
X40478019Y-27069632D02*
X39478019Y-26736299D01*
X41774580Y-56491792D02*
X41822200Y-56539411D01*
X41822200Y-56539411D02*
X41869819Y-56682268D01*
X41869819Y-56682268D02*
X41869819Y-56777506D01*
X41869819Y-56777506D02*
X41822200Y-56920363D01*
X41822200Y-56920363D02*
X41726961Y-57015601D01*
X41726961Y-57015601D02*
X41631723Y-57063220D01*
X41631723Y-57063220D02*
X41441247Y-57110839D01*
X41441247Y-57110839D02*
X41298390Y-57110839D01*
X41298390Y-57110839D02*
X41107914Y-57063220D01*
X41107914Y-57063220D02*
X41012676Y-57015601D01*
X41012676Y-57015601D02*
X40917438Y-56920363D01*
X40917438Y-56920363D02*
X40869819Y-56777506D01*
X40869819Y-56777506D02*
X40869819Y-56682268D01*
X40869819Y-56682268D02*
X40917438Y-56539411D01*
X40917438Y-56539411D02*
X40965057Y-56491792D01*
X41869819Y-55634649D02*
X41346009Y-55634649D01*
X41346009Y-55634649D02*
X41250771Y-55682268D01*
X41250771Y-55682268D02*
X41203152Y-55777506D01*
X41203152Y-55777506D02*
X41203152Y-55967982D01*
X41203152Y-55967982D02*
X41250771Y-56063220D01*
X41822200Y-55634649D02*
X41869819Y-55729887D01*
X41869819Y-55729887D02*
X41869819Y-55967982D01*
X41869819Y-55967982D02*
X41822200Y-56063220D01*
X41822200Y-56063220D02*
X41726961Y-56110839D01*
X41726961Y-56110839D02*
X41631723Y-56110839D01*
X41631723Y-56110839D02*
X41536485Y-56063220D01*
X41536485Y-56063220D02*
X41488866Y-55967982D01*
X41488866Y-55967982D02*
X41488866Y-55729887D01*
X41488866Y-55729887D02*
X41441247Y-55634649D01*
X41869819Y-55015601D02*
X41822200Y-55110839D01*
X41822200Y-55110839D02*
X41726961Y-55158458D01*
X41726961Y-55158458D02*
X40869819Y-55158458D01*
X41869819Y-54634648D02*
X41203152Y-54634648D01*
X40869819Y-54634648D02*
X40917438Y-54682267D01*
X40917438Y-54682267D02*
X40965057Y-54634648D01*
X40965057Y-54634648D02*
X40917438Y-54587029D01*
X40917438Y-54587029D02*
X40869819Y-54634648D01*
X40869819Y-54634648D02*
X40965057Y-54634648D01*
X41869819Y-54158458D02*
X40869819Y-54158458D01*
X41250771Y-54158458D02*
X41203152Y-54063220D01*
X41203152Y-54063220D02*
X41203152Y-53872744D01*
X41203152Y-53872744D02*
X41250771Y-53777506D01*
X41250771Y-53777506D02*
X41298390Y-53729887D01*
X41298390Y-53729887D02*
X41393628Y-53682268D01*
X41393628Y-53682268D02*
X41679342Y-53682268D01*
X41679342Y-53682268D02*
X41774580Y-53729887D01*
X41774580Y-53729887D02*
X41822200Y-53777506D01*
X41822200Y-53777506D02*
X41869819Y-53872744D01*
X41869819Y-53872744D02*
X41869819Y-54063220D01*
X41869819Y-54063220D02*
X41822200Y-54158458D01*
X22336779Y-57946009D02*
X22670112Y-57946009D01*
X22812969Y-58469819D02*
X22336779Y-58469819D01*
X22336779Y-58469819D02*
X22336779Y-57469819D01*
X22336779Y-57469819D02*
X22812969Y-57469819D01*
X23241541Y-57803152D02*
X23241541Y-58469819D01*
X23241541Y-57898390D02*
X23289160Y-57850771D01*
X23289160Y-57850771D02*
X23384398Y-57803152D01*
X23384398Y-57803152D02*
X23527255Y-57803152D01*
X23527255Y-57803152D02*
X23622493Y-57850771D01*
X23622493Y-57850771D02*
X23670112Y-57946009D01*
X23670112Y-57946009D02*
X23670112Y-58469819D01*
X26670112Y-57946009D02*
X26812969Y-57993628D01*
X26812969Y-57993628D02*
X26860588Y-58041247D01*
X26860588Y-58041247D02*
X26908207Y-58136485D01*
X26908207Y-58136485D02*
X26908207Y-58279342D01*
X26908207Y-58279342D02*
X26860588Y-58374580D01*
X26860588Y-58374580D02*
X26812969Y-58422200D01*
X26812969Y-58422200D02*
X26717731Y-58469819D01*
X26717731Y-58469819D02*
X26336779Y-58469819D01*
X26336779Y-58469819D02*
X26336779Y-57469819D01*
X26336779Y-57469819D02*
X26670112Y-57469819D01*
X26670112Y-57469819D02*
X26765350Y-57517438D01*
X26765350Y-57517438D02*
X26812969Y-57565057D01*
X26812969Y-57565057D02*
X26860588Y-57660295D01*
X26860588Y-57660295D02*
X26860588Y-57755533D01*
X26860588Y-57755533D02*
X26812969Y-57850771D01*
X26812969Y-57850771D02*
X26765350Y-57898390D01*
X26765350Y-57898390D02*
X26670112Y-57946009D01*
X26670112Y-57946009D02*
X26336779Y-57946009D01*
X27479636Y-58469819D02*
X27384398Y-58422200D01*
X27384398Y-58422200D02*
X27336779Y-58374580D01*
X27336779Y-58374580D02*
X27289160Y-58279342D01*
X27289160Y-58279342D02*
X27289160Y-57993628D01*
X27289160Y-57993628D02*
X27336779Y-57898390D01*
X27336779Y-57898390D02*
X27384398Y-57850771D01*
X27384398Y-57850771D02*
X27479636Y-57803152D01*
X27479636Y-57803152D02*
X27622493Y-57803152D01*
X27622493Y-57803152D02*
X27717731Y-57850771D01*
X27717731Y-57850771D02*
X27765350Y-57898390D01*
X27765350Y-57898390D02*
X27812969Y-57993628D01*
X27812969Y-57993628D02*
X27812969Y-58279342D01*
X27812969Y-58279342D02*
X27765350Y-58374580D01*
X27765350Y-58374580D02*
X27717731Y-58422200D01*
X27717731Y-58422200D02*
X27622493Y-58469819D01*
X27622493Y-58469819D02*
X27479636Y-58469819D01*
X28384398Y-58469819D02*
X28289160Y-58422200D01*
X28289160Y-58422200D02*
X28241541Y-58374580D01*
X28241541Y-58374580D02*
X28193922Y-58279342D01*
X28193922Y-58279342D02*
X28193922Y-57993628D01*
X28193922Y-57993628D02*
X28241541Y-57898390D01*
X28241541Y-57898390D02*
X28289160Y-57850771D01*
X28289160Y-57850771D02*
X28384398Y-57803152D01*
X28384398Y-57803152D02*
X28527255Y-57803152D01*
X28527255Y-57803152D02*
X28622493Y-57850771D01*
X28622493Y-57850771D02*
X28670112Y-57898390D01*
X28670112Y-57898390D02*
X28717731Y-57993628D01*
X28717731Y-57993628D02*
X28717731Y-58279342D01*
X28717731Y-58279342D02*
X28670112Y-58374580D01*
X28670112Y-58374580D02*
X28622493Y-58422200D01*
X28622493Y-58422200D02*
X28527255Y-58469819D01*
X28527255Y-58469819D02*
X28384398Y-58469819D01*
X29003446Y-57803152D02*
X29384398Y-57803152D01*
X29146303Y-57469819D02*
X29146303Y-58326961D01*
X29146303Y-58326961D02*
X29193922Y-58422200D01*
X29193922Y-58422200D02*
X29289160Y-58469819D01*
X29289160Y-58469819D02*
X29384398Y-58469819D01*
X49633333Y-23654819D02*
X49300000Y-23178628D01*
X49061905Y-23654819D02*
X49061905Y-22654819D01*
X49061905Y-22654819D02*
X49442857Y-22654819D01*
X49442857Y-22654819D02*
X49538095Y-22702438D01*
X49538095Y-22702438D02*
X49585714Y-22750057D01*
X49585714Y-22750057D02*
X49633333Y-22845295D01*
X49633333Y-22845295D02*
X49633333Y-22988152D01*
X49633333Y-22988152D02*
X49585714Y-23083390D01*
X49585714Y-23083390D02*
X49538095Y-23131009D01*
X49538095Y-23131009D02*
X49442857Y-23178628D01*
X49442857Y-23178628D02*
X49061905Y-23178628D01*
X50490476Y-22988152D02*
X50490476Y-23654819D01*
X50252381Y-22607200D02*
X50014286Y-23321485D01*
X50014286Y-23321485D02*
X50633333Y-23321485D01*
X23857142Y-52559580D02*
X23809523Y-52607200D01*
X23809523Y-52607200D02*
X23666666Y-52654819D01*
X23666666Y-52654819D02*
X23571428Y-52654819D01*
X23571428Y-52654819D02*
X23428571Y-52607200D01*
X23428571Y-52607200D02*
X23333333Y-52511961D01*
X23333333Y-52511961D02*
X23285714Y-52416723D01*
X23285714Y-52416723D02*
X23238095Y-52226247D01*
X23238095Y-52226247D02*
X23238095Y-52083390D01*
X23238095Y-52083390D02*
X23285714Y-51892914D01*
X23285714Y-51892914D02*
X23333333Y-51797676D01*
X23333333Y-51797676D02*
X23428571Y-51702438D01*
X23428571Y-51702438D02*
X23571428Y-51654819D01*
X23571428Y-51654819D02*
X23666666Y-51654819D01*
X23666666Y-51654819D02*
X23809523Y-51702438D01*
X23809523Y-51702438D02*
X23857142Y-51750057D01*
X24809523Y-52654819D02*
X24238095Y-52654819D01*
X24523809Y-52654819D02*
X24523809Y-51654819D01*
X24523809Y-51654819D02*
X24428571Y-51797676D01*
X24428571Y-51797676D02*
X24333333Y-51892914D01*
X24333333Y-51892914D02*
X24238095Y-51940533D01*
X25285714Y-52654819D02*
X25476190Y-52654819D01*
X25476190Y-52654819D02*
X25571428Y-52607200D01*
X25571428Y-52607200D02*
X25619047Y-52559580D01*
X25619047Y-52559580D02*
X25714285Y-52416723D01*
X25714285Y-52416723D02*
X25761904Y-52226247D01*
X25761904Y-52226247D02*
X25761904Y-51845295D01*
X25761904Y-51845295D02*
X25714285Y-51750057D01*
X25714285Y-51750057D02*
X25666666Y-51702438D01*
X25666666Y-51702438D02*
X25571428Y-51654819D01*
X25571428Y-51654819D02*
X25380952Y-51654819D01*
X25380952Y-51654819D02*
X25285714Y-51702438D01*
X25285714Y-51702438D02*
X25238095Y-51750057D01*
X25238095Y-51750057D02*
X25190476Y-51845295D01*
X25190476Y-51845295D02*
X25190476Y-52083390D01*
X25190476Y-52083390D02*
X25238095Y-52178628D01*
X25238095Y-52178628D02*
X25285714Y-52226247D01*
X25285714Y-52226247D02*
X25380952Y-52273866D01*
X25380952Y-52273866D02*
X25571428Y-52273866D01*
X25571428Y-52273866D02*
X25666666Y-52226247D01*
X25666666Y-52226247D02*
X25714285Y-52178628D01*
X25714285Y-52178628D02*
X25761904Y-52083390D01*
X50261905Y-76254819D02*
X50261905Y-75254819D01*
X50261905Y-75254819D02*
X50500000Y-75254819D01*
X50500000Y-75254819D02*
X50642857Y-75302438D01*
X50642857Y-75302438D02*
X50738095Y-75397676D01*
X50738095Y-75397676D02*
X50785714Y-75492914D01*
X50785714Y-75492914D02*
X50833333Y-75683390D01*
X50833333Y-75683390D02*
X50833333Y-75826247D01*
X50833333Y-75826247D02*
X50785714Y-76016723D01*
X50785714Y-76016723D02*
X50738095Y-76111961D01*
X50738095Y-76111961D02*
X50642857Y-76207200D01*
X50642857Y-76207200D02*
X50500000Y-76254819D01*
X50500000Y-76254819D02*
X50261905Y-76254819D01*
X51785714Y-76254819D02*
X51214286Y-76254819D01*
X51500000Y-76254819D02*
X51500000Y-75254819D01*
X51500000Y-75254819D02*
X51404762Y-75397676D01*
X51404762Y-75397676D02*
X51309524Y-75492914D01*
X51309524Y-75492914D02*
X51214286Y-75540533D01*
X34233333Y-59054819D02*
X33900000Y-58578628D01*
X33661905Y-59054819D02*
X33661905Y-58054819D01*
X33661905Y-58054819D02*
X34042857Y-58054819D01*
X34042857Y-58054819D02*
X34138095Y-58102438D01*
X34138095Y-58102438D02*
X34185714Y-58150057D01*
X34185714Y-58150057D02*
X34233333Y-58245295D01*
X34233333Y-58245295D02*
X34233333Y-58388152D01*
X34233333Y-58388152D02*
X34185714Y-58483390D01*
X34185714Y-58483390D02*
X34138095Y-58531009D01*
X34138095Y-58531009D02*
X34042857Y-58578628D01*
X34042857Y-58578628D02*
X33661905Y-58578628D01*
X35090476Y-58054819D02*
X34900000Y-58054819D01*
X34900000Y-58054819D02*
X34804762Y-58102438D01*
X34804762Y-58102438D02*
X34757143Y-58150057D01*
X34757143Y-58150057D02*
X34661905Y-58292914D01*
X34661905Y-58292914D02*
X34614286Y-58483390D01*
X34614286Y-58483390D02*
X34614286Y-58864342D01*
X34614286Y-58864342D02*
X34661905Y-58959580D01*
X34661905Y-58959580D02*
X34709524Y-59007200D01*
X34709524Y-59007200D02*
X34804762Y-59054819D01*
X34804762Y-59054819D02*
X34995238Y-59054819D01*
X34995238Y-59054819D02*
X35090476Y-59007200D01*
X35090476Y-59007200D02*
X35138095Y-58959580D01*
X35138095Y-58959580D02*
X35185714Y-58864342D01*
X35185714Y-58864342D02*
X35185714Y-58626247D01*
X35185714Y-58626247D02*
X35138095Y-58531009D01*
X35138095Y-58531009D02*
X35090476Y-58483390D01*
X35090476Y-58483390D02*
X34995238Y-58435771D01*
X34995238Y-58435771D02*
X34804762Y-58435771D01*
X34804762Y-58435771D02*
X34709524Y-58483390D01*
X34709524Y-58483390D02*
X34661905Y-58531009D01*
X34661905Y-58531009D02*
X34614286Y-58626247D01*
X46708620Y-38383334D02*
X47422905Y-38383334D01*
X47422905Y-38383334D02*
X47565762Y-38430953D01*
X47565762Y-38430953D02*
X47661001Y-38526191D01*
X47661001Y-38526191D02*
X47708620Y-38669048D01*
X47708620Y-38669048D02*
X47708620Y-38764286D01*
X47041953Y-37478572D02*
X47708620Y-37478572D01*
X46661001Y-37716667D02*
X47375286Y-37954762D01*
X47375286Y-37954762D02*
X47375286Y-37335715D01*
X39166666Y-17304819D02*
X39166666Y-18019104D01*
X39166666Y-18019104D02*
X39119047Y-18161961D01*
X39119047Y-18161961D02*
X39023809Y-18257200D01*
X39023809Y-18257200D02*
X38880952Y-18304819D01*
X38880952Y-18304819D02*
X38785714Y-18304819D01*
X39785714Y-17733390D02*
X39690476Y-17685771D01*
X39690476Y-17685771D02*
X39642857Y-17638152D01*
X39642857Y-17638152D02*
X39595238Y-17542914D01*
X39595238Y-17542914D02*
X39595238Y-17495295D01*
X39595238Y-17495295D02*
X39642857Y-17400057D01*
X39642857Y-17400057D02*
X39690476Y-17352438D01*
X39690476Y-17352438D02*
X39785714Y-17304819D01*
X39785714Y-17304819D02*
X39976190Y-17304819D01*
X39976190Y-17304819D02*
X40071428Y-17352438D01*
X40071428Y-17352438D02*
X40119047Y-17400057D01*
X40119047Y-17400057D02*
X40166666Y-17495295D01*
X40166666Y-17495295D02*
X40166666Y-17542914D01*
X40166666Y-17542914D02*
X40119047Y-17638152D01*
X40119047Y-17638152D02*
X40071428Y-17685771D01*
X40071428Y-17685771D02*
X39976190Y-17733390D01*
X39976190Y-17733390D02*
X39785714Y-17733390D01*
X39785714Y-17733390D02*
X39690476Y-17781009D01*
X39690476Y-17781009D02*
X39642857Y-17828628D01*
X39642857Y-17828628D02*
X39595238Y-17923866D01*
X39595238Y-17923866D02*
X39595238Y-18114342D01*
X39595238Y-18114342D02*
X39642857Y-18209580D01*
X39642857Y-18209580D02*
X39690476Y-18257200D01*
X39690476Y-18257200D02*
X39785714Y-18304819D01*
X39785714Y-18304819D02*
X39976190Y-18304819D01*
X39976190Y-18304819D02*
X40071428Y-18257200D01*
X40071428Y-18257200D02*
X40119047Y-18209580D01*
X40119047Y-18209580D02*
X40166666Y-18114342D01*
X40166666Y-18114342D02*
X40166666Y-17923866D01*
X40166666Y-17923866D02*
X40119047Y-17828628D01*
X40119047Y-17828628D02*
X40071428Y-17781009D01*
X40071428Y-17781009D02*
X39976190Y-17733390D01*
X44428571Y-24114700D02*
X45571429Y-24114700D01*
X45000000Y-24686128D02*
X45000000Y-23543271D01*
X33428571Y-24114700D02*
X34571429Y-24114700D01*
X38092800Y-31470317D02*
X38045180Y-31613174D01*
X38045180Y-31613174D02*
X38045180Y-31851269D01*
X38045180Y-31851269D02*
X38092800Y-31946507D01*
X38092800Y-31946507D02*
X38140419Y-31994126D01*
X38140419Y-31994126D02*
X38235657Y-32041745D01*
X38235657Y-32041745D02*
X38330895Y-32041745D01*
X38330895Y-32041745D02*
X38426133Y-31994126D01*
X38426133Y-31994126D02*
X38473752Y-31946507D01*
X38473752Y-31946507D02*
X38521371Y-31851269D01*
X38521371Y-31851269D02*
X38568990Y-31660793D01*
X38568990Y-31660793D02*
X38616609Y-31565555D01*
X38616609Y-31565555D02*
X38664228Y-31517936D01*
X38664228Y-31517936D02*
X38759466Y-31470317D01*
X38759466Y-31470317D02*
X38854704Y-31470317D01*
X38854704Y-31470317D02*
X38949942Y-31517936D01*
X38949942Y-31517936D02*
X38997561Y-31565555D01*
X38997561Y-31565555D02*
X39045180Y-31660793D01*
X39045180Y-31660793D02*
X39045180Y-31898888D01*
X39045180Y-31898888D02*
X38997561Y-32041745D01*
X39045180Y-32375079D02*
X38045180Y-32613174D01*
X38045180Y-32613174D02*
X38759466Y-32803650D01*
X38759466Y-32803650D02*
X38045180Y-32994126D01*
X38045180Y-32994126D02*
X39045180Y-33232222D01*
X39045180Y-33517936D02*
X39045180Y-34136983D01*
X39045180Y-34136983D02*
X38664228Y-33803650D01*
X38664228Y-33803650D02*
X38664228Y-33946507D01*
X38664228Y-33946507D02*
X38616609Y-34041745D01*
X38616609Y-34041745D02*
X38568990Y-34089364D01*
X38568990Y-34089364D02*
X38473752Y-34136983D01*
X38473752Y-34136983D02*
X38235657Y-34136983D01*
X38235657Y-34136983D02*
X38140419Y-34089364D01*
X38140419Y-34089364D02*
X38092800Y-34041745D01*
X38092800Y-34041745D02*
X38045180Y-33946507D01*
X38045180Y-33946507D02*
X38045180Y-33660793D01*
X38045180Y-33660793D02*
X38092800Y-33565555D01*
X38092800Y-33565555D02*
X38140419Y-33517936D01*
X31833332Y-54592800D02*
X31690475Y-54545180D01*
X31690475Y-54545180D02*
X31452380Y-54545180D01*
X31452380Y-54545180D02*
X31357142Y-54592800D01*
X31357142Y-54592800D02*
X31309523Y-54640419D01*
X31309523Y-54640419D02*
X31261904Y-54735657D01*
X31261904Y-54735657D02*
X31261904Y-54830895D01*
X31261904Y-54830895D02*
X31309523Y-54926133D01*
X31309523Y-54926133D02*
X31357142Y-54973752D01*
X31357142Y-54973752D02*
X31452380Y-55021371D01*
X31452380Y-55021371D02*
X31642856Y-55068990D01*
X31642856Y-55068990D02*
X31738094Y-55116609D01*
X31738094Y-55116609D02*
X31785713Y-55164228D01*
X31785713Y-55164228D02*
X31833332Y-55259466D01*
X31833332Y-55259466D02*
X31833332Y-55354704D01*
X31833332Y-55354704D02*
X31785713Y-55449942D01*
X31785713Y-55449942D02*
X31738094Y-55497561D01*
X31738094Y-55497561D02*
X31642856Y-55545180D01*
X31642856Y-55545180D02*
X31404761Y-55545180D01*
X31404761Y-55545180D02*
X31261904Y-55497561D01*
X30928570Y-55545180D02*
X30690475Y-54545180D01*
X30690475Y-54545180D02*
X30499999Y-55259466D01*
X30499999Y-55259466D02*
X30309523Y-54545180D01*
X30309523Y-54545180D02*
X30071428Y-55545180D01*
X29738094Y-55449942D02*
X29690475Y-55497561D01*
X29690475Y-55497561D02*
X29595237Y-55545180D01*
X29595237Y-55545180D02*
X29357142Y-55545180D01*
X29357142Y-55545180D02*
X29261904Y-55497561D01*
X29261904Y-55497561D02*
X29214285Y-55449942D01*
X29214285Y-55449942D02*
X29166666Y-55354704D01*
X29166666Y-55354704D02*
X29166666Y-55259466D01*
X29166666Y-55259466D02*
X29214285Y-55116609D01*
X29214285Y-55116609D02*
X29785713Y-54545180D01*
X29785713Y-54545180D02*
X29166666Y-54545180D01*
X27238095Y-39454819D02*
X27238095Y-40264342D01*
X27238095Y-40264342D02*
X27285714Y-40359580D01*
X27285714Y-40359580D02*
X27333333Y-40407200D01*
X27333333Y-40407200D02*
X27428571Y-40454819D01*
X27428571Y-40454819D02*
X27619047Y-40454819D01*
X27619047Y-40454819D02*
X27714285Y-40407200D01*
X27714285Y-40407200D02*
X27761904Y-40359580D01*
X27761904Y-40359580D02*
X27809523Y-40264342D01*
X27809523Y-40264342D02*
X27809523Y-39454819D01*
X28714285Y-39454819D02*
X28523809Y-39454819D01*
X28523809Y-39454819D02*
X28428571Y-39502438D01*
X28428571Y-39502438D02*
X28380952Y-39550057D01*
X28380952Y-39550057D02*
X28285714Y-39692914D01*
X28285714Y-39692914D02*
X28238095Y-39883390D01*
X28238095Y-39883390D02*
X28238095Y-40264342D01*
X28238095Y-40264342D02*
X28285714Y-40359580D01*
X28285714Y-40359580D02*
X28333333Y-40407200D01*
X28333333Y-40407200D02*
X28428571Y-40454819D01*
X28428571Y-40454819D02*
X28619047Y-40454819D01*
X28619047Y-40454819D02*
X28714285Y-40407200D01*
X28714285Y-40407200D02*
X28761904Y-40359580D01*
X28761904Y-40359580D02*
X28809523Y-40264342D01*
X28809523Y-40264342D02*
X28809523Y-40026247D01*
X28809523Y-40026247D02*
X28761904Y-39931009D01*
X28761904Y-39931009D02*
X28714285Y-39883390D01*
X28714285Y-39883390D02*
X28619047Y-39835771D01*
X28619047Y-39835771D02*
X28428571Y-39835771D01*
X28428571Y-39835771D02*
X28333333Y-39883390D01*
X28333333Y-39883390D02*
X28285714Y-39931009D01*
X28285714Y-39931009D02*
X28238095Y-40026247D01*
X19166667Y-55407200D02*
X19309524Y-55454819D01*
X19309524Y-55454819D02*
X19547619Y-55454819D01*
X19547619Y-55454819D02*
X19642857Y-55407200D01*
X19642857Y-55407200D02*
X19690476Y-55359580D01*
X19690476Y-55359580D02*
X19738095Y-55264342D01*
X19738095Y-55264342D02*
X19738095Y-55169104D01*
X19738095Y-55169104D02*
X19690476Y-55073866D01*
X19690476Y-55073866D02*
X19642857Y-55026247D01*
X19642857Y-55026247D02*
X19547619Y-54978628D01*
X19547619Y-54978628D02*
X19357143Y-54931009D01*
X19357143Y-54931009D02*
X19261905Y-54883390D01*
X19261905Y-54883390D02*
X19214286Y-54835771D01*
X19214286Y-54835771D02*
X19166667Y-54740533D01*
X19166667Y-54740533D02*
X19166667Y-54645295D01*
X19166667Y-54645295D02*
X19214286Y-54550057D01*
X19214286Y-54550057D02*
X19261905Y-54502438D01*
X19261905Y-54502438D02*
X19357143Y-54454819D01*
X19357143Y-54454819D02*
X19595238Y-54454819D01*
X19595238Y-54454819D02*
X19738095Y-54502438D01*
X20071429Y-54454819D02*
X20309524Y-55454819D01*
X20309524Y-55454819D02*
X20500000Y-54740533D01*
X20500000Y-54740533D02*
X20690476Y-55454819D01*
X20690476Y-55454819D02*
X20928572Y-54454819D01*
X21833333Y-55454819D02*
X21261905Y-55454819D01*
X21547619Y-55454819D02*
X21547619Y-54454819D01*
X21547619Y-54454819D02*
X21452381Y-54597676D01*
X21452381Y-54597676D02*
X21357143Y-54692914D01*
X21357143Y-54692914D02*
X21261905Y-54740533D01*
X50261905Y-72104819D02*
X50261905Y-71104819D01*
X50261905Y-71104819D02*
X50500000Y-71104819D01*
X50500000Y-71104819D02*
X50642857Y-71152438D01*
X50642857Y-71152438D02*
X50738095Y-71247676D01*
X50738095Y-71247676D02*
X50785714Y-71342914D01*
X50785714Y-71342914D02*
X50833333Y-71533390D01*
X50833333Y-71533390D02*
X50833333Y-71676247D01*
X50833333Y-71676247D02*
X50785714Y-71866723D01*
X50785714Y-71866723D02*
X50738095Y-71961961D01*
X50738095Y-71961961D02*
X50642857Y-72057200D01*
X50642857Y-72057200D02*
X50500000Y-72104819D01*
X50500000Y-72104819D02*
X50261905Y-72104819D01*
X51214286Y-71200057D02*
X51261905Y-71152438D01*
X51261905Y-71152438D02*
X51357143Y-71104819D01*
X51357143Y-71104819D02*
X51595238Y-71104819D01*
X51595238Y-71104819D02*
X51690476Y-71152438D01*
X51690476Y-71152438D02*
X51738095Y-71200057D01*
X51738095Y-71200057D02*
X51785714Y-71295295D01*
X51785714Y-71295295D02*
X51785714Y-71390533D01*
X51785714Y-71390533D02*
X51738095Y-71533390D01*
X51738095Y-71533390D02*
X51166667Y-72104819D01*
X51166667Y-72104819D02*
X51785714Y-72104819D01*
X28857142Y-52654819D02*
X28523809Y-52178628D01*
X28285714Y-52654819D02*
X28285714Y-51654819D01*
X28285714Y-51654819D02*
X28666666Y-51654819D01*
X28666666Y-51654819D02*
X28761904Y-51702438D01*
X28761904Y-51702438D02*
X28809523Y-51750057D01*
X28809523Y-51750057D02*
X28857142Y-51845295D01*
X28857142Y-51845295D02*
X28857142Y-51988152D01*
X28857142Y-51988152D02*
X28809523Y-52083390D01*
X28809523Y-52083390D02*
X28761904Y-52131009D01*
X28761904Y-52131009D02*
X28666666Y-52178628D01*
X28666666Y-52178628D02*
X28285714Y-52178628D01*
X29809523Y-52654819D02*
X29238095Y-52654819D01*
X29523809Y-52654819D02*
X29523809Y-51654819D01*
X29523809Y-51654819D02*
X29428571Y-51797676D01*
X29428571Y-51797676D02*
X29333333Y-51892914D01*
X29333333Y-51892914D02*
X29238095Y-51940533D01*
X30142857Y-51654819D02*
X30761904Y-51654819D01*
X30761904Y-51654819D02*
X30428571Y-52035771D01*
X30428571Y-52035771D02*
X30571428Y-52035771D01*
X30571428Y-52035771D02*
X30666666Y-52083390D01*
X30666666Y-52083390D02*
X30714285Y-52131009D01*
X30714285Y-52131009D02*
X30761904Y-52226247D01*
X30761904Y-52226247D02*
X30761904Y-52464342D01*
X30761904Y-52464342D02*
X30714285Y-52559580D01*
X30714285Y-52559580D02*
X30666666Y-52607200D01*
X30666666Y-52607200D02*
X30571428Y-52654819D01*
X30571428Y-52654819D02*
X30285714Y-52654819D01*
X30285714Y-52654819D02*
X30190476Y-52607200D01*
X30190476Y-52607200D02*
X30142857Y-52559580D01*
X19819819Y-78086904D02*
X20629342Y-78086904D01*
X20629342Y-78086904D02*
X20724580Y-78039285D01*
X20724580Y-78039285D02*
X20772200Y-77991666D01*
X20772200Y-77991666D02*
X20819819Y-77896428D01*
X20819819Y-77896428D02*
X20819819Y-77705952D01*
X20819819Y-77705952D02*
X20772200Y-77610714D01*
X20772200Y-77610714D02*
X20724580Y-77563095D01*
X20724580Y-77563095D02*
X20629342Y-77515476D01*
X20629342Y-77515476D02*
X19819819Y-77515476D01*
X19915057Y-77086904D02*
X19867438Y-77039285D01*
X19867438Y-77039285D02*
X19819819Y-76944047D01*
X19819819Y-76944047D02*
X19819819Y-76705952D01*
X19819819Y-76705952D02*
X19867438Y-76610714D01*
X19867438Y-76610714D02*
X19915057Y-76563095D01*
X19915057Y-76563095D02*
X20010295Y-76515476D01*
X20010295Y-76515476D02*
X20105533Y-76515476D01*
X20105533Y-76515476D02*
X20248390Y-76563095D01*
X20248390Y-76563095D02*
X20819819Y-77134523D01*
X20819819Y-77134523D02*
X20819819Y-76515476D01*
X39166666Y-84619819D02*
X39166666Y-85334104D01*
X39166666Y-85334104D02*
X39119047Y-85476961D01*
X39119047Y-85476961D02*
X39023809Y-85572200D01*
X39023809Y-85572200D02*
X38880952Y-85619819D01*
X38880952Y-85619819D02*
X38785714Y-85619819D01*
X40071428Y-84619819D02*
X39880952Y-84619819D01*
X39880952Y-84619819D02*
X39785714Y-84667438D01*
X39785714Y-84667438D02*
X39738095Y-84715057D01*
X39738095Y-84715057D02*
X39642857Y-84857914D01*
X39642857Y-84857914D02*
X39595238Y-85048390D01*
X39595238Y-85048390D02*
X39595238Y-85429342D01*
X39595238Y-85429342D02*
X39642857Y-85524580D01*
X39642857Y-85524580D02*
X39690476Y-85572200D01*
X39690476Y-85572200D02*
X39785714Y-85619819D01*
X39785714Y-85619819D02*
X39976190Y-85619819D01*
X39976190Y-85619819D02*
X40071428Y-85572200D01*
X40071428Y-85572200D02*
X40119047Y-85524580D01*
X40119047Y-85524580D02*
X40166666Y-85429342D01*
X40166666Y-85429342D02*
X40166666Y-85191247D01*
X40166666Y-85191247D02*
X40119047Y-85096009D01*
X40119047Y-85096009D02*
X40071428Y-85048390D01*
X40071428Y-85048390D02*
X39976190Y-85000771D01*
X39976190Y-85000771D02*
X39785714Y-85000771D01*
X39785714Y-85000771D02*
X39690476Y-85048390D01*
X39690476Y-85048390D02*
X39642857Y-85096009D01*
X39642857Y-85096009D02*
X39595238Y-85191247D01*
X44428571Y-70779700D02*
X45571429Y-70779700D01*
X45000000Y-71351128D02*
X45000000Y-70208271D01*
X33428571Y-70779700D02*
X34571429Y-70779700D01*
X50033333Y-27104819D02*
X49700000Y-26628628D01*
X49461905Y-27104819D02*
X49461905Y-26104819D01*
X49461905Y-26104819D02*
X49842857Y-26104819D01*
X49842857Y-26104819D02*
X49938095Y-26152438D01*
X49938095Y-26152438D02*
X49985714Y-26200057D01*
X49985714Y-26200057D02*
X50033333Y-26295295D01*
X50033333Y-26295295D02*
X50033333Y-26438152D01*
X50033333Y-26438152D02*
X49985714Y-26533390D01*
X49985714Y-26533390D02*
X49938095Y-26581009D01*
X49938095Y-26581009D02*
X49842857Y-26628628D01*
X49842857Y-26628628D02*
X49461905Y-26628628D01*
X50366667Y-26104819D02*
X50985714Y-26104819D01*
X50985714Y-26104819D02*
X50652381Y-26485771D01*
X50652381Y-26485771D02*
X50795238Y-26485771D01*
X50795238Y-26485771D02*
X50890476Y-26533390D01*
X50890476Y-26533390D02*
X50938095Y-26581009D01*
X50938095Y-26581009D02*
X50985714Y-26676247D01*
X50985714Y-26676247D02*
X50985714Y-26914342D01*
X50985714Y-26914342D02*
X50938095Y-27009580D01*
X50938095Y-27009580D02*
X50890476Y-27057200D01*
X50890476Y-27057200D02*
X50795238Y-27104819D01*
X50795238Y-27104819D02*
X50509524Y-27104819D01*
X50509524Y-27104819D02*
X50414286Y-27057200D01*
X50414286Y-27057200D02*
X50366667Y-27009580D01*
X38092800Y-52470317D02*
X38045180Y-52613174D01*
X38045180Y-52613174D02*
X38045180Y-52851269D01*
X38045180Y-52851269D02*
X38092800Y-52946507D01*
X38092800Y-52946507D02*
X38140419Y-52994126D01*
X38140419Y-52994126D02*
X38235657Y-53041745D01*
X38235657Y-53041745D02*
X38330895Y-53041745D01*
X38330895Y-53041745D02*
X38426133Y-52994126D01*
X38426133Y-52994126D02*
X38473752Y-52946507D01*
X38473752Y-52946507D02*
X38521371Y-52851269D01*
X38521371Y-52851269D02*
X38568990Y-52660793D01*
X38568990Y-52660793D02*
X38616609Y-52565555D01*
X38616609Y-52565555D02*
X38664228Y-52517936D01*
X38664228Y-52517936D02*
X38759466Y-52470317D01*
X38759466Y-52470317D02*
X38854704Y-52470317D01*
X38854704Y-52470317D02*
X38949942Y-52517936D01*
X38949942Y-52517936D02*
X38997561Y-52565555D01*
X38997561Y-52565555D02*
X39045180Y-52660793D01*
X39045180Y-52660793D02*
X39045180Y-52898888D01*
X39045180Y-52898888D02*
X38997561Y-53041745D01*
X39045180Y-53375079D02*
X38045180Y-53613174D01*
X38045180Y-53613174D02*
X38759466Y-53803650D01*
X38759466Y-53803650D02*
X38045180Y-53994126D01*
X38045180Y-53994126D02*
X39045180Y-54232222D01*
X39045180Y-55089364D02*
X39045180Y-54613174D01*
X39045180Y-54613174D02*
X38568990Y-54565555D01*
X38568990Y-54565555D02*
X38616609Y-54613174D01*
X38616609Y-54613174D02*
X38664228Y-54708412D01*
X38664228Y-54708412D02*
X38664228Y-54946507D01*
X38664228Y-54946507D02*
X38616609Y-55041745D01*
X38616609Y-55041745D02*
X38568990Y-55089364D01*
X38568990Y-55089364D02*
X38473752Y-55136983D01*
X38473752Y-55136983D02*
X38235657Y-55136983D01*
X38235657Y-55136983D02*
X38140419Y-55089364D01*
X38140419Y-55089364D02*
X38092800Y-55041745D01*
X38092800Y-55041745D02*
X38045180Y-54946507D01*
X38045180Y-54946507D02*
X38045180Y-54708412D01*
X38045180Y-54708412D02*
X38092800Y-54613174D01*
X38092800Y-54613174D02*
X38140419Y-54565555D01*
X38907200Y-44636982D02*
X38954819Y-44494125D01*
X38954819Y-44494125D02*
X38954819Y-44256030D01*
X38954819Y-44256030D02*
X38907200Y-44160792D01*
X38907200Y-44160792D02*
X38859580Y-44113173D01*
X38859580Y-44113173D02*
X38764342Y-44065554D01*
X38764342Y-44065554D02*
X38669104Y-44065554D01*
X38669104Y-44065554D02*
X38573866Y-44113173D01*
X38573866Y-44113173D02*
X38526247Y-44160792D01*
X38526247Y-44160792D02*
X38478628Y-44256030D01*
X38478628Y-44256030D02*
X38431009Y-44446506D01*
X38431009Y-44446506D02*
X38383390Y-44541744D01*
X38383390Y-44541744D02*
X38335771Y-44589363D01*
X38335771Y-44589363D02*
X38240533Y-44636982D01*
X38240533Y-44636982D02*
X38145295Y-44636982D01*
X38145295Y-44636982D02*
X38050057Y-44589363D01*
X38050057Y-44589363D02*
X38002438Y-44541744D01*
X38002438Y-44541744D02*
X37954819Y-44446506D01*
X37954819Y-44446506D02*
X37954819Y-44208411D01*
X37954819Y-44208411D02*
X38002438Y-44065554D01*
X37954819Y-43732220D02*
X38954819Y-43494125D01*
X38954819Y-43494125D02*
X38240533Y-43303649D01*
X38240533Y-43303649D02*
X38954819Y-43113173D01*
X38954819Y-43113173D02*
X37954819Y-42875078D01*
X38288152Y-42065554D02*
X38954819Y-42065554D01*
X37907200Y-42303649D02*
X38621485Y-42541744D01*
X38621485Y-42541744D02*
X38621485Y-41922697D01*
X20357142Y-52559580D02*
X20309523Y-52607200D01*
X20309523Y-52607200D02*
X20166666Y-52654819D01*
X20166666Y-52654819D02*
X20071428Y-52654819D01*
X20071428Y-52654819D02*
X19928571Y-52607200D01*
X19928571Y-52607200D02*
X19833333Y-52511961D01*
X19833333Y-52511961D02*
X19785714Y-52416723D01*
X19785714Y-52416723D02*
X19738095Y-52226247D01*
X19738095Y-52226247D02*
X19738095Y-52083390D01*
X19738095Y-52083390D02*
X19785714Y-51892914D01*
X19785714Y-51892914D02*
X19833333Y-51797676D01*
X19833333Y-51797676D02*
X19928571Y-51702438D01*
X19928571Y-51702438D02*
X20071428Y-51654819D01*
X20071428Y-51654819D02*
X20166666Y-51654819D01*
X20166666Y-51654819D02*
X20309523Y-51702438D01*
X20309523Y-51702438D02*
X20357142Y-51750057D01*
X21309523Y-52654819D02*
X20738095Y-52654819D01*
X21023809Y-52654819D02*
X21023809Y-51654819D01*
X21023809Y-51654819D02*
X20928571Y-51797676D01*
X20928571Y-51797676D02*
X20833333Y-51892914D01*
X20833333Y-51892914D02*
X20738095Y-51940533D01*
X21642857Y-51654819D02*
X22309523Y-51654819D01*
X22309523Y-51654819D02*
X21880952Y-52654819D01*
X25738095Y-59054819D02*
X25738095Y-59864342D01*
X25738095Y-59864342D02*
X25785714Y-59959580D01*
X25785714Y-59959580D02*
X25833333Y-60007200D01*
X25833333Y-60007200D02*
X25928571Y-60054819D01*
X25928571Y-60054819D02*
X26119047Y-60054819D01*
X26119047Y-60054819D02*
X26214285Y-60007200D01*
X26214285Y-60007200D02*
X26261904Y-59959580D01*
X26261904Y-59959580D02*
X26309523Y-59864342D01*
X26309523Y-59864342D02*
X26309523Y-59054819D01*
X27309523Y-60054819D02*
X26738095Y-60054819D01*
X27023809Y-60054819D02*
X27023809Y-59054819D01*
X27023809Y-59054819D02*
X26928571Y-59197676D01*
X26928571Y-59197676D02*
X26833333Y-59292914D01*
X26833333Y-59292914D02*
X26738095Y-59340533D01*
X52254819Y-63766666D02*
X51778628Y-64099999D01*
X52254819Y-64338094D02*
X51254819Y-64338094D01*
X51254819Y-64338094D02*
X51254819Y-63957142D01*
X51254819Y-63957142D02*
X51302438Y-63861904D01*
X51302438Y-63861904D02*
X51350057Y-63814285D01*
X51350057Y-63814285D02*
X51445295Y-63766666D01*
X51445295Y-63766666D02*
X51588152Y-63766666D01*
X51588152Y-63766666D02*
X51683390Y-63814285D01*
X51683390Y-63814285D02*
X51731009Y-63861904D01*
X51731009Y-63861904D02*
X51778628Y-63957142D01*
X51778628Y-63957142D02*
X51778628Y-64338094D01*
X51254819Y-62861904D02*
X51254819Y-63338094D01*
X51254819Y-63338094D02*
X51731009Y-63385713D01*
X51731009Y-63385713D02*
X51683390Y-63338094D01*
X51683390Y-63338094D02*
X51635771Y-63242856D01*
X51635771Y-63242856D02*
X51635771Y-63004761D01*
X51635771Y-63004761D02*
X51683390Y-62909523D01*
X51683390Y-62909523D02*
X51731009Y-62861904D01*
X51731009Y-62861904D02*
X51826247Y-62814285D01*
X51826247Y-62814285D02*
X52064342Y-62814285D01*
X52064342Y-62814285D02*
X52159580Y-62861904D01*
X52159580Y-62861904D02*
X52207200Y-62909523D01*
X52207200Y-62909523D02*
X52254819Y-63004761D01*
X52254819Y-63004761D02*
X52254819Y-63242856D01*
X52254819Y-63242856D02*
X52207200Y-63338094D01*
X52207200Y-63338094D02*
X52159580Y-63385713D01*
X20357142Y-50959580D02*
X20309523Y-51007200D01*
X20309523Y-51007200D02*
X20166666Y-51054819D01*
X20166666Y-51054819D02*
X20071428Y-51054819D01*
X20071428Y-51054819D02*
X19928571Y-51007200D01*
X19928571Y-51007200D02*
X19833333Y-50911961D01*
X19833333Y-50911961D02*
X19785714Y-50816723D01*
X19785714Y-50816723D02*
X19738095Y-50626247D01*
X19738095Y-50626247D02*
X19738095Y-50483390D01*
X19738095Y-50483390D02*
X19785714Y-50292914D01*
X19785714Y-50292914D02*
X19833333Y-50197676D01*
X19833333Y-50197676D02*
X19928571Y-50102438D01*
X19928571Y-50102438D02*
X20071428Y-50054819D01*
X20071428Y-50054819D02*
X20166666Y-50054819D01*
X20166666Y-50054819D02*
X20309523Y-50102438D01*
X20309523Y-50102438D02*
X20357142Y-50150057D01*
X21309523Y-51054819D02*
X20738095Y-51054819D01*
X21023809Y-51054819D02*
X21023809Y-50054819D01*
X21023809Y-50054819D02*
X20928571Y-50197676D01*
X20928571Y-50197676D02*
X20833333Y-50292914D01*
X20833333Y-50292914D02*
X20738095Y-50340533D01*
X21880952Y-50483390D02*
X21785714Y-50435771D01*
X21785714Y-50435771D02*
X21738095Y-50388152D01*
X21738095Y-50388152D02*
X21690476Y-50292914D01*
X21690476Y-50292914D02*
X21690476Y-50245295D01*
X21690476Y-50245295D02*
X21738095Y-50150057D01*
X21738095Y-50150057D02*
X21785714Y-50102438D01*
X21785714Y-50102438D02*
X21880952Y-50054819D01*
X21880952Y-50054819D02*
X22071428Y-50054819D01*
X22071428Y-50054819D02*
X22166666Y-50102438D01*
X22166666Y-50102438D02*
X22214285Y-50150057D01*
X22214285Y-50150057D02*
X22261904Y-50245295D01*
X22261904Y-50245295D02*
X22261904Y-50292914D01*
X22261904Y-50292914D02*
X22214285Y-50388152D01*
X22214285Y-50388152D02*
X22166666Y-50435771D01*
X22166666Y-50435771D02*
X22071428Y-50483390D01*
X22071428Y-50483390D02*
X21880952Y-50483390D01*
X21880952Y-50483390D02*
X21785714Y-50531009D01*
X21785714Y-50531009D02*
X21738095Y-50578628D01*
X21738095Y-50578628D02*
X21690476Y-50673866D01*
X21690476Y-50673866D02*
X21690476Y-50864342D01*
X21690476Y-50864342D02*
X21738095Y-50959580D01*
X21738095Y-50959580D02*
X21785714Y-51007200D01*
X21785714Y-51007200D02*
X21880952Y-51054819D01*
X21880952Y-51054819D02*
X22071428Y-51054819D01*
X22071428Y-51054819D02*
X22166666Y-51007200D01*
X22166666Y-51007200D02*
X22214285Y-50959580D01*
X22214285Y-50959580D02*
X22261904Y-50864342D01*
X22261904Y-50864342D02*
X22261904Y-50673866D01*
X22261904Y-50673866D02*
X22214285Y-50578628D01*
X22214285Y-50578628D02*
X22166666Y-50531009D01*
X22166666Y-50531009D02*
X22071428Y-50483390D01*
X20779819Y-62933333D02*
X21494104Y-62933333D01*
X21494104Y-62933333D02*
X21636961Y-62980952D01*
X21636961Y-62980952D02*
X21732200Y-63076190D01*
X21732200Y-63076190D02*
X21779819Y-63219047D01*
X21779819Y-63219047D02*
X21779819Y-63314285D01*
X21779819Y-61933333D02*
X21779819Y-62504761D01*
X21779819Y-62219047D02*
X20779819Y-62219047D01*
X20779819Y-62219047D02*
X20922676Y-62314285D01*
X20922676Y-62314285D02*
X21017914Y-62409523D01*
X21017914Y-62409523D02*
X21065533Y-62504761D01*
X59804819Y-57333333D02*
X60519104Y-57333333D01*
X60519104Y-57333333D02*
X60661961Y-57380952D01*
X60661961Y-57380952D02*
X60757200Y-57476190D01*
X60757200Y-57476190D02*
X60804819Y-57619047D01*
X60804819Y-57619047D02*
X60804819Y-57714285D01*
X59804819Y-56952380D02*
X59804819Y-56285714D01*
X59804819Y-56285714D02*
X60804819Y-56714285D01*
X44964700Y-52071428D02*
X44964700Y-50928571D01*
X44964700Y-63071428D02*
X44964700Y-61928571D01*
X45536128Y-62499999D02*
X44393271Y-62499999D01*
X21433333Y-22359580D02*
X21385714Y-22407200D01*
X21385714Y-22407200D02*
X21242857Y-22454819D01*
X21242857Y-22454819D02*
X21147619Y-22454819D01*
X21147619Y-22454819D02*
X21004762Y-22407200D01*
X21004762Y-22407200D02*
X20909524Y-22311961D01*
X20909524Y-22311961D02*
X20861905Y-22216723D01*
X20861905Y-22216723D02*
X20814286Y-22026247D01*
X20814286Y-22026247D02*
X20814286Y-21883390D01*
X20814286Y-21883390D02*
X20861905Y-21692914D01*
X20861905Y-21692914D02*
X20909524Y-21597676D01*
X20909524Y-21597676D02*
X21004762Y-21502438D01*
X21004762Y-21502438D02*
X21147619Y-21454819D01*
X21147619Y-21454819D02*
X21242857Y-21454819D01*
X21242857Y-21454819D02*
X21385714Y-21502438D01*
X21385714Y-21502438D02*
X21433333Y-21550057D01*
X22338095Y-21454819D02*
X21861905Y-21454819D01*
X21861905Y-21454819D02*
X21814286Y-21931009D01*
X21814286Y-21931009D02*
X21861905Y-21883390D01*
X21861905Y-21883390D02*
X21957143Y-21835771D01*
X21957143Y-21835771D02*
X22195238Y-21835771D01*
X22195238Y-21835771D02*
X22290476Y-21883390D01*
X22290476Y-21883390D02*
X22338095Y-21931009D01*
X22338095Y-21931009D02*
X22385714Y-22026247D01*
X22385714Y-22026247D02*
X22385714Y-22264342D01*
X22385714Y-22264342D02*
X22338095Y-22359580D01*
X22338095Y-22359580D02*
X22290476Y-22407200D01*
X22290476Y-22407200D02*
X22195238Y-22454819D01*
X22195238Y-22454819D02*
X21957143Y-22454819D01*
X21957143Y-22454819D02*
X21861905Y-22407200D01*
X21861905Y-22407200D02*
X21814286Y-22359580D01*
X35761905Y-64454819D02*
X35761905Y-63454819D01*
X35761905Y-63454819D02*
X36000000Y-63454819D01*
X36000000Y-63454819D02*
X36142857Y-63502438D01*
X36142857Y-63502438D02*
X36238095Y-63597676D01*
X36238095Y-63597676D02*
X36285714Y-63692914D01*
X36285714Y-63692914D02*
X36333333Y-63883390D01*
X36333333Y-63883390D02*
X36333333Y-64026247D01*
X36333333Y-64026247D02*
X36285714Y-64216723D01*
X36285714Y-64216723D02*
X36238095Y-64311961D01*
X36238095Y-64311961D02*
X36142857Y-64407200D01*
X36142857Y-64407200D02*
X36000000Y-64454819D01*
X36000000Y-64454819D02*
X35761905Y-64454819D01*
X36666667Y-63454819D02*
X37285714Y-63454819D01*
X37285714Y-63454819D02*
X36952381Y-63835771D01*
X36952381Y-63835771D02*
X37095238Y-63835771D01*
X37095238Y-63835771D02*
X37190476Y-63883390D01*
X37190476Y-63883390D02*
X37238095Y-63931009D01*
X37238095Y-63931009D02*
X37285714Y-64026247D01*
X37285714Y-64026247D02*
X37285714Y-64264342D01*
X37285714Y-64264342D02*
X37238095Y-64359580D01*
X37238095Y-64359580D02*
X37190476Y-64407200D01*
X37190476Y-64407200D02*
X37095238Y-64454819D01*
X37095238Y-64454819D02*
X36809524Y-64454819D01*
X36809524Y-64454819D02*
X36714286Y-64407200D01*
X36714286Y-64407200D02*
X36666667Y-64359580D01*
X35800000Y-61854819D02*
X35800000Y-62092914D01*
X35561905Y-61997676D02*
X35800000Y-62092914D01*
X35800000Y-62092914D02*
X36038095Y-61997676D01*
X35657143Y-62283390D02*
X35800000Y-62092914D01*
X35800000Y-62092914D02*
X35942857Y-62283390D01*
X31959580Y-81166666D02*
X32007200Y-81214285D01*
X32007200Y-81214285D02*
X32054819Y-81357142D01*
X32054819Y-81357142D02*
X32054819Y-81452380D01*
X32054819Y-81452380D02*
X32007200Y-81595237D01*
X32007200Y-81595237D02*
X31911961Y-81690475D01*
X31911961Y-81690475D02*
X31816723Y-81738094D01*
X31816723Y-81738094D02*
X31626247Y-81785713D01*
X31626247Y-81785713D02*
X31483390Y-81785713D01*
X31483390Y-81785713D02*
X31292914Y-81738094D01*
X31292914Y-81738094D02*
X31197676Y-81690475D01*
X31197676Y-81690475D02*
X31102438Y-81595237D01*
X31102438Y-81595237D02*
X31054819Y-81452380D01*
X31054819Y-81452380D02*
X31054819Y-81357142D01*
X31054819Y-81357142D02*
X31102438Y-81214285D01*
X31102438Y-81214285D02*
X31150057Y-81166666D01*
X31388152Y-80309523D02*
X32054819Y-80309523D01*
X31007200Y-80547618D02*
X31721485Y-80785713D01*
X31721485Y-80785713D02*
X31721485Y-80166666D01*
X16759580Y-80566666D02*
X16807200Y-80614285D01*
X16807200Y-80614285D02*
X16854819Y-80757142D01*
X16854819Y-80757142D02*
X16854819Y-80852380D01*
X16854819Y-80852380D02*
X16807200Y-80995237D01*
X16807200Y-80995237D02*
X16711961Y-81090475D01*
X16711961Y-81090475D02*
X16616723Y-81138094D01*
X16616723Y-81138094D02*
X16426247Y-81185713D01*
X16426247Y-81185713D02*
X16283390Y-81185713D01*
X16283390Y-81185713D02*
X16092914Y-81138094D01*
X16092914Y-81138094D02*
X15997676Y-81090475D01*
X15997676Y-81090475D02*
X15902438Y-80995237D01*
X15902438Y-80995237D02*
X15854819Y-80852380D01*
X15854819Y-80852380D02*
X15854819Y-80757142D01*
X15854819Y-80757142D02*
X15902438Y-80614285D01*
X15902438Y-80614285D02*
X15950057Y-80566666D01*
X15854819Y-80233332D02*
X15854819Y-79614285D01*
X15854819Y-79614285D02*
X16235771Y-79947618D01*
X16235771Y-79947618D02*
X16235771Y-79804761D01*
X16235771Y-79804761D02*
X16283390Y-79709523D01*
X16283390Y-79709523D02*
X16331009Y-79661904D01*
X16331009Y-79661904D02*
X16426247Y-79614285D01*
X16426247Y-79614285D02*
X16664342Y-79614285D01*
X16664342Y-79614285D02*
X16759580Y-79661904D01*
X16759580Y-79661904D02*
X16807200Y-79709523D01*
X16807200Y-79709523D02*
X16854819Y-79804761D01*
X16854819Y-79804761D02*
X16854819Y-80090475D01*
X16854819Y-80090475D02*
X16807200Y-80185713D01*
X16807200Y-80185713D02*
X16759580Y-80233332D01*
D11*
%TO.C,R4*%
X49772936Y-20765000D02*
X50227064Y-20765000D01*
X49772936Y-22235000D02*
X50227064Y-22235000D01*
%TO.C,C19*%
X24761252Y-49765000D02*
X24238748Y-49765000D01*
X24761252Y-51235000D02*
X24238748Y-51235000D01*
%TO.C,D1*%
X49000000Y-74960000D02*
X51860000Y-74960000D01*
X51860000Y-73040000D02*
X49000000Y-73040000D01*
X51860000Y-74960000D02*
X51860000Y-73040000D01*
%TO.C,R6*%
X31727064Y-57765000D02*
X31272936Y-57765000D01*
X31727064Y-59235000D02*
X31272936Y-59235000D01*
D12*
%TO.C,J4*%
X42123001Y-27928101D02*
X42123001Y-30819561D01*
X42123001Y-32780441D02*
X42123001Y-33319561D01*
X42123001Y-35280441D02*
X42123001Y-35819561D01*
X42123001Y-37780441D02*
X42123001Y-38319561D01*
X42123001Y-40280441D02*
X42123001Y-40819561D01*
X42123001Y-42780441D02*
X42123001Y-43319561D01*
X42123001Y-45280441D02*
X42123001Y-48171901D01*
X42123001Y-48171901D02*
X48211460Y-48171901D01*
X48211460Y-27928101D02*
X42123001Y-27928101D01*
X52384601Y-46265560D02*
X52384601Y-29834442D01*
D13*
X44081000Y-49949901D02*
G75*
G02*
X43319000Y-49949901I-381000J0D01*
G01*
X43319000Y-49949901D02*
G75*
G02*
X44081000Y-49949901I381000J0D01*
G01*
D11*
%TO.C,J8*%
X33740000Y-17890000D02*
X34440000Y-17890000D01*
X33740000Y-20110000D02*
X45260000Y-20110000D01*
X34440000Y-15840000D02*
X34440000Y-17890000D01*
X34440000Y-15840000D02*
X34970000Y-15840000D01*
X34970000Y-9840000D02*
X34970000Y-15840000D01*
X34970000Y-9840000D02*
X44000000Y-9840000D01*
X44030000Y-9840000D02*
X44030000Y-15840000D01*
X44030000Y-15840000D02*
X44560000Y-15840000D01*
X44560000Y-15840000D02*
X44560000Y-17890000D01*
X44560000Y-17890000D02*
X45260000Y-17890000D01*
X33678271Y-20096634D02*
G75*
G02*
X33850000Y-17890001I171730J1096634D01*
G01*
X45150000Y-17890000D02*
G75*
G02*
X45150000Y-20110000I0J-1110000D01*
G01*
D12*
%TO.C,SW3*%
X36518800Y-29628650D02*
X36518800Y-35978650D01*
X36518800Y-35978650D02*
X37862460Y-35978650D01*
X37862460Y-29628650D02*
X36518800Y-29628650D01*
X39137540Y-35978650D02*
X40481200Y-35978650D01*
X40481200Y-29628650D02*
X39137540Y-29628650D01*
X40481200Y-35978650D02*
X40481200Y-29628650D01*
%TO.C,SW2*%
X27325000Y-53018800D02*
X27325000Y-54362460D01*
X27325000Y-55637540D02*
X27325000Y-56981200D01*
X27325000Y-56981200D02*
X33675000Y-56981200D01*
X33675000Y-53018800D02*
X27325000Y-53018800D01*
X33675000Y-54362460D02*
X33675000Y-53018800D01*
X33675000Y-56981200D02*
X33675000Y-55637540D01*
D11*
%TO.C,U6*%
X34090000Y-47600000D02*
X35090000Y-47600000D01*
X35090000Y-29200000D02*
X34090000Y-29200000D01*
X35090000Y-29200000D02*
X35090000Y-30700000D01*
X35090000Y-47600000D02*
X35090000Y-46100000D01*
X16115000Y-48100000D02*
X15615000Y-47600000D01*
X16115000Y-47600000D01*
X16115000Y-48100000D01*
G36*
X16115000Y-48100000D02*
G01*
X15615000Y-47600000D01*
X16115000Y-47600000D01*
X16115000Y-48100000D01*
G37*
D12*
%TO.C,SW1*%
X17325000Y-53018800D02*
X17325000Y-54362460D01*
X17325000Y-55637540D02*
X17325000Y-56981200D01*
X17325000Y-56981200D02*
X23675000Y-56981200D01*
X23675000Y-53018800D02*
X17325000Y-53018800D01*
X23675000Y-54362460D02*
X23675000Y-53018800D01*
X23675000Y-56981200D02*
X23675000Y-55637540D01*
D11*
%TO.C,D2*%
X49000000Y-70960000D02*
X51860000Y-70960000D01*
X51860000Y-69040000D02*
X49000000Y-69040000D01*
X51860000Y-70960000D02*
X51860000Y-69040000D01*
%TO.C,R13*%
X29727064Y-49765000D02*
X29272936Y-49765000D01*
X29727064Y-51235000D02*
X29272936Y-51235000D01*
D14*
%TO.C,U2*%
X21480000Y-78950000D02*
X21480000Y-75050000D01*
X26520000Y-78950000D02*
X26520000Y-75050000D01*
D15*
X21350000Y-81100000D02*
G75*
G02*
X21150000Y-81100000I-100000J0D01*
G01*
X21150000Y-81100000D02*
G75*
G02*
X21350000Y-81100000I100000J0D01*
G01*
D11*
%TO.C,J6*%
X34440000Y-79555000D02*
X33850000Y-79555000D01*
X34440000Y-79555000D02*
X34440000Y-74655000D01*
X34440000Y-81775000D02*
X33850000Y-81775000D01*
X34440000Y-83875000D02*
X34440000Y-81775000D01*
X44560000Y-74655000D02*
X34440000Y-74655000D01*
X44560000Y-79555000D02*
X44560000Y-74655000D01*
X44560000Y-83875000D02*
X34440000Y-83875000D01*
X44560000Y-83875000D02*
X44560000Y-81775000D01*
X45150000Y-79555000D02*
X44560000Y-79555000D01*
X45150000Y-81775000D02*
X44560000Y-81775000D01*
X33850000Y-81775000D02*
G75*
G02*
X33850000Y-79555000I0J1110000D01*
G01*
X45150000Y-79555000D02*
G75*
G02*
X45150000Y-81775000I0J-1110000D01*
G01*
%TO.C,R3*%
X50227064Y-24265000D02*
X49772936Y-24265000D01*
X50227064Y-25735000D02*
X49772936Y-25735000D01*
D12*
%TO.C,SW5*%
X36518800Y-50628650D02*
X36518800Y-56978650D01*
X36518800Y-56978650D02*
X37862460Y-56978650D01*
X37862460Y-50628650D02*
X36518800Y-50628650D01*
X39137540Y-56978650D02*
X40481200Y-56978650D01*
X40481200Y-50628650D02*
X39137540Y-50628650D01*
X40481200Y-56978650D02*
X40481200Y-50628650D01*
%TO.C,SW4*%
X36518800Y-40128650D02*
X36518800Y-46478650D01*
X36518800Y-46478650D02*
X37862460Y-46478650D01*
X37862460Y-40128650D02*
X36518800Y-40128650D01*
X39137540Y-46478650D02*
X40481200Y-46478650D01*
X40481200Y-40128650D02*
X39137540Y-40128650D01*
X40481200Y-46478650D02*
X40481200Y-40128650D01*
D11*
%TO.C,C17*%
X17761252Y-50765000D02*
X17238748Y-50765000D01*
X17761252Y-52235000D02*
X17238748Y-52235000D01*
%TO.C,U1*%
X26500000Y-60440000D02*
X24550000Y-60440000D01*
X26500000Y-60440000D02*
X28450000Y-60440000D01*
X26500000Y-65560000D02*
X24550000Y-65560000D01*
X26500000Y-65560000D02*
X28450000Y-65560000D01*
X23800000Y-60535000D02*
X23560000Y-60205000D01*
X24040000Y-60205000D01*
X23800000Y-60535000D01*
G36*
X23800000Y-60535000D02*
G01*
X23560000Y-60205000D01*
X24040000Y-60205000D01*
X23800000Y-60535000D01*
G37*
%TO.C,R5*%
X50765000Y-66272936D02*
X50765000Y-66727064D01*
X52235000Y-66272936D02*
X52235000Y-66727064D01*
%TO.C,C18*%
X17761252Y-48765000D02*
X17238748Y-48765000D01*
X17761252Y-50235000D02*
X17238748Y-50235000D01*
%TO.C,J1*%
X20235000Y-58040000D02*
X15875000Y-58040000D01*
X20235000Y-58040000D02*
X20235000Y-60540000D01*
X20235000Y-60540000D02*
X20435000Y-60540000D01*
X20235000Y-64060000D02*
X20235000Y-66560000D01*
X20235000Y-66560000D02*
X15875000Y-66560000D01*
X20435000Y-61200000D02*
X20435000Y-60540000D01*
%TO.C,J7*%
X48740000Y-51240000D02*
X48740000Y-62760000D01*
X50960000Y-51240000D02*
X50960000Y-51940000D01*
X50960000Y-62060000D02*
X50960000Y-62760000D01*
X53010000Y-51940000D02*
X50960000Y-51940000D01*
X53010000Y-51940000D02*
X53010000Y-52470000D01*
X53010000Y-61530000D02*
X53010000Y-62060000D01*
X53010000Y-62060000D02*
X50960000Y-62060000D01*
X59010000Y-52470000D02*
X53010000Y-52470000D01*
X59010000Y-52470000D02*
X59010000Y-61500000D01*
X59010000Y-61530000D02*
X53010000Y-61530000D01*
X48753366Y-51178271D02*
G75*
G02*
X50959999Y-51350000I1096634J-171730D01*
G01*
X50960000Y-62650000D02*
G75*
G02*
X48740000Y-62650000I-1110000J0D01*
G01*
%TO.C,C5*%
X18276248Y-21265000D02*
X18798752Y-21265000D01*
X18276248Y-22735000D02*
X18798752Y-22735000D01*
D12*
%TO.C,D3*%
X35347905Y-67175000D02*
X37652100Y-67175000D01*
X37652095Y-60825000D02*
X35347900Y-60825000D01*
D11*
%TO.C,C4*%
X28738748Y-80265000D02*
X29261252Y-80265000D01*
X28738748Y-81735000D02*
X29261252Y-81735000D01*
%TO.C,C3*%
X19261252Y-80265000D02*
X18738748Y-80265000D01*
X19261252Y-81735000D02*
X18738748Y-81735000D01*
D13*
%TO.C,J9*%
X44132050Y-32592701D02*
G75*
G02*
X43370050Y-32592701I-381000J0D01*
G01*
X43370050Y-32592701D02*
G75*
G02*
X44132050Y-32592701I381000J0D01*
G01*
%TD*%
%LPC*%
D16*
%TO.C,R4*%
X49000000Y-21500000D03*
X51000000Y-21500000D03*
%TD*%
D17*
%TO.C,C19*%
X25537500Y-50500000D03*
X23462500Y-50500000D03*
%TD*%
D18*
%TO.C,D1*%
X51025000Y-74000000D03*
X48975000Y-74000000D03*
%TD*%
D19*
%TO.C,R6*%
X32500000Y-58500000D03*
X30500000Y-58500000D03*
%TD*%
D20*
%TO.C,J4*%
X50500000Y-47500000D03*
X50500000Y-28600002D03*
D21*
X43700000Y-44300001D03*
X43700000Y-41800001D03*
X43700000Y-39300001D03*
X43700000Y-36800001D03*
X43700000Y-34300001D03*
X43700000Y-31800001D03*
%TD*%
D22*
%TO.C,J8*%
X34000000Y-19000000D03*
X45000000Y-19000000D03*
D23*
X37000000Y-24000000D03*
D24*
X42000000Y-24000000D03*
%TD*%
D25*
%TO.C,SW3*%
X38500000Y-29000000D03*
X38500000Y-36607300D03*
%TD*%
D26*
%TO.C,SW2*%
X34303650Y-55000000D03*
X26696350Y-55000000D03*
%TD*%
D27*
%TO.C,U6*%
X16880000Y-47150000D03*
X18150000Y-47150000D03*
X19420000Y-47150000D03*
X20690000Y-47150000D03*
X21960000Y-47150000D03*
X23230000Y-47150000D03*
X24500000Y-47150000D03*
X25770000Y-47150000D03*
X27040000Y-47150000D03*
X28310000Y-47150000D03*
X29580000Y-47150000D03*
X30850000Y-47150000D03*
X32120000Y-47150000D03*
X33390000Y-47150000D03*
D28*
X34640000Y-45385000D03*
X34640000Y-44115000D03*
X34640000Y-42845000D03*
X34640000Y-41575000D03*
X34640000Y-40305000D03*
X34640000Y-39035000D03*
X34640000Y-37765000D03*
X34640000Y-36495000D03*
X34640000Y-35225000D03*
X34640000Y-33955000D03*
X34640000Y-32685000D03*
X34640000Y-31415000D03*
D27*
X33390000Y-29650000D03*
X32120000Y-29650000D03*
X30850000Y-29650000D03*
X29580000Y-29650000D03*
X28310000Y-29650000D03*
X27040000Y-29650000D03*
X25770000Y-29650000D03*
X24500000Y-29650000D03*
X23230000Y-29650000D03*
X21960000Y-29650000D03*
X20690000Y-29650000D03*
X19420000Y-29650000D03*
X18150000Y-29650000D03*
X16880000Y-29650000D03*
D29*
X24600000Y-39900000D03*
%TD*%
D26*
%TO.C,SW1*%
X16696350Y-55000000D03*
X24303650Y-55000000D03*
%TD*%
D18*
%TO.C,D2*%
X51025000Y-70000000D03*
X48975000Y-70000000D03*
%TD*%
D19*
%TO.C,R13*%
X30500000Y-50500000D03*
X28500000Y-50500000D03*
%TD*%
D30*
%TO.C,U2*%
X22095000Y-79980000D03*
X23365000Y-79980000D03*
X24635000Y-79980000D03*
X25905000Y-79980000D03*
D31*
X25905000Y-74145000D03*
X24635000Y-74145000D03*
X23365000Y-74145000D03*
X22095000Y-74145000D03*
%TD*%
D22*
%TO.C,J6*%
X45000000Y-80665000D03*
D23*
X37000000Y-70665000D03*
D22*
X34000000Y-80665000D03*
D24*
X42000000Y-70665000D03*
%TD*%
D19*
%TO.C,R3*%
X51000000Y-25000000D03*
X49000000Y-25000000D03*
%TD*%
D25*
%TO.C,SW5*%
X38500000Y-50000000D03*
X38500000Y-57607300D03*
%TD*%
%TO.C,SW4*%
X38500000Y-47107300D03*
X38500000Y-39500000D03*
%TD*%
D17*
%TO.C,C17*%
X18537500Y-51500000D03*
X16462500Y-51500000D03*
%TD*%
D32*
%TO.C,U1*%
X23625000Y-61095000D03*
X23625000Y-62365000D03*
X23625000Y-63635000D03*
X23625000Y-64905000D03*
D33*
X29250000Y-64905000D03*
X29250000Y-63635000D03*
X29250000Y-62365000D03*
X29250000Y-61095000D03*
%TD*%
D34*
%TO.C,R5*%
X51500000Y-65500000D03*
X51500000Y-67500000D03*
%TD*%
D17*
%TO.C,C18*%
X18537500Y-49500000D03*
X16462500Y-49500000D03*
%TD*%
D35*
%TO.C,J1*%
X19500000Y-61000000D03*
X19500000Y-61650000D03*
X19500000Y-62300000D03*
X19500000Y-62950000D03*
X19500000Y-63600000D03*
D36*
X16825000Y-59000000D03*
D37*
X19275000Y-59100000D03*
D38*
X16825000Y-61100000D03*
X16825000Y-63500000D03*
D37*
X19275000Y-65500000D03*
D36*
X16825000Y-65600000D03*
%TD*%
D22*
%TO.C,J7*%
X49850000Y-51500000D03*
X49850000Y-62500000D03*
D23*
X44850000Y-54500000D03*
D24*
X44850000Y-59500000D03*
%TD*%
D39*
%TO.C,C5*%
X17500000Y-22000000D03*
X19575000Y-22000000D03*
%TD*%
D40*
%TO.C,D3*%
X33852300Y-61900002D03*
D41*
X33852300Y-63987650D03*
D40*
X33852300Y-66100001D03*
X39147700Y-66099998D03*
X39147700Y-64000000D03*
X39147700Y-61899999D03*
%TD*%
D39*
%TO.C,C4*%
X27962500Y-81000000D03*
X30037500Y-81000000D03*
%TD*%
D42*
%TO.C,H3*%
X50000000Y-79500000D03*
D43*
X50000000Y-79500000D03*
%TD*%
D42*
%TO.C,H2*%
X49899999Y-18121321D03*
D43*
X49899999Y-18121321D03*
%TD*%
D17*
%TO.C,C3*%
X20037500Y-81000000D03*
X17962500Y-81000000D03*
%TD*%
D44*
%TO.C,J3*%
X17946500Y-17880000D03*
X29378500Y-17880000D03*
D45*
X19217500Y-24230000D03*
D46*
X20487500Y-26770000D03*
X21757500Y-24230000D03*
X23027500Y-26770000D03*
X24297500Y-24230000D03*
X25567500Y-26770000D03*
X26837500Y-24230000D03*
X28107500Y-26770000D03*
%TD*%
D47*
%TO.C,C6*%
X43500000Y-66000000D03*
D48*
X48500000Y-66000000D03*
%TD*%
D44*
%TO.C,J2*%
X29504055Y-77515000D03*
X18072055Y-77515000D03*
D49*
X28233055Y-71165000D03*
D46*
X26963055Y-68625000D03*
X25693055Y-71165000D03*
X24423055Y-68625000D03*
X23153055Y-71165000D03*
X21883055Y-68625000D03*
X20613055Y-71165000D03*
X19343055Y-68625000D03*
%TD*%
%LPD*%
M02*
