%TF.GenerationSoftware,KiCad,Pcbnew,8.0.1-8.0.1-1~ubuntu22.04.1*%
%TF.CreationDate,2024-04-21T23:11:14-04:00*%
%TF.ProjectId,arm_drive_j2,61726d5f-6472-4697-9665-5f6a322e6b69,rev?*%
%TF.SameCoordinates,Original*%
%TF.FileFunction,Copper,L3,Inr*%
%TF.FilePolarity,Positive*%
%FSLAX46Y46*%
G04 Gerber Fmt 4.6, Leading zero omitted, Abs format (unit mm)*
G04 Created by KiCad (PCBNEW 8.0.1-8.0.1-1~ubuntu22.04.1) date 2024-04-21 23:11:14*
%MOMM*%
%LPD*%
G01*
G04 APERTURE LIST*
%TA.AperFunction,ComponentPad*%
%ADD10C,1.400000*%
%TD*%
%TA.AperFunction,ComponentPad*%
%ADD11R,3.500000X3.500000*%
%TD*%
%TA.AperFunction,ComponentPad*%
%ADD12C,3.500000*%
%TD*%
%TA.AperFunction,ComponentPad*%
%ADD13O,1.600000X0.900000*%
%TD*%
%TA.AperFunction,ComponentPad*%
%ADD14C,2.600000*%
%TD*%
%TA.AperFunction,ComponentPad*%
%ADD15R,1.268000X1.268000*%
%TD*%
%TA.AperFunction,ComponentPad*%
%ADD16C,1.268000*%
%TD*%
%TA.AperFunction,ComponentPad*%
%ADD17R,2.400000X2.400000*%
%TD*%
%TA.AperFunction,ComponentPad*%
%ADD18C,2.400000*%
%TD*%
%TA.AperFunction,ViaPad*%
%ADD19C,0.600000*%
%TD*%
%TA.AperFunction,Conductor*%
%ADD20C,0.200000*%
%TD*%
G04 APERTURE END LIST*
D10*
%TO.N,*%
%TO.C,J8*%
X34000000Y-19000000D03*
X45000000Y-19000000D03*
D11*
%TO.N,+24V*%
X37000000Y-24000000D03*
D12*
%TO.N,GND*%
X42000000Y-24000000D03*
%TD*%
D10*
%TO.N,GND*%
%TO.C,J6*%
X45000000Y-80665000D03*
D11*
X37000000Y-70665000D03*
D10*
X34000000Y-80665000D03*
D12*
%TO.N,+24V*%
X42000000Y-70665000D03*
%TD*%
D13*
%TO.N,GND*%
%TO.C,J1*%
X16825000Y-59000000D03*
X16825000Y-65600000D03*
%TD*%
D10*
%TO.N,GND*%
%TO.C,J7*%
X49850000Y-51500000D03*
X49850000Y-62500000D03*
D11*
%TO.N,J2-*%
X44850000Y-54500000D03*
D12*
%TO.N,J2+*%
X44850000Y-59500000D03*
%TD*%
D14*
%TO.N,GND*%
%TO.C,H3*%
X50000000Y-79500000D03*
%TD*%
%TO.N,GND*%
%TO.C,H2*%
X49899999Y-18121321D03*
%TD*%
D15*
%TO.N,CANH*%
%TO.C,J3*%
X19217500Y-24230000D03*
D16*
%TO.N,CANL*%
X20487500Y-26770000D03*
%TO.N,unconnected-(J3-Pad3)*%
X21757500Y-24230000D03*
%TO.N,unconnected-(J3-Pad4)*%
X23027500Y-26770000D03*
%TO.N,unconnected-(J3-Pad5)*%
X24297500Y-24230000D03*
%TO.N,unconnected-(J3-Pad6)*%
X25567500Y-26770000D03*
%TO.N,+5V*%
X26837500Y-24230000D03*
%TO.N,GND*%
X28107500Y-26770000D03*
%TD*%
D17*
%TO.N,+24V*%
%TO.C,C6*%
X43500000Y-66000000D03*
D18*
%TO.N,GND*%
X48500000Y-66000000D03*
%TD*%
D15*
%TO.N,CANH*%
%TO.C,J2*%
X28233055Y-71165000D03*
D16*
%TO.N,CANL*%
X26963055Y-68625000D03*
%TO.N,unconnected-(J2-Pad3)*%
X25693055Y-71165000D03*
%TO.N,unconnected-(J2-Pad4)*%
X24423055Y-68625000D03*
%TO.N,unconnected-(J2-Pad5)*%
X23153055Y-71165000D03*
%TO.N,unconnected-(J2-Pad6)*%
X21883055Y-68625000D03*
%TO.N,+5V*%
X20613055Y-71165000D03*
%TO.N,GND*%
X19343055Y-68625000D03*
%TD*%
D19*
%TO.N,GND*%
X27232014Y-61500000D03*
X18000000Y-55500000D03*
X20500000Y-65500000D03*
X27000000Y-63000000D03*
X27000000Y-65000000D03*
X23500000Y-38500000D03*
X26791841Y-70128921D03*
X17500000Y-48500000D03*
X41462733Y-51537267D03*
X22000000Y-31500000D03*
X25303940Y-66900000D03*
X22000000Y-49500000D03*
X50500000Y-45500000D03*
X20128267Y-48909721D03*
X32000000Y-65500000D03*
X26000000Y-64000000D03*
X26000000Y-66000000D03*
X26000000Y-65000000D03*
X27000000Y-66000000D03*
X22577500Y-77922500D03*
X17500000Y-32000000D03*
X50500000Y-30250000D03*
X27000000Y-64000000D03*
X38500000Y-27500000D03*
X17500000Y-50500000D03*
X38500000Y-38000000D03*
X23002252Y-66893478D03*
X23159808Y-69565103D03*
X21874828Y-70168257D03*
X21189472Y-48931677D03*
X32000000Y-79500000D03*
%TO.N,EN_PB*%
X20020000Y-31500000D03*
%TO.N,+5V*%
X48850000Y-26800000D03*
X23602720Y-78099191D03*
X20400000Y-58000000D03*
X16500000Y-24000000D03*
%TO.N,GPIO_0*%
X34500000Y-28000000D03*
X28000000Y-55000000D03*
%TO.N,+3.3V*%
X51000000Y-23000000D03*
X40500000Y-78500000D03*
X44500000Y-74500000D03*
X46750000Y-36750000D03*
X43500000Y-78500000D03*
X43500000Y-77500000D03*
X44500000Y-75500000D03*
X41500000Y-74500000D03*
X41500000Y-77500000D03*
X41500000Y-75500000D03*
X32000000Y-50500000D03*
X44500000Y-76500000D03*
X44500000Y-78500000D03*
X44500000Y-77500000D03*
X21000000Y-53400000D03*
X43500000Y-74500000D03*
X39500000Y-78500000D03*
X50000000Y-68000000D03*
X40500000Y-77500000D03*
X40500000Y-76500000D03*
X39500000Y-77500000D03*
X41500000Y-76500000D03*
X40500000Y-75500000D03*
X39500000Y-76500000D03*
X42500000Y-75500000D03*
X39500000Y-75500000D03*
X41500000Y-78500000D03*
X39500000Y-74500000D03*
X42500000Y-76500000D03*
X42500000Y-78500000D03*
X43500000Y-75500000D03*
X42500000Y-74500000D03*
X43500000Y-76500000D03*
X40500000Y-74500000D03*
X42500000Y-77500000D03*
%TO.N,Net-(D1-A)*%
X50000000Y-73000000D03*
%TO.N,Net-(D2-A)*%
X49500000Y-71500000D03*
%TO.N,LED_BUILDIN*%
X48000000Y-77000000D03*
X19900000Y-37000000D03*
%TO.N,PB_FWD_J2*%
X32000000Y-38750000D03*
X40000000Y-36750000D03*
%TO.N,PB_CALIB_J2*%
X20900000Y-45750000D03*
X41500000Y-53000000D03*
%TO.N,J2_IN_1*%
X21000000Y-64000000D03*
X32770991Y-36317884D03*
%TO.N,J2_EN_1*%
X30400000Y-41800000D03*
X30200000Y-66200000D03*
X16000000Y-67000000D03*
%TO.N,J2_IN_2*%
X20600000Y-45000000D03*
%TO.N,J2_EN_2*%
X19400000Y-42200000D03*
X27800000Y-45600000D03*
%TO.N,RXC*%
X33500000Y-34000000D03*
X18500000Y-72500000D03*
X21000000Y-79000000D03*
%TO.N,TXC*%
X24500000Y-78100000D03*
X18500000Y-71500000D03*
X32500000Y-35000000D03*
%TO.N,ENC_QUAD_A*%
X27000000Y-49750000D03*
X47000000Y-41500000D03*
%TO.N,ENC_QUAD_B*%
X46000000Y-47750000D03*
X27000000Y-51100000D03*
%TD*%
D20*
%TO.N,+5V*%
X15600000Y-24900000D02*
X15600000Y-55600000D01*
X15600000Y-55600000D02*
X18000000Y-58000000D01*
X16500000Y-24000000D02*
X15600000Y-24900000D01*
X18000000Y-58000000D02*
X20400000Y-58000000D01*
%TO.N,GPIO_0*%
X16000000Y-29000000D02*
X17000000Y-28000000D01*
X18482387Y-54982387D02*
X16000000Y-52500000D01*
X28000000Y-55000000D02*
X27982387Y-54982387D01*
X17000000Y-28000000D02*
X34500000Y-28000000D01*
X27982387Y-54982387D02*
X18482387Y-54982387D01*
X16000000Y-52500000D02*
X16000000Y-29000000D01*
%TO.N,PB_CALIB_J2*%
X41500000Y-52750000D02*
X35500000Y-46750000D01*
X21801471Y-46750000D02*
X20900000Y-45848529D01*
X35500000Y-46750000D02*
X21801471Y-46750000D01*
X20900000Y-45848529D02*
X20900000Y-45750000D01*
X41500000Y-53000000D02*
X41500000Y-52750000D01*
%TO.N,J2_EN_1*%
X28900000Y-67500000D02*
X16500000Y-67500000D01*
X30200000Y-66200000D02*
X28900000Y-67500000D01*
X16500000Y-67500000D02*
X16000000Y-67000000D01*
%TO.N,J2_EN_2*%
X19400000Y-42200000D02*
X22800000Y-45600000D01*
X22800000Y-45600000D02*
X27800000Y-45600000D01*
%TO.N,RXC*%
X21000000Y-75000000D02*
X21000000Y-79000000D01*
X18500000Y-72500000D02*
X21000000Y-75000000D01*
%TO.N,TXC*%
X18500000Y-71500000D02*
X19500000Y-71500000D01*
X24500000Y-76500000D02*
X24500000Y-78100000D01*
X19500000Y-71500000D02*
X24500000Y-76500000D01*
%TD*%
%TA.AperFunction,Conductor*%
%TO.N,GND*%
G36*
X49903471Y-15500695D02*
G01*
X49938217Y-15502646D01*
X50186494Y-15516589D01*
X50200293Y-15518143D01*
X50439209Y-15558737D01*
X50476316Y-15565042D01*
X50489873Y-15568136D01*
X50514962Y-15575364D01*
X50758924Y-15645649D01*
X50772021Y-15650232D01*
X51030699Y-15757380D01*
X51043213Y-15763406D01*
X51270730Y-15889151D01*
X51288261Y-15898840D01*
X51300036Y-15906239D01*
X51528379Y-16068258D01*
X51539237Y-16076918D01*
X51674965Y-16198213D01*
X51747993Y-16263475D01*
X51757826Y-16273307D01*
X51814940Y-16337218D01*
X51944396Y-16482079D01*
X51953054Y-16492937D01*
X52008392Y-16570928D01*
X52115073Y-16721283D01*
X52122471Y-16733057D01*
X52257899Y-16978100D01*
X52263929Y-16990622D01*
X52371067Y-17249279D01*
X52375660Y-17262404D01*
X52453166Y-17531441D01*
X52456260Y-17544998D01*
X52503156Y-17821012D01*
X52504713Y-17834830D01*
X52520623Y-18118176D01*
X52520818Y-18125171D01*
X52499524Y-79426094D01*
X52499500Y-79426484D01*
X52499500Y-79496249D01*
X52499274Y-79503736D01*
X52481728Y-79793794D01*
X52479923Y-79808659D01*
X52428219Y-80090798D01*
X52424635Y-80105336D01*
X52339306Y-80379167D01*
X52333997Y-80393168D01*
X52216275Y-80654736D01*
X52209316Y-80667995D01*
X52060928Y-80913459D01*
X52052422Y-80925782D01*
X51875526Y-81151573D01*
X51865596Y-81162781D01*
X51662781Y-81365596D01*
X51651573Y-81375526D01*
X51425782Y-81552422D01*
X51413459Y-81560928D01*
X51167995Y-81709316D01*
X51154736Y-81716275D01*
X50893168Y-81833997D01*
X50879167Y-81839306D01*
X50605336Y-81924635D01*
X50590798Y-81928219D01*
X50308659Y-81979923D01*
X50293794Y-81981728D01*
X50003736Y-81999274D01*
X49996249Y-81999500D01*
X45316219Y-81999500D01*
X45249180Y-81979815D01*
X45203425Y-81927011D01*
X45193481Y-81857853D01*
X45195213Y-81850162D01*
X45000001Y-81654949D01*
X44802433Y-81852515D01*
X44803259Y-81908682D01*
X44766353Y-81968009D01*
X44703231Y-81997965D01*
X44683781Y-81999500D01*
X34316219Y-81999500D01*
X34249180Y-81979815D01*
X34203425Y-81927011D01*
X34193481Y-81857853D01*
X34195213Y-81850162D01*
X34000001Y-81654949D01*
X33802433Y-81852515D01*
X33803259Y-81908682D01*
X33766353Y-81968009D01*
X33703231Y-81997965D01*
X33683781Y-81999500D01*
X18003751Y-81999500D01*
X17996264Y-81999274D01*
X17706205Y-81981728D01*
X17691340Y-81979923D01*
X17409201Y-81928219D01*
X17394663Y-81924635D01*
X17120832Y-81839306D01*
X17106831Y-81833997D01*
X16845263Y-81716275D01*
X16832004Y-81709316D01*
X16586540Y-81560928D01*
X16574217Y-81552422D01*
X16348426Y-81375526D01*
X16337218Y-81365596D01*
X16134403Y-81162781D01*
X16124473Y-81151573D01*
X16056725Y-81065099D01*
X15947573Y-80925776D01*
X15939075Y-80913465D01*
X15790680Y-80667989D01*
X15789111Y-80665000D01*
X32794859Y-80665000D01*
X32813107Y-80861941D01*
X32944223Y-80730826D01*
X33500000Y-80730826D01*
X33534075Y-80857993D01*
X33599901Y-80972007D01*
X33692993Y-81065099D01*
X33807007Y-81130925D01*
X33934174Y-81165000D01*
X34065826Y-81165000D01*
X34192993Y-81130925D01*
X34307007Y-81065099D01*
X34400099Y-80972007D01*
X34465925Y-80857993D01*
X34500000Y-80730826D01*
X34500000Y-80665000D01*
X34989949Y-80665000D01*
X35186890Y-80861941D01*
X35205141Y-80665000D01*
X43794859Y-80665000D01*
X43813107Y-80861941D01*
X43944223Y-80730826D01*
X44500000Y-80730826D01*
X44534075Y-80857993D01*
X44599901Y-80972007D01*
X44692993Y-81065099D01*
X44807007Y-81130925D01*
X44934174Y-81165000D01*
X45065826Y-81165000D01*
X45192993Y-81130925D01*
X45307007Y-81065099D01*
X45400099Y-80972007D01*
X45465925Y-80857993D01*
X45500000Y-80730826D01*
X45500000Y-80665000D01*
X45989948Y-80665000D01*
X46186890Y-80861941D01*
X46205141Y-80664999D01*
X46186891Y-80468057D01*
X45989948Y-80665000D01*
X45500000Y-80665000D01*
X45500000Y-80599174D01*
X45465925Y-80472007D01*
X45400099Y-80357993D01*
X45307007Y-80264901D01*
X45192993Y-80199075D01*
X45065826Y-80165000D01*
X44934174Y-80165000D01*
X44807007Y-80199075D01*
X44692993Y-80264901D01*
X44599901Y-80357993D01*
X44534075Y-80472007D01*
X44500000Y-80599174D01*
X44500000Y-80730826D01*
X43944223Y-80730826D01*
X44010050Y-80664999D01*
X43813107Y-80468056D01*
X43794859Y-80664999D01*
X43794859Y-80665000D01*
X35205141Y-80665000D01*
X35205141Y-80664999D01*
X35186891Y-80468057D01*
X34989949Y-80665000D01*
X34500000Y-80665000D01*
X34500000Y-80599174D01*
X34465925Y-80472007D01*
X34400099Y-80357993D01*
X34307007Y-80264901D01*
X34192993Y-80199075D01*
X34065826Y-80165000D01*
X33934174Y-80165000D01*
X33807007Y-80199075D01*
X33692993Y-80264901D01*
X33599901Y-80357993D01*
X33534075Y-80472007D01*
X33500000Y-80599174D01*
X33500000Y-80730826D01*
X32944223Y-80730826D01*
X33010050Y-80664999D01*
X32813107Y-80468056D01*
X32794859Y-80664999D01*
X32794859Y-80665000D01*
X15789111Y-80665000D01*
X15783727Y-80654743D01*
X15666000Y-80393163D01*
X15660693Y-80379167D01*
X15625086Y-80264901D01*
X15575363Y-80105335D01*
X15571780Y-80090798D01*
X15520076Y-79808659D01*
X15518271Y-79793794D01*
X15517761Y-79785369D01*
X15500726Y-79503736D01*
X15500500Y-79496249D01*
X15500500Y-77641211D01*
X16146555Y-77641211D01*
X16173981Y-77849522D01*
X16179501Y-77891452D01*
X16203412Y-77980690D01*
X16244828Y-78135258D01*
X16341418Y-78368447D01*
X16341427Y-78368464D01*
X16467621Y-78587041D01*
X16467623Y-78587045D01*
X16621282Y-78787294D01*
X16621290Y-78787303D01*
X16799752Y-78965765D01*
X16799760Y-78965772D01*
X17000009Y-79119431D01*
X17000013Y-79119433D01*
X17218590Y-79245627D01*
X17218607Y-79245636D01*
X17313160Y-79284801D01*
X17451795Y-79342226D01*
X17695603Y-79407554D01*
X17945851Y-79440500D01*
X17945858Y-79440500D01*
X18198252Y-79440500D01*
X18198259Y-79440500D01*
X18448507Y-79407554D01*
X18692315Y-79342226D01*
X18925509Y-79245633D01*
X19084760Y-79153690D01*
X19144096Y-79119433D01*
X19144100Y-79119431D01*
X19198423Y-79077747D01*
X19344349Y-78965773D01*
X19344353Y-78965768D01*
X19344358Y-78965765D01*
X19522820Y-78787303D01*
X19522823Y-78787298D01*
X19522828Y-78787294D01*
X19676485Y-78587046D01*
X19802688Y-78368454D01*
X19899281Y-78135260D01*
X19964609Y-77891452D01*
X19997555Y-77641204D01*
X19997555Y-77388796D01*
X19964609Y-77138548D01*
X19899281Y-76894740D01*
X19838803Y-76748735D01*
X19802691Y-76661552D01*
X19802682Y-76661535D01*
X19676488Y-76442958D01*
X19676486Y-76442954D01*
X19522827Y-76242705D01*
X19522820Y-76242697D01*
X19344358Y-76064235D01*
X19344349Y-76064227D01*
X19144100Y-75910568D01*
X19144096Y-75910566D01*
X18925519Y-75784372D01*
X18925502Y-75784363D01*
X18692313Y-75687773D01*
X18537745Y-75646357D01*
X18448507Y-75622446D01*
X18417226Y-75618327D01*
X18198266Y-75589500D01*
X18198259Y-75589500D01*
X17945851Y-75589500D01*
X17945843Y-75589500D01*
X17695603Y-75622446D01*
X17451796Y-75687773D01*
X17218607Y-75784363D01*
X17218590Y-75784372D01*
X17000013Y-75910566D01*
X17000009Y-75910568D01*
X16799760Y-76064227D01*
X16621282Y-76242705D01*
X16467623Y-76442954D01*
X16467621Y-76442958D01*
X16341427Y-76661535D01*
X16341418Y-76661552D01*
X16244828Y-76894741D01*
X16179501Y-77138548D01*
X16146555Y-77388788D01*
X16146555Y-77641211D01*
X15500500Y-77641211D01*
X15500500Y-72500003D01*
X17694435Y-72500003D01*
X17714630Y-72679249D01*
X17714631Y-72679254D01*
X17774211Y-72849523D01*
X17818702Y-72920329D01*
X17870184Y-73002262D01*
X17997738Y-73129816D01*
X18150478Y-73225789D01*
X18320745Y-73285368D01*
X18407669Y-73295161D01*
X18472080Y-73322226D01*
X18481465Y-73330700D01*
X20363181Y-75212416D01*
X20396666Y-75273739D01*
X20399500Y-75300097D01*
X20399500Y-78417587D01*
X20379815Y-78484626D01*
X20372450Y-78494896D01*
X20370186Y-78497734D01*
X20274211Y-78650476D01*
X20214631Y-78820745D01*
X20214630Y-78820750D01*
X20194435Y-78999996D01*
X20194435Y-79000003D01*
X20214630Y-79179249D01*
X20214631Y-79179254D01*
X20274211Y-79349523D01*
X20331376Y-79440500D01*
X20370184Y-79502262D01*
X20497738Y-79629816D01*
X20650478Y-79725789D01*
X20741343Y-79757584D01*
X20820745Y-79785368D01*
X20820750Y-79785369D01*
X20999996Y-79805565D01*
X21000000Y-79805565D01*
X21000004Y-79805565D01*
X21179249Y-79785369D01*
X21179252Y-79785368D01*
X21179255Y-79785368D01*
X21349522Y-79725789D01*
X21502262Y-79629816D01*
X21629816Y-79502262D01*
X21643447Y-79480568D01*
X33805517Y-79480568D01*
X33999999Y-79675050D01*
X34194481Y-79480568D01*
X44805517Y-79480568D01*
X44999999Y-79675050D01*
X45088477Y-79586572D01*
X48900000Y-79586572D01*
X48927086Y-79757584D01*
X48980590Y-79922253D01*
X49059196Y-80076525D01*
X49160967Y-80216602D01*
X49283398Y-80339033D01*
X49423475Y-80440804D01*
X49577747Y-80519410D01*
X49742416Y-80572914D01*
X49913428Y-80600000D01*
X50086572Y-80600000D01*
X50257584Y-80572914D01*
X50422253Y-80519410D01*
X50576525Y-80440804D01*
X50716602Y-80339033D01*
X50839033Y-80216602D01*
X50940804Y-80076525D01*
X51019410Y-79922253D01*
X51072914Y-79757584D01*
X51100000Y-79586572D01*
X51100000Y-79413428D01*
X51072914Y-79242416D01*
X51019410Y-79077747D01*
X50940804Y-78923475D01*
X50839033Y-78783398D01*
X50716602Y-78660967D01*
X50576525Y-78559196D01*
X50422253Y-78480590D01*
X50257584Y-78427086D01*
X50086572Y-78400000D01*
X49913428Y-78400000D01*
X49742416Y-78427086D01*
X49577747Y-78480590D01*
X49423475Y-78559196D01*
X49283398Y-78660967D01*
X49160967Y-78783398D01*
X49059196Y-78923475D01*
X48980590Y-79077747D01*
X48927086Y-79242416D01*
X48900000Y-79413428D01*
X48900000Y-79586572D01*
X45088477Y-79586572D01*
X45194481Y-79480568D01*
X45111194Y-79465000D01*
X44895710Y-79465000D01*
X44828671Y-79445315D01*
X44818484Y-79433559D01*
X44816624Y-79444701D01*
X44805517Y-79480568D01*
X34194481Y-79480568D01*
X34111194Y-79465000D01*
X33888806Y-79465000D01*
X33805517Y-79480568D01*
X21643447Y-79480568D01*
X21725789Y-79349522D01*
X21785368Y-79179255D01*
X21786108Y-79172691D01*
X21805565Y-79000003D01*
X21805565Y-78999996D01*
X21785369Y-78820750D01*
X21785368Y-78820745D01*
X21772300Y-78783398D01*
X21725789Y-78650478D01*
X21629816Y-78497738D01*
X21629814Y-78497736D01*
X21629813Y-78497734D01*
X21627550Y-78494896D01*
X21626659Y-78492715D01*
X21626111Y-78491842D01*
X21626264Y-78491745D01*
X21601144Y-78430209D01*
X21600500Y-78417587D01*
X21600500Y-75089059D01*
X21600501Y-75089046D01*
X21600501Y-74920945D01*
X21600501Y-74920943D01*
X21559577Y-74768215D01*
X21559575Y-74768212D01*
X21559575Y-74768210D01*
X21559574Y-74768209D01*
X21539560Y-74733544D01*
X21523086Y-74665644D01*
X21545938Y-74599617D01*
X21600858Y-74556426D01*
X21670412Y-74549784D01*
X21732515Y-74581799D01*
X21734627Y-74583862D01*
X23863181Y-76712416D01*
X23896666Y-76773739D01*
X23899500Y-76800097D01*
X23899500Y-77188308D01*
X23879815Y-77255347D01*
X23827011Y-77301102D01*
X23761617Y-77311528D01*
X23602724Y-77293626D01*
X23602716Y-77293626D01*
X23423470Y-77313821D01*
X23423465Y-77313822D01*
X23253196Y-77373402D01*
X23100457Y-77469375D01*
X22972904Y-77596928D01*
X22876931Y-77749667D01*
X22817351Y-77919936D01*
X22817350Y-77919941D01*
X22797155Y-78099187D01*
X22797155Y-78099194D01*
X22817350Y-78278440D01*
X22817351Y-78278445D01*
X22876931Y-78448714D01*
X22946352Y-78559196D01*
X22972904Y-78601453D01*
X23100458Y-78729007D01*
X23101746Y-78729816D01*
X23220696Y-78804558D01*
X23253198Y-78824980D01*
X23323338Y-78849523D01*
X23423465Y-78884559D01*
X23423470Y-78884560D01*
X23602716Y-78904756D01*
X23602720Y-78904756D01*
X23602724Y-78904756D01*
X23781969Y-78884560D01*
X23781972Y-78884559D01*
X23781975Y-78884559D01*
X23952242Y-78824980D01*
X23984743Y-78804557D01*
X24051978Y-78785557D01*
X24116687Y-78804557D01*
X24149190Y-78824980D01*
X24150478Y-78825789D01*
X24218306Y-78849523D01*
X24320745Y-78885368D01*
X24320750Y-78885369D01*
X24499996Y-78905565D01*
X24500000Y-78905565D01*
X24500004Y-78905565D01*
X24679249Y-78885369D01*
X24679252Y-78885368D01*
X24679255Y-78885368D01*
X24849522Y-78825789D01*
X25002262Y-78729816D01*
X25129816Y-78602262D01*
X25225789Y-78449522D01*
X25285368Y-78279255D01*
X25285459Y-78278446D01*
X25305565Y-78100003D01*
X25305565Y-78099996D01*
X25285369Y-77920750D01*
X25285368Y-77920745D01*
X25237998Y-77785369D01*
X25225789Y-77750478D01*
X25225279Y-77749667D01*
X25181041Y-77679262D01*
X25157132Y-77641211D01*
X27578555Y-77641211D01*
X27605981Y-77849522D01*
X27611501Y-77891452D01*
X27635412Y-77980690D01*
X27676828Y-78135258D01*
X27773418Y-78368447D01*
X27773427Y-78368464D01*
X27899621Y-78587041D01*
X27899623Y-78587045D01*
X28053282Y-78787294D01*
X28053290Y-78787303D01*
X28231752Y-78965765D01*
X28231760Y-78965772D01*
X28432009Y-79119431D01*
X28432013Y-79119433D01*
X28650590Y-79245627D01*
X28650607Y-79245636D01*
X28745160Y-79284801D01*
X28883795Y-79342226D01*
X29127603Y-79407554D01*
X29377851Y-79440500D01*
X29377858Y-79440500D01*
X29630252Y-79440500D01*
X29630259Y-79440500D01*
X29880507Y-79407554D01*
X30124315Y-79342226D01*
X30357509Y-79245633D01*
X30516760Y-79153690D01*
X30576096Y-79119433D01*
X30576100Y-79119431D01*
X30630423Y-79077747D01*
X30776349Y-78965773D01*
X30776353Y-78965768D01*
X30776358Y-78965765D01*
X30954820Y-78787303D01*
X30954823Y-78787298D01*
X30954828Y-78787294D01*
X31108485Y-78587046D01*
X31158739Y-78500003D01*
X38694435Y-78500003D01*
X38714630Y-78679249D01*
X38714631Y-78679254D01*
X38774211Y-78849523D01*
X38847251Y-78965765D01*
X38870184Y-79002262D01*
X38997738Y-79129816D01*
X39150478Y-79225789D01*
X39319125Y-79284801D01*
X39320745Y-79285368D01*
X39320750Y-79285369D01*
X39499996Y-79305565D01*
X39500000Y-79305565D01*
X39500004Y-79305565D01*
X39679249Y-79285369D01*
X39679252Y-79285368D01*
X39679255Y-79285368D01*
X39849522Y-79225789D01*
X39923581Y-79179255D01*
X39934027Y-79172691D01*
X40001264Y-79153690D01*
X40065973Y-79172691D01*
X40150475Y-79225788D01*
X40320745Y-79285368D01*
X40320750Y-79285369D01*
X40499996Y-79305565D01*
X40500000Y-79305565D01*
X40500004Y-79305565D01*
X40679249Y-79285369D01*
X40679252Y-79285368D01*
X40679255Y-79285368D01*
X40849522Y-79225789D01*
X40923581Y-79179255D01*
X40934027Y-79172691D01*
X41001264Y-79153690D01*
X41065973Y-79172691D01*
X41150475Y-79225788D01*
X41320745Y-79285368D01*
X41320750Y-79285369D01*
X41499996Y-79305565D01*
X41500000Y-79305565D01*
X41500004Y-79305565D01*
X41679249Y-79285369D01*
X41679252Y-79285368D01*
X41679255Y-79285368D01*
X41849522Y-79225789D01*
X41923581Y-79179255D01*
X41934027Y-79172691D01*
X42001264Y-79153690D01*
X42065973Y-79172691D01*
X42150475Y-79225788D01*
X42320745Y-79285368D01*
X42320750Y-79285369D01*
X42499996Y-79305565D01*
X42500000Y-79305565D01*
X42500004Y-79305565D01*
X42679249Y-79285369D01*
X42679252Y-79285368D01*
X42679255Y-79285368D01*
X42849522Y-79225789D01*
X42923581Y-79179255D01*
X42934027Y-79172691D01*
X43001264Y-79153690D01*
X43065973Y-79172691D01*
X43150475Y-79225788D01*
X43320745Y-79285368D01*
X43320750Y-79285369D01*
X43499996Y-79305565D01*
X43500000Y-79305565D01*
X43500004Y-79305565D01*
X43679249Y-79285369D01*
X43679252Y-79285368D01*
X43679255Y-79285368D01*
X43849522Y-79225789D01*
X43923581Y-79179255D01*
X43934027Y-79172691D01*
X44001264Y-79153690D01*
X44065973Y-79172691D01*
X44150475Y-79225788D01*
X44320745Y-79285368D01*
X44320750Y-79285369D01*
X44499996Y-79305565D01*
X44500000Y-79305565D01*
X44500003Y-79305565D01*
X44684289Y-79284801D01*
X44753111Y-79296855D01*
X44775605Y-79317585D01*
X44801997Y-79259797D01*
X44844321Y-79231044D01*
X44843247Y-79228812D01*
X44849516Y-79225792D01*
X44849519Y-79225789D01*
X44849522Y-79225789D01*
X45002262Y-79129816D01*
X45129816Y-79002262D01*
X45225789Y-78849522D01*
X45285368Y-78679255D01*
X45287429Y-78660967D01*
X45305565Y-78500003D01*
X45305565Y-78499996D01*
X45285369Y-78320750D01*
X45285368Y-78320745D01*
X45225788Y-78150475D01*
X45172691Y-78065973D01*
X45153690Y-77998736D01*
X45172691Y-77934027D01*
X45225788Y-77849524D01*
X45225789Y-77849522D01*
X45285368Y-77679255D01*
X45285369Y-77679249D01*
X45305565Y-77500003D01*
X45305565Y-77499996D01*
X45285369Y-77320750D01*
X45285368Y-77320745D01*
X45225788Y-77150475D01*
X45172691Y-77065973D01*
X45154048Y-77000003D01*
X47194435Y-77000003D01*
X47214630Y-77179249D01*
X47214631Y-77179254D01*
X47274211Y-77349523D01*
X47298892Y-77388802D01*
X47370184Y-77502262D01*
X47497738Y-77629816D01*
X47650478Y-77725789D01*
X47820745Y-77785368D01*
X47820750Y-77785369D01*
X47999996Y-77805565D01*
X48000000Y-77805565D01*
X48000004Y-77805565D01*
X48179249Y-77785369D01*
X48179252Y-77785368D01*
X48179255Y-77785368D01*
X48349522Y-77725789D01*
X48502262Y-77629816D01*
X48629816Y-77502262D01*
X48725789Y-77349522D01*
X48785368Y-77179255D01*
X48785369Y-77179249D01*
X48805565Y-77000003D01*
X48805565Y-76999996D01*
X48785369Y-76820750D01*
X48785368Y-76820745D01*
X48768920Y-76773739D01*
X48725789Y-76650478D01*
X48629816Y-76497738D01*
X48502262Y-76370184D01*
X48349523Y-76274211D01*
X48179254Y-76214631D01*
X48179249Y-76214630D01*
X48000004Y-76194435D01*
X47999996Y-76194435D01*
X47820750Y-76214630D01*
X47820745Y-76214631D01*
X47650476Y-76274211D01*
X47497737Y-76370184D01*
X47370184Y-76497737D01*
X47274211Y-76650476D01*
X47214631Y-76820745D01*
X47214630Y-76820750D01*
X47194435Y-76999996D01*
X47194435Y-77000003D01*
X45154048Y-77000003D01*
X45153690Y-76998736D01*
X45172691Y-76934027D01*
X45225788Y-76849524D01*
X45225789Y-76849522D01*
X45285368Y-76679255D01*
X45287363Y-76661552D01*
X45305565Y-76500003D01*
X45305565Y-76499996D01*
X45285369Y-76320750D01*
X45285368Y-76320745D01*
X45225788Y-76150475D01*
X45172691Y-76065973D01*
X45153690Y-75998736D01*
X45172691Y-75934027D01*
X45225788Y-75849524D01*
X45225789Y-75849522D01*
X45285368Y-75679255D01*
X45305565Y-75500000D01*
X45285368Y-75320745D01*
X45225789Y-75150478D01*
X45225788Y-75150475D01*
X45172691Y-75065973D01*
X45153690Y-74998736D01*
X45172691Y-74934027D01*
X45225788Y-74849524D01*
X45225789Y-74849522D01*
X45285368Y-74679255D01*
X45296349Y-74581799D01*
X45305565Y-74500003D01*
X45305565Y-74499996D01*
X45285369Y-74320750D01*
X45285368Y-74320745D01*
X45225788Y-74150476D01*
X45129815Y-73997737D01*
X45002262Y-73870184D01*
X44849523Y-73774211D01*
X44679254Y-73714631D01*
X44679249Y-73714630D01*
X44500004Y-73694435D01*
X44499996Y-73694435D01*
X44320750Y-73714630D01*
X44320737Y-73714633D01*
X44150479Y-73774209D01*
X44065971Y-73827309D01*
X43998734Y-73846309D01*
X43934029Y-73827309D01*
X43849520Y-73774209D01*
X43679262Y-73714633D01*
X43679249Y-73714630D01*
X43500004Y-73694435D01*
X43499996Y-73694435D01*
X43320750Y-73714630D01*
X43320737Y-73714633D01*
X43150479Y-73774209D01*
X43065971Y-73827309D01*
X42998734Y-73846309D01*
X42934029Y-73827309D01*
X42849520Y-73774209D01*
X42679262Y-73714633D01*
X42679249Y-73714630D01*
X42500004Y-73694435D01*
X42499996Y-73694435D01*
X42320750Y-73714630D01*
X42320737Y-73714633D01*
X42150479Y-73774209D01*
X42065971Y-73827309D01*
X41998734Y-73846309D01*
X41934029Y-73827309D01*
X41849520Y-73774209D01*
X41679262Y-73714633D01*
X41679249Y-73714630D01*
X41500004Y-73694435D01*
X41499996Y-73694435D01*
X41320750Y-73714630D01*
X41320737Y-73714633D01*
X41150479Y-73774209D01*
X41065971Y-73827309D01*
X40998734Y-73846309D01*
X40934029Y-73827309D01*
X40849520Y-73774209D01*
X40679262Y-73714633D01*
X40679249Y-73714630D01*
X40500004Y-73694435D01*
X40499996Y-73694435D01*
X40320750Y-73714630D01*
X40320737Y-73714633D01*
X40150479Y-73774209D01*
X40065971Y-73827309D01*
X39998734Y-73846309D01*
X39934029Y-73827309D01*
X39849520Y-73774209D01*
X39679262Y-73714633D01*
X39679249Y-73714630D01*
X39500004Y-73694435D01*
X39499996Y-73694435D01*
X39320750Y-73714630D01*
X39320745Y-73714631D01*
X39150476Y-73774211D01*
X38997737Y-73870184D01*
X38870184Y-73997737D01*
X38774211Y-74150476D01*
X38714631Y-74320745D01*
X38714630Y-74320750D01*
X38694435Y-74499996D01*
X38694435Y-74500003D01*
X38714630Y-74679249D01*
X38714633Y-74679262D01*
X38774209Y-74849520D01*
X38827309Y-74934029D01*
X38846309Y-75001266D01*
X38827309Y-75065971D01*
X38774209Y-75150479D01*
X38714633Y-75320737D01*
X38714630Y-75320750D01*
X38694435Y-75499996D01*
X38694435Y-75500003D01*
X38714630Y-75679249D01*
X38714633Y-75679262D01*
X38774209Y-75849520D01*
X38827309Y-75934029D01*
X38846309Y-76001266D01*
X38827309Y-76065971D01*
X38774209Y-76150479D01*
X38714633Y-76320737D01*
X38714630Y-76320750D01*
X38694435Y-76499996D01*
X38694435Y-76500003D01*
X38714630Y-76679249D01*
X38714633Y-76679262D01*
X38774209Y-76849520D01*
X38827309Y-76934029D01*
X38846309Y-77001266D01*
X38827309Y-77065971D01*
X38774209Y-77150479D01*
X38714633Y-77320737D01*
X38714630Y-77320750D01*
X38694435Y-77499996D01*
X38694435Y-77500003D01*
X38714630Y-77679249D01*
X38714633Y-77679262D01*
X38774209Y-77849520D01*
X38827309Y-77934029D01*
X38846309Y-78001266D01*
X38827309Y-78065971D01*
X38774209Y-78150479D01*
X38714633Y-78320737D01*
X38714630Y-78320750D01*
X38694435Y-78499996D01*
X38694435Y-78500003D01*
X31158739Y-78500003D01*
X31234688Y-78368454D01*
X31331281Y-78135260D01*
X31396609Y-77891452D01*
X31429555Y-77641204D01*
X31429555Y-77388796D01*
X31396609Y-77138548D01*
X31331281Y-76894740D01*
X31270803Y-76748735D01*
X31234691Y-76661552D01*
X31234682Y-76661535D01*
X31108488Y-76442958D01*
X31108486Y-76442954D01*
X30954827Y-76242705D01*
X30954820Y-76242697D01*
X30776358Y-76064235D01*
X30776349Y-76064227D01*
X30576100Y-75910568D01*
X30576096Y-75910566D01*
X30357519Y-75784372D01*
X30357502Y-75784363D01*
X30124313Y-75687773D01*
X29969745Y-75646357D01*
X29880507Y-75622446D01*
X29849226Y-75618327D01*
X29630266Y-75589500D01*
X29630259Y-75589500D01*
X29377851Y-75589500D01*
X29377843Y-75589500D01*
X29127603Y-75622446D01*
X28883796Y-75687773D01*
X28650607Y-75784363D01*
X28650590Y-75784372D01*
X28432013Y-75910566D01*
X28432009Y-75910568D01*
X28231760Y-76064227D01*
X28053282Y-76242705D01*
X27899623Y-76442954D01*
X27899621Y-76442958D01*
X27773427Y-76661535D01*
X27773418Y-76661552D01*
X27676828Y-76894741D01*
X27611501Y-77138548D01*
X27578555Y-77388788D01*
X27578555Y-77641211D01*
X25157132Y-77641211D01*
X25129816Y-77597738D01*
X25129814Y-77597736D01*
X25129813Y-77597734D01*
X25127550Y-77594896D01*
X25126659Y-77592715D01*
X25126111Y-77591842D01*
X25126264Y-77591745D01*
X25101144Y-77530209D01*
X25100500Y-77517587D01*
X25100500Y-76589059D01*
X25100501Y-76589046D01*
X25100501Y-76420945D01*
X25100501Y-76420943D01*
X25059577Y-76268215D01*
X25028641Y-76214632D01*
X24980520Y-76131284D01*
X24868716Y-76019480D01*
X24868715Y-76019479D01*
X24864385Y-76015149D01*
X24864374Y-76015139D01*
X21264235Y-72415000D01*
X34750000Y-72415000D01*
X34750000Y-72462844D01*
X34756401Y-72522372D01*
X34756403Y-72522379D01*
X34806645Y-72657086D01*
X34806649Y-72657093D01*
X34892809Y-72772187D01*
X34892812Y-72772190D01*
X35007906Y-72858350D01*
X35007913Y-72858354D01*
X35142620Y-72908596D01*
X35142627Y-72908598D01*
X35202155Y-72914999D01*
X35202172Y-72915000D01*
X35250000Y-72915000D01*
X35250000Y-72415000D01*
X38750000Y-72415000D01*
X38750000Y-72915000D01*
X38797828Y-72915000D01*
X38797844Y-72914999D01*
X38857372Y-72908598D01*
X38857379Y-72908596D01*
X38992086Y-72858354D01*
X38992093Y-72858350D01*
X39107187Y-72772190D01*
X39107190Y-72772187D01*
X39193350Y-72657093D01*
X39193354Y-72657086D01*
X39243596Y-72522379D01*
X39243598Y-72522372D01*
X39249999Y-72462844D01*
X39250000Y-72462827D01*
X39250000Y-72415000D01*
X38750000Y-72415000D01*
X35250000Y-72415000D01*
X34750000Y-72415000D01*
X21264235Y-72415000D01*
X21178022Y-72328787D01*
X21144537Y-72267464D01*
X21149521Y-72197772D01*
X21191393Y-72141839D01*
X21200409Y-72135690D01*
X21299673Y-72074229D01*
X21455052Y-71932582D01*
X21581758Y-71764796D01*
X21675477Y-71576584D01*
X21733015Y-71374357D01*
X21752415Y-71165000D01*
X22013695Y-71165000D01*
X22033094Y-71374352D01*
X22033094Y-71374354D01*
X22033095Y-71374357D01*
X22076832Y-71528077D01*
X22090634Y-71576587D01*
X22184348Y-71764790D01*
X22184353Y-71764798D01*
X22311059Y-71932584D01*
X22466436Y-72074228D01*
X22466438Y-72074230D01*
X22508866Y-72100500D01*
X22645199Y-72184913D01*
X22841254Y-72260866D01*
X23047928Y-72299500D01*
X23047930Y-72299500D01*
X23258180Y-72299500D01*
X23258182Y-72299500D01*
X23464856Y-72260866D01*
X23660911Y-72184913D01*
X23839673Y-72074229D01*
X23995052Y-71932582D01*
X24121758Y-71764796D01*
X24215477Y-71576584D01*
X24273015Y-71374357D01*
X24292415Y-71165000D01*
X24553695Y-71165000D01*
X24573094Y-71374352D01*
X24573094Y-71374354D01*
X24573095Y-71374357D01*
X24616832Y-71528077D01*
X24630634Y-71576587D01*
X24724348Y-71764790D01*
X24724353Y-71764798D01*
X24851059Y-71932584D01*
X25006436Y-72074228D01*
X25006438Y-72074230D01*
X25048866Y-72100500D01*
X25185199Y-72184913D01*
X25381254Y-72260866D01*
X25587928Y-72299500D01*
X25587930Y-72299500D01*
X25798180Y-72299500D01*
X25798182Y-72299500D01*
X26004856Y-72260866D01*
X26200911Y-72184913D01*
X26379673Y-72074229D01*
X26535052Y-71932582D01*
X26599779Y-71846870D01*
X27098555Y-71846870D01*
X27098556Y-71846876D01*
X27104963Y-71906483D01*
X27155257Y-72041328D01*
X27155260Y-72041333D01*
X27241507Y-72156544D01*
X27241510Y-72156547D01*
X27356719Y-72242793D01*
X27356726Y-72242797D01*
X27491572Y-72293091D01*
X27491571Y-72293091D01*
X27498499Y-72293835D01*
X27551182Y-72299500D01*
X28914927Y-72299499D01*
X28974538Y-72293091D01*
X29109386Y-72242796D01*
X29224601Y-72156546D01*
X29286224Y-72074229D01*
X29310850Y-72041333D01*
X29310852Y-72041328D01*
X29312110Y-72037955D01*
X29361146Y-71906483D01*
X29367555Y-71846873D01*
X29367554Y-70758567D01*
X36050000Y-70758567D01*
X36086508Y-70942105D01*
X36158121Y-71114994D01*
X36262087Y-71270590D01*
X36394410Y-71402913D01*
X36550006Y-71506879D01*
X36722895Y-71578492D01*
X36906433Y-71615000D01*
X37093567Y-71615000D01*
X37277105Y-71578492D01*
X37449994Y-71506879D01*
X37605590Y-71402913D01*
X37737913Y-71270590D01*
X37841879Y-71114994D01*
X37913492Y-70942105D01*
X37950000Y-70758567D01*
X37950000Y-70665007D01*
X39744671Y-70665007D01*
X39763964Y-70959363D01*
X39763965Y-70959373D01*
X39763966Y-70959380D01*
X39763968Y-70959390D01*
X39821518Y-71248716D01*
X39821521Y-71248730D01*
X39916349Y-71528080D01*
X40046825Y-71792660D01*
X40046829Y-71792667D01*
X40210725Y-72037955D01*
X40405241Y-72259758D01*
X40627044Y-72454274D01*
X40872332Y-72618170D01*
X40872335Y-72618172D01*
X41136923Y-72748652D01*
X41416278Y-72843481D01*
X41705620Y-72901034D01*
X41733888Y-72902886D01*
X41999993Y-72920329D01*
X42000000Y-72920329D01*
X42000007Y-72920329D01*
X42235675Y-72904881D01*
X42294380Y-72901034D01*
X42583722Y-72843481D01*
X42863077Y-72748652D01*
X43127665Y-72618172D01*
X43372957Y-72454273D01*
X43594758Y-72259758D01*
X43789273Y-72037957D01*
X43953172Y-71792665D01*
X44083652Y-71528077D01*
X44093182Y-71500003D01*
X48694435Y-71500003D01*
X48714630Y-71679249D01*
X48714631Y-71679254D01*
X48774211Y-71849523D01*
X48810001Y-71906482D01*
X48870184Y-72002262D01*
X48997738Y-72129816D01*
X49040279Y-72156546D01*
X49132721Y-72214632D01*
X49150478Y-72225789D01*
X49288860Y-72274211D01*
X49327318Y-72287668D01*
X49326373Y-72290367D01*
X49376132Y-72318192D01*
X49408998Y-72379848D01*
X49403313Y-72449486D01*
X49375259Y-72492663D01*
X49370183Y-72497738D01*
X49274211Y-72650476D01*
X49214631Y-72820745D01*
X49214630Y-72820750D01*
X49194435Y-72999996D01*
X49194435Y-73000003D01*
X49214630Y-73179249D01*
X49214631Y-73179254D01*
X49274211Y-73349523D01*
X49370184Y-73502262D01*
X49497738Y-73629816D01*
X49588080Y-73686582D01*
X49632721Y-73714632D01*
X49650478Y-73725789D01*
X49788860Y-73774211D01*
X49820745Y-73785368D01*
X49820750Y-73785369D01*
X49999996Y-73805565D01*
X50000000Y-73805565D01*
X50000004Y-73805565D01*
X50179249Y-73785369D01*
X50179252Y-73785368D01*
X50179255Y-73785368D01*
X50349522Y-73725789D01*
X50502262Y-73629816D01*
X50629816Y-73502262D01*
X50725789Y-73349522D01*
X50785368Y-73179255D01*
X50785369Y-73179249D01*
X50805565Y-73000003D01*
X50805565Y-72999996D01*
X50785369Y-72820750D01*
X50785368Y-72820745D01*
X50768377Y-72772187D01*
X50725789Y-72650478D01*
X50629816Y-72497738D01*
X50502262Y-72370184D01*
X50349523Y-72274211D01*
X50172682Y-72212332D01*
X50173622Y-72209644D01*
X50123814Y-72181754D01*
X50090985Y-72120077D01*
X50096713Y-72050442D01*
X50124745Y-72007332D01*
X50129816Y-72002262D01*
X50225789Y-71849522D01*
X50285368Y-71679255D01*
X50296936Y-71576584D01*
X50305565Y-71500003D01*
X50305565Y-71499996D01*
X50285369Y-71320750D01*
X50285368Y-71320745D01*
X50225788Y-71150476D01*
X50129815Y-70997737D01*
X50002262Y-70870184D01*
X49849523Y-70774211D01*
X49679254Y-70714631D01*
X49679249Y-70714630D01*
X49500004Y-70694435D01*
X49499996Y-70694435D01*
X49320750Y-70714630D01*
X49320745Y-70714631D01*
X49150476Y-70774211D01*
X48997737Y-70870184D01*
X48870184Y-70997737D01*
X48774211Y-71150476D01*
X48714631Y-71320745D01*
X48714630Y-71320750D01*
X48694435Y-71499996D01*
X48694435Y-71500003D01*
X44093182Y-71500003D01*
X44178481Y-71248722D01*
X44236034Y-70959380D01*
X44255329Y-70665000D01*
X44255329Y-70664992D01*
X44236035Y-70370636D01*
X44236034Y-70370620D01*
X44178481Y-70081278D01*
X44083652Y-69801923D01*
X43953172Y-69537336D01*
X43951095Y-69534228D01*
X43856451Y-69392582D01*
X43789273Y-69292043D01*
X43746655Y-69243447D01*
X43594758Y-69070241D01*
X43372955Y-68875725D01*
X43127667Y-68711829D01*
X43127660Y-68711825D01*
X42863080Y-68581349D01*
X42583730Y-68486521D01*
X42583724Y-68486519D01*
X42583722Y-68486519D01*
X42294380Y-68428966D01*
X42294373Y-68428965D01*
X42294363Y-68428964D01*
X42000007Y-68409671D01*
X41999993Y-68409671D01*
X41705636Y-68428964D01*
X41705624Y-68428965D01*
X41705620Y-68428966D01*
X41705612Y-68428967D01*
X41705609Y-68428968D01*
X41416283Y-68486518D01*
X41416269Y-68486521D01*
X41136919Y-68581349D01*
X40872334Y-68711828D01*
X40627041Y-68875728D01*
X40405241Y-69070241D01*
X40210728Y-69292041D01*
X40046828Y-69537334D01*
X39916349Y-69801919D01*
X39821521Y-70081269D01*
X39821518Y-70081283D01*
X39763968Y-70370609D01*
X39763964Y-70370636D01*
X39744671Y-70664992D01*
X39744671Y-70665007D01*
X37950000Y-70665007D01*
X37950000Y-70571433D01*
X37913492Y-70387895D01*
X37841879Y-70215006D01*
X37737913Y-70059410D01*
X37605590Y-69927087D01*
X37449994Y-69823121D01*
X37277105Y-69751508D01*
X37093567Y-69715000D01*
X36906433Y-69715000D01*
X36722895Y-69751508D01*
X36550006Y-69823121D01*
X36394410Y-69927087D01*
X36262087Y-70059410D01*
X36158121Y-70215006D01*
X36086508Y-70387895D01*
X36050000Y-70571433D01*
X36050000Y-70758567D01*
X29367554Y-70758567D01*
X29367554Y-70483128D01*
X29361146Y-70423517D01*
X29310851Y-70288669D01*
X29310850Y-70288668D01*
X29310848Y-70288664D01*
X29224602Y-70173455D01*
X29224599Y-70173452D01*
X29109390Y-70087206D01*
X29109383Y-70087202D01*
X28974537Y-70036908D01*
X28974538Y-70036908D01*
X28914938Y-70030501D01*
X28914936Y-70030500D01*
X28914928Y-70030500D01*
X28914919Y-70030500D01*
X27551184Y-70030500D01*
X27551178Y-70030501D01*
X27491571Y-70036908D01*
X27356726Y-70087202D01*
X27356719Y-70087206D01*
X27241510Y-70173452D01*
X27241507Y-70173455D01*
X27155261Y-70288664D01*
X27155257Y-70288671D01*
X27104963Y-70423517D01*
X27098556Y-70483116D01*
X27098556Y-70483123D01*
X27098555Y-70483135D01*
X27098555Y-71846870D01*
X26599779Y-71846870D01*
X26661758Y-71764796D01*
X26755477Y-71576584D01*
X26813015Y-71374357D01*
X26832415Y-71165000D01*
X26813015Y-70955643D01*
X26755477Y-70753416D01*
X26726108Y-70694435D01*
X26661761Y-70565209D01*
X26661756Y-70565201D01*
X26535050Y-70397415D01*
X26379673Y-70255771D01*
X26379671Y-70255769D01*
X26200914Y-70145089D01*
X26200911Y-70145087D01*
X26004856Y-70069134D01*
X25798182Y-70030500D01*
X25587928Y-70030500D01*
X25381254Y-70069134D01*
X25381251Y-70069134D01*
X25381251Y-70069135D01*
X25185198Y-70145087D01*
X25185195Y-70145089D01*
X25006438Y-70255769D01*
X25006436Y-70255771D01*
X24851059Y-70397415D01*
X24724353Y-70565201D01*
X24724348Y-70565209D01*
X24630634Y-70753412D01*
X24630633Y-70753416D01*
X24589342Y-70898542D01*
X24573094Y-70955647D01*
X24553695Y-71164999D01*
X24553695Y-71165000D01*
X24292415Y-71165000D01*
X24273015Y-70955643D01*
X24215477Y-70753416D01*
X24186108Y-70694435D01*
X24121761Y-70565209D01*
X24121756Y-70565201D01*
X23995050Y-70397415D01*
X23839673Y-70255771D01*
X23839671Y-70255769D01*
X23660914Y-70145089D01*
X23660911Y-70145087D01*
X23464856Y-70069134D01*
X23258182Y-70030500D01*
X23047928Y-70030500D01*
X22841254Y-70069134D01*
X22841251Y-70069134D01*
X22841251Y-70069135D01*
X22645198Y-70145087D01*
X22645195Y-70145089D01*
X22466438Y-70255769D01*
X22466436Y-70255771D01*
X22311059Y-70397415D01*
X22184353Y-70565201D01*
X22184348Y-70565209D01*
X22090634Y-70753412D01*
X22090633Y-70753416D01*
X22049342Y-70898542D01*
X22033094Y-70955647D01*
X22013695Y-71164999D01*
X22013695Y-71165000D01*
X21752415Y-71165000D01*
X21733015Y-70955643D01*
X21675477Y-70753416D01*
X21646108Y-70694435D01*
X21581761Y-70565209D01*
X21581756Y-70565201D01*
X21455050Y-70397415D01*
X21299673Y-70255771D01*
X21299671Y-70255769D01*
X21120914Y-70145089D01*
X21120911Y-70145087D01*
X20924856Y-70069134D01*
X20718182Y-70030500D01*
X20507928Y-70030500D01*
X20301254Y-70069134D01*
X20301251Y-70069134D01*
X20301251Y-70069135D01*
X20105198Y-70145087D01*
X20105195Y-70145089D01*
X19926438Y-70255769D01*
X19926436Y-70255771D01*
X19771059Y-70397415D01*
X19644353Y-70565201D01*
X19644348Y-70565209D01*
X19550633Y-70753414D01*
X19550630Y-70753420D01*
X19534694Y-70809433D01*
X19497415Y-70868526D01*
X19434106Y-70898084D01*
X19428712Y-70898492D01*
X19428719Y-70898541D01*
X19428711Y-70898542D01*
X19425051Y-70898769D01*
X19415428Y-70899499D01*
X19413347Y-70899499D01*
X19413331Y-70899500D01*
X19082412Y-70899500D01*
X19015373Y-70879815D01*
X19005097Y-70872445D01*
X19002263Y-70870185D01*
X19002262Y-70870184D01*
X18945496Y-70834515D01*
X18849523Y-70774211D01*
X18679254Y-70714631D01*
X18679249Y-70714630D01*
X18500004Y-70694435D01*
X18499996Y-70694435D01*
X18320750Y-70714630D01*
X18320745Y-70714631D01*
X18150476Y-70774211D01*
X17997737Y-70870184D01*
X17870184Y-70997737D01*
X17774211Y-71150476D01*
X17714631Y-71320745D01*
X17714630Y-71320750D01*
X17694435Y-71499996D01*
X17694435Y-71500003D01*
X17714630Y-71679249D01*
X17714633Y-71679262D01*
X17774209Y-71849520D01*
X17827309Y-71934029D01*
X17846309Y-72001266D01*
X17827309Y-72065971D01*
X17774209Y-72150479D01*
X17714633Y-72320737D01*
X17714630Y-72320750D01*
X17694435Y-72499996D01*
X17694435Y-72500003D01*
X15500500Y-72500003D01*
X15500500Y-69738161D01*
X19126503Y-69738161D01*
X19237976Y-69759000D01*
X19448134Y-69759000D01*
X19559606Y-69738161D01*
X19343056Y-69521611D01*
X19126503Y-69738161D01*
X15500500Y-69738161D01*
X15500500Y-67848071D01*
X15520185Y-67781032D01*
X15572989Y-67735277D01*
X15642147Y-67725333D01*
X15665455Y-67731030D01*
X15820741Y-67785367D01*
X15820742Y-67785367D01*
X15820745Y-67785368D01*
X15907669Y-67795161D01*
X15972080Y-67822226D01*
X15981453Y-67830689D01*
X16131284Y-67980520D01*
X16131286Y-67980521D01*
X16131287Y-67980522D01*
X16131290Y-67980524D01*
X16268209Y-68059573D01*
X16268216Y-68059577D01*
X16420943Y-68100501D01*
X16420945Y-68100501D01*
X16586654Y-68100501D01*
X16586670Y-68100500D01*
X18149079Y-68100500D01*
X18216118Y-68120185D01*
X18261873Y-68172989D01*
X18271817Y-68242147D01*
X18268345Y-68258435D01*
X18223587Y-68415736D01*
X18204197Y-68624999D01*
X18204197Y-68625000D01*
X18223587Y-68834264D01*
X18223588Y-68834268D01*
X18226597Y-68844844D01*
X18226598Y-68844845D01*
X18396415Y-68675028D01*
X18963055Y-68675028D01*
X18988951Y-68771675D01*
X19038979Y-68858325D01*
X19109730Y-68929076D01*
X19196380Y-68979104D01*
X19293027Y-69005000D01*
X19393083Y-69005000D01*
X19489730Y-68979104D01*
X19576380Y-68929076D01*
X19647131Y-68858325D01*
X19697159Y-68771675D01*
X19723055Y-68675028D01*
X19723055Y-68574972D01*
X19697159Y-68478325D01*
X19647131Y-68391675D01*
X19576380Y-68320924D01*
X19489730Y-68270896D01*
X19393083Y-68245000D01*
X19293027Y-68245000D01*
X19196380Y-68270896D01*
X19109730Y-68320924D01*
X19038979Y-68391675D01*
X18988951Y-68478325D01*
X18963055Y-68574972D01*
X18963055Y-68675028D01*
X18396415Y-68675028D01*
X18934625Y-68136819D01*
X18995948Y-68103334D01*
X19022306Y-68100500D01*
X19663804Y-68100500D01*
X19730843Y-68120185D01*
X19751485Y-68136819D01*
X20459511Y-68844845D01*
X20462521Y-68834268D01*
X20462522Y-68834260D01*
X20481913Y-68625000D01*
X20481913Y-68624999D01*
X20462522Y-68415736D01*
X20417765Y-68258435D01*
X20418351Y-68188568D01*
X20456618Y-68130109D01*
X20520415Y-68101618D01*
X20537031Y-68100500D01*
X20688558Y-68100500D01*
X20755597Y-68120185D01*
X20801352Y-68172989D01*
X20811296Y-68242147D01*
X20807826Y-68258425D01*
X20764794Y-68409671D01*
X20763094Y-68415647D01*
X20743695Y-68624999D01*
X20743695Y-68625000D01*
X20763094Y-68834352D01*
X20763094Y-68834354D01*
X20763095Y-68834357D01*
X20772427Y-68867155D01*
X20820634Y-69036587D01*
X20914348Y-69224790D01*
X20914353Y-69224798D01*
X21041059Y-69392584D01*
X21196436Y-69534228D01*
X21196438Y-69534230D01*
X21271730Y-69580848D01*
X21375199Y-69644913D01*
X21571254Y-69720866D01*
X21777928Y-69759500D01*
X21777930Y-69759500D01*
X21988180Y-69759500D01*
X21988182Y-69759500D01*
X22194856Y-69720866D01*
X22390911Y-69644913D01*
X22569673Y-69534229D01*
X22725052Y-69392582D01*
X22851758Y-69224796D01*
X22945477Y-69036584D01*
X23003015Y-68834357D01*
X23022415Y-68625000D01*
X23003015Y-68415643D01*
X22958285Y-68258431D01*
X22958873Y-68188567D01*
X22997140Y-68130108D01*
X23060937Y-68101618D01*
X23077552Y-68100500D01*
X23228558Y-68100500D01*
X23295597Y-68120185D01*
X23341352Y-68172989D01*
X23351296Y-68242147D01*
X23347826Y-68258425D01*
X23304794Y-68409671D01*
X23303094Y-68415647D01*
X23283695Y-68624999D01*
X23283695Y-68625000D01*
X23303094Y-68834352D01*
X23303094Y-68834354D01*
X23303095Y-68834357D01*
X23312427Y-68867155D01*
X23360634Y-69036587D01*
X23454348Y-69224790D01*
X23454353Y-69224798D01*
X23581059Y-69392584D01*
X23736436Y-69534228D01*
X23736438Y-69534230D01*
X23811730Y-69580848D01*
X23915199Y-69644913D01*
X24111254Y-69720866D01*
X24317928Y-69759500D01*
X24317930Y-69759500D01*
X24528180Y-69759500D01*
X24528182Y-69759500D01*
X24734856Y-69720866D01*
X24930911Y-69644913D01*
X25109673Y-69534229D01*
X25265052Y-69392582D01*
X25391758Y-69224796D01*
X25485477Y-69036584D01*
X25543015Y-68834357D01*
X25562415Y-68625000D01*
X25543015Y-68415643D01*
X25498285Y-68258431D01*
X25498873Y-68188567D01*
X25537140Y-68130108D01*
X25600937Y-68101618D01*
X25617552Y-68100500D01*
X25768558Y-68100500D01*
X25835597Y-68120185D01*
X25881352Y-68172989D01*
X25891296Y-68242147D01*
X25887826Y-68258425D01*
X25844794Y-68409671D01*
X25843094Y-68415647D01*
X25823695Y-68624999D01*
X25823695Y-68625000D01*
X25843094Y-68834352D01*
X25843094Y-68834354D01*
X25843095Y-68834357D01*
X25852427Y-68867155D01*
X25900634Y-69036587D01*
X25994348Y-69224790D01*
X25994353Y-69224798D01*
X26121059Y-69392584D01*
X26276436Y-69534228D01*
X26276438Y-69534230D01*
X26351730Y-69580848D01*
X26455199Y-69644913D01*
X26651254Y-69720866D01*
X26857928Y-69759500D01*
X26857930Y-69759500D01*
X27068180Y-69759500D01*
X27068182Y-69759500D01*
X27274856Y-69720866D01*
X27470911Y-69644913D01*
X27649673Y-69534229D01*
X27805052Y-69392582D01*
X27931758Y-69224796D01*
X28025477Y-69036584D01*
X28060070Y-68915000D01*
X34750000Y-68915000D01*
X35250000Y-68915000D01*
X35250000Y-68415000D01*
X38750000Y-68415000D01*
X38750000Y-68915000D01*
X39250000Y-68915000D01*
X39250000Y-68867172D01*
X39249999Y-68867155D01*
X39243598Y-68807627D01*
X39243596Y-68807620D01*
X39193354Y-68672913D01*
X39193350Y-68672906D01*
X39107190Y-68557812D01*
X39107187Y-68557809D01*
X38992093Y-68471649D01*
X38992086Y-68471645D01*
X38857379Y-68421403D01*
X38857372Y-68421401D01*
X38797844Y-68415000D01*
X38750000Y-68415000D01*
X35250000Y-68415000D01*
X35202155Y-68415000D01*
X35142627Y-68421401D01*
X35142620Y-68421403D01*
X35007913Y-68471645D01*
X35007906Y-68471649D01*
X34892812Y-68557809D01*
X34892809Y-68557812D01*
X34806649Y-68672906D01*
X34806645Y-68672913D01*
X34756403Y-68807620D01*
X34756401Y-68807627D01*
X34750000Y-68867155D01*
X34750000Y-68915000D01*
X28060070Y-68915000D01*
X28083015Y-68834357D01*
X28102415Y-68625000D01*
X28083015Y-68415643D01*
X28038285Y-68258431D01*
X28038873Y-68188567D01*
X28077140Y-68130108D01*
X28140937Y-68101618D01*
X28157552Y-68100500D01*
X28813331Y-68100500D01*
X28813347Y-68100501D01*
X28820943Y-68100501D01*
X28979054Y-68100501D01*
X28979057Y-68100501D01*
X29131785Y-68059577D01*
X29191320Y-68025204D01*
X29268716Y-67980520D01*
X29380520Y-67868716D01*
X29380520Y-67868714D01*
X29390724Y-67858511D01*
X29390728Y-67858506D01*
X30001363Y-67247870D01*
X41799500Y-67247870D01*
X41799501Y-67247876D01*
X41805908Y-67307483D01*
X41856202Y-67442328D01*
X41856206Y-67442335D01*
X41942452Y-67557544D01*
X41942455Y-67557547D01*
X42057664Y-67643793D01*
X42057671Y-67643797D01*
X42192517Y-67694091D01*
X42192516Y-67694091D01*
X42199444Y-67694835D01*
X42252127Y-67700500D01*
X44747872Y-67700499D01*
X44752514Y-67700000D01*
X48497057Y-67700000D01*
X48627396Y-67700000D01*
X48627404Y-67699999D01*
X48879341Y-67662026D01*
X48879347Y-67662024D01*
X49082739Y-67599286D01*
X49152602Y-67598336D01*
X49211889Y-67635307D01*
X49241775Y-67698462D01*
X49236331Y-67758731D01*
X49214632Y-67820742D01*
X49214630Y-67820750D01*
X49194435Y-67999996D01*
X49194435Y-68000003D01*
X49214630Y-68179249D01*
X49214631Y-68179254D01*
X49274211Y-68349523D01*
X49355143Y-68478325D01*
X49370184Y-68502262D01*
X49497738Y-68629816D01*
X49650478Y-68725789D01*
X49781613Y-68771675D01*
X49820745Y-68785368D01*
X49820750Y-68785369D01*
X49999996Y-68805565D01*
X50000000Y-68805565D01*
X50000004Y-68805565D01*
X50179249Y-68785369D01*
X50179252Y-68785368D01*
X50179255Y-68785368D01*
X50349522Y-68725789D01*
X50502262Y-68629816D01*
X50629816Y-68502262D01*
X50725789Y-68349522D01*
X50785368Y-68179255D01*
X50786074Y-68172989D01*
X50805565Y-68000003D01*
X50805565Y-67999996D01*
X50785369Y-67820750D01*
X50785368Y-67820745D01*
X50742579Y-67698462D01*
X50725789Y-67650478D01*
X50721590Y-67643796D01*
X50686582Y-67588080D01*
X50629816Y-67497738D01*
X50502262Y-67370184D01*
X50349523Y-67274211D01*
X50179254Y-67214631D01*
X50179249Y-67214630D01*
X50000004Y-67194435D01*
X50000000Y-67194435D01*
X49991868Y-67195351D01*
X49923046Y-67183294D01*
X49871668Y-67135943D01*
X49854046Y-67068332D01*
X49875775Y-67001927D01*
X49881042Y-66994816D01*
X49908544Y-66960329D01*
X50035941Y-66739671D01*
X50129026Y-66502494D01*
X50129031Y-66502477D01*
X50185726Y-66254079D01*
X50204767Y-66000002D01*
X50204767Y-66000000D01*
X50204228Y-65992825D01*
X48500000Y-67697056D01*
X48500000Y-67697057D01*
X48497057Y-67700000D01*
X44752514Y-67700000D01*
X44807483Y-67694091D01*
X44942331Y-67643796D01*
X45057546Y-67557546D01*
X45143796Y-67442331D01*
X45194091Y-67307483D01*
X45200500Y-67247873D01*
X45200499Y-66078991D01*
X47900000Y-66078991D01*
X47940889Y-66231591D01*
X48019881Y-66368408D01*
X48131592Y-66480119D01*
X48268409Y-66559111D01*
X48421009Y-66600000D01*
X48578991Y-66600000D01*
X48731591Y-66559111D01*
X48868408Y-66480119D01*
X48980119Y-66368408D01*
X49059111Y-66231591D01*
X49100000Y-66078991D01*
X49100000Y-65921009D01*
X49059111Y-65768409D01*
X48980119Y-65631592D01*
X48868408Y-65519881D01*
X48731591Y-65440889D01*
X48578991Y-65400000D01*
X48421009Y-65400000D01*
X48268409Y-65440889D01*
X48131592Y-65519881D01*
X48019881Y-65631592D01*
X47940889Y-65768409D01*
X47900000Y-65921009D01*
X47900000Y-66078991D01*
X45200499Y-66078991D01*
X45200499Y-66000000D01*
X46795233Y-66000000D01*
X46795769Y-66007172D01*
X46802943Y-65999999D01*
X46802944Y-65999999D01*
X46795770Y-65992825D01*
X46795233Y-66000000D01*
X45200499Y-66000000D01*
X45200499Y-64752128D01*
X45194091Y-64692517D01*
X45178710Y-64651279D01*
X45143797Y-64557671D01*
X45143793Y-64557664D01*
X45057547Y-64442455D01*
X45057544Y-64442452D01*
X44942335Y-64356206D01*
X44942328Y-64356202D01*
X44807482Y-64305908D01*
X44807483Y-64305908D01*
X44752525Y-64300000D01*
X48497057Y-64300000D01*
X48500000Y-64302943D01*
X48502943Y-64300000D01*
X48497057Y-64300000D01*
X44752525Y-64300000D01*
X44747883Y-64299501D01*
X44747881Y-64299500D01*
X44747873Y-64299500D01*
X44747864Y-64299500D01*
X42252129Y-64299500D01*
X42252123Y-64299501D01*
X42192516Y-64305908D01*
X42057671Y-64356202D01*
X42057664Y-64356206D01*
X41942455Y-64442452D01*
X41942452Y-64442455D01*
X41856206Y-64557664D01*
X41856202Y-64557671D01*
X41805908Y-64692517D01*
X41799501Y-64752116D01*
X41799501Y-64752123D01*
X41799500Y-64752135D01*
X41799500Y-67247870D01*
X30001363Y-67247870D01*
X30218535Y-67030698D01*
X30279856Y-66997215D01*
X30292311Y-66995163D01*
X30379255Y-66985368D01*
X30549522Y-66925789D01*
X30702262Y-66829816D01*
X30829816Y-66702262D01*
X30925789Y-66549522D01*
X30985368Y-66379255D01*
X30986390Y-66370184D01*
X31005565Y-66200003D01*
X31005565Y-66199996D01*
X30985369Y-66020750D01*
X30985368Y-66020745D01*
X30925788Y-65850476D01*
X30886582Y-65788080D01*
X30829816Y-65697738D01*
X30702262Y-65570184D01*
X30670572Y-65550272D01*
X30549523Y-65474211D01*
X30379254Y-65414631D01*
X30379249Y-65414630D01*
X30200004Y-65394435D01*
X30199996Y-65394435D01*
X30020750Y-65414630D01*
X30020745Y-65414631D01*
X29850476Y-65474211D01*
X29697737Y-65570184D01*
X29570184Y-65697737D01*
X29474210Y-65850478D01*
X29414630Y-66020750D01*
X29404837Y-66107668D01*
X29377770Y-66172082D01*
X29369298Y-66181465D01*
X28687584Y-66863181D01*
X28626261Y-66896666D01*
X28599903Y-66899500D01*
X16900909Y-66899500D01*
X16833870Y-66879815D01*
X16788115Y-66827011D01*
X16783867Y-66816455D01*
X16743909Y-66702262D01*
X16725789Y-66650478D01*
X16629816Y-66497738D01*
X16502262Y-66370184D01*
X16502260Y-66370182D01*
X16502258Y-66370181D01*
X16433027Y-66326679D01*
X16386736Y-66274344D01*
X16375000Y-66221686D01*
X16375000Y-66050000D01*
X17275000Y-66050000D01*
X17275000Y-66548719D01*
X17452097Y-66513493D01*
X17452105Y-66513491D01*
X17624991Y-66441880D01*
X17625000Y-66441875D01*
X17780589Y-66337913D01*
X17780593Y-66337910D01*
X17912910Y-66205593D01*
X17912913Y-66205589D01*
X18016875Y-66050000D01*
X17275000Y-66050000D01*
X16375000Y-66050000D01*
X16375000Y-65829176D01*
X16425272Y-65850000D01*
X17224728Y-65850000D01*
X17316614Y-65811940D01*
X17386940Y-65741614D01*
X17425000Y-65649728D01*
X17425000Y-65550272D01*
X17386940Y-65458386D01*
X17316614Y-65388060D01*
X17224728Y-65350000D01*
X16425272Y-65350000D01*
X16375000Y-65370823D01*
X16375000Y-64651279D01*
X16374999Y-64651278D01*
X17275000Y-64651278D01*
X17275000Y-65150000D01*
X18016875Y-65150000D01*
X17912913Y-64994410D01*
X17912910Y-64994406D01*
X17780593Y-64862089D01*
X17780589Y-64862086D01*
X17625000Y-64758124D01*
X17624991Y-64758119D01*
X17452105Y-64686508D01*
X17452099Y-64686506D01*
X17275000Y-64651278D01*
X16374999Y-64651278D01*
X16197900Y-64686506D01*
X16197894Y-64686508D01*
X16025008Y-64758119D01*
X16024999Y-64758124D01*
X15869410Y-64862086D01*
X15869406Y-64862089D01*
X15737087Y-64994408D01*
X15727601Y-65008606D01*
X15673988Y-65053410D01*
X15604663Y-65062116D01*
X15541636Y-65031960D01*
X15504918Y-64972516D01*
X15500500Y-64939713D01*
X15500500Y-64000003D01*
X20194435Y-64000003D01*
X20214630Y-64179249D01*
X20214631Y-64179254D01*
X20274211Y-64349523D01*
X20370184Y-64502262D01*
X20497738Y-64629816D01*
X20650478Y-64725789D01*
X20820745Y-64785368D01*
X20820750Y-64785369D01*
X20999996Y-64805565D01*
X21000000Y-64805565D01*
X21000004Y-64805565D01*
X21179249Y-64785369D01*
X21179252Y-64785368D01*
X21179255Y-64785368D01*
X21349522Y-64725789D01*
X21502262Y-64629816D01*
X21629816Y-64502262D01*
X21725789Y-64349522D01*
X21785368Y-64179255D01*
X21805565Y-64000000D01*
X21785368Y-63820745D01*
X21737669Y-63684430D01*
X49655517Y-63684430D01*
X49738806Y-63700000D01*
X49961194Y-63700000D01*
X50044482Y-63684430D01*
X49850001Y-63489949D01*
X49655517Y-63684430D01*
X21737669Y-63684430D01*
X21725789Y-63650478D01*
X21629816Y-63497738D01*
X21502262Y-63370184D01*
X21349523Y-63274211D01*
X21179254Y-63214631D01*
X21179249Y-63214630D01*
X21000004Y-63194435D01*
X20999996Y-63194435D01*
X20820750Y-63214630D01*
X20820745Y-63214631D01*
X20650476Y-63274211D01*
X20497737Y-63370184D01*
X20370184Y-63497737D01*
X20274211Y-63650476D01*
X20214631Y-63820745D01*
X20214630Y-63820750D01*
X20194435Y-63999996D01*
X20194435Y-64000003D01*
X15500500Y-64000003D01*
X15500500Y-62500000D01*
X48644859Y-62500000D01*
X48663107Y-62696941D01*
X48794223Y-62565826D01*
X49350000Y-62565826D01*
X49384075Y-62692993D01*
X49449901Y-62807007D01*
X49542993Y-62900099D01*
X49657007Y-62965925D01*
X49784174Y-63000000D01*
X49915826Y-63000000D01*
X50042993Y-62965925D01*
X50157007Y-62900099D01*
X50250099Y-62807007D01*
X50315925Y-62692993D01*
X50350000Y-62565826D01*
X50350000Y-62500000D01*
X50839949Y-62500000D01*
X51036890Y-62696941D01*
X51055141Y-62499999D01*
X51036891Y-62303057D01*
X50839949Y-62500000D01*
X50350000Y-62500000D01*
X50350000Y-62434174D01*
X50315925Y-62307007D01*
X50250099Y-62192993D01*
X50157007Y-62099901D01*
X50042993Y-62034075D01*
X49915826Y-62000000D01*
X49784174Y-62000000D01*
X49657007Y-62034075D01*
X49542993Y-62099901D01*
X49449901Y-62192993D01*
X49384075Y-62307007D01*
X49350000Y-62434174D01*
X49350000Y-62565826D01*
X48794223Y-62565826D01*
X48860050Y-62499999D01*
X48663107Y-62303056D01*
X48644859Y-62499999D01*
X48644859Y-62500000D01*
X15500500Y-62500000D01*
X15500500Y-59660286D01*
X15520185Y-59593247D01*
X15572989Y-59547492D01*
X15642147Y-59537548D01*
X15705703Y-59566573D01*
X15727603Y-59591396D01*
X15737088Y-59605592D01*
X15869406Y-59737910D01*
X15869410Y-59737913D01*
X16024999Y-59841875D01*
X16025008Y-59841880D01*
X16197894Y-59913491D01*
X16197902Y-59913493D01*
X16375000Y-59948720D01*
X16375000Y-59450000D01*
X17275000Y-59450000D01*
X17275000Y-59948719D01*
X17452097Y-59913493D01*
X17452105Y-59913491D01*
X17624991Y-59841880D01*
X17625000Y-59841875D01*
X17780589Y-59737913D01*
X17780593Y-59737910D01*
X17912910Y-59605593D01*
X17912913Y-59605589D01*
X17983461Y-59500007D01*
X42594671Y-59500007D01*
X42613964Y-59794363D01*
X42613965Y-59794373D01*
X42613966Y-59794380D01*
X42613968Y-59794390D01*
X42671518Y-60083716D01*
X42671521Y-60083730D01*
X42766349Y-60363080D01*
X42896825Y-60627660D01*
X42896829Y-60627667D01*
X43060725Y-60872955D01*
X43255241Y-61094758D01*
X43477043Y-61289273D01*
X43722335Y-61453172D01*
X43986923Y-61583652D01*
X44266278Y-61678481D01*
X44555620Y-61736034D01*
X44583888Y-61737886D01*
X44849993Y-61755329D01*
X44850000Y-61755329D01*
X44850007Y-61755329D01*
X45085675Y-61739881D01*
X45144380Y-61736034D01*
X45433722Y-61678481D01*
X45713077Y-61583652D01*
X45977665Y-61453172D01*
X46183604Y-61315568D01*
X49655517Y-61315568D01*
X49849999Y-61510050D01*
X50044481Y-61315568D01*
X49961194Y-61300000D01*
X49738806Y-61300000D01*
X49655517Y-61315568D01*
X46183604Y-61315568D01*
X46222957Y-61289273D01*
X46444758Y-61094758D01*
X46639273Y-60872957D01*
X46803172Y-60627665D01*
X46933652Y-60363077D01*
X47028481Y-60083722D01*
X47086034Y-59794380D01*
X47099217Y-59593247D01*
X47105329Y-59500007D01*
X47105329Y-59499992D01*
X47086035Y-59205636D01*
X47086034Y-59205620D01*
X47028481Y-58916278D01*
X46933652Y-58636923D01*
X46803172Y-58372336D01*
X46639273Y-58127043D01*
X46572829Y-58051278D01*
X46444758Y-57905241D01*
X46222955Y-57710725D01*
X45977667Y-57546829D01*
X45977660Y-57546825D01*
X45713080Y-57416349D01*
X45433730Y-57321521D01*
X45433724Y-57321519D01*
X45433722Y-57321519D01*
X45144380Y-57263966D01*
X45144373Y-57263965D01*
X45144363Y-57263964D01*
X44850007Y-57244671D01*
X44849993Y-57244671D01*
X44555636Y-57263964D01*
X44555624Y-57263965D01*
X44555620Y-57263966D01*
X44555612Y-57263967D01*
X44555609Y-57263968D01*
X44266283Y-57321518D01*
X44266269Y-57321521D01*
X43986919Y-57416349D01*
X43722334Y-57546828D01*
X43477041Y-57710728D01*
X43255241Y-57905241D01*
X43060728Y-58127041D01*
X42896828Y-58372334D01*
X42766349Y-58636919D01*
X42671521Y-58916269D01*
X42671518Y-58916283D01*
X42613968Y-59205609D01*
X42613964Y-59205636D01*
X42594671Y-59499992D01*
X42594671Y-59500007D01*
X17983461Y-59500007D01*
X18016875Y-59450000D01*
X17275000Y-59450000D01*
X16375000Y-59450000D01*
X16375000Y-59229176D01*
X16425272Y-59250000D01*
X17224728Y-59250000D01*
X17316614Y-59211940D01*
X17386940Y-59141614D01*
X17425000Y-59049728D01*
X17425000Y-58950272D01*
X17386940Y-58858386D01*
X17316614Y-58788060D01*
X17224728Y-58750000D01*
X16425272Y-58750000D01*
X16375000Y-58770823D01*
X16375000Y-58051279D01*
X16374999Y-58051278D01*
X16197900Y-58086506D01*
X16197894Y-58086508D01*
X16025008Y-58158119D01*
X16024999Y-58158124D01*
X15869410Y-58262086D01*
X15869406Y-58262089D01*
X15737087Y-58394408D01*
X15727601Y-58408606D01*
X15673988Y-58453410D01*
X15604663Y-58462116D01*
X15541636Y-58431960D01*
X15504918Y-58372516D01*
X15500500Y-58339713D01*
X15500500Y-56649097D01*
X15520185Y-56582058D01*
X15572989Y-56536303D01*
X15642147Y-56526359D01*
X15705703Y-56555384D01*
X15712179Y-56561414D01*
X17238681Y-58087917D01*
X17272166Y-58149239D01*
X17275000Y-58175597D01*
X17275000Y-58550000D01*
X17720430Y-58550000D01*
X17760246Y-58557919D01*
X17760366Y-58557473D01*
X17767181Y-58559299D01*
X17767879Y-58559438D01*
X17768208Y-58559574D01*
X17768213Y-58559575D01*
X17768216Y-58559577D01*
X17920943Y-58600501D01*
X17920945Y-58600501D01*
X18086654Y-58600501D01*
X18086670Y-58600500D01*
X19817588Y-58600500D01*
X19884627Y-58620185D01*
X19894903Y-58627555D01*
X19897736Y-58629814D01*
X19897738Y-58629816D01*
X20050478Y-58725789D01*
X20220745Y-58785368D01*
X20220750Y-58785369D01*
X20399996Y-58805565D01*
X20400000Y-58805565D01*
X20400004Y-58805565D01*
X20579249Y-58785369D01*
X20579252Y-58785368D01*
X20579255Y-58785368D01*
X20749522Y-58725789D01*
X20902262Y-58629816D01*
X21029816Y-58502262D01*
X21125789Y-58349522D01*
X21185368Y-58179255D01*
X21187749Y-58158124D01*
X21205565Y-58000003D01*
X21205565Y-57999996D01*
X21185369Y-57820750D01*
X21185368Y-57820745D01*
X21125788Y-57650476D01*
X21029815Y-57497737D01*
X20902262Y-57370184D01*
X20749523Y-57274211D01*
X20579254Y-57214631D01*
X20579249Y-57214630D01*
X20400004Y-57194435D01*
X20399996Y-57194435D01*
X20220750Y-57214630D01*
X20220745Y-57214631D01*
X20050476Y-57274211D01*
X19897736Y-57370185D01*
X19894903Y-57372445D01*
X19892724Y-57373334D01*
X19891842Y-57373889D01*
X19891744Y-57373734D01*
X19830217Y-57398855D01*
X19817588Y-57399500D01*
X18300098Y-57399500D01*
X18233059Y-57379815D01*
X18212417Y-57363181D01*
X17147106Y-56297870D01*
X42599500Y-56297870D01*
X42599501Y-56297876D01*
X42605908Y-56357483D01*
X42656202Y-56492328D01*
X42656206Y-56492335D01*
X42742452Y-56607544D01*
X42742455Y-56607547D01*
X42857664Y-56693793D01*
X42857671Y-56693797D01*
X42992517Y-56744091D01*
X42992516Y-56744091D01*
X42999444Y-56744835D01*
X43052127Y-56750500D01*
X46647872Y-56750499D01*
X46707483Y-56744091D01*
X46842331Y-56693796D01*
X46957546Y-56607546D01*
X47043796Y-56492331D01*
X47094091Y-56357483D01*
X47100500Y-56297873D01*
X47100499Y-52702128D01*
X47098597Y-52684430D01*
X49655517Y-52684430D01*
X49738806Y-52700000D01*
X49961194Y-52700000D01*
X50044482Y-52684430D01*
X49850001Y-52489949D01*
X49655517Y-52684430D01*
X47098597Y-52684430D01*
X47094091Y-52642517D01*
X47083690Y-52614631D01*
X47043797Y-52507671D01*
X47043793Y-52507664D01*
X46957547Y-52392455D01*
X46957544Y-52392452D01*
X46842335Y-52306206D01*
X46842328Y-52306202D01*
X46707482Y-52255908D01*
X46707483Y-52255908D01*
X46647883Y-52249501D01*
X46647881Y-52249500D01*
X46647873Y-52249500D01*
X46647864Y-52249500D01*
X43052129Y-52249500D01*
X43052123Y-52249501D01*
X42992516Y-52255908D01*
X42857671Y-52306202D01*
X42857664Y-52306206D01*
X42742455Y-52392452D01*
X42742452Y-52392455D01*
X42656206Y-52507664D01*
X42656202Y-52507671D01*
X42605908Y-52642517D01*
X42599501Y-52702116D01*
X42599501Y-52702123D01*
X42599500Y-52702135D01*
X42599500Y-56297870D01*
X17147106Y-56297870D01*
X16236819Y-55387583D01*
X16203334Y-55326260D01*
X16200500Y-55299902D01*
X16200500Y-53849097D01*
X16220185Y-53782058D01*
X16272989Y-53736303D01*
X16342147Y-53726359D01*
X16405703Y-53755384D01*
X16412181Y-53761416D01*
X17997526Y-55346761D01*
X17997536Y-55346772D01*
X18001866Y-55351102D01*
X18001867Y-55351103D01*
X18113671Y-55462907D01*
X18113673Y-55462908D01*
X18113677Y-55462911D01*
X18181836Y-55502262D01*
X18250603Y-55541964D01*
X18362406Y-55571921D01*
X18403329Y-55582887D01*
X18403330Y-55582887D01*
X27399447Y-55582887D01*
X27466486Y-55602572D01*
X27487128Y-55619206D01*
X27497738Y-55629816D01*
X27650478Y-55725789D01*
X27820745Y-55785368D01*
X27820750Y-55785369D01*
X27999996Y-55805565D01*
X28000000Y-55805565D01*
X28000004Y-55805565D01*
X28179249Y-55785369D01*
X28179252Y-55785368D01*
X28179255Y-55785368D01*
X28349522Y-55725789D01*
X28502262Y-55629816D01*
X28629816Y-55502262D01*
X28725789Y-55349522D01*
X28785368Y-55179255D01*
X28805565Y-55000000D01*
X28785368Y-54820745D01*
X28725789Y-54650478D01*
X28629816Y-54497738D01*
X28502262Y-54370184D01*
X28463086Y-54345568D01*
X28349523Y-54274211D01*
X28179254Y-54214631D01*
X28179249Y-54214630D01*
X28000004Y-54194435D01*
X27999996Y-54194435D01*
X27820750Y-54214630D01*
X27820745Y-54214631D01*
X27650476Y-54274211D01*
X27536914Y-54345568D01*
X27510442Y-54362202D01*
X27509361Y-54362881D01*
X27443389Y-54381887D01*
X21347449Y-54381887D01*
X21280410Y-54362202D01*
X21234655Y-54309398D01*
X21224711Y-54240240D01*
X21253736Y-54176684D01*
X21306495Y-54140845D01*
X21322220Y-54135342D01*
X21349522Y-54125789D01*
X21502262Y-54029816D01*
X21629816Y-53902262D01*
X21725789Y-53749522D01*
X21785368Y-53579255D01*
X21805565Y-53400000D01*
X21785368Y-53220745D01*
X21725789Y-53050478D01*
X21629816Y-52897738D01*
X21502262Y-52770184D01*
X21393963Y-52702135D01*
X21349523Y-52674211D01*
X21179254Y-52614631D01*
X21179249Y-52614630D01*
X21000004Y-52594435D01*
X20999996Y-52594435D01*
X20820750Y-52614630D01*
X20820745Y-52614631D01*
X20650476Y-52674211D01*
X20497737Y-52770184D01*
X20370184Y-52897737D01*
X20274211Y-53050476D01*
X20214631Y-53220745D01*
X20214630Y-53220750D01*
X20194435Y-53399996D01*
X20194435Y-53400003D01*
X20214630Y-53579249D01*
X20214631Y-53579254D01*
X20274211Y-53749523D01*
X20296735Y-53785369D01*
X20370184Y-53902262D01*
X20497738Y-54029816D01*
X20650478Y-54125789D01*
X20693505Y-54140845D01*
X20750281Y-54181567D01*
X20776029Y-54246519D01*
X20762573Y-54315081D01*
X20714186Y-54365484D01*
X20652551Y-54381887D01*
X18782484Y-54381887D01*
X18715445Y-54362202D01*
X18694803Y-54345568D01*
X16636819Y-52287584D01*
X16603334Y-52226261D01*
X16600500Y-52199903D01*
X16600500Y-51100003D01*
X26194435Y-51100003D01*
X26214630Y-51279249D01*
X26214631Y-51279254D01*
X26274211Y-51449523D01*
X26305928Y-51500000D01*
X26370184Y-51602262D01*
X26497738Y-51729816D01*
X26588080Y-51786582D01*
X26620586Y-51807007D01*
X26650478Y-51825789D01*
X26820745Y-51885368D01*
X26820750Y-51885369D01*
X26999996Y-51905565D01*
X27000000Y-51905565D01*
X27000004Y-51905565D01*
X27179249Y-51885369D01*
X27179252Y-51885368D01*
X27179255Y-51885368D01*
X27349522Y-51825789D01*
X27502262Y-51729816D01*
X27629816Y-51602262D01*
X27725789Y-51449522D01*
X27785368Y-51279255D01*
X27791392Y-51225789D01*
X27805565Y-51100003D01*
X27805565Y-51099996D01*
X27785369Y-50920750D01*
X27785368Y-50920745D01*
X27725788Y-50750476D01*
X27629815Y-50597737D01*
X27544759Y-50512681D01*
X27537836Y-50500003D01*
X31194435Y-50500003D01*
X31214630Y-50679249D01*
X31214631Y-50679254D01*
X31274211Y-50849523D01*
X31368763Y-51000000D01*
X31370184Y-51002262D01*
X31497738Y-51129816D01*
X31588080Y-51186582D01*
X31598283Y-51192993D01*
X31650478Y-51225789D01*
X31803258Y-51279249D01*
X31820745Y-51285368D01*
X31820750Y-51285369D01*
X31999996Y-51305565D01*
X32000000Y-51305565D01*
X32000004Y-51305565D01*
X32179249Y-51285369D01*
X32179252Y-51285368D01*
X32179255Y-51285368D01*
X32349522Y-51225789D01*
X32502262Y-51129816D01*
X32629816Y-51002262D01*
X32725789Y-50849522D01*
X32785368Y-50679255D01*
X32794553Y-50597737D01*
X32805565Y-50500003D01*
X32805565Y-50499996D01*
X32785369Y-50320750D01*
X32785368Y-50320745D01*
X32725788Y-50150476D01*
X32629815Y-49997737D01*
X32502262Y-49870184D01*
X32349523Y-49774211D01*
X32179254Y-49714631D01*
X32179249Y-49714630D01*
X32000004Y-49694435D01*
X31999996Y-49694435D01*
X31820750Y-49714630D01*
X31820745Y-49714631D01*
X31650476Y-49774211D01*
X31497737Y-49870184D01*
X31370184Y-49997737D01*
X31274211Y-50150476D01*
X31214631Y-50320745D01*
X31214630Y-50320750D01*
X31194435Y-50499996D01*
X31194435Y-50500003D01*
X27537836Y-50500003D01*
X27511274Y-50451358D01*
X27516258Y-50381666D01*
X27544759Y-50337319D01*
X27582078Y-50300000D01*
X27629816Y-50252262D01*
X27725789Y-50099522D01*
X27785368Y-49929255D01*
X27805565Y-49750000D01*
X27799304Y-49694435D01*
X27785369Y-49570750D01*
X27785368Y-49570745D01*
X27725788Y-49400476D01*
X27629815Y-49247737D01*
X27502262Y-49120184D01*
X27349523Y-49024211D01*
X27179254Y-48964631D01*
X27179249Y-48964630D01*
X27000004Y-48944435D01*
X26999996Y-48944435D01*
X26820750Y-48964630D01*
X26820745Y-48964631D01*
X26650476Y-49024211D01*
X26497737Y-49120184D01*
X26370184Y-49247737D01*
X26274211Y-49400476D01*
X26214631Y-49570745D01*
X26214630Y-49570750D01*
X26194435Y-49749996D01*
X26194435Y-49750003D01*
X26214630Y-49929249D01*
X26214631Y-49929254D01*
X26274211Y-50099523D01*
X26370184Y-50252262D01*
X26455241Y-50337319D01*
X26488726Y-50398642D01*
X26483742Y-50468334D01*
X26455241Y-50512681D01*
X26370184Y-50597737D01*
X26274211Y-50750476D01*
X26214631Y-50920745D01*
X26214630Y-50920750D01*
X26194435Y-51099996D01*
X26194435Y-51100003D01*
X16600500Y-51100003D01*
X16600500Y-42200003D01*
X18594435Y-42200003D01*
X18614630Y-42379249D01*
X18614631Y-42379254D01*
X18674211Y-42549523D01*
X18696735Y-42585369D01*
X18770184Y-42702262D01*
X18897738Y-42829816D01*
X19050478Y-42925789D01*
X19220745Y-42985368D01*
X19307669Y-42995161D01*
X19372080Y-43022226D01*
X19381465Y-43030700D01*
X20388357Y-44037592D01*
X20421842Y-44098915D01*
X20416858Y-44168607D01*
X20374986Y-44224540D01*
X20341631Y-44242314D01*
X20250480Y-44274209D01*
X20097737Y-44370184D01*
X19970184Y-44497737D01*
X19874211Y-44650476D01*
X19814631Y-44820745D01*
X19814630Y-44820750D01*
X19794435Y-44999996D01*
X19794435Y-45000003D01*
X19814630Y-45179249D01*
X19814631Y-45179254D01*
X19874211Y-45349523D01*
X19970184Y-45502262D01*
X20064714Y-45596792D01*
X20098199Y-45658115D01*
X20100253Y-45698355D01*
X20094435Y-45749995D01*
X20094435Y-45750003D01*
X20114630Y-45929249D01*
X20114631Y-45929254D01*
X20174211Y-46099523D01*
X20205614Y-46149500D01*
X20270184Y-46252262D01*
X20397738Y-46379816D01*
X20411323Y-46388352D01*
X20550478Y-46475789D01*
X20719965Y-46535095D01*
X20766691Y-46564455D01*
X21432755Y-47230520D01*
X21432757Y-47230521D01*
X21432761Y-47230524D01*
X21569680Y-47309573D01*
X21569687Y-47309577D01*
X21722414Y-47350501D01*
X21722416Y-47350501D01*
X21888125Y-47350501D01*
X21888141Y-47350500D01*
X35199903Y-47350500D01*
X35266942Y-47370185D01*
X35287584Y-47386819D01*
X40673103Y-52772338D01*
X40706588Y-52833661D01*
X40708642Y-52873902D01*
X40694435Y-52999996D01*
X40694435Y-53000003D01*
X40714630Y-53179249D01*
X40714631Y-53179254D01*
X40774211Y-53349523D01*
X40805926Y-53399996D01*
X40870184Y-53502262D01*
X40997738Y-53629816D01*
X41150478Y-53725789D01*
X41218306Y-53749523D01*
X41320745Y-53785368D01*
X41320750Y-53785369D01*
X41499996Y-53805565D01*
X41500000Y-53805565D01*
X41500004Y-53805565D01*
X41679249Y-53785369D01*
X41679252Y-53785368D01*
X41679255Y-53785368D01*
X41849522Y-53725789D01*
X42002262Y-53629816D01*
X42129816Y-53502262D01*
X42225789Y-53349522D01*
X42285368Y-53179255D01*
X42305565Y-53000000D01*
X42291357Y-52873902D01*
X42285369Y-52820750D01*
X42285368Y-52820745D01*
X42267676Y-52770184D01*
X42225789Y-52650478D01*
X42203265Y-52614632D01*
X42129815Y-52497737D01*
X42002261Y-52370183D01*
X41925723Y-52322091D01*
X41904013Y-52304777D01*
X41864397Y-52265160D01*
X41864374Y-52265139D01*
X41099235Y-51500000D01*
X48644859Y-51500000D01*
X48663107Y-51696941D01*
X48794223Y-51565826D01*
X49350000Y-51565826D01*
X49384075Y-51692993D01*
X49449901Y-51807007D01*
X49542993Y-51900099D01*
X49657007Y-51965925D01*
X49784174Y-52000000D01*
X49915826Y-52000000D01*
X50042993Y-51965925D01*
X50157007Y-51900099D01*
X50250099Y-51807007D01*
X50315925Y-51692993D01*
X50350000Y-51565826D01*
X50350000Y-51500000D01*
X50839949Y-51500000D01*
X51036890Y-51696941D01*
X51055141Y-51499999D01*
X51036891Y-51303057D01*
X50839949Y-51500000D01*
X50350000Y-51500000D01*
X50350000Y-51434174D01*
X50315925Y-51307007D01*
X50250099Y-51192993D01*
X50157007Y-51099901D01*
X50042993Y-51034075D01*
X49915826Y-51000000D01*
X49784174Y-51000000D01*
X49657007Y-51034075D01*
X49542993Y-51099901D01*
X49449901Y-51192993D01*
X49384075Y-51307007D01*
X49350000Y-51434174D01*
X49350000Y-51565826D01*
X48794223Y-51565826D01*
X48860050Y-51499999D01*
X48663107Y-51303056D01*
X48644859Y-51499999D01*
X48644859Y-51500000D01*
X41099235Y-51500000D01*
X39914803Y-50315568D01*
X49655517Y-50315568D01*
X49849999Y-50510050D01*
X50044481Y-50315568D01*
X49961194Y-50300000D01*
X49738806Y-50300000D01*
X49655517Y-50315568D01*
X39914803Y-50315568D01*
X37349238Y-47750003D01*
X45194435Y-47750003D01*
X45214630Y-47929249D01*
X45214631Y-47929254D01*
X45274211Y-48099523D01*
X45370184Y-48252262D01*
X45497738Y-48379816D01*
X45650478Y-48475789D01*
X45820745Y-48535368D01*
X45820750Y-48535369D01*
X45999996Y-48555565D01*
X46000000Y-48555565D01*
X46000004Y-48555565D01*
X46179249Y-48535369D01*
X46179252Y-48535368D01*
X46179255Y-48535368D01*
X46349522Y-48475789D01*
X46502262Y-48379816D01*
X46629816Y-48252262D01*
X46725789Y-48099522D01*
X46785368Y-47929255D01*
X46805565Y-47750000D01*
X46785368Y-47570745D01*
X46725789Y-47400478D01*
X46717206Y-47386819D01*
X46668671Y-47309576D01*
X46629816Y-47247738D01*
X46502262Y-47120184D01*
X46349523Y-47024211D01*
X46179254Y-46964631D01*
X46179249Y-46964630D01*
X46000004Y-46944435D01*
X45999996Y-46944435D01*
X45820750Y-46964630D01*
X45820745Y-46964631D01*
X45650476Y-47024211D01*
X45497737Y-47120184D01*
X45370184Y-47247737D01*
X45274211Y-47400476D01*
X45214631Y-47570745D01*
X45214630Y-47570750D01*
X45194435Y-47749996D01*
X45194435Y-47750003D01*
X37349238Y-47750003D01*
X35987590Y-46388355D01*
X35987588Y-46388352D01*
X35868717Y-46269481D01*
X35868716Y-46269480D01*
X35781904Y-46219360D01*
X35781904Y-46219359D01*
X35781900Y-46219358D01*
X35731785Y-46190423D01*
X35579057Y-46149499D01*
X35420943Y-46149499D01*
X35413347Y-46149499D01*
X35413331Y-46149500D01*
X28624496Y-46149500D01*
X28557457Y-46129815D01*
X28511702Y-46077011D01*
X28501758Y-46007853D01*
X28519503Y-45959527D01*
X28525788Y-45949524D01*
X28529884Y-45937819D01*
X28585368Y-45779255D01*
X28585369Y-45779249D01*
X28605565Y-45600003D01*
X28605565Y-45599996D01*
X28585369Y-45420750D01*
X28585368Y-45420745D01*
X28525788Y-45250476D01*
X28481033Y-45179249D01*
X28429816Y-45097738D01*
X28302262Y-44970184D01*
X28291117Y-44963181D01*
X28149523Y-44874211D01*
X27979254Y-44814631D01*
X27979249Y-44814630D01*
X27800004Y-44794435D01*
X27799996Y-44794435D01*
X27620750Y-44814630D01*
X27620745Y-44814631D01*
X27450476Y-44874211D01*
X27297736Y-44970185D01*
X27294903Y-44972445D01*
X27292724Y-44973334D01*
X27291842Y-44973889D01*
X27291744Y-44973734D01*
X27230217Y-44998855D01*
X27217588Y-44999500D01*
X23100097Y-44999500D01*
X23033058Y-44979815D01*
X23012416Y-44963181D01*
X20230700Y-42181465D01*
X20197215Y-42120142D01*
X20195163Y-42107686D01*
X20185368Y-42020745D01*
X20125789Y-41850478D01*
X20094073Y-41800003D01*
X29594435Y-41800003D01*
X29614630Y-41979249D01*
X29614631Y-41979254D01*
X29674211Y-42149523D01*
X29759569Y-42285368D01*
X29770184Y-42302262D01*
X29897738Y-42429816D01*
X30050478Y-42525789D01*
X30118306Y-42549523D01*
X30220745Y-42585368D01*
X30220750Y-42585369D01*
X30399996Y-42605565D01*
X30400000Y-42605565D01*
X30400004Y-42605565D01*
X30579249Y-42585369D01*
X30579252Y-42585368D01*
X30579255Y-42585368D01*
X30749522Y-42525789D01*
X30902262Y-42429816D01*
X31029816Y-42302262D01*
X31125789Y-42149522D01*
X31185368Y-41979255D01*
X31199985Y-41849523D01*
X31205565Y-41800003D01*
X31205565Y-41799996D01*
X31185369Y-41620750D01*
X31185368Y-41620745D01*
X31167676Y-41570184D01*
X31143119Y-41500003D01*
X46194435Y-41500003D01*
X46214630Y-41679249D01*
X46214631Y-41679254D01*
X46274211Y-41849523D01*
X46355724Y-41979249D01*
X46370184Y-42002262D01*
X46497738Y-42129816D01*
X46650478Y-42225789D01*
X46820745Y-42285368D01*
X46820750Y-42285369D01*
X46999996Y-42305565D01*
X47000000Y-42305565D01*
X47000004Y-42305565D01*
X47179249Y-42285369D01*
X47179252Y-42285368D01*
X47179255Y-42285368D01*
X47349522Y-42225789D01*
X47502262Y-42129816D01*
X47629816Y-42002262D01*
X47725789Y-41849522D01*
X47785368Y-41679255D01*
X47791960Y-41620750D01*
X47805565Y-41500003D01*
X47805565Y-41499996D01*
X47785369Y-41320750D01*
X47785368Y-41320745D01*
X47725789Y-41150478D01*
X47629816Y-40997738D01*
X47502262Y-40870184D01*
X47349523Y-40774211D01*
X47179254Y-40714631D01*
X47179249Y-40714630D01*
X47000004Y-40694435D01*
X46999996Y-40694435D01*
X46820750Y-40714630D01*
X46820745Y-40714631D01*
X46650476Y-40774211D01*
X46497737Y-40870184D01*
X46370184Y-40997737D01*
X46274211Y-41150476D01*
X46214631Y-41320745D01*
X46214630Y-41320750D01*
X46194435Y-41499996D01*
X46194435Y-41500003D01*
X31143119Y-41500003D01*
X31125789Y-41450478D01*
X31103265Y-41414632D01*
X31029815Y-41297737D01*
X30902262Y-41170184D01*
X30749523Y-41074211D01*
X30579254Y-41014631D01*
X30579249Y-41014630D01*
X30400004Y-40994435D01*
X30399996Y-40994435D01*
X30220750Y-41014630D01*
X30220745Y-41014631D01*
X30050476Y-41074211D01*
X29897737Y-41170184D01*
X29770184Y-41297737D01*
X29674211Y-41450476D01*
X29614631Y-41620745D01*
X29614630Y-41620750D01*
X29594435Y-41799996D01*
X29594435Y-41800003D01*
X20094073Y-41800003D01*
X20029816Y-41697738D01*
X19902262Y-41570184D01*
X19790570Y-41500003D01*
X19749523Y-41474211D01*
X19579254Y-41414631D01*
X19579249Y-41414630D01*
X19400004Y-41394435D01*
X19399996Y-41394435D01*
X19220750Y-41414630D01*
X19220745Y-41414631D01*
X19050476Y-41474211D01*
X18897737Y-41570184D01*
X18770184Y-41697737D01*
X18674211Y-41850476D01*
X18614631Y-42020745D01*
X18614630Y-42020750D01*
X18594435Y-42199996D01*
X18594435Y-42200003D01*
X16600500Y-42200003D01*
X16600500Y-38750003D01*
X31194435Y-38750003D01*
X31214630Y-38929249D01*
X31214631Y-38929254D01*
X31274211Y-39099523D01*
X31370184Y-39252262D01*
X31497738Y-39379816D01*
X31650478Y-39475789D01*
X31820745Y-39535368D01*
X31820750Y-39535369D01*
X31999996Y-39555565D01*
X32000000Y-39555565D01*
X32000004Y-39555565D01*
X32179249Y-39535369D01*
X32179252Y-39535368D01*
X32179255Y-39535368D01*
X32349522Y-39475789D01*
X32502262Y-39379816D01*
X32629816Y-39252262D01*
X32725789Y-39099522D01*
X32785368Y-38929255D01*
X32805565Y-38750000D01*
X32785368Y-38570745D01*
X32725789Y-38400478D01*
X32629816Y-38247738D01*
X32502262Y-38120184D01*
X32349523Y-38024211D01*
X32179254Y-37964631D01*
X32179249Y-37964630D01*
X32000004Y-37944435D01*
X31999996Y-37944435D01*
X31820750Y-37964630D01*
X31820745Y-37964631D01*
X31650476Y-38024211D01*
X31497737Y-38120184D01*
X31370184Y-38247737D01*
X31274211Y-38400476D01*
X31214631Y-38570745D01*
X31214630Y-38570750D01*
X31194435Y-38749996D01*
X31194435Y-38750003D01*
X16600500Y-38750003D01*
X16600500Y-37000003D01*
X19094435Y-37000003D01*
X19114630Y-37179249D01*
X19114631Y-37179254D01*
X19174211Y-37349523D01*
X19253549Y-37475788D01*
X19270184Y-37502262D01*
X19397738Y-37629816D01*
X19550478Y-37725789D01*
X19720745Y-37785368D01*
X19720750Y-37785369D01*
X19899996Y-37805565D01*
X19900000Y-37805565D01*
X19900004Y-37805565D01*
X20079249Y-37785369D01*
X20079252Y-37785368D01*
X20079255Y-37785368D01*
X20249522Y-37725789D01*
X20402262Y-37629816D01*
X20529816Y-37502262D01*
X20625789Y-37349522D01*
X20685368Y-37179255D01*
X20691656Y-37123449D01*
X20705565Y-37000003D01*
X20705565Y-36999996D01*
X20685369Y-36820750D01*
X20685368Y-36820745D01*
X20660612Y-36749996D01*
X20625789Y-36650478D01*
X20529816Y-36497738D01*
X20402262Y-36370184D01*
X20319032Y-36317887D01*
X20249523Y-36274211D01*
X20079254Y-36214631D01*
X20079249Y-36214630D01*
X19900004Y-36194435D01*
X19899996Y-36194435D01*
X19720750Y-36214630D01*
X19720745Y-36214631D01*
X19550476Y-36274211D01*
X19397737Y-36370184D01*
X19270184Y-36497737D01*
X19174211Y-36650476D01*
X19114631Y-36820745D01*
X19114630Y-36820750D01*
X19094435Y-36999996D01*
X19094435Y-37000003D01*
X16600500Y-37000003D01*
X16600500Y-35000003D01*
X31694435Y-35000003D01*
X31714630Y-35179249D01*
X31714631Y-35179254D01*
X31774211Y-35349523D01*
X31870184Y-35502262D01*
X31997739Y-35629817D01*
X32079283Y-35681055D01*
X32125573Y-35733389D01*
X32136221Y-35802443D01*
X32118304Y-35852020D01*
X32045202Y-35968360D01*
X31985622Y-36138629D01*
X31985621Y-36138634D01*
X31965426Y-36317880D01*
X31965426Y-36317887D01*
X31985621Y-36497133D01*
X31985622Y-36497138D01*
X32045202Y-36667407D01*
X32097097Y-36749996D01*
X32141175Y-36820146D01*
X32268729Y-36947700D01*
X32421469Y-37043673D01*
X32581076Y-37099522D01*
X32591736Y-37103252D01*
X32591741Y-37103253D01*
X32770987Y-37123449D01*
X32770991Y-37123449D01*
X32770995Y-37123449D01*
X32950240Y-37103253D01*
X32950243Y-37103252D01*
X32950246Y-37103252D01*
X33120513Y-37043673D01*
X33273253Y-36947700D01*
X33400807Y-36820146D01*
X33444881Y-36750003D01*
X39194435Y-36750003D01*
X39214630Y-36929249D01*
X39214631Y-36929254D01*
X39274211Y-37099523D01*
X39370184Y-37252262D01*
X39497738Y-37379816D01*
X39650478Y-37475789D01*
X39820745Y-37535368D01*
X39820750Y-37535369D01*
X39999996Y-37555565D01*
X40000000Y-37555565D01*
X40000004Y-37555565D01*
X40179249Y-37535369D01*
X40179252Y-37535368D01*
X40179255Y-37535368D01*
X40349522Y-37475789D01*
X40502262Y-37379816D01*
X40629816Y-37252262D01*
X40725789Y-37099522D01*
X40785368Y-36929255D01*
X40785369Y-36929249D01*
X40805565Y-36750003D01*
X45944435Y-36750003D01*
X45964630Y-36929249D01*
X45964631Y-36929254D01*
X46024211Y-37099523D01*
X46120184Y-37252262D01*
X46247738Y-37379816D01*
X46400478Y-37475789D01*
X46570745Y-37535368D01*
X46570750Y-37535369D01*
X46749996Y-37555565D01*
X46750000Y-37555565D01*
X46750004Y-37555565D01*
X46929249Y-37535369D01*
X46929252Y-37535368D01*
X46929255Y-37535368D01*
X47099522Y-37475789D01*
X47252262Y-37379816D01*
X47379816Y-37252262D01*
X47475789Y-37099522D01*
X47535368Y-36929255D01*
X47535369Y-36929249D01*
X47555565Y-36750003D01*
X47555565Y-36749996D01*
X47535369Y-36570750D01*
X47535368Y-36570745D01*
X47475788Y-36400476D01*
X47436582Y-36338080D01*
X47379816Y-36247738D01*
X47252262Y-36120184D01*
X47099523Y-36024211D01*
X46929254Y-35964631D01*
X46929249Y-35964630D01*
X46750004Y-35944435D01*
X46749996Y-35944435D01*
X46570750Y-35964630D01*
X46570745Y-35964631D01*
X46400476Y-36024211D01*
X46247737Y-36120184D01*
X46120184Y-36247737D01*
X46024211Y-36400476D01*
X45964631Y-36570745D01*
X45964630Y-36570750D01*
X45944435Y-36749996D01*
X45944435Y-36750003D01*
X40805565Y-36750003D01*
X40805565Y-36749996D01*
X40785369Y-36570750D01*
X40785368Y-36570745D01*
X40725788Y-36400476D01*
X40686582Y-36338080D01*
X40629816Y-36247738D01*
X40502262Y-36120184D01*
X40349523Y-36024211D01*
X40179254Y-35964631D01*
X40179249Y-35964630D01*
X40000004Y-35944435D01*
X39999996Y-35944435D01*
X39820750Y-35964630D01*
X39820745Y-35964631D01*
X39650476Y-36024211D01*
X39497737Y-36120184D01*
X39370184Y-36247737D01*
X39274211Y-36400476D01*
X39214631Y-36570745D01*
X39214630Y-36570750D01*
X39194435Y-36749996D01*
X39194435Y-36750003D01*
X33444881Y-36750003D01*
X33496780Y-36667406D01*
X33556359Y-36497139D01*
X33567250Y-36400478D01*
X33576556Y-36317887D01*
X33576556Y-36317880D01*
X33556360Y-36138634D01*
X33556359Y-36138629D01*
X33496779Y-35968360D01*
X33400806Y-35815621D01*
X33273253Y-35688068D01*
X33191708Y-35636830D01*
X33145417Y-35584495D01*
X33134769Y-35515442D01*
X33152686Y-35465864D01*
X33225789Y-35349522D01*
X33285368Y-35179255D01*
X33305565Y-35000000D01*
X33298285Y-34935388D01*
X33310339Y-34866567D01*
X33357688Y-34815188D01*
X33425298Y-34797563D01*
X33435385Y-34798284D01*
X33461857Y-34801267D01*
X33499998Y-34805565D01*
X33500000Y-34805565D01*
X33500004Y-34805565D01*
X33679249Y-34785369D01*
X33679252Y-34785368D01*
X33679255Y-34785368D01*
X33849522Y-34725789D01*
X34002262Y-34629816D01*
X34129816Y-34502262D01*
X34225789Y-34349522D01*
X34285368Y-34179255D01*
X34305565Y-34000000D01*
X34285368Y-33820745D01*
X34225789Y-33650478D01*
X34129816Y-33497738D01*
X34002262Y-33370184D01*
X33849523Y-33274211D01*
X33679254Y-33214631D01*
X33679249Y-33214630D01*
X33500004Y-33194435D01*
X33499996Y-33194435D01*
X33320750Y-33214630D01*
X33320745Y-33214631D01*
X33150476Y-33274211D01*
X32997737Y-33370184D01*
X32870184Y-33497737D01*
X32774211Y-33650476D01*
X32714631Y-33820745D01*
X32714630Y-33820750D01*
X32694435Y-33999996D01*
X32694435Y-34000004D01*
X32701714Y-34064611D01*
X32689659Y-34133433D01*
X32642310Y-34184812D01*
X32574699Y-34202436D01*
X32564611Y-34201714D01*
X32500004Y-34194435D01*
X32499996Y-34194435D01*
X32320750Y-34214630D01*
X32320745Y-34214631D01*
X32150476Y-34274211D01*
X31997737Y-34370184D01*
X31870184Y-34497737D01*
X31774211Y-34650476D01*
X31714631Y-34820745D01*
X31714630Y-34820750D01*
X31694435Y-34999996D01*
X31694435Y-35000003D01*
X16600500Y-35000003D01*
X16600500Y-31500003D01*
X19214435Y-31500003D01*
X19234630Y-31679249D01*
X19234631Y-31679254D01*
X19294211Y-31849523D01*
X19390184Y-32002262D01*
X19517738Y-32129816D01*
X19670478Y-32225789D01*
X19840745Y-32285368D01*
X19840750Y-32285369D01*
X20019996Y-32305565D01*
X20020000Y-32305565D01*
X20020004Y-32305565D01*
X20199249Y-32285369D01*
X20199252Y-32285368D01*
X20199255Y-32285368D01*
X20369522Y-32225789D01*
X20522262Y-32129816D01*
X20649816Y-32002262D01*
X20745789Y-31849522D01*
X20805368Y-31679255D01*
X20825565Y-31500000D01*
X20805368Y-31320745D01*
X20745789Y-31150478D01*
X20649816Y-30997738D01*
X20522262Y-30870184D01*
X20369523Y-30774211D01*
X20199254Y-30714631D01*
X20199249Y-30714630D01*
X20020004Y-30694435D01*
X20019996Y-30694435D01*
X19840750Y-30714630D01*
X19840745Y-30714631D01*
X19670476Y-30774211D01*
X19517737Y-30870184D01*
X19390184Y-30997737D01*
X19294211Y-31150476D01*
X19234631Y-31320745D01*
X19234630Y-31320750D01*
X19214435Y-31499996D01*
X19214435Y-31500003D01*
X16600500Y-31500003D01*
X16600500Y-29300097D01*
X16620185Y-29233058D01*
X16636819Y-29212416D01*
X17212417Y-28636819D01*
X17273740Y-28603334D01*
X17300098Y-28600500D01*
X33917588Y-28600500D01*
X33984627Y-28620185D01*
X33994903Y-28627555D01*
X33997736Y-28629814D01*
X33997738Y-28629816D01*
X34150478Y-28725789D01*
X34320745Y-28785368D01*
X34320750Y-28785369D01*
X34499996Y-28805565D01*
X34500000Y-28805565D01*
X34500004Y-28805565D01*
X34679249Y-28785369D01*
X34679252Y-28785368D01*
X34679255Y-28785368D01*
X34849522Y-28725789D01*
X35002262Y-28629816D01*
X35129816Y-28502262D01*
X35225789Y-28349522D01*
X35285368Y-28179255D01*
X35305565Y-28000000D01*
X35299961Y-27950264D01*
X35285369Y-27820750D01*
X35285368Y-27820745D01*
X35256618Y-27738583D01*
X35225789Y-27650478D01*
X35129816Y-27497738D01*
X35002262Y-27370184D01*
X34933553Y-27327011D01*
X34849523Y-27274211D01*
X34679254Y-27214631D01*
X34679249Y-27214630D01*
X34500004Y-27194435D01*
X34499996Y-27194435D01*
X34320750Y-27214630D01*
X34320745Y-27214631D01*
X34150476Y-27274211D01*
X33997736Y-27370185D01*
X33994903Y-27372445D01*
X33992724Y-27373334D01*
X33991842Y-27373889D01*
X33991744Y-27373734D01*
X33930217Y-27398855D01*
X33917588Y-27399500D01*
X29261121Y-27399500D01*
X29194082Y-27379815D01*
X29148327Y-27327011D01*
X29138383Y-27257853D01*
X29150121Y-27220228D01*
X29169448Y-27181413D01*
X29169453Y-27181400D01*
X29226967Y-26979264D01*
X29243578Y-26800003D01*
X48044435Y-26800003D01*
X48064630Y-26979249D01*
X48064631Y-26979254D01*
X48124211Y-27149523D01*
X48192280Y-27257853D01*
X48220184Y-27302262D01*
X48347738Y-27429816D01*
X48364619Y-27440423D01*
X48455833Y-27497737D01*
X48500478Y-27525789D01*
X48670745Y-27585368D01*
X48670750Y-27585369D01*
X48849996Y-27605565D01*
X48850000Y-27605565D01*
X48850004Y-27605565D01*
X49029249Y-27585369D01*
X49029252Y-27585368D01*
X49029255Y-27585368D01*
X49199522Y-27525789D01*
X49352262Y-27429816D01*
X49479816Y-27302262D01*
X49575789Y-27149522D01*
X49635368Y-26979255D01*
X49642419Y-26916675D01*
X49655565Y-26800003D01*
X49655565Y-26799996D01*
X49635369Y-26620750D01*
X49635368Y-26620745D01*
X49575789Y-26450478D01*
X49479816Y-26297738D01*
X49352262Y-26170184D01*
X49199523Y-26074211D01*
X49029254Y-26014631D01*
X49029249Y-26014630D01*
X48850004Y-25994435D01*
X48849996Y-25994435D01*
X48670750Y-26014630D01*
X48670745Y-26014631D01*
X48500476Y-26074211D01*
X48347737Y-26170184D01*
X48220184Y-26297737D01*
X48124211Y-26450476D01*
X48064631Y-26620745D01*
X48064630Y-26620750D01*
X48044435Y-26799996D01*
X48044435Y-26800003D01*
X29243578Y-26800003D01*
X29246358Y-26770000D01*
X29246358Y-26769999D01*
X29226967Y-26560735D01*
X29223956Y-26550154D01*
X29223955Y-26550153D01*
X28410930Y-27363181D01*
X28349607Y-27396666D01*
X28323249Y-27399500D01*
X27891751Y-27399500D01*
X27824712Y-27379815D01*
X27804070Y-27363181D01*
X27260917Y-26820028D01*
X27727500Y-26820028D01*
X27753396Y-26916675D01*
X27803424Y-27003325D01*
X27874175Y-27074076D01*
X27960825Y-27124104D01*
X28057472Y-27150000D01*
X28157528Y-27150000D01*
X28254175Y-27124104D01*
X28340825Y-27074076D01*
X28411576Y-27003325D01*
X28461604Y-26916675D01*
X28487500Y-26820028D01*
X28487500Y-26719972D01*
X28461604Y-26623325D01*
X28411576Y-26536675D01*
X28340825Y-26465924D01*
X28254175Y-26415896D01*
X28157528Y-26390000D01*
X28057472Y-26390000D01*
X27960825Y-26415896D01*
X27874175Y-26465924D01*
X27803424Y-26536675D01*
X27753396Y-26623325D01*
X27727500Y-26719972D01*
X27727500Y-26820028D01*
X27260917Y-26820028D01*
X26991043Y-26550154D01*
X26991042Y-26550154D01*
X26988033Y-26560733D01*
X26968642Y-26769999D01*
X26968642Y-26770000D01*
X26988032Y-26979264D01*
X27045546Y-27181400D01*
X27045551Y-27181413D01*
X27064879Y-27220228D01*
X27077140Y-27289014D01*
X27050267Y-27353509D01*
X26992791Y-27393236D01*
X26953879Y-27399500D01*
X26721680Y-27399500D01*
X26654641Y-27379815D01*
X26608886Y-27327011D01*
X26598942Y-27257853D01*
X26610680Y-27220228D01*
X26623523Y-27194435D01*
X26629922Y-27181584D01*
X26687460Y-26979357D01*
X26706860Y-26770000D01*
X26687460Y-26560643D01*
X26629922Y-26358416D01*
X26576186Y-26250500D01*
X26536206Y-26170209D01*
X26536201Y-26170201D01*
X26409495Y-26002415D01*
X26254118Y-25860771D01*
X26254116Y-25860769D01*
X26075359Y-25750089D01*
X26075356Y-25750087D01*
X25879301Y-25674134D01*
X25786770Y-25656837D01*
X27890948Y-25656837D01*
X28107499Y-25873388D01*
X28183017Y-25797870D01*
X34749500Y-25797870D01*
X34749501Y-25797876D01*
X34755908Y-25857483D01*
X34806202Y-25992328D01*
X34806206Y-25992335D01*
X34892452Y-26107544D01*
X34892455Y-26107547D01*
X35007664Y-26193793D01*
X35007671Y-26193797D01*
X35142517Y-26244091D01*
X35142516Y-26244091D01*
X35149444Y-26244835D01*
X35202127Y-26250500D01*
X38797872Y-26250499D01*
X38857483Y-26244091D01*
X38992331Y-26193796D01*
X39107546Y-26107546D01*
X39193796Y-25992331D01*
X39244091Y-25857483D01*
X39250500Y-25797873D01*
X39250500Y-24093567D01*
X41050000Y-24093567D01*
X41086508Y-24277105D01*
X41158121Y-24449994D01*
X41262087Y-24605590D01*
X41394410Y-24737913D01*
X41550006Y-24841879D01*
X41722895Y-24913492D01*
X41906433Y-24950000D01*
X42093567Y-24950000D01*
X42277105Y-24913492D01*
X42449994Y-24841879D01*
X42605590Y-24737913D01*
X42737913Y-24605590D01*
X42841879Y-24449994D01*
X42913492Y-24277105D01*
X42950000Y-24093567D01*
X42950000Y-23906433D01*
X42913492Y-23722895D01*
X42841879Y-23550006D01*
X42737913Y-23394410D01*
X42605590Y-23262087D01*
X42449994Y-23158121D01*
X42277105Y-23086508D01*
X42093567Y-23050000D01*
X41906433Y-23050000D01*
X41722895Y-23086508D01*
X41550006Y-23158121D01*
X41394410Y-23262087D01*
X41262087Y-23394410D01*
X41158121Y-23550006D01*
X41086508Y-23722895D01*
X41050000Y-23906433D01*
X41050000Y-24093567D01*
X39250500Y-24093567D01*
X39250499Y-23000003D01*
X50194435Y-23000003D01*
X50214630Y-23179249D01*
X50214631Y-23179254D01*
X50274211Y-23349523D01*
X50302416Y-23394410D01*
X50370184Y-23502262D01*
X50497738Y-23629816D01*
X50650478Y-23725789D01*
X50702068Y-23743841D01*
X50820745Y-23785368D01*
X50820750Y-23785369D01*
X50999996Y-23805565D01*
X51000000Y-23805565D01*
X51000004Y-23805565D01*
X51179249Y-23785369D01*
X51179252Y-23785368D01*
X51179255Y-23785368D01*
X51349522Y-23725789D01*
X51502262Y-23629816D01*
X51629816Y-23502262D01*
X51725789Y-23349522D01*
X51785368Y-23179255D01*
X51785369Y-23179249D01*
X51805565Y-23000003D01*
X51805565Y-22999996D01*
X51785369Y-22820750D01*
X51785368Y-22820745D01*
X51725788Y-22650476D01*
X51629815Y-22497737D01*
X51502262Y-22370184D01*
X51349523Y-22274211D01*
X51179254Y-22214631D01*
X51179249Y-22214630D01*
X51000004Y-22194435D01*
X50999996Y-22194435D01*
X50820750Y-22214630D01*
X50820745Y-22214631D01*
X50650476Y-22274211D01*
X50497737Y-22370184D01*
X50370184Y-22497737D01*
X50274211Y-22650476D01*
X50214631Y-22820745D01*
X50214630Y-22820750D01*
X50194435Y-22999996D01*
X50194435Y-23000003D01*
X39250499Y-23000003D01*
X39250499Y-22202128D01*
X39244091Y-22142517D01*
X39193796Y-22007669D01*
X39193795Y-22007668D01*
X39193793Y-22007664D01*
X39107547Y-21892455D01*
X39107544Y-21892452D01*
X38992335Y-21806206D01*
X38992328Y-21806202D01*
X38857482Y-21755908D01*
X38857483Y-21755908D01*
X38797883Y-21749501D01*
X38797881Y-21749500D01*
X38797873Y-21749500D01*
X38797864Y-21749500D01*
X35202129Y-21749500D01*
X35202123Y-21749501D01*
X35142516Y-21755908D01*
X35007671Y-21806202D01*
X35007664Y-21806206D01*
X34892455Y-21892452D01*
X34892452Y-21892455D01*
X34806206Y-22007664D01*
X34806202Y-22007671D01*
X34755908Y-22142517D01*
X34750327Y-22194435D01*
X34749501Y-22202123D01*
X34749500Y-22202135D01*
X34749500Y-25797870D01*
X28183017Y-25797870D01*
X28324050Y-25656836D01*
X28212579Y-25636000D01*
X28002421Y-25636000D01*
X27890948Y-25656837D01*
X25786770Y-25656837D01*
X25672627Y-25635500D01*
X25462373Y-25635500D01*
X25255699Y-25674134D01*
X25255696Y-25674134D01*
X25255696Y-25674135D01*
X25059643Y-25750087D01*
X25059640Y-25750089D01*
X24880883Y-25860769D01*
X24880881Y-25860771D01*
X24725504Y-26002415D01*
X24598798Y-26170201D01*
X24598793Y-26170209D01*
X24505079Y-26358412D01*
X24505078Y-26358416D01*
X24454360Y-26536675D01*
X24447539Y-26560647D01*
X24428140Y-26769999D01*
X24428140Y-26770000D01*
X24447539Y-26979352D01*
X24447539Y-26979354D01*
X24447540Y-26979357D01*
X24474490Y-27074076D01*
X24505079Y-27181587D01*
X24524320Y-27220228D01*
X24536581Y-27289014D01*
X24509708Y-27353508D01*
X24452232Y-27393236D01*
X24413320Y-27399500D01*
X24181680Y-27399500D01*
X24114641Y-27379815D01*
X24068886Y-27327011D01*
X24058942Y-27257853D01*
X24070680Y-27220228D01*
X24083523Y-27194435D01*
X24089922Y-27181584D01*
X24147460Y-26979357D01*
X24166860Y-26770000D01*
X24147460Y-26560643D01*
X24089922Y-26358416D01*
X24036186Y-26250500D01*
X23996206Y-26170209D01*
X23996201Y-26170201D01*
X23869495Y-26002415D01*
X23714118Y-25860771D01*
X23714116Y-25860769D01*
X23535359Y-25750089D01*
X23535356Y-25750087D01*
X23339301Y-25674134D01*
X23132627Y-25635500D01*
X22922373Y-25635500D01*
X22715699Y-25674134D01*
X22715696Y-25674134D01*
X22715696Y-25674135D01*
X22519643Y-25750087D01*
X22519640Y-25750089D01*
X22340883Y-25860769D01*
X22340881Y-25860771D01*
X22185504Y-26002415D01*
X22058798Y-26170201D01*
X22058793Y-26170209D01*
X21965079Y-26358412D01*
X21965078Y-26358416D01*
X21914360Y-26536675D01*
X21907539Y-26560647D01*
X21888140Y-26769999D01*
X21888140Y-26770000D01*
X21907539Y-26979352D01*
X21907539Y-26979354D01*
X21907540Y-26979357D01*
X21934490Y-27074076D01*
X21965079Y-27181587D01*
X21984320Y-27220228D01*
X21996581Y-27289014D01*
X21969708Y-27353508D01*
X21912232Y-27393236D01*
X21873320Y-27399500D01*
X21641680Y-27399500D01*
X21574641Y-27379815D01*
X21528886Y-27327011D01*
X21518942Y-27257853D01*
X21530680Y-27220228D01*
X21543523Y-27194435D01*
X21549922Y-27181584D01*
X21607460Y-26979357D01*
X21626860Y-26770000D01*
X21607460Y-26560643D01*
X21549922Y-26358416D01*
X21496186Y-26250500D01*
X21456206Y-26170209D01*
X21456201Y-26170201D01*
X21329495Y-26002415D01*
X21174118Y-25860771D01*
X21174116Y-25860769D01*
X20995359Y-25750089D01*
X20995356Y-25750087D01*
X20799301Y-25674134D01*
X20592627Y-25635500D01*
X20382373Y-25635500D01*
X20175699Y-25674134D01*
X20175696Y-25674134D01*
X20175696Y-25674135D01*
X19979643Y-25750087D01*
X19979640Y-25750089D01*
X19800883Y-25860769D01*
X19800881Y-25860771D01*
X19645504Y-26002415D01*
X19518798Y-26170201D01*
X19518793Y-26170209D01*
X19425079Y-26358412D01*
X19425078Y-26358416D01*
X19374360Y-26536675D01*
X19367539Y-26560647D01*
X19348140Y-26769999D01*
X19348140Y-26770000D01*
X19367539Y-26979352D01*
X19367539Y-26979354D01*
X19367540Y-26979357D01*
X19394490Y-27074076D01*
X19425079Y-27181587D01*
X19444320Y-27220228D01*
X19456581Y-27289014D01*
X19429708Y-27353508D01*
X19372232Y-27393236D01*
X19333320Y-27399500D01*
X17086670Y-27399500D01*
X17086654Y-27399499D01*
X17079058Y-27399499D01*
X16920943Y-27399499D01*
X16844579Y-27419961D01*
X16768214Y-27440423D01*
X16768209Y-27440426D01*
X16631290Y-27519475D01*
X16631282Y-27519481D01*
X16412181Y-27738583D01*
X16350858Y-27772068D01*
X16281166Y-27767084D01*
X16225233Y-27725212D01*
X16200816Y-27659748D01*
X16200500Y-27650902D01*
X16200500Y-25200096D01*
X16220185Y-25133057D01*
X16236815Y-25112419D01*
X16437363Y-24911870D01*
X18083000Y-24911870D01*
X18083001Y-24911876D01*
X18089408Y-24971483D01*
X18139702Y-25106328D01*
X18139706Y-25106335D01*
X18225952Y-25221544D01*
X18225955Y-25221547D01*
X18341164Y-25307793D01*
X18341171Y-25307797D01*
X18476017Y-25358091D01*
X18476016Y-25358091D01*
X18482944Y-25358835D01*
X18535627Y-25364500D01*
X19899372Y-25364499D01*
X19958983Y-25358091D01*
X20093831Y-25307796D01*
X20209046Y-25221546D01*
X20295296Y-25106331D01*
X20345591Y-24971483D01*
X20352000Y-24911873D01*
X20351999Y-24230000D01*
X20618140Y-24230000D01*
X20637539Y-24439352D01*
X20637539Y-24439354D01*
X20637540Y-24439357D01*
X20691730Y-24629816D01*
X20695079Y-24641587D01*
X20788793Y-24829790D01*
X20788798Y-24829798D01*
X20915504Y-24997584D01*
X21070881Y-25139228D01*
X21070883Y-25139230D01*
X21146175Y-25185848D01*
X21249644Y-25249913D01*
X21445699Y-25325866D01*
X21652373Y-25364500D01*
X21652375Y-25364500D01*
X21862625Y-25364500D01*
X21862627Y-25364500D01*
X22069301Y-25325866D01*
X22265356Y-25249913D01*
X22444118Y-25139229D01*
X22599497Y-24997582D01*
X22726203Y-24829796D01*
X22819922Y-24641584D01*
X22877460Y-24439357D01*
X22896860Y-24230000D01*
X23158140Y-24230000D01*
X23177539Y-24439352D01*
X23177539Y-24439354D01*
X23177540Y-24439357D01*
X23231730Y-24629816D01*
X23235079Y-24641587D01*
X23328793Y-24829790D01*
X23328798Y-24829798D01*
X23455504Y-24997584D01*
X23610881Y-25139228D01*
X23610883Y-25139230D01*
X23686175Y-25185848D01*
X23789644Y-25249913D01*
X23985699Y-25325866D01*
X24192373Y-25364500D01*
X24192375Y-25364500D01*
X24402625Y-25364500D01*
X24402627Y-25364500D01*
X24609301Y-25325866D01*
X24805356Y-25249913D01*
X24984118Y-25139229D01*
X25139497Y-24997582D01*
X25266203Y-24829796D01*
X25359922Y-24641584D01*
X25417460Y-24439357D01*
X25436860Y-24230000D01*
X25698140Y-24230000D01*
X25717539Y-24439352D01*
X25717539Y-24439354D01*
X25717540Y-24439357D01*
X25771730Y-24629816D01*
X25775079Y-24641587D01*
X25868793Y-24829790D01*
X25868798Y-24829798D01*
X25995504Y-24997584D01*
X26150881Y-25139228D01*
X26150883Y-25139230D01*
X26226175Y-25185848D01*
X26329644Y-25249913D01*
X26525699Y-25325866D01*
X26732373Y-25364500D01*
X26732375Y-25364500D01*
X26942625Y-25364500D01*
X26942627Y-25364500D01*
X27149301Y-25325866D01*
X27345356Y-25249913D01*
X27524118Y-25139229D01*
X27679497Y-24997582D01*
X27806203Y-24829796D01*
X27899922Y-24641584D01*
X27957460Y-24439357D01*
X27976860Y-24230000D01*
X27957460Y-24020643D01*
X27899922Y-23818416D01*
X27891059Y-23800617D01*
X27806206Y-23630209D01*
X27806201Y-23630201D01*
X27679495Y-23462415D01*
X27524118Y-23320771D01*
X27524116Y-23320769D01*
X27345359Y-23210089D01*
X27345356Y-23210087D01*
X27265755Y-23179249D01*
X27149301Y-23134134D01*
X26942627Y-23095500D01*
X26732373Y-23095500D01*
X26525699Y-23134134D01*
X26525696Y-23134134D01*
X26525696Y-23134135D01*
X26329643Y-23210087D01*
X26329640Y-23210089D01*
X26150883Y-23320769D01*
X26150881Y-23320771D01*
X25995504Y-23462415D01*
X25868798Y-23630201D01*
X25868793Y-23630209D01*
X25775079Y-23818412D01*
X25717539Y-24020647D01*
X25698140Y-24229999D01*
X25698140Y-24230000D01*
X25436860Y-24230000D01*
X25417460Y-24020643D01*
X25359922Y-23818416D01*
X25351059Y-23800617D01*
X25266206Y-23630209D01*
X25266201Y-23630201D01*
X25139495Y-23462415D01*
X24984118Y-23320771D01*
X24984116Y-23320769D01*
X24805359Y-23210089D01*
X24805356Y-23210087D01*
X24725755Y-23179249D01*
X24609301Y-23134134D01*
X24402627Y-23095500D01*
X24192373Y-23095500D01*
X23985699Y-23134134D01*
X23985696Y-23134134D01*
X23985696Y-23134135D01*
X23789643Y-23210087D01*
X23789640Y-23210089D01*
X23610883Y-23320769D01*
X23610881Y-23320771D01*
X23455504Y-23462415D01*
X23328798Y-23630201D01*
X23328793Y-23630209D01*
X23235079Y-23818412D01*
X23177539Y-24020647D01*
X23158140Y-24229999D01*
X23158140Y-24230000D01*
X22896860Y-24230000D01*
X22877460Y-24020643D01*
X22819922Y-23818416D01*
X22811059Y-23800617D01*
X22726206Y-23630209D01*
X22726201Y-23630201D01*
X22599495Y-23462415D01*
X22444118Y-23320771D01*
X22444116Y-23320769D01*
X22265359Y-23210089D01*
X22265356Y-23210087D01*
X22185755Y-23179249D01*
X22069301Y-23134134D01*
X21862627Y-23095500D01*
X21652373Y-23095500D01*
X21445699Y-23134134D01*
X21445696Y-23134134D01*
X21445696Y-23134135D01*
X21249643Y-23210087D01*
X21249640Y-23210089D01*
X21070883Y-23320769D01*
X21070881Y-23320771D01*
X20915504Y-23462415D01*
X20788798Y-23630201D01*
X20788793Y-23630209D01*
X20695079Y-23818412D01*
X20637539Y-24020647D01*
X20618140Y-24229999D01*
X20618140Y-24230000D01*
X20351999Y-24230000D01*
X20351999Y-23548128D01*
X20345591Y-23488517D01*
X20310491Y-23394410D01*
X20295297Y-23353671D01*
X20295293Y-23353664D01*
X20209047Y-23238455D01*
X20209044Y-23238452D01*
X20093835Y-23152206D01*
X20093828Y-23152202D01*
X19958982Y-23101908D01*
X19958983Y-23101908D01*
X19899383Y-23095501D01*
X19899381Y-23095500D01*
X19899373Y-23095500D01*
X19899364Y-23095500D01*
X18535629Y-23095500D01*
X18535623Y-23095501D01*
X18476016Y-23101908D01*
X18341171Y-23152202D01*
X18341164Y-23152206D01*
X18225955Y-23238452D01*
X18225952Y-23238455D01*
X18139706Y-23353664D01*
X18139702Y-23353671D01*
X18089408Y-23488517D01*
X18083001Y-23548116D01*
X18083001Y-23548123D01*
X18083000Y-23548135D01*
X18083000Y-24911870D01*
X16437363Y-24911870D01*
X16518535Y-24830698D01*
X16579856Y-24797215D01*
X16592311Y-24795163D01*
X16679255Y-24785368D01*
X16849522Y-24725789D01*
X17002262Y-24629816D01*
X17129816Y-24502262D01*
X17225789Y-24349522D01*
X17285368Y-24179255D01*
X17285369Y-24179249D01*
X17305565Y-24000003D01*
X17305565Y-23999996D01*
X17285369Y-23820750D01*
X17285368Y-23820745D01*
X17251129Y-23722895D01*
X17225789Y-23650478D01*
X17129816Y-23497738D01*
X17002262Y-23370184D01*
X16923619Y-23320769D01*
X16849523Y-23274211D01*
X16679254Y-23214631D01*
X16679249Y-23214630D01*
X16500004Y-23194435D01*
X16499996Y-23194435D01*
X16320750Y-23214630D01*
X16320745Y-23214631D01*
X16150476Y-23274211D01*
X15997737Y-23370184D01*
X15870184Y-23497737D01*
X15774210Y-23650478D01*
X15741542Y-23743841D01*
X15700820Y-23800617D01*
X15635868Y-23826365D01*
X15567306Y-23812909D01*
X15516903Y-23764522D01*
X15500500Y-23702887D01*
X15500500Y-18006211D01*
X16021000Y-18006211D01*
X16053946Y-18256451D01*
X16119273Y-18500258D01*
X16215863Y-18733447D01*
X16215872Y-18733464D01*
X16342066Y-18952041D01*
X16342068Y-18952045D01*
X16495727Y-19152294D01*
X16495735Y-19152303D01*
X16674197Y-19330765D01*
X16674205Y-19330772D01*
X16874454Y-19484431D01*
X16874458Y-19484433D01*
X17093035Y-19610627D01*
X17093052Y-19610636D01*
X17222258Y-19664154D01*
X17326240Y-19707226D01*
X17570048Y-19772554D01*
X17820296Y-19805500D01*
X17820303Y-19805500D01*
X18072697Y-19805500D01*
X18072704Y-19805500D01*
X18322952Y-19772554D01*
X18566760Y-19707226D01*
X18799954Y-19610633D01*
X19018541Y-19484433D01*
X19018545Y-19484431D01*
X19082282Y-19435523D01*
X19218794Y-19330773D01*
X19218798Y-19330768D01*
X19218803Y-19330765D01*
X19397265Y-19152303D01*
X19397268Y-19152298D01*
X19397273Y-19152294D01*
X19550930Y-18952046D01*
X19677133Y-18733454D01*
X19773726Y-18500260D01*
X19839054Y-18256452D01*
X19871999Y-18006211D01*
X27453000Y-18006211D01*
X27485946Y-18256451D01*
X27551273Y-18500258D01*
X27647863Y-18733447D01*
X27647872Y-18733464D01*
X27774066Y-18952041D01*
X27774068Y-18952045D01*
X27927727Y-19152294D01*
X27927735Y-19152303D01*
X28106197Y-19330765D01*
X28106205Y-19330772D01*
X28306454Y-19484431D01*
X28306458Y-19484433D01*
X28525035Y-19610627D01*
X28525052Y-19610636D01*
X28654258Y-19664154D01*
X28758240Y-19707226D01*
X29002048Y-19772554D01*
X29252296Y-19805500D01*
X29252303Y-19805500D01*
X29504697Y-19805500D01*
X29504704Y-19805500D01*
X29754952Y-19772554D01*
X29998760Y-19707226D01*
X30231954Y-19610633D01*
X30450541Y-19484433D01*
X30450545Y-19484431D01*
X30514282Y-19435523D01*
X30650794Y-19330773D01*
X30650798Y-19330768D01*
X30650803Y-19330765D01*
X30829265Y-19152303D01*
X30829268Y-19152298D01*
X30829273Y-19152294D01*
X30946133Y-19000000D01*
X32794357Y-19000000D01*
X32814884Y-19221535D01*
X32814885Y-19221537D01*
X32875769Y-19435523D01*
X32875775Y-19435538D01*
X32974938Y-19634683D01*
X32974943Y-19634691D01*
X33109020Y-19812238D01*
X33273437Y-19962123D01*
X33273439Y-19962125D01*
X33462595Y-20079245D01*
X33462596Y-20079245D01*
X33462599Y-20079247D01*
X33670060Y-20159618D01*
X33888757Y-20200500D01*
X33888759Y-20200500D01*
X34111241Y-20200500D01*
X34111243Y-20200500D01*
X34329940Y-20159618D01*
X34537401Y-20079247D01*
X34726562Y-19962124D01*
X34890981Y-19812236D01*
X35025058Y-19634689D01*
X35124229Y-19435528D01*
X35185115Y-19221536D01*
X35205643Y-19000000D01*
X43794357Y-19000000D01*
X43814884Y-19221535D01*
X43814885Y-19221537D01*
X43875769Y-19435523D01*
X43875775Y-19435538D01*
X43974938Y-19634683D01*
X43974943Y-19634691D01*
X44109020Y-19812238D01*
X44273437Y-19962123D01*
X44273439Y-19962125D01*
X44462595Y-20079245D01*
X44462596Y-20079245D01*
X44462599Y-20079247D01*
X44670060Y-20159618D01*
X44888757Y-20200500D01*
X44888759Y-20200500D01*
X45111241Y-20200500D01*
X45111243Y-20200500D01*
X45329940Y-20159618D01*
X45537401Y-20079247D01*
X45726562Y-19962124D01*
X45890981Y-19812236D01*
X46025058Y-19634689D01*
X46124229Y-19435528D01*
X46185115Y-19221536D01*
X46205643Y-19000000D01*
X46201199Y-18952046D01*
X46185115Y-18778464D01*
X46185114Y-18778462D01*
X46172308Y-18733454D01*
X46124229Y-18564472D01*
X46113823Y-18543574D01*
X46025061Y-18365316D01*
X46025056Y-18365308D01*
X45906182Y-18207893D01*
X48799999Y-18207893D01*
X48827085Y-18378905D01*
X48880589Y-18543574D01*
X48959195Y-18697846D01*
X49060966Y-18837923D01*
X49183397Y-18960354D01*
X49323474Y-19062125D01*
X49477746Y-19140731D01*
X49642415Y-19194235D01*
X49813427Y-19221321D01*
X49986571Y-19221321D01*
X50157583Y-19194235D01*
X50322252Y-19140731D01*
X50476524Y-19062125D01*
X50616601Y-18960354D01*
X50739032Y-18837923D01*
X50840803Y-18697846D01*
X50919409Y-18543574D01*
X50972913Y-18378905D01*
X50999999Y-18207893D01*
X50999999Y-18034749D01*
X50972913Y-17863737D01*
X50919409Y-17699068D01*
X50840803Y-17544796D01*
X50739032Y-17404719D01*
X50616601Y-17282288D01*
X50476524Y-17180517D01*
X50322252Y-17101911D01*
X50157583Y-17048407D01*
X49986571Y-17021321D01*
X49813427Y-17021321D01*
X49642415Y-17048407D01*
X49477746Y-17101911D01*
X49323474Y-17180517D01*
X49183397Y-17282288D01*
X49060966Y-17404719D01*
X48959195Y-17544796D01*
X48880589Y-17699068D01*
X48827085Y-17863737D01*
X48799999Y-18034749D01*
X48799999Y-18207893D01*
X45906182Y-18207893D01*
X45890979Y-18187761D01*
X45726562Y-18037876D01*
X45726560Y-18037874D01*
X45537404Y-17920754D01*
X45537398Y-17920752D01*
X45329940Y-17840382D01*
X45111243Y-17799500D01*
X44888757Y-17799500D01*
X44670060Y-17840382D01*
X44609774Y-17863737D01*
X44462601Y-17920752D01*
X44462595Y-17920754D01*
X44273439Y-18037874D01*
X44273437Y-18037876D01*
X44109020Y-18187761D01*
X43974943Y-18365308D01*
X43974938Y-18365316D01*
X43875775Y-18564461D01*
X43875769Y-18564476D01*
X43814885Y-18778462D01*
X43814884Y-18778464D01*
X43794357Y-18999999D01*
X43794357Y-19000000D01*
X35205643Y-19000000D01*
X35201199Y-18952046D01*
X35185115Y-18778464D01*
X35185114Y-18778462D01*
X35172308Y-18733454D01*
X35124229Y-18564472D01*
X35113823Y-18543574D01*
X35025061Y-18365316D01*
X35025056Y-18365308D01*
X34890979Y-18187761D01*
X34726562Y-18037876D01*
X34726560Y-18037874D01*
X34537404Y-17920754D01*
X34537398Y-17920752D01*
X34329940Y-17840382D01*
X34111243Y-17799500D01*
X33888757Y-17799500D01*
X33670060Y-17840382D01*
X33609774Y-17863737D01*
X33462601Y-17920752D01*
X33462595Y-17920754D01*
X33273439Y-18037874D01*
X33273437Y-18037876D01*
X33109020Y-18187761D01*
X32974943Y-18365308D01*
X32974938Y-18365316D01*
X32875775Y-18564461D01*
X32875769Y-18564476D01*
X32814885Y-18778462D01*
X32814884Y-18778464D01*
X32794357Y-18999999D01*
X32794357Y-19000000D01*
X30946133Y-19000000D01*
X30982930Y-18952046D01*
X31109133Y-18733454D01*
X31205726Y-18500260D01*
X31271054Y-18256452D01*
X31304000Y-18006204D01*
X31304000Y-17753796D01*
X31271054Y-17503548D01*
X31205726Y-17259740D01*
X31145219Y-17113665D01*
X31109136Y-17026552D01*
X31109127Y-17026535D01*
X30982933Y-16807958D01*
X30982931Y-16807954D01*
X30829272Y-16607705D01*
X30829265Y-16607697D01*
X30650803Y-16429235D01*
X30650794Y-16429227D01*
X30450545Y-16275568D01*
X30450541Y-16275566D01*
X30231964Y-16149372D01*
X30231947Y-16149363D01*
X29998758Y-16052773D01*
X29844190Y-16011357D01*
X29754952Y-15987446D01*
X29723671Y-15983327D01*
X29504711Y-15954500D01*
X29504704Y-15954500D01*
X29252296Y-15954500D01*
X29252288Y-15954500D01*
X29002048Y-15987446D01*
X28758241Y-16052773D01*
X28525052Y-16149363D01*
X28525035Y-16149372D01*
X28306458Y-16275566D01*
X28306454Y-16275568D01*
X28106205Y-16429227D01*
X27927727Y-16607705D01*
X27774068Y-16807954D01*
X27774066Y-16807958D01*
X27647872Y-17026535D01*
X27647863Y-17026552D01*
X27551273Y-17259741D01*
X27485946Y-17503548D01*
X27453000Y-17753788D01*
X27453000Y-18006211D01*
X19871999Y-18006211D01*
X19872000Y-18006204D01*
X19872000Y-17753796D01*
X19839054Y-17503548D01*
X19773726Y-17259740D01*
X19713219Y-17113665D01*
X19677136Y-17026552D01*
X19677127Y-17026535D01*
X19550933Y-16807958D01*
X19550931Y-16807954D01*
X19397272Y-16607705D01*
X19397265Y-16607697D01*
X19218803Y-16429235D01*
X19218794Y-16429227D01*
X19018545Y-16275568D01*
X19018541Y-16275566D01*
X18799964Y-16149372D01*
X18799947Y-16149363D01*
X18566758Y-16052773D01*
X18412190Y-16011357D01*
X18322952Y-15987446D01*
X18291671Y-15983327D01*
X18072711Y-15954500D01*
X18072704Y-15954500D01*
X17820296Y-15954500D01*
X17820288Y-15954500D01*
X17570048Y-15987446D01*
X17326241Y-16052773D01*
X17093052Y-16149363D01*
X17093035Y-16149372D01*
X16874458Y-16275566D01*
X16874454Y-16275568D01*
X16674205Y-16429227D01*
X16495727Y-16607705D01*
X16342068Y-16807954D01*
X16342066Y-16807958D01*
X16215872Y-17026535D01*
X16215863Y-17026552D01*
X16119273Y-17259741D01*
X16053946Y-17503548D01*
X16021000Y-17753788D01*
X16021000Y-18006211D01*
X15500500Y-18006211D01*
X15500500Y-18003750D01*
X15500726Y-17996263D01*
X15505293Y-17920754D01*
X15518271Y-17706201D01*
X15520076Y-17691340D01*
X15571780Y-17409201D01*
X15575364Y-17394663D01*
X15660696Y-17120822D01*
X15665998Y-17106841D01*
X15783731Y-16845249D01*
X15790676Y-16832016D01*
X15939080Y-16586526D01*
X15947567Y-16574230D01*
X16124480Y-16348417D01*
X16134395Y-16337226D01*
X16337226Y-16134395D01*
X16348417Y-16124480D01*
X16574230Y-15947567D01*
X16586526Y-15939080D01*
X16832016Y-15790676D01*
X16845249Y-15783731D01*
X17106841Y-15665998D01*
X17120822Y-15660696D01*
X17394668Y-15575362D01*
X17409197Y-15571780D01*
X17691344Y-15520075D01*
X17706201Y-15518271D01*
X17996264Y-15500726D01*
X18003751Y-15500500D01*
X18065892Y-15500500D01*
X49834108Y-15500500D01*
X49896519Y-15500500D01*
X49903471Y-15500695D01*
G37*
%TD.AperFunction*%
%TD*%
M02*
