%TF.GenerationSoftware,KiCad,Pcbnew,8.0.1-8.0.1-1~ubuntu22.04.1*%
%TF.CreationDate,2024-04-21T23:11:14-04:00*%
%TF.ProjectId,arm_drive_j2,61726d5f-6472-4697-9665-5f6a322e6b69,rev?*%
%TF.SameCoordinates,Original*%
%TF.FileFunction,Paste,Top*%
%TF.FilePolarity,Positive*%
%FSLAX46Y46*%
G04 Gerber Fmt 4.6, Leading zero omitted, Abs format (unit mm)*
G04 Created by KiCad (PCBNEW 8.0.1-8.0.1-1~ubuntu22.04.1) date 2024-04-21 23:11:14*
%MOMM*%
%LPD*%
G01*
G04 APERTURE LIST*
G04 Aperture macros list*
%AMRoundRect*
0 Rectangle with rounded corners*
0 $1 Rounding radius*
0 $2 $3 $4 $5 $6 $7 $8 $9 X,Y pos of 4 corners*
0 Add a 4 corners polygon primitive as box body*
4,1,4,$2,$3,$4,$5,$6,$7,$8,$9,$2,$3,0*
0 Add four circle primitives for the rounded corners*
1,1,$1+$1,$2,$3*
1,1,$1+$1,$4,$5*
1,1,$1+$1,$6,$7*
1,1,$1+$1,$8,$9*
0 Add four rect primitives between the rounded corners*
20,1,$1+$1,$2,$3,$4,$5,0*
20,1,$1+$1,$4,$5,$6,$7,0*
20,1,$1+$1,$6,$7,$8,$9,0*
20,1,$1+$1,$8,$9,$2,$3,0*%
G04 Aperture macros list end*
%ADD10RoundRect,0.250000X-0.350000X-0.450000X0.350000X-0.450000X0.350000X0.450000X-0.350000X0.450000X0*%
%ADD11RoundRect,0.250000X0.337500X0.475000X-0.337500X0.475000X-0.337500X-0.475000X0.337500X-0.475000X0*%
%ADD12RoundRect,0.250000X0.325000X0.450000X-0.325000X0.450000X-0.325000X-0.450000X0.325000X-0.450000X0*%
%ADD13RoundRect,0.250000X0.350000X0.450000X-0.350000X0.450000X-0.350000X-0.450000X0.350000X-0.450000X0*%
%ADD14R,3.911600X1.803400*%
%ADD15R,4.495800X1.295400*%
%ADD16R,0.609600X1.511300*%
%ADD17R,1.511300X0.609600*%
%ADD18R,0.900000X0.900000*%
%ADD19R,0.900000X1.500000*%
%ADD20R,1.500000X0.900000*%
%ADD21RoundRect,0.041300X0.253700X-1.228700X0.253700X1.228700X-0.253700X1.228700X-0.253700X-1.228700X0*%
%ADD22RoundRect,0.041300X0.253700X-1.103700X0.253700X1.103700X-0.253700X1.103700X-0.253700X-1.103700X0*%
%ADD23RoundRect,0.150000X-1.225000X-0.150000X1.225000X-0.150000X1.225000X0.150000X-1.225000X0.150000X0*%
%ADD24RoundRect,0.150000X-1.100000X-0.150000X1.100000X-0.150000X1.100000X0.150000X-1.100000X0.150000X0*%
%ADD25RoundRect,0.250000X-0.450000X0.350000X-0.450000X-0.350000X0.450000X-0.350000X0.450000X0.350000X0*%
%ADD26RoundRect,0.100000X-0.575000X0.100000X-0.575000X-0.100000X0.575000X-0.100000X0.575000X0.100000X0*%
%ADD27O,1.600000X0.900000*%
%ADD28RoundRect,0.250000X-0.450000X0.550000X-0.450000X-0.550000X0.450000X-0.550000X0.450000X0.550000X0*%
%ADD29RoundRect,0.250000X-0.700000X0.700000X-0.700000X-0.700000X0.700000X-0.700000X0.700000X0.700000X0*%
%ADD30RoundRect,0.250000X-0.337500X-0.475000X0.337500X-0.475000X0.337500X0.475000X-0.337500X0.475000X0*%
%ADD31R,2.704600X1.549400*%
%ADD32R,2.704600X1.524700*%
G04 APERTURE END LIST*
D10*
%TO.C,R4*%
X49000000Y-21500000D03*
X51000000Y-21500000D03*
%TD*%
D11*
%TO.C,C19*%
X25537500Y-50500000D03*
X23462500Y-50500000D03*
%TD*%
D12*
%TO.C,D1*%
X51025000Y-74000000D03*
X48975000Y-74000000D03*
%TD*%
D13*
%TO.C,R6*%
X32500000Y-58500000D03*
X30500000Y-58500000D03*
%TD*%
D14*
%TO.C,J4*%
X50500000Y-47500000D03*
X50500000Y-28600002D03*
D15*
X43700000Y-44300001D03*
X43700000Y-41800001D03*
X43700000Y-39300001D03*
X43700000Y-36800001D03*
X43700000Y-34300001D03*
X43700000Y-31800001D03*
%TD*%
D16*
%TO.C,SW3*%
X38500000Y-29000000D03*
X38500000Y-36607300D03*
%TD*%
D17*
%TO.C,SW2*%
X34303650Y-55000000D03*
X26696350Y-55000000D03*
%TD*%
D18*
%TO.C,U6*%
X23200000Y-41300000D03*
X24600000Y-41300000D03*
X26000000Y-41300000D03*
X23200000Y-39900000D03*
X24600000Y-39900000D03*
X26000000Y-39900000D03*
X23200000Y-38500000D03*
X24600000Y-38500000D03*
X26000000Y-38500000D03*
D19*
X16880000Y-47150000D03*
X18150000Y-47150000D03*
X19420000Y-47150000D03*
X20690000Y-47150000D03*
X21960000Y-47150000D03*
X23230000Y-47150000D03*
X24500000Y-47150000D03*
X25770000Y-47150000D03*
X27040000Y-47150000D03*
X28310000Y-47150000D03*
X29580000Y-47150000D03*
X30850000Y-47150000D03*
X32120000Y-47150000D03*
X33390000Y-47150000D03*
D20*
X34640000Y-45385000D03*
X34640000Y-44115000D03*
X34640000Y-42845000D03*
X34640000Y-41575000D03*
X34640000Y-40305000D03*
X34640000Y-39035000D03*
X34640000Y-37765000D03*
X34640000Y-36495000D03*
X34640000Y-35225000D03*
X34640000Y-33955000D03*
X34640000Y-32685000D03*
X34640000Y-31415000D03*
D19*
X33390000Y-29650000D03*
X32120000Y-29650000D03*
X30850000Y-29650000D03*
X29580000Y-29650000D03*
X28310000Y-29650000D03*
X27040000Y-29650000D03*
X25770000Y-29650000D03*
X24500000Y-29650000D03*
X23230000Y-29650000D03*
X21960000Y-29650000D03*
X20690000Y-29650000D03*
X19420000Y-29650000D03*
X18150000Y-29650000D03*
X16880000Y-29650000D03*
%TD*%
D17*
%TO.C,SW1*%
X16696350Y-55000000D03*
X24303650Y-55000000D03*
%TD*%
D12*
%TO.C,D2*%
X51025000Y-70000000D03*
X48975000Y-70000000D03*
%TD*%
D13*
%TO.C,R13*%
X30500000Y-50500000D03*
X28500000Y-50500000D03*
%TD*%
D21*
%TO.C,U2*%
X22095000Y-79980000D03*
X23365000Y-79980000D03*
X24635000Y-79980000D03*
X25905000Y-79980000D03*
D22*
X25905000Y-74145000D03*
X24635000Y-74145000D03*
X23365000Y-74145000D03*
X22095000Y-74145000D03*
%TD*%
D13*
%TO.C,R3*%
X51000000Y-25000000D03*
X49000000Y-25000000D03*
%TD*%
D16*
%TO.C,SW5*%
X38500000Y-50000000D03*
X38500000Y-57607300D03*
%TD*%
%TO.C,SW4*%
X38500000Y-47107300D03*
X38500000Y-39500000D03*
%TD*%
D11*
%TO.C,C17*%
X18537500Y-51500000D03*
X16462500Y-51500000D03*
%TD*%
D23*
%TO.C,U1*%
X23625000Y-61095000D03*
X23625000Y-62365000D03*
X23625000Y-63635000D03*
X23625000Y-64905000D03*
D24*
X29250000Y-64905000D03*
X29250000Y-63635000D03*
X29250000Y-62365000D03*
X29250000Y-61095000D03*
%TD*%
D25*
%TO.C,R5*%
X51500000Y-65500000D03*
X51500000Y-67500000D03*
%TD*%
D11*
%TO.C,C18*%
X18537500Y-49500000D03*
X16462500Y-49500000D03*
%TD*%
D26*
%TO.C,J1*%
X19500000Y-61000000D03*
X19500000Y-61650000D03*
X19500000Y-62300000D03*
X19500000Y-62950000D03*
X19500000Y-63600000D03*
D27*
X16825000Y-59000000D03*
D28*
X19275000Y-59100000D03*
D29*
X16825000Y-61100000D03*
X16825000Y-63500000D03*
D28*
X19275000Y-65500000D03*
D27*
X16825000Y-65600000D03*
%TD*%
D30*
%TO.C,C5*%
X17500000Y-22000000D03*
X19575000Y-22000000D03*
%TD*%
D31*
%TO.C,D3*%
X33852300Y-61900002D03*
D32*
X33852300Y-63987650D03*
D31*
X33852300Y-66100001D03*
X39147700Y-66099998D03*
X39147700Y-64000000D03*
X39147700Y-61899999D03*
%TD*%
D30*
%TO.C,C4*%
X27962500Y-81000000D03*
X30037500Y-81000000D03*
%TD*%
D11*
%TO.C,C3*%
X20037500Y-81000000D03*
X17962500Y-81000000D03*
%TD*%
M02*
