M48
; DRILL file {KiCad 8.0.1-8.0.1-1~ubuntu22.04.1} date 2024-04-21T23:11:17-0400
; FORMAT={-:-/ absolute / metric / decimal}
; #@! TF.CreationDate,2024-04-21T23:11:17-04:00
; #@! TF.GenerationSoftware,Kicad,Pcbnew,8.0.1-8.0.1-1~ubuntu22.04.1
; #@! TF.FileFunction,Plated,1,4,PTH
FMAT,2
METRIC
; #@! TA.AperFunction,Plated,PTH,ViaDrill
T1C0.300
; #@! TA.AperFunction,Plated,PTH,ComponentDrill
T2C0.500
; #@! TA.AperFunction,Plated,PTH,ComponentDrill
T3C0.760
; #@! TA.AperFunction,Plated,PTH,ComponentDrill
T4C1.000
; #@! TA.AperFunction,Plated,PTH,ComponentDrill
T5C1.200
; #@! TA.AperFunction,Plated,PTH,ComponentDrill
T6C1.900
; #@! TA.AperFunction,Plated,PTH,ComponentDrill
T7C2.200
%
G90
G05
T1
X16.0Y-67.0
X16.5Y-24.0
X17.5Y-32.0
X17.5Y-48.5
X17.5Y-50.5
X18.0Y-55.5
X18.5Y-71.5
X18.5Y-72.5
X19.4Y-42.2
X19.9Y-37.0
X20.02Y-31.5
X20.128Y-48.91
X20.4Y-58.0
X20.5Y-65.5
X20.6Y-45.0
X20.9Y-45.75
X21.0Y-53.4
X21.0Y-64.0
X21.0Y-79.0
X21.189Y-48.932
X21.875Y-70.168
X22.0Y-31.5
X22.0Y-49.5
X22.578Y-77.922
X23.002Y-66.893
X23.16Y-69.565
X23.5Y-38.5
X23.603Y-78.099
X24.5Y-78.1
X25.304Y-66.9
X26.0Y-64.0
X26.0Y-65.0
X26.0Y-66.0
X26.792Y-70.129
X27.0Y-49.75
X27.0Y-51.1
X27.0Y-63.0
X27.0Y-64.0
X27.0Y-65.0
X27.0Y-66.0
X27.232Y-61.5
X27.8Y-45.6
X28.0Y-55.0
X30.2Y-66.2
X30.4Y-41.8
X32.0Y-38.75
X32.0Y-50.5
X32.0Y-65.5
X32.0Y-79.5
X32.5Y-35.0
X32.771Y-36.318
X33.5Y-34.0
X34.5Y-28.0
X38.5Y-27.5
X38.5Y-38.0
X39.5Y-74.5
X39.5Y-75.5
X39.5Y-76.5
X39.5Y-77.5
X39.5Y-78.5
X40.0Y-36.75
X40.5Y-74.5
X40.5Y-75.5
X40.5Y-76.5
X40.5Y-77.5
X40.5Y-78.5
X41.463Y-51.537
X41.5Y-53.0
X41.5Y-74.5
X41.5Y-75.5
X41.5Y-76.5
X41.5Y-77.5
X41.5Y-78.5
X42.5Y-74.5
X42.5Y-75.5
X42.5Y-76.5
X42.5Y-77.5
X42.5Y-78.5
X43.5Y-74.5
X43.5Y-75.5
X43.5Y-76.5
X43.5Y-77.5
X43.5Y-78.5
X44.5Y-74.5
X44.5Y-75.5
X44.5Y-76.5
X44.5Y-77.5
X44.5Y-78.5
X46.0Y-47.75
X46.75Y-36.75
X47.0Y-41.5
X48.0Y-77.0
X48.85Y-26.8
X49.5Y-71.5
X50.0Y-68.0
X50.0Y-73.0
X50.5Y-30.25
X50.5Y-45.5
X51.0Y-23.0
T3
X19.217Y-24.23
X19.343Y-68.625
X20.488Y-26.77
X20.613Y-71.165
X21.758Y-24.23
X21.883Y-68.625
X23.027Y-26.77
X23.153Y-71.165
X24.297Y-24.23
X24.423Y-68.625
X25.567Y-26.77
X25.693Y-71.165
X26.837Y-24.23
X26.963Y-68.625
X28.107Y-26.77
X28.233Y-71.165
T4
X34.0Y-19.0
X34.0Y-80.665
X45.0Y-19.0
X45.0Y-80.665
X49.85Y-51.5
X49.85Y-62.5
T5
X43.5Y-66.0
X48.5Y-66.0
T6
X37.0Y-24.0
X37.0Y-70.665
X42.0Y-24.0
X42.0Y-70.665
X44.85Y-54.5
X44.85Y-59.5
T7
X49.9Y-18.121
X50.0Y-79.5
T2
X16.475Y-59.0G85X17.175Y-59.0
G05
X16.475Y-65.6G85X17.175Y-65.6
G05
M30
