%TF.GenerationSoftware,KiCad,Pcbnew,8.0.1-8.0.1-1~ubuntu22.04.1*%
%TF.CreationDate,2024-04-21T23:11:14-04:00*%
%TF.ProjectId,arm_drive_j2,61726d5f-6472-4697-9665-5f6a322e6b69,rev?*%
%TF.SameCoordinates,Original*%
%TF.FileFunction,Paste,Bot*%
%TF.FilePolarity,Positive*%
%FSLAX46Y46*%
G04 Gerber Fmt 4.6, Leading zero omitted, Abs format (unit mm)*
G04 Created by KiCad (PCBNEW 8.0.1-8.0.1-1~ubuntu22.04.1) date 2024-04-21 23:11:14*
%MOMM*%
%LPD*%
G01*
G04 APERTURE LIST*
G04 Aperture macros list*
%AMRoundRect*
0 Rectangle with rounded corners*
0 $1 Rounding radius*
0 $2 $3 $4 $5 $6 $7 $8 $9 X,Y pos of 4 corners*
0 Add a 4 corners polygon primitive as box body*
4,1,4,$2,$3,$4,$5,$6,$7,$8,$9,$2,$3,0*
0 Add four circle primitives for the rounded corners*
1,1,$1+$1,$2,$3*
1,1,$1+$1,$4,$5*
1,1,$1+$1,$6,$7*
1,1,$1+$1,$8,$9*
0 Add four rect primitives between the rounded corners*
20,1,$1+$1,$2,$3,$4,$5,0*
20,1,$1+$1,$4,$5,$6,$7,0*
20,1,$1+$1,$6,$7,$8,$9,0*
20,1,$1+$1,$8,$9,$2,$3,0*%
G04 Aperture macros list end*
%ADD10R,4.683400X0.762000*%
%ADD11R,9.557400X10.312400*%
%ADD12RoundRect,0.250000X0.350000X0.450000X-0.350000X0.450000X-0.350000X-0.450000X0.350000X-0.450000X0*%
%ADD13RoundRect,0.250000X0.337500X0.475000X-0.337500X0.475000X-0.337500X-0.475000X0.337500X-0.475000X0*%
%ADD14RoundRect,0.250000X-0.337500X-0.475000X0.337500X-0.475000X0.337500X0.475000X-0.337500X0.475000X0*%
%ADD15R,2.489200X0.939800*%
%ADD16R,7.016000X5.562600*%
%ADD17RoundRect,0.250000X-0.350000X-0.450000X0.350000X-0.450000X0.350000X0.450000X-0.350000X0.450000X0*%
%ADD18R,3.911600X1.803400*%
%ADD19R,4.495800X1.295400*%
G04 APERTURE END LIST*
D10*
%TO.C,U5*%
X24841700Y-44500000D03*
X24841700Y-48310000D03*
X24841700Y-47040000D03*
X24841700Y-45770000D03*
X24841700Y-43230000D03*
X24841700Y-41960000D03*
X24841700Y-40690000D03*
D11*
X35721300Y-44500000D03*
%TD*%
D12*
%TO.C,R12*%
X18500000Y-33000000D03*
X16500000Y-33000000D03*
%TD*%
%TO.C,R8*%
X18500000Y-47000000D03*
X16500000Y-47000000D03*
%TD*%
D13*
%TO.C,C13*%
X20537500Y-50500000D03*
X18462500Y-50500000D03*
%TD*%
D14*
%TO.C,C10*%
X23462500Y-50500000D03*
X25537500Y-50500000D03*
%TD*%
%TO.C,C12*%
X34462500Y-37500000D03*
X36537500Y-37500000D03*
%TD*%
D13*
%TO.C,C1*%
X22037500Y-29500000D03*
X19962500Y-29500000D03*
%TD*%
D12*
%TO.C,R9*%
X18500000Y-63500000D03*
X16500000Y-63500000D03*
%TD*%
D13*
%TO.C,C14*%
X18537500Y-36500000D03*
X16462500Y-36500000D03*
%TD*%
D15*
%TO.C,U3*%
X34500000Y-79000000D03*
D16*
X42122800Y-76714000D03*
D15*
X34500000Y-74428000D03*
%TD*%
D14*
%TO.C,C8*%
X28962500Y-37500000D03*
X31037500Y-37500000D03*
%TD*%
D13*
%TO.C,C9*%
X18537500Y-57000000D03*
X16462500Y-57000000D03*
%TD*%
D12*
%TO.C,R1*%
X51000000Y-74500000D03*
X49000000Y-74500000D03*
%TD*%
D13*
%TO.C,C16*%
X18537500Y-40000000D03*
X16462500Y-40000000D03*
%TD*%
%TO.C,C11*%
X35000000Y-63500000D03*
X32925000Y-63500000D03*
%TD*%
D12*
%TO.C,R11*%
X18500000Y-54000000D03*
X16500000Y-54000000D03*
%TD*%
D17*
%TO.C,R2*%
X49000000Y-69500000D03*
X51000000Y-69500000D03*
%TD*%
D10*
%TO.C,U4*%
X24841700Y-56500000D03*
X24841700Y-60310000D03*
X24841700Y-59040000D03*
X24841700Y-57770000D03*
X24841700Y-55230000D03*
X24841700Y-53960000D03*
X24841700Y-52690000D03*
D11*
X35721300Y-56500000D03*
%TD*%
D13*
%TO.C,C7*%
X40537500Y-63500000D03*
X38462500Y-63500000D03*
%TD*%
D12*
%TO.C,R10*%
X18500000Y-43500000D03*
X16500000Y-43500000D03*
%TD*%
D18*
%TO.C,J9*%
X50541050Y-47810400D03*
X50541050Y-33910402D03*
D19*
X43751050Y-37110401D03*
X43751050Y-39610401D03*
X43751050Y-42110401D03*
X43751050Y-44610401D03*
%TD*%
D13*
%TO.C,C2*%
X37537500Y-29500000D03*
X35462500Y-29500000D03*
%TD*%
%TO.C,C15*%
X18537500Y-61000000D03*
X16462500Y-61000000D03*
%TD*%
D12*
%TO.C,R7*%
X24000000Y-65500000D03*
X22000000Y-65500000D03*
%TD*%
M02*
