%TF.GenerationSoftware,KiCad,Pcbnew,8.0.1-8.0.1-1~ubuntu22.04.1*%
%TF.CreationDate,2024-04-21T23:11:14-04:00*%
%TF.ProjectId,arm_drive_j2,61726d5f-6472-4697-9665-5f6a322e6b69,rev?*%
%TF.SameCoordinates,Original*%
%TF.FileFunction,Legend,Bot*%
%TF.FilePolarity,Positive*%
%FSLAX46Y46*%
G04 Gerber Fmt 4.6, Leading zero omitted, Abs format (unit mm)*
G04 Created by KiCad (PCBNEW 8.0.1-8.0.1-1~ubuntu22.04.1) date 2024-04-21 23:11:14*
%MOMM*%
%LPD*%
G01*
G04 APERTURE LIST*
G04 Aperture macros list*
%AMRoundRect*
0 Rectangle with rounded corners*
0 $1 Rounding radius*
0 $2 $3 $4 $5 $6 $7 $8 $9 X,Y pos of 4 corners*
0 Add a 4 corners polygon primitive as box body*
4,1,4,$2,$3,$4,$5,$6,$7,$8,$9,$2,$3,0*
0 Add four circle primitives for the rounded corners*
1,1,$1+$1,$2,$3*
1,1,$1+$1,$4,$5*
1,1,$1+$1,$6,$7*
1,1,$1+$1,$8,$9*
0 Add four rect primitives between the rounded corners*
20,1,$1+$1,$2,$3,$4,$5,0*
20,1,$1+$1,$4,$5,$6,$7,0*
20,1,$1+$1,$6,$7,$8,$9,0*
20,1,$1+$1,$8,$9,$2,$3,0*%
G04 Aperture macros list end*
%ADD10C,0.150000*%
%ADD11C,0.508000*%
%ADD12C,0.152400*%
%ADD13C,0.120000*%
%ADD14C,0.127000*%
%ADD15C,0.200000*%
%ADD16C,0.100000*%
%ADD17C,1.400000*%
%ADD18R,3.500000X3.500000*%
%ADD19C,3.500000*%
%ADD20O,1.600000X0.900000*%
%ADD21C,2.600000*%
%ADD22C,3.800000*%
%ADD23R,4.683400X0.762000*%
%ADD24R,9.557400X10.312400*%
%ADD25RoundRect,0.250000X0.350000X0.450000X-0.350000X0.450000X-0.350000X-0.450000X0.350000X-0.450000X0*%
%ADD26RoundRect,0.250000X0.337500X0.475000X-0.337500X0.475000X-0.337500X-0.475000X0.337500X-0.475000X0*%
%ADD27C,3.350000*%
%ADD28RoundRect,0.102000X-0.634000X-0.634000X0.634000X-0.634000X0.634000X0.634000X-0.634000X0.634000X0*%
%ADD29C,1.472000*%
%ADD30RoundRect,0.250000X-0.337500X-0.475000X0.337500X-0.475000X0.337500X0.475000X-0.337500X0.475000X0*%
%ADD31R,2.489200X0.939800*%
%ADD32R,7.016000X5.562600*%
%ADD33R,2.400000X2.400000*%
%ADD34C,2.400000*%
%ADD35RoundRect,0.250000X-0.350000X-0.450000X0.350000X-0.450000X0.350000X0.450000X-0.350000X0.450000X0*%
%ADD36R,3.911600X1.803400*%
%ADD37R,4.495800X1.295400*%
%ADD38RoundRect,0.102000X0.634000X0.634000X-0.634000X0.634000X-0.634000X-0.634000X0.634000X-0.634000X0*%
G04 APERTURE END LIST*
D10*
X33545180Y-45261904D02*
X32735657Y-45261904D01*
X32735657Y-45261904D02*
X32640419Y-45214285D01*
X32640419Y-45214285D02*
X32592800Y-45166666D01*
X32592800Y-45166666D02*
X32545180Y-45071428D01*
X32545180Y-45071428D02*
X32545180Y-44880952D01*
X32545180Y-44880952D02*
X32592800Y-44785714D01*
X32592800Y-44785714D02*
X32640419Y-44738095D01*
X32640419Y-44738095D02*
X32735657Y-44690476D01*
X32735657Y-44690476D02*
X33545180Y-44690476D01*
X33545180Y-43738095D02*
X33545180Y-44214285D01*
X33545180Y-44214285D02*
X33068990Y-44261904D01*
X33068990Y-44261904D02*
X33116609Y-44214285D01*
X33116609Y-44214285D02*
X33164228Y-44119047D01*
X33164228Y-44119047D02*
X33164228Y-43880952D01*
X33164228Y-43880952D02*
X33116609Y-43785714D01*
X33116609Y-43785714D02*
X33068990Y-43738095D01*
X33068990Y-43738095D02*
X32973752Y-43690476D01*
X32973752Y-43690476D02*
X32735657Y-43690476D01*
X32735657Y-43690476D02*
X32640419Y-43738095D01*
X32640419Y-43738095D02*
X32592800Y-43785714D01*
X32592800Y-43785714D02*
X32545180Y-43880952D01*
X32545180Y-43880952D02*
X32545180Y-44119047D01*
X32545180Y-44119047D02*
X32592800Y-44214285D01*
X32592800Y-44214285D02*
X32640419Y-44261904D01*
X18142857Y-31454819D02*
X18476190Y-30978628D01*
X18714285Y-31454819D02*
X18714285Y-30454819D01*
X18714285Y-30454819D02*
X18333333Y-30454819D01*
X18333333Y-30454819D02*
X18238095Y-30502438D01*
X18238095Y-30502438D02*
X18190476Y-30550057D01*
X18190476Y-30550057D02*
X18142857Y-30645295D01*
X18142857Y-30645295D02*
X18142857Y-30788152D01*
X18142857Y-30788152D02*
X18190476Y-30883390D01*
X18190476Y-30883390D02*
X18238095Y-30931009D01*
X18238095Y-30931009D02*
X18333333Y-30978628D01*
X18333333Y-30978628D02*
X18714285Y-30978628D01*
X17190476Y-31454819D02*
X17761904Y-31454819D01*
X17476190Y-31454819D02*
X17476190Y-30454819D01*
X17476190Y-30454819D02*
X17571428Y-30597676D01*
X17571428Y-30597676D02*
X17666666Y-30692914D01*
X17666666Y-30692914D02*
X17761904Y-30740533D01*
X16809523Y-30550057D02*
X16761904Y-30502438D01*
X16761904Y-30502438D02*
X16666666Y-30454819D01*
X16666666Y-30454819D02*
X16428571Y-30454819D01*
X16428571Y-30454819D02*
X16333333Y-30502438D01*
X16333333Y-30502438D02*
X16285714Y-30550057D01*
X16285714Y-30550057D02*
X16238095Y-30645295D01*
X16238095Y-30645295D02*
X16238095Y-30740533D01*
X16238095Y-30740533D02*
X16285714Y-30883390D01*
X16285714Y-30883390D02*
X16857142Y-31454819D01*
X16857142Y-31454819D02*
X16238095Y-31454819D01*
X17666666Y-45804819D02*
X17999999Y-45328628D01*
X18238094Y-45804819D02*
X18238094Y-44804819D01*
X18238094Y-44804819D02*
X17857142Y-44804819D01*
X17857142Y-44804819D02*
X17761904Y-44852438D01*
X17761904Y-44852438D02*
X17714285Y-44900057D01*
X17714285Y-44900057D02*
X17666666Y-44995295D01*
X17666666Y-44995295D02*
X17666666Y-45138152D01*
X17666666Y-45138152D02*
X17714285Y-45233390D01*
X17714285Y-45233390D02*
X17761904Y-45281009D01*
X17761904Y-45281009D02*
X17857142Y-45328628D01*
X17857142Y-45328628D02*
X18238094Y-45328628D01*
X17095237Y-45233390D02*
X17190475Y-45185771D01*
X17190475Y-45185771D02*
X17238094Y-45138152D01*
X17238094Y-45138152D02*
X17285713Y-45042914D01*
X17285713Y-45042914D02*
X17285713Y-44995295D01*
X17285713Y-44995295D02*
X17238094Y-44900057D01*
X17238094Y-44900057D02*
X17190475Y-44852438D01*
X17190475Y-44852438D02*
X17095237Y-44804819D01*
X17095237Y-44804819D02*
X16904761Y-44804819D01*
X16904761Y-44804819D02*
X16809523Y-44852438D01*
X16809523Y-44852438D02*
X16761904Y-44900057D01*
X16761904Y-44900057D02*
X16714285Y-44995295D01*
X16714285Y-44995295D02*
X16714285Y-45042914D01*
X16714285Y-45042914D02*
X16761904Y-45138152D01*
X16761904Y-45138152D02*
X16809523Y-45185771D01*
X16809523Y-45185771D02*
X16904761Y-45233390D01*
X16904761Y-45233390D02*
X17095237Y-45233390D01*
X17095237Y-45233390D02*
X17190475Y-45281009D01*
X17190475Y-45281009D02*
X17238094Y-45328628D01*
X17238094Y-45328628D02*
X17285713Y-45423866D01*
X17285713Y-45423866D02*
X17285713Y-45614342D01*
X17285713Y-45614342D02*
X17238094Y-45709580D01*
X17238094Y-45709580D02*
X17190475Y-45757200D01*
X17190475Y-45757200D02*
X17095237Y-45804819D01*
X17095237Y-45804819D02*
X16904761Y-45804819D01*
X16904761Y-45804819D02*
X16809523Y-45757200D01*
X16809523Y-45757200D02*
X16761904Y-45709580D01*
X16761904Y-45709580D02*
X16714285Y-45614342D01*
X16714285Y-45614342D02*
X16714285Y-45423866D01*
X16714285Y-45423866D02*
X16761904Y-45328628D01*
X16761904Y-45328628D02*
X16809523Y-45281009D01*
X16809523Y-45281009D02*
X16904761Y-45233390D01*
X19972969Y-49296343D02*
X20020588Y-49343963D01*
X20020588Y-49343963D02*
X20163445Y-49391582D01*
X20163445Y-49391582D02*
X20258683Y-49391582D01*
X20258683Y-49391582D02*
X20401540Y-49343963D01*
X20401540Y-49343963D02*
X20496778Y-49248724D01*
X20496778Y-49248724D02*
X20544397Y-49153486D01*
X20544397Y-49153486D02*
X20592016Y-48963010D01*
X20592016Y-48963010D02*
X20592016Y-48820153D01*
X20592016Y-48820153D02*
X20544397Y-48629677D01*
X20544397Y-48629677D02*
X20496778Y-48534439D01*
X20496778Y-48534439D02*
X20401540Y-48439201D01*
X20401540Y-48439201D02*
X20258683Y-48391582D01*
X20258683Y-48391582D02*
X20163445Y-48391582D01*
X20163445Y-48391582D02*
X20020588Y-48439201D01*
X20020588Y-48439201D02*
X19972969Y-48486820D01*
X19020588Y-49391582D02*
X19592016Y-49391582D01*
X19306302Y-49391582D02*
X19306302Y-48391582D01*
X19306302Y-48391582D02*
X19401540Y-48534439D01*
X19401540Y-48534439D02*
X19496778Y-48629677D01*
X19496778Y-48629677D02*
X19592016Y-48677296D01*
X18687254Y-48391582D02*
X18068207Y-48391582D01*
X18068207Y-48391582D02*
X18401540Y-48772534D01*
X18401540Y-48772534D02*
X18258683Y-48772534D01*
X18258683Y-48772534D02*
X18163445Y-48820153D01*
X18163445Y-48820153D02*
X18115826Y-48867772D01*
X18115826Y-48867772D02*
X18068207Y-48963010D01*
X18068207Y-48963010D02*
X18068207Y-49201105D01*
X18068207Y-49201105D02*
X18115826Y-49296343D01*
X18115826Y-49296343D02*
X18163445Y-49343963D01*
X18163445Y-49343963D02*
X18258683Y-49391582D01*
X18258683Y-49391582D02*
X18544397Y-49391582D01*
X18544397Y-49391582D02*
X18639635Y-49343963D01*
X18639635Y-49343963D02*
X18687254Y-49296343D01*
X23995833Y-17334819D02*
X23995833Y-18049104D01*
X23995833Y-18049104D02*
X24043452Y-18191961D01*
X24043452Y-18191961D02*
X24138690Y-18287200D01*
X24138690Y-18287200D02*
X24281547Y-18334819D01*
X24281547Y-18334819D02*
X24376785Y-18334819D01*
X23614880Y-17334819D02*
X22995833Y-17334819D01*
X22995833Y-17334819D02*
X23329166Y-17715771D01*
X23329166Y-17715771D02*
X23186309Y-17715771D01*
X23186309Y-17715771D02*
X23091071Y-17763390D01*
X23091071Y-17763390D02*
X23043452Y-17811009D01*
X23043452Y-17811009D02*
X22995833Y-17906247D01*
X22995833Y-17906247D02*
X22995833Y-18144342D01*
X22995833Y-18144342D02*
X23043452Y-18239580D01*
X23043452Y-18239580D02*
X23091071Y-18287200D01*
X23091071Y-18287200D02*
X23186309Y-18334819D01*
X23186309Y-18334819D02*
X23472023Y-18334819D01*
X23472023Y-18334819D02*
X23567261Y-18287200D01*
X23567261Y-18287200D02*
X23614880Y-18239580D01*
X29842857Y-50959580D02*
X29890476Y-51007200D01*
X29890476Y-51007200D02*
X30033333Y-51054819D01*
X30033333Y-51054819D02*
X30128571Y-51054819D01*
X30128571Y-51054819D02*
X30271428Y-51007200D01*
X30271428Y-51007200D02*
X30366666Y-50911961D01*
X30366666Y-50911961D02*
X30414285Y-50816723D01*
X30414285Y-50816723D02*
X30461904Y-50626247D01*
X30461904Y-50626247D02*
X30461904Y-50483390D01*
X30461904Y-50483390D02*
X30414285Y-50292914D01*
X30414285Y-50292914D02*
X30366666Y-50197676D01*
X30366666Y-50197676D02*
X30271428Y-50102438D01*
X30271428Y-50102438D02*
X30128571Y-50054819D01*
X30128571Y-50054819D02*
X30033333Y-50054819D01*
X30033333Y-50054819D02*
X29890476Y-50102438D01*
X29890476Y-50102438D02*
X29842857Y-50150057D01*
X28890476Y-51054819D02*
X29461904Y-51054819D01*
X29176190Y-51054819D02*
X29176190Y-50054819D01*
X29176190Y-50054819D02*
X29271428Y-50197676D01*
X29271428Y-50197676D02*
X29366666Y-50292914D01*
X29366666Y-50292914D02*
X29461904Y-50340533D01*
X28271428Y-50054819D02*
X28176190Y-50054819D01*
X28176190Y-50054819D02*
X28080952Y-50102438D01*
X28080952Y-50102438D02*
X28033333Y-50150057D01*
X28033333Y-50150057D02*
X27985714Y-50245295D01*
X27985714Y-50245295D02*
X27938095Y-50435771D01*
X27938095Y-50435771D02*
X27938095Y-50673866D01*
X27938095Y-50673866D02*
X27985714Y-50864342D01*
X27985714Y-50864342D02*
X28033333Y-50959580D01*
X28033333Y-50959580D02*
X28080952Y-51007200D01*
X28080952Y-51007200D02*
X28176190Y-51054819D01*
X28176190Y-51054819D02*
X28271428Y-51054819D01*
X28271428Y-51054819D02*
X28366666Y-51007200D01*
X28366666Y-51007200D02*
X28414285Y-50959580D01*
X28414285Y-50959580D02*
X28461904Y-50864342D01*
X28461904Y-50864342D02*
X28509523Y-50673866D01*
X28509523Y-50673866D02*
X28509523Y-50435771D01*
X28509523Y-50435771D02*
X28461904Y-50245295D01*
X28461904Y-50245295D02*
X28414285Y-50150057D01*
X28414285Y-50150057D02*
X28366666Y-50102438D01*
X28366666Y-50102438D02*
X28271428Y-50054819D01*
X36142857Y-39539580D02*
X36190476Y-39587200D01*
X36190476Y-39587200D02*
X36333333Y-39634819D01*
X36333333Y-39634819D02*
X36428571Y-39634819D01*
X36428571Y-39634819D02*
X36571428Y-39587200D01*
X36571428Y-39587200D02*
X36666666Y-39491961D01*
X36666666Y-39491961D02*
X36714285Y-39396723D01*
X36714285Y-39396723D02*
X36761904Y-39206247D01*
X36761904Y-39206247D02*
X36761904Y-39063390D01*
X36761904Y-39063390D02*
X36714285Y-38872914D01*
X36714285Y-38872914D02*
X36666666Y-38777676D01*
X36666666Y-38777676D02*
X36571428Y-38682438D01*
X36571428Y-38682438D02*
X36428571Y-38634819D01*
X36428571Y-38634819D02*
X36333333Y-38634819D01*
X36333333Y-38634819D02*
X36190476Y-38682438D01*
X36190476Y-38682438D02*
X36142857Y-38730057D01*
X35190476Y-39634819D02*
X35761904Y-39634819D01*
X35476190Y-39634819D02*
X35476190Y-38634819D01*
X35476190Y-38634819D02*
X35571428Y-38777676D01*
X35571428Y-38777676D02*
X35666666Y-38872914D01*
X35666666Y-38872914D02*
X35761904Y-38920533D01*
X34809523Y-38730057D02*
X34761904Y-38682438D01*
X34761904Y-38682438D02*
X34666666Y-38634819D01*
X34666666Y-38634819D02*
X34428571Y-38634819D01*
X34428571Y-38634819D02*
X34333333Y-38682438D01*
X34333333Y-38682438D02*
X34285714Y-38730057D01*
X34285714Y-38730057D02*
X34238095Y-38825295D01*
X34238095Y-38825295D02*
X34238095Y-38920533D01*
X34238095Y-38920533D02*
X34285714Y-39063390D01*
X34285714Y-39063390D02*
X34857142Y-39634819D01*
X34857142Y-39634819D02*
X34238095Y-39634819D01*
X23966666Y-29959580D02*
X24014285Y-30007200D01*
X24014285Y-30007200D02*
X24157142Y-30054819D01*
X24157142Y-30054819D02*
X24252380Y-30054819D01*
X24252380Y-30054819D02*
X24395237Y-30007200D01*
X24395237Y-30007200D02*
X24490475Y-29911961D01*
X24490475Y-29911961D02*
X24538094Y-29816723D01*
X24538094Y-29816723D02*
X24585713Y-29626247D01*
X24585713Y-29626247D02*
X24585713Y-29483390D01*
X24585713Y-29483390D02*
X24538094Y-29292914D01*
X24538094Y-29292914D02*
X24490475Y-29197676D01*
X24490475Y-29197676D02*
X24395237Y-29102438D01*
X24395237Y-29102438D02*
X24252380Y-29054819D01*
X24252380Y-29054819D02*
X24157142Y-29054819D01*
X24157142Y-29054819D02*
X24014285Y-29102438D01*
X24014285Y-29102438D02*
X23966666Y-29150057D01*
X23014285Y-30054819D02*
X23585713Y-30054819D01*
X23299999Y-30054819D02*
X23299999Y-29054819D01*
X23299999Y-29054819D02*
X23395237Y-29197676D01*
X23395237Y-29197676D02*
X23490475Y-29292914D01*
X23490475Y-29292914D02*
X23585713Y-29340533D01*
X18766666Y-65654819D02*
X19099999Y-65178628D01*
X19338094Y-65654819D02*
X19338094Y-64654819D01*
X19338094Y-64654819D02*
X18957142Y-64654819D01*
X18957142Y-64654819D02*
X18861904Y-64702438D01*
X18861904Y-64702438D02*
X18814285Y-64750057D01*
X18814285Y-64750057D02*
X18766666Y-64845295D01*
X18766666Y-64845295D02*
X18766666Y-64988152D01*
X18766666Y-64988152D02*
X18814285Y-65083390D01*
X18814285Y-65083390D02*
X18861904Y-65131009D01*
X18861904Y-65131009D02*
X18957142Y-65178628D01*
X18957142Y-65178628D02*
X19338094Y-65178628D01*
X18290475Y-65654819D02*
X18099999Y-65654819D01*
X18099999Y-65654819D02*
X18004761Y-65607200D01*
X18004761Y-65607200D02*
X17957142Y-65559580D01*
X17957142Y-65559580D02*
X17861904Y-65416723D01*
X17861904Y-65416723D02*
X17814285Y-65226247D01*
X17814285Y-65226247D02*
X17814285Y-64845295D01*
X17814285Y-64845295D02*
X17861904Y-64750057D01*
X17861904Y-64750057D02*
X17909523Y-64702438D01*
X17909523Y-64702438D02*
X18004761Y-64654819D01*
X18004761Y-64654819D02*
X18195237Y-64654819D01*
X18195237Y-64654819D02*
X18290475Y-64702438D01*
X18290475Y-64702438D02*
X18338094Y-64750057D01*
X18338094Y-64750057D02*
X18385713Y-64845295D01*
X18385713Y-64845295D02*
X18385713Y-65083390D01*
X18385713Y-65083390D02*
X18338094Y-65178628D01*
X18338094Y-65178628D02*
X18290475Y-65226247D01*
X18290475Y-65226247D02*
X18195237Y-65273866D01*
X18195237Y-65273866D02*
X18004761Y-65273866D01*
X18004761Y-65273866D02*
X17909523Y-65226247D01*
X17909523Y-65226247D02*
X17861904Y-65178628D01*
X17861904Y-65178628D02*
X17814285Y-65083390D01*
X18142857Y-35179580D02*
X18190476Y-35227200D01*
X18190476Y-35227200D02*
X18333333Y-35274819D01*
X18333333Y-35274819D02*
X18428571Y-35274819D01*
X18428571Y-35274819D02*
X18571428Y-35227200D01*
X18571428Y-35227200D02*
X18666666Y-35131961D01*
X18666666Y-35131961D02*
X18714285Y-35036723D01*
X18714285Y-35036723D02*
X18761904Y-34846247D01*
X18761904Y-34846247D02*
X18761904Y-34703390D01*
X18761904Y-34703390D02*
X18714285Y-34512914D01*
X18714285Y-34512914D02*
X18666666Y-34417676D01*
X18666666Y-34417676D02*
X18571428Y-34322438D01*
X18571428Y-34322438D02*
X18428571Y-34274819D01*
X18428571Y-34274819D02*
X18333333Y-34274819D01*
X18333333Y-34274819D02*
X18190476Y-34322438D01*
X18190476Y-34322438D02*
X18142857Y-34370057D01*
X17190476Y-35274819D02*
X17761904Y-35274819D01*
X17476190Y-35274819D02*
X17476190Y-34274819D01*
X17476190Y-34274819D02*
X17571428Y-34417676D01*
X17571428Y-34417676D02*
X17666666Y-34512914D01*
X17666666Y-34512914D02*
X17761904Y-34560533D01*
X16333333Y-34608152D02*
X16333333Y-35274819D01*
X16571428Y-34227200D02*
X16809523Y-34941485D01*
X16809523Y-34941485D02*
X16190476Y-34941485D01*
X40175980Y-77475904D02*
X39366457Y-77475904D01*
X39366457Y-77475904D02*
X39271219Y-77428285D01*
X39271219Y-77428285D02*
X39223600Y-77380666D01*
X39223600Y-77380666D02*
X39175980Y-77285428D01*
X39175980Y-77285428D02*
X39175980Y-77094952D01*
X39175980Y-77094952D02*
X39223600Y-76999714D01*
X39223600Y-76999714D02*
X39271219Y-76952095D01*
X39271219Y-76952095D02*
X39366457Y-76904476D01*
X39366457Y-76904476D02*
X40175980Y-76904476D01*
X40175980Y-76523523D02*
X40175980Y-75904476D01*
X40175980Y-75904476D02*
X39795028Y-76237809D01*
X39795028Y-76237809D02*
X39795028Y-76094952D01*
X39795028Y-76094952D02*
X39747409Y-75999714D01*
X39747409Y-75999714D02*
X39699790Y-75952095D01*
X39699790Y-75952095D02*
X39604552Y-75904476D01*
X39604552Y-75904476D02*
X39366457Y-75904476D01*
X39366457Y-75904476D02*
X39271219Y-75952095D01*
X39271219Y-75952095D02*
X39223600Y-75999714D01*
X39223600Y-75999714D02*
X39175980Y-76094952D01*
X39175980Y-76094952D02*
X39175980Y-76380666D01*
X39175980Y-76380666D02*
X39223600Y-76475904D01*
X39223600Y-76475904D02*
X39271219Y-76523523D01*
X34254819Y-78000000D02*
X34492914Y-78000000D01*
X34397676Y-77761905D02*
X34492914Y-78000000D01*
X34492914Y-78000000D02*
X34397676Y-78238095D01*
X34683390Y-77857143D02*
X34492914Y-78000000D01*
X34492914Y-78000000D02*
X34683390Y-78142857D01*
X30166666Y-39539580D02*
X30214285Y-39587200D01*
X30214285Y-39587200D02*
X30357142Y-39634819D01*
X30357142Y-39634819D02*
X30452380Y-39634819D01*
X30452380Y-39634819D02*
X30595237Y-39587200D01*
X30595237Y-39587200D02*
X30690475Y-39491961D01*
X30690475Y-39491961D02*
X30738094Y-39396723D01*
X30738094Y-39396723D02*
X30785713Y-39206247D01*
X30785713Y-39206247D02*
X30785713Y-39063390D01*
X30785713Y-39063390D02*
X30738094Y-38872914D01*
X30738094Y-38872914D02*
X30690475Y-38777676D01*
X30690475Y-38777676D02*
X30595237Y-38682438D01*
X30595237Y-38682438D02*
X30452380Y-38634819D01*
X30452380Y-38634819D02*
X30357142Y-38634819D01*
X30357142Y-38634819D02*
X30214285Y-38682438D01*
X30214285Y-38682438D02*
X30166666Y-38730057D01*
X29595237Y-39063390D02*
X29690475Y-39015771D01*
X29690475Y-39015771D02*
X29738094Y-38968152D01*
X29738094Y-38968152D02*
X29785713Y-38872914D01*
X29785713Y-38872914D02*
X29785713Y-38825295D01*
X29785713Y-38825295D02*
X29738094Y-38730057D01*
X29738094Y-38730057D02*
X29690475Y-38682438D01*
X29690475Y-38682438D02*
X29595237Y-38634819D01*
X29595237Y-38634819D02*
X29404761Y-38634819D01*
X29404761Y-38634819D02*
X29309523Y-38682438D01*
X29309523Y-38682438D02*
X29261904Y-38730057D01*
X29261904Y-38730057D02*
X29214285Y-38825295D01*
X29214285Y-38825295D02*
X29214285Y-38872914D01*
X29214285Y-38872914D02*
X29261904Y-38968152D01*
X29261904Y-38968152D02*
X29309523Y-39015771D01*
X29309523Y-39015771D02*
X29404761Y-39063390D01*
X29404761Y-39063390D02*
X29595237Y-39063390D01*
X29595237Y-39063390D02*
X29690475Y-39111009D01*
X29690475Y-39111009D02*
X29738094Y-39158628D01*
X29738094Y-39158628D02*
X29785713Y-39253866D01*
X29785713Y-39253866D02*
X29785713Y-39444342D01*
X29785713Y-39444342D02*
X29738094Y-39539580D01*
X29738094Y-39539580D02*
X29690475Y-39587200D01*
X29690475Y-39587200D02*
X29595237Y-39634819D01*
X29595237Y-39634819D02*
X29404761Y-39634819D01*
X29404761Y-39634819D02*
X29309523Y-39587200D01*
X29309523Y-39587200D02*
X29261904Y-39539580D01*
X29261904Y-39539580D02*
X29214285Y-39444342D01*
X29214285Y-39444342D02*
X29214285Y-39253866D01*
X29214285Y-39253866D02*
X29261904Y-39158628D01*
X29261904Y-39158628D02*
X29309523Y-39111009D01*
X29309523Y-39111009D02*
X29404761Y-39063390D01*
X45166666Y-68759580D02*
X45214285Y-68807200D01*
X45214285Y-68807200D02*
X45357142Y-68854819D01*
X45357142Y-68854819D02*
X45452380Y-68854819D01*
X45452380Y-68854819D02*
X45595237Y-68807200D01*
X45595237Y-68807200D02*
X45690475Y-68711961D01*
X45690475Y-68711961D02*
X45738094Y-68616723D01*
X45738094Y-68616723D02*
X45785713Y-68426247D01*
X45785713Y-68426247D02*
X45785713Y-68283390D01*
X45785713Y-68283390D02*
X45738094Y-68092914D01*
X45738094Y-68092914D02*
X45690475Y-67997676D01*
X45690475Y-67997676D02*
X45595237Y-67902438D01*
X45595237Y-67902438D02*
X45452380Y-67854819D01*
X45452380Y-67854819D02*
X45357142Y-67854819D01*
X45357142Y-67854819D02*
X45214285Y-67902438D01*
X45214285Y-67902438D02*
X45166666Y-67950057D01*
X44309523Y-67854819D02*
X44499999Y-67854819D01*
X44499999Y-67854819D02*
X44595237Y-67902438D01*
X44595237Y-67902438D02*
X44642856Y-67950057D01*
X44642856Y-67950057D02*
X44738094Y-68092914D01*
X44738094Y-68092914D02*
X44785713Y-68283390D01*
X44785713Y-68283390D02*
X44785713Y-68664342D01*
X44785713Y-68664342D02*
X44738094Y-68759580D01*
X44738094Y-68759580D02*
X44690475Y-68807200D01*
X44690475Y-68807200D02*
X44595237Y-68854819D01*
X44595237Y-68854819D02*
X44404761Y-68854819D01*
X44404761Y-68854819D02*
X44309523Y-68807200D01*
X44309523Y-68807200D02*
X44261904Y-68759580D01*
X44261904Y-68759580D02*
X44214285Y-68664342D01*
X44214285Y-68664342D02*
X44214285Y-68426247D01*
X44214285Y-68426247D02*
X44261904Y-68331009D01*
X44261904Y-68331009D02*
X44309523Y-68283390D01*
X44309523Y-68283390D02*
X44404761Y-68235771D01*
X44404761Y-68235771D02*
X44595237Y-68235771D01*
X44595237Y-68235771D02*
X44690475Y-68283390D01*
X44690475Y-68283390D02*
X44738094Y-68331009D01*
X44738094Y-68331009D02*
X44785713Y-68426247D01*
X20566666Y-57359580D02*
X20614285Y-57407200D01*
X20614285Y-57407200D02*
X20757142Y-57454819D01*
X20757142Y-57454819D02*
X20852380Y-57454819D01*
X20852380Y-57454819D02*
X20995237Y-57407200D01*
X20995237Y-57407200D02*
X21090475Y-57311961D01*
X21090475Y-57311961D02*
X21138094Y-57216723D01*
X21138094Y-57216723D02*
X21185713Y-57026247D01*
X21185713Y-57026247D02*
X21185713Y-56883390D01*
X21185713Y-56883390D02*
X21138094Y-56692914D01*
X21138094Y-56692914D02*
X21090475Y-56597676D01*
X21090475Y-56597676D02*
X20995237Y-56502438D01*
X20995237Y-56502438D02*
X20852380Y-56454819D01*
X20852380Y-56454819D02*
X20757142Y-56454819D01*
X20757142Y-56454819D02*
X20614285Y-56502438D01*
X20614285Y-56502438D02*
X20566666Y-56550057D01*
X20090475Y-57454819D02*
X19899999Y-57454819D01*
X19899999Y-57454819D02*
X19804761Y-57407200D01*
X19804761Y-57407200D02*
X19757142Y-57359580D01*
X19757142Y-57359580D02*
X19661904Y-57216723D01*
X19661904Y-57216723D02*
X19614285Y-57026247D01*
X19614285Y-57026247D02*
X19614285Y-56645295D01*
X19614285Y-56645295D02*
X19661904Y-56550057D01*
X19661904Y-56550057D02*
X19709523Y-56502438D01*
X19709523Y-56502438D02*
X19804761Y-56454819D01*
X19804761Y-56454819D02*
X19995237Y-56454819D01*
X19995237Y-56454819D02*
X20090475Y-56502438D01*
X20090475Y-56502438D02*
X20138094Y-56550057D01*
X20138094Y-56550057D02*
X20185713Y-56645295D01*
X20185713Y-56645295D02*
X20185713Y-56883390D01*
X20185713Y-56883390D02*
X20138094Y-56978628D01*
X20138094Y-56978628D02*
X20090475Y-57026247D01*
X20090475Y-57026247D02*
X19995237Y-57073866D01*
X19995237Y-57073866D02*
X19804761Y-57073866D01*
X19804761Y-57073866D02*
X19709523Y-57026247D01*
X19709523Y-57026247D02*
X19661904Y-56978628D01*
X19661904Y-56978628D02*
X19614285Y-56883390D01*
X51166666Y-76654819D02*
X51499999Y-76178628D01*
X51738094Y-76654819D02*
X51738094Y-75654819D01*
X51738094Y-75654819D02*
X51357142Y-75654819D01*
X51357142Y-75654819D02*
X51261904Y-75702438D01*
X51261904Y-75702438D02*
X51214285Y-75750057D01*
X51214285Y-75750057D02*
X51166666Y-75845295D01*
X51166666Y-75845295D02*
X51166666Y-75988152D01*
X51166666Y-75988152D02*
X51214285Y-76083390D01*
X51214285Y-76083390D02*
X51261904Y-76131009D01*
X51261904Y-76131009D02*
X51357142Y-76178628D01*
X51357142Y-76178628D02*
X51738094Y-76178628D01*
X50214285Y-76654819D02*
X50785713Y-76654819D01*
X50499999Y-76654819D02*
X50499999Y-75654819D01*
X50499999Y-75654819D02*
X50595237Y-75797676D01*
X50595237Y-75797676D02*
X50690475Y-75892914D01*
X50690475Y-75892914D02*
X50785713Y-75940533D01*
X18142857Y-38679580D02*
X18190476Y-38727200D01*
X18190476Y-38727200D02*
X18333333Y-38774819D01*
X18333333Y-38774819D02*
X18428571Y-38774819D01*
X18428571Y-38774819D02*
X18571428Y-38727200D01*
X18571428Y-38727200D02*
X18666666Y-38631961D01*
X18666666Y-38631961D02*
X18714285Y-38536723D01*
X18714285Y-38536723D02*
X18761904Y-38346247D01*
X18761904Y-38346247D02*
X18761904Y-38203390D01*
X18761904Y-38203390D02*
X18714285Y-38012914D01*
X18714285Y-38012914D02*
X18666666Y-37917676D01*
X18666666Y-37917676D02*
X18571428Y-37822438D01*
X18571428Y-37822438D02*
X18428571Y-37774819D01*
X18428571Y-37774819D02*
X18333333Y-37774819D01*
X18333333Y-37774819D02*
X18190476Y-37822438D01*
X18190476Y-37822438D02*
X18142857Y-37870057D01*
X17190476Y-38774819D02*
X17761904Y-38774819D01*
X17476190Y-38774819D02*
X17476190Y-37774819D01*
X17476190Y-37774819D02*
X17571428Y-37917676D01*
X17571428Y-37917676D02*
X17666666Y-38012914D01*
X17666666Y-38012914D02*
X17761904Y-38060533D01*
X16333333Y-37774819D02*
X16523809Y-37774819D01*
X16523809Y-37774819D02*
X16619047Y-37822438D01*
X16619047Y-37822438D02*
X16666666Y-37870057D01*
X16666666Y-37870057D02*
X16761904Y-38012914D01*
X16761904Y-38012914D02*
X16809523Y-38203390D01*
X16809523Y-38203390D02*
X16809523Y-38584342D01*
X16809523Y-38584342D02*
X16761904Y-38679580D01*
X16761904Y-38679580D02*
X16714285Y-38727200D01*
X16714285Y-38727200D02*
X16619047Y-38774819D01*
X16619047Y-38774819D02*
X16428571Y-38774819D01*
X16428571Y-38774819D02*
X16333333Y-38727200D01*
X16333333Y-38727200D02*
X16285714Y-38679580D01*
X16285714Y-38679580D02*
X16238095Y-38584342D01*
X16238095Y-38584342D02*
X16238095Y-38346247D01*
X16238095Y-38346247D02*
X16285714Y-38251009D01*
X16285714Y-38251009D02*
X16333333Y-38203390D01*
X16333333Y-38203390D02*
X16428571Y-38155771D01*
X16428571Y-38155771D02*
X16619047Y-38155771D01*
X16619047Y-38155771D02*
X16714285Y-38203390D01*
X16714285Y-38203390D02*
X16761904Y-38251009D01*
X16761904Y-38251009D02*
X16809523Y-38346247D01*
X34605357Y-65559580D02*
X34652976Y-65607200D01*
X34652976Y-65607200D02*
X34795833Y-65654819D01*
X34795833Y-65654819D02*
X34891071Y-65654819D01*
X34891071Y-65654819D02*
X35033928Y-65607200D01*
X35033928Y-65607200D02*
X35129166Y-65511961D01*
X35129166Y-65511961D02*
X35176785Y-65416723D01*
X35176785Y-65416723D02*
X35224404Y-65226247D01*
X35224404Y-65226247D02*
X35224404Y-65083390D01*
X35224404Y-65083390D02*
X35176785Y-64892914D01*
X35176785Y-64892914D02*
X35129166Y-64797676D01*
X35129166Y-64797676D02*
X35033928Y-64702438D01*
X35033928Y-64702438D02*
X34891071Y-64654819D01*
X34891071Y-64654819D02*
X34795833Y-64654819D01*
X34795833Y-64654819D02*
X34652976Y-64702438D01*
X34652976Y-64702438D02*
X34605357Y-64750057D01*
X33652976Y-65654819D02*
X34224404Y-65654819D01*
X33938690Y-65654819D02*
X33938690Y-64654819D01*
X33938690Y-64654819D02*
X34033928Y-64797676D01*
X34033928Y-64797676D02*
X34129166Y-64892914D01*
X34129166Y-64892914D02*
X34224404Y-64940533D01*
X32700595Y-65654819D02*
X33272023Y-65654819D01*
X32986309Y-65654819D02*
X32986309Y-64654819D01*
X32986309Y-64654819D02*
X33081547Y-64797676D01*
X33081547Y-64797676D02*
X33176785Y-64892914D01*
X33176785Y-64892914D02*
X33272023Y-64940533D01*
X18142857Y-52804819D02*
X18476190Y-52328628D01*
X18714285Y-52804819D02*
X18714285Y-51804819D01*
X18714285Y-51804819D02*
X18333333Y-51804819D01*
X18333333Y-51804819D02*
X18238095Y-51852438D01*
X18238095Y-51852438D02*
X18190476Y-51900057D01*
X18190476Y-51900057D02*
X18142857Y-51995295D01*
X18142857Y-51995295D02*
X18142857Y-52138152D01*
X18142857Y-52138152D02*
X18190476Y-52233390D01*
X18190476Y-52233390D02*
X18238095Y-52281009D01*
X18238095Y-52281009D02*
X18333333Y-52328628D01*
X18333333Y-52328628D02*
X18714285Y-52328628D01*
X17190476Y-52804819D02*
X17761904Y-52804819D01*
X17476190Y-52804819D02*
X17476190Y-51804819D01*
X17476190Y-51804819D02*
X17571428Y-51947676D01*
X17571428Y-51947676D02*
X17666666Y-52042914D01*
X17666666Y-52042914D02*
X17761904Y-52090533D01*
X16238095Y-52804819D02*
X16809523Y-52804819D01*
X16523809Y-52804819D02*
X16523809Y-51804819D01*
X16523809Y-51804819D02*
X16619047Y-51947676D01*
X16619047Y-51947676D02*
X16714285Y-52042914D01*
X16714285Y-52042914D02*
X16809523Y-52090533D01*
X51166666Y-71654819D02*
X51499999Y-71178628D01*
X51738094Y-71654819D02*
X51738094Y-70654819D01*
X51738094Y-70654819D02*
X51357142Y-70654819D01*
X51357142Y-70654819D02*
X51261904Y-70702438D01*
X51261904Y-70702438D02*
X51214285Y-70750057D01*
X51214285Y-70750057D02*
X51166666Y-70845295D01*
X51166666Y-70845295D02*
X51166666Y-70988152D01*
X51166666Y-70988152D02*
X51214285Y-71083390D01*
X51214285Y-71083390D02*
X51261904Y-71131009D01*
X51261904Y-71131009D02*
X51357142Y-71178628D01*
X51357142Y-71178628D02*
X51738094Y-71178628D01*
X50785713Y-70750057D02*
X50738094Y-70702438D01*
X50738094Y-70702438D02*
X50642856Y-70654819D01*
X50642856Y-70654819D02*
X50404761Y-70654819D01*
X50404761Y-70654819D02*
X50309523Y-70702438D01*
X50309523Y-70702438D02*
X50261904Y-70750057D01*
X50261904Y-70750057D02*
X50214285Y-70845295D01*
X50214285Y-70845295D02*
X50214285Y-70940533D01*
X50214285Y-70940533D02*
X50261904Y-71083390D01*
X50261904Y-71083390D02*
X50833332Y-71654819D01*
X50833332Y-71654819D02*
X50214285Y-71654819D01*
X33545180Y-57261904D02*
X32735657Y-57261904D01*
X32735657Y-57261904D02*
X32640419Y-57214285D01*
X32640419Y-57214285D02*
X32592800Y-57166666D01*
X32592800Y-57166666D02*
X32545180Y-57071428D01*
X32545180Y-57071428D02*
X32545180Y-56880952D01*
X32545180Y-56880952D02*
X32592800Y-56785714D01*
X32592800Y-56785714D02*
X32640419Y-56738095D01*
X32640419Y-56738095D02*
X32735657Y-56690476D01*
X32735657Y-56690476D02*
X33545180Y-56690476D01*
X33211847Y-55785714D02*
X32545180Y-55785714D01*
X33592800Y-56023809D02*
X32878514Y-56261904D01*
X32878514Y-56261904D02*
X32878514Y-55642857D01*
X24631619Y-61580000D02*
X24869714Y-61580000D01*
X24774476Y-61341905D02*
X24869714Y-61580000D01*
X24869714Y-61580000D02*
X24774476Y-61818095D01*
X25060190Y-61437143D02*
X24869714Y-61580000D01*
X24869714Y-61580000D02*
X25060190Y-61722857D01*
X25721980Y-61579999D02*
X25483885Y-61579999D01*
X25579123Y-61818094D02*
X25483885Y-61579999D01*
X25483885Y-61579999D02*
X25579123Y-61341904D01*
X25293409Y-61722856D02*
X25483885Y-61579999D01*
X25483885Y-61579999D02*
X25293409Y-61437142D01*
X38766666Y-65559580D02*
X38814285Y-65607200D01*
X38814285Y-65607200D02*
X38957142Y-65654819D01*
X38957142Y-65654819D02*
X39052380Y-65654819D01*
X39052380Y-65654819D02*
X39195237Y-65607200D01*
X39195237Y-65607200D02*
X39290475Y-65511961D01*
X39290475Y-65511961D02*
X39338094Y-65416723D01*
X39338094Y-65416723D02*
X39385713Y-65226247D01*
X39385713Y-65226247D02*
X39385713Y-65083390D01*
X39385713Y-65083390D02*
X39338094Y-64892914D01*
X39338094Y-64892914D02*
X39290475Y-64797676D01*
X39290475Y-64797676D02*
X39195237Y-64702438D01*
X39195237Y-64702438D02*
X39052380Y-64654819D01*
X39052380Y-64654819D02*
X38957142Y-64654819D01*
X38957142Y-64654819D02*
X38814285Y-64702438D01*
X38814285Y-64702438D02*
X38766666Y-64750057D01*
X38433332Y-64654819D02*
X37766666Y-64654819D01*
X37766666Y-64654819D02*
X38195237Y-65654819D01*
X18142857Y-42304819D02*
X18476190Y-41828628D01*
X18714285Y-42304819D02*
X18714285Y-41304819D01*
X18714285Y-41304819D02*
X18333333Y-41304819D01*
X18333333Y-41304819D02*
X18238095Y-41352438D01*
X18238095Y-41352438D02*
X18190476Y-41400057D01*
X18190476Y-41400057D02*
X18142857Y-41495295D01*
X18142857Y-41495295D02*
X18142857Y-41638152D01*
X18142857Y-41638152D02*
X18190476Y-41733390D01*
X18190476Y-41733390D02*
X18238095Y-41781009D01*
X18238095Y-41781009D02*
X18333333Y-41828628D01*
X18333333Y-41828628D02*
X18714285Y-41828628D01*
X17190476Y-42304819D02*
X17761904Y-42304819D01*
X17476190Y-42304819D02*
X17476190Y-41304819D01*
X17476190Y-41304819D02*
X17571428Y-41447676D01*
X17571428Y-41447676D02*
X17666666Y-41542914D01*
X17666666Y-41542914D02*
X17761904Y-41590533D01*
X16571428Y-41304819D02*
X16476190Y-41304819D01*
X16476190Y-41304819D02*
X16380952Y-41352438D01*
X16380952Y-41352438D02*
X16333333Y-41400057D01*
X16333333Y-41400057D02*
X16285714Y-41495295D01*
X16285714Y-41495295D02*
X16238095Y-41685771D01*
X16238095Y-41685771D02*
X16238095Y-41923866D01*
X16238095Y-41923866D02*
X16285714Y-42114342D01*
X16285714Y-42114342D02*
X16333333Y-42209580D01*
X16333333Y-42209580D02*
X16380952Y-42257200D01*
X16380952Y-42257200D02*
X16476190Y-42304819D01*
X16476190Y-42304819D02*
X16571428Y-42304819D01*
X16571428Y-42304819D02*
X16666666Y-42257200D01*
X16666666Y-42257200D02*
X16714285Y-42209580D01*
X16714285Y-42209580D02*
X16761904Y-42114342D01*
X16761904Y-42114342D02*
X16809523Y-41923866D01*
X16809523Y-41923866D02*
X16809523Y-41685771D01*
X16809523Y-41685771D02*
X16761904Y-41495295D01*
X16761904Y-41495295D02*
X16714285Y-41400057D01*
X16714285Y-41400057D02*
X16666666Y-41352438D01*
X16666666Y-41352438D02*
X16571428Y-41304819D01*
X48845731Y-41193734D02*
X48131446Y-41193734D01*
X48131446Y-41193734D02*
X47988589Y-41241353D01*
X47988589Y-41241353D02*
X47893351Y-41336591D01*
X47893351Y-41336591D02*
X47845731Y-41479448D01*
X47845731Y-41479448D02*
X47845731Y-41574686D01*
X47845731Y-40669924D02*
X47845731Y-40479448D01*
X47845731Y-40479448D02*
X47893351Y-40384210D01*
X47893351Y-40384210D02*
X47940970Y-40336591D01*
X47940970Y-40336591D02*
X48083827Y-40241353D01*
X48083827Y-40241353D02*
X48274303Y-40193734D01*
X48274303Y-40193734D02*
X48655255Y-40193734D01*
X48655255Y-40193734D02*
X48750493Y-40241353D01*
X48750493Y-40241353D02*
X48798112Y-40288972D01*
X48798112Y-40288972D02*
X48845731Y-40384210D01*
X48845731Y-40384210D02*
X48845731Y-40574686D01*
X48845731Y-40574686D02*
X48798112Y-40669924D01*
X48798112Y-40669924D02*
X48750493Y-40717543D01*
X48750493Y-40717543D02*
X48655255Y-40765162D01*
X48655255Y-40765162D02*
X48417160Y-40765162D01*
X48417160Y-40765162D02*
X48321922Y-40717543D01*
X48321922Y-40717543D02*
X48274303Y-40669924D01*
X48274303Y-40669924D02*
X48226684Y-40574686D01*
X48226684Y-40574686D02*
X48226684Y-40384210D01*
X48226684Y-40384210D02*
X48274303Y-40288972D01*
X48274303Y-40288972D02*
X48321922Y-40241353D01*
X48321922Y-40241353D02*
X48417160Y-40193734D01*
X36666666Y-28179580D02*
X36714285Y-28227200D01*
X36714285Y-28227200D02*
X36857142Y-28274819D01*
X36857142Y-28274819D02*
X36952380Y-28274819D01*
X36952380Y-28274819D02*
X37095237Y-28227200D01*
X37095237Y-28227200D02*
X37190475Y-28131961D01*
X37190475Y-28131961D02*
X37238094Y-28036723D01*
X37238094Y-28036723D02*
X37285713Y-27846247D01*
X37285713Y-27846247D02*
X37285713Y-27703390D01*
X37285713Y-27703390D02*
X37238094Y-27512914D01*
X37238094Y-27512914D02*
X37190475Y-27417676D01*
X37190475Y-27417676D02*
X37095237Y-27322438D01*
X37095237Y-27322438D02*
X36952380Y-27274819D01*
X36952380Y-27274819D02*
X36857142Y-27274819D01*
X36857142Y-27274819D02*
X36714285Y-27322438D01*
X36714285Y-27322438D02*
X36666666Y-27370057D01*
X36285713Y-27370057D02*
X36238094Y-27322438D01*
X36238094Y-27322438D02*
X36142856Y-27274819D01*
X36142856Y-27274819D02*
X35904761Y-27274819D01*
X35904761Y-27274819D02*
X35809523Y-27322438D01*
X35809523Y-27322438D02*
X35761904Y-27370057D01*
X35761904Y-27370057D02*
X35714285Y-27465295D01*
X35714285Y-27465295D02*
X35714285Y-27560533D01*
X35714285Y-27560533D02*
X35761904Y-27703390D01*
X35761904Y-27703390D02*
X36333332Y-28274819D01*
X36333332Y-28274819D02*
X35714285Y-28274819D01*
X21642857Y-61359580D02*
X21690476Y-61407200D01*
X21690476Y-61407200D02*
X21833333Y-61454819D01*
X21833333Y-61454819D02*
X21928571Y-61454819D01*
X21928571Y-61454819D02*
X22071428Y-61407200D01*
X22071428Y-61407200D02*
X22166666Y-61311961D01*
X22166666Y-61311961D02*
X22214285Y-61216723D01*
X22214285Y-61216723D02*
X22261904Y-61026247D01*
X22261904Y-61026247D02*
X22261904Y-60883390D01*
X22261904Y-60883390D02*
X22214285Y-60692914D01*
X22214285Y-60692914D02*
X22166666Y-60597676D01*
X22166666Y-60597676D02*
X22071428Y-60502438D01*
X22071428Y-60502438D02*
X21928571Y-60454819D01*
X21928571Y-60454819D02*
X21833333Y-60454819D01*
X21833333Y-60454819D02*
X21690476Y-60502438D01*
X21690476Y-60502438D02*
X21642857Y-60550057D01*
X20690476Y-61454819D02*
X21261904Y-61454819D01*
X20976190Y-61454819D02*
X20976190Y-60454819D01*
X20976190Y-60454819D02*
X21071428Y-60597676D01*
X21071428Y-60597676D02*
X21166666Y-60692914D01*
X21166666Y-60692914D02*
X21261904Y-60740533D01*
X19785714Y-60454819D02*
X20261904Y-60454819D01*
X20261904Y-60454819D02*
X20309523Y-60931009D01*
X20309523Y-60931009D02*
X20261904Y-60883390D01*
X20261904Y-60883390D02*
X20166666Y-60835771D01*
X20166666Y-60835771D02*
X19928571Y-60835771D01*
X19928571Y-60835771D02*
X19833333Y-60883390D01*
X19833333Y-60883390D02*
X19785714Y-60931009D01*
X19785714Y-60931009D02*
X19738095Y-61026247D01*
X19738095Y-61026247D02*
X19738095Y-61264342D01*
X19738095Y-61264342D02*
X19785714Y-61359580D01*
X19785714Y-61359580D02*
X19833333Y-61407200D01*
X19833333Y-61407200D02*
X19928571Y-61454819D01*
X19928571Y-61454819D02*
X20166666Y-61454819D01*
X20166666Y-61454819D02*
X20261904Y-61407200D01*
X20261904Y-61407200D02*
X20309523Y-61359580D01*
X24133333Y-76054819D02*
X24133333Y-76769104D01*
X24133333Y-76769104D02*
X24180952Y-76911961D01*
X24180952Y-76911961D02*
X24276190Y-77007200D01*
X24276190Y-77007200D02*
X24419047Y-77054819D01*
X24419047Y-77054819D02*
X24514285Y-77054819D01*
X23704761Y-76150057D02*
X23657142Y-76102438D01*
X23657142Y-76102438D02*
X23561904Y-76054819D01*
X23561904Y-76054819D02*
X23323809Y-76054819D01*
X23323809Y-76054819D02*
X23228571Y-76102438D01*
X23228571Y-76102438D02*
X23180952Y-76150057D01*
X23180952Y-76150057D02*
X23133333Y-76245295D01*
X23133333Y-76245295D02*
X23133333Y-76340533D01*
X23133333Y-76340533D02*
X23180952Y-76483390D01*
X23180952Y-76483390D02*
X23752380Y-77054819D01*
X23752380Y-77054819D02*
X23133333Y-77054819D01*
X23166666Y-64304819D02*
X23499999Y-63828628D01*
X23738094Y-64304819D02*
X23738094Y-63304819D01*
X23738094Y-63304819D02*
X23357142Y-63304819D01*
X23357142Y-63304819D02*
X23261904Y-63352438D01*
X23261904Y-63352438D02*
X23214285Y-63400057D01*
X23214285Y-63400057D02*
X23166666Y-63495295D01*
X23166666Y-63495295D02*
X23166666Y-63638152D01*
X23166666Y-63638152D02*
X23214285Y-63733390D01*
X23214285Y-63733390D02*
X23261904Y-63781009D01*
X23261904Y-63781009D02*
X23357142Y-63828628D01*
X23357142Y-63828628D02*
X23738094Y-63828628D01*
X22833332Y-63304819D02*
X22166666Y-63304819D01*
X22166666Y-63304819D02*
X22595237Y-64304819D01*
D11*
%TO.C,J4*%
X44081000Y-49949901D02*
G75*
G02*
X43319000Y-49949901I-381000J0D01*
G01*
X43319000Y-49949901D02*
G75*
G02*
X44081000Y-49949901I381000J0D01*
G01*
D12*
%TO.C,U5*%
X28148600Y-39267600D02*
X28148600Y-49732400D01*
X28148600Y-49732400D02*
X30618703Y-49732400D01*
X30618703Y-39267600D02*
X28148600Y-39267600D01*
D13*
%TO.C,R12*%
X17272936Y-32265000D02*
X17727064Y-32265000D01*
X17272936Y-33735000D02*
X17727064Y-33735000D01*
%TO.C,R8*%
X17272936Y-46265000D02*
X17727064Y-46265000D01*
X17272936Y-47735000D02*
X17727064Y-47735000D01*
%TO.C,C13*%
X19238748Y-49765000D02*
X19761252Y-49765000D01*
X19238748Y-51235000D02*
X19761252Y-51235000D01*
D14*
%TO.C,J3*%
X16042500Y-15885000D02*
X16042500Y-10000000D01*
X16042500Y-19875000D02*
X16042500Y-28000000D01*
X16042500Y-28000000D02*
X31282500Y-28000000D01*
X31282500Y-10000000D02*
X16042500Y-10000000D01*
X31282500Y-15885000D02*
X31282500Y-10000000D01*
X31282500Y-28000000D02*
X31282500Y-19875000D01*
D15*
X15392500Y-24230000D02*
G75*
G02*
X15192500Y-24230000I-100000J0D01*
G01*
X15192500Y-24230000D02*
G75*
G02*
X15392500Y-24230000I100000J0D01*
G01*
D13*
%TO.C,C10*%
X24761252Y-49765000D02*
X24238748Y-49765000D01*
X24761252Y-51235000D02*
X24238748Y-51235000D01*
%TO.C,C12*%
X35761252Y-36765000D02*
X35238748Y-36765000D01*
X35761252Y-38235000D02*
X35238748Y-38235000D01*
%TO.C,C1*%
X20738748Y-28765000D02*
X21261252Y-28765000D01*
X20738748Y-30235000D02*
X21261252Y-30235000D01*
%TO.C,R9*%
X17272936Y-62765000D02*
X17727064Y-62765000D01*
X17272936Y-64235000D02*
X17727064Y-64235000D01*
%TO.C,C14*%
X17238748Y-35765000D02*
X17761252Y-35765000D01*
X17238748Y-37235000D02*
X17761252Y-37235000D01*
D12*
%TO.C,U3*%
X35389000Y-76015500D02*
X35389000Y-77412500D01*
X35389000Y-77412500D02*
X36405000Y-77412500D01*
X36405000Y-73234200D02*
X36405000Y-76015500D01*
X36405000Y-76015500D02*
X35389000Y-76015500D01*
X36405000Y-77412500D02*
X36405000Y-80193800D01*
X36405000Y-80193800D02*
X42856600Y-80193800D01*
X42856600Y-73234200D02*
X36405000Y-73234200D01*
X42856600Y-73599960D02*
X42856600Y-73234200D01*
X42856600Y-80193800D02*
X42856600Y-79828040D01*
D13*
%TO.C,C8*%
X30261252Y-36765000D02*
X29738748Y-36765000D01*
X30261252Y-38235000D02*
X29738748Y-38235000D01*
%TO.C,C6*%
X43500000Y-63125000D02*
X43500000Y-64375000D01*
X44125000Y-63750000D02*
X42875000Y-63750000D01*
D16*
X47000000Y-59750000D02*
X47000000Y-72250000D01*
D13*
X52370000Y-66000000D02*
G75*
G02*
X39630000Y-66000000I-6370000J0D01*
G01*
X39630000Y-66000000D02*
G75*
G02*
X52370000Y-66000000I6370000J0D01*
G01*
%TO.C,C9*%
X17238748Y-56265000D02*
X17761252Y-56265000D01*
X17238748Y-57735000D02*
X17761252Y-57735000D01*
%TO.C,R1*%
X49772936Y-73765000D02*
X50227064Y-73765000D01*
X49772936Y-75235000D02*
X50227064Y-75235000D01*
%TO.C,C16*%
X17238748Y-39265000D02*
X17761252Y-39265000D01*
X17238748Y-40735000D02*
X17761252Y-40735000D01*
%TO.C,C11*%
X33701248Y-62765000D02*
X34223752Y-62765000D01*
X33701248Y-64235000D02*
X34223752Y-64235000D01*
%TO.C,R11*%
X17272936Y-53265000D02*
X17727064Y-53265000D01*
X17272936Y-54735000D02*
X17727064Y-54735000D01*
%TO.C,R2*%
X50227064Y-68765000D02*
X49772936Y-68765000D01*
X50227064Y-70235000D02*
X49772936Y-70235000D01*
D12*
%TO.C,U4*%
X28148600Y-51267600D02*
X28148600Y-61732400D01*
X28148600Y-61732400D02*
X30618703Y-61732400D01*
X30618703Y-51267600D02*
X28148600Y-51267600D01*
D13*
%TO.C,C7*%
X39238748Y-62765000D02*
X39761252Y-62765000D01*
X39238748Y-64235000D02*
X39761252Y-64235000D01*
%TO.C,R10*%
X17272936Y-42765000D02*
X17727064Y-42765000D01*
X17272936Y-44235000D02*
X17727064Y-44235000D01*
D12*
%TO.C,J9*%
X44173051Y-33227701D02*
X44173051Y-36129961D01*
X44173051Y-38090841D02*
X44173051Y-38629961D01*
X44173051Y-40590841D02*
X44173051Y-41129961D01*
X44173051Y-43090841D02*
X44173051Y-43629961D01*
X44173051Y-45590841D02*
X44173051Y-48493101D01*
X44173051Y-48493101D02*
X48252510Y-48493101D01*
X48252510Y-33227701D02*
X44173051Y-33227701D01*
X52428051Y-46575960D02*
X52428051Y-35144842D01*
D11*
X44132050Y-32592701D02*
G75*
G02*
X43370050Y-32592701I-381000J0D01*
G01*
X43370050Y-32592701D02*
G75*
G02*
X44132050Y-32592701I381000J0D01*
G01*
D13*
%TO.C,C2*%
X36238748Y-28765000D02*
X36761252Y-28765000D01*
X36238748Y-30235000D02*
X36761252Y-30235000D01*
%TO.C,C15*%
X17238748Y-60265000D02*
X17761252Y-60265000D01*
X17238748Y-61735000D02*
X17761252Y-61735000D01*
D14*
%TO.C,J2*%
X16168055Y-67395000D02*
X16168055Y-75520000D01*
X16168055Y-79510000D02*
X16168055Y-85395000D01*
X16168055Y-85395000D02*
X31408055Y-85395000D01*
X31408055Y-67395000D02*
X16168055Y-67395000D01*
X31408055Y-75520000D02*
X31408055Y-67395000D01*
X31408055Y-79510000D02*
X31408055Y-85395000D01*
D15*
X32258055Y-71165000D02*
G75*
G02*
X32058055Y-71165000I-100000J0D01*
G01*
X32058055Y-71165000D02*
G75*
G02*
X32258055Y-71165000I100000J0D01*
G01*
D13*
%TO.C,R7*%
X22772936Y-64765000D02*
X23227064Y-64765000D01*
X22772936Y-66235000D02*
X23227064Y-66235000D01*
%TD*%
%LPC*%
D17*
%TO.C,J8*%
X34000000Y-19000000D03*
X45000000Y-19000000D03*
D18*
X37000000Y-24000000D03*
D19*
X42000000Y-24000000D03*
%TD*%
D17*
%TO.C,J6*%
X45000000Y-80665000D03*
D18*
X37000000Y-70665000D03*
D17*
X34000000Y-80665000D03*
D19*
X42000000Y-70665000D03*
%TD*%
D20*
%TO.C,J1*%
X16825000Y-59000000D03*
X16825000Y-65600000D03*
%TD*%
D17*
%TO.C,J7*%
X49850000Y-51500000D03*
X49850000Y-62500000D03*
D18*
X44850000Y-54500000D03*
D19*
X44850000Y-59500000D03*
%TD*%
D21*
%TO.C,H3*%
X50000000Y-79500000D03*
D22*
X50000000Y-79500000D03*
%TD*%
D21*
%TO.C,H2*%
X49899999Y-18121321D03*
D22*
X49899999Y-18121321D03*
%TD*%
D23*
%TO.C,U5*%
X24841700Y-44500000D03*
X24841700Y-48310000D03*
X24841700Y-47040000D03*
X24841700Y-45770000D03*
X24841700Y-43230000D03*
X24841700Y-41960000D03*
X24841700Y-40690000D03*
D24*
X35721300Y-44500000D03*
%TD*%
D25*
%TO.C,R12*%
X18500000Y-33000000D03*
X16500000Y-33000000D03*
%TD*%
%TO.C,R8*%
X18500000Y-47000000D03*
X16500000Y-47000000D03*
%TD*%
D26*
%TO.C,C13*%
X20537500Y-50500000D03*
X18462500Y-50500000D03*
%TD*%
D27*
%TO.C,J3*%
X17946500Y-17880000D03*
X29378500Y-17880000D03*
D28*
X19217500Y-24230000D03*
D29*
X20487500Y-26770000D03*
X21757500Y-24230000D03*
X23027500Y-26770000D03*
X24297500Y-24230000D03*
X25567500Y-26770000D03*
X26837500Y-24230000D03*
X28107500Y-26770000D03*
%TD*%
D30*
%TO.C,C10*%
X23462500Y-50500000D03*
X25537500Y-50500000D03*
%TD*%
%TO.C,C12*%
X34462500Y-37500000D03*
X36537500Y-37500000D03*
%TD*%
D26*
%TO.C,C1*%
X22037500Y-29500000D03*
X19962500Y-29500000D03*
%TD*%
D25*
%TO.C,R9*%
X18500000Y-63500000D03*
X16500000Y-63500000D03*
%TD*%
D26*
%TO.C,C14*%
X18537500Y-36500000D03*
X16462500Y-36500000D03*
%TD*%
D31*
%TO.C,U3*%
X34500000Y-79000000D03*
D32*
X42122800Y-76714000D03*
D31*
X34500000Y-74428000D03*
%TD*%
D30*
%TO.C,C8*%
X28962500Y-37500000D03*
X31037500Y-37500000D03*
%TD*%
D33*
%TO.C,C6*%
X43500000Y-66000000D03*
D34*
X48500000Y-66000000D03*
%TD*%
D26*
%TO.C,C9*%
X18537500Y-57000000D03*
X16462500Y-57000000D03*
%TD*%
D25*
%TO.C,R1*%
X51000000Y-74500000D03*
X49000000Y-74500000D03*
%TD*%
D26*
%TO.C,C16*%
X18537500Y-40000000D03*
X16462500Y-40000000D03*
%TD*%
%TO.C,C11*%
X35000000Y-63500000D03*
X32925000Y-63500000D03*
%TD*%
D25*
%TO.C,R11*%
X18500000Y-54000000D03*
X16500000Y-54000000D03*
%TD*%
D35*
%TO.C,R2*%
X49000000Y-69500000D03*
X51000000Y-69500000D03*
%TD*%
D23*
%TO.C,U4*%
X24841700Y-56500000D03*
X24841700Y-60310000D03*
X24841700Y-59040000D03*
X24841700Y-57770000D03*
X24841700Y-55230000D03*
X24841700Y-53960000D03*
X24841700Y-52690000D03*
D24*
X35721300Y-56500000D03*
%TD*%
D26*
%TO.C,C7*%
X40537500Y-63500000D03*
X38462500Y-63500000D03*
%TD*%
D25*
%TO.C,R10*%
X18500000Y-43500000D03*
X16500000Y-43500000D03*
%TD*%
D36*
%TO.C,J9*%
X50541050Y-47810400D03*
X50541050Y-33910402D03*
D37*
X43751050Y-37110401D03*
X43751050Y-39610401D03*
X43751050Y-42110401D03*
X43751050Y-44610401D03*
%TD*%
D26*
%TO.C,C2*%
X37537500Y-29500000D03*
X35462500Y-29500000D03*
%TD*%
%TO.C,C15*%
X18537500Y-61000000D03*
X16462500Y-61000000D03*
%TD*%
D27*
%TO.C,J2*%
X29504055Y-77515000D03*
X18072055Y-77515000D03*
D38*
X28233055Y-71165000D03*
D29*
X26963055Y-68625000D03*
X25693055Y-71165000D03*
X24423055Y-68625000D03*
X23153055Y-71165000D03*
X21883055Y-68625000D03*
X20613055Y-71165000D03*
X19343055Y-68625000D03*
%TD*%
D25*
%TO.C,R7*%
X24000000Y-65500000D03*
X22000000Y-65500000D03*
%TD*%
%LPD*%
M02*
