%TF.GenerationSoftware,KiCad,Pcbnew,8.0.1-rc1*%
%TF.CreationDate,2024-08-22T21:46:05-04:00*%
%TF.ProjectId,MOBO_V1,4d4f424f-5f56-4312-9e6b-696361645f70,rev?*%
%TF.SameCoordinates,Original*%
%TF.FileFunction,Soldermask,Top*%
%TF.FilePolarity,Negative*%
%FSLAX46Y46*%
G04 Gerber Fmt 4.6, Leading zero omitted, Abs format (unit mm)*
G04 Created by KiCad (PCBNEW 8.0.1-rc1) date 2024-08-22 21:46:05*
%MOMM*%
%LPD*%
G01*
G04 APERTURE LIST*
G04 Aperture macros list*
%AMRoundRect*
0 Rectangle with rounded corners*
0 $1 Rounding radius*
0 $2 $3 $4 $5 $6 $7 $8 $9 X,Y pos of 4 corners*
0 Add a 4 corners polygon primitive as box body*
4,1,4,$2,$3,$4,$5,$6,$7,$8,$9,$2,$3,0*
0 Add four circle primitives for the rounded corners*
1,1,$1+$1,$2,$3*
1,1,$1+$1,$4,$5*
1,1,$1+$1,$6,$7*
1,1,$1+$1,$8,$9*
0 Add four rect primitives between the rounded corners*
20,1,$1+$1,$2,$3,$4,$5,0*
20,1,$1+$1,$4,$5,$6,$7,0*
20,1,$1+$1,$6,$7,$8,$9,0*
20,1,$1+$1,$8,$9,$2,$3,0*%
G04 Aperture macros list end*
%ADD10RoundRect,0.250000X0.350000X0.450000X-0.350000X0.450000X-0.350000X-0.450000X0.350000X-0.450000X0*%
%ADD11R,1.700000X1.700000*%
%ADD12O,1.700000X1.700000*%
%ADD13RoundRect,0.250000X0.450000X-0.350000X0.450000X0.350000X-0.450000X0.350000X-0.450000X-0.350000X0*%
%ADD14RoundRect,0.243750X-0.456250X0.243750X-0.456250X-0.243750X0.456250X-0.243750X0.456250X0.243750X0*%
%ADD15RoundRect,0.150000X0.512500X0.150000X-0.512500X0.150000X-0.512500X-0.150000X0.512500X-0.150000X0*%
%ADD16C,3.200000*%
%ADD17RoundRect,0.250000X0.475000X-0.337500X0.475000X0.337500X-0.475000X0.337500X-0.475000X-0.337500X0*%
%ADD18RoundRect,0.150000X-0.512500X-0.150000X0.512500X-0.150000X0.512500X0.150000X-0.512500X0.150000X0*%
%ADD19RoundRect,0.150000X0.150000X-0.587500X0.150000X0.587500X-0.150000X0.587500X-0.150000X-0.587500X0*%
%ADD20C,0.650000*%
%ADD21R,0.600000X1.240000*%
%ADD22R,0.300000X1.240000*%
%ADD23O,1.000000X2.100000*%
%ADD24O,1.000000X1.800000*%
%ADD25RoundRect,0.250000X-0.475000X0.337500X-0.475000X-0.337500X0.475000X-0.337500X0.475000X0.337500X0*%
%ADD26C,1.150000*%
%ADD27C,1.650000*%
%ADD28RoundRect,0.102000X0.150000X0.775000X-0.150000X0.775000X-0.150000X-0.775000X0.150000X-0.775000X0*%
%ADD29RoundRect,0.102000X0.600000X1.375000X-0.600000X1.375000X-0.600000X-1.375000X0.600000X-1.375000X0*%
G04 APERTURE END LIST*
D10*
%TO.C,FB201*%
X57550000Y-153850000D03*
X55550000Y-153850000D03*
%TD*%
D11*
%TO.C,I2C_0*%
X87983000Y-70950000D03*
D12*
X87983000Y-73490000D03*
X87983000Y-76030000D03*
X87983000Y-78570000D03*
%TD*%
D13*
%TO.C,R201*%
X62975000Y-151475000D03*
X62975000Y-149475000D03*
%TD*%
D14*
%TO.C,F201*%
X56537500Y-146287500D03*
X56537500Y-148162500D03*
%TD*%
D15*
%TO.C,U301*%
X72975000Y-143325000D03*
X72975000Y-142375000D03*
X72975000Y-141425000D03*
X70700000Y-141425000D03*
X70700000Y-142375000D03*
X70700000Y-143325000D03*
%TD*%
D11*
%TO.C,\u00B5SD*%
X80150000Y-98800000D03*
D12*
X80150000Y-101340000D03*
X80150000Y-103880000D03*
X80150000Y-106420000D03*
X80150000Y-108960000D03*
X80150000Y-111500000D03*
%TD*%
D11*
%TO.C,I2C_1*%
X95766000Y-70950000D03*
D12*
X95766000Y-73490000D03*
X95766000Y-76030000D03*
X95766000Y-78570000D03*
%TD*%
D16*
%TO.C,V1_mount*%
X56550000Y-59325000D03*
%TD*%
D17*
%TO.C,C201*%
X60600000Y-151512500D03*
X60600000Y-149437500D03*
%TD*%
D11*
%TO.C,I2S*%
X80175000Y-83525000D03*
D12*
X80175000Y-86065000D03*
X80175000Y-88605000D03*
X80175000Y-91145000D03*
X80175000Y-93685000D03*
%TD*%
D17*
%TO.C,C206*%
X52775000Y-151512500D03*
X52775000Y-149437500D03*
%TD*%
D11*
%TO.C,Droite*%
X71850000Y-70755000D03*
D12*
X71850000Y-73295000D03*
X71850000Y-75835000D03*
X71850000Y-78375000D03*
X71850000Y-80915000D03*
X71850000Y-83455000D03*
X71850000Y-85995000D03*
X71850000Y-88535000D03*
X71850000Y-91075000D03*
X71850000Y-93615000D03*
X71850000Y-96155000D03*
X71850000Y-98695000D03*
X71850000Y-101235000D03*
X71850000Y-103775000D03*
X71850000Y-106315000D03*
X71850000Y-108855000D03*
X71850000Y-111395000D03*
X71850000Y-113935000D03*
X71850000Y-116475000D03*
X71850000Y-119015000D03*
X71850000Y-121555000D03*
X71850000Y-124095000D03*
X71850000Y-126635000D03*
X71850000Y-129175000D03*
X71850000Y-131715000D03*
%TD*%
D18*
%TO.C,U302*%
X40050000Y-141425000D03*
X40050000Y-142375000D03*
X40050000Y-143325000D03*
X42325000Y-143325000D03*
X42325000Y-142375000D03*
X42325000Y-141425000D03*
%TD*%
D17*
%TO.C,C205*%
X65350000Y-151512500D03*
X65350000Y-149437500D03*
%TD*%
D11*
%TO.C,Gauche*%
X41225000Y-70705000D03*
D12*
X41225000Y-73245000D03*
X41225000Y-75785000D03*
X41225000Y-78325000D03*
X41225000Y-80865000D03*
X41225000Y-83405000D03*
X41225000Y-85945000D03*
X41225000Y-88485000D03*
X41225000Y-91025000D03*
X41225000Y-93565000D03*
X41225000Y-96105000D03*
X41225000Y-98645000D03*
X41225000Y-101185000D03*
X41225000Y-103725000D03*
X41225000Y-106265000D03*
X41225000Y-108805000D03*
X41225000Y-111345000D03*
X41225000Y-113885000D03*
X41225000Y-116425000D03*
X41225000Y-118965000D03*
X41225000Y-121505000D03*
X41225000Y-124045000D03*
X41225000Y-126585000D03*
X41225000Y-129125000D03*
X41225000Y-131665000D03*
%TD*%
D11*
%TO.C,UART*%
X103525000Y-83645000D03*
D12*
X103525000Y-86185000D03*
X103525000Y-88725000D03*
X103525000Y-91265000D03*
%TD*%
D16*
%TO.C,V2_mount*%
X56550000Y-79325000D03*
%TD*%
D11*
%TO.C,I2C_0*%
X80200000Y-70950000D03*
D12*
X80200000Y-73490000D03*
X80200000Y-76030000D03*
X80200000Y-78570000D03*
%TD*%
D11*
%TO.C,SPI*%
X103525000Y-98850000D03*
D12*
X103525000Y-101390000D03*
X103525000Y-103930000D03*
X103525000Y-106470000D03*
X103525000Y-109010000D03*
X103525000Y-111550000D03*
%TD*%
D19*
%TO.C,Q201*%
X55575000Y-151825000D03*
X57475000Y-151825000D03*
X56525000Y-149950000D03*
%TD*%
D14*
%TO.C,PWR_3V3*%
X62975000Y-145912500D03*
X62975000Y-147787500D03*
%TD*%
D11*
%TO.C,CAN*%
X92275000Y-83580000D03*
D12*
X92275000Y-86120000D03*
X92275000Y-88660000D03*
X92275000Y-91200000D03*
%TD*%
D20*
%TO.C,UART_PROG*%
X69005000Y-148795000D03*
X74785000Y-148795000D03*
D21*
X68695000Y-147675000D03*
X69495000Y-147675000D03*
D22*
X70645000Y-147675000D03*
X71645000Y-147675000D03*
X72145000Y-147675000D03*
X73145000Y-147675000D03*
D21*
X74295000Y-147675000D03*
X75095000Y-147675000D03*
X75095000Y-147675000D03*
X74295000Y-147675000D03*
D22*
X73645000Y-147675000D03*
X72645000Y-147675000D03*
X71145000Y-147675000D03*
X70145000Y-147675000D03*
D21*
X69495000Y-147675000D03*
X68695000Y-147675000D03*
D23*
X67575000Y-148275000D03*
D24*
X67575000Y-152475000D03*
D23*
X76215000Y-148275000D03*
D24*
X76215000Y-152475000D03*
%TD*%
D25*
%TO.C,C202*%
X48025000Y-149437500D03*
X48025000Y-151512500D03*
%TD*%
D20*
%TO.C,DEBUG_USB*%
X38585000Y-148795000D03*
X44365000Y-148795000D03*
D21*
X38275000Y-147675000D03*
X39075000Y-147675000D03*
D22*
X40225000Y-147675000D03*
X41225000Y-147675000D03*
X41725000Y-147675000D03*
X42725000Y-147675000D03*
D21*
X43875000Y-147675000D03*
X44675000Y-147675000D03*
X44675000Y-147675000D03*
X43875000Y-147675000D03*
D22*
X43225000Y-147675000D03*
X42225000Y-147675000D03*
X40725000Y-147675000D03*
X39725000Y-147675000D03*
D21*
X39075000Y-147675000D03*
X38275000Y-147675000D03*
D23*
X37155000Y-148275000D03*
D24*
X37155000Y-152475000D03*
D23*
X45795000Y-148275000D03*
D24*
X45795000Y-152475000D03*
%TD*%
D11*
%TO.C,I2C_1*%
X103549000Y-70950000D03*
D12*
X103549000Y-73490000D03*
X103549000Y-76030000D03*
X103549000Y-78570000D03*
%TD*%
D26*
%TO.C,J101*%
X66575000Y-136600000D03*
D27*
X46575000Y-136600000D03*
D28*
X65825000Y-141875000D03*
X65575000Y-134325000D03*
X65325000Y-141875000D03*
X65075000Y-134325000D03*
X64825000Y-141875000D03*
X64575000Y-134325000D03*
X64325000Y-141875000D03*
X64075000Y-134325000D03*
X63825000Y-141875000D03*
X63575000Y-134325000D03*
X63325000Y-141875000D03*
X63075000Y-134325000D03*
X62825000Y-141875000D03*
X62575000Y-134325000D03*
X62325000Y-141875000D03*
X62075000Y-134325000D03*
X61825000Y-141875000D03*
X61575000Y-134325000D03*
X61325000Y-141875000D03*
X61075000Y-134325000D03*
X60825000Y-141875000D03*
X60575000Y-134325000D03*
X60325000Y-141875000D03*
X58075000Y-134325000D03*
X57825000Y-141875000D03*
X57575000Y-134325000D03*
X57325000Y-141875000D03*
X57075000Y-134325000D03*
X56825000Y-141875000D03*
X56575000Y-134325000D03*
X56325000Y-141875000D03*
X56075000Y-134325000D03*
X55825000Y-141875000D03*
X55575000Y-134325000D03*
X55325000Y-141875000D03*
X55075000Y-134325000D03*
X54825000Y-141875000D03*
X54575000Y-134325000D03*
X54325000Y-141875000D03*
X54075000Y-134325000D03*
X53825000Y-141875000D03*
X53575000Y-134325000D03*
X53325000Y-141875000D03*
X53075000Y-134325000D03*
X52825000Y-141875000D03*
X52575000Y-134325000D03*
X52325000Y-141875000D03*
X52075000Y-134325000D03*
X51825000Y-141875000D03*
X51575000Y-134325000D03*
X51325000Y-141875000D03*
X51075000Y-134325000D03*
X50825000Y-141875000D03*
X50575000Y-134325000D03*
X50325000Y-141875000D03*
X50075000Y-134325000D03*
X49825000Y-141875000D03*
X49575000Y-134325000D03*
X49325000Y-141875000D03*
X49075000Y-134325000D03*
X48825000Y-141875000D03*
X48575000Y-134325000D03*
X48325000Y-141875000D03*
X48075000Y-134325000D03*
X47825000Y-141875000D03*
X47575000Y-134325000D03*
X47325000Y-141875000D03*
D29*
X66925000Y-141100000D03*
X46225000Y-141100000D03*
%TD*%
M02*
