%TF.GenerationSoftware,KiCad,Pcbnew,8.0.1-rc1*%
%TF.CreationDate,2024-08-22T21:46:05-04:00*%
%TF.ProjectId,MOBO_V1,4d4f424f-5f56-4312-9e6b-696361645f70,rev?*%
%TF.SameCoordinates,Original*%
%TF.FileFunction,Soldermask,Bot*%
%TF.FilePolarity,Negative*%
%FSLAX46Y46*%
G04 Gerber Fmt 4.6, Leading zero omitted, Abs format (unit mm)*
G04 Created by KiCad (PCBNEW 8.0.1-rc1) date 2024-08-22 21:46:05*
%MOMM*%
%LPD*%
G01*
G04 APERTURE LIST*
G04 Aperture macros list*
%AMRoundRect*
0 Rectangle with rounded corners*
0 $1 Rounding radius*
0 $2 $3 $4 $5 $6 $7 $8 $9 X,Y pos of 4 corners*
0 Add a 4 corners polygon primitive as box body*
4,1,4,$2,$3,$4,$5,$6,$7,$8,$9,$2,$3,0*
0 Add four circle primitives for the rounded corners*
1,1,$1+$1,$2,$3*
1,1,$1+$1,$4,$5*
1,1,$1+$1,$6,$7*
1,1,$1+$1,$8,$9*
0 Add four rect primitives between the rounded corners*
20,1,$1+$1,$2,$3,$4,$5,0*
20,1,$1+$1,$4,$5,$6,$7,0*
20,1,$1+$1,$6,$7,$8,$9,0*
20,1,$1+$1,$8,$9,$2,$3,0*%
G04 Aperture macros list end*
%ADD10R,1.700000X1.700000*%
%ADD11O,1.700000X1.700000*%
%ADD12C,3.200000*%
%ADD13C,0.650000*%
%ADD14O,1.000000X2.100000*%
%ADD15O,1.000000X1.800000*%
%ADD16C,1.150000*%
%ADD17C,1.650000*%
%ADD18RoundRect,0.250000X-0.450000X0.350000X-0.450000X-0.350000X0.450000X-0.350000X0.450000X0.350000X0*%
%ADD19RoundRect,0.375000X-0.375000X0.625000X-0.375000X-0.625000X0.375000X-0.625000X0.375000X0.625000X0*%
%ADD20RoundRect,0.500000X-1.400000X0.500000X-1.400000X-0.500000X1.400000X-0.500000X1.400000X0.500000X0*%
G04 APERTURE END LIST*
D10*
%TO.C,I2C_0*%
X87983000Y-70950000D03*
D11*
X87983000Y-73490000D03*
X87983000Y-76030000D03*
X87983000Y-78570000D03*
%TD*%
D10*
%TO.C,\u00B5SD*%
X80150000Y-98800000D03*
D11*
X80150000Y-101340000D03*
X80150000Y-103880000D03*
X80150000Y-106420000D03*
X80150000Y-108960000D03*
X80150000Y-111500000D03*
%TD*%
D10*
%TO.C,I2C_1*%
X95766000Y-70950000D03*
D11*
X95766000Y-73490000D03*
X95766000Y-76030000D03*
X95766000Y-78570000D03*
%TD*%
D12*
%TO.C,V1_mount*%
X56550000Y-59325000D03*
%TD*%
D10*
%TO.C,I2S*%
X80175000Y-83525000D03*
D11*
X80175000Y-86065000D03*
X80175000Y-88605000D03*
X80175000Y-91145000D03*
X80175000Y-93685000D03*
%TD*%
D10*
%TO.C,Droite*%
X71850000Y-70755000D03*
D11*
X71850000Y-73295000D03*
X71850000Y-75835000D03*
X71850000Y-78375000D03*
X71850000Y-80915000D03*
X71850000Y-83455000D03*
X71850000Y-85995000D03*
X71850000Y-88535000D03*
X71850000Y-91075000D03*
X71850000Y-93615000D03*
X71850000Y-96155000D03*
X71850000Y-98695000D03*
X71850000Y-101235000D03*
X71850000Y-103775000D03*
X71850000Y-106315000D03*
X71850000Y-108855000D03*
X71850000Y-111395000D03*
X71850000Y-113935000D03*
X71850000Y-116475000D03*
X71850000Y-119015000D03*
X71850000Y-121555000D03*
X71850000Y-124095000D03*
X71850000Y-126635000D03*
X71850000Y-129175000D03*
X71850000Y-131715000D03*
%TD*%
D10*
%TO.C,Gauche*%
X41225000Y-70705000D03*
D11*
X41225000Y-73245000D03*
X41225000Y-75785000D03*
X41225000Y-78325000D03*
X41225000Y-80865000D03*
X41225000Y-83405000D03*
X41225000Y-85945000D03*
X41225000Y-88485000D03*
X41225000Y-91025000D03*
X41225000Y-93565000D03*
X41225000Y-96105000D03*
X41225000Y-98645000D03*
X41225000Y-101185000D03*
X41225000Y-103725000D03*
X41225000Y-106265000D03*
X41225000Y-108805000D03*
X41225000Y-111345000D03*
X41225000Y-113885000D03*
X41225000Y-116425000D03*
X41225000Y-118965000D03*
X41225000Y-121505000D03*
X41225000Y-124045000D03*
X41225000Y-126585000D03*
X41225000Y-129125000D03*
X41225000Y-131665000D03*
%TD*%
D10*
%TO.C,UART*%
X103525000Y-83645000D03*
D11*
X103525000Y-86185000D03*
X103525000Y-88725000D03*
X103525000Y-91265000D03*
%TD*%
D12*
%TO.C,V2_mount*%
X56550000Y-79325000D03*
%TD*%
D10*
%TO.C,I2C_0*%
X80200000Y-70950000D03*
D11*
X80200000Y-73490000D03*
X80200000Y-76030000D03*
X80200000Y-78570000D03*
%TD*%
D10*
%TO.C,SPI*%
X103525000Y-98850000D03*
D11*
X103525000Y-101390000D03*
X103525000Y-103930000D03*
X103525000Y-106470000D03*
X103525000Y-109010000D03*
X103525000Y-111550000D03*
%TD*%
D10*
%TO.C,CAN*%
X92275000Y-83580000D03*
D11*
X92275000Y-86120000D03*
X92275000Y-88660000D03*
X92275000Y-91200000D03*
%TD*%
D13*
%TO.C,UART_PROG*%
X69005000Y-148795000D03*
X74785000Y-148795000D03*
D14*
X67575000Y-148275000D03*
D15*
X67575000Y-152475000D03*
D14*
X76215000Y-148275000D03*
D15*
X76215000Y-152475000D03*
%TD*%
D13*
%TO.C,DEBUG_USB*%
X38585000Y-148795000D03*
X44365000Y-148795000D03*
D14*
X37155000Y-148275000D03*
D15*
X37155000Y-152475000D03*
D14*
X45795000Y-148275000D03*
D15*
X45795000Y-152475000D03*
%TD*%
D10*
%TO.C,I2C_1*%
X103549000Y-70950000D03*
D11*
X103549000Y-73490000D03*
X103549000Y-76030000D03*
X103549000Y-78570000D03*
%TD*%
D16*
%TO.C,J101*%
X66575000Y-136600000D03*
D17*
X46575000Y-136600000D03*
%TD*%
D18*
%TO.C,R303*%
X44125000Y-150275000D03*
X44125000Y-152275000D03*
%TD*%
%TO.C,R301*%
X74500000Y-150300000D03*
X74500000Y-152300000D03*
%TD*%
D19*
%TO.C,U203*%
X60637500Y-147250000D03*
X62937500Y-147250000D03*
D20*
X62937500Y-153550000D03*
D19*
X65237500Y-147250000D03*
%TD*%
D18*
%TO.C,R304*%
X38825000Y-150275000D03*
X38825000Y-152275000D03*
%TD*%
D19*
%TO.C,U202*%
X48125000Y-147237500D03*
X50425000Y-147237500D03*
D20*
X50425000Y-153537500D03*
D19*
X52725000Y-147237500D03*
%TD*%
D18*
%TO.C,R302*%
X69275000Y-150300000D03*
X69275000Y-152300000D03*
%TD*%
M02*
