%TF.GenerationSoftware,KiCad,Pcbnew,8.0.1-8.0.1-1~ubuntu22.04.1*%
%TF.CreationDate,2024-04-18T01:12:43-04:00*%
%TF.ProjectId,esp32_rover_devkit,65737033-325f-4726-9f76-65725f646576,rev?*%
%TF.SameCoordinates,Original*%
%TF.FileFunction,Legend,Bot*%
%TF.FilePolarity,Positive*%
%FSLAX46Y46*%
G04 Gerber Fmt 4.6, Leading zero omitted, Abs format (unit mm)*
G04 Created by KiCad (PCBNEW 8.0.1-8.0.1-1~ubuntu22.04.1) date 2024-04-18 01:12:43*
%MOMM*%
%LPD*%
G01*
G04 APERTURE LIST*
G04 Aperture macros list*
%AMRoundRect*
0 Rectangle with rounded corners*
0 $1 Rounding radius*
0 $2 $3 $4 $5 $6 $7 $8 $9 X,Y pos of 4 corners*
0 Add a 4 corners polygon primitive as box body*
4,1,4,$2,$3,$4,$5,$6,$7,$8,$9,$2,$3,0*
0 Add four circle primitives for the rounded corners*
1,1,$1+$1,$2,$3*
1,1,$1+$1,$4,$5*
1,1,$1+$1,$6,$7*
1,1,$1+$1,$8,$9*
0 Add four rect primitives between the rounded corners*
20,1,$1+$1,$2,$3,$4,$5,0*
20,1,$1+$1,$4,$5,$6,$7,0*
20,1,$1+$1,$6,$7,$8,$9,0*
20,1,$1+$1,$8,$9,$2,$3,0*%
G04 Aperture macros list end*
%ADD10C,0.100000*%
%ADD11C,0.150000*%
%ADD12C,0.152400*%
%ADD13C,0.120000*%
%ADD14C,0.127000*%
%ADD15C,0.200000*%
%ADD16RoundRect,0.225000X1.775000X0.525000X-1.775000X0.525000X-1.775000X-0.525000X1.775000X-0.525000X0*%
%ADD17C,2.600000*%
%ADD18C,3.800000*%
%ADD19O,1.600000X0.900000*%
%ADD20R,0.939800X2.489200*%
%ADD21R,5.562600X5.918200*%
%ADD22RoundRect,0.250000X0.475000X-0.337500X0.475000X0.337500X-0.475000X0.337500X-0.475000X-0.337500X0*%
%ADD23RoundRect,0.250000X-0.325000X-0.450000X0.325000X-0.450000X0.325000X0.450000X-0.325000X0.450000X0*%
%ADD24R,0.609600X1.511300*%
%ADD25RoundRect,0.250000X-0.337500X-0.475000X0.337500X-0.475000X0.337500X0.475000X-0.337500X0.475000X0*%
%ADD26RoundRect,0.055580X0.921420X0.341420X-0.921420X0.341420X-0.921420X-0.341420X0.921420X-0.341420X0*%
%ADD27RoundRect,0.250000X-0.350000X-0.450000X0.350000X-0.450000X0.350000X0.450000X-0.350000X0.450000X0*%
%ADD28RoundRect,0.250000X0.350000X0.450000X-0.350000X0.450000X-0.350000X-0.450000X0.350000X-0.450000X0*%
%ADD29C,3.350000*%
%ADD30RoundRect,0.102000X0.634000X0.634000X-0.634000X0.634000X-0.634000X-0.634000X0.634000X-0.634000X0*%
%ADD31C,1.472000*%
%ADD32RoundRect,0.102000X-0.634000X-0.634000X0.634000X-0.634000X0.634000X0.634000X-0.634000X0.634000X0*%
%ADD33C,0.600000*%
G04 APERTURE END LIST*
D10*
X42566390Y-32857142D02*
X42518771Y-32714285D01*
X42518771Y-32714285D02*
X42471152Y-32666666D01*
X42471152Y-32666666D02*
X42375914Y-32619047D01*
X42375914Y-32619047D02*
X42233057Y-32619047D01*
X42233057Y-32619047D02*
X42137819Y-32666666D01*
X42137819Y-32666666D02*
X42090200Y-32714285D01*
X42090200Y-32714285D02*
X42042580Y-32809523D01*
X42042580Y-32809523D02*
X42042580Y-33190475D01*
X42042580Y-33190475D02*
X43042580Y-33190475D01*
X43042580Y-33190475D02*
X43042580Y-32857142D01*
X43042580Y-32857142D02*
X42994961Y-32761904D01*
X42994961Y-32761904D02*
X42947342Y-32714285D01*
X42947342Y-32714285D02*
X42852104Y-32666666D01*
X42852104Y-32666666D02*
X42756866Y-32666666D01*
X42756866Y-32666666D02*
X42661628Y-32714285D01*
X42661628Y-32714285D02*
X42614009Y-32761904D01*
X42614009Y-32761904D02*
X42566390Y-32857142D01*
X42566390Y-32857142D02*
X42566390Y-33190475D01*
X43042580Y-31999999D02*
X43042580Y-31809523D01*
X43042580Y-31809523D02*
X42994961Y-31714285D01*
X42994961Y-31714285D02*
X42899723Y-31619047D01*
X42899723Y-31619047D02*
X42709247Y-31571428D01*
X42709247Y-31571428D02*
X42375914Y-31571428D01*
X42375914Y-31571428D02*
X42185438Y-31619047D01*
X42185438Y-31619047D02*
X42090200Y-31714285D01*
X42090200Y-31714285D02*
X42042580Y-31809523D01*
X42042580Y-31809523D02*
X42042580Y-31999999D01*
X42042580Y-31999999D02*
X42090200Y-32095237D01*
X42090200Y-32095237D02*
X42185438Y-32190475D01*
X42185438Y-32190475D02*
X42375914Y-32238094D01*
X42375914Y-32238094D02*
X42709247Y-32238094D01*
X42709247Y-32238094D02*
X42899723Y-32190475D01*
X42899723Y-32190475D02*
X42994961Y-32095237D01*
X42994961Y-32095237D02*
X43042580Y-31999999D01*
X43042580Y-30952380D02*
X43042580Y-30761904D01*
X43042580Y-30761904D02*
X42994961Y-30666666D01*
X42994961Y-30666666D02*
X42899723Y-30571428D01*
X42899723Y-30571428D02*
X42709247Y-30523809D01*
X42709247Y-30523809D02*
X42375914Y-30523809D01*
X42375914Y-30523809D02*
X42185438Y-30571428D01*
X42185438Y-30571428D02*
X42090200Y-30666666D01*
X42090200Y-30666666D02*
X42042580Y-30761904D01*
X42042580Y-30761904D02*
X42042580Y-30952380D01*
X42042580Y-30952380D02*
X42090200Y-31047618D01*
X42090200Y-31047618D02*
X42185438Y-31142856D01*
X42185438Y-31142856D02*
X42375914Y-31190475D01*
X42375914Y-31190475D02*
X42709247Y-31190475D01*
X42709247Y-31190475D02*
X42899723Y-31142856D01*
X42899723Y-31142856D02*
X42994961Y-31047618D01*
X42994961Y-31047618D02*
X43042580Y-30952380D01*
X43042580Y-30238094D02*
X43042580Y-29666666D01*
X42042580Y-29952380D02*
X43042580Y-29952380D01*
D11*
X28849272Y-64484897D02*
X28611177Y-64484897D01*
X28706415Y-64722992D02*
X28611177Y-64484897D01*
X28611177Y-64484897D02*
X28706415Y-64246802D01*
X28420701Y-64627754D02*
X28611177Y-64484897D01*
X28611177Y-64484897D02*
X28420701Y-64342040D01*
D10*
X42566390Y-72238094D02*
X42566390Y-71904761D01*
X42042580Y-71761904D02*
X42042580Y-72238094D01*
X42042580Y-72238094D02*
X43042580Y-72238094D01*
X43042580Y-72238094D02*
X43042580Y-71761904D01*
X42042580Y-71333332D02*
X43042580Y-71333332D01*
X43042580Y-71333332D02*
X42042580Y-70761904D01*
X42042580Y-70761904D02*
X43042580Y-70761904D01*
X47461904Y-45657419D02*
X47461904Y-46466942D01*
X47461904Y-46466942D02*
X47414285Y-46562180D01*
X47414285Y-46562180D02*
X47366666Y-46609800D01*
X47366666Y-46609800D02*
X47271428Y-46657419D01*
X47271428Y-46657419D02*
X47080952Y-46657419D01*
X47080952Y-46657419D02*
X46985714Y-46609800D01*
X46985714Y-46609800D02*
X46938095Y-46562180D01*
X46938095Y-46562180D02*
X46890476Y-46466942D01*
X46890476Y-46466942D02*
X46890476Y-45657419D01*
X45985714Y-45990752D02*
X45985714Y-46657419D01*
X46223809Y-45609800D02*
X46461904Y-46324085D01*
X46461904Y-46324085D02*
X45842857Y-46324085D01*
D11*
X24161904Y-56854819D02*
X24161904Y-57664342D01*
X24161904Y-57664342D02*
X24114285Y-57759580D01*
X24114285Y-57759580D02*
X24066666Y-57807200D01*
X24066666Y-57807200D02*
X23971428Y-57854819D01*
X23971428Y-57854819D02*
X23780952Y-57854819D01*
X23780952Y-57854819D02*
X23685714Y-57807200D01*
X23685714Y-57807200D02*
X23638095Y-57759580D01*
X23638095Y-57759580D02*
X23590476Y-57664342D01*
X23590476Y-57664342D02*
X23590476Y-56854819D01*
X23161904Y-56950057D02*
X23114285Y-56902438D01*
X23114285Y-56902438D02*
X23019047Y-56854819D01*
X23019047Y-56854819D02*
X22780952Y-56854819D01*
X22780952Y-56854819D02*
X22685714Y-56902438D01*
X22685714Y-56902438D02*
X22638095Y-56950057D01*
X22638095Y-56950057D02*
X22590476Y-57045295D01*
X22590476Y-57045295D02*
X22590476Y-57140533D01*
X22590476Y-57140533D02*
X22638095Y-57283390D01*
X22638095Y-57283390D02*
X23209523Y-57854819D01*
X23209523Y-57854819D02*
X22590476Y-57854819D01*
X40359580Y-39833333D02*
X40407200Y-39785714D01*
X40407200Y-39785714D02*
X40454819Y-39642857D01*
X40454819Y-39642857D02*
X40454819Y-39547619D01*
X40454819Y-39547619D02*
X40407200Y-39404762D01*
X40407200Y-39404762D02*
X40311961Y-39309524D01*
X40311961Y-39309524D02*
X40216723Y-39261905D01*
X40216723Y-39261905D02*
X40026247Y-39214286D01*
X40026247Y-39214286D02*
X39883390Y-39214286D01*
X39883390Y-39214286D02*
X39692914Y-39261905D01*
X39692914Y-39261905D02*
X39597676Y-39309524D01*
X39597676Y-39309524D02*
X39502438Y-39404762D01*
X39502438Y-39404762D02*
X39454819Y-39547619D01*
X39454819Y-39547619D02*
X39454819Y-39642857D01*
X39454819Y-39642857D02*
X39502438Y-39785714D01*
X39502438Y-39785714D02*
X39550057Y-39833333D01*
X39454819Y-40166667D02*
X39454819Y-40833333D01*
X39454819Y-40833333D02*
X40454819Y-40404762D01*
X22744976Y-26732597D02*
X22744976Y-25732597D01*
X22744976Y-25732597D02*
X22506881Y-25732597D01*
X22506881Y-25732597D02*
X22364024Y-25780216D01*
X22364024Y-25780216D02*
X22268786Y-25875454D01*
X22268786Y-25875454D02*
X22221167Y-25970692D01*
X22221167Y-25970692D02*
X22173548Y-26161168D01*
X22173548Y-26161168D02*
X22173548Y-26304025D01*
X22173548Y-26304025D02*
X22221167Y-26494501D01*
X22221167Y-26494501D02*
X22268786Y-26589739D01*
X22268786Y-26589739D02*
X22364024Y-26684978D01*
X22364024Y-26684978D02*
X22506881Y-26732597D01*
X22506881Y-26732597D02*
X22744976Y-26732597D01*
X21792595Y-25827835D02*
X21744976Y-25780216D01*
X21744976Y-25780216D02*
X21649738Y-25732597D01*
X21649738Y-25732597D02*
X21411643Y-25732597D01*
X21411643Y-25732597D02*
X21316405Y-25780216D01*
X21316405Y-25780216D02*
X21268786Y-25827835D01*
X21268786Y-25827835D02*
X21221167Y-25923073D01*
X21221167Y-25923073D02*
X21221167Y-26018311D01*
X21221167Y-26018311D02*
X21268786Y-26161168D01*
X21268786Y-26161168D02*
X21840214Y-26732597D01*
X21840214Y-26732597D02*
X21221167Y-26732597D01*
X45092800Y-72833332D02*
X45045180Y-72690475D01*
X45045180Y-72690475D02*
X45045180Y-72452380D01*
X45045180Y-72452380D02*
X45092800Y-72357142D01*
X45092800Y-72357142D02*
X45140419Y-72309523D01*
X45140419Y-72309523D02*
X45235657Y-72261904D01*
X45235657Y-72261904D02*
X45330895Y-72261904D01*
X45330895Y-72261904D02*
X45426133Y-72309523D01*
X45426133Y-72309523D02*
X45473752Y-72357142D01*
X45473752Y-72357142D02*
X45521371Y-72452380D01*
X45521371Y-72452380D02*
X45568990Y-72642856D01*
X45568990Y-72642856D02*
X45616609Y-72738094D01*
X45616609Y-72738094D02*
X45664228Y-72785713D01*
X45664228Y-72785713D02*
X45759466Y-72833332D01*
X45759466Y-72833332D02*
X45854704Y-72833332D01*
X45854704Y-72833332D02*
X45949942Y-72785713D01*
X45949942Y-72785713D02*
X45997561Y-72738094D01*
X45997561Y-72738094D02*
X46045180Y-72642856D01*
X46045180Y-72642856D02*
X46045180Y-72404761D01*
X46045180Y-72404761D02*
X45997561Y-72261904D01*
X46045180Y-71928570D02*
X45045180Y-71690475D01*
X45045180Y-71690475D02*
X45759466Y-71499999D01*
X45759466Y-71499999D02*
X45045180Y-71309523D01*
X45045180Y-71309523D02*
X46045180Y-71071428D01*
X45045180Y-70166666D02*
X45045180Y-70738094D01*
X45045180Y-70452380D02*
X46045180Y-70452380D01*
X46045180Y-70452380D02*
X45902323Y-70547618D01*
X45902323Y-70547618D02*
X45807085Y-70642856D01*
X45807085Y-70642856D02*
X45759466Y-70738094D01*
X47797780Y-75557649D02*
X47559685Y-75557649D01*
X47654923Y-75795744D02*
X47559685Y-75557649D01*
X47559685Y-75557649D02*
X47654923Y-75319554D01*
X47369209Y-75700506D02*
X47559685Y-75557649D01*
X47559685Y-75557649D02*
X47369209Y-75414792D01*
X46707419Y-75557650D02*
X46945514Y-75557650D01*
X46850276Y-75319555D02*
X46945514Y-75557650D01*
X46945514Y-75557650D02*
X46850276Y-75795745D01*
X47135990Y-75414793D02*
X46945514Y-75557650D01*
X46945514Y-75557650D02*
X47135990Y-75700507D01*
X22736445Y-31249899D02*
X22736445Y-30249899D01*
X22736445Y-30249899D02*
X22498350Y-30249899D01*
X22498350Y-30249899D02*
X22355493Y-30297518D01*
X22355493Y-30297518D02*
X22260255Y-30392756D01*
X22260255Y-30392756D02*
X22212636Y-30487994D01*
X22212636Y-30487994D02*
X22165017Y-30678470D01*
X22165017Y-30678470D02*
X22165017Y-30821327D01*
X22165017Y-30821327D02*
X22212636Y-31011803D01*
X22212636Y-31011803D02*
X22260255Y-31107041D01*
X22260255Y-31107041D02*
X22355493Y-31202280D01*
X22355493Y-31202280D02*
X22498350Y-31249899D01*
X22498350Y-31249899D02*
X22736445Y-31249899D01*
X21212636Y-31249899D02*
X21784064Y-31249899D01*
X21498350Y-31249899D02*
X21498350Y-30249899D01*
X21498350Y-30249899D02*
X21593588Y-30392756D01*
X21593588Y-30392756D02*
X21688826Y-30487994D01*
X21688826Y-30487994D02*
X21784064Y-30535613D01*
X44666666Y-66039580D02*
X44714285Y-66087200D01*
X44714285Y-66087200D02*
X44857142Y-66134819D01*
X44857142Y-66134819D02*
X44952380Y-66134819D01*
X44952380Y-66134819D02*
X45095237Y-66087200D01*
X45095237Y-66087200D02*
X45190475Y-65991961D01*
X45190475Y-65991961D02*
X45238094Y-65896723D01*
X45238094Y-65896723D02*
X45285713Y-65706247D01*
X45285713Y-65706247D02*
X45285713Y-65563390D01*
X45285713Y-65563390D02*
X45238094Y-65372914D01*
X45238094Y-65372914D02*
X45190475Y-65277676D01*
X45190475Y-65277676D02*
X45095237Y-65182438D01*
X45095237Y-65182438D02*
X44952380Y-65134819D01*
X44952380Y-65134819D02*
X44857142Y-65134819D01*
X44857142Y-65134819D02*
X44714285Y-65182438D01*
X44714285Y-65182438D02*
X44666666Y-65230057D01*
X43809523Y-65468152D02*
X43809523Y-66134819D01*
X44047618Y-65087200D02*
X44285713Y-65801485D01*
X44285713Y-65801485D02*
X43666666Y-65801485D01*
X23666666Y-65539580D02*
X23714285Y-65587200D01*
X23714285Y-65587200D02*
X23857142Y-65634819D01*
X23857142Y-65634819D02*
X23952380Y-65634819D01*
X23952380Y-65634819D02*
X24095237Y-65587200D01*
X24095237Y-65587200D02*
X24190475Y-65491961D01*
X24190475Y-65491961D02*
X24238094Y-65396723D01*
X24238094Y-65396723D02*
X24285713Y-65206247D01*
X24285713Y-65206247D02*
X24285713Y-65063390D01*
X24285713Y-65063390D02*
X24238094Y-64872914D01*
X24238094Y-64872914D02*
X24190475Y-64777676D01*
X24190475Y-64777676D02*
X24095237Y-64682438D01*
X24095237Y-64682438D02*
X23952380Y-64634819D01*
X23952380Y-64634819D02*
X23857142Y-64634819D01*
X23857142Y-64634819D02*
X23714285Y-64682438D01*
X23714285Y-64682438D02*
X23666666Y-64730057D01*
X22809523Y-64634819D02*
X22999999Y-64634819D01*
X22999999Y-64634819D02*
X23095237Y-64682438D01*
X23095237Y-64682438D02*
X23142856Y-64730057D01*
X23142856Y-64730057D02*
X23238094Y-64872914D01*
X23238094Y-64872914D02*
X23285713Y-65063390D01*
X23285713Y-65063390D02*
X23285713Y-65444342D01*
X23285713Y-65444342D02*
X23238094Y-65539580D01*
X23238094Y-65539580D02*
X23190475Y-65587200D01*
X23190475Y-65587200D02*
X23095237Y-65634819D01*
X23095237Y-65634819D02*
X22904761Y-65634819D01*
X22904761Y-65634819D02*
X22809523Y-65587200D01*
X22809523Y-65587200D02*
X22761904Y-65539580D01*
X22761904Y-65539580D02*
X22714285Y-65444342D01*
X22714285Y-65444342D02*
X22714285Y-65206247D01*
X22714285Y-65206247D02*
X22761904Y-65111009D01*
X22761904Y-65111009D02*
X22809523Y-65063390D01*
X22809523Y-65063390D02*
X22904761Y-65015771D01*
X22904761Y-65015771D02*
X23095237Y-65015771D01*
X23095237Y-65015771D02*
X23190475Y-65063390D01*
X23190475Y-65063390D02*
X23238094Y-65111009D01*
X23238094Y-65111009D02*
X23285713Y-65206247D01*
X44668108Y-38239550D02*
X44715727Y-38287170D01*
X44715727Y-38287170D02*
X44858584Y-38334789D01*
X44858584Y-38334789D02*
X44953822Y-38334789D01*
X44953822Y-38334789D02*
X45096679Y-38287170D01*
X45096679Y-38287170D02*
X45191917Y-38191931D01*
X45191917Y-38191931D02*
X45239536Y-38096693D01*
X45239536Y-38096693D02*
X45287155Y-37906217D01*
X45287155Y-37906217D02*
X45287155Y-37763360D01*
X45287155Y-37763360D02*
X45239536Y-37572884D01*
X45239536Y-37572884D02*
X45191917Y-37477646D01*
X45191917Y-37477646D02*
X45096679Y-37382408D01*
X45096679Y-37382408D02*
X44953822Y-37334789D01*
X44953822Y-37334789D02*
X44858584Y-37334789D01*
X44858584Y-37334789D02*
X44715727Y-37382408D01*
X44715727Y-37382408D02*
X44668108Y-37430027D01*
X43763346Y-37334789D02*
X44239536Y-37334789D01*
X44239536Y-37334789D02*
X44287155Y-37810979D01*
X44287155Y-37810979D02*
X44239536Y-37763360D01*
X44239536Y-37763360D02*
X44144298Y-37715741D01*
X44144298Y-37715741D02*
X43906203Y-37715741D01*
X43906203Y-37715741D02*
X43810965Y-37763360D01*
X43810965Y-37763360D02*
X43763346Y-37810979D01*
X43763346Y-37810979D02*
X43715727Y-37906217D01*
X43715727Y-37906217D02*
X43715727Y-38144312D01*
X43715727Y-38144312D02*
X43763346Y-38239550D01*
X43763346Y-38239550D02*
X43810965Y-38287170D01*
X43810965Y-38287170D02*
X43906203Y-38334789D01*
X43906203Y-38334789D02*
X44144298Y-38334789D01*
X44144298Y-38334789D02*
X44239536Y-38287170D01*
X44239536Y-38287170D02*
X44287155Y-38239550D01*
X45907200Y-30166667D02*
X45954819Y-30309524D01*
X45954819Y-30309524D02*
X45954819Y-30547619D01*
X45954819Y-30547619D02*
X45907200Y-30642857D01*
X45907200Y-30642857D02*
X45859580Y-30690476D01*
X45859580Y-30690476D02*
X45764342Y-30738095D01*
X45764342Y-30738095D02*
X45669104Y-30738095D01*
X45669104Y-30738095D02*
X45573866Y-30690476D01*
X45573866Y-30690476D02*
X45526247Y-30642857D01*
X45526247Y-30642857D02*
X45478628Y-30547619D01*
X45478628Y-30547619D02*
X45431009Y-30357143D01*
X45431009Y-30357143D02*
X45383390Y-30261905D01*
X45383390Y-30261905D02*
X45335771Y-30214286D01*
X45335771Y-30214286D02*
X45240533Y-30166667D01*
X45240533Y-30166667D02*
X45145295Y-30166667D01*
X45145295Y-30166667D02*
X45050057Y-30214286D01*
X45050057Y-30214286D02*
X45002438Y-30261905D01*
X45002438Y-30261905D02*
X44954819Y-30357143D01*
X44954819Y-30357143D02*
X44954819Y-30595238D01*
X44954819Y-30595238D02*
X45002438Y-30738095D01*
X44954819Y-31071429D02*
X45954819Y-31309524D01*
X45954819Y-31309524D02*
X45240533Y-31500000D01*
X45240533Y-31500000D02*
X45954819Y-31690476D01*
X45954819Y-31690476D02*
X44954819Y-31928572D01*
X45050057Y-32261905D02*
X45002438Y-32309524D01*
X45002438Y-32309524D02*
X44954819Y-32404762D01*
X44954819Y-32404762D02*
X44954819Y-32642857D01*
X44954819Y-32642857D02*
X45002438Y-32738095D01*
X45002438Y-32738095D02*
X45050057Y-32785714D01*
X45050057Y-32785714D02*
X45145295Y-32833333D01*
X45145295Y-32833333D02*
X45240533Y-32833333D01*
X45240533Y-32833333D02*
X45383390Y-32785714D01*
X45383390Y-32785714D02*
X45954819Y-32214286D01*
X45954819Y-32214286D02*
X45954819Y-32833333D01*
X43202219Y-27442350D02*
X43440314Y-27442350D01*
X43345076Y-27204255D02*
X43440314Y-27442350D01*
X43440314Y-27442350D02*
X43345076Y-27680445D01*
X43630790Y-27299493D02*
X43440314Y-27442350D01*
X43440314Y-27442350D02*
X43630790Y-27585207D01*
X31586904Y-38819819D02*
X31586904Y-39629342D01*
X31586904Y-39629342D02*
X31539285Y-39724580D01*
X31539285Y-39724580D02*
X31491666Y-39772200D01*
X31491666Y-39772200D02*
X31396428Y-39819819D01*
X31396428Y-39819819D02*
X31205952Y-39819819D01*
X31205952Y-39819819D02*
X31110714Y-39772200D01*
X31110714Y-39772200D02*
X31063095Y-39724580D01*
X31063095Y-39724580D02*
X31015476Y-39629342D01*
X31015476Y-39629342D02*
X31015476Y-38819819D01*
X30634523Y-38819819D02*
X30015476Y-38819819D01*
X30015476Y-38819819D02*
X30348809Y-39200771D01*
X30348809Y-39200771D02*
X30205952Y-39200771D01*
X30205952Y-39200771D02*
X30110714Y-39248390D01*
X30110714Y-39248390D02*
X30063095Y-39296009D01*
X30063095Y-39296009D02*
X30015476Y-39391247D01*
X30015476Y-39391247D02*
X30015476Y-39629342D01*
X30015476Y-39629342D02*
X30063095Y-39724580D01*
X30063095Y-39724580D02*
X30110714Y-39772200D01*
X30110714Y-39772200D02*
X30205952Y-39819819D01*
X30205952Y-39819819D02*
X30491666Y-39819819D01*
X30491666Y-39819819D02*
X30586904Y-39772200D01*
X30586904Y-39772200D02*
X30634523Y-39724580D01*
X36859580Y-39833333D02*
X36907200Y-39785714D01*
X36907200Y-39785714D02*
X36954819Y-39642857D01*
X36954819Y-39642857D02*
X36954819Y-39547619D01*
X36954819Y-39547619D02*
X36907200Y-39404762D01*
X36907200Y-39404762D02*
X36811961Y-39309524D01*
X36811961Y-39309524D02*
X36716723Y-39261905D01*
X36716723Y-39261905D02*
X36526247Y-39214286D01*
X36526247Y-39214286D02*
X36383390Y-39214286D01*
X36383390Y-39214286D02*
X36192914Y-39261905D01*
X36192914Y-39261905D02*
X36097676Y-39309524D01*
X36097676Y-39309524D02*
X36002438Y-39404762D01*
X36002438Y-39404762D02*
X35954819Y-39547619D01*
X35954819Y-39547619D02*
X35954819Y-39642857D01*
X35954819Y-39642857D02*
X36002438Y-39785714D01*
X36002438Y-39785714D02*
X36050057Y-39833333D01*
X36383390Y-40404762D02*
X36335771Y-40309524D01*
X36335771Y-40309524D02*
X36288152Y-40261905D01*
X36288152Y-40261905D02*
X36192914Y-40214286D01*
X36192914Y-40214286D02*
X36145295Y-40214286D01*
X36145295Y-40214286D02*
X36050057Y-40261905D01*
X36050057Y-40261905D02*
X36002438Y-40309524D01*
X36002438Y-40309524D02*
X35954819Y-40404762D01*
X35954819Y-40404762D02*
X35954819Y-40595238D01*
X35954819Y-40595238D02*
X36002438Y-40690476D01*
X36002438Y-40690476D02*
X36050057Y-40738095D01*
X36050057Y-40738095D02*
X36145295Y-40785714D01*
X36145295Y-40785714D02*
X36192914Y-40785714D01*
X36192914Y-40785714D02*
X36288152Y-40738095D01*
X36288152Y-40738095D02*
X36335771Y-40690476D01*
X36335771Y-40690476D02*
X36383390Y-40595238D01*
X36383390Y-40595238D02*
X36383390Y-40404762D01*
X36383390Y-40404762D02*
X36431009Y-40309524D01*
X36431009Y-40309524D02*
X36478628Y-40261905D01*
X36478628Y-40261905D02*
X36573866Y-40214286D01*
X36573866Y-40214286D02*
X36764342Y-40214286D01*
X36764342Y-40214286D02*
X36859580Y-40261905D01*
X36859580Y-40261905D02*
X36907200Y-40309524D01*
X36907200Y-40309524D02*
X36954819Y-40404762D01*
X36954819Y-40404762D02*
X36954819Y-40595238D01*
X36954819Y-40595238D02*
X36907200Y-40690476D01*
X36907200Y-40690476D02*
X36859580Y-40738095D01*
X36859580Y-40738095D02*
X36764342Y-40785714D01*
X36764342Y-40785714D02*
X36573866Y-40785714D01*
X36573866Y-40785714D02*
X36478628Y-40738095D01*
X36478628Y-40738095D02*
X36431009Y-40690476D01*
X36431009Y-40690476D02*
X36383390Y-40595238D01*
X22169283Y-35826919D02*
X22502616Y-35350728D01*
X22740711Y-35826919D02*
X22740711Y-34826919D01*
X22740711Y-34826919D02*
X22359759Y-34826919D01*
X22359759Y-34826919D02*
X22264521Y-34874538D01*
X22264521Y-34874538D02*
X22216902Y-34922157D01*
X22216902Y-34922157D02*
X22169283Y-35017395D01*
X22169283Y-35017395D02*
X22169283Y-35160252D01*
X22169283Y-35160252D02*
X22216902Y-35255490D01*
X22216902Y-35255490D02*
X22264521Y-35303109D01*
X22264521Y-35303109D02*
X22359759Y-35350728D01*
X22359759Y-35350728D02*
X22740711Y-35350728D01*
X21835949Y-34826919D02*
X21216902Y-34826919D01*
X21216902Y-34826919D02*
X21550235Y-35207871D01*
X21550235Y-35207871D02*
X21407378Y-35207871D01*
X21407378Y-35207871D02*
X21312140Y-35255490D01*
X21312140Y-35255490D02*
X21264521Y-35303109D01*
X21264521Y-35303109D02*
X21216902Y-35398347D01*
X21216902Y-35398347D02*
X21216902Y-35636442D01*
X21216902Y-35636442D02*
X21264521Y-35731680D01*
X21264521Y-35731680D02*
X21312140Y-35779300D01*
X21312140Y-35779300D02*
X21407378Y-35826919D01*
X21407378Y-35826919D02*
X21693092Y-35826919D01*
X21693092Y-35826919D02*
X21788330Y-35779300D01*
X21788330Y-35779300D02*
X21835949Y-35731680D01*
X22165017Y-40322892D02*
X22498350Y-39846701D01*
X22736445Y-40322892D02*
X22736445Y-39322892D01*
X22736445Y-39322892D02*
X22355493Y-39322892D01*
X22355493Y-39322892D02*
X22260255Y-39370511D01*
X22260255Y-39370511D02*
X22212636Y-39418130D01*
X22212636Y-39418130D02*
X22165017Y-39513368D01*
X22165017Y-39513368D02*
X22165017Y-39656225D01*
X22165017Y-39656225D02*
X22212636Y-39751463D01*
X22212636Y-39751463D02*
X22260255Y-39799082D01*
X22260255Y-39799082D02*
X22355493Y-39846701D01*
X22355493Y-39846701D02*
X22736445Y-39846701D01*
X21784064Y-39418130D02*
X21736445Y-39370511D01*
X21736445Y-39370511D02*
X21641207Y-39322892D01*
X21641207Y-39322892D02*
X21403112Y-39322892D01*
X21403112Y-39322892D02*
X21307874Y-39370511D01*
X21307874Y-39370511D02*
X21260255Y-39418130D01*
X21260255Y-39418130D02*
X21212636Y-39513368D01*
X21212636Y-39513368D02*
X21212636Y-39608606D01*
X21212636Y-39608606D02*
X21260255Y-39751463D01*
X21260255Y-39751463D02*
X21831683Y-40322892D01*
X21831683Y-40322892D02*
X21212636Y-40322892D01*
X41033333Y-67454819D02*
X41033333Y-68169104D01*
X41033333Y-68169104D02*
X41080952Y-68311961D01*
X41080952Y-68311961D02*
X41176190Y-68407200D01*
X41176190Y-68407200D02*
X41319047Y-68454819D01*
X41319047Y-68454819D02*
X41414285Y-68454819D01*
X40652380Y-67454819D02*
X40033333Y-67454819D01*
X40033333Y-67454819D02*
X40366666Y-67835771D01*
X40366666Y-67835771D02*
X40223809Y-67835771D01*
X40223809Y-67835771D02*
X40128571Y-67883390D01*
X40128571Y-67883390D02*
X40080952Y-67931009D01*
X40080952Y-67931009D02*
X40033333Y-68026247D01*
X40033333Y-68026247D02*
X40033333Y-68264342D01*
X40033333Y-68264342D02*
X40080952Y-68359580D01*
X40080952Y-68359580D02*
X40128571Y-68407200D01*
X40128571Y-68407200D02*
X40223809Y-68454819D01*
X40223809Y-68454819D02*
X40509523Y-68454819D01*
X40509523Y-68454819D02*
X40604761Y-68407200D01*
X40604761Y-68407200D02*
X40652380Y-68359580D01*
X41333333Y-33454819D02*
X41333333Y-34169104D01*
X41333333Y-34169104D02*
X41380952Y-34311961D01*
X41380952Y-34311961D02*
X41476190Y-34407200D01*
X41476190Y-34407200D02*
X41619047Y-34454819D01*
X41619047Y-34454819D02*
X41714285Y-34454819D01*
X40904761Y-33550057D02*
X40857142Y-33502438D01*
X40857142Y-33502438D02*
X40761904Y-33454819D01*
X40761904Y-33454819D02*
X40523809Y-33454819D01*
X40523809Y-33454819D02*
X40428571Y-33502438D01*
X40428571Y-33502438D02*
X40380952Y-33550057D01*
X40380952Y-33550057D02*
X40333333Y-33645295D01*
X40333333Y-33645295D02*
X40333333Y-33740533D01*
X40333333Y-33740533D02*
X40380952Y-33883390D01*
X40380952Y-33883390D02*
X40952380Y-34454819D01*
X40952380Y-34454819D02*
X40333333Y-34454819D01*
%TO.C,U4*%
D10*
X30600000Y-61380000D02*
X45600000Y-61380000D01*
X45600000Y-46380000D01*
X30600000Y-46380000D01*
X30600000Y-61380000D01*
D12*
%TO.C,U2*%
X22701500Y-59305200D02*
X24098500Y-59305200D01*
X24098500Y-59305200D02*
X24098500Y-58289200D01*
X19920200Y-58289200D02*
X22701500Y-58289200D01*
X22701500Y-58289200D02*
X22701500Y-59305200D01*
X24098500Y-58289200D02*
X26879800Y-58289200D01*
X26879800Y-58289200D02*
X26879800Y-51837600D01*
X19920200Y-51837600D02*
X19920200Y-58289200D01*
X20285960Y-51837600D02*
X19920200Y-51837600D01*
X26879800Y-51837600D02*
X26514040Y-51837600D01*
D13*
%TO.C,C7*%
X39265000Y-42738748D02*
X39265000Y-43261252D01*
X40735000Y-42738748D02*
X40735000Y-43261252D01*
%TO.C,D2*%
X20140000Y-27040000D02*
X20140000Y-28960000D01*
X20140000Y-28960000D02*
X23000000Y-28960000D01*
X23000000Y-27040000D02*
X20140000Y-27040000D01*
D12*
%TO.C,SW1*%
X43518800Y-68325000D02*
X43518800Y-74675000D01*
X43518800Y-74675000D02*
X44862460Y-74675000D01*
X44862460Y-68325000D02*
X43518800Y-68325000D01*
X46137540Y-74675000D02*
X47481200Y-74675000D01*
X47481200Y-68325000D02*
X46137540Y-68325000D01*
X47481200Y-74675000D02*
X47481200Y-68325000D01*
D13*
%TO.C,D1*%
X20140000Y-31540000D02*
X20140000Y-33460000D01*
X20140000Y-33460000D02*
X23000000Y-33460000D01*
X23000000Y-31540000D02*
X20140000Y-31540000D01*
%TO.C,C4*%
X44761252Y-63265000D02*
X44238748Y-63265000D01*
X44761252Y-64735000D02*
X44238748Y-64735000D01*
%TO.C,C6*%
X23761252Y-64235000D02*
X23238748Y-64235000D01*
X23761252Y-62765000D02*
X23238748Y-62765000D01*
%TO.C,C5*%
X44761252Y-38765000D02*
X44238748Y-38765000D01*
X44761252Y-40235000D02*
X44238748Y-40235000D01*
D12*
%TO.C,SW2*%
X43518800Y-28325000D02*
X43518800Y-34675000D01*
X43518800Y-34675000D02*
X44862460Y-34675000D01*
X44862460Y-28325000D02*
X43518800Y-28325000D01*
X46137540Y-34675000D02*
X47481200Y-34675000D01*
X47481200Y-28325000D02*
X46137540Y-28325000D01*
X47481200Y-34675000D02*
X47481200Y-28325000D01*
D14*
%TO.C,U3*%
X28550000Y-40480000D02*
X32450000Y-40480000D01*
X28550000Y-45520000D02*
X32450000Y-45520000D01*
D15*
X34700000Y-40800000D02*
G75*
G02*
X34500000Y-40800000I-100000J0D01*
G01*
X34500000Y-40800000D02*
G75*
G02*
X34700000Y-40800000I100000J0D01*
G01*
D13*
%TO.C,C8*%
X35765000Y-42738748D02*
X35765000Y-43261252D01*
X37235000Y-42738748D02*
X37235000Y-43261252D01*
%TO.C,R3*%
X22227064Y-36265000D02*
X21772936Y-36265000D01*
X22227064Y-37735000D02*
X21772936Y-37735000D01*
%TO.C,R2*%
X21772936Y-40765000D02*
X22227064Y-40765000D01*
X21772936Y-42235000D02*
X22227064Y-42235000D01*
D14*
%TO.C,J3*%
X26164000Y-69000000D02*
X26164000Y-77125000D01*
X26164000Y-81115000D02*
X26164000Y-87000000D01*
X26164000Y-87000000D02*
X41404000Y-87000000D01*
X41404000Y-69000000D02*
X26164000Y-69000000D01*
X41404000Y-77125000D02*
X41404000Y-69000000D01*
X41404000Y-81115000D02*
X41404000Y-87000000D01*
D15*
X42254000Y-72770000D02*
G75*
G02*
X42054000Y-72770000I-100000J0D01*
G01*
X42054000Y-72770000D02*
G75*
G02*
X42254000Y-72770000I100000J0D01*
G01*
D14*
%TO.C,J2*%
X26164000Y-20885000D02*
X26164000Y-15000000D01*
X26164000Y-24875000D02*
X26164000Y-33000000D01*
X26164000Y-33000000D02*
X41404000Y-33000000D01*
X41404000Y-15000000D02*
X26164000Y-15000000D01*
X41404000Y-20885000D02*
X41404000Y-15000000D01*
X41404000Y-33000000D02*
X41404000Y-24875000D01*
D15*
X25514000Y-29230000D02*
G75*
G02*
X25314000Y-29230000I-100000J0D01*
G01*
X25314000Y-29230000D02*
G75*
G02*
X25514000Y-29230000I100000J0D01*
G01*
%TD*%
%LPC*%
D16*
%TO.C,U4*%
X45600000Y-47700000D03*
X45600000Y-50240000D03*
X45600000Y-52780000D03*
X45600000Y-55320000D03*
X45600000Y-57860000D03*
X45600000Y-60400000D03*
X30600000Y-47700000D03*
X30600000Y-50240000D03*
X30600000Y-52780000D03*
X30600000Y-55320000D03*
X30600000Y-57860000D03*
X30600000Y-60400000D03*
%TD*%
D17*
%TO.C,H2*%
X46000000Y-23000000D03*
D18*
X46000000Y-23000000D03*
%TD*%
D17*
%TO.C,H4*%
X46000000Y-79000000D03*
D18*
X46000000Y-79000000D03*
%TD*%
D17*
%TO.C,H3*%
X21500000Y-79000000D03*
D18*
X21500000Y-79000000D03*
%TD*%
D17*
%TO.C,H1*%
X21500000Y-23000000D03*
D18*
X21500000Y-23000000D03*
%TD*%
D19*
%TO.C,J1*%
X21325000Y-68000000D03*
X21325000Y-74600000D03*
%TD*%
D20*
%TO.C,U2*%
X25686000Y-60194200D03*
D21*
X23400000Y-53120300D03*
D20*
X21114000Y-60194200D03*
%TD*%
D22*
%TO.C,C7*%
X40000000Y-44037500D03*
X40000000Y-41962500D03*
%TD*%
D23*
%TO.C,D2*%
X20975000Y-28000000D03*
X23025000Y-28000000D03*
%TD*%
D24*
%TO.C,SW1*%
X45500000Y-75303650D03*
X45500000Y-67696350D03*
%TD*%
D23*
%TO.C,D1*%
X20975000Y-32500000D03*
X23025000Y-32500000D03*
%TD*%
D25*
%TO.C,C4*%
X43462500Y-64000000D03*
X45537500Y-64000000D03*
%TD*%
%TO.C,C6*%
X22462500Y-63500000D03*
X24537500Y-63500000D03*
%TD*%
%TO.C,C5*%
X43462500Y-39500000D03*
X45537500Y-39500000D03*
%TD*%
D24*
%TO.C,SW2*%
X45500000Y-27696350D03*
X45500000Y-35303650D03*
%TD*%
D26*
%TO.C,U3*%
X33085000Y-41095000D03*
X33085000Y-42365000D03*
X33085000Y-43635000D03*
X33085000Y-44905000D03*
X27915000Y-44905000D03*
X27915000Y-43635000D03*
X27915000Y-42365000D03*
X27915000Y-41095000D03*
%TD*%
D22*
%TO.C,C8*%
X36500000Y-44037500D03*
X36500000Y-41962500D03*
%TD*%
D27*
%TO.C,R3*%
X21000000Y-37000000D03*
X23000000Y-37000000D03*
%TD*%
D28*
%TO.C,R2*%
X23000000Y-41500000D03*
X21000000Y-41500000D03*
%TD*%
D29*
%TO.C,J3*%
X39500000Y-79120000D03*
X28068000Y-79120000D03*
D30*
X38229000Y-72770000D03*
D31*
X36959000Y-70230000D03*
X35689000Y-72770000D03*
X34419000Y-70230000D03*
X33149000Y-72770000D03*
X31879000Y-70230000D03*
X30609000Y-72770000D03*
X29339000Y-70230000D03*
%TD*%
D29*
%TO.C,J2*%
X28068000Y-22880000D03*
X39500000Y-22880000D03*
D32*
X29339000Y-29230000D03*
D31*
X30609000Y-31770000D03*
X31879000Y-29230000D03*
X33149000Y-31770000D03*
X34419000Y-29230000D03*
X35689000Y-31770000D03*
X36959000Y-29230000D03*
X38229000Y-31770000D03*
%TD*%
D33*
X34000000Y-52600000D03*
X35000000Y-52600000D03*
X34000000Y-51400000D03*
X33100000Y-51400000D03*
X35000000Y-51400000D03*
X34000000Y-50200000D03*
X35000000Y-50200000D03*
X28800000Y-38700000D03*
X40300000Y-52300000D03*
X41200000Y-54000000D03*
X42200000Y-50240000D03*
X21300000Y-55500000D03*
X25300000Y-55500000D03*
X22300000Y-55500000D03*
X23300000Y-55500000D03*
X24300000Y-55500000D03*
X21300000Y-54600000D03*
X25300000Y-54600000D03*
X22300000Y-54600000D03*
X23300000Y-54600000D03*
X24300000Y-54600000D03*
X21300000Y-53600000D03*
X25300000Y-53600000D03*
X22300000Y-53600000D03*
X23300000Y-53600000D03*
X24300000Y-53600000D03*
X21300000Y-52600000D03*
X25300000Y-52600000D03*
X22300000Y-52600000D03*
X23300000Y-52600000D03*
X24300000Y-52600000D03*
X21300000Y-51600000D03*
X25300000Y-51600000D03*
X22300000Y-51600000D03*
X23300000Y-51600000D03*
X24300000Y-51600000D03*
X25300000Y-50700000D03*
X24300000Y-50700000D03*
X23300000Y-50700000D03*
X22300000Y-50700000D03*
X21300000Y-50700000D03*
X28037500Y-66037500D03*
X34861805Y-43006449D03*
X43122102Y-65429103D03*
X21000000Y-43000000D03*
X44500000Y-69500000D03*
X30000000Y-68000000D03*
X44700000Y-41100000D03*
X28000000Y-39500000D03*
X40500000Y-45500000D03*
X42000000Y-46500000D03*
%LPD*%
M02*
