%TF.GenerationSoftware,KiCad,Pcbnew,8.0.1-8.0.1-1~ubuntu22.04.1*%
%TF.CreationDate,2024-04-18T01:12:43-04:00*%
%TF.ProjectId,esp32_rover_devkit,65737033-325f-4726-9f76-65725f646576,rev?*%
%TF.SameCoordinates,Original*%
%TF.FileFunction,Legend,Top*%
%TF.FilePolarity,Positive*%
%FSLAX46Y46*%
G04 Gerber Fmt 4.6, Leading zero omitted, Abs format (unit mm)*
G04 Created by KiCad (PCBNEW 8.0.1-8.0.1-1~ubuntu22.04.1) date 2024-04-18 01:12:43*
%MOMM*%
%LPD*%
G01*
G04 APERTURE LIST*
G04 Aperture macros list*
%AMRoundRect*
0 Rectangle with rounded corners*
0 $1 Rounding radius*
0 $2 $3 $4 $5 $6 $7 $8 $9 X,Y pos of 4 corners*
0 Add a 4 corners polygon primitive as box body*
4,1,4,$2,$3,$4,$5,$6,$7,$8,$9,$2,$3,0*
0 Add four circle primitives for the rounded corners*
1,1,$1+$1,$2,$3*
1,1,$1+$1,$4,$5*
1,1,$1+$1,$6,$7*
1,1,$1+$1,$8,$9*
0 Add four rect primitives between the rounded corners*
20,1,$1+$1,$2,$3,$4,$5,0*
20,1,$1+$1,$4,$5,$6,$7,0*
20,1,$1+$1,$6,$7,$8,$9,0*
20,1,$1+$1,$8,$9,$2,$3,0*%
G04 Aperture macros list end*
%ADD10C,0.100000*%
%ADD11C,0.150000*%
%ADD12C,0.120000*%
%ADD13C,2.600000*%
%ADD14C,3.800000*%
%ADD15RoundRect,0.250000X0.337500X0.475000X-0.337500X0.475000X-0.337500X-0.475000X0.337500X-0.475000X0*%
%ADD16RoundRect,0.150000X-0.825000X-0.150000X0.825000X-0.150000X0.825000X0.150000X-0.825000X0.150000X0*%
%ADD17RoundRect,0.250000X-0.350000X-0.450000X0.350000X-0.450000X0.350000X0.450000X-0.350000X0.450000X0*%
%ADD18R,0.900000X1.500000*%
%ADD19R,1.500000X0.900000*%
%ADD20R,3.900000X3.900000*%
%ADD21RoundRect,0.100000X-0.575000X0.100000X-0.575000X-0.100000X0.575000X-0.100000X0.575000X0.100000X0*%
%ADD22O,1.600000X0.900000*%
%ADD23RoundRect,0.250000X-0.450000X0.550000X-0.450000X-0.550000X0.450000X-0.550000X0.450000X0.550000X0*%
%ADD24RoundRect,0.250000X-0.700000X0.700000X-0.700000X-0.700000X0.700000X-0.700000X0.700000X0.700000X0*%
%ADD25C,3.350000*%
%ADD26RoundRect,0.102000X0.634000X0.634000X-0.634000X0.634000X-0.634000X-0.634000X0.634000X-0.634000X0*%
%ADD27C,1.472000*%
%ADD28RoundRect,0.102000X-0.634000X-0.634000X0.634000X-0.634000X0.634000X0.634000X-0.634000X0.634000X0*%
%ADD29C,0.600000*%
G04 APERTURE END LIST*
D10*
X35690476Y-22042580D02*
X36166666Y-22042580D01*
X36166666Y-22042580D02*
X36214285Y-21566390D01*
X36214285Y-21566390D02*
X36166666Y-21614009D01*
X36166666Y-21614009D02*
X36071428Y-21661628D01*
X36071428Y-21661628D02*
X35833333Y-21661628D01*
X35833333Y-21661628D02*
X35738095Y-21614009D01*
X35738095Y-21614009D02*
X35690476Y-21566390D01*
X35690476Y-21566390D02*
X35642857Y-21471152D01*
X35642857Y-21471152D02*
X35642857Y-21233057D01*
X35642857Y-21233057D02*
X35690476Y-21137819D01*
X35690476Y-21137819D02*
X35738095Y-21090200D01*
X35738095Y-21090200D02*
X35833333Y-21042580D01*
X35833333Y-21042580D02*
X36071428Y-21042580D01*
X36071428Y-21042580D02*
X36166666Y-21090200D01*
X36166666Y-21090200D02*
X36214285Y-21137819D01*
X35357142Y-22042580D02*
X35023809Y-21042580D01*
X35023809Y-21042580D02*
X34690476Y-22042580D01*
X33404761Y-22042580D02*
X33214285Y-22042580D01*
X33214285Y-22042580D02*
X33119047Y-21994961D01*
X33119047Y-21994961D02*
X33023809Y-21899723D01*
X33023809Y-21899723D02*
X32976190Y-21709247D01*
X32976190Y-21709247D02*
X32976190Y-21375914D01*
X32976190Y-21375914D02*
X33023809Y-21185438D01*
X33023809Y-21185438D02*
X33119047Y-21090200D01*
X33119047Y-21090200D02*
X33214285Y-21042580D01*
X33214285Y-21042580D02*
X33404761Y-21042580D01*
X33404761Y-21042580D02*
X33499999Y-21090200D01*
X33499999Y-21090200D02*
X33595237Y-21185438D01*
X33595237Y-21185438D02*
X33642856Y-21375914D01*
X33642856Y-21375914D02*
X33642856Y-21709247D01*
X33642856Y-21709247D02*
X33595237Y-21899723D01*
X33595237Y-21899723D02*
X33499999Y-21994961D01*
X33499999Y-21994961D02*
X33404761Y-22042580D01*
X32547618Y-21709247D02*
X32547618Y-21042580D01*
X32547618Y-21614009D02*
X32499999Y-21661628D01*
X32499999Y-21661628D02*
X32404761Y-21709247D01*
X32404761Y-21709247D02*
X32261904Y-21709247D01*
X32261904Y-21709247D02*
X32166666Y-21661628D01*
X32166666Y-21661628D02*
X32119047Y-21566390D01*
X32119047Y-21566390D02*
X32119047Y-21042580D01*
X31499999Y-21042580D02*
X31595237Y-21090200D01*
X31595237Y-21090200D02*
X31642856Y-21185438D01*
X31642856Y-21185438D02*
X31642856Y-22042580D01*
X31214284Y-21709247D02*
X30976189Y-21042580D01*
X30738094Y-21709247D02*
X30976189Y-21042580D01*
X30976189Y-21042580D02*
X31071427Y-20804485D01*
X31071427Y-20804485D02*
X31119046Y-20756866D01*
X31119046Y-20756866D02*
X31214284Y-20709247D01*
X25404760Y-34847475D02*
X25071427Y-34371284D01*
X24833332Y-34847475D02*
X24833332Y-33847475D01*
X24833332Y-33847475D02*
X25214284Y-33847475D01*
X25214284Y-33847475D02*
X25309522Y-33895094D01*
X25309522Y-33895094D02*
X25357141Y-33942713D01*
X25357141Y-33942713D02*
X25404760Y-34037951D01*
X25404760Y-34037951D02*
X25404760Y-34180808D01*
X25404760Y-34180808D02*
X25357141Y-34276046D01*
X25357141Y-34276046D02*
X25309522Y-34323665D01*
X25309522Y-34323665D02*
X25214284Y-34371284D01*
X25214284Y-34371284D02*
X24833332Y-34371284D01*
X25976189Y-34847475D02*
X25880951Y-34799856D01*
X25880951Y-34799856D02*
X25833332Y-34752236D01*
X25833332Y-34752236D02*
X25785713Y-34656998D01*
X25785713Y-34656998D02*
X25785713Y-34371284D01*
X25785713Y-34371284D02*
X25833332Y-34276046D01*
X25833332Y-34276046D02*
X25880951Y-34228427D01*
X25880951Y-34228427D02*
X25976189Y-34180808D01*
X25976189Y-34180808D02*
X26119046Y-34180808D01*
X26119046Y-34180808D02*
X26214284Y-34228427D01*
X26214284Y-34228427D02*
X26261903Y-34276046D01*
X26261903Y-34276046D02*
X26309522Y-34371284D01*
X26309522Y-34371284D02*
X26309522Y-34656998D01*
X26309522Y-34656998D02*
X26261903Y-34752236D01*
X26261903Y-34752236D02*
X26214284Y-34799856D01*
X26214284Y-34799856D02*
X26119046Y-34847475D01*
X26119046Y-34847475D02*
X25976189Y-34847475D01*
X26642856Y-34180808D02*
X26880951Y-34847475D01*
X26880951Y-34847475D02*
X27119046Y-34180808D01*
X27928570Y-34180808D02*
X27928570Y-34847475D01*
X27499999Y-34180808D02*
X27499999Y-34704617D01*
X27499999Y-34704617D02*
X27547618Y-34799856D01*
X27547618Y-34799856D02*
X27642856Y-34847475D01*
X27642856Y-34847475D02*
X27785713Y-34847475D01*
X27785713Y-34847475D02*
X27880951Y-34799856D01*
X27880951Y-34799856D02*
X27928570Y-34752236D01*
X28357142Y-34799856D02*
X28452380Y-34847475D01*
X28452380Y-34847475D02*
X28642856Y-34847475D01*
X28642856Y-34847475D02*
X28738094Y-34799856D01*
X28738094Y-34799856D02*
X28785713Y-34704617D01*
X28785713Y-34704617D02*
X28785713Y-34656998D01*
X28785713Y-34656998D02*
X28738094Y-34561760D01*
X28738094Y-34561760D02*
X28642856Y-34514141D01*
X28642856Y-34514141D02*
X28499999Y-34514141D01*
X28499999Y-34514141D02*
X28404761Y-34466522D01*
X28404761Y-34466522D02*
X28357142Y-34371284D01*
X28357142Y-34371284D02*
X28357142Y-34323665D01*
X28357142Y-34323665D02*
X28404761Y-34228427D01*
X28404761Y-34228427D02*
X28499999Y-34180808D01*
X28499999Y-34180808D02*
X28642856Y-34180808D01*
X28642856Y-34180808D02*
X28738094Y-34228427D01*
X30547618Y-34752236D02*
X30499999Y-34799856D01*
X30499999Y-34799856D02*
X30357142Y-34847475D01*
X30357142Y-34847475D02*
X30261904Y-34847475D01*
X30261904Y-34847475D02*
X30119047Y-34799856D01*
X30119047Y-34799856D02*
X30023809Y-34704617D01*
X30023809Y-34704617D02*
X29976190Y-34609379D01*
X29976190Y-34609379D02*
X29928571Y-34418903D01*
X29928571Y-34418903D02*
X29928571Y-34276046D01*
X29928571Y-34276046D02*
X29976190Y-34085570D01*
X29976190Y-34085570D02*
X30023809Y-33990332D01*
X30023809Y-33990332D02*
X30119047Y-33895094D01*
X30119047Y-33895094D02*
X30261904Y-33847475D01*
X30261904Y-33847475D02*
X30357142Y-33847475D01*
X30357142Y-33847475D02*
X30499999Y-33895094D01*
X30499999Y-33895094D02*
X30547618Y-33942713D01*
X31119047Y-34847475D02*
X31023809Y-34799856D01*
X31023809Y-34799856D02*
X30976190Y-34752236D01*
X30976190Y-34752236D02*
X30928571Y-34656998D01*
X30928571Y-34656998D02*
X30928571Y-34371284D01*
X30928571Y-34371284D02*
X30976190Y-34276046D01*
X30976190Y-34276046D02*
X31023809Y-34228427D01*
X31023809Y-34228427D02*
X31119047Y-34180808D01*
X31119047Y-34180808D02*
X31261904Y-34180808D01*
X31261904Y-34180808D02*
X31357142Y-34228427D01*
X31357142Y-34228427D02*
X31404761Y-34276046D01*
X31404761Y-34276046D02*
X31452380Y-34371284D01*
X31452380Y-34371284D02*
X31452380Y-34656998D01*
X31452380Y-34656998D02*
X31404761Y-34752236D01*
X31404761Y-34752236D02*
X31357142Y-34799856D01*
X31357142Y-34799856D02*
X31261904Y-34847475D01*
X31261904Y-34847475D02*
X31119047Y-34847475D01*
X31880952Y-34847475D02*
X31880952Y-34180808D01*
X31880952Y-34276046D02*
X31928571Y-34228427D01*
X31928571Y-34228427D02*
X32023809Y-34180808D01*
X32023809Y-34180808D02*
X32166666Y-34180808D01*
X32166666Y-34180808D02*
X32261904Y-34228427D01*
X32261904Y-34228427D02*
X32309523Y-34323665D01*
X32309523Y-34323665D02*
X32309523Y-34847475D01*
X32309523Y-34323665D02*
X32357142Y-34228427D01*
X32357142Y-34228427D02*
X32452380Y-34180808D01*
X32452380Y-34180808D02*
X32595237Y-34180808D01*
X32595237Y-34180808D02*
X32690476Y-34228427D01*
X32690476Y-34228427D02*
X32738095Y-34323665D01*
X32738095Y-34323665D02*
X32738095Y-34847475D01*
X33214285Y-34180808D02*
X33214285Y-35180808D01*
X33214285Y-34228427D02*
X33309523Y-34180808D01*
X33309523Y-34180808D02*
X33499999Y-34180808D01*
X33499999Y-34180808D02*
X33595237Y-34228427D01*
X33595237Y-34228427D02*
X33642856Y-34276046D01*
X33642856Y-34276046D02*
X33690475Y-34371284D01*
X33690475Y-34371284D02*
X33690475Y-34656998D01*
X33690475Y-34656998D02*
X33642856Y-34752236D01*
X33642856Y-34752236D02*
X33595237Y-34799856D01*
X33595237Y-34799856D02*
X33499999Y-34847475D01*
X33499999Y-34847475D02*
X33309523Y-34847475D01*
X33309523Y-34847475D02*
X33214285Y-34799856D01*
X34547618Y-34847475D02*
X34547618Y-34323665D01*
X34547618Y-34323665D02*
X34499999Y-34228427D01*
X34499999Y-34228427D02*
X34404761Y-34180808D01*
X34404761Y-34180808D02*
X34214285Y-34180808D01*
X34214285Y-34180808D02*
X34119047Y-34228427D01*
X34547618Y-34799856D02*
X34452380Y-34847475D01*
X34452380Y-34847475D02*
X34214285Y-34847475D01*
X34214285Y-34847475D02*
X34119047Y-34799856D01*
X34119047Y-34799856D02*
X34071428Y-34704617D01*
X34071428Y-34704617D02*
X34071428Y-34609379D01*
X34071428Y-34609379D02*
X34119047Y-34514141D01*
X34119047Y-34514141D02*
X34214285Y-34466522D01*
X34214285Y-34466522D02*
X34452380Y-34466522D01*
X34452380Y-34466522D02*
X34547618Y-34418903D01*
X34976190Y-34799856D02*
X35071428Y-34847475D01*
X35071428Y-34847475D02*
X35261904Y-34847475D01*
X35261904Y-34847475D02*
X35357142Y-34799856D01*
X35357142Y-34799856D02*
X35404761Y-34704617D01*
X35404761Y-34704617D02*
X35404761Y-34656998D01*
X35404761Y-34656998D02*
X35357142Y-34561760D01*
X35357142Y-34561760D02*
X35261904Y-34514141D01*
X35261904Y-34514141D02*
X35119047Y-34514141D01*
X35119047Y-34514141D02*
X35023809Y-34466522D01*
X35023809Y-34466522D02*
X34976190Y-34371284D01*
X34976190Y-34371284D02*
X34976190Y-34323665D01*
X34976190Y-34323665D02*
X35023809Y-34228427D01*
X35023809Y-34228427D02*
X35119047Y-34180808D01*
X35119047Y-34180808D02*
X35261904Y-34180808D01*
X35261904Y-34180808D02*
X35357142Y-34228427D01*
X35785714Y-34799856D02*
X35880952Y-34847475D01*
X35880952Y-34847475D02*
X36071428Y-34847475D01*
X36071428Y-34847475D02*
X36166666Y-34799856D01*
X36166666Y-34799856D02*
X36214285Y-34704617D01*
X36214285Y-34704617D02*
X36214285Y-34656998D01*
X36214285Y-34656998D02*
X36166666Y-34561760D01*
X36166666Y-34561760D02*
X36071428Y-34514141D01*
X36071428Y-34514141D02*
X35928571Y-34514141D01*
X35928571Y-34514141D02*
X35833333Y-34466522D01*
X35833333Y-34466522D02*
X35785714Y-34371284D01*
X35785714Y-34371284D02*
X35785714Y-34323665D01*
X35785714Y-34323665D02*
X35833333Y-34228427D01*
X35833333Y-34228427D02*
X35928571Y-34180808D01*
X35928571Y-34180808D02*
X36071428Y-34180808D01*
X36071428Y-34180808D02*
X36166666Y-34228427D01*
X37404762Y-34847475D02*
X37404762Y-33847475D01*
X37404762Y-33847475D02*
X37738095Y-34561760D01*
X37738095Y-34561760D02*
X38071428Y-33847475D01*
X38071428Y-33847475D02*
X38071428Y-34847475D01*
X38690476Y-34847475D02*
X38595238Y-34799856D01*
X38595238Y-34799856D02*
X38547619Y-34752236D01*
X38547619Y-34752236D02*
X38500000Y-34656998D01*
X38500000Y-34656998D02*
X38500000Y-34371284D01*
X38500000Y-34371284D02*
X38547619Y-34276046D01*
X38547619Y-34276046D02*
X38595238Y-34228427D01*
X38595238Y-34228427D02*
X38690476Y-34180808D01*
X38690476Y-34180808D02*
X38833333Y-34180808D01*
X38833333Y-34180808D02*
X38928571Y-34228427D01*
X38928571Y-34228427D02*
X38976190Y-34276046D01*
X38976190Y-34276046D02*
X39023809Y-34371284D01*
X39023809Y-34371284D02*
X39023809Y-34656998D01*
X39023809Y-34656998D02*
X38976190Y-34752236D01*
X38976190Y-34752236D02*
X38928571Y-34799856D01*
X38928571Y-34799856D02*
X38833333Y-34847475D01*
X38833333Y-34847475D02*
X38690476Y-34847475D01*
X39880952Y-34847475D02*
X39880952Y-33847475D01*
X39880952Y-34799856D02*
X39785714Y-34847475D01*
X39785714Y-34847475D02*
X39595238Y-34847475D01*
X39595238Y-34847475D02*
X39500000Y-34799856D01*
X39500000Y-34799856D02*
X39452381Y-34752236D01*
X39452381Y-34752236D02*
X39404762Y-34656998D01*
X39404762Y-34656998D02*
X39404762Y-34371284D01*
X39404762Y-34371284D02*
X39452381Y-34276046D01*
X39452381Y-34276046D02*
X39500000Y-34228427D01*
X39500000Y-34228427D02*
X39595238Y-34180808D01*
X39595238Y-34180808D02*
X39785714Y-34180808D01*
X39785714Y-34180808D02*
X39880952Y-34228427D01*
X40785714Y-34180808D02*
X40785714Y-34847475D01*
X40357143Y-34180808D02*
X40357143Y-34704617D01*
X40357143Y-34704617D02*
X40404762Y-34799856D01*
X40404762Y-34799856D02*
X40500000Y-34847475D01*
X40500000Y-34847475D02*
X40642857Y-34847475D01*
X40642857Y-34847475D02*
X40738095Y-34799856D01*
X40738095Y-34799856D02*
X40785714Y-34752236D01*
X41404762Y-34847475D02*
X41309524Y-34799856D01*
X41309524Y-34799856D02*
X41261905Y-34704617D01*
X41261905Y-34704617D02*
X41261905Y-33847475D01*
X42166667Y-34799856D02*
X42071429Y-34847475D01*
X42071429Y-34847475D02*
X41880953Y-34847475D01*
X41880953Y-34847475D02*
X41785715Y-34799856D01*
X41785715Y-34799856D02*
X41738096Y-34704617D01*
X41738096Y-34704617D02*
X41738096Y-34323665D01*
X41738096Y-34323665D02*
X41785715Y-34228427D01*
X41785715Y-34228427D02*
X41880953Y-34180808D01*
X41880953Y-34180808D02*
X42071429Y-34180808D01*
X42071429Y-34180808D02*
X42166667Y-34228427D01*
X42166667Y-34228427D02*
X42214286Y-34323665D01*
X42214286Y-34323665D02*
X42214286Y-34418903D01*
X42214286Y-34418903D02*
X41738096Y-34514141D01*
X27285714Y-36457419D02*
X27285714Y-35457419D01*
X27285714Y-35457419D02*
X27666666Y-35457419D01*
X27666666Y-35457419D02*
X27761904Y-35505038D01*
X27761904Y-35505038D02*
X27809523Y-35552657D01*
X27809523Y-35552657D02*
X27857142Y-35647895D01*
X27857142Y-35647895D02*
X27857142Y-35790752D01*
X27857142Y-35790752D02*
X27809523Y-35885990D01*
X27809523Y-35885990D02*
X27761904Y-35933609D01*
X27761904Y-35933609D02*
X27666666Y-35981228D01*
X27666666Y-35981228D02*
X27285714Y-35981228D01*
X28285714Y-36457419D02*
X28285714Y-35457419D01*
X28714285Y-36457419D02*
X28714285Y-35933609D01*
X28714285Y-35933609D02*
X28666666Y-35838371D01*
X28666666Y-35838371D02*
X28571428Y-35790752D01*
X28571428Y-35790752D02*
X28428571Y-35790752D01*
X28428571Y-35790752D02*
X28333333Y-35838371D01*
X28333333Y-35838371D02*
X28285714Y-35885990D01*
X29190476Y-36457419D02*
X29190476Y-35790752D01*
X29190476Y-35457419D02*
X29142857Y-35505038D01*
X29142857Y-35505038D02*
X29190476Y-35552657D01*
X29190476Y-35552657D02*
X29238095Y-35505038D01*
X29238095Y-35505038D02*
X29190476Y-35457419D01*
X29190476Y-35457419D02*
X29190476Y-35552657D01*
X29809523Y-36457419D02*
X29714285Y-36409800D01*
X29714285Y-36409800D02*
X29666666Y-36314561D01*
X29666666Y-36314561D02*
X29666666Y-35457419D01*
X30190476Y-36457419D02*
X30190476Y-35790752D01*
X30190476Y-35457419D02*
X30142857Y-35505038D01*
X30142857Y-35505038D02*
X30190476Y-35552657D01*
X30190476Y-35552657D02*
X30238095Y-35505038D01*
X30238095Y-35505038D02*
X30190476Y-35457419D01*
X30190476Y-35457419D02*
X30190476Y-35552657D01*
X30666666Y-35790752D02*
X30666666Y-36790752D01*
X30666666Y-35838371D02*
X30761904Y-35790752D01*
X30761904Y-35790752D02*
X30952380Y-35790752D01*
X30952380Y-35790752D02*
X31047618Y-35838371D01*
X31047618Y-35838371D02*
X31095237Y-35885990D01*
X31095237Y-35885990D02*
X31142856Y-35981228D01*
X31142856Y-35981228D02*
X31142856Y-36266942D01*
X31142856Y-36266942D02*
X31095237Y-36362180D01*
X31095237Y-36362180D02*
X31047618Y-36409800D01*
X31047618Y-36409800D02*
X30952380Y-36457419D01*
X30952380Y-36457419D02*
X30761904Y-36457419D01*
X30761904Y-36457419D02*
X30666666Y-36409800D01*
X31571428Y-35790752D02*
X31571428Y-36790752D01*
X31571428Y-35838371D02*
X31666666Y-35790752D01*
X31666666Y-35790752D02*
X31857142Y-35790752D01*
X31857142Y-35790752D02*
X31952380Y-35838371D01*
X31952380Y-35838371D02*
X31999999Y-35885990D01*
X31999999Y-35885990D02*
X32047618Y-35981228D01*
X32047618Y-35981228D02*
X32047618Y-36266942D01*
X32047618Y-36266942D02*
X31999999Y-36362180D01*
X31999999Y-36362180D02*
X31952380Y-36409800D01*
X31952380Y-36409800D02*
X31857142Y-36457419D01*
X31857142Y-36457419D02*
X31666666Y-36457419D01*
X31666666Y-36457419D02*
X31571428Y-36409800D01*
X32857142Y-36409800D02*
X32761904Y-36457419D01*
X32761904Y-36457419D02*
X32571428Y-36457419D01*
X32571428Y-36457419D02*
X32476190Y-36409800D01*
X32476190Y-36409800D02*
X32428571Y-36314561D01*
X32428571Y-36314561D02*
X32428571Y-35933609D01*
X32428571Y-35933609D02*
X32476190Y-35838371D01*
X32476190Y-35838371D02*
X32571428Y-35790752D01*
X32571428Y-35790752D02*
X32761904Y-35790752D01*
X32761904Y-35790752D02*
X32857142Y-35838371D01*
X32857142Y-35838371D02*
X32904761Y-35933609D01*
X32904761Y-35933609D02*
X32904761Y-36028847D01*
X32904761Y-36028847D02*
X32428571Y-36124085D01*
X34095238Y-36457419D02*
X34095238Y-35457419D01*
X34095238Y-35457419D02*
X34428571Y-36171704D01*
X34428571Y-36171704D02*
X34761904Y-35457419D01*
X34761904Y-35457419D02*
X34761904Y-36457419D01*
X35238095Y-36457419D02*
X35238095Y-35790752D01*
X35238095Y-35457419D02*
X35190476Y-35505038D01*
X35190476Y-35505038D02*
X35238095Y-35552657D01*
X35238095Y-35552657D02*
X35285714Y-35505038D01*
X35285714Y-35505038D02*
X35238095Y-35457419D01*
X35238095Y-35457419D02*
X35238095Y-35552657D01*
X36142856Y-36409800D02*
X36047618Y-36457419D01*
X36047618Y-36457419D02*
X35857142Y-36457419D01*
X35857142Y-36457419D02*
X35761904Y-36409800D01*
X35761904Y-36409800D02*
X35714285Y-36362180D01*
X35714285Y-36362180D02*
X35666666Y-36266942D01*
X35666666Y-36266942D02*
X35666666Y-35981228D01*
X35666666Y-35981228D02*
X35714285Y-35885990D01*
X35714285Y-35885990D02*
X35761904Y-35838371D01*
X35761904Y-35838371D02*
X35857142Y-35790752D01*
X35857142Y-35790752D02*
X36047618Y-35790752D01*
X36047618Y-35790752D02*
X36142856Y-35838371D01*
X36571428Y-36457419D02*
X36571428Y-35457419D01*
X36999999Y-36457419D02*
X36999999Y-35933609D01*
X36999999Y-35933609D02*
X36952380Y-35838371D01*
X36952380Y-35838371D02*
X36857142Y-35790752D01*
X36857142Y-35790752D02*
X36714285Y-35790752D01*
X36714285Y-35790752D02*
X36619047Y-35838371D01*
X36619047Y-35838371D02*
X36571428Y-35885990D01*
X37904761Y-36457419D02*
X37904761Y-35933609D01*
X37904761Y-35933609D02*
X37857142Y-35838371D01*
X37857142Y-35838371D02*
X37761904Y-35790752D01*
X37761904Y-35790752D02*
X37571428Y-35790752D01*
X37571428Y-35790752D02*
X37476190Y-35838371D01*
X37904761Y-36409800D02*
X37809523Y-36457419D01*
X37809523Y-36457419D02*
X37571428Y-36457419D01*
X37571428Y-36457419D02*
X37476190Y-36409800D01*
X37476190Y-36409800D02*
X37428571Y-36314561D01*
X37428571Y-36314561D02*
X37428571Y-36219323D01*
X37428571Y-36219323D02*
X37476190Y-36124085D01*
X37476190Y-36124085D02*
X37571428Y-36076466D01*
X37571428Y-36076466D02*
X37809523Y-36076466D01*
X37809523Y-36076466D02*
X37904761Y-36028847D01*
X38809523Y-35790752D02*
X38809523Y-36457419D01*
X38380952Y-35790752D02*
X38380952Y-36314561D01*
X38380952Y-36314561D02*
X38428571Y-36409800D01*
X38428571Y-36409800D02*
X38523809Y-36457419D01*
X38523809Y-36457419D02*
X38666666Y-36457419D01*
X38666666Y-36457419D02*
X38761904Y-36409800D01*
X38761904Y-36409800D02*
X38809523Y-36362180D01*
X39714285Y-36457419D02*
X39714285Y-35457419D01*
X39714285Y-36409800D02*
X39619047Y-36457419D01*
X39619047Y-36457419D02*
X39428571Y-36457419D01*
X39428571Y-36457419D02*
X39333333Y-36409800D01*
X39333333Y-36409800D02*
X39285714Y-36362180D01*
X39285714Y-36362180D02*
X39238095Y-36266942D01*
X39238095Y-36266942D02*
X39238095Y-35981228D01*
X39238095Y-35981228D02*
X39285714Y-35885990D01*
X39285714Y-35885990D02*
X39333333Y-35838371D01*
X39333333Y-35838371D02*
X39428571Y-35790752D01*
X39428571Y-35790752D02*
X39619047Y-35790752D01*
X39619047Y-35790752D02*
X39714285Y-35838371D01*
X28642857Y-37162601D02*
X28690476Y-37114982D01*
X28690476Y-37114982D02*
X28785714Y-37067363D01*
X28785714Y-37067363D02*
X29023809Y-37067363D01*
X29023809Y-37067363D02*
X29119047Y-37114982D01*
X29119047Y-37114982D02*
X29166666Y-37162601D01*
X29166666Y-37162601D02*
X29214285Y-37257839D01*
X29214285Y-37257839D02*
X29214285Y-37353077D01*
X29214285Y-37353077D02*
X29166666Y-37495934D01*
X29166666Y-37495934D02*
X28595238Y-38067363D01*
X28595238Y-38067363D02*
X29214285Y-38067363D01*
X29833333Y-37067363D02*
X29928571Y-37067363D01*
X29928571Y-37067363D02*
X30023809Y-37114982D01*
X30023809Y-37114982D02*
X30071428Y-37162601D01*
X30071428Y-37162601D02*
X30119047Y-37257839D01*
X30119047Y-37257839D02*
X30166666Y-37448315D01*
X30166666Y-37448315D02*
X30166666Y-37686410D01*
X30166666Y-37686410D02*
X30119047Y-37876886D01*
X30119047Y-37876886D02*
X30071428Y-37972124D01*
X30071428Y-37972124D02*
X30023809Y-38019744D01*
X30023809Y-38019744D02*
X29928571Y-38067363D01*
X29928571Y-38067363D02*
X29833333Y-38067363D01*
X29833333Y-38067363D02*
X29738095Y-38019744D01*
X29738095Y-38019744D02*
X29690476Y-37972124D01*
X29690476Y-37972124D02*
X29642857Y-37876886D01*
X29642857Y-37876886D02*
X29595238Y-37686410D01*
X29595238Y-37686410D02*
X29595238Y-37448315D01*
X29595238Y-37448315D02*
X29642857Y-37257839D01*
X29642857Y-37257839D02*
X29690476Y-37162601D01*
X29690476Y-37162601D02*
X29738095Y-37114982D01*
X29738095Y-37114982D02*
X29833333Y-37067363D01*
X30547619Y-37162601D02*
X30595238Y-37114982D01*
X30595238Y-37114982D02*
X30690476Y-37067363D01*
X30690476Y-37067363D02*
X30928571Y-37067363D01*
X30928571Y-37067363D02*
X31023809Y-37114982D01*
X31023809Y-37114982D02*
X31071428Y-37162601D01*
X31071428Y-37162601D02*
X31119047Y-37257839D01*
X31119047Y-37257839D02*
X31119047Y-37353077D01*
X31119047Y-37353077D02*
X31071428Y-37495934D01*
X31071428Y-37495934D02*
X30500000Y-38067363D01*
X30500000Y-38067363D02*
X31119047Y-38067363D01*
X31976190Y-37400696D02*
X31976190Y-38067363D01*
X31738095Y-37019744D02*
X31500000Y-37734029D01*
X31500000Y-37734029D02*
X32119047Y-37734029D01*
X32500000Y-37686410D02*
X33261905Y-37686410D01*
X33928571Y-37067363D02*
X34023809Y-37067363D01*
X34023809Y-37067363D02*
X34119047Y-37114982D01*
X34119047Y-37114982D02*
X34166666Y-37162601D01*
X34166666Y-37162601D02*
X34214285Y-37257839D01*
X34214285Y-37257839D02*
X34261904Y-37448315D01*
X34261904Y-37448315D02*
X34261904Y-37686410D01*
X34261904Y-37686410D02*
X34214285Y-37876886D01*
X34214285Y-37876886D02*
X34166666Y-37972124D01*
X34166666Y-37972124D02*
X34119047Y-38019744D01*
X34119047Y-38019744D02*
X34023809Y-38067363D01*
X34023809Y-38067363D02*
X33928571Y-38067363D01*
X33928571Y-38067363D02*
X33833333Y-38019744D01*
X33833333Y-38019744D02*
X33785714Y-37972124D01*
X33785714Y-37972124D02*
X33738095Y-37876886D01*
X33738095Y-37876886D02*
X33690476Y-37686410D01*
X33690476Y-37686410D02*
X33690476Y-37448315D01*
X33690476Y-37448315D02*
X33738095Y-37257839D01*
X33738095Y-37257839D02*
X33785714Y-37162601D01*
X33785714Y-37162601D02*
X33833333Y-37114982D01*
X33833333Y-37114982D02*
X33928571Y-37067363D01*
X35119047Y-37400696D02*
X35119047Y-38067363D01*
X34880952Y-37019744D02*
X34642857Y-37734029D01*
X34642857Y-37734029D02*
X35261904Y-37734029D01*
X35642857Y-37686410D02*
X36404762Y-37686410D01*
X37071428Y-37067363D02*
X37166666Y-37067363D01*
X37166666Y-37067363D02*
X37261904Y-37114982D01*
X37261904Y-37114982D02*
X37309523Y-37162601D01*
X37309523Y-37162601D02*
X37357142Y-37257839D01*
X37357142Y-37257839D02*
X37404761Y-37448315D01*
X37404761Y-37448315D02*
X37404761Y-37686410D01*
X37404761Y-37686410D02*
X37357142Y-37876886D01*
X37357142Y-37876886D02*
X37309523Y-37972124D01*
X37309523Y-37972124D02*
X37261904Y-38019744D01*
X37261904Y-38019744D02*
X37166666Y-38067363D01*
X37166666Y-38067363D02*
X37071428Y-38067363D01*
X37071428Y-38067363D02*
X36976190Y-38019744D01*
X36976190Y-38019744D02*
X36928571Y-37972124D01*
X36928571Y-37972124D02*
X36880952Y-37876886D01*
X36880952Y-37876886D02*
X36833333Y-37686410D01*
X36833333Y-37686410D02*
X36833333Y-37448315D01*
X36833333Y-37448315D02*
X36880952Y-37257839D01*
X36880952Y-37257839D02*
X36928571Y-37162601D01*
X36928571Y-37162601D02*
X36976190Y-37114982D01*
X36976190Y-37114982D02*
X37071428Y-37067363D01*
X37738095Y-37067363D02*
X38357142Y-37067363D01*
X38357142Y-37067363D02*
X38023809Y-37448315D01*
X38023809Y-37448315D02*
X38166666Y-37448315D01*
X38166666Y-37448315D02*
X38261904Y-37495934D01*
X38261904Y-37495934D02*
X38309523Y-37543553D01*
X38309523Y-37543553D02*
X38357142Y-37638791D01*
X38357142Y-37638791D02*
X38357142Y-37876886D01*
X38357142Y-37876886D02*
X38309523Y-37972124D01*
X38309523Y-37972124D02*
X38261904Y-38019744D01*
X38261904Y-38019744D02*
X38166666Y-38067363D01*
X38166666Y-38067363D02*
X37880952Y-38067363D01*
X37880952Y-38067363D02*
X37785714Y-38019744D01*
X37785714Y-38019744D02*
X37738095Y-37972124D01*
X31809523Y-78957419D02*
X31333333Y-78957419D01*
X31333333Y-78957419D02*
X31285714Y-79433609D01*
X31285714Y-79433609D02*
X31333333Y-79385990D01*
X31333333Y-79385990D02*
X31428571Y-79338371D01*
X31428571Y-79338371D02*
X31666666Y-79338371D01*
X31666666Y-79338371D02*
X31761904Y-79385990D01*
X31761904Y-79385990D02*
X31809523Y-79433609D01*
X31809523Y-79433609D02*
X31857142Y-79528847D01*
X31857142Y-79528847D02*
X31857142Y-79766942D01*
X31857142Y-79766942D02*
X31809523Y-79862180D01*
X31809523Y-79862180D02*
X31761904Y-79909800D01*
X31761904Y-79909800D02*
X31666666Y-79957419D01*
X31666666Y-79957419D02*
X31428571Y-79957419D01*
X31428571Y-79957419D02*
X31333333Y-79909800D01*
X31333333Y-79909800D02*
X31285714Y-79862180D01*
X32142857Y-78957419D02*
X32476190Y-79957419D01*
X32476190Y-79957419D02*
X32809523Y-78957419D01*
X34095238Y-78957419D02*
X34285714Y-78957419D01*
X34285714Y-78957419D02*
X34380952Y-79005038D01*
X34380952Y-79005038D02*
X34476190Y-79100276D01*
X34476190Y-79100276D02*
X34523809Y-79290752D01*
X34523809Y-79290752D02*
X34523809Y-79624085D01*
X34523809Y-79624085D02*
X34476190Y-79814561D01*
X34476190Y-79814561D02*
X34380952Y-79909800D01*
X34380952Y-79909800D02*
X34285714Y-79957419D01*
X34285714Y-79957419D02*
X34095238Y-79957419D01*
X34095238Y-79957419D02*
X34000000Y-79909800D01*
X34000000Y-79909800D02*
X33904762Y-79814561D01*
X33904762Y-79814561D02*
X33857143Y-79624085D01*
X33857143Y-79624085D02*
X33857143Y-79290752D01*
X33857143Y-79290752D02*
X33904762Y-79100276D01*
X33904762Y-79100276D02*
X34000000Y-79005038D01*
X34000000Y-79005038D02*
X34095238Y-78957419D01*
X34952381Y-79290752D02*
X34952381Y-79957419D01*
X34952381Y-79385990D02*
X35000000Y-79338371D01*
X35000000Y-79338371D02*
X35095238Y-79290752D01*
X35095238Y-79290752D02*
X35238095Y-79290752D01*
X35238095Y-79290752D02*
X35333333Y-79338371D01*
X35333333Y-79338371D02*
X35380952Y-79433609D01*
X35380952Y-79433609D02*
X35380952Y-79957419D01*
X36000000Y-79957419D02*
X35904762Y-79909800D01*
X35904762Y-79909800D02*
X35857143Y-79814561D01*
X35857143Y-79814561D02*
X35857143Y-78957419D01*
X36285715Y-79290752D02*
X36523810Y-79957419D01*
X36761905Y-79290752D02*
X36523810Y-79957419D01*
X36523810Y-79957419D02*
X36428572Y-80195514D01*
X36428572Y-80195514D02*
X36380953Y-80243133D01*
X36380953Y-80243133D02*
X36285715Y-80290752D01*
D11*
X21347587Y-60172972D02*
X21299968Y-60220592D01*
X21299968Y-60220592D02*
X21157111Y-60268211D01*
X21157111Y-60268211D02*
X21061873Y-60268211D01*
X21061873Y-60268211D02*
X20919016Y-60220592D01*
X20919016Y-60220592D02*
X20823778Y-60125353D01*
X20823778Y-60125353D02*
X20776159Y-60030115D01*
X20776159Y-60030115D02*
X20728540Y-59839639D01*
X20728540Y-59839639D02*
X20728540Y-59696782D01*
X20728540Y-59696782D02*
X20776159Y-59506306D01*
X20776159Y-59506306D02*
X20823778Y-59411068D01*
X20823778Y-59411068D02*
X20919016Y-59315830D01*
X20919016Y-59315830D02*
X21061873Y-59268211D01*
X21061873Y-59268211D02*
X21157111Y-59268211D01*
X21157111Y-59268211D02*
X21299968Y-59315830D01*
X21299968Y-59315830D02*
X21347587Y-59363449D01*
X21728540Y-59363449D02*
X21776159Y-59315830D01*
X21776159Y-59315830D02*
X21871397Y-59268211D01*
X21871397Y-59268211D02*
X22109492Y-59268211D01*
X22109492Y-59268211D02*
X22204730Y-59315830D01*
X22204730Y-59315830D02*
X22252349Y-59363449D01*
X22252349Y-59363449D02*
X22299968Y-59458687D01*
X22299968Y-59458687D02*
X22299968Y-59553925D01*
X22299968Y-59553925D02*
X22252349Y-59696782D01*
X22252349Y-59696782D02*
X21680921Y-60268211D01*
X21680921Y-60268211D02*
X22299968Y-60268211D01*
X29833333Y-64859580D02*
X29785714Y-64907200D01*
X29785714Y-64907200D02*
X29642857Y-64954819D01*
X29642857Y-64954819D02*
X29547619Y-64954819D01*
X29547619Y-64954819D02*
X29404762Y-64907200D01*
X29404762Y-64907200D02*
X29309524Y-64811961D01*
X29309524Y-64811961D02*
X29261905Y-64716723D01*
X29261905Y-64716723D02*
X29214286Y-64526247D01*
X29214286Y-64526247D02*
X29214286Y-64383390D01*
X29214286Y-64383390D02*
X29261905Y-64192914D01*
X29261905Y-64192914D02*
X29309524Y-64097676D01*
X29309524Y-64097676D02*
X29404762Y-64002438D01*
X29404762Y-64002438D02*
X29547619Y-63954819D01*
X29547619Y-63954819D02*
X29642857Y-63954819D01*
X29642857Y-63954819D02*
X29785714Y-64002438D01*
X29785714Y-64002438D02*
X29833333Y-64050057D01*
X30166667Y-63954819D02*
X30785714Y-63954819D01*
X30785714Y-63954819D02*
X30452381Y-64335771D01*
X30452381Y-64335771D02*
X30595238Y-64335771D01*
X30595238Y-64335771D02*
X30690476Y-64383390D01*
X30690476Y-64383390D02*
X30738095Y-64431009D01*
X30738095Y-64431009D02*
X30785714Y-64526247D01*
X30785714Y-64526247D02*
X30785714Y-64764342D01*
X30785714Y-64764342D02*
X30738095Y-64859580D01*
X30738095Y-64859580D02*
X30690476Y-64907200D01*
X30690476Y-64907200D02*
X30595238Y-64954819D01*
X30595238Y-64954819D02*
X30309524Y-64954819D01*
X30309524Y-64954819D02*
X30214286Y-64907200D01*
X30214286Y-64907200D02*
X30166667Y-64859580D01*
X38238095Y-68454819D02*
X38238095Y-69264342D01*
X38238095Y-69264342D02*
X38285714Y-69359580D01*
X38285714Y-69359580D02*
X38333333Y-69407200D01*
X38333333Y-69407200D02*
X38428571Y-69454819D01*
X38428571Y-69454819D02*
X38619047Y-69454819D01*
X38619047Y-69454819D02*
X38714285Y-69407200D01*
X38714285Y-69407200D02*
X38761904Y-69359580D01*
X38761904Y-69359580D02*
X38809523Y-69264342D01*
X38809523Y-69264342D02*
X38809523Y-68454819D01*
X39761904Y-68454819D02*
X39285714Y-68454819D01*
X39285714Y-68454819D02*
X39238095Y-68931009D01*
X39238095Y-68931009D02*
X39285714Y-68883390D01*
X39285714Y-68883390D02*
X39380952Y-68835771D01*
X39380952Y-68835771D02*
X39619047Y-68835771D01*
X39619047Y-68835771D02*
X39714285Y-68883390D01*
X39714285Y-68883390D02*
X39761904Y-68931009D01*
X39761904Y-68931009D02*
X39809523Y-69026247D01*
X39809523Y-69026247D02*
X39809523Y-69264342D01*
X39809523Y-69264342D02*
X39761904Y-69359580D01*
X39761904Y-69359580D02*
X39714285Y-69407200D01*
X39714285Y-69407200D02*
X39619047Y-69454819D01*
X39619047Y-69454819D02*
X39380952Y-69454819D01*
X39380952Y-69454819D02*
X39285714Y-69407200D01*
X39285714Y-69407200D02*
X39238095Y-69359580D01*
X21333333Y-66539580D02*
X21285714Y-66587200D01*
X21285714Y-66587200D02*
X21142857Y-66634819D01*
X21142857Y-66634819D02*
X21047619Y-66634819D01*
X21047619Y-66634819D02*
X20904762Y-66587200D01*
X20904762Y-66587200D02*
X20809524Y-66491961D01*
X20809524Y-66491961D02*
X20761905Y-66396723D01*
X20761905Y-66396723D02*
X20714286Y-66206247D01*
X20714286Y-66206247D02*
X20714286Y-66063390D01*
X20714286Y-66063390D02*
X20761905Y-65872914D01*
X20761905Y-65872914D02*
X20809524Y-65777676D01*
X20809524Y-65777676D02*
X20904762Y-65682438D01*
X20904762Y-65682438D02*
X21047619Y-65634819D01*
X21047619Y-65634819D02*
X21142857Y-65634819D01*
X21142857Y-65634819D02*
X21285714Y-65682438D01*
X21285714Y-65682438D02*
X21333333Y-65730057D01*
X22285714Y-66634819D02*
X21714286Y-66634819D01*
X22000000Y-66634819D02*
X22000000Y-65634819D01*
X22000000Y-65634819D02*
X21904762Y-65777676D01*
X21904762Y-65777676D02*
X21809524Y-65872914D01*
X21809524Y-65872914D02*
X21714286Y-65920533D01*
X29833333Y-61954819D02*
X29500000Y-61478628D01*
X29261905Y-61954819D02*
X29261905Y-60954819D01*
X29261905Y-60954819D02*
X29642857Y-60954819D01*
X29642857Y-60954819D02*
X29738095Y-61002438D01*
X29738095Y-61002438D02*
X29785714Y-61050057D01*
X29785714Y-61050057D02*
X29833333Y-61145295D01*
X29833333Y-61145295D02*
X29833333Y-61288152D01*
X29833333Y-61288152D02*
X29785714Y-61383390D01*
X29785714Y-61383390D02*
X29738095Y-61431009D01*
X29738095Y-61431009D02*
X29642857Y-61478628D01*
X29642857Y-61478628D02*
X29261905Y-61478628D01*
X30785714Y-61954819D02*
X30214286Y-61954819D01*
X30500000Y-61954819D02*
X30500000Y-60954819D01*
X30500000Y-60954819D02*
X30404762Y-61097676D01*
X30404762Y-61097676D02*
X30309524Y-61192914D01*
X30309524Y-61192914D02*
X30214286Y-61240533D01*
X24238095Y-38954819D02*
X24238095Y-39764342D01*
X24238095Y-39764342D02*
X24285714Y-39859580D01*
X24285714Y-39859580D02*
X24333333Y-39907200D01*
X24333333Y-39907200D02*
X24428571Y-39954819D01*
X24428571Y-39954819D02*
X24619047Y-39954819D01*
X24619047Y-39954819D02*
X24714285Y-39907200D01*
X24714285Y-39907200D02*
X24761904Y-39859580D01*
X24761904Y-39859580D02*
X24809523Y-39764342D01*
X24809523Y-39764342D02*
X24809523Y-38954819D01*
X25809523Y-39954819D02*
X25238095Y-39954819D01*
X25523809Y-39954819D02*
X25523809Y-38954819D01*
X25523809Y-38954819D02*
X25428571Y-39097676D01*
X25428571Y-39097676D02*
X25333333Y-39192914D01*
X25333333Y-39192914D02*
X25238095Y-39240533D01*
D12*
%TO.C,C2*%
X21761252Y-60765000D02*
X21238748Y-60765000D01*
X21761252Y-62235000D02*
X21238748Y-62235000D01*
%TO.C,C3*%
X27261252Y-63765000D02*
X26738748Y-63765000D01*
X27261252Y-65235000D02*
X26738748Y-65235000D01*
%TO.C,U5*%
X39000000Y-62940000D02*
X37050000Y-62940000D01*
X39000000Y-62940000D02*
X40950000Y-62940000D01*
X39000000Y-68060000D02*
X37050000Y-68060000D01*
X39000000Y-68060000D02*
X40950000Y-68060000D01*
X36300000Y-63035000D02*
X36060000Y-62705000D01*
X36540000Y-62705000D01*
X36300000Y-63035000D01*
G36*
X36300000Y-63035000D02*
G01*
X36060000Y-62705000D01*
X36540000Y-62705000D01*
X36300000Y-63035000D01*
G37*
%TO.C,C1*%
X21761252Y-63765000D02*
X21238748Y-63765000D01*
X21761252Y-65235000D02*
X21238748Y-65235000D01*
%TO.C,R1*%
X26772936Y-60765000D02*
X27227064Y-60765000D01*
X26772936Y-62235000D02*
X27227064Y-62235000D01*
%TO.C,U1*%
X43090000Y-59200000D02*
X44090000Y-59200000D01*
X44090000Y-40800000D02*
X43090000Y-40800000D01*
X44090000Y-40800000D02*
X44090000Y-42300000D01*
X44090000Y-59200000D02*
X44090000Y-57700000D01*
X25115000Y-59700000D02*
X24615000Y-59200000D01*
X25115000Y-59200000D01*
X25115000Y-59700000D01*
G36*
X25115000Y-59700000D02*
G01*
X24615000Y-59200000D01*
X25115000Y-59200000D01*
X25115000Y-59700000D01*
G37*
%TO.C,J1*%
X24735000Y-67040000D02*
X20375000Y-67040000D01*
X24735000Y-67040000D02*
X24735000Y-69540000D01*
X24735000Y-69540000D02*
X24935000Y-69540000D01*
X24735000Y-73060000D02*
X24735000Y-75560000D01*
X24735000Y-75560000D02*
X20375000Y-75560000D01*
X24935000Y-70200000D02*
X24935000Y-69540000D01*
%TD*%
%LPC*%
D13*
%TO.C,H2*%
X46000000Y-23000000D03*
D14*
X46000000Y-23000000D03*
%TD*%
D13*
%TO.C,H4*%
X46000000Y-79000000D03*
D14*
X46000000Y-79000000D03*
%TD*%
D15*
%TO.C,C2*%
X22537500Y-61500000D03*
X20462500Y-61500000D03*
%TD*%
%TO.C,C3*%
X28037500Y-64500000D03*
X25962500Y-64500000D03*
%TD*%
D16*
%TO.C,U5*%
X36525000Y-63595000D03*
X36525000Y-64865000D03*
X36525000Y-66135000D03*
X36525000Y-67405000D03*
X41475000Y-67405000D03*
X41475000Y-66135000D03*
X41475000Y-64865000D03*
X41475000Y-63595000D03*
%TD*%
D15*
%TO.C,C1*%
X22537500Y-64500000D03*
X20462500Y-64500000D03*
%TD*%
D17*
%TO.C,R1*%
X26000000Y-61500000D03*
X28000000Y-61500000D03*
%TD*%
D18*
%TO.C,U1*%
X25880000Y-58750000D03*
X27150000Y-58750000D03*
X28420000Y-58750000D03*
X29690000Y-58750000D03*
X30960000Y-58750000D03*
X32230000Y-58750000D03*
X33500000Y-58750000D03*
X34770000Y-58750000D03*
X36040000Y-58750000D03*
X37310000Y-58750000D03*
X38580000Y-58750000D03*
X39850000Y-58750000D03*
X41120000Y-58750000D03*
X42390000Y-58750000D03*
D19*
X43640000Y-56985000D03*
X43640000Y-55715000D03*
X43640000Y-54445000D03*
X43640000Y-53175000D03*
X43640000Y-51905000D03*
X43640000Y-50635000D03*
X43640000Y-49365000D03*
X43640000Y-48095000D03*
X43640000Y-46825000D03*
X43640000Y-45555000D03*
X43640000Y-44285000D03*
X43640000Y-43015000D03*
D18*
X42390000Y-41250000D03*
X41120000Y-41250000D03*
X39850000Y-41250000D03*
X38580000Y-41250000D03*
X37310000Y-41250000D03*
X36040000Y-41250000D03*
X34770000Y-41250000D03*
X33500000Y-41250000D03*
X32230000Y-41250000D03*
X30960000Y-41250000D03*
X29690000Y-41250000D03*
X28420000Y-41250000D03*
X27150000Y-41250000D03*
X25880000Y-41250000D03*
D20*
X33600000Y-51500000D03*
%TD*%
D13*
%TO.C,H3*%
X21500000Y-79000000D03*
D14*
X21500000Y-79000000D03*
%TD*%
D13*
%TO.C,H1*%
X21500000Y-23000000D03*
D14*
X21500000Y-23000000D03*
%TD*%
D21*
%TO.C,J1*%
X24000000Y-70000000D03*
X24000000Y-70650000D03*
X24000000Y-71300000D03*
X24000000Y-71950000D03*
X24000000Y-72600000D03*
D22*
X21325000Y-68000000D03*
D23*
X23775000Y-68100000D03*
D24*
X21325000Y-70100000D03*
X21325000Y-72500000D03*
D23*
X23775000Y-74500000D03*
D22*
X21325000Y-74600000D03*
%TD*%
D25*
%TO.C,J3*%
X39500000Y-79120000D03*
X28068000Y-79120000D03*
D26*
X38229000Y-72770000D03*
D27*
X36959000Y-70230000D03*
X35689000Y-72770000D03*
X34419000Y-70230000D03*
X33149000Y-72770000D03*
X31879000Y-70230000D03*
X30609000Y-72770000D03*
X29339000Y-70230000D03*
%TD*%
D25*
%TO.C,J2*%
X28068000Y-22880000D03*
X39500000Y-22880000D03*
D28*
X29339000Y-29230000D03*
D27*
X30609000Y-31770000D03*
X31879000Y-29230000D03*
X33149000Y-31770000D03*
X34419000Y-29230000D03*
X35689000Y-31770000D03*
X36959000Y-29230000D03*
X38229000Y-31770000D03*
%TD*%
D29*
X34000000Y-52600000D03*
X35000000Y-52600000D03*
X34000000Y-51400000D03*
X33100000Y-51400000D03*
X35000000Y-51400000D03*
X34000000Y-50200000D03*
X35000000Y-50200000D03*
X28800000Y-38700000D03*
X40300000Y-52300000D03*
X41200000Y-54000000D03*
X42200000Y-50240000D03*
X21300000Y-55500000D03*
X25300000Y-55500000D03*
X22300000Y-55500000D03*
X23300000Y-55500000D03*
X24300000Y-55500000D03*
X21300000Y-54600000D03*
X25300000Y-54600000D03*
X22300000Y-54600000D03*
X23300000Y-54600000D03*
X24300000Y-54600000D03*
X21300000Y-53600000D03*
X25300000Y-53600000D03*
X22300000Y-53600000D03*
X23300000Y-53600000D03*
X24300000Y-53600000D03*
X21300000Y-52600000D03*
X25300000Y-52600000D03*
X22300000Y-52600000D03*
X23300000Y-52600000D03*
X24300000Y-52600000D03*
X21300000Y-51600000D03*
X25300000Y-51600000D03*
X22300000Y-51600000D03*
X23300000Y-51600000D03*
X24300000Y-51600000D03*
X25300000Y-50700000D03*
X24300000Y-50700000D03*
X23300000Y-50700000D03*
X22300000Y-50700000D03*
X21300000Y-50700000D03*
X28037500Y-66037500D03*
X34861805Y-43006449D03*
X43122102Y-65429103D03*
X21000000Y-43000000D03*
X44500000Y-69500000D03*
X30000000Y-68000000D03*
X44700000Y-41100000D03*
X28000000Y-39500000D03*
X40500000Y-45500000D03*
X42000000Y-46500000D03*
%LPD*%
M02*
