%TF.GenerationSoftware,KiCad,Pcbnew,8.0.1-8.0.1-1~ubuntu22.04.1*%
%TF.CreationDate,2024-04-18T01:12:43-04:00*%
%TF.ProjectId,esp32_rover_devkit,65737033-325f-4726-9f76-65725f646576,rev?*%
%TF.SameCoordinates,Original*%
%TF.FileFunction,Soldermask,Bot*%
%TF.FilePolarity,Negative*%
%FSLAX46Y46*%
G04 Gerber Fmt 4.6, Leading zero omitted, Abs format (unit mm)*
G04 Created by KiCad (PCBNEW 8.0.1-8.0.1-1~ubuntu22.04.1) date 2024-04-18 01:12:43*
%MOMM*%
%LPD*%
G01*
G04 APERTURE LIST*
G04 Aperture macros list*
%AMRoundRect*
0 Rectangle with rounded corners*
0 $1 Rounding radius*
0 $2 $3 $4 $5 $6 $7 $8 $9 X,Y pos of 4 corners*
0 Add a 4 corners polygon primitive as box body*
4,1,4,$2,$3,$4,$5,$6,$7,$8,$9,$2,$3,0*
0 Add four circle primitives for the rounded corners*
1,1,$1+$1,$2,$3*
1,1,$1+$1,$4,$5*
1,1,$1+$1,$6,$7*
1,1,$1+$1,$8,$9*
0 Add four rect primitives between the rounded corners*
20,1,$1+$1,$2,$3,$4,$5,0*
20,1,$1+$1,$4,$5,$6,$7,0*
20,1,$1+$1,$6,$7,$8,$9,0*
20,1,$1+$1,$8,$9,$2,$3,0*%
G04 Aperture macros list end*
%ADD10RoundRect,0.225000X1.775000X0.525000X-1.775000X0.525000X-1.775000X-0.525000X1.775000X-0.525000X0*%
%ADD11C,2.600000*%
%ADD12C,3.800000*%
%ADD13O,1.600000X0.900000*%
%ADD14R,0.939800X2.489200*%
%ADD15R,5.562600X5.918200*%
%ADD16RoundRect,0.250000X0.475000X-0.337500X0.475000X0.337500X-0.475000X0.337500X-0.475000X-0.337500X0*%
%ADD17RoundRect,0.250000X-0.325000X-0.450000X0.325000X-0.450000X0.325000X0.450000X-0.325000X0.450000X0*%
%ADD18R,0.609600X1.511300*%
%ADD19RoundRect,0.250000X-0.337500X-0.475000X0.337500X-0.475000X0.337500X0.475000X-0.337500X0.475000X0*%
%ADD20RoundRect,0.055580X0.921420X0.341420X-0.921420X0.341420X-0.921420X-0.341420X0.921420X-0.341420X0*%
%ADD21RoundRect,0.250000X-0.350000X-0.450000X0.350000X-0.450000X0.350000X0.450000X-0.350000X0.450000X0*%
%ADD22RoundRect,0.250000X0.350000X0.450000X-0.350000X0.450000X-0.350000X-0.450000X0.350000X-0.450000X0*%
%ADD23C,3.350000*%
%ADD24RoundRect,0.102000X0.634000X0.634000X-0.634000X0.634000X-0.634000X-0.634000X0.634000X-0.634000X0*%
%ADD25C,1.472000*%
%ADD26RoundRect,0.102000X-0.634000X-0.634000X0.634000X-0.634000X0.634000X0.634000X-0.634000X0.634000X0*%
%ADD27C,0.600000*%
G04 APERTURE END LIST*
D10*
%TO.C,U4*%
X45600000Y-47700000D03*
X45600000Y-50240000D03*
X45600000Y-52780000D03*
X45600000Y-55320000D03*
X45600000Y-57860000D03*
X45600000Y-60400000D03*
X30600000Y-47700000D03*
X30600000Y-50240000D03*
X30600000Y-52780000D03*
X30600000Y-55320000D03*
X30600000Y-57860000D03*
X30600000Y-60400000D03*
%TD*%
D11*
%TO.C,H2*%
X46000000Y-23000000D03*
D12*
X46000000Y-23000000D03*
%TD*%
D11*
%TO.C,H4*%
X46000000Y-79000000D03*
D12*
X46000000Y-79000000D03*
%TD*%
D11*
%TO.C,H3*%
X21500000Y-79000000D03*
D12*
X21500000Y-79000000D03*
%TD*%
D11*
%TO.C,H1*%
X21500000Y-23000000D03*
D12*
X21500000Y-23000000D03*
%TD*%
D13*
%TO.C,J1*%
X21325000Y-68000000D03*
X21325000Y-74600000D03*
%TD*%
D14*
%TO.C,U2*%
X25686000Y-60194200D03*
D15*
X23400000Y-53120300D03*
D14*
X21114000Y-60194200D03*
%TD*%
D16*
%TO.C,C7*%
X40000000Y-44037500D03*
X40000000Y-41962500D03*
%TD*%
D17*
%TO.C,D2*%
X20975000Y-28000000D03*
X23025000Y-28000000D03*
%TD*%
D18*
%TO.C,SW1*%
X45500000Y-75303650D03*
X45500000Y-67696350D03*
%TD*%
D17*
%TO.C,D1*%
X20975000Y-32500000D03*
X23025000Y-32500000D03*
%TD*%
D19*
%TO.C,C4*%
X43462500Y-64000000D03*
X45537500Y-64000000D03*
%TD*%
%TO.C,C6*%
X22462500Y-63500000D03*
X24537500Y-63500000D03*
%TD*%
%TO.C,C5*%
X43462500Y-39500000D03*
X45537500Y-39500000D03*
%TD*%
D18*
%TO.C,SW2*%
X45500000Y-27696350D03*
X45500000Y-35303650D03*
%TD*%
D20*
%TO.C,U3*%
X33085000Y-41095000D03*
X33085000Y-42365000D03*
X33085000Y-43635000D03*
X33085000Y-44905000D03*
X27915000Y-44905000D03*
X27915000Y-43635000D03*
X27915000Y-42365000D03*
X27915000Y-41095000D03*
%TD*%
D16*
%TO.C,C8*%
X36500000Y-44037500D03*
X36500000Y-41962500D03*
%TD*%
D21*
%TO.C,R3*%
X21000000Y-37000000D03*
X23000000Y-37000000D03*
%TD*%
D22*
%TO.C,R2*%
X23000000Y-41500000D03*
X21000000Y-41500000D03*
%TD*%
D23*
%TO.C,J3*%
X39500000Y-79120000D03*
X28068000Y-79120000D03*
D24*
X38229000Y-72770000D03*
D25*
X36959000Y-70230000D03*
X35689000Y-72770000D03*
X34419000Y-70230000D03*
X33149000Y-72770000D03*
X31879000Y-70230000D03*
X30609000Y-72770000D03*
X29339000Y-70230000D03*
%TD*%
D23*
%TO.C,J2*%
X28068000Y-22880000D03*
X39500000Y-22880000D03*
D26*
X29339000Y-29230000D03*
D25*
X30609000Y-31770000D03*
X31879000Y-29230000D03*
X33149000Y-31770000D03*
X34419000Y-29230000D03*
X35689000Y-31770000D03*
X36959000Y-29230000D03*
X38229000Y-31770000D03*
%TD*%
D27*
X34000000Y-52600000D03*
X35000000Y-52600000D03*
X34000000Y-51400000D03*
X33100000Y-51400000D03*
X35000000Y-51400000D03*
X34000000Y-50200000D03*
X35000000Y-50200000D03*
X28800000Y-38700000D03*
X40300000Y-52300000D03*
X41200000Y-54000000D03*
X42200000Y-50240000D03*
X21300000Y-55500000D03*
X25300000Y-55500000D03*
X22300000Y-55500000D03*
X23300000Y-55500000D03*
X24300000Y-55500000D03*
X21300000Y-54600000D03*
X25300000Y-54600000D03*
X22300000Y-54600000D03*
X23300000Y-54600000D03*
X24300000Y-54600000D03*
X21300000Y-53600000D03*
X25300000Y-53600000D03*
X22300000Y-53600000D03*
X23300000Y-53600000D03*
X24300000Y-53600000D03*
X21300000Y-52600000D03*
X25300000Y-52600000D03*
X22300000Y-52600000D03*
X23300000Y-52600000D03*
X24300000Y-52600000D03*
X21300000Y-51600000D03*
X25300000Y-51600000D03*
X22300000Y-51600000D03*
X23300000Y-51600000D03*
X24300000Y-51600000D03*
X25300000Y-50700000D03*
X24300000Y-50700000D03*
X23300000Y-50700000D03*
X22300000Y-50700000D03*
X21300000Y-50700000D03*
X28037500Y-66037500D03*
X34861805Y-43006449D03*
X43122102Y-65429103D03*
X21000000Y-43000000D03*
X44500000Y-69500000D03*
X30000000Y-68000000D03*
X44700000Y-41100000D03*
X28000000Y-39500000D03*
X40500000Y-45500000D03*
X42000000Y-46500000D03*
M02*
