%TF.GenerationSoftware,KiCad,Pcbnew,8.0.1-8.0.1-1~ubuntu22.04.1*%
%TF.CreationDate,2024-04-18T01:12:43-04:00*%
%TF.ProjectId,esp32_rover_devkit,65737033-325f-4726-9f76-65725f646576,rev?*%
%TF.SameCoordinates,Original*%
%TF.FileFunction,Copper,L2,Inr*%
%TF.FilePolarity,Positive*%
%FSLAX46Y46*%
G04 Gerber Fmt 4.6, Leading zero omitted, Abs format (unit mm)*
G04 Created by KiCad (PCBNEW 8.0.1-8.0.1-1~ubuntu22.04.1) date 2024-04-18 01:12:43*
%MOMM*%
%LPD*%
G01*
G04 APERTURE LIST*
%TA.AperFunction,ComponentPad*%
%ADD10C,2.600000*%
%TD*%
%TA.AperFunction,ComponentPad*%
%ADD11O,1.600000X0.900000*%
%TD*%
%TA.AperFunction,ComponentPad*%
%ADD12R,1.268000X1.268000*%
%TD*%
%TA.AperFunction,ComponentPad*%
%ADD13C,1.268000*%
%TD*%
%TA.AperFunction,ViaPad*%
%ADD14C,0.600000*%
%TD*%
G04 APERTURE END LIST*
D10*
%TO.N,GND*%
%TO.C,H2*%
X46000000Y-23000000D03*
%TD*%
%TO.N,GND*%
%TO.C,H4*%
X46000000Y-79000000D03*
%TD*%
%TO.N,GND*%
%TO.C,H3*%
X21500000Y-79000000D03*
%TD*%
%TO.N,GND*%
%TO.C,H1*%
X21500000Y-23000000D03*
%TD*%
D11*
%TO.N,GND*%
%TO.C,J1*%
X21325000Y-68000000D03*
X21325000Y-74600000D03*
%TD*%
D12*
%TO.N,CANH*%
%TO.C,J3*%
X38229000Y-72770000D03*
D13*
%TO.N,CANL*%
X36959000Y-70230000D03*
%TO.N,unconnected-(J3-Pad3)*%
X35689000Y-72770000D03*
%TO.N,unconnected-(J3-Pad4)*%
X34419000Y-70230000D03*
%TO.N,unconnected-(J3-Pad5)*%
X33149000Y-72770000D03*
%TO.N,unconnected-(J3-Pad6)*%
X31879000Y-70230000D03*
%TO.N,+5V*%
X30609000Y-72770000D03*
%TO.N,GND*%
X29339000Y-70230000D03*
%TD*%
D12*
%TO.N,CANH*%
%TO.C,J2*%
X29339000Y-29230000D03*
D13*
%TO.N,CANL*%
X30609000Y-31770000D03*
%TO.N,unconnected-(J2-Pad3)*%
X31879000Y-29230000D03*
%TO.N,unconnected-(J2-Pad4)*%
X33149000Y-31770000D03*
%TO.N,unconnected-(J2-Pad5)*%
X34419000Y-29230000D03*
%TO.N,unconnected-(J2-Pad6)*%
X35689000Y-31770000D03*
%TO.N,+5V*%
X36959000Y-29230000D03*
%TO.N,GND*%
X38229000Y-31770000D03*
%TD*%
D14*
%TO.N,GND*%
X34000000Y-52600000D03*
X35000000Y-52600000D03*
X34000000Y-51400000D03*
X33100000Y-51400000D03*
X35000000Y-51400000D03*
X34000000Y-50200000D03*
X35000000Y-50200000D03*
X28800000Y-38700000D03*
%TO.N,TX1*%
X40300000Y-52300000D03*
%TO.N,RX1*%
X41200000Y-54000000D03*
%TO.N,+3.3V*%
X42200000Y-50240000D03*
X21300000Y-55500000D03*
X25300000Y-55500000D03*
X22300000Y-55500000D03*
X23300000Y-55500000D03*
X24300000Y-55500000D03*
X21300000Y-54600000D03*
X25300000Y-54600000D03*
X22300000Y-54600000D03*
X23300000Y-54600000D03*
X24300000Y-54600000D03*
X21300000Y-53600000D03*
X25300000Y-53600000D03*
X22300000Y-53600000D03*
X23300000Y-53600000D03*
X24300000Y-53600000D03*
X21300000Y-52600000D03*
X25300000Y-52600000D03*
X22300000Y-52600000D03*
X23300000Y-52600000D03*
X24300000Y-52600000D03*
X21300000Y-51600000D03*
X25300000Y-51600000D03*
X22300000Y-51600000D03*
X23300000Y-51600000D03*
X24300000Y-51600000D03*
X25300000Y-50700000D03*
X24300000Y-50700000D03*
X23300000Y-50700000D03*
X22300000Y-50700000D03*
X21300000Y-50700000D03*
%TO.N,EN_PB*%
X28037500Y-66037500D03*
%TO.N,GND*%
X34861805Y-43006449D03*
X43122102Y-65429103D03*
%TO.N,+3.3V*%
X21000000Y-43000000D03*
%TO.N,EN_PB*%
X44500000Y-69500000D03*
X30000000Y-68000000D03*
%TO.N,GPIO_0*%
X44700000Y-41100000D03*
%TO.N,LED_BUILDIN*%
X28000000Y-39500000D03*
%TO.N,TXC*%
X40500000Y-45500000D03*
%TO.N,RXC*%
X42000000Y-46500000D03*
%TD*%
%TA.AperFunction,Conductor*%
%TO.N,GND*%
G36*
X46003752Y-20500726D02*
G01*
X46293795Y-20518271D01*
X46308659Y-20520076D01*
X46590798Y-20571780D01*
X46605335Y-20575363D01*
X46879172Y-20660695D01*
X46893163Y-20666000D01*
X47154743Y-20783727D01*
X47167989Y-20790680D01*
X47413465Y-20939075D01*
X47425776Y-20947573D01*
X47560056Y-21052774D01*
X47651573Y-21124473D01*
X47662781Y-21134403D01*
X47865596Y-21337218D01*
X47875526Y-21348426D01*
X47995481Y-21501538D01*
X48052422Y-21574217D01*
X48060928Y-21586540D01*
X48209316Y-21832004D01*
X48216275Y-21845263D01*
X48333997Y-22106831D01*
X48339306Y-22120832D01*
X48424635Y-22394663D01*
X48428219Y-22409201D01*
X48479923Y-22691340D01*
X48481728Y-22706205D01*
X48499274Y-22996263D01*
X48499500Y-23003750D01*
X48499500Y-78996249D01*
X48499274Y-79003736D01*
X48481728Y-79293794D01*
X48479923Y-79308659D01*
X48428219Y-79590798D01*
X48424635Y-79605336D01*
X48339306Y-79879167D01*
X48333997Y-79893168D01*
X48216275Y-80154736D01*
X48209316Y-80167995D01*
X48060928Y-80413459D01*
X48052422Y-80425782D01*
X47875526Y-80651573D01*
X47865596Y-80662781D01*
X47662781Y-80865596D01*
X47651573Y-80875526D01*
X47425782Y-81052422D01*
X47413459Y-81060928D01*
X47167995Y-81209316D01*
X47154736Y-81216275D01*
X46893168Y-81333997D01*
X46879167Y-81339306D01*
X46605336Y-81424635D01*
X46590798Y-81428219D01*
X46308659Y-81479923D01*
X46293794Y-81481728D01*
X46003736Y-81499274D01*
X45996249Y-81499500D01*
X21503751Y-81499500D01*
X21496264Y-81499274D01*
X21206205Y-81481728D01*
X21191340Y-81479923D01*
X20909201Y-81428219D01*
X20894663Y-81424635D01*
X20620832Y-81339306D01*
X20606831Y-81333997D01*
X20345263Y-81216275D01*
X20332004Y-81209316D01*
X20086540Y-81060928D01*
X20074217Y-81052422D01*
X20065380Y-81045499D01*
X19848426Y-80875526D01*
X19837218Y-80865596D01*
X19634403Y-80662781D01*
X19624473Y-80651573D01*
X19561170Y-80570773D01*
X19447573Y-80425776D01*
X19439075Y-80413465D01*
X19290680Y-80167989D01*
X19283727Y-80154743D01*
X19166000Y-79893163D01*
X19160693Y-79879167D01*
X19075364Y-79605336D01*
X19071780Y-79590798D01*
X19020076Y-79308659D01*
X19018271Y-79293794D01*
X19015393Y-79246211D01*
X26142500Y-79246211D01*
X26175446Y-79496451D01*
X26240773Y-79740258D01*
X26337363Y-79973447D01*
X26337372Y-79973464D01*
X26463566Y-80192041D01*
X26463568Y-80192045D01*
X26617227Y-80392294D01*
X26617235Y-80392303D01*
X26795697Y-80570765D01*
X26795705Y-80570772D01*
X26995954Y-80724431D01*
X26995958Y-80724433D01*
X27214535Y-80850627D01*
X27214552Y-80850636D01*
X27274642Y-80875526D01*
X27447740Y-80947226D01*
X27691548Y-81012554D01*
X27941796Y-81045500D01*
X27941803Y-81045500D01*
X28194197Y-81045500D01*
X28194204Y-81045500D01*
X28444452Y-81012554D01*
X28688260Y-80947226D01*
X28921454Y-80850633D01*
X29140041Y-80724433D01*
X29140045Y-80724431D01*
X29220388Y-80662781D01*
X29340294Y-80570773D01*
X29340298Y-80570768D01*
X29340303Y-80570765D01*
X29518765Y-80392303D01*
X29518768Y-80392298D01*
X29518773Y-80392294D01*
X29672430Y-80192046D01*
X29798633Y-79973454D01*
X29895226Y-79740260D01*
X29960554Y-79496452D01*
X29993499Y-79246211D01*
X37574500Y-79246211D01*
X37607446Y-79496451D01*
X37672773Y-79740258D01*
X37769363Y-79973447D01*
X37769372Y-79973464D01*
X37895566Y-80192041D01*
X37895568Y-80192045D01*
X38049227Y-80392294D01*
X38049235Y-80392303D01*
X38227697Y-80570765D01*
X38227705Y-80570772D01*
X38427954Y-80724431D01*
X38427958Y-80724433D01*
X38646535Y-80850627D01*
X38646552Y-80850636D01*
X38706642Y-80875526D01*
X38879740Y-80947226D01*
X39123548Y-81012554D01*
X39373796Y-81045500D01*
X39373803Y-81045500D01*
X39626197Y-81045500D01*
X39626204Y-81045500D01*
X39876452Y-81012554D01*
X40120260Y-80947226D01*
X40353454Y-80850633D01*
X40572041Y-80724433D01*
X40572045Y-80724431D01*
X40652388Y-80662781D01*
X40772294Y-80570773D01*
X40772298Y-80570768D01*
X40772303Y-80570765D01*
X40950765Y-80392303D01*
X40950768Y-80392298D01*
X40950773Y-80392294D01*
X41104430Y-80192046D01*
X41230633Y-79973454D01*
X41327226Y-79740260D01*
X41392554Y-79496452D01*
X41425500Y-79246204D01*
X41425500Y-78993796D01*
X41392554Y-78743548D01*
X41327226Y-78499740D01*
X41284154Y-78395758D01*
X41230636Y-78266552D01*
X41230627Y-78266535D01*
X41104433Y-78047958D01*
X41104431Y-78047954D01*
X40950772Y-77847705D01*
X40950765Y-77847697D01*
X40772303Y-77669235D01*
X40772294Y-77669227D01*
X40572045Y-77515568D01*
X40572041Y-77515566D01*
X40353464Y-77389372D01*
X40353447Y-77389363D01*
X40120258Y-77292773D01*
X39965690Y-77251357D01*
X39876452Y-77227446D01*
X39845171Y-77223327D01*
X39626211Y-77194500D01*
X39626204Y-77194500D01*
X39373796Y-77194500D01*
X39373788Y-77194500D01*
X39123548Y-77227446D01*
X38879741Y-77292773D01*
X38646552Y-77389363D01*
X38646535Y-77389372D01*
X38427958Y-77515566D01*
X38427954Y-77515568D01*
X38227705Y-77669227D01*
X38049227Y-77847705D01*
X37895568Y-78047954D01*
X37895566Y-78047958D01*
X37769372Y-78266535D01*
X37769363Y-78266552D01*
X37672773Y-78499741D01*
X37607446Y-78743548D01*
X37574500Y-78993788D01*
X37574500Y-79246211D01*
X29993499Y-79246211D01*
X29993500Y-79246204D01*
X29993500Y-78993796D01*
X29960554Y-78743548D01*
X29895226Y-78499740D01*
X29852154Y-78395758D01*
X29798636Y-78266552D01*
X29798627Y-78266535D01*
X29672433Y-78047958D01*
X29672431Y-78047954D01*
X29518772Y-77847705D01*
X29518765Y-77847697D01*
X29340303Y-77669235D01*
X29340294Y-77669227D01*
X29140045Y-77515568D01*
X29140041Y-77515566D01*
X28921464Y-77389372D01*
X28921447Y-77389363D01*
X28688258Y-77292773D01*
X28533690Y-77251357D01*
X28444452Y-77227446D01*
X28413171Y-77223327D01*
X28194211Y-77194500D01*
X28194204Y-77194500D01*
X27941796Y-77194500D01*
X27941788Y-77194500D01*
X27691548Y-77227446D01*
X27447741Y-77292773D01*
X27214552Y-77389363D01*
X27214535Y-77389372D01*
X26995958Y-77515566D01*
X26995954Y-77515568D01*
X26795705Y-77669227D01*
X26617227Y-77847705D01*
X26463568Y-78047954D01*
X26463566Y-78047958D01*
X26337372Y-78266535D01*
X26337363Y-78266552D01*
X26240773Y-78499741D01*
X26175446Y-78743548D01*
X26142500Y-78993788D01*
X26142500Y-79246211D01*
X19015393Y-79246211D01*
X19000726Y-79003736D01*
X19000500Y-78996249D01*
X19000500Y-72770000D01*
X29469640Y-72770000D01*
X29489039Y-72979352D01*
X29546579Y-73181587D01*
X29640293Y-73369790D01*
X29640298Y-73369798D01*
X29767004Y-73537584D01*
X29922381Y-73679228D01*
X29922383Y-73679230D01*
X29997675Y-73725848D01*
X30101144Y-73789913D01*
X30297199Y-73865866D01*
X30503873Y-73904500D01*
X30503875Y-73904500D01*
X30714125Y-73904500D01*
X30714127Y-73904500D01*
X30920801Y-73865866D01*
X31116856Y-73789913D01*
X31295618Y-73679229D01*
X31450997Y-73537582D01*
X31577703Y-73369796D01*
X31671422Y-73181584D01*
X31728960Y-72979357D01*
X31748360Y-72770000D01*
X32009640Y-72770000D01*
X32029039Y-72979352D01*
X32086579Y-73181587D01*
X32180293Y-73369790D01*
X32180298Y-73369798D01*
X32307004Y-73537584D01*
X32462381Y-73679228D01*
X32462383Y-73679230D01*
X32537675Y-73725848D01*
X32641144Y-73789913D01*
X32837199Y-73865866D01*
X33043873Y-73904500D01*
X33043875Y-73904500D01*
X33254125Y-73904500D01*
X33254127Y-73904500D01*
X33460801Y-73865866D01*
X33656856Y-73789913D01*
X33835618Y-73679229D01*
X33990997Y-73537582D01*
X34117703Y-73369796D01*
X34211422Y-73181584D01*
X34268960Y-72979357D01*
X34288360Y-72770000D01*
X34549640Y-72770000D01*
X34569039Y-72979352D01*
X34626579Y-73181587D01*
X34720293Y-73369790D01*
X34720298Y-73369798D01*
X34847004Y-73537584D01*
X35002381Y-73679228D01*
X35002383Y-73679230D01*
X35077675Y-73725848D01*
X35181144Y-73789913D01*
X35377199Y-73865866D01*
X35583873Y-73904500D01*
X35583875Y-73904500D01*
X35794125Y-73904500D01*
X35794127Y-73904500D01*
X36000801Y-73865866D01*
X36196856Y-73789913D01*
X36375618Y-73679229D01*
X36530997Y-73537582D01*
X36595724Y-73451870D01*
X37094500Y-73451870D01*
X37094501Y-73451876D01*
X37100908Y-73511483D01*
X37151202Y-73646328D01*
X37151206Y-73646335D01*
X37237452Y-73761544D01*
X37237455Y-73761547D01*
X37352664Y-73847793D01*
X37352671Y-73847797D01*
X37487517Y-73898091D01*
X37487516Y-73898091D01*
X37494444Y-73898835D01*
X37547127Y-73904500D01*
X38910872Y-73904499D01*
X38970483Y-73898091D01*
X39105331Y-73847796D01*
X39220546Y-73761546D01*
X39306796Y-73646331D01*
X39357091Y-73511483D01*
X39363500Y-73451873D01*
X39363499Y-72088128D01*
X39357091Y-72028517D01*
X39306796Y-71893669D01*
X39306795Y-71893668D01*
X39306793Y-71893664D01*
X39220547Y-71778455D01*
X39220544Y-71778452D01*
X39105335Y-71692206D01*
X39105328Y-71692202D01*
X38970482Y-71641908D01*
X38970483Y-71641908D01*
X38910883Y-71635501D01*
X38910881Y-71635500D01*
X38910873Y-71635500D01*
X38910864Y-71635500D01*
X37547129Y-71635500D01*
X37547123Y-71635501D01*
X37487516Y-71641908D01*
X37352671Y-71692202D01*
X37352664Y-71692206D01*
X37237455Y-71778452D01*
X37237452Y-71778455D01*
X37151206Y-71893664D01*
X37151202Y-71893671D01*
X37100908Y-72028517D01*
X37094501Y-72088116D01*
X37094501Y-72088123D01*
X37094500Y-72088135D01*
X37094500Y-73451870D01*
X36595724Y-73451870D01*
X36657703Y-73369796D01*
X36751422Y-73181584D01*
X36808960Y-72979357D01*
X36828360Y-72770000D01*
X36808960Y-72560643D01*
X36751422Y-72358416D01*
X36749933Y-72355426D01*
X36657706Y-72170209D01*
X36657701Y-72170201D01*
X36530995Y-72002415D01*
X36375618Y-71860771D01*
X36375616Y-71860769D01*
X36196859Y-71750089D01*
X36196856Y-71750087D01*
X36000801Y-71674134D01*
X35794127Y-71635500D01*
X35583873Y-71635500D01*
X35377199Y-71674134D01*
X35377196Y-71674134D01*
X35377196Y-71674135D01*
X35181143Y-71750087D01*
X35181140Y-71750089D01*
X35002383Y-71860769D01*
X35002381Y-71860771D01*
X34847004Y-72002415D01*
X34720298Y-72170201D01*
X34720293Y-72170209D01*
X34626579Y-72358412D01*
X34569039Y-72560647D01*
X34549640Y-72769999D01*
X34549640Y-72770000D01*
X34288360Y-72770000D01*
X34268960Y-72560643D01*
X34211422Y-72358416D01*
X34209933Y-72355426D01*
X34117706Y-72170209D01*
X34117701Y-72170201D01*
X33990995Y-72002415D01*
X33835618Y-71860771D01*
X33835616Y-71860769D01*
X33656859Y-71750089D01*
X33656856Y-71750087D01*
X33460801Y-71674134D01*
X33254127Y-71635500D01*
X33043873Y-71635500D01*
X32837199Y-71674134D01*
X32837196Y-71674134D01*
X32837196Y-71674135D01*
X32641143Y-71750087D01*
X32641140Y-71750089D01*
X32462383Y-71860769D01*
X32462381Y-71860771D01*
X32307004Y-72002415D01*
X32180298Y-72170201D01*
X32180293Y-72170209D01*
X32086579Y-72358412D01*
X32029039Y-72560647D01*
X32009640Y-72769999D01*
X32009640Y-72770000D01*
X31748360Y-72770000D01*
X31728960Y-72560643D01*
X31671422Y-72358416D01*
X31669933Y-72355426D01*
X31577706Y-72170209D01*
X31577701Y-72170201D01*
X31450995Y-72002415D01*
X31295618Y-71860771D01*
X31295616Y-71860769D01*
X31116859Y-71750089D01*
X31116856Y-71750087D01*
X30920801Y-71674134D01*
X30714127Y-71635500D01*
X30503873Y-71635500D01*
X30297199Y-71674134D01*
X30297196Y-71674134D01*
X30297196Y-71674135D01*
X30101143Y-71750087D01*
X30101140Y-71750089D01*
X29922383Y-71860769D01*
X29922381Y-71860771D01*
X29767004Y-72002415D01*
X29640298Y-72170201D01*
X29640293Y-72170209D01*
X29546579Y-72358412D01*
X29489039Y-72560647D01*
X29469640Y-72769999D01*
X29469640Y-72770000D01*
X19000500Y-72770000D01*
X19000500Y-70230000D01*
X30739640Y-70230000D01*
X30759039Y-70439352D01*
X30816579Y-70641587D01*
X30910293Y-70829790D01*
X30910298Y-70829798D01*
X31037004Y-70997584D01*
X31192381Y-71139228D01*
X31192383Y-71139230D01*
X31267675Y-71185848D01*
X31371144Y-71249913D01*
X31567199Y-71325866D01*
X31773873Y-71364500D01*
X31773875Y-71364500D01*
X31984125Y-71364500D01*
X31984127Y-71364500D01*
X32190801Y-71325866D01*
X32386856Y-71249913D01*
X32565618Y-71139229D01*
X32720997Y-70997582D01*
X32847703Y-70829796D01*
X32941422Y-70641584D01*
X32998960Y-70439357D01*
X33018360Y-70230000D01*
X33279640Y-70230000D01*
X33299039Y-70439352D01*
X33356579Y-70641587D01*
X33450293Y-70829790D01*
X33450298Y-70829798D01*
X33577004Y-70997584D01*
X33732381Y-71139228D01*
X33732383Y-71139230D01*
X33807675Y-71185848D01*
X33911144Y-71249913D01*
X34107199Y-71325866D01*
X34313873Y-71364500D01*
X34313875Y-71364500D01*
X34524125Y-71364500D01*
X34524127Y-71364500D01*
X34730801Y-71325866D01*
X34926856Y-71249913D01*
X35105618Y-71139229D01*
X35260997Y-70997582D01*
X35387703Y-70829796D01*
X35481422Y-70641584D01*
X35538960Y-70439357D01*
X35558360Y-70230000D01*
X35819640Y-70230000D01*
X35839039Y-70439352D01*
X35896579Y-70641587D01*
X35990293Y-70829790D01*
X35990298Y-70829798D01*
X36117004Y-70997584D01*
X36272381Y-71139228D01*
X36272383Y-71139230D01*
X36347675Y-71185848D01*
X36451144Y-71249913D01*
X36647199Y-71325866D01*
X36853873Y-71364500D01*
X36853875Y-71364500D01*
X37064125Y-71364500D01*
X37064127Y-71364500D01*
X37270801Y-71325866D01*
X37466856Y-71249913D01*
X37645618Y-71139229D01*
X37800997Y-70997582D01*
X37927703Y-70829796D01*
X38021422Y-70641584D01*
X38078960Y-70439357D01*
X38098360Y-70230000D01*
X38078960Y-70020643D01*
X38021422Y-69818416D01*
X37952128Y-69679255D01*
X37927706Y-69630209D01*
X37927701Y-69630201D01*
X37829380Y-69500003D01*
X43694435Y-69500003D01*
X43714630Y-69679249D01*
X43714631Y-69679254D01*
X43774211Y-69849523D01*
X43870184Y-70002262D01*
X43997738Y-70129816D01*
X44150478Y-70225789D01*
X44320745Y-70285368D01*
X44320750Y-70285369D01*
X44499996Y-70305565D01*
X44500000Y-70305565D01*
X44500004Y-70305565D01*
X44679249Y-70285369D01*
X44679252Y-70285368D01*
X44679255Y-70285368D01*
X44849522Y-70225789D01*
X45002262Y-70129816D01*
X45129816Y-70002262D01*
X45225789Y-69849522D01*
X45285368Y-69679255D01*
X45305565Y-69500000D01*
X45301330Y-69462415D01*
X45285369Y-69320750D01*
X45285368Y-69320745D01*
X45225788Y-69150476D01*
X45129815Y-68997737D01*
X45002262Y-68870184D01*
X44849523Y-68774211D01*
X44679254Y-68714631D01*
X44679249Y-68714630D01*
X44500004Y-68694435D01*
X44499996Y-68694435D01*
X44320750Y-68714630D01*
X44320745Y-68714631D01*
X44150476Y-68774211D01*
X43997737Y-68870184D01*
X43870184Y-68997737D01*
X43774211Y-69150476D01*
X43714631Y-69320745D01*
X43714630Y-69320750D01*
X43694435Y-69499996D01*
X43694435Y-69500003D01*
X37829380Y-69500003D01*
X37800995Y-69462415D01*
X37645618Y-69320771D01*
X37645616Y-69320769D01*
X37466859Y-69210089D01*
X37466856Y-69210087D01*
X37312984Y-69150476D01*
X37270801Y-69134134D01*
X37064127Y-69095500D01*
X36853873Y-69095500D01*
X36647199Y-69134134D01*
X36647196Y-69134134D01*
X36647196Y-69134135D01*
X36451143Y-69210087D01*
X36451140Y-69210089D01*
X36272383Y-69320769D01*
X36272381Y-69320771D01*
X36117004Y-69462415D01*
X35990298Y-69630201D01*
X35990293Y-69630209D01*
X35896579Y-69818412D01*
X35839039Y-70020647D01*
X35819640Y-70229999D01*
X35819640Y-70230000D01*
X35558360Y-70230000D01*
X35538960Y-70020643D01*
X35481422Y-69818416D01*
X35412128Y-69679255D01*
X35387706Y-69630209D01*
X35387701Y-69630201D01*
X35260995Y-69462415D01*
X35105618Y-69320771D01*
X35105616Y-69320769D01*
X34926859Y-69210089D01*
X34926856Y-69210087D01*
X34772984Y-69150476D01*
X34730801Y-69134134D01*
X34524127Y-69095500D01*
X34313873Y-69095500D01*
X34107199Y-69134134D01*
X34107196Y-69134134D01*
X34107196Y-69134135D01*
X33911143Y-69210087D01*
X33911140Y-69210089D01*
X33732383Y-69320769D01*
X33732381Y-69320771D01*
X33577004Y-69462415D01*
X33450298Y-69630201D01*
X33450293Y-69630209D01*
X33356579Y-69818412D01*
X33299039Y-70020647D01*
X33279640Y-70229999D01*
X33279640Y-70230000D01*
X33018360Y-70230000D01*
X32998960Y-70020643D01*
X32941422Y-69818416D01*
X32872128Y-69679255D01*
X32847706Y-69630209D01*
X32847701Y-69630201D01*
X32720995Y-69462415D01*
X32565618Y-69320771D01*
X32565616Y-69320769D01*
X32386859Y-69210089D01*
X32386856Y-69210087D01*
X32232984Y-69150476D01*
X32190801Y-69134134D01*
X31984127Y-69095500D01*
X31773873Y-69095500D01*
X31567199Y-69134134D01*
X31567196Y-69134134D01*
X31567196Y-69134135D01*
X31371143Y-69210087D01*
X31371140Y-69210089D01*
X31192383Y-69320769D01*
X31192381Y-69320771D01*
X31037004Y-69462415D01*
X30910298Y-69630201D01*
X30910293Y-69630209D01*
X30816579Y-69818412D01*
X30759039Y-70020647D01*
X30739640Y-70229999D01*
X30739640Y-70230000D01*
X19000500Y-70230000D01*
X19000500Y-68000003D01*
X29194435Y-68000003D01*
X29214630Y-68179249D01*
X29214631Y-68179254D01*
X29274211Y-68349523D01*
X29370184Y-68502262D01*
X29497738Y-68629816D01*
X29588080Y-68686582D01*
X29632721Y-68714632D01*
X29650478Y-68725789D01*
X29788860Y-68774211D01*
X29820745Y-68785368D01*
X29820750Y-68785369D01*
X29999996Y-68805565D01*
X30000000Y-68805565D01*
X30000004Y-68805565D01*
X30179249Y-68785369D01*
X30179252Y-68785368D01*
X30179255Y-68785368D01*
X30349522Y-68725789D01*
X30502262Y-68629816D01*
X30629816Y-68502262D01*
X30725789Y-68349522D01*
X30785368Y-68179255D01*
X30805565Y-68000000D01*
X30785368Y-67820745D01*
X30725789Y-67650478D01*
X30629816Y-67497738D01*
X30502262Y-67370184D01*
X30349523Y-67274211D01*
X30179254Y-67214631D01*
X30179249Y-67214630D01*
X30000004Y-67194435D01*
X29999996Y-67194435D01*
X29820750Y-67214630D01*
X29820745Y-67214631D01*
X29650476Y-67274211D01*
X29497737Y-67370184D01*
X29370184Y-67497737D01*
X29274211Y-67650476D01*
X29214631Y-67820745D01*
X29214630Y-67820750D01*
X29194435Y-67999996D01*
X29194435Y-68000003D01*
X19000500Y-68000003D01*
X19000500Y-66037503D01*
X27231935Y-66037503D01*
X27252130Y-66216749D01*
X27252131Y-66216754D01*
X27311711Y-66387023D01*
X27407684Y-66539762D01*
X27535238Y-66667316D01*
X27687978Y-66763289D01*
X27858245Y-66822868D01*
X27858250Y-66822869D01*
X28037496Y-66843065D01*
X28037500Y-66843065D01*
X28037504Y-66843065D01*
X28216749Y-66822869D01*
X28216752Y-66822868D01*
X28216755Y-66822868D01*
X28387022Y-66763289D01*
X28539762Y-66667316D01*
X28667316Y-66539762D01*
X28763289Y-66387022D01*
X28822868Y-66216755D01*
X28843065Y-66037500D01*
X28822868Y-65858245D01*
X28763289Y-65687978D01*
X28667316Y-65535238D01*
X28539762Y-65407684D01*
X28387023Y-65311711D01*
X28216754Y-65252131D01*
X28216749Y-65252130D01*
X28037504Y-65231935D01*
X28037496Y-65231935D01*
X27858250Y-65252130D01*
X27858245Y-65252131D01*
X27687976Y-65311711D01*
X27535237Y-65407684D01*
X27407684Y-65535237D01*
X27311711Y-65687976D01*
X27252131Y-65858245D01*
X27252130Y-65858250D01*
X27231935Y-66037496D01*
X27231935Y-66037503D01*
X19000500Y-66037503D01*
X19000500Y-55500003D01*
X20494435Y-55500003D01*
X20514630Y-55679249D01*
X20514631Y-55679254D01*
X20574211Y-55849523D01*
X20670184Y-56002262D01*
X20797738Y-56129816D01*
X20950478Y-56225789D01*
X21120745Y-56285368D01*
X21120750Y-56285369D01*
X21299996Y-56305565D01*
X21300000Y-56305565D01*
X21300004Y-56305565D01*
X21479249Y-56285369D01*
X21479252Y-56285368D01*
X21479255Y-56285368D01*
X21649522Y-56225789D01*
X21734027Y-56172691D01*
X21801264Y-56153690D01*
X21865973Y-56172691D01*
X21950475Y-56225788D01*
X22120745Y-56285368D01*
X22120750Y-56285369D01*
X22299996Y-56305565D01*
X22300000Y-56305565D01*
X22300004Y-56305565D01*
X22479249Y-56285369D01*
X22479252Y-56285368D01*
X22479255Y-56285368D01*
X22649522Y-56225789D01*
X22734027Y-56172691D01*
X22801264Y-56153690D01*
X22865973Y-56172691D01*
X22950475Y-56225788D01*
X23120745Y-56285368D01*
X23120750Y-56285369D01*
X23299996Y-56305565D01*
X23300000Y-56305565D01*
X23300004Y-56305565D01*
X23479249Y-56285369D01*
X23479252Y-56285368D01*
X23479255Y-56285368D01*
X23649522Y-56225789D01*
X23734027Y-56172691D01*
X23801264Y-56153690D01*
X23865973Y-56172691D01*
X23950475Y-56225788D01*
X24120745Y-56285368D01*
X24120750Y-56285369D01*
X24299996Y-56305565D01*
X24300000Y-56305565D01*
X24300004Y-56305565D01*
X24479249Y-56285369D01*
X24479252Y-56285368D01*
X24479255Y-56285368D01*
X24649522Y-56225789D01*
X24734027Y-56172691D01*
X24801264Y-56153690D01*
X24865973Y-56172691D01*
X24950475Y-56225788D01*
X25120745Y-56285368D01*
X25120750Y-56285369D01*
X25299996Y-56305565D01*
X25300000Y-56305565D01*
X25300004Y-56305565D01*
X25479249Y-56285369D01*
X25479252Y-56285368D01*
X25479255Y-56285368D01*
X25649522Y-56225789D01*
X25802262Y-56129816D01*
X25929816Y-56002262D01*
X26025789Y-55849522D01*
X26085368Y-55679255D01*
X26105565Y-55500000D01*
X26085368Y-55320745D01*
X26025789Y-55150478D01*
X26025788Y-55150475D01*
X26004108Y-55115973D01*
X25985107Y-55048737D01*
X26004108Y-54984027D01*
X26025788Y-54949524D01*
X26025790Y-54949519D01*
X26085368Y-54779255D01*
X26091392Y-54725789D01*
X26105565Y-54600003D01*
X26105565Y-54599996D01*
X26085369Y-54420750D01*
X26085368Y-54420745D01*
X26025788Y-54250475D01*
X25972691Y-54165973D01*
X25953690Y-54098736D01*
X25972691Y-54034027D01*
X25994070Y-54000003D01*
X40394435Y-54000003D01*
X40414630Y-54179249D01*
X40414631Y-54179254D01*
X40474211Y-54349523D01*
X40570184Y-54502262D01*
X40697738Y-54629816D01*
X40850478Y-54725789D01*
X41003258Y-54779249D01*
X41020745Y-54785368D01*
X41020750Y-54785369D01*
X41199996Y-54805565D01*
X41200000Y-54805565D01*
X41200004Y-54805565D01*
X41379249Y-54785369D01*
X41379252Y-54785368D01*
X41379255Y-54785368D01*
X41549522Y-54725789D01*
X41702262Y-54629816D01*
X41829816Y-54502262D01*
X41925789Y-54349522D01*
X41985368Y-54179255D01*
X41994298Y-54100000D01*
X42005565Y-54000003D01*
X42005565Y-53999996D01*
X41985369Y-53820750D01*
X41985368Y-53820745D01*
X41925788Y-53650476D01*
X41829815Y-53497737D01*
X41702262Y-53370184D01*
X41549523Y-53274211D01*
X41379254Y-53214631D01*
X41379249Y-53214630D01*
X41200004Y-53194435D01*
X41199996Y-53194435D01*
X41020750Y-53214630D01*
X41020745Y-53214631D01*
X40850476Y-53274211D01*
X40697737Y-53370184D01*
X40570184Y-53497737D01*
X40474211Y-53650476D01*
X40414631Y-53820745D01*
X40414630Y-53820750D01*
X40394435Y-53999996D01*
X40394435Y-54000003D01*
X25994070Y-54000003D01*
X26025788Y-53949524D01*
X26025789Y-53949522D01*
X26085368Y-53779255D01*
X26105565Y-53600000D01*
X26085368Y-53420745D01*
X26025789Y-53250478D01*
X26025788Y-53250475D01*
X25972691Y-53165973D01*
X25953690Y-53098736D01*
X25972691Y-53034027D01*
X26025788Y-52949524D01*
X26025789Y-52949522D01*
X26085368Y-52779255D01*
X26099985Y-52649523D01*
X26105565Y-52600003D01*
X26105565Y-52599996D01*
X26085369Y-52420750D01*
X26085368Y-52420745D01*
X26043119Y-52300003D01*
X39494435Y-52300003D01*
X39514630Y-52479249D01*
X39514631Y-52479254D01*
X39574211Y-52649523D01*
X39655724Y-52779249D01*
X39670184Y-52802262D01*
X39797738Y-52929816D01*
X39950478Y-53025789D01*
X39974027Y-53034029D01*
X40120745Y-53085368D01*
X40120750Y-53085369D01*
X40299996Y-53105565D01*
X40300000Y-53105565D01*
X40300004Y-53105565D01*
X40479249Y-53085369D01*
X40479252Y-53085368D01*
X40479255Y-53085368D01*
X40649522Y-53025789D01*
X40802262Y-52929816D01*
X40929816Y-52802262D01*
X41025789Y-52649522D01*
X41085368Y-52479255D01*
X41091960Y-52420750D01*
X41105565Y-52300003D01*
X41105565Y-52299996D01*
X41085369Y-52120750D01*
X41085368Y-52120745D01*
X41025788Y-51950476D01*
X40929815Y-51797737D01*
X40802262Y-51670184D01*
X40649523Y-51574211D01*
X40479254Y-51514631D01*
X40479249Y-51514630D01*
X40300004Y-51494435D01*
X40299996Y-51494435D01*
X40120750Y-51514630D01*
X40120745Y-51514631D01*
X39950476Y-51574211D01*
X39797737Y-51670184D01*
X39670184Y-51797737D01*
X39574211Y-51950476D01*
X39514631Y-52120745D01*
X39514630Y-52120750D01*
X39494435Y-52299996D01*
X39494435Y-52300003D01*
X26043119Y-52300003D01*
X26025788Y-52250475D01*
X25972691Y-52165973D01*
X25953690Y-52098736D01*
X25972691Y-52034027D01*
X26025788Y-51949524D01*
X26025789Y-51949522D01*
X26085368Y-51779255D01*
X26085369Y-51779249D01*
X26105565Y-51600003D01*
X26105565Y-51599996D01*
X26085369Y-51420750D01*
X26085368Y-51420745D01*
X26025788Y-51250475D01*
X26004108Y-51215973D01*
X25985107Y-51148737D01*
X26004108Y-51084027D01*
X26025788Y-51049524D01*
X26025790Y-51049519D01*
X26085368Y-50879255D01*
X26086432Y-50869815D01*
X26105565Y-50700003D01*
X26105565Y-50699996D01*
X26085369Y-50520750D01*
X26085368Y-50520745D01*
X26025788Y-50350476D01*
X25956373Y-50240003D01*
X41394435Y-50240003D01*
X41414630Y-50419249D01*
X41414631Y-50419254D01*
X41474211Y-50589523D01*
X41543626Y-50699996D01*
X41570184Y-50742262D01*
X41697738Y-50869816D01*
X41850478Y-50965789D01*
X42020745Y-51025368D01*
X42020750Y-51025369D01*
X42199996Y-51045565D01*
X42200000Y-51045565D01*
X42200004Y-51045565D01*
X42379249Y-51025369D01*
X42379252Y-51025368D01*
X42379255Y-51025368D01*
X42549522Y-50965789D01*
X42702262Y-50869816D01*
X42829816Y-50742262D01*
X42925789Y-50589522D01*
X42985368Y-50419255D01*
X42985369Y-50419249D01*
X43005565Y-50240003D01*
X43005565Y-50239996D01*
X42985369Y-50060750D01*
X42985368Y-50060745D01*
X42934241Y-49914632D01*
X42925789Y-49890478D01*
X42829816Y-49737738D01*
X42702262Y-49610184D01*
X42549523Y-49514211D01*
X42379254Y-49454631D01*
X42379249Y-49454630D01*
X42200004Y-49434435D01*
X42199996Y-49434435D01*
X42020750Y-49454630D01*
X42020745Y-49454631D01*
X41850476Y-49514211D01*
X41697737Y-49610184D01*
X41570184Y-49737737D01*
X41474211Y-49890476D01*
X41414631Y-50060745D01*
X41414630Y-50060750D01*
X41394435Y-50239996D01*
X41394435Y-50240003D01*
X25956373Y-50240003D01*
X25929815Y-50197737D01*
X25802262Y-50070184D01*
X25649523Y-49974211D01*
X25479254Y-49914631D01*
X25479249Y-49914630D01*
X25300004Y-49894435D01*
X25299996Y-49894435D01*
X25120750Y-49914630D01*
X25120737Y-49914633D01*
X24950479Y-49974209D01*
X24865971Y-50027309D01*
X24798734Y-50046309D01*
X24734029Y-50027309D01*
X24649520Y-49974209D01*
X24479262Y-49914633D01*
X24479249Y-49914630D01*
X24300004Y-49894435D01*
X24299996Y-49894435D01*
X24120750Y-49914630D01*
X24120737Y-49914633D01*
X23950479Y-49974209D01*
X23865971Y-50027309D01*
X23798734Y-50046309D01*
X23734029Y-50027309D01*
X23649520Y-49974209D01*
X23479262Y-49914633D01*
X23479249Y-49914630D01*
X23300004Y-49894435D01*
X23299996Y-49894435D01*
X23120750Y-49914630D01*
X23120737Y-49914633D01*
X22950479Y-49974209D01*
X22865971Y-50027309D01*
X22798734Y-50046309D01*
X22734029Y-50027309D01*
X22649520Y-49974209D01*
X22479262Y-49914633D01*
X22479249Y-49914630D01*
X22300004Y-49894435D01*
X22299996Y-49894435D01*
X22120750Y-49914630D01*
X22120737Y-49914633D01*
X21950479Y-49974209D01*
X21865971Y-50027309D01*
X21798734Y-50046309D01*
X21734029Y-50027309D01*
X21649520Y-49974209D01*
X21479262Y-49914633D01*
X21479249Y-49914630D01*
X21300004Y-49894435D01*
X21299996Y-49894435D01*
X21120750Y-49914630D01*
X21120745Y-49914631D01*
X20950476Y-49974211D01*
X20797737Y-50070184D01*
X20670184Y-50197737D01*
X20574211Y-50350476D01*
X20514631Y-50520745D01*
X20514630Y-50520750D01*
X20494435Y-50699996D01*
X20494435Y-50700003D01*
X20514630Y-50879249D01*
X20514633Y-50879262D01*
X20574209Y-51049519D01*
X20595893Y-51084030D01*
X20614892Y-51151267D01*
X20595893Y-51215970D01*
X20574209Y-51250480D01*
X20514633Y-51420737D01*
X20514630Y-51420750D01*
X20494435Y-51599996D01*
X20494435Y-51600003D01*
X20514630Y-51779249D01*
X20514633Y-51779262D01*
X20574209Y-51949520D01*
X20627309Y-52034029D01*
X20646309Y-52101266D01*
X20627309Y-52165971D01*
X20574209Y-52250479D01*
X20514633Y-52420737D01*
X20514630Y-52420750D01*
X20494435Y-52599996D01*
X20494435Y-52600003D01*
X20514630Y-52779249D01*
X20514633Y-52779262D01*
X20574209Y-52949520D01*
X20627309Y-53034029D01*
X20646309Y-53101266D01*
X20627309Y-53165971D01*
X20574209Y-53250479D01*
X20514633Y-53420737D01*
X20514630Y-53420750D01*
X20494435Y-53599996D01*
X20494435Y-53600003D01*
X20514630Y-53779249D01*
X20514633Y-53779262D01*
X20574209Y-53949520D01*
X20627309Y-54034029D01*
X20646309Y-54101266D01*
X20627309Y-54165971D01*
X20574209Y-54250479D01*
X20514633Y-54420737D01*
X20514630Y-54420750D01*
X20494435Y-54599996D01*
X20494435Y-54600003D01*
X20514630Y-54779249D01*
X20514633Y-54779262D01*
X20574209Y-54949519D01*
X20595893Y-54984030D01*
X20614892Y-55051267D01*
X20595893Y-55115970D01*
X20574209Y-55150480D01*
X20514633Y-55320737D01*
X20514630Y-55320750D01*
X20494435Y-55499996D01*
X20494435Y-55500003D01*
X19000500Y-55500003D01*
X19000500Y-45500003D01*
X39694435Y-45500003D01*
X39714630Y-45679249D01*
X39714631Y-45679254D01*
X39774211Y-45849523D01*
X39807250Y-45902104D01*
X39870184Y-46002262D01*
X39997738Y-46129816D01*
X40150478Y-46225789D01*
X40320745Y-46285368D01*
X40320750Y-46285369D01*
X40499996Y-46305565D01*
X40500000Y-46305565D01*
X40500004Y-46305565D01*
X40679249Y-46285369D01*
X40679252Y-46285368D01*
X40679255Y-46285368D01*
X40849522Y-46225789D01*
X41002262Y-46129816D01*
X41047555Y-46084522D01*
X41108876Y-46051038D01*
X41178567Y-46056022D01*
X41234501Y-46097893D01*
X41258919Y-46163357D01*
X41252277Y-46213158D01*
X41214632Y-46320742D01*
X41214630Y-46320750D01*
X41194435Y-46499996D01*
X41194435Y-46500003D01*
X41214630Y-46679249D01*
X41214631Y-46679254D01*
X41274211Y-46849523D01*
X41370184Y-47002262D01*
X41497738Y-47129816D01*
X41650478Y-47225789D01*
X41820745Y-47285368D01*
X41820750Y-47285369D01*
X41999996Y-47305565D01*
X42000000Y-47305565D01*
X42000004Y-47305565D01*
X42179249Y-47285369D01*
X42179252Y-47285368D01*
X42179255Y-47285368D01*
X42349522Y-47225789D01*
X42502262Y-47129816D01*
X42629816Y-47002262D01*
X42725789Y-46849522D01*
X42785368Y-46679255D01*
X42805565Y-46500000D01*
X42785368Y-46320745D01*
X42725789Y-46150478D01*
X42629816Y-45997738D01*
X42502262Y-45870184D01*
X42448877Y-45836640D01*
X42349523Y-45774211D01*
X42179254Y-45714631D01*
X42179249Y-45714630D01*
X42000004Y-45694435D01*
X41999996Y-45694435D01*
X41820750Y-45714630D01*
X41820745Y-45714631D01*
X41650476Y-45774211D01*
X41497737Y-45870184D01*
X41452444Y-45915477D01*
X41391121Y-45948961D01*
X41321429Y-45943976D01*
X41265496Y-45902104D01*
X41241080Y-45836640D01*
X41247723Y-45786840D01*
X41285366Y-45679262D01*
X41285369Y-45679249D01*
X41305565Y-45500003D01*
X41305565Y-45499996D01*
X41285369Y-45320750D01*
X41285368Y-45320745D01*
X41225788Y-45150476D01*
X41129815Y-44997737D01*
X41002262Y-44870184D01*
X40849523Y-44774211D01*
X40679254Y-44714631D01*
X40679249Y-44714630D01*
X40500004Y-44694435D01*
X40499996Y-44694435D01*
X40320750Y-44714630D01*
X40320745Y-44714631D01*
X40150476Y-44774211D01*
X39997737Y-44870184D01*
X39870184Y-44997737D01*
X39774211Y-45150476D01*
X39714631Y-45320745D01*
X39714630Y-45320750D01*
X39694435Y-45499996D01*
X39694435Y-45500003D01*
X19000500Y-45500003D01*
X19000500Y-43000003D01*
X20194435Y-43000003D01*
X20214630Y-43179249D01*
X20214631Y-43179254D01*
X20274211Y-43349523D01*
X20370184Y-43502262D01*
X20497738Y-43629816D01*
X20650478Y-43725789D01*
X20820745Y-43785368D01*
X20820750Y-43785369D01*
X20999996Y-43805565D01*
X21000000Y-43805565D01*
X21000004Y-43805565D01*
X21179249Y-43785369D01*
X21179252Y-43785368D01*
X21179255Y-43785368D01*
X21349522Y-43725789D01*
X21502262Y-43629816D01*
X21629816Y-43502262D01*
X21725789Y-43349522D01*
X21785368Y-43179255D01*
X21805565Y-43000000D01*
X21785368Y-42820745D01*
X21725789Y-42650478D01*
X21629816Y-42497738D01*
X21502262Y-42370184D01*
X21349523Y-42274211D01*
X21179254Y-42214631D01*
X21179249Y-42214630D01*
X21000004Y-42194435D01*
X20999996Y-42194435D01*
X20820750Y-42214630D01*
X20820745Y-42214631D01*
X20650476Y-42274211D01*
X20497737Y-42370184D01*
X20370184Y-42497737D01*
X20274211Y-42650476D01*
X20214631Y-42820745D01*
X20214630Y-42820750D01*
X20194435Y-42999996D01*
X20194435Y-43000003D01*
X19000500Y-43000003D01*
X19000500Y-41100003D01*
X43894435Y-41100003D01*
X43914630Y-41279249D01*
X43914631Y-41279254D01*
X43974211Y-41449523D01*
X44070184Y-41602262D01*
X44197738Y-41729816D01*
X44350478Y-41825789D01*
X44520745Y-41885368D01*
X44520750Y-41885369D01*
X44699996Y-41905565D01*
X44700000Y-41905565D01*
X44700004Y-41905565D01*
X44879249Y-41885369D01*
X44879252Y-41885368D01*
X44879255Y-41885368D01*
X45049522Y-41825789D01*
X45202262Y-41729816D01*
X45329816Y-41602262D01*
X45425789Y-41449522D01*
X45485368Y-41279255D01*
X45505565Y-41100000D01*
X45485368Y-40920745D01*
X45425789Y-40750478D01*
X45329816Y-40597738D01*
X45202262Y-40470184D01*
X45049523Y-40374211D01*
X44879254Y-40314631D01*
X44879249Y-40314630D01*
X44700004Y-40294435D01*
X44699996Y-40294435D01*
X44520750Y-40314630D01*
X44520745Y-40314631D01*
X44350476Y-40374211D01*
X44197737Y-40470184D01*
X44070184Y-40597737D01*
X43974211Y-40750476D01*
X43914631Y-40920745D01*
X43914630Y-40920750D01*
X43894435Y-41099996D01*
X43894435Y-41100003D01*
X19000500Y-41100003D01*
X19000500Y-39500003D01*
X27194435Y-39500003D01*
X27214630Y-39679249D01*
X27214631Y-39679254D01*
X27274211Y-39849523D01*
X27370184Y-40002262D01*
X27497738Y-40129816D01*
X27650478Y-40225789D01*
X27820745Y-40285368D01*
X27820750Y-40285369D01*
X27999996Y-40305565D01*
X28000000Y-40305565D01*
X28000004Y-40305565D01*
X28179249Y-40285369D01*
X28179252Y-40285368D01*
X28179255Y-40285368D01*
X28349522Y-40225789D01*
X28502262Y-40129816D01*
X28629816Y-40002262D01*
X28725789Y-39849522D01*
X28785368Y-39679255D01*
X28805565Y-39500000D01*
X28785368Y-39320745D01*
X28725789Y-39150478D01*
X28629816Y-38997738D01*
X28502262Y-38870184D01*
X28349523Y-38774211D01*
X28179254Y-38714631D01*
X28179249Y-38714630D01*
X28000004Y-38694435D01*
X27999996Y-38694435D01*
X27820750Y-38714630D01*
X27820745Y-38714631D01*
X27650476Y-38774211D01*
X27497737Y-38870184D01*
X27370184Y-38997737D01*
X27274211Y-39150476D01*
X27214631Y-39320745D01*
X27214630Y-39320750D01*
X27194435Y-39499996D01*
X27194435Y-39500003D01*
X19000500Y-39500003D01*
X19000500Y-31770000D01*
X29469640Y-31770000D01*
X29489039Y-31979352D01*
X29546579Y-32181587D01*
X29640293Y-32369790D01*
X29640298Y-32369798D01*
X29767004Y-32537584D01*
X29922381Y-32679228D01*
X29922383Y-32679230D01*
X29997675Y-32725848D01*
X30101144Y-32789913D01*
X30297199Y-32865866D01*
X30503873Y-32904500D01*
X30503875Y-32904500D01*
X30714125Y-32904500D01*
X30714127Y-32904500D01*
X30920801Y-32865866D01*
X31116856Y-32789913D01*
X31295618Y-32679229D01*
X31450997Y-32537582D01*
X31577703Y-32369796D01*
X31671422Y-32181584D01*
X31728960Y-31979357D01*
X31748360Y-31770000D01*
X32009640Y-31770000D01*
X32029039Y-31979352D01*
X32086579Y-32181587D01*
X32180293Y-32369790D01*
X32180298Y-32369798D01*
X32307004Y-32537584D01*
X32462381Y-32679228D01*
X32462383Y-32679230D01*
X32537675Y-32725848D01*
X32641144Y-32789913D01*
X32837199Y-32865866D01*
X33043873Y-32904500D01*
X33043875Y-32904500D01*
X33254125Y-32904500D01*
X33254127Y-32904500D01*
X33460801Y-32865866D01*
X33656856Y-32789913D01*
X33835618Y-32679229D01*
X33990997Y-32537582D01*
X34117703Y-32369796D01*
X34211422Y-32181584D01*
X34268960Y-31979357D01*
X34288360Y-31770000D01*
X34549640Y-31770000D01*
X34569039Y-31979352D01*
X34626579Y-32181587D01*
X34720293Y-32369790D01*
X34720298Y-32369798D01*
X34847004Y-32537584D01*
X35002381Y-32679228D01*
X35002383Y-32679230D01*
X35077675Y-32725848D01*
X35181144Y-32789913D01*
X35377199Y-32865866D01*
X35583873Y-32904500D01*
X35583875Y-32904500D01*
X35794125Y-32904500D01*
X35794127Y-32904500D01*
X36000801Y-32865866D01*
X36196856Y-32789913D01*
X36375618Y-32679229D01*
X36530997Y-32537582D01*
X36657703Y-32369796D01*
X36751422Y-32181584D01*
X36808960Y-31979357D01*
X36828360Y-31770000D01*
X36808960Y-31560643D01*
X36751422Y-31358416D01*
X36749933Y-31355426D01*
X36657706Y-31170209D01*
X36657701Y-31170201D01*
X36530995Y-31002415D01*
X36375618Y-30860771D01*
X36375616Y-30860769D01*
X36196859Y-30750089D01*
X36196856Y-30750087D01*
X36000801Y-30674134D01*
X35794127Y-30635500D01*
X35583873Y-30635500D01*
X35377199Y-30674134D01*
X35377196Y-30674134D01*
X35377196Y-30674135D01*
X35181143Y-30750087D01*
X35181140Y-30750089D01*
X35002383Y-30860769D01*
X35002381Y-30860771D01*
X34847004Y-31002415D01*
X34720298Y-31170201D01*
X34720293Y-31170209D01*
X34626579Y-31358412D01*
X34569039Y-31560647D01*
X34549640Y-31769999D01*
X34549640Y-31770000D01*
X34288360Y-31770000D01*
X34268960Y-31560643D01*
X34211422Y-31358416D01*
X34209933Y-31355426D01*
X34117706Y-31170209D01*
X34117701Y-31170201D01*
X33990995Y-31002415D01*
X33835618Y-30860771D01*
X33835616Y-30860769D01*
X33656859Y-30750089D01*
X33656856Y-30750087D01*
X33460801Y-30674134D01*
X33254127Y-30635500D01*
X33043873Y-30635500D01*
X32837199Y-30674134D01*
X32837196Y-30674134D01*
X32837196Y-30674135D01*
X32641143Y-30750087D01*
X32641140Y-30750089D01*
X32462383Y-30860769D01*
X32462381Y-30860771D01*
X32307004Y-31002415D01*
X32180298Y-31170201D01*
X32180293Y-31170209D01*
X32086579Y-31358412D01*
X32029039Y-31560647D01*
X32009640Y-31769999D01*
X32009640Y-31770000D01*
X31748360Y-31770000D01*
X31728960Y-31560643D01*
X31671422Y-31358416D01*
X31669933Y-31355426D01*
X31577706Y-31170209D01*
X31577701Y-31170201D01*
X31450995Y-31002415D01*
X31295618Y-30860771D01*
X31295616Y-30860769D01*
X31116859Y-30750089D01*
X31116856Y-30750087D01*
X30920801Y-30674134D01*
X30714127Y-30635500D01*
X30503873Y-30635500D01*
X30297199Y-30674134D01*
X30297196Y-30674134D01*
X30297196Y-30674135D01*
X30101143Y-30750087D01*
X30101140Y-30750089D01*
X29922383Y-30860769D01*
X29922381Y-30860771D01*
X29767004Y-31002415D01*
X29640298Y-31170201D01*
X29640293Y-31170209D01*
X29546579Y-31358412D01*
X29489039Y-31560647D01*
X29469640Y-31769999D01*
X29469640Y-31770000D01*
X19000500Y-31770000D01*
X19000500Y-29911870D01*
X28204500Y-29911870D01*
X28204501Y-29911876D01*
X28210908Y-29971483D01*
X28261202Y-30106328D01*
X28261206Y-30106335D01*
X28347452Y-30221544D01*
X28347455Y-30221547D01*
X28462664Y-30307793D01*
X28462671Y-30307797D01*
X28597517Y-30358091D01*
X28597516Y-30358091D01*
X28604444Y-30358835D01*
X28657127Y-30364500D01*
X30020872Y-30364499D01*
X30080483Y-30358091D01*
X30215331Y-30307796D01*
X30330546Y-30221546D01*
X30416796Y-30106331D01*
X30467091Y-29971483D01*
X30473500Y-29911873D01*
X30473499Y-29230000D01*
X30739640Y-29230000D01*
X30759039Y-29439352D01*
X30816579Y-29641587D01*
X30910293Y-29829790D01*
X30910298Y-29829798D01*
X31037004Y-29997584D01*
X31192381Y-30139228D01*
X31192383Y-30139230D01*
X31267675Y-30185848D01*
X31371144Y-30249913D01*
X31567199Y-30325866D01*
X31773873Y-30364500D01*
X31773875Y-30364500D01*
X31984125Y-30364500D01*
X31984127Y-30364500D01*
X32190801Y-30325866D01*
X32386856Y-30249913D01*
X32565618Y-30139229D01*
X32720997Y-29997582D01*
X32847703Y-29829796D01*
X32941422Y-29641584D01*
X32998960Y-29439357D01*
X33018360Y-29230000D01*
X33279640Y-29230000D01*
X33299039Y-29439352D01*
X33356579Y-29641587D01*
X33450293Y-29829790D01*
X33450298Y-29829798D01*
X33577004Y-29997584D01*
X33732381Y-30139228D01*
X33732383Y-30139230D01*
X33807675Y-30185848D01*
X33911144Y-30249913D01*
X34107199Y-30325866D01*
X34313873Y-30364500D01*
X34313875Y-30364500D01*
X34524125Y-30364500D01*
X34524127Y-30364500D01*
X34730801Y-30325866D01*
X34926856Y-30249913D01*
X35105618Y-30139229D01*
X35260997Y-29997582D01*
X35387703Y-29829796D01*
X35481422Y-29641584D01*
X35538960Y-29439357D01*
X35558360Y-29230000D01*
X35819640Y-29230000D01*
X35839039Y-29439352D01*
X35896579Y-29641587D01*
X35990293Y-29829790D01*
X35990298Y-29829798D01*
X36117004Y-29997584D01*
X36272381Y-30139228D01*
X36272383Y-30139230D01*
X36347675Y-30185848D01*
X36451144Y-30249913D01*
X36647199Y-30325866D01*
X36853873Y-30364500D01*
X36853875Y-30364500D01*
X37064125Y-30364500D01*
X37064127Y-30364500D01*
X37270801Y-30325866D01*
X37466856Y-30249913D01*
X37645618Y-30139229D01*
X37800997Y-29997582D01*
X37927703Y-29829796D01*
X38021422Y-29641584D01*
X38078960Y-29439357D01*
X38098360Y-29230000D01*
X38078960Y-29020643D01*
X38021422Y-28818416D01*
X38019933Y-28815426D01*
X37927706Y-28630209D01*
X37927701Y-28630201D01*
X37800995Y-28462415D01*
X37645618Y-28320771D01*
X37645616Y-28320769D01*
X37466859Y-28210089D01*
X37466856Y-28210087D01*
X37270801Y-28134134D01*
X37064127Y-28095500D01*
X36853873Y-28095500D01*
X36647199Y-28134134D01*
X36647196Y-28134134D01*
X36647196Y-28134135D01*
X36451143Y-28210087D01*
X36451140Y-28210089D01*
X36272383Y-28320769D01*
X36272381Y-28320771D01*
X36117004Y-28462415D01*
X35990298Y-28630201D01*
X35990293Y-28630209D01*
X35896579Y-28818412D01*
X35839039Y-29020647D01*
X35819640Y-29229999D01*
X35819640Y-29230000D01*
X35558360Y-29230000D01*
X35538960Y-29020643D01*
X35481422Y-28818416D01*
X35479933Y-28815426D01*
X35387706Y-28630209D01*
X35387701Y-28630201D01*
X35260995Y-28462415D01*
X35105618Y-28320771D01*
X35105616Y-28320769D01*
X34926859Y-28210089D01*
X34926856Y-28210087D01*
X34730801Y-28134134D01*
X34524127Y-28095500D01*
X34313873Y-28095500D01*
X34107199Y-28134134D01*
X34107196Y-28134134D01*
X34107196Y-28134135D01*
X33911143Y-28210087D01*
X33911140Y-28210089D01*
X33732383Y-28320769D01*
X33732381Y-28320771D01*
X33577004Y-28462415D01*
X33450298Y-28630201D01*
X33450293Y-28630209D01*
X33356579Y-28818412D01*
X33299039Y-29020647D01*
X33279640Y-29229999D01*
X33279640Y-29230000D01*
X33018360Y-29230000D01*
X32998960Y-29020643D01*
X32941422Y-28818416D01*
X32939933Y-28815426D01*
X32847706Y-28630209D01*
X32847701Y-28630201D01*
X32720995Y-28462415D01*
X32565618Y-28320771D01*
X32565616Y-28320769D01*
X32386859Y-28210089D01*
X32386856Y-28210087D01*
X32190801Y-28134134D01*
X31984127Y-28095500D01*
X31773873Y-28095500D01*
X31567199Y-28134134D01*
X31567196Y-28134134D01*
X31567196Y-28134135D01*
X31371143Y-28210087D01*
X31371140Y-28210089D01*
X31192383Y-28320769D01*
X31192381Y-28320771D01*
X31037004Y-28462415D01*
X30910298Y-28630201D01*
X30910293Y-28630209D01*
X30816579Y-28818412D01*
X30759039Y-29020647D01*
X30739640Y-29229999D01*
X30739640Y-29230000D01*
X30473499Y-29230000D01*
X30473499Y-28548128D01*
X30467091Y-28488517D01*
X30416796Y-28353669D01*
X30416795Y-28353668D01*
X30416793Y-28353664D01*
X30330547Y-28238455D01*
X30330544Y-28238452D01*
X30215335Y-28152206D01*
X30215328Y-28152202D01*
X30080482Y-28101908D01*
X30080483Y-28101908D01*
X30020883Y-28095501D01*
X30020881Y-28095500D01*
X30020873Y-28095500D01*
X30020864Y-28095500D01*
X28657129Y-28095500D01*
X28657123Y-28095501D01*
X28597516Y-28101908D01*
X28462671Y-28152202D01*
X28462664Y-28152206D01*
X28347455Y-28238452D01*
X28347452Y-28238455D01*
X28261206Y-28353664D01*
X28261202Y-28353671D01*
X28210908Y-28488517D01*
X28204501Y-28548116D01*
X28204501Y-28548123D01*
X28204500Y-28548135D01*
X28204500Y-29911870D01*
X19000500Y-29911870D01*
X19000500Y-23006211D01*
X26142500Y-23006211D01*
X26175446Y-23256451D01*
X26240773Y-23500258D01*
X26337363Y-23733447D01*
X26337372Y-23733464D01*
X26463566Y-23952041D01*
X26463568Y-23952045D01*
X26617227Y-24152294D01*
X26617235Y-24152303D01*
X26795697Y-24330765D01*
X26795705Y-24330772D01*
X26995954Y-24484431D01*
X26995958Y-24484433D01*
X27214535Y-24610627D01*
X27214552Y-24610636D01*
X27343758Y-24664154D01*
X27447740Y-24707226D01*
X27691548Y-24772554D01*
X27941796Y-24805500D01*
X27941803Y-24805500D01*
X28194197Y-24805500D01*
X28194204Y-24805500D01*
X28444452Y-24772554D01*
X28688260Y-24707226D01*
X28921454Y-24610633D01*
X29140041Y-24484433D01*
X29140045Y-24484431D01*
X29177842Y-24455427D01*
X29340294Y-24330773D01*
X29340298Y-24330768D01*
X29340303Y-24330765D01*
X29518765Y-24152303D01*
X29518768Y-24152298D01*
X29518773Y-24152294D01*
X29672430Y-23952046D01*
X29798633Y-23733454D01*
X29895226Y-23500260D01*
X29960554Y-23256452D01*
X29993499Y-23006211D01*
X37574500Y-23006211D01*
X37607446Y-23256451D01*
X37672773Y-23500258D01*
X37769363Y-23733447D01*
X37769372Y-23733464D01*
X37895566Y-23952041D01*
X37895568Y-23952045D01*
X38049227Y-24152294D01*
X38049235Y-24152303D01*
X38227697Y-24330765D01*
X38227705Y-24330772D01*
X38427954Y-24484431D01*
X38427958Y-24484433D01*
X38646535Y-24610627D01*
X38646552Y-24610636D01*
X38775758Y-24664154D01*
X38879740Y-24707226D01*
X39123548Y-24772554D01*
X39373796Y-24805500D01*
X39373803Y-24805500D01*
X39626197Y-24805500D01*
X39626204Y-24805500D01*
X39876452Y-24772554D01*
X40120260Y-24707226D01*
X40353454Y-24610633D01*
X40572041Y-24484433D01*
X40572045Y-24484431D01*
X40609842Y-24455427D01*
X40772294Y-24330773D01*
X40772298Y-24330768D01*
X40772303Y-24330765D01*
X40950765Y-24152303D01*
X40950768Y-24152298D01*
X40950773Y-24152294D01*
X41104430Y-23952046D01*
X41230633Y-23733454D01*
X41327226Y-23500260D01*
X41392554Y-23256452D01*
X41425500Y-23006204D01*
X41425500Y-22753796D01*
X41392554Y-22503548D01*
X41327226Y-22259740D01*
X41266719Y-22113665D01*
X41230636Y-22026552D01*
X41230627Y-22026535D01*
X41104433Y-21807958D01*
X41104431Y-21807954D01*
X40950772Y-21607705D01*
X40950765Y-21607697D01*
X40772303Y-21429235D01*
X40772294Y-21429227D01*
X40572045Y-21275568D01*
X40572041Y-21275566D01*
X40353464Y-21149372D01*
X40353447Y-21149363D01*
X40120258Y-21052773D01*
X39965690Y-21011357D01*
X39876452Y-20987446D01*
X39845171Y-20983327D01*
X39626211Y-20954500D01*
X39626204Y-20954500D01*
X39373796Y-20954500D01*
X39373788Y-20954500D01*
X39123548Y-20987446D01*
X38879741Y-21052773D01*
X38646552Y-21149363D01*
X38646535Y-21149372D01*
X38427958Y-21275566D01*
X38427954Y-21275568D01*
X38227705Y-21429227D01*
X38049227Y-21607705D01*
X37895568Y-21807954D01*
X37895566Y-21807958D01*
X37769372Y-22026535D01*
X37769363Y-22026552D01*
X37672773Y-22259741D01*
X37607446Y-22503548D01*
X37574500Y-22753788D01*
X37574500Y-23006211D01*
X29993499Y-23006211D01*
X29993500Y-23006204D01*
X29993500Y-22753796D01*
X29960554Y-22503548D01*
X29895226Y-22259740D01*
X29834719Y-22113665D01*
X29798636Y-22026552D01*
X29798627Y-22026535D01*
X29672433Y-21807958D01*
X29672431Y-21807954D01*
X29518772Y-21607705D01*
X29518765Y-21607697D01*
X29340303Y-21429235D01*
X29340294Y-21429227D01*
X29140045Y-21275568D01*
X29140041Y-21275566D01*
X28921464Y-21149372D01*
X28921447Y-21149363D01*
X28688258Y-21052773D01*
X28533690Y-21011357D01*
X28444452Y-20987446D01*
X28413171Y-20983327D01*
X28194211Y-20954500D01*
X28194204Y-20954500D01*
X27941796Y-20954500D01*
X27941788Y-20954500D01*
X27691548Y-20987446D01*
X27447741Y-21052773D01*
X27214552Y-21149363D01*
X27214535Y-21149372D01*
X26995958Y-21275566D01*
X26995954Y-21275568D01*
X26795705Y-21429227D01*
X26617227Y-21607705D01*
X26463568Y-21807954D01*
X26463566Y-21807958D01*
X26337372Y-22026535D01*
X26337363Y-22026552D01*
X26240773Y-22259741D01*
X26175446Y-22503548D01*
X26142500Y-22753788D01*
X26142500Y-23006211D01*
X19000500Y-23006211D01*
X19000500Y-23003750D01*
X19000726Y-22996263D01*
X19018271Y-22706205D01*
X19020076Y-22691340D01*
X19071780Y-22409201D01*
X19075364Y-22394663D01*
X19160696Y-22120822D01*
X19165998Y-22106841D01*
X19283731Y-21845249D01*
X19290676Y-21832016D01*
X19439080Y-21586526D01*
X19447567Y-21574230D01*
X19624480Y-21348417D01*
X19634395Y-21337226D01*
X19837226Y-21134395D01*
X19848417Y-21124480D01*
X20074230Y-20947567D01*
X20086526Y-20939080D01*
X20332016Y-20790676D01*
X20345249Y-20783731D01*
X20606841Y-20665998D01*
X20620822Y-20660696D01*
X20894668Y-20575362D01*
X20909197Y-20571780D01*
X21191344Y-20520075D01*
X21206202Y-20518271D01*
X21496263Y-20500726D01*
X21503750Y-20500500D01*
X45996265Y-20500500D01*
X46003752Y-20500726D01*
G37*
%TD.AperFunction*%
%TD*%
M02*
