M48
; DRILL file {KiCad 8.0.1-8.0.1-1~ubuntu22.04.1} date 2024-04-18T01:12:45-0400
; FORMAT={-:-/ absolute / metric / decimal}
; #@! TF.CreationDate,2024-04-18T01:12:45-04:00
; #@! TF.GenerationSoftware,Kicad,Pcbnew,8.0.1-8.0.1-1~ubuntu22.04.1
; #@! TF.FileFunction,Plated,1,4,PTH
FMAT,2
METRIC
; #@! TA.AperFunction,Plated,PTH,ViaDrill
T1C0.300
; #@! TA.AperFunction,Plated,PTH,ComponentDrill
T2C0.500
; #@! TA.AperFunction,Plated,PTH,ComponentDrill
T3C0.760
; #@! TA.AperFunction,Plated,PTH,ComponentDrill
T4C2.200
%
G90
G05
T1
X21.0Y-43.0
X21.3Y-50.7
X21.3Y-51.6
X21.3Y-52.6
X21.3Y-53.6
X21.3Y-54.6
X21.3Y-55.5
X22.3Y-50.7
X22.3Y-51.6
X22.3Y-52.6
X22.3Y-53.6
X22.3Y-54.6
X22.3Y-55.5
X23.3Y-50.7
X23.3Y-51.6
X23.3Y-52.6
X23.3Y-53.6
X23.3Y-54.6
X23.3Y-55.5
X24.3Y-50.7
X24.3Y-51.6
X24.3Y-52.6
X24.3Y-53.6
X24.3Y-54.6
X24.3Y-55.5
X25.3Y-50.7
X25.3Y-51.6
X25.3Y-52.6
X25.3Y-53.6
X25.3Y-54.6
X25.3Y-55.5
X28.0Y-39.5
X28.037Y-66.037
X28.8Y-38.7
X30.0Y-68.0
X33.1Y-51.4
X34.0Y-50.2
X34.0Y-51.4
X34.0Y-52.6
X34.862Y-43.006
X35.0Y-50.2
X35.0Y-51.4
X35.0Y-52.6
X40.3Y-52.3
X40.5Y-45.5
X41.2Y-54.0
X42.0Y-46.5
X42.2Y-50.24
X43.122Y-65.429
X44.5Y-69.5
X44.7Y-41.1
T3
X29.339Y-29.23
X29.339Y-70.23
X30.609Y-31.77
X30.609Y-72.77
X31.879Y-29.23
X31.879Y-70.23
X33.149Y-31.77
X33.149Y-72.77
X34.419Y-29.23
X34.419Y-70.23
X35.689Y-31.77
X35.689Y-72.77
X36.959Y-29.23
X36.959Y-70.23
X38.229Y-31.77
X38.229Y-72.77
T4
X21.5Y-23.0
X21.5Y-79.0
X46.0Y-23.0
X46.0Y-79.0
T2
X20.975Y-68.0G85X21.675Y-68.0
G05
X20.975Y-74.6G85X21.675Y-74.6
G05
M30
