%TF.GenerationSoftware,KiCad,Pcbnew,8.0.1-8.0.1-1~ubuntu22.04.1*%
%TF.CreationDate,2024-04-01T00:34:47-04:00*%
%TF.ProjectId,gripper_2024,67726970-7065-4725-9f32-3032342e6b69,rev?*%
%TF.SameCoordinates,Original*%
%TF.FileFunction,Drillmap*%
%TF.FilePolarity,Positive*%
%FSLAX45Y45*%
G04 Gerber Fmt 4.5, Leading zero omitted, Abs format (unit mm)*
G04 Created by KiCad (PCBNEW 8.0.1-8.0.1-1~ubuntu22.04.1) date 2024-04-01 00:34:47*
%MOMM*%
%LPD*%
G01*
G04 APERTURE LIST*
%ADD10C,0.050000*%
%ADD11C,0.200000*%
%ADD12C,0.335000*%
G04 APERTURE END LIST*
D10*
X2000000Y-10600000D02*
G75*
G02*
X1700000Y-10300000I0J300000D01*
G01*
X1700000Y-1900000D02*
X1700000Y-10300000D01*
X2000000Y-10600000D02*
X7350000Y-10600000D01*
X1700000Y-1900000D02*
G75*
G02*
X2000000Y-1600000I300000J0D01*
G01*
X7350000Y-1600000D02*
G75*
G02*
X7650000Y-1900000I0J-300000D01*
G01*
X7650000Y-10300000D02*
X7650000Y-1900000D01*
X7350000Y-1600000D02*
X2000000Y-1600000D01*
X7650000Y-10300000D02*
G75*
G02*
X7350000Y-10600000I-300000J0D01*
G01*
D11*
D12*
X2510900Y-2132500D02*
X2845900Y-2467500D01*
X2845900Y-2132500D02*
X2510900Y-2467500D01*
X2644650Y-10182500D02*
X2979650Y-10517500D01*
X2979650Y-10182500D02*
X2644650Y-10517500D01*
X3654100Y-2132500D02*
X3989100Y-2467500D01*
X3989100Y-2132500D02*
X3654100Y-2467500D01*
X3787850Y-10182500D02*
X4122850Y-10517500D01*
X4122850Y-10182500D02*
X3787850Y-10517500D01*
D11*
X1958277Y-10913984D02*
X1958277Y-10713984D01*
X1958277Y-10713984D02*
X2005896Y-10713984D01*
X2005896Y-10713984D02*
X2034467Y-10723508D01*
X2034467Y-10723508D02*
X2053515Y-10742555D01*
X2053515Y-10742555D02*
X2063039Y-10761603D01*
X2063039Y-10761603D02*
X2072562Y-10799698D01*
X2072562Y-10799698D02*
X2072562Y-10828270D01*
X2072562Y-10828270D02*
X2063039Y-10866365D01*
X2063039Y-10866365D02*
X2053515Y-10885412D01*
X2053515Y-10885412D02*
X2034467Y-10904460D01*
X2034467Y-10904460D02*
X2005896Y-10913984D01*
X2005896Y-10913984D02*
X1958277Y-10913984D01*
X2158277Y-10913984D02*
X2158277Y-10780650D01*
X2158277Y-10818746D02*
X2167801Y-10799698D01*
X2167801Y-10799698D02*
X2177324Y-10790174D01*
X2177324Y-10790174D02*
X2196372Y-10780650D01*
X2196372Y-10780650D02*
X2215420Y-10780650D01*
X2282086Y-10913984D02*
X2282086Y-10780650D01*
X2282086Y-10713984D02*
X2272563Y-10723508D01*
X2272563Y-10723508D02*
X2282086Y-10733031D01*
X2282086Y-10733031D02*
X2291610Y-10723508D01*
X2291610Y-10723508D02*
X2282086Y-10713984D01*
X2282086Y-10713984D02*
X2282086Y-10733031D01*
X2405896Y-10913984D02*
X2386848Y-10904460D01*
X2386848Y-10904460D02*
X2377324Y-10885412D01*
X2377324Y-10885412D02*
X2377324Y-10713984D01*
X2510658Y-10913984D02*
X2491610Y-10904460D01*
X2491610Y-10904460D02*
X2482086Y-10885412D01*
X2482086Y-10885412D02*
X2482086Y-10713984D01*
X2739229Y-10913984D02*
X2739229Y-10713984D01*
X2739229Y-10713984D02*
X2805896Y-10856841D01*
X2805896Y-10856841D02*
X2872562Y-10713984D01*
X2872562Y-10713984D02*
X2872562Y-10913984D01*
X3053515Y-10913984D02*
X3053515Y-10809222D01*
X3053515Y-10809222D02*
X3043991Y-10790174D01*
X3043991Y-10790174D02*
X3024943Y-10780650D01*
X3024943Y-10780650D02*
X2986848Y-10780650D01*
X2986848Y-10780650D02*
X2967801Y-10790174D01*
X3053515Y-10904460D02*
X3034467Y-10913984D01*
X3034467Y-10913984D02*
X2986848Y-10913984D01*
X2986848Y-10913984D02*
X2967801Y-10904460D01*
X2967801Y-10904460D02*
X2958277Y-10885412D01*
X2958277Y-10885412D02*
X2958277Y-10866365D01*
X2958277Y-10866365D02*
X2967801Y-10847317D01*
X2967801Y-10847317D02*
X2986848Y-10837793D01*
X2986848Y-10837793D02*
X3034467Y-10837793D01*
X3034467Y-10837793D02*
X3053515Y-10828270D01*
X3148753Y-10780650D02*
X3148753Y-10980650D01*
X3148753Y-10790174D02*
X3167801Y-10780650D01*
X3167801Y-10780650D02*
X3205896Y-10780650D01*
X3205896Y-10780650D02*
X3224943Y-10790174D01*
X3224943Y-10790174D02*
X3234467Y-10799698D01*
X3234467Y-10799698D02*
X3243991Y-10818746D01*
X3243991Y-10818746D02*
X3243991Y-10875889D01*
X3243991Y-10875889D02*
X3234467Y-10894936D01*
X3234467Y-10894936D02*
X3224943Y-10904460D01*
X3224943Y-10904460D02*
X3205896Y-10913984D01*
X3205896Y-10913984D02*
X3167801Y-10913984D01*
X3167801Y-10913984D02*
X3148753Y-10904460D01*
X3329705Y-10894936D02*
X3339229Y-10904460D01*
X3339229Y-10904460D02*
X3329705Y-10913984D01*
X3329705Y-10913984D02*
X3320182Y-10904460D01*
X3320182Y-10904460D02*
X3329705Y-10894936D01*
X3329705Y-10894936D02*
X3329705Y-10913984D01*
X3329705Y-10790174D02*
X3339229Y-10799698D01*
X3339229Y-10799698D02*
X3329705Y-10809222D01*
X3329705Y-10809222D02*
X3320182Y-10799698D01*
X3320182Y-10799698D02*
X3329705Y-10790174D01*
X3329705Y-10790174D02*
X3329705Y-10809222D01*
X1497500Y-11142500D02*
X1697500Y-11342500D01*
X1697500Y-11142500D02*
X1497500Y-11342500D01*
X1939229Y-11133984D02*
X2063039Y-11133984D01*
X2063039Y-11133984D02*
X1996372Y-11210174D01*
X1996372Y-11210174D02*
X2024943Y-11210174D01*
X2024943Y-11210174D02*
X2043991Y-11219698D01*
X2043991Y-11219698D02*
X2053515Y-11229222D01*
X2053515Y-11229222D02*
X2063039Y-11248269D01*
X2063039Y-11248269D02*
X2063039Y-11295888D01*
X2063039Y-11295888D02*
X2053515Y-11314936D01*
X2053515Y-11314936D02*
X2043991Y-11324460D01*
X2043991Y-11324460D02*
X2024943Y-11333984D01*
X2024943Y-11333984D02*
X1967801Y-11333984D01*
X1967801Y-11333984D02*
X1948753Y-11324460D01*
X1948753Y-11324460D02*
X1939229Y-11314936D01*
X2148753Y-11314936D02*
X2158277Y-11324460D01*
X2158277Y-11324460D02*
X2148753Y-11333984D01*
X2148753Y-11333984D02*
X2139229Y-11324460D01*
X2139229Y-11324460D02*
X2148753Y-11314936D01*
X2148753Y-11314936D02*
X2148753Y-11333984D01*
X2224944Y-11133984D02*
X2348753Y-11133984D01*
X2348753Y-11133984D02*
X2282086Y-11210174D01*
X2282086Y-11210174D02*
X2310658Y-11210174D01*
X2310658Y-11210174D02*
X2329705Y-11219698D01*
X2329705Y-11219698D02*
X2339229Y-11229222D01*
X2339229Y-11229222D02*
X2348753Y-11248269D01*
X2348753Y-11248269D02*
X2348753Y-11295888D01*
X2348753Y-11295888D02*
X2339229Y-11314936D01*
X2339229Y-11314936D02*
X2329705Y-11324460D01*
X2329705Y-11324460D02*
X2310658Y-11333984D01*
X2310658Y-11333984D02*
X2253515Y-11333984D01*
X2253515Y-11333984D02*
X2234467Y-11324460D01*
X2234467Y-11324460D02*
X2224944Y-11314936D01*
X2529705Y-11133984D02*
X2434467Y-11133984D01*
X2434467Y-11133984D02*
X2424944Y-11229222D01*
X2424944Y-11229222D02*
X2434467Y-11219698D01*
X2434467Y-11219698D02*
X2453515Y-11210174D01*
X2453515Y-11210174D02*
X2501134Y-11210174D01*
X2501134Y-11210174D02*
X2520182Y-11219698D01*
X2520182Y-11219698D02*
X2529705Y-11229222D01*
X2529705Y-11229222D02*
X2539229Y-11248269D01*
X2539229Y-11248269D02*
X2539229Y-11295888D01*
X2539229Y-11295888D02*
X2529705Y-11314936D01*
X2529705Y-11314936D02*
X2520182Y-11324460D01*
X2520182Y-11324460D02*
X2501134Y-11333984D01*
X2501134Y-11333984D02*
X2453515Y-11333984D01*
X2453515Y-11333984D02*
X2434467Y-11324460D01*
X2434467Y-11324460D02*
X2424944Y-11314936D01*
X2663039Y-11133984D02*
X2682086Y-11133984D01*
X2682086Y-11133984D02*
X2701134Y-11143508D01*
X2701134Y-11143508D02*
X2710658Y-11153031D01*
X2710658Y-11153031D02*
X2720182Y-11172079D01*
X2720182Y-11172079D02*
X2729705Y-11210174D01*
X2729705Y-11210174D02*
X2729705Y-11257793D01*
X2729705Y-11257793D02*
X2720182Y-11295888D01*
X2720182Y-11295888D02*
X2710658Y-11314936D01*
X2710658Y-11314936D02*
X2701134Y-11324460D01*
X2701134Y-11324460D02*
X2682086Y-11333984D01*
X2682086Y-11333984D02*
X2663039Y-11333984D01*
X2663039Y-11333984D02*
X2643991Y-11324460D01*
X2643991Y-11324460D02*
X2634467Y-11314936D01*
X2634467Y-11314936D02*
X2624944Y-11295888D01*
X2624944Y-11295888D02*
X2615420Y-11257793D01*
X2615420Y-11257793D02*
X2615420Y-11210174D01*
X2615420Y-11210174D02*
X2624944Y-11172079D01*
X2624944Y-11172079D02*
X2634467Y-11153031D01*
X2634467Y-11153031D02*
X2643991Y-11143508D01*
X2643991Y-11143508D02*
X2663039Y-11133984D01*
X2815420Y-11333984D02*
X2815420Y-11200650D01*
X2815420Y-11219698D02*
X2824943Y-11210174D01*
X2824943Y-11210174D02*
X2843991Y-11200650D01*
X2843991Y-11200650D02*
X2872563Y-11200650D01*
X2872563Y-11200650D02*
X2891610Y-11210174D01*
X2891610Y-11210174D02*
X2901134Y-11229222D01*
X2901134Y-11229222D02*
X2901134Y-11333984D01*
X2901134Y-11229222D02*
X2910658Y-11210174D01*
X2910658Y-11210174D02*
X2929705Y-11200650D01*
X2929705Y-11200650D02*
X2958277Y-11200650D01*
X2958277Y-11200650D02*
X2977324Y-11210174D01*
X2977324Y-11210174D02*
X2986848Y-11229222D01*
X2986848Y-11229222D02*
X2986848Y-11333984D01*
X3082086Y-11333984D02*
X3082086Y-11200650D01*
X3082086Y-11219698D02*
X3091610Y-11210174D01*
X3091610Y-11210174D02*
X3110658Y-11200650D01*
X3110658Y-11200650D02*
X3139229Y-11200650D01*
X3139229Y-11200650D02*
X3158277Y-11210174D01*
X3158277Y-11210174D02*
X3167801Y-11229222D01*
X3167801Y-11229222D02*
X3167801Y-11333984D01*
X3167801Y-11229222D02*
X3177324Y-11210174D01*
X3177324Y-11210174D02*
X3196372Y-11200650D01*
X3196372Y-11200650D02*
X3224943Y-11200650D01*
X3224943Y-11200650D02*
X3243991Y-11210174D01*
X3243991Y-11210174D02*
X3253515Y-11229222D01*
X3253515Y-11229222D02*
X3253515Y-11333984D01*
X3643991Y-11124460D02*
X3472563Y-11381603D01*
X3901134Y-11133984D02*
X3920182Y-11133984D01*
X3920182Y-11133984D02*
X3939229Y-11143508D01*
X3939229Y-11143508D02*
X3948753Y-11153031D01*
X3948753Y-11153031D02*
X3958277Y-11172079D01*
X3958277Y-11172079D02*
X3967801Y-11210174D01*
X3967801Y-11210174D02*
X3967801Y-11257793D01*
X3967801Y-11257793D02*
X3958277Y-11295888D01*
X3958277Y-11295888D02*
X3948753Y-11314936D01*
X3948753Y-11314936D02*
X3939229Y-11324460D01*
X3939229Y-11324460D02*
X3920182Y-11333984D01*
X3920182Y-11333984D02*
X3901134Y-11333984D01*
X3901134Y-11333984D02*
X3882086Y-11324460D01*
X3882086Y-11324460D02*
X3872563Y-11314936D01*
X3872563Y-11314936D02*
X3863039Y-11295888D01*
X3863039Y-11295888D02*
X3853515Y-11257793D01*
X3853515Y-11257793D02*
X3853515Y-11210174D01*
X3853515Y-11210174D02*
X3863039Y-11172079D01*
X3863039Y-11172079D02*
X3872563Y-11153031D01*
X3872563Y-11153031D02*
X3882086Y-11143508D01*
X3882086Y-11143508D02*
X3901134Y-11133984D01*
X4053515Y-11314936D02*
X4063039Y-11324460D01*
X4063039Y-11324460D02*
X4053515Y-11333984D01*
X4053515Y-11333984D02*
X4043991Y-11324460D01*
X4043991Y-11324460D02*
X4053515Y-11314936D01*
X4053515Y-11314936D02*
X4053515Y-11333984D01*
X4253515Y-11333984D02*
X4139229Y-11333984D01*
X4196372Y-11333984D02*
X4196372Y-11133984D01*
X4196372Y-11133984D02*
X4177325Y-11162555D01*
X4177325Y-11162555D02*
X4158277Y-11181603D01*
X4158277Y-11181603D02*
X4139229Y-11191127D01*
X4320182Y-11133984D02*
X4443991Y-11133984D01*
X4443991Y-11133984D02*
X4377325Y-11210174D01*
X4377325Y-11210174D02*
X4405896Y-11210174D01*
X4405896Y-11210174D02*
X4424944Y-11219698D01*
X4424944Y-11219698D02*
X4434468Y-11229222D01*
X4434468Y-11229222D02*
X4443991Y-11248269D01*
X4443991Y-11248269D02*
X4443991Y-11295888D01*
X4443991Y-11295888D02*
X4434468Y-11314936D01*
X4434468Y-11314936D02*
X4424944Y-11324460D01*
X4424944Y-11324460D02*
X4405896Y-11333984D01*
X4405896Y-11333984D02*
X4348753Y-11333984D01*
X4348753Y-11333984D02*
X4329706Y-11324460D01*
X4329706Y-11324460D02*
X4320182Y-11314936D01*
X4634468Y-11333984D02*
X4520182Y-11333984D01*
X4577325Y-11333984D02*
X4577325Y-11133984D01*
X4577325Y-11133984D02*
X4558277Y-11162555D01*
X4558277Y-11162555D02*
X4539229Y-11181603D01*
X4539229Y-11181603D02*
X4520182Y-11191127D01*
X4729706Y-11333984D02*
X4767801Y-11333984D01*
X4767801Y-11333984D02*
X4786849Y-11324460D01*
X4786849Y-11324460D02*
X4796372Y-11314936D01*
X4796372Y-11314936D02*
X4815420Y-11286365D01*
X4815420Y-11286365D02*
X4824944Y-11248269D01*
X4824944Y-11248269D02*
X4824944Y-11172079D01*
X4824944Y-11172079D02*
X4815420Y-11153031D01*
X4815420Y-11153031D02*
X4805896Y-11143508D01*
X4805896Y-11143508D02*
X4786849Y-11133984D01*
X4786849Y-11133984D02*
X4748753Y-11133984D01*
X4748753Y-11133984D02*
X4729706Y-11143508D01*
X4729706Y-11143508D02*
X4720182Y-11153031D01*
X4720182Y-11153031D02*
X4710658Y-11172079D01*
X4710658Y-11172079D02*
X4710658Y-11219698D01*
X4710658Y-11219698D02*
X4720182Y-11238746D01*
X4720182Y-11238746D02*
X4729706Y-11248269D01*
X4729706Y-11248269D02*
X4748753Y-11257793D01*
X4748753Y-11257793D02*
X4786849Y-11257793D01*
X4786849Y-11257793D02*
X4805896Y-11248269D01*
X4805896Y-11248269D02*
X4815420Y-11238746D01*
X4815420Y-11238746D02*
X4824944Y-11219698D01*
X4901134Y-11133984D02*
X4901134Y-11172079D01*
X4977325Y-11133984D02*
X4977325Y-11172079D01*
X5272563Y-11410174D02*
X5263039Y-11400650D01*
X5263039Y-11400650D02*
X5243991Y-11372079D01*
X5243991Y-11372079D02*
X5234468Y-11353031D01*
X5234468Y-11353031D02*
X5224944Y-11324460D01*
X5224944Y-11324460D02*
X5215420Y-11276841D01*
X5215420Y-11276841D02*
X5215420Y-11238746D01*
X5215420Y-11238746D02*
X5224944Y-11191127D01*
X5224944Y-11191127D02*
X5234468Y-11162555D01*
X5234468Y-11162555D02*
X5243991Y-11143508D01*
X5243991Y-11143508D02*
X5263039Y-11114936D01*
X5263039Y-11114936D02*
X5272563Y-11105412D01*
X5434468Y-11200650D02*
X5434468Y-11333984D01*
X5386849Y-11124460D02*
X5339230Y-11267317D01*
X5339230Y-11267317D02*
X5463039Y-11267317D01*
X5691610Y-11333984D02*
X5691610Y-11133984D01*
X5777325Y-11333984D02*
X5777325Y-11229222D01*
X5777325Y-11229222D02*
X5767801Y-11210174D01*
X5767801Y-11210174D02*
X5748753Y-11200650D01*
X5748753Y-11200650D02*
X5720182Y-11200650D01*
X5720182Y-11200650D02*
X5701134Y-11210174D01*
X5701134Y-11210174D02*
X5691610Y-11219698D01*
X5901134Y-11333984D02*
X5882087Y-11324460D01*
X5882087Y-11324460D02*
X5872563Y-11314936D01*
X5872563Y-11314936D02*
X5863039Y-11295888D01*
X5863039Y-11295888D02*
X5863039Y-11238746D01*
X5863039Y-11238746D02*
X5872563Y-11219698D01*
X5872563Y-11219698D02*
X5882087Y-11210174D01*
X5882087Y-11210174D02*
X5901134Y-11200650D01*
X5901134Y-11200650D02*
X5929706Y-11200650D01*
X5929706Y-11200650D02*
X5948753Y-11210174D01*
X5948753Y-11210174D02*
X5958277Y-11219698D01*
X5958277Y-11219698D02*
X5967801Y-11238746D01*
X5967801Y-11238746D02*
X5967801Y-11295888D01*
X5967801Y-11295888D02*
X5958277Y-11314936D01*
X5958277Y-11314936D02*
X5948753Y-11324460D01*
X5948753Y-11324460D02*
X5929706Y-11333984D01*
X5929706Y-11333984D02*
X5901134Y-11333984D01*
X6082087Y-11333984D02*
X6063039Y-11324460D01*
X6063039Y-11324460D02*
X6053515Y-11305412D01*
X6053515Y-11305412D02*
X6053515Y-11133984D01*
X6234468Y-11324460D02*
X6215420Y-11333984D01*
X6215420Y-11333984D02*
X6177325Y-11333984D01*
X6177325Y-11333984D02*
X6158277Y-11324460D01*
X6158277Y-11324460D02*
X6148753Y-11305412D01*
X6148753Y-11305412D02*
X6148753Y-11229222D01*
X6148753Y-11229222D02*
X6158277Y-11210174D01*
X6158277Y-11210174D02*
X6177325Y-11200650D01*
X6177325Y-11200650D02*
X6215420Y-11200650D01*
X6215420Y-11200650D02*
X6234468Y-11210174D01*
X6234468Y-11210174D02*
X6243991Y-11229222D01*
X6243991Y-11229222D02*
X6243991Y-11248269D01*
X6243991Y-11248269D02*
X6148753Y-11267317D01*
X6320182Y-11324460D02*
X6339230Y-11333984D01*
X6339230Y-11333984D02*
X6377325Y-11333984D01*
X6377325Y-11333984D02*
X6396372Y-11324460D01*
X6396372Y-11324460D02*
X6405896Y-11305412D01*
X6405896Y-11305412D02*
X6405896Y-11295888D01*
X6405896Y-11295888D02*
X6396372Y-11276841D01*
X6396372Y-11276841D02*
X6377325Y-11267317D01*
X6377325Y-11267317D02*
X6348753Y-11267317D01*
X6348753Y-11267317D02*
X6329706Y-11257793D01*
X6329706Y-11257793D02*
X6320182Y-11238746D01*
X6320182Y-11238746D02*
X6320182Y-11229222D01*
X6320182Y-11229222D02*
X6329706Y-11210174D01*
X6329706Y-11210174D02*
X6348753Y-11200650D01*
X6348753Y-11200650D02*
X6377325Y-11200650D01*
X6377325Y-11200650D02*
X6396372Y-11210174D01*
X6472563Y-11410174D02*
X6482087Y-11400650D01*
X6482087Y-11400650D02*
X6501134Y-11372079D01*
X6501134Y-11372079D02*
X6510658Y-11353031D01*
X6510658Y-11353031D02*
X6520182Y-11324460D01*
X6520182Y-11324460D02*
X6529706Y-11276841D01*
X6529706Y-11276841D02*
X6529706Y-11238746D01*
X6529706Y-11238746D02*
X6520182Y-11191127D01*
X6520182Y-11191127D02*
X6510658Y-11162555D01*
X6510658Y-11162555D02*
X6501134Y-11143508D01*
X6501134Y-11143508D02*
X6482087Y-11114936D01*
X6482087Y-11114936D02*
X6472563Y-11105412D01*
X6834468Y-11410174D02*
X6824944Y-11400650D01*
X6824944Y-11400650D02*
X6805896Y-11372079D01*
X6805896Y-11372079D02*
X6796372Y-11353031D01*
X6796372Y-11353031D02*
X6786849Y-11324460D01*
X6786849Y-11324460D02*
X6777325Y-11276841D01*
X6777325Y-11276841D02*
X6777325Y-11238746D01*
X6777325Y-11238746D02*
X6786849Y-11191127D01*
X6786849Y-11191127D02*
X6796372Y-11162555D01*
X6796372Y-11162555D02*
X6805896Y-11143508D01*
X6805896Y-11143508D02*
X6824944Y-11114936D01*
X6824944Y-11114936D02*
X6834468Y-11105412D01*
X6910658Y-11200650D02*
X6910658Y-11333984D01*
X6910658Y-11219698D02*
X6920182Y-11210174D01*
X6920182Y-11210174D02*
X6939230Y-11200650D01*
X6939230Y-11200650D02*
X6967801Y-11200650D01*
X6967801Y-11200650D02*
X6986849Y-11210174D01*
X6986849Y-11210174D02*
X6996372Y-11229222D01*
X6996372Y-11229222D02*
X6996372Y-11333984D01*
X7120182Y-11333984D02*
X7101134Y-11324460D01*
X7101134Y-11324460D02*
X7091611Y-11314936D01*
X7091611Y-11314936D02*
X7082087Y-11295888D01*
X7082087Y-11295888D02*
X7082087Y-11238746D01*
X7082087Y-11238746D02*
X7091611Y-11219698D01*
X7091611Y-11219698D02*
X7101134Y-11210174D01*
X7101134Y-11210174D02*
X7120182Y-11200650D01*
X7120182Y-11200650D02*
X7148753Y-11200650D01*
X7148753Y-11200650D02*
X7167801Y-11210174D01*
X7167801Y-11210174D02*
X7177325Y-11219698D01*
X7177325Y-11219698D02*
X7186849Y-11238746D01*
X7186849Y-11238746D02*
X7186849Y-11295888D01*
X7186849Y-11295888D02*
X7177325Y-11314936D01*
X7177325Y-11314936D02*
X7167801Y-11324460D01*
X7167801Y-11324460D02*
X7148753Y-11333984D01*
X7148753Y-11333984D02*
X7120182Y-11333984D01*
X7243992Y-11200650D02*
X7320182Y-11200650D01*
X7272563Y-11133984D02*
X7272563Y-11305412D01*
X7272563Y-11305412D02*
X7282087Y-11324460D01*
X7282087Y-11324460D02*
X7301134Y-11333984D01*
X7301134Y-11333984D02*
X7320182Y-11333984D01*
X7539230Y-11200650D02*
X7539230Y-11400650D01*
X7539230Y-11210174D02*
X7558277Y-11200650D01*
X7558277Y-11200650D02*
X7596373Y-11200650D01*
X7596373Y-11200650D02*
X7615420Y-11210174D01*
X7615420Y-11210174D02*
X7624944Y-11219698D01*
X7624944Y-11219698D02*
X7634468Y-11238746D01*
X7634468Y-11238746D02*
X7634468Y-11295888D01*
X7634468Y-11295888D02*
X7624944Y-11314936D01*
X7624944Y-11314936D02*
X7615420Y-11324460D01*
X7615420Y-11324460D02*
X7596373Y-11333984D01*
X7596373Y-11333984D02*
X7558277Y-11333984D01*
X7558277Y-11333984D02*
X7539230Y-11324460D01*
X7748753Y-11333984D02*
X7729706Y-11324460D01*
X7729706Y-11324460D02*
X7720182Y-11305412D01*
X7720182Y-11305412D02*
X7720182Y-11133984D01*
X7910658Y-11333984D02*
X7910658Y-11229222D01*
X7910658Y-11229222D02*
X7901134Y-11210174D01*
X7901134Y-11210174D02*
X7882087Y-11200650D01*
X7882087Y-11200650D02*
X7843992Y-11200650D01*
X7843992Y-11200650D02*
X7824944Y-11210174D01*
X7910658Y-11324460D02*
X7891611Y-11333984D01*
X7891611Y-11333984D02*
X7843992Y-11333984D01*
X7843992Y-11333984D02*
X7824944Y-11324460D01*
X7824944Y-11324460D02*
X7815420Y-11305412D01*
X7815420Y-11305412D02*
X7815420Y-11286365D01*
X7815420Y-11286365D02*
X7824944Y-11267317D01*
X7824944Y-11267317D02*
X7843992Y-11257793D01*
X7843992Y-11257793D02*
X7891611Y-11257793D01*
X7891611Y-11257793D02*
X7910658Y-11248269D01*
X7977325Y-11200650D02*
X8053515Y-11200650D01*
X8005896Y-11133984D02*
X8005896Y-11305412D01*
X8005896Y-11305412D02*
X8015420Y-11324460D01*
X8015420Y-11324460D02*
X8034468Y-11333984D01*
X8034468Y-11333984D02*
X8053515Y-11333984D01*
X8196373Y-11324460D02*
X8177325Y-11333984D01*
X8177325Y-11333984D02*
X8139230Y-11333984D01*
X8139230Y-11333984D02*
X8120182Y-11324460D01*
X8120182Y-11324460D02*
X8110658Y-11305412D01*
X8110658Y-11305412D02*
X8110658Y-11229222D01*
X8110658Y-11229222D02*
X8120182Y-11210174D01*
X8120182Y-11210174D02*
X8139230Y-11200650D01*
X8139230Y-11200650D02*
X8177325Y-11200650D01*
X8177325Y-11200650D02*
X8196373Y-11210174D01*
X8196373Y-11210174D02*
X8205896Y-11229222D01*
X8205896Y-11229222D02*
X8205896Y-11248269D01*
X8205896Y-11248269D02*
X8110658Y-11267317D01*
X8377325Y-11333984D02*
X8377325Y-11133984D01*
X8377325Y-11324460D02*
X8358277Y-11333984D01*
X8358277Y-11333984D02*
X8320182Y-11333984D01*
X8320182Y-11333984D02*
X8301134Y-11324460D01*
X8301134Y-11324460D02*
X8291611Y-11314936D01*
X8291611Y-11314936D02*
X8282087Y-11295888D01*
X8282087Y-11295888D02*
X8282087Y-11238746D01*
X8282087Y-11238746D02*
X8291611Y-11219698D01*
X8291611Y-11219698D02*
X8301134Y-11210174D01*
X8301134Y-11210174D02*
X8320182Y-11200650D01*
X8320182Y-11200650D02*
X8358277Y-11200650D01*
X8358277Y-11200650D02*
X8377325Y-11210174D01*
X8453516Y-11410174D02*
X8463039Y-11400650D01*
X8463039Y-11400650D02*
X8482087Y-11372079D01*
X8482087Y-11372079D02*
X8491611Y-11353031D01*
X8491611Y-11353031D02*
X8501135Y-11324460D01*
X8501135Y-11324460D02*
X8510658Y-11276841D01*
X8510658Y-11276841D02*
X8510658Y-11238746D01*
X8510658Y-11238746D02*
X8501135Y-11191127D01*
X8501135Y-11191127D02*
X8491611Y-11162555D01*
X8491611Y-11162555D02*
X8482087Y-11143508D01*
X8482087Y-11143508D02*
X8463039Y-11114936D01*
X8463039Y-11114936D02*
X8453516Y-11105412D01*
M02*
