G04 #@! TF.GenerationSoftware,KiCad,Pcbnew,(5.1.9)-1*
G04 #@! TF.CreationDate,2024-04-03T19:01:00-04:00*
G04 #@! TF.ProjectId,Shield Drive Moteur DC,53686965-6c64-4204-9472-697665204d6f,rev?*
G04 #@! TF.SameCoordinates,Original*
G04 #@! TF.FileFunction,Soldermask,Top*
G04 #@! TF.FilePolarity,Negative*
%FSLAX46Y46*%
G04 Gerber Fmt 4.6, Leading zero omitted, Abs format (unit mm)*
G04 Created by KiCad (PCBNEW (5.1.9)-1) date 2024-04-03 19:01:00*
%MOMM*%
%LPD*%
G01*
G04 APERTURE LIST*
%ADD10C,2.204000*%
%ADD11C,3.920000*%
%ADD12O,2.604000X1.404000*%
%ADD13O,2.000000X1.700000*%
%ADD14C,5.794000*%
%ADD15C,1.500000*%
%ADD16R,1.500000X1.500000*%
%ADD17C,3.200000*%
G04 APERTURE END LIST*
G36*
G01*
X173445000Y-86192000D02*
X171445000Y-86192000D01*
G75*
G02*
X171343000Y-86090000I0J102000D01*
G01*
X171343000Y-84090000D01*
G75*
G02*
X171445000Y-83988000I102000J0D01*
G01*
X173445000Y-83988000D01*
G75*
G02*
X173547000Y-84090000I0J-102000D01*
G01*
X173547000Y-86090000D01*
G75*
G02*
X173445000Y-86192000I-102000J0D01*
G01*
G37*
D10*
X174985000Y-85090000D03*
X177525000Y-85090000D03*
X180065000Y-85090000D03*
X182605000Y-85090000D03*
X185145000Y-85090000D03*
X187685000Y-85090000D03*
X190225000Y-85090000D03*
X192765000Y-85090000D03*
X195305000Y-85090000D03*
X197845000Y-85090000D03*
X200385000Y-85090000D03*
X202925000Y-85090000D03*
X205465000Y-85090000D03*
X208005000Y-85090000D03*
X172445000Y-59690000D03*
X174985000Y-59690000D03*
X177525000Y-59690000D03*
X180065000Y-59690000D03*
X182605000Y-59690000D03*
X185145000Y-59690000D03*
X187685000Y-59690000D03*
X190225000Y-59690000D03*
X192765000Y-59690000D03*
X195305000Y-59690000D03*
X197845000Y-59690000D03*
X200385000Y-59690000D03*
X202925000Y-59690000D03*
X205465000Y-59690000D03*
X208005000Y-59690000D03*
G36*
G01*
X220302000Y-132850000D02*
X220302000Y-133850000D01*
G75*
G02*
X220200000Y-133952000I-102000J0D01*
G01*
X219100000Y-133952000D01*
G75*
G02*
X218998000Y-133850000I0J102000D01*
G01*
X218998000Y-132850000D01*
G75*
G02*
X219100000Y-132748000I102000J0D01*
G01*
X220200000Y-132748000D01*
G75*
G02*
X220302000Y-132850000I0J-102000D01*
G01*
G37*
G36*
G01*
X212802000Y-132850000D02*
X212802000Y-133850000D01*
G75*
G02*
X212700000Y-133952000I-102000J0D01*
G01*
X211600000Y-133952000D01*
G75*
G02*
X211498000Y-133850000I0J102000D01*
G01*
X211498000Y-132850000D01*
G75*
G02*
X211600000Y-132748000I102000J0D01*
G01*
X212700000Y-132748000D01*
G75*
G02*
X212802000Y-132850000I0J-102000D01*
G01*
G37*
G36*
G01*
X210142000Y-132850000D02*
X210142000Y-133850000D01*
G75*
G02*
X210040000Y-133952000I-102000J0D01*
G01*
X208940000Y-133952000D01*
G75*
G02*
X208838000Y-133850000I0J102000D01*
G01*
X208838000Y-132850000D01*
G75*
G02*
X208940000Y-132748000I102000J0D01*
G01*
X210040000Y-132748000D01*
G75*
G02*
X210142000Y-132850000I0J-102000D01*
G01*
G37*
G36*
G01*
X202642000Y-132850000D02*
X202642000Y-133850000D01*
G75*
G02*
X202540000Y-133952000I-102000J0D01*
G01*
X201440000Y-133952000D01*
G75*
G02*
X201338000Y-133850000I0J102000D01*
G01*
X201338000Y-132850000D01*
G75*
G02*
X201440000Y-132748000I102000J0D01*
G01*
X202540000Y-132748000D01*
G75*
G02*
X202642000Y-132850000I0J-102000D01*
G01*
G37*
G36*
G01*
X199982000Y-132850000D02*
X199982000Y-133850000D01*
G75*
G02*
X199880000Y-133952000I-102000J0D01*
G01*
X198780000Y-133952000D01*
G75*
G02*
X198678000Y-133850000I0J102000D01*
G01*
X198678000Y-132850000D01*
G75*
G02*
X198780000Y-132748000I102000J0D01*
G01*
X199880000Y-132748000D01*
G75*
G02*
X199982000Y-132850000I0J-102000D01*
G01*
G37*
G36*
G01*
X192482000Y-132850000D02*
X192482000Y-133850000D01*
G75*
G02*
X192380000Y-133952000I-102000J0D01*
G01*
X191280000Y-133952000D01*
G75*
G02*
X191178000Y-133850000I0J102000D01*
G01*
X191178000Y-132850000D01*
G75*
G02*
X191280000Y-132748000I102000J0D01*
G01*
X192380000Y-132748000D01*
G75*
G02*
X192482000Y-132850000I0J-102000D01*
G01*
G37*
G36*
G01*
X204000100Y-91674950D02*
X204000100Y-91205050D01*
G75*
G02*
X204235050Y-90970100I234950J0D01*
G01*
X204704950Y-90970100D01*
G75*
G02*
X204939900Y-91205050I0J-234950D01*
G01*
X204939900Y-91674950D01*
G75*
G02*
X204704950Y-91909900I-234950J0D01*
G01*
X204235050Y-91909900D01*
G75*
G02*
X204000100Y-91674950I0J234950D01*
G01*
G37*
G36*
G01*
X206540100Y-91674950D02*
X206540100Y-91205050D01*
G75*
G02*
X206775050Y-90970100I234950J0D01*
G01*
X207244950Y-90970100D01*
G75*
G02*
X207479900Y-91205050I0J-234950D01*
G01*
X207479900Y-91674950D01*
G75*
G02*
X207244950Y-91909900I-234950J0D01*
G01*
X206775050Y-91909900D01*
G75*
G02*
X206540100Y-91674950I0J234950D01*
G01*
G37*
G36*
G01*
X205270100Y-91674950D02*
X205270100Y-91205050D01*
G75*
G02*
X205505050Y-90970100I234950J0D01*
G01*
X205974950Y-90970100D01*
G75*
G02*
X206209900Y-91205050I0J-234950D01*
G01*
X206209900Y-91674950D01*
G75*
G02*
X205974950Y-91909900I-234950J0D01*
G01*
X205505050Y-91909900D01*
G75*
G02*
X205270100Y-91674950I0J234950D01*
G01*
G37*
G36*
G01*
X204000100Y-96881950D02*
X204000100Y-96412050D01*
G75*
G02*
X204235050Y-96177100I234950J0D01*
G01*
X204704950Y-96177100D01*
G75*
G02*
X204939900Y-96412050I0J-234950D01*
G01*
X204939900Y-96881950D01*
G75*
G02*
X204704950Y-97116900I-234950J0D01*
G01*
X204235050Y-97116900D01*
G75*
G02*
X204000100Y-96881950I0J234950D01*
G01*
G37*
G36*
G01*
X206540100Y-96881950D02*
X206540100Y-96412050D01*
G75*
G02*
X206775050Y-96177100I234950J0D01*
G01*
X207244950Y-96177100D01*
G75*
G02*
X207479900Y-96412050I0J-234950D01*
G01*
X207479900Y-96881950D01*
G75*
G02*
X207244950Y-97116900I-234950J0D01*
G01*
X206775050Y-97116900D01*
G75*
G02*
X206540100Y-96881950I0J234950D01*
G01*
G37*
G36*
G01*
X205270100Y-96881950D02*
X205270100Y-96412050D01*
G75*
G02*
X205505050Y-96177100I234950J0D01*
G01*
X205974950Y-96177100D01*
G75*
G02*
X206209900Y-96412050I0J-234950D01*
G01*
X206209900Y-96881950D01*
G75*
G02*
X205974950Y-97116900I-234950J0D01*
G01*
X205505050Y-97116900D01*
G75*
G02*
X205270100Y-96881950I0J234950D01*
G01*
G37*
G36*
G01*
X204000100Y-99294950D02*
X204000100Y-98825050D01*
G75*
G02*
X204235050Y-98590100I234950J0D01*
G01*
X204704950Y-98590100D01*
G75*
G02*
X204939900Y-98825050I0J-234950D01*
G01*
X204939900Y-99294950D01*
G75*
G02*
X204704950Y-99529900I-234950J0D01*
G01*
X204235050Y-99529900D01*
G75*
G02*
X204000100Y-99294950I0J234950D01*
G01*
G37*
G36*
G01*
X206540100Y-99294950D02*
X206540100Y-98825050D01*
G75*
G02*
X206775050Y-98590100I234950J0D01*
G01*
X207244950Y-98590100D01*
G75*
G02*
X207479900Y-98825050I0J-234950D01*
G01*
X207479900Y-99294950D01*
G75*
G02*
X207244950Y-99529900I-234950J0D01*
G01*
X206775050Y-99529900D01*
G75*
G02*
X206540100Y-99294950I0J234950D01*
G01*
G37*
G36*
G01*
X205270100Y-99294950D02*
X205270100Y-98825050D01*
G75*
G02*
X205505050Y-98590100I234950J0D01*
G01*
X205974950Y-98590100D01*
G75*
G02*
X206209900Y-98825050I0J-234950D01*
G01*
X206209900Y-99294950D01*
G75*
G02*
X205974950Y-99529900I-234950J0D01*
G01*
X205505050Y-99529900D01*
G75*
G02*
X205270100Y-99294950I0J234950D01*
G01*
G37*
G36*
G01*
X204000100Y-104374950D02*
X204000100Y-103905050D01*
G75*
G02*
X204235050Y-103670100I234950J0D01*
G01*
X204704950Y-103670100D01*
G75*
G02*
X204939900Y-103905050I0J-234950D01*
G01*
X204939900Y-104374950D01*
G75*
G02*
X204704950Y-104609900I-234950J0D01*
G01*
X204235050Y-104609900D01*
G75*
G02*
X204000100Y-104374950I0J234950D01*
G01*
G37*
G36*
G01*
X206540100Y-104374950D02*
X206540100Y-103905050D01*
G75*
G02*
X206775050Y-103670100I234950J0D01*
G01*
X207244950Y-103670100D01*
G75*
G02*
X207479900Y-103905050I0J-234950D01*
G01*
X207479900Y-104374950D01*
G75*
G02*
X207244950Y-104609900I-234950J0D01*
G01*
X206775050Y-104609900D01*
G75*
G02*
X206540100Y-104374950I0J234950D01*
G01*
G37*
G36*
G01*
X205270100Y-104374950D02*
X205270100Y-103905050D01*
G75*
G02*
X205505050Y-103670100I234950J0D01*
G01*
X205974950Y-103670100D01*
G75*
G02*
X206209900Y-103905050I0J-234950D01*
G01*
X206209900Y-104374950D01*
G75*
G02*
X205974950Y-104609900I-234950J0D01*
G01*
X205505050Y-104609900D01*
G75*
G02*
X205270100Y-104374950I0J234950D01*
G01*
G37*
D11*
X205455000Y-123615000D03*
G36*
G01*
X207313000Y-118375000D02*
X203597000Y-118375000D01*
G75*
G02*
X203495000Y-118273000I0J102000D01*
G01*
X203495000Y-114557000D01*
G75*
G02*
X203597000Y-114455000I102000J0D01*
G01*
X207313000Y-114455000D01*
G75*
G02*
X207415000Y-114557000I0J-102000D01*
G01*
X207415000Y-118273000D01*
G75*
G02*
X207313000Y-118375000I-102000J0D01*
G01*
G37*
D12*
X211455000Y-126765000D03*
X211455000Y-113265000D03*
D11*
X169195000Y-117685000D03*
G36*
G01*
X167337000Y-122925000D02*
X171053000Y-122925000D01*
G75*
G02*
X171155000Y-123027000I0J-102000D01*
G01*
X171155000Y-126743000D01*
G75*
G02*
X171053000Y-126845000I-102000J0D01*
G01*
X167337000Y-126845000D01*
G75*
G02*
X167235000Y-126743000I0J102000D01*
G01*
X167235000Y-123027000D01*
G75*
G02*
X167337000Y-122925000I102000J0D01*
G01*
G37*
D12*
X163195000Y-114535000D03*
X163195000Y-128035000D03*
D11*
X169195000Y-100540000D03*
G36*
G01*
X167337000Y-105780000D02*
X171053000Y-105780000D01*
G75*
G02*
X171155000Y-105882000I0J-102000D01*
G01*
X171155000Y-109598000D01*
G75*
G02*
X171053000Y-109700000I-102000J0D01*
G01*
X167337000Y-109700000D01*
G75*
G02*
X167235000Y-109598000I0J102000D01*
G01*
X167235000Y-105882000D01*
G75*
G02*
X167337000Y-105780000I102000J0D01*
G01*
G37*
D12*
X163195000Y-97390000D03*
X163195000Y-110890000D03*
D13*
X155575000Y-89495000D03*
G36*
G01*
X154825000Y-86145000D02*
X156325000Y-86145000D01*
G75*
G02*
X156575000Y-86395000I0J-250000D01*
G01*
X156575000Y-87595000D01*
G75*
G02*
X156325000Y-87845000I-250000J0D01*
G01*
X154825000Y-87845000D01*
G75*
G02*
X154575000Y-87595000I0J250000D01*
G01*
X154575000Y-86395000D01*
G75*
G02*
X154825000Y-86145000I250000J0D01*
G01*
G37*
G36*
G01*
X214090400Y-93460000D02*
X210089600Y-93460000D01*
G75*
G02*
X209840000Y-93210400I0J249600D01*
G01*
X209840000Y-92409600D01*
G75*
G02*
X210089600Y-92160000I249600J0D01*
G01*
X214090400Y-92160000D01*
G75*
G02*
X214340000Y-92409600I0J-249600D01*
G01*
X214340000Y-93210400D01*
G75*
G02*
X214090400Y-93460000I-249600J0D01*
G01*
G37*
G36*
G01*
X220589800Y-90510000D02*
X217190200Y-90510000D01*
G75*
G02*
X216940000Y-90259800I0J250200D01*
G01*
X216940000Y-88960200D01*
G75*
G02*
X217190200Y-88710000I250200J0D01*
G01*
X220589800Y-88710000D01*
G75*
G02*
X220840000Y-88960200I0J-250200D01*
G01*
X220840000Y-90259800D01*
G75*
G02*
X220589800Y-90510000I-250200J0D01*
G01*
G37*
G36*
G01*
X220589800Y-109410000D02*
X217190200Y-109410000D01*
G75*
G02*
X216940000Y-109159800I0J250200D01*
G01*
X216940000Y-107860200D01*
G75*
G02*
X217190200Y-107610000I250200J0D01*
G01*
X220589800Y-107610000D01*
G75*
G02*
X220840000Y-107860200I0J-250200D01*
G01*
X220840000Y-109159800D01*
G75*
G02*
X220589800Y-109410000I-250200J0D01*
G01*
G37*
G36*
G01*
X214090400Y-95960000D02*
X210089600Y-95960000D01*
G75*
G02*
X209840000Y-95710400I0J249600D01*
G01*
X209840000Y-94909600D01*
G75*
G02*
X210089600Y-94660000I249600J0D01*
G01*
X214090400Y-94660000D01*
G75*
G02*
X214340000Y-94909600I0J-249600D01*
G01*
X214340000Y-95710400D01*
G75*
G02*
X214090400Y-95960000I-249600J0D01*
G01*
G37*
G36*
G01*
X214090400Y-98460000D02*
X210089600Y-98460000D01*
G75*
G02*
X209840000Y-98210400I0J249600D01*
G01*
X209840000Y-97409600D01*
G75*
G02*
X210089600Y-97160000I249600J0D01*
G01*
X214090400Y-97160000D01*
G75*
G02*
X214340000Y-97409600I0J-249600D01*
G01*
X214340000Y-98210400D01*
G75*
G02*
X214090400Y-98460000I-249600J0D01*
G01*
G37*
G36*
G01*
X214090400Y-100960000D02*
X210089600Y-100960000D01*
G75*
G02*
X209840000Y-100710400I0J249600D01*
G01*
X209840000Y-99909600D01*
G75*
G02*
X210089600Y-99660000I249600J0D01*
G01*
X214090400Y-99660000D01*
G75*
G02*
X214340000Y-99909600I0J-249600D01*
G01*
X214340000Y-100710400D01*
G75*
G02*
X214090400Y-100960000I-249600J0D01*
G01*
G37*
G36*
G01*
X214090400Y-103460000D02*
X210089600Y-103460000D01*
G75*
G02*
X209840000Y-103210400I0J249600D01*
G01*
X209840000Y-102409600D01*
G75*
G02*
X210089600Y-102160000I249600J0D01*
G01*
X214090400Y-102160000D01*
G75*
G02*
X214340000Y-102409600I0J-249600D01*
G01*
X214340000Y-103210400D01*
G75*
G02*
X214090400Y-103460000I-249600J0D01*
G01*
G37*
G36*
G01*
X214090400Y-105960000D02*
X210089600Y-105960000D01*
G75*
G02*
X209840000Y-105710400I0J249600D01*
G01*
X209840000Y-104909600D01*
G75*
G02*
X210089600Y-104660000I249600J0D01*
G01*
X214090400Y-104660000D01*
G75*
G02*
X214340000Y-104909600I0J-249600D01*
G01*
X214340000Y-105710400D01*
G75*
G02*
X214090400Y-105960000I-249600J0D01*
G01*
G37*
G36*
G01*
X215475000Y-129302500D02*
X215475000Y-129777500D01*
G75*
G02*
X215237500Y-130015000I-237500J0D01*
G01*
X214737500Y-130015000D01*
G75*
G02*
X214500000Y-129777500I0J237500D01*
G01*
X214500000Y-129302500D01*
G75*
G02*
X214737500Y-129065000I237500J0D01*
G01*
X215237500Y-129065000D01*
G75*
G02*
X215475000Y-129302500I0J-237500D01*
G01*
G37*
G36*
G01*
X217300000Y-129302500D02*
X217300000Y-129777500D01*
G75*
G02*
X217062500Y-130015000I-237500J0D01*
G01*
X216562500Y-130015000D01*
G75*
G02*
X216325000Y-129777500I0J237500D01*
G01*
X216325000Y-129302500D01*
G75*
G02*
X216562500Y-129065000I237500J0D01*
G01*
X217062500Y-129065000D01*
G75*
G02*
X217300000Y-129302500I0J-237500D01*
G01*
G37*
G36*
G01*
X183845000Y-94164999D02*
X183845000Y-95065001D01*
G75*
G02*
X183595001Y-95315000I-249999J0D01*
G01*
X182944999Y-95315000D01*
G75*
G02*
X182695000Y-95065001I0J249999D01*
G01*
X182695000Y-94164999D01*
G75*
G02*
X182944999Y-93915000I249999J0D01*
G01*
X183595001Y-93915000D01*
G75*
G02*
X183845000Y-94164999I0J-249999D01*
G01*
G37*
G36*
G01*
X181795000Y-94164999D02*
X181795000Y-95065001D01*
G75*
G02*
X181545001Y-95315000I-249999J0D01*
G01*
X180894999Y-95315000D01*
G75*
G02*
X180645000Y-95065001I0J249999D01*
G01*
X180645000Y-94164999D01*
G75*
G02*
X180894999Y-93915000I249999J0D01*
G01*
X181545001Y-93915000D01*
G75*
G02*
X181795000Y-94164999I0J-249999D01*
G01*
G37*
G36*
G01*
X190195000Y-94164999D02*
X190195000Y-95065001D01*
G75*
G02*
X189945001Y-95315000I-249999J0D01*
G01*
X189294999Y-95315000D01*
G75*
G02*
X189045000Y-95065001I0J249999D01*
G01*
X189045000Y-94164999D01*
G75*
G02*
X189294999Y-93915000I249999J0D01*
G01*
X189945001Y-93915000D01*
G75*
G02*
X190195000Y-94164999I0J-249999D01*
G01*
G37*
G36*
G01*
X188145000Y-94164999D02*
X188145000Y-95065001D01*
G75*
G02*
X187895001Y-95315000I-249999J0D01*
G01*
X187244999Y-95315000D01*
G75*
G02*
X186995000Y-95065001I0J249999D01*
G01*
X186995000Y-94164999D01*
G75*
G02*
X187244999Y-93915000I249999J0D01*
G01*
X187895001Y-93915000D01*
G75*
G02*
X188145000Y-94164999I0J-249999D01*
G01*
G37*
G36*
G01*
X196545000Y-94164999D02*
X196545000Y-95065001D01*
G75*
G02*
X196295001Y-95315000I-249999J0D01*
G01*
X195644999Y-95315000D01*
G75*
G02*
X195395000Y-95065001I0J249999D01*
G01*
X195395000Y-94164999D01*
G75*
G02*
X195644999Y-93915000I249999J0D01*
G01*
X196295001Y-93915000D01*
G75*
G02*
X196545000Y-94164999I0J-249999D01*
G01*
G37*
G36*
G01*
X194495000Y-94164999D02*
X194495000Y-95065001D01*
G75*
G02*
X194245001Y-95315000I-249999J0D01*
G01*
X193594999Y-95315000D01*
G75*
G02*
X193345000Y-95065001I0J249999D01*
G01*
X193345000Y-94164999D01*
G75*
G02*
X193594999Y-93915000I249999J0D01*
G01*
X194245001Y-93915000D01*
G75*
G02*
X194495000Y-94164999I0J-249999D01*
G01*
G37*
G36*
G01*
X175445000Y-94164999D02*
X175445000Y-95065001D01*
G75*
G02*
X175195001Y-95315000I-249999J0D01*
G01*
X174544999Y-95315000D01*
G75*
G02*
X174295000Y-95065001I0J249999D01*
G01*
X174295000Y-94164999D01*
G75*
G02*
X174544999Y-93915000I249999J0D01*
G01*
X175195001Y-93915000D01*
G75*
G02*
X175445000Y-94164999I0J-249999D01*
G01*
G37*
G36*
G01*
X177495000Y-94164999D02*
X177495000Y-95065001D01*
G75*
G02*
X177245001Y-95315000I-249999J0D01*
G01*
X176594999Y-95315000D01*
G75*
G02*
X176345000Y-95065001I0J249999D01*
G01*
X176345000Y-94164999D01*
G75*
G02*
X176594999Y-93915000I249999J0D01*
G01*
X177245001Y-93915000D01*
G75*
G02*
X177495000Y-94164999I0J-249999D01*
G01*
G37*
G36*
G01*
X189660000Y-70000000D02*
X189660000Y-69700000D01*
G75*
G02*
X189810000Y-69550000I150000J0D01*
G01*
X191260000Y-69550000D01*
G75*
G02*
X191410000Y-69700000I0J-150000D01*
G01*
X191410000Y-70000000D01*
G75*
G02*
X191260000Y-70150000I-150000J0D01*
G01*
X189810000Y-70150000D01*
G75*
G02*
X189660000Y-70000000I0J150000D01*
G01*
G37*
G36*
G01*
X189660000Y-71270000D02*
X189660000Y-70970000D01*
G75*
G02*
X189810000Y-70820000I150000J0D01*
G01*
X191260000Y-70820000D01*
G75*
G02*
X191410000Y-70970000I0J-150000D01*
G01*
X191410000Y-71270000D01*
G75*
G02*
X191260000Y-71420000I-150000J0D01*
G01*
X189810000Y-71420000D01*
G75*
G02*
X189660000Y-71270000I0J150000D01*
G01*
G37*
G36*
G01*
X189660000Y-72540000D02*
X189660000Y-72240000D01*
G75*
G02*
X189810000Y-72090000I150000J0D01*
G01*
X191260000Y-72090000D01*
G75*
G02*
X191410000Y-72240000I0J-150000D01*
G01*
X191410000Y-72540000D01*
G75*
G02*
X191260000Y-72690000I-150000J0D01*
G01*
X189810000Y-72690000D01*
G75*
G02*
X189660000Y-72540000I0J150000D01*
G01*
G37*
G36*
G01*
X189660000Y-73810000D02*
X189660000Y-73510000D01*
G75*
G02*
X189810000Y-73360000I150000J0D01*
G01*
X191260000Y-73360000D01*
G75*
G02*
X191410000Y-73510000I0J-150000D01*
G01*
X191410000Y-73810000D01*
G75*
G02*
X191260000Y-73960000I-150000J0D01*
G01*
X189810000Y-73960000D01*
G75*
G02*
X189660000Y-73810000I0J150000D01*
G01*
G37*
G36*
G01*
X184510000Y-73810000D02*
X184510000Y-73510000D01*
G75*
G02*
X184660000Y-73360000I150000J0D01*
G01*
X186110000Y-73360000D01*
G75*
G02*
X186260000Y-73510000I0J-150000D01*
G01*
X186260000Y-73810000D01*
G75*
G02*
X186110000Y-73960000I-150000J0D01*
G01*
X184660000Y-73960000D01*
G75*
G02*
X184510000Y-73810000I0J150000D01*
G01*
G37*
G36*
G01*
X184510000Y-72540000D02*
X184510000Y-72240000D01*
G75*
G02*
X184660000Y-72090000I150000J0D01*
G01*
X186110000Y-72090000D01*
G75*
G02*
X186260000Y-72240000I0J-150000D01*
G01*
X186260000Y-72540000D01*
G75*
G02*
X186110000Y-72690000I-150000J0D01*
G01*
X184660000Y-72690000D01*
G75*
G02*
X184510000Y-72540000I0J150000D01*
G01*
G37*
G36*
G01*
X184510000Y-71270000D02*
X184510000Y-70970000D01*
G75*
G02*
X184660000Y-70820000I150000J0D01*
G01*
X186110000Y-70820000D01*
G75*
G02*
X186260000Y-70970000I0J-150000D01*
G01*
X186260000Y-71270000D01*
G75*
G02*
X186110000Y-71420000I-150000J0D01*
G01*
X184660000Y-71420000D01*
G75*
G02*
X184510000Y-71270000I0J150000D01*
G01*
G37*
G36*
G01*
X184510000Y-70000000D02*
X184510000Y-69700000D01*
G75*
G02*
X184660000Y-69550000I150000J0D01*
G01*
X186110000Y-69550000D01*
G75*
G02*
X186260000Y-69700000I0J-150000D01*
G01*
X186260000Y-70000000D01*
G75*
G02*
X186110000Y-70150000I-150000J0D01*
G01*
X184660000Y-70150000D01*
G75*
G02*
X184510000Y-70000000I0J150000D01*
G01*
G37*
D14*
X185500000Y-133350000D03*
X177170000Y-133350000D03*
X164470000Y-133350000D03*
X156140000Y-133350000D03*
D15*
X205105000Y-67310000D03*
X207645000Y-68580000D03*
X205105000Y-69850000D03*
X207645000Y-71120000D03*
X205105000Y-72390000D03*
X207645000Y-73660000D03*
X205105000Y-74930000D03*
D16*
X207645000Y-76200000D03*
D17*
X213995000Y-77470000D03*
X213995000Y-66040000D03*
G36*
G01*
X173999999Y-80275000D02*
X175250001Y-80275000D01*
G75*
G02*
X175500000Y-80524999I0J-249999D01*
G01*
X175500000Y-81325001D01*
G75*
G02*
X175250001Y-81575000I-249999J0D01*
G01*
X173999999Y-81575000D01*
G75*
G02*
X173750000Y-81325001I0J249999D01*
G01*
X173750000Y-80524999D01*
G75*
G02*
X173999999Y-80275000I249999J0D01*
G01*
G37*
G36*
G01*
X173999999Y-77175000D02*
X175250001Y-77175000D01*
G75*
G02*
X175500000Y-77424999I0J-249999D01*
G01*
X175500000Y-78225001D01*
G75*
G02*
X175250001Y-78475000I-249999J0D01*
G01*
X173999999Y-78475000D01*
G75*
G02*
X173750000Y-78225001I0J249999D01*
G01*
X173750000Y-77424999D01*
G75*
G02*
X173999999Y-77175000I249999J0D01*
G01*
G37*
G36*
G01*
X205315000Y-129302500D02*
X205315000Y-129777500D01*
G75*
G02*
X205077500Y-130015000I-237500J0D01*
G01*
X204577500Y-130015000D01*
G75*
G02*
X204340000Y-129777500I0J237500D01*
G01*
X204340000Y-129302500D01*
G75*
G02*
X204577500Y-129065000I237500J0D01*
G01*
X205077500Y-129065000D01*
G75*
G02*
X205315000Y-129302500I0J-237500D01*
G01*
G37*
G36*
G01*
X207140000Y-129302500D02*
X207140000Y-129777500D01*
G75*
G02*
X206902500Y-130015000I-237500J0D01*
G01*
X206402500Y-130015000D01*
G75*
G02*
X206165000Y-129777500I0J237500D01*
G01*
X206165000Y-129302500D01*
G75*
G02*
X206402500Y-129065000I237500J0D01*
G01*
X206902500Y-129065000D01*
G75*
G02*
X207140000Y-129302500I0J-237500D01*
G01*
G37*
G36*
G01*
X182645000Y-92525001D02*
X182645000Y-91624999D01*
G75*
G02*
X182894999Y-91375000I249999J0D01*
G01*
X183595001Y-91375000D01*
G75*
G02*
X183845000Y-91624999I0J-249999D01*
G01*
X183845000Y-92525001D01*
G75*
G02*
X183595001Y-92775000I-249999J0D01*
G01*
X182894999Y-92775000D01*
G75*
G02*
X182645000Y-92525001I0J249999D01*
G01*
G37*
G36*
G01*
X180645000Y-92525001D02*
X180645000Y-91624999D01*
G75*
G02*
X180894999Y-91375000I249999J0D01*
G01*
X181595001Y-91375000D01*
G75*
G02*
X181845000Y-91624999I0J-249999D01*
G01*
X181845000Y-92525001D01*
G75*
G02*
X181595001Y-92775000I-249999J0D01*
G01*
X180894999Y-92775000D01*
G75*
G02*
X180645000Y-92525001I0J249999D01*
G01*
G37*
G36*
G01*
X195155000Y-129302500D02*
X195155000Y-129777500D01*
G75*
G02*
X194917500Y-130015000I-237500J0D01*
G01*
X194417500Y-130015000D01*
G75*
G02*
X194180000Y-129777500I0J237500D01*
G01*
X194180000Y-129302500D01*
G75*
G02*
X194417500Y-129065000I237500J0D01*
G01*
X194917500Y-129065000D01*
G75*
G02*
X195155000Y-129302500I0J-237500D01*
G01*
G37*
G36*
G01*
X196980000Y-129302500D02*
X196980000Y-129777500D01*
G75*
G02*
X196742500Y-130015000I-237500J0D01*
G01*
X196242500Y-130015000D01*
G75*
G02*
X196005000Y-129777500I0J237500D01*
G01*
X196005000Y-129302500D01*
G75*
G02*
X196242500Y-129065000I237500J0D01*
G01*
X196742500Y-129065000D01*
G75*
G02*
X196980000Y-129302500I0J-237500D01*
G01*
G37*
G36*
G01*
X188995000Y-92525001D02*
X188995000Y-91624999D01*
G75*
G02*
X189244999Y-91375000I249999J0D01*
G01*
X189945001Y-91375000D01*
G75*
G02*
X190195000Y-91624999I0J-249999D01*
G01*
X190195000Y-92525001D01*
G75*
G02*
X189945001Y-92775000I-249999J0D01*
G01*
X189244999Y-92775000D01*
G75*
G02*
X188995000Y-92525001I0J249999D01*
G01*
G37*
G36*
G01*
X186995000Y-92525001D02*
X186995000Y-91624999D01*
G75*
G02*
X187244999Y-91375000I249999J0D01*
G01*
X187945001Y-91375000D01*
G75*
G02*
X188195000Y-91624999I0J-249999D01*
G01*
X188195000Y-92525001D01*
G75*
G02*
X187945001Y-92775000I-249999J0D01*
G01*
X187244999Y-92775000D01*
G75*
G02*
X186995000Y-92525001I0J249999D01*
G01*
G37*
G36*
G01*
X195345000Y-92525001D02*
X195345000Y-91624999D01*
G75*
G02*
X195594999Y-91375000I249999J0D01*
G01*
X196295001Y-91375000D01*
G75*
G02*
X196545000Y-91624999I0J-249999D01*
G01*
X196545000Y-92525001D01*
G75*
G02*
X196295001Y-92775000I-249999J0D01*
G01*
X195594999Y-92775000D01*
G75*
G02*
X195345000Y-92525001I0J249999D01*
G01*
G37*
G36*
G01*
X193345000Y-92525001D02*
X193345000Y-91624999D01*
G75*
G02*
X193594999Y-91375000I249999J0D01*
G01*
X194295001Y-91375000D01*
G75*
G02*
X194545000Y-91624999I0J-249999D01*
G01*
X194545000Y-92525001D01*
G75*
G02*
X194295001Y-92775000I-249999J0D01*
G01*
X193594999Y-92775000D01*
G75*
G02*
X193345000Y-92525001I0J249999D01*
G01*
G37*
G36*
G01*
X176295000Y-92525001D02*
X176295000Y-91624999D01*
G75*
G02*
X176544999Y-91375000I249999J0D01*
G01*
X177245001Y-91375000D01*
G75*
G02*
X177495000Y-91624999I0J-249999D01*
G01*
X177495000Y-92525001D01*
G75*
G02*
X177245001Y-92775000I-249999J0D01*
G01*
X176544999Y-92775000D01*
G75*
G02*
X176295000Y-92525001I0J249999D01*
G01*
G37*
G36*
G01*
X174295000Y-92525001D02*
X174295000Y-91624999D01*
G75*
G02*
X174544999Y-91375000I249999J0D01*
G01*
X175245001Y-91375000D01*
G75*
G02*
X175495000Y-91624999I0J-249999D01*
G01*
X175495000Y-92525001D01*
G75*
G02*
X175245001Y-92775000I-249999J0D01*
G01*
X174544999Y-92775000D01*
G75*
G02*
X174295000Y-92525001I0J249999D01*
G01*
G37*
D15*
X169545000Y-76200000D03*
X167005000Y-74930000D03*
X169545000Y-73660000D03*
X167005000Y-72390000D03*
X169545000Y-71120000D03*
X167005000Y-69850000D03*
X169545000Y-68580000D03*
D16*
X167005000Y-67310000D03*
D17*
X160655000Y-66040000D03*
X160655000Y-77470000D03*
G36*
G01*
X182007500Y-72080000D02*
X182482500Y-72080000D01*
G75*
G02*
X182720000Y-72317500I0J-237500D01*
G01*
X182720000Y-72917500D01*
G75*
G02*
X182482500Y-73155000I-237500J0D01*
G01*
X182007500Y-73155000D01*
G75*
G02*
X181770000Y-72917500I0J237500D01*
G01*
X181770000Y-72317500D01*
G75*
G02*
X182007500Y-72080000I237500J0D01*
G01*
G37*
G36*
G01*
X182007500Y-70355000D02*
X182482500Y-70355000D01*
G75*
G02*
X182720000Y-70592500I0J-237500D01*
G01*
X182720000Y-71192500D01*
G75*
G02*
X182482500Y-71430000I-237500J0D01*
G01*
X182007500Y-71430000D01*
G75*
G02*
X181770000Y-71192500I0J237500D01*
G01*
X181770000Y-70592500D01*
G75*
G02*
X182007500Y-70355000I237500J0D01*
G01*
G37*
G36*
G01*
X180577500Y-79050000D02*
X180102500Y-79050000D01*
G75*
G02*
X179865000Y-78812500I0J237500D01*
G01*
X179865000Y-78212500D01*
G75*
G02*
X180102500Y-77975000I237500J0D01*
G01*
X180577500Y-77975000D01*
G75*
G02*
X180815000Y-78212500I0J-237500D01*
G01*
X180815000Y-78812500D01*
G75*
G02*
X180577500Y-79050000I-237500J0D01*
G01*
G37*
G36*
G01*
X180577500Y-80775000D02*
X180102500Y-80775000D01*
G75*
G02*
X179865000Y-80537500I0J237500D01*
G01*
X179865000Y-79937500D01*
G75*
G02*
X180102500Y-79700000I237500J0D01*
G01*
X180577500Y-79700000D01*
G75*
G02*
X180815000Y-79937500I0J-237500D01*
G01*
X180815000Y-80537500D01*
G75*
G02*
X180577500Y-80775000I-237500J0D01*
G01*
G37*
G36*
G01*
X178037500Y-79050000D02*
X177562500Y-79050000D01*
G75*
G02*
X177325000Y-78812500I0J237500D01*
G01*
X177325000Y-78212500D01*
G75*
G02*
X177562500Y-77975000I237500J0D01*
G01*
X178037500Y-77975000D01*
G75*
G02*
X178275000Y-78212500I0J-237500D01*
G01*
X178275000Y-78812500D01*
G75*
G02*
X178037500Y-79050000I-237500J0D01*
G01*
G37*
G36*
G01*
X178037500Y-80775000D02*
X177562500Y-80775000D01*
G75*
G02*
X177325000Y-80537500I0J237500D01*
G01*
X177325000Y-79937500D01*
G75*
G02*
X177562500Y-79700000I237500J0D01*
G01*
X178037500Y-79700000D01*
G75*
G02*
X178275000Y-79937500I0J-237500D01*
G01*
X178275000Y-80537500D01*
G75*
G02*
X178037500Y-80775000I-237500J0D01*
G01*
G37*
M02*
