G04 #@! TF.GenerationSoftware,KiCad,Pcbnew,(5.1.9)-1*
G04 #@! TF.CreationDate,2024-04-03T19:01:00-04:00*
G04 #@! TF.ProjectId,Shield Drive Moteur DC,53686965-6c64-4204-9472-697665204d6f,rev?*
G04 #@! TF.SameCoordinates,Original*
G04 #@! TF.FileFunction,Soldermask,Bot*
G04 #@! TF.FilePolarity,Negative*
%FSLAX46Y46*%
G04 Gerber Fmt 4.6, Leading zero omitted, Abs format (unit mm)*
G04 Created by KiCad (PCBNEW (5.1.9)-1) date 2024-04-03 19:01:00*
%MOMM*%
%LPD*%
G01*
G04 APERTURE LIST*
%ADD10C,2.204000*%
%ADD11C,3.920000*%
%ADD12O,2.604000X1.404000*%
%ADD13O,2.000000X1.700000*%
%ADD14C,5.794000*%
%ADD15C,1.500000*%
%ADD16R,1.500000X1.500000*%
%ADD17C,3.200000*%
G04 APERTURE END LIST*
G36*
G01*
X173445000Y-86192000D02*
X171445000Y-86192000D01*
G75*
G02*
X171343000Y-86090000I0J102000D01*
G01*
X171343000Y-84090000D01*
G75*
G02*
X171445000Y-83988000I102000J0D01*
G01*
X173445000Y-83988000D01*
G75*
G02*
X173547000Y-84090000I0J-102000D01*
G01*
X173547000Y-86090000D01*
G75*
G02*
X173445000Y-86192000I-102000J0D01*
G01*
G37*
D10*
X174985000Y-85090000D03*
X177525000Y-85090000D03*
X180065000Y-85090000D03*
X182605000Y-85090000D03*
X185145000Y-85090000D03*
X187685000Y-85090000D03*
X190225000Y-85090000D03*
X192765000Y-85090000D03*
X195305000Y-85090000D03*
X197845000Y-85090000D03*
X200385000Y-85090000D03*
X202925000Y-85090000D03*
X205465000Y-85090000D03*
X208005000Y-85090000D03*
X172445000Y-59690000D03*
X174985000Y-59690000D03*
X177525000Y-59690000D03*
X180065000Y-59690000D03*
X182605000Y-59690000D03*
X185145000Y-59690000D03*
X187685000Y-59690000D03*
X190225000Y-59690000D03*
X192765000Y-59690000D03*
X195305000Y-59690000D03*
X197845000Y-59690000D03*
X200385000Y-59690000D03*
X202925000Y-59690000D03*
X205465000Y-59690000D03*
X208005000Y-59690000D03*
D11*
X205455000Y-123615000D03*
G36*
G01*
X207313000Y-118375000D02*
X203597000Y-118375000D01*
G75*
G02*
X203495000Y-118273000I0J102000D01*
G01*
X203495000Y-114557000D01*
G75*
G02*
X203597000Y-114455000I102000J0D01*
G01*
X207313000Y-114455000D01*
G75*
G02*
X207415000Y-114557000I0J-102000D01*
G01*
X207415000Y-118273000D01*
G75*
G02*
X207313000Y-118375000I-102000J0D01*
G01*
G37*
D12*
X211455000Y-126765000D03*
X211455000Y-113265000D03*
D11*
X169195000Y-117685000D03*
G36*
G01*
X167337000Y-122925000D02*
X171053000Y-122925000D01*
G75*
G02*
X171155000Y-123027000I0J-102000D01*
G01*
X171155000Y-126743000D01*
G75*
G02*
X171053000Y-126845000I-102000J0D01*
G01*
X167337000Y-126845000D01*
G75*
G02*
X167235000Y-126743000I0J102000D01*
G01*
X167235000Y-123027000D01*
G75*
G02*
X167337000Y-122925000I102000J0D01*
G01*
G37*
D12*
X163195000Y-114535000D03*
X163195000Y-128035000D03*
D11*
X169195000Y-100540000D03*
G36*
G01*
X167337000Y-105780000D02*
X171053000Y-105780000D01*
G75*
G02*
X171155000Y-105882000I0J-102000D01*
G01*
X171155000Y-109598000D01*
G75*
G02*
X171053000Y-109700000I-102000J0D01*
G01*
X167337000Y-109700000D01*
G75*
G02*
X167235000Y-109598000I0J102000D01*
G01*
X167235000Y-105882000D01*
G75*
G02*
X167337000Y-105780000I102000J0D01*
G01*
G37*
D12*
X163195000Y-97390000D03*
X163195000Y-110890000D03*
D13*
X155575000Y-89495000D03*
G36*
G01*
X154825000Y-86145000D02*
X156325000Y-86145000D01*
G75*
G02*
X156575000Y-86395000I0J-250000D01*
G01*
X156575000Y-87595000D01*
G75*
G02*
X156325000Y-87845000I-250000J0D01*
G01*
X154825000Y-87845000D01*
G75*
G02*
X154575000Y-87595000I0J250000D01*
G01*
X154575000Y-86395000D01*
G75*
G02*
X154825000Y-86145000I250000J0D01*
G01*
G37*
G36*
G01*
X210089600Y-104660000D02*
X214090400Y-104660000D01*
G75*
G02*
X214340000Y-104909600I0J-249600D01*
G01*
X214340000Y-105710400D01*
G75*
G02*
X214090400Y-105960000I-249600J0D01*
G01*
X210089600Y-105960000D01*
G75*
G02*
X209840000Y-105710400I0J249600D01*
G01*
X209840000Y-104909600D01*
G75*
G02*
X210089600Y-104660000I249600J0D01*
G01*
G37*
G36*
G01*
X217190200Y-107610000D02*
X220589800Y-107610000D01*
G75*
G02*
X220840000Y-107860200I0J-250200D01*
G01*
X220840000Y-109159800D01*
G75*
G02*
X220589800Y-109410000I-250200J0D01*
G01*
X217190200Y-109410000D01*
G75*
G02*
X216940000Y-109159800I0J250200D01*
G01*
X216940000Y-107860200D01*
G75*
G02*
X217190200Y-107610000I250200J0D01*
G01*
G37*
G36*
G01*
X217190200Y-88710000D02*
X220589800Y-88710000D01*
G75*
G02*
X220840000Y-88960200I0J-250200D01*
G01*
X220840000Y-90259800D01*
G75*
G02*
X220589800Y-90510000I-250200J0D01*
G01*
X217190200Y-90510000D01*
G75*
G02*
X216940000Y-90259800I0J250200D01*
G01*
X216940000Y-88960200D01*
G75*
G02*
X217190200Y-88710000I250200J0D01*
G01*
G37*
G36*
G01*
X210089600Y-102160000D02*
X214090400Y-102160000D01*
G75*
G02*
X214340000Y-102409600I0J-249600D01*
G01*
X214340000Y-103210400D01*
G75*
G02*
X214090400Y-103460000I-249600J0D01*
G01*
X210089600Y-103460000D01*
G75*
G02*
X209840000Y-103210400I0J249600D01*
G01*
X209840000Y-102409600D01*
G75*
G02*
X210089600Y-102160000I249600J0D01*
G01*
G37*
G36*
G01*
X210089600Y-99660000D02*
X214090400Y-99660000D01*
G75*
G02*
X214340000Y-99909600I0J-249600D01*
G01*
X214340000Y-100710400D01*
G75*
G02*
X214090400Y-100960000I-249600J0D01*
G01*
X210089600Y-100960000D01*
G75*
G02*
X209840000Y-100710400I0J249600D01*
G01*
X209840000Y-99909600D01*
G75*
G02*
X210089600Y-99660000I249600J0D01*
G01*
G37*
G36*
G01*
X210089600Y-97160000D02*
X214090400Y-97160000D01*
G75*
G02*
X214340000Y-97409600I0J-249600D01*
G01*
X214340000Y-98210400D01*
G75*
G02*
X214090400Y-98460000I-249600J0D01*
G01*
X210089600Y-98460000D01*
G75*
G02*
X209840000Y-98210400I0J249600D01*
G01*
X209840000Y-97409600D01*
G75*
G02*
X210089600Y-97160000I249600J0D01*
G01*
G37*
G36*
G01*
X210089600Y-94660000D02*
X214090400Y-94660000D01*
G75*
G02*
X214340000Y-94909600I0J-249600D01*
G01*
X214340000Y-95710400D01*
G75*
G02*
X214090400Y-95960000I-249600J0D01*
G01*
X210089600Y-95960000D01*
G75*
G02*
X209840000Y-95710400I0J249600D01*
G01*
X209840000Y-94909600D01*
G75*
G02*
X210089600Y-94660000I249600J0D01*
G01*
G37*
G36*
G01*
X210089600Y-92160000D02*
X214090400Y-92160000D01*
G75*
G02*
X214340000Y-92409600I0J-249600D01*
G01*
X214340000Y-93210400D01*
G75*
G02*
X214090400Y-93460000I-249600J0D01*
G01*
X210089600Y-93460000D01*
G75*
G02*
X209840000Y-93210400I0J249600D01*
G01*
X209840000Y-92409600D01*
G75*
G02*
X210089600Y-92160000I249600J0D01*
G01*
G37*
D14*
X185500000Y-133350000D03*
X177170000Y-133350000D03*
X164470000Y-133350000D03*
X156140000Y-133350000D03*
D15*
X205105000Y-67310000D03*
X207645000Y-68580000D03*
X205105000Y-69850000D03*
X207645000Y-71120000D03*
X205105000Y-72390000D03*
X207645000Y-73660000D03*
X205105000Y-74930000D03*
D16*
X207645000Y-76200000D03*
D17*
X213995000Y-77470000D03*
X213995000Y-66040000D03*
D15*
X169545000Y-76200000D03*
X167005000Y-74930000D03*
X169545000Y-73660000D03*
X167005000Y-72390000D03*
X169545000Y-71120000D03*
X167005000Y-69850000D03*
X169545000Y-68580000D03*
D16*
X167005000Y-67310000D03*
D17*
X160655000Y-66040000D03*
X160655000Y-77470000D03*
M02*
