G04 #@! TF.GenerationSoftware,KiCad,Pcbnew,(5.1.9)-1*
G04 #@! TF.CreationDate,2024-04-03T19:00:59-04:00*
G04 #@! TF.ProjectId,Shield Drive Moteur DC,53686965-6c64-4204-9472-697665204d6f,rev?*
G04 #@! TF.SameCoordinates,Original*
G04 #@! TF.FileFunction,Copper,L4,Bot*
G04 #@! TF.FilePolarity,Positive*
%FSLAX46Y46*%
G04 Gerber Fmt 4.6, Leading zero omitted, Abs format (unit mm)*
G04 Created by KiCad (PCBNEW (5.1.9)-1) date 2024-04-03 19:00:59*
%MOMM*%
%LPD*%
G01*
G04 APERTURE LIST*
G04 #@! TA.AperFunction,ComponentPad*
%ADD10R,2.000000X2.000000*%
G04 #@! TD*
G04 #@! TA.AperFunction,ComponentPad*
%ADD11C,2.000000*%
G04 #@! TD*
G04 #@! TA.AperFunction,ComponentPad*
%ADD12C,3.716000*%
G04 #@! TD*
G04 #@! TA.AperFunction,ComponentPad*
%ADD13R,3.716000X3.716000*%
G04 #@! TD*
G04 #@! TA.AperFunction,ComponentPad*
%ADD14O,2.400000X1.200000*%
G04 #@! TD*
G04 #@! TA.AperFunction,ComponentPad*
%ADD15O,2.000000X1.700000*%
G04 #@! TD*
G04 #@! TA.AperFunction,ComponentPad*
%ADD16C,5.590000*%
G04 #@! TD*
G04 #@! TA.AperFunction,ComponentPad*
%ADD17C,1.500000*%
G04 #@! TD*
G04 #@! TA.AperFunction,ComponentPad*
%ADD18R,1.500000X1.500000*%
G04 #@! TD*
G04 #@! TA.AperFunction,ViaPad*
%ADD19C,0.800000*%
G04 #@! TD*
G04 #@! TA.AperFunction,ViaPad*
%ADD20C,1.016000*%
G04 #@! TD*
G04 #@! TA.AperFunction,Conductor*
%ADD21C,0.508000*%
G04 #@! TD*
G04 #@! TA.AperFunction,Conductor*
%ADD22C,0.304800*%
G04 #@! TD*
G04 #@! TA.AperFunction,Conductor*
%ADD23C,0.254000*%
G04 #@! TD*
G04 #@! TA.AperFunction,Conductor*
%ADD24C,0.100000*%
G04 #@! TD*
G04 #@! TA.AperFunction,Conductor*
%ADD25C,0.381000*%
G04 #@! TD*
G04 APERTURE END LIST*
D10*
X172445000Y-85090000D03*
D11*
X174985000Y-85090000D03*
X177525000Y-85090000D03*
X180065000Y-85090000D03*
X182605000Y-85090000D03*
X185145000Y-85090000D03*
X187685000Y-85090000D03*
X190225000Y-85090000D03*
X192765000Y-85090000D03*
X195305000Y-85090000D03*
X197845000Y-85090000D03*
X200385000Y-85090000D03*
X202925000Y-85090000D03*
X205465000Y-85090000D03*
X208005000Y-85090000D03*
X172445000Y-59690000D03*
X174985000Y-59690000D03*
X177525000Y-59690000D03*
X180065000Y-59690000D03*
X182605000Y-59690000D03*
X185145000Y-59690000D03*
X187685000Y-59690000D03*
X190225000Y-59690000D03*
X192765000Y-59690000D03*
X195305000Y-59690000D03*
X197845000Y-59690000D03*
X200385000Y-59690000D03*
X202925000Y-59690000D03*
X205465000Y-59690000D03*
X208005000Y-59690000D03*
D12*
X205455000Y-123615000D03*
D13*
X205455000Y-116415000D03*
D14*
X211455000Y-126765000D03*
X211455000Y-113265000D03*
D12*
X169195000Y-117685000D03*
D13*
X169195000Y-124885000D03*
D14*
X163195000Y-114535000D03*
X163195000Y-128035000D03*
D12*
X169195000Y-100540000D03*
D13*
X169195000Y-107740000D03*
D14*
X163195000Y-97390000D03*
X163195000Y-110890000D03*
D15*
X155575000Y-89495000D03*
G04 #@! TA.AperFunction,ComponentPad*
G36*
G01*
X154825000Y-86145000D02*
X156325000Y-86145000D01*
G75*
G02*
X156575000Y-86395000I0J-250000D01*
G01*
X156575000Y-87595000D01*
G75*
G02*
X156325000Y-87845000I-250000J0D01*
G01*
X154825000Y-87845000D01*
G75*
G02*
X154575000Y-87595000I0J250000D01*
G01*
X154575000Y-86395000D01*
G75*
G02*
X154825000Y-86145000I250000J0D01*
G01*
G37*
G04 #@! TD.AperFunction*
G04 #@! TA.AperFunction,SMDPad,CuDef*
G36*
G01*
X210089600Y-104660000D02*
X214090400Y-104660000D01*
G75*
G02*
X214340000Y-104909600I0J-249600D01*
G01*
X214340000Y-105710400D01*
G75*
G02*
X214090400Y-105960000I-249600J0D01*
G01*
X210089600Y-105960000D01*
G75*
G02*
X209840000Y-105710400I0J249600D01*
G01*
X209840000Y-104909600D01*
G75*
G02*
X210089600Y-104660000I249600J0D01*
G01*
G37*
G04 #@! TD.AperFunction*
G04 #@! TA.AperFunction,SMDPad,CuDef*
G36*
G01*
X217190200Y-107610000D02*
X220589800Y-107610000D01*
G75*
G02*
X220840000Y-107860200I0J-250200D01*
G01*
X220840000Y-109159800D01*
G75*
G02*
X220589800Y-109410000I-250200J0D01*
G01*
X217190200Y-109410000D01*
G75*
G02*
X216940000Y-109159800I0J250200D01*
G01*
X216940000Y-107860200D01*
G75*
G02*
X217190200Y-107610000I250200J0D01*
G01*
G37*
G04 #@! TD.AperFunction*
G04 #@! TA.AperFunction,SMDPad,CuDef*
G36*
G01*
X217190200Y-88710000D02*
X220589800Y-88710000D01*
G75*
G02*
X220840000Y-88960200I0J-250200D01*
G01*
X220840000Y-90259800D01*
G75*
G02*
X220589800Y-90510000I-250200J0D01*
G01*
X217190200Y-90510000D01*
G75*
G02*
X216940000Y-90259800I0J250200D01*
G01*
X216940000Y-88960200D01*
G75*
G02*
X217190200Y-88710000I250200J0D01*
G01*
G37*
G04 #@! TD.AperFunction*
G04 #@! TA.AperFunction,SMDPad,CuDef*
G36*
G01*
X210089600Y-102160000D02*
X214090400Y-102160000D01*
G75*
G02*
X214340000Y-102409600I0J-249600D01*
G01*
X214340000Y-103210400D01*
G75*
G02*
X214090400Y-103460000I-249600J0D01*
G01*
X210089600Y-103460000D01*
G75*
G02*
X209840000Y-103210400I0J249600D01*
G01*
X209840000Y-102409600D01*
G75*
G02*
X210089600Y-102160000I249600J0D01*
G01*
G37*
G04 #@! TD.AperFunction*
G04 #@! TA.AperFunction,SMDPad,CuDef*
G36*
G01*
X210089600Y-99660000D02*
X214090400Y-99660000D01*
G75*
G02*
X214340000Y-99909600I0J-249600D01*
G01*
X214340000Y-100710400D01*
G75*
G02*
X214090400Y-100960000I-249600J0D01*
G01*
X210089600Y-100960000D01*
G75*
G02*
X209840000Y-100710400I0J249600D01*
G01*
X209840000Y-99909600D01*
G75*
G02*
X210089600Y-99660000I249600J0D01*
G01*
G37*
G04 #@! TD.AperFunction*
G04 #@! TA.AperFunction,SMDPad,CuDef*
G36*
G01*
X210089600Y-97160000D02*
X214090400Y-97160000D01*
G75*
G02*
X214340000Y-97409600I0J-249600D01*
G01*
X214340000Y-98210400D01*
G75*
G02*
X214090400Y-98460000I-249600J0D01*
G01*
X210089600Y-98460000D01*
G75*
G02*
X209840000Y-98210400I0J249600D01*
G01*
X209840000Y-97409600D01*
G75*
G02*
X210089600Y-97160000I249600J0D01*
G01*
G37*
G04 #@! TD.AperFunction*
G04 #@! TA.AperFunction,SMDPad,CuDef*
G36*
G01*
X210089600Y-94660000D02*
X214090400Y-94660000D01*
G75*
G02*
X214340000Y-94909600I0J-249600D01*
G01*
X214340000Y-95710400D01*
G75*
G02*
X214090400Y-95960000I-249600J0D01*
G01*
X210089600Y-95960000D01*
G75*
G02*
X209840000Y-95710400I0J249600D01*
G01*
X209840000Y-94909600D01*
G75*
G02*
X210089600Y-94660000I249600J0D01*
G01*
G37*
G04 #@! TD.AperFunction*
G04 #@! TA.AperFunction,SMDPad,CuDef*
G36*
G01*
X210089600Y-92160000D02*
X214090400Y-92160000D01*
G75*
G02*
X214340000Y-92409600I0J-249600D01*
G01*
X214340000Y-93210400D01*
G75*
G02*
X214090400Y-93460000I-249600J0D01*
G01*
X210089600Y-93460000D01*
G75*
G02*
X209840000Y-93210400I0J249600D01*
G01*
X209840000Y-92409600D01*
G75*
G02*
X210089600Y-92160000I249600J0D01*
G01*
G37*
G04 #@! TD.AperFunction*
D16*
X185500000Y-133350000D03*
X177170000Y-133350000D03*
X164470000Y-133350000D03*
X156140000Y-133350000D03*
D17*
X205105000Y-67310000D03*
X207645000Y-68580000D03*
X205105000Y-69850000D03*
X207645000Y-71120000D03*
X205105000Y-72390000D03*
X207645000Y-73660000D03*
X205105000Y-74930000D03*
D18*
X207645000Y-76200000D03*
D17*
X169545000Y-76200000D03*
X167005000Y-74930000D03*
X169545000Y-73660000D03*
X167005000Y-72390000D03*
X169545000Y-71120000D03*
X167005000Y-69850000D03*
X169545000Y-68580000D03*
D18*
X167005000Y-67310000D03*
D19*
X182245000Y-80010000D03*
D20*
X208280000Y-88265000D03*
D19*
X172085000Y-92075000D03*
X172085000Y-67310000D03*
X194310000Y-76200000D03*
X173355000Y-67310000D03*
X193040000Y-74930000D03*
X210185000Y-89535000D03*
X214630000Y-93980000D03*
X216535000Y-101600000D03*
X205105000Y-102235000D03*
X208915000Y-104140000D03*
X208915000Y-96520000D03*
X217170000Y-99060000D03*
X204470000Y-88900000D03*
X205105000Y-93345000D03*
X215900000Y-57150000D03*
X203200000Y-57150000D03*
X190500000Y-57150000D03*
X158750000Y-57150000D03*
X171450000Y-57150000D03*
X184150000Y-57150000D03*
X153670000Y-62230000D03*
X153670000Y-74930000D03*
X161290000Y-71755000D03*
X220980000Y-62230000D03*
X220980000Y-74930000D03*
X220980000Y-81280000D03*
X210820000Y-71755000D03*
X183515000Y-67310000D03*
X190500000Y-67310000D03*
X182245000Y-67310000D03*
X180340000Y-76952400D03*
X177800000Y-76952400D03*
X179070000Y-94615000D03*
X185420000Y-94615000D03*
X191770000Y-94615000D03*
X172720000Y-94615000D03*
X209550000Y-136525000D03*
X219710000Y-136525000D03*
X215147600Y-97155000D03*
X215147600Y-100330000D03*
X153670000Y-100330000D03*
X153670000Y-113030000D03*
X153670000Y-125730000D03*
X171450000Y-136525000D03*
X196850000Y-136525000D03*
X220980000Y-125730000D03*
X220980000Y-113030000D03*
X220980000Y-100330000D03*
X220980000Y-92075000D03*
X213360000Y-90424000D03*
X220980000Y-68580000D03*
X196850000Y-111760000D03*
X184150000Y-111760000D03*
X202946000Y-93980000D03*
X172085000Y-79375000D03*
X185420000Y-77470000D03*
X203835000Y-107950000D03*
X209169000Y-91313000D03*
X202565000Y-77470000D03*
X208915000Y-129540000D03*
X198755000Y-129540000D03*
X219075000Y-129540000D03*
X179705000Y-67310000D03*
X178435000Y-67310000D03*
X177165000Y-67310000D03*
X175895000Y-67310000D03*
X174625000Y-67310000D03*
D21*
X172445000Y-85090000D02*
X172445000Y-83460000D01*
X172445000Y-83460000D02*
X173355000Y-82550000D01*
X182245000Y-82550000D02*
X173355000Y-82550000D01*
X208280000Y-82550000D02*
X182245000Y-82550000D01*
X182245000Y-82550000D02*
X182245000Y-80010000D01*
X208280000Y-82550000D02*
X208915000Y-82550000D01*
X212090000Y-92810000D02*
X209015000Y-92810000D01*
X209015000Y-92810000D02*
X208280000Y-92075000D01*
X208280000Y-92075000D02*
X208280000Y-88265000D01*
X208280000Y-88265000D02*
X210185000Y-86360000D01*
X210185000Y-83820000D02*
X208915000Y-82550000D01*
X210185000Y-86360000D02*
X210185000Y-83820000D01*
D22*
X172445000Y-91715000D02*
X172085000Y-92075000D01*
X172445000Y-85090000D02*
X172445000Y-91715000D01*
X207645000Y-76200000D02*
X172720000Y-76200000D01*
X172085000Y-75565000D02*
X172085000Y-67310000D01*
X172720000Y-76200000D02*
X172085000Y-75565000D01*
X173355000Y-74295000D02*
X173355000Y-67310000D01*
X173990000Y-74930000D02*
X173355000Y-74295000D01*
X198755000Y-74930000D02*
X173990000Y-74930000D01*
X205105000Y-74930000D02*
X198755000Y-74930000D01*
X212090000Y-91440000D02*
X210820000Y-90170000D01*
X219075000Y-92710000D02*
X217805000Y-91440000D01*
X219075000Y-102870000D02*
X219075000Y-92710000D01*
X217805000Y-91440000D02*
X212090000Y-91440000D01*
X216635000Y-105310000D02*
X219075000Y-102870000D01*
X210820000Y-90170000D02*
X210185000Y-89535000D01*
X212090000Y-105310000D02*
X216635000Y-105310000D01*
X212090000Y-102810000D02*
X217230000Y-102810000D01*
X217230000Y-102810000D02*
X218440000Y-101600000D01*
X218440000Y-101600000D02*
X218440000Y-95250000D01*
X217170000Y-93980000D02*
X214630000Y-93980000D01*
X218440000Y-95250000D02*
X217170000Y-93980000D01*
X212090000Y-97810000D02*
X214610000Y-97810000D01*
X216535000Y-99735000D02*
X216535000Y-101600000D01*
X214610000Y-97810000D02*
X216535000Y-99735000D01*
X212090000Y-95310000D02*
X206315000Y-95310000D01*
X205105000Y-96520000D02*
X205105000Y-102235000D01*
X206315000Y-95310000D02*
X205105000Y-96520000D01*
X215127600Y-100310000D02*
X215147600Y-100330000D01*
X212090000Y-100310000D02*
X215127600Y-100310000D01*
D21*
X179705000Y-67945000D02*
X179705000Y-67310000D01*
X180340000Y-68580000D02*
X179705000Y-67945000D01*
X207645000Y-68580000D02*
X180340000Y-68580000D01*
D22*
X178435000Y-67310000D02*
X178435000Y-69215000D01*
X178435000Y-69215000D02*
X179070000Y-69850000D01*
X179070000Y-69850000D02*
X205105000Y-69850000D01*
X207645000Y-71120000D02*
X177800000Y-71120000D01*
X177165000Y-70485000D02*
X177165000Y-67310000D01*
X177800000Y-71120000D02*
X177165000Y-70485000D01*
X205105000Y-72390000D02*
X176530000Y-72390000D01*
X175895000Y-71755000D02*
X175895000Y-67310000D01*
X176530000Y-72390000D02*
X175895000Y-71755000D01*
X207645000Y-73660000D02*
X175260000Y-73660000D01*
X174625000Y-73025000D02*
X174625000Y-67310000D01*
X175260000Y-73660000D02*
X174625000Y-73025000D01*
D23*
X209472688Y-113837572D02*
X209610952Y-114096246D01*
X209797024Y-114322976D01*
X210023754Y-114509048D01*
X210282428Y-114647312D01*
X210563105Y-114732455D01*
X210781856Y-114754000D01*
X212128144Y-114754000D01*
X212346895Y-114732455D01*
X212627572Y-114647312D01*
X212886246Y-114509048D01*
X213112976Y-114322976D01*
X213299048Y-114096246D01*
X213437312Y-113837572D01*
X213451136Y-113792000D01*
X219938885Y-113792000D01*
X219978768Y-113851690D01*
X220158310Y-114031232D01*
X220369430Y-114172297D01*
X220604013Y-114269465D01*
X220853045Y-114319000D01*
X221106955Y-114319000D01*
X221336000Y-114273441D01*
X221336000Y-124486559D01*
X221106955Y-124441000D01*
X220853045Y-124441000D01*
X220604013Y-124490535D01*
X220369430Y-124587703D01*
X220158310Y-124728768D01*
X219978768Y-124908310D01*
X219837703Y-125119430D01*
X219740535Y-125354013D01*
X219691000Y-125603045D01*
X219691000Y-125856955D01*
X219740535Y-126105987D01*
X219837703Y-126340570D01*
X219978768Y-126551690D01*
X220158310Y-126731232D01*
X220369430Y-126872297D01*
X220604013Y-126969465D01*
X220853045Y-127019000D01*
X221106955Y-127019000D01*
X221336000Y-126973441D01*
X221336000Y-136881000D01*
X220953441Y-136881000D01*
X220999000Y-136651955D01*
X220999000Y-136398045D01*
X220949465Y-136149013D01*
X220852297Y-135914430D01*
X220711232Y-135703310D01*
X220531690Y-135523768D01*
X220320570Y-135382703D01*
X220085987Y-135285535D01*
X219836955Y-135236000D01*
X219583045Y-135236000D01*
X219334013Y-135285535D01*
X219099430Y-135382703D01*
X218888310Y-135523768D01*
X218708768Y-135703310D01*
X218567703Y-135914430D01*
X218470535Y-136149013D01*
X218421000Y-136398045D01*
X218421000Y-136651955D01*
X218466559Y-136881000D01*
X210793441Y-136881000D01*
X210839000Y-136651955D01*
X210839000Y-136398045D01*
X210789465Y-136149013D01*
X210692297Y-135914430D01*
X210551232Y-135703310D01*
X210371690Y-135523768D01*
X210160570Y-135382703D01*
X209925987Y-135285535D01*
X209676955Y-135236000D01*
X209423045Y-135236000D01*
X209174013Y-135285535D01*
X208939430Y-135382703D01*
X208728310Y-135523768D01*
X208548768Y-135703310D01*
X208407703Y-135914430D01*
X208310535Y-136149013D01*
X208261000Y-136398045D01*
X208261000Y-136651955D01*
X208306559Y-136881000D01*
X198093441Y-136881000D01*
X198139000Y-136651955D01*
X198139000Y-136398045D01*
X198089465Y-136149013D01*
X197992297Y-135914430D01*
X197851232Y-135703310D01*
X197671690Y-135523768D01*
X197460570Y-135382703D01*
X197225987Y-135285535D01*
X196976955Y-135236000D01*
X196723045Y-135236000D01*
X196474013Y-135285535D01*
X196239430Y-135382703D01*
X196028310Y-135523768D01*
X195848768Y-135703310D01*
X195707703Y-135914430D01*
X195610535Y-136149013D01*
X195561000Y-136398045D01*
X195561000Y-136651955D01*
X195606559Y-136881000D01*
X172693441Y-136881000D01*
X172739000Y-136651955D01*
X172739000Y-136398045D01*
X172689465Y-136149013D01*
X172592297Y-135914430D01*
X172491066Y-135762926D01*
X174936680Y-135762926D01*
X175248263Y-136211110D01*
X175843364Y-136531046D01*
X176489446Y-136728737D01*
X177161682Y-136796585D01*
X177834237Y-136731982D01*
X178481266Y-136537413D01*
X179077903Y-136220352D01*
X179091737Y-136211110D01*
X179403320Y-135762926D01*
X183266680Y-135762926D01*
X183578263Y-136211110D01*
X184173364Y-136531046D01*
X184819446Y-136728737D01*
X185491682Y-136796585D01*
X186164237Y-136731982D01*
X186811266Y-136537413D01*
X187407903Y-136220352D01*
X187421737Y-136211110D01*
X187733320Y-135762926D01*
X185500000Y-133529605D01*
X183266680Y-135762926D01*
X179403320Y-135762926D01*
X177170000Y-133529605D01*
X174936680Y-135762926D01*
X172491066Y-135762926D01*
X172451232Y-135703310D01*
X172271690Y-135523768D01*
X172060570Y-135382703D01*
X171825987Y-135285535D01*
X171576955Y-135236000D01*
X171323045Y-135236000D01*
X171074013Y-135285535D01*
X170839430Y-135382703D01*
X170628310Y-135523768D01*
X170448768Y-135703310D01*
X170307703Y-135914430D01*
X170210535Y-136149013D01*
X170161000Y-136398045D01*
X170161000Y-136651955D01*
X170206559Y-136881000D01*
X165572168Y-136881000D01*
X166215028Y-136614718D01*
X166818413Y-136211549D01*
X167331549Y-135698413D01*
X167734718Y-135095028D01*
X168012426Y-134424583D01*
X168154000Y-133712842D01*
X168154000Y-133341682D01*
X173723415Y-133341682D01*
X173788018Y-134014237D01*
X173982587Y-134661266D01*
X174299648Y-135257903D01*
X174308890Y-135271737D01*
X174757074Y-135583320D01*
X176990395Y-133350000D01*
X177349605Y-133350000D01*
X179582926Y-135583320D01*
X180031110Y-135271737D01*
X180351046Y-134676636D01*
X180548737Y-134030554D01*
X180616585Y-133358318D01*
X180614988Y-133341682D01*
X182053415Y-133341682D01*
X182118018Y-134014237D01*
X182312587Y-134661266D01*
X182629648Y-135257903D01*
X182638890Y-135271737D01*
X183087074Y-135583320D01*
X185320395Y-133350000D01*
X185679605Y-133350000D01*
X187912926Y-135583320D01*
X188361110Y-135271737D01*
X188681046Y-134676636D01*
X188878737Y-134030554D01*
X188946585Y-133358318D01*
X188881982Y-132685763D01*
X188687413Y-132038734D01*
X188370352Y-131442097D01*
X188361110Y-131428263D01*
X187912926Y-131116680D01*
X185679605Y-133350000D01*
X185320395Y-133350000D01*
X183087074Y-131116680D01*
X182638890Y-131428263D01*
X182318954Y-132023364D01*
X182121263Y-132669446D01*
X182053415Y-133341682D01*
X180614988Y-133341682D01*
X180551982Y-132685763D01*
X180357413Y-132038734D01*
X180040352Y-131442097D01*
X180031110Y-131428263D01*
X179582926Y-131116680D01*
X177349605Y-133350000D01*
X176990395Y-133350000D01*
X174757074Y-131116680D01*
X174308890Y-131428263D01*
X173988954Y-132023364D01*
X173791263Y-132669446D01*
X173723415Y-133341682D01*
X168154000Y-133341682D01*
X168154000Y-132987158D01*
X168012426Y-132275417D01*
X167734718Y-131604972D01*
X167331549Y-131001587D01*
X167267036Y-130937074D01*
X174936680Y-130937074D01*
X177170000Y-133170395D01*
X179403320Y-130937074D01*
X183266680Y-130937074D01*
X185500000Y-133170395D01*
X187733320Y-130937074D01*
X187421737Y-130488890D01*
X186826636Y-130168954D01*
X186180554Y-129971263D01*
X185508318Y-129903415D01*
X184835763Y-129968018D01*
X184188734Y-130162587D01*
X183592097Y-130479648D01*
X183578263Y-130488890D01*
X183266680Y-130937074D01*
X179403320Y-130937074D01*
X179091737Y-130488890D01*
X178496636Y-130168954D01*
X177850554Y-129971263D01*
X177178318Y-129903415D01*
X176505763Y-129968018D01*
X175858734Y-130162587D01*
X175262097Y-130479648D01*
X175248263Y-130488890D01*
X174936680Y-130937074D01*
X167267036Y-130937074D01*
X166818413Y-130488451D01*
X166215028Y-130085282D01*
X165544583Y-129807574D01*
X165227000Y-129744403D01*
X165227000Y-128443774D01*
X165262455Y-128326895D01*
X165291204Y-128035000D01*
X165262455Y-127743105D01*
X165227000Y-127626226D01*
X165227000Y-126743000D01*
X166698928Y-126743000D01*
X166711188Y-126867482D01*
X166747498Y-126987180D01*
X166806463Y-127097494D01*
X166885815Y-127194185D01*
X166982506Y-127273537D01*
X167092820Y-127332502D01*
X167212518Y-127368812D01*
X167337000Y-127381072D01*
X168909250Y-127378000D01*
X169068000Y-127219250D01*
X169068000Y-125012000D01*
X169322000Y-125012000D01*
X169322000Y-127219250D01*
X169480750Y-127378000D01*
X171053000Y-127381072D01*
X171177482Y-127368812D01*
X171297180Y-127332502D01*
X171407494Y-127273537D01*
X171504185Y-127194185D01*
X171583537Y-127097494D01*
X171642502Y-126987180D01*
X171678812Y-126867482D01*
X171691072Y-126743000D01*
X171688000Y-125170750D01*
X171529250Y-125012000D01*
X169322000Y-125012000D01*
X169068000Y-125012000D01*
X166860750Y-125012000D01*
X166702000Y-125170750D01*
X166698928Y-126743000D01*
X165227000Y-126743000D01*
X165227000Y-123027000D01*
X166698928Y-123027000D01*
X166702000Y-124599250D01*
X166860750Y-124758000D01*
X169068000Y-124758000D01*
X169068000Y-122550750D01*
X169322000Y-122550750D01*
X169322000Y-124758000D01*
X171529250Y-124758000D01*
X171688000Y-124599250D01*
X171691072Y-123027000D01*
X171678812Y-122902518D01*
X171642502Y-122782820D01*
X171583537Y-122672506D01*
X171504185Y-122575815D01*
X171407494Y-122496463D01*
X171297180Y-122437498D01*
X171177482Y-122401188D01*
X171053000Y-122388928D01*
X169480750Y-122392000D01*
X169322000Y-122550750D01*
X169068000Y-122550750D01*
X168909250Y-122392000D01*
X167337000Y-122388928D01*
X167212518Y-122401188D01*
X167092820Y-122437498D01*
X166982506Y-122496463D01*
X166885815Y-122575815D01*
X166806463Y-122672506D01*
X166747498Y-122782820D01*
X166711188Y-122902518D01*
X166698928Y-123027000D01*
X165227000Y-123027000D01*
X165227000Y-122047000D01*
X190373000Y-122047000D01*
X190373000Y-130175000D01*
X190375440Y-130199776D01*
X190382667Y-130223601D01*
X190394403Y-130245557D01*
X190410197Y-130264803D01*
X190429443Y-130280597D01*
X190451399Y-130292333D01*
X190475224Y-130299560D01*
X190500000Y-130302000D01*
X197713885Y-130302000D01*
X197753768Y-130361690D01*
X197933310Y-130541232D01*
X198144430Y-130682297D01*
X198379013Y-130779465D01*
X198628045Y-130829000D01*
X198881955Y-130829000D01*
X199130987Y-130779465D01*
X199365570Y-130682297D01*
X199576690Y-130541232D01*
X199756232Y-130361690D01*
X199796115Y-130302000D01*
X207873885Y-130302000D01*
X207913768Y-130361690D01*
X208093310Y-130541232D01*
X208304430Y-130682297D01*
X208539013Y-130779465D01*
X208788045Y-130829000D01*
X209041955Y-130829000D01*
X209290987Y-130779465D01*
X209525570Y-130682297D01*
X209736690Y-130541232D01*
X209916232Y-130361690D01*
X209956115Y-130302000D01*
X212090000Y-130302000D01*
X212114776Y-130299560D01*
X212138601Y-130292333D01*
X212160557Y-130280597D01*
X212179803Y-130264803D01*
X212195597Y-130245557D01*
X212207333Y-130223601D01*
X212214560Y-130199776D01*
X212217000Y-130175000D01*
X212217000Y-129413045D01*
X217786000Y-129413045D01*
X217786000Y-129666955D01*
X217835535Y-129915987D01*
X217932703Y-130150570D01*
X218073768Y-130361690D01*
X218253310Y-130541232D01*
X218464430Y-130682297D01*
X218699013Y-130779465D01*
X218948045Y-130829000D01*
X219201955Y-130829000D01*
X219450987Y-130779465D01*
X219685570Y-130682297D01*
X219896690Y-130541232D01*
X220076232Y-130361690D01*
X220217297Y-130150570D01*
X220314465Y-129915987D01*
X220364000Y-129666955D01*
X220364000Y-129413045D01*
X220314465Y-129164013D01*
X220217297Y-128929430D01*
X220076232Y-128718310D01*
X219896690Y-128538768D01*
X219685570Y-128397703D01*
X219450987Y-128300535D01*
X219201955Y-128251000D01*
X218948045Y-128251000D01*
X218699013Y-128300535D01*
X218464430Y-128397703D01*
X218253310Y-128538768D01*
X218073768Y-128718310D01*
X217932703Y-128929430D01*
X217835535Y-129164013D01*
X217786000Y-129413045D01*
X212217000Y-129413045D01*
X212217000Y-128245248D01*
X212346895Y-128232455D01*
X212627572Y-128147312D01*
X212886246Y-128009048D01*
X213112976Y-127822976D01*
X213299048Y-127596246D01*
X213437312Y-127337572D01*
X213522455Y-127056895D01*
X213551204Y-126765000D01*
X213522455Y-126473105D01*
X213437312Y-126192428D01*
X213299048Y-125933754D01*
X213112976Y-125707024D01*
X212886246Y-125520952D01*
X212627572Y-125382688D01*
X212346895Y-125297545D01*
X212217000Y-125284752D01*
X212217000Y-120650000D01*
X212214560Y-120625224D01*
X212207333Y-120601399D01*
X212195597Y-120579443D01*
X212179803Y-120560197D01*
X212160557Y-120544403D01*
X212138601Y-120532667D01*
X212114776Y-120525440D01*
X212090000Y-120523000D01*
X202057000Y-120523000D01*
X202057000Y-118273000D01*
X202958928Y-118273000D01*
X202971188Y-118397482D01*
X203007498Y-118517180D01*
X203066463Y-118627494D01*
X203145815Y-118724185D01*
X203242506Y-118803537D01*
X203352820Y-118862502D01*
X203472518Y-118898812D01*
X203597000Y-118911072D01*
X205169250Y-118908000D01*
X205328000Y-118749250D01*
X205328000Y-116542000D01*
X205582000Y-116542000D01*
X205582000Y-118749250D01*
X205740750Y-118908000D01*
X207313000Y-118911072D01*
X207437482Y-118898812D01*
X207557180Y-118862502D01*
X207667494Y-118803537D01*
X207764185Y-118724185D01*
X207843537Y-118627494D01*
X207902502Y-118517180D01*
X207938812Y-118397482D01*
X207951072Y-118273000D01*
X207948000Y-116700750D01*
X207789250Y-116542000D01*
X205582000Y-116542000D01*
X205328000Y-116542000D01*
X203120750Y-116542000D01*
X202962000Y-116700750D01*
X202958928Y-118273000D01*
X202057000Y-118273000D01*
X202057000Y-114557000D01*
X202958928Y-114557000D01*
X202962000Y-116129250D01*
X203120750Y-116288000D01*
X205328000Y-116288000D01*
X205328000Y-114080750D01*
X205582000Y-114080750D01*
X205582000Y-116288000D01*
X207789250Y-116288000D01*
X207948000Y-116129250D01*
X207951072Y-114557000D01*
X207938812Y-114432518D01*
X207902502Y-114312820D01*
X207843537Y-114202506D01*
X207764185Y-114105815D01*
X207667494Y-114026463D01*
X207557180Y-113967498D01*
X207437482Y-113931188D01*
X207313000Y-113918928D01*
X205740750Y-113922000D01*
X205582000Y-114080750D01*
X205328000Y-114080750D01*
X205169250Y-113922000D01*
X203597000Y-113918928D01*
X203472518Y-113931188D01*
X203352820Y-113967498D01*
X203242506Y-114026463D01*
X203145815Y-114105815D01*
X203066463Y-114202506D01*
X203007498Y-114312820D01*
X202971188Y-114432518D01*
X202958928Y-114557000D01*
X202057000Y-114557000D01*
X202057000Y-113792000D01*
X209458864Y-113792000D01*
X209472688Y-113837572D01*
G04 #@! TA.AperFunction,Conductor*
D24*
G36*
X209472688Y-113837572D02*
G01*
X209610952Y-114096246D01*
X209797024Y-114322976D01*
X210023754Y-114509048D01*
X210282428Y-114647312D01*
X210563105Y-114732455D01*
X210781856Y-114754000D01*
X212128144Y-114754000D01*
X212346895Y-114732455D01*
X212627572Y-114647312D01*
X212886246Y-114509048D01*
X213112976Y-114322976D01*
X213299048Y-114096246D01*
X213437312Y-113837572D01*
X213451136Y-113792000D01*
X219938885Y-113792000D01*
X219978768Y-113851690D01*
X220158310Y-114031232D01*
X220369430Y-114172297D01*
X220604013Y-114269465D01*
X220853045Y-114319000D01*
X221106955Y-114319000D01*
X221336000Y-114273441D01*
X221336000Y-124486559D01*
X221106955Y-124441000D01*
X220853045Y-124441000D01*
X220604013Y-124490535D01*
X220369430Y-124587703D01*
X220158310Y-124728768D01*
X219978768Y-124908310D01*
X219837703Y-125119430D01*
X219740535Y-125354013D01*
X219691000Y-125603045D01*
X219691000Y-125856955D01*
X219740535Y-126105987D01*
X219837703Y-126340570D01*
X219978768Y-126551690D01*
X220158310Y-126731232D01*
X220369430Y-126872297D01*
X220604013Y-126969465D01*
X220853045Y-127019000D01*
X221106955Y-127019000D01*
X221336000Y-126973441D01*
X221336000Y-136881000D01*
X220953441Y-136881000D01*
X220999000Y-136651955D01*
X220999000Y-136398045D01*
X220949465Y-136149013D01*
X220852297Y-135914430D01*
X220711232Y-135703310D01*
X220531690Y-135523768D01*
X220320570Y-135382703D01*
X220085987Y-135285535D01*
X219836955Y-135236000D01*
X219583045Y-135236000D01*
X219334013Y-135285535D01*
X219099430Y-135382703D01*
X218888310Y-135523768D01*
X218708768Y-135703310D01*
X218567703Y-135914430D01*
X218470535Y-136149013D01*
X218421000Y-136398045D01*
X218421000Y-136651955D01*
X218466559Y-136881000D01*
X210793441Y-136881000D01*
X210839000Y-136651955D01*
X210839000Y-136398045D01*
X210789465Y-136149013D01*
X210692297Y-135914430D01*
X210551232Y-135703310D01*
X210371690Y-135523768D01*
X210160570Y-135382703D01*
X209925987Y-135285535D01*
X209676955Y-135236000D01*
X209423045Y-135236000D01*
X209174013Y-135285535D01*
X208939430Y-135382703D01*
X208728310Y-135523768D01*
X208548768Y-135703310D01*
X208407703Y-135914430D01*
X208310535Y-136149013D01*
X208261000Y-136398045D01*
X208261000Y-136651955D01*
X208306559Y-136881000D01*
X198093441Y-136881000D01*
X198139000Y-136651955D01*
X198139000Y-136398045D01*
X198089465Y-136149013D01*
X197992297Y-135914430D01*
X197851232Y-135703310D01*
X197671690Y-135523768D01*
X197460570Y-135382703D01*
X197225987Y-135285535D01*
X196976955Y-135236000D01*
X196723045Y-135236000D01*
X196474013Y-135285535D01*
X196239430Y-135382703D01*
X196028310Y-135523768D01*
X195848768Y-135703310D01*
X195707703Y-135914430D01*
X195610535Y-136149013D01*
X195561000Y-136398045D01*
X195561000Y-136651955D01*
X195606559Y-136881000D01*
X172693441Y-136881000D01*
X172739000Y-136651955D01*
X172739000Y-136398045D01*
X172689465Y-136149013D01*
X172592297Y-135914430D01*
X172491066Y-135762926D01*
X174936680Y-135762926D01*
X175248263Y-136211110D01*
X175843364Y-136531046D01*
X176489446Y-136728737D01*
X177161682Y-136796585D01*
X177834237Y-136731982D01*
X178481266Y-136537413D01*
X179077903Y-136220352D01*
X179091737Y-136211110D01*
X179403320Y-135762926D01*
X183266680Y-135762926D01*
X183578263Y-136211110D01*
X184173364Y-136531046D01*
X184819446Y-136728737D01*
X185491682Y-136796585D01*
X186164237Y-136731982D01*
X186811266Y-136537413D01*
X187407903Y-136220352D01*
X187421737Y-136211110D01*
X187733320Y-135762926D01*
X185500000Y-133529605D01*
X183266680Y-135762926D01*
X179403320Y-135762926D01*
X177170000Y-133529605D01*
X174936680Y-135762926D01*
X172491066Y-135762926D01*
X172451232Y-135703310D01*
X172271690Y-135523768D01*
X172060570Y-135382703D01*
X171825987Y-135285535D01*
X171576955Y-135236000D01*
X171323045Y-135236000D01*
X171074013Y-135285535D01*
X170839430Y-135382703D01*
X170628310Y-135523768D01*
X170448768Y-135703310D01*
X170307703Y-135914430D01*
X170210535Y-136149013D01*
X170161000Y-136398045D01*
X170161000Y-136651955D01*
X170206559Y-136881000D01*
X165572168Y-136881000D01*
X166215028Y-136614718D01*
X166818413Y-136211549D01*
X167331549Y-135698413D01*
X167734718Y-135095028D01*
X168012426Y-134424583D01*
X168154000Y-133712842D01*
X168154000Y-133341682D01*
X173723415Y-133341682D01*
X173788018Y-134014237D01*
X173982587Y-134661266D01*
X174299648Y-135257903D01*
X174308890Y-135271737D01*
X174757074Y-135583320D01*
X176990395Y-133350000D01*
X177349605Y-133350000D01*
X179582926Y-135583320D01*
X180031110Y-135271737D01*
X180351046Y-134676636D01*
X180548737Y-134030554D01*
X180616585Y-133358318D01*
X180614988Y-133341682D01*
X182053415Y-133341682D01*
X182118018Y-134014237D01*
X182312587Y-134661266D01*
X182629648Y-135257903D01*
X182638890Y-135271737D01*
X183087074Y-135583320D01*
X185320395Y-133350000D01*
X185679605Y-133350000D01*
X187912926Y-135583320D01*
X188361110Y-135271737D01*
X188681046Y-134676636D01*
X188878737Y-134030554D01*
X188946585Y-133358318D01*
X188881982Y-132685763D01*
X188687413Y-132038734D01*
X188370352Y-131442097D01*
X188361110Y-131428263D01*
X187912926Y-131116680D01*
X185679605Y-133350000D01*
X185320395Y-133350000D01*
X183087074Y-131116680D01*
X182638890Y-131428263D01*
X182318954Y-132023364D01*
X182121263Y-132669446D01*
X182053415Y-133341682D01*
X180614988Y-133341682D01*
X180551982Y-132685763D01*
X180357413Y-132038734D01*
X180040352Y-131442097D01*
X180031110Y-131428263D01*
X179582926Y-131116680D01*
X177349605Y-133350000D01*
X176990395Y-133350000D01*
X174757074Y-131116680D01*
X174308890Y-131428263D01*
X173988954Y-132023364D01*
X173791263Y-132669446D01*
X173723415Y-133341682D01*
X168154000Y-133341682D01*
X168154000Y-132987158D01*
X168012426Y-132275417D01*
X167734718Y-131604972D01*
X167331549Y-131001587D01*
X167267036Y-130937074D01*
X174936680Y-130937074D01*
X177170000Y-133170395D01*
X179403320Y-130937074D01*
X183266680Y-130937074D01*
X185500000Y-133170395D01*
X187733320Y-130937074D01*
X187421737Y-130488890D01*
X186826636Y-130168954D01*
X186180554Y-129971263D01*
X185508318Y-129903415D01*
X184835763Y-129968018D01*
X184188734Y-130162587D01*
X183592097Y-130479648D01*
X183578263Y-130488890D01*
X183266680Y-130937074D01*
X179403320Y-130937074D01*
X179091737Y-130488890D01*
X178496636Y-130168954D01*
X177850554Y-129971263D01*
X177178318Y-129903415D01*
X176505763Y-129968018D01*
X175858734Y-130162587D01*
X175262097Y-130479648D01*
X175248263Y-130488890D01*
X174936680Y-130937074D01*
X167267036Y-130937074D01*
X166818413Y-130488451D01*
X166215028Y-130085282D01*
X165544583Y-129807574D01*
X165227000Y-129744403D01*
X165227000Y-128443774D01*
X165262455Y-128326895D01*
X165291204Y-128035000D01*
X165262455Y-127743105D01*
X165227000Y-127626226D01*
X165227000Y-126743000D01*
X166698928Y-126743000D01*
X166711188Y-126867482D01*
X166747498Y-126987180D01*
X166806463Y-127097494D01*
X166885815Y-127194185D01*
X166982506Y-127273537D01*
X167092820Y-127332502D01*
X167212518Y-127368812D01*
X167337000Y-127381072D01*
X168909250Y-127378000D01*
X169068000Y-127219250D01*
X169068000Y-125012000D01*
X169322000Y-125012000D01*
X169322000Y-127219250D01*
X169480750Y-127378000D01*
X171053000Y-127381072D01*
X171177482Y-127368812D01*
X171297180Y-127332502D01*
X171407494Y-127273537D01*
X171504185Y-127194185D01*
X171583537Y-127097494D01*
X171642502Y-126987180D01*
X171678812Y-126867482D01*
X171691072Y-126743000D01*
X171688000Y-125170750D01*
X171529250Y-125012000D01*
X169322000Y-125012000D01*
X169068000Y-125012000D01*
X166860750Y-125012000D01*
X166702000Y-125170750D01*
X166698928Y-126743000D01*
X165227000Y-126743000D01*
X165227000Y-123027000D01*
X166698928Y-123027000D01*
X166702000Y-124599250D01*
X166860750Y-124758000D01*
X169068000Y-124758000D01*
X169068000Y-122550750D01*
X169322000Y-122550750D01*
X169322000Y-124758000D01*
X171529250Y-124758000D01*
X171688000Y-124599250D01*
X171691072Y-123027000D01*
X171678812Y-122902518D01*
X171642502Y-122782820D01*
X171583537Y-122672506D01*
X171504185Y-122575815D01*
X171407494Y-122496463D01*
X171297180Y-122437498D01*
X171177482Y-122401188D01*
X171053000Y-122388928D01*
X169480750Y-122392000D01*
X169322000Y-122550750D01*
X169068000Y-122550750D01*
X168909250Y-122392000D01*
X167337000Y-122388928D01*
X167212518Y-122401188D01*
X167092820Y-122437498D01*
X166982506Y-122496463D01*
X166885815Y-122575815D01*
X166806463Y-122672506D01*
X166747498Y-122782820D01*
X166711188Y-122902518D01*
X166698928Y-123027000D01*
X165227000Y-123027000D01*
X165227000Y-122047000D01*
X190373000Y-122047000D01*
X190373000Y-130175000D01*
X190375440Y-130199776D01*
X190382667Y-130223601D01*
X190394403Y-130245557D01*
X190410197Y-130264803D01*
X190429443Y-130280597D01*
X190451399Y-130292333D01*
X190475224Y-130299560D01*
X190500000Y-130302000D01*
X197713885Y-130302000D01*
X197753768Y-130361690D01*
X197933310Y-130541232D01*
X198144430Y-130682297D01*
X198379013Y-130779465D01*
X198628045Y-130829000D01*
X198881955Y-130829000D01*
X199130987Y-130779465D01*
X199365570Y-130682297D01*
X199576690Y-130541232D01*
X199756232Y-130361690D01*
X199796115Y-130302000D01*
X207873885Y-130302000D01*
X207913768Y-130361690D01*
X208093310Y-130541232D01*
X208304430Y-130682297D01*
X208539013Y-130779465D01*
X208788045Y-130829000D01*
X209041955Y-130829000D01*
X209290987Y-130779465D01*
X209525570Y-130682297D01*
X209736690Y-130541232D01*
X209916232Y-130361690D01*
X209956115Y-130302000D01*
X212090000Y-130302000D01*
X212114776Y-130299560D01*
X212138601Y-130292333D01*
X212160557Y-130280597D01*
X212179803Y-130264803D01*
X212195597Y-130245557D01*
X212207333Y-130223601D01*
X212214560Y-130199776D01*
X212217000Y-130175000D01*
X212217000Y-129413045D01*
X217786000Y-129413045D01*
X217786000Y-129666955D01*
X217835535Y-129915987D01*
X217932703Y-130150570D01*
X218073768Y-130361690D01*
X218253310Y-130541232D01*
X218464430Y-130682297D01*
X218699013Y-130779465D01*
X218948045Y-130829000D01*
X219201955Y-130829000D01*
X219450987Y-130779465D01*
X219685570Y-130682297D01*
X219896690Y-130541232D01*
X220076232Y-130361690D01*
X220217297Y-130150570D01*
X220314465Y-129915987D01*
X220364000Y-129666955D01*
X220364000Y-129413045D01*
X220314465Y-129164013D01*
X220217297Y-128929430D01*
X220076232Y-128718310D01*
X219896690Y-128538768D01*
X219685570Y-128397703D01*
X219450987Y-128300535D01*
X219201955Y-128251000D01*
X218948045Y-128251000D01*
X218699013Y-128300535D01*
X218464430Y-128397703D01*
X218253310Y-128538768D01*
X218073768Y-128718310D01*
X217932703Y-128929430D01*
X217835535Y-129164013D01*
X217786000Y-129413045D01*
X212217000Y-129413045D01*
X212217000Y-128245248D01*
X212346895Y-128232455D01*
X212627572Y-128147312D01*
X212886246Y-128009048D01*
X213112976Y-127822976D01*
X213299048Y-127596246D01*
X213437312Y-127337572D01*
X213522455Y-127056895D01*
X213551204Y-126765000D01*
X213522455Y-126473105D01*
X213437312Y-126192428D01*
X213299048Y-125933754D01*
X213112976Y-125707024D01*
X212886246Y-125520952D01*
X212627572Y-125382688D01*
X212346895Y-125297545D01*
X212217000Y-125284752D01*
X212217000Y-120650000D01*
X212214560Y-120625224D01*
X212207333Y-120601399D01*
X212195597Y-120579443D01*
X212179803Y-120560197D01*
X212160557Y-120544403D01*
X212138601Y-120532667D01*
X212114776Y-120525440D01*
X212090000Y-120523000D01*
X202057000Y-120523000D01*
X202057000Y-118273000D01*
X202958928Y-118273000D01*
X202971188Y-118397482D01*
X203007498Y-118517180D01*
X203066463Y-118627494D01*
X203145815Y-118724185D01*
X203242506Y-118803537D01*
X203352820Y-118862502D01*
X203472518Y-118898812D01*
X203597000Y-118911072D01*
X205169250Y-118908000D01*
X205328000Y-118749250D01*
X205328000Y-116542000D01*
X205582000Y-116542000D01*
X205582000Y-118749250D01*
X205740750Y-118908000D01*
X207313000Y-118911072D01*
X207437482Y-118898812D01*
X207557180Y-118862502D01*
X207667494Y-118803537D01*
X207764185Y-118724185D01*
X207843537Y-118627494D01*
X207902502Y-118517180D01*
X207938812Y-118397482D01*
X207951072Y-118273000D01*
X207948000Y-116700750D01*
X207789250Y-116542000D01*
X205582000Y-116542000D01*
X205328000Y-116542000D01*
X203120750Y-116542000D01*
X202962000Y-116700750D01*
X202958928Y-118273000D01*
X202057000Y-118273000D01*
X202057000Y-114557000D01*
X202958928Y-114557000D01*
X202962000Y-116129250D01*
X203120750Y-116288000D01*
X205328000Y-116288000D01*
X205328000Y-114080750D01*
X205582000Y-114080750D01*
X205582000Y-116288000D01*
X207789250Y-116288000D01*
X207948000Y-116129250D01*
X207951072Y-114557000D01*
X207938812Y-114432518D01*
X207902502Y-114312820D01*
X207843537Y-114202506D01*
X207764185Y-114105815D01*
X207667494Y-114026463D01*
X207557180Y-113967498D01*
X207437482Y-113931188D01*
X207313000Y-113918928D01*
X205740750Y-113922000D01*
X205582000Y-114080750D01*
X205328000Y-114080750D01*
X205169250Y-113922000D01*
X203597000Y-113918928D01*
X203472518Y-113931188D01*
X203352820Y-113967498D01*
X203242506Y-114026463D01*
X203145815Y-114105815D01*
X203066463Y-114202506D01*
X203007498Y-114312820D01*
X202971188Y-114432518D01*
X202958928Y-114557000D01*
X202057000Y-114557000D01*
X202057000Y-113792000D01*
X209458864Y-113792000D01*
X209472688Y-113837572D01*
G37*
G04 #@! TD.AperFunction*
D23*
X181483000Y-113665000D02*
X181485440Y-113689776D01*
X181492667Y-113713601D01*
X181504403Y-113735557D01*
X181520197Y-113754803D01*
X181539443Y-113770597D01*
X181561399Y-113782333D01*
X181585224Y-113789560D01*
X181610000Y-113792000D01*
X200533000Y-113792000D01*
X200533000Y-121920000D01*
X200535440Y-121944776D01*
X200542667Y-121968601D01*
X200554403Y-121990557D01*
X200570197Y-122009803D01*
X200589443Y-122025597D01*
X200611399Y-122037333D01*
X200635224Y-122044560D01*
X200660000Y-122047000D01*
X203707392Y-122047000D01*
X203708534Y-122048142D01*
X203356318Y-122247200D01*
X203129799Y-122682914D01*
X202992636Y-123154448D01*
X202950100Y-123643681D01*
X203003827Y-124131812D01*
X203151750Y-124600081D01*
X203356318Y-124982800D01*
X203708536Y-125181859D01*
X205275395Y-123615000D01*
X205261253Y-123600858D01*
X205440858Y-123421253D01*
X205455000Y-123435395D01*
X205469143Y-123421253D01*
X205648748Y-123600858D01*
X205634605Y-123615000D01*
X207201464Y-125181859D01*
X207553682Y-124982800D01*
X207780201Y-124547086D01*
X207917364Y-124075552D01*
X207959900Y-123586319D01*
X207906173Y-123098188D01*
X207758250Y-122629919D01*
X207553682Y-122247200D01*
X207201466Y-122048142D01*
X207202608Y-122047000D01*
X210693000Y-122047000D01*
X210693000Y-125284752D01*
X210563105Y-125297545D01*
X210282428Y-125382688D01*
X210023754Y-125520952D01*
X209797024Y-125707024D01*
X209610952Y-125933754D01*
X209472688Y-126192428D01*
X209387545Y-126473105D01*
X209358796Y-126765000D01*
X209387545Y-127056895D01*
X209472688Y-127337572D01*
X209610952Y-127596246D01*
X209797024Y-127822976D01*
X210023754Y-128009048D01*
X210282428Y-128147312D01*
X210563105Y-128232455D01*
X210693000Y-128245248D01*
X210693000Y-128778000D01*
X209956115Y-128778000D01*
X209916232Y-128718310D01*
X209736690Y-128538768D01*
X209525570Y-128397703D01*
X209290987Y-128300535D01*
X209041955Y-128251000D01*
X208788045Y-128251000D01*
X208539013Y-128300535D01*
X208304430Y-128397703D01*
X208093310Y-128538768D01*
X207913768Y-128718310D01*
X207873885Y-128778000D01*
X199796115Y-128778000D01*
X199756232Y-128718310D01*
X199576690Y-128538768D01*
X199365570Y-128397703D01*
X199130987Y-128300535D01*
X198881955Y-128251000D01*
X198628045Y-128251000D01*
X198379013Y-128300535D01*
X198144430Y-128397703D01*
X197933310Y-128538768D01*
X197753768Y-128718310D01*
X197713885Y-128778000D01*
X191897000Y-128778000D01*
X191897000Y-125361464D01*
X203888141Y-125361464D01*
X204087200Y-125713682D01*
X204522914Y-125940201D01*
X204994448Y-126077364D01*
X205483681Y-126119900D01*
X205971812Y-126066173D01*
X206440081Y-125918250D01*
X206822800Y-125713682D01*
X207021859Y-125361464D01*
X205455000Y-123794605D01*
X203888141Y-125361464D01*
X191897000Y-125361464D01*
X191897000Y-120650000D01*
X191894560Y-120625224D01*
X191887333Y-120601399D01*
X191875597Y-120579443D01*
X191859803Y-120560197D01*
X191840557Y-120544403D01*
X191818601Y-120532667D01*
X191794776Y-120525440D01*
X191770000Y-120523000D01*
X165227000Y-120523000D01*
X165227000Y-119431464D01*
X167628141Y-119431464D01*
X167827200Y-119783682D01*
X168262914Y-120010201D01*
X168734448Y-120147364D01*
X169223681Y-120189900D01*
X169711812Y-120136173D01*
X170180081Y-119988250D01*
X170562800Y-119783682D01*
X170761859Y-119431464D01*
X169195000Y-117864605D01*
X167628141Y-119431464D01*
X165227000Y-119431464D01*
X165227000Y-117713681D01*
X166690100Y-117713681D01*
X166743827Y-118201812D01*
X166891750Y-118670081D01*
X167096318Y-119052800D01*
X167448536Y-119251859D01*
X169015395Y-117685000D01*
X169374605Y-117685000D01*
X170941464Y-119251859D01*
X171293682Y-119052800D01*
X171520201Y-118617086D01*
X171657364Y-118145552D01*
X171699900Y-117656319D01*
X171646173Y-117168188D01*
X171498250Y-116699919D01*
X171293682Y-116317200D01*
X170941464Y-116118141D01*
X169374605Y-117685000D01*
X169015395Y-117685000D01*
X167448536Y-116118141D01*
X167096318Y-116317200D01*
X166869799Y-116752914D01*
X166732636Y-117224448D01*
X166690100Y-117713681D01*
X165227000Y-117713681D01*
X165227000Y-115938536D01*
X167628141Y-115938536D01*
X169195000Y-117505395D01*
X170761859Y-115938536D01*
X170562800Y-115586318D01*
X170127086Y-115359799D01*
X169655552Y-115222636D01*
X169166319Y-115180100D01*
X168678188Y-115233827D01*
X168209919Y-115381750D01*
X167827200Y-115586318D01*
X167628141Y-115938536D01*
X165227000Y-115938536D01*
X165227000Y-114943774D01*
X165262455Y-114826895D01*
X165291204Y-114535000D01*
X165262455Y-114243105D01*
X165227000Y-114126226D01*
X165227000Y-113792000D01*
X173990000Y-113792000D01*
X174014776Y-113789560D01*
X174038601Y-113782333D01*
X174060557Y-113770597D01*
X174079803Y-113754803D01*
X174095597Y-113735557D01*
X174107333Y-113713601D01*
X174114560Y-113689776D01*
X174117000Y-113665000D01*
X174117000Y-103505000D01*
X174114560Y-103480224D01*
X174107333Y-103456399D01*
X174095597Y-103434443D01*
X174079803Y-103415197D01*
X174060557Y-103399403D01*
X174038601Y-103387667D01*
X174014776Y-103380440D01*
X173990000Y-103378000D01*
X165227000Y-103378000D01*
X165227000Y-102286464D01*
X167628141Y-102286464D01*
X167827200Y-102638682D01*
X168262914Y-102865201D01*
X168734448Y-103002364D01*
X169223681Y-103044900D01*
X169711812Y-102991173D01*
X170180081Y-102843250D01*
X170562800Y-102638682D01*
X170761859Y-102286464D01*
X169195000Y-100719605D01*
X167628141Y-102286464D01*
X165227000Y-102286464D01*
X165227000Y-100568681D01*
X166690100Y-100568681D01*
X166743827Y-101056812D01*
X166891750Y-101525081D01*
X167096318Y-101907800D01*
X167448536Y-102106859D01*
X169015395Y-100540000D01*
X169374605Y-100540000D01*
X170941464Y-102106859D01*
X171293682Y-101907800D01*
X171520201Y-101472086D01*
X171657364Y-101000552D01*
X171699900Y-100511319D01*
X171646173Y-100023188D01*
X171498250Y-99554919D01*
X171293682Y-99172200D01*
X170941464Y-98973141D01*
X169374605Y-100540000D01*
X169015395Y-100540000D01*
X167448536Y-98973141D01*
X167096318Y-99172200D01*
X166869799Y-99607914D01*
X166732636Y-100079448D01*
X166690100Y-100568681D01*
X165227000Y-100568681D01*
X165227000Y-98793536D01*
X167628141Y-98793536D01*
X169195000Y-100360395D01*
X170761859Y-98793536D01*
X170562800Y-98441318D01*
X170127086Y-98214799D01*
X169655552Y-98077636D01*
X169166319Y-98035100D01*
X168678188Y-98088827D01*
X168209919Y-98236750D01*
X167827200Y-98441318D01*
X167628141Y-98793536D01*
X165227000Y-98793536D01*
X165227000Y-97798774D01*
X165262455Y-97681895D01*
X165291204Y-97390000D01*
X165262455Y-97098105D01*
X165227000Y-96981226D01*
X165227000Y-96647000D01*
X181483000Y-96647000D01*
X181483000Y-113665000D01*
G04 #@! TA.AperFunction,Conductor*
D24*
G36*
X181483000Y-113665000D02*
G01*
X181485440Y-113689776D01*
X181492667Y-113713601D01*
X181504403Y-113735557D01*
X181520197Y-113754803D01*
X181539443Y-113770597D01*
X181561399Y-113782333D01*
X181585224Y-113789560D01*
X181610000Y-113792000D01*
X200533000Y-113792000D01*
X200533000Y-121920000D01*
X200535440Y-121944776D01*
X200542667Y-121968601D01*
X200554403Y-121990557D01*
X200570197Y-122009803D01*
X200589443Y-122025597D01*
X200611399Y-122037333D01*
X200635224Y-122044560D01*
X200660000Y-122047000D01*
X203707392Y-122047000D01*
X203708534Y-122048142D01*
X203356318Y-122247200D01*
X203129799Y-122682914D01*
X202992636Y-123154448D01*
X202950100Y-123643681D01*
X203003827Y-124131812D01*
X203151750Y-124600081D01*
X203356318Y-124982800D01*
X203708536Y-125181859D01*
X205275395Y-123615000D01*
X205261253Y-123600858D01*
X205440858Y-123421253D01*
X205455000Y-123435395D01*
X205469143Y-123421253D01*
X205648748Y-123600858D01*
X205634605Y-123615000D01*
X207201464Y-125181859D01*
X207553682Y-124982800D01*
X207780201Y-124547086D01*
X207917364Y-124075552D01*
X207959900Y-123586319D01*
X207906173Y-123098188D01*
X207758250Y-122629919D01*
X207553682Y-122247200D01*
X207201466Y-122048142D01*
X207202608Y-122047000D01*
X210693000Y-122047000D01*
X210693000Y-125284752D01*
X210563105Y-125297545D01*
X210282428Y-125382688D01*
X210023754Y-125520952D01*
X209797024Y-125707024D01*
X209610952Y-125933754D01*
X209472688Y-126192428D01*
X209387545Y-126473105D01*
X209358796Y-126765000D01*
X209387545Y-127056895D01*
X209472688Y-127337572D01*
X209610952Y-127596246D01*
X209797024Y-127822976D01*
X210023754Y-128009048D01*
X210282428Y-128147312D01*
X210563105Y-128232455D01*
X210693000Y-128245248D01*
X210693000Y-128778000D01*
X209956115Y-128778000D01*
X209916232Y-128718310D01*
X209736690Y-128538768D01*
X209525570Y-128397703D01*
X209290987Y-128300535D01*
X209041955Y-128251000D01*
X208788045Y-128251000D01*
X208539013Y-128300535D01*
X208304430Y-128397703D01*
X208093310Y-128538768D01*
X207913768Y-128718310D01*
X207873885Y-128778000D01*
X199796115Y-128778000D01*
X199756232Y-128718310D01*
X199576690Y-128538768D01*
X199365570Y-128397703D01*
X199130987Y-128300535D01*
X198881955Y-128251000D01*
X198628045Y-128251000D01*
X198379013Y-128300535D01*
X198144430Y-128397703D01*
X197933310Y-128538768D01*
X197753768Y-128718310D01*
X197713885Y-128778000D01*
X191897000Y-128778000D01*
X191897000Y-125361464D01*
X203888141Y-125361464D01*
X204087200Y-125713682D01*
X204522914Y-125940201D01*
X204994448Y-126077364D01*
X205483681Y-126119900D01*
X205971812Y-126066173D01*
X206440081Y-125918250D01*
X206822800Y-125713682D01*
X207021859Y-125361464D01*
X205455000Y-123794605D01*
X203888141Y-125361464D01*
X191897000Y-125361464D01*
X191897000Y-120650000D01*
X191894560Y-120625224D01*
X191887333Y-120601399D01*
X191875597Y-120579443D01*
X191859803Y-120560197D01*
X191840557Y-120544403D01*
X191818601Y-120532667D01*
X191794776Y-120525440D01*
X191770000Y-120523000D01*
X165227000Y-120523000D01*
X165227000Y-119431464D01*
X167628141Y-119431464D01*
X167827200Y-119783682D01*
X168262914Y-120010201D01*
X168734448Y-120147364D01*
X169223681Y-120189900D01*
X169711812Y-120136173D01*
X170180081Y-119988250D01*
X170562800Y-119783682D01*
X170761859Y-119431464D01*
X169195000Y-117864605D01*
X167628141Y-119431464D01*
X165227000Y-119431464D01*
X165227000Y-117713681D01*
X166690100Y-117713681D01*
X166743827Y-118201812D01*
X166891750Y-118670081D01*
X167096318Y-119052800D01*
X167448536Y-119251859D01*
X169015395Y-117685000D01*
X169374605Y-117685000D01*
X170941464Y-119251859D01*
X171293682Y-119052800D01*
X171520201Y-118617086D01*
X171657364Y-118145552D01*
X171699900Y-117656319D01*
X171646173Y-117168188D01*
X171498250Y-116699919D01*
X171293682Y-116317200D01*
X170941464Y-116118141D01*
X169374605Y-117685000D01*
X169015395Y-117685000D01*
X167448536Y-116118141D01*
X167096318Y-116317200D01*
X166869799Y-116752914D01*
X166732636Y-117224448D01*
X166690100Y-117713681D01*
X165227000Y-117713681D01*
X165227000Y-115938536D01*
X167628141Y-115938536D01*
X169195000Y-117505395D01*
X170761859Y-115938536D01*
X170562800Y-115586318D01*
X170127086Y-115359799D01*
X169655552Y-115222636D01*
X169166319Y-115180100D01*
X168678188Y-115233827D01*
X168209919Y-115381750D01*
X167827200Y-115586318D01*
X167628141Y-115938536D01*
X165227000Y-115938536D01*
X165227000Y-114943774D01*
X165262455Y-114826895D01*
X165291204Y-114535000D01*
X165262455Y-114243105D01*
X165227000Y-114126226D01*
X165227000Y-113792000D01*
X173990000Y-113792000D01*
X174014776Y-113789560D01*
X174038601Y-113782333D01*
X174060557Y-113770597D01*
X174079803Y-113754803D01*
X174095597Y-113735557D01*
X174107333Y-113713601D01*
X174114560Y-113689776D01*
X174117000Y-113665000D01*
X174117000Y-103505000D01*
X174114560Y-103480224D01*
X174107333Y-103456399D01*
X174095597Y-103434443D01*
X174079803Y-103415197D01*
X174060557Y-103399403D01*
X174038601Y-103387667D01*
X174014776Y-103380440D01*
X173990000Y-103378000D01*
X165227000Y-103378000D01*
X165227000Y-102286464D01*
X167628141Y-102286464D01*
X167827200Y-102638682D01*
X168262914Y-102865201D01*
X168734448Y-103002364D01*
X169223681Y-103044900D01*
X169711812Y-102991173D01*
X170180081Y-102843250D01*
X170562800Y-102638682D01*
X170761859Y-102286464D01*
X169195000Y-100719605D01*
X167628141Y-102286464D01*
X165227000Y-102286464D01*
X165227000Y-100568681D01*
X166690100Y-100568681D01*
X166743827Y-101056812D01*
X166891750Y-101525081D01*
X167096318Y-101907800D01*
X167448536Y-102106859D01*
X169015395Y-100540000D01*
X169374605Y-100540000D01*
X170941464Y-102106859D01*
X171293682Y-101907800D01*
X171520201Y-101472086D01*
X171657364Y-101000552D01*
X171699900Y-100511319D01*
X171646173Y-100023188D01*
X171498250Y-99554919D01*
X171293682Y-99172200D01*
X170941464Y-98973141D01*
X169374605Y-100540000D01*
X169015395Y-100540000D01*
X167448536Y-98973141D01*
X167096318Y-99172200D01*
X166869799Y-99607914D01*
X166732636Y-100079448D01*
X166690100Y-100568681D01*
X165227000Y-100568681D01*
X165227000Y-98793536D01*
X167628141Y-98793536D01*
X169195000Y-100360395D01*
X170761859Y-98793536D01*
X170562800Y-98441318D01*
X170127086Y-98214799D01*
X169655552Y-98077636D01*
X169166319Y-98035100D01*
X168678188Y-98088827D01*
X168209919Y-98236750D01*
X167827200Y-98441318D01*
X167628141Y-98793536D01*
X165227000Y-98793536D01*
X165227000Y-97798774D01*
X165262455Y-97681895D01*
X165291204Y-97390000D01*
X165262455Y-97098105D01*
X165227000Y-96981226D01*
X165227000Y-96647000D01*
X181483000Y-96647000D01*
X181483000Y-113665000D01*
G37*
G04 #@! TD.AperFunction*
D23*
X172593000Y-112268000D02*
X164375639Y-112268000D01*
X164626246Y-112134048D01*
X164852976Y-111947976D01*
X165039048Y-111721246D01*
X165177312Y-111462572D01*
X165262455Y-111181895D01*
X165291204Y-110890000D01*
X165262455Y-110598105D01*
X165177312Y-110317428D01*
X165039048Y-110058754D01*
X164852976Y-109832024D01*
X164626246Y-109645952D01*
X164536535Y-109598000D01*
X166698928Y-109598000D01*
X166711188Y-109722482D01*
X166747498Y-109842180D01*
X166806463Y-109952494D01*
X166885815Y-110049185D01*
X166982506Y-110128537D01*
X167092820Y-110187502D01*
X167212518Y-110223812D01*
X167337000Y-110236072D01*
X168909250Y-110233000D01*
X169068000Y-110074250D01*
X169068000Y-107867000D01*
X169322000Y-107867000D01*
X169322000Y-110074250D01*
X169480750Y-110233000D01*
X171053000Y-110236072D01*
X171177482Y-110223812D01*
X171297180Y-110187502D01*
X171407494Y-110128537D01*
X171504185Y-110049185D01*
X171583537Y-109952494D01*
X171642502Y-109842180D01*
X171678812Y-109722482D01*
X171691072Y-109598000D01*
X171688000Y-108025750D01*
X171529250Y-107867000D01*
X169322000Y-107867000D01*
X169068000Y-107867000D01*
X166860750Y-107867000D01*
X166702000Y-108025750D01*
X166698928Y-109598000D01*
X164536535Y-109598000D01*
X164367572Y-109507688D01*
X164086895Y-109422545D01*
X163868144Y-109401000D01*
X162521856Y-109401000D01*
X162303105Y-109422545D01*
X162022428Y-109507688D01*
X161763754Y-109645952D01*
X161537024Y-109832024D01*
X161350952Y-110058754D01*
X161212688Y-110317428D01*
X161127545Y-110598105D01*
X161098796Y-110890000D01*
X161127545Y-111181895D01*
X161212688Y-111462572D01*
X161350952Y-111721246D01*
X161537024Y-111947976D01*
X161763754Y-112134048D01*
X162022428Y-112272312D01*
X162303105Y-112357455D01*
X162521856Y-112379000D01*
X163704576Y-112379000D01*
X163703000Y-112395000D01*
X163703000Y-113046000D01*
X162521856Y-113046000D01*
X162303105Y-113067545D01*
X162022428Y-113152688D01*
X161763754Y-113290952D01*
X161537024Y-113477024D01*
X161350952Y-113703754D01*
X161212688Y-113962428D01*
X161127545Y-114243105D01*
X161098796Y-114535000D01*
X161127545Y-114826895D01*
X161212688Y-115107572D01*
X161350952Y-115366246D01*
X161537024Y-115592976D01*
X161763754Y-115779048D01*
X162022428Y-115917312D01*
X162303105Y-116002455D01*
X162521856Y-116024000D01*
X163703000Y-116024000D01*
X163703000Y-126546000D01*
X162521856Y-126546000D01*
X162303105Y-126567545D01*
X162022428Y-126652688D01*
X161763754Y-126790952D01*
X161537024Y-126977024D01*
X161350952Y-127203754D01*
X161212688Y-127462428D01*
X161127545Y-127743105D01*
X161098796Y-128035000D01*
X161127545Y-128326895D01*
X161212688Y-128607572D01*
X161350952Y-128866246D01*
X161537024Y-129092976D01*
X161763754Y-129279048D01*
X162022428Y-129417312D01*
X162303105Y-129502455D01*
X162521856Y-129524000D01*
X163703000Y-129524000D01*
X163703000Y-129998920D01*
X163158734Y-130162587D01*
X162562097Y-130479648D01*
X162548263Y-130488890D01*
X162236680Y-130937074D01*
X163703000Y-132403395D01*
X163703000Y-132762605D01*
X162057074Y-131116680D01*
X161608890Y-131428263D01*
X161288954Y-132023364D01*
X161091263Y-132669446D01*
X161023415Y-133341682D01*
X161088018Y-134014237D01*
X161282587Y-134661266D01*
X161599648Y-135257903D01*
X161608890Y-135271737D01*
X162057074Y-135583320D01*
X163703000Y-133937395D01*
X163703000Y-134296605D01*
X162236680Y-135762926D01*
X162548263Y-136211110D01*
X163143364Y-136531046D01*
X163703000Y-136702286D01*
X163703000Y-136881000D01*
X153314000Y-136881000D01*
X153314000Y-135762926D01*
X153906680Y-135762926D01*
X154218263Y-136211110D01*
X154813364Y-136531046D01*
X155459446Y-136728737D01*
X156131682Y-136796585D01*
X156804237Y-136731982D01*
X157451266Y-136537413D01*
X158047903Y-136220352D01*
X158061737Y-136211110D01*
X158373320Y-135762926D01*
X156140000Y-133529605D01*
X153906680Y-135762926D01*
X153314000Y-135762926D01*
X153314000Y-135296146D01*
X153727074Y-135583320D01*
X155960395Y-133350000D01*
X156319605Y-133350000D01*
X158552926Y-135583320D01*
X159001110Y-135271737D01*
X159321046Y-134676636D01*
X159518737Y-134030554D01*
X159586585Y-133358318D01*
X159521982Y-132685763D01*
X159327413Y-132038734D01*
X159010352Y-131442097D01*
X159001110Y-131428263D01*
X158552926Y-131116680D01*
X156319605Y-133350000D01*
X155960395Y-133350000D01*
X153727074Y-131116680D01*
X153314000Y-131403854D01*
X153314000Y-130937074D01*
X153906680Y-130937074D01*
X156140000Y-133170395D01*
X158373320Y-130937074D01*
X158061737Y-130488890D01*
X157466636Y-130168954D01*
X156820554Y-129971263D01*
X156148318Y-129903415D01*
X155475763Y-129968018D01*
X154828734Y-130162587D01*
X154232097Y-130479648D01*
X154218263Y-130488890D01*
X153906680Y-130937074D01*
X153314000Y-130937074D01*
X153314000Y-126973441D01*
X153543045Y-127019000D01*
X153796955Y-127019000D01*
X154045987Y-126969465D01*
X154280570Y-126872297D01*
X154491690Y-126731232D01*
X154671232Y-126551690D01*
X154812297Y-126340570D01*
X154909465Y-126105987D01*
X154959000Y-125856955D01*
X154959000Y-125603045D01*
X154909465Y-125354013D01*
X154812297Y-125119430D01*
X154671232Y-124908310D01*
X154491690Y-124728768D01*
X154280570Y-124587703D01*
X154045987Y-124490535D01*
X153796955Y-124441000D01*
X153543045Y-124441000D01*
X153314000Y-124486559D01*
X153314000Y-114273441D01*
X153543045Y-114319000D01*
X153796955Y-114319000D01*
X154045987Y-114269465D01*
X154280570Y-114172297D01*
X154491690Y-114031232D01*
X154671232Y-113851690D01*
X154812297Y-113640570D01*
X154909465Y-113405987D01*
X154959000Y-113156955D01*
X154959000Y-112903045D01*
X154909465Y-112654013D01*
X154812297Y-112419430D01*
X154671232Y-112208310D01*
X154491690Y-112028768D01*
X154280570Y-111887703D01*
X154045987Y-111790535D01*
X153796955Y-111741000D01*
X153543045Y-111741000D01*
X153314000Y-111786559D01*
X153314000Y-105882000D01*
X166698928Y-105882000D01*
X166702000Y-107454250D01*
X166860750Y-107613000D01*
X169068000Y-107613000D01*
X169068000Y-105405750D01*
X169322000Y-105405750D01*
X169322000Y-107613000D01*
X171529250Y-107613000D01*
X171688000Y-107454250D01*
X171691072Y-105882000D01*
X171678812Y-105757518D01*
X171642502Y-105637820D01*
X171583537Y-105527506D01*
X171504185Y-105430815D01*
X171407494Y-105351463D01*
X171297180Y-105292498D01*
X171177482Y-105256188D01*
X171053000Y-105243928D01*
X169480750Y-105247000D01*
X169322000Y-105405750D01*
X169068000Y-105405750D01*
X168909250Y-105247000D01*
X167337000Y-105243928D01*
X167212518Y-105256188D01*
X167092820Y-105292498D01*
X166982506Y-105351463D01*
X166885815Y-105430815D01*
X166806463Y-105527506D01*
X166747498Y-105637820D01*
X166711188Y-105757518D01*
X166698928Y-105882000D01*
X153314000Y-105882000D01*
X153314000Y-104902000D01*
X172593000Y-104902000D01*
X172593000Y-112268000D01*
G04 #@! TA.AperFunction,Conductor*
D24*
G36*
X172593000Y-112268000D02*
G01*
X164375639Y-112268000D01*
X164626246Y-112134048D01*
X164852976Y-111947976D01*
X165039048Y-111721246D01*
X165177312Y-111462572D01*
X165262455Y-111181895D01*
X165291204Y-110890000D01*
X165262455Y-110598105D01*
X165177312Y-110317428D01*
X165039048Y-110058754D01*
X164852976Y-109832024D01*
X164626246Y-109645952D01*
X164536535Y-109598000D01*
X166698928Y-109598000D01*
X166711188Y-109722482D01*
X166747498Y-109842180D01*
X166806463Y-109952494D01*
X166885815Y-110049185D01*
X166982506Y-110128537D01*
X167092820Y-110187502D01*
X167212518Y-110223812D01*
X167337000Y-110236072D01*
X168909250Y-110233000D01*
X169068000Y-110074250D01*
X169068000Y-107867000D01*
X169322000Y-107867000D01*
X169322000Y-110074250D01*
X169480750Y-110233000D01*
X171053000Y-110236072D01*
X171177482Y-110223812D01*
X171297180Y-110187502D01*
X171407494Y-110128537D01*
X171504185Y-110049185D01*
X171583537Y-109952494D01*
X171642502Y-109842180D01*
X171678812Y-109722482D01*
X171691072Y-109598000D01*
X171688000Y-108025750D01*
X171529250Y-107867000D01*
X169322000Y-107867000D01*
X169068000Y-107867000D01*
X166860750Y-107867000D01*
X166702000Y-108025750D01*
X166698928Y-109598000D01*
X164536535Y-109598000D01*
X164367572Y-109507688D01*
X164086895Y-109422545D01*
X163868144Y-109401000D01*
X162521856Y-109401000D01*
X162303105Y-109422545D01*
X162022428Y-109507688D01*
X161763754Y-109645952D01*
X161537024Y-109832024D01*
X161350952Y-110058754D01*
X161212688Y-110317428D01*
X161127545Y-110598105D01*
X161098796Y-110890000D01*
X161127545Y-111181895D01*
X161212688Y-111462572D01*
X161350952Y-111721246D01*
X161537024Y-111947976D01*
X161763754Y-112134048D01*
X162022428Y-112272312D01*
X162303105Y-112357455D01*
X162521856Y-112379000D01*
X163704576Y-112379000D01*
X163703000Y-112395000D01*
X163703000Y-113046000D01*
X162521856Y-113046000D01*
X162303105Y-113067545D01*
X162022428Y-113152688D01*
X161763754Y-113290952D01*
X161537024Y-113477024D01*
X161350952Y-113703754D01*
X161212688Y-113962428D01*
X161127545Y-114243105D01*
X161098796Y-114535000D01*
X161127545Y-114826895D01*
X161212688Y-115107572D01*
X161350952Y-115366246D01*
X161537024Y-115592976D01*
X161763754Y-115779048D01*
X162022428Y-115917312D01*
X162303105Y-116002455D01*
X162521856Y-116024000D01*
X163703000Y-116024000D01*
X163703000Y-126546000D01*
X162521856Y-126546000D01*
X162303105Y-126567545D01*
X162022428Y-126652688D01*
X161763754Y-126790952D01*
X161537024Y-126977024D01*
X161350952Y-127203754D01*
X161212688Y-127462428D01*
X161127545Y-127743105D01*
X161098796Y-128035000D01*
X161127545Y-128326895D01*
X161212688Y-128607572D01*
X161350952Y-128866246D01*
X161537024Y-129092976D01*
X161763754Y-129279048D01*
X162022428Y-129417312D01*
X162303105Y-129502455D01*
X162521856Y-129524000D01*
X163703000Y-129524000D01*
X163703000Y-129998920D01*
X163158734Y-130162587D01*
X162562097Y-130479648D01*
X162548263Y-130488890D01*
X162236680Y-130937074D01*
X163703000Y-132403395D01*
X163703000Y-132762605D01*
X162057074Y-131116680D01*
X161608890Y-131428263D01*
X161288954Y-132023364D01*
X161091263Y-132669446D01*
X161023415Y-133341682D01*
X161088018Y-134014237D01*
X161282587Y-134661266D01*
X161599648Y-135257903D01*
X161608890Y-135271737D01*
X162057074Y-135583320D01*
X163703000Y-133937395D01*
X163703000Y-134296605D01*
X162236680Y-135762926D01*
X162548263Y-136211110D01*
X163143364Y-136531046D01*
X163703000Y-136702286D01*
X163703000Y-136881000D01*
X153314000Y-136881000D01*
X153314000Y-135762926D01*
X153906680Y-135762926D01*
X154218263Y-136211110D01*
X154813364Y-136531046D01*
X155459446Y-136728737D01*
X156131682Y-136796585D01*
X156804237Y-136731982D01*
X157451266Y-136537413D01*
X158047903Y-136220352D01*
X158061737Y-136211110D01*
X158373320Y-135762926D01*
X156140000Y-133529605D01*
X153906680Y-135762926D01*
X153314000Y-135762926D01*
X153314000Y-135296146D01*
X153727074Y-135583320D01*
X155960395Y-133350000D01*
X156319605Y-133350000D01*
X158552926Y-135583320D01*
X159001110Y-135271737D01*
X159321046Y-134676636D01*
X159518737Y-134030554D01*
X159586585Y-133358318D01*
X159521982Y-132685763D01*
X159327413Y-132038734D01*
X159010352Y-131442097D01*
X159001110Y-131428263D01*
X158552926Y-131116680D01*
X156319605Y-133350000D01*
X155960395Y-133350000D01*
X153727074Y-131116680D01*
X153314000Y-131403854D01*
X153314000Y-130937074D01*
X153906680Y-130937074D01*
X156140000Y-133170395D01*
X158373320Y-130937074D01*
X158061737Y-130488890D01*
X157466636Y-130168954D01*
X156820554Y-129971263D01*
X156148318Y-129903415D01*
X155475763Y-129968018D01*
X154828734Y-130162587D01*
X154232097Y-130479648D01*
X154218263Y-130488890D01*
X153906680Y-130937074D01*
X153314000Y-130937074D01*
X153314000Y-126973441D01*
X153543045Y-127019000D01*
X153796955Y-127019000D01*
X154045987Y-126969465D01*
X154280570Y-126872297D01*
X154491690Y-126731232D01*
X154671232Y-126551690D01*
X154812297Y-126340570D01*
X154909465Y-126105987D01*
X154959000Y-125856955D01*
X154959000Y-125603045D01*
X154909465Y-125354013D01*
X154812297Y-125119430D01*
X154671232Y-124908310D01*
X154491690Y-124728768D01*
X154280570Y-124587703D01*
X154045987Y-124490535D01*
X153796955Y-124441000D01*
X153543045Y-124441000D01*
X153314000Y-124486559D01*
X153314000Y-114273441D01*
X153543045Y-114319000D01*
X153796955Y-114319000D01*
X154045987Y-114269465D01*
X154280570Y-114172297D01*
X154491690Y-114031232D01*
X154671232Y-113851690D01*
X154812297Y-113640570D01*
X154909465Y-113405987D01*
X154959000Y-113156955D01*
X154959000Y-112903045D01*
X154909465Y-112654013D01*
X154812297Y-112419430D01*
X154671232Y-112208310D01*
X154491690Y-112028768D01*
X154280570Y-111887703D01*
X154045987Y-111790535D01*
X153796955Y-111741000D01*
X153543045Y-111741000D01*
X153314000Y-111786559D01*
X153314000Y-105882000D01*
X166698928Y-105882000D01*
X166702000Y-107454250D01*
X166860750Y-107613000D01*
X169068000Y-107613000D01*
X169068000Y-105405750D01*
X169322000Y-105405750D01*
X169322000Y-107613000D01*
X171529250Y-107613000D01*
X171688000Y-107454250D01*
X171691072Y-105882000D01*
X171678812Y-105757518D01*
X171642502Y-105637820D01*
X171583537Y-105527506D01*
X171504185Y-105430815D01*
X171407494Y-105351463D01*
X171297180Y-105292498D01*
X171177482Y-105256188D01*
X171053000Y-105243928D01*
X169480750Y-105247000D01*
X169322000Y-105405750D01*
X169068000Y-105405750D01*
X168909250Y-105247000D01*
X167337000Y-105243928D01*
X167212518Y-105256188D01*
X167092820Y-105292498D01*
X166982506Y-105351463D01*
X166885815Y-105430815D01*
X166806463Y-105527506D01*
X166747498Y-105637820D01*
X166711188Y-105757518D01*
X166698928Y-105882000D01*
X153314000Y-105882000D01*
X153314000Y-104902000D01*
X172593000Y-104902000D01*
X172593000Y-112268000D01*
G37*
G04 #@! TD.AperFunction*
D25*
X221526501Y-88804061D02*
X221523585Y-88774459D01*
X221469406Y-88595855D01*
X221381425Y-88431253D01*
X221263022Y-88286978D01*
X221118747Y-88168575D01*
X220954145Y-88080594D01*
X220775541Y-88026415D01*
X220589800Y-88008121D01*
X217190200Y-88008121D01*
X217004459Y-88026415D01*
X216825855Y-88080594D01*
X216661253Y-88168575D01*
X216516978Y-88286978D01*
X216398575Y-88431253D01*
X216310594Y-88595855D01*
X216256415Y-88774459D01*
X216238121Y-88960200D01*
X216238121Y-90259800D01*
X216256415Y-90445541D01*
X216299963Y-90589100D01*
X212442455Y-90589100D01*
X211392120Y-89538766D01*
X211283500Y-89430146D01*
X211283500Y-89426807D01*
X211241285Y-89214579D01*
X211158478Y-89014665D01*
X211038261Y-88834747D01*
X210885253Y-88681739D01*
X210705335Y-88561522D01*
X210505421Y-88478715D01*
X210293193Y-88436500D01*
X210076807Y-88436500D01*
X209864579Y-88478715D01*
X209664665Y-88561522D01*
X209484747Y-88681739D01*
X209362758Y-88803728D01*
X209440135Y-88616923D01*
X209481110Y-88410929D01*
X210825436Y-87066603D01*
X210861778Y-87036778D01*
X210980806Y-86891741D01*
X211069252Y-86726269D01*
X211123717Y-86546723D01*
X211137500Y-86406785D01*
X211137500Y-86406784D01*
X211142108Y-86360000D01*
X211137500Y-86313215D01*
X211137500Y-83866784D01*
X211142108Y-83819999D01*
X211123717Y-83633277D01*
X211109014Y-83584809D01*
X211069252Y-83453731D01*
X210980806Y-83288259D01*
X210861778Y-83143222D01*
X210825436Y-83113397D01*
X209621607Y-81909569D01*
X209591778Y-81873222D01*
X209446741Y-81754194D01*
X209281269Y-81665748D01*
X209101723Y-81611283D01*
X208961785Y-81597500D01*
X208915000Y-81592892D01*
X208868215Y-81597500D01*
X183197500Y-81597500D01*
X183197500Y-80561731D01*
X183218478Y-80530335D01*
X183301285Y-80330421D01*
X183343500Y-80118193D01*
X183343500Y-79901807D01*
X183301285Y-79689579D01*
X183218478Y-79489665D01*
X183098261Y-79309747D01*
X182945253Y-79156739D01*
X182765335Y-79036522D01*
X182565421Y-78953715D01*
X182353193Y-78911500D01*
X182136807Y-78911500D01*
X181924579Y-78953715D01*
X181724665Y-79036522D01*
X181544747Y-79156739D01*
X181391739Y-79309747D01*
X181271522Y-79489665D01*
X181188715Y-79689579D01*
X181146500Y-79901807D01*
X181146500Y-80118193D01*
X181188715Y-80330421D01*
X181271522Y-80530335D01*
X181292501Y-80561732D01*
X181292500Y-81597500D01*
X173401784Y-81597500D01*
X173354999Y-81592892D01*
X173168277Y-81611283D01*
X172988731Y-81665748D01*
X172823259Y-81754194D01*
X172678222Y-81873222D01*
X172648393Y-81909569D01*
X171804565Y-82753397D01*
X171768223Y-82783222D01*
X171738399Y-82819563D01*
X171649194Y-82928260D01*
X171560749Y-83093731D01*
X171506283Y-83273278D01*
X171494972Y-83388121D01*
X171445000Y-83388121D01*
X171308070Y-83401607D01*
X171176403Y-83441548D01*
X171055057Y-83506409D01*
X170948697Y-83593697D01*
X170861409Y-83700057D01*
X170796548Y-83821403D01*
X170756607Y-83953070D01*
X170743121Y-84090000D01*
X170743121Y-86090000D01*
X170756607Y-86226930D01*
X170796548Y-86358597D01*
X170861409Y-86479943D01*
X170948697Y-86586303D01*
X171055057Y-86673591D01*
X171176403Y-86738452D01*
X171308070Y-86778393D01*
X171445000Y-86791879D01*
X171594100Y-86791879D01*
X171594101Y-91089329D01*
X171564665Y-91101522D01*
X171384747Y-91221739D01*
X171231739Y-91374747D01*
X171111522Y-91554665D01*
X171028715Y-91754579D01*
X170986500Y-91966807D01*
X170986500Y-92183193D01*
X171028715Y-92395421D01*
X171111522Y-92595335D01*
X171231739Y-92775253D01*
X171384747Y-92928261D01*
X171564665Y-93048478D01*
X171764579Y-93131285D01*
X171976807Y-93173500D01*
X172193193Y-93173500D01*
X172405421Y-93131285D01*
X172605335Y-93048478D01*
X172785253Y-92928261D01*
X172938261Y-92775253D01*
X173058478Y-92595335D01*
X173141285Y-92395421D01*
X173183500Y-92183193D01*
X173183500Y-92138425D01*
X173234933Y-92042201D01*
X173283588Y-91881806D01*
X173295900Y-91756800D01*
X173295900Y-91756793D01*
X173300016Y-91715000D01*
X173295900Y-91673207D01*
X173295900Y-88791807D01*
X203371500Y-88791807D01*
X203371500Y-89008193D01*
X203413715Y-89220421D01*
X203496522Y-89420335D01*
X203616739Y-89600253D01*
X203769747Y-89753261D01*
X203949665Y-89873478D01*
X204149579Y-89956285D01*
X204361807Y-89998500D01*
X204578193Y-89998500D01*
X204790421Y-89956285D01*
X204990335Y-89873478D01*
X205170253Y-89753261D01*
X205323261Y-89600253D01*
X205443478Y-89420335D01*
X205526285Y-89220421D01*
X205568500Y-89008193D01*
X205568500Y-88791807D01*
X205526285Y-88579579D01*
X205443478Y-88379665D01*
X205323261Y-88199747D01*
X205170253Y-88046739D01*
X204990335Y-87926522D01*
X204790421Y-87843715D01*
X204578193Y-87801500D01*
X204361807Y-87801500D01*
X204149579Y-87843715D01*
X203949665Y-87926522D01*
X203769747Y-88046739D01*
X203616739Y-88199747D01*
X203496522Y-88379665D01*
X203413715Y-88579579D01*
X203371500Y-88791807D01*
X173295900Y-88791807D01*
X173295900Y-86791879D01*
X173445000Y-86791879D01*
X173581930Y-86778393D01*
X173713597Y-86738452D01*
X173834943Y-86673591D01*
X173941303Y-86586303D01*
X174028591Y-86479943D01*
X174093452Y-86358597D01*
X174129097Y-86241092D01*
X174142144Y-86271699D01*
X174388877Y-86413426D01*
X174658519Y-86504294D01*
X174940707Y-86540812D01*
X175224597Y-86521576D01*
X175499280Y-86447325D01*
X175754200Y-86320914D01*
X175827856Y-86271699D01*
X175923758Y-86046718D01*
X174985000Y-85107961D01*
X174970858Y-85122103D01*
X174952897Y-85104142D01*
X174967039Y-85090000D01*
X174952897Y-85075858D01*
X174970858Y-85057897D01*
X174985000Y-85072039D01*
X175923758Y-84133282D01*
X175827856Y-83908301D01*
X175581123Y-83766574D01*
X175311481Y-83675706D01*
X175029293Y-83639188D01*
X174745403Y-83658424D01*
X174470720Y-83732675D01*
X174215800Y-83859086D01*
X174142144Y-83908301D01*
X174129097Y-83938908D01*
X174093452Y-83821403D01*
X174028591Y-83700057D01*
X173941303Y-83593697D01*
X173834943Y-83506409D01*
X173827630Y-83502500D01*
X176919171Y-83502500D01*
X176720459Y-83584809D01*
X176442270Y-83770689D01*
X176205689Y-84007270D01*
X176072298Y-84206904D01*
X175941718Y-84151242D01*
X175002961Y-85090000D01*
X175941718Y-86028758D01*
X176072298Y-85973096D01*
X176205689Y-86172730D01*
X176442270Y-86409311D01*
X176720459Y-86595191D01*
X177029566Y-86723227D01*
X177357712Y-86788500D01*
X177692288Y-86788500D01*
X178020434Y-86723227D01*
X178329541Y-86595191D01*
X178607730Y-86409311D01*
X178795000Y-86222041D01*
X178982270Y-86409311D01*
X179260459Y-86595191D01*
X179569566Y-86723227D01*
X179897712Y-86788500D01*
X180232288Y-86788500D01*
X180560434Y-86723227D01*
X180869541Y-86595191D01*
X181147730Y-86409311D01*
X181335000Y-86222041D01*
X181522270Y-86409311D01*
X181800459Y-86595191D01*
X182109566Y-86723227D01*
X182437712Y-86788500D01*
X182772288Y-86788500D01*
X183100434Y-86723227D01*
X183409541Y-86595191D01*
X183687730Y-86409311D01*
X183875000Y-86222041D01*
X184062270Y-86409311D01*
X184340459Y-86595191D01*
X184649566Y-86723227D01*
X184977712Y-86788500D01*
X185312288Y-86788500D01*
X185640434Y-86723227D01*
X185949541Y-86595191D01*
X186227730Y-86409311D01*
X186415000Y-86222041D01*
X186602270Y-86409311D01*
X186880459Y-86595191D01*
X187189566Y-86723227D01*
X187517712Y-86788500D01*
X187852288Y-86788500D01*
X188180434Y-86723227D01*
X188489541Y-86595191D01*
X188767730Y-86409311D01*
X188955000Y-86222041D01*
X189142270Y-86409311D01*
X189420459Y-86595191D01*
X189729566Y-86723227D01*
X190057712Y-86788500D01*
X190392288Y-86788500D01*
X190720434Y-86723227D01*
X191029541Y-86595191D01*
X191307730Y-86409311D01*
X191495000Y-86222041D01*
X191682270Y-86409311D01*
X191960459Y-86595191D01*
X192269566Y-86723227D01*
X192597712Y-86788500D01*
X192932288Y-86788500D01*
X193260434Y-86723227D01*
X193569541Y-86595191D01*
X193847730Y-86409311D01*
X194035000Y-86222041D01*
X194222270Y-86409311D01*
X194500459Y-86595191D01*
X194809566Y-86723227D01*
X195137712Y-86788500D01*
X195472288Y-86788500D01*
X195800434Y-86723227D01*
X196109541Y-86595191D01*
X196387730Y-86409311D01*
X196575000Y-86222041D01*
X196762270Y-86409311D01*
X197040459Y-86595191D01*
X197349566Y-86723227D01*
X197677712Y-86788500D01*
X198012288Y-86788500D01*
X198340434Y-86723227D01*
X198649541Y-86595191D01*
X198927730Y-86409311D01*
X199115000Y-86222041D01*
X199302270Y-86409311D01*
X199580459Y-86595191D01*
X199889566Y-86723227D01*
X200217712Y-86788500D01*
X200552288Y-86788500D01*
X200880434Y-86723227D01*
X201189541Y-86595191D01*
X201467730Y-86409311D01*
X201655000Y-86222041D01*
X201842270Y-86409311D01*
X202120459Y-86595191D01*
X202429566Y-86723227D01*
X202757712Y-86788500D01*
X203092288Y-86788500D01*
X203420434Y-86723227D01*
X203729541Y-86595191D01*
X204007730Y-86409311D01*
X204195000Y-86222041D01*
X204382270Y-86409311D01*
X204660459Y-86595191D01*
X204969566Y-86723227D01*
X205297712Y-86788500D01*
X205632288Y-86788500D01*
X205960434Y-86723227D01*
X206269541Y-86595191D01*
X206547730Y-86409311D01*
X206735000Y-86222041D01*
X206922270Y-86409311D01*
X207200459Y-86595191D01*
X207509566Y-86723227D01*
X207837712Y-86788500D01*
X208172288Y-86788500D01*
X208468353Y-86729608D01*
X208134071Y-87063890D01*
X207928077Y-87104865D01*
X207708508Y-87195813D01*
X207510901Y-87327850D01*
X207342850Y-87495901D01*
X207210813Y-87693508D01*
X207119865Y-87913077D01*
X207073500Y-88146170D01*
X207073500Y-88383830D01*
X207119865Y-88616923D01*
X207210813Y-88836492D01*
X207327501Y-89011127D01*
X207327500Y-92028215D01*
X207322892Y-92075000D01*
X207327500Y-92121784D01*
X207341283Y-92261722D01*
X207395748Y-92441268D01*
X207484194Y-92606741D01*
X207603222Y-92751778D01*
X207639569Y-92781607D01*
X208308397Y-93450436D01*
X208338222Y-93486778D01*
X208483259Y-93605806D01*
X208648731Y-93694252D01*
X208828277Y-93748717D01*
X209015000Y-93767108D01*
X209061785Y-93762500D01*
X209317749Y-93762500D01*
X209416803Y-93883197D01*
X209560987Y-94001526D01*
X209670384Y-94060000D01*
X209560987Y-94118474D01*
X209416803Y-94236803D01*
X209298474Y-94380987D01*
X209256722Y-94459100D01*
X206356792Y-94459100D01*
X206314999Y-94454984D01*
X206273206Y-94459100D01*
X206273200Y-94459100D01*
X206165761Y-94469682D01*
X206148193Y-94471412D01*
X206099538Y-94486172D01*
X205987799Y-94520067D01*
X205839978Y-94599079D01*
X205710412Y-94705412D01*
X205683766Y-94737880D01*
X204532880Y-95888766D01*
X204500412Y-95915412D01*
X204473767Y-95947879D01*
X204473766Y-95947880D01*
X204462003Y-95962213D01*
X204394079Y-96044979D01*
X204315067Y-96192800D01*
X204266412Y-96353195D01*
X204254100Y-96478201D01*
X204254100Y-96478207D01*
X204249984Y-96520000D01*
X204254100Y-96561793D01*
X204254101Y-101532385D01*
X204251739Y-101534747D01*
X204131522Y-101714665D01*
X204048715Y-101914579D01*
X204006500Y-102126807D01*
X204006500Y-102343193D01*
X204048715Y-102555421D01*
X204131522Y-102755335D01*
X204251739Y-102935253D01*
X204404747Y-103088261D01*
X204584665Y-103208478D01*
X204784579Y-103291285D01*
X204996807Y-103333500D01*
X205213193Y-103333500D01*
X205425421Y-103291285D01*
X205625335Y-103208478D01*
X205805253Y-103088261D01*
X205958261Y-102935253D01*
X206078478Y-102755335D01*
X206161285Y-102555421D01*
X206203500Y-102343193D01*
X206203500Y-102126807D01*
X206161285Y-101914579D01*
X206078478Y-101714665D01*
X205958261Y-101534747D01*
X205955900Y-101532386D01*
X205955900Y-100960000D01*
X209393349Y-100960000D01*
X209401931Y-101047137D01*
X209427348Y-101130926D01*
X209468623Y-101208146D01*
X209524170Y-101275830D01*
X209591854Y-101331377D01*
X209669074Y-101372652D01*
X209752863Y-101398069D01*
X209840000Y-101406651D01*
X211966175Y-101404500D01*
X212077300Y-101293375D01*
X212077300Y-100322700D01*
X212102700Y-100322700D01*
X212102700Y-101293375D01*
X212213825Y-101404500D01*
X214340000Y-101406651D01*
X214427137Y-101398069D01*
X214510926Y-101372652D01*
X214588146Y-101331377D01*
X214655830Y-101275830D01*
X214711377Y-101208146D01*
X214752652Y-101130926D01*
X214778069Y-101047137D01*
X214786651Y-100960000D01*
X214784500Y-100433825D01*
X214673375Y-100322700D01*
X212102700Y-100322700D01*
X212077300Y-100322700D01*
X209506625Y-100322700D01*
X209395500Y-100433825D01*
X209393349Y-100960000D01*
X205955900Y-100960000D01*
X205955900Y-99660000D01*
X209393349Y-99660000D01*
X209395500Y-100186175D01*
X209506625Y-100297300D01*
X212077300Y-100297300D01*
X212077300Y-99326625D01*
X212102700Y-99326625D01*
X212102700Y-100297300D01*
X214673375Y-100297300D01*
X214784500Y-100186175D01*
X214786651Y-99660000D01*
X214778069Y-99572863D01*
X214752652Y-99489074D01*
X214711377Y-99411854D01*
X214655830Y-99344170D01*
X214588146Y-99288623D01*
X214510926Y-99247348D01*
X214427137Y-99221931D01*
X214340000Y-99213349D01*
X212213825Y-99215500D01*
X212102700Y-99326625D01*
X212077300Y-99326625D01*
X211966175Y-99215500D01*
X209840000Y-99213349D01*
X209752863Y-99221931D01*
X209669074Y-99247348D01*
X209591854Y-99288623D01*
X209524170Y-99344170D01*
X209468623Y-99411854D01*
X209427348Y-99489074D01*
X209401931Y-99572863D01*
X209393349Y-99660000D01*
X205955900Y-99660000D01*
X205955900Y-96872454D01*
X206667454Y-96160900D01*
X207874736Y-96160900D01*
X207858715Y-96199579D01*
X207816500Y-96411807D01*
X207816500Y-96628193D01*
X207858715Y-96840421D01*
X207941522Y-97040335D01*
X208061739Y-97220253D01*
X208214747Y-97373261D01*
X208394665Y-97493478D01*
X208594579Y-97576285D01*
X208806807Y-97618500D01*
X209023193Y-97618500D01*
X209138121Y-97595639D01*
X209138121Y-98210400D01*
X209156403Y-98396024D01*
X209210548Y-98574515D01*
X209298474Y-98739013D01*
X209416803Y-98883197D01*
X209560987Y-99001526D01*
X209725485Y-99089452D01*
X209903976Y-99143597D01*
X210089600Y-99161879D01*
X214090400Y-99161879D01*
X214276024Y-99143597D01*
X214454515Y-99089452D01*
X214605431Y-99008786D01*
X215684100Y-100087455D01*
X215684101Y-100897385D01*
X215681739Y-100899747D01*
X215561522Y-101079665D01*
X215478715Y-101279579D01*
X215436500Y-101491807D01*
X215436500Y-101708193D01*
X215478715Y-101920421D01*
X215494736Y-101959100D01*
X214923278Y-101959100D01*
X214881526Y-101880987D01*
X214763197Y-101736803D01*
X214619013Y-101618474D01*
X214454515Y-101530548D01*
X214276024Y-101476403D01*
X214090400Y-101458121D01*
X210089600Y-101458121D01*
X209903976Y-101476403D01*
X209725485Y-101530548D01*
X209560987Y-101618474D01*
X209416803Y-101736803D01*
X209298474Y-101880987D01*
X209210548Y-102045485D01*
X209156403Y-102223976D01*
X209138121Y-102409600D01*
X209138121Y-103064361D01*
X209023193Y-103041500D01*
X208806807Y-103041500D01*
X208594579Y-103083715D01*
X208394665Y-103166522D01*
X208214747Y-103286739D01*
X208061739Y-103439747D01*
X207941522Y-103619665D01*
X207858715Y-103819579D01*
X207816500Y-104031807D01*
X207816500Y-104248193D01*
X207858715Y-104460421D01*
X207941522Y-104660335D01*
X208061739Y-104840253D01*
X208214747Y-104993261D01*
X208394665Y-105113478D01*
X208594579Y-105196285D01*
X208806807Y-105238500D01*
X209023193Y-105238500D01*
X209138121Y-105215639D01*
X209138121Y-105710400D01*
X209156403Y-105896024D01*
X209210548Y-106074515D01*
X209298474Y-106239013D01*
X209416803Y-106383197D01*
X209560987Y-106501526D01*
X209725485Y-106589452D01*
X209903976Y-106643597D01*
X210089600Y-106661879D01*
X214090400Y-106661879D01*
X214276024Y-106643597D01*
X214454515Y-106589452D01*
X214619013Y-106501526D01*
X214763197Y-106383197D01*
X214881526Y-106239013D01*
X214923278Y-106160900D01*
X216593207Y-106160900D01*
X216635000Y-106165016D01*
X216676793Y-106160900D01*
X216676800Y-106160900D01*
X216801806Y-106148588D01*
X216962201Y-106099933D01*
X217110022Y-106020921D01*
X217239588Y-105914588D01*
X217266234Y-105882120D01*
X219647126Y-103501229D01*
X219679588Y-103474588D01*
X219706230Y-103442125D01*
X219706234Y-103442121D01*
X219744064Y-103396024D01*
X219785921Y-103345022D01*
X219864933Y-103197201D01*
X219913588Y-103036806D01*
X219925900Y-102911800D01*
X219925900Y-102911794D01*
X219930016Y-102870001D01*
X219925900Y-102828208D01*
X219925900Y-92751792D01*
X219930016Y-92709999D01*
X219925900Y-92668206D01*
X219925900Y-92668200D01*
X219913588Y-92543194D01*
X219864933Y-92382799D01*
X219785921Y-92234978D01*
X219716936Y-92150920D01*
X219706234Y-92137879D01*
X219706230Y-92137875D01*
X219679588Y-92105412D01*
X219647125Y-92078770D01*
X218780233Y-91211879D01*
X220589800Y-91211879D01*
X220775541Y-91193585D01*
X220954145Y-91139406D01*
X221118747Y-91051425D01*
X221263022Y-90933022D01*
X221381425Y-90788747D01*
X221469406Y-90624145D01*
X221523585Y-90445541D01*
X221526501Y-90415939D01*
X221526500Y-107704059D01*
X221523585Y-107674459D01*
X221469406Y-107495855D01*
X221381425Y-107331253D01*
X221263022Y-107186978D01*
X221118747Y-107068575D01*
X220954145Y-106980594D01*
X220775541Y-106926415D01*
X220589800Y-106908121D01*
X217190200Y-106908121D01*
X217004459Y-106926415D01*
X216825855Y-106980594D01*
X216661253Y-107068575D01*
X216516978Y-107186978D01*
X216398575Y-107331253D01*
X216310594Y-107495855D01*
X216256415Y-107674459D01*
X216238121Y-107860200D01*
X216238121Y-109159800D01*
X216256415Y-109345541D01*
X216310594Y-109524145D01*
X216398575Y-109688747D01*
X216516978Y-109833022D01*
X216661253Y-109951425D01*
X216825855Y-110039406D01*
X217004459Y-110093585D01*
X217190200Y-110111879D01*
X220589800Y-110111879D01*
X220775541Y-110093585D01*
X220954145Y-110039406D01*
X221118747Y-109951425D01*
X221263022Y-109833022D01*
X221381425Y-109688747D01*
X221469406Y-109524145D01*
X221523585Y-109345541D01*
X221526500Y-109315941D01*
X221526500Y-112204500D01*
X212809614Y-112204500D01*
X212779898Y-112180113D01*
X212554318Y-112059539D01*
X212309550Y-111985289D01*
X212118782Y-111966500D01*
X210791218Y-111966500D01*
X210600450Y-111985289D01*
X210355682Y-112059539D01*
X210130102Y-112180113D01*
X210100386Y-112204500D01*
X189159269Y-112204500D01*
X189274146Y-112089623D01*
X189548764Y-111678627D01*
X189737925Y-111221953D01*
X189834358Y-110737150D01*
X189834358Y-110242850D01*
X189737925Y-109758047D01*
X189548764Y-109301373D01*
X189274146Y-108890377D01*
X188924623Y-108540854D01*
X188513627Y-108266236D01*
X188056953Y-108077075D01*
X187572150Y-107980642D01*
X187077850Y-107980642D01*
X186593047Y-108077075D01*
X186136373Y-108266236D01*
X185725377Y-108540854D01*
X185375854Y-108890377D01*
X185101236Y-109301373D01*
X184912075Y-109758047D01*
X184815642Y-110242850D01*
X184815642Y-110737150D01*
X184912075Y-111221953D01*
X185101236Y-111678627D01*
X185375854Y-112089623D01*
X185490731Y-112204500D01*
X183070500Y-112204500D01*
X183070500Y-95250000D01*
X183066840Y-95212835D01*
X183055999Y-95177099D01*
X183038395Y-95144164D01*
X183014704Y-95115296D01*
X182985836Y-95091605D01*
X182952901Y-95074001D01*
X182917165Y-95063160D01*
X182880000Y-95059500D01*
X163830000Y-95059500D01*
X163792835Y-95063160D01*
X163757099Y-95074001D01*
X163724164Y-95091605D01*
X163695296Y-95115296D01*
X163671605Y-95144164D01*
X163654001Y-95177099D01*
X163643160Y-95212835D01*
X163639500Y-95250000D01*
X163639500Y-96091500D01*
X162531218Y-96091500D01*
X162340450Y-96110289D01*
X162095682Y-96184539D01*
X161870102Y-96305113D01*
X161672380Y-96467380D01*
X161510113Y-96665102D01*
X161389539Y-96890682D01*
X161315289Y-97135450D01*
X161290218Y-97390000D01*
X161315289Y-97644550D01*
X161389539Y-97889318D01*
X161510113Y-98114898D01*
X161672380Y-98312620D01*
X161870102Y-98474887D01*
X162095682Y-98595461D01*
X162340450Y-98669711D01*
X162531218Y-98688500D01*
X163639500Y-98688500D01*
X163639500Y-103314500D01*
X153123500Y-103314500D01*
X153123500Y-93236807D01*
X204006500Y-93236807D01*
X204006500Y-93453193D01*
X204048715Y-93665421D01*
X204131522Y-93865335D01*
X204251739Y-94045253D01*
X204404747Y-94198261D01*
X204584665Y-94318478D01*
X204784579Y-94401285D01*
X204996807Y-94443500D01*
X205213193Y-94443500D01*
X205425421Y-94401285D01*
X205625335Y-94318478D01*
X205805253Y-94198261D01*
X205958261Y-94045253D01*
X206078478Y-93865335D01*
X206161285Y-93665421D01*
X206203500Y-93453193D01*
X206203500Y-93236807D01*
X206161285Y-93024579D01*
X206078478Y-92824665D01*
X205958261Y-92644747D01*
X205805253Y-92491739D01*
X205625335Y-92371522D01*
X205425421Y-92288715D01*
X205213193Y-92246500D01*
X204996807Y-92246500D01*
X204784579Y-92288715D01*
X204584665Y-92371522D01*
X204404747Y-92491739D01*
X204251739Y-92644747D01*
X204131522Y-92824665D01*
X204048715Y-93024579D01*
X204006500Y-93236807D01*
X153123500Y-93236807D01*
X153123500Y-89710038D01*
X154148485Y-89710038D01*
X154152896Y-89735089D01*
X154224178Y-89978651D01*
X154341607Y-90203627D01*
X154500670Y-90401370D01*
X154695255Y-90564282D01*
X154917883Y-90686102D01*
X155160000Y-90762149D01*
X155412300Y-90789500D01*
X155562300Y-90789500D01*
X155562300Y-89507700D01*
X155587700Y-89507700D01*
X155587700Y-90789500D01*
X155737700Y-90789500D01*
X155990000Y-90762149D01*
X156232117Y-90686102D01*
X156454745Y-90564282D01*
X156649330Y-90401370D01*
X156808393Y-90203627D01*
X156925822Y-89978651D01*
X156997104Y-89735089D01*
X157001515Y-89710038D01*
X156908307Y-89507700D01*
X155587700Y-89507700D01*
X155562300Y-89507700D01*
X154241693Y-89507700D01*
X154148485Y-89710038D01*
X153123500Y-89710038D01*
X153123500Y-86395000D01*
X153873121Y-86395000D01*
X153873121Y-87595000D01*
X153891411Y-87780702D01*
X153945578Y-87959268D01*
X154033542Y-88123836D01*
X154151920Y-88268080D01*
X154296164Y-88386458D01*
X154460732Y-88474422D01*
X154590180Y-88513689D01*
X154500670Y-88588630D01*
X154341607Y-88786373D01*
X154224178Y-89011349D01*
X154152896Y-89254911D01*
X154148485Y-89279962D01*
X154241693Y-89482300D01*
X155562300Y-89482300D01*
X155562300Y-89462300D01*
X155587700Y-89462300D01*
X155587700Y-89482300D01*
X156908307Y-89482300D01*
X157001515Y-89279962D01*
X156997104Y-89254911D01*
X156925822Y-89011349D01*
X156808393Y-88786373D01*
X156649330Y-88588630D01*
X156559820Y-88513689D01*
X156689268Y-88474422D01*
X156853836Y-88386458D01*
X156998080Y-88268080D01*
X157116458Y-88123836D01*
X157204422Y-87959268D01*
X157258589Y-87780702D01*
X157276879Y-87595000D01*
X157276879Y-86395000D01*
X157258589Y-86209298D01*
X157204422Y-86030732D01*
X157116458Y-85866164D01*
X156998080Y-85721920D01*
X156853836Y-85603542D01*
X156689268Y-85515578D01*
X156510702Y-85461411D01*
X156325000Y-85443121D01*
X154825000Y-85443121D01*
X154639298Y-85461411D01*
X154460732Y-85515578D01*
X154296164Y-85603542D01*
X154151920Y-85721920D01*
X154033542Y-85866164D01*
X153945578Y-86030732D01*
X153891411Y-86209298D01*
X153873121Y-86395000D01*
X153123500Y-86395000D01*
X153123500Y-77243618D01*
X158356500Y-77243618D01*
X158356500Y-77696382D01*
X158444831Y-78140448D01*
X158618096Y-78558748D01*
X158869639Y-78935208D01*
X159189792Y-79255361D01*
X159566252Y-79506904D01*
X159984552Y-79680169D01*
X160428618Y-79768500D01*
X160881382Y-79768500D01*
X161325448Y-79680169D01*
X161743748Y-79506904D01*
X162120208Y-79255361D01*
X162440361Y-78935208D01*
X162691904Y-78558748D01*
X162865169Y-78140448D01*
X162953500Y-77696382D01*
X162953500Y-77243618D01*
X162900880Y-76979077D01*
X168783884Y-76979077D01*
X168849807Y-77178458D01*
X169054052Y-77295282D01*
X169277165Y-77370016D01*
X169510570Y-77399786D01*
X169745298Y-77383449D01*
X169972329Y-77321634D01*
X170182938Y-77216715D01*
X170240193Y-77178458D01*
X170306116Y-76979077D01*
X169545000Y-76217961D01*
X168783884Y-76979077D01*
X162900880Y-76979077D01*
X162865169Y-76799552D01*
X162691904Y-76381252D01*
X162440361Y-76004792D01*
X162120208Y-75684639D01*
X161743748Y-75433096D01*
X161325448Y-75259831D01*
X160881382Y-75171500D01*
X160428618Y-75171500D01*
X159984552Y-75259831D01*
X159566252Y-75433096D01*
X159189792Y-75684639D01*
X158869639Y-76004792D01*
X158618096Y-76381252D01*
X158444831Y-76799552D01*
X158356500Y-77243618D01*
X153123500Y-77243618D01*
X153123500Y-65813618D01*
X158356500Y-65813618D01*
X158356500Y-66266382D01*
X158444831Y-66710448D01*
X158618096Y-67128748D01*
X158869639Y-67505208D01*
X159189792Y-67825361D01*
X159566252Y-68076904D01*
X159984552Y-68250169D01*
X160428618Y-68338500D01*
X160881382Y-68338500D01*
X161325448Y-68250169D01*
X161743748Y-68076904D01*
X162120208Y-67825361D01*
X162440361Y-67505208D01*
X162691904Y-67128748D01*
X162865169Y-66710448D01*
X162895095Y-66560000D01*
X165553121Y-66560000D01*
X165553121Y-68060000D01*
X165566607Y-68196930D01*
X165606548Y-68328597D01*
X165671409Y-68449943D01*
X165758697Y-68556303D01*
X165865057Y-68643591D01*
X165986403Y-68708452D01*
X166072072Y-68734439D01*
X165879876Y-68926635D01*
X165721356Y-69163878D01*
X165612165Y-69427488D01*
X165556500Y-69707335D01*
X165556500Y-69992665D01*
X165612165Y-70272512D01*
X165721356Y-70536122D01*
X165879876Y-70773365D01*
X166081635Y-70975124D01*
X166298458Y-71120000D01*
X166081635Y-71264876D01*
X165879876Y-71466635D01*
X165721356Y-71703878D01*
X165612165Y-71967488D01*
X165556500Y-72247335D01*
X165556500Y-72532665D01*
X165612165Y-72812512D01*
X165721356Y-73076122D01*
X165879876Y-73313365D01*
X166081635Y-73515124D01*
X166298458Y-73660000D01*
X166081635Y-73804876D01*
X165879876Y-74006635D01*
X165721356Y-74243878D01*
X165612165Y-74507488D01*
X165556500Y-74787335D01*
X165556500Y-75072665D01*
X165612165Y-75352512D01*
X165721356Y-75616122D01*
X165879876Y-75853365D01*
X166081635Y-76055124D01*
X166318878Y-76213644D01*
X166582488Y-76322835D01*
X166862335Y-76378500D01*
X167147665Y-76378500D01*
X167427512Y-76322835D01*
X167691122Y-76213644D01*
X167763070Y-76165570D01*
X168345214Y-76165570D01*
X168361551Y-76400298D01*
X168423366Y-76627329D01*
X168528285Y-76837938D01*
X168566542Y-76895193D01*
X168765923Y-76961116D01*
X169527039Y-76200000D01*
X169562961Y-76200000D01*
X170324077Y-76961116D01*
X170523458Y-76895193D01*
X170640282Y-76690948D01*
X170715016Y-76467835D01*
X170744786Y-76234430D01*
X170728449Y-75999702D01*
X170666634Y-75772671D01*
X170561715Y-75562062D01*
X170523458Y-75504807D01*
X170324077Y-75438884D01*
X169562961Y-76200000D01*
X169527039Y-76200000D01*
X168765923Y-75438884D01*
X168566542Y-75504807D01*
X168449718Y-75709052D01*
X168374984Y-75932165D01*
X168345214Y-76165570D01*
X167763070Y-76165570D01*
X167928365Y-76055124D01*
X168130124Y-75853365D01*
X168288644Y-75616122D01*
X168397835Y-75352512D01*
X168453500Y-75072665D01*
X168453500Y-74787335D01*
X168409983Y-74568559D01*
X168419876Y-74583365D01*
X168621635Y-74785124D01*
X168858878Y-74943644D01*
X169122488Y-75052835D01*
X169173889Y-75063059D01*
X169117671Y-75078366D01*
X168907062Y-75183285D01*
X168849807Y-75221542D01*
X168783884Y-75420923D01*
X169545000Y-76182039D01*
X170306116Y-75420923D01*
X170240193Y-75221542D01*
X170035948Y-75104718D01*
X169913267Y-75063625D01*
X169967512Y-75052835D01*
X170231122Y-74943644D01*
X170468365Y-74785124D01*
X170670124Y-74583365D01*
X170828644Y-74346122D01*
X170937835Y-74082512D01*
X170993500Y-73802665D01*
X170993500Y-73517335D01*
X170937835Y-73237488D01*
X170828644Y-72973878D01*
X170670124Y-72736635D01*
X170468365Y-72534876D01*
X170251542Y-72390000D01*
X170468365Y-72245124D01*
X170670124Y-72043365D01*
X170828644Y-71806122D01*
X170937835Y-71542512D01*
X170993500Y-71262665D01*
X170993500Y-70977335D01*
X170937835Y-70697488D01*
X170828644Y-70433878D01*
X170670124Y-70196635D01*
X170468365Y-69994876D01*
X170251542Y-69850000D01*
X170468365Y-69705124D01*
X170670124Y-69503365D01*
X170828644Y-69266122D01*
X170937835Y-69002512D01*
X170993500Y-68722665D01*
X170993500Y-68437335D01*
X170937835Y-68157488D01*
X170828644Y-67893878D01*
X170670124Y-67656635D01*
X170468365Y-67454876D01*
X170231122Y-67296356D01*
X170002861Y-67201807D01*
X170986500Y-67201807D01*
X170986500Y-67418193D01*
X171028715Y-67630421D01*
X171111522Y-67830335D01*
X171231739Y-68010253D01*
X171234101Y-68012615D01*
X171234100Y-75523207D01*
X171229984Y-75565000D01*
X171234100Y-75606793D01*
X171234100Y-75606799D01*
X171246412Y-75731805D01*
X171295067Y-75892200D01*
X171374079Y-76040021D01*
X171480412Y-76169588D01*
X171512880Y-76196234D01*
X172088766Y-76772120D01*
X172115412Y-76804588D01*
X172244978Y-76910921D01*
X172392799Y-76989933D01*
X172553194Y-77038588D01*
X172678200Y-77050900D01*
X172678207Y-77050900D01*
X172720000Y-77055016D01*
X172761793Y-77050900D01*
X193607386Y-77050900D01*
X193609747Y-77053261D01*
X193789665Y-77173478D01*
X193989579Y-77256285D01*
X194201807Y-77298500D01*
X194418193Y-77298500D01*
X194630421Y-77256285D01*
X194830335Y-77173478D01*
X195010253Y-77053261D01*
X195012614Y-77050900D01*
X206203058Y-77050900D01*
X206206607Y-77086930D01*
X206246548Y-77218597D01*
X206311409Y-77339943D01*
X206398697Y-77446303D01*
X206505057Y-77533591D01*
X206626403Y-77598452D01*
X206758070Y-77638393D01*
X206895000Y-77651879D01*
X208395000Y-77651879D01*
X208531930Y-77638393D01*
X208663597Y-77598452D01*
X208784943Y-77533591D01*
X208891303Y-77446303D01*
X208978591Y-77339943D01*
X209030077Y-77243618D01*
X211696500Y-77243618D01*
X211696500Y-77696382D01*
X211784831Y-78140448D01*
X211958096Y-78558748D01*
X212209639Y-78935208D01*
X212529792Y-79255361D01*
X212906252Y-79506904D01*
X213324552Y-79680169D01*
X213768618Y-79768500D01*
X214221382Y-79768500D01*
X214665448Y-79680169D01*
X215083748Y-79506904D01*
X215460208Y-79255361D01*
X215780361Y-78935208D01*
X216031904Y-78558748D01*
X216205169Y-78140448D01*
X216293500Y-77696382D01*
X216293500Y-77243618D01*
X216205169Y-76799552D01*
X216031904Y-76381252D01*
X215780361Y-76004792D01*
X215460208Y-75684639D01*
X215083748Y-75433096D01*
X214665448Y-75259831D01*
X214221382Y-75171500D01*
X213768618Y-75171500D01*
X213324552Y-75259831D01*
X212906252Y-75433096D01*
X212529792Y-75684639D01*
X212209639Y-76004792D01*
X211958096Y-76381252D01*
X211784831Y-76799552D01*
X211696500Y-77243618D01*
X209030077Y-77243618D01*
X209043452Y-77218597D01*
X209083393Y-77086930D01*
X209096879Y-76950000D01*
X209096879Y-75450000D01*
X209083393Y-75313070D01*
X209043452Y-75181403D01*
X208978591Y-75060057D01*
X208891303Y-74953697D01*
X208784943Y-74866409D01*
X208663597Y-74801548D01*
X208577928Y-74775561D01*
X208770124Y-74583365D01*
X208928644Y-74346122D01*
X209037835Y-74082512D01*
X209093500Y-73802665D01*
X209093500Y-73517335D01*
X209037835Y-73237488D01*
X208928644Y-72973878D01*
X208770124Y-72736635D01*
X208568365Y-72534876D01*
X208351542Y-72390000D01*
X208568365Y-72245124D01*
X208770124Y-72043365D01*
X208928644Y-71806122D01*
X209037835Y-71542512D01*
X209093500Y-71262665D01*
X209093500Y-70977335D01*
X209037835Y-70697488D01*
X208928644Y-70433878D01*
X208770124Y-70196635D01*
X208568365Y-69994876D01*
X208351542Y-69850000D01*
X208568365Y-69705124D01*
X208770124Y-69503365D01*
X208928644Y-69266122D01*
X209037835Y-69002512D01*
X209093500Y-68722665D01*
X209093500Y-68437335D01*
X209037835Y-68157488D01*
X208928644Y-67893878D01*
X208770124Y-67656635D01*
X208568365Y-67454876D01*
X208331122Y-67296356D01*
X208067512Y-67187165D01*
X207787665Y-67131500D01*
X207502335Y-67131500D01*
X207222488Y-67187165D01*
X206958878Y-67296356D01*
X206721635Y-67454876D01*
X206549011Y-67627500D01*
X206258380Y-67627500D01*
X206275016Y-67577835D01*
X206304786Y-67344430D01*
X206288449Y-67109702D01*
X206226634Y-66882671D01*
X206121715Y-66672062D01*
X206083458Y-66614807D01*
X205884077Y-66548884D01*
X205122961Y-67310000D01*
X205137103Y-67324142D01*
X205119142Y-67342103D01*
X205105000Y-67327961D01*
X205090858Y-67342103D01*
X205072897Y-67324142D01*
X205087039Y-67310000D01*
X204325923Y-66548884D01*
X204126542Y-66614807D01*
X204009718Y-66819052D01*
X203934984Y-67042165D01*
X203905214Y-67275570D01*
X203921551Y-67510298D01*
X203953462Y-67627500D01*
X180761866Y-67627500D01*
X180803500Y-67418193D01*
X180803500Y-67201807D01*
X180761285Y-66989579D01*
X180678478Y-66789665D01*
X180558261Y-66609747D01*
X180479437Y-66530923D01*
X204343884Y-66530923D01*
X205105000Y-67292039D01*
X205866116Y-66530923D01*
X205800193Y-66331542D01*
X205595948Y-66214718D01*
X205372835Y-66139984D01*
X205139430Y-66110214D01*
X204904702Y-66126551D01*
X204677671Y-66188366D01*
X204467062Y-66293285D01*
X204409807Y-66331542D01*
X204343884Y-66530923D01*
X180479437Y-66530923D01*
X180405253Y-66456739D01*
X180225335Y-66336522D01*
X180025421Y-66253715D01*
X179813193Y-66211500D01*
X179596807Y-66211500D01*
X179384579Y-66253715D01*
X179184665Y-66336522D01*
X179070000Y-66413138D01*
X178955335Y-66336522D01*
X178755421Y-66253715D01*
X178543193Y-66211500D01*
X178326807Y-66211500D01*
X178114579Y-66253715D01*
X177914665Y-66336522D01*
X177800000Y-66413138D01*
X177685335Y-66336522D01*
X177485421Y-66253715D01*
X177273193Y-66211500D01*
X177056807Y-66211500D01*
X176844579Y-66253715D01*
X176644665Y-66336522D01*
X176530000Y-66413138D01*
X176415335Y-66336522D01*
X176215421Y-66253715D01*
X176003193Y-66211500D01*
X175786807Y-66211500D01*
X175574579Y-66253715D01*
X175374665Y-66336522D01*
X175260000Y-66413138D01*
X175145335Y-66336522D01*
X174945421Y-66253715D01*
X174733193Y-66211500D01*
X174516807Y-66211500D01*
X174304579Y-66253715D01*
X174104665Y-66336522D01*
X173990000Y-66413138D01*
X173875335Y-66336522D01*
X173675421Y-66253715D01*
X173463193Y-66211500D01*
X173246807Y-66211500D01*
X173034579Y-66253715D01*
X172834665Y-66336522D01*
X172720000Y-66413138D01*
X172605335Y-66336522D01*
X172405421Y-66253715D01*
X172193193Y-66211500D01*
X171976807Y-66211500D01*
X171764579Y-66253715D01*
X171564665Y-66336522D01*
X171384747Y-66456739D01*
X171231739Y-66609747D01*
X171111522Y-66789665D01*
X171028715Y-66989579D01*
X170986500Y-67201807D01*
X170002861Y-67201807D01*
X169967512Y-67187165D01*
X169687665Y-67131500D01*
X169402335Y-67131500D01*
X169122488Y-67187165D01*
X168858878Y-67296356D01*
X168621635Y-67454876D01*
X168456879Y-67619632D01*
X168456879Y-66560000D01*
X168443393Y-66423070D01*
X168403452Y-66291403D01*
X168338591Y-66170057D01*
X168251303Y-66063697D01*
X168144943Y-65976409D01*
X168023597Y-65911548D01*
X167891930Y-65871607D01*
X167755000Y-65858121D01*
X166255000Y-65858121D01*
X166118070Y-65871607D01*
X165986403Y-65911548D01*
X165865057Y-65976409D01*
X165758697Y-66063697D01*
X165671409Y-66170057D01*
X165606548Y-66291403D01*
X165566607Y-66423070D01*
X165553121Y-66560000D01*
X162895095Y-66560000D01*
X162953500Y-66266382D01*
X162953500Y-65813618D01*
X211696500Y-65813618D01*
X211696500Y-66266382D01*
X211784831Y-66710448D01*
X211958096Y-67128748D01*
X212209639Y-67505208D01*
X212529792Y-67825361D01*
X212906252Y-68076904D01*
X213324552Y-68250169D01*
X213768618Y-68338500D01*
X214221382Y-68338500D01*
X214665448Y-68250169D01*
X215083748Y-68076904D01*
X215460208Y-67825361D01*
X215780361Y-67505208D01*
X216031904Y-67128748D01*
X216205169Y-66710448D01*
X216293500Y-66266382D01*
X216293500Y-65813618D01*
X216205169Y-65369552D01*
X216031904Y-64951252D01*
X215780361Y-64574792D01*
X215460208Y-64254639D01*
X215083748Y-64003096D01*
X214665448Y-63829831D01*
X214221382Y-63741500D01*
X213768618Y-63741500D01*
X213324552Y-63829831D01*
X212906252Y-64003096D01*
X212529792Y-64254639D01*
X212209639Y-64574792D01*
X211958096Y-64951252D01*
X211784831Y-65369552D01*
X211696500Y-65813618D01*
X162953500Y-65813618D01*
X162865169Y-65369552D01*
X162691904Y-64951252D01*
X162440361Y-64574792D01*
X162120208Y-64254639D01*
X161743748Y-64003096D01*
X161325448Y-63829831D01*
X160881382Y-63741500D01*
X160428618Y-63741500D01*
X159984552Y-63829831D01*
X159566252Y-64003096D01*
X159189792Y-64254639D01*
X158869639Y-64574792D01*
X158618096Y-64951252D01*
X158444831Y-65369552D01*
X158356500Y-65813618D01*
X153123500Y-65813618D01*
X153123500Y-60077850D01*
X154335642Y-60077850D01*
X154335642Y-60572150D01*
X154432075Y-61056953D01*
X154621236Y-61513627D01*
X154895854Y-61924623D01*
X155245377Y-62274146D01*
X155656373Y-62548764D01*
X156113047Y-62737925D01*
X156597850Y-62834358D01*
X157092150Y-62834358D01*
X157576953Y-62737925D01*
X158033627Y-62548764D01*
X158444623Y-62274146D01*
X158794146Y-61924623D01*
X159068764Y-61513627D01*
X159257925Y-61056953D01*
X159354358Y-60572150D01*
X159354358Y-60077850D01*
X159257925Y-59593047D01*
X159228792Y-59522712D01*
X170746500Y-59522712D01*
X170746500Y-59857288D01*
X170811773Y-60185434D01*
X170939809Y-60494541D01*
X171125689Y-60772730D01*
X171362270Y-61009311D01*
X171640459Y-61195191D01*
X171949566Y-61323227D01*
X172277712Y-61388500D01*
X172612288Y-61388500D01*
X172940434Y-61323227D01*
X173249541Y-61195191D01*
X173527730Y-61009311D01*
X173764311Y-60772730D01*
X173848509Y-60646718D01*
X174046242Y-60646718D01*
X174142144Y-60871699D01*
X174388877Y-61013426D01*
X174658519Y-61104294D01*
X174940707Y-61140812D01*
X175224597Y-61121576D01*
X175499280Y-61047325D01*
X175754200Y-60920914D01*
X175827856Y-60871699D01*
X175923758Y-60646718D01*
X174985000Y-59707961D01*
X174046242Y-60646718D01*
X173848509Y-60646718D01*
X173897702Y-60573096D01*
X174028282Y-60628758D01*
X174967039Y-59690000D01*
X175002961Y-59690000D01*
X175941718Y-60628758D01*
X176072298Y-60573096D01*
X176205689Y-60772730D01*
X176442270Y-61009311D01*
X176720459Y-61195191D01*
X177029566Y-61323227D01*
X177357712Y-61388500D01*
X177692288Y-61388500D01*
X178020434Y-61323227D01*
X178329541Y-61195191D01*
X178607730Y-61009311D01*
X178795000Y-60822041D01*
X178982270Y-61009311D01*
X179260459Y-61195191D01*
X179569566Y-61323227D01*
X179897712Y-61388500D01*
X180232288Y-61388500D01*
X180560434Y-61323227D01*
X180869541Y-61195191D01*
X181147730Y-61009311D01*
X181335000Y-60822041D01*
X181522270Y-61009311D01*
X181800459Y-61195191D01*
X182109566Y-61323227D01*
X182437712Y-61388500D01*
X182772288Y-61388500D01*
X183100434Y-61323227D01*
X183409541Y-61195191D01*
X183687730Y-61009311D01*
X183875000Y-60822041D01*
X184062270Y-61009311D01*
X184340459Y-61195191D01*
X184649566Y-61323227D01*
X184977712Y-61388500D01*
X185312288Y-61388500D01*
X185640434Y-61323227D01*
X185949541Y-61195191D01*
X186227730Y-61009311D01*
X186415000Y-60822041D01*
X186602270Y-61009311D01*
X186880459Y-61195191D01*
X187189566Y-61323227D01*
X187517712Y-61388500D01*
X187852288Y-61388500D01*
X188180434Y-61323227D01*
X188489541Y-61195191D01*
X188767730Y-61009311D01*
X188955000Y-60822041D01*
X189142270Y-61009311D01*
X189420459Y-61195191D01*
X189729566Y-61323227D01*
X190057712Y-61388500D01*
X190392288Y-61388500D01*
X190720434Y-61323227D01*
X191029541Y-61195191D01*
X191307730Y-61009311D01*
X191495000Y-60822041D01*
X191682270Y-61009311D01*
X191960459Y-61195191D01*
X192269566Y-61323227D01*
X192597712Y-61388500D01*
X192932288Y-61388500D01*
X193260434Y-61323227D01*
X193569541Y-61195191D01*
X193847730Y-61009311D01*
X194035000Y-60822041D01*
X194222270Y-61009311D01*
X194500459Y-61195191D01*
X194809566Y-61323227D01*
X195137712Y-61388500D01*
X195472288Y-61388500D01*
X195800434Y-61323227D01*
X196109541Y-61195191D01*
X196387730Y-61009311D01*
X196575000Y-60822041D01*
X196762270Y-61009311D01*
X197040459Y-61195191D01*
X197349566Y-61323227D01*
X197677712Y-61388500D01*
X198012288Y-61388500D01*
X198340434Y-61323227D01*
X198649541Y-61195191D01*
X198927730Y-61009311D01*
X199115000Y-60822041D01*
X199302270Y-61009311D01*
X199580459Y-61195191D01*
X199889566Y-61323227D01*
X200217712Y-61388500D01*
X200552288Y-61388500D01*
X200880434Y-61323227D01*
X201189541Y-61195191D01*
X201467730Y-61009311D01*
X201655000Y-60822041D01*
X201842270Y-61009311D01*
X202120459Y-61195191D01*
X202429566Y-61323227D01*
X202757712Y-61388500D01*
X203092288Y-61388500D01*
X203420434Y-61323227D01*
X203729541Y-61195191D01*
X204007730Y-61009311D01*
X204195000Y-60822041D01*
X204382270Y-61009311D01*
X204660459Y-61195191D01*
X204969566Y-61323227D01*
X205297712Y-61388500D01*
X205632288Y-61388500D01*
X205960434Y-61323227D01*
X206269541Y-61195191D01*
X206547730Y-61009311D01*
X206735000Y-60822041D01*
X206922270Y-61009311D01*
X207200459Y-61195191D01*
X207509566Y-61323227D01*
X207837712Y-61388500D01*
X208172288Y-61388500D01*
X208500434Y-61323227D01*
X208809541Y-61195191D01*
X209087730Y-61009311D01*
X209324311Y-60772730D01*
X209510191Y-60494541D01*
X209638227Y-60185434D01*
X209659627Y-60077850D01*
X215295642Y-60077850D01*
X215295642Y-60572150D01*
X215392075Y-61056953D01*
X215581236Y-61513627D01*
X215855854Y-61924623D01*
X216205377Y-62274146D01*
X216616373Y-62548764D01*
X217073047Y-62737925D01*
X217557850Y-62834358D01*
X218052150Y-62834358D01*
X218536953Y-62737925D01*
X218993627Y-62548764D01*
X219404623Y-62274146D01*
X219754146Y-61924623D01*
X220028764Y-61513627D01*
X220217925Y-61056953D01*
X220314358Y-60572150D01*
X220314358Y-60077850D01*
X220217925Y-59593047D01*
X220028764Y-59136373D01*
X219754146Y-58725377D01*
X219404623Y-58375854D01*
X218993627Y-58101236D01*
X218536953Y-57912075D01*
X218052150Y-57815642D01*
X217557850Y-57815642D01*
X217073047Y-57912075D01*
X216616373Y-58101236D01*
X216205377Y-58375854D01*
X215855854Y-58725377D01*
X215581236Y-59136373D01*
X215392075Y-59593047D01*
X215295642Y-60077850D01*
X209659627Y-60077850D01*
X209703500Y-59857288D01*
X209703500Y-59522712D01*
X209638227Y-59194566D01*
X209510191Y-58885459D01*
X209324311Y-58607270D01*
X209087730Y-58370689D01*
X208809541Y-58184809D01*
X208500434Y-58056773D01*
X208172288Y-57991500D01*
X207837712Y-57991500D01*
X207509566Y-58056773D01*
X207200459Y-58184809D01*
X206922270Y-58370689D01*
X206735000Y-58557959D01*
X206547730Y-58370689D01*
X206269541Y-58184809D01*
X205960434Y-58056773D01*
X205632288Y-57991500D01*
X205297712Y-57991500D01*
X204969566Y-58056773D01*
X204660459Y-58184809D01*
X204382270Y-58370689D01*
X204195000Y-58557959D01*
X204007730Y-58370689D01*
X203729541Y-58184809D01*
X203420434Y-58056773D01*
X203092288Y-57991500D01*
X202757712Y-57991500D01*
X202429566Y-58056773D01*
X202120459Y-58184809D01*
X201842270Y-58370689D01*
X201655000Y-58557959D01*
X201467730Y-58370689D01*
X201189541Y-58184809D01*
X200880434Y-58056773D01*
X200552288Y-57991500D01*
X200217712Y-57991500D01*
X199889566Y-58056773D01*
X199580459Y-58184809D01*
X199302270Y-58370689D01*
X199115000Y-58557959D01*
X198927730Y-58370689D01*
X198649541Y-58184809D01*
X198340434Y-58056773D01*
X198012288Y-57991500D01*
X197677712Y-57991500D01*
X197349566Y-58056773D01*
X197040459Y-58184809D01*
X196762270Y-58370689D01*
X196575000Y-58557959D01*
X196387730Y-58370689D01*
X196109541Y-58184809D01*
X195800434Y-58056773D01*
X195472288Y-57991500D01*
X195137712Y-57991500D01*
X194809566Y-58056773D01*
X194500459Y-58184809D01*
X194222270Y-58370689D01*
X194035000Y-58557959D01*
X193847730Y-58370689D01*
X193569541Y-58184809D01*
X193260434Y-58056773D01*
X192932288Y-57991500D01*
X192597712Y-57991500D01*
X192269566Y-58056773D01*
X191960459Y-58184809D01*
X191682270Y-58370689D01*
X191495000Y-58557959D01*
X191307730Y-58370689D01*
X191029541Y-58184809D01*
X190720434Y-58056773D01*
X190392288Y-57991500D01*
X190057712Y-57991500D01*
X189729566Y-58056773D01*
X189420459Y-58184809D01*
X189142270Y-58370689D01*
X188955000Y-58557959D01*
X188767730Y-58370689D01*
X188489541Y-58184809D01*
X188180434Y-58056773D01*
X187852288Y-57991500D01*
X187517712Y-57991500D01*
X187189566Y-58056773D01*
X186880459Y-58184809D01*
X186602270Y-58370689D01*
X186415000Y-58557959D01*
X186227730Y-58370689D01*
X185949541Y-58184809D01*
X185640434Y-58056773D01*
X185312288Y-57991500D01*
X184977712Y-57991500D01*
X184649566Y-58056773D01*
X184340459Y-58184809D01*
X184062270Y-58370689D01*
X183875000Y-58557959D01*
X183687730Y-58370689D01*
X183409541Y-58184809D01*
X183100434Y-58056773D01*
X182772288Y-57991500D01*
X182437712Y-57991500D01*
X182109566Y-58056773D01*
X181800459Y-58184809D01*
X181522270Y-58370689D01*
X181335000Y-58557959D01*
X181147730Y-58370689D01*
X180869541Y-58184809D01*
X180560434Y-58056773D01*
X180232288Y-57991500D01*
X179897712Y-57991500D01*
X179569566Y-58056773D01*
X179260459Y-58184809D01*
X178982270Y-58370689D01*
X178795000Y-58557959D01*
X178607730Y-58370689D01*
X178329541Y-58184809D01*
X178020434Y-58056773D01*
X177692288Y-57991500D01*
X177357712Y-57991500D01*
X177029566Y-58056773D01*
X176720459Y-58184809D01*
X176442270Y-58370689D01*
X176205689Y-58607270D01*
X176072298Y-58806904D01*
X175941718Y-58751242D01*
X175002961Y-59690000D01*
X174967039Y-59690000D01*
X174028282Y-58751242D01*
X173897702Y-58806904D01*
X173848510Y-58733282D01*
X174046242Y-58733282D01*
X174985000Y-59672039D01*
X175923758Y-58733282D01*
X175827856Y-58508301D01*
X175581123Y-58366574D01*
X175311481Y-58275706D01*
X175029293Y-58239188D01*
X174745403Y-58258424D01*
X174470720Y-58332675D01*
X174215800Y-58459086D01*
X174142144Y-58508301D01*
X174046242Y-58733282D01*
X173848510Y-58733282D01*
X173764311Y-58607270D01*
X173527730Y-58370689D01*
X173249541Y-58184809D01*
X172940434Y-58056773D01*
X172612288Y-57991500D01*
X172277712Y-57991500D01*
X171949566Y-58056773D01*
X171640459Y-58184809D01*
X171362270Y-58370689D01*
X171125689Y-58607270D01*
X170939809Y-58885459D01*
X170811773Y-59194566D01*
X170746500Y-59522712D01*
X159228792Y-59522712D01*
X159068764Y-59136373D01*
X158794146Y-58725377D01*
X158444623Y-58375854D01*
X158033627Y-58101236D01*
X157576953Y-57912075D01*
X157092150Y-57815642D01*
X156597850Y-57815642D01*
X156113047Y-57912075D01*
X155656373Y-58101236D01*
X155245377Y-58375854D01*
X154895854Y-58725377D01*
X154621236Y-59136373D01*
X154432075Y-59593047D01*
X154335642Y-60077850D01*
X153123500Y-60077850D01*
X153123500Y-56603500D01*
X221526501Y-56603500D01*
X221526501Y-88804061D01*
G04 #@! TA.AperFunction,Conductor*
D24*
G36*
X221526501Y-88804061D02*
G01*
X221523585Y-88774459D01*
X221469406Y-88595855D01*
X221381425Y-88431253D01*
X221263022Y-88286978D01*
X221118747Y-88168575D01*
X220954145Y-88080594D01*
X220775541Y-88026415D01*
X220589800Y-88008121D01*
X217190200Y-88008121D01*
X217004459Y-88026415D01*
X216825855Y-88080594D01*
X216661253Y-88168575D01*
X216516978Y-88286978D01*
X216398575Y-88431253D01*
X216310594Y-88595855D01*
X216256415Y-88774459D01*
X216238121Y-88960200D01*
X216238121Y-90259800D01*
X216256415Y-90445541D01*
X216299963Y-90589100D01*
X212442455Y-90589100D01*
X211392120Y-89538766D01*
X211283500Y-89430146D01*
X211283500Y-89426807D01*
X211241285Y-89214579D01*
X211158478Y-89014665D01*
X211038261Y-88834747D01*
X210885253Y-88681739D01*
X210705335Y-88561522D01*
X210505421Y-88478715D01*
X210293193Y-88436500D01*
X210076807Y-88436500D01*
X209864579Y-88478715D01*
X209664665Y-88561522D01*
X209484747Y-88681739D01*
X209362758Y-88803728D01*
X209440135Y-88616923D01*
X209481110Y-88410929D01*
X210825436Y-87066603D01*
X210861778Y-87036778D01*
X210980806Y-86891741D01*
X211069252Y-86726269D01*
X211123717Y-86546723D01*
X211137500Y-86406785D01*
X211137500Y-86406784D01*
X211142108Y-86360000D01*
X211137500Y-86313215D01*
X211137500Y-83866784D01*
X211142108Y-83819999D01*
X211123717Y-83633277D01*
X211109014Y-83584809D01*
X211069252Y-83453731D01*
X210980806Y-83288259D01*
X210861778Y-83143222D01*
X210825436Y-83113397D01*
X209621607Y-81909569D01*
X209591778Y-81873222D01*
X209446741Y-81754194D01*
X209281269Y-81665748D01*
X209101723Y-81611283D01*
X208961785Y-81597500D01*
X208915000Y-81592892D01*
X208868215Y-81597500D01*
X183197500Y-81597500D01*
X183197500Y-80561731D01*
X183218478Y-80530335D01*
X183301285Y-80330421D01*
X183343500Y-80118193D01*
X183343500Y-79901807D01*
X183301285Y-79689579D01*
X183218478Y-79489665D01*
X183098261Y-79309747D01*
X182945253Y-79156739D01*
X182765335Y-79036522D01*
X182565421Y-78953715D01*
X182353193Y-78911500D01*
X182136807Y-78911500D01*
X181924579Y-78953715D01*
X181724665Y-79036522D01*
X181544747Y-79156739D01*
X181391739Y-79309747D01*
X181271522Y-79489665D01*
X181188715Y-79689579D01*
X181146500Y-79901807D01*
X181146500Y-80118193D01*
X181188715Y-80330421D01*
X181271522Y-80530335D01*
X181292501Y-80561732D01*
X181292500Y-81597500D01*
X173401784Y-81597500D01*
X173354999Y-81592892D01*
X173168277Y-81611283D01*
X172988731Y-81665748D01*
X172823259Y-81754194D01*
X172678222Y-81873222D01*
X172648393Y-81909569D01*
X171804565Y-82753397D01*
X171768223Y-82783222D01*
X171738399Y-82819563D01*
X171649194Y-82928260D01*
X171560749Y-83093731D01*
X171506283Y-83273278D01*
X171494972Y-83388121D01*
X171445000Y-83388121D01*
X171308070Y-83401607D01*
X171176403Y-83441548D01*
X171055057Y-83506409D01*
X170948697Y-83593697D01*
X170861409Y-83700057D01*
X170796548Y-83821403D01*
X170756607Y-83953070D01*
X170743121Y-84090000D01*
X170743121Y-86090000D01*
X170756607Y-86226930D01*
X170796548Y-86358597D01*
X170861409Y-86479943D01*
X170948697Y-86586303D01*
X171055057Y-86673591D01*
X171176403Y-86738452D01*
X171308070Y-86778393D01*
X171445000Y-86791879D01*
X171594100Y-86791879D01*
X171594101Y-91089329D01*
X171564665Y-91101522D01*
X171384747Y-91221739D01*
X171231739Y-91374747D01*
X171111522Y-91554665D01*
X171028715Y-91754579D01*
X170986500Y-91966807D01*
X170986500Y-92183193D01*
X171028715Y-92395421D01*
X171111522Y-92595335D01*
X171231739Y-92775253D01*
X171384747Y-92928261D01*
X171564665Y-93048478D01*
X171764579Y-93131285D01*
X171976807Y-93173500D01*
X172193193Y-93173500D01*
X172405421Y-93131285D01*
X172605335Y-93048478D01*
X172785253Y-92928261D01*
X172938261Y-92775253D01*
X173058478Y-92595335D01*
X173141285Y-92395421D01*
X173183500Y-92183193D01*
X173183500Y-92138425D01*
X173234933Y-92042201D01*
X173283588Y-91881806D01*
X173295900Y-91756800D01*
X173295900Y-91756793D01*
X173300016Y-91715000D01*
X173295900Y-91673207D01*
X173295900Y-88791807D01*
X203371500Y-88791807D01*
X203371500Y-89008193D01*
X203413715Y-89220421D01*
X203496522Y-89420335D01*
X203616739Y-89600253D01*
X203769747Y-89753261D01*
X203949665Y-89873478D01*
X204149579Y-89956285D01*
X204361807Y-89998500D01*
X204578193Y-89998500D01*
X204790421Y-89956285D01*
X204990335Y-89873478D01*
X205170253Y-89753261D01*
X205323261Y-89600253D01*
X205443478Y-89420335D01*
X205526285Y-89220421D01*
X205568500Y-89008193D01*
X205568500Y-88791807D01*
X205526285Y-88579579D01*
X205443478Y-88379665D01*
X205323261Y-88199747D01*
X205170253Y-88046739D01*
X204990335Y-87926522D01*
X204790421Y-87843715D01*
X204578193Y-87801500D01*
X204361807Y-87801500D01*
X204149579Y-87843715D01*
X203949665Y-87926522D01*
X203769747Y-88046739D01*
X203616739Y-88199747D01*
X203496522Y-88379665D01*
X203413715Y-88579579D01*
X203371500Y-88791807D01*
X173295900Y-88791807D01*
X173295900Y-86791879D01*
X173445000Y-86791879D01*
X173581930Y-86778393D01*
X173713597Y-86738452D01*
X173834943Y-86673591D01*
X173941303Y-86586303D01*
X174028591Y-86479943D01*
X174093452Y-86358597D01*
X174129097Y-86241092D01*
X174142144Y-86271699D01*
X174388877Y-86413426D01*
X174658519Y-86504294D01*
X174940707Y-86540812D01*
X175224597Y-86521576D01*
X175499280Y-86447325D01*
X175754200Y-86320914D01*
X175827856Y-86271699D01*
X175923758Y-86046718D01*
X174985000Y-85107961D01*
X174970858Y-85122103D01*
X174952897Y-85104142D01*
X174967039Y-85090000D01*
X174952897Y-85075858D01*
X174970858Y-85057897D01*
X174985000Y-85072039D01*
X175923758Y-84133282D01*
X175827856Y-83908301D01*
X175581123Y-83766574D01*
X175311481Y-83675706D01*
X175029293Y-83639188D01*
X174745403Y-83658424D01*
X174470720Y-83732675D01*
X174215800Y-83859086D01*
X174142144Y-83908301D01*
X174129097Y-83938908D01*
X174093452Y-83821403D01*
X174028591Y-83700057D01*
X173941303Y-83593697D01*
X173834943Y-83506409D01*
X173827630Y-83502500D01*
X176919171Y-83502500D01*
X176720459Y-83584809D01*
X176442270Y-83770689D01*
X176205689Y-84007270D01*
X176072298Y-84206904D01*
X175941718Y-84151242D01*
X175002961Y-85090000D01*
X175941718Y-86028758D01*
X176072298Y-85973096D01*
X176205689Y-86172730D01*
X176442270Y-86409311D01*
X176720459Y-86595191D01*
X177029566Y-86723227D01*
X177357712Y-86788500D01*
X177692288Y-86788500D01*
X178020434Y-86723227D01*
X178329541Y-86595191D01*
X178607730Y-86409311D01*
X178795000Y-86222041D01*
X178982270Y-86409311D01*
X179260459Y-86595191D01*
X179569566Y-86723227D01*
X179897712Y-86788500D01*
X180232288Y-86788500D01*
X180560434Y-86723227D01*
X180869541Y-86595191D01*
X181147730Y-86409311D01*
X181335000Y-86222041D01*
X181522270Y-86409311D01*
X181800459Y-86595191D01*
X182109566Y-86723227D01*
X182437712Y-86788500D01*
X182772288Y-86788500D01*
X183100434Y-86723227D01*
X183409541Y-86595191D01*
X183687730Y-86409311D01*
X183875000Y-86222041D01*
X184062270Y-86409311D01*
X184340459Y-86595191D01*
X184649566Y-86723227D01*
X184977712Y-86788500D01*
X185312288Y-86788500D01*
X185640434Y-86723227D01*
X185949541Y-86595191D01*
X186227730Y-86409311D01*
X186415000Y-86222041D01*
X186602270Y-86409311D01*
X186880459Y-86595191D01*
X187189566Y-86723227D01*
X187517712Y-86788500D01*
X187852288Y-86788500D01*
X188180434Y-86723227D01*
X188489541Y-86595191D01*
X188767730Y-86409311D01*
X188955000Y-86222041D01*
X189142270Y-86409311D01*
X189420459Y-86595191D01*
X189729566Y-86723227D01*
X190057712Y-86788500D01*
X190392288Y-86788500D01*
X190720434Y-86723227D01*
X191029541Y-86595191D01*
X191307730Y-86409311D01*
X191495000Y-86222041D01*
X191682270Y-86409311D01*
X191960459Y-86595191D01*
X192269566Y-86723227D01*
X192597712Y-86788500D01*
X192932288Y-86788500D01*
X193260434Y-86723227D01*
X193569541Y-86595191D01*
X193847730Y-86409311D01*
X194035000Y-86222041D01*
X194222270Y-86409311D01*
X194500459Y-86595191D01*
X194809566Y-86723227D01*
X195137712Y-86788500D01*
X195472288Y-86788500D01*
X195800434Y-86723227D01*
X196109541Y-86595191D01*
X196387730Y-86409311D01*
X196575000Y-86222041D01*
X196762270Y-86409311D01*
X197040459Y-86595191D01*
X197349566Y-86723227D01*
X197677712Y-86788500D01*
X198012288Y-86788500D01*
X198340434Y-86723227D01*
X198649541Y-86595191D01*
X198927730Y-86409311D01*
X199115000Y-86222041D01*
X199302270Y-86409311D01*
X199580459Y-86595191D01*
X199889566Y-86723227D01*
X200217712Y-86788500D01*
X200552288Y-86788500D01*
X200880434Y-86723227D01*
X201189541Y-86595191D01*
X201467730Y-86409311D01*
X201655000Y-86222041D01*
X201842270Y-86409311D01*
X202120459Y-86595191D01*
X202429566Y-86723227D01*
X202757712Y-86788500D01*
X203092288Y-86788500D01*
X203420434Y-86723227D01*
X203729541Y-86595191D01*
X204007730Y-86409311D01*
X204195000Y-86222041D01*
X204382270Y-86409311D01*
X204660459Y-86595191D01*
X204969566Y-86723227D01*
X205297712Y-86788500D01*
X205632288Y-86788500D01*
X205960434Y-86723227D01*
X206269541Y-86595191D01*
X206547730Y-86409311D01*
X206735000Y-86222041D01*
X206922270Y-86409311D01*
X207200459Y-86595191D01*
X207509566Y-86723227D01*
X207837712Y-86788500D01*
X208172288Y-86788500D01*
X208468353Y-86729608D01*
X208134071Y-87063890D01*
X207928077Y-87104865D01*
X207708508Y-87195813D01*
X207510901Y-87327850D01*
X207342850Y-87495901D01*
X207210813Y-87693508D01*
X207119865Y-87913077D01*
X207073500Y-88146170D01*
X207073500Y-88383830D01*
X207119865Y-88616923D01*
X207210813Y-88836492D01*
X207327501Y-89011127D01*
X207327500Y-92028215D01*
X207322892Y-92075000D01*
X207327500Y-92121784D01*
X207341283Y-92261722D01*
X207395748Y-92441268D01*
X207484194Y-92606741D01*
X207603222Y-92751778D01*
X207639569Y-92781607D01*
X208308397Y-93450436D01*
X208338222Y-93486778D01*
X208483259Y-93605806D01*
X208648731Y-93694252D01*
X208828277Y-93748717D01*
X209015000Y-93767108D01*
X209061785Y-93762500D01*
X209317749Y-93762500D01*
X209416803Y-93883197D01*
X209560987Y-94001526D01*
X209670384Y-94060000D01*
X209560987Y-94118474D01*
X209416803Y-94236803D01*
X209298474Y-94380987D01*
X209256722Y-94459100D01*
X206356792Y-94459100D01*
X206314999Y-94454984D01*
X206273206Y-94459100D01*
X206273200Y-94459100D01*
X206165761Y-94469682D01*
X206148193Y-94471412D01*
X206099538Y-94486172D01*
X205987799Y-94520067D01*
X205839978Y-94599079D01*
X205710412Y-94705412D01*
X205683766Y-94737880D01*
X204532880Y-95888766D01*
X204500412Y-95915412D01*
X204473767Y-95947879D01*
X204473766Y-95947880D01*
X204462003Y-95962213D01*
X204394079Y-96044979D01*
X204315067Y-96192800D01*
X204266412Y-96353195D01*
X204254100Y-96478201D01*
X204254100Y-96478207D01*
X204249984Y-96520000D01*
X204254100Y-96561793D01*
X204254101Y-101532385D01*
X204251739Y-101534747D01*
X204131522Y-101714665D01*
X204048715Y-101914579D01*
X204006500Y-102126807D01*
X204006500Y-102343193D01*
X204048715Y-102555421D01*
X204131522Y-102755335D01*
X204251739Y-102935253D01*
X204404747Y-103088261D01*
X204584665Y-103208478D01*
X204784579Y-103291285D01*
X204996807Y-103333500D01*
X205213193Y-103333500D01*
X205425421Y-103291285D01*
X205625335Y-103208478D01*
X205805253Y-103088261D01*
X205958261Y-102935253D01*
X206078478Y-102755335D01*
X206161285Y-102555421D01*
X206203500Y-102343193D01*
X206203500Y-102126807D01*
X206161285Y-101914579D01*
X206078478Y-101714665D01*
X205958261Y-101534747D01*
X205955900Y-101532386D01*
X205955900Y-100960000D01*
X209393349Y-100960000D01*
X209401931Y-101047137D01*
X209427348Y-101130926D01*
X209468623Y-101208146D01*
X209524170Y-101275830D01*
X209591854Y-101331377D01*
X209669074Y-101372652D01*
X209752863Y-101398069D01*
X209840000Y-101406651D01*
X211966175Y-101404500D01*
X212077300Y-101293375D01*
X212077300Y-100322700D01*
X212102700Y-100322700D01*
X212102700Y-101293375D01*
X212213825Y-101404500D01*
X214340000Y-101406651D01*
X214427137Y-101398069D01*
X214510926Y-101372652D01*
X214588146Y-101331377D01*
X214655830Y-101275830D01*
X214711377Y-101208146D01*
X214752652Y-101130926D01*
X214778069Y-101047137D01*
X214786651Y-100960000D01*
X214784500Y-100433825D01*
X214673375Y-100322700D01*
X212102700Y-100322700D01*
X212077300Y-100322700D01*
X209506625Y-100322700D01*
X209395500Y-100433825D01*
X209393349Y-100960000D01*
X205955900Y-100960000D01*
X205955900Y-99660000D01*
X209393349Y-99660000D01*
X209395500Y-100186175D01*
X209506625Y-100297300D01*
X212077300Y-100297300D01*
X212077300Y-99326625D01*
X212102700Y-99326625D01*
X212102700Y-100297300D01*
X214673375Y-100297300D01*
X214784500Y-100186175D01*
X214786651Y-99660000D01*
X214778069Y-99572863D01*
X214752652Y-99489074D01*
X214711377Y-99411854D01*
X214655830Y-99344170D01*
X214588146Y-99288623D01*
X214510926Y-99247348D01*
X214427137Y-99221931D01*
X214340000Y-99213349D01*
X212213825Y-99215500D01*
X212102700Y-99326625D01*
X212077300Y-99326625D01*
X211966175Y-99215500D01*
X209840000Y-99213349D01*
X209752863Y-99221931D01*
X209669074Y-99247348D01*
X209591854Y-99288623D01*
X209524170Y-99344170D01*
X209468623Y-99411854D01*
X209427348Y-99489074D01*
X209401931Y-99572863D01*
X209393349Y-99660000D01*
X205955900Y-99660000D01*
X205955900Y-96872454D01*
X206667454Y-96160900D01*
X207874736Y-96160900D01*
X207858715Y-96199579D01*
X207816500Y-96411807D01*
X207816500Y-96628193D01*
X207858715Y-96840421D01*
X207941522Y-97040335D01*
X208061739Y-97220253D01*
X208214747Y-97373261D01*
X208394665Y-97493478D01*
X208594579Y-97576285D01*
X208806807Y-97618500D01*
X209023193Y-97618500D01*
X209138121Y-97595639D01*
X209138121Y-98210400D01*
X209156403Y-98396024D01*
X209210548Y-98574515D01*
X209298474Y-98739013D01*
X209416803Y-98883197D01*
X209560987Y-99001526D01*
X209725485Y-99089452D01*
X209903976Y-99143597D01*
X210089600Y-99161879D01*
X214090400Y-99161879D01*
X214276024Y-99143597D01*
X214454515Y-99089452D01*
X214605431Y-99008786D01*
X215684100Y-100087455D01*
X215684101Y-100897385D01*
X215681739Y-100899747D01*
X215561522Y-101079665D01*
X215478715Y-101279579D01*
X215436500Y-101491807D01*
X215436500Y-101708193D01*
X215478715Y-101920421D01*
X215494736Y-101959100D01*
X214923278Y-101959100D01*
X214881526Y-101880987D01*
X214763197Y-101736803D01*
X214619013Y-101618474D01*
X214454515Y-101530548D01*
X214276024Y-101476403D01*
X214090400Y-101458121D01*
X210089600Y-101458121D01*
X209903976Y-101476403D01*
X209725485Y-101530548D01*
X209560987Y-101618474D01*
X209416803Y-101736803D01*
X209298474Y-101880987D01*
X209210548Y-102045485D01*
X209156403Y-102223976D01*
X209138121Y-102409600D01*
X209138121Y-103064361D01*
X209023193Y-103041500D01*
X208806807Y-103041500D01*
X208594579Y-103083715D01*
X208394665Y-103166522D01*
X208214747Y-103286739D01*
X208061739Y-103439747D01*
X207941522Y-103619665D01*
X207858715Y-103819579D01*
X207816500Y-104031807D01*
X207816500Y-104248193D01*
X207858715Y-104460421D01*
X207941522Y-104660335D01*
X208061739Y-104840253D01*
X208214747Y-104993261D01*
X208394665Y-105113478D01*
X208594579Y-105196285D01*
X208806807Y-105238500D01*
X209023193Y-105238500D01*
X209138121Y-105215639D01*
X209138121Y-105710400D01*
X209156403Y-105896024D01*
X209210548Y-106074515D01*
X209298474Y-106239013D01*
X209416803Y-106383197D01*
X209560987Y-106501526D01*
X209725485Y-106589452D01*
X209903976Y-106643597D01*
X210089600Y-106661879D01*
X214090400Y-106661879D01*
X214276024Y-106643597D01*
X214454515Y-106589452D01*
X214619013Y-106501526D01*
X214763197Y-106383197D01*
X214881526Y-106239013D01*
X214923278Y-106160900D01*
X216593207Y-106160900D01*
X216635000Y-106165016D01*
X216676793Y-106160900D01*
X216676800Y-106160900D01*
X216801806Y-106148588D01*
X216962201Y-106099933D01*
X217110022Y-106020921D01*
X217239588Y-105914588D01*
X217266234Y-105882120D01*
X219647126Y-103501229D01*
X219679588Y-103474588D01*
X219706230Y-103442125D01*
X219706234Y-103442121D01*
X219744064Y-103396024D01*
X219785921Y-103345022D01*
X219864933Y-103197201D01*
X219913588Y-103036806D01*
X219925900Y-102911800D01*
X219925900Y-102911794D01*
X219930016Y-102870001D01*
X219925900Y-102828208D01*
X219925900Y-92751792D01*
X219930016Y-92709999D01*
X219925900Y-92668206D01*
X219925900Y-92668200D01*
X219913588Y-92543194D01*
X219864933Y-92382799D01*
X219785921Y-92234978D01*
X219716936Y-92150920D01*
X219706234Y-92137879D01*
X219706230Y-92137875D01*
X219679588Y-92105412D01*
X219647125Y-92078770D01*
X218780233Y-91211879D01*
X220589800Y-91211879D01*
X220775541Y-91193585D01*
X220954145Y-91139406D01*
X221118747Y-91051425D01*
X221263022Y-90933022D01*
X221381425Y-90788747D01*
X221469406Y-90624145D01*
X221523585Y-90445541D01*
X221526501Y-90415939D01*
X221526500Y-107704059D01*
X221523585Y-107674459D01*
X221469406Y-107495855D01*
X221381425Y-107331253D01*
X221263022Y-107186978D01*
X221118747Y-107068575D01*
X220954145Y-106980594D01*
X220775541Y-106926415D01*
X220589800Y-106908121D01*
X217190200Y-106908121D01*
X217004459Y-106926415D01*
X216825855Y-106980594D01*
X216661253Y-107068575D01*
X216516978Y-107186978D01*
X216398575Y-107331253D01*
X216310594Y-107495855D01*
X216256415Y-107674459D01*
X216238121Y-107860200D01*
X216238121Y-109159800D01*
X216256415Y-109345541D01*
X216310594Y-109524145D01*
X216398575Y-109688747D01*
X216516978Y-109833022D01*
X216661253Y-109951425D01*
X216825855Y-110039406D01*
X217004459Y-110093585D01*
X217190200Y-110111879D01*
X220589800Y-110111879D01*
X220775541Y-110093585D01*
X220954145Y-110039406D01*
X221118747Y-109951425D01*
X221263022Y-109833022D01*
X221381425Y-109688747D01*
X221469406Y-109524145D01*
X221523585Y-109345541D01*
X221526500Y-109315941D01*
X221526500Y-112204500D01*
X212809614Y-112204500D01*
X212779898Y-112180113D01*
X212554318Y-112059539D01*
X212309550Y-111985289D01*
X212118782Y-111966500D01*
X210791218Y-111966500D01*
X210600450Y-111985289D01*
X210355682Y-112059539D01*
X210130102Y-112180113D01*
X210100386Y-112204500D01*
X189159269Y-112204500D01*
X189274146Y-112089623D01*
X189548764Y-111678627D01*
X189737925Y-111221953D01*
X189834358Y-110737150D01*
X189834358Y-110242850D01*
X189737925Y-109758047D01*
X189548764Y-109301373D01*
X189274146Y-108890377D01*
X188924623Y-108540854D01*
X188513627Y-108266236D01*
X188056953Y-108077075D01*
X187572150Y-107980642D01*
X187077850Y-107980642D01*
X186593047Y-108077075D01*
X186136373Y-108266236D01*
X185725377Y-108540854D01*
X185375854Y-108890377D01*
X185101236Y-109301373D01*
X184912075Y-109758047D01*
X184815642Y-110242850D01*
X184815642Y-110737150D01*
X184912075Y-111221953D01*
X185101236Y-111678627D01*
X185375854Y-112089623D01*
X185490731Y-112204500D01*
X183070500Y-112204500D01*
X183070500Y-95250000D01*
X183066840Y-95212835D01*
X183055999Y-95177099D01*
X183038395Y-95144164D01*
X183014704Y-95115296D01*
X182985836Y-95091605D01*
X182952901Y-95074001D01*
X182917165Y-95063160D01*
X182880000Y-95059500D01*
X163830000Y-95059500D01*
X163792835Y-95063160D01*
X163757099Y-95074001D01*
X163724164Y-95091605D01*
X163695296Y-95115296D01*
X163671605Y-95144164D01*
X163654001Y-95177099D01*
X163643160Y-95212835D01*
X163639500Y-95250000D01*
X163639500Y-96091500D01*
X162531218Y-96091500D01*
X162340450Y-96110289D01*
X162095682Y-96184539D01*
X161870102Y-96305113D01*
X161672380Y-96467380D01*
X161510113Y-96665102D01*
X161389539Y-96890682D01*
X161315289Y-97135450D01*
X161290218Y-97390000D01*
X161315289Y-97644550D01*
X161389539Y-97889318D01*
X161510113Y-98114898D01*
X161672380Y-98312620D01*
X161870102Y-98474887D01*
X162095682Y-98595461D01*
X162340450Y-98669711D01*
X162531218Y-98688500D01*
X163639500Y-98688500D01*
X163639500Y-103314500D01*
X153123500Y-103314500D01*
X153123500Y-93236807D01*
X204006500Y-93236807D01*
X204006500Y-93453193D01*
X204048715Y-93665421D01*
X204131522Y-93865335D01*
X204251739Y-94045253D01*
X204404747Y-94198261D01*
X204584665Y-94318478D01*
X204784579Y-94401285D01*
X204996807Y-94443500D01*
X205213193Y-94443500D01*
X205425421Y-94401285D01*
X205625335Y-94318478D01*
X205805253Y-94198261D01*
X205958261Y-94045253D01*
X206078478Y-93865335D01*
X206161285Y-93665421D01*
X206203500Y-93453193D01*
X206203500Y-93236807D01*
X206161285Y-93024579D01*
X206078478Y-92824665D01*
X205958261Y-92644747D01*
X205805253Y-92491739D01*
X205625335Y-92371522D01*
X205425421Y-92288715D01*
X205213193Y-92246500D01*
X204996807Y-92246500D01*
X204784579Y-92288715D01*
X204584665Y-92371522D01*
X204404747Y-92491739D01*
X204251739Y-92644747D01*
X204131522Y-92824665D01*
X204048715Y-93024579D01*
X204006500Y-93236807D01*
X153123500Y-93236807D01*
X153123500Y-89710038D01*
X154148485Y-89710038D01*
X154152896Y-89735089D01*
X154224178Y-89978651D01*
X154341607Y-90203627D01*
X154500670Y-90401370D01*
X154695255Y-90564282D01*
X154917883Y-90686102D01*
X155160000Y-90762149D01*
X155412300Y-90789500D01*
X155562300Y-90789500D01*
X155562300Y-89507700D01*
X155587700Y-89507700D01*
X155587700Y-90789500D01*
X155737700Y-90789500D01*
X155990000Y-90762149D01*
X156232117Y-90686102D01*
X156454745Y-90564282D01*
X156649330Y-90401370D01*
X156808393Y-90203627D01*
X156925822Y-89978651D01*
X156997104Y-89735089D01*
X157001515Y-89710038D01*
X156908307Y-89507700D01*
X155587700Y-89507700D01*
X155562300Y-89507700D01*
X154241693Y-89507700D01*
X154148485Y-89710038D01*
X153123500Y-89710038D01*
X153123500Y-86395000D01*
X153873121Y-86395000D01*
X153873121Y-87595000D01*
X153891411Y-87780702D01*
X153945578Y-87959268D01*
X154033542Y-88123836D01*
X154151920Y-88268080D01*
X154296164Y-88386458D01*
X154460732Y-88474422D01*
X154590180Y-88513689D01*
X154500670Y-88588630D01*
X154341607Y-88786373D01*
X154224178Y-89011349D01*
X154152896Y-89254911D01*
X154148485Y-89279962D01*
X154241693Y-89482300D01*
X155562300Y-89482300D01*
X155562300Y-89462300D01*
X155587700Y-89462300D01*
X155587700Y-89482300D01*
X156908307Y-89482300D01*
X157001515Y-89279962D01*
X156997104Y-89254911D01*
X156925822Y-89011349D01*
X156808393Y-88786373D01*
X156649330Y-88588630D01*
X156559820Y-88513689D01*
X156689268Y-88474422D01*
X156853836Y-88386458D01*
X156998080Y-88268080D01*
X157116458Y-88123836D01*
X157204422Y-87959268D01*
X157258589Y-87780702D01*
X157276879Y-87595000D01*
X157276879Y-86395000D01*
X157258589Y-86209298D01*
X157204422Y-86030732D01*
X157116458Y-85866164D01*
X156998080Y-85721920D01*
X156853836Y-85603542D01*
X156689268Y-85515578D01*
X156510702Y-85461411D01*
X156325000Y-85443121D01*
X154825000Y-85443121D01*
X154639298Y-85461411D01*
X154460732Y-85515578D01*
X154296164Y-85603542D01*
X154151920Y-85721920D01*
X154033542Y-85866164D01*
X153945578Y-86030732D01*
X153891411Y-86209298D01*
X153873121Y-86395000D01*
X153123500Y-86395000D01*
X153123500Y-77243618D01*
X158356500Y-77243618D01*
X158356500Y-77696382D01*
X158444831Y-78140448D01*
X158618096Y-78558748D01*
X158869639Y-78935208D01*
X159189792Y-79255361D01*
X159566252Y-79506904D01*
X159984552Y-79680169D01*
X160428618Y-79768500D01*
X160881382Y-79768500D01*
X161325448Y-79680169D01*
X161743748Y-79506904D01*
X162120208Y-79255361D01*
X162440361Y-78935208D01*
X162691904Y-78558748D01*
X162865169Y-78140448D01*
X162953500Y-77696382D01*
X162953500Y-77243618D01*
X162900880Y-76979077D01*
X168783884Y-76979077D01*
X168849807Y-77178458D01*
X169054052Y-77295282D01*
X169277165Y-77370016D01*
X169510570Y-77399786D01*
X169745298Y-77383449D01*
X169972329Y-77321634D01*
X170182938Y-77216715D01*
X170240193Y-77178458D01*
X170306116Y-76979077D01*
X169545000Y-76217961D01*
X168783884Y-76979077D01*
X162900880Y-76979077D01*
X162865169Y-76799552D01*
X162691904Y-76381252D01*
X162440361Y-76004792D01*
X162120208Y-75684639D01*
X161743748Y-75433096D01*
X161325448Y-75259831D01*
X160881382Y-75171500D01*
X160428618Y-75171500D01*
X159984552Y-75259831D01*
X159566252Y-75433096D01*
X159189792Y-75684639D01*
X158869639Y-76004792D01*
X158618096Y-76381252D01*
X158444831Y-76799552D01*
X158356500Y-77243618D01*
X153123500Y-77243618D01*
X153123500Y-65813618D01*
X158356500Y-65813618D01*
X158356500Y-66266382D01*
X158444831Y-66710448D01*
X158618096Y-67128748D01*
X158869639Y-67505208D01*
X159189792Y-67825361D01*
X159566252Y-68076904D01*
X159984552Y-68250169D01*
X160428618Y-68338500D01*
X160881382Y-68338500D01*
X161325448Y-68250169D01*
X161743748Y-68076904D01*
X162120208Y-67825361D01*
X162440361Y-67505208D01*
X162691904Y-67128748D01*
X162865169Y-66710448D01*
X162895095Y-66560000D01*
X165553121Y-66560000D01*
X165553121Y-68060000D01*
X165566607Y-68196930D01*
X165606548Y-68328597D01*
X165671409Y-68449943D01*
X165758697Y-68556303D01*
X165865057Y-68643591D01*
X165986403Y-68708452D01*
X166072072Y-68734439D01*
X165879876Y-68926635D01*
X165721356Y-69163878D01*
X165612165Y-69427488D01*
X165556500Y-69707335D01*
X165556500Y-69992665D01*
X165612165Y-70272512D01*
X165721356Y-70536122D01*
X165879876Y-70773365D01*
X166081635Y-70975124D01*
X166298458Y-71120000D01*
X166081635Y-71264876D01*
X165879876Y-71466635D01*
X165721356Y-71703878D01*
X165612165Y-71967488D01*
X165556500Y-72247335D01*
X165556500Y-72532665D01*
X165612165Y-72812512D01*
X165721356Y-73076122D01*
X165879876Y-73313365D01*
X166081635Y-73515124D01*
X166298458Y-73660000D01*
X166081635Y-73804876D01*
X165879876Y-74006635D01*
X165721356Y-74243878D01*
X165612165Y-74507488D01*
X165556500Y-74787335D01*
X165556500Y-75072665D01*
X165612165Y-75352512D01*
X165721356Y-75616122D01*
X165879876Y-75853365D01*
X166081635Y-76055124D01*
X166318878Y-76213644D01*
X166582488Y-76322835D01*
X166862335Y-76378500D01*
X167147665Y-76378500D01*
X167427512Y-76322835D01*
X167691122Y-76213644D01*
X167763070Y-76165570D01*
X168345214Y-76165570D01*
X168361551Y-76400298D01*
X168423366Y-76627329D01*
X168528285Y-76837938D01*
X168566542Y-76895193D01*
X168765923Y-76961116D01*
X169527039Y-76200000D01*
X169562961Y-76200000D01*
X170324077Y-76961116D01*
X170523458Y-76895193D01*
X170640282Y-76690948D01*
X170715016Y-76467835D01*
X170744786Y-76234430D01*
X170728449Y-75999702D01*
X170666634Y-75772671D01*
X170561715Y-75562062D01*
X170523458Y-75504807D01*
X170324077Y-75438884D01*
X169562961Y-76200000D01*
X169527039Y-76200000D01*
X168765923Y-75438884D01*
X168566542Y-75504807D01*
X168449718Y-75709052D01*
X168374984Y-75932165D01*
X168345214Y-76165570D01*
X167763070Y-76165570D01*
X167928365Y-76055124D01*
X168130124Y-75853365D01*
X168288644Y-75616122D01*
X168397835Y-75352512D01*
X168453500Y-75072665D01*
X168453500Y-74787335D01*
X168409983Y-74568559D01*
X168419876Y-74583365D01*
X168621635Y-74785124D01*
X168858878Y-74943644D01*
X169122488Y-75052835D01*
X169173889Y-75063059D01*
X169117671Y-75078366D01*
X168907062Y-75183285D01*
X168849807Y-75221542D01*
X168783884Y-75420923D01*
X169545000Y-76182039D01*
X170306116Y-75420923D01*
X170240193Y-75221542D01*
X170035948Y-75104718D01*
X169913267Y-75063625D01*
X169967512Y-75052835D01*
X170231122Y-74943644D01*
X170468365Y-74785124D01*
X170670124Y-74583365D01*
X170828644Y-74346122D01*
X170937835Y-74082512D01*
X170993500Y-73802665D01*
X170993500Y-73517335D01*
X170937835Y-73237488D01*
X170828644Y-72973878D01*
X170670124Y-72736635D01*
X170468365Y-72534876D01*
X170251542Y-72390000D01*
X170468365Y-72245124D01*
X170670124Y-72043365D01*
X170828644Y-71806122D01*
X170937835Y-71542512D01*
X170993500Y-71262665D01*
X170993500Y-70977335D01*
X170937835Y-70697488D01*
X170828644Y-70433878D01*
X170670124Y-70196635D01*
X170468365Y-69994876D01*
X170251542Y-69850000D01*
X170468365Y-69705124D01*
X170670124Y-69503365D01*
X170828644Y-69266122D01*
X170937835Y-69002512D01*
X170993500Y-68722665D01*
X170993500Y-68437335D01*
X170937835Y-68157488D01*
X170828644Y-67893878D01*
X170670124Y-67656635D01*
X170468365Y-67454876D01*
X170231122Y-67296356D01*
X170002861Y-67201807D01*
X170986500Y-67201807D01*
X170986500Y-67418193D01*
X171028715Y-67630421D01*
X171111522Y-67830335D01*
X171231739Y-68010253D01*
X171234101Y-68012615D01*
X171234100Y-75523207D01*
X171229984Y-75565000D01*
X171234100Y-75606793D01*
X171234100Y-75606799D01*
X171246412Y-75731805D01*
X171295067Y-75892200D01*
X171374079Y-76040021D01*
X171480412Y-76169588D01*
X171512880Y-76196234D01*
X172088766Y-76772120D01*
X172115412Y-76804588D01*
X172244978Y-76910921D01*
X172392799Y-76989933D01*
X172553194Y-77038588D01*
X172678200Y-77050900D01*
X172678207Y-77050900D01*
X172720000Y-77055016D01*
X172761793Y-77050900D01*
X193607386Y-77050900D01*
X193609747Y-77053261D01*
X193789665Y-77173478D01*
X193989579Y-77256285D01*
X194201807Y-77298500D01*
X194418193Y-77298500D01*
X194630421Y-77256285D01*
X194830335Y-77173478D01*
X195010253Y-77053261D01*
X195012614Y-77050900D01*
X206203058Y-77050900D01*
X206206607Y-77086930D01*
X206246548Y-77218597D01*
X206311409Y-77339943D01*
X206398697Y-77446303D01*
X206505057Y-77533591D01*
X206626403Y-77598452D01*
X206758070Y-77638393D01*
X206895000Y-77651879D01*
X208395000Y-77651879D01*
X208531930Y-77638393D01*
X208663597Y-77598452D01*
X208784943Y-77533591D01*
X208891303Y-77446303D01*
X208978591Y-77339943D01*
X209030077Y-77243618D01*
X211696500Y-77243618D01*
X211696500Y-77696382D01*
X211784831Y-78140448D01*
X211958096Y-78558748D01*
X212209639Y-78935208D01*
X212529792Y-79255361D01*
X212906252Y-79506904D01*
X213324552Y-79680169D01*
X213768618Y-79768500D01*
X214221382Y-79768500D01*
X214665448Y-79680169D01*
X215083748Y-79506904D01*
X215460208Y-79255361D01*
X215780361Y-78935208D01*
X216031904Y-78558748D01*
X216205169Y-78140448D01*
X216293500Y-77696382D01*
X216293500Y-77243618D01*
X216205169Y-76799552D01*
X216031904Y-76381252D01*
X215780361Y-76004792D01*
X215460208Y-75684639D01*
X215083748Y-75433096D01*
X214665448Y-75259831D01*
X214221382Y-75171500D01*
X213768618Y-75171500D01*
X213324552Y-75259831D01*
X212906252Y-75433096D01*
X212529792Y-75684639D01*
X212209639Y-76004792D01*
X211958096Y-76381252D01*
X211784831Y-76799552D01*
X211696500Y-77243618D01*
X209030077Y-77243618D01*
X209043452Y-77218597D01*
X209083393Y-77086930D01*
X209096879Y-76950000D01*
X209096879Y-75450000D01*
X209083393Y-75313070D01*
X209043452Y-75181403D01*
X208978591Y-75060057D01*
X208891303Y-74953697D01*
X208784943Y-74866409D01*
X208663597Y-74801548D01*
X208577928Y-74775561D01*
X208770124Y-74583365D01*
X208928644Y-74346122D01*
X209037835Y-74082512D01*
X209093500Y-73802665D01*
X209093500Y-73517335D01*
X209037835Y-73237488D01*
X208928644Y-72973878D01*
X208770124Y-72736635D01*
X208568365Y-72534876D01*
X208351542Y-72390000D01*
X208568365Y-72245124D01*
X208770124Y-72043365D01*
X208928644Y-71806122D01*
X209037835Y-71542512D01*
X209093500Y-71262665D01*
X209093500Y-70977335D01*
X209037835Y-70697488D01*
X208928644Y-70433878D01*
X208770124Y-70196635D01*
X208568365Y-69994876D01*
X208351542Y-69850000D01*
X208568365Y-69705124D01*
X208770124Y-69503365D01*
X208928644Y-69266122D01*
X209037835Y-69002512D01*
X209093500Y-68722665D01*
X209093500Y-68437335D01*
X209037835Y-68157488D01*
X208928644Y-67893878D01*
X208770124Y-67656635D01*
X208568365Y-67454876D01*
X208331122Y-67296356D01*
X208067512Y-67187165D01*
X207787665Y-67131500D01*
X207502335Y-67131500D01*
X207222488Y-67187165D01*
X206958878Y-67296356D01*
X206721635Y-67454876D01*
X206549011Y-67627500D01*
X206258380Y-67627500D01*
X206275016Y-67577835D01*
X206304786Y-67344430D01*
X206288449Y-67109702D01*
X206226634Y-66882671D01*
X206121715Y-66672062D01*
X206083458Y-66614807D01*
X205884077Y-66548884D01*
X205122961Y-67310000D01*
X205137103Y-67324142D01*
X205119142Y-67342103D01*
X205105000Y-67327961D01*
X205090858Y-67342103D01*
X205072897Y-67324142D01*
X205087039Y-67310000D01*
X204325923Y-66548884D01*
X204126542Y-66614807D01*
X204009718Y-66819052D01*
X203934984Y-67042165D01*
X203905214Y-67275570D01*
X203921551Y-67510298D01*
X203953462Y-67627500D01*
X180761866Y-67627500D01*
X180803500Y-67418193D01*
X180803500Y-67201807D01*
X180761285Y-66989579D01*
X180678478Y-66789665D01*
X180558261Y-66609747D01*
X180479437Y-66530923D01*
X204343884Y-66530923D01*
X205105000Y-67292039D01*
X205866116Y-66530923D01*
X205800193Y-66331542D01*
X205595948Y-66214718D01*
X205372835Y-66139984D01*
X205139430Y-66110214D01*
X204904702Y-66126551D01*
X204677671Y-66188366D01*
X204467062Y-66293285D01*
X204409807Y-66331542D01*
X204343884Y-66530923D01*
X180479437Y-66530923D01*
X180405253Y-66456739D01*
X180225335Y-66336522D01*
X180025421Y-66253715D01*
X179813193Y-66211500D01*
X179596807Y-66211500D01*
X179384579Y-66253715D01*
X179184665Y-66336522D01*
X179070000Y-66413138D01*
X178955335Y-66336522D01*
X178755421Y-66253715D01*
X178543193Y-66211500D01*
X178326807Y-66211500D01*
X178114579Y-66253715D01*
X177914665Y-66336522D01*
X177800000Y-66413138D01*
X177685335Y-66336522D01*
X177485421Y-66253715D01*
X177273193Y-66211500D01*
X177056807Y-66211500D01*
X176844579Y-66253715D01*
X176644665Y-66336522D01*
X176530000Y-66413138D01*
X176415335Y-66336522D01*
X176215421Y-66253715D01*
X176003193Y-66211500D01*
X175786807Y-66211500D01*
X175574579Y-66253715D01*
X175374665Y-66336522D01*
X175260000Y-66413138D01*
X175145335Y-66336522D01*
X174945421Y-66253715D01*
X174733193Y-66211500D01*
X174516807Y-66211500D01*
X174304579Y-66253715D01*
X174104665Y-66336522D01*
X173990000Y-66413138D01*
X173875335Y-66336522D01*
X173675421Y-66253715D01*
X173463193Y-66211500D01*
X173246807Y-66211500D01*
X173034579Y-66253715D01*
X172834665Y-66336522D01*
X172720000Y-66413138D01*
X172605335Y-66336522D01*
X172405421Y-66253715D01*
X172193193Y-66211500D01*
X171976807Y-66211500D01*
X171764579Y-66253715D01*
X171564665Y-66336522D01*
X171384747Y-66456739D01*
X171231739Y-66609747D01*
X171111522Y-66789665D01*
X171028715Y-66989579D01*
X170986500Y-67201807D01*
X170002861Y-67201807D01*
X169967512Y-67187165D01*
X169687665Y-67131500D01*
X169402335Y-67131500D01*
X169122488Y-67187165D01*
X168858878Y-67296356D01*
X168621635Y-67454876D01*
X168456879Y-67619632D01*
X168456879Y-66560000D01*
X168443393Y-66423070D01*
X168403452Y-66291403D01*
X168338591Y-66170057D01*
X168251303Y-66063697D01*
X168144943Y-65976409D01*
X168023597Y-65911548D01*
X167891930Y-65871607D01*
X167755000Y-65858121D01*
X166255000Y-65858121D01*
X166118070Y-65871607D01*
X165986403Y-65911548D01*
X165865057Y-65976409D01*
X165758697Y-66063697D01*
X165671409Y-66170057D01*
X165606548Y-66291403D01*
X165566607Y-66423070D01*
X165553121Y-66560000D01*
X162895095Y-66560000D01*
X162953500Y-66266382D01*
X162953500Y-65813618D01*
X211696500Y-65813618D01*
X211696500Y-66266382D01*
X211784831Y-66710448D01*
X211958096Y-67128748D01*
X212209639Y-67505208D01*
X212529792Y-67825361D01*
X212906252Y-68076904D01*
X213324552Y-68250169D01*
X213768618Y-68338500D01*
X214221382Y-68338500D01*
X214665448Y-68250169D01*
X215083748Y-68076904D01*
X215460208Y-67825361D01*
X215780361Y-67505208D01*
X216031904Y-67128748D01*
X216205169Y-66710448D01*
X216293500Y-66266382D01*
X216293500Y-65813618D01*
X216205169Y-65369552D01*
X216031904Y-64951252D01*
X215780361Y-64574792D01*
X215460208Y-64254639D01*
X215083748Y-64003096D01*
X214665448Y-63829831D01*
X214221382Y-63741500D01*
X213768618Y-63741500D01*
X213324552Y-63829831D01*
X212906252Y-64003096D01*
X212529792Y-64254639D01*
X212209639Y-64574792D01*
X211958096Y-64951252D01*
X211784831Y-65369552D01*
X211696500Y-65813618D01*
X162953500Y-65813618D01*
X162865169Y-65369552D01*
X162691904Y-64951252D01*
X162440361Y-64574792D01*
X162120208Y-64254639D01*
X161743748Y-64003096D01*
X161325448Y-63829831D01*
X160881382Y-63741500D01*
X160428618Y-63741500D01*
X159984552Y-63829831D01*
X159566252Y-64003096D01*
X159189792Y-64254639D01*
X158869639Y-64574792D01*
X158618096Y-64951252D01*
X158444831Y-65369552D01*
X158356500Y-65813618D01*
X153123500Y-65813618D01*
X153123500Y-60077850D01*
X154335642Y-60077850D01*
X154335642Y-60572150D01*
X154432075Y-61056953D01*
X154621236Y-61513627D01*
X154895854Y-61924623D01*
X155245377Y-62274146D01*
X155656373Y-62548764D01*
X156113047Y-62737925D01*
X156597850Y-62834358D01*
X157092150Y-62834358D01*
X157576953Y-62737925D01*
X158033627Y-62548764D01*
X158444623Y-62274146D01*
X158794146Y-61924623D01*
X159068764Y-61513627D01*
X159257925Y-61056953D01*
X159354358Y-60572150D01*
X159354358Y-60077850D01*
X159257925Y-59593047D01*
X159228792Y-59522712D01*
X170746500Y-59522712D01*
X170746500Y-59857288D01*
X170811773Y-60185434D01*
X170939809Y-60494541D01*
X171125689Y-60772730D01*
X171362270Y-61009311D01*
X171640459Y-61195191D01*
X171949566Y-61323227D01*
X172277712Y-61388500D01*
X172612288Y-61388500D01*
X172940434Y-61323227D01*
X173249541Y-61195191D01*
X173527730Y-61009311D01*
X173764311Y-60772730D01*
X173848509Y-60646718D01*
X174046242Y-60646718D01*
X174142144Y-60871699D01*
X174388877Y-61013426D01*
X174658519Y-61104294D01*
X174940707Y-61140812D01*
X175224597Y-61121576D01*
X175499280Y-61047325D01*
X175754200Y-60920914D01*
X175827856Y-60871699D01*
X175923758Y-60646718D01*
X174985000Y-59707961D01*
X174046242Y-60646718D01*
X173848509Y-60646718D01*
X173897702Y-60573096D01*
X174028282Y-60628758D01*
X174967039Y-59690000D01*
X175002961Y-59690000D01*
X175941718Y-60628758D01*
X176072298Y-60573096D01*
X176205689Y-60772730D01*
X176442270Y-61009311D01*
X176720459Y-61195191D01*
X177029566Y-61323227D01*
X177357712Y-61388500D01*
X177692288Y-61388500D01*
X178020434Y-61323227D01*
X178329541Y-61195191D01*
X178607730Y-61009311D01*
X178795000Y-60822041D01*
X178982270Y-61009311D01*
X179260459Y-61195191D01*
X179569566Y-61323227D01*
X179897712Y-61388500D01*
X180232288Y-61388500D01*
X180560434Y-61323227D01*
X180869541Y-61195191D01*
X181147730Y-61009311D01*
X181335000Y-60822041D01*
X181522270Y-61009311D01*
X181800459Y-61195191D01*
X182109566Y-61323227D01*
X182437712Y-61388500D01*
X182772288Y-61388500D01*
X183100434Y-61323227D01*
X183409541Y-61195191D01*
X183687730Y-61009311D01*
X183875000Y-60822041D01*
X184062270Y-61009311D01*
X184340459Y-61195191D01*
X184649566Y-61323227D01*
X184977712Y-61388500D01*
X185312288Y-61388500D01*
X185640434Y-61323227D01*
X185949541Y-61195191D01*
X186227730Y-61009311D01*
X186415000Y-60822041D01*
X186602270Y-61009311D01*
X186880459Y-61195191D01*
X187189566Y-61323227D01*
X187517712Y-61388500D01*
X187852288Y-61388500D01*
X188180434Y-61323227D01*
X188489541Y-61195191D01*
X188767730Y-61009311D01*
X188955000Y-60822041D01*
X189142270Y-61009311D01*
X189420459Y-61195191D01*
X189729566Y-61323227D01*
X190057712Y-61388500D01*
X190392288Y-61388500D01*
X190720434Y-61323227D01*
X191029541Y-61195191D01*
X191307730Y-61009311D01*
X191495000Y-60822041D01*
X191682270Y-61009311D01*
X191960459Y-61195191D01*
X192269566Y-61323227D01*
X192597712Y-61388500D01*
X192932288Y-61388500D01*
X193260434Y-61323227D01*
X193569541Y-61195191D01*
X193847730Y-61009311D01*
X194035000Y-60822041D01*
X194222270Y-61009311D01*
X194500459Y-61195191D01*
X194809566Y-61323227D01*
X195137712Y-61388500D01*
X195472288Y-61388500D01*
X195800434Y-61323227D01*
X196109541Y-61195191D01*
X196387730Y-61009311D01*
X196575000Y-60822041D01*
X196762270Y-61009311D01*
X197040459Y-61195191D01*
X197349566Y-61323227D01*
X197677712Y-61388500D01*
X198012288Y-61388500D01*
X198340434Y-61323227D01*
X198649541Y-61195191D01*
X198927730Y-61009311D01*
X199115000Y-60822041D01*
X199302270Y-61009311D01*
X199580459Y-61195191D01*
X199889566Y-61323227D01*
X200217712Y-61388500D01*
X200552288Y-61388500D01*
X200880434Y-61323227D01*
X201189541Y-61195191D01*
X201467730Y-61009311D01*
X201655000Y-60822041D01*
X201842270Y-61009311D01*
X202120459Y-61195191D01*
X202429566Y-61323227D01*
X202757712Y-61388500D01*
X203092288Y-61388500D01*
X203420434Y-61323227D01*
X203729541Y-61195191D01*
X204007730Y-61009311D01*
X204195000Y-60822041D01*
X204382270Y-61009311D01*
X204660459Y-61195191D01*
X204969566Y-61323227D01*
X205297712Y-61388500D01*
X205632288Y-61388500D01*
X205960434Y-61323227D01*
X206269541Y-61195191D01*
X206547730Y-61009311D01*
X206735000Y-60822041D01*
X206922270Y-61009311D01*
X207200459Y-61195191D01*
X207509566Y-61323227D01*
X207837712Y-61388500D01*
X208172288Y-61388500D01*
X208500434Y-61323227D01*
X208809541Y-61195191D01*
X209087730Y-61009311D01*
X209324311Y-60772730D01*
X209510191Y-60494541D01*
X209638227Y-60185434D01*
X209659627Y-60077850D01*
X215295642Y-60077850D01*
X215295642Y-60572150D01*
X215392075Y-61056953D01*
X215581236Y-61513627D01*
X215855854Y-61924623D01*
X216205377Y-62274146D01*
X216616373Y-62548764D01*
X217073047Y-62737925D01*
X217557850Y-62834358D01*
X218052150Y-62834358D01*
X218536953Y-62737925D01*
X218993627Y-62548764D01*
X219404623Y-62274146D01*
X219754146Y-61924623D01*
X220028764Y-61513627D01*
X220217925Y-61056953D01*
X220314358Y-60572150D01*
X220314358Y-60077850D01*
X220217925Y-59593047D01*
X220028764Y-59136373D01*
X219754146Y-58725377D01*
X219404623Y-58375854D01*
X218993627Y-58101236D01*
X218536953Y-57912075D01*
X218052150Y-57815642D01*
X217557850Y-57815642D01*
X217073047Y-57912075D01*
X216616373Y-58101236D01*
X216205377Y-58375854D01*
X215855854Y-58725377D01*
X215581236Y-59136373D01*
X215392075Y-59593047D01*
X215295642Y-60077850D01*
X209659627Y-60077850D01*
X209703500Y-59857288D01*
X209703500Y-59522712D01*
X209638227Y-59194566D01*
X209510191Y-58885459D01*
X209324311Y-58607270D01*
X209087730Y-58370689D01*
X208809541Y-58184809D01*
X208500434Y-58056773D01*
X208172288Y-57991500D01*
X207837712Y-57991500D01*
X207509566Y-58056773D01*
X207200459Y-58184809D01*
X206922270Y-58370689D01*
X206735000Y-58557959D01*
X206547730Y-58370689D01*
X206269541Y-58184809D01*
X205960434Y-58056773D01*
X205632288Y-57991500D01*
X205297712Y-57991500D01*
X204969566Y-58056773D01*
X204660459Y-58184809D01*
X204382270Y-58370689D01*
X204195000Y-58557959D01*
X204007730Y-58370689D01*
X203729541Y-58184809D01*
X203420434Y-58056773D01*
X203092288Y-57991500D01*
X202757712Y-57991500D01*
X202429566Y-58056773D01*
X202120459Y-58184809D01*
X201842270Y-58370689D01*
X201655000Y-58557959D01*
X201467730Y-58370689D01*
X201189541Y-58184809D01*
X200880434Y-58056773D01*
X200552288Y-57991500D01*
X200217712Y-57991500D01*
X199889566Y-58056773D01*
X199580459Y-58184809D01*
X199302270Y-58370689D01*
X199115000Y-58557959D01*
X198927730Y-58370689D01*
X198649541Y-58184809D01*
X198340434Y-58056773D01*
X198012288Y-57991500D01*
X197677712Y-57991500D01*
X197349566Y-58056773D01*
X197040459Y-58184809D01*
X196762270Y-58370689D01*
X196575000Y-58557959D01*
X196387730Y-58370689D01*
X196109541Y-58184809D01*
X195800434Y-58056773D01*
X195472288Y-57991500D01*
X195137712Y-57991500D01*
X194809566Y-58056773D01*
X194500459Y-58184809D01*
X194222270Y-58370689D01*
X194035000Y-58557959D01*
X193847730Y-58370689D01*
X193569541Y-58184809D01*
X193260434Y-58056773D01*
X192932288Y-57991500D01*
X192597712Y-57991500D01*
X192269566Y-58056773D01*
X191960459Y-58184809D01*
X191682270Y-58370689D01*
X191495000Y-58557959D01*
X191307730Y-58370689D01*
X191029541Y-58184809D01*
X190720434Y-58056773D01*
X190392288Y-57991500D01*
X190057712Y-57991500D01*
X189729566Y-58056773D01*
X189420459Y-58184809D01*
X189142270Y-58370689D01*
X188955000Y-58557959D01*
X188767730Y-58370689D01*
X188489541Y-58184809D01*
X188180434Y-58056773D01*
X187852288Y-57991500D01*
X187517712Y-57991500D01*
X187189566Y-58056773D01*
X186880459Y-58184809D01*
X186602270Y-58370689D01*
X186415000Y-58557959D01*
X186227730Y-58370689D01*
X185949541Y-58184809D01*
X185640434Y-58056773D01*
X185312288Y-57991500D01*
X184977712Y-57991500D01*
X184649566Y-58056773D01*
X184340459Y-58184809D01*
X184062270Y-58370689D01*
X183875000Y-58557959D01*
X183687730Y-58370689D01*
X183409541Y-58184809D01*
X183100434Y-58056773D01*
X182772288Y-57991500D01*
X182437712Y-57991500D01*
X182109566Y-58056773D01*
X181800459Y-58184809D01*
X181522270Y-58370689D01*
X181335000Y-58557959D01*
X181147730Y-58370689D01*
X180869541Y-58184809D01*
X180560434Y-58056773D01*
X180232288Y-57991500D01*
X179897712Y-57991500D01*
X179569566Y-58056773D01*
X179260459Y-58184809D01*
X178982270Y-58370689D01*
X178795000Y-58557959D01*
X178607730Y-58370689D01*
X178329541Y-58184809D01*
X178020434Y-58056773D01*
X177692288Y-57991500D01*
X177357712Y-57991500D01*
X177029566Y-58056773D01*
X176720459Y-58184809D01*
X176442270Y-58370689D01*
X176205689Y-58607270D01*
X176072298Y-58806904D01*
X175941718Y-58751242D01*
X175002961Y-59690000D01*
X174967039Y-59690000D01*
X174028282Y-58751242D01*
X173897702Y-58806904D01*
X173848510Y-58733282D01*
X174046242Y-58733282D01*
X174985000Y-59672039D01*
X175923758Y-58733282D01*
X175827856Y-58508301D01*
X175581123Y-58366574D01*
X175311481Y-58275706D01*
X175029293Y-58239188D01*
X174745403Y-58258424D01*
X174470720Y-58332675D01*
X174215800Y-58459086D01*
X174142144Y-58508301D01*
X174046242Y-58733282D01*
X173848510Y-58733282D01*
X173764311Y-58607270D01*
X173527730Y-58370689D01*
X173249541Y-58184809D01*
X172940434Y-58056773D01*
X172612288Y-57991500D01*
X172277712Y-57991500D01*
X171949566Y-58056773D01*
X171640459Y-58184809D01*
X171362270Y-58370689D01*
X171125689Y-58607270D01*
X170939809Y-58885459D01*
X170811773Y-59194566D01*
X170746500Y-59522712D01*
X159228792Y-59522712D01*
X159068764Y-59136373D01*
X158794146Y-58725377D01*
X158444623Y-58375854D01*
X158033627Y-58101236D01*
X157576953Y-57912075D01*
X157092150Y-57815642D01*
X156597850Y-57815642D01*
X156113047Y-57912075D01*
X155656373Y-58101236D01*
X155245377Y-58375854D01*
X154895854Y-58725377D01*
X154621236Y-59136373D01*
X154432075Y-59593047D01*
X154335642Y-60077850D01*
X153123500Y-60077850D01*
X153123500Y-56603500D01*
X221526501Y-56603500D01*
X221526501Y-88804061D01*
G37*
G04 #@! TD.AperFunction*
D25*
X217589101Y-95602456D02*
X217589101Y-98044589D01*
X217490421Y-98003715D01*
X217278193Y-97961500D01*
X217061807Y-97961500D01*
X216849579Y-98003715D01*
X216649665Y-98086522D01*
X216469747Y-98206739D01*
X216339920Y-98336566D01*
X215241234Y-97237880D01*
X215214588Y-97205412D01*
X215085022Y-97099079D01*
X214963331Y-97034034D01*
X214881526Y-96880987D01*
X214763197Y-96736803D01*
X214619013Y-96618474D01*
X214509616Y-96560000D01*
X214619013Y-96501526D01*
X214763197Y-96383197D01*
X214881526Y-96239013D01*
X214969452Y-96074515D01*
X215023597Y-95896024D01*
X215041879Y-95710400D01*
X215041879Y-94998402D01*
X215150335Y-94953478D01*
X215330253Y-94833261D01*
X215332614Y-94830900D01*
X216817546Y-94830900D01*
X217589101Y-95602456D01*
G04 #@! TA.AperFunction,Conductor*
D24*
G36*
X217589101Y-95602456D02*
G01*
X217589101Y-98044589D01*
X217490421Y-98003715D01*
X217278193Y-97961500D01*
X217061807Y-97961500D01*
X216849579Y-98003715D01*
X216649665Y-98086522D01*
X216469747Y-98206739D01*
X216339920Y-98336566D01*
X215241234Y-97237880D01*
X215214588Y-97205412D01*
X215085022Y-97099079D01*
X214963331Y-97034034D01*
X214881526Y-96880987D01*
X214763197Y-96736803D01*
X214619013Y-96618474D01*
X214509616Y-96560000D01*
X214619013Y-96501526D01*
X214763197Y-96383197D01*
X214881526Y-96239013D01*
X214969452Y-96074515D01*
X215023597Y-95896024D01*
X215041879Y-95710400D01*
X215041879Y-94998402D01*
X215150335Y-94953478D01*
X215330253Y-94833261D01*
X215332614Y-94830900D01*
X216817546Y-94830900D01*
X217589101Y-95602456D01*
G37*
G04 #@! TD.AperFunction*
D25*
X209331739Y-90235253D02*
X209484747Y-90388261D01*
X209664665Y-90508478D01*
X209864579Y-90591285D01*
X210076807Y-90633500D01*
X210080146Y-90633500D01*
X210188766Y-90742120D01*
X210904766Y-91458121D01*
X210089600Y-91458121D01*
X209903976Y-91476403D01*
X209725485Y-91530548D01*
X209560987Y-91618474D01*
X209416803Y-91736803D01*
X209359124Y-91807085D01*
X209232500Y-91680462D01*
X209232500Y-90086731D01*
X209331739Y-90235253D01*
G04 #@! TA.AperFunction,Conductor*
D24*
G36*
X209331739Y-90235253D02*
G01*
X209484747Y-90388261D01*
X209664665Y-90508478D01*
X209864579Y-90591285D01*
X210076807Y-90633500D01*
X210080146Y-90633500D01*
X210188766Y-90742120D01*
X210904766Y-91458121D01*
X210089600Y-91458121D01*
X209903976Y-91476403D01*
X209725485Y-91530548D01*
X209560987Y-91618474D01*
X209416803Y-91736803D01*
X209359124Y-91807085D01*
X209232500Y-91680462D01*
X209232500Y-90086731D01*
X209331739Y-90235253D01*
G37*
G04 #@! TD.AperFunction*
M02*
