%TF.GenerationSoftware,KiCad,Pcbnew,8.0.1-8.0.1-1~ubuntu22.04.1*%
%TF.CreationDate,2024-04-16T22:31:23-04:00*%
%TF.ProjectId,rocker_splitter,726f636b-6572-45f7-9370-6c6974746572,rev?*%
%TF.SameCoordinates,Original*%
%TF.FileFunction,Soldermask,Top*%
%TF.FilePolarity,Negative*%
%FSLAX46Y46*%
G04 Gerber Fmt 4.6, Leading zero omitted, Abs format (unit mm)*
G04 Created by KiCad (PCBNEW 8.0.1-8.0.1-1~ubuntu22.04.1) date 2024-04-16 22:31:23*
%MOMM*%
%LPD*%
G01*
G04 APERTURE LIST*
G04 Aperture macros list*
%AMRoundRect*
0 Rectangle with rounded corners*
0 $1 Rounding radius*
0 $2 $3 $4 $5 $6 $7 $8 $9 X,Y pos of 4 corners*
0 Add a 4 corners polygon primitive as box body*
4,1,4,$2,$3,$4,$5,$6,$7,$8,$9,$2,$3,0*
0 Add four circle primitives for the rounded corners*
1,1,$1+$1,$2,$3*
1,1,$1+$1,$4,$5*
1,1,$1+$1,$6,$7*
1,1,$1+$1,$8,$9*
0 Add four rect primitives between the rounded corners*
20,1,$1+$1,$2,$3,$4,$5,0*
20,1,$1+$1,$4,$5,$6,$7,0*
20,1,$1+$1,$6,$7,$8,$9,0*
20,1,$1+$1,$8,$9,$2,$3,0*%
G04 Aperture macros list end*
%ADD10O,2.604000X1.404000*%
%ADD11RoundRect,0.102000X1.858000X-1.858000X1.858000X1.858000X-1.858000X1.858000X-1.858000X-1.858000X0*%
%ADD12C,3.920000*%
%ADD13RoundRect,0.102000X-1.858000X-1.858000X1.858000X-1.858000X1.858000X1.858000X-1.858000X1.858000X0*%
%ADD14O,1.404000X2.604000*%
%ADD15RoundRect,0.102000X1.858000X1.858000X-1.858000X1.858000X-1.858000X-1.858000X1.858000X-1.858000X0*%
%ADD16C,3.600000*%
%ADD17C,5.600000*%
%ADD18C,3.350000*%
%ADD19RoundRect,0.102000X-0.634000X0.634000X-0.634000X-0.634000X0.634000X-0.634000X0.634000X0.634000X0*%
%ADD20C,1.472000*%
%ADD21RoundRect,0.102000X0.634000X0.634000X-0.634000X0.634000X-0.634000X-0.634000X0.634000X-0.634000X0*%
%ADD22RoundRect,0.102000X-0.634000X-0.634000X0.634000X-0.634000X0.634000X0.634000X-0.634000X0.634000X0*%
G04 APERTURE END LIST*
D10*
%TO.C,P_IN_1*%
X43342500Y-30795000D03*
X43342500Y-44295000D03*
D11*
X49342500Y-33945000D03*
D12*
X49342500Y-41145000D03*
%TD*%
%TO.C,P_OUT_1*%
X79995000Y-43395000D03*
D13*
X87195000Y-43395000D03*
D14*
X76845000Y-37395000D03*
X90345000Y-37395000D03*
%TD*%
D12*
%TO.C,P_OUT_2*%
X87195000Y-48145000D03*
D15*
X79995000Y-48145000D03*
D14*
X90345000Y-54145000D03*
X76845000Y-54145000D03*
%TD*%
D16*
%TO.C,H2*%
X55395000Y-58095000D03*
D17*
X55395000Y-58095000D03*
%TD*%
D16*
%TO.C,H1*%
X55395000Y-33095000D03*
D17*
X55395000Y-33095000D03*
%TD*%
D18*
%TO.C,D_IN_1*%
X41092500Y-48124000D03*
X41092500Y-59556000D03*
D19*
X47442500Y-49395000D03*
D20*
X49982500Y-50665000D03*
X47442500Y-51935000D03*
X49982500Y-53205000D03*
X47442500Y-54475000D03*
X49982500Y-55745000D03*
X47442500Y-57015000D03*
X49982500Y-58285000D03*
%TD*%
D18*
%TO.C,D_OUT_1*%
X72613500Y-35195000D03*
X61181500Y-35195000D03*
D21*
X71342500Y-41545000D03*
D20*
X70072500Y-44085000D03*
X68802500Y-41545000D03*
X67532500Y-44085000D03*
X66262500Y-41545000D03*
X64992500Y-44085000D03*
X63722500Y-41545000D03*
X62452500Y-44085000D03*
%TD*%
D18*
%TO.C,D_OUT_2*%
X61136500Y-56385000D03*
X72568500Y-56385000D03*
D22*
X62407500Y-50035000D03*
D20*
X63677500Y-47495000D03*
X64947500Y-50035000D03*
X66217500Y-47495000D03*
X67487500Y-50035000D03*
X68757500Y-47495000D03*
X70027500Y-50035000D03*
X71297500Y-47495000D03*
%TD*%
M02*
