M48
; DRILL file {KiCad 7.0.1} date Fri May  5 18:30:58 2023
; FORMAT={-:-/ absolute / inch / decimal}
; #@! TF.CreationDate,2023-05-05T18:30:58-04:00
; #@! TF.GenerationSoftware,Kicad,Pcbnew,7.0.1
; #@! TF.FileFunction,Plated,1,2,PTH
FMAT,2
INCH
; #@! TA.AperFunction,Plated,PTH,ComponentDrill
T1C0.0394
%
G90
G05
T1
X3.5Y-4.0
X3.5Y-4.1
X3.5Y-4.2
X3.5Y-4.3
X3.5Y-4.4
X3.5Y-4.5
X3.5Y-4.6
X3.5Y-4.7
X3.5Y-4.8
X3.5Y-4.9
X3.5Y-5.0
X3.5Y-5.1
X3.5Y-5.2
X3.5Y-5.3
X3.5Y-5.4
X3.5Y-5.5
X3.5Y-5.6
X3.5Y-5.7
X3.5Y-5.8
X3.6Y-3.4
X3.6Y-3.5
X3.6Y-6.3
X3.6Y-6.4
X3.6Y-6.5
X3.7Y-3.4
X3.7Y-3.5
X3.7Y-6.3
X3.7Y-6.4
X3.7Y-6.5
X3.8Y-3.4
X3.8Y-3.5
X3.8Y-4.0
X3.8Y-4.1
X3.8Y-4.2
X3.8Y-4.3
X3.8Y-4.4
X3.8Y-4.5
X3.8Y-4.6
X3.8Y-4.7
X3.8Y-4.8
X3.8Y-4.9
X3.8Y-5.0
X3.8Y-5.1
X3.8Y-5.2
X3.8Y-5.3
X3.8Y-5.4
X3.8Y-5.5
X3.8Y-5.6
X3.8Y-5.7
X3.8Y-5.8
X3.9Y-3.4
X3.9Y-3.5
X4.0Y-3.4
X4.0Y-3.5
X4.0Y-6.3
X4.0Y-6.4
X4.0Y-6.5
X4.1Y-6.3
X4.1Y-6.4
X4.1Y-6.5
X4.5Y-3.4
X4.5Y-3.5831
X4.6Y-3.4
X4.6Y-3.5831
X4.8Y-4.0
X4.8Y-4.1
X4.8Y-4.2
X4.8Y-4.3
X4.8Y-4.4
X4.8Y-4.5
X4.8Y-4.6
X4.8Y-4.7
X4.8Y-4.8
X4.8Y-4.9
X4.8Y-5.0
X4.8Y-5.1
X4.8Y-5.2
X4.8Y-5.3
X4.8Y-5.4
X4.8Y-5.5
X4.8Y-5.6
X4.8Y-5.7
X4.8Y-5.8
X5.1Y-3.4
X5.1Y-3.5
X5.1Y-4.0
X5.1Y-4.1
X5.1Y-4.2
X5.1Y-4.3
X5.1Y-4.4
X5.1Y-4.5
X5.1Y-4.6
X5.1Y-4.7
X5.1Y-4.8
X5.1Y-4.9
X5.1Y-5.0
X5.1Y-5.1
X5.1Y-5.2
X5.1Y-5.3
X5.1Y-5.4
X5.1Y-5.5
X5.1Y-5.6
X5.1Y-5.7
X5.1Y-5.8
X5.1Y-6.4
X5.1Y-6.5
X5.2Y-3.4
X5.2Y-3.5
X5.2Y-6.4
X5.2Y-6.5
X5.3Y-3.4
X5.3Y-3.5
X5.3Y-6.4
X5.3Y-6.5
X5.4Y-3.4
X5.4Y-3.5
X5.4Y-6.4
X5.4Y-6.5
X5.5Y-3.4
X5.5Y-3.5
X5.5Y-4.0
X5.5Y-4.1
X5.5Y-4.2
X5.5Y-4.3
X5.5Y-4.4
X5.5Y-4.5
X5.5Y-4.6
X5.5Y-4.7
X5.5Y-4.8
X5.5Y-4.9
X5.5Y-5.0
X5.5Y-5.1
X5.5Y-5.2
X5.5Y-5.3
X5.5Y-5.4
X5.5Y-5.5
X5.5Y-5.6
X5.5Y-5.7
X5.5Y-5.8
X5.5Y-6.4
X5.5Y-6.5
X5.8Y-4.0
X5.8Y-4.1
X5.8Y-4.2
X5.8Y-4.3
X5.8Y-4.4
X5.8Y-4.5
X5.8Y-4.6
X5.8Y-4.7
X5.8Y-4.8
X5.8Y-4.9
X5.8Y-5.0
X5.8Y-5.1
X5.8Y-5.2
X5.8Y-5.3
X5.8Y-5.4
X5.8Y-5.5
X5.8Y-5.6
X5.8Y-5.7
X5.8Y-5.8
X6.7Y-3.4
X6.7Y-3.5
X6.8Y-3.4
X6.8Y-3.5
X6.8Y-4.0
X6.8Y-4.1
X6.8Y-4.2
X6.8Y-4.3
X6.8Y-4.4
X6.8Y-4.5
X6.8Y-4.6
X6.8Y-4.7
X6.8Y-4.8
X6.8Y-4.9
X6.8Y-5.0
X6.8Y-5.1
X6.8Y-5.2
X6.8Y-5.3
X6.8Y-5.4
X6.8Y-5.5
X6.8Y-5.6
X6.8Y-5.7
X6.8Y-5.8
X6.9Y-3.4
X6.9Y-3.5
X6.9Y-6.4
X6.9Y-6.5
X7.0Y-3.4
X7.0Y-3.5
X7.0Y-6.4
X7.0Y-6.5
X7.1Y-3.4
X7.1Y-3.5
X7.1Y-4.0
X7.1Y-4.1
X7.1Y-4.2
X7.1Y-4.3
X7.1Y-4.4
X7.1Y-4.5
X7.1Y-4.6
X7.1Y-4.7
X7.1Y-4.8
X7.1Y-4.9
X7.1Y-5.0
X7.1Y-5.1
X7.1Y-5.2
X7.1Y-5.3
X7.1Y-5.4
X7.1Y-5.5
X7.1Y-5.6
X7.1Y-5.7
X7.1Y-5.8
X7.1Y-6.4
X7.1Y-6.5
X7.2Y-6.4
X7.2Y-6.5
X7.3Y-6.4
X7.3Y-6.5
X7.5921Y-4.1933
X7.5921Y-4.2933
X7.5921Y-4.3933
X7.5921Y-4.4933
X7.5921Y-4.5933
X7.6Y-5.2
X7.6Y-5.3
X7.6Y-5.4
X7.6Y-5.5
X7.6Y-5.6
X7.6921Y-4.1933
X7.6921Y-4.2933
X7.6921Y-4.3933
X7.6921Y-4.4933
X7.6921Y-4.5933
X7.7Y-3.4
X7.7Y-3.5
X7.7Y-5.2
X7.7Y-5.3
X7.7Y-5.4
X7.7Y-5.5
X7.7Y-5.6
T0
M30
